<svg xmlns="http://www.w3.org/2000/svg" width="57.6" height="57.6" viewBox="0 0 15.24 15.24">
  <defs>
    <clipPath id="a" clipPathUnits="userSpaceOnUse">
      <path d="M-484.938 374.408h612v-792h-612Z"/>
    </clipPath>
    <clipPath id="b" clipPathUnits="userSpaceOnUse">
      <path d="M-480.072 368.883h612v-792h-612Z"/>
    </clipPath>
    <clipPath id="c" clipPathUnits="userSpaceOnUse">
      <path d="M-482.966 368.93h612v-792h-612Z"/>
    </clipPath>
    <clipPath id="d" clipPathUnits="userSpaceOnUse">
      <path d="M-481.496 370.303h612v-792h-612Z"/>
    </clipPath>
  </defs>
  <path fill="#231f20" d="M7.804 1.905 1.082 13.123l13.076.212z"/>
  <path fill="#fff" d="m0 0 .714-.011c.167-.003.242.162.355-.197.113-.36-.1-.309-.093-.56l.008-.25s-.236-.659-.39-.566c-.156.092-.6.169-.597.357.003.188-.364.567-.364.567L-3.5.462v-.01l-3.168-1.02s-.38-.367-.383-.556c-.003-.188-.449-.25-.607-.337-.159-.088-.372.578-.372.578l.015.251c.017.25-.199.205-.075.561.125.356.194.188.361.186l.716-.012c.134-.002 1.493.503 2.485.879-.979.408-2.321.957-2.454.96l-.717.011c-.167.003-.241-.162-.355.197-.112.36.102.309.094.559l-.008.251s.235.659.391.566c.154-.092.599-.169.597-.357-.004-.189.364-.567.364-.567l3.133-1.122v.01l3.168 1.02s.378.367.381.555c.003.189.451.251.609.338.157.088.371-.579.371-.579l-.016-.249c-.015-.251.199-.206.075-.562-.125-.356-.194-.188-.362-.186l-.714.012c-.135.002-1.493-.503-2.484-.88C-1.477.551-.136.002 0 0m-4.188 3.256.003.264.276-.269.004.003v-.003l.086-.001.005.264.274-.268.004.002v-.003l.081-.001.08-.001v.003l.005-.003.283.258-.005-.263.087-.001v.002l.004-.002.283.259-.005-.264.087-.001v.003l.004-.004.263.241V3.45l.32-.005-.002-.118c.131.152.288.337.484.573.034.041.062.08.093.121l-.06-.808s-.091-.203-.167-.298c-.174-.217-.955-.833-1.1-.894-.266-.113-.638-.107-.638-.107l-.038.002h-.038s-.372.005-.634.126c-.143.066-.904.707-1.071.93-.072.097-.157.303-.157.303l-.034.809c.03-.041.057-.081.091-.123.187-.243.338-.432.464-.588l.002.117.32-.005v.021l.255-.249.005.003v-.003Zm-1.064 6.637c.593.39 1.91.362 1.91.362s1.317-.015 1.899-.424c.58-.41.777-1.183.719-1.597-.056-.412-.012-.777-.017-1.083-.005-.308-.052-1.227-.096-1.484-.045-.257-.237-.773-.735-1.377a37.363 37.363 0 0 0-.511-.604l-.227.003-.052.036-.308-.282.006.346-.087.002-.001-.078-.287-.263.005.345-.086.001-.001-.077-.287-.263.005.345-.086.001-.006-.344-.278.271.001.078-.086.001-.006-.345-.28.272.002.078-.087.001-.004-.345-.26.253v.003h-.003l-.036.035-.054-.034-.227.004c-.129.16-.291.361-.491.621-.478.619-.653 1.141-.688 1.399-.037.259-.055 1.179-.05 1.487.005.306.062.67.018 1.083-.044.416.177 1.182.772 1.573" clip-path="url(#a)" transform="matrix(.35278 0 0 -.35278 8.913 9.79)"/>
  <path fill="#231f20" d="M0 0c.404-.007.736.291.743.665.006.373-.244.563-.722.688-.39.103-.732-.036-.743-.665C-.728.314-.404.006 0 0" clip-path="url(#b)" transform="matrix(.35278 0 0 -.35278 7.197 7.84)"/>
  <path fill="#231f20" d="M0 0c.404-.006.737.292.743.665.01.628-.327.778-.722.689-.481-.11-.737-.292-.743-.666C-.728.315-.404.007 0 0" clip-path="url(#c)" transform="matrix(.35278 0 0 -.35278 8.218 7.857)"/>
  <path fill="#231f20" d="M0 0s.333.01.472.157C.66.354.705.59.57.879c-.094.203-.156.499-.305.662l-.278-.397-.228.369c-.134-.164-.206-.429-.301-.616C-.686.613-.647.375-.466.172-.332.021 0 0 0 0" clip-path="url(#d)" transform="matrix(.35278 0 0 -.35278 7.7 8.341)"/>
  <text xml:space="preserve" x="104.305" y="134.238" stroke-width=".353" font-size="4.233" transform="rotate(.929 7614.61 -6047.142)"><tspan x="104.305" y="134.238" fill="#fff" font-family="Microstile" font-size="2.343" font-weight="700">ELIM</tspan></text>
</svg>