<?xml version="1.0" encoding="UTF-8" standalone="no"?>
<svg
   width="780"
   height="1020"
   viewBox="0 0 14.625 19.125"
   fill="none"
   version="1.1"
   id="svg1"
   sodipodi:docname="building-small-4x6.svg"
   inkscape:version="1.4.3 (0d15f750, 2025-12-25)"
   xmlns:inkscape="http://www.inkscape.org/namespaces/inkscape"
   xmlns:sodipodi="http://sodipodi.sourceforge.net/DTD/sodipodi-0.dtd"
   xmlns="http://www.w3.org/2000/svg"
   xmlns:svg="http://www.w3.org/2000/svg">
  <defs
     id="defs1" />
  <sodipodi:namedview
     id="namedview1"
     pagecolor="#ffffff"
     bordercolor="#000000"
     borderopacity="0.25"
     inkscape:showpageshadow="2"
     inkscape:pageopacity="0.0"
     inkscape:pagecheckerboard="0"
     inkscape:deskcolor="#d1d1d1"
     inkscape:zoom="0.55762451"
     inkscape:cx="410.67061"
     inkscape:cy="590.00276"
     inkscape:window-width="1612"
     inkscape:window-height="903"
     inkscape:window-x="45"
     inkscape:window-y="25"
     inkscape:window-maximized="0"
     inkscape:current-layer="layer5" />
  <g
     inkscape:groupmode="layer"
     id="layer3"
     inkscape:label="building">
    <g
       inkscape:groupmode="layer"
       id="layer5"
       inkscape:label="area"
       style="display:inline">
      <rect
         style="fill:#281d1d;fill-opacity:0.493243;stroke:none;stroke-width:0.0707563"
         id="rect13"
         width="12.60978"
         height="17.25"
         x="0.95342332"
         y="0.35210443" />
    </g>
    <g
       inkscape:groupmode="layer"
       id="layer4"
       inkscape:label="floor"
       style="display:inline">
      <rect
         style="fill:#281d1d;fill-opacity:0.493243;stroke-width:0.075"
         id="rect1"
         width="9"
         height="13.5"
         x="2.9253557"
         y="2.8244812" />
    </g>
    <g
       inkscape:groupmode="layer"
       id="layer6"
       inkscape:label="walls">
      <path
         id="rect2"
         style="fill:#000000;stroke-width:0.0278618"
         d="M 2.9253556,2.8244813 V 16.324481 H 3.469069 v -0.02168 h 7.912573 0.543714 V 15.760832 2.8244813 h -0.543714 v 0.021683 H 5.85757 v 0.5419668 h 5.524072 V 15.760832 H 3.469069 V 2.8244813 Z"
         inkscape:label="walls" />
    </g>
    <g
       inkscape:groupmode="layer"
       id="layer1"
       inkscape:label="windows">
      <rect
         style="fill:#ff0000;fill-opacity:0.5;stroke:none;stroke-width:0.0726409"
         id="rect3"
         width="0.5625"
         height="1.6875"
         x="11.362652"
         y="5.8334236"
         inkscape:label="window-5" />
      <rect
         style="fill:#ff0000;fill-opacity:0.5;stroke:none;stroke-width:0.0726409"
         id="rect4"
         width="0.5625"
         height="1.6875"
         x="11.362652"
         y="11.580234"
         inkscape:label="window-4" />
      <rect
         style="fill:#ff0000;fill-opacity:0.5;stroke:none;stroke-width:0.0726409"
         id="rect5"
         width="0.5625"
         height="1.6875"
         x="2.9066298"
         y="11.580234"
         inkscape:label="window-3" />
      <rect
         style="fill:#ff0000;fill-opacity:0.5;stroke:none;stroke-width:0.0726409"
         id="rect6"
         width="0.5625"
         height="1.6875"
         x="2.9476783"
         y="5.8334236"
         inkscape:label="window-2" />
      <rect
         style="fill:#ff0000;fill-opacity:0.5;stroke:none;stroke-width:0.0726409"
         id="rect7"
         width="0.5625"
         height="1.6875"
         x="15.751467"
         y="-8.2185917"
         transform="rotate(90)"
         inkscape:label="window-1" />
    </g>
    <g
       inkscape:groupmode="layer"
       id="layer2"
       inkscape:label="doors">
      <path
         id="rect6-1"
         style="display:inline;fill:#504416;fill-opacity:1;stroke:none;stroke-width:0.0586829"
         d="M 5.8199235,2.796869 A 0.1875,0.1875 0 0 0 5.6778702,2.8620179 V 2.843744 H 3.475258 v 0.28125 h 2.2026122 v -0.018237 a 0.1875,0.1875 0 0 0 0.1420533,0.065112 0.1875,0.1875 0 0 0 0.1875,-0.1875 0.1875,0.1875 0 0 0 -0.1875,-0.1875 z"
         inkscape:label="door-1-closed" />
      <path
         id="path8"
         style="display:inline;fill:#504416;fill-opacity:1;stroke:none;stroke-width:0.0586829"
         d="M 6.0050118,2.9499885 A 0.1875,0.1875 0 0 0 5.9398628,2.8079352 h 0.018274 V 0.60532291 h -0.28125 V 2.8079352 h 0.018237 a 0.1875,0.1875 0 0 0 -0.065112,0.1420533 0.1875,0.1875 0 0 0 0.1875,0.1875 0.1875,0.1875 0 0 0 0.1875,-0.1875 z"
         inkscape:label="door-1-opened" />
      <path
         id="path9"
         style="display:inline;fill:#504416;fill-opacity:1;stroke:none;stroke-width:0.0586829"
         d="M 5.9297012,2.8140112 A 0.1875,0.1875 0 0 0 5.788014,2.7480702 L 5.801929,2.7362249 4.3742141,1.0589857 4.1600486,1.2412896 5.5877635,2.9185288 5.6016505,2.9067075 a 0.1875,0.1875 0 0 0 0.042496,0.1503756 0.1875,0.1875 0 0 0 0.2643129,0.021241 0.1875,0.1875 0 0 0 0.021242,-0.2643129 z"
         inkscape:label="door-1-partial" />
    </g>
  </g>
</svg>
