<?xml version="1.0" encoding="UTF-8" standalone="no"?>
<svg
   width="1260"
   height="1020"
   viewBox="0 0 23.625 19.125"
   fill="none"
   version="1.1"
   id="svg1"
   sodipodi:docname="building-medium-6x8.svg"
   inkscape:version="1.4.3 (0d15f750, 2025-12-25)"
   xmlns:inkscape="http://www.inkscape.org/namespaces/inkscape"
   xmlns:sodipodi="http://sodipodi.sourceforge.net/DTD/sodipodi-0.dtd"
   xmlns="http://www.w3.org/2000/svg"
   xmlns:svg="http://www.w3.org/2000/svg">
  <defs
     id="defs1" />
  <sodipodi:namedview
     id="namedview1"
     pagecolor="#ffffff"
     bordercolor="#000000"
     borderopacity="0.25"
     inkscape:showpageshadow="2"
     inkscape:pageopacity="0.0"
     inkscape:pagecheckerboard="0"
     inkscape:deskcolor="#d1d1d1"
     inkscape:zoom="0.33816964"
     inkscape:cx="357.80858"
     inkscape:cy="476.09241"
     inkscape:window-width="1535"
     inkscape:window-height="797"
     inkscape:window-x="122"
     inkscape:window-y="25"
     inkscape:window-maximized="0"
     inkscape:current-layer="layer6" />
  <g
     inkscape:groupmode="layer"
     id="layer6"
     inkscape:label="building">
    <g
       inkscape:groupmode="layer"
       id="layer3"
       inkscape:label="floor">
      <rect
         style="fill:#281d1d;fill-opacity:0.493243;stroke:none;stroke-width:0.074786"
         id="rect1"
         width="18"
         height="13.5"
         x="2.7397406"
         y="2.7397406" />
    </g>
    <g
       inkscape:groupmode="layer"
       id="layer2"
       inkscape:label="walls">
      <path
         id="rect3"
         style="fill:#000000;stroke-width:0.0278619"
         d="m 2.7397405,2.7397405 v 0.5437134 12.4234501 0.532837 0.01088 H 20.739741 V 16.239741 15.706904 2.7397405 H 20.196028 V 15.706904 H 3.2834539 V 8.9803777 H 17.042366 V 13.25688 h 0.543713 V 8.4366643 H 17.552168 3.2834539 V 3.2834539 H 17.008454 v 2.7032226 h 0.543714 v -3.246936 h -0.0052 z" />
    </g>
    <g
       inkscape:groupmode="layer"
       id="layer4"
       inkscape:label="windows">
      <rect
         style="fill:#ff0000;fill-opacity:0.5;stroke:none;stroke-width:0.0726409"
         id="rect3-5"
         width="0.5625"
         height="1.6875"
         x="20.157883"
         y="6.659986"
         inkscape:label="window-11" />
      <rect
         style="fill:#ff0000;fill-opacity:0.5;stroke:none;stroke-width:0.0726409"
         id="rect4"
         width="0.5625"
         height="1.6875"
         x="20.157883"
         y="12.406796"
         inkscape:label="window-10" />
      <rect
         style="fill:#ff0000;fill-opacity:0.5;stroke:none;stroke-width:0.0726409"
         id="rect5"
         width="0.5625"
         height="1.6875"
         x="2.6975126"
         y="9.4154196"
         inkscape:label="window-9" />
      <rect
         style="fill:#ff0000;fill-opacity:0.5;stroke:none;stroke-width:0.0726409"
         id="rect6"
         width="0.5625"
         height="1.6875"
         x="2.6975126"
         y="3.668608"
         inkscape:label="window-8" />
      <rect
         style="fill:#ff0000;fill-opacity:0.5;stroke:none;stroke-width:0.0726409"
         id="rect7"
         width="0.5625"
         height="1.6875"
         x="2.7089126"
         y="-5.2296085"
         transform="rotate(90)"
         inkscape:label="window-7" />
      <rect
         style="fill:#ff0000;fill-opacity:0.5;stroke:none;stroke-width:0.0726409"
         id="rect2"
         width="0.5625"
         height="1.6875"
         x="2.6975126"
         y="11.802478"
         inkscape:label="window-6" />
      <rect
         style="fill:#ff0000;fill-opacity:0.5;stroke:none;stroke-width:0.0726409"
         id="rect8"
         width="0.5625"
         height="1.6875"
         x="2.7089126"
         y="-16.621017"
         transform="rotate(90)"
         inkscape:label="window-5" />
      <rect
         style="fill:#ff0000;fill-opacity:0.5;stroke:none;stroke-width:0.0726409"
         id="rect9"
         width="0.5625"
         height="1.6875"
         x="2.7089126"
         y="-14.415254"
         transform="rotate(90)"
         inkscape:label="window-4" />
      <rect
         style="fill:#ff0000;fill-opacity:0.5;stroke:none;stroke-width:0.0726409"
         id="rect10"
         width="0.5625"
         height="1.6875"
         x="15.731982"
         y="-16.651234"
         transform="rotate(90)"
         inkscape:label="window-3" />
      <rect
         style="fill:#ff0000;fill-opacity:0.5;stroke:none;stroke-width:0.0726409"
         id="rect11"
         width="0.5625"
         height="1.6875"
         x="15.731982"
         y="-14.445469"
         transform="rotate(90)"
         inkscape:label="window-2" />
      <rect
         style="fill:#ff0000;fill-opacity:0.5;stroke:none;stroke-width:0.0726409"
         id="rect12"
         width="0.5625"
         height="1.6875"
         x="15.731982"
         y="-9.8224316"
         transform="rotate(90)"
         inkscape:label="window-1" />
    </g>
    <g
       inkscape:groupmode="layer"
       id="layer5"
       inkscape:label="doors">
      <path
         id="rect6-1"
         style="display:inline;fill:#504416;fill-opacity:1;stroke:none;stroke-width:0.0586829"
         d="m 20.113232,2.6950546 c -0.05458,7.8e-6 -0.10644,0.023794 -0.142053,0.06515 v -0.01827 h -2.414776 v 0.28125 h 2.414776 v -0.01824 c 0.03562,0.041341 0.08748,0.065112 0.142053,0.06511 0.103553,0 0.1875,-0.083947 0.1875,-0.1875 0,-0.1035534 -0.08395,-0.1875 -0.1875,-0.1875 z"
         inkscape:label="door-1-closed"
         sodipodi:nodetypes="ccccccccsc" />
      <path
         id="path12"
         style="display:inline;fill:#504416;fill-opacity:1;stroke:none;stroke-width:0.0586829"
         d="m 20.32462,2.855923 c -8e-6,-0.05458 -0.02379,-0.10644 -0.06515,-0.142053 h 0.01827 V 0.29909399 H 19.99649 V 2.71387 h 0.01824 c -0.04134,0.03562 -0.06511,0.08748 -0.06511,0.142053 0,0.103553 0.08395,0.1875 0.1875,0.1875 0.103553,0 0.1875,-0.08395 0.1875,-0.1875 z"
         inkscape:label="door-1-opened"
         sodipodi:nodetypes="ccccccccsc" />
      <path
         id="path13"
         style="display:inline;fill:#504416;fill-opacity:1;stroke:none;stroke-width:0.0586829"
         d="m 20.233373,2.7283474 c -0.04379,-0.032577 -0.0996,-0.044454 -0.152856,-0.032537 l 0.01091,-0.014657 -1.93726,-1.4415849 -0.167902,0.2256335 1.93726,1.4415849 0.01089,-0.014633 c 0.0039,0.05443 0.03131,0.1044606 0.07509,0.1370381 0.08308,0.06182 0.200537,0.044588 0.262357,-0.038488 0.06182,-0.083076 0.04458,-0.2005392 -0.03849,-0.262357 z"
         inkscape:label="door-1-partial"
         sodipodi:nodetypes="ccccccccsc" />
    </g>
  </g>
</svg>
