<svg xmlns="http://www.w3.org/2000/svg" xml:space="preserve" width="96" height="192" viewBox="0 0 25.4 50.8"><path d="M101.5 106.8c.1-.1.3 0 .4 0h-.3c-.2 0-.2 0 0 0zm7.9 6.8v-.4.8-.4z" style="fill:#d0d0d0;fill-opacity:1" transform="translate(-89 -105.5)"/><path d="m93 109.6.4-.3c.3-.2.3-.2 0 0-.2.4-.3.5-.3.3zm-2.4 2.9.6-.6.6-.5-.6.5c-.4.6-.6.7-.6.6zm18.1 2.1-2.2-.5a7 7 0 0 1-2.2-.7l-.5-.2.4-.3c.5-.5.4-.6-.2-.5-.7.1-1.1 0-1.1-.4 0-.2-.1-.3-.3-.2-.4 0-2.6-2.2-2.6-2.8 0-.3 0-.4.5-.4.7 0 .5-.3-.3-.5-.6-.1-.7-.3-.9-.8-.2-.7-.1-.8.5-.8.4 0 .4 0 0 .2h-.4c-.1 0-.1 0 0 .1h2l.8.1c.4 0 .6 0 .5.2-.1.1 0 .2.4 0l.6.1c0 .2.2.2.5.1.4 0 .5 0 .4.1 0 .2 0 .2.4.1.3 0 .4 0 .3.1 0 .2 0 .2.5.1h.4c0 .2 0 .3.4.2h.4c0 .2.2.2.4.2h.2l.1.2h.4l.3.2c0 .1 0 .1-.1 0-.2 0-.2 0 0 .2.2.1.3.3.2.4.2 0 .2.2.2.4v.3c.2 0 .2 0 .2.6-.1.6 0 .7 0 .4.2-.2.2-.1.1.4v.6c.2-.1.2.5.2 1.4v1.6l-.5-.2z" style="fill:#b9b9b9;fill-opacity:1" transform="translate(-89 -105.5)"/><path d="m99.2 106.9 1-.2h.8c-.1.2-1.9.3-1.8.2zm3.5.2h.5l-.2.1h-.3zm1.1.2h.4-.3c-.2 0-.2 0 0 0zm.9.2h.3-.3zm.7.1h.4l-.2.1h-.2zm.9.2h.4l-.2.1h-.2zm-6.2.4h.3-.2c-.2 0-.2 0 0 0zm8.1.4a2 2 0 0 0-.7-.4c-.3-.1-.4-.3-.3-.3.3 0 1.5.9 1.2 1l-.2-.3zm-8.4.3c0-.2 0-.3.1-.1v.3l-.1-.2zm8.8.7c0-.2 0-.3.1-.1v.3-.2zm-8 .6-.4-.4.4.3.4.4c0 .2-.1 0-.4-.3zm1 1-.3-.4.4.4c.4.3.5.4.3.4l-.4-.4zm7.3-.1c0-.4-.1-.8 0-.8l.1.7c.1.4.1.7 0 .8l-.1-.7zm-6.3 1c-.1-.2-.1-.3 0-.4h.2v.6l-.2-.2zm1.7 1.3.3-.1-.2.2c-.2 0-.2 0 0-.1zm4.8.1.1-1.2v2.4-1.2z" style="fill:#a3a3a3;fill-opacity:1" transform="translate(-89 -105.5)"/><path d="M99.7 109.3c-.5-.5-.5-.5-.2-.8.3-.3.4-.3.6-.2.1.1.3.1.4 0 0 0 .2 0 .3.2l-.5.1c-.6 0-.7.3-.2.9.3.5.2.5-.4-.2zm-2.4.8.3-.4c.3-.2.3-.2 0 0a29 29 0 0 0-.3.4zm2 .2c-.2 0-.4-.2-.3-.3h-.6l-.6.1.5-.5c.7-.5 1.2-.5 1.3 0 0 .3.2.5.4.5.3 0 .3 0 .1.2-.2.3-.3.3-.8 0zm1.7.5-.4-.5.5.4c.4.4.5.6.4.6l-.5-.5zm-.3.6-.5-.6.6.6c.5.4.7.6.5.6l-.6-.6zm1.5.5c-.2-.3-.2-.3.1-.1.3.2.4.4.2.4l-.3-.3zm2 .5h.3l-.2.1c-.2 0-.3 0-.1-.1z" style="fill:#8c8c8c;fill-opacity:1" transform="translate(-89 -105.5)"/><path d="m92.2 110.9.3-.3c.3-.3.3-.3 0 0-.1.3-.3.4-.3.3zm10.8 2h-.3c-.2 0-.3 0-.2-.2.1-.2 0-.2 0-.1-.2 0-.4 0-.6-.2-.1-.3-.2-.3 0 0l-.7-.6a4 4 0 0 0-1-1c-.4 0-.4 0-.1-.4.3-.3.3-.3 0-.3s-.5-.2-.5-.4c-.1-.6-.6-.6-1.3 0l-.5.4.6-.1h.6c-.1.3-1.5.3-1.5 0l.2-.3c.2-.2.2-.2 0 0-.2.1-.4.3-.4.5 0 0 0 .2-.2.2-.3 0 0-.4 1-1.3l1.2-1.3c0-.3.1-.3.1 0 0 .2.1.3.2.3.2 0 .1.2 0 .4-.4.3-.4.3.5 1.2 1.8 2.1 3 3 3.8 2.9h.6l-.6.2c-.6.3-1 .3-1 0zm-1.7 4.6h.4l-.2.1h-.2z" style="fill:#767676;fill-opacity:1" transform="translate(-89 -105.5)"/><path d="M98.1 111.1c-.4-.4-.4-.6-.3-.7.2-.2.3-.2.4 0 .1.2.2.2.4 0h.6c.3.2.3.2 0 .2-.4 0-.5.3-.3.6.2.2 0 .4-.2.4l-.6-.5zm2.6.5a4 4 0 0 1-.7-.8l.8.8.7.7-.8-.7zm-8.4.6c0-.1 0-.5.2-.8.3-.3.4-.7.3-.9-.1-.3 1-1.5 2-2l2.5-1.1c1.5-.6 1.6-.6 1.8-.3l.2.6c0 .4-2.6 2.8-3.4 3l-2 1-1.6.5zm4.9-.2-.6-.5.5-.4.4-.4v.4c-.2.4-.2.4.2.3.4-.2.4-.1.2.1-.2.3-.2.4 0 .5.2.3.2.5 0 .5l-.7-.5zm6.5 1.3c-.3-.2-.4-.2-.2-.2s.4 0 .5.2c.3.3.3.3-.3 0zm-13.6.4c0-.3 0-.3.1-.2v.4l-.1-.2zm13.4 3.8h.3l-.2.1h-.1z" style="fill:#606060;fill-opacity:1" transform="translate(-89 -105.5)"/><path d="M98.2 110.4s.1-.2.3-.2c.1 0 .2.1.1.2l-.2.2-.2-.2z" style="fill:#494949;fill-opacity:1" transform="translate(-89 -105.5)"/><path d="M101.7 117.5a2 2 0 0 0-1-.1l-.5-.1c0-.1-.2-.2-.4-.1h-.4c-.1-.2-.4-.3-.7-.3-.3 0-.5 0-.5-.2h-.3c-.1 0-.2 0-.2-.2 0 0 0-.1-.1 0l-.4-.1c-.1-.1-.2-.2-.2 0 0 0-.2 0-.3-.2h-.3l-.2-.1-.4-.2-.7-.1c-.2-.2-.5-.2-.6-.2h-.3c0-.2-.2-.2-.4-.2H93c-.2 0-.4-.2-.4-.3h-.3l-.5-.1c0-.1-.1-.2-.2-.1h-.3c0-.2-.2-.2-.3-.2 0-.2-.1-.2-.3-.2-.1 0-.3-.1-.3-.3V113c.2 0 .2 0 .2-.2s2.2-2.2 2.3-2.1l-.3.7c-.2.3-.4.7-.3.8l1.5-.6c1.2-.5 3.6-1.4 4-1.4v.3c-.2.3.8 1.2 1.1 1 .2 0 .2-.1 0-.3a.3.3 0 0 1 0-.4c.2-.4.8-.2 1.9.8.6.6 1.4 1.2 1.8 1.3l1.4.6 1.5.5.9.3.6.1 1.3.3c.7.1.8.2.9.6 0 .7 0 1-.3 1l-.3.1c0 .1 0 .1-.2 0l-.1.2h-.3l-.3.1c0 .1 0 .2-.2.1l-.4.1h-.3l-.5.1c-.3.2-.5.2-1.7.3a118.4 118.4 0 0 0-3 .2z" style="fill:#494949;fill-opacity:1" transform="translate(-89 -105.5)"/><path d="M98 112.4c0-.1 0-.3-.2-.4v-.5c.3-.2.3-.3-.1-.1-.4 0-.4 0-.3-.3l.1-.4-.4.4-.5.4.6.5c.6.5.8.6.8.4z" style="fill:#494949;fill-opacity:1" transform="translate(-89 -105.5)"/><path d="m92 111.2.7-.6-.5.6-.7.6.5-.6zm.3 3.8h.4c0 .1 0 .2-.2.2s-.3-.1-.2-.2zm16.9.3v-.2.5-.3zm-2.7 1.7h.3s0 .1-.2 0h-.1zm-2.3.3h.4l-.2.1h-.2zm-3.2 0h.3c0 .1 0 .2-.2.1h-.1z" style="fill:#333;fill-opacity:1" transform="translate(-89 -105.5)"/><path d="M69 167.1c0-.2-.2-.2-.4-.2-.4.2-.9-.5-.5-.7.1 0 .1 0 0 .1 0 .2 0 .2.2.1l.3.1c0 .1 0 .1.1 0 .1 0 .2 0 .2.2 0 0 .1.1.2 0 .2 0 .2 0 0 .1 0 .2 0 .3.2.4.2.1.2.2 0 .2-.1 0-.3-.1-.3-.3zm4.3 3.7.3-.3c.2-.1.3-.1.2.1-.1.3-.5.4-.5.2zm.7.7c-.1-.2-.1-.3 0-.4v.1c0 .2.1.2.2.1.1 0 .1 0 0 .2 0 .4-.1.4-.2 0zm-1.5 1c.2-.1.4-.2.5 0l-.3.1c-.4 0-.5 0-.2-.1z" style="fill:#b9b9b9;fill-opacity:1" transform="rotate(-30.7 -243.2 196.2)"/><path d="M73.2 172.5c-.1-.2-.4-.3-1.1-.3l-1.3.2h-.3c0-.2 0-.2-.2-.2l-.1-.1c0-.3-.4-.5-1-.4H69c.2-.2.3-.2.1-.3 0 0-.1 0 0-.1 0-.2-.2-.3-.6-.2v-.2h.3c.2 0 .3 0 .3-.2 0-.1-.4-.2-1-.1-1.1 0-1.3 0-1 .4.2.2.4.2.6 0 .1 0 .2-.1.1 0-.2.2.2.8.6.7.2-.1.2 0 0 0-.2.2-.2.3 0 .3h.1c-.2.3-1.3-.8-2-1.8-.4-.6-1-1.2-1.5-1.6l-1-.7.5-.8c.5-.6.6-1 .2-1.4v-.3c.1-.2 1.2-.2 1.2 0 0 .1.2.1.4 0 .2 0 .3 0 .3.2 0 .1.1.2.2.1l.2.1c0 .1.1.2.3.1.1 0 .2 0 .1.1 0 .1 0 .2.2 0 .1 0 .2 0 .2.2l-.5.3c-.3 0-.4 0-.1-.2.2-.1.1-.2-.2 0-.2 0-.4 0-.6-.2-.2-.2-.3-.2-.5.2-.3.6-.2 1 .2.7.2-.1.4 0 .4 0 .1.1 0 .2 0 .2-.3 0-.6 0-1 .4-.1.2-.4.3-.5.3-.2-.1-.3 0-.1.2 0 .3.2.4.5.4.2 0 .3 0 .3.3 0 .4.2.6.5.3s.5 0 .3.3c-.2.2-.2.3 0 .3.3 0 .4-.1.3-.3v-.4c0-.2-.2-.3-.4-.3l-.2.1v.2c-.2 0-.3-.3-.2-.5l-.1-.7c-.1-.2.2-.5.6-.5l.2-.3c.1-.5.2-.6.5-.2l.6.2.6.2c.2.1 0 .2-.4 0h-.8l.8.3c.8.2 1.9.2 1.7-.1l.2-.1c.2 0 .2 0 0 .3-.4.4-.4.4.1 0h.5c0 .2-.1.3-.2.2l-.1.3c0 .4.4.5.9 0 .2-.1.3-.2.2 0 0 .1.1.2.5.2 0 0 .1 0 0 .1 0 .1 0 .2.2.2.1 0 .1 0 0 .2-.4.2-.7 0-.5-.2l-.1-.2c-.3 0-.5.1-.4.2h-.5c-.3 0-.3 0 .1.2.4.1.6.2.5.3h.5c.5-.1.6 0 .5.3h.2v-.5c0-.3 0-.3.4 0 .5.5.4 1 0 .6-.2-.2-.2 0-.2.7 0 .6 0 .9.2.8.2 0 .3-.6 0-1h1v.2l-.4.2c-.2 0-.2.1-.1.5 0 .4 0 .6-.3.7-.4.2-.4.2.3.2l.1-.2c0-.2.2-.3.3-.3.2 0 .3.2.3.3v.4c.3.2 0 .8-.2.8l-.4-.3z" style="fill:#b9b9b9;fill-opacity:1" transform="rotate(-30.7 -243.2 196.2)"/><path d="m73 169.4-.3-.3c-.3-.2-.3-.2-.1 0 .2.4.4.5.4.3zm-5.5.5c0-.3-.2-.5-.3-.5-.1 0-.1 0 0 0l-.1.4c-.2.1-.4.2-.5.1-.1 0-.2 0 0 .1 0 .1.2.2.4.1.3 0 .3 0 .2.2 0 .2 0 .3.1.2l.2-.6zm4.6 3.4a89.3 89.3 0 0 0-3.4-1.2h.3c.3.3.7.1.5-.1l.1-.2c.1 0 .2 0 .3.2v.1c-.2 0-.3.1-.3.2 0 .2 2.4.7 2.7.6.1 0 .1 0 0 .1l1 .4c.7.2 1 .3.6.3l-1.8-.4zm2.5.3c0-.2 0-.2.3 0 .4.3.2-.5-.3-1-.3-.3-.3-.5-.2-.6.2 0 .2 0 0 .1 0 .2 0 .2.2.2h.3c0 .3 0 .5.2.5.1 0 .2.2.2.5 0 .4 0 .5-.3.6-.2 0-.4-.1-.4-.3z" style="fill:#b9b9b9;fill-opacity:1" transform="rotate(-30.7 -243.2 196.2)"/><path d="M67.2 170.3c.1-.2 0-.2-.4-.2h-.4c0-.2.2-.2.2-.2.1.1.3 0 .5-.1.1-.2.2-.3 0-.4.4 0 .5 1 .2 1-.1.2-.2.1 0 0z" style="fill:#a3a3a3;fill-opacity:1" transform="rotate(-30.7 -243.2 196.2)"/><path d="M75 174c0-.2 0-.3-.2-.5-.2-.1-.2-.1-.2 0 0 .2-.1.3-.4.4-.4 0-.4 0 0-.1.2-.2.1-.2-.5-.3h-1v-.1c.1-.2 0-.2-.2-.2-.3.1-.4 0-.2 0 .2-.3-.3-.4-1.6-.4-.4 0-.6 0-.5-.2h-1l.4-.3c.2-.1.3-.3.3-.4-.2-.2-.5-.1-.4 0 0 .1 0 .3-.2.4-.3.1-.4.2-.3 0v-.2h-.3c0 .2 0 .1-.2 0l-.4-.2c-.1 0-.2 0-.2-.2a78340.2 78340.2 0 0 0-.2-.7v.3c0 .1-.2 0-.4-.3-.3-.2-.5-.4-.6-.3v-.1c0-.1.2-.2.3-.1h1.2c.6 0 .9.1.9.2s-.1.2-.3.1l-.3.1v.2c.4-.1.6 0 .5.2l.1.1c.2 0 .1.1 0 .2-.4.2-.4.2 0 .1.7 0 1 0 1 .4 0 .1.1.2.2.1l.2.1c0 .2.1.2.3.1l1.3-.2c.7 0 1 0 1.1.3.1.2.3.3.4.3.2 0 .5-.6.3-.8l-.1-.4c0-.1-.1-.3-.3-.3-.1 0-.3.1-.3.3v.2c-.8 0-.8 0-.4-.2.3-.1.3-.3.3-.7-.1-.4 0-.5.2-.5s.2 0 0-.2c-.2-.3-.7-.4-.5-.1.2.3.1.9-.1 1-.2 0-.3-.1-.2-.4 0-.9 0-1.4-.2-1.3H72c0-.4 0-.4-.5-.3H71s-.1-.2-.5-.3c-.4-.2-.4-.2 0-.1.2 0 .4 0 .4-.2l.3-.1c.3 0 .3 0 0-.1H71c-.4.3-.8.2-.8-.2 0-.3-.1-.4-.3-.3h-.2c.1-.2 0-.2-.4-.2l-1.3-.1-.8-.3h.8c.5.2.6.1.4 0l-.6-.2a1 1 0 0 1-.6-.2c-.3-.4-.4-.3-.5.2 0 .1 0 .3-.2.3-.4 0-.7.3-.6.5v.7l.2.5c.1 0 .2-.1.1-.2l.2-.1c.2 0 .3.1.4.3v.5c0 .1 0 .2-.3.3l-.3-.1c0-.1 0-.3-.2-.4a.8.8 0 0 1-.3-.5c0-.3 0-.3-.4-.3s-.5 0-.5-.3 0-.4.2-.3l.6-.3c.3-.4.6-.5 1-.4v-.2H66c-.5.3-.5-.1-.2-.8.2-.3.4-.4.4-.3 0 .3.4.4.8.3.2 0 .2-.1 0-.3-.5-.3.2 0 .8.3l.3.2c-.2 0-.3 0-.2.2 0 .1.2.2.3.1 0 0 .1 0 0 .1-.1.3 0 .3.4 0 .3 0 .7.1 1.8.8a8 8 0 0 1 3.4 3.1l1 1.8c.4.5.6.8.5 1.2 0 .2-.2.4-.3.4-.1 0-.2 0-.1-.2z" style="fill:#a3a3a3;fill-opacity:1" transform="rotate(-30.7 -243.2 196.2)"/><path d="M67.7 166.3c0-.2-.2-.2-.5 0-.2.1-.2.2 0 .1l.5-.1zm1.5.8-.3-.2c0 .1.2.5.4.5v-.3zm2.7 1.5c-.3-.2-.6 0-.4.2 0 0 .2.1.4 0 .2 0 .2 0 0-.2zm-5.3.4c-.2-.1-.5.1-.4.3 0 .2.2.2.3 0v-.3zm6.4.6-.4-.4-.4-.3.3.4c.3.3.5.5.5.3zm.7 1.1v-.1l-.3.1.1.2c.1 0 .2 0 .2-.2zm.3.6c-.1-.3-.2-.2 0 .2 0 .2.1.3.2.2l-.1-.4zm-1 1.1h-.5c-.3.2-.2.2.2.2.2 0 .4 0 .3-.2zm2.3 1-.4-.8a.9.9 0 0 1-.4-.6c.1 0 0 0 0 0-.2.1-.2.3.1.6.3.3.5.6.5.8v.3c.1 0 .2-.1.2-.3z" style="fill:#a3a3a3;fill-opacity:1" transform="rotate(-30.7 -243.2 196.2)"/><path d="m65.6 169.3-.3-.4.4.3c.4.3.5.5.3.5l-.4-.4zm1.5 2-.4-.5.5.4c.5.4.6.6.4.6l-.5-.5z" style="fill:#8c8c8c;fill-opacity:1" transform="rotate(-30.7 -243.2 196.2)"/><path d="m63.5 166.1.1-.1c.1 0 .2-.1.1-.2v-.1c.3 0 .3.2 0 .4-.1.3-.2.3-.2 0zm-3.7 1.8c0-.1 0-.1.1 0l.2.1h-.2l-.1-.1zm2.4 2.7c-.6-.6-1.2-2.3-.9-2 .1 0 .2.1.1.2l.4.2c.4 0 .5.2.6.4 0 .3.1.4.4.4.3 0 .3 0-.2-.6l-.6-.6 1.3-1.3c1.1-1.1 1.4-1.3 1.5-1.1.1.4-.3.9-.7.8l-.2.1v.4c-.4.1 0 .7.5.9.3 0 .3 0 0 .2-.2.2-.4.1-.6 0-.3-.3-.3-.3-.4 0 0 .2 0 .3.3.2.5-.1.3.2-.5 1-.7.7-.8.9-.5 1 .3 0 .3 0 0 0-.1.1-.4 0-.5-.2z" style="fill:#767676;fill-opacity:1" transform="rotate(-30.7 -243.2 196.2)"/><path d="M63.1 167.9c-.2-.2-.2-.2-.1 0v.5c-.3.3-.3.3 0 0s.3-.4.1-.5zm.9 3.7s0-.2.2-.3v.2c0 .3-.2.4-.2.1zm4 1.4c.2-.2 1.6-.3 1.5-.1l-.8.1h-.6zm-3.4-.1c0-.1 0-.2.3-.1.4.1.4.2 0 .2l-.3-.1zm-8.8 3.5c-.2-.3-.2-.3.1 0l.3.3-.4-.3z" style="fill:#767676;fill-opacity:1" transform="rotate(-30.7 -243.2 196.2)"/><path d="M63.8 167.5c.1-.2.2-.4.1-.5 0 0 0-.1.2 0 .2 0 .2.1 0 .4-.4.4-.6.4-.3 0z" style="fill:#606060;fill-opacity:1" transform="rotate(-30.7 -243.2 196.2)"/><path d="M62.4 169.5c0-.4-.2-.4-.7-.4-.4 0-.5-.1-.3-.3v-.3h-.2c.2.4-.2.3-.5 0l-.6-.3H60v-.4l-.2.1-.4.2c-.4 0-.4 0 0-.4.4-.2.7-.3.8-.2.2 0 .2 0 .1-.2 0 0 0-.1.2 0h.2c0-.3.4-.5.7-.3.1 0 .1 0 0-.2 0-.1 0-.2.2 0l.2-.1c-.1-.2 2.3-1.2 2.6-1 .3 0 .2.3-.6 1-.7.8-.8 1-.7 1.2.2.1.2.3 0 .5-.4.3-.4.3-.2 0 .4-.6 0-.7-.5-.2l-.4.4.6.6c.5.6.5.6.2.6s-.4 0-.4-.4z" style="fill:#606060;fill-opacity:1" transform="rotate(-30.7 -243.2 196.2)"/><path d="M63.8 166c.2-.2.2-.2 0-.1-.2 0-.3.2-.3.3 0 .2 0 .2.3-.1zm-2.9 5c-.4-.6-.5-.6-.3-1 .4-.4.8-.7 1-.6 0 0 0 .3-.3.4-.5.4-.3.7.2.4.4-.2.5 0 .2.3-.1 0-.2.2-.1.4.2.6-.2.6-.7 0zm-1 .8-.5-.5.5-.4.4-.4-.1.4c-.1.4 0 .4.3.3.3-.2.4-.1.2.1s-.2.4 0 .5c0 .3 0 .5-.2.5-.1 0-.4-.2-.6-.5zm8.8 1.2h.4c.2.1 0 .2-.2.2s-.3 0-.2-.1z" style="fill:#606060;fill-opacity:1" transform="rotate(-30.7 -243.2 196.2)"/><path d="M65 173c.2 0 .2-.1-.1-.2l-.3.1-.2-.1-.3-.6v-.2c-.2.1-.3 0-.3-.1 0-.2 0-.3.2-.2 0 0 .2 0 .2-.2.1-.2 0-.2 0-.1-.2 0-.2 0 0-.2 0-.2.2-.3.3-.2l.3-.1v-.1h-.3l.4-.3c.3-.1.3-.1.2 0 0 .2 0 .2.2 0 .3-.4.3-.4 0-.5-.5-.2-.6-.2-.5 0 0 .2 0 .2-.2.1-.1 0-.2 0-.2.2 0 0-.1.2-.3.2-.2 0-.4 0-.4.2l-.7.3c-.4 0-.5 0-.3-.1.3-.2.2-.2 0-.1l-.6-.1v-.1c.2.1 1.9-1.4 1.9-1.7h-.3c-.3 0-.4 0-.3-.3 0-.3.1-.3.4 0h.6c.4 0 1.3.6 1.8 1.5.8 1.4 2.6 2.7 3.7 2.7.3 0 .3 0 0 .2-.2.2-.3.2-.4 0-.1 0-.4-.2-.7-.1a87.9 87.9 0 0 1-3.3.2l-.3.1c-.3 0-.4 0-.2-.2z" style="fill:#606060;fill-opacity:1" transform="rotate(-30.7 -243.2 196.2)"/><path d="m61 170.2.5-.5c.3 0 .2.5 0 .6H61z" style="fill:#494949;fill-opacity:1" transform="rotate(-30.7 -243.2 196.2)"/><path d="M64.8 181c-.1-.2-.3-.2-.3 0l-.1-.2-.6-.2c-.2 0-.3-.1-.3-.2s0-.2-.2-.1c0 0-.2 0-.3-.2-.2-.1-.4-.2-.5-.1l-.3-.1c0-.1 0-.2-.1-.1h-.3c0-.2-.2-.3-.4-.3s-.4 0-.4-.2h-.4c0-.2-.8-.5-1-.5l-.2-.1c0-.1 0-.2-.2-.1H59c0-.3-1-.8-1-.7h-.2c0-.2-.1-.3-.2-.3-.2 0-.3-.1-.4-.3l-.2-.2-.8-.6-.7-.8c-.2-.1-.2-.7 0-.7.1 0 .2-.2.1-.3l.1-.3c.1 0 .1 0 0-.1 0-.1 0-.2.2-.2 0 0 .1-.1 0-.2l.1-.2c.2 0 .2 0 .1-.1l.1-.2c.2 0 .2 0 .1-.1 0-.1 0-.2.2-.3l.3-.5.3-.6.2-.4.3-.4c.2-.2.4-.5.3-.6v-.1c.2 0 .2-.1.2-.2v-.2c.2 0 .2 0 .2-.2-.1 0 0-.1 0-.1.2 0 .2-.1.2-.3-.1-.1 0-.3 0-.4.1 0 .2-.1.1-.2v-.2l.2-.1c-.1-.2.3-.4.7-.4.5 0 1.5.5 1.7.9.1.3 0 .4-.3.8a2 2 0 0 0-.4.6l.5.6c.5.5.8.4.6-.1-.2-.5.2-.6.6-.2.5.5.7.5 1.9-.2.5-.2 1.1-.5 1.3-.4.2 0 0 .1-.3.3-.6.3-1.3 1.1-1.3 1.5l.4.7.4.5H68c3.2 0 4 .1 4.5.5.1 0 .2.1.2 0l.5.2 1 .1c.6 0 .7 0 .6.6l-.3 1c-.1.3-.2.6-.1.7l-.3.6c-.3.3-.4.6-.4.7 0 0 0 .2-.3.4s-.3.2-.2 0c0 0-.2 0-.5.4l-.5.4-.3.2-.2.2c0-.1 0 0-.2 0 0 .2-1.7 1-1.8 1 0 0-.3 0-.5.2l-.7.2h-.2c0 .2-.1.2-.3.2h-.4c0 .1-.2.2-.5.2l-1.2.1a2 2 0 0 1-1 0z" style="fill:#494949;fill-opacity:1" transform="rotate(-30.7 -243.2 196.2)"/><path d="M60.7 172.2v-.4c-.2-.1-.2-.3 0-.5s.1-.3-.2-.1c-.4 0-.4 0-.3-.3l.1-.4-.4.4-.5.4.5.5c.5.5.6.6.8.4z" style="fill:#494949;fill-opacity:1" transform="rotate(-30.7 -243.2 196.2)"/><path d="m57.6 171 .3-.4v.3l-.4.4.1-.4zm-1 1.7c0-.2.2-.4.3-.4l-.1.4-.3.3v-.3zm18.2 1.6c0-.2 0-.2 0 0v.3-.3zM56 176.4l-.5-.6.6.5c.6.7.5.8-.1 0zm17.5 1 .3-.3c.3-.3.3-.3 0 0-.1.3-.3.4-.3.3zm-15.3.6c-.3-.2-.3-.2.1 0l.4.2c0 .2-.1.1-.5-.2zm14.4.2.5-.4s0 .2-.3.4a2 2 0 0 1-.5.5l.3-.5zm-10 1.8h-.1.4l.1.2a1 1 0 0 1-.4-.1zm5.1.7h.3-.3zm-.9.1h.3c0 .1 0 .2-.2.1h-.1z" style="fill:#333;fill-opacity:1" transform="rotate(-30.7 -243.2 196.2)"/><path d="M163 109h.9l-.4.1h-.4zm13 6.9.5-.2c.2 0 .2 0 0 .2-.3.2-.6.2-.4 0zm-1.3.1.6-.1.5.1-.6.2c-.4 0-.6 0-.5-.2zm-2.5.2c.5-.2 1.7-.2 2 0 .2.1-.1.2-1 .2-1 0-1.2 0-1-.2zm-2.2.2 1-.1c.6 0 .6 0 .2.1l-1 .1c-.5 0-.6 0-.3-.1zm-5.4 2.6v-.7a12 12 0 0 1-.3-.8l-.1-.3-.1-.2-.3-.8c-.2-.4-.3-.8-.2-.9l-.1-.1c-.1 0-.2-.1-.1-.2v-.2c-.2 0-.3-.1-.4-.3 0-.2-.2-.4-.4-.5-.5-.1-.5-.6 0-.6.6 0 1.3.6 1.8 1.6.8 1.5 1 1.9 1.5 2h.5a55.4 55.4 0 0 0 2.9-.4l-1.2.2c-2.2.2-2.7.7-2.2 1.8l.3.8-.9.2c-.7 0-.7 0-.7-.6zm4.2 2.2-.8-.6h.3l.5.2c.4 0 1.3.5 1.5.7.2.3-.6.2-1.5-.3zm1.7 4c0-.1-.1-.2-.3-.1h-.4c0-.2-.1-.2-.3-.2h-.3c.1-.2 0-.2-.1-.2-.2.1-.4 0-.4 0h-.3c-.1 0-.2 0-.2-.2 0-.1 0-.2-.2-.1h-.4c0-.2-.3-.2-.4-.2h-.4c0-.2-.1-.2-.3-.1l-.5-.1c-.2-.2-.3-.2-.5 0a1 1 0 0 1-.5.1c-.3 0-.3-.2-.3-1.7 0-1.6 0-1.7.4-2 .5-.3 1.9-.4 1.9-.1 0 .1.2.1.4 0 .2 0 .3 0 .2.1 0 .1-.4.2-.9.2-.8 0-.9 0-1 1-.1.7-.1.8.4 1.4.5.4 1 .7 2 1 1.6.4 2.5.8 2.8 1.2.1.1.1.2 0 .2-.2 0-.4 0-.4-.2z" style="fill:#d0d0d0;fill-opacity:1" transform="rotate(-41.6 2.2 161) scale(.59)"/><path d="M175.8 115.8h.3-.3zm-1.6.2c.1-.1.3-.1.4 0h-.4zm-2.4.1h.5-.5zm-2 .2h.3-.3zm-4.8-.1a20 20 0 0 1-.6-1.2c-.4-.9-1.1-1.6-1.6-1.6l-.2-.1-.3-.9c-.5-.9-.5-1.3-.1-1.8.2-.3.2-.5 0-.8v-.5c.4-.2 2.3-.2 3.4 0 1.7.4 11.7 5.2 11.8 5.7 0 .2-.3.3-1.6.4l-3 .2c-1.1.1-1.2.1-1.6-.3l-.4-.4-.9.5c-.8.4-3.4 1.2-4.2 1.2-.2 0-.5-.2-.6-.4zm3 .6h.5-.6zm-1 .2h.3s0 .1-.2 0h-.1zm-1 2 .1-.5h.3v.4h-.3zm2 2.3.3-.2h.2c-.1.2-.4.3-.4.2zm-2.4.7c0-.3 0-.4.1-.3v.6-.3zm-.1 2h.5l-.2.1h-.3zm3.5.2h.4l-.2.1h-.1z" style="fill:#b9b9b9;fill-opacity:1" transform="rotate(-41.6 2.2 161) scale(.59)"/><path d="M174.8 125.4c-.6-.2-.8-.3-.5-.3.5.1.5.1.2-.2-.2-.2-.3-.3-.6 0-.4.2-1 .2-1.2 0l-.3-.2c-.1 0-.1 0 0 .1.2 0 0 .2-.5.4-.6.2-.7.2-1 0 0-.2-.1-.3 0-.2l.4.2-.3-.3c-.5-.4-.7-.5-.6-.2 0 0 0 .1-.1 0-.2 0-.3-.1-.2-.2 0-.2 0-.2-.2-.1s-.3 0-.1-.1c.1-.2.1-.2-.1-.3h-1.3c-.9-.1-2-.5-1.4-.5.3 0 0-.4-.3-.4-.1 0-.2 0-.1.2 0 .1 0 .2-.1 0-.1 0-.2-.2-.1-.4 0-.3 0-.3-.2-.2-.2.2-.3.2-.4 0 0-.1 0-.1.1 0 .2 0 .2 0 .2-.2-.3-.9-.3-1.7-.2-1.8.2-.1.8.1.6.3l.1.2.3-.3c0-.3.6-.3 1-.2.3.1.3.2.2.4-.2.1-.1.3.2.5.5.3.8.4.4 0-.5-.3 0-.5.6-.1l.1.1c-.2 0-.3 0-.2.1h1.3v-.3c-.2-.2-.3-.4-.1-.7.1-.3.1-.3-.1 0-.2.2-.4.3-.5.2-.1-.1-.2 0 0 0 0 .2 0 .2-.2.2-.2-.1-.3-.2-.2-.3 0-.2 0-.2-.2-.1a1 1 0 0 1-.7 0c-.3-.2-.3-.2 0-.2.5.1.5 0 .5-.3 0-.5-.5-1-.7-.6v.1c.3 0 .7 0 .6.2l-1.2-.2c-.7-.1-1-.3-1-.5l-.3-1-.2-.4-.2.4c-.2.4-.2.4-.2-.2l.2-.7c.1 0 .1 0 0 .1 0 .1 0 .2.3.2.4 0 .5-.3.1-.3 0 0-.1 0 0-.1h.3l.6.2c1 .1 1.8 0 2.3-.1.4-.2.4-.2-.3 0-.6 0-.7 0-.5-.2.3-.2 1.8-.2 1.7 0h.4c.4 0 .5 0 .4.2-.1.2 0 .2.2 0 .3-.3.2-.3-1-.5l-1.5-.2h2.5c-.6-.1-.6-.2.6-.2l1.2.1c0 .1.4.2 1 .2 1.1 0 1.3-.2.5-.4h.5c.6 0 1 0 1.4-.2.3-.2.3-.2 0-.1-.6.2-1 .2-.5 0 .6-.2 1.6-.5 1.5-.3l.1.1c.5.2.6.5.5 1.1 0 .5 0 .7.2.7l.1-.3v-.4l.2.1c0 .1 0 .2.2.3.2.1.2.2 0 .2s-.1 0 0 .2l.3.6c0 .1.1.2.2.1h.1v.4c.2 0 .2.2 0 .5-.1.3-.1.3.1.1.3-.2.3-.1.4.3v.3c-.2 0-.2 0-.1.2l.2.3v.3c0 .3 0 .4.2.3h.2c0 .2-.1.2-.2.2l-.2.2c0 .1.2.2.3.1.3 0 .3 0 0 .2-.4.3-.4.7.1 1l.4.4-.3-.4c-.3-.4-.3-.4 0-.7l.1-.1.3.3c.1.2.2.2 0 .2-.2-.1-.2-.1 0 .1 0 .2.2.4.1.5 0 .2.2.3.4.3.4 0 .5.2.3.4v-.2c.1-.1 0-.2 0 0-.3.1-.2.3.3.3s.5 0 .3.4c-.2.2-.2.3 0 .2h.3c-.1.1 0 .3 0 .4.2 0 0 .2-.3.3-.5.2-.6.2-.3 0l.2-.3c-.1 0-.2 0-.2-.2 0-.3 0-.6-.2-.5l-.2.1-.2.6c-.2.4-.2.4.1.2.3-.3.3-.2.2 0-.2.4-.6.5-2.6.5h-2.7a4 4 0 0 1-1.8-.2z" style="fill:#b9b9b9;fill-opacity:1" transform="rotate(-41.6 2.2 161) scale(.59)"/><path d="M178 117v-.2c-.2 0-.2 0-.3-.3l-.2-.6c-.3 0-.3.3 0 .6v.6c0 .3 0 .4.2.3.2 0 .3-.2.3-.3zm.5 2h-.2c-.4.1-.5.2-.1.2l.3-.1zm.6-.3c0-.5-.2-.4-.3.2 0 .4 0 .4.1.3l.2-.5zm-11.8.6h-.3c-.2 0-.1 0 0 0h.3zm.7.2h-.3c-.2 0-.1 0 0 0h.3zm1.9 1c-.2 0-.3-.2-.3-.3 0-.4-.4-.3-.4 0-.1.3 0 .3 0 .1.2-.2.2-.2.3 0 0 .2.2.3.4.3.1 0 .1 0 0 0zm-2.1.5c0-.1 0-.2-.2-.2-.1 0-.2 0-.2.2l.2.2.2-.2zm-1.6 0v-.2c-.2 0-.3 0-.3.2l.1.2.2-.2zm13.7 0c.2-.2.2-.3 0 0l-.4.3c0 .1.2 0 .4-.3zm-3 .2c.2-.3.2-.3 0 0l-.4.2c0 .2.2.1.4-.2zm2.3.8v-.2c0-.4.1-.4-.4.2-.3.4-.3.4 0 .2.1-.2.3-.3.4-.2zm-1.9.3c-.3-.3-.3-.3 0 0 0 .3.2.4.2.4.1 0 0-.3-.2-.4zm-.2 1.3-.1-.1c-.2 0-.3 0-.2.1l.2.2.1-.2zm-8.6 0c.3-.3.3-.3-.4-.3l-.9.2h.3c.3 0 .4 0 .3.1-.2.3.3.3.7 0zm5.1 1.2h-.3.3zm5.4.4h-.3l-.2.1.2.1c.2 0 .3 0 .3-.2zm-1.5.2c.6-.3.7-.7.2-.7-.3 0-.5 0-.5.2 0 .1 0 .1-.2 0-.3-.2-.3-.2-.2 0v.3c-.2 0-.3-.1-.4-.3 0-.2-.1-.2-.2 0-.2.2-.2.2-.2 0s0-.2-.3 0c-.2.3-.2.4 0 .5.3.2 1.3.2 1.8 0zm6.6 2.6c0-.3 0-.3.1-.2v.4-.3z" style="fill:#b9b9b9;fill-opacity:1" transform="rotate(-41.6 2.2 161) scale(.59)"/><path d="M162.2 110.1c0-.2.1-.2.2 0v.3c-.1 0-.2 0-.2-.3zm8.4 4.9h.3c.2 0 .2.1-.1.1l-.2-.1zm4.4.4h.5-.4zm-1.4.2h.5-.5zm1.7.2h.3-.3zm-1.8.2c.1-.1.3-.1.4 0h-.4zm-2.3.1h.3l-.2.1c-.2 0-.2 0-.1-.1zm5.1 0c.8-.3 1-.3.4 0a2 2 0 0 1-.8.3c-.2 0 0-.1.4-.3zm-7 .2h.3-.3zm-1.5.2h.4-.4zm5.5 0h2c0 .1-.4.2-1 .2s-1 0-1-.2z" style="fill:#a3a3a3;fill-opacity:1" transform="rotate(-41.6 2.2 161) scale(.59)"/><path d="M178.3 117.1c.1-.3 0-.6-.2-.8-.3-.3-.3-.3-.3.2l.1.4c.1-.1.2 0 .1.2 0 .1-.1.3-.3.3-.2 0-.3 0-.2-.3v-.6c-.3-.4-.3-.7 0-.5.2 0 .3 0 .2-.1l-.7-.3h-.6.6c.4 0 .6-.1.5-.3-.1-.1 0-.1 0 0 .2 0 .2.1.2.2 0 0 0 .2.3.4.5.6 1 1.5.8 1.3 0 0-.2 0-.2.2 0 .1 0 .2-.2.2v-.5zm1.1 1.3c0-.3-.2-.4-.4-.3-.2 0-.2 0 0-.1.2-.2.2-.2 0-.4-.2-.1-.2-.2 0-.1.2 0 .8 1.2.6 1.2l-.2-.3zm-1.4.8s0-.2.3-.2h.2c0 .2-.6.3-.6.2zm.8-.3c0-.6.3-.7.3-.2 0 .2 0 .4-.2.5-.2.1-.2 0-.1-.3zm-11.8.4h.3-.3zm12.6 0 .2-.2v.3c-.3.2-.3.2-.2 0zm-13.3.2-.2-.8c-.4-.8-.4-1.2.3-1.4a29.3 29.3 0 0 1 5-.5h-1l.7.1c.7.1.7.1.4.4-.3.2-.3.2-.2 0 .1-.2 0-.2-.4-.2h-.4c0-.2-1.4-.2-1.7 0-.2.2 0 .2.5.1h.3c-.6.3-1.7.3-2.5.2h-.5v.2c-.5 0-.7 0-.7.3s0 .3.2.1c.1-.2.2-.1.3.2.2.7.2 1.4 0 1.4 0 0-.1 0 0-.1z" style="fill:#a3a3a3;fill-opacity:1" transform="rotate(-41.6 2.2 161) scale(.59)"/><path d="M166.3 118.5c-.1-.1-.2-.2-.2 0s.2.4.3.3v-.3zm1 1.1.6-.2-.1.2a2 2 0 0 1-.6.1c-.2 0-.2 0 0-.1zm-2.1 0h.3l-.2.1h-.1zm3.5.4c.2-.2.2-.2 0-.3h-.4c0 .2-.2.2-.3.2l.1-.2c.3-.2.5-.2.7-.1.3.2.3.5-.1.5-.1 0-.1 0 0-.1zm11.3.2c-.1-.3-.1-.3 0-.1.2 0 .2.2.2.3 0 0-.2 0-.2-.2zm-11 .5-.2-.3s0-.1.1 0c.1 0 .2 0 .3-.2.1-.3.4-.4.4 0 0 .1.1.3.3.3.1 0 .1.1 0 .1-.2 0-.3 0-.4-.2 0-.3-.1-.3-.2 0v.3h-.3zm11.2.2c0-.2 0-.3.1-.1v.3-.2zm-12.8.1c0-.1 0-.2.2-.2s.2 0 .2.2l-.2.2-.2-.2zm-1.4 0c0-.2.3-.4.7-.4.2 0 .2.1.2.3l-.3.3s-.1-.1 0-.2c.1-.3-.2-.2-.5 0 0 .2-.2.2-.2 0zm13.5.3.3-.3c.3-.3.3-.2 0 0-.1.3-.3.4-.3.3zm-3 .1.3-.3c.3-.2.3-.2.1.1-.2.3-.4.4-.4.2zm-6.5-.2-.2-.3c.1 0 .3 0 .5-.2.2-.3.2-.3 0 0 0 .3 0 .5.2.7.4.4.2.4-.4-.2zm-.8.5h.3c.4 0 .4.2 0 .2l-.3-.2zm-1-.2c-.4-.3-.2-.6.4-.3.4.2.4.3 0 .2-.2 0-.2 0 0 .2.5.4.2.3-.4 0zm10.6.5c.5-.6.5-.6.5-.2l-.1.2s-.3 0-.5.2l.1-.2zm-1.6.4c-.2-.4-.2-.4.1-.1.2.1.3.3.2.4l-.3-.3zm3.3.4c-.3-.4-.4-.9 0-1 .1 0 .1 0 0 0l-.3-.3c0-.3.3-.2.5.3.1.2.2.4 0 .3-.3-.2-.3.3 0 .7l.2.3-.4-.3zm-3.7.8.2-.1c.1 0 .2 0 .1.1l-.1.2s-.2 0-.2-.2zm-8 .4c-.6-.1-1-.4-1-.4.1-.1 0-.2-.1 0-.9.2-2-.8-2-1.7 0-.4.1-.5.2-.3a360.6 360.6 0 0 0 .4 1c.1 0 .2 0 0 .1 0 .3.8.6 1.8.6.7 0 .7 0 .4.2-.2.2-.2.3.5.5h.9s.1 0 0 .1l.1.3-1.2-.3zm3.7.9c-.2-.1-.2-.2 0-.2 0 0 .2 0 .2.2.2.2.1.2-.2 0zm-1.8 0-.3-.4.6.4.3.3-.6-.3zm7.8.4.2-.1h.3c0 .1-.1.2-.3.2h-.2zm-4.2-.1c.1-.1 0-.2-.3 0-.3 0-.5 0-.4-.1 0-.1 0-.2-.2-.3h.3c.8 0 1.3.3.8.5l-.2-.1zm7.4.1c.4-.4.4-.5 0-.2-.3.2-.3.2-.1-.1l.2-.6c0-.2.4-.3.4 0h.2c.2-.1-.1-.5-.5-.5 0 0-.2-.1-.2-.3l-.2-.2c-.2 0-.3-.2-.3-.3l-.1-.5.5.5c.9.9 1.3 1.4 1.3 1.7h-.2c0-.2-.2-.3-.4-.2l.2.4c.3.2.3.2 0 .1-.3 0-.4 0-.2.1 0 .2 0 .2-.1.1h-.2c0 .2-.1.3-.3.3-.2 0-.2 0 0-.3zm-4.9.3c-1.3-.1-1.4-.2-1.1-.6.1-.3.2-.3.3-.1.1.2.2.2.2 0s0-.2.2 0c.3.4.5.4.4 0 0-.2 0-.2.2 0 .1.1.2.1.2 0s.2-.2.5-.2c.5 0 .4.4-.1.6-.2 0-.3.2-.3.3 0 0 .1.1 0 .1h-.5zm-.1.2h.3l-.2.1h-.1zm3.8 1.5c-2-.5-2.3-.6-2.3-1s0-.4 2 0c2.2.5 3.3.8 3.6 1.2.4.4.3.4-.3.4a22 22 0 0 1-3-.6zm-6.8 7.5h.4-.4z" style="fill:#a3a3a3;fill-opacity:1" transform="rotate(-41.6 2.2 161) scale(.59)"/><path d="M165.5 116.8c0-.1.1-.2.4-.2.8 0 3-.7 4-1.2.8-.3 1-.4 1-.2.2.3 1.1.7 1.4.6a49.5 49.5 0 0 1-1.2.3l-5.1.7h-.5zm-1.1 2.3v-.2.5-.3zm1.4.9h.6-.6zm-28.1.2.3-.3c.3-.2.3-.2 0 0-.1.4-.3.5-.3.3zm41.5 5.4h1.6-1.6zm-3.1.2h.4l-.3.1c-.2 0-.2 0 0 0zm3.4.4h.3-.3zm.9.1h.4l-.2.1h-.2zm1 .2h.4l-.3.1c-.2 0-.2 0 0 0zm.7.2h.4-.3c-.2 0-.2 0 0 0zm1.5.6c-.3-.2-.3-.3-.1-.4h.2v.3c.1 0 .2 0 .3.2.1.4.1.4-.4 0zm.1.7c.1-.1.3-.1.4 0h-.3c-.2 0-.2 0 0 0z" style="fill:#8c8c8c;fill-opacity:1" transform="rotate(-41.6 2.2 161) scale(.59)"/><path d="M161.4 111.3v-.3.6-.3zm-4.4 1.6a2 2 0 0 1-.1-.6c-.1-.3 0-.3.3 0 .4.2.4.3.3.5-.3.3-.3.3-.5 0z" style="fill:#767676;fill-opacity:1" transform="rotate(-41.6 2.2 161) scale(.59)"/><path d="M157.4 112.7s0-.2-.2-.2c-.2-.1-.2 0-.1.1 0 .3.1.3.3.1zm4.3.8v-.7c-.1-.5 0-.8.1-.8.2 0 .2.1 0 .2-.2.3-.1.6.2.3.3-.2.3-.2.1 0-.3.3-.3.6 0 .4.1 0 .1 0 0 .2-.2.1-.3.3-.3.4h-.1z" style="fill:#767676;fill-opacity:1" transform="rotate(-41.6 2.2 161) scale(.59)"/><path d="M154.7 113.8c-.2-.1-.2-.2-.1-.2.4 0 .6 0 .5-.2v-.2c.4.1.6 0 .5-.2 0 0 0-.1 0 0l.6-.3h.5c.1.2-.1.3-.4.2-.2 0-.1 0 .1.2l.6.2c.1 0 .1 0 0 0 0 .2-.3.2-.5.1l-.4.1.6.2c.5 0 .6 0 .6-.3s.2-.4.3-.4h.2v-.6c.2-.4.5-.5.6-.2l.6-.4c.4-.3.5-.5.4-.6 0 0-.3 0-.4.2l-.3.2c-.3 0-.9.3-.9.4l-.3.1c-.2 0-.2 0 0-.2.2-.1.3-.3.2-.3 0-.1 0-.1.2 0 .2 0 .3 0 .2-.1 0-.1 0-.2.2 0 .2 0 .2 0 .2-.2-.1-.1 0-.1.1 0 .2 0 .3 0 .2-.2 0-.1 0-.1.2 0 .2 0 .3 0 .2-.1-.1-.2 0-.2.1-.1l.4.3.3.3c.2 0 .3 0 .3.2 0 0-.1.1-.2 0l-.6.1c-.3.1-.3.2.2.2.3 0 .6 0 .6.2l.1-.1.2-1c.2-.6 0-.7-.3-.2-.2.4-.5.4-.5 0 0-.2 0-.1.2 0 .1.2.1.2 0 0 0-.4 0-.4.3-.4.1.1.2 0 0 0 0-.3 0-.3.3-.1.3.1.4.1.4 0s.2-.3.5-.4c.3-.1.5-.3.4-.4.3 0 .3 1 0 1.1v-.5c-.2-.2-.2-.2-.2.1 0 .3 0 .3-.2.1 0-.1-.2-.2-.3-.1-.1.1-.2 1.7 0 2v.7h-1c-.3-.1-.3 0 0 .2.5.4.5.4.1.3h-.5c-.1.3-1.6.5-2 .3-.2-.2-.3-.2-.4 0h-.6c-.2 0-.4 0-.5.2-.2.3-.4 0-.3-.4v-.6l-.5.4c-.3.2-.5.5-.4.5.1.3 0 .2-.4 0zm6.2-1h-.5.5zm-6.6 1.2c-.2-.3-.2-.3 0 0 .3.1.4.3.3.3l-.3-.3zm.1 1.2c-.1-.2.3-.6.6-.4.2.2.2.2 0 .2s-.4 0-.4.2c0 .1-.1.1-.2 0zm-4 .8c0-.2.2-.4.3-.4l.6-.3c.5-.2.7-.2.3.1a1 1 0 0 1-.7.3c-.1 0-.3 0-.4.2 0 .2 0 .2 0 0zm.5.4v-.3c.2 0 .2 0 .1.1 0 .2 0 .2.2.1h.8c.4.2.4.3-.3.3l-.8-.2zm-2.2 1.3c0-.1-.4-.2-1-.2s-.8 0-.8-.2.2-.3.7-.3c.5 0 .5 0 .2-.2s-.3-.2 0-.2l.4.2c.3.3.5.1.3-.1s-.2-.3 0-.3l.4.8v.5c-.2 0-.2.1-.2 0zm-1.1 1 .4-.4.5-.2-.5.5-.4.1zm-.6.1v-.8c-.1-.2-.1-.2 0 0 .3.4.4 1.2.2 1.2l-.1-.4zm-1.2 2.2 1-.7c.6-.4.7-.5.6-.2a2 2 0 0 1-.8.5l-.6.3h-.2zm9.2 0c-.2-.1-.2-.2 0-.2 0 0 .2 0 .3.2.1.2 0 .2-.3 0zm.7 0c0-.5 0-.5.1-.2 0 .2.2.3.3.3.1 0 .2 0 0 0v.2l-.1.2c-.2 0-.3-.2-.3-.6zm.5 1.1v-.2h-.5c-.2-.2-.2-.2.1-.2.6.1.9.4.5.6-.1 0-.2 0-.1-.2zm.5.5h.4l-.3.1c-.2 0-.2 0 0 0zm-4.8.7-.1-.2c-.2 0-.2-.1 0-.2l.3.1-.1.4h-.1zm2.9.7c0-.2 0-.4.2-.5.2-.1.4-.1.4 0l-.2.2c-.2.1-.2.2 0 .3.2.1.2.2 0 .2s-.4-.1-.4-.3zm.7.3.2-.4v.3c0 .4-.2.4-.2 0zm17 .8h.6-.6zm-1.7.4c.2-.1.3 0 .4 0h-.3c-.2 0-.2 0 0 0zm12.2 1.4c-1-.4-4.5-1-4.7-.9l-.1-.1c0-.2.6-.2 1.9-.2 1.4 0 2-.1 2.4-.3.5-.3.5-.3.7.1l.5 1.6-.7-.2zm-26 .1c0-.1 0-.2.1-.1l.2.2h-.2l-.2-.1zm-7.2 0-.5-.6.4-.3c.4-.5.7-.3.4 0-.3.4 0 .5.3.2 0-.2.2-.2.3 0l-.1.2-.2.3c0 .2.1.1.3 0 .4-.3.5 0 .2.4-.5.4-.5.4-1.1-.2zm5.4 1.4c-.2-.1-.2-.2 0-.2.3-.1.3 0 .2 0 0 .2 0 .2.2.1h.4v-.2c0-.1 0-.2.3-.1.2 0 .3.1 0 .2-.4.3-.9.4-1 .2zm-.9.4.2-.5c0-.2.1-.2.4 0 .2.4.2.4 0 .5h-.2c.2-.4 0-.2-.4 0-.2.4-.2.4 0 0z" style="fill:#767676;fill-opacity:1" transform="rotate(-41.6 2.2 161) scale(.59)"/><path d="m151.7 128.8.2-1.5c0-.9 0-1-.3-.8-.2 0-.4 0-.8-.5-.6-.6-.6-.6-.3-1 .2-.2.2-.3 0-.4v-.4c0-.1 0-.2-.2-.2l-.6-.3-.6-.5c-.2-.1-.4-.3-.4-.5l.1.1c.1.2.3.3.4.3.2 0 .2 0 0-.1-.3-.3-.4-.8-.1-.9.1 0 .3-.2.3-.4s0-.2.1 0 .2.1.3 0v-.3h-.3c0-.2 0-.2-.1-.1-.1 0-.4 0-.6-.2l-.2-.3.4.2c.2.2.2.2 0-.1-.1-.2-.3-.4-.4-.3l-.2-.1c0-.1 0-.2.2-.2s.4-.4 0-.4c-.8 0-1-.2-.5-.5.4-.2.5-.2.6 0 .3.4.6.5.4.2 0-.1 0-.4.3-.6l.4-.3h-.4c-.4.2-.4.1.1-.2.3-.2.6-.3.7-.2l-.1.2c-.5.3.2.4 1.6.4h1.7c.2 0 0-.3-.2-.3h-.3l-1.2-.1c-1.2 0-1.7-.4-1-.6.5-.1 1.4 0 1.2.2 0 .1.1.2.4.2.3 0 .4 0 .4-.5 0-.4.4-1.2.4-.8v.6c.1.1.1.2 0 .2l-.2.1.2.2.2.1.1-.2.1-.8-.1-.3c-.1 0-.2-.1 0-.3 0-.1 0-.3-.2-.4-.3-.2-.5-.2-.4 0 0 .2 0 .2-.2 0l-.6-.4c-.2 0-.2 0 0 0 .4-.1.4-.1.2-.3-.2-.1-.2-.1.2 0 .3 0 .5 0 .5-.2l.6-.2h.5l-.6-.1h-1.3c0-.2.1-.3.3-.2.3 0 .3 0 .2-.2h.3l.7.2c.4 0 .4 0 0-.3-.2-.4-.2-.4 0-.3h.3c-.1-.2-.1-.3 0-.2.1 0 .2.2.1.4 0 .2 0 .2.2.1.3 0 .3 0 0 .1l-.2.7v.3c-.1-.4-.4-.3-.4 0s0 .3-.2 0c0-.2-.1-.2-.2-.1 0 .1 0 .2-.3.1l-.5.1c0 .1.1.2.4.2.5 0 1.7 1 1.7 1.4 0 .2-.1.1-.2 0-.1-.2-.3-.3-.5-.2-.1 0-.2.1 0 .2a5 5 0 0 1 .4 1.9l.1.1v-.8c.3.3.4 1.5.1 1.6-.1.1 0 .2.4.3.9.2.8.4-.2.3-.5 0-.8 0-.7.1 0 .1.2.1.4 0 .2 0 .2 0 0 .1-.1.1-.4.2-.7.1-.3 0-.4 0-.3.2v.4c-.2 0-.2.2-.2.3.1 0 0 .2 0 .2-.2.1-.2.1-.2 0v-.3l-.2.1c0 .2-.1.3-.4.2h-.4l-.1.5c-.3.6-.3.9-.1.9v.3l.3-.2c.3-.3.7-.5.8-.4.3 0 .3 0 0-.2v-.3l-.1-.1c-.2-.1-.4-.2-.6-.1-.1.1-.1 0 0 0 .2-.3.3-.3.6-.1.3.1.4.1.6-.1.2-.2.2-.4.2-.5h.2c.4.2.4.2.4 0 0-.3.1-.5.3-.6.2-.2.3-.2.5 0 .3.3.4.6.1.4-.1 0-.2 0-.2.2s.2.2.6.2l.5.2c0 .3-.5.6-.8.4-.3 0-.3 0-.2.3 0 .3 0 .4-.2.5-.1 0-.2.2-.1.4.1.5-.5.4-1 0-.2-.3-.4-.3-.3-.2.1.2 0 .4-.3.7-.5.5-.5.6-.3 1 .2.5 0 .7-.5.4-.5-.4-.6-.3-.1.1.2.2.4.5.3.6l.5-.4c.3-.3.5-.4.4-.2-.3.4-.2.8.1.8.2 0 .3-.1.2-.3v-.7l-.1-1c-.3-.3-.3-.3 0 0 .1.2.3.2.5 0h.2c0 .2 0 .3.3.3s.5-.1.5-.3c0-.1 0-.3.2-.3l.2.8c0 .7.2 1.1.6 1h.4c.1 0 .2-.1.1-.3 0-.2 0-.2.3 0 .4.2.4.4.1.6-.1 0-.1 0 0-.1 0-.2 0-.2-.1-.1-.1 0-.2.2-.1.4 0 .1 0 .2-.2.2s-.3.1-.2.3c0 .2.1.3.3.3.4 0 1.8-.5 1.8-.6l-1.1-.9a4 4 0 0 1-1-.9h-.3c-.2.2-.2.1 0-.5.1-.4.2-.8.1-.9l.2-.1c.1 0 .2 0 .2-.2s0-.3.2-.3c.1 0 .5 0 .8-.2l.6-.4h-.5c-.6 0-1-.4-1-1 0-.2-.3-.7-.7-1l-.5-.5c.2.3.2.3-.1 0-.3-.2-.4-.4 0-.2v-.1l-.3-1.3c-.1-.6-.4-1.3-.6-1.6-.4-.6-.3-1 .6-1.5.5-.2.6-.3.5-.4-.2-.1-.1-.2 0 0l1.8-.3 2.8-.7c1.6-.2 2-.1 2.7.6.5.5 1.5 3.8 1.5 4.6v.8h1.1c1.3-.2 3.6.2 3.3.5l-1.4-.1c-1.1-.3-1.3-.3-2.1 0l-1.7.4c-1.1.3-4.1 1.3-4 1.4 0 0 2-.4 2.4-.7l2.6-.7c.1 0 .2.6.2 1.8v1.9l-1.2.7a17 17 0 0 1-3.6 1.8c-3 1.3-3.1 1.3-3.1 1 0-.3 0-.3-.2-.1-.1.2-.2.2-.2 0s-.2-.2-.8-.2c-.7.1-.7 0-.5-.1.3-.2.3-.3 0-.4l-.2-.4-.2-.1-.1.1-.3.4c-.2 0-.2.2.1.3.2.1.2.2.1.2l-.6-.4c-.4-.4-.5-.5-.7-.2v.3l-.1.2c-.2.2-.2.3 0 .3l.4-.2c.2-.2.2-.1.2.2-.1.2-.2.3-.4.2-.1 0-.2 0-.3.3v.5c0 .4-.3.6-.9.6-.5 0-.5 0-.4-.5z" style="fill:#767676;fill-opacity:1" transform="rotate(-41.6 2.2 161) scale(.59)"/><path d="m154 116.8-.2-.2c-.1 0-.2 0-.2.2l.2.1.1-.1zm-3.6 2.4-.5-.1c-.3 0-.3 0 0 .1l.5.2c.2 0 .2 0 0-.2zm-.9 3.1c0-.1 0-.2-.2-.1-.2 0-.3.1-.2.2.2.3.4.2.4 0zm.7 1.2c0-.1-.1-.2-.3-.2-.3 0-.3.3 0 .4l.3.1v-.3zm2.2.7.3-.4-.4.4-.3.3.4-.3zm-1.2.2v-.2c-.2 0-.3 0-.3.2l.1.3.2-.3zm2.9.6-.2-.1s-.1 0 0 .1l.1.2.1-.2zm.1 1.7h-.3.1c.2.1.3 0 .2 0zm1.8.5c0-.1 0-.2-.2-.2s-.3 0-.3.2l.3.1.3-.1zm-3.3 1.3s-.2 0-.2.2v.3c.2-.1.2-.3.2-.5zm-.5.2v-.3s0 .2-.2.3c-.1.2-.1.4 0 .4l.2-.4zm-4.2 0-.5-.5.8-.7c.8-.8 1.1-.8 1.2-.2 0 .3.2.4.4.4.3 0 .3 0 .2.3l-.8.2c-.4 0-.5 0-.4.5 0 .6-.2.6-.9 0z" style="fill:#767676;fill-opacity:1" transform="rotate(-41.6 2.2 161) scale(.59)"/><path d="M149 127.9c0-.2.2-.4.1-.5-.1-.1-.8.4-.8.7 0 .2.3.1.6-.2zm-2 1.6c-.3-.4-.3-.4 0-.7.3-.5.7-.3.4 0-.2.3-.2.3.1.2.4 0 .4 0 .4.4 0 .5-.5.6-1 0z" style="fill:#767676;fill-opacity:1" transform="rotate(-41.6 2.2 161) scale(.59)"/><path d="M153.6 116.8c0-.1 0-.2.2-.2l.1.2-.1.1-.2-.1zm-3.7 2.4c-.3-.1-.3-.1 0-.1l.5.1c.2.2.2.2 0 .2-.1 0-.4 0-.5-.2zm10 2.6c1.4-.6 5-1.6 4.9-1.4 0 .1-.5.3-1.1.4a5 5 0 0 0-1.6.5l-2.6.7.4-.2zm-10.8.6s0-.2.2-.2c.1-.1.2 0 .2.1 0 .3-.2.4-.4.1zm.9 1.3c-.4-.1-.4-.4 0-.4l.2.2v.3l-.3-.1zm2.3.5.4-.4s0 .2-.3.4c-.1.2-.3.3-.4.3l.3-.3zm-1.3.2.1-.2c.1 0 .1 0 0 .2v.3c-.1 0-.2-.1-.2-.3zm2.9.6c-.1 0 0-.1 0-.1l.2.1v.2c-.1 0-.2 0-.2-.2zm15.8.8c-1.2-.6-2-1.1-1.8-1.1l1.1.4c1.1.3 2 .4 3.6.2.6 0 1.2 0 2 .3l1.9.3c.6 0 .6 0 .3.3-.5.3-.7.3-2.3-.2l-1.4-.4-.9.4-1 .5-1.5-.7zm-14.2 1.4c0-.1.1-.2.3-.2.1 0 .3 0 .3.2l-.3.1-.3-.1zm-2.5.2c.2-.1.2-.2.1-.2-.3 0 .4-.5.8-.5h.2c-.3.2-.4.2-.1.5.3.3.3.3 0 .4-.3 0-.4 0-.3-.1 0-.2 0-.2-.1 0l-.5.2c-.2 0-.2 0 0-.3zm-.5 1.3c0-.2.1-.3.2-.2l-.1.5c-.2.1-.2 0-.1-.3zm-.5 0 .3-.3v.3l-.3.4c-.1 0-.1-.2 0-.4z" style="fill:#606060;fill-opacity:1" transform="rotate(-41.6 2.2 161) scale(.59)"/><path d="m154 129.1.2-.3c0-.6.1-.7.3-.4 0 .1.2.2.3.1l-.1-.4c-.2-.1-.2-.3-.2-.5 0-.1 0-.3-.2-.3-.2-.1-.2-.2 0-.3l.3-.4.1-.1.2.1.3.4c.2.1.2.2 0 .4-.3.2-.3.2.4.1.6 0 .8 0 .8.2s0 .2.2 0c.1-.2.2-.2.2.1 0 .4 0 .4-.5.2h-.3c0 .1 0 .2-.2.2-.1 0-.1 0 0 .2.3.2.3.2 0 .1l-.4-.1v-.2c.1 0 0-.1-.1 0-.3 0-.3 0 0 .3.3.2.3.3-.1.1-.3 0-.4 0-.3.2 0 .1.1.2 0 0l-.4.2c-.1.2-.3.3-.4.3-.2 0-.2 0 0-.2z" style="fill:#606060;fill-opacity:1" transform="rotate(-41.6 2.2 161) scale(.59)"/><path d="M148.3 132.9c.1-.2.6-.5 1-.7.5-.3 1-.5 1-.7.3-.3.1-1.2-.2-1.5-.3-.2-1.8-.3-2 0-.3.2-3.4 0-3.7-.3-.5-.4-.6-1.1-.3-1.6l1.3-1c1-.4 2-1.2 1.2-1-2.3 1-3.5 1.2-5 1.3-2.2 0-2.7-.3-3-1.5-.3-.6-1.4-.6-3 0-.2 0-.2 0 0-.2.1-.2 1-.7 2-1.1 1.6-.9 1.8-1.3.2-.7l-1 .3c-.5 0-.3-.5.2-.7l1.6-.6 1-.4-1-.5c-1.4-.5-1.5-.8-.6-1.8l.8-.6.1-.2.4-.2.4-.1.3-.2h.2l.3-.1a38.9 38.9 0 0 0 2.4-.5l.4-.1c.1-.2.3-.2.4-.2h.3a11.1 11.1 0 0 1 2.4-.7h.3l.9-.6.9-.5s.2 0 .2-.2l.2-.1c.2 0 .3-.1.3-.2l1.1-.5h.4l.3-.1c.4 0 2.2-.7 2.8-1a30 30 0 0 0 2.3-1.5c2-1.4 5.7-3 6-2.8.2.2.1.4-.1.8-.4.6-.4 1 .1 1.9l.5.7-.9.3-1.6.4c-1.3.1-4.2 1-5 1.3-1 .4-1.1.9-.7 1.5.2.3.5 1 .6 1.6l.3 1.3c0 .1 0 .2-.1 0-.3 0-.3 0 0 .2.2.4.4.4.2 0l.5.6c.4.3.7.8.7 1 0 .6.4 1 1 1h.5l-.6.4c-.3.2-.7.3-.8.2-.2 0-.2 0-.2.2s-.1.3-.2.3l-.2.1-.1 1c-.2.5-.2.6 0 .4.1 0 .2-.1.2 0l1 1c.7.3 1.2.7 1.2.8 0 .1-1.4.6-1.8.6-.2 0-.3-.1-.3-.3 0-.2 0-.3.2-.3.1 0 .2 0 .2-.2v-.4c.2-.1.3 0 .2 0-.1.2-.1.3 0 .2.3-.2.3-.4-.1-.6-.3-.2-.4-.2-.3 0v.3h-.5c-.4.1-.6-.3-.6-1l-.2-.8-.2.3c0 .2-.2.3-.5.3-.2 0-.4-.1-.3-.2.1-.2 0-.2-.2 0-.2 0-.4 0-.6-.2-.2-.2-.2-.2 0 .2.2.3.3.6.2.9v.7c.1.2 0 .3-.2.3-.3 0-.4-.4-.1-.9l-.4.3-.5.4c0-.1 0-.4-.3-.6-.5-.4-.4-.5.1-.1.5.3.7.1.5-.4-.2-.4-.2-.5.3-1 .3-.3.4-.5.3-.7l.3.1c.5.5 1.1.6 1 .1-.1-.2 0-.3.1-.4.2 0 .3-.2.2-.5 0-.3 0-.4.2-.3.3.2.8-.1.8-.4l-.5-.2c-.4 0-.6 0-.6-.2s.1-.3.2-.2c.3.2.2 0 0-.4-.3-.2-.4-.2-.6 0-.2 0-.3.3-.3.5 0 .3 0 .3-.4.2-.2-.2-.3-.2-.2 0l-.2.4c-.2.2-.3.2-.6 0l-.6.1c-.1.2-.1.2 0 .1h.6l.1.2v.3c.3.2.3.3 0 .2-.1 0-.5.1-.8.4l-.4.2c.2-.2.2-.3 0-.3-.1 0-.1-.4.2-.9.1-.2.1-.4 0-.4h.5c.3 0 .4-.1.4-.3 0-.1 0-.2.2-.1v.3c0 .1 0 .1.1 0 .1 0 .2-.1.1-.2l.1-.3c.1 0 .1-.2 0-.4 0-.2 0-.2.4-.2h.7c.2-.2.2-.2 0-.1h-.4c-.1-.2.2-.2.7-.2 1 0 1-.1.2-.3-.4 0-.5-.2-.4-.3.3-.1.2-1.3 0-1.6v.8l-.2-.1a5 5 0 0 0-.5-2l.1-.1c.2-.1.4 0 .5.1 0 .2.2.3.2.1 0-.4-1.2-1.4-1.7-1.4-.3 0-.4-.1-.4-.2h.5c.2 0 .3 0 .3-.2l.2.1c.1.3.2.3.2 0s.3-.4.4 0v-.3c0-.3 0-.5.3-.7.2-.1.2-.2 0 0-.3 0-.4 0-.3-.2 0-.2 0-.2-.2-.2-.2.1-.2.2 0 .4.1.2 0 .2-.6.2-.5 0-1 0-1 .2-.2.1-.2.2.2 0h1l.6.1h-.5c-.4 0-.6.1-.6.2s-.2.2-.5.1c-.4 0-.4 0-.2.1.2.2.2.2-.1.2-.3 0-.3 0-.1.1l.6.4c.2.2.3.2.2 0-.1-.2 0-.2.4 0 .1 0 .2.3.1.4v.3c.2 0 .2.2.2.3v.8l-.2.2-.2-.1c-.1 0-.2 0-.2-.2 0-.1.1-.2.2-.1.1 0 .1 0 0-.2v-.6c0-.4-.4.4-.4.8s0 .5-.4.5c-.3 0-.4 0-.4-.2.2-.2-.7-.3-1.1-.2-.8.2-.3.5.9.6a13.4 13.4 0 0 1 1.5 0c.3.1.4.3.2.3h-1.7c-1.4.1-2 0-1.6-.3l.1-.2c0-.1-.4 0-.7.2-.5.3-.5.4-.1.3l.4-.1-.4.3c-.2.2-.4.5-.3.6.2.3-.1.2-.4-.1-.1-.3-.2-.3-.6-.1-.5.3-.3.4.6.5.3 0 .1.4-.1.4s-.3 0-.2.2c0 0 .2.1.2 0l.4.4c.2.3.2.3 0 .1l-.4-.2.2.3.6.2c0-.1.1 0 .1 0 0 .1.1.2.2.1.1 0 .1 0 0 .2 0 .2 0 .3-.2 0-.1-.1-.1-.1-.1.1s-.2.4-.3.4c-.3.1-.2.6.2.9v.1a.5.5 0 0 1-.5-.3c0-.2-.1-.2-.1 0l.4.4c.2 0 .5.3.6.5l.6.3c.2 0 .2 0 .2.2v.4c.2 0 .2.2 0 .5-.3.3-.3.3.3 1 .4.4.6.5.8.4.3-.2.3 0 .3.8 0 .6 0 1.2-.2 1.5 0 .4 0 .5.4.5.6 0 .8-.2.9-.9 0-.9.6-.6.6.3 0 1.4-1 2.5-3.5 3.7-1.5.8-2.2 1-1.8.5z" style="fill:#606060;fill-opacity:1" transform="rotate(-41.6 2.2 161) scale(.59)"/><path d="m161.5 111-.1.3v.3-.6zm-4.1 1.4c-.4-.3-.7-.1-.4.3.1.3.2.3.4.1.2-.1.2-.2 0-.4z" style="fill:#606060;fill-opacity:1" transform="rotate(-41.6 2.2 161) scale(.59)"/><path d="M157 112.6c0-.2 0-.2.2-.1.2 0 .2.1.2.2-.2.2-.2.2-.3 0zm5.2.4c0-.1 0 0-.2 0-.1 0-.1 0 0-.2 0-.2 0-.3-.2-.2 0 .1-.1 0 0-.1v-.4c-.1 0-.2.2-.2.6 0 .6 0 .7.3.5.2 0 .3-.2.3-.3z" style="fill:#606060;fill-opacity:1" transform="rotate(-41.6 2.2 161) scale(.59)"/><path d="M155.1 114c0-.1.1-.4.4-.6l.6-.4-.1.6c-.1.5 0 .7.3.4 0-.1.3-.2.5-.1l.6-.1c0-.2.2-.2.5 0s1.8 0 2-.2c0-.1.2-.1.4 0 .4 0 .4 0 0-.4-.4-.3-.4-.3 0-.2h.9v-.7c-.2-.3-.1-1.9 0-2l.3.1c.2.2.2.2.2 0 0-.4 0-.4.2-.2.1.3.2.2.2 0s-.2-.3-.3-.3l-.6.3-.5.3c-.5 0-.6 0-.6.4 0 .3 0 .3-.2 0 0-.1-.1-.1-.1 0 0 .4.3.4.5 0 .3-.5.5-.4.3.3a4 4 0 0 0-.2.9v.1l-.7-.2c-.5 0-.5 0-.2-.2h.6l.2-.1c0-.2-.1-.2-.3-.2l-.4-.3c-.1-.3-.3-.2-1.2.2-1.2.6-1.3.7-.8.7.1 0 .2 0 .2-.2h.7c-.2-.2-.2-.3.1-.3l.4-.2c.1-.2.3-.2.4-.2.1 0 0 .3-.4.6l-.6.4c-.1-.3-.4-.2-.5.2l-.1.5-.2.1c-.1 0-.2.1-.3.4 0 .3-.1.4-.6.3l-.6-.2s.1-.1.4 0l.6-.1v-.1c-.2 0-.4 0-.7-.2l-.2-.2.3-.1c0-.3-.1-.2-1 .5-.6.3-.8.6-.6.7.3.1.3.1.2 0zm5.3-1.2h.5-.5zM155 115c.2 0 .2 0 0-.2-.3-.2-.7.2-.6.4 0 .1.2.1.2 0l.4-.2zm-4 .7.6-.3c.4-.3.2-.3-.3 0l-.6.2-.3.3c0 .2 0 .2.1 0l.4-.2zm1 .7c-.2-.1-.6-.1-.8 0-.2 0-.3 0-.2-.2.1-.1.1-.2 0 0-.4.2 0 .4.7.4s.7 0 .3-.2zm-3 .8c-.2-.4-.4-.8-.6-.8v.3c.2.1.2.2.1.2l-.3-.1c0-.1-.2-.2-.3-.1v.3c.2.1.2.1 0 0-.3 0-1 .2-1 .4 0 .1.4.2.9.1.5 0 .9 0 .9.2 0 .1 0 0 .1 0l.1-.5zm-.5.9-.5.2-.4.4.4-.1.5-.5zm-1.2.6-.3-.7c-.1-.2-.1-.2 0 0v.8l.2.4c.1 0 .2-.2.1-.5zm-.7 1.9c.3-.1.7-.3.8-.5.1-.3 0-.2-.7.2l-.9.6h.2l.6-.3zm8.7.4-.4-.2.1.2c.3.2.4.2.3 0zm.8.3v-.2c.2 0 .1 0 0 0l-.3-.3v.1c0 .4 0 .6.2.6.1 0 .2-.1.1-.2zm.3.7-.6-.3c-.3 0-.3 0-.1.2h.4c.1 0 .1 0 0 .2 0 .2 0 .3.2.2.2 0 .3-.2.1-.3zm.6.6h-.3l.1.1h.3zm-5 .4c0-.1-.1-.2-.2-.1-.2 0-.2.1 0 .2.1 0 .2.1 0 .2 0 .1 0 .2.2 0v-.3zm3.2 1c-.2-.1-.2-.2 0-.3l.2-.3h-.4c-.4.3-.3.8.2.8.2 0 .2 0 0-.2zm.6.2-.1-.3-.2.4c0 .3.1.3.3-.1zm1.5 2.8-.2-.1h-.2c0 .2.1.3.2.3l.2-.1zm-6.4.2c.3-.4.2-.7-.2-.4-.2.1-.3.2-.3 0 0 0 0-.2.2-.3 0 0 .1-.2 0-.2 0-.2-.1-.2-.2 0-.3.3-.6.2-.3-.1.3-.4 0-.6-.4-.1l-.4.3.5.6c.6.6.6.6 1 .2zm-2 1.5c0-.4 0-.5.4-.5l.8-.2c.1-.3.1-.3-.2-.3-.2 0-.4-.1-.4-.4 0-.6-.4-.6-1.2.2l-.8.7.5.5c.7.6 1 .6.9 0z" style="fill:#606060;fill-opacity:1" transform="rotate(-41.6 2.2 161) scale(.59)"/><path d="M148.3 128c0-.2.7-.7.8-.6 0 0 0 .3-.2.5-.3.3-.6.4-.6.2zm-.4 1.4c0-.4 0-.5-.4-.4-.3.1-.3.1-.1-.1.3-.4 0-.6-.4-.1-.3.3-.3.3 0 .7.4.4.9.4.9-.1zm17.4 4.6c-.4-.4-.5-1 0-.5.3.3.5.2.3 0v-.7c.2-.2.2-.2.3.2.1.3.3.5.7.5l.5.1h-.6c-.5 0-.6.1-.5.4.1.6-.1.6-.7 0zm-.8.4c-.3-.2-.3-.4-.1-.4.2-.2.9.5.7.6-.2.2-.3.2-.6-.2zm-1.5 2-.4-.5.6-.7c.7-.7.8-.8 1.1-.4.2.2.1.4-.3.9-.4.4-.5.6-.3.8v.2c-.1.1-.4 0-.6-.3z" style="fill:#606060;fill-opacity:1" transform="rotate(-41.6 2.2 161) scale(.59)"/><path d="m163.8 135.6.4-.5c0-.3-.5-.2-1 .3-.4.4-.4.5-.1.5.1 0 .5-.1.7-.3zm-.2 1-.3-.3c-.2-.2-.3-.2 0 0 .2.4.3.5.3.3zm-1.4.8c-.5-.5-.5-1 0-1.1.2-.1.2-.1 0 .1-.3.4 0 .6.3.3.3-.2.3-.2.2.2-.2.5 0 .6.4.3.2-.2.1 0 0 .2-.3.2-.4.5-.4.5l-.5-.5zm-1.1.7c-.4-.4-.4-.5-.1-.7.3-.1.3-.1.2.2 0 .3 0 .4.2.2.3-.3.6-.3.3 0l-.2.3c0 .3.5.2.6 0 0-.2.1-.1 0 0 0 .6-.4.6-1 0zm0 1.1h.5l-.2.1h-.3zm-1.6-.3c.8-.8 1.3-.8 1.3-.2 0 .3-.2.5-.3.5-.1 0-.2-.2-.1-.3.2-.5-.2-.4-.7 0-.3.4-.6.6-.7.6l.5-.6z" style="fill:#606060;fill-opacity:1" transform="rotate(-41.6 2.2 161) scale(.59)"/><path d="m138 120.1.4-.3-.2.3-.5.4.3-.4zm14.8 20.7a15.9 15.9 0 0 1-3.5-1.8l-1.5-.6c-1.7-.8-1.7-.8-3.1-.9a6 6 0 0 1-2.2-.4 1 1 0 0 1-.5-.3c0-.2-.3-.3-.3-.3l-.6-.4c-.3-.3-.4-.5-.3-.5.1 0 .1 0 0-.1l-.7-1a28 28 0 0 0-3.5-4c-2-2-2.7-3.2-2.5-4 0-.3.2-.6.3-.6l.1-.2c0-.2.1-.3.2-.3l.2-.2.3-.6.4-.6c0-.2.5-.9 1-1.6.4-.8.8-1.2.8-1 0 .2.6.4 1.2.7l1 .4-1 .4-1.6.6c-.5.2-.7.7-.3.7l1-.3c1.7-.6 1.5-.2-.2.7-1 .4-1.8 1-2 1.1-.1.3-.1.3.2.2 1.5-.6 2.6-.6 2.8 0 .4 1.2 1 1.5 3.2 1.5 1.4 0 2.6-.4 5-1.2.7-.3-.2.5-1.3 1-.5.3-1.1.7-1.3 1-.3.4-.2 1.1.3 1.5.3.2 3.4.5 3.6.3.3-.3 1.8-.2 2.1 0 .3.3.5 1.2.2 1.5 0 .2-.5.4-1 .7-.4.2-.9.5-1 .7-.2.2-.2.3.4.2.3 0 .6-.1.5-.2h.5c-.2-.2 1.4-1 1.6-.9.1.1.2 0 .1 0v-.3h.4l.3-.2c.1-.1 0-.1-.1 0l.2-.3c.2-.1.5-.3.6-.2l.3-.8.5-1.6c0-.8.1-1 .4-1 .3 0 .4 0 .4.3 0 .2 0 .3-.1.2l-.1.2c0 .5-.1.8-.3.7h-.1c0 .3.6.4.9.3.1-.1.1-.2 0-.2l.2-.2h.5l.1-.2h.3l.3-.1h.3c.1 0 .2 0 .1-.2s.4-.4.6-.3c.1.1.2 0 .2 0 0-.2.1-.2.3-.2h.5c.2 0 .3 0 .2-.2-.1-.2-.1-.2.1-.1l.3-.1c0-.1.1-.2.3-.1.2 0 .2 0 .1-.1 0-.1 0-.2.2 0l.3-.1c0-.1.1-.2.3 0 .2 0 .2 0 .1-.2 0-.2 0-.2.3-.1h.3c0-.1 0-.3.3-.4.3-.1.4-.1.4 0h.1c.2 0 .2-.2.2-.3 0 0 0-.1.2 0l.3-.1v-.1c.1 0 .3 0 .4-.2.2-.2.2-.2.2 0l.1-.1.3-.2.3-.2.1-.1c0 .2 0 .2.3 0 .2 0 .4-.2.4-.3h-.2c-.2.2-.2.1-.1 0l.5-.2c.2 0 .3 0 .2-.2h.5c.5 0 .5 0 .2-.1-.3-.2-.2-.2.3-.2.4 0 .7 0 .7.2h.3c.3 0 .4 0 .3.1 0 .2 0 .2.2.2.4-.1 1.3.3 1.3.5 0 .1 0 .2.2.1 0 0 .2 0 .2.2 0 .1.2.3.4.2.4 0 .6 0 .5.2v.2c.4 0 1.2.2 1 .4h.5c.2-.2.6-.2.7-.1.1 0 .2 0 .1-.2 0 0 0-.1.2 0h.2c0-.2 0-.3.3-.5.4-.2 1.2 0 1 .3 0 0 0 .1.1 0 .3-.1 1.9.3 1.8.4 0 .1.1.2.5.2.3 0 .5-.1.5-.2 0 0 .1-.2.4-.2.2 0 .4-.2.3-.3l.4-.1c.4 0 .4 0 .2.3s-.2.4 0 .5c.2.1.2.2.1.2l.2.2h.6c.2 0 .4 0 .4.2h.3c.2 0 .4 0 .4.2h.3c.2 0 .3 0 .3.2h.3l.5.1c0 .1.1.2.3.1l.3.1c-.1.1 0 .2.4 0 .4 0 .6 0 .5.2h.5c.8 0 .7.2-.2 1-.4.2-.7.6-.6.6 0 .1 0 .1-.1 0-.1 0-.4.1-.7.4l-.5.4c-.3 0-1.1.6-1 .8h-.1c-.4 0-.6.1-.5.3v.1c-.4 0-.6 0-.5.2v.2c-.4 0-.6 0-.5.2v.1a6.8 6.8 0 0 0-2.3 1.4c0 .1 0 .2-.2.2-.3 0-1.5.5-1.4.6h-1l-.9.1h-.5c-.3 0-.4 0-.3.2h-.3c-.2 0-.3 0-.2.2 0 .1 0 .1-.2 0-.1 0-.2 0-.2.2 0 0-.1.1-.2 0l-.2.1c0 .1-.1.2-.3.1-.1 0-.3 0-.3.2-.1.2-.2.2-.3.2-.2-.1-.7.1-.6.3 0 0 0 .1 0 0-.3 0-2.4 1-2.3 1.2 0 .1 0 .1-.2 0-.2 0-.3 0-.2.1.1.2 0 .2-.1.1-.2 0-.3 0-.2.1 0 .1 0 .2-.2.1h-.2c.1.2 0 .3-.1.2l-.5.1c-.1.2-.3.3-.5.2l-.2.1c0 .1 0 .2-.2.1h-.3c0 .2-.2.2-.4.2h-.3c.1.2 0 .2-.3.1-.2 0-.4 0-.4.2h-.3l-1 .1-1.3.3-.9.2c-.2.1 0 0 .3-.4.6-.5 1-.7 1-.3l.1.3c.2 0 .3-.2.3-.5 0-.4 0-.4-.6-.4-.3 0-.5.1-.5.3 0 0-.1.3-.4.5a51.4 51.4 0 0 0-1.2.6l-.3.1c0 .1-.1.2-.3.1h-.4c0 .2-.2.2-.5.2h-.3c0 .2 0 .2-.2.2h-.4c0 .2 0 .2-.2.2h-.2l-.4.2-1 .1h-1.1z" style="fill:#494949;fill-opacity:1" transform="rotate(-41.6 2.2 161) scale(.59)"/><path d="M166 134c0-.3 0-.3.5-.3h.6l-.5-.2c-.4 0-.6-.2-.7-.5 0-.4-.1-.4-.2-.2v.6c0 .3-.1.4-.4 0-.5-.4-.4.2 0 .6.6.6.8.6.7 0zm-.9.6c.2-.1-.5-.8-.7-.6-.2 0-.2.2 0 .4.4.4.5.4.7.2zm-1.4 1.9c-.2-.2 0-.4.3-.8.4-.5.5-.7.3-.9-.3-.4-.4-.3-1.1.4l-.6.7.5.5c.2.2.5.4.6.3v-.2z" style="fill:#494949;fill-opacity:1" transform="rotate(-41.6 2.2 161) scale(.59)"/><path d="M163.2 135.4c.5-.5 1-.6 1-.3 0 .2-.8.8-1.1.8-.3 0-.3 0 .1-.5zm.1 1c-.3-.3-.2-.3 0 0 .2 0 .3.2.3.2 0 .2-.1 0-.3-.2zm-.3 1 .1-.2c-.4.3-.6.2-.4-.3 0-.4 0-.4-.2-.2-.4.3-.6 0-.3-.3.2-.2.2-.2 0-.1-.5.1-.5.6 0 1.1l.5.5.3-.5zm-.8.8v-.1c-.2.2-.7.3-.7 0l.2-.3c.3-.3 0-.3-.3 0-.2.2-.3.1-.2-.2.1-.3 0-.3-.2-.2-.3.2-.3.3.1.7.6.6 1 .6 1 0z" style="fill:#494949;fill-opacity:1" transform="rotate(-41.6 2.2 161) scale(.59)"/><path d="M166.6 124.5c-.3 0-.3-.1-.1-.1l.6.1c.2.1.2.2 0 .2a2 2 0 0 1-.5-.2zm-2.1 0 .7-.2c.6 0 .4.1-.3.3h-.4zm-1 .8.3-.3c.2 0 .4-.1.4 0l-.4.2-.3.1zm5.3.3c0-.1 0-.2.2 0 .3 0 .4.1.1.1l-.3-.1zm9 .8c0-.1 0-.3.2-.4.1-.2.1-.3-.1-.3l-.4.2-.3.2c-.3 0 .4-.5.8-.5.3 0 .4 0 0 .6-.1.3-.2.4-.2.2zm-16.5 0h.3l-.2.1c-.2.1-.3.1-.1 0zm16.8.6c-.3-.2 0-.2.4 0 .3 0 .3.1.1.1a1 1 0 0 1-.5-.1zm1.2.2h.3l-.2.1c-.2 0-.2 0 0 0zm.8.3c-.2 0-.2-.1 0-.1l.6.1c.2.1.2.2 0 .2a2 2 0 0 1-.6-.2zm1.4.4c-.4-.2 0-.2.7 0 .3 0 .3.1 0 .1a2 2 0 0 1-.7-.1zm1.5.2h.5-.6zm-28.6 1.2c.1-.2.3-.2.3-.2s0 .2-.2.3c-.2 0-.2 0 0-.1zm27.1 1 1-.8a7 7 0 0 0 1.3-1.1l.3-.3-.5.7a10 10 0 0 1-2.1 1.5zm-5 3.3zm-2.6 1a7 7 0 0 0 1.8-.5c.5-.2.5-.2.2 0a4 4 0 0 1-2.4.6c-.7 0-.6 0 .4-.1zm-2.4.4.9-.2-.5.2c-1 .3-1.1.3-.4 0zm-1.4.6.3-.1-.2.2c-.2.1-.3 0 0 0zm-2.8 1.4c1.3-.6 2.4-1.2 2.5-1.1a45.4 45.4 0 0 1-2.5 1.1zm-4.3 1.8c.5-.2 1-.2.6 0a2 2 0 0 1-.8.1c-.2 0-.2 0 .1-.1zm-1.2.2h.5l-.3.1h-.2zm-3.8.7h.3c0 .1 0 .2-.2.1h-.1zm-.7.3h.3-.3zm-1.3.2.7-.1c.3 0 .2 0-.1.1-.6.2-1 .2-.6 0zm14.7 2.9.3-.3c.3-.2.3-.2 0 .1-.2.3-.3.4-.3.2z" style="fill:#333;fill-opacity:1" transform="rotate(-41.6 2.2 161) scale(.59)"/><path d="M145 91.2h.8l-.4.1h-.3zm2.7.8v-.2c.1 0 .2 0 .2.2 0 .3 0 .3-.2 0zm.7.3c0-.2 0-.2.2 0l.2.2h-.2a.2.2 0 0 1-.2-.2zm.6 1.8.1-.2v.3c-.2.2-.3.2-.2 0zm-6.6 2.1.3-.6c0-.2.1-.2.1 0 0 .1 0 .4-.2.6-.3.4-.3.4-.2 0zm-.7 1.8c0-.2 0-.5.3-.7l.3-.4-.3.5c-.1.2-.2.4-.1.5v.2l-.2-.2z" style="fill:#b9b9b9;fill-opacity:1" transform="matrix(.323 -.524 .524 .323 -77.2 87.5)"/><path d="m141 98.5.4-.3c.3-.2.3-.2 0 0-.2.4-.3.5-.3.3zm5.4.5c-.4-.3 0-.3.7 0 .3 0 .3 0 0 0a2 2 0 0 1-.7 0zm-4.8 0 .8-.4a4 4 0 0 1 2.1-.3c.7 0 1.3 0 1.2.1h-1.2c-1 0-1.4 0-2 .3l-1 .3zm6.1.2h.5-.5zm.9.2c.1-.1.3-.1.4 0h-.4zm-8.1.1c0-.1.1-.2.2-.1l.5-.1c.3-.3.3-.2 0 0-.2.4-.7.5-.7.2z" style="fill:#b9b9b9;fill-opacity:1" transform="matrix(.323 -.524 .524 .323 -77.2 87.5)"/><path d="M150.1 100c0-.2-.1-.3-.2-.3-.1.1-.2 0-.2 0 0-.2-.1-.2-.4-.1-.2 0-.3 0-.2-.1.1-.2 0-.2-.4-.2h-.5c.1-.2 0-.2-.4-.1l-.5-.1c.1-.1 0-.2-.3-.1-.3 0-.4 0-.3-.1 0-.1 0-.2-.3 0l-.4-.1c0-.1-.1-.2-.3 0-.3 0-.3 0 0-.3.2-.3.1-.3-.3-.1-.6.2-.8.2-.5 0 .2-.1 0-.2-.8-.2-.9 0-1.1 0-1 .2.3.1.2.2-.2 0-.3 0-.4 0-.4.2.1 0 0 .1-.1 0-.2 0-.5.2-.7.5l-.4.2c.2-.2.1-.2-.1 0h-.5c-.2 0-.1-.1.1-.3l.2-.2s0-.2.2-.3c.2-.2.2-.3 0-.2-.2.2-.2.2 0-.1.2-.2.4-.3.5-.2.3 0 .3 0 0-.2 0-.2-.1-.3 0-.2.2.1.7-.5.5-.8 0 0 0-.3.3-.5.3-.3.3-.5.2-1V95c.2 0 .2-.3.2-1l.1-1c.1 0 .1 0 0-.2 0-.2 0-.3.2-.3.1 0 .2-.1 0-.3 0-.4 1.1-.8 2.6-.7 1.3 0 2.6.6 2.5 1 0 .1 0 .2.2.1s.5.8.5 1.4v.4l.7 2.9c.6 2.7.7 3.4.4 2.7zm.3 1.2c0-.2 0-.3.1-.2v.5-.3z" style="fill:#a3a3a3;fill-opacity:1" transform="matrix(.323 -.524 .524 .323 -77.2 87.5)"/><path d="M143 92.1c0-.2 0-.2.1 0v.3-.3zm7.4 9.7c0-.2 0-.2.1 0v.3-.3z" style="fill:#8c8c8c;fill-opacity:1" transform="matrix(.323 -.524 .524 .323 -77.2 87.5)"/><path d="M140.8 98.2v-.9l.2-.5-1 .1c-1.3.2-2.2-.2-2.4-.9-.1-.4 0-.8.5-1.6l.3-.4h.2l1-.5.8-.3c0 .1.1 0 .1 0 0-.2.1-.2.2-.2l.8-.4c.4-.2.8-.3.9-.2v-.1c0-.2.2-.2.3-.2 0 .1.1 0 .1 0l.1-.2v1.7a9.1 9.1 0 0 1-1.6 4.4c-.3.5-.4.5-.5.2zm3 .3h.5-.5zm-10 1c0-.2.1-.2.2 0v.3c-.1 0-.2 0-.2-.3z" style="fill:#767676;fill-opacity:1" transform="matrix(.323 -.524 .524 .323 -77.2 87.5)"/><path d="M135 102c-.2-.3-.2-.3.1 0 .2 0 .3.2.3.2 0 .2-.1 0-.4-.2zm13 1.1c-.5-.1-1.5-.6-2.3-1a13.8 13.8 0 0 0-4.2-1.8c-1.8-.4-2.4-.3-3.6.6a6 6 0 0 1-1.4.8c-.7.2-1.5-.1-2.1-.7l-.6-.5.2-1 .1-1V98c.2-.2.2-.4.2-.5v-.2c.2-.1.2-.2.1-.3l.1-.2c.1 0 .2 0 .1-.2l.1-.1c.1 0 .2-.1.1-.2V96c.2 0 .4-.2.5-.5l.4-.4.3-.1.3-.3a46.5 46.5 0 0 0 1.5-.5c.4-.3.5 0 .1.5-1 1.3.1 2.4 2.2 2.1 1-.1 1-.1.8.3-.1.2-.2.6-.1 1v.6l-.4.4c-.2.4-.1.4.2.5.2.1.4 0 .6-.1.2-.2.7-.5 1.1-.6 1-.5 3-.4 4 0l.8.3c.2 0 2.6.5 3 .7.1 0 .2.5.2 1.4 0 1.9-.4 2.2-2.3 1.7z" style="fill:#606060;fill-opacity:1" transform="matrix(.323 -.524 .524 .323 -77.2 87.5)"/><path d="M134 98.9c0-.3 0-.4.1-.3v.6-.3zm.2 2.1c-.3-.4-.2-.4 0-.1l.3.3-.3-.3zm16.1.5v-.6 1.3-.7zm-9.5 3.9h-.3s-.2 0-.3-.2c-.1-.1-.3-.3-.5-.3l-.2-.1c0-.1-.1-.2-.3-.2l-.3-.2s-.1-.2-.4-.3c-.2 0-.4-.2-.4-.3 0 0 0-.1-.1 0 0 0-.3 0-.4-.2l-.4-.2s-.3-.1-.5-.4l-.6-.3-.5-.5-.5-.6.7.1c.7 0 .9 0 1.6-.5 1.1-.8 2-1.2 2.5-1.2a15.6 15.6 0 0 1 6 2.1 11.3 11.3 0 0 0 3 1.2c.3 0 .3.1 0 .3l-.6.1c-.1 0-.2 0-.2.2 0 0 0 .1-.2 0l-.1.1c0 .1 0 .2-.2.2h-.2a5.7 5.7 0 0 1-.6.2h-.3l-.2.2h-.3l-.2.1-.6.1-.7.3h-.5c-.1 0-.3 0-.4.2h-.6c-.3.3-2.1.3-2.2.1z" style="fill:#494949;fill-opacity:1" transform="matrix(.323 -.524 .524 .323 -77.2 87.5)"/><path d="m135.3 102-.5-.5.6.5.6.6c0 .1-.2 0-.7-.5zm6.2 3.5h.8-.8z" style="fill:#333;fill-opacity:1" transform="matrix(.323 -.524 .524 .323 -77.2 87.5)"/></svg>