<svg xmlns="http://www.w3.org/2000/svg" xml:space="preserve" width="192" height="192" viewBox="0 0 50.8 50.8"><path d="m36.1 1.7-.6.3v.6c.1.2 0 .4-.2.3l-.1-.2c-.1-.3-.2-.3-.6-.2h-.8c-.2 0-.5.2-.5.3v.3l-.3.2-.1.2c0 .2-.1.3-.3.3-.3 0-.3.2-.3.5l.3.6.2.2c0 .1-.2.3-.3.2l-.2.1H32l-.2-.2c-.2-.2-.3-.3-.4-.2-.1 0-.3.3-.3.5v.2c-.1.2-.1.3 0 .4l.1.3h-.6c-.2-.1-.3 0-.5.3L30 7v.7c.2.1.3.2.2.3h-.1l-.2.3c0 .2-.1.2-.3.2-.1 0-.2 0-.2.2l-.2.7v.3l.2.2.2.3v.4c-.1.3-.2.4-.4.5v.5l.3.4c0 .4.2.5.3.6.1 0 .2.2.1.3v.4c.2.2.3.3.5.3l.2.1h.3c.2 0 .3 0 .3.2v.4c-.2.2-.1.3 0 .5l.2.5a1 1 0 0 0 .2.5h.5l.3.2c.6.5 1 .7 1.1.6.2 0 .4-.4.4-.6v-.2l.4-.1.5.2.3.3v.3l.2.2v.2l.2.1c0 .2.1.2.3.2l.3.1c.1.1.1.1.4 0h.2l.1.2c.1.1.2.2.5 0h.9l.2-.2h.6c.2.2.4.2.5.1l.1-.2.2-.3.1-.4.1-.2.3.2.3.2h.3c.2-.1.3 0 .4 0h.3l.2-.2v-.2h.3c.2 0 .2 0 .3-.2 0-.2 0-.2.2-.2l.3-.1.2-.7c0-.3 0-.3.2-.4l.2-.3.1-.8v-.3h.3l.3-.3s0-.2.2-.3l.3-.2v-1.3c.1 0 .2-.1.2-.3V9.6l-.1-.4c-.2 0-.2-.1-.1-.3 0-.4 0-.6-.3-.8-.2-.2-.2-.2-.1-.3h.1c.3-.2.3-.4 0-.6-.4-.3-.4-.4-.4-.8 0-.3-.1-.4-.3-.5l-.4-.1-.3-.4h-.3l-.2.2v-.8l-.3-.2-.2-.1v-.6l-.3-.2-.4-.3h-.5a2 2 0 0 1-.3.2h-.1V3l-.1-.2-.3-.2-.4-.1h-.2l-.2-.1H39l-.2-.1-.5-.1h-.7c0-.2-.2-.2-.2-.3l-.2-.2h-.4s-.4 0-.4.2l-.2-.1v-.1zM15.8 3.9h-.7l-.4.2-.3.3c0 .2-.3.4-.3.5l-.2.1-.1-.1-.5-.7-.2-.1h-.6l-.7.1-.3.1-.3.1-.3.2h-.3l-.7.3-.5.4-.1.2h-.8L8 5.3l-.5.4c-.2 0-.5.3-.5.5 0 0 0 .1-.2 0h-.3a2 2 0 0 0-.5 1c0 .2.2.5.4.5l.2.2c.3.2.2.6-.1.7 0 0-.2 0-.3-.2-.4-.2-.6-.2-1 .2l-.5.3c-.2 0-.5.2-.6.4l-.4 1 .1.3v1c.2.3.1.4-.1.6-.3.3-.3.6 0 .9.4.3.7.5 1 .5.2 0 .4.1.4.3l-.1.4v.1l-.3.3-.2.1H4c-.5-.2-.8-.2-.8 0v.9l.2.4c0 .2.1.4.4.4.2 0 .6.3.4.3v.2l-.8.4c-.4 0-.5.1-.5.8 0 .6 0 .6.2.8l.1.3.1.3.4.1c.3 0 .5.1.5.3l-.1.2v.4c0 .4 0 .4-.3.6l-.2.4c0 .4.2.8.4 1.1l.3.5.4.1c.4 0 .4 0 .6.2l.2.3.1.4c.2.3.2.6 0 .9l.1.3.4.2c.2 0 .4.3.7.5.4.4.7.5 1 .5.2 0 .4 0 .4.2s.2.4.5.6c.3.1.4.1.8 0h.4l.3-.3c.3-.3.5-.3.7 0l.2.4c0 .5.2.7.5.7s.6.2.8.5a1.6 1.6 0 0 0 .7.5l.3-.3.3-.2h.6c1.3.1 2 0 2.1-.1.2-.2.2-.9 0-1.1l-.2-.4c0-.2 0-.2.4-.4.3-.2.3-.2.8-.2l.7.1.1.3.2.1.2.1v.6c.1.3.1.5-.2.8-.3.3-.3.6.1 1s.8.6 1 .6c.4 0 .6.1.6.3l-.1.5-.1.1-.3.3-.2.2H19c-.6-.2-.9-.2-1 0-.1.2 0 .7.1 1l.2.5c0 .3.1.5.5.5.2 0 .6.4.5.4l-.2.2c0 .2-.4.4-.8.5-.5 0-.5.1-.6 1 0 .6 0 .7.2.9l.2.3.1.3c.2.2.2.2.5.2s.5.1.5.3v.3l-.2.5c0 .4 0 .5-.2.7-.2.2-.2.3-.2.5 0 .4.2 1 .4 1.3l.4.5.5.2c.4 0 .4 0 .6.2l.2.3.2.5c.2.4.2.7.1 1v.5l.5.2c.2 0 .5.3.8.5.5.5.9.7 1.2.6.2 0 .5.1.5.3 0 .2.2.5.5.6.4.2.5.2 1 .1h.4l.5-.3c.3-.4.5-.4.8-.2l.2.7c0 .5.2.7.6.8.4 0 .7.2.9.5a1.9 1.9 0 0 0 .9.6l.4-.3.3-.3h.7c1.5.2 2.2.1 2.5-.1.2-.2.2-1 0-1.3a1 1 0 0 1-.2-.5c0-.2 0-.2.4-.4.3-.2.4-.2 1-.2h.8l.1.4.3.2.4.1.3.1.4.2c.3.1.4.1.8 0 .2-.2.3-.2.5-.2.3 0 .3 0 .7-.3l.3-.3h.3c.4.2.5.1.8-.3.3-.5.5-.6.7-.6.3 0 .5-.2.6-.5l.3-.4c0-.2.6-.5 1-.6.3 0 .8-.4.8-.5v-.4l-.1-.8-.2-.7c-.2-.2-.2-.3 0-.4H45l.4-.3c.3-.4.4-.5.7-.5.2 0 .4-.2.5-.3.2-.1.2-.1 0-.4v-.4l.3-.4c.3-.3.3-.3.3-.6s0-.3.2-.5.3-.3.2-.5l-.4-1.3c-.2-.5-.2-.6-.1-1v-.6a5.6 5.6 0 0 0-1-1.8l.4-.4c.3-.4.4-.6.3-.7-.1-.1-.1-.5 0-.8l.2-.5c0-.3 0-.3-.3-.7a3 3 0 0 1-.4-.6L46 28c-.2-.3-.3-.3-.2-.5l-.2-.8a4 4 0 0 0-.3-.6l-.2-.4c-.2-.4-.1-.4-.7-1-.5-.4-.6-.5-.8-.5-.3 0-.3 0-.5-.4-.2-.6-.5-.9-1.2-1-.5 0-.5 0-.5-.2v-.3c.4-.5.1-.8-.6-.9-.8 0-1-.1-1.4-.7-.5-.6-.6-.7-1-.5-.3.2-.7.3-.8.2-.5-.4-.5-.4-.8-.3-.2 0-.4 0-.5.2-.2.1-.2.1 0 .3v.3c-.2.1-.4 0-.5-.4 0-.3-.4-.7-.6-.8h-1.1v-.2c0-.3-.3-.7-.5-.8H32c0 .2-.3.2-.3.2l-.4.4-.4.6-.2.1-.1-.2-.6-.7-.2-.2H29l-.7.2-.3-1c-.2-.4-.2-.5-.1-.8v-.5a4.7 4.7 0 0 0-.8-1.5l.2-.4c.3-.3.4-.5.3-.6v-.6l.2-.5-.3-.6-.3-.4-.3-.4c-.2-.1-.2-.2-.2-.4l-.1-.6-.3-.5-.1-.4c-.2-.4-.1-.3-.7-.8-.3-.3-.4-.4-.6-.4-.2 0-.3 0-.4-.4-.2-.5-.4-.7-1-.8-.4 0-.4 0-.5-.2l.1-.3c.3-.4 0-.6-.5-.7-.8 0-.9-.1-1.3-.6-.3-.5-.5-.6-.7-.5-.3.2-.7.3-.8.2-.4-.3-.4-.3-.7-.3l-.4.2v.5c-.1.2-.3 0-.4-.3 0-.3-.3-.6-.5-.6h-.9v-.3c0-.2-.3-.5-.4-.6h-.7z" style="fill:green;stroke-width:.326561"/><path d="m12.9 29.1-.4-.3c-.2-.3-.5-.4-.8-.5-.3 0-.5-.2-.5-.7 0-.2 0-.4-.2-.5-.2-.2-.4-.2-.7.1a1 1 0 0 1-.3.3h-.4c-.4.1-.5.1-.8 0-.3-.2-.5-.4-.5-.6 0-.2-.2-.3-.4-.2-.3 0-.6-.1-1-.5l-.7-.5-.4-.2v-1.3c-.2 0-.2-.3-.2-.3l-.2-.3c-.2-.2-.2-.2-.6-.2l-.4-.1-.3-.5c-.2-.3-.4-.7-.4-1 0-.2 0-.3.2-.5s.2-.2.2-.6v-.4l.2-.2c0-.2-.2-.3-.5-.3l-.4-.1v-.3l-.2-.3C3 19 3 19 3 18.3c0-.7.1-.8.5-.8s.6-.2.7-.4l.1-.2c.2 0-.2-.2-.4-.3-.3 0-.4-.2-.4-.4l-.1-.4c-.2-.3-.2-.7-.1-1H4l.4.1.2-.1.2-.3.1-.1s.2-.3.1-.4c0-.2-.2-.3-.5-.3-.2 0-.5-.2-.8-.5-.4-.3-.4-.6-.1-.9.2-.2.3-.3.1-.6v-1a1 1 0 0 1 0-.3c0-.2.1-.7.3-1 .1-.2.4-.4.6-.4l.5-.3c.4-.4.6-.4 1-.2.1.2.3.2.3.2.3 0 .4-.5.1-.7l-.2-.2c-.2 0-.4-.3-.4-.5l.5-1h.3c.1.1.2 0 .2 0 0-.2.3-.5.5-.5l.5-.4h.5l.4.1h.4v-.2L10 5a6.2 6.2 0 0 0 1-.3l.3-.2h.3l.3-.2.7-.1h.6l.2.1.5.7.1.1.2-.1.3-.5.3-.3.4-.1.7-.1h.7l.4.6v.3h.9c.2 0 .4.3.5.6 0 .3.3.5.4.3v-.5l.4-.2c.3 0 .3 0 .7.3.1 0 .5 0 .8-.2.2-.1.4 0 .7.5.4.5.5.5 1.3.6.5 0 .8.3.5.7v.3l.3.2c.7 0 1 .3 1.1.8.1.3.2.4.4.4s.3 0 .6.4c.6.5.5.4.7.8l.1.4.3.5c.1.3.2.4.1.6 0 .2 0 .3.2.4.2.1.3.3.3.4l.3.4.3.6-.2.5v.6c0 .1 0 .3-.3.6l-.2.4.3.4.5 1V18l.4 1.2c0 .1 0 .2-.2.3-.2.2-.2.2-.2.5l-.2.5c-.2 0-.3.2-.3.3l.1.3v.4l-.5.2c-.2 0-.3.1-.6.4l-.3.4h-.6a4 4 0 0 0-.6 0v.3c.2 0 .2.3.2.6l.1.6v.3c0 .2-.4.4-.7.5-.3 0-.7.3-.8.5l-.2.4c-.1.2-.3.3-.5.3s-.4.2-.6.6c-.3.4-.4.4-.7.3l-.2-.1-.3.3c-.3.3-.4.3-.6.2-.1 0-.3 0-.5.2h-.6a1 1 0 0 0-.3-.1l-.3-.1-.4-.2-.2-.1-.1-.3h-1.5c-.3.3-.4.3-.4.5l.2.4c.2.2.2 1 0 1-.2.3-.8.3-2 .2h-.7l-.3.2-.3.3s-.2 0-.3-.2zm.5-.5c.2-.2.3-.2.5-.2l.5.1h1.7l.1-.5-.1-.6c-.2-.3-.2-.6 0-.7l.1-.4c0-.6 0-.7-.7-.5-.4.2-.4.1-.8 0l-.5-.3-.4-.4h.4c.4 0 .5 0 .6-.3.1-.2 0-.3-.4-.7l-.4-.6a115.4 115.4 0 0 0-.3-.6c-.2 0-.3 0-.2-.2l-.1-1.1-.4.2-.3 1.2-.2.3c-.2 0-.5-.1-.6-.3l-.3-.1-.3-.1-.3-.2c-.2 0-.2-.3 0-.4.3 0 .7-.4.7-.5l.1-.3.7-.1c.5 0 .6 0 .8-.2l.5-.3c.2 0 .2 0 .2-.2l-.1-.3-.8.1-.5.2-.5-.1v-.3c0-.1.2-.3.5-.3.2 0 .4-.1.5-.3 0-.2-.2-.5-.5-.4-.1 0-.2 0-.2-.2-.1-.3-.3-.4-.7-.4H11c-.7.3-.9.1-.5-.3.3-.2.3-.4 0-.6l-.3-.2-.5-.4-.6-.6c-.5-.2-.6-.3-.6-.5v-.2c.2 0 0-.3-.4-.5l-.7-.2c-.5 0-.6 0-.6-.5 0-.3 0-.3-.2-.5L6 14h-.4l-.1.2c-.2.4-.3.5-.7.8l-.6.2h-.5c-.1 0-.1.3 0 .4.2.1.2.2.2.4v.3h.5c.2.1.2.1.2.4v.3l-.2.3-.2.3c-.1.2-.2.2-.4.2l-.3.1-.1.5.1.5c.2 0 .2.2.2.3 0 .2.3.4.4.4l.8.7c.2.3.1.4-.1.5-.2 0-.3 0-.3.4l-.2.3c-.2.3-.1.8.3 1.3.1.2.4.3.6.3.3 0 .5.3.6.6l.3.6.2.6c-.1.5-.1.5.2.7.2 0 .5.2.6.4.4.3.5.3 1 .3.3 0 .3 0 1 .7.1.2.2.2.4.2.3 0 .6-.3.8-.6.3-.4.5-.4.6-.1l.2.2c.3 0 .4.1.4.5 0 .5 0 .6.5.8l.7.5c.3.4.4.4.7.1zM8 21.3l-.3-.4a1 1 0 0 0-.4-.3c-.2-.1-.2-.3 0-.6.2-.2.3-.3.3-.5 0-.4.1-.5.7-.4l.4.1.1.4c.3.7.3.9 0 1.2-.2.1-.3.3-.3.4 0 .3 0 .3-.2.3-.1 0-.2 0-.3-.2zm.4-.7c.3-.2.4-.3.2-.5l-.2-.4c0-.2 0-.3-.2-.3s-.2.1-.5.6l-.1.2.1.3.4.4.3-.3zM20 27.1l.2-.2c0-.2.3-.2.4 0 .1.1.3 0 .4-.2l.5-.4h.2l.2.2c.1 0 .3-.2.3-.4s.2-.3.5-.3.5-.2.5-.3c0-.3.3-.5 1-.9.7-.3.7-.3.7-.5l-.1-.4-.1-.5c0-.2 0-.2-.3-.4-.4-.3-.4-.4-.3-.7.3-.4.5-.4.8-.1.1.2.2.2.5.2.4 0 .4 0 .7-.3.2-.3.4-.4.6-.4.2 0 .3-.1.3-.2V21c-.2-.2-.2-.3.2-.6.3-.2.3-.4.2-.6-.1-.3-.1-.3.2-.5.3-.2.3-.2.2-.4l-.2-.3c-.1-.1-.2-.2-.1-.4l-.1-.3v-1.6l-.6-.7c-.1-.1-.2 0-.7.3-.1 0-.2.1-.4 0-.3 0-.5.1-.5.3v.2l-.1.3-.2.2.2.3c.3.4.3.6.1.8l-.7.1h-1l-.3-.4c0-.1 0-.2-.2-.2l-.3.1c-.1.2-.4.1-.7-.2l-1.3-.8v.3c0 .4 0 .4-.4.4l-.4.1c-.2.3-.3.3-.4.3l-.9-.3c-.2-.2-.3-.1-.3.2 0 .2 0 .3-.2.5-.3.3-.3.5-.2.6.2.2.2.4 0 .6-.3.4-.3.5-.3.7 0 .2-.1.3-.4.4-.2 0-.4.2-.5.5-.2.3-.1.4.2.7.2.2.3.2.2.4l-.1.2.2.6c.2.3.2.5 0 .7l-.2.1h-.3c-.6-.3-.9-.3-1 0-.1.4 0 .8.3 1l.3.6.3.4c.2 0 .3.2.3.3 0 .1 0 .2.2.3h1.4v.3l.1.2.7.4h.7zm-1.2-3.4v-.5l-.1-.4c-.2-.2-.3-.4-.2-.6V22l.3-.7c.3-.7.4-.7.8-.4.6.4.6.4 1.1.2.6-.2 1-.2 1.4 0l.4.2.3.2c.2.2.3.2.2.3h-.2c-.2 0-.5.4-.5.6v.3l-.6.3-.8.6c-.3.3-.4.4-.6.2 0-.1-.6-.1-.8 0h-.7zm.7-.5c.2-.3.3-1.1.3-1.3 0-.2-.4-.8-.5-.8l-.3.8c0 .7 0 1.4.2 1.5.1 0 .2 0 .3-.2zm.9.1s0-.2-.2-.3c-.1-.3-.1-.3-.2-.1-.1.2-.1.3 0 .4 0 .1.3.1.4 0zm.5-.3.2-.2-.5-.2c-.2 0-.1.2 0 .3.2.2.2.2.3 0zm1-.5c.2-.2.2-.4 0-.6l-.7-.2a35.1 35.1 0 0 1-1.1 0c0 .2.3.4.6.5l.2.1.7.3.3-.1zm0-1c.2-.1-.1-.5-.3-.5-.3 0-.5.4-.3.4h.6zm2-1s-.2 0-.3-.2c-.4-.5-.4-.5-.7-.5-.4.1-.5 0-.2-.5.2-.4.4-.4 1-.4.5 0 .6 0 .8.2l.2.2v.4c0 .4-.3.8-.4.8h-.4zm.3-.5.1-.3-.2-.4c-.2-.1-.6-.2-.8-.1-.1 0 0 .3.3.6s.5.4.6.2zm-4.3-1c-.1-.2 0-.4.2-.6.2-.2.4-.2.6 0 .2.2.2.3 0 .5-.3.3-.6.3-.8 0zm5.7-.4c-.1-.1 0-.6.2-.9h.3c.1 0 .5.6.4.7l-.3.1c-.2.2-.5.2-.6 0zm-10 6.7c.2-.2.2-.4 0-.6-.3-.2-.3-.2-.4 0 0 .1 0 .3-.2.4-.2.4-.2.4.3.4.2 0 .3 0 .4-.2zm-.4-1.2.1-.3v-.5l.1-.4-.3.4-.3.5.3.3h.1zm1.7-1c.1 0 .1 0 0-.2l-1-.6-.2.3c0 .3 0 .4.6.5h.6zm-1.9-.3.1-.1.3-1.3-.1-.5-.2-.1-.1.2c-.3.2-.3.4-.4 1.3l.1.7c.2 0 .3 0 .3-.2zm-2.6 0 .1-.4v-.6c-.2-.3-.4-.3-.5 0l-.3.4c-.3.2-.3.4-.1.4.2.1.6.3.7.2zm2-.3a4 4 0 0 0 0-1.4h-.6l.1.4v1c0 .2.3.2.4 0zm2.3-.5-.2-.4-.3-.3v-1.1l-.1-.8c-.3-.4-.3-.5-.4-.4v2c0 .6.1.7.5 1 .3.2.4.2.5 0zm-1.4-2-.2-.3c-.2-.2-.2-.2-.3-.1v1c.1 0 .5-.3.5-.5zm-.7-.1c0-.2-.2-.4-.4-.3v.5c.2.2.2.2.3 0V20zm2.5 0v-.2c0-.2-.5-1-.9-1.4H16c-.1 0 0 .3 0 .4l.2.4.6.8h.3zm-2.7-.7c.1-.1.2-.4 0-.5 0 0-.5.5-.4.6 0 .1.2 0 .4 0zm-.8 0c.2-.2.2-.4 0-.5-.2-.2-.5 0-.4.2l.3.4.1-.1zm1.7-.2c.2-.3 0-.7-.3-.5v.5h.3zm2-.7c-.6-.8-.9-1.1-1-.8 0 .2 0 .5.4 1 .3.2.5.3.6.2v-.4zm-4.4.1c0-.2-.2-.4-.6-.5-.4 0-.6 0-.6.2 0 .1.3.3.5.2l.3.1c.2.2.3.2.4 0zm1.3 0v-.5c-.2 0-.3-.3-.2-.4.4-.5.8-.6 1.2-.3v.5l.1.4s.4-.1.5-.3c.2-.1.2-.5 0-.8a.7.7 0 0 1-.1-.5c0-.5 0-1.2.2-1.4.1-.2.4-.4.6-.4.2 0 .3-.1.1-.4-.2-.2-.2-.3 0-.5v-.5h-.3c-.2 0-.3 0-.4-.2l-.2-.3-.1-.1-.4.3-.5.3-.2-.3a1 1 0 0 0-.3-.2h-.5c-.5 0-.5 0-.7.2l-.4.3-.4-.3-.4-.2-.4.4c0 .2-.3.3-.8.3-.2 0-.3 0-.4.2v.3l.2.2c.1.1.2.3.1.5v.4c0 .2 0 .2.2.3.4.2.7.6.8 1 0 .3.1.3.3.4l.4.2c.1 0 .1.1 0 .4 0 .3 0 .3.3.3l.8.4.6.3h.3zm-.8-1s0-.1 0 0c.1 0 .1 0 0 0zm-.8-1.1c-.2 0-.2-.5 0-.7h.3c.2 0 .3.3.3.5s-.3.3-.6.2zm1.9-.2c-.1 0 0-.2 0-.2.2 0 .2 0 .2.2h-.2zm-.2-.8-.5-.3c-.5-.3-.6-.4-.2-.8.4-.3.6-.3.8 0 .1.2.2.8.1 1 0 .2 0 .2-.2.1zm0-.8h-.4c-.2 0 0 .1.1.2l.2.2v-.4zm3.5 3c0-.2-.1-.6-.4-1l-.1-.3c-.2-.4-.4-.6-.8-.6-.2 0-.3 0-.4.2l-.2.3a8 8 0 0 0 1.2 1.6l.2.2c.1.2.2.2.3.1.2 0 .2 0 .2-.4zm-6.2.2c.3-.4.2-.5 0-.6-.2 0-.3-.1-.3-.3l-.3-.2c-.5 0-.8 0-.9.2 0 .1.3.5.5.5s.4.3.4.5v.2c.2 0 .4 0 .6-.3zm3.4 0-.2-.2-.2-.2-.1.2-.2.1.2.2c0 .2.1.2.3.2l.2-.2zm9.4 0c.1-.2.2-.2.3-.1.3.2.2-.2 0-.5-.3-.2-.3-.2 0-.6.2-.5 0-.9-.3-.9s-1.3.4-1.4.6h-.6l-.1-.3c0-.3-.1-.4-.6-.5h-.4c-.1.1 0 .4.4.7.4.3.5.5.4.7-.1.1 0 .2.1.3.2.1.2.1.4 0l.2-.2.3.1.3.3c.2.4.2.4.4.4h.6zM19 17l-.4-.7-.6-.3c-.3-.1-.3-.1-.4 0l.1.5c.2.2.5.4.9.5.3.1.3.1.4 0zm1 0c.2-.1.2-.3.1-.4l-.4-.2h-.6l.3.6h.6zm-9.3-.8c.2-.1 0-.5-.2-.4h-.2c-.2-.2-.4-.2-.6 0-.2.2-.2.4 0 .5h1zm9.7-.3.2-.2h-.5l-.3.1c-.3 0-.4.2-.3.3h.4c.3 0 .4 0 .5-.2zM9.3 16l.4-.4.3-.6-.1-.3c-.2-.2-.3-.2-.8.1-.2.2-.4.2-.5.2-.2 0-.2-.1 0-.2l.3-.3v-.2H7.6l-.2.2c-.2.2-.2.2-.1.3 0 .1.1.2.3.2.3 0 .6 0 1 .3.2.2.3.2.3.4 0 .5 0 .6.4.2zm9.5-.1.5-.2 1.1-.3V15c-.2-.2-.2-.2-.5-.2l-.5.1-.4.2h-.3l-.3.2-.2.2c0 .3.2.3.6.2zm4.3 0 .3-.2.4-.2c.4 0 1-.3 1-.4.3-.4.4-.5.6-.2 0 0 0 .2.2.3.1.1.2.1.7-.1.6-.3.7-.4.8-.8 0-.3.1-.7.3-1l-.1-.3c-.4-.7-.4-.8-.8-1-.3-.1-.3-.2-.3-.5.2-.3.1-.5 0-.8l-.4-.6v-.4c-.2 0-1-.6-1-.6-.2 0-.5-.4-.6-.7 0-.2-.1-.2-.2-.3-.3 0-.4 0-.5.3-.2.3-.3.4-.9.2l-.5-.2.2-.4.3-.4v-.3c.2-.1.2-.3.2-.4 0-.3 0-.3-.7-.3-.5 0-.5 0-.7-.2a2 2 0 0 1-.3-.4c-.2-.4-.4-.5-.8-.3l-.6.1-.4.1-.3.7-.2.7-.2.6v1c-.2.4-.2.5.1.8.3.2.3.3.3.4v.4l.6.8.8.4c.3 0 .5.3.5.6 0 .4-.3.5-1 .3-.6-.2-.7-.2-1 .1-.4.4-.5.5-.3.8 0 .3.2.3.7-.1.5-.4.5-.4.7-.2l.2.3h.4l.5-.1v.2c0 .4.1.4.3.4h.9c.4.2.5.4.4.6-.2.2-.2.5 0 .7 0 .1.1.2 0 .4 0 .3.2.3.4.1zm0-3.5-.3-.2a2 2 0 0 1-.5-1l.2-.4.4-.5.3-.3v.7c-.2.1-.3.3-.3.4-.2.3-.1.5.1.6l.3.2c0 .2.2.1.3-.3 0-.4.2-.4.7-.3l.6-.1c0-.3 0-.6-.2-.7h-1.2l.3-.7.2.2c0 .2 0 .2.4.2s.6.1.8.6v.8l-.1.2-.5-.1c-.5-.2-.6-.1-.7.2-.1.4-.3.6-.5.6h-.2zm2.3 3.2H25h.3zm-7.4-.2a3.8 3.8 0 0 0 .8-.4c.4-.1.4-.4 0-.4l-.7.1-.4.3c-.2 0-.5.3-.5.4h.8zm4.2-.3v-.6c0-.1-.6 0-.9.2-.2.2-.1.3.2.4h.7zm-4.6-.4.3-.2c.2 0 .2-.1.3-.6v-.6c-.2-.3-.2-.5 0-.7v-.2h-.7l-.6.2c-.3 0-.5.4-.2.5.2.1.5.3.5.5l-.2.3c-.2.2-.2.3 0 .5v.3h.6zm3.1-.1.1-.3-.1-.4c-.1 0-.1-.1-.4 0-.5 0-1 .2-1 .4l.2.1c.2 0 .4 0 .6.2h.6zm-13.3-.7.4-.1c.1 0 .3 0 .4-.2.3 0 .3-.1.2-.3 0-.5 0-.8.2-1.2l.3-.5c.1-.1.2-.1.4 0h.5l.4.3c.1 0 .3.1.4 0 .2 0 .2-.2 0-.4-.1-.2-.2-.7 0-.8 0-.1 0-.2.2-.2h.3c.3-.3.5-.2.7 0l.2.3.3.4c.2.6.4.8.6.7.2 0 .3-.3.3-.6s.2-.7.4-.8l.2-.2c.1-.4.1-.4.2-.3h.5v-.3c0-.3.1-.4.5-.2s.8 0 .9-.4c0-.4.1-.4.9-.4h.9c0 .1.2.2.3.1v-.2l-.2-.2c-.2-.2-.2-.3.1-.8l.2-.7v-.7c0-.6 0-.8-.4-1h-.4c-.3.2-.7.2-.8 0v-.3c0-.6-.2-.7-.7-.4l-.2.2-.1-.2-.4-.1c-.2 0-.4.2-.6.5 0 .3-.3.5-.5.5s-.3 0-.4-.2a303.3 303.3 0 0 1-1-.8l-.2.1-.4.2a4 4 0 0 0-1.6.6l-.5.2c-.2 0-.3.1-.3.3-.2.2-.4.3-.8.2-.4-.2-.5-.2-.7-.1L8 6c0 .2-.1.3-.4.4l-.3.1-.3.2c-.3.1-.4.1-.5.3-.2.2-.2.2 0 .4l.3.4c.4.4.4.5.2.8-.3.5-.5.5-.8.3-.5-.3-.7-.3-1 .2-.2.3-.2.3-.4.3-.3 0-.4.1-.4.6v.6l-.1.4c0 .4 0 1.3-.2 1.5-.1.3-.1.4.1.6.3.3.4.3 1 .2h.5l.2.2c.2.2.2.3.4.3h.5c.3.2.5.2.6 0zm1.4-5.4c-.5-.2-.6-.4-.4-.7h.2l.2-.2v-.3c0-.2 0-.2.2-.3h.4c.3 0 .3 0 .5.2.2.3.2.6.2.9 0 .2-.1.2-.3.3-.3.2-.4.2-1 0Zm1-.4v-.6h-.3l-.8.6c0 .1 1 .2 1 0zm3.6-.3h-.2a.8.8 0 0 1-.5-.7v-.5c-.2-.2-.1-.3.3-.6.3-.2.4-.2.6 0 .2.2.3.5.3.9v.4l-.2.4c-.2.2-.3.2-.3.1zm.1-.4c.1-.1.2-.8 0-1 0-.2-.2-.2-.4 0v1h.4zm-3.7 6.2c.2-.1.2-.4 0-.5l-1-.4c-.3 0 0 .6.5 1l.5-.1zm1.3-.4.3-.6-.3-.2h-.8l-.3.1-.2-.2c0-.2-.1-.3-.2-.3-.4-.2-.7.2-.4.4l1 .6.4.3h.5zm1.8-.5.4-.3c.2-.1.2-.1.4 0l.4.1.2.2.3.1c0 .1.3.1.6-.1.3-.3.3-.4.1-.6-.2-.2-.5-.3-1-.4H14c-.2-.1-.3 0-.6.2-.5.4-.7.4-.9.1l-.2-.1-.2.4c0 .2.3.6.4.6l.4-.2zm4-.6.5-.8c.2-.6.2-.8 0-1.5 0-.2-.2-.2-.3 0l-.6.7-.4 1.2c0 .5 0 .9.2.9l.5-.5zm3.7.3c.2-.1-.1-.5-.3-.4-.2 0-.2.3-.1.4h.4zm-1.4-.3c0-.1-.2-.2-.3 0-.1 0 0 .1.1 0h.2zm-7.8-.2v-.2l-.2-.2v-.1c-.2 0-.2.4-.1.5 0 .2.1.2.3.2v-.2zm6.7 0 1-.3c.2-.1.2-.3 0-.4l-.3-.1c-.3-.2-.4-.1-.8.3-.3.2-.4.5-.4.5l-.1.2.6-.1zm-2.2-.2v-1.2l-.6-.4a66.6 66.6 0 0 1 0 1c0 .4.2.9.4.9.1 0 .3-.1.2-.3zm-4-.3-.2-.4c-.2-.2-.4-.2-.4 0l.3.6c.2.1.3 0 .3-.2zm2.5-.2-.1-.3c-.2-.2-.4-.2-.6 0l.1.3h.6zm3.5-.5v.1-.1zm-3 0-.3-.3v.2l.1.2h.2zm3.7-.5s-.2-.1-.2 0v.1-.1l.2-.2zm-2.2 0 .2-.2v-.4l-.2-.2h-.1v.3l-.1.4v.2c0 .1.1 0 .2 0zm1.7-.3c0-.4 0-.7-.3-.5-.1.2 0 .8.1.7l.2-.2zm-1-.5V9h-.3c-.3 0-.2.4.1.4h.2zM23 8c.2 0 .2-.2 0-.4-.2-.1-.2-.1-.4 0-.2.3-.2.3 0 .4h.5z" style="fill:#000;fill-opacity:.5;stroke-width:.326561"/><path d="M29.4 48.4c-.2 0-.4-.2-.5-.4a1 1 0 0 0-.9-.5c-.4-.1-.6-.3-.6-.8l-.2-.7c-.3-.2-.5-.2-.8.2l-.5.2-.4.1h-1c-.3-.2-.5-.5-.5-.7 0-.2-.3-.3-.5-.3-.3 0-.7-.1-1.2-.6a3 3 0 0 0-.8-.5l-.5-.2v-1.5a6 6 0 0 1-.3-.5l-.2-.3c-.2-.2-.2-.2-.6-.2-.4 0-.5-.1-.5-.2L19 41l-.4-1.3c0-.2 0-.3.2-.5s.2-.3.2-.7l.1-.5v-.3c0-.2 0-.3-.4-.3-.3 0-.3 0-.5-.2l-.1-.3s0-.2-.2-.3c-.2-.2-.2-.3-.2-1 0-.8.1-.9.6-1 .4 0 .8-.2.8-.4l.2-.2-.5-.4c-.4 0-.5-.2-.5-.5 0-.1 0-.3-.2-.5-.1-.3-.2-.8 0-1 0-.2.3-.2 1 0h.4l.2-.2.3-.3c.2 0 .3-.4.2-.6 0-.2-.2-.3-.5-.3s-.7-.2-1-.6c-.5-.4-.5-.7-.2-1 .3-.3.3-.5.2-.8v-1.1l-.1-.4.4-1.2.7-.4.6-.4c.5-.5.7-.6 1.1-.2l.4.2c.4-.1.5-.6.2-.9l-.3-.1c-.2 0-.5-.4-.5-.7 0-.3.4-1 .6-1.1.2-.2.2-.2.3 0l.4-.1c0-.2.3-.6.5-.6l.6-.4h.6l.5.1h.4l.1-.2c.2-.3.2-.3.7-.5a7.3 7.3 0 0 0 1.1-.4l.4-.2.4-.1.4-.1.8-.2h.7l.2.2.6.7.1.2.2-.1.4-.6.4-.4.4-.1.9-.1h.7c.2.1.5.5.5.8v.2h1.1c.2 0 .5.5.6.8.1.3.3.5.4.4v-.6l.6-.2c.3 0 .3 0 .8.3.1 0 .5 0 .9-.2.3-.2.4 0 .9.5.5.6.6.6 1.4.7.7 0 1 .4.7.9l-.1.3c0 .2 0 .2.5.2.7.1 1 .4 1.2 1 .2.4.2.4.5.4.2 0 .3.1.8.5.6.6.5.6.7 1l.2.4.3.6.2.8.2.5c.2 0 .3.3.3.3l.4.6c.3.4.3.4.3.7l-.2.5c-.1.3-.1.7 0 .8 0 .1 0 .3-.3.7l-.3.4.3.5.6 1.3v.7l.1.9.4 1.3c0 .2 0 .3-.2.5-.3.2-.3.2-.2.5 0 .3 0 .3-.3.6-.2.1-.3.3-.3.4v.4c.2.3.2.3 0 .4a1 1 0 0 1-.5.3c-.3 0-.4 0-.7.5l-.4.4h-1.4v.3c.2.1.2.4.3.7v.8l.1.4-.8.5c-.4.1-1 .4-1 .6l-.3.4c0 .3-.3.5-.6.5-.2 0-.4.1-.7.6-.3.4-.4.5-.8.4l-.3-.1-.3.3c-.4.3-.4.4-.7.3l-.5.1c-.4.2-.5.2-.8 0h-.4l-.3-.2a5 5 0 0 0-.4-.1c-.2 0-.3-.2-.3-.2l-.1-.3-.8-.1c-.6 0-.7 0-1 .2-.4.2-.4.2-.4.4 0 .1 0 .3.2.5.2.3.2 1 0 1.3-.3.2-1 .3-2.5.2h-.7l-.3.2-.4.3-.4-.2zm.7-.6c.2-.2.3-.2.5-.2h.6l1.1.2c.8 0 .8 0 1-.2v-.5l-.1-.7c-.2-.4-.2-.8 0-.9l.1-.5c0-.6-.1-.8-.8-.5-.4.2-.5.2-1 0l-.5-.3-.5-.5h.5c.5 0 .5-.1.6-.3.2-.3.1-.5-.4-1a2 2 0 0 1-.5-.6 134.8 134.8 0 0 0-.4-.7c-.2 0-.2-.1-.2-.3v-1.3c-.3 0-.3 0-.5.2l-.5 1.5c0 .3 0 .4-.2.4l-.7-.4-.3-.1a1 1 0 0 1-.4-.2l-.3-.1c-.3-.2-.3-.4 0-.6.3 0 .8-.4.8-.6l.1-.3c.2-.2.2-.2.9-.2.6 0 .6 0 1-.2l.5-.3c.2 0 .2-.1.3-.3 0-.2 0-.2-.2-.3-.3 0-.8 0-1 .2h-1.1l-.1-.3c0-.2.3-.4.6-.4s.5-.1.6-.3c.1-.3-.1-.6-.5-.5-.2 0-.2 0-.3-.3-.1-.3-.3-.4-.8-.4h-.9c-.7.3-1 .1-.5-.3.3-.3.3-.5 0-.8l-.4-.3-.5-.4-.8-.7c-.6-.3-.7-.3-.7-.6l.1-.2c.1 0-.2-.4-.6-.6L23 32c-.6 0-.7-.2-.7-.7 0-.3 0-.3-.3-.5l-.6-.2h-.5l-.1.3a2 2 0 0 1-.9 1l-.7.1h-.6c-.1.1 0 .4.1.5.2.2.2.2.1.5l.1.4h.6c.2 0 .2.1.2.4l-.1.4-.1.3-.3.4c-.1.2-.2.2-.4.2-.3 0-.4 0-.4.2l-.2.5c0 .4 0 .4.3.6l.2.4c0 .2.3.5.4.5.2 0 .8.5 1 .8.1.3.1.5-.2.5-.2 0-.3.2-.4.5l-.1.4c-.3.3-.2 1 .3 1.5.2.3.4.4.7.5.3 0 .6.2.7.6l.4.7.2.7c-.1.6-.1.6.3.8l.7.5c.4.3.6.4 1 .4.5 0 .5 0 1.3.8.2.2.2.2.5.2.4 0 .7-.3 1-.7.3-.4.5-.5.6-.1l.3.3c.4 0 .4.1.4.6s.1.7.7 1c.3 0 .5.3.7.5.4.4.6.4 1 .1zm-6.6-8.6-.4-.5-.4-.4c-.2-.1-.2-.3 0-.7.3-.2.3-.3.3-.5 0-.6.2-.7.8-.5l.5.1.2.5c.3.7.3 1-.1 1.4-.1.1-.3.3-.3.5 0 .3-.1.3-.3.3 0 0-.2 0-.3-.2zm.5-.8c.3-.3.4-.5.3-.6l-.3-.5c0-.3-.1-.3-.3-.3-.1 0-.2 0-.5.6l-.2.3.2.3c0 .3.2.4.4.4l.4-.2zm13.8 7.7.2-.3c.1-.3.4-.3.5 0 .2.1.4 0 .5-.2l.6-.6.2.2.3.1c.1 0 .3-.3.3-.5s.2-.4.6-.4c.3 0 .6-.1.6-.3 0-.3.4-.6 1.2-1 .7-.4.8-.4.8-.6l-.1-.5-.1-.5c0-.3 0-.3-.4-.6-.5-.3-.5-.4-.3-.7.3-.6.6-.6.9-.2.2.2.2.2.6.2.4 0 .4 0 .8-.4l.7-.4.4-.2c.1-.2.1-.2 0-.4-.3-.3-.2-.3.2-.6s.4-.5.2-.9c-.1-.2-.1-.3.3-.5.3-.3.3-.3.2-.5l-.2-.3c-.2-.2-.2-.2-.2-.5v-.3c-.2-.2-.2-.4 0-.6l-.1-1.3-.6-.9c-.2 0-.3 0-.8.4h-.5c-.4 0-.6.1-.7.3v.2c.1.1 0 .2 0 .4l-.3.3.3.4c.2.4.3.6 0 .8 0 .1-.2.2-.8.2h-1l-.5-.5c0-.2-.1-.2-.3-.2l-.3.1c-.1.2-.5.1-.9-.2-.5-.5-1.4-1-1.5-1v.4c0 .4 0 .4-.4.4-.3 0-.4 0-.5.2-.3.3-.3.4-.5.3-.4 0-.8-.2-1-.4-.3-.2-.4 0-.4.3l-.2.6c-.4.3-.4.6-.2.7.1.2.1.4-.1.7l-.4.8c0 .3 0 .4-.4.5-.3 0-.5.2-.6.6-.2.3-.1.5.2.8.3.3.4.3.3.5l-.1.3c-.2.1-.1.2.2.6.2.4.2.6 0 .8l-.3.2H34c-.7-.3-1-.3-1.2 0-.1.5 0 .9.3 1.3l.4.5.4.5c.2 0 .4.3.4.5l.1.2c.2.1.2.2.9.1h.8l.1.3v.3l.9.5h.8zM36.4 42v-.6c0-.3 0-.4-.2-.5-.2-.2-.3-.5-.2-.6v-.4l.4-.9c.3-.7.4-.8 1-.4.6.5.7.5 1.2.3.7-.3 1.2-.3 1.7-.1l.5.2.4.3.2.3-.3.1c-.3 0-.6.4-.6.7v.3l-.7.4a3 3 0 0 0-1 .7c-.3.3-.5.4-.6.2h-1c-.3.2-.6.1-.8 0zm.9-.6c.1-.3.3-1.3.2-1.5 0-.3-.4-1-.5-1-.2 0-.3.4-.4 1 0 .8 0 1.6.2 1.7.2.1.3 0 .5-.2zm1 .1-.2-.3c-.2-.3-.2-.3-.3-.2v.6h.4zm.6-.4.2-.1-.6-.3c-.2 0-.1.3 0 .4.2.2.2.2.4 0zm1.1-.6c.3-.1.3-.4.1-.6a41.5 41.5 0 0 1-2.2-.2c0 .2.4.4.7.5l.3.2.8.3s.2 0 .3-.2zm0-1.2c.2 0 0-.4-.3-.4s-.6.4-.3.4h.7zm2.4-1-.3-.3c-.5-.6-.6-.6-.9-.6-.5.1-.5 0-.2-.6.3-.4.5-.5 1.2-.5.6 0 .7 0 1 .3l.2.2v.4c-.1.5-.4 1-.6 1h-.4zm.4-.7.1-.4-.2-.4c-.3-.2-.8-.2-1-.1-.2 0 0 .3.3.7.4.4.6.5.8.2zm-5-1.2c-.3-.2-.2-.4.1-.7.3-.2.5-.2.7 0 .3.3.2.4 0 .7-.4.3-.7.3-.9 0zm6.6-.4c-.1-.2 0-.8.3-1 .1-.2.2-.2.3-.2.2 0 .6.8.5 1l-.3.1c-.4.2-.7.2-.8 0zm-11.7 8c.2-.3.1-.5-.1-.8-.3-.2-.4-.2-.4 0l-.3.5c-.3.4-.2.5.3.4.3 0 .4 0 .5-.2zm-.5-1.6v-.3l.1-.6v-.4l-.3.4-.3.7.3.3h.2zm2-1L34 41a4 4 0 0 0-1-.7c-.1 0-.2 0-.2.4s0 .5.6.6c.6.2.6.2.7 0zm-2.3-.4.1-.2c.2-.2.4-1 .4-1.5 0-.3 0-.4-.2-.6l-.2-.1-.2.2c-.2.3-.3.5-.3 1.5v1c.2 0 .4-.1.4-.3zm-3.1-.1.2-.5-.1-.6c-.2-.4-.4-.4-.6 0l-.4.4c-.2.2-.3.5 0 .6l.8.2.1-.1zm2.3-.3v-1.7h-.6l.1.5v1.2c0 .3.4.2.5 0zM34 40l-.2-.5-.3-.4V38c0-.5 0-.6-.3-1-.2-.5-.2-.5-.4-.4v2.3c0 .7.1.9.6 1.2.3.3.4.3.6 0zm-1.7-2.3s0-.3-.2-.4c-.2-.3-.3-.3-.3-.2v1.2c0 .1.5-.3.5-.6zm-.8-.2c0-.3-.2-.4-.4-.3-.2.1-.2.3 0 .6.2.2.2.2.3 0v-.3zm3 0v-.2c0-.3-.6-1.3-1-1.6-.2-.2-.3-.2-.4-.1l.1.5.2.4.7 1c.3.1.3.1.4 0zm-3.3-.8c.2-.2.3-.5.1-.6 0 0-.6.6-.5.7 0 .1.3 0 .4 0zm-.8 0c.2-.2.2-.5 0-.6-.3-.2-.6 0-.6.2s.3.5.4.5l.2-.1zm2-.3c.2-.3 0-.8-.4-.6-.1.1-.2.4 0 .6l.2.1.1-.1zm2.2-.7c-.6-1-1-1.4-1-1-.2.2 0 .5.4 1 .4.4.6.5.7.4v-.4zm-5.1 0c0-.2-.3-.4-.7-.5-.5 0-.7 0-.7.2l.6.3h.4c.2.3.3.3.4 0zm1.5 0c.2-.2.2-.4 0-.5-.2 0-.3-.4-.1-.6.3-.6.9-.7 1.3-.2.1.1.2.2.1.5v.4c.1 0 .5 0 .7-.2.2-.2.2-.7 0-1a.8.8 0 0 1-.2-.6l.2-1.6c.2-.3.5-.5.7-.5.3 0 .4-.2.2-.5s-.2-.3 0-.6v-.6h-.4c-.2 0-.3 0-.4-.2l-.3-.3-.1-.2-.5.3-.5.4-.3-.3-.3-.3h-.7c-.5 0-.5 0-.8.3l-.4.3-.5-.3-.5-.3-.4.5c-.2.3-.4.4-1 .4-.3 0-.4 0-.5.2v.3l.2.3c.2.1.3.4.2.6v.4c0 .3 0 .3.2.4.4.2.9.8 1 1.2 0 .4 0 .4.4.4l.4.2v.5c0 .4 0 .5.4.5l.8.4.8.4c.1 0 .2 0 .3-.2zm-1-1.1c0-.1.1-.2.2-.1v.1H30zm-.8-1.3c-.3-.2-.3-.6 0-.9h.3c.2.1.4.4.4.6 0 .3-.4.4-.7.3zm2.1-.3s0-.2.2-.2c.1 0 .2 0 .1.2h-.3zm-.2-.9-.6-.4c-.6-.4-.6-.5-.1-.9.4-.4.6-.4.9 0 .1.2.2.9.1 1.2 0 .2 0 .2-.3.1zm0-1h-.4c-.2 0-.1.2.1.3l.2.2v-.2c.1-.1.1-.2 0-.2zm4.2 3.7c0-.4-.1-.8-.4-1.3l-.2-.4c-.3-.5-.5-.7-.9-.7-.3 0-.4 0-.5.2l-.2.4a9.4 9.4 0 0 0 1.4 1.9l.2.2c.2.3.2.3.4.2.2-.1.2-.1.2-.5zm-7.3 0c.3-.3.3-.5 0-.6-.2 0-.3-.2-.4-.3l-.3-.3c-.6 0-1 0-1.1.3 0 .1.4.5.6.5.2 0 .5.3.5.6v.3c.2 0 .4-.1.7-.4zm4 .2c0-.2 0-.2-.3-.4l-.2-.1-.1.1-.2.2.1.3.4.2c.2 0 .2 0 .2-.3zm11.1-.2h.3c.4.2.3-.2 0-.6-.3-.2-.3-.2 0-.7.2-.6.1-1-.3-1l-1.7.6c0 .1-.5.2-.7.1v-.4c-.1-.4-.2-.5-.7-.6h-.5c-.2.2 0 .4.5.9.4.3.5.5.3.8l.2.4c.2 0 .3 0 .5-.2l.3-.2.3.2.4.4.4.5c.3 0 .5 0 .7-.2zm-6.4-.7a2 2 0 0 0-.5-.9 2 2 0 0 0-.6-.3H35c-.1.2-.1.2.1.6.2.2.6.5 1 .6h.5zm1.2 0c.2-.2.3-.4.2-.5l-.5-.2c-.4-.1-.8-.1-.8 0l.4.7h.7zm-11-1c.2 0 0-.5-.2-.4l-.3-.1c-.2-.2-.4-.2-.7 0-.2.3-.2.5 0 .7l1.2-.1zm11.5-.3.2-.2h-1c-.4.2-.6.2-.4.4h.5c.3 0 .5 0 .6-.2zm-13.1-.1.4-.4.4-.7s0-.2-.2-.3c-.2-.3-.3-.3-1 0-.2.3-.4.3-.5.3-.2 0-.3-.2 0-.3l.4-.2v-.3H23l-.2.2c-.3.2-.3.2-.1.4 0 .1.1.2.3.2.4 0 .8 0 1.2.3.3.3.3.3.3.6 0 .6.2.6.6.2zm11.2 0 .6-.2c.4 0 1.3-.4 1.3-.5l-.1-.2c-.1-.1-.2-.2-.5-.2-.2 0-.5 0-.7.2l-.3.1-.4.1-.4.2c-.1 0-.2.1-.2.3 0 .2.2.3.7.1zm5.1-.1.3-.2h.1l.4-.2a3 3 0 0 0 1.2-.5c.3-.5.5-.5.6-.2l.3.3c.2.2.3.2 1-.1.6-.3.7-.5.7-.9l.4-1.1v-.5c-.5-.8-.6-.9-1-1-.3-.3-.4-.4-.3-.7.1-.4 0-.7-.2-1a2 2 0 0 1-.3-.6l-.2-.5c0-.2-1-.8-1-.8-.2 0-.7-.5-.7-.8l-.3-.3c-.3 0-.5 0-.6.3-.2.4-.3.4-1 .3l-.6-.3.2-.5.3-.4.2-.4.1-.5c0-.3 0-.4-.8-.4-.6 0-.6 0-.8-.2l-.3-.4c-.3-.5-.6-.7-1-.4l-.7.1c-.4 0-.5 0-.5.2l-.4.8a2 2 0 0 0-.2.8l-.2.8c-.1.1-.1.2 0 .4v.7c-.3.5-.2.6.1 1 .3.2.3.3.3.5v.4l.7 1 1 .4c.3 0 .6.4.6.7 0 .5-.3.6-1.2.3-.7-.2-.8-.2-1.3.2-.4.4-.5.5-.3 1 .1.3.3.2 1-.2.5-.5.5-.5.7-.2l.3.3h1v.1c.1.5.1.5.3.6l.5-.1h.6c.5.3.6.5.4.7-.1.3 0 .6 0 .8.2.2.2.3.2.5 0 .4.1.4.4.2zm0-4-.1-.2-.3-.2c-.2-.1-.6-.9-.6-1.1 0-.1 0-.3.3-.4l.5-.7c.1-.3.2-.3.3-.3.1.1 0 .4-.1.8l-.3.5c-.2.4 0 .6.2.7l.3.3c0 .2.2.1.3-.4.2-.4.3-.5.9-.4l.7-.1c0-.3 0-.6-.2-.8h-1.2l-.2-.1.3-.7.2.2c.1.2.1.2.5.2.5 0 .8.2 1 .7l-.1 1-.1.2-.6-.1c-.6-.2-.7-.2-.8.2-.1.5-.3.7-.5.7h-.3zm2.7 3.7H44h.3zm-8.8-.3a4.5 4.5 0 0 0 1-.4c.4-.2.4-.5 0-.5-.3 0-.5 0-.8.2l-.5.3c-.2 0-.6.4-.6.4l.3.2c.1 0 .4 0 .6-.2zm5-.3c.1-.1.2-.6 0-.7 0-.1-.7 0-1 .2-.3.2-.2.4.1.5.5.2.7.2.9 0zm-5.4-.5.3-.1c.2-.1.3-.3.3-.8v-.7c-.1-.4-.1-.6 0-.8l.1-.2c0-.2-.3-.2-.8 0l-.7.2c-.5 0-.7.5-.3.6.3.1.5.3.5.5l-.1.4c-.2.2-.2.3-.1.6l.2.3c0 .2.4.2.6 0zm3.7 0c0-.2.1-.2 0-.4v-.5H38c-.5 0-1.2.3-1.1.4 0 .1 0 .2.3.2l.6.2c.4.1.6.1.8 0zM23 30.4c.2-.2.2-.2.5-.2l.5-.2c.3-.2.3-.2.2-.4 0-.6 0-1 .2-1.4l.4-.6c.1-.1.2-.1.4 0h.7l.4.3c.2.1.4.2.6 0v-.5c-.2-.2-.3-.7-.2-1h.3l.4-.2c.3-.2.6-.2.8.1 0 .2.2.3.3.3l.3.6c.3.6.5.8.7.8.2 0 .4-.4.3-.7 0-.4.3-.9.5-1 .2 0 .3-.2.3-.3.1-.4.1-.4.2-.3h.6v-.4c0-.4.2-.4.6-.2.5.2.9 0 1-.5.2-.4.2-.4 1-.5l1.1.1.4.1c.1 0 .1 0 0-.2l-.2-.3c-.2-.2-.2-.3.1-1 .3-.4.3-.5.3-.7v-.9c0-.7-.1-1-.5-1-.2-.2-.3-.2-.5-.1h-.9v-.5c0-.7-.3-.8-.8-.4l-.3.2-.2-.2c-.1-.2-.1-.2-.4-.1-.3 0-.5.2-.7.6-.1.3-.4.5-.6.5-.2 0-.3 0-.5-.2a358.2 358.2 0 0 1-1-1l-.4.2-.5.2c-.8.1-1.4.4-1.9.7a2 2 0 0 1-.5.3c-.2 0-.3.1-.4.3-.2.3-.4.4-.9.2-.6-.2-.6-.2-.8-.1-.1 0-.2.1-.2.3 0 .2-.1.3-.4.4l-.4.2a1 1 0 0 1-.3.2c-.5.1-.6.2-.7.4-.2.2-.2.2 0 .4l.4.5c.4.4.5.6.3 1-.4.5-.7.6-1 .3-.6-.4-.8-.4-1.2.3-.2.3-.3.4-.5.4-.4 0-.4 0-.4.6l-.1.7v.5c0 .4 0 1.5-.3 1.8-.1.3-.1.5.2.7.3.3.4.3 1 .2h.7l.2.3c.2.2.3.3.6.3l.5.1c.4.2.6.2.7 0zm1.7-6.5c-.6-.2-.8-.4-.5-.8l.2-.1.3-.1c0-.1.1-.2 0-.4 0-.2 0-.3.2-.3l.5-.1c.3 0 .4 0 .5.3.3.3.3.7.2 1 0 .3 0 .3-.3.5h-1zm1.1-.5v-.7h-.3l-.9.7c0 .2 1 .2 1.2 0zm4.3-.3h-.3c-.3-.2-.5-.4-.5-.8l-.1-.6c-.1-.3 0-.4.4-.7.4-.2.5-.2.8 0 .2.2.3.6.2 1v.5c0 .2 0 .3-.2.5s-.3.2-.3.1zm.2-.5v-1.1c0-.3-.4-.3-.5-.2-.2.2-.2.2-.1.7l.1.7.5-.1zM25.8 30c.2-.2.2-.5-.1-.6-.5-.3-1-.6-1.2-.5-.3 0 .1.7.7 1 .2.2.4.2.6 0zm1.5-.5c.2-.2.3-.6.3-.8l-.3-.1h-1l-.3.1c-.1 0-.2 0-.2-.3l-.3-.4c-.4-.1-.8.3-.4.6l1 .7c.2 0 .5.2.5.3.2.1.5 0 .7-.1zm2-.6c.3 0 .5-.2.6-.3.2-.2.2-.2.5-.1l.4.2.3.2.3.1c.1.2.4.1.7-.1.4-.3.4-.5.2-.7a2 2 0 0 0-1.1-.5h-.5c-.2-.1-.4 0-.7.3-.5.4-.8.4-1 0l-.3-.1c-.2 0-.3.3-.2.5 0 .3.3.7.5.7l.4-.2zm4.8-.7c.4-.5.6-.6.6-1 .3-.7.3-1 0-1.8 0-.2-.2-.2-.3 0l-.7.9c-.2.2-.4.8-.5 1.4 0 .6 0 1 .2 1l.7-.5zm4.4.3c.2-.1-.1-.5-.4-.4-.1 0-.2.3 0 .4h.4zm-1.6-.3c0-.2-.3-.2-.4-.1-.1 0 0 .2.2.2l.2-.1zm-9.2-.2-.2-.4-.1-.2h-.1v.6c0 .1.1.2.3.2V28zm7.9 0 1.2-.4c.1-.2.1-.4 0-.4l-.4-.2c-.3-.2-.5-.2-1 .4-.3.2-.5.5-.5.6v.1l.7-.1zm-2.6-.3V27l-.2-.8c0-.2-.5-.4-.6-.4l-.1.4v.7c.1.6.4 1.1.6 1.1.2 0 .3-.1.3-.3zm-4.8-.3c0-.2 0-.3-.2-.5-.2-.3-.5-.3-.5 0 0 0 .2.6.4.7.2.1.3 0 .3-.2zm3-.2-.1-.4c-.2-.2-.5-.3-.7-.1-.2.1-.1.4 0 .4h.7zm4.2-.7v.1zm-3.6 0-.3-.4-.1.3c0 .2 0 .2.2.2h.2zm4.3-.6s-.2-.1-.2 0v.4l.1-.2.1-.2zm-2.5 0 .1-.2c.2-.1.1-.3 0-.5l-.2-.2h-.1s-.1 0 0 .4l-.1.4v.2c0 .2.2.1.3 0zm1.9-.4c.1-.3 0-.7-.3-.5-.2.2 0 .9.1.8 0 0 .2-.1.2-.3zm-1.1-.6-.1-.4H34c-.3 0-.2.5.1.5h.3zm7.2-1.3c.1-.1 0-.3-.1-.5-.2-.2-.3-.2-.5 0-.2.3-.2.3 0 .5h.6z" style="fill:#000;fill-opacity:.5;stroke-width:.386029"/><path d="M31.5 15.6v-.3c0-.2-.2-.4-.3-.5-.1-.2-.2-.3 0-.5v-.4c0-.2 0-.2-.3-.2h-.5l-.4-.4a.3.3 0 0 1 0-.4c0-.1 0-.2-.2-.3l-.3-.6-.2-.4-.2-.3.1-.2c.2 0 .3-.2.3-.5v-.4l-.1-.3-.2-.2v-.3c0-.3 0-.6.2-.7 0-.1 0-.2.2-.2s.2 0 .3-.2l.2-.2.1-.1-.1-.3-.2-.2v-.2s.1 0 0-.2l.3-.4c.2-.4.3-.4.5-.3h.6v-.3c-.2-.1-.2-.2-.1-.4v-.2c0-.2.2-.5.3-.5l.4.2.2.2h.4l.3-.3-.2-.2-.3-.6c0-.3 0-.4.3-.5.2 0 .3 0 .3-.3l.1-.2.2-.2v-.3l.6-.3h.8c.4 0 .5 0 .6.2V3c.3 0 .4 0 .4-.3v-.2c-.2 0-.2-.3-.1-.4l.6-.3h.1c0 .2.1.2.2.2l.4-.2h.4l.2.2.2.2.2.2.1-.1h.4a3.8 3.8 0 0 0 .7.1h.2l.2.1h.2l.4.2.3.2v.7h.2l.3-.1.3-.1h.2l.4.3c.2 0 .3.2.3.2v.5l.2.2.2.2v.5l.1.3.1-.1.1-.2h.3l.3.5.4.1c.2 0 .2.2.3.5 0 .4 0 .5.4.8.3.2.3.4 0 .5l-.1.1.1.3c.3.2.4.4.3.8v.3c.1 0 .2.1.2.4V11l-.1.3v.8l-.1.4-.3.2-.2.3s0 .2-.3.2l-.3.1v.3l-.1.8-.2.3c-.1 0-.2.1-.2.4l-.2.7-.3.1c-.1 0-.2 0-.2.2l-.3.1-.3.1v.2c0 .2 0 .2-.2.2h-.3c-.1-.1-.2-.1-.4 0h-.3l-.3-.2-.3-.2s-.1 0 0 .2l-.2.4-.2.3v.2h-1.4c-.2.2-.3.2-.4 0-.1 0-.3 0-.5.2l-.5-.1v-.2l-.3.1H36c0-.1-.1-.2-.3-.2-.2 0-.2 0-.3-.2l-.1-.1-.1-.2-.2-.2v-.3l-.3-.3-.5-.2H34v.3c0 .2-.3.6-.5.6-.1 0-.5-.1-1-.6l-.4-.2h-.5v-.2zm.5 0h.3l.2.2.5.4.4.2.2-.2.1-.4c0-.2.2-.4.3-.4l.2-.1c.2-.3.2-.4-.2-.5-.2 0-.3 0-.4-.3l-.1-.3-.1-.3h.2l.4.2v-1a71.7 71.7 0 0 0 .4-1.2H34l-.6.5c-.1.1-.1.1-.2 0l-.2-.3V12l-.2-.2v-.2c-.2-.1-.1-.2 0-.2h.6l.1-.1.4.1.5.2h.7v-.2l-.5-.2h-.3l-.2-.3v-.2h.4c.2.1.3.2.4 0l-.1-.3v-.2l-.2-.4a1 1 0 0 0-.5-.2c-.4-.1-.4-.3 0-.3.1-.1.2-.2.1-.4v-.2l-.1-.4-.2-.5c-.2-.3-.2-.3-.1-.4l.1-.1v-.4a1 1 0 0 0-.4-.4c-.2-.2-.2-.2-.1-.5v-.3l-.2-.2-.2-.2-.1.1a1 1 0 0 1-.7.2c-.1 0-.2 0-.3-.2l-.3-.1-.1.2v.3c-.2 0-.2 0-.1.1V6l.2.1v.3l-.2.1-.2.1-.2.1h-.5l-.2.1v.9l.2.6c0 .2-.1.3-.2.2l-.4.1-.2.1c-.2 0-.3.4-.3.8 0 .2.1.3.3.4v1.3c-.3.2-.3.2-.2.4l.2.4c0 .3.1.4.3.5.2.1.2.1.3.7l.1.2h.7c.3 0 .4 0 .3.2v.2c.2 0 .2.1 0 .3v.7c.2.1.2.3.2.4 0 .3.1.4.4.3zm-.4-5.7v-.6c-.1-.2 0-.3.2-.3.1 0 .2 0 .2-.2.2-.2.3-.2.6 0l.1.2v.3c-.1.4-.2.5-.5.6l-.3.1c0 .1 0 .1-.2 0zm.5-.2c.2 0 .3-.1.3-.2V9H32l-.2.2v.5h.3zm3.8 7.3h.4c0 .2 0 .2.2.2l.4-.1.1.1v.2c.1 0 .3 0 .3-.2h.4c.2.1.3.2.4 0h1.3v-.3l.2-.3v-.3c-.1-.3 0-.3.1-.4.3-.1.4-.1.4.2l.2.3h1.2v-.1c0-.2 0-.2.3-.2s.4-.1.4-.3c0-.2 0-.2.3-.2l.2-.1V15l.1-.2s0-.2.2-.2l.4-.6v-.6h-.5l-.3-.1c0-.1-.2-.2-.3-.1v.1l-.2.1h-.2v.3c0 .3 0 .4-.2.4l-.4-.2-.5-.3v-.3l-.1-.2h-.2s-.2-.1-.3-.4c0-.3-.3-.8-.4-.8v.1c-.2.2-.2.2-.4 0h-.6l-.3-.4c0-.2-.1-.2-.2 0l-.3.1c-.2 0-.3.2-.3.3 0 .1 0 .2-.2.3-.3 0-.4.1-.4.2-.1.1-.2.2-.3 0-.2 0-.3 0-.5.2-.2 0-.2.2-.1.4v.3H36c0 .1-.1.2 0 .4 0 .2-.2.3-.3.4h-.2V14c-.3-.3-.5-.4-.6-.2-.2.1-.3.3-.3.6v.6c.1.1.1.3 0 .4v.1l.4.3.4.3-.1.3.2.4.4.2zm.6-2.2v-.2c.2-.1.2-.2.2-.3V14c.1 0 .2 0 .2-.2l.4-.3c.4-.2.4-.2.5.2.2.4.2.4.5.4.4.1.6.3.8.5l.1.2v.3c.1.1.1.2 0 .2h-.5l-.1.1h-1c-.3.1-.4.1-.4 0l-.4-.3c-.2 0-.3-.1-.3-.3zm.5 0 .5-.5v-.6l-.4.3-.4.8h.3zm.4.4v-.4c-.2.1-.2.2-.2.3 0 0 .1.1.2 0zm.4 0h.1l-.2-.3s-.1 0 0 .2v.1zm.6 0c.2 0 .3 0 .3-.2l-.4-.3a21.7 21.7 0 0 1-.5-.4l.1.4.1.2.2.3h.2zm.4-.4c.1 0 0-.3 0-.4-.2 0-.4 0-.3.2l.3.2zm1.4.2-.1-.2c0-.4 0-.5-.2-.5-.3-.1-.2-.2 0-.4.3 0 .4 0 .7.2.3.2.3.2.3.4v.3c-.2.2-.5.4-.6.3l-.1-.1zm.3-.2.1-.1v-.3l-.3-.3c-.1 0-.1.1 0 .4 0 .3 0 .4.2.3zm-1.9-2c0-.2.1-.2.3-.2.2 0 .3 0 .3.2s0 .2-.2.2-.4 0-.4-.2zm3 1.8.5-.4h.2v.6H42c-.2 0-.3-.1-.3-.2zm-7.3 0c.1 0 .2-.2.1-.3 0-.2 0-.2-.2-.1H34c-.2.2-.2.2 0 .4h.3zm.2-.8.1-.1.2-.2.1-.2h-.2l-.3.3v.2zm1.1.1c.1 0 .1 0 0-.2a2 2 0 0 0-.2-.6l-.2.1c-.1.2 0 .3.1.5l.3.2zm-.8-.8c.2 0 .5-.4.7-.6v-.4h-.1c-.2 0-.3.2-.6.6-.3.3-.3.3-.2.4h.2zm-1.3-1 .2-.1.1-.3c0-.2 0-.3-.2-.2l-.3.1c-.2 0-.3.1-.2.2 0 .2.2.4.3.4zm1 .6c.2 0 .5-.7.5-.7l-.2-.2-.1.3-.4.4c0 .2.1.3.3.2zm1.4.6v-.6l.1-.1.3-.4.2-.5v-.3c-.2 0-.5.5-.7 1-.2.3-.2.4-.1.7 0 .2 0 .2.2.2zm0-1.5v-.3c0-.2 0-.2-.1-.1 0 0-.4.4-.3.5l.4-.1zm-.3-.4-.1-.2c-.1 0-.2 0-.2.2l.1.2.2-.2zm1.2 1 .1-.1V11l-.2.2v1l.1.1zM35.7 11c.1 0 .3-.1.2-.2 0 0-.5 0-.4.1l.2.1zm-.4-.3c.2 0 .2 0 .2-.2s-.2-.2-.3 0v.3h.1zm1 .5c.1 0 .2-.3 0-.3l-.2.2v.1h.2zm1.2.4c0-.7 0-1-.2-.8-.1 0-.2.3-.1.6 0 .3.1.4.2.4v-.2zM35.2 10l-.1-.4-.4-.2c0 .1 0 .3.2.3l.1.2c0 .1.1.2.2.1zm.7.4c.1 0 .2-.1.1-.2l.1-.3c.4-.1.6 0 .7.3l-.1.3-.1.2h.3c.2 0 .3-.2.3-.4V10l.7-.7h.4c.2.1.2 0 .2-.1 0-.2 0-.2.2-.3l.2-.2-.2-.2v-.2l-.1-.2V8h-.3a1 1 0 0 1-.4 0v-.4l-.3-.2c-.3-.2-.3-.2-.5-.1h-.3V7l-.2-.2h-.9l-.2-.2c-.2 0-.2 0-.2.2v.5l-.2.2v.2c.1.2.2.6.1.8v.3l.2.2-.1.3c-.2.1-.2.2 0 .2l.2.5.2.4h.2zm0-.7zm-.1-.9c0-.1 0-.3.2-.3h.2V9c0 .1-.3 0-.4 0zm1 .5h.1c.1 0 .1 0 0 .1zM37 9l-.2-.3c-.1-.4 0-.4.2-.5.4 0 .4 0 .4.2s-.1.5-.3.6H37Zm.2-.4-.1-.2s-.1 0 0 .2v.1l.1-.1zm.8 2.8.2-.7v-.2c0-.3 0-.5-.2-.6h-.4a5 5 0 0 0 0 1.3v.1c0 .2 0 .2.2.2l.2-.1zm-3.2-2.1c.3-.1.3-.2.2-.3v-.3l-.1-.2-.6-.2.1.4c.1.1.2.3 0 .4v.2h.4zm1.7 1.2v-.4h-.2v.4h.2zm4.9 3.2h.1c.1.2.2 0 .2-.2l.2-.4c.3-.1.4-.4.2-.5l-1-.2-.3-.1.1-.2c.1-.2 0-.3-.1-.5l-.2-.1c-.1 0-.2.1 0 .5l-.1.4v.3h.4v.5c0 .2 0 .2.2.3 0 .1.1.2.3.2zm-2.6-2.2V11l-.1-.3-.2-.2-.1.3c0 .2 0 .4.2.6.1.1.2.1.2 0zm.6.3.2-.1-.2-.3-.3-.2v.4l.3.2zm-4.6-3.6c.2 0 .2-.2 0-.3 0-.2-.1-.3-.3-.2-.2 0-.3 0-.2.2l.5.3zm5.1 3.2h.2l-.2-.2h-.5l.2.2h.3zm-5.6-3.9h.3l.3-.2v-.2c0-.2 0-.2-.4-.2h-.3v-.2h.3c.1 0 .1 0 0-.1 0 0 0-.2-.2-.3l-.3-.2h-.2c-.2 0-.2 0-.2.2l.1.2c.2 0 .3.2.4.4v.4c-.2.3-.1.3.2.2zm4.9 3.3.3.1.7.2v-.2l-.2-.2-.3-.1h-.4l-.2-.1h-.2c0 .1 0 .2.3.3zm2.2 1.5h.4c.3.1.6.2.7.1l.4.1v.3l.4.2c.4 0 .5 0 .6-.2l.5-.4.1-.2v-.7c-.2-.2-.2-.3 0-.4.1-.1.2-.2.2-.5v-.3l.1-.3-.2-.6c-.1 0-.2-.4-.1-.6v-.2a.3.3 0 0 0-.4 0c-.2 0-.3 0-.5-.2a1 1 0 0 1-.2-.3l.3-.2h.2l.2-.2.2-.1c.1-.2 0-.2-.2-.5-.3-.1-.3-.1-.3-.3v-.3c0-.3-.1-.4-.4-.4l-.3-.1c-.2-.2-.2-.2-.3-.1a3 3 0 0 1-.4.2 1 1 0 0 0-.3.3 1 1 0 0 1-.3.3l-.1.1c0 .2 0 .2-.2.3-.3.2-.3.3-.3.5v1.1l.2.5c.1.1.2.4 0 .5 0 .2-.2.2-.5-.2-.3-.3-.3-.4-.7-.3-.3 0-.3 0-.3.3 0 .2 0 .2.4.2s.4 0 .4.2v.1l.2.2h.3v.2c-.2.2-.2.3 0 .3l.1.1c.2 0 .2 0 .3.2v.5c-.2 0-.2.2-.2.3l-.1.3c-.2 0-.1.2.1.2zm1.2-1.8-.1-.2v-.7l.3-.1.4-.2h.2s0 .2-.2.3a145.6 145.6 0 0 0-.5.5l.1.2h.3c.2-.2.2-.2.5 0l.3.2c.1-.1.2-.3.1-.4l-.2-.2c-.2 0-.3-.1-.3-.2l.3-.3v.1c0 .2 0 .2.2.3.2.1.3.3.2.6 0 .2-.1.2-.3.4h-.1l-.2-.2c-.3-.2-.3-.2-.5-.1-.1.2-.3.2-.4.1h-.1zm0 2.4v-.1h-.1l.1.1zM39 10.2a2.4 2.4 0 0 0 .5.2c.3 0 .4-.1.2-.3l-.4-.1h-.7l.1.1.3.1zm2.3 1.3.2-.3s-.4-.2-.5-.1c-.2 0-.2 0-.1.2s.2.3.4.2zM39 9.8h.2l.3-.3.2-.3c0-.2.1-.2.2-.3h.1c0-.1 0-.2-.3-.3l-.4-.1c-.2-.1-.4 0-.3.1l.1.4-.2.1c-.1 0-.2.1-.2.3v.2s.1.2.3.2zm1.6 1 .1-.1v-.5H40l.3.3c0 .2.2.3.3.3zm-6.6-5 .2.1.3.1.2-.1c.1-.3.3-.4.5-.6l.4-.1.2.1.2.2.1.3.2.1c.1 0 .2 0 .2-.2l.2-.4h.4c.2 0 .3.1.3.3v1.1c.2 0 .3 0 .4-.2.1-.1.4-.3.5-.2l.2-.1c.2-.1.2-.1.2 0l.3.1.1-.1c.1-.2.2-.2.3 0 .1.2.4.3.6.1h.6l.4.4.2.2v-.3c0-.1 0-.2.3-.4L42 6l.2-.4c.2-.3.3-.4.1-.6 0-.1 0-.2-.2-.2l-.4-.2.1-.3c.2-.3.2-.4-.1-.4h-.2c0-.2 0-.2-.2-.3l-.5.1c-.1.1-.3.1-.4 0l-.1-.2a183.9 183.9 0 0 1-.2-.7h-.2l-.3-.1c-.4-.2-.7-.3-1-.2H38c-.2 0-.3 0-.4-.2-.2-.3-.3-.3-.4-.3H37c0 .1-.2.2-.3.1h-.5c-.2 0-.2-.1-.4 0l-.1.1v.4c.1.3 0 .4-.1.4-.3.2-.5.2-.6 0 0-.4-.2-.5-.5-.3H34c-.1 0-.2 0-.3.2l-.3.3-.1.1c-.1.3-.5.7-.7.8-.1 0-.2.1-.1.3 0 .2.1.3.4.4l.3.2v.2c0 .2 0 .2.2.3l.2.2c0 .2.1.2.3.2zm2.6-2.2c-.2-.3-.2-.4 0-.5h.3L37 3l.2-.1h.2l.2.4-.2.5H37c-.2 0-.3 0-.5-.2Zm.6 0 .2-.2-.1-.2-.6.1.5.4zm2 1.2-.1-.1c-.1-.2-.2-.3 0-.5V4c.1-.1.2-.2.5-.2.2 0 .2 0 .3.3 0 .1 0 .3-.2.5l-.2.2-.2.1h-.2zm.2-.2.3-.4c0-.2 0-.3-.2-.3l-.2.3-.1.3.2.1zm-4 2v-.3c0-.3-.2-.6-.3-.6-.2 0-.2.4 0 .7l.2.1zm.7.2c.2 0 .3-.2.4-.3v-.1L36 6h-.2v-.5a.2.2 0 0 0-.4.1l.3.6.1.3.3.2zm1.1.3h.3l.3.1v.3l.2.1v.2l.4.1c.3 0 .3 0 .3-.2a1 1 0 0 0-.4-.6l-.1-.1-.5-.1c-.3 0-.4 0-.5-.3v-.1s-.2 0-.3.2V7h.3zm2.2 1L40 8c.3-.3.4-.4.5-.8V7l-.7.2-.6.4-.2.5h.4zm1.9 1.5v-.3c-.1 0-.3 0-.2.2l.2.1zm-.6-.6-.2-.2V9h.2zm-4-2.8V6l-.2.2.1.2h.1zm3.5 2.3.6.2c.1 0 .2-.1.1-.2v-.2c-.2-.1-.3-.2-.6 0h-.5l.4.2zM39 7.7l.2-.4.2-.3-.2-.4-.1.1-.2.4c-.2.2-.2.5-.1.6h.2zm-2-1.6.1-.2c0-.2-.1-.3-.2-.2 0 0-.1.4 0 .4 0 .1 0 .1.1 0zm1.4.8v-.2c0-.1 0-.2-.2-.2-.1 0-.2.1-.1.2l.3.2zm2 1c0-.1 0 0 0 0zm-1.6-1c.1-.1 0-.3 0-.4v.1c-.2.1-.2.1 0 .2zm2.1.9v-.1h-.2V8l.2-.1zm-.9-.7h.1c.1-.1.2-.2.1-.3v-.2l-.2.1-.1.2V7s0 .1 0 0zm1 .4c.1-.2.1-.4 0-.4-.2 0-.3.4-.2.4h.1zm-.4-.6c.1 0 .2-.2.1-.3-.3-.1-.4.1-.2.2h.1zM44 8.4c.1 0 .2-.1.1-.2 0-.2 0-.2-.2-.2-.1 0-.2 0 0 .2l.1.2z" style="fill:#000;fill-opacity:.5;stroke-width:.201691"/></svg>