<?xml version="1.0" encoding="UTF-8" standalone="no"?>
<svg
   xml:space="preserve"
   width="125"
   height="125"
   viewBox="0 0 33.072917 33.072917"
   version="1.1"
   id="svg2"
   sodipodi:docname="shrub-single.svg"
   inkscape:version="1.4.3 (0d15f750, 2025-12-25)"
   xmlns:inkscape="http://www.inkscape.org/namespaces/inkscape"
   xmlns:sodipodi="http://sodipodi.sourceforge.net/DTD/sodipodi-0.dtd"
   xmlns="http://www.w3.org/2000/svg"
   xmlns:svg="http://www.w3.org/2000/svg"><defs
     id="defs2" /><sodipodi:namedview
     id="namedview2"
     pagecolor="#ffffff"
     bordercolor="#000000"
     borderopacity="0.25"
     inkscape:showpageshadow="2"
     inkscape:pageopacity="0.0"
     inkscape:pagecheckerboard="0"
     inkscape:deskcolor="#d1d1d1"
     inkscape:zoom="2.3298986"
     inkscape:cx="77.256581"
     inkscape:cy="55.152615"
     inkscape:window-width="1525"
     inkscape:window-height="804"
     inkscape:window-x="39"
     inkscape:window-y="25"
     inkscape:window-maximized="0"
     inkscape:current-layer="layer3" /><g
     inkscape:groupmode="layer"
     id="layer1"
     inkscape:label="shrub"><g
       inkscape:groupmode="layer"
       id="layer3"
       inkscape:label="area"><circle
         style="fill:#ececec;stroke-width:0.460064"
         id="path3"
         cx="16.536459"
         cy="16.536459"
         inkscape:label="area"
         r="16.536459" /></g><g
       inkscape:groupmode="layer"
       id="layer4"
       inkscape:label="terrain"><path
         d="m 16.666843,3.8364585 -0.7,0.1 -0.3,0.1 -0.4,0.4 a 3,3 0 0 1 -0.3,0.4 l -0.1,0.2 -0.2,-0.2 -0.5,-0.7 h -0.1 c -0.2,-0.3 -0.3,-0.3 -0.7,-0.2 l -0.5,0.3 h -0.3 l -0.4,0.2 h -0.3 l -0.3,0.2 -0.6,0.3 c -0.4,0.1 -0.5,0.1 -0.6,0.4 l -0.1,0.2 H 9.8668433 l -0.4,-0.1 h -0.6 l -0.5,0.3 c -0.2,0 -0.5,0.4 -0.5,0.5 0,0.1 0,0.1 -0.2,0 h -0.3 a 2,2 0 0 0 -0.5,1 c 0,0.2 0.2,0.6 0.4,0.6 l 0.2,0.1 c 0.3,0.3 0.3,0.6 0,0.7 l -0.4,-0.1 c -0.4,-0.3 -0.6,-0.3 -1,0.1 l -0.5,0.4 -0.6,0.4 -0.3,1.0000005 v 0.3 c 0.2,0.2 0.2,0.2 0,0.5 v 0.4 c 0.2,0.3 0.2,0.5 0,0.7 -0.4,0.3 -0.4,0.5 0,0.8 0.4,0.4 0.6,0.5 0.9,0.5 0.2,0 0.4,0.1 0.5,0.3 l -0.2,0.4 v 0.1 l -0.3,0.3 -0.2,0.2 -0.4,-0.1 c -0.5,-0.1 -0.7,-0.1 -0.8,0 v 0.9 c 0.2,0.1 0.2,0.3 0.2,0.4 0,0.3 0.1,0.4 0.5,0.5 l 0.4,0.3 -0.2,0.1 c 0,0.2 -0.3,0.4 -0.7,0.4 -0.4,0 -0.4,0.2 -0.4,0.9 l 0.1,0.8 0.2,0.2 v 0.3 l 0.4,0.2 c 0.3,0 0.5,0 0.5,0.2 v 0.3 c -0.1,0 -0.2,0.2 -0.1,0.4 0,0.3 0,0.4 -0.2,0.6 -0.2,0.1 -0.2,0.2 -0.2,0.4 0,0.3 0.1,0.8 0.4,1 l 0.2,0.5 0.5,0.1 c 0.3,0 0.4,0 0.5,0.2 l 0.2,0.3 0.1,0.4 c 0.2,0.3 0.2,0.6 0.1,0.9 v 0.4 l 0.4,0.199999 0.7,0.4 c 0.5,0.4 0.7,0.5 1,0.5 0.2,0 0.4,0 0.4,0.2 0,0.2 0.2,0.5 0.5,0.6 0.3,0.100001 0.3999997,0.2 0.7999997,0 h 0.4 l 0.4,-0.2 c 0.3,-0.3 0.4,-0.399999 0.6,-0.1 0.1,0 0.2,0.2 0.2,0.5 0,0.4 0.2,0.6 0.6,0.7 l 0.7,0.4 a 1.6,1.6 0 0 0 0.7,0.5 l 0.4,-0.2 0.3,-0.3 h 0.6 c 1.2,0.2 1.8,0.1 2,0 0.2,-0.3 0.2,-1 0,-1.2 l -0.1,-0.4 c 0,-0.2 0,-0.2 0.3,-0.4 l 0.9,-0.1 h 0.6 l 0.1,0.3 0.2,0.2 0.4,0.1 0.3,0.100001 0.3,0.1 c 0.3,0.2 0.3,0.2 0.7,0 l 0.5,-0.1 c 0.2,0 0.2,0 0.5,-0.3 l 0.3,-0.300001 0.2,0.100001 c 0.3,0.1 0.5,0 0.7,-0.3 0.3,-0.4 0.4,-0.5 0.6,-0.5 0.2,0 0.4,-0.2 0.5,-0.4 l 0.2,-0.4 0.9,-0.5 c 0.3,0 0.6,-0.3 0.7,-0.4 v -0.3 l -0.1,-0.7 -0.2,-0.6 v -0.3 h 1 l 0.3,-0.3 c 0.3,-0.3 0.4,-0.4 0.7,-0.4 l 0.4,-0.2 c 0.1,-0.2 0.1,-0.2 0,-0.4 v -0.4 c 0,0 0,-0.2 0.2,-0.3 0.3,-0.2 0.3,-0.2 0.2,-0.5 l 0.2,-0.4 c 0.2,-0.2 0.3,-0.3 0.2,-0.4 l -0.2,-1.3 c -0.2,-0.4 -0.2,-0.4 -0.1,-0.7 v -0.6 a 4.7,4.7 0 0 0 -0.8,-1.5 l 0.2,-0.4 c 0.3,-0.3 0.4,-0.5 0.3,-0.6 v -0.6 l 0.2,-0.5 -0.2,-0.5 -0.4,-0.5 -0.2,-0.3 c -0.2,-0.2 -0.3,-0.2 -0.2,-0.4 0,-0.2 0,-0.4 -0.2,-0.7 l -0.2,-0.5 -0.2,-0.3000005 c -0.1,-0.4 -0.1,-0.4 -0.6,-0.9 l -0.7,-0.4 c -0.2,0 -0.2,0 -0.4,-0.4 -0.1,-0.5 -0.4,-0.7 -1,-0.8 -0.4,0 -0.4,0 -0.4,-0.2 v -0.2 c 0.3,-0.3 0,-0.6 -0.5,-0.7 -0.8,0 -0.8,0 -1.2,-0.6 -0.4,-0.5 -0.6,-0.6 -0.8,-0.4 -0.3,0.1 -0.7,0.2 -0.8,0.1 -0.4,-0.2 -0.4,-0.3 -0.7,-0.2 -0.1,0 -0.3,0 -0.4,0.2 v 0.5 c 0,0.1 -0.3,0 -0.4,-0.4 0,-0.2 -0.3,-0.6 -0.5,-0.6 h -0.8 v -0.2 c 0,-0.2 -0.2,-0.6 -0.4,-0.6 l -0.7,-0.1 z"
         style="display:inline;fill:#008000;stroke-width:0.326561"
         id="path1" /></g><g
       inkscape:groupmode="layer"
       id="layer2"
       inkscape:label="deco"><path
         d="m 13.869301,29.136459 -0.5,-0.4 -0.7,-0.4 c -0.4,-0.1 -0.5,-0.3 -0.6,-0.7 0,-0.3 0,-0.4 -0.2,-0.5 -0.2,-0.3 -0.3,-0.2 -0.6,0 a 1,1 0 0 1 -0.4,0.3 h -0.4 c -0.4,0.2 -0.4999998,0.1 -0.7999998,0 -0.3,-0.1 -0.5,-0.4 -0.5,-0.6 l -0.4,-0.2 c -0.3,0 -0.5,0 -1,-0.5 l -0.7,-0.4 -0.3,-0.2 c -0.2,-0.1 -0.2,-0.2 0,-0.4 0,-0.3 0,-0.6 -0.2,-1 l -0.1,-0.3 -0.2,-0.3 -0.5,-0.2 -0.5,-0.1 -0.2,-0.4 c -0.3,-0.3 -0.4,-0.8 -0.4,-1.1 0,-0.2 0,-0.3 0.2,-0.4 l 0.2,-0.6 v -0.7 c 0,-0.2 0,-0.2 -0.4,-0.2 -0.2,0 -0.2,0 -0.3,-0.2 l -0.1,-0.3 -0.2,-0.2 c -0.2,-0.3 -0.2,-0.3 -0.1,-0.8 0,-0.7 0,-0.8 0.4,-0.9 0.4,0 0.7,-0.2 0.7,-0.4 l 0.2,-0.1 -0.4,-0.3 c -0.4,-0.1 -0.5,-0.2 -0.5,-0.5 l -0.1,-0.3 a 1,1 0 0 1 -0.1,-0.9 c 0,-0.1 0.3,-0.1 0.8,0 h 0.4 l 0.2,-0.1 0.2,-0.3 h 0.1 l 0.2,-0.5 c 0,-0.2 -0.3,-0.3 -0.5,-0.3 -0.3,0 -0.5,-0.1 -0.9,-0.5 -0.4,-0.3 -0.4,-0.5 0,-0.8 0.2,-0.2 0.2,-0.4 0,-0.7 v -0.4 c 0.2,-0.5 0.2,-0.5 0.1,-0.6 a 1,1 0 0 1 0,-0.4 l 0.3,-1.0000005 0.6,-0.3 0.5,-0.4 c 0.4,-0.4 0.6,-0.4 1,-0.1 l 0.3,0.1 c 0.4,0 0.4,-0.4 0.1,-0.7 l -0.3,-0.1 c -0.2,0 -0.4,-0.4 -0.4,-0.6 l 0.5,-1 h 0.3 c 0.1,0.1 0.2,0.1 0.2,0 0,-0.1 0.3,-0.5 0.5,-0.5 0.1,0 0.5,-0.2 0.5,-0.4 h 0.5 l 0.4,0.1 h 0.3999998 l 0.1,-0.1 c 0.1,-0.3 0.2,-0.3 0.6,-0.4 a 6.2,6.2 0 0 0 1,-0.4 l 0.2,-0.1 0.4,-0.1 0.3,-0.1 0.6,-0.2 h 0.7 l 0.1,0.1 0.5,0.7 0.2,0.2 0.1,-0.2 0.3,-0.4 0.4,-0.4 h 0.3 c 0.2,-0.2 0.3,-0.2 0.7,-0.2 h 0.7 c 0.2,0.1 0.4,0.5 0.4,0.7 v 0.2 h 0.9 c 0.2,0 0.5,0.4 0.5,0.6 0.1,0.3 0.3,0.5 0.4,0.4 v -0.5 l 0.4,-0.2 0.7,0.2 c 0.1,0.1 0.5,0 0.8,-0.1 0.2,-0.2 0.4,0 0.8,0.4 0.4,0.5 0.4,0.6 1.2,0.6 0.6,0 0.8,0.4 0.5,0.7 v 0.3 c 0,0.2 0,0.2 0.4,0.2 0.6,0 0.9,0.3 1,0.8 0.2,0.4 0.2,0.4 0.4,0.4 0.2,0 0.3,0 0.7,0.4 0.5,0.5 0.5,0.5 0.6,0.9 l 0.2,0.3000005 0.2,0.5 c 0.2,0.3 0.2,0.5 0.2,0.7 l 0.2,0.4 0.2,0.3 0.4,0.5 0.2,0.5 -0.1,0.5 c -0.2,0.3 -0.2,0.6 0,0.6 0,0.1 0,0.3 -0.4,0.6 l -0.2,0.4 0.3,0.4 0.5,1.1 v 1.3 c 0.3,0.5 0.4,1 0.4,1.2 l -0.2,0.4 -0.2,0.4 c 0.1,0.3 0,0.3 -0.2,0.5 l -0.3,0.3 0.1,0.4 c 0.1,0.2 0.1,0.2 0,0.4 l -0.4,0.199999 c -0.3,0 -0.4,0 -0.7,0.4 l -0.3,0.3 h -0.5 a 4,4 0 0 0 -0.6,0 v 0.3 l 0.2,0.600001 v 1 c 0,0.1 -0.3,0.399999 -0.6,0.399999 l -0.9,0.5 -0.2,0.4 c 0,0.2 -0.3,0.4 -0.5,0.4 -0.2,0 -0.3,0.1 -0.6,0.5 -0.2,0.4 -0.4,0.4 -0.7,0.3 h -0.2 l -0.3,0.2 c -0.3,0.3 -0.3,0.3 -0.5,0.3 h -0.5 c -0.4,0.3 -0.4,0.3 -0.7,0.1 a 1,1 0 0 0 -0.3,-0.1 h -0.2 l -0.4,-0.2 -0.2,-0.2 v -0.2 l -0.7,-0.1 -1,0.1 -0.2,0.4 0.1,0.4 c 0.2,0.3 0.2,1 0,1.1 -0.2,0.2 -0.8,0.3 -2,0.2 h -0.6 l -0.3,0.2 -0.4,0.2 z m 0.5,-0.6 c 0.2,-0.100001 0.2,-0.2 0.5,-0.100001 h 0.5 l 0.9,0.100001 0.8,-0.100001 v -0.599999 l -0.1,-0.5 c -0.2,-0.3 -0.2,-0.7 0,-0.8 l 0.1,-0.4 c 0,-0.6 0,-0.7 -0.6,-0.5 -0.4,0.2 -0.5,0.2 -0.8,0 l -0.5,-0.2 -0.4,-0.4 0.4,-0.1 c 0.4,0 0.4,0 0.5,-0.2 0.1,-0.3 0,-0.4 -0.4,-0.8 l -0.4,-0.6 a 115.4,115.4 0 0 0 -0.3,-0.5 c -0.2,-0.100001 -0.2,-0.2 -0.2,-0.3 v -1 c -0.2,-0.2 -0.3,-0.100001 -0.4,0.1 -0.2,0.2 -0.3,0.6 -0.4,1.3 0,0.2 -0.1,0.3 -0.2,0.3 -0.2,0 -0.5,-0.2 -0.6,-0.4 h -0.3 l -0.3,-0.2 -0.2,-0.1 c -0.3,-0.1 -0.3,-0.4 0,-0.5 0.2,0 0.6,-0.4 0.6,-0.5 l 0.2,-0.2 c 0.1,-0.2 0.1,-0.2 0.6,-0.2 0.6,0 0.6,0 0.9,-0.2 l 0.4,-0.2 0.3,-0.3 c 0,-0.1 0,-0.2 -0.2,-0.2 -0.2,-0.1 -0.6,0 -0.8,0 l -0.4,0.2 -0.5,-0.1 -0.1,-0.2 c 0,-0.2 0.2,-0.4 0.5,-0.4 0.3,0 0.4,0 0.5,-0.2 0,-0.3 -0.1,-0.5 -0.5,-0.5 l -0.2,-0.2 c 0,-0.2 -0.2,-0.3 -0.7,-0.4 l -0.7,0.1 c -0.6,0.2 -0.9,0 -0.5,-0.3 0.3,-0.3 0.3,-0.4 0,-0.7 l -0.3,-0.2 -0.4,-0.4 -0.6999998,-0.5 c -0.5,-0.3 -0.6,-0.3 -0.6,-0.5 l 0.1,-0.3 -0.5,-0.4 -0.7,-0.2 c -0.5,0 -0.6,-0.2 -0.6,-0.6 0,-0.2 0,-0.3 -0.2,-0.4 l -0.6,-0.2 h -0.3 l -0.2,0.3 c -0.1,0.3 -0.3,0.5 -0.7,0.7 -0.2,0.2 -0.3,0.2 -0.6,0.2 h -0.5 c -0.1,0 0,0.3 0,0.4 l 0.2,0.4 v 0.3 h 0.6 l 0.1,0.4 v 0.4 l -0.2,0.2 -0.2,0.4 -0.4,0.1 c -0.2,0 -0.2,0 -0.3,0.2 l -0.1,0.4 c 0,0.3 0,0.4 0.2,0.5 l 0.2,0.3 c 0,0.2 0.2,0.5 0.3,0.5 0.2,0 0.7,0.4 0.8,0.6 0.2,0.3 0.2,0.5 0,0.5 -0.3,0 -0.4,0.1 -0.4,0.4 l -0.2,0.4 c -0.2,0.2 0,0.7 0.3,1.2 0.2,0.3 0.4,0.4 0.7,0.4 0.2,0 0.4,0.2 0.5,0.6 l 0.3,0.6 c 0.2,0.3 0.3,0.4 0.2,0.5 -0.1,0.5 -0.1,0.5 0.3,0.7 l 0.6,0.4 c 0.3,0.3 0.5,0.4 0.9,0.4 0.3,0 0.3,0 1,0.7 l 0.3999998,0.1 c 0.3,0 0.6,-0.2 0.9,-0.6 0.2,-0.4 0.4,-0.4 0.5,-0.1 l 0.3,0.2 c 0.2,0.1 0.3,0.199999 0.3,0.6 0,0.4 0,0.5 0.6,0.8 l 0.6,0.5 c 0.3,0.3 0.4,0.3 0.8,0 z m -5.5999998,-7.2 -0.3,-0.5 a 1,1 0 0 0 -0.3,-0.3 c -0.3,0 -0.2,-0.300001 0,-0.600001 0.2,-0.1 0.2,-0.2 0.2,-0.4 0,-0.5 0.2,-0.6 0.7,-0.4 h 0.4 l 0.1,0.4 c 0.3,0.7 0.3,0.9 0,1.3 l -0.3,0.4 c 0,0.2 0,0.2 -0.2,0.2 z m 0.4,-0.7 c 0.3,-0.3 0.4,-0.4 0.3,-0.6 l -0.2,-0.300001 c -0.1,-0.3 -0.2,-0.3 -0.3,-0.3 -0.1,0 -0.2,0 -0.5,0.5 l -0.1,0.3 0.1,0.2 c 0.1,0.3 0.3,0.4 0.4,0.4 z m 11.6999998,6.5 0.2,-0.3 c 0.1,-0.2 0.3,-0.2 0.4,0 0.2,0.2 0.3,0.1 0.5,-0.100001 0,-0.3 0.3,-0.5 0.4,-0.5 l 0.2,0.100001 0.3,0.1 0.2,-0.4 c 0,-0.2 0.2,-0.3 0.5,-0.3 0.3,0 0.5,-0.1 0.5,-0.3 0,-0.2 0.4,-0.5 1,-0.8 0.7,-0.4 0.7,-0.4 0.7,-0.6 v -0.2 l -0.2,-0.5 c 0,-0.3 0,-0.3 -0.3,-0.5 -0.4,-0.2 -0.4,-0.3 -0.2,-0.600001 0.3,-0.5 0.4,-0.5 0.7,-0.199999 0.2,0.199999 0.2,0.199999 0.5,0.199999 0.4,0 0.4,0 0.7,-0.3 l 0.6,-0.399999 c 0.2,0 0.3,0 0.4,-0.2 v -0.3 c -0.3,-0.2 -0.3,-0.300001 0,-0.5 0.4,-0.300001 0.5,-0.4 0.3,-0.7 -0.1,-0.2 -0.1,-0.3 0.2,-0.5 0.3,-0.2 0.3,-0.2 0.2,-0.400001 l -0.2,-0.2 -0.1,-0.5 v -0.399999 c -0.2,-0.100001 -0.2,-0.3 -0.1,-0.400001 v -1.2 l -0.6,-0.699999 -0.6,0.3 c -0.2,0.1 -0.3,0.2 -0.4,0.1 -0.3,0 -0.5,0 -0.6,0.2 v 0.5 l -0.2,0.2 0.2,0.399999 c 0.2,0.300001 0.2,0.5 0,0.7 l -0.7,0.100001 h -0.9 l -0.3,-0.300001 -0.3,-0.3 -0.2,0.1 c -0.2,0.2 -0.5,0.1 -0.8,-0.2 -0.4,-0.3 -1.2,-0.8 -1.3,-0.7 v 0.200001 c 0,0.399999 0,0.399999 -0.4,0.399999 l -0.3,0.100001 c -0.3,0.3 -0.3,0.399999 -0.5,0.3 -0.3,0 -0.7,-0.2 -0.8,-0.3 -0.3,-0.2 -0.4,0 -0.3,0.2 0,0.3 0,0.3 -0.3,0.5 -0.2,0.3 -0.3,0.5 -0.1,0.699999 0.1,0 0.1,0.300001 -0.1,0.6 -0.3,0.3 -0.3,0.4 -0.3,0.6 0,0.3 0,0.3 -0.4,0.4 -0.2,0 -0.4,0.2 -0.5,0.5 -0.1,0.3 0,0.4 0.2,0.7 0.3,0.2 0.3,0.3 0.3,0.4 l -0.2,0.3 0.2,0.5 c 0.2,0.3 0.2,0.5 0,0.7 l -0.2,0.2 -0.3,-0.1 c -0.6,-0.2 -0.9,-0.2 -1,0 0,0.4 0,0.8 0.3,1.1 l 0.3,0.5 0.3,0.4 c 0.2,0 0.4,0.2 0.4,0.4 v 0.2 c 0.2,0.1 0.3,0.1 0.8,0 l 0.7,0.1 v 0.2 l 0.2,0.3 0.6,0.4 z m -1,-3.5 -0.1,-0.4 -0.1,-0.5 c -0.2,-0.1 -0.3,-0.4 -0.2,-0.5 v -0.4 l 0.3,-0.7 c 0.3,-0.6 0.4,-0.7 0.8,-0.3 0.6,0.399999 0.6,0.399999 1.1,0.2 0.6,-0.300001 1,-0.300001 1.5,0 l 0.3,0.1 0.4,0.3 0.2,0.2 -0.3,0.1 c -0.2,0 -0.5,0.3 -0.5,0.5 v 0.3 l -0.6,0.4 -0.8,0.6 c -0.2,0.2 -0.4,0.3 -0.6,0.1 h -0.8 c -0.2,0.2 -0.5,0.2 -0.6,0 z m 0.7,-0.5 0.2,-1.3 c 0,-0.2 -0.4,-0.7 -0.5,-0.7 -0.1,0 -0.2,0.2 -0.3,0.8 0,0.6 0,1.3 0.2,1.4 0.1,0.1 0.3,0 0.4,-0.2 z m 0.8,0.1 -0.1,-0.3 c -0.2,-0.2 -0.2,-0.2 -0.3,0 v 0.4 h 0.4 z m 0.6,-0.3 0.1,-0.2 -0.5,-0.2 c -0.1,0 0,0.3 0,0.4 0.2,0.1 0.2,0.1 0.4,0 z m 0.9,-0.5 c 0.2,-0.1 0.2,-0.4 0,-0.6 l -0.7,-0.100001 a 35.1,35.1 0 0 1 -1.1,0 c 0,0.100001 0.3,0.4 0.6,0.4 l 0.3,0.2 0.6,0.2 z m 0,-1 c 0.2,-0.1 0,-0.4 -0.3,-0.4 -0.2,0 -0.4,0.3 -0.2,0.4 h 0.6 z m 2,-1 -0.2,-0.2 c -0.5,-0.5 -0.5,-0.5 -0.8,-0.4 -0.4,0 -0.4,-0.1 -0.1,-0.6 0.2,-0.3 0.3,-0.4 1,-0.4 0.5,0 0.5,0 0.7,0.2 l 0.2,0.2 v 0.4 c 0,0.4 -0.2,0.8 -0.4,0.8 z m 0.3,-0.5 0.1,-0.3 -0.1,-0.3 c -0.3,-0.2 -0.7,-0.3 -0.8,-0.2 -0.2,0.1 -0.1,0.3 0.2,0.599999 0.3,0.400001 0.5,0.400001 0.6,0.200001 z m -4.3,-1 c -0.1,-0.2 0,-0.4 0.2,-0.6 0.3,-0.2 0.4,-0.2 0.6,0 0.2,0.3 0.2,0.4 0,0.6 -0.3,0.2 -0.6,0.2 -0.8,0 z m 5.7,-0.4 c -0.1,-0.1 0,-0.6 0.3,-0.800001 0,-0.199999 0.1,-0.199999 0.2,-0.1 0.2,0 0.5,0.599999 0.4,0.7 l -0.2,0.2 z m -10,6.8 c 0.3,-0.2 0.2,-0.4 0,-0.600001 -0.2,-0.199999 -0.3,-0.199999 -0.3,0 l -0.3,0.4 c -0.2,0.3 -0.1,0.4 0.3,0.3 l 0.4,-0.1 z m -0.3,-1.3 v -0.300001 l 0.1,-0.5 v -0.3 l -0.3,0.3 -0.2,0.600001 0.2,0.3 z m 1.6,-1 c 0.1,0 0.1,0 0,-0.2 l -1,-0.600001 -0.1,0.300001 c 0,0.399999 0,0.5 0.5,0.6 h 0.6 z m -1.8,-0.2 v -0.2 c 0.2,-0.1 0.4,-0.9 0.4,-1.2 0,-0.3 0,-0.4 -0.2,-0.5 l -0.1,-0.2 -0.2,0.2 c -0.2,0.3 -0.3,0.5 -0.3,1.3 v 0.8 c 0.2,0 0.4,0 0.4,-0.2 z m -2.7,-0.100001 0.1,-0.399999 v -0.600001 c -0.2,-0.3 -0.4,-0.3 -0.5,0 l -0.3,0.4 c -0.3,0.2 -0.3,0.4 0,0.5 l 0.6,0.2 z m 2,-0.3 a 4,4 0 0 0 0,-1.399999 h -0.5 v 0.5 c 0.2,0 0.2,0 0,0.199999 v 0.7 c 0,0.3 0.4,0.3 0.5,0 z m 2.3,-0.399999 -0.1,-0.5 -0.3,-0.300001 v -1 c 0,-0.5 0,-0.6 -0.2,-0.9 -0.2,-0.4 -0.3,-0.4 -0.4,-0.3 v 1.800001 c 0,0.6 0.1,0.8 0.5,1 0.3,0.3 0.4,0.3 0.5,0 z m -1.4,-2 -0.2,-0.400001 c -0.2,-0.2 -0.2,-0.2 -0.3,-0.1 v 1 c 0.1,0.1 0.5,-0.300001 0.5,-0.5 z m -0.7,-0.2 c 0,-0.2 -0.1,-0.3 -0.3,-0.2 -0.2,0 -0.2,0.2 0,0.4 0.1,0.199999 0.1,0.199999 0.2,0.1 v -0.3 z m 2.5,0 c 0,-0.3 -0.5,-1.2 -0.8,-1.400001 -0.2,-0.1 -0.2,-0.2 -0.3,-0.1 v 0.5 l 0.2,0.3 0.7,0.9 h 0.2 z m -2.7,-0.600001 c 0.1,-0.199999 0.2,-0.5 0,-0.599999 0,0 -0.5,0.599999 -0.4,0.7 z m -0.8,0 c 0.2,-0.3 0.2,-0.399999 0,-0.599999 -0.2,-0.1 -0.4,0 -0.4,0.2 l 0.3,0.399999 z m 1.7,-0.3 c 0.2,-0.2 0,-0.599999 -0.2,-0.5 -0.2,0 -0.2,0.400001 0,0.5 v 0.100001 z m 2,-0.599999 c -0.5,-1 -0.9,-1.2 -1,-0.900001 0,0.2 0,0.5 0.5,1 0.2,0.3 0.4,0.3 0.5,0.2 z m -4.4,0 c 0,-0.100001 -0.2,-0.400001 -0.6,-0.400001 l -0.5,0.100001 c 0,0.199999 0.2,0.3 0.5,0.3 h 0.3 c 0.2,0.2 0.2,0.2 0.3,0 z m 1.3,0 c 0.1,-0.2 0.1,-0.400001 0,-0.400001 -0.2,0 -0.2,-0.3 -0.1,-0.5 0.3,-0.5 0.7,-0.599999 1.1,-0.2 l 0.1,0.400001 v 0.4 c 0.1,0 0.4,0 0.5,-0.2 0.2,-0.2 0.2,-0.6 0,-0.9 a 0.7,0.7 0 0 1 -0.1,-0.4 c 0,-0.5 0,-1.2 0.2,-1.5 0.1,-0.2 0.4,-0.4 0.6,-0.4 0.3,0 0.3,-0.1 0.1,-0.3 v -0.6 c 0.1,-0.2 0.2,-0.4 0,-0.5 h -0.3 l -0.3,-0.1 -0.3,-0.3 -0.1,-0.2 -0.4,0.3 -0.4,0.3 -0.3,-0.2 a 1,1 0 0 0 -0.2,-0.3 h -0.6 c -0.5,0 -0.5,0 -0.7,0.3 l -0.4,0.2 -0.4,-0.2 c -0.1,-0.2 -0.3,-0.3 -0.4,-0.3 l -0.3,0.4 c -0.2,0.3 -0.4,0.4 -0.9,0.4 l -0.4,0.1 v 0.3 l 0.2,0.2 c 0.2,0.1 0.2,0.4 0.2,0.5 v 0.4 c 0,0.2 0,0.3 0.2,0.4 0.3,0.1 0.6,0.6 0.7,1 0.1,0.3 0.1,0.3 0.4,0.3 l 0.3,0.2 0.1,0.4 c 0,0.3 0,0.4 0.3,0.4 l 0.7,0.3 0.7,0.4 z m -0.8,-1 h 0.1 z m -0.8,-1 a 0.6,0.6 0 0 1 0,-0.8 h 0.3 c 0.2,0.1 0.4,0.4 0.4,0.599999 0,0.1 -0.4,0.2 -0.7,0.1 z m 1.9,-0.3 c -0.1,0 0,-0.2 0,-0.2 0.2,0 0.3,0 0.2,0.2 z m -0.2,-0.7 -0.5,-0.3 c -0.5,-0.4 -0.5,-0.5 -0.1,-0.8 0.3,-0.4 0.5,-0.4 0.7,-0.1 0.2,0.2 0.2,0.8 0.1,1 0,0.2 0,0.2 -0.2,0.2 z m 0,-0.8 -0.4,-0.1 0.1,0.3 0.2,0.1 v -0.3 z m 3.5,3 c 0,-0.300001 0,-0.600001 -0.3,-1 l -0.2,-0.400001 c -0.2,-0.399999 -0.4,-0.599999 -0.7,-0.599999 -0.3,0 -0.3,0 -0.5,0.2 l -0.1,0.3 a 8,8 0 0 0 1.1,1.599999 l 0.2,0.2 c 0.2,0.2 0.2,0.2 0.4,0.1 z m -6.2,0.1 c 0.3,-0.3 0.3,-0.5 0,-0.599999 -0.2,0 -0.2,-0.100001 -0.3,-0.300001 l -0.2,-0.199999 c -0.6,0 -1,0 -1,0.199999 0,0.2 0.3,0.5 0.5,0.5 0.2,0 0.5,0.300001 0.5,0.5 v 0.2 c 0,0.1 0.3,0 0.5,-0.3 z m 3.4,0.1 c 0,-0.1 0,-0.199999 -0.2,-0.3 l -0.2,-0.1 -0.1,0.1 -0.1,0.1 v 0.300001 l 0.4,0.2 c 0.1,0 0.2,0 0.2,-0.300001 z m 9.4,-0.1 h 0.3 c 0.3,0.1 0.3,-0.3 0,-0.5 -0.3,-0.3 -0.3,-0.3 0,-0.7 0.2,-0.399999 0,-0.899999 -0.3,-0.899999 l -1.4,0.599999 c 0,0.1 -0.5,0.2 -0.6,0 v -0.299999 c -0.1,-0.3 -0.2,-0.4 -0.6,-0.5 h -0.5 c -0.1,0.2 0,0.4 0.5,0.8 0.3,0.3 0.4,0.4 0.3,0.7 0,0 0,0.2 0.2,0.3 l 0.3,-0.1 0.3,-0.2 0.2,0.2 0.4,0.3 c 0.1,0.3 0.2,0.3 0.4,0.4 z m -5.4,-0.599999 -0.4,-0.800001 -0.5,-0.199999 c -0.4,-0.2 -0.4,-0.2 -0.4,0 -0.1,0 -0.1,0.1 0,0.399999 l 1,0.600001 z m 1,-0.100001 c 0.2,-0.1 0.2,-0.3 0.2,-0.399999 l -0.5,-0.100001 c -0.3,-0.2 -0.6,-0.2 -0.6,0 l 0.3,0.5 z m -9.3,-0.7 c 0.2,-0.199999 0,-0.499999 -0.2,-0.499999 h -0.2 c -0.2,-0.2 -0.4,-0.2 -0.6,0 -0.1,0.2 -0.2,0.4 0,0.499999 z m 9.8,-0.299999 0.1,-0.2 h -0.8 c -0.3,0.1 -0.4,0.2 -0.3,0.3 h 0.5 z m -11.3,-0.1 0.4,-0.4 c 0.2,-0.1 0.3,-0.4 0.3,-0.5 l -0.1,-0.4 c -0.2,-0.2 -0.3,-0.2 -0.7999998,0.1 -0.2,0.2 -0.4,0.3 -0.5,0.2 -0.2,0 -0.2,-0.1 0,-0.2 l 0.3,-0.2 c 0.1,-0.2 0.1,-0.2 0,-0.2 l -0.7,-0.1 h -0.6 l -0.2,0.2 c -0.2,0.2 -0.2,0.2 -0.1,0.4 l 0.3,0.1 c 0.4,0 0.6,0 1,0.3 0.3,0.2 0.3,0.2 0.3,0.5 0,0.5 0,0.5 0.3999998,0.2 z m 9.5,-0.1 0.5,-0.1 c 0.4,0 1.2,-0.3 1.2,-0.4 l -0.2,-0.2 -0.4,-0.1 h -0.5 l -0.3,0.2 -0.3,0.1 -0.4,0.1 c 0,0 -0.2,0.1 -0.2,0.3 0,0.2 0.3,0.2 0.6,0.1 z m 4.4,0 0.2,-0.1 0.1,-0.1 0.3,-0.2 c 0.4,0 1,-0.3 1,-0.4 0.3,-0.4 0.5,-0.4 0.6,-0.2 l 0.2,0.3 c 0.2,0.2 0.3,0.2 0.8,0 0.5,-0.4 0.6,-0.5 0.7,-0.8 l 0.3,-1 v -0.4 l -0.8,-1 c -0.4,0 -0.4,-0.2 -0.3,-0.4 0,-0.4 0,-0.6 -0.2,-0.9 l -0.2,-0.5 -0.2,-0.4000005 -0.9,-0.7 c -0.2,0 -0.5,-0.4 -0.6,-0.6 0,-0.2 0,-0.3 -0.2,-0.3 -0.2,0 -0.4,0 -0.5,0.3 -0.1,0.3 -0.3,0.3 -0.8,0.1 l -0.6,-0.2 0.2,-0.4 0.3,-0.3 0.1,-0.3 0.1,-0.5 c 0,-0.3 0,-0.3 -0.6,-0.3 -0.6,0 -0.6,0 -0.8,-0.2 a 2,2 0 0 1 -0.2,-0.4 c -0.2,-0.4 -0.5,-0.5 -0.8,-0.3 -0.2,0.1 -0.3,0.2 -0.6,0.1 -0.4,0 -0.4,0 -0.5,0.2 l -0.3,0.6 -0.2,0.8 -0.1,0.6 c -0.1,0.1 -0.1,0.2 0,0.4 v 0.5 c -0.2,0.5 -0.2,0.6 0,0.8 0.3,0.2 0.3,0.3 0.3,0.5000005 v 0.3 c 0,0.2 0.2,0.4 0.6,0.8 0.2,0.2 0.6,0.4 0.9,0.4 0.2,0.1 0.5,0.4 0.5,0.7 0,0.4 -0.3,0.5 -1,0.2 -0.6,-0.2 -0.8,-0.2 -1.2,0.2 -0.3,0.3 -0.3,0.4 -0.2,0.699999 0.1,0.300001 0.3,0.300001 0.8,-0.1 0.4,-0.4 0.5,-0.4 0.7,-0.1 l 0.2,0.199999 h 0.8 v 0.1 c 0.1,0.4 0.1,0.4 0.3,0.5 l 0.4,-0.1 h 0.5 c 0.4,0.2 0.5,0.4 0.4,0.6 v 0.7 l 0.1,0.4 c 0,0.3 0.1,0.4 0.4,0.200001 z m 0,-3.4 -0.1,-0.1 -0.2,-0.2 a 2,2 0 0 1 -0.6,-1 c 0,0 0,-0.2 0.2,-0.3 l 0.4,-0.6 0.3,-0.2000005 v 0.6000005 l -0.3,0.5 c -0.1,0.2 0,0.5 0.1,0.6 l 0.3,0.2 c 0,0.2 0.2,0 0.3,-0.3 0.1,-0.4 0.2,-0.5 0.7,-0.4 l 0.6,-0.1 c 0.1,-0.2 0,-0.5 -0.2,-0.6 h -1 l -0.1,-0.1 0.2,-0.7000005 0.2,0.2 c 0,0.2000005 0,0.2000005 0.4,0.2000005 0.4,0 0.7,0.2 0.8,0.6 0.1,0.3 0.1,0.5 0,0.8 l -0.1,0.2 -0.5,-0.1 c -0.5,-0.1 -0.6,-0.1 -0.7,0.2 0,0.4 -0.2,0.6 -0.4,0.6 z m 2.2,3.1 c 0,0 -0.2,-0.1 -0.2,0 0,0.1 0.2,0.1 0.2,0 z m -7.4,-0.2 a 3.8,3.8 0 0 0 0.8,-0.3 c 0.4,-0.2 0.4,-0.5 0,-0.5 -0.2,0 -0.4,0 -0.7,0.2 l -0.4,0.2 c -0.2,0 -0.5,0.3 -0.5,0.4 l 0.3,0.1 z m 4.2,-0.3 c 0.1,-0.1 0.2,-0.5 0,-0.6 0,-0.1 -0.6,0 -0.8,0.2 -0.2,0.2 -0.2,0.3 0.1,0.4 0.4,0.2 0.6,0.2 0.7,0 z m -4.6,-0.4 0.3,-0.1 c 0.2,0 0.2,-0.2 0.3,-0.7 v -0.6 c -0.2,-0.3 -0.1,-0.5 0,-0.6 v -0.2 h -0.7 l -0.5,0.2 c -0.4,0 -0.6,0.3 -0.3,0.5 0.3,0 0.5,0.3 0.5,0.4 0,0 0,0.2 -0.2,0.3 v 0.5 l 0.1,0.3 c 0,0.2 0.4,0.2 0.5,0 z m 3.1,0 c 0.2,-0.2 0.2,-0.2 0.1,-0.4 v -0.3 c -0.2,-0.2 -0.2,-0.2 -0.5,-0.1 -0.4,0 -1,0.3 -1,0.4 l 0.3,0.1 0.5,0.2 h 0.6 z m -13.2999998,-0.7 0.4,-0.2 0.5,-0.1 0.2,-0.4 c -0.1,-0.5 -0.1,-0.7 0.1,-1.2 l 0.3,-0.5 h 0.3999998 l 0.5,0.1 0.4,0.2 h 0.5 c 0.1,0 0.1,-0.2 0,-0.4 -0.2,-0.2 -0.2,-0.6 -0.1,-0.8 l 0.2,-0.1 c 0.1,0 0.3,0 0.4,-0.2 0.2,-0.1 0.4,-0.1 0.6,0.2 l 0.2,0.2 0.3,0.5 c 0.3,0.5 0.4,0.7 0.6,0.7 0.2,0 0.3,-0.4 0.3,-0.6 0,-0.4 0.2,-0.7 0.4,-0.8 l 0.3,-0.3 0.1,-0.3000005 c 0.1,0.1 0.5,0.2000005 0.5,0 v -0.3 c 0,-0.3 0.2,-0.3 0.5,-0.2 0.4,0.2 0.8,0 1,-0.4 0,-0.3 0,-0.4 0.8,-0.4 h 0.9 c 0.1,0.2 0.3,0.2 0.3,0.2 0.1,0 0.1,0 0,-0.2 l -0.2,-0.3 c -0.1,-0.1 -0.1,-0.2 0.1,-0.8 0.2,-0.4 0.3,-0.5 0.2,-0.6 v -0.7 c 0,-0.7 0,-0.8 -0.4,-1 h -1.1 l -0.1,-0.4 c 0,-0.6 -0.2,-0.7 -0.6,-0.4 l -0.3,0.2 -0.1,-0.2 c -0.1,-0.1 -0.2,-0.1 -0.4,0 -0.2,0 -0.4,0.1 -0.5,0.4 -0.2,0.3 -0.4,0.5 -0.6,0.5 -0.2,0 -0.3,0 -0.4,-0.2 a 303.3,303.3 0 0 1 -1,-0.8 l -0.2,0.1 -0.4,0.2 a 4,4 0 0 0 -1.6,0.6 l -0.5,0.2 -0.3,0.3 c -0.2,0.3 -0.4,0.3 -0.6999998,0.2 -0.5,-0.2 -0.6,-0.2 -0.7,-0.1 -0.1,0 -0.2,0 -0.2,0.2 0,0.2 -0.1,0.3 -0.3,0.4 l -0.3,0.2 -0.3,0.2 c -0.4,0 -0.5,0 -0.6,0.3 v 0.3 l 0.3,0.5 c 0.4,0.3 0.4,0.4 0.3,0.7 -0.3,0.5 -0.6,0.6 -0.9,0.3 -0.5,-0.3 -0.7,-0.3 -1,0.3 -0.2,0.3 -0.2,0.3 -0.4,0.3 -0.3,0 -0.3,0 -0.3,0.5 l -0.1,0.6000005 c -0.1,0.2 -0.1,0.3 0,0.4 0,0.4 -0.1,1.3 -0.3,1.6 -0.1,0.2 0,0.4 0.2,0.5 0.3,0.3 0.3,0.3 0.9,0.2 h 0.5 l 0.2,0.2 c 0.2,0.3 0.3,0.3 0.5,0.3 l 0.4,0.1 c 0.4,0.2 0.5,0.2 0.6,0 z m 1.6,-5.5000005 c -0.6,-0.1 -0.7,-0.3 -0.5,-0.6 l 0.2,-0.2 h 0.2 c 0.1,-0.1 0.2,-0.2 0.1,-0.4 l 0.1,-0.2 0.4999998,-0.1 c 0.2,0 0.3,0 0.4,0.2 0.2,0.3 0.2,0.6 0.2,1 l -0.3,0.3 H 9.7693012 Z m 0.8999998,-0.4 v -0.6 h -0.3 l -0.6999998,0.6 c 0,0.2 0.8999998,0.2 0.9999998,0 z m 3.6,-0.2 -0.2,-0.1 c -0.3,0 -0.5,-0.3 -0.5,-0.6 v -0.5 c -0.1,-0.3 -0.1,-0.4 0.3,-0.6 0.3,-0.2 0.4,-0.2 0.7,0 0.2,0.1 0.3,0.5 0.2,0.8 v 0.4 l -0.2,0.4 c -0.2,0.2 -0.2,0.3 -0.3,0.2 z m 0.2,-0.5 v -1 c 0,-0.1 -0.3,-0.2 -0.5,0 v 1.1 h 0.5 z m -3.8,6.2000005 c 0.1,0 0.1,-0.3 -0.1,-0.5 l -0.9999998,-0.4 c -0.3,0.1 0,0.7 0.5999998,1 h 0.5 z m 1.1,-0.3 c 0.2,-0.2 0.3,-0.5 0.3,-0.7 l -0.2,-0.1 h -1.1 c -0.1,0 -0.2,0 -0.3,-0.2 0,-0.2 0,-0.3 -0.2,-0.3 -0.3,-0.1 -0.5999998,0.3 -0.3999998,0.5 l 0.9999998,0.6 0.4,0.2 z m 1.8,-0.5 0.5,-0.3 c 0.1,-0.2 0.1,-0.2 0.3,-0.1 l 0.4,0.2 0.3,0.1 0.2,0.1 c 0.1,0.199999 0.3,0.1 0.6,0 0.3,-0.300001 0.4,-0.5 0.2,-0.7 -0.2,-0.200001 -0.6,-0.3 -1,-0.4 h -0.3 l -0.6,0.199999 c -0.4,0.400001 -0.6,0.400001 -0.9,0.200001 l -0.2,-0.200001 c -0.1,0 -0.2,0.200001 -0.2,0.500001 0,0.2 0.3,0.5 0.5,0.5 l 0.3,-0.1 z m 4,-0.6 c 0.4,-0.4 0.5,-0.6 0.5,-0.8 0.2,-0.6 0.2,-0.9 0,-1.6000005 0,-0.2 -0.2,-0.2 -0.3,0 l -0.5,0.7000005 c -0.2,0.2 -0.4,0.7 -0.4,1.2 l 0.1,1 z m 3.7,0.2 c 0.2,-0.1 0,-0.4 -0.3,-0.4 -0.1,0 -0.2,0.3 0,0.4 z m -1.4,-0.3 h -0.1 l 0.2,0.1 h 0.1 z m -7.6,-0.1 c 0,-0.1 0,-0.2 -0.2,-0.3 l -0.1,-0.2 c -0.1,0 -0.2,0.3 -0.1,0.5 l 0.3,0.2 v -0.2 z m 6.7,0 1,-0.4 v -0.3 l -0.4,-0.2 c -0.2,-0.2 -0.4,-0.1 -0.8,0.3 l -0.4,0.6 z m -2.3,-0.3 v -1.2 c -0.1,-0.2 -0.5,-0.4000005 -0.6,-0.4000005 l -0.1,0.3000005 v 0.7 c 0.1,0.4 0.3,0.9 0.5,1 0.2,0 0.3,-0.2 0.2,-0.4 z m -4,-0.2 -0.1,-0.5 c -0.2,-0.2 -0.4,-0.2 -0.5,0 l 0.3,0.7 c 0.2,0 0.3,0 0.3,-0.2 z m 2.5,-0.2 v -0.3 c -0.2,-0.2 -0.5,-0.3 -0.6,-0.1 -0.2,0 -0.1,0.3 0,0.4 z m 3.6,-0.6 v 0.1 z m -3,0 -0.3,-0.3 -0.1,0.2 c 0,0.2 0,0.2 0.2,0.2 h 0.2 z m 3.6,-0.5 c 0,0 -0.2,-0.1000005 -0.2,0 v 0.3 l 0.1,-0.1 z m -2.2,0 0.2,-0.1000005 v -0.5 l -0.2,-0.1 h -0.1 v 0.5 l -0.1,0.2000005 c 0,0.1 0.2,0.1 0.2,0 z m 1.7,-0.3000005 c 0.1,-0.3 0,-0.6 -0.3,-0.5 -0.1,0.2 0,0.8000005 0.1,0.7 z m -1,-0.5 c 0.1,-0.1 0,-0.3 0,-0.4 h -0.3 c -0.3,0 -0.2,0.5 0.1,0.5 z m 6.1,-1.2 v -0.2 c -0.2,-0.2 -0.3,-0.2 -0.5,0 v 0.3 h 0.5 z"
         style="fill:#000000;fill-opacity:0.5;stroke-width:0.326561"
         id="path2" /></g></g></svg>
