<?xml version="1.0" encoding="UTF-8" standalone="no"?>
<svg
   width="350"
   height="350"
   viewBox="0 0 92.604167 92.604167"
   version="1.1"
   id="svg4"
   sodipodi:docname="tree-cluster.svg"
   inkscape:version="1.4.3 (0d15f750, 2025-12-25)"
   xmlns:inkscape="http://www.inkscape.org/namespaces/inkscape"
   xmlns:sodipodi="http://sodipodi.sourceforge.net/DTD/sodipodi-0.dtd"
   xmlns="http://www.w3.org/2000/svg"
   xmlns:svg="http://www.w3.org/2000/svg">
  <defs
     id="defs4" />
  <sodipodi:namedview
     id="namedview4"
     pagecolor="#ffffff"
     bordercolor="#000000"
     borderopacity="0.25"
     inkscape:showpageshadow="2"
     inkscape:pageopacity="0.0"
     inkscape:pagecheckerboard="0"
     inkscape:deskcolor="#d1d1d1"
     inkscape:zoom="0.91676687"
     inkscape:cx="172.3448"
     inkscape:cy="163.07308"
     inkscape:window-width="1599"
     inkscape:window-height="796"
     inkscape:window-x="0"
     inkscape:window-y="25"
     inkscape:window-maximized="0"
     inkscape:current-layer="layer7" />
  <g
     inkscape:groupmode="layer"
     id="layer6"
     inkscape:label="tree">
    <g
       inkscape:groupmode="layer"
       id="layer7"
       inkscape:label="area">
      <circle
         style="fill:#ececec;stroke-width:1.28818"
         id="path3-1"
         cx="46.302086"
         cy="46.302086"
         inkscape:label="area"
         r="46.302082" />
    </g>
    <g
       inkscape:groupmode="layer"
       id="layer12"
       inkscape:label="terrain">
      <path
         d="m 61.057807,7.3253277 a 11.3256,11.616 65.7 0 0 -8.241908,3.4742693 11.3256,11.616 65.7 0 0 -3.121129,5.735306 10.0188,10.164 63.8 0 0 -7.767823,3.074258 10.0188,10.164 63.8 0 0 -2.445517,3.953424 12.6324,12.6324 0 0 0 -2.759075,-0.173518 12.6324,12.6324 0 0 0 -6.961106,2.093412 12.6324,12.6324 0 0 0 -9.997007,-4.917416 12.6324,12.6324 0 0 0 -12.6018268,12.656237 12.6324,12.6324 0 0 0 2.0690578,6.892713 11.1804,11.1078 90 0 0 -3.8267761,8.298536 11.1804,11.1078 90 0 0 7.0079971,10.37448 11.1804,11.1078 90 0 0 11.124589,10.681131 11.1804,11.1078 90 0 0 10.105575,-6.681047 11.1804,11.1078 90 0 0 0.790685,0.489103 11.1804,11.1078 90 0 0 10.000661,6.226226 11.1804,11.1078 90 0 0 4.024859,-0.816665 7.986,8.2038 79 0 0 2.792764,0.700979 7.986,8.2038 79 0 0 -0.07874,0.644562 7.986,8.2038 79 0 0 -1.853718,8.212485 7.986,8.2038 79 0 0 10.47576,4.74694 7.986,8.2038 79 0 0 4.339832,-3.394914 7.986,8.2038 79 0 0 5.787055,0.02009 7.986,8.2038 79 0 0 5.461521,-6.954009 9.075,9.2928 79.7 0 0 4.073356,-10.852431 9.075,9.2928 79.7 0 0 -3.209419,-4.251753 9.075,9.2928 79.7 0 0 1.032998,-7.92024 9.075,9.2928 79.7 0 0 -0.47774,-0.908799 A 10.0188,10.164 63.8 0 0 77.43329,48.118828 10.0188,10.164 63.8 0 0 79.763119,37.347779 11.3256,11.616 65.7 0 0 78.34572,22.978877 11.3256,11.616 65.7 0 0 72.405234,19.930809 11.3256,11.616 65.7 0 0 69.137159,10.536563 11.3256,11.616 65.7 0 0 61.033453,7.2569344 Z"
         style="fill:#00ca00;fill-opacity:1;stroke-width:1.05486"
         id="path1" />
    </g>
    <g
       inkscape:groupmode="layer"
       id="layer13"
       inkscape:label="deco"
       style="display:inline">
      <path
         d="m 22.483492,61.81512 4.6,-5.8 c 0.3,-0.4 0.3,-0.6 0.3,-1.5 v -1 a 41.6,41.6 0 0 0 -3.7,3.8 v 0.5 l -0.1,-0.4 c -0.1,-0.4 -0.1,-0.4 -0.7,0.2 l -0.5,0.4 1.1,-1.2 2.5,-2.7 1.4,-1.4 -0.1,-1.8 v -1.7 l -0.7,0.3 -0.5,0.3 -0.3,1 a 3,3 0 0 0 0,1.7 c 0.2,1 0.1,1 -0.1,0.2 l -0.2,-0.6 -0.8,1.2 -0.8,1.1 0.6,-1.1 c 0.9,-1.8 0.9,-1.8 1,-2.5 l 0.1,-0.7 -1,0.6 c -1,0.5 -1,0.6 -1.8,1.6 l -0.7,1.1 0.5,-1 0.6,-1 -0.8,0.5 c -1.2,0.8 -1,0.5 0.4,-0.4 1.3,-0.8 1.4,-1 1.2,-1 l -1.6,-0.2 h 1 l 1.1,0.1 1.3,-0.9 1.4,-0.9 0.5,-2.1 0.4,-2.2 -2.7,0.8 c -0.5,0.3 -0.9,1 -1,2.1 l -0.1,0.4 c 0,-0.6 -0.1,-0.6 -0.4,0 l -0.2,0.2 c 0,-0.1 0,-0.5 0.3,-0.9 0.2,-0.3 0.5,-0.8 0.5,-1.1 l 0.2,-0.5 -1,0.3 -1.8,1.1 c -1,0.8 -1,0.8 -1.8,2.2 -0.8,1.4 -0.8,1.4 -0.8,2.6 a 59.8,59.8 0 0 0 0,5.3 c 0,-1 -0.2,-1.7 -0.2,-1.8 l -0.7,1.3 c -0.7,1.8 -1,2.1 -0.3,0.5 0.7,-2 0.7,-1.9 -0.6,-1 -1.4,1 -1.4,0.8 0.1,-0.3 0.7,-0.4 1.2,-0.9 1.3,-1 v -2 c 0,-1.2 -0.1,-1.5 -0.3,-1.4 a 77.3,77.3 0 0 0 -2.4,2.1 l 1.4,-1.6 -1.8,0.4 -1.2,1.8 c 0.1,-0.4 0,-0.5 -0.6,-0.3 -0.4,0 -0.4,0 0.2,-0.2 0.6,-0.2 0.8,-0.3 1.1,-0.8 l 0.4,-0.6 -0.8,0.2 c -0.8,0.2 -0.8,0.2 -0.2,0 a 77,77 0 0 1 1.7,-0.6 c 1.7,-0.5 1.9,-0.6 2.5,-1.5 0.6,-1 1,-2 1,-2.1 l -2.3,0.5 c -1.9,0.5 -2.3,0.7 -4.3,1.9 l -2.3,1.2 2,-1.3 2.3,-1.4 -1,-0.1 c -0.7,0 -1,0 -1.7,0.4 l -0.7,0.4 0.6,-0.4 c 0.6,-0.4 0.6,-0.5 0,-0.5 h -1.8 l 1,-0.1 c 0.8,0 1,-0.1 0.8,-0.3 -0.1,-0.2 0,-0.2 0.4,0 1,0.4 2.7,0.2 5.1,-0.5 2,-0.5 2.5,-0.7 3.1,-1.3 0.5,-0.3 0.8,-0.6 0.8,-0.7 0,0 -2,-1 -2.7,-1.2 -0.6,-0.2 -1,0 -1.6,1 l -0.5,0.8 0.3,-0.7 0.4,-0.7 -0.5,0.3 a 40.7,40.7 0 0 0 -0.5,0.3 c 0.3,-0.4 0.3,-0.4 0,-0.4 -0.2,0 0,0 0.3,-0.2 l 1.3,-0.6 c 0.1,-0.2 -0.7,-0.4 -2,-0.4 -1,0 -1.5,0 -2.6,0.5 -1.2,0.5 -1.3,0.5 -1.8,1.3 -0.4,0.7 -0.5,0.7 -0.2,0.1 l 0.3,-0.7 h -0.2 l -0.7,0.3 -0.6,0.3 0.5,-0.3 1.2,-0.6 c 0.7,-0.3 0.6,-0.4 -0.3,-0.6 l -0.7,-0.1 h 1 c 0.7,0.2 1,0.2 1.6,0 1,-0.4 0.9,-0.5 -0.2,-1 -1.3,-0.7 -1,-0.7 0.4,0 1,0.4 1.2,0.5 2.2,0.4 l 1.2,-0.1 -0.9,-1.1 c -0.2,-0.2 -0.1,-0.2 0.2,0 l 0.5,0.3 v -0.5 0.1 c 0.2,1.2 0.3,1.2 3,2.1 l 2.6,0.9 2,-0.8 c 1.3,-0.5 2,-0.9 1.9,-1 h -2.3 c -0.4,0.1 -0.6,0.2 -0.5,0 l -0.6,-0.2 h 0.4 c 0.7,0 0.7,0 0.5,-0.3 -0.2,-0.2 -0.2,-0.2 0.1,0 0.4,0.2 1.2,0.2 1.3,0 l -0.6,-0.7 c -0.9,-0.8 -0.7,-0.8 0.2,0 0.6,0.6 1,0.8 1.5,1 0.8,0.2 1.3,0.1 1.2,-0.2 a 12,12 0 0 0 -2.7,-3.3 c -1,-1 -1,-1 -1.9,-1.3 -1.1,-0.2 -1.2,-0.2 -1.3,0.5 -0.2,0.7 -0.3,0.8 -0.2,0.1 v -0.6 l -0.3,0.3 -0.4,0.2 c -0.1,0 0,-0.2 0.4,-0.4 0.6,-0.3 0.5,-0.4 -0.5,-0.5 -0.6,-0.1 -1.1,0 -3,0.7 a 98.1,98.1 0 0 0 -4,1.5 l 1,-0.5 c 0,-0.1 -0.8,-0.5 -1.4,-0.6 0,0 -0.4,0 -0.7,0.2 a 2,2 0 0 1 -0.6,0.4 l 0.5,-0.4 0.5,-0.4 -0.2,-0.1 -0.6,-0.2 c -0.2,0 -0.3,0 -0.2,-0.1 h 0.6 a 68.6,68.6 0 0 0 2.4,1 l 1,-0.6 c 0.1,0 -0.1,-0.3 -0.5,-0.6 -0.5,-0.4 -0.7,-0.5 -1.1,-0.5 h -0.6 0.4 l 0.4,-0.2 -0.4,-0.7 c -0.6,-0.7 -0.3,-0.5 0.5,0.4 l 1.3,1 0.6,0.4 1.5,-0.5 1.5,-0.7 -0.8,-0.7 -0.8,-0.6 -2.2,-0.2 -2.1,-0.3 h 3.6 c 0,0 -1.1,-0.9 -2.6,-1.8 l -2.8,-1.8 2.2,1.1 c 2,1.1 2.2,1.2 2,0.8 l -0.4,-0.7 c -0.3,-0.3 -0.7,-1.2 -0.5,-1.1 l 0.7,1.2 c 0.7,1.2 0.7,1.2 2.3,2.2 l 1.5,1 -0.1,-0.4 -0.3,-0.9 c -0.2,-0.2 -0.2,-0.4 0,-0.4 l 0.2,-0.3 c 0,-0.6 0.1,-0.4 0,0.2 0,0.4 0.2,1 0.4,1.5 l 0.3,0.9 1.5,0.3 1.6,0.1 a 10,10 0 0 0 -1,-3.3 c -0.5,-1 -1.6,-1.7 -3.4,-2.1 -1.8,-0.5 -1.9,-0.5 -0.6,-0.4 l 1.1,0.2 -1.1,-1.4 a 9.2,9.2 0 0 1 -1.1,-1.3 l 0.4,0.4 c 0.3,0.3 0.4,0.4 0.5,0.3 l 0.2,0.1 c -0.1,0.4 1.7,2 2.4,2.3 l 0.6,0.2 -0.5,-1.4 c -0.4,-1.3 -0.5,-1.6 -1.1,-2.1 -0.6,-0.5 -0.6,-0.6 -0.2,-0.3 l 0.6,0.4 c 0,0 0,-0.5 -0.3,-1 l -0.3,-1 0.6,1.3 c 1.4,3.7 1.7,4.5 2.1,5 l 0.5,0.3 c 0,-0.2 0.3,-2.3 0.2,-2.6 a 3,3 0 0 0 -0.7,-1 l -0.5,-0.7 c 0,-0.2 0.1,-0.2 0.2,0 0,0.2 1,1.3 1.1,1.2 l 0.1,-0.7 c 0,-0.4 0,-0.7 -0.3,-1.1 l -1.7,-2.6 v -0.9 c -0.1,-0.5 -0.2,-0.8 0,-0.6 l 0.2,1.1 a 5,5 0 0 0 1,1.9 c 0.8,1.2 1,1.4 1,1 l 0.2,-2 -0.2,3.9 -0.2,3.8 0.6,1.8 c 0.5,1.5 0.6,1.8 1,2.2 a 29.3,29.3 0 0 1 2.4,2.2 l -0.2,-0.8 -0.3,-1.1 c 0,-0.2 0.2,0.1 0.4,0.7 0.1,0.6 0.3,1 0.4,1 l 0.4,-0.7 c 0,-0.1 0.1,-0.4 0.3,-0.5 0.2,-0.2 0.2,-0.1 -0.1,0.5 l -0.4,1 c 0,0.3 0.6,1.6 0.9,1.7 l 1.2,-1.6 1,-1.7 -0.6,-2 -0.6,-2 -1,-0.9 -1,-1 h -1.1 c -1.6,-0.2 -1.7,-0.3 -0.5,-0.2 l 1.1,-0.1 -0.8,-1 -0.8,-1 c 0,-0.2 0,-0.2 0.3,0.2 l 1.6,1.6 v -1 l -0.2,-1.4 0.2,1 0.2,-0.5 c 0.2,-0.4 0.2,-0.4 0,0.2 -0.1,1.3 0.3,2.3 1.4,3.1 0.6,0.5 0.6,0.5 0.8,-0.6 0.1,-0.5 0,-1.4 -0.3,-3 l -0.3,-1.8 0.2,0.5 0.7,2.7 0.3,-1.1 0.3,-1.3 c 0,0 0,1.2 -0.3,2.8 l -0.4,2.8 0.6,1.5 0.7,1.6 c 0.2,0 0.5,-0.6 0.9,-2.1 0.4,-1.5 0.4,-1.6 0.1,-4.4 l -0.2,-2.9 -1,-2.1 c -1.3,-3 -1.2,-3 0.4,0.2 l 0.4,0.9 0.1,-1.3 c 0.1,-3 0.3,-3.8 0.3,-1.2 v 1.4 l 1,-1.5 1,-1.4 -1,1.6 c -1.2,1.9 -1.1,1.8 -0.8,3.7 0,0.6 0.1,0.7 0.3,0.5 0.5,-0.3 1,-1.4 1.1,-2.1 0,-0.4 0.2,-0.6 0.2,-0.6 v 1.1 l 0.2,-0.3 c 0.2,-0.1 -0.2,0.4 -0.7,1.3 l -1,1.4 0.3,1.6 0.3,1.6 0.6,-0.9 c 1.3,-1.7 2,-3 2.4,-4.4 l 0.6,-1.4 c 0,0 0,0.5 -0.3,1.2 a 5,5 0 0 0 -0.3,1.2 l 1.1,-0.9 1,-0.8 -1,1.1 c -1,1 -1.4,1.3 -1.8,2 -0.6,1 -0.6,1 -0.3,1.8 l 0.2,0.8 0.2,-0.6 c 0.5,-1 0.6,-1.4 0.4,-0.6 -0.4,1.1 -0.4,1.2 0,0.9 l -0.2,0.3 c -0.3,0.4 -0.4,0.7 -0.5,1.5 l 0.1,1 0.9,-0.5 0.7,-0.5 0.7,-1.5 a 18,18 0 0 0 0.9,-2 l -0.1,0.7 a 1415,1415 0 0 1 -1,2.5 l 1.2,-0.8 1.2,-0.8 -1.9,1.5 c -1.7,1.3 -2,1.6 -1.4,1.4 h 0.6 l -0.7,0.2 c -0.7,0.1 -1.7,0.6 -2.6,1 l -1.5,0.9 -0.9,1.5 a 134.6,134.6 0 0 1 -1.8,3.2 25.9,25.9 0 0 0 7.2,-1.8 c 0.5,-0.3 3.5,-4 4,-4.9 0.5,-1 0.5,-1 0.1,-2.5 l -0.2,-1.2 0.3,1 0.4,1 c 0.1,0.1 0.5,-1 0.6,-1.7 0.1,-0.9 0.2,-1 0.2,-0.2 v 0.7 l 0.4,-0.5 0.5,-0.5 -0.5,0.7 c -0.5,0.7 -1.4,2.8 -1.3,2.9 l 1.5,-1.3 1.4,-1.2 -1,1.1 -1.1,1.3 c 0,0 0.3,0.2 0.7,0.2 0.7,0 1,-0.2 2.1,-0.7 l 1.4,-0.7 -1,0.7 -1.1,0.6 h 1 c 1.5,0.1 1.1,0.2 -1,0.3 -2.8,0 -2.7,0 -3.8,1.5 l -1,1.3 h 1 c 0.8,0 1.4,-0.3 2.1,-0.8 1.2,-0.6 1.4,-0.7 0.4,0 -0.8,0.5 -0.8,0.6 -0.1,0.5 0.7,0 0.9,0 0.2,0.1 a 23,23 0 0 0 -4.1,1 l -0.6,0.7 -0.2,0.5 2.2,-0.1 2.4,-0.2 c 0.2,0 0.8,-0.4 1.4,-1 l 1.1,-0.8 -0.9,0.9 -1,0.9 c -0.1,0.2 0.7,0 1.7,-0.4 a 9,9 0 0 1 1.2,-0.5 c 0,0 -0.3,0.3 -0.9,0.5 l -0.9,0.5 a 45.8,45.8 0 0 0 2.5,0.5 h -2.3 l 1.3,0.6 1.2,0.6 -1.7,-0.6 c -1.6,-0.7 -1.7,-0.8 -2.8,-0.7 l -1.2,0.2 0.8,0.6 0.5,0.3 -1,-0.5 c -0.8,-0.4 -1,-0.4 -4,-0.1 l -1.7,0.5 -1.3,0.6 0.8,0.4 0.7,0.5 1,-0.3 a 16.5,16.5 0 0 0 1.7,-0.5 l -0.3,0.2 1.2,0.1 c 0.5,0 1,0 0.8,0.1 v 0.3 c 0.2,0.1 0,0.1 -0.1,0 -0.5,-0.3 -1.5,-0.3 -2.7,0 l -1,0.3 1.2,0.7 1.2,0.7 -1.3,-0.5 c -1.4,-0.6 -1.4,-0.5 -0.6,0.5 l 0.2,0.4 -0.7,-0.8 c -0.6,-0.8 -0.7,-0.9 -1.8,-1.3 -0.7,-0.3 -1.3,-0.5 -1.5,-0.4 a 2874.4,2874.4 0 0 0 -3.8,0.7 c -0.2,0 0,0.4 1.5,2 l 1.6,1.7 1.1,0.3 1.4,0.3 4.6,-1 c 0.3,0 1.1,-0.6 2,-1.2 1.4,-1.1 2,-1.4 0.8,-0.5 -0.3,0.3 -0.6,0.5 -0.5,0.6 h 1.5 c 0,0.1 -0.4,0.2 -1,0.2 -0.8,0 -1.8,0.4 -2,0.8 l 2.4,0.5 a 18,18 0 0 1 2,0.4 l -2.5,-0.2 0.4,0.6 -0.3,-0.2 c -1,-0.8 -2,-0.8 -4.5,-0.1 l -2,0.6 c 0,0 0.1,0.2 0.4,0.3 0.3,0.3 0.7,0.3 2,0 a 19.9,19.9 0 0 0 2.3,-0.2 l -0.5,0.1 -0.6,0.1 0.2,0.3 c 0.2,0.2 0.2,0.2 -0.1,0 h -1.5 l -1,0.3 1.5,1 a 6,6 0 0 0 2.6,1.1 c 1.4,0.3 1.4,0.5 0.1,0.2 l -1,-0.2 0.6,0.5 c 0.4,0.4 -0.1,0.1 -2.1,-1 -3,-1.9 -4.1,-2.5 -5.1,-2.6 h -0.7 l 0.6,1 1.1,1.4 c 0.8,0.6 2.5,1.2 3.6,1.3 h 0.4 -0.5 l -0.2,0.2 c 0,0 0.4,0.4 1.6,1 a 9,9 0 0 1 1.5,1 l -2,-1 c -1.7,-1 -3,-1.5 -3,-1.3 l 0.6,1 c 0.6,1 0.7,1 2.6,2 0.3,0 0.1,0 -0.4,-0.2 l -1,-0.2 c -0.1,0 0.2,0.4 2,2.2 0.8,0.9 0.4,0.6 -0.6,-0.4 l -1,-0.8 c -0.2,-0.2 0.1,1.7 0.4,2 0.1,0.3 0.2,0.3 0,0.2 -0.2,-0.2 -0.2,-0.2 -0.2,1 l -0.3,-1.6 c -0.3,-2 -0.3,-2 -1.1,-3 -0.9,-1.1 -1,-1.2 -1,-0.7 l -0.1,-0.4 c -0.3,-0.7 -1,-1.5 -1.5,-1.8 -0.3,-0.2 -0.3,-0.1 0,1.3 0.1,1.2 0.3,1.6 1,3 1,1.6 1,1.8 0,0.3 l -0.6,-1 c 0,0.1 0,1.2 0.3,2.4 a 28.2,28.2 0 0 1 0,1.2 c 0,-0.8 -0.2,-1.3 -0.3,-1.2 l -0.3,1 -0.3,0.8 0.2,-1.1 0.3,-1.3 -0.6,-3 c -0.4,-2.3 -0.7,-3.3 -1,-3.8 -0.4,-0.6 -0.5,-0.6 -0.6,0.2 -0.2,1 0,1.7 0.3,2.3 0.2,0.4 0.2,0.4 0,0.2 l -0.3,-0.3 0.1,1 v 0.4 l -0.2,-0.6 c 0,-0.2 -0.1,-1.9 -0.2,-1.8 l -0.6,0.5 -0.4,0.5 0.4,-0.7 c 0.5,-0.6 0.5,-0.7 0.6,-1.7 l -0.1,-1.6 c -0.3,-0.4 -3.6,-3.8 -3.8,-3.8 l -0.6,2 a 12.5,12.5 0 0 0 -0.4,5.6 52.7,52.7 0 0 0 4.7,5 18,18 0 0 1 -1.3,-1.1 c -0.2,-0.2 -0.3,-0.2 -0.5,0 -0.4,0.6 -0.3,1.1 0.5,2.4 l 0.7,1.3 -0.8,-1.2 -0.8,-1 a 7,7 0 0 0 -0.6,2.5 28.7,28.7 0 0 1 0.2,1.4 c -0.4,-1.5 -0.5,-1.6 -0.8,-0.4 l -0.3,0.6 0.4,-1.5 a 40,40 0 0 0 1.2,-4.6 26,26 0 0 0 -2.5,-2.3 c -0.3,-0.2 -0.3,-0.2 -0.3,0.6 v 1.4 c 0,0.6 0.3,1.3 0.9,2 0.2,0.3 0.3,0.5 0.2,0.6 l -0.1,0.5 -0.1,0.4 v -0.5 c 0,-0.4 0,-0.7 -0.4,-1.2 l -0.5,-0.6 -0.3,2.8 a 2141.7,2141.7 0 0 1 -0.2,0.1 v -2.9 l -2.2,2.5 v 1 c 0,1.4 -0.1,2.8 -0.2,2.6 v -1.6 c 0,-2 -0.2,-2.1 -0.6,-0.5 l -0.3,0.9 v -0.6 c 0.2,-0.2 0.2,-0.5 0.1,-0.5 l -0.9,0.8 z m 11.6,-25.2 1,-0.4 0.2,-1.1 c 0.2,-1 0.1,-2.9 -0.2,-3 -0.1,-0.2 -1.3,2 -1.6,2.9 -0.3,0.8 -0.5,2 -0.4,2 z m -19.8,18.8 c 0.1,-0.2 0.2,-0.2 0.1,0 l -0.1,0.2 z m 7.7,2.9 c 0.1,-0.1 0.2,-0.2 0.1,0 l -0.1,0.2 c -0.1,0 0,0 0,-0.2 z m 2.6,-6.2 h 0.3 l -0.3,0.2 c -0.3,0 -0.3,0 0,-0.2 z m 16.8,5.6 0.2,0.1 h -0.1 c -0.1,0 -0.1,-0.1 0,-0.1 z m -4.7,-3.7 c 0,-0.2 0.1,-0.2 0.2,0 l -0.1,0.4 c 0,0 -0.1,-0.2 0,-0.4 z m -22.8,-18 0.2,0.2 c 0,0.1 -0.1,0 -0.2,0 -0.1,0 -0.2,-0.1 0,-0.1 z m 9.9,6.4 0.2,0.1 h -0.2 c -0.1,-0.1 -0.1,-0.2 0,-0.1 z m -2.7,-3.2 c 0.1,-0.2 0.1,-0.2 0.1,0 l -0.1,0.2 c -0.1,0 0,-0.1 0,-0.2 z m 21.2,13.5 0.4,0.2 c 0.1,0.1 0,0.1 -0.2,0 z m -23.3,-18.3 c -0.1,-0.3 0,-0.2 0.3,0.1 0.1,0.2 0.1,0.3 0,0.2 a 0.8,0.8 0 0 1 -0.3,-0.3 z"
         style="fill:#000000;stroke-width:0.538646"
         id="path2" />
      <path
         d="m 49.721193,66.386784 5.298965,-0.268504 c 0.390675,0.01502 0.503108,-0.102083 0.977193,-0.502094 a 2.178,2.178 0 0 0 0.518125,-0.492757 30.2016,30.2016 0 0 0 -3.769957,-0.198886 l -0.317613,0.190162 0.156472,-0.209848 c 0.132119,-0.278241 0.132119,-0.278241 -0.419696,-0.312945 l -0.483421,-0.05906 1.240416,0.0207 2.666328,0.129479 1.401557,0.04039 0.923818,-0.868414 0.948171,-0.800021 -0.463736,-0.220197 -0.439382,-0.151805 -0.65958,0.311931 c -0.478754,0.170477 -0.635226,0.380325 -0.948171,0.800021 -0.425378,0.536797 -0.562165,0.585505 -0.136787,0.04871 l 0.151805,-0.439382 -1.054923,0.06738 -1.030568,0.135773 0.913467,-0.248206 c 1.440929,-0.281895 1.440929,-0.281895 1.870975,-0.589159 l 0.547147,-0.19483 -0.834724,-0.396356 c -0.786017,-0.25957 -0.85441,-0.235216 -1.748192,-0.148151 l -0.962175,0.111419 0.77668,-0.199498 0.801035,-0.131105 -0.624876,-0.239884 c -0.947158,-0.279255 -0.64923,-0.308277 0.483421,0.05906 1.015551,0.254901 1.132652,0.367334 1.059591,0.162154 l -0.594841,-1.021232 0.448718,0.610872 0.448718,0.610872 1.132652,0.367335 1.132651,0.367334 1.407239,-0.809356 a 10.164,10.164 0 0 0 1.407239,-0.809357 L 60.17807,60.043035 c -0.370988,-0.176158 -0.918135,0.01867 -1.553361,0.398996 -0.317613,0.190163 -0.361653,0.28291 -0.273574,0.09742 0.317613,-0.190163 0.268906,-0.326949 -0.07306,-0.205181 -0.273574,0.09742 -0.341967,0.121769 -0.322281,-0.03937 l 0.61554,-0.219184 0.869428,-0.155459 0.341967,-0.121769 -0.605191,-0.401024 c -0.302595,-0.200512 -0.927471,-0.440396 -1.50364,-0.543493 -0.85441,-0.235216 -0.85441,-0.235216 -2.021765,-0.05074 -1.118648,0.321267 -1.118648,0.321267 -1.841953,0.887086 a 43.4148,43.4148 0 0 0 -2.888554,2.492809 l 0.87511,-1.005201 -1.050254,0.296914 c -1.323828,0.394328 -1.621755,0.42335 -0.390674,-0.01502 1.367867,-0.487076 1.367867,-0.487076 0.259569,-0.786017 -1.201045,-0.342981 -1.064258,-0.391688 0.20518,-0.07306 0.532129,0.195844 1.083944,0.230548 1.152338,0.206194 l 1.084958,-0.848729 c 0.630558,-0.609858 0.78703,-0.819706 0.694283,-0.863746 A 56.1198,56.1198 0 0 0 51.403422,58.77482 l 1.538344,-0.0083 -1.049241,-0.782362 -1.489636,0.145108 c 0.273573,-0.09741 0.249219,-0.165808 -0.170477,-0.478753 -0.234202,-0.224866 -0.209848,-0.156473 0.185495,0.08808 0.395342,0.244552 0.556482,0.264238 0.991196,0.186508 l 0.527462,-0.03369 -0.512444,-0.356985 c -0.44405,-0.381339 -0.44405,-0.381339 -0.04871,-0.136787 l 1.09328,0.689616 c 1.024886,0.713969 1.25442,0.709301 1.987062,0.60255 0.825388,-0.06271 1.646109,-0.354957 1.621755,-0.42335 L 54.794065,57.259226 A 9.9462,9.9462 0 0 0 51.640662,55.76188 C 50.713191,55.321484 49.85878,55.086268 49.85878,55.086268 l 1.801568,0.514472 1.733174,0.538824 L 53.1303,55.61675 c -0.40001,-0.474085 -0.517111,-0.586518 -1.04924,-0.782363 l -0.624876,-0.239883 0.507775,0.127451 c 0.532129,0.195844 0.576169,0.103097 0.273574,-0.09742 l -0.848729,-1.084958 0.561151,0.493772 c 0.375657,0.405692 0.468404,0.449732 0.48809,0.288591 0.01968,-0.16114 0.136786,-0.04871 0.234202,0.224866 0.243537,0.683934 1.111952,1.607751 2.649282,2.678705 1.278774,0.777695 1.581369,0.978207 2.157538,1.081304 l 0.805703,0.09843 c 0,0 -0.423351,-1.621755 -0.662221,-2.076155 -0.146122,-0.41036 -0.492757,-0.518125 -1.293792,-0.38702 l -0.595854,0.05804 0.478753,-0.170476 0.571501,-0.126437 -0.415028,-0.08341 A 29.5482,29.5482 0 0 0 55.99714,55.443634 c 0.390675,0.01502 0.390675,0.01502 0.180827,-0.141455 -0.04871,-0.136787 0,0 0.253887,0.06372 0.395343,0.244552 0.859078,0.46475 0.995865,0.416042 0.136787,-0.04871 -0.19483,-0.547147 -0.760649,-1.270452 a 3.63,3.63 0 0 0 -1.424897,-1.18805 C 54.314701,52.883043 54.290348,52.81465 53.6261,52.897047 c -0.595855,0.05804 -0.595855,0.05804 -0.161141,-0.01969 l 0.61554,-0.219184 -0.1171,-0.112433 -0.53213,-0.195844 -0.419696,-0.312945 0.463736,0.220198 0.834724,0.396356 c 0.463736,0.220198 0.507776,0.127451 0.151805,-0.439382 l -0.146123,-0.41036 0.380325,0.635226 a 2.178,2.178 0 0 0 0.751313,0.811385 c 0.64923,0.308277 0.717623,0.283923 0.537811,-0.653898 -0.204166,-1.006215 -0.155459,-0.869428 0.09742,0.273573 0.243538,0.683934 0.316599,0.889114 0.809357,1.407239 l 0.678252,0.606204 0.186508,-0.991196 c 0.01969,-0.161141 0.01969,-0.161141 0.04871,0.136786 l 0.121769,0.341967 0.24922,-0.165808 c 0.224866,-0.234202 0.24922,-0.165809 0.02435,0.06839 -0.537811,0.653898 -0.606204,0.678252 0.168449,2.637306 l 0.725945,1.822267 1.415561,0.728987 c 0.859078,0.46475 1.391208,0.660594 1.366854,0.592201 -0.07306,-0.20518 -0.546133,-0.884446 -1.034223,-1.173037 l -0.282909,-0.361653 c 0.185494,0.08808 0.16114,0.01969 -0.146123,-0.41036 -0.04871,-0.136787 0.06839,-0.02435 0.278241,0.132118 0.307264,0.430046 0.307264,0.430046 0.302596,0.200513 -0.0047,-0.229534 0.08808,-0.185495 0.117101,0.112432 0.09742,0.273574 0.404678,0.70362 0.565819,0.723306 l 0.122782,-0.737309 c 0.03004,-0.781349 0.122783,-0.73731 0.07306,0.20518 -0.0347,0.551815 0.03836,0.756995 0.18448,1.167355 0.19483,0.547147 0.521779,0.816052 0.653898,0.537811 0.20518,-0.07306 0.470432,-1.70882 0.583879,-2.905198 0.06941,-1.103629 0.06941,-1.103629 -0.218171,-1.694816 -0.336285,-0.727973 -0.429032,-0.772013 -0.883432,-0.533143 -0.454399,0.23887 -0.547147,0.19483 -0.09275,-0.04404 l 0.317613,-0.190162 -0.346634,-0.107765 c -0.161141,-0.01969 -0.278242,-0.132119 -0.302596,-0.200512 l 0.415028,0.08341 c 0.463736,0.220198 0.507776,0.127451 0.05906,-0.483421 -0.214516,-0.386007 -0.517111,-0.586519 -1.864279,-1.33986 a 71.2206,71.2206 0 0 0 -2.694336,-1.506682 l 0.786017,0.25957 c 0,0 -0.0824,-0.664248 -0.272559,-0.981861 -0.04871,-0.136787 -0.302596,-0.200512 -0.48809,-0.288592 a 1.452,1.452 0 0 1 -0.463736,-0.220197 l 0.415028,0.08341 0.439382,0.151804 -0.267891,-0.752327 c 0.136787,-0.04871 0.209848,0.156473 0.282909,0.361653 a 49.8036,49.8036 0 0 0 0.633199,1.778227 c 0,0 0.741977,0.352317 0.878764,0.30361 l 0.0347,-0.551815 c -0.0093,-0.459068 -0.0824,-0.664248 -0.316599,-0.889114 l -0.282909,-0.361653 0.234201,0.224866 0.370989,0.176158 0.103097,-0.576168 c 0.07874,-0.644562 0.151805,-0.439382 0.07773,0.434714 l -0.0207,1.240416 0.102083,0.503108 1.044572,0.552829 c 0.580837,0.33263 1.112966,0.528475 1.088612,0.460081 l 0.03004,-0.781349 -0.03836,-0.756995 -0.897436,-1.221744 C 60.661281,49.92954 60.261271,49.455454 60.30531,49.362707 l 0.824375,1.016564 0.824374,1.016565 c 0.06839,-0.02435 10e-4,-1.079276 -0.20782,-2.315025 l -0.300568,-2.359064 0.379311,1.714502 c 0.310917,1.738856 0.310917,1.738856 0.535783,1.504654 l 0.103097,-0.576168 0.42071,-0.766332 -0.347648,0.971512 c -0.303609,0.878764 -0.303609,0.878764 -0.182854,2.300007 l 0.164794,1.328495 0.200512,-0.302595 c 0.180827,-0.141455 0.312945,-0.419696 0.332631,-0.580837 0.08808,-0.185494 0.132119,-0.278241 0.224866,-0.234201 0.04871,0.136786 0.117101,0.112433 0.297927,-0.02902 0.317614,-0.190163 0.273574,-0.09741 -0.08808,0.185494 l -0.694283,0.863746 -0.308277,0.64923 0.570486,0.95284 c 0.263224,0.522793 0.570487,0.952839 0.638881,0.928485 a 7.26,7.26 0 0 0 1.427938,-2.049773 c 0.235216,-0.854411 0.148151,-1.748192 -0.495397,-2.906212 -0.599509,-1.250766 -0.623863,-1.31916 -0.126437,-0.5715 l 0.497425,0.747659 0.157487,-1.289125 0.318627,-1.269438 -0.05906,0.483422 c -0.06373,0.253887 -0.01502,0.390674 0.07773,0.434714 l 0.02435,0.06839 c -0.273573,0.09741 -0.39737,1.914 -0.20254,2.461147 l 0.170477,0.478754 0.577183,-0.976179 c 0.533143,-0.883432 0.645576,-1.000533 0.655925,-1.620741 0.0347,-0.551815 0.01035,-0.620209 0.08808,-0.185495 l 0.07773,0.434714 0.401024,-0.60519 0.445064,-0.697938 -0.552829,1.044573 c -1.350209,2.484487 -1.614447,3.04097 -1.697858,3.455998 l 0.0093,0.459068 1.539358,-1.087598 a 2.178,2.178 0 0 0 0.235216,-0.85441 c 0.03937,-0.322281 0.07874,-0.644562 0.21553,-0.69327 0.06839,-0.02435 0.06839,-0.02435 0.04871,0.136787 -0.112433,0.117101 -0.250233,1.245084 -0.113447,1.196377 l 0.386007,-0.214516 c 0.224866,-0.234202 0.405692,-0.375657 0.513457,-0.722292 l 0.597882,-2.216595 c 0.04871,0.136786 0.20518,-0.07306 0.474086,-0.400011 l 0.337299,-0.351303 -0.513457,0.722292 c -0.200513,0.302595 -0.445064,0.697937 -0.592201,1.366853 -0.230548,1.083944 -0.318627,1.269439 -0.06941,1.10363 a 69.333,69.333 0 0 1 -0.992211,0.892768 l -2.19427,1.629063 -0.733655,1.186028 c -0.645576,1.000533 -0.733655,1.186027 -0.724319,1.645095 a 21.2718,21.2718 0 0 1 -0.1585,2.3684 l 0.356984,-0.512443 0.513458,-0.722292 -0.264238,0.556483 -0.445064,0.697938 0.664248,-0.0824 0.41036,-0.146122 c 0.253888,0.06373 0.185495,0.08808 -0.293259,0.258555 l -0.752327,0.267892 c -0.136787,0.04871 -0.577183,0.976179 -0.548161,1.274106 l 1.489636,-0.145108 1.39689,-0.189149 0.777694,-1.278774 0.846088,-1.303128 0.02537,-1.010883 0.04972,-0.942489 -0.448718,-0.610873 c -0.594841,-1.021232 -0.619195,-1.089626 -0.146123,-0.41036 l 0.585505,0.562165 c 0,0 0.151804,-0.439382 0.142468,-0.89845 l 0.210862,-0.922804 c 0.136787,-0.04871 0.136787,-0.04871 0.07306,0.205181 l -0.172505,1.679798 0.586519,-0.517111 0.674598,-0.702606 -0.425378,0.536797 0.273573,-0.09742 c 0.341967,-0.121769 0.273574,-0.09741 -0.01969,0.161141 -0.816052,0.521779 -1.124329,1.171009 -1.149697,2.181892 0.03369,0.527461 0.126437,0.571501 0.761663,0.191176 0.317613,-0.190162 0.767345,-0.658566 1.505668,-1.615059 0.513457,-0.722292 0.987543,-1.122302 0.87511,-1.005201 L 71.09767,54.99876 c -0.06839,0.02435 -1.251781,1.678785 -1.159033,1.722824 l 0.796366,-0.360638 0.772013,-0.429033 -1.676144,1.136306 -1.768892,1.092266 -0.484435,1.020219 -0.528476,1.112966 c 0.04871,0.136787 0.459068,-0.0093 1.504655,-0.535783 1.094294,-0.389661 1.162687,-0.414015 2.555922,-1.911973 l 1.461628,-1.522312 0.704634,-1.483955 c 1.081304,-2.157538 1.037264,-2.064791 0.09741,0.273574 l -0.308277,0.64923 0.816052,-0.521779 c 1.603084,-1.341486 2.125877,-1.60471 0.70362,-0.404679 l -0.767345,0.658566 1.328496,-0.164794 1.260102,-0.140441 -1.440929,0.281895 c -1.465282,0.213502 -1.489636,0.145109 -2.340392,1.218703 -0.337299,0.351303 -0.312945,0.419697 -0.151805,0.439382 0.415029,0.08341 1.284457,-0.07205 1.714503,-0.37931 l 0.41036,-0.146123 -0.317613,0.190162 -0.361653,0.28291 0.297927,-0.02902 -1.006214,0.204166 -1.260103,0.140441 -0.762677,0.8881 -0.762677,0.8881 0.756995,-0.03836 c 1.513991,-0.07672 2.588599,-0.305235 3.614499,-0.670542 L 75.7537,58.118875 75.025726,58.45516 c -0.478753,0.170476 -0.86476,0.384993 -0.840406,0.453386 l 0.991197,0.186508 0.991197,0.186508 -1.289124,-0.157486 a 5.445,5.445 0 0 0 -1.929019,-0.0067 c -0.732641,0.106751 -0.801034,0.131105 -1.089626,0.619195 l -0.356984,0.512443 0.41036,-0.146123 c 0.82072,-0.292245 1.050254,-0.296913 0.503107,-0.102083 -0.82072,0.292245 -0.82072,0.292245 -0.542479,0.424364 0.253888,0.06373 0.253888,0.06373 -0.20518,0.07306 l -1.0259,0.365306 c -0.29326,0.258556 -0.586519,0.517112 -0.493772,0.561151 l 0.624876,0.239884 0.600523,0.17149 1.187041,-0.345621 a 13.068,13.068 0 0 0 1.416575,-0.350289 l -0.317613,0.190163 a 1027.8708,1027.8708 0 0 1 -1.846621,0.657552 l 1.015551,0.254901 c 0.532129,0.195845 1.01555,0.254902 0.971511,0.347649 l -1.660113,-0.333645 c -1.591719,-0.357998 -1.914,-0.39737 -1.425911,-0.108778 l 0.326949,0.268905 c 0.04871,0.136787 -0.16114,-0.01969 -0.556483,-0.264237 a 5.082,5.082 0 0 0 -1.78655,-0.905146 l -1.181359,-0.504121 -1.211395,0.277227 a 97.7196,97.7196 0 0 1 -2.608284,0.466376 18.8034,18.8034 0 0 0 4.333749,3.080744 c 0.395342,0.244551 3.838351,0.174532 4.590678,-0.09336 0.801035,-0.131105 0.869428,-0.155459 1.470964,-1.063244 l 0.537811,-0.653898 -0.401024,0.60519 -0.37667,0.673584 c 0.04871,0.136787 0.732641,-0.106751 1.23108,-0.438368 0.566833,-0.355971 0.65958,-0.311931 0.161141,0.01969 l -0.361653,0.282909 0.483422,0.05906 0.483421,0.05906 -0.620208,-0.01035 c -0.595855,0.05804 -2.124863,0.525433 -2.144548,0.686574 l 1.381871,0.201526 c 0.781349,0.03004 1.357518,0.133133 1.313478,0.22588 l -1.10363,-0.06941 a 7.986,7.986 0 0 0 -1.240417,-0.0207 l 0.263224,0.522793 a 2.904,2.904 0 0 0 1.371522,0.821734 l 0.995865,0.416042 -0.854411,-0.235215 -0.878764,-0.303609 0.517112,0.586518 c 0.707273,0.904132 0.404678,0.70362 -0.605191,-0.401024 -1.317132,-1.53469 -1.317132,-1.53469 -2.669982,-1.438289 l -1.191709,0.116087 0.517112,0.586519 c 0.419696,0.312945 0.790685,0.489103 1.415561,0.728987 0.903118,0.372003 0.995865,0.416042 0.141455,0.180826 -0.600523,-0.17149 -0.668916,-0.147136 -0.317614,0.190163 0.375657,0.405692 0.492758,0.518125 0.07306,0.20518 -1.239403,-1.099976 -2.171542,-1.769906 -2.493823,-1.809277 -0.185495,-0.08808 -0.483422,-0.05906 -0.688602,0.014 l -0.273574,0.09741 1.034223,1.173037 1.219717,1.261116 1.201045,0.342981 0.991197,0.186508 -0.89845,-0.142468 A 10.89,10.89 0 0 0 71.339389,68.01379 c -0.20518,0.07306 0.23887,0.4544 1.04924,0.782363 a 6.534,6.534 0 0 1 0.790685,0.489103 l -0.717623,-0.283923 -0.717624,-0.283924 a 33.2508,33.2508 0 0 0 0.950812,1.588066 l -1.058577,-1.241431 0.179813,0.937822 0.272559,0.98186 -0.438368,-1.23108 C 71.21194,68.521574 71.21194,68.521574 70.694829,67.935056 l -0.678252,-0.606205 c 0,0 -0.03937,0.322281 0.106751,0.732641 0.07773,0.434714 0.05804,0.595855 -0.01502,0.390675 l -0.22385,-0.845074 C 69.758021,67.035592 69.64092,66.923159 68.187002,65.437177 68.069901,65.324744 67.557457,64.967759 67.025328,64.771915 l -0.927471,-0.440396 0.126437,0.571501 0.05804,0.595854 0.722291,0.513458 a 11.979,11.979 0 0 0 0.97618,0.577182 l -0.205181,0.07306 0.517112,0.586518 0.355971,0.566833 -0.205181,0.07306 -0.02435,-0.06839 c -0.146123,-0.41036 -0.570487,-0.952839 -1.292779,-1.466297 l -0.722291,-0.513457 0.22852,1.074608 0.204166,1.006215 -0.340953,-0.957507 c -0.365307,-1.025901 -0.365307,-1.025901 -0.507775,-0.127451 l -0.176158,0.370989 0.09843,-0.805703 c 0.191176,-0.761663 0.166822,-0.830056 -0.10107,-1.582383 l -0.458054,-1.069941 a 2092.0416,2092.0416 0 0 0 -2.239935,-1.745551 c -0.04871,-0.136787 -0.156473,0.209848 -0.309291,1.728506 l -0.196858,1.611405 0.316599,0.889114 0.47774,0.9088 2.752379,2.102536 c 0.117101,0.112433 0.878764,0.303609 1.547679,0.450746 1.337832,0.294273 1.708821,0.470431 0.717624,0.283923 l -0.644562,-0.07874 0.40001,0.474085 0.23887,0.4544 -0.468404,-0.449732 c -0.424364,-0.542479 -1.073594,-0.850756 -1.347167,-0.75334 -0.06839,0.02435 0.243537,0.683933 0.765317,1.499986 a 13.068,13.068 0 0 1 0.716609,1.363199 c -0.121769,-0.341967 -1.019205,-1.563711 -1.063244,-1.470964 l -0.05906,0.483421 c -0.03937,0.322281 -0.03937,0.322281 -0.07306,-0.20518 -0.04303,-0.986529 -0.46739,-1.529008 -2.00472,-2.599962 L 63.57461,67.850229 c 0,0 -0.08808,0.185494 -0.01502,0.390675 0.02902,0.297927 0.170477,0.478753 0.941476,1.128997 a 14.4474,14.4474 0 0 0 1.171009,1.12433 l -0.302595,-0.200512 -0.326949,-0.268906 -0.06373,0.253888 c -0.01969,0.16114 -0.01969,0.16114 -0.04871,-0.136787 -0.07306,-0.20518 -0.214516,-0.386006 -0.72696,-0.742991 l -0.536797,-0.425378 0.140441,1.260102 a 4.356,4.356 0 0 0 0.545119,1.963722 c 0.47774,0.9088 0.433701,1.001547 -0.01968,0.161141 l -0.380325,-0.635226 -0.0347,0.551815 c -0.01502,0.390674 -0.06839,0.02435 -0.37931,-1.714503 -0.324922,-2.427457 -0.573127,-3.340925 -0.953452,-3.976151 l -0.307263,-0.430046 -0.25957,0.786017 c -0.151804,0.439382 -0.323295,1.039904 -0.294273,1.337831 0.03836,0.756995 0.476726,1.988076 0.925444,2.598948 l 0.234202,0.224866 -0.326949,-0.268905 -0.06839,0.02435 c -0.09275,-0.04404 -0.107765,0.346634 0.07205,1.284456 a 6.534,6.534 0 0 1 0.233188,1.304142 l -0.42335,-1.621755 C 62.111974,70.451813 61.795375,69.5627 61.658588,69.611407 l -0.235216,0.85441 c -0.259569,0.786017 -0.235216,0.854411 0.183467,2.246632 l -0.165809,-0.24922 -0.311931,-0.65958 c -0.136787,0.04871 -0.200512,0.302595 -0.324309,2.119181 -0.07408,0.874096 -0.103097,0.576168 -0.102083,-0.503108 a 16.698,16.698 0 0 0 0.04972,-0.942489 c -0.04871,-0.136787 -0.899463,0.936807 -0.963189,1.190695 -0.06373,0.253888 -0.06373,0.253888 -0.112433,0.117101 0.06373,-0.253888 0.06373,-0.253888 -0.566832,0.355971 -0.136787,0.04871 0.200512,-0.302595 0.738323,-0.956493 0.919149,-1.097948 0.919149,-1.097948 1.130011,-2.020752 0.186508,-0.991197 0.137801,-1.127984 -0.06271,-0.825388 -0.136787,0.04871 0,0 0.132118,-0.278242 a 2.3958,2.3958 0 0 0 0.333645,-1.660113 c -0.09742,-0.273573 -0.09742,-0.273573 -0.791698,0.590173 -0.537811,0.653898 -0.71397,1.024887 -1.085972,1.928004 -0.499454,1.410894 -0.567847,1.435247 -0.224866,0.234202 l 0.235216,-0.85441 -1.236763,1.28811 A 20.4732,20.4732 0 0 1 57.715106,72.1716 l 0.513457,-0.722291 -1.367867,0.487075 0.772013,-0.429032 0.889114,-0.316599 1.476646,-1.912987 c 1.075622,-1.307796 1.476646,-1.912986 1.516018,-2.235267 0.17149,-0.600523 0.147136,-0.668916 -0.351303,-0.337299 -0.610872,0.448718 -0.948171,0.800021 -1.099976,1.239403 -0.107765,0.346634 -0.176158,0.370988 -0.112433,0.117101 l 0.06373,-0.253888 -0.586519,0.517111 c -0.381338,0.44405 -0.449732,0.468404 -0.273573,0.09741 l 0.337299,-0.351303 0.899463,-0.936807 -0.551815,-0.0347 -0.483421,-0.05906 0.595854,-0.05804 c 0.527461,-0.03369 0.595855,-0.05804 1.231081,-0.438368 l 0.762677,-0.8881 a 18.15,18.15 0 0 0 0.335672,-3.818665 l -1.367867,0.487076 a 9.075,9.075 0 0 0 -3.279228,2.477792 38.2602,38.2602 0 0 0 -0.541866,4.971002 13.068,13.068 0 0 1 -0.04769,-1.216063 c 0.06372,-0.253887 -0.02902,-0.297927 -0.190162,-0.317613 -0.571501,0.126437 -0.772013,0.429032 -1.095308,1.468937 l -0.440396,0.927471 0.279255,-0.947157 c 0.195844,-0.532129 0.279256,-0.947157 0.186509,-0.991197 -0.341967,0.121769 -1.52434,0.696924 -1.61242,0.882418 a 20.8362,20.8362 0 0 1 -0.718637,0.795353 c 0.645576,-1.000533 0.645576,-1.000533 -0.175144,-0.708287 l -0.410361,0.146122 1.001547,-0.4337 a 29.04,29.04 0 0 0 3.068366,-1.554988 18.876,18.876 0 0 0 0.1585,-2.3684 c -0.07306,-0.20518 -0.07306,-0.20518 -0.478753,0.170476 l -0.791699,0.590173 c -0.361653,0.282909 -0.557497,0.815038 -0.704634,1.483954 l -0.176158,0.370989 -0.683934,0.243538 0.317614,-0.190163 c 0.249219,-0.165808 0.405692,-0.375656 0.489103,-0.790684 l 0.127451,-0.507776 -1.744538,1.16066 a 1555.455,1555.455 45 0 1 -0.117101,-0.112433 l 1.603083,-1.341486 -2.344046,-0.09011 -0.610873,0.448718 c -0.835738,0.68292 -1.603083,1.341486 -1.583397,1.180345 l 0.879778,-0.775667 c 1.128997,-0.941475 1.124329,-1.171009 0.0347,-0.551815 l -0.61554,0.219185 0.341967,-0.121769 0.361652,-0.28291 c -0.02435,-0.06839 -0.439382,-0.151804 -0.966843,-0.118115 l -0.781349,-0.03004 z m 19.339292,-5.42217 0.64923,0.308277 0.70362,-0.404679 c 0.727973,-0.336285 1.69583,-1.297446 1.622769,-1.502626 -0.04871,-0.136787 -1.76321,0.242524 -2.37875,0.461708 -0.615541,0.219184 -1.294807,0.692256 -1.270453,0.760649 z M 49.337616,58.816833 c 0.136786,-0.04871 0.136786,-0.04871 0.09275,0.04404 l -0.20518,0.07306 z m 1.99701,5.608257 c 0.136787,-0.04871 0.16114,0.01969 0.09275,0.04404 l -0.20518,0.07306 c -0.02435,-0.06839 -0.02435,-0.06839 0.136787,-0.04871 z m 4.631063,-1.494917 0.209848,0.156472 c 0,0 -0.136786,0.04871 -0.253887,-0.06372 -0.209848,-0.156472 -0.209848,-0.156472 0.06839,-0.02435 z m 4.857767,11.910796 0.07306,0.20518 c -0.06839,0.02435 -0.136786,0.04871 -0.117101,-0.112433 -0.02435,-0.06839 -0.04871,-0.136786 0,0 z m -0.201125,-4.244043 c 0.136787,-0.04871 0.136787,-0.04871 0.02435,0.06839 -0.08808,0.185494 -0.156472,0.209848 -0.20518,0.07306 z m -0.751735,-21.15649 0.07306,0.20518 c 0,0 -0.06839,0.02435 -0.04871,-0.136787 -0.04871,-0.136786 -0.04871,-0.136786 0,0 z m 1.159244,8.449729 0.07306,0.20518 c -0.06839,0.02435 -0.136787,0.04871 -0.117101,-0.112433 -0.02435,-0.06839 -0.04871,-0.136787 0,0 z m 0.491132,-2.949237 c 0,0 0.09275,0.04404 0.02435,0.06839 l -0.20518,0.07306 c 0,0 -0.02435,-0.06839 0.136787,-0.04871 z m 2.458929,18.159559 0.02902,0.297927 c -0.04404,0.09275 -0.06839,0.02435 -0.04871,-0.136787 l -0.07306,-0.20518 z m -0.736718,-21.547165 0.0047,0.229534 c -0.04404,0.09275 -0.08808,0.185495 -0.06839,0.02435 a 0.5808,0.5808 0 0 1 0.06373,-0.253888 z"
         style="fill:#000000;stroke-width:0.391057"
         id="path3" />
      <path
         d="m 47.392756,44.481621 5.926883,-3.266449 c 0.341967,-0.121769 0.49844,-0.331617 0.782363,-1.04924 l 0.303609,-0.878764 -2.120194,0.754967 c -2.051802,0.730613 -2.051802,0.730613 -2.296353,1.125956 l -0.176159,0.370989 0.03937,-0.322282 c 0.08341,-0.415028 0.08341,-0.415028 -0.576169,-0.103097 -0.341967,0.121769 -0.683933,0.243538 -0.639894,0.150791 l 1.387553,-0.648216 3.097388,-1.257061 1.592733,-0.721277 0.611886,-1.527994 0.567847,-1.435247 -0.595854,0.05804 -0.595855,0.05804 -0.537811,0.653898 a 2.904,2.904 0 0 0 -0.704633,1.483954 c -0.09843,0.805703 -0.303609,0.878764 -0.136787,0.04871 l 0.05906,-0.483422 -1.089626,0.619195 -1.065272,0.687587 0.904132,-0.707273 c 1.378217,-1.107284 1.378217,-1.107284 1.710848,-1.688121 l 0.425378,-0.536797 -1.054922,0.06738 c -1.054923,0.06738 -1.123316,0.09173 -2.051801,0.730614 l -1.065273,0.687588 0.767345,-0.658566 0.791699,-0.590173 -0.732641,0.106751 c -1.328496,0.164795 -0.918136,0.01867 0.478753,-0.170476 1.304142,-0.233188 1.440929,-0.281896 1.323828,-0.394329 -0.253888,-0.06372 -1.278774,-0.777695 -1.210381,-0.802048 l 0.859078,0.464749 0.859078,0.46475 1.416575,-0.350289 1.465283,-0.213502 1.114994,-1.630077 1.183387,-1.654431 -2.578249,-0.314973 c -0.434714,0.07773 -1.021232,0.59484 -1.578729,1.409879 l -0.200512,0.302595 c 0.195844,-0.532129 0.103097,-0.576168 -0.234202,-0.224866 l -0.341967,0.121769 c -0.02435,-0.06839 0.244552,-0.395342 0.562165,-0.585504 l 0.879778,-0.775667 0.268905,-0.326949 -0.805703,-0.09843 -1.992743,0.247192 c -1.143002,0.252873 -1.211395,0.277227 -2.296353,1.125955 -1.153351,0.873083 -1.221745,0.897436 -1.637787,1.893301 a 54.2322,54.2322 0 0 0 -1.90872,4.378802 l 0.450746,-1.547679 c 0,0 -0.49844,0.331617 -0.992211,0.892767 -1.261116,1.219717 -1.603083,1.341486 -0.478754,0.170477 1.32951,-1.244071 1.32951,-1.244071 -0.04303,-0.986529 -1.60207,0.26221 -1.489637,0.145109 0.156472,-0.209848 l 1.416575,-0.350289 0.68028,-1.552348 c 0.391688,-1.064258 0.499453,-1.410893 0.294273,-1.337832 l -2.506201,0.969484 c -2.662673,1.179331 -2.711381,1.042544 -0.253888,-0.06373 l 1.749206,-0.931125 a 5.082,5.082 0 0 0 -1.611405,-0.196858 c -0.273574,0.09742 -1.837285,1.11662 -1.680813,0.906771 0.29326,-0.258555 0.268906,-0.326949 -0.375656,-0.405692 -0.415028,-0.08341 -0.346635,-0.107765 0.20518,-0.07306 0.644562,0.07874 0.781349,0.03004 1.279788,-0.301581 l 0.49844,-0.331618 -0.73731,-0.122782 a 69.696,69.696 0 0 1 1.494305,0.08443 c 1.611405,0.196858 1.816585,0.123796 2.564244,-0.373629 0.860092,-0.614527 1.671477,-1.36584 1.57873,-1.409879 l -1.982394,-0.373017 a 12.1968,12.1968 0 0 0 -4.317105,-0.0041 l -2.407772,0.163781 2.266317,-0.344608 2.334711,-0.36896 -0.697938,-0.445064 c -0.64923,-0.308277 -0.903117,-0.372003 -1.611405,-0.196858 l -0.756995,0.03836 0.683934,-0.243537 c 0.595854,-0.05804 0.639894,-0.150791 0.200512,-0.302596 l -1.552348,-0.680279 0.85441,0.235215 c 0.717624,0.283924 0.878764,0.30361 0.805703,0.09843 -0.07306,-0.205181 0.01969,-0.161141 0.278241,0.132118 0.702606,0.674598 2.181892,1.149698 4.462214,1.493692 1.865293,0.260584 2.255967,0.275601 3.101041,0.05175 l 0.889114,-0.316599 c 0,0 -1.317132,-1.53469 -1.853929,-1.960068 -0.44405,-0.381338 -0.878764,-0.303609 -1.670463,0.286564 l -0.635226,0.380324 0.474086,-0.40001 0.518125,-0.492758 -0.478754,0.170477 a 36.8808,36.8808 0 0 0 -0.551815,-0.0347 c 0.478754,-0.170476 0.478754,-0.170476 0.200512,-0.302595 l 0.297928,-0.02902 c 0.551815,0.0347 1.172023,0.04505 1.284456,-0.07205 0.20518,-0.07306 -0.424364,-0.542479 -1.512976,-1.002561 -0.927472,-0.440396 -1.274107,-0.548161 -2.284989,-0.573528 -1.240417,-0.0207 -1.333164,-0.06474 -2.01243,0.408332 -0.635226,0.380325 -0.635226,0.380325 -0.136787,0.04871 l 0.425378,-0.536797 -0.16114,-0.01969 -0.756995,0.03836 -0.576169,-0.103097 0.527461,-0.03369 1.240417,0.0207 c 0.688602,-0.014 0.732641,-0.106751 -0.05804,-0.595854 l -0.468403,-0.449732 0.722291,0.513457 c 0.580837,0.332631 0.927472,0.440396 1.318146,0.455414 0.942489,0.04972 0.986529,-0.04303 0.303609,-0.878764 -0.848728,-1.084958 -0.663234,-0.996879 0.278242,0.132119 0.634212,0.698951 0.84406,0.855424 1.654431,1.183387 l 1.064258,0.391688 c 0.136787,-0.04871 -0.106751,-0.732641 -0.325935,-1.348182 -0.07306,-0.20518 -0.04871,-0.136786 0.117101,0.112433 l 0.307263,0.430046 0.244552,-0.395342 c 0.107765,-0.346635 0.107765,-0.346635 0.04871,0.136787 -0.416042,0.995865 -0.391688,1.064258 1.618714,2.814478 l 1.824907,1.66214 1.953372,0.07509 c 1.240417,0.0207 1.929018,0.0067 1.880311,-0.130091 -0.165809,-0.24922 -1.161674,-0.665262 -1.854943,-0.880792 l -0.415028,-0.08341 c 0.136786,-0.04871 0.136786,-0.04871 -0.400011,-0.474086 -0.117101,-0.112433 0,0 0.346635,0.107765 0.556483,0.264237 0.556483,0.264237 0.459068,-0.0093 -0.09741,-0.273573 -0.07306,-0.20518 0.16114,0.01969 0.190163,0.317613 0.839393,0.62589 1.020219,0.484435 l -0.267892,-0.752327 c -0.365306,-1.0259 -0.204166,-1.006215 0.253888,0.06373 0.243538,0.683933 0.409346,0.933153 0.829043,1.246098 0.585504,0.562165 1.000533,0.645576 1.064258,0.391688 0.107765,-0.346634 -0.461708,-2.37875 -1.017177,-3.722263 -0.462722,-1.299474 -0.487076,-1.367868 -1.092266,-1.768892 -0.839393,-0.62589 -1.000533,-0.645576 -1.289125,-0.157487 -0.401024,0.605191 -0.537811,0.653899 -0.20518,0.07306 l 0.288592,-0.48809 -0.410361,0.146123 -0.459067,0.0093 0.478753,-0.170477 c 0.664248,-0.0824 0.615541,-0.219184 -0.219184,-0.61554 -0.419696,-0.312945 -0.927471,-0.440396 -2.719703,-0.495799 a 88.935,88.935 0 0 0 -3.931098,-0.218572 6.534,6.534 0 0 0 1.030569,-0.135773 L 48.45862,22.369651 C 48.341519,22.257218 47.950844,22.2422 47.677271,22.339616 l -0.620208,-0.01035 0.547147,-0.194831 0.595854,-0.05804 -0.141455,-0.180826 c -0.04871,-0.136787 -0.258555,-0.29326 -0.419696,-0.312945 -0.117101,-0.112433 -0.209848,-0.156473 -0.07306,-0.205181 l 0.395342,0.244552 a 62.1456,62.1456 0 0 0 1.688121,1.710848 l 1.123316,-0.09173 -0.243538,-0.683934 c -0.263224,-0.522793 -0.380325,-0.635226 -0.84406,-0.855424 l -0.463736,-0.220198 0.415028,0.08341 c 0.185494,0.08808 0.415028,0.08341 0.390674,0.01502 L 49.851856,20.8717 c -0.243538,-0.683934 -0.03369,-0.527461 0.331617,0.498439 l 0.692256,1.294806 0.380324,0.635226 1.538344,-0.0083 1.445597,-0.05236 -0.453386,-0.840407 -0.453386,-0.840406 -1.649763,-0.953853 -1.718156,-0.929499 c 0,0 0.693269,0.21553 1.4596,0.63624 l 1.552348,0.680279 -1.521298,-2.540904 -1.658085,-2.492197 1.414547,1.808263 c 1.297446,1.69583 1.390194,1.73987 1.336818,1.373549 l -0.106751,-0.732641 c -0.121769,-0.341967 -0.116087,-1.191709 0.001,-1.079276 l 0.233188,1.304142 c 0.116087,1.191709 0.116087,1.191709 0.949797,2.667342 l 0.946144,1.358531 0.08341,-0.415028 0.09843,-0.805703 c -0.09741,-0.273573 -0.05337,-0.366321 0.03937,-0.322281 l 0.361652,-0.282909 c 0.244552,-0.395343 0.24922,-0.165809 -0.03937,0.322281 l -0.294273,1.337831 -0.03004,0.781349 1.210381,0.802049 c 0.629544,0.469417 1.186027,0.733655 1.25442,0.709301 a 9.438,9.438 0 0 0 0.442424,-3.086024 c -0.135773,-1.030568 -0.8674,-2.003093 -2.150842,-3.010322 -1.307797,-1.075622 -1.37619,-1.051268 -0.424365,-0.542479 l 0.976179,0.577183 -0.535783,-1.504654 c -0.316599,-0.889114 -0.398996,-1.553362 -0.398996,-1.553362 l 0.170476,0.478754 c 0.121769,0.341966 0.23887,0.454399 0.400011,0.474085 0.06839,-0.02435 0.06839,-0.02435 0.04871,0.136787 -0.224866,0.234202 0.666888,2.305689 1.159646,2.823814 l 0.44405,0.381338 0.108779,-1.425911 c 0.18184,-1.22073 0.08442,-1.494304 -0.159113,-2.178238 l -0.07306,-0.20518 0.40001,0.474086 0.142469,-0.89845 0.09376,-1.035236 c 0,0 0.05804,0.595854 -0.04039,1.401557 -0.203554,3.540423 -0.140842,4.365812 0.02963,4.844565 l 0.170477,0.478754 c 0.20518,-0.07306 1.134679,-1.791218 1.198405,-2.045105 l -0.22852,-1.074609 c -0.121769,-0.341966 -0.243538,-0.683933 -0.155459,-0.869428 0.136787,-0.04871 0.136787,-0.04871 0.04871,0.136787 0.07306,0.20518 0.51143,1.436261 0.55547,1.343514 l 0.381338,-0.44405 a 1.452,1.452 0 0 0 0.162154,-1.05959 c -0.461708,-2.378751 -0.563791,-2.881858 -0.471044,-2.837818 0.04871,0.136786 0.156473,-0.209849 0.283924,-0.717624 l 0.127451,-0.507775 -0.118115,0.966843 c -0.127451,0.507775 -0.06941,1.10363 0.08605,1.973058 0.325935,1.348181 0.374643,1.484968 0.438368,1.231081 l 0.953853,-1.649763 -1.497346,3.153403 -1.521699,3.08501 -0.172505,1.679798 c -0.245565,1.474619 -0.123796,1.816586 0.04668,2.295339 a 26.499,26.499 0 0 1 1.110938,2.687028 l 0.166823,-0.830057 a 6.534,6.534 0 0 1 0.186508,-0.991197 l -0.03004,0.781349 -0.02537,1.010883 c 0.02435,0.06839 0.454399,-0.23887 0.586518,-0.517112 l 0.49844,-0.331617 c 0.20518,-0.07306 0.16114,0.01969 -0.312946,0.419697 l -0.742991,0.726959 c -0.112433,0.117101 0.0083,1.538344 0.149777,1.71917 0,0 0.683934,-0.243538 1.588065,-0.950811 l 1.495319,-0.994851 0.19219,-1.840939 0.167836,-1.909333 -0.414014,-1.162687 -0.550801,-1.11398 -0.790685,-0.489103 c -1.254421,-0.709302 -1.371522,-0.821735 -0.351303,-0.337299 0.48809,0.288591 0.927472,0.440396 0.903118,0.372002 0.04404,-0.09275 -0.05804,-0.595854 -0.321267,-1.118647 l -0.277228,-1.211395 c 0.136787,-0.04871 0.136787,-0.04871 0.190162,0.317613 l 0.7503,1.89066 0.303609,-0.878764 c 0.55851,-1.894314 0.60255,-1.987062 0.391688,-1.064258 l -0.09843,0.805703 0.268906,-0.326949 c 0.293259,-0.258556 0.293259,-0.258556 0.07306,0.20518 -0.713969,1.024886 -0.695298,1.943022 -0.120143,3.125395 0.355971,0.566833 0.355971,0.566833 0.889114,-0.316599 0.268906,-0.326949 0.528475,-1.112966 0.774041,-2.587584 0.298941,-1.108298 0.514471,-1.801568 0.519139,-1.572034 l -0.08341,0.415028 a 10.164,10.164 0 0 0 -0.383367,2.602602 c 0,0 0.405693,-0.375656 0.694284,-0.863746 a 41.5998,41.5998 0 0 1 -0.616554,1.29846 l -1.310838,2.162207 -0.08442,1.494304 c -0.03004,0.781349 -0.01603,1.469951 0.07672,1.51399 0.04871,0.136787 0.522794,-0.263224 1.417589,-1.429565 0.91915,-1.097948 0.987543,-1.122302 1.810291,-3.573099 l 0.593215,-2.44613 0.02638,-2.090159 c -0.01664,-3.076688 0.05642,-2.871508 0.190162,0.317613 l 0.08707,0.893782 0.552829,-1.044573 c 1.145029,-2.411426 1.614446,-3.04097 0.601536,-0.907785 l -0.504121,1.181359 1.382885,-0.87775 1.407239,-0.809357 -1.495318,0.994851 c -1.607751,1.111952 -1.563712,1.019205 -1.96575,2.703672 -0.17149,0.600522 -0.147137,0.668916 0.05804,0.595854 0.478753,-0.170476 1.475632,-0.83371 1.739869,-1.390193 l 0.312946,-0.419696 -0.220198,0.463735 -0.220198,0.463736 0.341967,-0.121769 -1.040919,0.755981 -1.407239,0.809357 -0.269919,1.406225 -0.338313,1.430579 0.772013,-0.429032 c 1.724852,-0.999519 2.76577,-1.7555 3.616526,-2.829094 0.586519,-0.517112 0.967858,-0.961162 1.060605,-0.917122 l -0.694284,0.863746 -0.694283,0.863746 c 0,0 0.595854,-0.05804 1.279788,-0.301581 l 1.162687,-0.414015 -1.367867,0.487076 c -1.094294,0.389661 -1.548694,0.628531 -2.159566,1.077248 -0.791699,0.590173 -0.791699,0.590173 -0.914482,1.327482 l -0.05439,0.712956 0.337299,-0.351303 c 0.811384,-0.751313 1.060604,-0.917122 0.610872,-0.448718 -0.787031,0.819707 -0.83107,0.912454 -0.396356,0.834725 l -0.24922,0.165808 c -0.4544,0.23887 -0.610872,0.448718 -0.91915,1.097948 -0.244551,0.395342 -0.352316,0.741977 -0.259569,0.786017 l 0.825388,-0.06271 0.732642,-0.106751 1.173037,-1.034222 a 16.2624,16.2624 0 0 0 1.466296,-1.292779 1283.568,1283.568 0 0 1 -2.067833,2.200564 c 0.02435,0.06839 0.620209,0.01035 1.328496,-0.164794 l 1.235749,-0.208834 -1.963722,0.545119 c -1.919682,0.452372 -2.305689,0.666888 -1.709834,0.608844 l 0.532129,0.195844 c 0.185494,0.08808 -0.136787,0.04871 -0.712956,-0.05439 -0.576168,-0.103097 -1.587051,-0.128465 -2.549226,-0.01705 l -1.51399,0.07672 -1.197391,0.965829 a 121.968,121.968 0 0 1 -2.761103,1.985034 23.4498,23.4498 0 0 0 6.591744,1.197793 c 0.571501,-0.126437 4.36784,-2.01771 5.091145,-2.583529 0.811384,-0.751313 0.879778,-0.775667 1.105658,-2.089145 l 0.230547,-1.083944 -0.118114,0.966843 -0.04972,0.942489 c 0.04871,0.136787 0.791699,-0.590172 1.12433,-1.171009 0.445064,-0.697938 0.513457,-0.722292 0.20518,-0.07306 l -0.288592,0.488089 1.094294,-0.38966 -0.635226,0.380324 c -0.65958,0.311931 -2.238309,1.721811 -2.096854,1.902637 l 1.641441,-0.584491 a 5.082,5.082 0 0 1 1.621755,-0.42335 l -1.31916,0.623862 -1.31916,0.623863 0.60519,0.401024 c 0.53213,0.195844 0.878764,0.303609 1.977726,0.143482 l 1.30881,-0.0037 -1.098962,0.160127 -1.098961,0.160127 0.927471,0.440395 c 1.205713,0.572515 0.790685,0.489104 -0.991197,-0.186508 -2.362718,-1.008242 -2.269971,-0.964203 -3.769957,-0.198886 l -1.270453,0.76065 c -0.06839,0.02435 0.326949,0.268905 0.903118,0.372002 0.532129,0.195844 1.220731,0.18184 1.929018,0.0067 1.19171,-0.116087 1.445597,-0.05236 0.278242,0.132119 -0.732641,0.106751 -0.845074,0.223852 -0.244552,0.395342 0.69327,0.21553 0.810371,0.327963 0.209848,0.156473 A 15.5364,15.5364 0 0 0 69.41479,32.093054 l -0.796367,0.360639 -0.361652,0.282909 1.898982,0.788045 2.128517,0.783376 1.416575,-0.350289 c 0.683934,-0.243537 1.255434,-0.369974 1.279788,-0.301581 l -2.256981,0.803675 c -0.20518,0.07306 0.488089,0.288591 1.543012,0.221212 l 1.196377,0.113447 -0.893782,0.08707 c -0.595855,0.05804 -0.986529,0.04303 -0.937821,0.179812 a 41.5272,41.5272 0 0 0 1.976712,1.222759 l -1.99173,-0.832084 0.824374,1.016564 a 6.534,6.534 0 0 1 0.800021,0.948172 l -1.171009,-1.12433 c -1.034223,-1.173037 -1.151324,-1.28547 -2.098481,-1.564725 a 4.356,4.356 0 0 0 -1.064259,-0.391689 l 0.429033,0.772013 c 0.40001,0.474086 0.448718,0.610873 0.238869,0.4544 a 5.082,5.082 0 0 1 -0.6829,-0.835733 C 70.44335,34.115843 70.282209,34.096158 67.738664,33.22937 a 9.438,9.438 0 0 0 -1.611405,-0.196858 l -1.30881,0.0037 0.448718,0.610872 0.473072,0.679266 0.966843,0.118115 a 14.9556,14.9556 0 0 0 1.543012,0.221212 l -0.273574,0.09742 0.927472,0.440396 0.697938,0.445063 c -0.136787,0.04871 -0.205181,0.07306 -0.156473,0.209849 0.04871,0.136786 0.02435,0.06839 -0.09275,-0.04404 -0.307263,-0.430046 -1.049241,-0.782363 -2.269971,-0.964203 l -0.89845,-0.142469 0.755981,1.040919 0.824374,1.016564 -0.912453,-0.83107 c -0.961162,-0.967857 -0.961162,-0.967857 -0.732642,0.106751 l 0.102084,0.503108 -0.340953,-0.957508 C 65.632471,34.67299 65.608117,34.604596 64.881158,33.861605 64.364046,33.275087 63.94435,32.962142 63.78321,32.942456 a 2614.9068,2614.9068 0 0 0 -3.437327,-0.779723 c -0.161141,-0.01968 -0.107765,0.346635 0.525433,2.124863 l 0.730614,2.051801 0.795353,0.718637 1.024886,0.71397 c 0.117101,0.112433 3.598467,0.799408 4.218676,0.809758 0.253887,0.06372 1.123316,-0.09173 2.061137,-0.271546 1.646109,-0.354957 2.17357,-0.388647 0.893782,-0.08706 l -0.683934,0.243538 0.60519,0.401024 c 0.346635,0.107765 0.624877,0.239884 0.580837,0.332631 l -0.786017,-0.25957 c -0.741977,-0.352317 -1.684466,-0.402038 -1.953372,-0.07509 l 1.747178,1.227427 a 16.4076,16.4076 0 0 1 1.493291,1.163701 c -0.419696,-0.312945 -2.045106,-1.198405 -2.064791,-1.037264 l 0.219184,0.61554 c 0.146122,0.41036 0.146122,0.41036 -0.234202,-0.224866 -0.594841,-1.021233 -1.292779,-1.466296 -3.709886,-1.761584 l -1.865293,-0.260583 0.146122,0.41036 c 0.258556,0.29326 0.561151,0.493772 1.762196,0.836752 a 18.0774,18.0774 0 0 0 1.938355,0.465764 c 0,0 -0.205181,0.07306 -0.483422,-0.05906 l -0.507775,-0.127451 0.09741,0.273573 c 0.09741,0.273574 0.02902,0.297928 -0.136787,0.04871 -0.234202,-0.224866 -0.536797,-0.425378 -1.205713,-0.572515 l -0.966843,-0.118115 0.946143,1.358532 c 0.804689,1.177705 0.970498,1.426925 1.668435,1.871989 1.024887,0.713969 1.097948,0.919149 0.07306,0.20518 l -0.790685,-0.489104 0.243538,0.683934 -1.277761,-1.856971 C 63.723754,39.051741 62.923733,38.10357 62.064655,37.63882 l -0.48809,-0.288591 0.135773,1.030568 c 0.03369,0.527461 0.233188,1.304142 0.42335,1.621755 a 6.534,6.534 0 0 0 2.45912,2.361092 c 0.463736,0.220198 0.580837,0.332631 0.326949,0.268906 l -0.463736,-0.220198 -0.136786,0.04871 c -0.136787,0.04871 0.146122,0.41036 0.87775,1.382885 0.590172,0.791698 0.902104,1.451278 0.902104,1.451278 l -1.317132,-1.534689 c -0.970498,-1.426925 -1.814558,-2.282349 -1.995384,-2.140895 l 0.135772,1.030569 c 0.204167,1.006215 0.252874,1.143001 1.521299,2.540905 l -0.326949,-0.268906 -0.790685,-0.489103 0.828029,2.325374 c 0.38966,1.094294 0.106751,0.732641 -0.400011,-0.474085 l -0.365307,-1.025901 c -0.209848,-0.156473 -0.611886,1.527994 -0.55851,1.894315 l 0.04871,0.136786 c -0.09741,-0.273573 -0.121769,-0.341966 -0.513457,0.722292 l 0.313959,-1.498972 c 0.538825,-1.733175 0.538825,-1.733175 0.193204,-2.920216 -0.252874,-1.143001 -0.394329,-1.323827 -0.521779,-0.816052 l 0.01502,-0.390675 c 0.05439,-0.712955 -0.193816,-1.626423 -0.525433,-2.124862 -0.209848,-0.156473 -0.209848,-0.156473 -0.528475,1.112966 a 6.534,6.534 0 0 0 -0.217558,2.851822 c 0.174131,1.787563 0.154445,1.948704 -0.107765,0.346635 l -0.296913,-1.050255 -0.64659,2.079809 a 25.5552,25.5552 0 0 1 -0.372002,0.903118 c 0.239883,-0.624876 0.298941,-1.108298 0.230547,-1.083944 l -0.606204,0.678252 -0.606204,0.678252 0.601536,-0.907786 0.762677,-0.8881 0.539839,-2.81245 a 12.1968,12.1968 0 0 0 0.550188,-3.432659 c -0.106751,-0.732641 -0.243538,-0.683934 -0.576168,-0.103097 -0.489104,0.790685 -0.63624,1.459601 -0.534157,1.962708 0.03369,0.527461 0.03369,0.527461 -0.06373,0.253888 l -0.146122,-0.41036 -0.30361,0.878764 c -0.259569,0.786016 -0.303609,0.878764 -0.244551,0.395342 l 0.17149,-0.600523 a 5.082,5.082 0 0 0 0.426392,-1.616073 l -1.231081,0.438368 0.683934,-0.243538 c 0.610872,-0.448718 0.679266,-0.473071 1.075622,-1.307796 a 3.7752,3.7752 0 0 0 0.523807,-1.342499 26.136,26.136 0 0 0 -1.76849,-4.533649 l -1.212409,1.356504 a 11.3256,11.3256 0 0 0 -2.387474,4.549279 47.6982,47.6982 0 0 0 2.070072,5.813436 L 56.93678,42.932718 c -0.09741,-0.273573 -0.121769,-0.341967 -0.370988,-0.176158 -0.566833,0.35597 -0.62589,0.839392 -0.461096,2.167888 l 0.07205,1.284456 c 0,0 -0.194831,-0.547147 -0.208835,-1.235749 l -0.414014,-1.162687 a 6.534,6.534 0 0 0 -1.364213,1.795886 25.9908,25.9908 45 0 1 -0.318627,1.269438 c 0.201526,-1.381871 0.108779,-1.425911 -0.585505,-0.562165 l -0.405692,0.375657 0.850756,-1.073594 a 36.3,36.3 0 0 0 2.640347,-3.406277 c 0.04404,-0.09275 -0.993837,-2.574595 -1.159645,-2.823814 -0.165809,-0.24922 -0.165809,-0.24922 -0.474086,0.40001 l -0.596868,1.13732 a 2.904,2.904 0 0 0 0.01766,1.997411 c 0.09741,0.273574 0.126437,0.571501 0.03369,0.527462 l -0.312946,0.419696 -0.268905,0.326949 c 0,0 -0.0047,-0.229534 0.151804,-0.439382 0.268906,-0.326949 0.264238,-0.556483 0.206194,-1.152338 l -0.243537,-0.683933 -1.262131,2.298993 a 1940.7432,1940.7432 0 0 1 -1.306169,2.39174 49.9488,49.9488 0 0 1 2.153271,-4.774145 l -2.662673,1.179332 c 0,0 -0.268906,0.326949 -0.42071,0.766331 l -1.05695,2.225932 0.499453,-1.410893 c 0.724319,-1.645095 0.675612,-1.781882 -0.311931,-0.65958 l -0.537811,0.653898 0.244552,-0.395343 0.288591,-0.488089 -1.094294,0.38966 a 5.808,5.808 0 0 1 -0.957507,0.340953 z m 18.856673,-16.733057 0.849743,0.0057 0.62589,-0.839392 c 0.557497,-0.815039 1.193737,-2.27464 1.003574,-2.592253 -0.04871,-0.136786 -1.85697,1.277761 -2.419135,1.863265 -0.562165,0.585505 -1.163701,1.493291 -1.046601,1.605724 z m -23.322139,8.30464 c 0.136787,-0.04871 0.136787,-0.04871 0.117101,0.112433 l -0.20518,0.07306 0.112433,-0.117101 z m 5.342604,5.264664 c 0.136786,-0.04871 0.136786,-0.04871 0,0 0.04871,0.136786 -0.08808,0.185494 -0.156473,0.209848 z m 4.369867,-4.176263 c 0.136787,-0.04871 0.322281,0.03937 0.346635,0.107765 l -0.366321,0.05338 c -0.322281,-0.03937 -0.322281,-0.03937 -0.04871,-0.136787 z m 11.930292,10.779561 0.07306,0.20518 -0.04871,-0.136787 c -0.117101,-0.112433 -0.117101,-0.112433 -0.02435,-0.06839 z M 62.0399,43.196341 c 0.08808,-0.185494 0.08808,-0.185494 0.02435,0.06839 0.02902,0.297928 -0.03937,0.322281 -0.156472,0.209849 z M 49.579295,19.889832 c 0.04871,0.136787 0.141455,0.180826 0.09741,0.273573 l -0.04871,-0.136786 c -0.117101,-0.112433 -0.04871,-0.136787 -0.02435,-0.06839 z m 6.013146,8.879162 0.07306,0.20518 -0.117101,-0.112433 -0.02435,-0.06839 z m -1.105256,-3.53677 c 0.136787,-0.04871 0.136787,-0.04871 0,0 l -0.180826,0.141455 z m 12.601446,18.940698 0.214517,0.386006 -0.141455,-0.180826 z M 54.525944,20.363305 c -0.0047,-0.229534 0.136787,-0.04871 0.09741,0.273573 l 0.04871,0.136787 a 0.726,0.726 0 0 1 -0.146123,-0.41036 z"
         style="fill:#000000;stroke-width:0.488288"
         id="path4" />
      <path
         d="m 38.452447,49.085546 2.380525,3.497915 c 0.15109,0.271863 0.279737,0.301368 0.756427,0.463412 a 1.773547,1.7206214 0 0 0 0.559962,0.154787 24.593185,23.859283 0 0 0 -1.420151,-2.645094 l -0.264775,-0.139796 0.211918,0.02225 c 0.249811,-0.02177 0.249811,-0.02177 0.04586,-0.411186 l -0.15857,-0.352649 0.498647,0.852351 1.012256,1.86627 0.551501,0.9699 0.991276,0.280067 0.953381,0.324089 -0.03741,-0.403928 -0.0753,-0.359905 -0.491652,-0.323616 C 43.64871,52.623068 43.436793,52.60082 43.01296,52.556325 c -0.55248,-0.074 -0.643232,-0.147528 -0.09075,-0.07353 l 0.370977,-0.07305 -0.483684,-0.690779 -0.521579,-0.646757 0.551991,0.52195 c 0.793833,0.867339 0.793833,0.867339 1.187254,1.036642 l 0.36301,0.294107 -0.06733,-0.727069 C 44.179727,51.558813 44.134352,51.52205 43.703524,50.94882 l -0.476202,-0.609993 0.46124,0.448422 0.423345,0.492444 -0.09026,-0.521476 c -0.195977,-0.756575 -0.05237,-0.565498 0.15857,0.352648 0.241354,0.793339 0.210941,0.918146 0.324625,0.786081 l 0.470184,-0.81464 -0.242817,0.550509 -0.242818,0.55051 0.210941,0.918145 0.210941,0.918145 1.149848,0.632715 a 8.2765527,8.0295665 0 0 0 1.149847,0.632715 l 0.01691,-1.630227 c -0.02992,-0.323142 -0.392931,-0.617253 -0.92248,-0.896845 -0.264774,-0.139797 -0.348045,-0.13254 -0.181508,-0.147054 0.264774,0.139797 0.340563,0.05175 0.113685,-0.132064 -0.181507,-0.147052 -0.22688,-0.183819 -0.105716,-0.235098 l 0.408383,0.330874 0.468721,0.529207 0.22688,0.183819 0.0309,-0.572756 c 0.01545,-0.286379 -0.07482,-0.807856 -0.240867,-1.241289 -0.1885,-0.675788 -0.1885,-0.675788 -0.800826,-1.396075 -0.688119,-0.632241 -0.688119,-0.632241 -1.384208,-0.897319 a 35.352704,34.29772 0 0 0 -2.943414,-0.965006 l 1.067065,0.192022 -0.642744,-0.595477 c -0.824248,-0.742532 -0.967855,-0.933608 -0.151089,-0.271863 0.907517,0.735274 0.907517,0.735274 0.658682,-0.13885 -0.256317,-0.95491 -0.165565,-0.881382 0.136127,0.110292 0.08278,0.440691 0.28673,0.830102 0.332106,0.866866 l 1.044133,0.397616 c 0.688608,0.184291 0.900524,0.206539 0.893042,0.125754 a 45.698395,44.334678 0 0 0 -0.747482,-1.726475 l 0.642241,1.043435 0.114659,-1.027964 -0.718044,-0.955383 c 0.181506,0.147053 0.219397,0.103033 0.265261,-0.308153 0.06083,-0.249613 0.02293,-0.205592 0.01496,0.161572 -0.008,0.367164 0.04488,0.484713 0.279249,0.749317 l 0.241842,0.345389 0.03839,-0.49197 c 0.08376,-0.455207 0.08376,-0.455207 0.07579,-0.08805 l -0.03139,1.020705 c -0.07676,0.983943 0.02146,1.138255 0.399438,1.593936 0.38545,0.536466 0.929962,0.97763 0.967856,0.933609 l 0.175486,-1.277579 A 8.099198,7.8575043 0 0 0 46.698641,46.127255 C 46.623831,45.3194 46.43533,44.643611 46.43533,44.643611 l 0.384475,1.432365 0.339099,1.3956 0.257781,-0.388938 c 0.167029,-0.462466 0.197441,-0.587273 0.114659,-1.027964 l -0.09026,-0.521476 0.120677,0.396669 c 0.08278,0.440691 0.166053,0.433434 0.1815,0.147057 l 0.409847,-1.012975 -0.114172,0.580015 c -0.129133,0.418443 -0.121652,0.499229 -4.87e-4,0.447949 0.121166,-0.05128 0.09075,0.07353 -0.06083,0.249615 -0.378945,0.440218 -0.667627,1.401912 -0.782774,2.877825 -0.01642,1.182276 -0.03188,1.468654 0.134176,1.902087 l 0.264286,0.587747 c 0,0 0.962326,-0.938973 1.182212,-1.28389 0.227367,-0.264131 0.159547,-0.543251 -0.263799,-1.035695 l -0.287215,-0.382154 0.317632,0.257346 0.325112,0.33813 -0.113197,-0.315882 a 24.061121,23.343097 0 0 0 -0.02993,-0.323143 c 0.15109,0.271864 0.15109,0.271864 0.174023,0.06627 0.07579,-0.08805 0,0 0.06034,0.198332 -0.008,0.367164 0.02944,0.771092 0.12019,0.844618 0.09075,0.07353 0.303156,-0.352173 0.576387,-1.02749 a 2.9559117,2.8677023 0 0 0 0.243793,-1.446407 c -0.07481,-0.807855 -0.03692,-0.851876 -0.369512,-1.270794 -0.287215,-0.382154 -0.287215,-0.382154 -0.05286,-0.11755 l 0.408384,0.330873 0.03041,-0.124808 -0.08278,-0.440691 0.04586,-0.411185 0.03741,0.403927 0.06733,0.72707 c 0.03741,0.403926 0.120677,0.396669 0.370976,-0.07305 l 0.227367,-0.264132 -0.288194,0.513747 a 1.773547,1.7206214 0 0 0 -0.258268,0.836887 c 0.05237,0.565498 0.09775,0.602261 0.681126,0.103506 0.621275,-0.542777 0.545486,-0.454733 -0.151576,0.17609 -0.378945,0.440218 -0.492629,0.572283 -0.652176,1.115534 l -0.144585,0.704823 0.772366,-0.270916 c 0.121167,-0.05128 0.121167,-0.05128 -0.07579,0.08805 l -0.189472,0.220109 0.219397,0.103032 c 0.257293,0.05901 0.219399,0.103033 -0.03789,0.04402 -0.681126,-0.103506 -0.726502,-0.140269 -1.780068,1.173126 l -0.977777,1.225352 0.07433,1.255804 c 0.02944,0.771091 0.112219,1.211782 0.150114,1.167761 0.113684,-0.132065 0.394396,-0.726596 0.394883,-1.174546 l 0.136616,-0.337658 c 0.01496,0.161571 0.05286,0.117551 0.227367,-0.264131 0.07579,-0.08805 0.04537,0.03677 0.02244,0.242357 -0.174509,0.38168 -0.174509,0.38168 -0.01545,0.286378 0.159047,-0.09532 0.166542,-0.01452 -0.03041,0.124807 -0.151577,0.176091 -0.326089,0.557767 -0.273232,0.675316 l 0.567931,-0.212377 c 0.560447,-0.293167 0.567929,-0.212378 -0.113684,0.132064 -0.401388,0.197865 -0.515072,0.329929 -0.742441,0.594058 -0.303156,0.352174 -0.356501,0.682575 -0.106689,0.6608 0.136126,0.110292 1.393153,-0.365744 2.279201,-0.768724 0.80278,-0.395721 0.80278,-0.395721 1.098455,-0.828683 0.371463,-0.521004 0.363982,-0.60179 0.0085,-0.815113 -0.355525,-0.213325 -0.363007,-0.294109 -0.0075,-0.08079 l 0.264783,0.139794 -0.06782,-0.27912 c -0.05286,-0.117549 -0.02244,-0.242356 0.01545,-0.286378 l 0.113196,0.315883 c 0.03741,0.403927 0.120677,0.39667 0.363496,-0.153837 0.181991,-0.300895 0.197442,-0.587273 0.168493,-1.806313 a 57.994987,56.264319 0 0 0 -0.0579,-2.43808 l 0.14312,0.639025 c 0,0 0.431801,-0.32267 0.5759,-0.579541 0.07579,-0.08805 0.01545,-0.286378 4.87e-4,-0.447949 a 1.1823647,1.1470809 0 0 1 -0.03741,-0.403928 l 0.113197,0.315884 0.0753,0.359906 0.416841,-0.48424 c 0.09075,0.07352 -0.02293,0.205593 -0.136616,0.337658 a 40.555108,39.344876 0 0 0 -0.985261,1.144565 c 0,0 0.05985,0.646283 0.150603,0.719811 l 0.401388,-0.197864 c 0.318134,-0.190578 0.431802,-0.32267 0.492629,-0.572282 l 0.136616,-0.337658 -0.06083,0.249615 0.02992,0.323141 0.446766,-0.161098 c 0.484658,-0.205121 0.370976,-0.07305 -0.272743,0.227368 L 52.78,50.157693 l -0.310637,0.271388 0.0444,0.932663 c 0.007,0.528734 0.08978,0.969425 0.127671,0.925404 l 0.560446,-0.293167 0.515072,-0.329928 0.485635,-1.101019 c 0.318612,-0.638545 0.485641,-1.10101 0.56891,-1.108268 l -0.371951,0.968953 -0.371952,0.968952 c 0.04537,0.03676 0.757397,-0.432496 1.537738,-1.070566 l 1.530256,-1.15135 -1.045597,0.946231 c -1.090971,0.909467 -1.090971,0.909467 -0.833679,0.968479 l 0.446765,-0.161097 0.711539,-0.0213 -0.825223,0.153366 c -0.741952,0.146109 -0.741952,0.146109 -1.688828,0.798704 l -0.863605,0.645336 0.295188,0.01499 c 0.174021,0.06627 0.423833,0.04449 0.544998,-0.0068 0.166542,-0.01452 0.249811,-0.02177 0.257292,0.05901 -0.07579,0.08804 -0.03041,0.124807 0.143608,0.191077 0.264774,0.139797 0.181507,0.147052 -0.166541,0.01451 l -0.893044,-0.125754 -0.582892,0.0508 -0.43229,0.770618 c -0.257781,0.388938 -0.43229,0.770618 -0.386915,0.807382 a 5.9118234,5.7354046 0 0 0 2.028415,0.148948 c 0.696577,-0.182872 1.287439,-0.600843 1.833413,-1.503525 0.629244,-0.909942 0.667139,-0.953964 0.348532,-0.315411 l -0.318607,0.638553 0.96932,-0.41024 1.022177,-0.292689 -0.363497,0.153837 c -0.204437,0.05853 -0.280224,0.14658 -0.272743,0.227368 l -0.03789,0.04402 c -0.1815,-0.147057 -1.506837,0.497808 -1.809993,0.849983 l -0.265261,0.308152 0.923455,9.48e-4 c 0.840186,0.0082 0.968832,0.03771 1.408116,-0.204172 0.401387,-0.197864 0.439283,-0.241883 0.16654,-0.01451 l -0.272742,0.227368 0.590374,0.02998 0.673644,0.02272 -0.96135,0.04307 c -2.301158,0.07841 -2.800779,0.121968 -3.126381,0.231786 l -0.318133,0.190578 1.399658,0.610941 a 1.773547,1.7206214 0 0 0 0.696577,-0.182872 c 0.242329,-0.102561 0.484659,-0.205122 0.575412,-0.131593 0.04537,0.03677 0.04537,0.03677 -0.07579,0.08805 -0.128647,-0.02951 -0.976801,0.329454 -0.886049,0.402982 l 0.310149,0.176559 c 0.257293,0.05901 0.431315,0.125281 0.71902,0.05949 l 1.802024,-0.482819 c -0.07579,0.08805 0.136127,0.110291 0.476691,0.162043 l 0.385938,0.08852 -0.71902,-0.05949 c -0.295187,-0.01499 -0.673644,-0.02272 -1.203681,0.145635 -0.855635,0.278174 -1.022176,0.292689 -0.802779,0.39572 A 56.457913,54.773114 0 0 1 55.63527,55.609406 l -2.050372,-0.839253 -1.135372,-0.0232 c -0.968832,-0.03771 -1.135373,-0.02319 -1.453492,0.167409 a 17.321642,16.804736 0 0 1 -1.726722,0.842727 l 0.507104,0.03723 0.719021,0.05949 -0.499623,0.04355 -0.673645,-0.02272 0.332597,0.418915 0.272255,0.220583 c 0.06033,0.198336 0.01496,0.161571 -0.302669,-0.09578 l -0.499134,-0.4044 c -0.09075,-0.07353 -0.923456,-9.48e-4 -1.120411,0.138376 l 0.718046,0.955384 0.710564,0.874597 1.218642,0.01593 1.264019,0.0527 0.719509,-0.388463 0.681613,-0.344443 0.242818,-0.55051 c 0.470185,-0.814639 0.50808,-0.858662 0.227367,-0.26413 l -0.152066,0.624036 c 0,0 0.370976,-0.07305 0.689096,-0.263658 l 0.73447,-0.226894 c 0.09075,0.07353 0.09075,0.07353 -0.113684,0.132065 l -1.249544,0.55682 0.605337,0.19155 0.771878,0.177033 -0.55248,-0.074 0.181506,0.147052 c 0.226879,0.183819 0.181501,0.147057 -0.121167,0.05128 -0.703569,-0.345862 -1.286462,-0.295056 -2.005971,0.09341 -0.356013,0.234625 -0.348532,0.31541 0.181016,0.595003 0.264774,0.139797 0.779359,0.25782 1.755672,0.376316 0.719021,0.05949 1.195711,0.221528 1.067065,0.192023 l -0.295187,-0.01499 c -0.04537,-0.03677 -1.695333,-0.177979 -1.687852,-0.09719 l 0.582405,0.397142 0.620299,0.35312 -1.49041,-0.684467 -1.497892,-0.765253 -0.915974,0.07984 -0.999245,0.0871 c -0.07579,0.08805 0.196441,0.308641 0.998269,0.808801 0.726014,0.58822 0.77139,0.624983 2.398415,0.971792 l 1.672402,0.383574 1.332327,-0.11613 c 1.960596,-0.130172 1.877324,-0.122914 -0.15158,0.176084 l -0.582893,0.0508 0.70357,0.345863 c 1.604093,0.552402 2.004996,0.802489 0.574924,0.316356 l -0.779359,-0.257819 0.665187,0.837835 0.619811,0.801069 -0.793833,-0.867339 c -0.75594,-0.911361 -0.718045,-0.955383 -1.823005,-1.103384 -0.385938,-0.08852 -0.423832,-0.04449 -0.370975,0.07305 0.113196,0.315884 0.581918,0.845091 0.975337,1.014393 l 0.272255,0.220583 -0.264774,-0.139797 -0.348044,-0.132538 0.143608,0.191077 -0.559473,-0.602736 -0.619812,-0.801069 -0.938419,-0.162517 -0.938418,-0.162518 0.340077,0.499701 c 0.680153,0.999403 1.284998,1.638904 1.965637,2.19036 l 0.635262,0.514691 -0.53703,-0.360379 C 54.16647,62.863216 53.85632,62.686656 53.818426,62.730678 l 0.279249,0.749316 0.279248,0.749317 -0.422856,-0.940393 a 4.4338675,4.3015535 0 0 0 -0.793343,-1.31529 c -0.37797,-0.455681 -0.423346,-0.492445 -0.885075,-0.492917 l -0.507103,-0.03724 0.272255,0.220582 c 0.544511,0.441165 0.642743,0.595477 0.279737,0.301368 -0.544511,-0.441164 -0.544511,-0.441164 -0.522066,-0.198808 0.06033,0.198336 0.06033,0.198336 -0.136128,-0.110292 L 50.981707,61.104868 C 50.679039,61.009088 50.37637,60.913317 50.38385,60.994104 l 0.09027,0.521476 0.128157,0.477455 0.733495,0.669004 a 10.641282,10.323728 0 0 0 0.831729,0.823317 L 51.902727,63.34556 a 836.99595,812.01859 0 0 1 -1.225149,-0.99262 l 0.241355,0.793339 c 0.08278,0.440691 0.241355,0.793339 0.158084,0.800597 L 50.624234,62.68334 c -0.407407,-1.226772 -0.513122,-1.461869 -0.51361,-1.013921 l -0.05335,0.3304 c -0.07579,0.08805 -0.05286,-0.117546 -0.04488,-0.484712 A 4.1382764,4.0147832 0 0 0 49.90814,59.936161 l -0.135153,-1.00619 -0.695601,-0.713025 a 79.573143,77.198546 0 0 1 -1.406164,-1.587624 15.311623,14.854698 0 0 0 -0.367885,4.185381 c -0.008,0.367164 1.465527,2.681857 1.964661,3.086258 0.423346,0.492444 0.468722,0.529208 1.354284,0.574176 l 0.681125,0.103507 -0.590374,-0.02998 -0.628268,0.01405 c -0.07579,0.08805 0.377969,0.45568 0.816765,0.661746 0.484172,0.24283 0.491653,0.323615 0.05286,0.117551 l -0.348044,-0.132539 0.15857,0.352649 0.15857,0.352648 -0.249324,-0.426175 C 50.386947,65.10644 49.42657,64.253619 49.305405,64.304898 l 0.430339,1.021179 c 0.302177,0.543726 0.468234,0.977157 0.384962,0.984415 l -0.4079,-0.778828 A 6.5030057,6.3089451 0 0 0 49.21416,64.679315 l -0.25778,0.388937 a 2.3647293,2.2941618 0 0 0 -0.0089,1.263063 l 0.120189,0.844619 -0.188496,-0.67579 -0.150603,-0.719811 -0.197442,0.587272 c -0.341538,0.844146 -0.326089,0.557767 0.0309,-0.572757 0.5315,-1.512203 0.5315,-1.512203 -0.09579,-2.394058 l -0.574437,-0.764306 -0.197441,0.587272 c -0.04586,0.411185 -0.01593,0.734328 0.07433,1.255804 0.112707,0.763833 0.120188,0.844619 -0.06831,0.16883 -0.128158,-0.477456 -0.173534,-0.514219 -0.264773,-0.139797 -0.129134,0.418443 -0.159548,0.54325 -0.113685,0.132064 0.258757,-1.284836 0.343003,-2.187993 0.237288,-2.42309 -0.01496,-0.161572 -0.15857,-0.35265 -0.294696,-0.462941 l -0.181507,-0.147053 -0.394883,1.174545 -0.379922,1.336117 0.256317,0.954909 0.279249,0.749316 L 46.572,65.153929 a 8.8677351,8.6031069 0 0 0 -0.317127,-0.705257 c -0.136126,-0.110291 -0.219885,0.344917 -0.114659,1.027965 a 5.320641,5.1618642 0 0 1 -0.01594,0.734327 L 46.026514,65.6087 45.928774,65.006438 A 27.076151,26.268153 0 0 0 45.208289,66.2908 l 0.432779,-1.218567 -0.583381,0.498756 -0.5759,0.579542 0.682103,-0.792393 c 0.682101,-0.792392 0.682101,-0.792392 0.879543,-1.379665 l 0.144585,-0.704822 c 0,0 -0.24233,0.102561 -0.469698,0.366691 -0.272742,0.227368 -0.393909,0.278644 -0.280225,0.14658 l 0.500111,-0.491496 c 0.348533,-0.31541 0.378946,-0.440218 0.819693,-2.025948 0.03041,-0.124807 0.0688,-0.616779 -0.01399,-1.05747 l -0.07481,-0.807855 -0.348532,0.315411 -0.39391,0.278645 -0.06132,0.697564 a 9.7545086,9.4634176 0 0 0 -9.78e-4,0.895898 l -0.136126,-0.110292 -0.197441,0.587272 -0.2503,0.469724 -0.136126,-0.110291 0.03789,-0.04402 c 0.227366,-0.264131 0.43229,-0.770618 0.493604,-1.468181 l 0.06132,-0.697565 -0.659171,0.5868 -0.621275,0.542777 0.530524,-0.616305 c 0.568418,-0.660326 0.568418,-0.660326 -0.120677,-0.396669 l -0.333082,0.02903 0.605826,-0.256399 c 0.613306,-0.175614 0.6512,-0.219636 1.06804,-0.703875 l 0.560936,-0.741112 a 1703.551,1652.7142 0 0 0 0.297626,-2.224757 c 0.07579,-0.08805 -0.211916,-0.02225 -1.340295,0.483293 l -1.211649,0.512799 -0.492629,0.572283 -0.439772,0.689832 -0.336008,2.716727 c -0.03041,0.124808 0.150602,0.719812 0.324136,1.23403 0.347069,1.028437 0.376994,1.351579 0.09775,0.602262 l -0.211431,-0.470195 -0.16703,0.462465 -0.219885,0.344917 0.121653,-0.49923 c 0.204923,-0.506487 0.152553,-1.071985 -0.02895,-1.219039 -0.04537,-0.03677 -0.378945,0.440217 -0.735447,1.122791 a 10.641282,10.323728 0 0 1 -0.659657,1.034749 c 0.189473,-0.220111 0.675109,-1.321129 0.591838,-1.313872 l -0.363496,0.153839 c -0.242329,0.10256 -0.242329,0.10256 0.113685,-0.132066 0.67413,-0.425231 0.879056,-0.931715 0.994203,-2.407628 l 0.05432,-1.226298 c 0,0 -0.166542,0.01451 -0.280226,0.14658 -0.196954,0.139322 -0.26526,0.308153 -0.402364,1.09376 A 11.764529,11.413455 0 0 0 42.17054,61.58788 l 0.01545,-0.286378 0.05334,-0.330401 -0.204433,0.05854 c -0.121166,0.05128 -0.121166,0.05128 0.07579,-0.08805 0.113685,-0.132065 0.181991,-0.300894 0.220374,-0.792866 l 0.07628,-0.535992 -0.825711,0.601315 a 3.547094,3.4412428 0 0 0 -1.151798,1.159083 c -0.439773,0.689832 -0.523043,0.69709 -0.121167,0.05128 l 0.288193,-0.513746 -0.401389,0.197864 c -0.280224,0.14658 -0.04537,-0.03676 1.045597,-0.946232 1.568151,-1.195373 2.106156,-1.730892 2.394349,-2.244637 l 0.174511,-0.381681 -0.658682,0.138851 c -0.370977,0.07305 -0.863118,0.197388 -1.060072,0.336712 -0.515072,0.329928 -1.197174,1.122318 -1.439992,1.672827 l -0.06083,0.249615 0.05334,-0.330401 -0.04537,-0.03676 c -0.0075,-0.08079 -0.287706,0.0658 -0.871086,0.564553 a 5.320641,5.1618642 0 0 1 -0.818228,0.682101 l 0.962325,-0.938974 c 0.856124,-0.726122 1.348753,-1.298405 1.258001,-1.371933 l -0.696577,0.182872 c -0.658681,0.13885 -0.696575,0.182872 -1.499842,1.026544 l 0.106202,-0.212851 0.33357,-0.476981 c -0.09075,-0.07353 -0.295188,-0.01499 -1.620521,0.629874 -0.643721,0.300418 -0.446765,0.161098 0.310637,-0.271389 a 13.597194,13.191431 0 0 0 0.681614,-0.344444 c 0.07579,-0.08805 -1.02917,-0.236044 -1.233605,-0.177507 -0.204438,0.05853 -0.204438,0.05853 -0.128647,-0.02951 0.204437,-0.05853 0.204437,-0.05853 -0.484172,-0.24283 -0.09075,-0.07353 0.295187,0.01499 0.976313,0.118496 1.150335,0.184765 1.150335,0.184765 1.884806,-0.04213 0.772366,-0.270914 0.848155,-0.358958 0.552968,-0.373947 -0.09075,-0.07353 0,0 0.249811,-0.02177 a 1.9509017,1.8926835 0 0 0 1.302401,-0.439272 c 0.151577,-0.17609 0.151577,-0.17609 -0.741464,-0.30184 -0.681126,-0.103506 -1.014208,-0.07447 -1.801536,0.03487 -1.196199,0.22642 -1.241575,0.189656 -0.257293,-0.05901 l 0.696577,-0.182872 -1.415109,-0.324562 a 16.671342,16.173841 0 0 1 -0.643231,-0.147528 l 0.71902,0.05949 -0.907518,-0.735274 0.6203,0.353121 0.589887,0.477928 1.952625,0.236991 c 1.362253,0.207012 1.952626,0.236991 2.194956,0.134432 0.492142,-0.124335 0.530036,-0.168356 0.09124,-0.374422 -0.567442,-0.235571 -0.953381,-0.324088 -1.324357,-0.251035 -0.287706,0.0658 -0.333082,0.02903 -0.128647,-0.02951 l 0.204438,-0.05853 -0.605337,-0.19155 c -0.469209,-0.08126 -0.514585,-0.118022 -0.181506,-0.147052 l 0.385938,0.08852 1.029171,0.236044 -0.20395,-0.389409 -0.15857,-0.352649 0.287215,0.382155 c 0.241843,0.345389 0.287216,0.382155 0.816766,0.661747 l 0.938419,0.162517 a 14.779558,14.338512 0 0 0 2.817207,-1.304243 l -0.907517,-0.735275 a 7.3897792,7.1692558 0 0 0 -3.094505,-1.23687 31.155309,30.225582 0 0 0 -3.710737,1.626439 10.641282,10.323728 0 0 1 0.833193,-0.520526 c 0.204437,-0.05853 0.196956,-0.139323 0.144098,-0.256873 -0.325113,-0.338132 -0.6203,-0.353121 -1.483418,-0.155733 l -0.832704,0.07258 0.779847,-0.19013 c 0.454247,-0.08031 0.779847,-0.19013 0.772366,-0.270916 -0.22688,-0.183818 -1.119435,-0.757521 -1.285975,-0.743005 a 16.966933,16.460611 0 0 1 -0.855136,-0.169776 c 0.968829,0.0377 0.968829,0.0377 0.424318,-0.403465 l -0.272255,-0.220582 0.718533,0.507433 a 23.647293,22.941618 0 0 0 2.360033,1.463764 15.370741,14.912052 0 0 0 1.726723,-0.842726 c 0.113683,-0.132065 0.113683,-0.132065 -0.317632,-0.257345 l -0.741504,-0.30184 c -0.348045,-0.13254 -0.802291,-0.05223 -1.332327,0.116129 l -0.333081,0.02903 -0.453759,-0.367636 0.264774,0.139797 c 0.219398,0.103032 0.431315,0.12528 0.756915,0.01546 l 0.408871,-0.117074 -1.535786,-0.721232 a 1266.6082,1228.8104 0 0 1 0.03041,-0.124808 l 1.604094,0.552403 -0.90654,-1.631174 -0.567442,-0.235572 C 38.208653,50.531949 37.429294,50.27413 37.550459,50.22285 l 0.908005,0.287325 c 1.127404,0.390357 1.286464,0.295055 0.401388,-0.197864 l -0.408383,-0.330874 0.226879,0.183819 0.348045,0.132538 c 0.0379,-0.04402 -0.0753,-0.359905 -0.317144,-0.705294 l -0.302173,-0.543724 z m 11.803745,10.983194 0.05237,0.565498 0.574924,0.316357 c 0.537029,0.360379 1.611576,0.633187 1.725259,0.501122 0.07579,-0.08805 -0.899548,-1.102437 -1.307931,-1.433311 -0.408383,-0.330873 -1.021201,-0.603208 -1.059096,-0.559187 z M 43.603176,45.786279 c 0.09075,0.07353 0.09075,0.07353 0.0075,0.08079 l -0.136127,-0.110292 z m -3.107352,3.609785 c 0.09075,0.07353 0.05286,0.117551 0.0075,0.08079 l -0.136127,-0.110291 c 0.03789,-0.04402 0.03789,-0.04402 0.09075,0.07352 z m 2.964395,2.551211 -0.02293,0.205593 c 0,0 -0.09075,-0.07353 -0.06033,-0.198336 0.02293,-0.205592 0.02293,-0.205592 0.04537,0.03677 z m -6.344326,8.085965 -0.113684,0.132065 c -0.04537,-0.03676 -0.09075,-0.07353 0.03041,-0.124807 0.03789,-0.04402 0.07579,-0.08805 0,0 z m 2.893485,-1.840236 c 0.09075,0.07353 0.09075,0.07353 -0.0379,0.04402 -0.166541,0.01451 -0.211916,-0.02225 -0.136127,-0.110291 z m 14.527756,-9.00285 -0.113683,0.132064 c 0,0 -0.04537,-0.03676 0.07579,-0.08804 0.07579,-0.08805 0.07579,-0.08805 0,0 z m -5.446891,4.180176 -0.113685,0.132065 c -0.04537,-0.03677 -0.09075,-0.07352 0.03041,-0.124808 0.03789,-0.04402 0.07579,-0.08805 0,0 z m 2.27172,-0.84951 c 0,0 0.0075,0.08079 -0.0379,0.04402 l -0.136127,-0.110293 c 0,0 0.03789,-0.04402 0.09075,0.07353 z m -11.719495,8.961667 -0.196955,0.139322 c -0.08327,0.0073 -0.04537,-0.03677 0.07579,-0.08805 l 0.113684,-0.132064 z m 14.807982,-9.149431 -0.159047,0.09532 c -0.08327,0.0073 -0.166541,0.01451 -0.04537,-0.03676 a 0.47294587,0.45883237 0 0 1 0.204437,-0.05853 z"
         style="fill:#000000;stroke-width:0.313651"
         id="path5" />
    </g>
  </g>
</svg>
