<?xml version="1.0" encoding="UTF-8" standalone="no"?>
<svg
   width="400"
   height="650"
   viewBox="0 0 105.83333 171.97917"
   version="1.1"
   id="svg5"
   sodipodi:docname="tree-stand.svg"
   inkscape:version="1.4.3 (0d15f750, 2025-12-25)"
   xmlns:inkscape="http://www.inkscape.org/namespaces/inkscape"
   xmlns:sodipodi="http://sodipodi.sourceforge.net/DTD/sodipodi-0.dtd"
   xmlns="http://www.w3.org/2000/svg"
   xmlns:svg="http://www.w3.org/2000/svg">
  <defs
     id="defs5" />
  <sodipodi:namedview
     id="namedview5"
     pagecolor="#ffffff"
     bordercolor="#000000"
     borderopacity="0.25"
     inkscape:showpageshadow="2"
     inkscape:pageopacity="0.0"
     inkscape:pagecheckerboard="0"
     inkscape:deskcolor="#d1d1d1"
     inkscape:zoom="0.57852505"
     inkscape:cx="305.95045"
     inkscape:cy="329.28565"
     inkscape:window-width="1596"
     inkscape:window-height="836"
     inkscape:window-x="66"
     inkscape:window-y="25"
     inkscape:window-maximized="0"
     inkscape:current-layer="layer3" />
  <g
     inkscape:groupmode="layer"
     id="layer2"
     inkscape:label="tree">
    <g
       inkscape:groupmode="layer"
       id="layer3"
       inkscape:label="area">
      <path
         id="path3-8"
         style="fill:#ececec;stroke-width:0.920128"
         inkscape:label="area"
         d="M 34.842968,2.0376874 A 33.072918,33.072918 0 0 0 1.7700512,35.110604 33.072918,33.072918 0 0 0 25.427522,66.814612 33.072918,33.072918 0 0 0 15.490144,90.448828 33.072918,33.072918 0 0 0 20.461933,107.88859 33.072918,33.072918 0 0 0 4.5140696,136.18299 33.072918,33.072918 0 0 0 37.586986,169.2559 33.072918,33.072918 0 0 0 61.492504,159.03792 33.072918,33.072918 0 0 0 71.430398,160.56651 33.072918,33.072918 0 0 0 104.50332,127.49359 33.072918,33.072918 0 0 0 91.507726,101.212 33.072918,33.072918 0 0 0 92.612051,92.73551 33.072918,33.072918 0 0 0 90.650931,81.51604 33.072918,33.072918 0 0 0 97.642752,61.17878 33.072918,33.072918 0 0 0 67.187763,28.209733 33.072918,33.072918 0 0 0 34.842968,2.0376874 Z" />
    </g>
    <g
       inkscape:groupmode="layer"
       id="layer7"
       inkscape:label="terrain">
      <path
         d="m 27.605553,10.232141 a 12.6,12.8 0 0 0 -12.6,13 12.6,12.8 0 0 0 2,7 11,11.3 0 0 0 -3.7,8.3 11,11.3 0 0 0 7,10.5 11,11.3 0 0 0 11,10.8 11,11.3 0 0 0 10.2,-6.7 11,11.3 0 0 0 0.7,0.3 11,11.3 0 0 0 10,6.4 11,11.3 0 0 0 0.5,0 8.8,8.6 9.4 0 0 -0.1,0 8.8,8.6 9.4 0 0 -1.2,0.5 15,15.3 50 0 0 -4.6,2.7 15,15.3 50 0 0 -4.8,7.2 13.3,13.5 50 0 0 -10.6,3 13.3,13.5 50 0 0 -4.3,14.5 13.3,13.5 50 0 0 -1.3,18.499999 13.3,13.5 50 0 0 14,4.1 13.3,13.5 50 0 0 0.2,1 13.3,13.5 50 0 0 -0.7,9.1 8.8,8.6 9.4 0 0 -3,-1 8.8,8.6 9.4 0 0 -9,4 8.8,8.6 9.4 0 0 -9.7,7.1 8.8,8.6 9.4 0 0 4,8.7 8.8,8.6 9.4 0 0 -0.5,0.5 8.8,8.6 9.4 0 0 -6.1,6.8 8.8,8.6 9.4 0 0 7.2,10 8.8,8.6 9.4 0 0 6,-1 8.8,8.6 9.4 0 0 5.3,3 8.8,8.6 9.4 0 0 8.8,-3.8 10,9.8 9.4 0 0 9,-6.2 11,11.3 0 0 0 5,1.3 11,11.3 0 0 0 10.2,-6.7 11,11.3 0 0 0 0.8,0.4 11,11.3 0 0 0 10,6.3 11,11.3 0 0 0 11,-11.3 11,11.3 0 0 0 -2.6,-7.2 11,11.3 0 0 0 2.8,-7.4 11,11.3 0 0 0 -6.6,-10.3 12.6,12.8 0 0 0 -3,-6 13.3,13.5 50 0 0 -0.2,-6 15,15.3 50 0 0 0,-19.199999 15,15.3 50 0 0 -7.4,-4.8 15,15.3 50 0 0 0.1,-0.3 8.8,8.6 9.4 0 0 2.3,-2.4 10,9.8 9.4 0 0 9.5,-8.2 10,9.8 9.4 0 0 -0.7,-5.6 10,9.8 9.4 0 0 5,-7 10,9.8 9.4 0 0 -8.2,-11.3 10,9.8 9.4 0 0 -5.6,0.7 8.8,8.6 9.4 0 0 -6,-4 8.8,8.6 9.4 0 0 -7,1.8 11,11.3 0 0 0 2.8,-7.4 11,11.3 0 0 0 -6.7,-10.5 12.6,12.8 0 0 0 -12.3,-10.2 12.6,12.8 0 0 0 -7,2.1 12.6,12.8 0 0 0 -9.9,-5 z"
         style="fill:#00ca00;fill-opacity:1;stroke-width:1.05833"
         id="path1" />
    </g>
    <g
       inkscape:groupmode="layer"
       id="layer6"
       inkscape:label="deco"
       style="display:inline">
      <path
         d="m 42.605553,53.932141 0.6,-7.4 c 0,-0.5 0,-0.7 -0.5,-1.4 a 3,3 0 0 0 -0.7,-0.8 41.5,41.5 0 0 0 -1,5.2 l 0.3,0.4 -0.3,-0.3 c -0.3,-0.2 -0.3,-0.2 -0.4,0.5 l -0.2,0.7 0.2,-1.7 0.7,-3.6 0.3,-2 -1,-1.3 -1,-1.4 -0.3,0.5 -0.3,0.6 0.2,1 c 0.3,0.6 0.5,1 1,1.4 0.7,0.7 0.7,0.8 0,0.2 l -0.5,-0.4 v 2.8 l -0.2,-1.2 c -0.2,-2 -0.2,-2 -0.5,-2.7 l -0.3,-0.6 -0.5,1 c -0.6,1 -0.6,1.1 -0.6,2.4 v 1.3 -1.1 l -0.2,-1.1 -0.3,0.8 c -0.7,1.3 -0.6,0.8 0,-0.6 0.7,-1.4 0.7,-1.6 0.5,-1.4 l -1.5,0.6 1,-0.5 0.9,-0.5 0.6,-1.5 0.6,-1.5 -0.7,-2 a 14,14 0 0 0 -0.9,-2.1 l -1.8,2.2 c -0.3,0.4 -0.1,1.3 0.3,2.2 0.2,0.4 0.3,0.6 0.1,0.4 -0.3,-0.5 -0.4,-0.4 -0.3,0.1 v 0.4 c -0.2,0 -0.2,-0.5 -0.3,-0.9 l -0.1,-1.2 -0.2,-0.5 -0.5,0.7 c -0.4,0.5 -0.8,1.3 -1,2 -0.5,1.2 -0.5,1.2 -0.4,2.8 0.2,1.6 0.2,1.6 0.8,2.6 a 59.8,59.8 0 0 0 3,4.4 l -1.4,-1.3 0.2,1.5 c 0.4,1.8 0.3,2.2 0,0.5 -0.5,-2 -0.4,-2 -1,-0.6 -0.8,1.7 -0.8,1.5 0,-0.2 l 0.4,-1.6 -1,-1.5 c -0.8,-1 -1,-1.3 -1,-1.1 a 77.3,77.3 0 0 0 -1,3 l 0.3,-2 c 0,-0.2 -1.2,1.1 -1.2,1.3 0,0.3 0,2.3 -0.1,2 0,-0.3 -0.2,-0.3 -0.6,0.2 -0.4,0.3 -0.3,0.2 0,-0.2 0.5,-0.6 0.5,-0.8 0.5,-1.4 v -0.7 l -0.5,0.6 a 77,77 0 0 1 1,-1.3 c 1,-1.3 1.1,-1.6 1.1,-2.6 a 6,6 0 0 0 -0.3,-2.3 l -1.6,1.6 a 13.5,13.5 0 0 0 -2.6,4 l -1.2,2.3 1,-2.3 1,-2.4 -0.8,0.4 c -0.7,0.4 -0.8,0.6 -1.2,1.4 l -0.4,0.7 0.3,-0.7 c 0.3,-0.6 0.2,-0.7 -0.2,-0.4 l -1.6,1 0.8,-0.7 c 0.6,-0.4 0.7,-0.6 0.5,-0.6 -0.2,-0.1 -0.1,-0.2 0.3,-0.2 1,-0.2 2.4,-1.3 4.1,-3.3 1.4,-1.5 1.6,-1.9 1.9,-2.7 l 0.2,-1 c 0,-0.1 -2.2,0.2 -2.9,0.4 -0.6,0.2 -0.8,0.6 -0.8,1.8 v 0.8 -0.7 l -0.2,-0.8 -0.2,0.6 a 40.7,40.7 0 0 0 -0.3,0.4 c 0,-0.5 0,-0.5 -0.2,-0.3 l 0.2,-0.3 c 0.4,-0.5 0.7,-1 0.7,-1.3 0,-0.2 -0.8,0.2 -1.8,0.8 -1,0.6 -1.3,0.9 -2,1.9 -0.7,1 -0.8,1.1 -0.8,2 v 0.2 c 0,-0.4 -0.2,-0.7 -0.2,-0.7 l -0.2,0.1 -0.4,0.7 -0.4,0.5 0.3,-0.5 0.7,-1.1 c 0.4,-0.7 0.3,-0.7 -0.6,-0.3 l -0.6,0.1 0.8,-0.4 c 0.7,-0.3 1,-0.5 1.3,-0.9 0.6,-0.8 0.5,-0.9 -0.7,-0.8 -1.5,0.1 -1.3,0 0.3,-0.2 1,-0.1 1.3,-0.2 2.1,-0.8 l 1,-0.8 -1.4,-0.4 0.2,-0.1 h 0.5 l -0.2,-0.4 c -0.2,-0.4 -0.2,-0.4 0.1,0 0.8,0.9 0.8,0.9 3.7,0.1 l 2.5,-0.6 1.3,-1.8 c 0.8,-1.1 1.2,-1.8 1,-1.8 -0.3,0 -1.3,0.6 -1.8,1.2 -0.3,0.3 -0.5,0.5 -0.4,0.3 0,-0.2 0,-0.2 -0.7,0.1 -0.2,0 0,0 0.3,-0.3 0.6,-0.3 0.6,-0.3 0.3,-0.4 -0.3,0 -0.3,0 0.1,-0.1 0.4,0 1.1,-0.4 1,-0.7 l -0.8,-0.2 c -1.2,-0.3 -1,-0.4 0.2,-0.2 0.8,0.2 1.1,0.2 1.7,0 0.8,-0.2 1.2,-0.5 1,-0.8 -0.3,-0.2 -2.5,-1 -4,-1.3 -1.6,-0.3 -1.6,-0.3 -2.4,0 -1,0.4 -1.1,0.5 -0.9,1.1 0.3,0.7 0.3,0.8 0,0.2 l -0.3,-0.5 -0.2,0.4 -0.2,0.4 0.1,-0.5 c 0.3,-0.6 0.2,-0.6 -0.7,-0.2 a 98.1,98.1 0 0 0 -4.7,5.7 l 0.6,-1 c 0,0 -1,0 -1.4,0.2 -0.2,0 -0.4,0.4 -0.5,0.7 a 2,2 0 0 1 -0.4,0.6 l 0.2,-0.6 0.3,-0.6 h -0.3 c -0.2,0 -0.4,0 -0.5,0.2 h -0.3 l 0.5,-0.3 a 68.6,68.6 0 0 0 2.6,-0.5 l 0.6,-1 -0.8,-0.3 c -0.7,0 -0.9,0 -1.3,0.3 l -0.5,0.3 0.4,-0.3 0.2,-0.4 -0.7,-0.3 c -0.9,-0.2 -0.6,-0.3 0.6,0 l 1.6,0.2 h 0.8 l 1,-1.4 0.8,-1.4 -1.1,-0.1 -1,-0.1 -2,1 -1.8,1 1.5,-1 1.5,-1 -3.2,-0.1 h -3.2 l 2.5,-0.2 c 2.3,-0.2 2.4,-0.2 2,-0.4 -0.1,-0.2 -0.4,-0.3 -0.7,-0.4 -0.3,0 -1.2,-0.6 -1,-0.6 l 1.3,0.6 c 1.2,0.6 1.3,0.6 3,0.6 h 2 l -0.4,-0.3 -0.7,-0.6 c -0.3,0 -0.4,-0.2 -0.3,-0.2 v -0.5 c -0.2,-0.5 0,-0.3 0.3,0.2 0.1,0.3 0.6,0.7 1,1 l 0.8,0.6 1.4,-0.6 1.4,-0.7 a 10,10 0 0 0 -2.6,-2.3 c -1,-0.5 -2.3,-0.5 -4,0.1 -1.8,0.6 -1.9,0.6 -0.8,0.1 l 1,-0.5 -1.6,-0.5 -1.7,-0.5 h 1.4 c 0.1,0.4 2.5,0.8 3.3,0.6 l 0.6,-0.1 -1.2,-1 c -1,-0.8 -1.3,-1 -2.1,-1 -0.8,-0.2 -0.8,-0.2 -0.2,-0.2 h 0.6 l -0.8,-0.7 -0.8,-0.7 1.3,0.8 c 3.1,2.3 3.9,2.8 4.4,3 h 0.6 l -1.2,-2.3 a 3,3 0 0 0 -1.1,-0.4 c -0.5,0 -0.8,-0.3 -0.9,-0.4 0,-0.2 0,-0.2 0.1,0 0.2,0.1 1.7,0.5 1.7,0.3 l -0.3,-0.6 c -0.2,-0.4 -0.4,-0.6 -0.9,-0.8 l -2.8,-1.2 -0.5,-0.7 -0.4,-0.5 0.8,0.8 c 0.4,0.4 1,0.7 1.9,1 1.4,0.6 1.6,0.6 1.4,0.3 -0.3,-0.3 -1.1,-2 -1,-1.8 l 2,3.4 2,3.2 1.4,1.2 c 1.2,1 1.5,1.3 2.1,1.3 a 29.3,29.3 0 0 1 3.2,0.6 l -0.6,-0.6 -0.9,-0.8 c -0.1,-0.1 0.2,0 0.7,0.5 l 1,0.6 -0.1,-0.8 v -0.6 l 0.1,0.5 0.2,1 c 0.1,0.3 1.4,1 1.7,1 l 0.1,-2 v -2 l -1.6,-1.3 -1.6,-1.4 -1.4,-0.2 -1.3,-0.2 -1,0.5 c -1.4,0.7 -1.6,0.7 -0.5,0 0.5,-0.2 0.9,-0.5 0.9,-0.6 l -1.3,-0.4 -1.2,-0.4 c 0,-0.2 0,-0.2 0.4,0 0.4,0.2 2.1,0.5 2.2,0.4 l -0.6,-0.7 c -1.5,-1.8 -1.5,-1.8 -0.8,-1.1 l 0.6,0.6 v -0.3 c -0.1,-0.4 -0.1,-0.4 0.1,0 0.6,1.3 1.4,1.9 2.8,2 0.8,0 0.8,0 0.4,-1 -0.2,-0.4 -0.8,-1.2 -2,-2.3 l -1.2,-1.4 0.4,0.3 c 0,0.2 2,2 2.2,2 l -0.4,-1.2 -0.4,-1.2 1.2,2.5 1.2,2.6 1.3,0.9 1.5,0.9 c 0.2,0 0,-0.7 -0.4,-2.2 -0.5,-1.5 -0.6,-1.6 -2.3,-3.8 l -1.8,-2.3 -2,-1.3 c -2.7,-1.8 -2.6,-1.8 0.5,0 l 0.8,0.5 -0.6,-1.2 c -1.5,-2.5 -1.8,-3.3 -0.4,-1 l 0.7,1 v -1.6 l 0.1,-1.8 v 2 c 0.1,2.1 0,2 1.4,3.5 0.4,0.4 0.5,0.5 0.5,0.3 0.2,-0.6 0.1,-1.9 -0.2,-2.5 l -0.2,-0.6 0.3,0.5 0.3,0.5 v -0.4 c 0.1,-0.2 0.2,0.5 0.1,1.4 v 1.8 l 1,1.2 1.2,1.1 v -1 a 15,15 0 0 0 -0.3,-5 l -0.2,-1.6 0.4,1.1 0.4,1.2 0.5,-1.4 0.4,-1.2 -0.3,1.6 a 7.5,7.5 0 0 0 -0.4,2.6 c 0,1.1 0,1.1 0.7,1.6 l 0.6,0.6 -0.1,-0.6 c -0.2,-1.2 -0.3,-1.5 0,-0.8 0.2,1.2 0.3,1.3 0.4,0.8 0.1,-0.3 0.2,-0.2 0.1,0.3 0,0.6 0,0.8 0.4,1.6 0.2,0.4 0.5,0.8 0.6,0.7 l 0.4,-0.8 0.4,-0.8 -0.3,-1.6 a 18,18 0 0 0 -0.3,-2.2 l 0.3,0.6 a 1485,1485 0 0 1 0.5,2.6 l 0.6,-1.3 0.5,-1.3 c 0,0 -0.2,1 -0.7,2.2 -0.7,2.1 -0.8,2.6 -0.4,2 l 0.5,-0.4 c 0.1,0 0,0.2 -0.5,0.7 -0.5,0.4 -1,1.4 -1.6,2.3 l -0.8,1.5 0.1,1.7 a 134.6,134.6 0 0 1 0.3,3.7 25.9,25.9 0 0 0 5,-5.5 c 0.3,-0.5 0.8,-5.1 0.6,-6.2 -0.1,-1.2 -0.1,-1.2 -1.2,-2.2 l -0.9,-0.9 0.8,0.7 c 0.4,0.3 0.8,0.6 1,0.6 0.1,0 -0.1,-1 -0.5,-1.8 -0.4,-0.8 -0.4,-1 0,-0.2 l 0.4,0.6 0.1,-0.7 0.2,-0.6 -0.1,0.8 c 0,0.8 0.3,3 0.5,3 l 0.5,-1.8 0.5,-1.8 -0.2,1.6 a 11,11 0 0 0 -0.2,1.6 c 0,0.1 0.4,0 0.7,-0.3 0.6,-0.3 0.8,-0.6 1.4,-1.7 l 0.8,-1.3 -0.5,1.2 -0.6,1.1 1,-0.6 c 1.2,-0.8 1,-0.5 -0.8,0.7 -2.3,1.7 -2.3,1.6 -2.4,3.4 v 1.7 l 0.8,-0.6 c 0.6,-0.5 1,-1 1.3,-1.8 0.6,-1.2 0.8,-1.3 0.3,-0.2 -0.4,0.9 -0.4,1 0.2,0.5 0.6,-0.5 0.8,-0.5 0.3,0 a 17.2,17.2 0 0 0 -3,3 v 1.4 l 1.8,-1.2 2,-1.5 0.6,-1.6 0.4,-1.3 -0.2,1.2 a 15,15 0 0 0 -0.4,1.3 c 0,0.3 0.6,-0.3 1.2,-1.2 l 0.8,-1 -0.5,0.8 -0.5,1 a 45.8,45.8 0 0 0 2.3,-1 l -2,1.2 1.4,-0.2 h 1.4 l -1.8,0.3 c -1.7,0.3 -1.8,0.3 -2.7,1 l -0.9,0.8 h 1.6 l -1.2,0.2 c -0.8,0 -1,0.2 -3.3,2 l -1.1,1.4 -0.8,1.2 h 1.8 l 0.6,-1 a 16.5,16.5 0 0 0 1.1,-1.2 v 0.3 l 1,-0.5 0.7,-0.4 c 0,0 0,0.2 0.2,0.2 l -0.2,0.1 c -0.6,0 -1.3,0.6 -2.2,1.5 l -0.8,0.8 h 1.5 l 1.4,-0.2 -1.4,0.3 c -1.4,0.3 -1.4,0.4 -0.2,0.8 l 0.4,0.2 c 0,0 -0.5,0 -1,-0.3 -1,-0.3 -1,-0.3 -2.3,-0.1 -0.7,0.1 -1.3,0.3 -1.5,0.5 a 2897,2897 0 0 0 -2.7,2.7 c -0.2,0.1 0.2,0.3 2.3,0.8 l 2.2,0.6 1.2,-0.4 a 14,14 0 0 0 1.3,-0.4 l 3.4,-3.5 0.9,-2 c 0.6,-1.8 1,-2.3 0.4,-1 l -0.1,0.9 0.7,-0.4 0.6,-0.4 -0.7,0.6 c -0.7,0.5 -1.3,1.4 -1.2,1.8 0,0 1,-0.3 2.2,-0.9 a 18,18 0 0 1 2,-0.7 c -0.6,0.2 -2.4,1.2 -2.3,1.2 l 0.7,0.2 h -0.3 c -1.4,0 -2.2,0.4 -3.9,2.4 l -1.4,1.6 0.5,0.1 c 0.4,0 0.8,-0.2 1.8,-1 a 19.9,19.9 0 0 0 1.7,-1.6 c 0,0 0,0.2 -0.3,0.4 l -0.5,0.5 h 0.4 c 0.3,0.1 0.2,0.1 -0.1,0.2 -0.4,0 -0.7,0.2 -1.2,0.7 l -0.7,0.8 h 1.8 a 6,6 0 0 0 2.8,-0.4 c 1.2,-0.5 1.4,-0.5 0.1,0 l -0.9,0.5 h 0.8 c 0.5,0.2 0,0.2 -2.4,0.3 -3.4,0 -4.8,0.2 -5.7,0.7 l -0.6,0.3 1,0.5 1.8,0.6 c 1,0.1 2.8,-0.3 3.7,-1 0.5,-0.2 0.6,-0.3 0.4,0 l -0.4,0.2 -0.1,0.2 c 0,0.1 0.5,0.2 1.8,0 h 1.8 l -2.2,0.3 c -2,0.1 -3.2,0.4 -3.2,0.6 l 1,0.5 c 1.1,0.4 1.3,0.4 3.3,0.1 0.3,0 0.1,0 -0.4,0.2 l -1,0.4 c 0,0 0.4,0.2 2.9,0.7 1.2,0.3 0.8,0.3 -0.7,0 a 23,23 0 0 0 -1.3,-0.2 c -0.3,0 1,1.5 1.5,1.6 0.2,0 0.3,0.1 0.1,0 -0.3,0 -0.4,0 0.4,1 l -1.2,-1.2 c -1.3,-1.5 -1.3,-1.5 -2.6,-1.9 -1.3,-0.4 -1.5,-0.4 -1.1,0 l -0.4,-0.3 c -0.6,-0.4 -1.6,-0.8 -2.2,-0.7 -0.3,0 -0.3,0.1 0.6,1.1 0.9,1 1.3,1.2 2.6,1.9 1.7,0.9 1.9,1 0.2,0.3 l -1,-0.4 c 0,0 0.6,0.9 1.5,1.8 a 28.2,28.2 0 0 1 0.6,1 l -0.9,-0.9 0.3,1 0.2,1 -0.4,-1.2 -0.4,-1.2 -2.3,-2.3 a 13.4,13.4 0 0 0 -2.9,-2.5 c -0.7,-0.3 -0.7,-0.2 -0.4,0.5 0.4,0.8 1,1.4 1.5,1.7 0.5,0.2 0.5,0.3 0.2,0.2 l -0.4,-0.1 0.6,0.8 c 0.5,0.7 0.6,0.7 0.2,0.4 l -0.5,-0.5 c 0,-0.2 -1.1,-1.4 -1.2,-1.4 l -0.1,0.8 -0.2,0.6 v -0.8 c 0.1,-0.7 0,-0.9 -0.4,-1.8 l -1,-1.2 c -0.4,-0.2 -5,-1.2 -5.2,-1.1 l 0.5,2 a 12.5,12.5 0 0 0 2.8,4.9 52.7,52.7 0 0 0 6.6,1.5 h -1.6 c -0.3,-0.1 -0.4,-0.1 -0.4,0.2 0,0.7 0.4,1 1.7,1.7 l 1.3,0.7 -1.3,-0.5 -1.3,-0.4 c 0,0.4 0.7,2.2 0.9,2.3 a 28.7,28.7 0 0 1 1,1.1 c -1.2,-1 -1.3,-1 -1,0.1 0.1,0.4 0.2,0.6 0.1,0.7 l -0.4,-1.5 a 40,40 0 0 0 -1.7,-4.4 l -3.3,-0.6 c -0.3,0 -0.3,0 0.1,0.7 l 0.7,1.2 c 0.4,0.5 1,1 1.9,1.2 l 0.5,0.3 0.1,0.5 c 0.2,0.2 0.2,0.5 0.2,0.5 l -0.3,-0.4 c -0.2,-0.5 -0.4,-0.6 -1,-0.9 l -0.7,-0.2 1.3,2.5 a 2156,2156 0 0 1 -0.1,0.2 l -1.6,-2.4 -0.5,3.2 0.5,0.9 a 15,15 0 0 1 1.4,2.3 l -1,-1.3 c -1.1,-1.7 -1.3,-1.7 -0.8,-0.1 l 0.3,0.8 c 0,0 -0.2,-0.1 -0.2,-0.4 l -0.3,-0.5 -0.3,1.2 -0.2,1 z m -4.1,-27.5 0.5,-0.8 -0.4,-1 c -0.4,-1 -1.4,-2.5 -1.8,-2.5 -0.2,0 0,2.4 0.2,3.3 l 0.9,2 z m -6.3,26.6 v -0.1 0.3 z m 8,-1.8 c 0,-0.2 0,-0.2 0,0 0.1,0 0.1,0.2 0,0.2 z m -1.2,-6.5 c 0,-0.2 0.2,-0.4 0.2,-0.3 l -0.1,0.3 c -0.3,0.3 -0.3,0.3 -0.1,0 z m 17.1,-4.6 h 0.3 z m -6,-0.5 c 0,-0.2 0,-0.2 0.2,0 0.2,0.1 0.3,0.2 0.1,0.2 0,0 -0.2,0 -0.2,-0.2 z m -28.8,-2.5 h 0.3 -0.2 c -0.2,0 -0.2,0 0,0 z m 11.8,-0.2 h 0.2 -0.2 c -0.1,0 -0.1,0 0,0 z m -4,-1.1 c 0,-0.2 0,-0.2 0.1,-0.1 v 0.3 -0.2 z m 25.2,-0.3 h 0.4 z m -29.6,-2.7 c -0.3,-0.1 0,-0.2 0.3,0 0.2,0.1 0.2,0.1 0.1,0.2 z"
         style="fill:#000000;stroke-width:0.538646"
         id="path2" />
      <path
         d="m 35.405553,107.83214 c 0,0 4.5,-2 8.2,-3.4 0.5,-0.2 0.7,-0.5 1.2,-1.3 l 0.4,-1.1 a 49.8,49.8 0 0 0 -6,1.8 l -0.2,0.5 v -0.5 c 0.2,-0.4 0.2,-0.4 -0.7,-0.2 l -0.9,0.2 2,-0.7 4.1,-1.3 2.3,-0.6 1,-1.899999 0.9,-1.8 h -1.6 l -0.8,0.8 c -0.6,0.6 -0.9,1 -1,1.799999 -0.4,1 -0.6,1.2 -0.3,0.1 l 0.2,-0.699999 -1.5,0.699999 -1.5,0.8 1.2,-0.9 c 2,-1.299999 2,-1.299999 2.6,-1.999999 l 0.5,-0.6 h -1.4 c -1.4,0 -1.5,0 -2.8,0.7 l -1.5,0.7 1.2,-0.7 1.1,-0.7 h -1 c -1.8,0.1 -1.3,0 0.6,-0.2 1.8,0 2,-0.1 1.8,-0.3 a 9.9,9.9 0 0 1 -1.5,-1.2 l 1,0.7 1.1,0.7 2,-0.2 1.9,-0.2 1.7,-1.9 1.8,-2 c -0.1,-0.2 -2.7,-0.7 -3.4,-0.8 -0.6,0 -1.4,0.6 -2.2,1.7 l -0.3,0.3 c 0.3,-0.6 0.2,-0.7 -0.4,-0.3 -0.3,0.2 -0.4,0.3 -0.4,0.1 l 0.9,-0.7 1.2,-0.8 0.4,-0.5 -1.1,-0.2 h -2.6 c -1.5,0.3 -1.6,0.3 -3.2,1.3 -1.6,1 -1.6,1 -2.3,2.3 a 71.7,71.7 0 0 0 -3,5.499999 l 0.7,-1.999999 -1.5,1 c -1.8,1.399999 -2.3,1.599999 -0.6,0.199999 1.9,-1.499999 1.9,-1.399999 0,-1.299999 -2,0 -2,0 0.3,-0.2 l 1.9,-0.4 1,-2 c 0.8,-1.3 1,-1.7 0.7,-1.7 l -3.5,1 c -3.6,1.2 -3.7,1 -0.3,-0.1 l 2.4,-1 -2,-0.5 c -0.5,0.2 -2.6,1.2 -2.4,1 0.4,-0.3 0.4,-0.3 -0.4,-0.6 -0.6,-0.1 -0.5,-0.2 0.2,0 0.9,0.1 1.1,0.1 1.7,-0.2 l 0.8,-0.4 -1,-0.3 c -0.9,-0.3 -0.9,-0.3 -0.1,-0.1 l 2,0.4 c 2,0.4 2.4,0.4 3.5,-0.2 1.2,-0.7 2.3,-1.5 2.2,-1.6 l -2.6,-0.8 c -2.3,-0.6 -2.8,-0.6 -5.6,-0.6 h -3.2 l 3,-0.2 c 1.7,0 3.1,-0.2 3.1,-0.2 l -0.8,-0.6 c -0.9,-0.5 -1.1,-0.6 -2.1,-0.6 h -1 0.9 c 0.8,-0.1 0.9,-0.3 0.3,-0.5 l -2,-1.1 1.2,0.4 c 0.9,0.4 1,0.5 1,0.2 0,-0.3 0,-0.2 0.4,0.2 0.8,1 2.6,1.9 5.7,2.6 2.4,0.6 3,0.6 4,0.4 0.6,0 1.2,-0.2 1.2,-0.3 l -2.1,-2.8 c -0.6,-0.5 -1.1,-0.5 -2.4,0.1 l -0.9,0.5 0.8,-0.5 0.7,-0.5 h -0.7 a 48.7,48.7 0 0 0 -0.6,0 c 0.6,-0.2 0.6,-0.2 0.2,-0.4 h 0.4 c 0.8,0.2 1.6,0.2 1.8,0 0.2,0 -0.6,-0.7 -1.9,-1.5 a 6.3,6.3 0 0 0 -3,-1 c -1.6,-0.2 -1.7,-0.2 -2.6,0.3 -1,0.4 -1,0.4 -0.3,0 0.4,-0.2 0.7,-0.5 0.7,-0.6 h -0.2 l -1,-0.1 -0.7,-0.2 h 0.7 l 1.5,0.2 c 1,0 1,0 0,-0.8 l -0.5,-0.6 1,0.7 c 0.6,0.5 1,0.7 1.6,0.8 1.2,0.2 1.3,0.1 0.4,-1.2 -0.9,-1.4 -0.6,-1.3 0.4,0.2 0.8,1 1,1.3 2,1.9 l 1.4,0.5 c 0.1,0 0,-0.9 -0.3,-1.7 0,-0.2 0,-0.2 0.2,0.2 l 0.4,0.5 0.3,-0.4 c 0.2,-0.5 0.2,-0.5 0,0.1 -0.5,1.3 -0.5,1.4 1.9,4 l 2.1,2.3 2.6,0.4 c 1.6,0.2 2.5,0.3 2.5,0.1 -0.2,-0.4 -1.4,-1 -2.4,-1.3 -0.4,-0.2 -0.7,-0.3 -0.5,-0.3 0.2,0 0.2,0 -0.5,-0.7 l 0.5,0.2 c 0.7,0.5 0.7,0.5 0.6,0 -0.1,-0.2 0,-0.2 0.2,0.2 0.2,0.4 1,0.9 1.3,0.8 0,0 0,-0.6 -0.2,-1.1 -0.4,-1.4 -0.2,-1.3 0.2,0.1 a 4,4 0 0 0 1,1.8 c 0.6,0.7 1.2,1 1.3,0.5 0.2,-0.4 -0.3,-3 -0.8,-5 -0.5,-1.7 -0.5,-1.7 -1.3,-2.4 -1,-1 -1.1,-1 -1.6,-0.3 -0.6,0.7 -0.8,0.7 -0.3,0 l 0.4,-0.6 -0.5,0.1 h -0.6 l 0.6,-0.2 c 0.9,0 0.8,-0.1 -0.1,-0.8 -0.6,-0.4 -1.2,-0.6 -3.6,-1 a 117.6,117.6 0 0 0 -5.1,-0.8 h 1.3 c 0.1,0 -0.5,-1 -1,-1.4 l -1,-0.2 h -0.7 l 0.8,-0.1 h 0.8 l -0.2,-0.4 -0.5,-0.4 c -0.2,-0.2 -0.2,-0.3 -0.1,-0.3 a 82.2,82.2 0 0 0 2.5,2.8 h 1.5 l -0.2,-0.9 c -0.3,-0.7 -0.5,-1 -1,-1.2 l -0.6,-0.3 0.5,0.1 0.6,0.1 -0.2,-1 c -0.2,-1 0,-0.7 0.4,0.7 l 0.7,1.9 0.5,0.8 1.9,0.2 2,0.1 -0.5,-1.2 -0.5,-1.2 -2,-1.4 a 28,28 0 0 1 -2.2,-1.5 l 1.9,1 c 1,0.7 1.9,1.2 2,1.1 l -2,-3.5 -1.8,-3.4 1.7,2.4 c 1.5,2.4 1.5,2.5 1.6,2 v -2.4 c 0.1,0 0.2,0.8 0.2,1.7 0,1.6 0,1.6 1,3.6 l 1,2 0.2,-0.6 0.2,-1 0.1,-0.5 c 0.2,0.1 0.3,0 0.5,-0.2 0.4,-0.6 0.3,-0.3 0,0.3 -0.3,0.4 -0.5,1.1 -0.6,1.7 l -0.2,1.2 1.5,1.1 1.5,1.1 c 0.3,-0.1 1,-3 1,-4 0,-1.3 -0.8,-2.7 -2.4,-4.2 -1.6,-1.6 -1.7,-1.7 -0.5,-0.8 l 1.2,0.9 -0.5,-2.1 a 11,11 0 0 1 -0.3,-2 l 0.2,0.6 c 0.1,0.4 0.2,0.6 0.4,0.6 0.1,0 0.1,0.1 0,0.2 -0.3,0.3 0.6,3.1 1.2,3.9 l 0.5,0.6 0.4,-1.9 c 0.3,-1.6 0.3,-2 0,-2.8 -0.3,-0.9 -0.3,-1 0,-0.3 l 0.4,0.6 0.3,-1.2 0.3,-1.3 -0.2,1.9 c -0.7,4.6 -0.8,5.6 -0.7,6.3 l 0.3,0.7 a 13,13 0 0 0 1.7,-2.6 c 0.1,-0.2 0,-0.9 -0.1,-1.4 -0.1,-0.5 -0.2,-1 0,-1.1 0,-0.2 0.1,-0.2 0,0 0,0.4 0.4,2 0.6,2 l 0.5,-0.6 c 0.3,-0.4 0.4,-0.8 0.3,-1.4 -0.3,-3.1 -0.3,-3.9 -0.2,-3.7 l 0.4,-0.9 c 0.2,-0.6 0.3,-1 0.3,-0.7 l -0.3,1.3 a 5,5 0 0 0 -0.1,2.5 c 0.2,1.8 0.2,2 0.4,1.7 0.2,-0.4 1.5,-2.2 1.5,-2 l -2.5,4 -2.4,3.9 -0.5,2.2 c -0.4,1.8 -0.4,2.3 -0.2,3 a 35,35 0 0 1 1.2,3.6 l 0.2,-1 0.4,-1.3 v 1 l -0.3,1.3 c 0,0.1 0.7,-0.2 0.9,-0.5 0.1,-0.2 0.4,-0.4 0.6,-0.4 0.4,-0.1 0.3,0 -0.4,0.5 l -1,0.8 c -0.2,0.2 -0.2,2 0,2.3 0,0 0.9,-0.3 2.1,-1 l 2.1,-1.2 0.5,-2.4 0.5,-2.4 -0.5,-1.6 -0.5,-1.6 -1,-0.7 c -1.6,-1.1 -1.7,-1.3 -0.4,-0.5 l 1.2,0.6 -0.3,-1.6 c -0.2,-0.7 -0.3,-1.4 -0.2,-1.5 0.1,-0.2 0.1,0 0.2,0.4 0,0.6 0.6,2.6 0.7,2.6 l 0.5,-1 c 1,-2.6 1,-2.7 0.7,-1.6 l -0.3,1.1 0.4,-0.3 c 0.4,-0.3 0.4,-0.3 0,0.2 -1,1.3 -1.1,2.5 -0.5,4 0.4,0.9 0.5,0.9 1.2,0 0.4,-0.5 0.9,-1.6 1.4,-3.4 0.5,-1.5 0.9,-2.4 0.9,-2.1 l -0.2,0.6 c -0.1,0 -1,3.3 -0.8,3.3 l 1,-1 1,-1.1 -2,2.7 -2,2.7 -0.2,2 c -0.2,1 -0.3,1.8 -0.2,2 0.1,0.1 0.8,-0.4 2.1,-1.7 1.3,-1.4 1.4,-1.5 2.7,-4.5 l 1.4,-3.2 0.3,-2.8 c 0.4,-4 0.5,-3.7 0.2,0.5 v 1.1 l 0.9,-1.3 c 1.8,-3 2.5,-3.7 1,-1 l -1,1.4 2,-1 2,-0.9 -2.1,1.2 c -2.3,1.3 -2.2,1.2 -3,3.3 -0.3,0.7 -0.3,0.8 0,0.8 0.7,-0.1 2,-1 2.5,-1.6 l 0.5,-0.5 -0.4,0.6 -0.3,0.5 0.4,-0.1 c 0.3,0 -0.4,0.3 -1.4,0.8 l -2,1 -0.6,1.8 -0.6,1.8 1.1,-0.5 c 2.4,-1 3.8,-2 5.2,-3.1 l 1.4,-1.2 -1,1 -1,1.1 1.7,-0.2 a 8,8 0 0 1 1.6,-0.3 l -2,0.5 a 9,9 0 0 0 -3,1.1 c -1,0.7 -1,0.7 -1.3,1.6 l -0.2,1 0.6,-0.5 c 1,-0.8 1.4,-1 0.7,-0.4 -1,1 -1,1 -0.5,1 0.4,-0.1 0.3,0 -0.3,0.2 -0.7,0.3 -0.9,0.4 -1.4,1.3 -0.4,0.5 -0.6,1 -0.5,1 h 2.1 l 1.7,-1.2 a 21.5,21.5 0 0 0 2,-1.5 l -0.4,0.6 a 1779.3,1779.3 0 0 1 -2.5,2 l 1.7,-0.1 1.7,-0.2 -2.8,0.5 c -2.5,0.4 -3,0.6 -2.3,0.7 l 0.7,0.2 c 0.2,0.2 -0.2,0 -1,-0.1 -0.7,-0.2 -2,-0.4 -3.3,-0.4 h -2 l -1.8,1 a 161.3,161.3 0 0 1 -3.8,2.3 31,31 0 0 0 8.6,2.4 c 0.7,0 5.9,-2 7,-2.8 1.2,-0.8 1.2,-0.8 1.6,-2.6 l 0.5,-1.4 -0.3,1.4 -0.3,1.2 c 0.1,0.3 1.1,-0.6 1.7,-1.3 0.6,-1 0.8,-1 0.3,-0.1 l -0.5,0.6 0.8,-0.2 0.8,-0.2 -1,0.4 c -0.9,0.4 -3,2 -3,2.3 l 2.4,-0.5 2.1,-0.5 -1.7,0.6 -2,0.7 c 0,0 0.3,0.4 0.8,0.6 0.7,0.4 1.2,0.5 2.6,0.5 l 1.8,0.1 -1.5,0.1 h -1.3 l 1.1,0.8 c 1.6,0.9 1,0.7 -1.2,-0.4 -3,-1.6 -3,-1.6 -4.9,-0.7 l -1.8,0.8 c 0,0.1 0.4,0.4 1,0.6 1,0.3 1.7,0.5 2.7,0.4 1.6,0 2,0.1 0.4,0.2 -1.1,0 -1.1,0.1 -0.4,0.5 0.9,0.4 1,0.5 0.2,0.2 a 17,17 0 0 0 -4.9,-1.3 l -1,0.3 -0.5,0.4 2.3,1.2 2.7,1.3 2,-0.3 1.6,-0.2 -1.4,0.4 -1.6,0.4 c -0.3,0.1 0.7,0.4 2,0.5 l 1.6,0.3 h -2.5 a 54.9,54.9 0 0 0 2.4,1.899999 l -2.5,-1.599999 0.9,1.399999 0.9,1.4 -1.4,-1.7 c -1.2,-1.699999 -1.3,-1.699999 -2.5,-2.299999 l -1.4,-0.5 0.5,1 c 0.5,0.7 0.6,1 0.3,0.7 -0.2,-0.2 -0.6,-0.7 -0.8,-1.2 -0.5,-0.8 -0.7,-1 -4,-2.4 l -2,-0.4 h -1.8 l 0.5,1 0.5,0.8 1.3,0.3 a 19.8,19.8 0 0 0 2,0.4 c -0.3,0 -0.4,0.1 -0.4,0.2 l 1.1,0.7 1,0.6 c -0.2,0 -0.3,0.2 -0.3,0.3 0,0.2 0,0.2 -0.1,0 -0.4,-0.7 -1.4,-1.2 -2.8,-1.6 l -1.3,-0.4 0.8,1.5 1,1.499999 -1.1,-1.299999 c -1.1,-1.4 -1.2,-1.4 -1,0 v 0.7 l -0.2,-1.3 c -0.2,-1.2 -0.3,-1.3 -1.2,-2.4 -0.5,-0.8 -1,-1.2 -1.3,-1.3 a 3468.3,3468.3 0 0 0 -4.5,-1.7 c -0.2,0 -0.2,0.4 0.4,3 l 0.7,2.6 1,1 c 0.6,0.699999 1,1.199999 1.2,1.199999 l 5.5,1.7 c 0.3,0 1.5,0 2.7,-0.2 2.2,-0.3 3,-0.3 1.2,0 l -1,0.3 0.9,0.5 0.7,0.5 -1,-0.4 c -1,-0.6 -2.3,-0.7 -2.6,-0.3 l 2.1,1.8 a 21.7,21.7 0 0 1 2,1.7 l -2.6,-1.7 0.1,0.8 c 0.2,0.6 0.2,0.6 -0.2,-0.3 -0.7,-1.5 -1.6,-2 -4.6,-2.8 l -2.5,-0.6 0.2,0.6 c 0.2,0.4 0.6,0.7 2,1.3 a 23.8,23.8 0 0 0 2.6,1 l -0.6,-0.2 -0.7,-0.2 0.1,0.4 c 0.1,0.4 0,0.4 -0.2,0 -0.2,-0.4 -0.5,-0.6 -1.4,-0.9 l -1.3,-0.3 1,2 a 9,9 0 0 0 2,2.6 c 1.3,1.1 1.3,1.3 0,0.3 l -0.9,-0.8 0.3,0.9 c 0.2,0.6 -0.1,0 -1.5,-2.4 -2,-3.6 -2.9,-5 -3.9,-5.7 l -0.6,-0.4 v 1.3 c 0,0.8 0.1,1.8 0.3,2.2 a 8.6,8.6 0 0 0 3,3.5 c 0.6,0.3 0.7,0.4 0.4,0.3 -0.3,0 -0.5,-0.2 -0.6,-0.3 h -0.2 c -0.1,0.1 0.1,0.6 1,2 l 1,2 -1.5,-2.3 c -1.2,-2 -2.2,-3.2 -2.4,-3 v 1.3 c 0.2,1.4 0.2,1.5 1.7,3.6 l -0.4,-0.4 c -0.5,-0.5 -0.9,-0.9 -1,-0.8 0,0 0,0.5 0.9,3.4 0.3,1.5 0,1 -0.5,-0.7 l -0.4,-1.4 c -0.2,-0.3 -1,1.9 -0.9,2.4 v 0.2 c -0.2,-0.5 -0.1,-0.5 -0.7,0.8 -0.2,0.3 0,-0.5 0.5,-1.8 0.8,-2.3 0.9,-2.3 0.6,-3.9 -0.2,-1.5 -0.3,-1.8 -0.6,-1.2 v -0.5 a 4,4 0 0 0 -0.3,-2.7 c -0.2,-0.4 -0.3,-0.4 -0.8,1.2 a 9,9 0 0 0 -0.6,3.8 c 0,2.3 0,2.5 -0.2,0.4 0,-0.8 -0.1,-1.4 -0.2,-1.4 l -1,2.6 a 33.8,33.8 0 0 1 -0.7,1.3 l 0.4,-1.5 -0.9,0.8 -0.8,0.8 c -0.1,0 0.3,-0.5 1,-1 l 1,-1.1 1.1,-3.7 c 0.9,-2.6 1.2,-3.8 1.1,-4.5 0,-1 -0.1,-1 -0.7,-0.2 -0.7,1 -1,1.9 -1,2.6 0,0.6 0,0.7 -0.1,0.3 l -0.2,-0.5 -0.5,1 c -0.4,1 -0.4,1.1 -0.3,0.5 0,-0.4 0.2,-0.7 0.3,-0.8 l 0.8,-2 -0.9,0.2 -0.8,0.3 1,-0.4 c 0.8,-0.4 0.9,-0.5 1.5,-1.5 0.4,-0.7 0.8,-1.4 0.8,-1.699999 0,-0.6 -1.5,-6.2 -1.7,-6.2 0,0 -0.9,0.7 -1.8,1.7 a 15,15 0 0 0 -3.7,5.599999 63,63 0 0 0 2,8 l -0.7,-2 c -0.2,-0.3 -0.2,-0.3 -0.5,-0.2 -0.8,0.5 -1,1 -1,2.8 v 1.8 l -0.1,-1.7 c 0,-1 -0.2,-1.6 -0.3,-1.6 -0.5,0.3 -2,2 -2,2.2 a 34.3,34.3 0 0 1 -0.7,1.7 c 0.5,-1.8 0.5,-2 -0.6,-1 l -0.6,0.5 1.3,-1.3 a 48,48 0 0 0 3.9,-4.1 l -1.2,-3.9 c -0.2,-0.3 -0.2,-0.3 -0.7,0.5 l -0.8,1.4 a 4,4 0 0 0 -0.3,2.7 v 0.7 c -0.2,0 -0.4,0.2 -0.5,0.4 l -0.4,0.5 c 0,0 0,-0.3 0.3,-0.6 0.3,-0.4 0.4,-0.8 0.3,-1.5 l -0.1,-0.9 -2,2.8 a 2594.4,2594.4 0 0 1 -2,3 66,66 0 0 1 3.5,-6 c -0.1,0 -3.6,1 -3.8,1.2 l -0.6,1 a 18,18 0 0 1 -1.7,2.8 l 0.9,-1.8 c 1.1,-2 1,-2.4 -0.3,-0.9 l -0.8,0.8 c 0,0 0,-0.3 0.3,-0.5 l 0.4,-0.6 c 0,0 -0.7,0 -1.4,0.4 l -1.3,0.3 z m 26.9,-19.499999 h 1.1 l 1,-1 c 0.8,-1 1.8,-2.8 1.6,-3.2 0,-0.2 -2.6,1.4 -3.4,2 -0.8,0.8 -1.7,2 -1.6,2 z m -31.7,8 c 0.2,-0.1 0.2,0 0.1,0 l -0.3,0.2 z m 6.3,7.499999 h 0.1 c 0,0.2 -0.2,0.3 -0.3,0.2 z m 6.3,-4.899999 0.4,0.1 c 0,0.1 -0.2,0.1 -0.4,0 -0.4,0 -0.4,0 0,0 z m 14.3,15.699999 0.2,0.2 -0.2,-0.1 z m -2.7,-6.6 c 0.2,-0.2 0.2,-0.2 0.1,0.1 0,0.4 -0.1,0.5 -0.2,0.3 v -0.4 z m -13.4,-32.099999 0.1,0.2 -0.1,-0.1 c -0.1,-0.2 -0.1,-0.2 0,-0.1 z m 6.7,12.3 0.2,0.3 -0.2,-0.1 c -0.1,-0.2 -0.1,-0.3 0,-0.2 z m -1,-4.8 h 0.2 c -0.1,0.2 -0.3,0.2 -0.4,0.2 z m 14.2,26.599999 c 0.2,0.1 0.3,0.3 0.3,0.5 l -0.2,-0.2 c -0.1,-0.3 -0.2,-0.4 0,-0.3 z m -13.5,-32.999999 c 0,-0.3 0.2,0 0.2,0.4 0,0.3 0,0.3 -0.1,0.2 a 1,1 0 0 1 0,-0.5 z"
         style="fill:#000000;stroke-width:0.645367"
         id="path3" />
      <path
         d="m 20.805553,135.23214 5.3,2.6 c 0.3,0.2 0.5,0.2 1.1,0 0.4,0 0.7,-0.1 0.7,-0.2 a 32.2,32.2 0 0 0 -3.4,-2.2 l -0.4,0.1 0.3,-0.1 c 0.3,-0.2 0.3,-0.2 -0.2,-0.5 l -0.5,-0.4 1.2,0.7 2.4,1.5 1.3,0.8 1.3,-0.3 1.3,-0.3 -0.3,-0.4 -0.3,-0.4 h -0.8 c -0.5,0 -0.9,0 -1.3,0.2 -0.7,0.3 -0.8,0.2 -0.2,0 l 0.4,-0.3 -1,-0.4 -1,-0.5 1,0.3 2,0.4 h 0.6 l -0.6,-0.7 c -0.5,-0.7 -0.6,-0.7 -1.5,-1 l -1,-0.5 0.8,0.3 0.9,0.2 -0.5,-0.5 c -0.8,-0.8 -0.5,-0.6 0.4,0.3 0.8,0.8 1,1 0.9,0.7 v -1.3 0.9 l 0.2,0.8 0.9,0.9 0.9,0.9 h 3.4 l -1,-2 c -0.3,-0.3 -1,-0.4 -1.8,-0.4 h -0.3 c 0.4,0 0.4,-0.2 0,-0.3 -0.2,0 -0.3,-0.1 -0.2,-0.2 0,0 0.4,0 0.7,0.2 l 1,0.2 h 0.3 l -0.4,-0.6 a 7,7 0 0 0 -1,-1.3 c -0.8,-0.6 -0.9,-0.6 -2,-1 -1.2,-0.4 -1.2,-0.4 -2.1,-0.2 a 46.6,46.6 0 0 0 -4,0.8 l 1.3,-0.5 -1.2,-0.3 c -1.4,-0.2 -1.7,-0.4 -0.4,-0.2 1.6,0.3 1.6,0.4 0.7,-0.5 -1,-1 -0.8,-1 0.2,0 l 1,0.8 1.5,-0.3 c 1,-0.2 1.2,-0.3 1,-0.4 a 60.3,60.3 0 0 0 -2,-1.5 l 1.5,0.8 -0.6,-1.3 c -0.3,0 -1.7,-0.7 -1.5,-0.7 0.3,0 0.4,0 0.1,-0.5 -0.1,-0.3 0,-0.3 0.2,0.2 0.2,0.4 0.4,0.5 0.8,0.7 l 0.5,0.2 -0.3,-0.6 c -0.2,-0.5 -0.2,-0.5 0,-0.1 l 0.7,1.2 c 0.7,1.2 0.8,1.3 1.6,1.6 0.8,0.3 1.7,0.5 1.7,0.4 l -0.7,-1.6 c -0.7,-1.3 -0.9,-1.6 -2.1,-3 l -1.3,-1.6 1.3,1.4 1.4,1.5 v -0.7 c -0.1,-0.7 -0.2,-0.8 -0.6,-1.3 l -0.4,-0.5 0.4,0.4 c 0.4,0.4 0.4,0.4 0.3,0 l -0.2,-1.4 0.2,0.7 c 0.2,0.6 0.2,0.7 0.4,0.6 v 0.2 c -0.1,0.9 0.2,2.2 1.2,4 0.7,1.4 0.9,1.7 1.4,2.1 l 0.7,0.5 0.5,-2.3 c 0,-0.4 -0.2,-0.7 -1,-1 l -0.7,-0.3 0.6,0.2 h 0.6 l -0.4,-0.2 a 32.4,32.4 0 0 0 -0.2,-0.3 h 0.3 c 0,-0.2 0,-0.1 0.1,0.1 0.3,0.5 0.6,0.8 0.8,0.9 0.1,0 0,-0.6 0,-1.6 a 4,4 0 0 0 -0.8,-1.9 c -0.6,-0.9 -0.7,-1 -1.3,-1.2 -0.6,-0.2 -0.6,-0.2 -0.1,0 h 0.5 v -0.1 l -0.3,-0.5 -0.3,-0.5 0.3,0.4 0.6,0.8 c 0.3,0.5 0.4,0.4 0.4,-0.3 v -0.5 l 0.1,0.7 c 0,0.6 0,0.9 0.3,1.2 0.4,0.7 0.5,0.6 0.8,-0.3 0.3,-1 0.3,-0.9 0,0.3 -0.2,0.8 -0.2,1 0,1.8 l 0.3,0.9 0.7,-0.9 c 0,-0.1 0.1,-0.1 0,0.2 l -0.1,0.4 h 0.3 c 0.4,-0.1 0.4,-0.1 0,0 -0.9,0.3 -1,0.3 -1.2,2.6 l -0.2,2 0.9,1.5 c 0.5,0.9 1,1.3 1,1.2 0,-0.2 -0.1,-1 -0.4,-1.7 l -0.1,-0.4 c 0.1,0.2 0.1,0.1 0.2,-0.5 v 0.4 c 0.1,0.5 0.2,0.5 0.3,0.3 0.1,-0.2 0.1,-0.2 0,0.1 0,0.3 0,1 0.2,1 l 0.4,-0.6 c 0.6,-0.8 0.6,-0.6 0,0.2 l -0.4,1.2 c 0,0.7 0,1 0.3,1 0.3,-0.2 1.4,-1.6 2.1,-2.6 0.6,-1 0.6,-1 0.7,-1.7 0,-0.9 0,-1 -0.6,-1 -0.6,0 -0.6,0 0,0 h 0.4 l -0.3,-0.3 -0.2,-0.3 c 0,0 0.2,0 0.3,0.2 0.4,0.4 0.4,0.4 0.4,-0.4 0,-0.5 -0.2,-0.9 -1,-2.2 a 76.5,76.5 0 0 0 -1.2,-2.2 l 0.2,-1 -0.3,-0.6 -0.3,-0.4 0.3,0.3 0.4,0.4 v -0.3 l 0.1,-0.4 v -0.2 l 0.1,0.4 a 53.5,53.5 0 0 0 -0.3,2 l 0.6,0.8 0.3,-0.5 c 0.3,-0.4 0.3,-0.6 0.2,-1 v -0.4 0.3 l 0.3,0.3 0.4,-0.5 c 0.4,-0.5 0.3,-0.3 -0.2,0.5 a 7,7 0 0 0 -0.6,1.1 l -0.2,0.6 0.7,1 0.8,1 0.4,-0.7 0.3,-0.7 -0.1,-1.7 -0.2,-1.6 0.3,1.3 c 0,0.8 0.2,1.4 0.3,1.5 l 1,-2.4 0.9,-2.3 -0.6,1.8 c -0.5,1.8 -0.5,1.8 -0.3,1.7 l 0.5,-0.5 c 0.2,-0.2 0.8,-0.7 0.7,-0.5 l -0.8,0.8 c -0.7,0.6 -0.7,0.7 -1.3,2 l -0.6,1.3 0.4,-0.1 0.6,-0.4 c 0.2,-0.2 0.3,-0.2 0.3,-0.1 l 0.3,0.1 c 0.4,0 0.3,0 -0.2,0.2 l -1,0.4 -0.7,0.4 v 1.2 c 0,0.7 0.1,1.2 0.2,1.2 0.2,0.1 1.8,-0.8 2.3,-1.2 0.7,-0.6 1,-1.5 1.1,-3 0.1,-1.4 0.1,-1.5 0.2,-0.5 v 0.9 l 1,-1 0.8,-1.1 -0.3,0.4 c -0.1,0.2 -0.2,0.3 -0.1,0.4 l -0.1,0.1 c -0.3,0 -1.3,1.6 -1.4,2.2 v 0.5 l 1,-0.5 c 1,-0.6 1.1,-0.7 1.4,-1.3 0.3,-0.5 0.3,-0.5 0.2,0 l -0.2,0.4 0.7,-0.4 0.8,-0.4 -1,0.7 c -2.6,1.6 -3.1,2 -3.4,2.4 -0.2,0.2 -0.3,0.3 -0.2,0.4 l 2,-0.3 0.6,-0.6 0.5,-0.5 c 0.2,0 0.2,0 0,0 -0.1,0.2 -0.8,1.1 -0.7,1.2 h 0.5 c 0.4,0 0.6,-0.2 0.8,-0.5 l 1.8,-1.7 0.6,-0.1 0.5,-0.2 -0.8,0.4 a 4,4 0 0 0 -1.3,1 c -0.8,0.9 -0.9,1 -0.6,1 l 1.6,-0.2 -3,0.5 -3,0.4 -1.3,0.7 c -1,0.6 -1.3,0.8 -1.5,1.2 a 22.8,22.8 0 0 1 -1.3,2.1 l 0.6,-0.3 0.8,-0.4 -0.5,0.4 -0.8,0.5 0.6,0.2 0.5,0.1 c 0.2,0.2 0.1,0.2 -0.4,0 l -0.9,-0.1 c -0.1,0 -1,0.7 -1.1,1 l 1.4,0.6 1.5,0.5 1.4,-0.7 1.4,-0.8 0.6,-1 0.5,-0.9 v -0.8 c -0.2,-1.2 -0.1,-1.3 0,-0.4 0,0.5 0.2,0.8 0.3,0.8 l 0.6,-0.7 0.6,-0.8 c 0.2,0 0.2,0 0,0.3 -0.3,0.2 -1,1.3 -1,1.4 l 0.7,-0.2 c 1.7,-0.5 1.7,-0.6 1,-0.2 l -0.6,0.2 0.3,0.1 c 0.3,0 0.3,0 -0.1,0.1 -1,0 -1.7,0.5 -2.2,1.5 -0.3,0.5 -0.2,0.5 0.6,0.5 a 8,8 0 0 0 2.2,-0.7 l 1.4,-0.5 -0.4,0.2 -2,1 h 1 l 1,0.1 -2.2,0.2 -2.2,0.1 -1,0.7 -1.1,0.8 c 0,0.1 0.5,0.2 1.7,0.3 1.2,0 1.3,0 3.4,-0.5 l 2.1,-0.7 1.5,-1 c 2.1,-1.5 2,-1.4 -0.1,0.3 a 3,3 0 0 0 -0.6,0.5 l 1,-0.2 c 2.3,-0.3 2.9,-0.3 1,0 l -1.1,0.2 1.2,0.6 1.3,0.5 -1.4,-0.5 c -1.6,-0.6 -1.5,-0.6 -3,0 -0.4,0.1 -0.4,0.2 -0.3,0.3 0.4,0.3 1.3,0.6 1.8,0.5 h 0.5 l -0.4,0.1 h -0.5 l 0.3,0.3 -1,-0.4 -1.3,-0.6 -1.2,0.5 -1.1,0.5 0.7,0.3 c 1.5,0.7 2.5,1 3.7,1.2 l 1.2,0.2 h -1.9 l 0.8,0.7 c 0.5,0.3 0.9,0.6 0.8,0.7 l -1,-0.8 c -0.8,-0.6 -1.2,-0.8 -1.8,-1 -0.8,-0.3 -0.8,-0.3 -1.4,0 l -0.6,0.3 0.5,0.1 0.6,0.2 c -1,-0.1 -1,-0.1 -0.8,0.1 0.2,0.2 0.2,0.2 -0.2,0 -0.4,-0.2 -0.6,-0.2 -1.2,-0.2 -0.4,0 -0.8,0.2 -0.7,0.2 l 0.4,0.6 0.5,0.5 1.2,0.3 a 14,14 0 0 0 1.7,0.4 h -0.5 a 1176.5,1176.5 0 0 1 -2,-0.4 l 0.7,0.8 0.8,0.8 -1.4,-1.2 c -1.3,-1 -1.6,-1.3 -1.3,-0.8 l 0.1,0.4 c 0,0.2 0,0 -0.3,-0.5 a 8,8 0 0 0 -1.2,-1.8 l -0.8,-1 -1.3,-0.5 a 105,105 0 0 1 -2.8,-0.9 20.1,20.1 0 0 0 2.5,5.2 c 0.3,0.4 3.5,2 4.3,2.3 1,0.3 1,0.3 2,-0.2 l 0.9,-0.4 -0.7,0.4 a 3,3 0 0 0 -0.7,0.4 c -0.1,0.2 0.7,0.3 1.3,0.3 h 0.2 l -0.5,0.1 0.4,0.3 0.5,0.3 -0.6,-0.3 c -0.6,-0.3 -2.3,-0.6 -2.4,-0.5 l 1.2,1 1.2,0.8 -1.1,-0.6 -1.1,-0.6 v 0.6 c 0,0.5 0.2,0.7 0.8,1.5 l 0.7,0.9 -0.7,-0.7 -0.6,-0.7 0.1,0.8 c 0.2,1.2 0.1,0.9 -0.3,-0.7 -0.5,-2.2 -0.5,-2.1 -1.7,-2.8 l -1.2,-0.5 0.1,0.8 c 0.3,0.6 0.5,1 1,1.5 0.7,0.8 0.7,1 0,0.2 -0.5,-0.5 -0.5,-0.5 -0.4,0 0.2,0.6 0.2,0.7 0,0.3 -0.6,-1.7 -1.2,-2.8 -1.4,-3 -0.2,-0.2 -0.4,-0.4 -0.6,-0.4 l -0.4,-0.1 0.4,1.7 0.5,1.8 1,0.9 0.8,0.7 -0.8,-0.5 -0.9,-0.6 c -0.2,-0.1 0,0.5 0.6,1.2 l 0.5,0.8 -0.5,-0.6 a 3,3 0 0 0 -0.5,-0.6 35.7,35.7 0 0 0 0,2 l -0.3,-1.7 -0.3,1 -0.3,1 0.2,-1.3 c 0.3,-1.4 0.3,-1.5 0,-2.3 0,-0.5 -0.2,-0.9 -0.2,-0.9 l -0.3,0.7 -0.2,0.4 c 0,-0.2 0,-0.6 0.2,-0.9 0.2,-0.6 0.2,-0.7 -0.5,-3 a 8,8 0 0 0 -0.7,-1.2 l -0.6,-0.9 -0.2,0.6 -0.3,0.7 0.4,0.8 a 12.9,12.9 0 0 0 0.7,1.1 l -0.3,-0.1 0.2,0.8 v 0.7 h -0.2 c 0,0.2 0,0.1 0,0 0.1,-0.5 0,-1.2 -0.4,-2 l -0.4,-0.9 -0.4,1 -0.3,1.1 0.2,-1 c 0.2,-1.2 0.1,-1.2 -0.5,-0.5 l -0.3,0.3 0.5,-0.7 c 0.5,-0.6 0.5,-0.6 0.7,-1.6 0.2,-0.6 0.2,-1 0.1,-1.2 a 2153.2,2153.2 0 0 0 -1.2,-2.8 l -1.2,1.5 -1,1.4 -0.1,1 v 1 l 1.4,3.5 1.3,1.2 c 1,1 1.3,1.4 0.5,0.6 l -0.6,-0.3 0.1,0.6 v 0.6 l -0.1,-0.7 c -0.2,-0.7 -0.7,-1.4 -1,-1.4 v 1.8 a 14.1,14.1 0 0 1 0,1.7 l -0.3,-2 -0.3,0.4 c -0.2,0.4 -0.2,0.3 0,-0.2 0.5,-1 0.4,-1.7 -0.5,-3.5 l -0.8,-1.5 -0.2,0.4 c -0.1,0.3 0,0.6 0.3,1.6 a 15.5,15.5 0 0 0 0.6,1.6 l -0.2,-0.3 -0.2,-0.5 -0.2,0.2 c -0.1,0.2 -0.1,0.2 0,0 0,-0.3 0,-0.6 -0.2,-1.1 l -0.4,-0.8 -0.5,1.3 a 4.7,4.7 0 0 0 -0.5,2.2 c 0,1 -0.1,1.1 -0.1,0 v -0.7 l -0.3,0.5 c -0.3,0.4 -0.1,0 0.5,-1.8 1,-2.5 1.2,-3.5 1.1,-4.3 v -0.5 l -0.7,0.6 -1,1 c -0.3,0.8 -0.5,2.2 -0.3,3 v 0.4 l -0.1,-0.4 -0.1,-0.2 c -0.1,0 -0.3,0.4 -0.6,1.4 a 7,7 0 0 1 -0.5,1.3 l 0.5,-1.7 c 0.4,-1.5 0.6,-2.4 0.4,-2.5 l -0.6,0.6 c -0.7,0.7 -0.7,0.8 -1,2.4 -0.1,0.2 -0.1,0 0,-0.4 v -0.8 c -0.1,0 -0.3,0.2 -1.4,1.8 -0.6,0.8 -0.5,0.5 0.1,-0.5 l 0.6,-0.8 c 0,-0.2 -1.4,0.3 -1.6,0.6 -0.1,0.1 -0.2,0.2 0,0 0,-0.2 0,-0.2 -0.8,0 l 1.1,-0.4 c 1.5,-0.6 1.5,-0.6 2.2,-1.4 0.7,-0.8 0.7,-1 0.3,-0.8 l 0.3,-0.2 c 0.5,-0.3 1,-1 1.2,-1.4 0,-0.3 0,-0.3 -1,0.1 -1,0.4 -1.2,0.6 -2.1,1.3 -1.2,1 -1.3,1.1 -0.3,0.1 0.4,-0.3 0.7,-0.6 0.6,-0.7 l -1.8,0.6 a 22,22 0 0 1 -0.8,0.2 c 0.5,-0.1 1,-0.3 0.9,-0.4 h -0.8 l -0.8,-0.2 h 1 l 1,0.1 2.2,-1 c 1.7,-0.7 2.4,-1 2.7,-1.3 0.4,-0.4 0.4,-0.5 -0.2,-0.5 -0.8,0 -1.3,0.3 -1.7,0.6 -0.3,0.3 -0.3,0.3 -0.2,0 l 0.2,-0.2 -0.7,0.2 c -0.7,0.2 -0.8,0.2 -0.4,0 0.2,0 0.4,-0.2 0.5,-0.1 0.1,0 1.4,-0.4 1.3,-0.5 l -0.4,-0.3 -0.5,-0.3 0.6,0.2 c 0.5,0.3 0.6,0.3 1.4,0.2 0.5,0 1,-0.2 1.2,-0.3 a 26,26 0 0 0 2.3,-3.5 l -1.6,-0.2 a 9.7,9.7 0 0 0 -4.3,0.6 41,41 0 0 0 -3,4.4 l 0.5,-1.2 c 0.1,-0.2 0.1,-0.3 0,-0.4 -0.6,-0.2 -1,0 -1.9,0.8 l -0.8,0.7 0.7,-0.8 c 0.5,-0.4 0.8,-0.8 0.7,-0.8 -0.3,-0.1 -1.8,-0.2 -2,0 a 22.3,22.3 0 0 1 -1,0.3 c 1,-0.5 1,-0.6 0.2,-0.7 h -0.5 1.1 l 3.7,0.2 1.5,-2.3 c 0,-0.2 0,-0.2 -0.6,0 l -1,0.1 c -0.5,0.1 -1,0.4 -1.5,1 l -0.3,0.3 h -0.8 c 0,-0.1 0.1,-0.2 0.4,-0.2 0.3,0 0.5,0 0.8,-0.4 l 0.4,-0.5 -2.2,0.2 a 1705.7,1705.7 0 0 1 0,-0.1 l 2.1,-0.5 -2.2,-1.3 -0.7,0.1 -2.1,0.4 1.2,-0.3 c 1.6,-0.4 1.6,-0.5 0.3,-0.6 h -0.7 0.4 l 0.5,-0.1 -0.8,-0.6 a 5,5 0 0 1 -0.7,-0.5 z m 21.1,5 0.5,0.6 h 0.9 c 0.8,0 2.2,-0.2 2.3,-0.5 0,-0.1 -1.8,-0.7 -2.5,-0.8 h -1.7 z m -17.4,-12.2 c 0.2,0 0.2,0 0,0 h -0.1 z m -1,6.3 c 0.1,0 0.1,0 0,0 h -0.2 z m 5,1 c 0.2,0.1 0.2,0.3 0.2,0.3 l -0.2,-0.2 c -0.1,-0.3 -0.1,-0.3 0,0 z m -1.6,13.7 v 0.2 c -0.1,0 -0.1,0 0,-0.1 0,-0.2 0,-0.2 0,0 z m 2.1,-4.1 c 0.2,0 0.2,0 0,0.1 -0.2,0.1 -0.3,0.1 -0.2,0 z m 10.2,-20.2 v 0.2 c -0.1,0 -0.1,0 0,-0.2 0,-0.1 0,-0.1 0,0 z m -3.3,8.5 v 0.2 -0.1 c 0,-0.2 0,-0.2 0,0 z m 2,-2.5 c 0.1,0 0.1,0 0,0 h -0.1 0.2 z m -7.1,18.3 -0.1,0.3 c -0.1,0 0,0 0,-0.2 0,-0.2 0.1,-0.2 0.1,-0.1 z m 10.5,-20.8 c 0.2,0 0.2,0 0,0.3 -0.2,0.1 -0.2,0.1 -0.2,0 z m 11,-72.799999 5.2,2.6 c 0.3,0.2 0.5,0.2 1.2,0 0.4,0 0.7,-0.2 0.7,-0.2 a 32.2,32.2 0 0 0 -3.4,-2.2 h -0.4 0.3 c 0.2,-0.2 0.2,-0.2 -0.3,-0.5 l -0.4,-0.4 1.2,0.7 2.4,1.5 1.3,0.8 1.3,-0.3 1.3,-0.3 -0.3,-0.4 -0.4,-0.4 h -0.7 c -0.6,-0.1 -0.9,0 -1.3,0.2 -0.7,0.3 -0.8,0.2 -0.2,0 l 0.4,-0.3 -1,-0.4 -1,-0.5 1,0.3 c 1.4,0.4 1.4,0.4 2,0.4 h 0.6 l -0.6,-0.7 c -0.6,-0.7 -0.6,-0.7 -1.6,-1.1 l -1,-0.4 1,0.3 0.7,0.2 -0.4,-0.5 c -0.8,-0.8 -0.5,-0.6 0.4,0.3 0.8,0.8 0.9,0.9 0.9,0.7 v -1.3 0.9 l 0.1,0.8 1,0.9 0.8,0.8 h 3.5 l -1,-1.9 c -0.3,-0.3 -1,-0.4 -1.8,-0.4 h -0.3 c 0.4,-0.1 0.4,-0.2 0,-0.3 -0.3,0 -0.3,-0.1 -0.2,-0.2 l 0.6,0.2 1,0.2 h 0.4 l -0.4,-0.6 a 7,7 0 0 0 -1.1,-1.3 c -0.8,-0.6 -0.8,-0.7 -2,-1 -1.1,-0.4 -1.1,-0.4 -2,-0.2 a 46.6,46.6 0 0 0 -4,0.8 l 1.2,-0.5 -1.1,-0.3 c -1.5,-0.3 -1.7,-0.4 -0.4,-0.2 1.6,0.3 1.5,0.3 0.7,-0.5 -1,-1 -0.8,-1 0.2,0 l 1,0.8 1.4,-0.3 c 1,-0.2 1.3,-0.3 1.1,-0.4 a 60.3,60.3 0 0 0 -2,-1.5 l 1.5,0.8 -0.6,-1.3 c -0.3,0 -1.7,-0.7 -1.5,-0.7 0.3,0 0.3,0 0.1,-0.5 l 0.1,0.2 c 0.3,0.4 0.4,0.5 0.9,0.7 l 0.5,0.2 -0.3,-0.6 a 60,60 0 0 1 0.7,1 c 0.6,1.3 0.8,1.4 1.5,1.7 0.9,0.3 1.7,0.5 1.8,0.4 l -0.7,-1.6 c -0.7,-1.4 -1,-1.6 -2.2,-3 l -1.3,-1.6 1.4,1.4 1.4,1.5 v -0.7 c -0.1,-0.7 -0.2,-0.8 -0.7,-1.3 l -0.4,-0.5 0.5,0.4 c 0.3,0.4 0.4,0.4 0.3,0 l -0.2,-1.4 0.2,0.7 c 0.2,0.6 0.2,0.7 0.3,0.6 0.1,-0.2 0.2,-0.1 0,0.2 0,0.9 0.3,2.1 1.2,4 0.8,1.4 1,1.7 1.5,2.1 l 0.7,0.5 0.5,-2.3 c 0,-0.4 -0.2,-0.7 -1,-1 l -0.7,-0.3 0.6,0.1 0.5,0.2 -0.3,-0.3 a 32.4,32.4 0 0 0 -0.2,-0.4 c 0.3,0.2 0.3,0.2 0.2,0 l 0.2,0.2 0.7,0.9 c 0.2,0 0.2,-0.6 0,-1.6 a 4,4 0 0 0 -0.8,-1.9 c -0.5,-0.9 -0.6,-1 -1.2,-1.2 -0.6,-0.2 -0.6,-0.2 -0.1,-0.1 h 0.5 l -0.4,-0.5 -0.2,-0.5 0.3,0.4 0.5,0.8 c 0.4,0.5 0.5,0.4 0.5,-0.3 v -0.6 0.8 c 0,0.5 0.1,0.9 0.4,1.2 0.4,0.7 0.5,0.6 0.7,-0.3 0.4,-1 0.4,-1 0.1,0.3 -0.2,0.8 -0.2,1 0,1.8 0,0.4 0.2,0.9 0.3,0.9 l 0.7,-0.9 v 0.2 l -0.2,0.4 0.4,-0.1 c 0.3,0 0.3,0 0,0 -1,0.4 -1,0.4 -1.2,2.7 l -0.3,2 1,1.5 c 0.5,0.9 0.9,1.3 1,1.2 a 5,5 0 0 0 -0.4,-1.7 l -0.1,-0.4 c 0.1,0.2 0.1,0.1 0.1,-0.5 l 0.1,0.3 c 0.1,0.6 0.1,0.6 0.3,0.4 0,-0.2 0,-0.2 0,0 -0.1,0.4 0,1 0.2,1 l 0.4,-0.5 c 0.5,-0.8 0.6,-0.6 0,0.2 -0.3,0.5 -0.4,0.7 -0.4,1.2 -0.1,0.6 0,1 0.3,1 0.2,-0.2 1.4,-1.6 2,-2.6 0.7,-1 0.7,-1 0.7,-1.7 0,-0.9 0,-1 -0.5,-1 h 0.4 l -0.2,-0.3 -0.2,-0.3 0.3,0.2 c 0.4,0.4 0.4,0.4 0.3,-0.4 0,-0.5 -0.2,-0.9 -1,-2.2 a 76.5,76.5 0 0 0 -1.2,-2.2 l 0.3,-1 -0.3,-0.6 -0.4,-0.4 c 0,0 0.2,0 0.4,0.3 l 0.4,0.3 v -0.6 l 0.1,-0.2 a 53.5,53.5 0 0 0 -0.3,2.4 l 0.6,0.8 0.4,-0.5 c 0.2,-0.5 0.3,-0.6 0.2,-1 l -0.1,-0.4 0.1,0.3 0.2,0.3 0.4,-0.5 c 0.5,-0.5 0.4,-0.3 -0.1,0.5 a 7,7 0 0 0 -0.6,1.1 l -0.3,0.6 0.8,1 0.7,1 0.4,-0.7 0.4,-0.7 -0.2,-1.7 -0.1,-1.6 0.2,1.3 0.3,1.4 1,-2.3 1,-2.3 -0.6,1.8 c -0.6,1.8 -0.6,1.8 -0.3,1.7 l 0.5,-0.5 c 0.1,-0.2 0.8,-0.7 0.7,-0.5 l -0.8,0.7 c -0.8,0.7 -0.8,0.8 -1.3,2 l -0.6,1.4 0.4,-0.1 0.6,-0.4 c 0.1,-0.2 0.2,-0.2 0.3,-0.1 l 0.3,0.1 c 0.4,0 0.2,0 -0.2,0.1 -0.3,0 -0.7,0.3 -1,0.5 l -0.7,0.4 v 1.2 l 0.1,1.2 c 0.2,0.1 1.9,-0.8 2.4,-1.2 0.7,-0.6 1,-1.5 1.1,-3 0,-1.4 0.1,-1.5 0.2,-0.5 v 0.9 l 0.9,-1 0.8,-1.1 -0.2,0.4 -0.2,0.4 c 0.1,0 0,0.1 0,0.1 -0.3,0 -1.3,1.6 -1.4,2.2 v 0.5 l 1,-0.6 c 1,-0.5 1,-0.6 1.4,-1.2 0.3,-0.5 0.3,-0.5 0.1,-0.1 l -0.1,0.5 0.7,-0.4 0.8,-0.4 -1,0.7 c -2.6,1.6 -3.2,2 -3.4,2.4 l -0.3,0.3 c 0.2,0.1 1.8,0 2,-0.2 0.2,0 0.5,-0.3 0.7,-0.6 l 0.5,-0.5 c 0.2,0 0.2,0 0,0 l -0.7,1.1 h 0.5 c 0.3,0 0.6,-0.1 0.8,-0.4 1.4,-1.5 1.8,-1.8 1.8,-1.7 l 0.6,-0.1 0.5,-0.2 -0.8,0.4 a 4,4 0 0 0 -1.3,1 c -0.8,0.9 -1,1 -0.7,1 l 1.7,-0.2 -3,0.5 -3,0.4 -1.3,0.7 c -1.1,0.6 -1.3,0.8 -1.5,1.2 a 22.8,22.8 0 0 1 -1.4,2.1 c 0,0 0.3,0 0.6,-0.3 l 0.9,-0.4 c 0,0 -0.1,0.2 -0.6,0.4 l -0.7,0.5 0.6,0.2 0.5,0.1 c 0.2,0.2 0,0.2 -0.4,0 l -0.9,-0.1 c -0.2,0 -1,0.7 -1.1,1 l 1.4,0.6 1.4,0.5 1.4,-0.8 1.5,-0.7 0.5,-1 0.6,-0.9 v -0.8 c -0.2,-1.2 -0.2,-1.3 0,-0.4 0,0.5 0.2,0.8 0.2,0.8 0,0 0.4,-0.3 0.6,-0.8 l 0.7,-0.7 c 0.2,0 0.1,0 0,0.2 -0.4,0.3 -1.1,1.4 -1,1.5 l 0.7,-0.2 1,-0.3 -0.7,0.3 0.4,0.1 h -0.1 c -1,0.1 -1.7,0.6 -2.2,1.6 -0.3,0.5 -0.3,0.5 0.6,0.5 a 8,8 0 0 0 2.2,-0.7 l 1.4,-0.5 -0.4,0.2 -2,1 h 2 l -2.2,0.3 -2.3,0.1 -1,0.7 -1,0.7 c -0.1,0.2 0.4,0.3 1.6,0.4 1.3,0 1.3,0 3.4,-0.6 l 2.2,-0.6 1.5,-1 c 2,-1.5 2,-1.4 -0.2,0.3 a 3,3 0 0 0 -0.5,0.4 h 1 c 2.2,-0.5 2.9,-0.4 0.9,0 l -1,0.1 1.2,0.6 1.3,0.5 -1.4,-0.5 c -1.6,-0.6 -1.5,-0.6 -3,0 -0.4,0.1 -0.5,0.2 -0.3,0.3 0.3,0.3 1.3,0.6 1.8,0.5 h 0.5 l -0.5,0.1 h -0.4 l 0.3,0.3 -1,-0.4 -1.4,-0.6 -1.1,0.5 -1.2,0.5 0.8,0.3 c 1.5,0.7 2.5,1 3.7,1.2 l 1.2,0.2 h -2 l 1,0.7 0.7,0.6 -1,-0.7 c -0.9,-0.6 -1.2,-0.8 -1.9,-1 -0.8,-0.3 -0.8,-0.3 -1.3,0 l -0.6,0.3 0.5,0.1 c 0.9,0.2 1.1,0.3 0.5,0.2 -1,-0.1 -1,-0.1 -0.7,0.1 0.2,0.2 0.1,0.2 -0.2,0 -0.4,-0.2 -0.6,-0.3 -1.3,-0.2 -0.4,0 -0.7,0.2 -0.7,0.2 l 0.5,0.6 0.5,0.5 1.2,0.3 a 14,14 0 0 0 1.6,0.4 h -0.5 a 1176.5,1176.5 0 0 1 -2,-0.4 l 0.8,0.8 0.8,0.8 -1.4,-1.2 c -1.3,-1 -1.6,-1.3 -1.3,-0.8 l 0.1,0.4 -0.3,-0.5 a 8,8 0 0 0 -1.2,-1.8 l -0.9,-1 -1.2,-0.5 a 105,105 0 0 1 -2.8,-0.9 20.1,20.1 0 0 0 2.5,5.2 c 0.3,0.4 3.5,2 4.3,2.3 0.9,0.3 1,0.3 2,-0.2 l 0.9,-0.4 -0.8,0.4 a 3,3 0 0 0 -0.7,0.4 c 0,0.2 0.8,0.3 1.4,0.3 0.7,-0.1 0.8,0 0.2,0 l -0.5,0.1 0.4,0.3 0.4,0.3 -0.5,-0.3 c -0.6,-0.3 -2.4,-0.7 -2.4,-0.5 l 1.2,1 1.1,0.8 -1,-0.6 -1.2,-0.7 v 0.7 c 0.1,0.5 0.3,0.7 0.9,1.5 l 0.7,0.9 -0.7,-0.7 -0.7,-0.7 0.2,0.8 c 0.2,1.2 0,0.9 -0.3,-0.7 -0.5,-2.2 -0.5,-2.1 -1.8,-2.8 l -1.2,-0.5 0.2,0.8 c 0.2,0.5 0.5,1 1,1.5 0.6,0.7 0.7,1 0,0.2 -0.5,-0.5 -0.5,-0.5 -0.4,0 0.2,0.6 0.2,0.7 0,0.3 -0.6,-1.7 -1.2,-2.8 -1.4,-3 l -0.7,-0.4 -0.3,-0.1 0.4,1.7 0.5,1.8 c 0,0.1 0.4,0.5 1,0.9 l 0.7,0.7 -0.8,-0.5 -0.8,-0.6 c -0.2,-0.1 0,0.4 0.5,1.2 l 0.6,0.8 c 0,0 -0.3,-0.2 -0.5,-0.6 a 3,3 0 0 0 -0.5,-0.6 35.7,35.7 0 0 0 0,2 l -0.3,-1.7 -0.3,1 -0.3,1 0.2,-1.3 c 0.3,-1.4 0.3,-1.5 0,-2.3 0,-0.5 -0.2,-0.9 -0.3,-0.9 l -0.3,0.7 c -0.1,0.5 -0.2,0.6 -0.2,0.4 l 0.3,-0.9 c 0.2,-0.6 0.1,-0.8 -0.5,-3 a 8,8 0 0 0 -0.7,-1.2 l -0.6,-0.9 -0.3,0.6 -0.2,0.7 0.4,0.7 a 12.9,12.9 0 0 0 0.6,1.2 l -0.2,-0.2 0.1,1 v 0.6 h -0.1 c -0.1,0.1 -0.1,0.1 0,0 0,-0.5 0,-1.2 -0.5,-2.1 l -0.4,-0.8 -0.3,1 -0.4,1.1 0.2,-1 c 0.2,-1.2 0.2,-1.2 -0.4,-0.5 l -0.3,0.3 0.5,-0.7 c 0.5,-0.6 0.5,-0.6 0.7,-1.6 0.1,-0.6 0.2,-1 0,-1.2 a 2153.2,2153.2 0 0 0 -1,-2.8 c -0.1,-0.1 -0.3,0.1 -1.3,1.5 l -1,1.4 -0.2,1 v 1 l 1.5,3.5 1.2,1.2 c 1.1,1 1.4,1.4 0.5,0.6 l -0.5,-0.3 v 0.6 c 0.1,0.3 0.2,0.5 0.1,0.6 l -0.2,-0.7 c -0.1,-0.7 -0.6,-1.4 -1,-1.4 v 1.8 a 14.1,14.1 0 0 1 0,1.7 l -0.2,-2 -0.3,0.4 c -0.2,0.3 -0.2,0.3 0,-0.2 0.5,-1 0.4,-1.7 -0.5,-3.5 l -0.8,-1.5 -0.2,0.4 c -0.1,0.3 0,0.5 0.3,1.5 a 15.5,15.5 0 0 0 0.5,1.7 l -0.2,-0.3 -0.1,-0.5 -0.2,0.2 c -0.1,0.2 -0.2,0.2 0,0 0,-0.3 0,-0.6 -0.3,-1.2 l -0.3,-0.7 -0.5,1.3 a 4.7,4.7 0 0 0 -0.5,2.2 c 0,1 -0.1,1.1 -0.2,0 v -0.7 l -0.3,0.5 0.6,-1.8 c 0.9,-2.5 1.2,-3.5 1.1,-4.3 v -0.5 l -0.7,0.6 -1,1 c -0.3,0.8 -0.5,2.2 -0.4,3 0.1,0.4 0.1,0.6 0,0.4 v -0.4 l -0.2,-0.2 -0.6,1.4 a 7,7 0 0 1 -0.4,1.3 l 0.4,-1.7 c 0.5,-1.5 0.7,-2.4 0.5,-2.5 l -0.7,0.6 c -0.6,0.7 -0.6,0.7 -1,2.3 v -1.1 c 0,0 -0.3,0.2 -1.4,1.8 -0.5,0.8 -0.4,0.5 0.2,-0.5 l 0.5,-0.8 c 0.1,-0.3 -1.3,0.3 -1.5,0.6 -0.1,0.1 -0.2,0.1 -0.1,0 0.1,-0.2 0.1,-0.2 -0.7,0 l 1,-0.5 c 1.6,-0.5 1.6,-0.5 2.3,-1.3 0.6,-0.8 0.7,-1 0.3,-0.8 l 0.3,-0.2 c 0.5,-0.3 1,-1 1.1,-1.4 0.1,-0.3 0,-0.3 -1,0.1 -0.9,0.4 -1.2,0.6 -2,1.3 -1.2,1 -1.3,1 -0.3,0.1 0.4,-0.3 0.6,-0.6 0.6,-0.7 l -1.8,0.6 a 22,22 0 0 1 -0.8,0.2 c 0.5,-0.2 0.9,-0.3 0.8,-0.4 h -0.8 l -0.7,-0.2 h 2 l 2.2,-0.9 c 1.7,-0.7 2.4,-1 2.7,-1.3 0.4,-0.5 0.4,-0.5 -0.2,-0.5 -0.8,0 -1.4,0.3 -1.7,0.6 -0.3,0.3 -0.3,0.3 -0.2,0 l 0.2,-0.2 -0.8,0.2 c -0.6,0.2 -0.7,0.2 -0.3,0 l 0.5,-0.2 1.3,-0.4 -0.5,-0.3 -0.4,-0.3 0.6,0.2 c 0.5,0.3 0.6,0.3 1.4,0.2 0.5,0 1,-0.2 1.1,-0.4 0.4,-0.2 2.4,-3.3 2.4,-3.4 l -1.6,-0.2 a 9.7,9.7 0 0 0 -4.4,0.6 41,41 0 0 0 -3,4.3 l 0.6,-1.1 c 0.1,-0.2 0,-0.3 -0.1,-0.4 -0.6,-0.2 -1,0 -1.8,0.8 l -0.8,0.7 0.7,-0.8 0.7,-0.8 c -0.4,-0.1 -1.8,-0.2 -2,0 a 22.3,22.3 0 0 1 -1,0.3 c 1,-0.5 1,-0.6 0.1,-0.7 h -0.5 1.2 l 3.7,0.2 1.4,-2.3 c 0.1,-0.2 0.1,-0.2 -0.5,0 l -1,0.1 c -0.6,0 -1,0.4 -1.5,1 l -0.4,0.3 c 0,0 -0.2,-0.1 -0.4,0 h -0.4 c 0,-0.1 0.2,-0.2 0.5,-0.2 0.3,0 0.5,-0.1 0.8,-0.4 l 0.4,-0.5 -2.2,0.2 a 1705.6,1705.6 0 0 1 -0.1,-0.1 l 2.2,-0.5 -2.2,-1.3 -0.7,0.1 -2.1,0.3 1.2,-0.3 c 1.5,-0.3 1.6,-0.4 0.3,-0.5 h -0.7 c 0,0 0.2,-0.1 0.4,0 l 0.5,-0.1 -0.8,-0.6 a 5,5 0 0 1 -0.8,-0.5 z m 21,5 0.5,0.6 h 1 c 0.8,0 2.1,-0.3 2.2,-0.5 0,-0.1 -1.8,-0.7 -2.5,-0.8 h -1.6 l 0.5,0.7 z m -17.2,-12.2 c 0.1,0 0.1,0 0,0 h -0.3 0.2 z m -1,6.3 h -0.3 0.2 z m 5,1 c 0.2,0.1 0.2,0.2 0.2,0.3 0,0 -0.2,-0.1 -0.2,-0.3 -0.2,-0.2 -0.1,-0.2 0,0 z m -1.6,13.7 v 0.2 c -0.1,0 -0.1,0 0,-0.1 0,-0.2 0,-0.2 0,0 z m 2,-4.1 c 0.2,0 0.2,0 0,0 -0.1,0.2 -0.2,0.2 -0.2,0 h 0.3 z m 10.3,-20.2 -0.1,0.1 v -0.1 c 0,-0.1 0,-0.1 0,0 z m -3.3,8.5 v 0.2 c -0.1,0 -0.1,0 0,-0.2 z m 2,-2.5 c 0,0 0.1,0 0,0 h -0.2 z m -7.2,18.3 -0.2,0.3 v -0.2 c 0.1,-0.2 0.2,-0.3 0.2,-0.1 z m 10.5,-20.7 c 0.2,-0.1 0.1,0 -0.1,0.3 h -0.1 z"
         style="fill:#000000;stroke-width:0.419814"
         id="path4" />
      <path
         d="m 63.205553,145.93214 3,-6.8 c 0.2,-0.4 0.2,-0.7 0,-1.5 a 3,3 0 0 0 -0.3,-1 41.6,41.6 0 0 0 -2.6,4.6 v 0.5 l -0.1,-0.4 c -0.2,-0.3 -0.2,-0.3 -0.6,0.3 l -0.4,0.6 0.8,-1.5 1.7,-3.1 1,-1.8 -0.5,-1.7 -0.5,-1.6 -0.5,0.4 -0.4,0.5 v 1 c 0,0.7 0,1 0.3,1.6 0.5,0.9 0.4,1 0,0.2 l -0.3,-0.5 -0.5,1.3 -0.5,1.3 0.3,-1.2 c 0.4,-2 0.4,-2 0.4,-2.7 v -0.7 l -1,0.8 c -0.8,0.8 -0.8,0.9 -1.3,2 l -0.4,1.3 0.3,-1 0.2,-1.1 -0.6,0.6 c -1,1 -0.8,0.6 0.3,-0.5 l 1,-1.2 -1.7,0.1 1,-0.2 1.1,-0.2 1,-1.2 1.1,-1.2 v -2.2 l -0.1,-2.2 -2.5,1.5 c -0.3,0.3 -0.5,1.2 -0.4,2.2 v 0.4 c -0.1,-0.5 -0.3,-0.5 -0.4,0 0,0.4 0,0.4 -0.2,0.3 l 0.2,-0.8 0.2,-1.3 v -0.5 l -0.7,0.5 a 6,6 0 0 0 -1.6,1.6 c -0.8,1 -0.9,1 -1.3,2.5 -0.4,1.5 -0.4,1.6 -0.1,2.7 a 59.8,59.8 0 0 0 1.3,5.1 l -0.7,-1.6 -0.3,1.4 c -0.3,2 -0.5,2.3 -0.2,0.5 0.2,-2 0.3,-2 -0.8,-0.8 -1.2,1.3 -1.2,1.1 0,-0.3 0.6,-0.6 1,-1.2 1,-1.3 l -0.4,-1.8 c -0.4,-1.2 -0.5,-1.6 -0.7,-1.4 a 77.3,77.3 0 0 0 -1.8,2.7 l 1,-2 c 0,0 -1.6,0.7 -1.6,0.9 l -0.8,2 c 0,-0.5 0,-0.5 -0.7,-0.2 -0.4,0.2 -0.3,0.2 0.2,-0.2 0.6,-0.3 0.7,-0.5 0.9,-1 l 0.2,-0.7 -0.7,0.3 c -0.7,0.4 -0.7,0.4 -0.2,0 l 1.5,-0.9 c 1.5,-0.9 1.7,-1 2,-2 0.4,-1.1 0.6,-2.3 0.5,-2.3 l -2,1 a 14,14 0 0 0 -3.9,2.9 l -1.9,1.8 1.8,-1.9 1.7,-1.9 -0.9,0.2 c -0.8,0.1 -1,0.2 -1.5,0.8 l -0.7,0.6 0.5,-0.6 c 0.5,-0.5 0.5,-0.6 0,-0.4 l -1.8,0.4 0.9,-0.4 c 0.8,-0.2 0.9,-0.3 0.7,-0.5 h 0.3 c 1.1,0.1 2.7,-0.5 5,-1.7 1.8,-1 2.1,-1.3 2.7,-2 l 0.6,-1 -3,-0.4 c -0.6,0 -0.9,0.3 -1.3,1.4 l -0.3,0.8 0.2,-0.8 0.1,-0.7 -0.3,0.4 a 40.7,40.7 0 0 0 -0.5,0.4 c 0.3,-0.5 0.3,-0.5 0,-0.4 -0.2,0 -0.1,0 0.2,-0.2 0.6,-0.4 1,-0.8 1.1,-1 0,-0.2 -0.8,-0.1 -2,0.1 -1,0.3 -1.5,0.5 -2.4,1.1 -1.1,0.8 -1.2,0.9 -1.5,1.7 l -0.1,0.2 v -0.7 h -0.1 l -0.6,0.5 -0.6,0.3 0.5,-0.3 c 0.2,-0.3 0.7,-0.6 1,-0.8 0.6,-0.5 0.5,-0.6 -0.5,-0.5 h -0.6 c 0,-0.1 0.4,-0.2 1,-0.2 0.6,0 1,-0.2 1.4,-0.4 0.9,-0.7 0.8,-0.7 -0.4,-1 -1.4,-0.4 -1.2,-0.4 0.4,-0.1 1,0.2 1.3,0.2 2.3,0 l 1.1,-0.5 -1.1,-0.9 c -0.2,0 -0.2,-0.1 0.2,0 l 0.5,0.1 -0.1,-0.4 c 0,-0.4 0,-0.4 0.1,0 0.4,1.2 0.5,1.2 3.4,1.4 l 2.6,0.2 1.8,-1.2 c 1.1,-0.8 1.7,-1.3 1.6,-1.4 -0.3,0 -1.5,0.2 -2.2,0.5 l -0.5,0.2 c 0.2,-0.1 0.1,-0.2 -0.6,-0.1 l 0.4,-0.2 c 0.6,-0.1 0.7,-0.2 0.4,-0.3 -0.3,-0.2 -0.2,-0.2 0.1,0 0.4,0 1.2,-0.1 1.3,-0.3 l -0.8,-0.6 c -1,-0.6 -0.8,-0.6 0.2,0 0.7,0.3 1,0.5 1.7,0.5 0.8,0 1.2,-0.1 1,-0.4 0,-0.4 -1.9,-1.7 -3.3,-2.6 -1.3,-0.7 -1.3,-0.8 -2.1,-0.7 -1.2,0 -1.3,0 -1.3,0.7 v 0.2 l -0.2,-0.6 -0.2,0.3 -0.4,0.3 c -0.1,0 0,-0.2 0.3,-0.4 0.5,-0.5 0.4,-0.6 -0.6,-0.4 -0.6,0 -1,0.3 -2.7,1.4 a 98.1,98.1 0 0 0 -3.6,2.4 l 0.8,-0.7 c 0,-0.1 -0.9,-0.3 -1.4,-0.3 l -0.7,0.5 a 2,2 0 0 1 -0.5,0.4 l 0.4,-0.5 0.5,-0.5 h -0.9 c -0.2,0 -0.3,0 -0.2,-0.2 h 0.5 a 68.2,68.2 0 0 0 2.6,0.3 l 1,-0.8 -0.7,-0.5 c -0.6,-0.2 -0.8,-0.3 -1.3,-0.1 l -0.6,0.1 0.4,-0.2 0.4,-0.3 -0.6,-0.5 c -0.7,-0.5 -0.4,-0.4 0.6,0.2 0.4,0.3 1,0.6 1.5,0.7 l 0.7,0.3 1.3,-1 1.3,-1 -1,-0.5 -1,-0.4 -2,0.3 -2.2,0.3 1.8,-0.5 c 1,-0.1 1.7,-0.4 1.8,-0.4 l -3,-1.2 -3.1,-1 2.3,0.6 c 2.3,0.6 2.4,0.6 2.2,0.3 l -0.6,-0.6 c -0.3,-0.2 -1,-1 -0.7,-1 l 1,1 c 1,1 1,1 2.6,1.7 l 1.8,0.6 -0.2,-0.4 -0.5,-0.8 -0.2,-0.3 c 0.2,0 0.2,-0.2 0.2,-0.4 -0.1,-0.6 0,-0.4 0.2,0.2 0,0.3 0.3,0.9 0.6,1.3 l 0.5,0.8 1.6,-0.1 1.6,-0.2 a 10,10 0 0 0 -1.8,-3 c -0.8,-0.8 -2,-1.2 -3.8,-1.2 -1.9,0 -2,0 -0.7,-0.2 l 1.1,-0.1 -1.4,-1 -1.4,-1.1 c 0,0 0.3,0 0.5,0.2 0.3,0.3 0.5,0.3 0.6,0.2 l 0.1,0.1 c 0,0.4 2.2,1.6 3,1.7 h 0.6 l -0.8,-1.3 c -0.7,-1.1 -1,-1.3 -1.6,-1.7 -0.7,-0.4 -0.7,-0.4 -0.2,-0.2 l 0.6,0.1 -0.5,-0.8 -0.6,-1 1,1.2 c 2.2,3.3 2.7,4 3.2,4.3 l 0.5,0.3 -0.4,-2.6 a 3,3 0 0 0 -0.9,-0.8 c -0.4,-0.2 -0.7,-0.5 -0.7,-0.7 0,-0.1 0,-0.1 0.2,0 0.1,0.3 1.4,1 1.4,1 v -0.7 c -0.1,-0.5 -0.3,-0.7 -0.6,-1 -2,-1.8 -2.5,-2.2 -2.3,-2.2 0,0 0,-0.3 -0.3,-0.8 l -0.2,-0.6 0.6,1 c 0.2,0.5 0.6,1 1.4,1.6 1.1,1 1.3,1 1.2,0.8 l -0.3,-2.1 0.8,3.9 0.7,3.7 1,1.6 c 0.8,1.4 1,1.6 1.6,1.9 a 29.3,29.3 0 0 1 2.8,1.6 l -0.4,-0.8 -0.6,-1 c 0,-0.2 0.2,0.1 0.5,0.6 l 0.7,1 c 0,0 0.3,-0.5 0.2,-0.9 0,-0.1 0,-0.4 0.2,-0.6 0.1,-0.2 0.2,0 0,0.6 l -0.2,1 c 0,0.3 1,1.4 1.3,1.5 l 0.8,-1.9 0.6,-1.8 -1,-1.8 -1.3,-1.9 -1.2,-0.7 -1.2,-0.6 -1,0.1 c -1.6,0.2 -1.7,0.2 -0.5,0 l 1,-0.4 -1,-0.7 c -0.6,-0.4 -1,-0.8 -1,-0.9 l 0.3,0.2 c 0.4,0.3 1.8,1.2 2,1.1 l -0.4,-1 c -0.8,-2 -0.8,-2 -0.4,-1.2 l 0.4,0.8 0.1,-0.4 c 0,-0.4 0,-0.4 0.1,0.1 a 3,3 0 0 0 2,2.7 c 0.7,0.3 0.8,0.3 0.7,-0.7 0,-0.5 -0.4,-1.4 -1,-2.9 l -0.8,-1.7 0.3,0.4 c 0,0.2 1.3,2.6 1.4,2.5 v -2.4 l 0.4,2.7 0.3,2.9 1,1.3 c 0.4,0.7 0.9,1.3 1,1.3 0.2,0 0.3,-0.6 0.3,-2.2 0,-1.6 0,-1.7 -1,-4.3 l -0.9,-2.7 -1.4,-1.9 c -2,-2.6 -1.8,-2.5 0.4,0.2 l 0.7,0.7 -0.2,-1.3 c -0.7,-2.9 -0.7,-3.7 0,-1.2 l 0.2,1.4 0.7,-1.7 0.6,-1.7 -0.6,1.9 c -0.6,2 -0.6,2 0,3.7 0.3,0.6 0.4,0.7 0.5,0.5 0.4,-0.5 0.7,-1.7 0.7,-2.4 v -0.6 0.6 l 0.1,0.5 0.3,-0.3 -0.5,1.3 -0.6,1.7 0.7,1.4 0.6,1.5 0.4,-1 a 15,15 0 0 0 1.5,-4.6 c 0,-0.8 0.1,-1.5 0.2,-1.5 v 1.2 a 5,5 0 0 0 0,1.2 l 0.9,-1.1 0.8,-1 -0.9,1.3 c -0.7,1.1 -1,1.6 -1.2,2.4 -0.3,1 -0.3,1 0.1,1.8 l 0.4,0.7 0.1,-0.6 c 0.2,-1.2 0.3,-1.5 0.2,-0.7 0,1.2 0,1.2 0.2,0.9 0.2,-0.3 0.2,-0.2 0,0.3 -0.3,0.5 -0.3,0.7 -0.1,1.5 0,0.6 0.2,1 0.3,1 l 0.7,-0.7 0.5,-0.6 0.4,-1.6 a 18,18 0 0 0 0.4,-2.1 v 0.6 a 1486.6,1486.6 0 0 1 -0.4,2.6 l 1,-1 1,-1 -1.4,1.8 c -1.4,1.7 -1.6,2.1 -1,1.7 l 0.5,-0.2 c 0.2,0 -0.1,0.2 -0.6,0.5 l -2.3,1.6 -1.3,1.2 -0.4,1.6 a 134.5,134.5 0 0 1 -1,3.6 26,26 0 0 0 6.5,-3.5 c 0.5,-0.4 2.5,-4.6 2.7,-5.7 0.3,-1.1 0.2,-1.2 -0.5,-2.5 l -0.5,-1 0.6,0.8 0.6,1 c 0.2,0 0.3,-1.1 0.2,-1.9 -0.1,-0.9 0,-1 0.1,-0.2 l 0.1,0.7 0.4,-0.6 0.3,-0.6 -0.3,0.8 c -0.4,0.7 -0.7,3 -0.5,3 l 1,-1.5 1.1,-1.6 -0.7,1.4 a 11,11 0 0 0 -0.7,1.5 h 0.7 c 0.7,-0.2 1,-0.4 2,-1.2 l 1,-1 -0.8,1 -0.9,0.8 1.1,-0.2 c 1.5,-0.3 1,-0.1 -1,0.4 -2.7,0.8 -2.6,0.8 -3.3,2.4 l -0.7,1.6 c 0,0 0.5,0 1,-0.3 0.8,-0.3 1.3,-0.6 1.9,-1.2 1,-1 1.2,-1 0.3,-0.1 -0.6,0.6 -0.6,0.7 0,0.5 0.8,-0.3 1,-0.3 0.3,0 a 16,16 0 0 0 -3.7,2 l -0.5,0.8 v 0.5 l 2,-0.6 2.4,-0.8 1,-1.2 c 0.5,-0.7 1,-1.2 1,-1.1 l -0.7,1 -0.7,1.1 c -0.1,0.3 0.6,0 1.5,-0.7 a 9,9 0 0 1 1,-0.8 l -0.7,0.7 -0.7,0.7 a 46.1,46.1 0 0 0 2.5,-0.2 l -2.2,0.6 1.3,0.3 1.4,0.3 -1.8,-0.2 c -1.8,-0.3 -1.8,-0.3 -2.9,0 l -1.1,0.5 0.9,0.4 c 0.7,0.1 0.8,0.2 0.5,0.2 l -1.1,-0.2 c -0.8,-0.3 -1,-0.2 -3.8,0.8 -0.2,0 -1,0.5 -1.5,1 l -1.2,0.8 0.8,0.2 0.9,0.3 1,-0.6 a 16.5,16.5 0 0 0 1.4,-0.8 c -0.2,0.1 -0.2,0.2 -0.2,0.3 l 1.1,-0.3 h 0.9 v 0.2 c 0.2,0 0.1,0.1 -0.1,0 -0.6,-0.1 -1.5,0.1 -2.6,0.7 l -1,0.5 1.4,0.4 1.4,0.4 -1.4,-0.2 c -1.5,-0.2 -1.5,-0.1 -0.5,0.6 l 0.3,0.4 -0.9,-0.6 c -0.8,-0.6 -0.8,-0.7 -2,-0.8 -0.8,-0.2 -1.4,-0.2 -1.6,0 a 2824.9,2824.9 0 0 0 -3.5,1.6 c -0.2,0 0.1,0.3 2,1.5 l 1.9,1.3 h 2.6 l 4.1,-2.2 c 0.2,-0.2 1,-0.9 1.6,-1.7 1.2,-1.4 1.6,-1.8 0.7,-0.6 l -0.4,0.6 h 0.8 l 0.7,-0.2 -0.9,0.3 c -0.8,0.2 -1.7,0.9 -1.7,1.3 h 2.4 a 18,18 0 0 1 2.1,-0.2 c -0.6,0 -2.6,0.4 -2.6,0.5 l 0.6,0.4 c 0.5,0.2 0.4,0.2 -0.3,0 -1.2,-0.6 -2.1,-0.4 -4.4,0.9 l -1.9,1 0.5,0.3 c 0.4,0.1 0.8,0 2,-0.5 a 19.9,19.9 0 0 0 2.1,-0.8 l -0.4,0.3 -0.6,0.2 0.3,0.2 c 0.3,0.2 0.2,0.2 -0.1,0 -0.3,0 -0.7,0 -1.4,0.4 l -1,0.5 1.8,0.6 a 6,6 0 0 0 2.8,0.5 c 1.3,0 1.4,0 0.1,0.2 h -1 l 0.7,0.4 -2.3,-0.6 c -3.3,-1 -4.6,-1.3 -5.6,-1.2 h -0.6 l 0.8,0.9 c 0.4,0.4 1,1 1.5,1.1 a 7,7 0 0 0 3.8,0.4 c 0.5,-0.1 0.7,-0.1 0.4,0 l -0.5,0.1 -0.2,0.2 c 0,0.1 0.5,0.3 1.8,0.6 a 9,9 0 0 1 1.7,0.6 l -2.2,-0.5 c -1.9,-0.5 -3.1,-0.7 -3.2,-0.5 0,0 0.3,0.5 0.8,0.9 0.9,0.7 1,0.8 3,1.1 0.3,0.1 0.1,0.1 -0.4,0 h -1 c -0.1,0.2 0.3,0.4 2.4,1.7 1,0.7 0.6,0.6 -0.7,-0.2 l -1,-0.6 c -0.4,0 0.4,1.7 0.8,2 0.2,0.1 0.2,0.2 0,0.1 -0.3,-0.2 -0.3,-0.2 0.1,1 l -0.7,-1.5 c -0.8,-1.8 -0.8,-1.9 -1.9,-2.7 -1,-0.8 -1.2,-0.9 -1,-0.4 0,0.2 0,0 -0.3,-0.3 a 3.3,3.3 0 0 0 -1.8,-1.4 c -0.4,0 -0.3,0 0.2,1.2 0.5,1.2 0.8,1.6 1.8,2.6 1.4,1.5 1.4,1.6 0.1,0.4 -0.4,-0.5 -0.9,-0.8 -0.9,-0.7 l 0.9,2.2 a 28.2,28.2 0 0 1 0.3,1 l -0.6,-1 v 1 l -0.1,1 v -2.5 l -1.4,-2.9 c -1,-2 -1.5,-3 -2,-3.3 -0.5,-0.6 -0.6,-0.5 -0.5,0.3 0.1,1 0.4,1.7 0.9,2.1 0.3,0.4 0.3,0.4 0,0.2 l -0.3,-0.2 0.3,1 c 0.3,0.8 0.3,0.9 0,0.4 l -0.2,-0.6 -0.7,-1.7 -0.4,0.6 -0.3,0.6 0.3,-0.7 c 0.3,-0.7 0.3,-0.9 0.1,-1.9 -0.1,-0.6 -0.3,-1.2 -0.5,-1.4 a 21,21 0 0 0 -4.6,-2.8 v 2 a 12.5,12.5 0 0 0 0.9,5.6 52.7,52.7 0 0 0 5.8,3.6 18,18 0 0 1 -1.6,-0.6 c -0.3,-0.2 -0.3,-0.2 -0.4,0 -0.3,0.8 0,1.2 1,2.3 l 1,1 c 0,0 -0.5,-0.3 -1,-0.9 l -1.1,-0.8 a 7,7 0 0 0 0,2.5 28.7,28.7 0 0 1 0.6,1.4 c -0.8,-1.4 -0.9,-1.4 -1,-0.2 v 0.6 -1.5 a 40,40 0 0 0 0,-4.7 26,26 0 0 0 -3,-1.7 c -0.2,-0.1 -0.2,-0.1 0,0.7 l 0.2,1.3 c 0.2,0.6 0.6,1.3 1.4,1.8 0.2,0.2 0.4,0.4 0.3,0.5 v 1 l -0.1,-0.5 c 0,-0.5 -0.2,-0.7 -0.6,-1.1 l -0.7,-0.5 0.5,2.8 a 2139.3,2139.3 0 0 1 -0.2,0.2 l -0.7,-2.8 -1.6,2.8 0.2,1 0.5,2.7 -0.4,-1.6 c -0.5,-2 -0.7,-2 -0.7,-0.4 v 1 l -0.1,-0.6 -0.1,-0.6 -0.7,1.1 z m 5.2,-27.3 0.8,-0.6 v -1.2 c 0,-1 -0.6,-2.8 -1,-2.9 0,0 -0.7,2.4 -0.8,3.3 l 0.1,2 z m -14.7,23 c 0,-0.2 0.1,-0.2 0.1,0 v 0.2 c -0.1,0 -0.1,0 0,-0.2 z m 8.2,1 c 0,-0.2 0,-0.2 0,0 v 0.2 z m 1,-6.6 c 0.1,-0.2 0.3,-0.3 0.3,-0.2 0,0 0,0.2 -0.3,0.3 -0.3,0.1 -0.3,0.1 0,-0.1 z m 17.7,1.3 h 0.2 c 0,0.1 0,0.2 -0.2,0.1 -0.1,0 -0.2,-0.1 0,-0.1 z m -5.5,-2.4 c 0,-0.2 0,-0.2 0.2,0 v 0.3 z m -26.5,-12 0.3,0.2 h -0.2 c -0.2,0 -0.2,-0.1 0,-0.1 z m 11.2,3.8 h 0.2 c 0,0.1 0,0.1 -0.2,0 -0.1,0 -0.2,0 0,0 z m -3.4,-2.4 c 0,-0.2 0.1,-0.2 0.1,0 v 0.2 c -0.1,0 -0.1,0 0,-0.2 z m 23.8,8 0.5,0.2 h -0.3 z m -27,-12.2 c -0.2,-0.3 0,-0.2 0.3,0 0.2,0.2 0.2,0.2 0,0.2 a 0.8,0.8 0 0 1 -0.3,-0.2 z"
         style="fill:#000000;stroke-width:0.538646"
         id="path5" />
    </g>
  </g>
</svg>
