<svg xmlns="http://www.w3.org/2000/svg" viewBox="0 0 24 24" width="960" height="960" font-family="Arial" font-size="0.6">
<defs>
  <style><![CDATA[
    .layer { display: inline; }
    .layer.hidden { display: none; }
    .grid-line { stroke: #999; stroke-width: 0.02; opacity: 0.2; }
    .grid-line-2mu { stroke: #666; stroke-width: 0.04; opacity: 0.4; }
    .grid-line-6mu { stroke: #333; stroke-width: 0.08; opacity: 0.6; }
    .delaunay-line { stroke: #4a6fa5; stroke-width: 0.03; opacity: 0.3; }
    #layer-area { opacity: 0.8; }
    #layer-building, #layer-wall, #layer-tree, #layer-rocks, #layer-shrub, #layer-terrain { opacity: 0.8; }
    .terrain-area { stroke: none; }
    .terrain-solid { stroke: #000; stroke-width: 0.05; }
    .model { stroke: #ff0000; stroke-width: 2; vector-effect: non-scaling-stroke; }
    .path { fill: none; stroke-width: 0.12; }
    .vector { stroke-width: 0.1; }
    .los-ray { stroke-width: 0.08; stroke-dasharray: 0.2 0.2; }
    .lof-ray { stroke-width: 0.08; stroke-dasharray: 0.3 0.15; }
    .label { fill: #111 !important; font-size: 0.6px; }
    .toggle { cursor: pointer; }
    .toggle.disabled { cursor: default; }
    .toggle.disabled rect { stroke: #ccc; fill: #fff; }
    .toggle.disabled text { fill: #ccc; }
#layer-wall { fill: #555555; }
  ]]></style>
</defs>
<rect x="0" y="0" width="24" height="24" fill="#ffffff" stroke="#111" stroke-width="0.05"/>
<script><![CDATA[
      function toggleLayer(id) {
        var layer = document.getElementById('layer-' + id);
        if (!layer) return;
        if (layer.classList.contains('hidden')) {
          layer.classList.remove('hidden');
        } else {
          layer.classList.add('hidden');
        }
      }
    ]]></script>
<text x="0.4" y="23.6" class="label">SMALL battlefield_A0-B0-W40-R0-S0-T0</text>
<g id="layer-deployment" class="layer ">
</g>
<g id="layer-grid" class="layer ">
<line x1="0" y1="0" x2="0" y2="24" class="grid-line-6mu"/>
<line x1="0.5" y1="0" x2="0.5" y2="24" class="grid-line"/>
<line x1="1" y1="0" x2="1" y2="24" class="grid-line"/>
<line x1="1.5" y1="0" x2="1.5" y2="24" class="grid-line"/>
<line x1="2" y1="0" x2="2" y2="24" class="grid-line-2mu"/>
<line x1="2.5" y1="0" x2="2.5" y2="24" class="grid-line"/>
<line x1="3" y1="0" x2="3" y2="24" class="grid-line"/>
<line x1="3.5" y1="0" x2="3.5" y2="24" class="grid-line"/>
<line x1="4" y1="0" x2="4" y2="24" class="grid-line-2mu"/>
<line x1="4.5" y1="0" x2="4.5" y2="24" class="grid-line"/>
<line x1="5" y1="0" x2="5" y2="24" class="grid-line"/>
<line x1="5.5" y1="0" x2="5.5" y2="24" class="grid-line"/>
<line x1="6" y1="0" x2="6" y2="24" class="grid-line-6mu"/>
<line x1="6.5" y1="0" x2="6.5" y2="24" class="grid-line"/>
<line x1="7" y1="0" x2="7" y2="24" class="grid-line"/>
<line x1="7.5" y1="0" x2="7.5" y2="24" class="grid-line"/>
<line x1="8" y1="0" x2="8" y2="24" class="grid-line-2mu"/>
<line x1="8.5" y1="0" x2="8.5" y2="24" class="grid-line"/>
<line x1="9" y1="0" x2="9" y2="24" class="grid-line"/>
<line x1="9.5" y1="0" x2="9.5" y2="24" class="grid-line"/>
<line x1="10" y1="0" x2="10" y2="24" class="grid-line-2mu"/>
<line x1="10.5" y1="0" x2="10.5" y2="24" class="grid-line"/>
<line x1="11" y1="0" x2="11" y2="24" class="grid-line"/>
<line x1="11.5" y1="0" x2="11.5" y2="24" class="grid-line"/>
<line x1="12" y1="0" x2="12" y2="24" class="grid-line-6mu"/>
<line x1="12.5" y1="0" x2="12.5" y2="24" class="grid-line"/>
<line x1="13" y1="0" x2="13" y2="24" class="grid-line"/>
<line x1="13.5" y1="0" x2="13.5" y2="24" class="grid-line"/>
<line x1="14" y1="0" x2="14" y2="24" class="grid-line-2mu"/>
<line x1="14.5" y1="0" x2="14.5" y2="24" class="grid-line"/>
<line x1="15" y1="0" x2="15" y2="24" class="grid-line"/>
<line x1="15.5" y1="0" x2="15.5" y2="24" class="grid-line"/>
<line x1="16" y1="0" x2="16" y2="24" class="grid-line-2mu"/>
<line x1="16.5" y1="0" x2="16.5" y2="24" class="grid-line"/>
<line x1="17" y1="0" x2="17" y2="24" class="grid-line"/>
<line x1="17.5" y1="0" x2="17.5" y2="24" class="grid-line"/>
<line x1="18" y1="0" x2="18" y2="24" class="grid-line-6mu"/>
<line x1="18.5" y1="0" x2="18.5" y2="24" class="grid-line"/>
<line x1="19" y1="0" x2="19" y2="24" class="grid-line"/>
<line x1="19.5" y1="0" x2="19.5" y2="24" class="grid-line"/>
<line x1="20" y1="0" x2="20" y2="24" class="grid-line-2mu"/>
<line x1="20.5" y1="0" x2="20.5" y2="24" class="grid-line"/>
<line x1="21" y1="0" x2="21" y2="24" class="grid-line"/>
<line x1="21.5" y1="0" x2="21.5" y2="24" class="grid-line"/>
<line x1="22" y1="0" x2="22" y2="24" class="grid-line-2mu"/>
<line x1="22.5" y1="0" x2="22.5" y2="24" class="grid-line"/>
<line x1="23" y1="0" x2="23" y2="24" class="grid-line"/>
<line x1="23.5" y1="0" x2="23.5" y2="24" class="grid-line"/>
<line x1="24" y1="0" x2="24" y2="24" class="grid-line-6mu"/>
<line x1="0" y1="0" x2="24" y2="0" class="grid-line-6mu"/>
<line x1="0" y1="0.5" x2="24" y2="0.5" class="grid-line"/>
<line x1="0" y1="1" x2="24" y2="1" class="grid-line"/>
<line x1="0" y1="1.5" x2="24" y2="1.5" class="grid-line"/>
<line x1="0" y1="2" x2="24" y2="2" class="grid-line-2mu"/>
<line x1="0" y1="2.5" x2="24" y2="2.5" class="grid-line"/>
<line x1="0" y1="3" x2="24" y2="3" class="grid-line"/>
<line x1="0" y1="3.5" x2="24" y2="3.5" class="grid-line"/>
<line x1="0" y1="4" x2="24" y2="4" class="grid-line-2mu"/>
<line x1="0" y1="4.5" x2="24" y2="4.5" class="grid-line"/>
<line x1="0" y1="5" x2="24" y2="5" class="grid-line"/>
<line x1="0" y1="5.5" x2="24" y2="5.5" class="grid-line"/>
<line x1="0" y1="6" x2="24" y2="6" class="grid-line-6mu"/>
<line x1="0" y1="6.5" x2="24" y2="6.5" class="grid-line"/>
<line x1="0" y1="7" x2="24" y2="7" class="grid-line"/>
<line x1="0" y1="7.5" x2="24" y2="7.5" class="grid-line"/>
<line x1="0" y1="8" x2="24" y2="8" class="grid-line-2mu"/>
<line x1="0" y1="8.5" x2="24" y2="8.5" class="grid-line"/>
<line x1="0" y1="9" x2="24" y2="9" class="grid-line"/>
<line x1="0" y1="9.5" x2="24" y2="9.5" class="grid-line"/>
<line x1="0" y1="10" x2="24" y2="10" class="grid-line-2mu"/>
<line x1="0" y1="10.5" x2="24" y2="10.5" class="grid-line"/>
<line x1="0" y1="11" x2="24" y2="11" class="grid-line"/>
<line x1="0" y1="11.5" x2="24" y2="11.5" class="grid-line"/>
<line x1="0" y1="12" x2="24" y2="12" class="grid-line-6mu"/>
<line x1="0" y1="12.5" x2="24" y2="12.5" class="grid-line"/>
<line x1="0" y1="13" x2="24" y2="13" class="grid-line"/>
<line x1="0" y1="13.5" x2="24" y2="13.5" class="grid-line"/>
<line x1="0" y1="14" x2="24" y2="14" class="grid-line-2mu"/>
<line x1="0" y1="14.5" x2="24" y2="14.5" class="grid-line"/>
<line x1="0" y1="15" x2="24" y2="15" class="grid-line"/>
<line x1="0" y1="15.5" x2="24" y2="15.5" class="grid-line"/>
<line x1="0" y1="16" x2="24" y2="16" class="grid-line-2mu"/>
<line x1="0" y1="16.5" x2="24" y2="16.5" class="grid-line"/>
<line x1="0" y1="17" x2="24" y2="17" class="grid-line"/>
<line x1="0" y1="17.5" x2="24" y2="17.5" class="grid-line"/>
<line x1="0" y1="18" x2="24" y2="18" class="grid-line-6mu"/>
<line x1="0" y1="18.5" x2="24" y2="18.5" class="grid-line"/>
<line x1="0" y1="19" x2="24" y2="19" class="grid-line"/>
<line x1="0" y1="19.5" x2="24" y2="19.5" class="grid-line"/>
<line x1="0" y1="20" x2="24" y2="20" class="grid-line-2mu"/>
<line x1="0" y1="20.5" x2="24" y2="20.5" class="grid-line"/>
<line x1="0" y1="21" x2="24" y2="21" class="grid-line"/>
<line x1="0" y1="21.5" x2="24" y2="21.5" class="grid-line"/>
<line x1="0" y1="22" x2="24" y2="22" class="grid-line-2mu"/>
<line x1="0" y1="22.5" x2="24" y2="22.5" class="grid-line"/>
<line x1="0" y1="23" x2="24" y2="23" class="grid-line"/>
<line x1="0" y1="23.5" x2="24" y2="23.5" class="grid-line"/>
<line x1="0" y1="24" x2="24" y2="24" class="grid-line-6mu"/>
</g>
<g id="layer-delaunay" class="layer ">
<line x1="10.459000367382961" y1="9.967535905363022" x2="10.545824456216426" y2="9.475132028856919" class="delaunay-line"/>
<line x1="10.545824456216426" y1="9.475132028856919" x2="4.636977938143177" y2="8.433242962855338" class="delaunay-line"/>
<line x1="4.636977938143177" y1="8.433242962855338" x2="10.459000367382961" y2="9.967535905363022" class="delaunay-line"/>
<line x1="4.636977938143177" y1="8.433242962855338" x2="4.550153849309712" y2="8.925646839361441" class="delaunay-line"/>
<line x1="4.550153849309712" y1="8.925646839361441" x2="10.459000367382961" y2="9.967535905363022" class="delaunay-line"/>
<line x1="10.459000367382961" y1="9.967535905363022" x2="4.636977938143177" y2="8.433242962855338" class="delaunay-line"/>
<line x1="4.550153849309712" y1="8.925646839361441" x2="4.886242439953303" y2="13.037280841593962" class="delaunay-line"/>
<line x1="4.886242439953303" y1="13.037280841593962" x2="10.459000367382961" y2="9.967535905363022" class="delaunay-line"/>
<line x1="10.459000367382961" y1="9.967535905363022" x2="4.550153849309712" y2="8.925646839361441" class="delaunay-line"/>
<line x1="4.550153849309712" y1="8.925646839361441" x2="4.4032795268087686" y2="13.166690364145222" class="delaunay-line"/>
<line x1="4.4032795268087686" y1="13.166690364145222" x2="4.886242439953303" y2="13.037280841593962" class="delaunay-line"/>
<line x1="4.886242439953303" y1="13.037280841593962" x2="4.550153849309712" y2="8.925646839361441" class="delaunay-line"/>
<line x1="6.439156710568427" y1="18.83283579932837" x2="10.177045149953942" y2="16.167814078584424" class="delaunay-line"/>
<line x1="10.177045149953942" y1="16.167814078584424" x2="4.886242439953303" y2="13.037280841593962" class="delaunay-line"/>
<line x1="4.886242439953303" y1="13.037280841593962" x2="6.439156710568427" y2="18.83283579932837" class="delaunay-line"/>
<line x1="4.886242439953303" y1="13.037280841593962" x2="10.177045149953942" y2="16.167814078584424" class="delaunay-line"/>
<line x1="10.177045149953942" y1="16.167814078584424" x2="10.459000367382961" y2="9.967535905363022" class="delaunay-line"/>
<line x1="10.459000367382961" y1="9.967535905363022" x2="4.886242439953303" y2="13.037280841593962" class="delaunay-line"/>
<line x1="10.459000367382961" y1="9.967535905363022" x2="15.885861384645715" y2="8.41893930781184" class="delaunay-line"/>
<line x1="15.885861384645715" y1="8.41893930781184" x2="10.545824456216426" y2="9.475132028856919" class="delaunay-line"/>
<line x1="10.545824456216426" y1="9.475132028856919" x2="10.459000367382961" y2="9.967535905363022" class="delaunay-line"/>
<line x1="10.177045149953942" y1="16.167814078584424" x2="11.177045149953942" y2="16.167814078584424" class="delaunay-line"/>
<line x1="11.177045149953942" y1="16.167814078584424" x2="10.459000367382961" y2="9.967535905363022" class="delaunay-line"/>
<line x1="10.459000367382961" y1="9.967535905363022" x2="10.177045149953942" y2="16.167814078584424" class="delaunay-line"/>
<line x1="16.2132126661073" y1="13.320857119274665" x2="15.885861384645715" y2="8.41893930781184" class="delaunay-line"/>
<line x1="15.885861384645715" y1="8.41893930781184" x2="10.459000367382961" y2="9.967535905363022" class="delaunay-line"/>
<line x1="10.459000367382961" y1="9.967535905363022" x2="16.2132126661073" y2="13.320857119274665" class="delaunay-line"/>
<line x1="10.545824456216426" y1="9.475132028856919" x2="12.889008637318415" y2="1.0014684712775428" class="delaunay-line"/>
<line x1="12.889008637318415" y1="1.0014684712775428" x2="4.636977938143177" y2="8.433242962855338" class="delaunay-line"/>
<line x1="4.636977938143177" y1="8.433242962855338" x2="10.545824456216426" y2="9.475132028856919" class="delaunay-line"/>
<line x1="10.177045149953942" y1="16.167814078584424" x2="12.557503618037371" y2="17.044315869252376" class="delaunay-line"/>
<line x1="12.557503618037371" y1="17.044315869252376" x2="11.177045149953942" y2="16.167814078584424" class="delaunay-line"/>
<line x1="11.177045149953942" y1="16.167814078584424" x2="10.177045149953942" y2="16.167814078584424" class="delaunay-line"/>
<line x1="11.177045149953942" y1="16.167814078584424" x2="16.2132126661073" y2="13.320857119274665" class="delaunay-line"/>
<line x1="16.2132126661073" y1="13.320857119274665" x2="10.459000367382961" y2="9.967535905363022" class="delaunay-line"/>
<line x1="10.459000367382961" y1="9.967535905363022" x2="11.177045149953942" y2="16.167814078584424" class="delaunay-line"/>
<line x1="16.534606470950568" y1="12.937834897715176" x2="16.813045239212503" y2="8.044332714395928" class="delaunay-line"/>
<line x1="16.813045239212503" y1="8.044332714395928" x2="15.885861384645715" y2="8.41893930781184" class="delaunay-line"/>
<line x1="15.885861384645715" y1="8.41893930781184" x2="16.534606470950568" y2="12.937834897715176" class="delaunay-line"/>
<line x1="15.885861384645715" y1="8.41893930781184" x2="12.889008637318415" y2="1.0014684712775428" class="delaunay-line"/>
<line x1="12.889008637318415" y1="1.0014684712775428" x2="10.545824456216426" y2="9.475132028856919" class="delaunay-line"/>
<line x1="10.545824456216426" y1="9.475132028856919" x2="15.885861384645715" y2="8.41893930781184" class="delaunay-line"/>
<line x1="12.557503618037371" y1="17.044315869252376" x2="13.027349928430324" y2="16.87330579758954" class="delaunay-line"/>
<line x1="13.027349928430324" y1="16.87330579758954" x2="11.177045149953942" y2="16.167814078584424" class="delaunay-line"/>
<line x1="11.177045149953942" y1="16.167814078584424" x2="12.557503618037371" y2="17.044315869252376" class="delaunay-line"/>
<line x1="13.027349928430324" y1="16.87330579758954" x2="16.2132126661073" y2="13.320857119274665" class="delaunay-line"/>
<line x1="16.2132126661073" y1="13.320857119274665" x2="11.177045149953942" y2="16.167814078584424" class="delaunay-line"/>
<line x1="11.177045149953942" y1="16.167814078584424" x2="13.027349928430324" y2="16.87330579758954" class="delaunay-line"/>
<line x1="5.956193797423892" y1="18.962245321879628" x2="6.439156710568427" y2="18.83283579932837" class="delaunay-line"/>
<line x1="6.439156710568427" y1="18.83283579932837" x2="4.886242439953303" y2="13.037280841593962" class="delaunay-line"/>
<line x1="4.886242439953303" y1="13.037280841593962" x2="5.956193797423892" y2="18.962245321879628" class="delaunay-line"/>
<line x1="10.177045149953942" y1="16.167814078584424" x2="6.439156710568427" y2="18.83283579932837" class="delaunay-line"/>
<line x1="6.439156710568427" y1="18.83283579932837" x2="12.557503618037371" y2="17.044315869252376" class="delaunay-line"/>
<line x1="12.557503618037371" y1="17.044315869252376" x2="10.177045149953942" y2="16.167814078584424" class="delaunay-line"/>
<line x1="16.2132126661073" y1="13.320857119274665" x2="16.534606470950568" y2="12.937834897715176" class="delaunay-line"/>
<line x1="16.534606470950568" y1="12.937834897715176" x2="15.885861384645715" y2="8.41893930781184" class="delaunay-line"/>
<line x1="15.885861384645715" y1="8.41893930781184" x2="16.2132126661073" y2="13.320857119274665" class="delaunay-line"/>
<line x1="13.816192491885204" y1="0.6268618778616308" x2="12.889008637318415" y2="1.0014684712775428" class="delaunay-line"/>
<line x1="12.889008637318415" y1="1.0014684712775428" x2="15.885861384645715" y2="8.41893930781184" class="delaunay-line"/>
<line x1="15.885861384645715" y1="8.41893930781184" x2="13.816192491885204" y2="0.6268618778616308" class="delaunay-line"/>
<line x1="4.4032795268087686" y1="13.166690364145222" x2="5.956193797423892" y2="18.962245321879628" class="delaunay-line"/>
<line x1="5.956193797423892" y1="18.962245321879628" x2="4.886242439953303" y2="13.037280841593962" class="delaunay-line"/>
<line x1="4.886242439953303" y1="13.037280841593962" x2="4.4032795268087686" y2="13.166690364145222" class="delaunay-line"/>
<line x1="16.813045239212503" y1="8.044332714395928" x2="13.816192491885204" y2="0.6268618778616308" class="delaunay-line"/>
<line x1="13.816192491885204" y1="0.6268618778616308" x2="15.885861384645715" y2="8.41893930781184" class="delaunay-line"/>
<line x1="15.885861384645715" y1="8.41893930781184" x2="16.813045239212503" y2="8.044332714395928" class="delaunay-line"/>
<line x1="4.636977938143177" y1="8.433242962855338" x2="0" y2="0" class="delaunay-line"/>
<line x1="0" y1="0" x2="4.550153849309712" y2="8.925646839361441" class="delaunay-line"/>
<line x1="4.550153849309712" y1="8.925646839361441" x2="4.636977938143177" y2="8.433242962855338" class="delaunay-line"/>
<line x1="4.550153849309712" y1="8.925646839361441" x2="0" y2="0" class="delaunay-line"/>
<line x1="0" y1="0" x2="4.4032795268087686" y2="13.166690364145222" class="delaunay-line"/>
<line x1="4.4032795268087686" y1="13.166690364145222" x2="4.550153849309712" y2="8.925646839361441" class="delaunay-line"/>
<line x1="4.4032795268087686" y1="13.166690364145222" x2="0" y2="24" class="delaunay-line"/>
<line x1="0" y1="24" x2="5.956193797423892" y2="18.962245321879628" class="delaunay-line"/>
<line x1="5.956193797423892" y1="18.962245321879628" x2="4.4032795268087686" y2="13.166690364145222" class="delaunay-line"/>
<line x1="12.889008637318415" y1="1.0014684712775428" x2="0" y2="0" class="delaunay-line"/>
<line x1="0" y1="0" x2="4.636977938143177" y2="8.433242962855338" class="delaunay-line"/>
<line x1="4.636977938143177" y1="8.433242962855338" x2="12.889008637318415" y2="1.0014684712775428" class="delaunay-line"/>
<line x1="13.816192491885204" y1="0.6268618778616308" x2="0" y2="0" class="delaunay-line"/>
<line x1="0" y1="0" x2="12.889008637318415" y2="1.0014684712775428" class="delaunay-line"/>
<line x1="12.889008637318415" y1="1.0014684712775428" x2="13.816192491885204" y2="0.6268618778616308" class="delaunay-line"/>
<line x1="5.956193797423892" y1="18.962245321879628" x2="10.177045149953942" y2="24.167814078584424" class="delaunay-line"/>
<line x1="10.177045149953942" y1="24.167814078584424" x2="6.439156710568427" y2="18.83283579932837" class="delaunay-line"/>
<line x1="6.439156710568427" y1="18.83283579932837" x2="5.956193797423892" y2="18.962245321879628" class="delaunay-line"/>
<line x1="6.439156710568427" y1="18.83283579932837" x2="10.177045149953942" y2="24.167814078584424" class="delaunay-line"/>
<line x1="10.177045149953942" y1="24.167814078584424" x2="12.557503618037371" y2="17.044315869252376" class="delaunay-line"/>
<line x1="12.557503618037371" y1="17.044315869252376" x2="6.439156710568427" y2="18.83283579932837" class="delaunay-line"/>
<line x1="12.557503618037371" y1="17.044315869252376" x2="14.609624477991384" y2="22.68247159396783" class="delaunay-line"/>
<line x1="14.609624477991384" y1="22.68247159396783" x2="13.027349928430324" y2="16.87330579758954" class="delaunay-line"/>
<line x1="13.027349928430324" y1="16.87330579758954" x2="12.557503618037371" y2="17.044315869252376" class="delaunay-line"/>
<line x1="13.027349928430324" y1="16.87330579758954" x2="20.809479324821165" y2="17.1775827773939" class="delaunay-line"/>
<line x1="20.809479324821165" y1="17.1775827773939" x2="16.2132126661073" y2="13.320857119274665" class="delaunay-line"/>
<line x1="16.2132126661073" y1="13.320857119274665" x2="13.027349928430324" y2="16.87330579758954" class="delaunay-line"/>
<line x1="16.2132126661073" y1="13.320857119274665" x2="21.130873129664433" y2="16.794560555834412" class="delaunay-line"/>
<line x1="21.130873129664433" y1="16.794560555834412" x2="16.534606470950568" y2="12.937834897715176" class="delaunay-line"/>
<line x1="16.534606470950568" y1="12.937834897715176" x2="16.2132126661073" y2="13.320857119274665" class="delaunay-line"/>
<line x1="11.177045149953942" y1="24.167814078584424" x2="14.609624477991384" y2="22.68247159396783" class="delaunay-line"/>
<line x1="14.609624477991384" y1="22.68247159396783" x2="12.557503618037371" y2="17.044315869252376" class="delaunay-line"/>
<line x1="12.557503618037371" y1="17.044315869252376" x2="11.177045149953942" y2="24.167814078584424" class="delaunay-line"/>
<line x1="14.609624477991384" y1="22.68247159396783" x2="15.079470788384336" y2="22.511461522304995" class="delaunay-line"/>
<line x1="15.079470788384336" y1="22.511461522304995" x2="13.027349928430324" y2="16.87330579758954" class="delaunay-line"/>
<line x1="13.027349928430324" y1="16.87330579758954" x2="14.609624477991384" y2="22.68247159396783" class="delaunay-line"/>
<line x1="10.177045149953942" y1="24.167814078584424" x2="11.177045149953942" y2="24.167814078584424" class="delaunay-line"/>
<line x1="11.177045149953942" y1="24.167814078584424" x2="12.557503618037371" y2="17.044315869252376" class="delaunay-line"/>
<line x1="12.557503618037371" y1="17.044315869252376" x2="10.177045149953942" y2="24.167814078584424" class="delaunay-line"/>
<line x1="14.609624477991384" y1="22.68247159396783" x2="24" y2="24" class="delaunay-line"/>
<line x1="24" y1="24" x2="15.079470788384336" y2="22.511461522304995" class="delaunay-line"/>
<line x1="15.079470788384336" y1="22.511461522304995" x2="14.609624477991384" y2="22.68247159396783" class="delaunay-line"/>
<line x1="15.079470788384336" y1="22.511461522304995" x2="20.809479324821165" y2="17.1775827773939" class="delaunay-line"/>
<line x1="20.809479324821165" y1="17.1775827773939" x2="13.027349928430324" y2="16.87330579758954" class="delaunay-line"/>
<line x1="13.027349928430324" y1="16.87330579758954" x2="15.079470788384336" y2="22.511461522304995" class="delaunay-line"/>
<line x1="16.534606470950568" y1="12.937834897715176" x2="21.130873129664433" y2="16.794560555834412" class="delaunay-line"/>
<line x1="21.130873129664433" y1="16.794560555834412" x2="16.813045239212503" y2="8.044332714395928" class="delaunay-line"/>
<line x1="16.813045239212503" y1="8.044332714395928" x2="16.534606470950568" y2="12.937834897715176" class="delaunay-line"/>
<line x1="16.813045239212503" y1="8.044332714395928" x2="24" y2="0" class="delaunay-line"/>
<line x1="24" y1="0" x2="13.816192491885204" y2="0.6268618778616308" class="delaunay-line"/>
<line x1="13.816192491885204" y1="0.6268618778616308" x2="16.813045239212503" y2="8.044332714395928" class="delaunay-line"/>
<line x1="20.809479324821165" y1="17.1775827773939" x2="21.130873129664433" y2="16.794560555834412" class="delaunay-line"/>
<line x1="21.130873129664433" y1="16.794560555834412" x2="16.2132126661073" y2="13.320857119274665" class="delaunay-line"/>
<line x1="16.2132126661073" y1="13.320857119274665" x2="20.809479324821165" y2="17.1775827773939" class="delaunay-line"/>
<line x1="0" y1="0" x2="0" y2="24" class="delaunay-line"/>
<line x1="0" y1="24" x2="4.4032795268087686" y2="13.166690364145222" class="delaunay-line"/>
<line x1="4.4032795268087686" y1="13.166690364145222" x2="0" y2="0" class="delaunay-line"/>
<line x1="5.956193797423892" y1="18.962245321879628" x2="0" y2="24" class="delaunay-line"/>
<line x1="0" y1="24" x2="10.177045149953942" y2="24.167814078584424" class="delaunay-line"/>
<line x1="10.177045149953942" y1="24.167814078584424" x2="5.956193797423892" y2="18.962245321879628" class="delaunay-line"/>
<line x1="21.130873129664433" y1="16.794560555834412" x2="24" y2="0" class="delaunay-line"/>
<line x1="24" y1="0" x2="16.813045239212503" y2="8.044332714395928" class="delaunay-line"/>
<line x1="16.813045239212503" y1="8.044332714395928" x2="21.130873129664433" y2="16.794560555834412" class="delaunay-line"/>
<line x1="13.816192491885204" y1="0.6268618778616308" x2="24" y2="0" class="delaunay-line"/>
<line x1="24" y1="0" x2="0" y2="0" class="delaunay-line"/>
<line x1="0" y1="0" x2="13.816192491885204" y2="0.6268618778616308" class="delaunay-line"/>
<line x1="20.809479324821165" y1="17.1775827773939" x2="24" y2="24" class="delaunay-line"/>
<line x1="24" y1="24" x2="21.130873129664433" y2="16.794560555834412" class="delaunay-line"/>
<line x1="21.130873129664433" y1="16.794560555834412" x2="20.809479324821165" y2="17.1775827773939" class="delaunay-line"/>
<line x1="21.130873129664433" y1="16.794560555834412" x2="24" y2="24" class="delaunay-line"/>
<line x1="24" y1="24" x2="24" y2="0" class="delaunay-line"/>
<line x1="24" y1="0" x2="21.130873129664433" y2="16.794560555834412" class="delaunay-line"/>
<line x1="15.079470788384336" y1="22.511461522304995" x2="24" y2="24" class="delaunay-line"/>
<line x1="24" y1="24" x2="20.809479324821165" y2="17.1775827773939" class="delaunay-line"/>
<line x1="20.809479324821165" y1="17.1775827773939" x2="15.079470788384336" y2="22.511461522304995" class="delaunay-line"/>
<line x1="11.177045149953942" y1="24.167814078584424" x2="24" y2="24" class="delaunay-line"/>
<line x1="24" y1="24" x2="14.609624477991384" y2="22.68247159396783" class="delaunay-line"/>
<line x1="14.609624477991384" y1="22.68247159396783" x2="11.177045149953942" y2="24.167814078584424" class="delaunay-line"/>
</g>
<g id="layer-area" class="layer ">
</g>
<g id="layer-building" class="layer ">
</g>
<g id="layer-wall" class="layer ">
<polygon points="4.550153849309712,8.925646839361441 4.636977938143177,8.433242962855338 10.545824456216426,9.475132028856919 10.459000367382961,9.967535905363022" class="terrain-solid"/>
<text x="7.547989152763069" y="9.20038943410918" class="label">#555555</text>
<polygon points="12.557503618037371,17.044315869252376 13.027349928430324,16.87330579758954 15.079470788384336,22.511461522304995 14.609624477991384,22.68247159396783" class="terrain-solid"/>
<text x="13.818487203210854" y="19.777888695778685" class="label">#555555</text>
<polygon points="4.4032795268087686,13.166690364145222 4.886242439953303,13.037280841593962 6.439156710568427,18.83283579932837 5.956193797423892,18.962245321879628" class="terrain-solid"/>
<text x="5.421218118688598" y="15.999763081736797" class="label">#555555</text>
<polygon points="16.813045239212503,8.044332714395928 15.885861384645715,8.41893930781184 12.889008637318415,1.0014684712775428 13.816192491885204,0.6268618778616308" class="terrain-solid"/>
<text x="14.85102693826546" y="4.522900592836736" class="label">#555555</text>
<polygon points="10.177045149953942,16.167814078584424 11.177045149953942,16.167814078584424 11.177045149953942,24.167814078584424 10.177045149953942,24.167814078584424" class="terrain-solid"/>
<text x="10.677045149953942" y="20.167814078584424" class="label">#555555</text>
<polygon points="21.130873129664433,16.794560555834412 20.809479324821165,17.1775827773939 16.2132126661073,13.320857119274665 16.534606470950568,12.937834897715176" class="terrain-solid"/>
<text x="18.672042897885866" y="15.05770883755454" class="label">#555555</text>
</g>
<g id="layer-tree" class="layer ">
</g>
<g id="layer-rocks" class="layer ">
</g>
<g id="layer-shrub" class="layer ">
</g>
<g id="layer-terrain" class="layer ">
</g>
<g id="layer-clearance" class="layer hidden">
</g>
<g id="layer-models" class="layer ">
</g>
<g id="layer-paths" class="layer ">
</g>
<g id="layer-vectors" class="layer ">
</g>
<g id="layer-los" class="layer ">
</g>
<g id="layer-lof" class="layer ">
</g>

<g id="legend">
<g class="toggle" onclick="toggleLayer('deployment')"><rect x="0.4" y="0.14999999999999997" width="0.4" height="0.4" fill="#222" stroke="#222" stroke-width="0.05"/><text x="1.0" y="0.5499999999999999" class="label">Deployment Zones</text></g>
<g class="toggle" onclick="toggleLayer('grid')"><rect x="0.4" y="0.95" width="0.4" height="0.4" fill="#222" stroke="#222" stroke-width="0.05"/><text x="1.0" y="1.3499999999999999" class="label">0.5 MU Grid</text></g>
<g class="toggle" onclick="toggleLayer('delaunay')"><rect x="0.4" y="1.7500000000000002" width="0.4" height="0.4" fill="#222" stroke="#222" stroke-width="0.05"/><text x="1.0" y="2.1500000000000004" class="label">Delaunay Mesh</text></g>
<g class="toggle disabled"><rect x="0.4" y="2.55" width="0.4" height="0.4" fill="#222" stroke="#222" stroke-width="0.05"/><text x="1.0" y="2.95" class="label">Area Terrain</text></g>
<g class="toggle disabled"><rect x="0.4" y="3.3499999999999996" width="0.4" height="0.4" fill="#222" stroke="#222" stroke-width="0.05"/><text x="1.0" y="3.75" class="label">Buildings</text></g>
<g class="toggle" onclick="toggleLayer('wall')"><rect x="0.4" y="4.1499999999999995" width="0.4" height="0.4" fill="#222" stroke="#222" stroke-width="0.05"/><text x="1.0" y="4.55" class="label">Walls</text></g>
<g class="toggle disabled"><rect x="0.4" y="4.949999999999999" width="0.4" height="0.4" fill="#222" stroke="#222" stroke-width="0.05"/><text x="1.0" y="5.35" class="label">Trees</text></g>
<g class="toggle disabled"><rect x="0.4" y="5.749999999999999" width="0.4" height="0.4" fill="#222" stroke="#222" stroke-width="0.05"/><text x="1.0" y="6.1499999999999995" class="label">Rocks</text></g>
<g class="toggle disabled"><rect x="0.4" y="6.549999999999999" width="0.4" height="0.4" fill="#222" stroke="#222" stroke-width="0.05"/><text x="1.0" y="6.949999999999999" class="label">Shrubs</text></g>
<g class="toggle" onclick="toggleLayer('terrain')"><rect x="0.4" y="7.349999999999999" width="0.4" height="0.4" fill="#222" stroke="#222" stroke-width="0.05"/><text x="1.0" y="7.749999999999999" class="label">Other Terrain</text></g>
<g class="toggle" onclick="toggleLayer('clearance')"><rect x="0.4" y="8.15" width="0.4" height="0.4" fill="#fff" stroke="#222" stroke-width="0.05"/><text x="1.0" y="8.549999999999999" class="label">Clearance Zones</text></g>
<g class="toggle" onclick="toggleLayer('models')"><rect x="0.4" y="8.950000000000001" width="0.4" height="0.4" fill="#222" stroke="#222" stroke-width="0.05"/><text x="1.0" y="9.35" class="label">Models</text></g>
<g class="toggle" onclick="toggleLayer('paths')"><rect x="0.4" y="9.750000000000002" width="0.4" height="0.4" fill="#222" stroke="#222" stroke-width="0.05"/><text x="1.0" y="10.15" class="label">Paths</text></g>
<g class="toggle" onclick="toggleLayer('vectors')"><rect x="0.4" y="10.550000000000002" width="0.4" height="0.4" fill="#222" stroke="#222" stroke-width="0.05"/><text x="1.0" y="10.950000000000001" class="label">Vectors</text></g>
<g class="toggle" onclick="toggleLayer('los')"><rect x="0.4" y="11.350000000000003" width="0.4" height="0.4" fill="#222" stroke="#222" stroke-width="0.05"/><text x="1.0" y="11.750000000000002" class="label">LOS</text></g>
<g class="toggle" onclick="toggleLayer('lof')"><rect x="0.4" y="12.150000000000004" width="0.4" height="0.4" fill="#222" stroke="#222" stroke-width="0.05"/><text x="1.0" y="12.550000000000002" class="label">LOF</text></g>
</g>
</svg>