<svg xmlns="http://www.w3.org/2000/svg" viewBox="0 0 24 24" width="960" height="960" font-family="Arial" font-size="0.6">
<defs>
  <style><![CDATA[
    .layer { display: inline; }
    .layer.hidden { display: none; }
    .grid-line { stroke: #999; stroke-width: 0.02; opacity: 0.2; }
    .grid-line-2mu { stroke: #666; stroke-width: 0.04; opacity: 0.4; }
    .grid-line-6mu { stroke: #333; stroke-width: 0.08; opacity: 0.6; }
    .delaunay-line { stroke: #4a6fa5; stroke-width: 0.03; opacity: 0.3; }
    #layer-area { opacity: 0.8; }
    #layer-building, #layer-wall, #layer-tree, #layer-rocks, #layer-shrub, #layer-terrain { opacity: 0.8; }
    .terrain-area { stroke: none; }
    .terrain-solid { stroke: #000; stroke-width: 0.05; }
    .model { stroke: #ff0000; stroke-width: 2; vector-effect: non-scaling-stroke; }
    .path { fill: none; stroke-width: 0.12; }
    .vector { stroke-width: 0.1; }
    .los-ray { stroke-width: 0.08; stroke-dasharray: 0.2 0.2; }
    .lof-ray { stroke-width: 0.08; stroke-dasharray: 0.3 0.15; }
    .label { fill: #111 !important; font-size: 0.6px; }
    .toggle { cursor: pointer; }
    .toggle.disabled { cursor: default; }
    .toggle.disabled rect { stroke: #ccc; fill: #fff; }
    .toggle.disabled text { fill: #ccc; }
#layer-rocks { fill: #D3D3D3; }
  ]]></style>
</defs>
<rect x="0" y="0" width="24" height="24" fill="#ffffff" stroke="#111" stroke-width="0.05"/>
<script><![CDATA[
      function toggleLayer(id) {
        var layer = document.getElementById('layer-' + id);
        if (!layer) return;
        if (layer.classList.contains('hidden')) {
          layer.classList.remove('hidden');
        } else {
          layer.classList.add('hidden');
        }
      }
    ]]></script>
<text x="0.4" y="23.6" class="label">SMALL battlefield_A0-B0-W0-R40-S0-T0</text>
<g id="layer-deployment" class="layer ">
</g>
<g id="layer-grid" class="layer ">
<line x1="0" y1="0" x2="0" y2="24" class="grid-line-6mu"/>
<line x1="0.5" y1="0" x2="0.5" y2="24" class="grid-line"/>
<line x1="1" y1="0" x2="1" y2="24" class="grid-line"/>
<line x1="1.5" y1="0" x2="1.5" y2="24" class="grid-line"/>
<line x1="2" y1="0" x2="2" y2="24" class="grid-line-2mu"/>
<line x1="2.5" y1="0" x2="2.5" y2="24" class="grid-line"/>
<line x1="3" y1="0" x2="3" y2="24" class="grid-line"/>
<line x1="3.5" y1="0" x2="3.5" y2="24" class="grid-line"/>
<line x1="4" y1="0" x2="4" y2="24" class="grid-line-2mu"/>
<line x1="4.5" y1="0" x2="4.5" y2="24" class="grid-line"/>
<line x1="5" y1="0" x2="5" y2="24" class="grid-line"/>
<line x1="5.5" y1="0" x2="5.5" y2="24" class="grid-line"/>
<line x1="6" y1="0" x2="6" y2="24" class="grid-line-6mu"/>
<line x1="6.5" y1="0" x2="6.5" y2="24" class="grid-line"/>
<line x1="7" y1="0" x2="7" y2="24" class="grid-line"/>
<line x1="7.5" y1="0" x2="7.5" y2="24" class="grid-line"/>
<line x1="8" y1="0" x2="8" y2="24" class="grid-line-2mu"/>
<line x1="8.5" y1="0" x2="8.5" y2="24" class="grid-line"/>
<line x1="9" y1="0" x2="9" y2="24" class="grid-line"/>
<line x1="9.5" y1="0" x2="9.5" y2="24" class="grid-line"/>
<line x1="10" y1="0" x2="10" y2="24" class="grid-line-2mu"/>
<line x1="10.5" y1="0" x2="10.5" y2="24" class="grid-line"/>
<line x1="11" y1="0" x2="11" y2="24" class="grid-line"/>
<line x1="11.5" y1="0" x2="11.5" y2="24" class="grid-line"/>
<line x1="12" y1="0" x2="12" y2="24" class="grid-line-6mu"/>
<line x1="12.5" y1="0" x2="12.5" y2="24" class="grid-line"/>
<line x1="13" y1="0" x2="13" y2="24" class="grid-line"/>
<line x1="13.5" y1="0" x2="13.5" y2="24" class="grid-line"/>
<line x1="14" y1="0" x2="14" y2="24" class="grid-line-2mu"/>
<line x1="14.5" y1="0" x2="14.5" y2="24" class="grid-line"/>
<line x1="15" y1="0" x2="15" y2="24" class="grid-line"/>
<line x1="15.5" y1="0" x2="15.5" y2="24" class="grid-line"/>
<line x1="16" y1="0" x2="16" y2="24" class="grid-line-2mu"/>
<line x1="16.5" y1="0" x2="16.5" y2="24" class="grid-line"/>
<line x1="17" y1="0" x2="17" y2="24" class="grid-line"/>
<line x1="17.5" y1="0" x2="17.5" y2="24" class="grid-line"/>
<line x1="18" y1="0" x2="18" y2="24" class="grid-line-6mu"/>
<line x1="18.5" y1="0" x2="18.5" y2="24" class="grid-line"/>
<line x1="19" y1="0" x2="19" y2="24" class="grid-line"/>
<line x1="19.5" y1="0" x2="19.5" y2="24" class="grid-line"/>
<line x1="20" y1="0" x2="20" y2="24" class="grid-line-2mu"/>
<line x1="20.5" y1="0" x2="20.5" y2="24" class="grid-line"/>
<line x1="21" y1="0" x2="21" y2="24" class="grid-line"/>
<line x1="21.5" y1="0" x2="21.5" y2="24" class="grid-line"/>
<line x1="22" y1="0" x2="22" y2="24" class="grid-line-2mu"/>
<line x1="22.5" y1="0" x2="22.5" y2="24" class="grid-line"/>
<line x1="23" y1="0" x2="23" y2="24" class="grid-line"/>
<line x1="23.5" y1="0" x2="23.5" y2="24" class="grid-line"/>
<line x1="24" y1="0" x2="24" y2="24" class="grid-line-6mu"/>
<line x1="0" y1="0" x2="24" y2="0" class="grid-line-6mu"/>
<line x1="0" y1="0.5" x2="24" y2="0.5" class="grid-line"/>
<line x1="0" y1="1" x2="24" y2="1" class="grid-line"/>
<line x1="0" y1="1.5" x2="24" y2="1.5" class="grid-line"/>
<line x1="0" y1="2" x2="24" y2="2" class="grid-line-2mu"/>
<line x1="0" y1="2.5" x2="24" y2="2.5" class="grid-line"/>
<line x1="0" y1="3" x2="24" y2="3" class="grid-line"/>
<line x1="0" y1="3.5" x2="24" y2="3.5" class="grid-line"/>
<line x1="0" y1="4" x2="24" y2="4" class="grid-line-2mu"/>
<line x1="0" y1="4.5" x2="24" y2="4.5" class="grid-line"/>
<line x1="0" y1="5" x2="24" y2="5" class="grid-line"/>
<line x1="0" y1="5.5" x2="24" y2="5.5" class="grid-line"/>
<line x1="0" y1="6" x2="24" y2="6" class="grid-line-6mu"/>
<line x1="0" y1="6.5" x2="24" y2="6.5" class="grid-line"/>
<line x1="0" y1="7" x2="24" y2="7" class="grid-line"/>
<line x1="0" y1="7.5" x2="24" y2="7.5" class="grid-line"/>
<line x1="0" y1="8" x2="24" y2="8" class="grid-line-2mu"/>
<line x1="0" y1="8.5" x2="24" y2="8.5" class="grid-line"/>
<line x1="0" y1="9" x2="24" y2="9" class="grid-line"/>
<line x1="0" y1="9.5" x2="24" y2="9.5" class="grid-line"/>
<line x1="0" y1="10" x2="24" y2="10" class="grid-line-2mu"/>
<line x1="0" y1="10.5" x2="24" y2="10.5" class="grid-line"/>
<line x1="0" y1="11" x2="24" y2="11" class="grid-line"/>
<line x1="0" y1="11.5" x2="24" y2="11.5" class="grid-line"/>
<line x1="0" y1="12" x2="24" y2="12" class="grid-line-6mu"/>
<line x1="0" y1="12.5" x2="24" y2="12.5" class="grid-line"/>
<line x1="0" y1="13" x2="24" y2="13" class="grid-line"/>
<line x1="0" y1="13.5" x2="24" y2="13.5" class="grid-line"/>
<line x1="0" y1="14" x2="24" y2="14" class="grid-line-2mu"/>
<line x1="0" y1="14.5" x2="24" y2="14.5" class="grid-line"/>
<line x1="0" y1="15" x2="24" y2="15" class="grid-line"/>
<line x1="0" y1="15.5" x2="24" y2="15.5" class="grid-line"/>
<line x1="0" y1="16" x2="24" y2="16" class="grid-line-2mu"/>
<line x1="0" y1="16.5" x2="24" y2="16.5" class="grid-line"/>
<line x1="0" y1="17" x2="24" y2="17" class="grid-line"/>
<line x1="0" y1="17.5" x2="24" y2="17.5" class="grid-line"/>
<line x1="0" y1="18" x2="24" y2="18" class="grid-line-6mu"/>
<line x1="0" y1="18.5" x2="24" y2="18.5" class="grid-line"/>
<line x1="0" y1="19" x2="24" y2="19" class="grid-line"/>
<line x1="0" y1="19.5" x2="24" y2="19.5" class="grid-line"/>
<line x1="0" y1="20" x2="24" y2="20" class="grid-line-2mu"/>
<line x1="0" y1="20.5" x2="24" y2="20.5" class="grid-line"/>
<line x1="0" y1="21" x2="24" y2="21" class="grid-line"/>
<line x1="0" y1="21.5" x2="24" y2="21.5" class="grid-line"/>
<line x1="0" y1="22" x2="24" y2="22" class="grid-line-2mu"/>
<line x1="0" y1="22.5" x2="24" y2="22.5" class="grid-line"/>
<line x1="0" y1="23" x2="24" y2="23" class="grid-line"/>
<line x1="0" y1="23.5" x2="24" y2="23.5" class="grid-line"/>
<line x1="0" y1="24" x2="24" y2="24" class="grid-line-6mu"/>
</g>
<g id="layer-delaunay" class="layer ">
<line x1="15.645026301827537" y1="9.81559712240878" x2="16.127202868894127" y2="10.201808928900133" class="delaunay-line"/>
<line x1="16.127202868894127" y1="10.201808928900133" x2="16.74291226102452" y2="10.15125454487797" class="delaunay-line"/>
<line x1="16.74291226102452" y1="10.15125454487797" x2="15.645026301827537" y2="9.81559712240878" class="delaunay-line"/>
<line x1="16.74291226102452" y1="10.15125454487797" x2="17.3984183046864" y2="9.671630417033029" class="delaunay-line"/>
<line x1="17.3984183046864" y1="9.671630417033029" x2="15.645026301827537" y2="9.81559712240878" class="delaunay-line"/>
<line x1="15.645026301827537" y1="9.81559712240878" x2="16.74291226102452" y2="10.15125454487797" class="delaunay-line"/>
<line x1="17.3984183046864" y1="9.671630417033029" x2="15.369789571219167" y2="9.051416371923477" class="delaunay-line"/>
<line x1="15.369789571219167" y1="9.051416371923477" x2="15.645026301827537" y2="9.81559712240878" class="delaunay-line"/>
<line x1="15.645026301827537" y1="9.81559712240878" x2="17.3984183046864" y2="9.671630417033029" class="delaunay-line"/>
<line x1="17.3984183046864" y1="9.671630417033029" x2="15.343394974276976" y2="8.025606269389856" class="delaunay-line"/>
<line x1="15.343394974276976" y1="8.025606269389856" x2="15.369789571219167" y2="9.051416371923477" class="delaunay-line"/>
<line x1="15.369789571219167" y1="9.051416371923477" x2="17.3984183046864" y2="9.671630417033029" class="delaunay-line"/>
<line x1="17.993926146909324" y1="8.835954971026164" x2="15.343394974276976" y2="8.025606269389856" class="delaunay-line"/>
<line x1="15.343394974276976" y1="8.025606269389856" x2="17.3984183046864" y2="9.671630417033029" class="delaunay-line"/>
<line x1="17.3984183046864" y1="9.671630417033029" x2="17.993926146909324" y2="8.835954971026164" class="delaunay-line"/>
<line x1="17.993926146909324" y1="8.835954971026164" x2="18.43877511700689" y2="7.771452218095131" class="delaunay-line"/>
<line x1="18.43877511700689" y1="7.771452218095131" x2="15.343394974276976" y2="8.025606269389856" class="delaunay-line"/>
<line x1="15.343394974276976" y1="8.025606269389856" x2="17.993926146909324" y2="8.835954971026164" class="delaunay-line"/>
<line x1="18.43877511700689" y1="7.771452218095131" x2="15.569860849117783" y2="6.894337103926922" class="delaunay-line"/>
<line x1="15.569860849117783" y1="6.894337103926922" x2="15.343394974276976" y2="8.025606269389856" class="delaunay-line"/>
<line x1="15.343394974276976" y1="8.025606269389856" x2="18.43877511700689" y2="7.771452218095131" class="delaunay-line"/>
<line x1="18.43877511700689" y1="7.771452218095131" x2="18.665240991847696" y2="6.640183052632199" class="delaunay-line"/>
<line x1="18.665240991847696" y1="6.640183052632199" x2="15.569860849117783" y2="6.894337103926922" class="delaunay-line"/>
<line x1="15.569860849117783" y1="6.894337103926922" x2="18.43877511700689" y2="7.771452218095131" class="delaunay-line"/>
<line x1="18.665240991847696" y1="6.640183052632199" x2="16.01470981921535" y2="5.829834350995892" class="delaunay-line"/>
<line x1="16.01470981921535" y1="5.829834350995892" x2="15.569860849117783" y2="6.894337103926922" class="delaunay-line"/>
<line x1="15.569860849117783" y1="6.894337103926922" x2="18.665240991847696" y2="6.640183052632199" class="delaunay-line"/>
<line x1="16.127202868894127" y1="10.201808928900133" x2="17.45609041247562" y2="13.617735461847033" class="delaunay-line"/>
<line x1="17.45609041247562" y1="13.617735461847033" x2="16.74291226102452" y2="10.15125454487797" class="delaunay-line"/>
<line x1="16.74291226102452" y1="10.15125454487797" x2="16.127202868894127" y2="10.201808928900133" class="delaunay-line"/>
<line x1="16.74291226102452" y1="10.15125454487797" x2="18.056310952257785" y2="13.471485316804207" class="delaunay-line"/>
<line x1="18.056310952257785" y1="13.471485316804207" x2="17.3984183046864" y2="9.671630417033029" class="delaunay-line"/>
<line x1="17.3984183046864" y1="9.671630417033029" x2="16.74291226102452" y2="10.15125454487797" class="delaunay-line"/>
<line x1="17.3984183046864" y1="9.671630417033029" x2="18.59296796299834" y2="13.777513181751907" class="delaunay-line"/>
<line x1="18.59296796299834" y1="13.777513181751907" x2="17.993926146909324" y2="8.835954971026164" class="delaunay-line"/>
<line x1="17.993926146909324" y1="8.835954971026164" x2="17.3984183046864" y2="9.671630417033029" class="delaunay-line"/>
<line x1="17.993926146909324" y1="8.835954971026164" x2="18.59296796299834" y2="13.777513181751907" class="delaunay-line"/>
<line x1="18.59296796299834" y1="13.777513181751907" x2="18.43877511700689" y2="7.771452218095131" class="delaunay-line"/>
<line x1="18.43877511700689" y1="7.771452218095131" x2="17.993926146909324" y2="8.835954971026164" class="delaunay-line"/>
<line x1="18.43877511700689" y1="7.771452218095131" x2="24" y2="0" class="delaunay-line"/>
<line x1="24" y1="0" x2="18.665240991847696" y2="6.640183052632199" class="delaunay-line"/>
<line x1="18.665240991847696" y1="6.640183052632199" x2="18.43877511700689" y2="7.771452218095131" class="delaunay-line"/>
<line x1="16.883684479820946" y1="14.193998358058476" x2="17.45609041247562" y2="13.617735461847033" class="delaunay-line"/>
<line x1="17.45609041247562" y1="13.617735461847033" x2="16.127202868894127" y2="10.201808928900133" class="delaunay-line"/>
<line x1="16.127202868894127" y1="10.201808928900133" x2="16.883684479820946" y2="14.193998358058476" class="delaunay-line"/>
<line x1="17.45609041247562" y1="13.617735461847033" x2="18.056310952257785" y2="13.471485316804207" class="delaunay-line"/>
<line x1="18.056310952257785" y1="13.471485316804207" x2="16.74291226102452" y2="10.15125454487797" class="delaunay-line"/>
<line x1="16.74291226102452" y1="10.15125454487797" x2="17.45609041247562" y2="13.617735461847033" class="delaunay-line"/>
<line x1="18.665240991847696" y1="6.640183052632199" x2="18.638846394905503" y2="5.614372950098576" class="delaunay-line"/>
<line x1="18.638846394905503" y1="5.614372950098576" x2="16.01470981921535" y2="5.829834350995892" class="delaunay-line"/>
<line x1="16.01470981921535" y1="5.829834350995892" x2="18.665240991847696" y2="6.640183052632199" class="delaunay-line"/>
<line x1="18.638846394905503" y1="5.614372950098576" x2="16.610217661438273" y2="4.994158904989024" class="delaunay-line"/>
<line x1="16.610217661438273" y1="4.994158904989024" x2="16.01470981921535" y2="5.829834350995892" class="delaunay-line"/>
<line x1="16.01470981921535" y1="5.829834350995892" x2="18.638846394905503" y2="5.614372950098576" class="delaunay-line"/>
<line x1="16.42623676866774" y1="15.112543203326503" x2="16.883684479820946" y2="14.193998358058476" class="delaunay-line"/>
<line x1="16.883684479820946" y1="14.193998358058476" x2="15.645026301827537" y2="9.81559712240878" class="delaunay-line"/>
<line x1="15.645026301827537" y1="9.81559712240878" x2="16.42623676866774" y2="15.112543203326503" class="delaunay-line"/>
<line x1="15.645026301827537" y1="9.81559712240878" x2="16.883684479820946" y2="14.193998358058476" class="delaunay-line"/>
<line x1="16.883684479820946" y1="14.193998358058476" x2="16.127202868894127" y2="10.201808928900133" class="delaunay-line"/>
<line x1="16.127202868894127" y1="10.201808928900133" x2="15.645026301827537" y2="9.81559712240878" class="delaunay-line"/>
<line x1="17.45609041247562" y1="13.617735461847033" x2="18.59296796299834" y2="13.777513181751907" class="delaunay-line"/>
<line x1="18.59296796299834" y1="13.777513181751907" x2="18.056310952257785" y2="13.471485316804207" class="delaunay-line"/>
<line x1="18.056310952257785" y1="13.471485316804207" x2="17.45609041247562" y2="13.617735461847033" class="delaunay-line"/>
<line x1="16.883684479820946" y1="14.193998358058476" x2="18.59296796299834" y2="13.777513181751907" class="delaunay-line"/>
<line x1="18.59296796299834" y1="13.777513181751907" x2="17.45609041247562" y2="13.617735461847033" class="delaunay-line"/>
<line x1="17.45609041247562" y1="13.617735461847033" x2="16.883684479820946" y2="14.193998358058476" class="delaunay-line"/>
<line x1="18.056310952257785" y1="13.471485316804207" x2="18.59296796299834" y2="13.777513181751907" class="delaunay-line"/>
<line x1="18.59296796299834" y1="13.777513181751907" x2="17.3984183046864" y2="9.671630417033029" class="delaunay-line"/>
<line x1="17.3984183046864" y1="9.671630417033029" x2="18.056310952257785" y2="13.471485316804207" class="delaunay-line"/>
<line x1="18.638846394905503" y1="5.614372950098576" x2="18.363609664297133" y2="4.850192199613273" class="delaunay-line"/>
<line x1="18.363609664297133" y1="4.850192199613273" x2="16.610217661438273" y2="4.994158904989024" class="delaunay-line"/>
<line x1="16.610217661438273" y1="4.994158904989024" x2="18.638846394905503" y2="5.614372950098576" class="delaunay-line"/>
<line x1="18.363609664297133" y1="4.850192199613273" x2="17.265723705100154" y2="4.514534777144085" class="delaunay-line"/>
<line x1="17.265723705100154" y1="4.514534777144085" x2="16.610217661438273" y2="4.994158904989024" class="delaunay-line"/>
<line x1="16.610217661438273" y1="4.994158904989024" x2="18.363609664297133" y2="4.850192199613273" class="delaunay-line"/>
<line x1="18.363609664297133" y1="4.850192199613273" x2="17.881433097230545" y2="4.46398039312192" class="delaunay-line"/>
<line x1="17.881433097230545" y1="4.46398039312192" x2="17.265723705100154" y2="4.514534777144085" class="delaunay-line"/>
<line x1="17.265723705100154" y1="4.514534777144085" x2="18.363609664297133" y2="4.850192199613273" class="delaunay-line"/>
<line x1="16.15338954626523" y1="16.23352987158882" x2="12.101558415955859" y2="20.06415460645828" class="delaunay-line"/>
<line x1="12.101558415955859" y1="20.06415460645828" x2="16.10668132885799" y2="17.38629830437194" class="delaunay-line"/>
<line x1="16.10668132885799" y1="17.38629830437194" x2="16.15338954626523" y2="16.23352987158882" class="delaunay-line"/>
<line x1="16.883684479820946" y1="14.193998358058476" x2="18.98436027961996" y2="14.489229088401341" class="delaunay-line"/>
<line x1="18.98436027961996" y1="14.489229088401341" x2="18.59296796299834" y2="13.777513181751907" class="delaunay-line"/>
<line x1="18.59296796299834" y1="13.777513181751907" x2="16.883684479820946" y2="14.193998358058476" class="delaunay-line"/>
<line x1="16.42623676866774" y1="15.112543203326503" x2="18.98436027961996" y2="14.489229088401341" class="delaunay-line"/>
<line x1="18.98436027961996" y1="14.489229088401341" x2="16.883684479820946" y2="14.193998358058476" class="delaunay-line"/>
<line x1="16.883684479820946" y1="14.193998358058476" x2="16.42623676866774" y2="15.112543203326503" class="delaunay-line"/>
<line x1="18.59296796299834" y1="13.777513181751907" x2="18.98436027961996" y2="14.489229088401341" class="delaunay-line"/>
<line x1="18.98436027961996" y1="14.489229088401341" x2="18.43877511700689" y2="7.771452218095131" class="delaunay-line"/>
<line x1="18.43877511700689" y1="7.771452218095131" x2="18.59296796299834" y2="13.777513181751907" class="delaunay-line"/>
<line x1="18.665240991847696" y1="6.640183052632199" x2="24" y2="0" class="delaunay-line"/>
<line x1="24" y1="0" x2="18.638846394905503" y2="5.614372950098576" class="delaunay-line"/>
<line x1="18.638846394905503" y1="5.614372950098576" x2="18.665240991847696" y2="6.640183052632199" class="delaunay-line"/>
<line x1="16.42623676866774" y1="15.112543203326503" x2="19.170901969897184" y2="15.498280741685896" class="delaunay-line"/>
<line x1="19.170901969897184" y1="15.498280741685896" x2="18.98436027961996" y2="14.489229088401341" class="delaunay-line"/>
<line x1="18.98436027961996" y1="14.489229088401341" x2="16.42623676866774" y2="15.112543203326503" class="delaunay-line"/>
<line x1="18.98436027961996" y1="14.489229088401341" x2="24" y2="0" class="delaunay-line"/>
<line x1="24" y1="0" x2="18.43877511700689" y2="7.771452218095131" class="delaunay-line"/>
<line x1="18.43877511700689" y1="7.771452218095131" x2="18.98436027961996" y2="14.489229088401341" class="delaunay-line"/>
<line x1="16.15338954626523" y1="16.23352987158882" x2="10.948339868595856" y2="20.097973228835592" class="delaunay-line"/>
<line x1="10.948339868595856" y1="20.097973228835592" x2="12.101558415955859" y2="20.06415460645828" class="delaunay-line"/>
<line x1="12.101558415955859" y1="20.06415460645828" x2="16.15338954626523" y2="16.23352987158882" class="delaunay-line"/>
<line x1="16.42623676866774" y1="15.112543203326503" x2="19.124193752489944" y2="16.651049174469016" class="delaunay-line"/>
<line x1="19.124193752489944" y1="16.651049174469016" x2="19.170901969897184" y2="15.498280741685896" class="delaunay-line"/>
<line x1="19.170901969897184" y1="15.498280741685896" x2="16.42623676866774" y2="15.112543203326503" class="delaunay-line"/>
<line x1="16.15338954626523" y1="16.23352987158882" x2="19.124193752489944" y2="16.651049174469016" class="delaunay-line"/>
<line x1="19.124193752489944" y1="16.651049174469016" x2="16.42623676866774" y2="15.112543203326503" class="delaunay-line"/>
<line x1="16.42623676866774" y1="15.112543203326503" x2="16.15338954626523" y2="16.23352987158882" class="delaunay-line"/>
<line x1="13.238847277140561" y1="20.258141109648115" x2="16.10668132885799" y2="17.38629830437194" class="delaunay-line"/>
<line x1="16.10668132885799" y1="17.38629830437194" x2="12.101558415955859" y2="20.06415460645828" class="delaunay-line"/>
<line x1="12.101558415955859" y1="20.06415460645828" x2="13.238847277140561" y2="20.258141109648115" class="delaunay-line"/>
<line x1="16.15338954626523" y1="16.23352987158882" x2="18.851346530087437" y2="17.772035842731334" class="delaunay-line"/>
<line x1="18.851346530087437" y1="17.772035842731334" x2="19.124193752489944" y2="16.651049174469016" class="delaunay-line"/>
<line x1="19.124193752489944" y1="16.651049174469016" x2="16.15338954626523" y2="16.23352987158882" class="delaunay-line"/>
<line x1="16.10668132885799" y1="17.38629830437194" x2="18.851346530087437" y2="17.772035842731334" class="delaunay-line"/>
<line x1="18.851346530087437" y1="17.772035842731334" x2="16.15338954626523" y2="16.23352987158882" class="delaunay-line"/>
<line x1="16.15338954626523" y1="16.23352987158882" x2="16.10668132885799" y2="17.38629830437194" class="delaunay-line"/>
<line x1="16.10668132885799" y1="17.38629830437194" x2="16.293223019135215" y2="18.395349957656496" class="delaunay-line"/>
<line x1="16.293223019135215" y1="18.395349957656496" x2="18.851346530087437" y2="17.772035842731334" class="delaunay-line"/>
<line x1="18.851346530087437" y1="17.772035842731334" x2="16.10668132885799" y2="17.38629830437194" class="delaunay-line"/>
<line x1="16.293223019135215" y1="18.395349957656496" x2="18.39389881893423" y2="18.69058068799936" class="delaunay-line"/>
<line x1="18.39389881893423" y1="18.69058068799936" x2="18.851346530087437" y2="17.772035842731334" class="delaunay-line"/>
<line x1="18.851346530087437" y1="17.772035842731334" x2="16.293223019135215" y2="18.395349957656496" class="delaunay-line"/>
<line x1="16.293223019135215" y1="18.395349957656496" x2="16.684615335756835" y2="19.10706586430593" class="delaunay-line"/>
<line x1="16.684615335756835" y1="19.10706586430593" x2="18.39389881893423" y2="18.69058068799936" class="delaunay-line"/>
<line x1="18.39389881893423" y1="18.69058068799936" x2="16.293223019135215" y2="18.395349957656496" class="delaunay-line"/>
<line x1="16.684615335756835" y1="19.10706586430593" x2="17.821492886279557" y2="19.266843584210804" class="delaunay-line"/>
<line x1="17.821492886279557" y1="19.266843584210804" x2="18.39389881893423" y2="18.69058068799936" class="delaunay-line"/>
<line x1="18.39389881893423" y1="18.69058068799936" x2="16.684615335756835" y2="19.10706586430593" class="delaunay-line"/>
<line x1="16.684615335756835" y1="19.10706586430593" x2="17.22127234649739" y2="19.413093729253628" class="delaunay-line"/>
<line x1="17.22127234649739" y1="19.413093729253628" x2="17.821492886279557" y2="19.266843584210804" class="delaunay-line"/>
<line x1="17.821492886279557" y1="19.266843584210804" x2="16.684615335756835" y2="19.10706586430593" class="delaunay-line"/>
<line x1="16.42623676866774" y1="15.112543203326503" x2="6.07629773452456" y2="16.11014121842062" class="delaunay-line"/>
<line x1="6.07629773452456" y1="16.11014121842062" x2="16.15338954626523" y2="16.23352987158882" class="delaunay-line"/>
<line x1="16.15338954626523" y1="16.23352987158882" x2="16.42623676866774" y2="15.112543203326503" class="delaunay-line"/>
<line x1="16.15338954626523" y1="16.23352987158882" x2="6.205806918040125" y2="16.4722497134667" class="delaunay-line"/>
<line x1="6.205806918040125" y1="16.4722497134667" x2="10.948339868595856" y2="20.097973228835592" class="delaunay-line"/>
<line x1="10.948339868595856" y1="20.097973228835592" x2="16.15338954626523" y2="16.23352987158882" class="delaunay-line"/>
<line x1="16.10668132885799" y1="17.38629830437194" x2="13.238847277140561" y2="20.258141109648115" class="delaunay-line"/>
<line x1="13.238847277140561" y1="20.258141109648115" x2="16.293223019135215" y2="18.395349957656496" class="delaunay-line"/>
<line x1="16.293223019135215" y1="18.395349957656496" x2="16.10668132885799" y2="17.38629830437194" class="delaunay-line"/>
<line x1="16.293223019135215" y1="18.395349957656496" x2="14.18706453258379" y2="20.65040005178646" class="delaunay-line"/>
<line x1="14.18706453258379" y1="20.65040005178646" x2="16.684615335756835" y2="19.10706586430593" class="delaunay-line"/>
<line x1="16.684615335756835" y1="19.10706586430593" x2="16.293223019135215" y2="18.395349957656496" class="delaunay-line"/>
<line x1="16.684615335756835" y1="19.10706586430593" x2="14.801852700755138" y2="21.181213564768917" class="delaunay-line"/>
<line x1="14.801852700755138" y1="21.181213564768917" x2="17.22127234649739" y2="19.413093729253628" class="delaunay-line"/>
<line x1="17.22127234649739" y1="19.413093729253628" x2="16.684615335756835" y2="19.10706586430593" class="delaunay-line"/>
<line x1="13.238847277140561" y1="20.258141109648115" x2="14.18706453258379" y2="20.65040005178646" class="delaunay-line"/>
<line x1="14.18706453258379" y1="20.65040005178646" x2="16.293223019135215" y2="18.395349957656496" class="delaunay-line"/>
<line x1="16.293223019135215" y1="18.395349957656496" x2="13.238847277140561" y2="20.258141109648115" class="delaunay-line"/>
<line x1="17.22127234649739" y1="19.413093729253628" x2="14.989615856119144" y2="21.769770103080393" class="delaunay-line"/>
<line x1="14.989615856119144" y1="21.769770103080393" x2="17.821492886279557" y2="19.266843584210804" class="delaunay-line"/>
<line x1="17.821492886279557" y1="19.266843584210804" x2="17.22127234649739" y2="19.413093729253628" class="delaunay-line"/>
<line x1="16.42623676866774" y1="15.112543203326503" x2="15.645026301827537" y2="9.81559712240878" class="delaunay-line"/>
<line x1="15.645026301827537" y1="9.81559712240878" x2="6.07629773452456" y2="16.11014121842062" class="delaunay-line"/>
<line x1="6.07629773452456" y1="16.11014121842062" x2="16.42623676866774" y2="15.112543203326503" class="delaunay-line"/>
<line x1="14.989615856119144" y1="21.769770103080393" x2="14.801852700755138" y2="21.181213564768917" class="delaunay-line"/>
<line x1="14.801852700755138" y1="21.181213564768917" x2="14.721768760348876" y2="22.326467269041267" class="delaunay-line"/>
<line x1="14.721768760348876" y1="22.326467269041267" x2="14.989615856119144" y2="21.769770103080393" class="delaunay-line"/>
<line x1="15.645026301827537" y1="9.81559712240878" x2="5.8926457859091395" y2="15.821575667012432" class="delaunay-line"/>
<line x1="5.8926457859091395" y1="15.821575667012432" x2="6.07629773452456" y2="16.11014121842062" class="delaunay-line"/>
<line x1="6.07629773452456" y1="16.11014121842062" x2="15.645026301827537" y2="9.81559712240878" class="delaunay-line"/>
<line x1="14.801852700755138" y1="21.181213564768917" x2="14.18706453258379" y2="20.65040005178646" class="delaunay-line"/>
<line x1="14.18706453258379" y1="20.65040005178646" x2="14.721768760348876" y2="22.326467269041267" class="delaunay-line"/>
<line x1="14.721768760348876" y1="22.326467269041267" x2="14.801852700755138" y2="21.181213564768917" class="delaunay-line"/>
<line x1="14.18706453258379" y1="20.65040005178646" x2="14.801852700755138" y2="21.181213564768917" class="delaunay-line"/>
<line x1="14.801852700755138" y1="21.181213564768917" x2="16.684615335756835" y2="19.10706586430593" class="delaunay-line"/>
<line x1="16.684615335756835" y1="19.10706586430593" x2="14.18706453258379" y2="20.65040005178646" class="delaunay-line"/>
<line x1="15.645026301827537" y1="9.81559712240878" x2="15.369789571219167" y2="9.051416371923477" class="delaunay-line"/>
<line x1="15.369789571219167" y1="9.051416371923477" x2="5.8926457859091395" y2="15.821575667012432" class="delaunay-line"/>
<line x1="5.8926457859091395" y1="15.821575667012432" x2="15.645026301827537" y2="9.81559712240878" class="delaunay-line"/>
<line x1="14.721768760348876" y1="22.326467269041267" x2="14.18706453258379" y2="20.65040005178646" class="delaunay-line"/>
<line x1="14.18706453258379" y1="20.65040005178646" x2="14.039088705735391" y2="22.766552965606376" class="delaunay-line"/>
<line x1="14.039088705735391" y1="22.766552965606376" x2="14.721768760348876" y2="22.326467269041267" class="delaunay-line"/>
<line x1="18.638846394905503" y1="5.614372950098576" x2="24" y2="0" class="delaunay-line"/>
<line x1="24" y1="0" x2="18.363609664297133" y2="4.850192199613273" class="delaunay-line"/>
<line x1="18.363609664297133" y1="4.850192199613273" x2="18.638846394905503" y2="5.614372950098576" class="delaunay-line"/>
<line x1="18.363609664297133" y1="4.850192199613273" x2="24" y2="0" class="delaunay-line"/>
<line x1="24" y1="0" x2="17.881433097230545" y2="4.46398039312192" class="delaunay-line"/>
<line x1="17.881433097230545" y1="4.46398039312192" x2="18.363609664297133" y2="4.850192199613273" class="delaunay-line"/>
<line x1="17.881433097230545" y1="4.46398039312192" x2="24" y2="0" class="delaunay-line"/>
<line x1="24" y1="0" x2="17.265723705100154" y2="4.514534777144085" class="delaunay-line"/>
<line x1="17.265723705100154" y1="4.514534777144085" x2="17.881433097230545" y2="4.46398039312192" class="delaunay-line"/>
<line x1="24" y1="24" x2="24" y2="0" class="delaunay-line"/>
<line x1="24" y1="0" x2="18.98436027961996" y2="14.489229088401341" class="delaunay-line"/>
<line x1="18.98436027961996" y1="14.489229088401341" x2="24" y2="24" class="delaunay-line"/>
<line x1="24" y1="24" x2="18.98436027961996" y2="14.489229088401341" class="delaunay-line"/>
<line x1="18.98436027961996" y1="14.489229088401341" x2="19.170901969897184" y2="15.498280741685896" class="delaunay-line"/>
<line x1="19.170901969897184" y1="15.498280741685896" x2="24" y2="24" class="delaunay-line"/>
<line x1="24" y1="24" x2="19.170901969897184" y2="15.498280741685896" class="delaunay-line"/>
<line x1="19.170901969897184" y1="15.498280741685896" x2="19.124193752489944" y2="16.651049174469016" class="delaunay-line"/>
<line x1="19.124193752489944" y1="16.651049174469016" x2="24" y2="24" class="delaunay-line"/>
<line x1="15.369789571219167" y1="9.051416371923477" x2="15.343394974276976" y2="8.025606269389856" class="delaunay-line"/>
<line x1="15.343394974276976" y1="8.025606269389856" x2="5.682810416561499" y2="15.650484548590791" class="delaunay-line"/>
<line x1="5.682810416561499" y1="15.650484548590791" x2="15.369789571219167" y2="9.051416371923477" class="delaunay-line"/>
<line x1="5.8926457859091395" y1="15.821575667012432" x2="15.369789571219167" y2="9.051416371923477" class="delaunay-line"/>
<line x1="15.369789571219167" y1="9.051416371923477" x2="5.682810416561499" y2="15.650484548590791" class="delaunay-line"/>
<line x1="5.682810416561499" y1="15.650484548590791" x2="5.8926457859091395" y2="15.821575667012432" class="delaunay-line"/>
<line x1="15.343394974276976" y1="8.025606269389856" x2="5.478737159302459" y2="15.622914934990536" class="delaunay-line"/>
<line x1="5.478737159302459" y1="15.622914934990536" x2="5.682810416561499" y2="15.650484548590791" class="delaunay-line"/>
<line x1="5.682810416561499" y1="15.650484548590791" x2="15.343394974276976" y2="8.025606269389856" class="delaunay-line"/>
<line x1="15.343394974276976" y1="8.025606269389856" x2="0" y2="0" class="delaunay-line"/>
<line x1="0" y1="0" x2="5.478737159302459" y2="15.622914934990536" class="delaunay-line"/>
<line x1="5.478737159302459" y1="15.622914934990536" x2="15.343394974276976" y2="8.025606269389856" class="delaunay-line"/>
<line x1="15.343394974276976" y1="8.025606269389856" x2="15.569860849117783" y2="6.894337103926922" class="delaunay-line"/>
<line x1="15.569860849117783" y1="6.894337103926922" x2="0" y2="0" class="delaunay-line"/>
<line x1="0" y1="0" x2="15.343394974276976" y2="8.025606269389856" class="delaunay-line"/>
<line x1="5.8926457859091395" y1="15.821575667012432" x2="5.206543098103055" y2="15.992640279908464" class="delaunay-line"/>
<line x1="5.206543098103055" y1="15.992640279908464" x2="6.07629773452456" y2="16.11014121842062" class="delaunay-line"/>
<line x1="6.07629773452456" y1="16.11014121842062" x2="5.8926457859091395" y2="15.821575667012432" class="delaunay-line"/>
<line x1="6.07629773452456" y1="16.11014121842062" x2="6.205806918040125" y2="16.4722497134667" class="delaunay-line"/>
<line x1="6.205806918040125" y1="16.4722497134667" x2="16.15338954626523" y2="16.23352987158882" class="delaunay-line"/>
<line x1="16.15338954626523" y1="16.23352987158882" x2="6.07629773452456" y2="16.11014121842062" class="delaunay-line"/>
<line x1="5.179861372534993" y1="16.333647906231487" x2="6.205806918040125" y2="16.4722497134667" class="delaunay-line"/>
<line x1="6.205806918040125" y1="16.4722497134667" x2="6.07629773452456" y2="16.11014121842062" class="delaunay-line"/>
<line x1="6.07629773452456" y1="16.11014121842062" x2="5.179861372534993" y2="16.333647906231487" class="delaunay-line"/>
<line x1="14.18706453258379" y1="20.65040005178646" x2="13.045507542083488" y2="23.023028134860446" class="delaunay-line"/>
<line x1="13.045507542083488" y1="23.023028134860446" x2="14.039088705735391" y2="22.766552965606376" class="delaunay-line"/>
<line x1="14.039088705735391" y1="22.766552965606376" x2="14.18706453258379" y2="20.65040005178646" class="delaunay-line"/>
<line x1="14.801852700755138" y1="21.181213564768917" x2="14.989615856119144" y2="21.769770103080393" class="delaunay-line"/>
<line x1="14.989615856119144" y1="21.769770103080393" x2="17.22127234649739" y2="19.413093729253628" class="delaunay-line"/>
<line x1="17.22127234649739" y1="19.413093729253628" x2="14.801852700755138" y2="21.181213564768917" class="delaunay-line"/>
<line x1="5.311494317621023" y1="15.74306404996314" x2="5.478737159302459" y2="15.622914934990536" class="delaunay-line"/>
<line x1="5.478737159302459" y1="15.622914934990536" x2="0" y2="0" class="delaunay-line"/>
<line x1="0" y1="0" x2="5.311494317621023" y2="15.74306404996314" class="delaunay-line"/>
<line x1="5.682810416561499" y1="15.650484548590791" x2="5.206543098103055" y2="15.992640279908464" class="delaunay-line"/>
<line x1="5.206543098103055" y1="15.992640279908464" x2="5.8926457859091395" y2="15.821575667012432" class="delaunay-line"/>
<line x1="5.8926457859091395" y1="15.821575667012432" x2="5.682810416561499" y2="15.650484548590791" class="delaunay-line"/>
<line x1="6.205806918040125" y1="16.4722497134667" x2="6.261456737269261" y2="16.852773416301577" class="delaunay-line"/>
<line x1="6.261456737269261" y1="16.852773416301577" x2="10.948339868595856" y2="20.097973228835592" class="delaunay-line"/>
<line x1="10.948339868595856" y1="20.097973228835592" x2="6.205806918040125" y2="16.4722497134667" class="delaunay-line"/>
<line x1="5.235511191764129" y1="16.714171609066366" x2="6.261456737269261" y2="16.852773416301577" class="delaunay-line"/>
<line x1="6.261456737269261" y1="16.852773416301577" x2="6.205806918040125" y2="16.4722497134667" class="delaunay-line"/>
<line x1="6.205806918040125" y1="16.4722497134667" x2="5.235511191764129" y2="16.714171609066366" class="delaunay-line"/>
<line x1="6.261456737269261" y1="16.852773416301577" x2="9.954758704943952" y2="20.354448398089662" class="delaunay-line"/>
<line x1="9.954758704943952" y1="20.354448398089662" x2="10.948339868595856" y2="20.097973228835592" class="delaunay-line"/>
<line x1="10.948339868595856" y1="20.097973228835592" x2="6.261456737269261" y2="16.852773416301577" class="delaunay-line"/>
<line x1="14.18706453258379" y1="20.65040005178646" x2="13.238847277140561" y2="20.258141109648115" class="delaunay-line"/>
<line x1="13.238847277140561" y1="20.258141109648115" x2="13.045507542083488" y2="23.023028134860446" class="delaunay-line"/>
<line x1="13.045507542083488" y1="23.023028134860446" x2="14.18706453258379" y2="20.65040005178646" class="delaunay-line"/>
<line x1="2.8861927872627433" y1="17.163969266203523" x2="5.311494317621023" y2="15.74306404996314" class="delaunay-line"/>
<line x1="5.311494317621023" y1="15.74306404996314" x2="2.680846975322059" y2="17.148507201632356" class="delaunay-line"/>
<line x1="2.680846975322059" y1="17.148507201632356" x2="2.8861927872627433" y2="17.163969266203523" class="delaunay-line"/>
<line x1="5.478737159302459" y1="15.622914934990536" x2="5.311494317621023" y2="15.74306404996314" class="delaunay-line"/>
<line x1="5.311494317621023" y1="15.74306404996314" x2="5.682810416561499" y2="15.650484548590791" class="delaunay-line"/>
<line x1="5.682810416561499" y1="15.650484548590791" x2="5.478737159302459" y2="15.622914934990536" class="delaunay-line"/>
<line x1="5.365020375279694" y1="17.076280104112445" x2="6.234775011701197" y2="17.193781042624597" class="delaunay-line"/>
<line x1="6.234775011701197" y1="17.193781042624597" x2="6.261456737269261" y2="16.852773416301577" class="delaunay-line"/>
<line x1="6.261456737269261" y1="16.852773416301577" x2="5.365020375279694" y2="17.076280104112445" class="delaunay-line"/>
<line x1="6.261456737269261" y1="16.852773416301577" x2="6.234775011701197" y2="17.193781042624597" class="delaunay-line"/>
<line x1="6.234775011701197" y1="17.193781042624597" x2="9.954758704943952" y2="20.354448398089662" class="delaunay-line"/>
<line x1="9.954758704943952" y1="20.354448398089662" x2="6.261456737269261" y2="16.852773416301577" class="delaunay-line"/>
<line x1="5.311494317621023" y1="15.74306404996314" x2="5.206543098103055" y2="15.992640279908464" class="delaunay-line"/>
<line x1="5.206543098103055" y1="15.992640279908464" x2="5.682810416561499" y2="15.650484548590791" class="delaunay-line"/>
<line x1="5.682810416561499" y1="15.650484548590791" x2="5.311494317621023" y2="15.74306404996314" class="delaunay-line"/>
<line x1="5.962580950501795" y1="17.563506387542528" x2="6.12982379218323" y2="17.443357272569923" class="delaunay-line"/>
<line x1="6.12982379218323" y1="17.443357272569923" x2="5.758507693242755" y2="17.53593677394227" class="delaunay-line"/>
<line x1="5.758507693242755" y1="17.53593677394227" x2="5.962580950501795" y2="17.563506387542528" class="delaunay-line"/>
<line x1="6.234775011701197" y1="17.193781042624597" x2="6.12982379218323" y2="17.443357272569923" class="delaunay-line"/>
<line x1="6.12982379218323" y1="17.443357272569923" x2="9.954758704943952" y2="20.354448398089662" class="delaunay-line"/>
<line x1="9.954758704943952" y1="20.354448398089662" x2="6.234775011701197" y2="17.193781042624597" class="delaunay-line"/>
<line x1="13.238847277140561" y1="20.258141109648115" x2="11.892288994723485" y2="23.056846757237757" class="delaunay-line"/>
<line x1="11.892288994723485" y1="23.056846757237757" x2="13.045507542083488" y2="23.023028134860446" class="delaunay-line"/>
<line x1="13.045507542083488" y1="23.023028134860446" x2="13.238847277140561" y2="20.258141109648115" class="delaunay-line"/>
<line x1="14.989615856119144" y1="21.769770103080393" x2="24" y2="24" class="delaunay-line"/>
<line x1="24" y1="24" x2="17.821492886279557" y2="19.266843584210804" class="delaunay-line"/>
<line x1="17.821492886279557" y1="19.266843584210804" x2="14.989615856119144" y2="21.769770103080393" class="delaunay-line"/>
<line x1="5.206543098103055" y1="15.992640279908464" x2="5.179861372534993" y2="16.333647906231487" class="delaunay-line"/>
<line x1="5.179861372534993" y1="16.333647906231487" x2="6.07629773452456" y2="16.11014121842062" class="delaunay-line"/>
<line x1="6.07629773452456" y1="16.11014121842062" x2="5.206543098103055" y2="15.992640279908464" class="delaunay-line"/>
<line x1="6.12982379218323" y1="17.443357272569923" x2="9.272078650330467" y2="20.79453409465477" class="delaunay-line"/>
<line x1="9.272078650330467" y1="20.79453409465477" x2="9.954758704943952" y2="20.354448398089662" class="delaunay-line"/>
<line x1="9.954758704943952" y1="20.354448398089662" x2="6.12982379218323" y2="17.443357272569923" class="delaunay-line"/>
<line x1="5.758507693242755" y1="17.53593677394227" x2="6.12982379218323" y2="17.443357272569923" class="delaunay-line"/>
<line x1="6.12982379218323" y1="17.443357272569923" x2="6.234775011701197" y2="17.193781042624597" class="delaunay-line"/>
<line x1="6.234775011701197" y1="17.193781042624597" x2="5.758507693242755" y2="17.53593677394227" class="delaunay-line"/>
<line x1="5.179861372534993" y1="16.333647906231487" x2="5.235511191764129" y2="16.714171609066366" class="delaunay-line"/>
<line x1="5.235511191764129" y1="16.714171609066366" x2="6.205806918040125" y2="16.4722497134667" class="delaunay-line"/>
<line x1="6.205806918040125" y1="16.4722497134667" x2="5.179861372534993" y2="16.333647906231487" class="delaunay-line"/>
<line x1="5.548672323895113" y1="17.36484565552063" x2="5.758507693242755" y2="17.53593677394227" class="delaunay-line"/>
<line x1="5.758507693242755" y1="17.53593677394227" x2="6.234775011701197" y2="17.193781042624597" class="delaunay-line"/>
<line x1="6.234775011701197" y1="17.193781042624597" x2="5.548672323895113" y2="17.36484565552063" class="delaunay-line"/>
<line x1="5.962580950501795" y1="17.563506387542528" x2="9.272078650330467" y2="20.79453409465477" class="delaunay-line"/>
<line x1="9.272078650330467" y1="20.79453409465477" x2="6.12982379218323" y2="17.443357272569923" class="delaunay-line"/>
<line x1="6.12982379218323" y1="17.443357272569923" x2="5.962580950501795" y2="17.563506387542528" class="delaunay-line"/>
<line x1="5.235511191764129" y1="16.714171609066366" x2="5.365020375279694" y2="17.076280104112445" class="delaunay-line"/>
<line x1="5.365020375279694" y1="17.076280104112445" x2="6.261456737269261" y2="16.852773416301577" class="delaunay-line"/>
<line x1="6.261456737269261" y1="16.852773416301577" x2="5.235511191764129" y2="16.714171609066366" class="delaunay-line"/>
<line x1="9.0042315545602" y1="21.351231260615645" x2="9.272078650330467" y2="20.79453409465477" class="delaunay-line"/>
<line x1="9.272078650330467" y1="20.79453409465477" x2="5.962580950501795" y2="17.563506387542528" class="delaunay-line"/>
<line x1="5.962580950501795" y1="17.563506387542528" x2="9.0042315545602" y2="21.351231260615645" class="delaunay-line"/>
<line x1="11.892288994723485" y1="23.056846757237757" x2="12.101558415955859" y2="20.06415460645828" class="delaunay-line"/>
<line x1="12.101558415955859" y1="20.06415460645828" x2="10.948339868595856" y2="20.097973228835592" class="delaunay-line"/>
<line x1="10.948339868595856" y1="20.097973228835592" x2="11.892288994723485" y2="23.056846757237757" class="delaunay-line"/>
<line x1="5.365020375279694" y1="17.076280104112445" x2="5.548672323895113" y2="17.36484565552063" class="delaunay-line"/>
<line x1="5.548672323895113" y1="17.36484565552063" x2="6.234775011701197" y2="17.193781042624597" class="delaunay-line"/>
<line x1="6.234775011701197" y1="17.193781042624597" x2="5.365020375279694" y2="17.076280104112445" class="delaunay-line"/>
<line x1="5.758507693242755" y1="17.53593677394227" x2="9.0042315545602" y2="21.351231260615645" class="delaunay-line"/>
<line x1="9.0042315545602" y1="21.351231260615645" x2="5.962580950501795" y2="17.563506387542528" class="delaunay-line"/>
<line x1="5.962580950501795" y1="17.563506387542528" x2="5.758507693242755" y2="17.53593677394227" class="delaunay-line"/>
<line x1="13.238847277140561" y1="20.258141109648115" x2="12.101558415955859" y2="20.06415460645828" class="delaunay-line"/>
<line x1="12.101558415955859" y1="20.06415460645828" x2="11.892288994723485" y2="23.056846757237757" class="delaunay-line"/>
<line x1="11.892288994723485" y1="23.056846757237757" x2="13.238847277140561" y2="20.258141109648115" class="delaunay-line"/>
<line x1="11.892288994723485" y1="23.056846757237757" x2="10.948339868595856" y2="20.097973228835592" class="delaunay-line"/>
<line x1="10.948339868595856" y1="20.097973228835592" x2="10.75500013353878" y2="22.862860254047927" class="delaunay-line"/>
<line x1="10.75500013353878" y1="22.862860254047927" x2="11.892288994723485" y2="23.056846757237757" class="delaunay-line"/>
<line x1="9.191994709924206" y1="21.93978779892712" x2="9.0042315545602" y2="21.351231260615645" class="delaunay-line"/>
<line x1="9.0042315545602" y1="21.351231260615645" x2="0" y2="24" class="delaunay-line"/>
<line x1="0" y1="24" x2="9.191994709924206" y2="21.93978779892712" class="delaunay-line"/>
<line x1="9.272078650330467" y1="20.79453409465477" x2="9.806782878095554" y2="22.47060131190958" class="delaunay-line"/>
<line x1="9.806782878095554" y1="22.47060131190958" x2="9.954758704943952" y2="20.354448398089662" class="delaunay-line"/>
<line x1="9.954758704943952" y1="20.354448398089662" x2="9.272078650330467" y2="20.79453409465477" class="delaunay-line"/>
<line x1="10.75500013353878" y1="22.862860254047927" x2="10.948339868595856" y2="20.097973228835592" class="delaunay-line"/>
<line x1="10.948339868595856" y1="20.097973228835592" x2="9.806782878095554" y2="22.47060131190958" class="delaunay-line"/>
<line x1="9.806782878095554" y1="22.47060131190958" x2="10.75500013353878" y2="22.862860254047927" class="delaunay-line"/>
<line x1="2.695252977030002" y1="18.60921796821073" x2="9.0042315545602" y2="21.351231260615645" class="delaunay-line"/>
<line x1="9.0042315545602" y1="21.351231260615645" x2="5.758507693242755" y2="17.53593677394227" class="delaunay-line"/>
<line x1="5.758507693242755" y1="17.53593677394227" x2="2.695252977030002" y2="18.60921796821073" class="delaunay-line"/>
<line x1="9.0042315545602" y1="21.351231260615645" x2="9.191994709924206" y2="21.93978779892712" class="delaunay-line"/>
<line x1="9.191994709924206" y1="21.93978779892712" x2="9.272078650330467" y2="20.79453409465477" class="delaunay-line"/>
<line x1="9.272078650330467" y1="20.79453409465477" x2="9.0042315545602" y2="21.351231260615645" class="delaunay-line"/>
<line x1="9.806782878095554" y1="22.47060131190958" x2="10.948339868595856" y2="20.097973228835592" class="delaunay-line"/>
<line x1="10.948339868595856" y1="20.097973228835592" x2="9.954758704943952" y2="20.354448398089662" class="delaunay-line"/>
<line x1="9.954758704943952" y1="20.354448398089662" x2="9.806782878095554" y2="22.47060131190958" class="delaunay-line"/>
<line x1="9.191994709924206" y1="21.93978779892712" x2="9.806782878095554" y2="22.47060131190958" class="delaunay-line"/>
<line x1="9.806782878095554" y1="22.47060131190958" x2="9.272078650330467" y2="20.79453409465477" class="delaunay-line"/>
<line x1="9.272078650330467" y1="20.79453409465477" x2="9.191994709924206" y2="21.93978779892712" class="delaunay-line"/>
<line x1="5.179861372534993" y1="16.333647906231487" x2="3.0248005659491315" y2="17.31626457673542" class="delaunay-line"/>
<line x1="3.0248005659491315" y1="17.31626457673542" x2="5.235511191764129" y2="16.714171609066366" class="delaunay-line"/>
<line x1="5.235511191764129" y1="16.714171609066366" x2="5.179861372534993" y2="16.333647906231487" class="delaunay-line"/>
<line x1="5.235511191764129" y1="16.714171609066366" x2="3.0755685335588643" y2="17.582207552759993" class="delaunay-line"/>
<line x1="3.0755685335588643" y1="17.582207552759993" x2="5.365020375279694" y2="17.076280104112445" class="delaunay-line"/>
<line x1="5.365020375279694" y1="17.076280104112445" x2="5.235511191764129" y2="16.714171609066366" class="delaunay-line"/>
<line x1="5.365020375279694" y1="17.076280104112445" x2="3.030767727236133" y2="17.92131078695658" class="delaunay-line"/>
<line x1="3.030767727236133" y1="17.92131078695658" x2="5.548672323895113" y2="17.36484565552063" class="delaunay-line"/>
<line x1="5.548672323895113" y1="17.36484565552063" x2="5.365020375279694" y2="17.076280104112445" class="delaunay-line"/>
<line x1="5.548672323895113" y1="17.36484565552063" x2="2.8972186636232498" y2="18.28194888589723" class="delaunay-line"/>
<line x1="2.8972186636232498" y1="18.28194888589723" x2="5.758507693242755" y2="17.53593677394227" class="delaunay-line"/>
<line x1="5.758507693242755" y1="17.53593677394227" x2="5.548672323895113" y2="17.36484565552063" class="delaunay-line"/>
<line x1="9.191994709924206" y1="21.93978779892712" x2="0" y2="24" class="delaunay-line"/>
<line x1="0" y1="24" x2="9.806782878095554" y2="22.47060131190958" class="delaunay-line"/>
<line x1="9.806782878095554" y1="22.47060131190958" x2="9.191994709924206" y2="21.93978779892712" class="delaunay-line"/>
<line x1="2.8861927872627433" y1="17.163969266203523" x2="3.0248005659491315" y2="17.31626457673542" class="delaunay-line"/>
<line x1="3.0248005659491315" y1="17.31626457673542" x2="5.179861372534993" y2="16.333647906231487" class="delaunay-line"/>
<line x1="5.179861372534993" y1="16.333647906231487" x2="2.8861927872627433" y2="17.163969266203523" class="delaunay-line"/>
<line x1="2.8861927872627433" y1="17.163969266203523" x2="5.179861372534993" y2="16.333647906231487" class="delaunay-line"/>
<line x1="5.179861372534993" y1="16.333647906231487" x2="5.206543098103055" y2="15.992640279908464" class="delaunay-line"/>
<line x1="5.206543098103055" y1="15.992640279908464" x2="2.8861927872627433" y2="17.163969266203523" class="delaunay-line"/>
<line x1="2.8861927872627433" y1="17.163969266203523" x2="5.206543098103055" y2="15.992640279908464" class="delaunay-line"/>
<line x1="5.206543098103055" y1="15.992640279908464" x2="5.311494317621023" y2="15.74306404996314" class="delaunay-line"/>
<line x1="5.311494317621023" y1="15.74306404996314" x2="2.8861927872627433" y2="17.163969266203523" class="delaunay-line"/>
<line x1="2.680846975322059" y1="17.148507201632356" x2="5.311494317621023" y2="15.74306404996314" class="delaunay-line"/>
<line x1="5.311494317621023" y1="15.74306404996314" x2="0" y2="0" class="delaunay-line"/>
<line x1="0" y1="0" x2="2.680846975322059" y2="17.148507201632356" class="delaunay-line"/>
<line x1="2.680846975322059" y1="17.148507201632356" x2="3.0755685335588643" y2="17.582207552759993" class="delaunay-line"/>
<line x1="3.0755685335588643" y1="17.582207552759993" x2="3.0248005659491315" y2="17.31626457673542" class="delaunay-line"/>
<line x1="3.0248005659491315" y1="17.31626457673542" x2="2.680846975322059" y2="17.148507201632356" class="delaunay-line"/>
<line x1="3.0248005659491315" y1="17.31626457673542" x2="3.0755685335588643" y2="17.582207552759993" class="delaunay-line"/>
<line x1="3.0755685335588643" y1="17.582207552759993" x2="5.235511191764129" y2="16.714171609066366" class="delaunay-line"/>
<line x1="5.235511191764129" y1="16.714171609066366" x2="3.0248005659491315" y2="17.31626457673542" class="delaunay-line"/>
<line x1="0" y1="0" x2="15.569860849117783" y2="6.894337103926922" class="delaunay-line"/>
<line x1="15.569860849117783" y1="6.894337103926922" x2="16.01470981921535" y2="5.829834350995892" class="delaunay-line"/>
<line x1="16.01470981921535" y1="5.829834350995892" x2="0" y2="0" class="delaunay-line"/>
<line x1="2.8861927872627433" y1="17.163969266203523" x2="2.680846975322059" y2="17.148507201632356" class="delaunay-line"/>
<line x1="2.680846975322059" y1="17.148507201632356" x2="3.0248005659491315" y2="17.31626457673542" class="delaunay-line"/>
<line x1="3.0248005659491315" y1="17.31626457673542" x2="2.8861927872627433" y2="17.163969266203523" class="delaunay-line"/>
<line x1="2.2003903039173305" y1="17.51630865679465" x2="3.030767727236133" y2="17.92131078695658" class="delaunay-line"/>
<line x1="3.030767727236133" y1="17.92131078695658" x2="3.0755685335588643" y2="17.582207552759993" class="delaunay-line"/>
<line x1="3.0755685335588643" y1="17.582207552759993" x2="2.2003903039173305" y2="17.51630865679465" class="delaunay-line"/>
<line x1="3.0755685335588643" y1="17.582207552759993" x2="3.030767727236133" y2="17.92131078695658" class="delaunay-line"/>
<line x1="3.030767727236133" y1="17.92131078695658" x2="5.365020375279694" y2="17.076280104112445" class="delaunay-line"/>
<line x1="5.365020375279694" y1="17.076280104112445" x2="3.0755685335588643" y2="17.582207552759993" class="delaunay-line"/>
<line x1="0" y1="0" x2="2.440025168530627" y2="17.27223234218891" class="delaunay-line"/>
<line x1="2.440025168530627" y1="17.27223234218891" x2="2.680846975322059" y2="17.148507201632356" class="delaunay-line"/>
<line x1="2.680846975322059" y1="17.148507201632356" x2="0" y2="0" class="delaunay-line"/>
<line x1="2.680846975322059" y1="17.148507201632356" x2="2.440025168530627" y2="17.27223234218891" class="delaunay-line"/>
<line x1="2.440025168530627" y1="17.27223234218891" x2="3.0755685335588643" y2="17.582207552759993" class="delaunay-line"/>
<line x1="3.0755685335588643" y1="17.582207552759993" x2="2.680846975322059" y2="17.148507201632356" class="delaunay-line"/>
<line x1="1.9984246173240827" y1="17.84357773910815" x2="2.8972186636232498" y2="18.28194888589723" class="delaunay-line"/>
<line x1="2.8972186636232498" y1="18.28194888589723" x2="3.030767727236133" y2="17.92131078695658" class="delaunay-line"/>
<line x1="3.030767727236133" y1="17.92131078695658" x2="1.9984246173240827" y2="17.84357773910815" class="delaunay-line"/>
<line x1="3.030767727236133" y1="17.92131078695658" x2="2.8972186636232498" y2="18.28194888589723" class="delaunay-line"/>
<line x1="2.8972186636232498" y1="18.28194888589723" x2="5.548672323895113" y2="17.36484565552063" class="delaunay-line"/>
<line x1="5.548672323895113" y1="17.36484565552063" x2="3.030767727236133" y2="17.92131078695658" class="delaunay-line"/>
<line x1="2.440025168530627" y1="17.27223234218891" x2="2.2003903039173305" y2="17.51630865679465" class="delaunay-line"/>
<line x1="2.2003903039173305" y1="17.51630865679465" x2="3.0755685335588643" y2="17.582207552759993" class="delaunay-line"/>
<line x1="3.0755685335588643" y1="17.582207552759993" x2="2.440025168530627" y2="17.27223234218891" class="delaunay-line"/>
<line x1="18.39389881893423" y1="18.69058068799936" x2="24" y2="24" class="delaunay-line"/>
<line x1="24" y1="24" x2="18.851346530087437" y2="17.772035842731334" class="delaunay-line"/>
<line x1="18.851346530087437" y1="17.772035842731334" x2="18.39389881893423" y2="18.69058068799936" class="delaunay-line"/>
<line x1="18.851346530087437" y1="17.772035842731334" x2="24" y2="24" class="delaunay-line"/>
<line x1="24" y1="24" x2="19.124193752489944" y2="16.651049174469016" class="delaunay-line"/>
<line x1="19.124193752489944" y1="16.651049174469016" x2="18.851346530087437" y2="17.772035842731334" class="delaunay-line"/>
<line x1="17.821492886279557" y1="19.266843584210804" x2="24" y2="24" class="delaunay-line"/>
<line x1="24" y1="24" x2="18.39389881893423" y2="18.69058068799936" class="delaunay-line"/>
<line x1="18.39389881893423" y1="18.69058068799936" x2="17.821492886279557" y2="19.266843584210804" class="delaunay-line"/>
<line x1="14.721768760348876" y1="22.326467269041267" x2="24" y2="24" class="delaunay-line"/>
<line x1="24" y1="24" x2="14.989615856119144" y2="21.769770103080393" class="delaunay-line"/>
<line x1="14.989615856119144" y1="21.769770103080393" x2="14.721768760348876" y2="22.326467269041267" class="delaunay-line"/>
<line x1="14.039088705735391" y1="22.766552965606376" x2="24" y2="24" class="delaunay-line"/>
<line x1="24" y1="24" x2="14.721768760348876" y2="22.326467269041267" class="delaunay-line"/>
<line x1="14.721768760348876" y1="22.326467269041267" x2="14.039088705735391" y2="22.766552965606376" class="delaunay-line"/>
<line x1="13.045507542083488" y1="23.023028134860446" x2="24" y2="24" class="delaunay-line"/>
<line x1="24" y1="24" x2="14.039088705735391" y2="22.766552965606376" class="delaunay-line"/>
<line x1="14.039088705735391" y1="22.766552965606376" x2="13.045507542083488" y2="23.023028134860446" class="delaunay-line"/>
<line x1="11.892288994723485" y1="23.056846757237757" x2="24" y2="24" class="delaunay-line"/>
<line x1="24" y1="24" x2="13.045507542083488" y2="23.023028134860446" class="delaunay-line"/>
<line x1="13.045507542083488" y1="23.023028134860446" x2="11.892288994723485" y2="23.056846757237757" class="delaunay-line"/>
<line x1="1.8648755537112" y1="18.204215838048796" x2="2.695252977030002" y2="18.60921796821073" class="delaunay-line"/>
<line x1="2.695252977030002" y1="18.60921796821073" x2="2.8972186636232498" y2="18.28194888589723" class="delaunay-line"/>
<line x1="2.8972186636232498" y1="18.28194888589723" x2="1.8648755537112" y2="18.204215838048796" class="delaunay-line"/>
<line x1="2.8972186636232498" y1="18.28194888589723" x2="2.695252977030002" y2="18.60921796821073" class="delaunay-line"/>
<line x1="2.695252977030002" y1="18.60921796821073" x2="5.758507693242755" y2="17.53593677394227" class="delaunay-line"/>
<line x1="5.758507693242755" y1="17.53593677394227" x2="2.8972186636232498" y2="18.28194888589723" class="delaunay-line"/>
<line x1="2.2003903039173305" y1="17.51630865679465" x2="1.9984246173240827" y2="17.84357773910815" class="delaunay-line"/>
<line x1="1.9984246173240827" y1="17.84357773910815" x2="3.030767727236133" y2="17.92131078695658" class="delaunay-line"/>
<line x1="3.030767727236133" y1="17.92131078695658" x2="2.2003903039173305" y2="17.51630865679465" class="delaunay-line"/>
<line x1="1.8200747473884689" y1="18.543319072245385" x2="2.4556181124167056" y2="18.853294282816467" class="delaunay-line"/>
<line x1="2.4556181124167056" y1="18.853294282816467" x2="2.695252977030002" y2="18.60921796821073" class="delaunay-line"/>
<line x1="2.695252977030002" y1="18.60921796821073" x2="1.8200747473884689" y2="18.543319072245385" class="delaunay-line"/>
<line x1="2.695252977030002" y1="18.60921796821073" x2="2.4556181124167056" y2="18.853294282816467" class="delaunay-line"/>
<line x1="2.4556181124167056" y1="18.853294282816467" x2="9.0042315545602" y2="21.351231260615645" class="delaunay-line"/>
<line x1="9.0042315545602" y1="21.351231260615645" x2="2.695252977030002" y2="18.60921796821073" class="delaunay-line"/>
<line x1="1.9984246173240827" y1="17.84357773910815" x2="1.8648755537112" y2="18.204215838048796" class="delaunay-line"/>
<line x1="1.8648755537112" y1="18.204215838048796" x2="2.8972186636232498" y2="18.28194888589723" class="delaunay-line"/>
<line x1="2.8972186636232498" y1="18.28194888589723" x2="1.9984246173240827" y2="17.84357773910815" class="delaunay-line"/>
<line x1="1.8200747473884689" y1="18.543319072245385" x2="2.214796305625274" y2="18.977019423373022" class="delaunay-line"/>
<line x1="2.214796305625274" y1="18.977019423373022" x2="2.4556181124167056" y2="18.853294282816467" class="delaunay-line"/>
<line x1="2.4556181124167056" y1="18.853294282816467" x2="1.8200747473884689" y2="18.543319072245385" class="delaunay-line"/>
<line x1="2.4556181124167056" y1="18.853294282816467" x2="0" y2="24" class="delaunay-line"/>
<line x1="0" y1="24" x2="9.0042315545602" y2="21.351231260615645" class="delaunay-line"/>
<line x1="9.0042315545602" y1="21.351231260615645" x2="2.4556181124167056" y2="18.853294282816467" class="delaunay-line"/>
<line x1="1.8648755537112" y1="18.204215838048796" x2="1.8200747473884689" y2="18.543319072245385" class="delaunay-line"/>
<line x1="1.8200747473884689" y1="18.543319072245385" x2="2.695252977030002" y2="18.60921796821073" class="delaunay-line"/>
<line x1="2.695252977030002" y1="18.60921796821073" x2="1.8648755537112" y2="18.204215838048796" class="delaunay-line"/>
<line x1="1.8708427149982012" y1="18.809262048269957" x2="2.0094504936845894" y2="18.961557358801855" class="delaunay-line"/>
<line x1="2.0094504936845894" y1="18.961557358801855" x2="2.214796305625274" y2="18.977019423373022" class="delaunay-line"/>
<line x1="2.214796305625274" y1="18.977019423373022" x2="1.8708427149982012" y2="18.809262048269957" class="delaunay-line"/>
<line x1="2.214796305625274" y1="18.977019423373022" x2="0" y2="24" class="delaunay-line"/>
<line x1="0" y1="24" x2="2.4556181124167056" y2="18.853294282816467" class="delaunay-line"/>
<line x1="2.4556181124167056" y1="18.853294282816467" x2="2.214796305625274" y2="18.977019423373022" class="delaunay-line"/>
<line x1="1.8200747473884689" y1="18.543319072245385" x2="1.8708427149982012" y2="18.809262048269957" class="delaunay-line"/>
<line x1="1.8708427149982012" y1="18.809262048269957" x2="2.214796305625274" y2="18.977019423373022" class="delaunay-line"/>
<line x1="2.214796305625274" y1="18.977019423373022" x2="1.8200747473884689" y2="18.543319072245385" class="delaunay-line"/>
<line x1="17.265723705100154" y1="4.514534777144085" x2="0" y2="0" class="delaunay-line"/>
<line x1="0" y1="0" x2="16.610217661438273" y2="4.994158904989024" class="delaunay-line"/>
<line x1="16.610217661438273" y1="4.994158904989024" x2="17.265723705100154" y2="4.514534777144085" class="delaunay-line"/>
<line x1="16.610217661438273" y1="4.994158904989024" x2="0" y2="0" class="delaunay-line"/>
<line x1="0" y1="0" x2="16.01470981921535" y2="5.829834350995892" class="delaunay-line"/>
<line x1="16.01470981921535" y1="5.829834350995892" x2="16.610217661438273" y2="4.994158904989024" class="delaunay-line"/>
<line x1="2.440025168530627" y1="17.27223234218891" x2="0" y2="0" class="delaunay-line"/>
<line x1="0" y1="0" x2="2.2003903039173305" y2="17.51630865679465" class="delaunay-line"/>
<line x1="2.2003903039173305" y1="17.51630865679465" x2="2.440025168530627" y2="17.27223234218891" class="delaunay-line"/>
<line x1="2.2003903039173305" y1="17.51630865679465" x2="0" y2="0" class="delaunay-line"/>
<line x1="0" y1="0" x2="1.9984246173240827" y2="17.84357773910815" class="delaunay-line"/>
<line x1="1.9984246173240827" y1="17.84357773910815" x2="2.2003903039173305" y2="17.51630865679465" class="delaunay-line"/>
<line x1="1.9984246173240827" y1="17.84357773910815" x2="0" y2="0" class="delaunay-line"/>
<line x1="0" y1="0" x2="1.8648755537112" y2="18.204215838048796" class="delaunay-line"/>
<line x1="1.8648755537112" y1="18.204215838048796" x2="1.9984246173240827" y2="17.84357773910815" class="delaunay-line"/>
<line x1="1.8648755537112" y1="18.204215838048796" x2="0" y2="24" class="delaunay-line"/>
<line x1="0" y1="24" x2="1.8200747473884689" y2="18.543319072245385" class="delaunay-line"/>
<line x1="1.8200747473884689" y1="18.543319072245385" x2="1.8648755537112" y2="18.204215838048796" class="delaunay-line"/>
<line x1="24" y1="0" x2="0" y2="0" class="delaunay-line"/>
<line x1="0" y1="0" x2="17.265723705100154" y2="4.514534777144085" class="delaunay-line"/>
<line x1="17.265723705100154" y1="4.514534777144085" x2="24" y2="0" class="delaunay-line"/>
<line x1="0" y1="0" x2="0" y2="24" class="delaunay-line"/>
<line x1="0" y1="24" x2="1.8648755537112" y2="18.204215838048796" class="delaunay-line"/>
<line x1="1.8648755537112" y1="18.204215838048796" x2="0" y2="0" class="delaunay-line"/>
<line x1="1.8200747473884689" y1="18.543319072245385" x2="0" y2="24" class="delaunay-line"/>
<line x1="0" y1="24" x2="1.8708427149982012" y2="18.809262048269957" class="delaunay-line"/>
<line x1="1.8708427149982012" y1="18.809262048269957" x2="1.8200747473884689" y2="18.543319072245385" class="delaunay-line"/>
<line x1="1.8708427149982012" y1="18.809262048269957" x2="0" y2="24" class="delaunay-line"/>
<line x1="0" y1="24" x2="2.0094504936845894" y2="18.961557358801855" class="delaunay-line"/>
<line x1="2.0094504936845894" y1="18.961557358801855" x2="1.8708427149982012" y2="18.809262048269957" class="delaunay-line"/>
<line x1="2.0094504936845894" y1="18.961557358801855" x2="0" y2="24" class="delaunay-line"/>
<line x1="0" y1="24" x2="2.214796305625274" y2="18.977019423373022" class="delaunay-line"/>
<line x1="2.214796305625274" y1="18.977019423373022" x2="2.0094504936845894" y2="18.961557358801855" class="delaunay-line"/>
<line x1="9.806782878095554" y1="22.47060131190958" x2="0" y2="24" class="delaunay-line"/>
<line x1="0" y1="24" x2="10.75500013353878" y2="22.862860254047927" class="delaunay-line"/>
<line x1="10.75500013353878" y1="22.862860254047927" x2="9.806782878095554" y2="22.47060131190958" class="delaunay-line"/>
<line x1="10.75500013353878" y1="22.862860254047927" x2="0" y2="24" class="delaunay-line"/>
<line x1="0" y1="24" x2="11.892288994723485" y2="23.056846757237757" class="delaunay-line"/>
<line x1="11.892288994723485" y1="23.056846757237757" x2="10.75500013353878" y2="22.862860254047927" class="delaunay-line"/>
<line x1="11.892288994723485" y1="23.056846757237757" x2="0" y2="24" class="delaunay-line"/>
<line x1="0" y1="24" x2="24" y2="24" class="delaunay-line"/>
<line x1="24" y1="24" x2="11.892288994723485" y2="23.056846757237757" class="delaunay-line"/>
</g>
<g id="layer-area" class="layer ">
</g>
<g id="layer-building" class="layer ">
</g>
<g id="layer-wall" class="layer ">
</g>
<g id="layer-tree" class="layer ">
</g>
<g id="layer-rocks" class="layer ">
<polygon points="16.15338954626523,16.23352987158882 16.42623676866774,15.112543203326503 16.883684479820946,14.193998358058476 17.45609041247562,13.617735461847033 18.056310952257785,13.471485316804207 18.59296796299834,13.777513181751907 18.98436027961996,14.489229088401341 19.170901969897184,15.498280741685896 19.124193752489944,16.651049174469016 18.851346530087437,17.772035842731334 18.39389881893423,18.69058068799936 17.821492886279557,19.266843584210804 17.22127234649739,19.413093729253628 16.684615335756835,19.10706586430593 16.293223019135215,18.395349957656496 16.10668132885799,17.38629830437194" class="terrain-solid"/>
<text x="17.638791649377584" y="16.44228952302892" class="label">#D3D3D3</text>
<polygon points="15.569860849117783,6.894337103926922 16.01470981921535,5.829834350995892 16.610217661438273,4.994158904989024 17.265723705100154,4.514534777144085 17.881433097230545,4.46398039312192 18.363609664297133,4.850192199613273 18.638846394905503,5.614372950098576 18.665240991847696,6.640183052632199 18.43877511700689,7.771452218095131 17.993926146909324,8.835954971026164 17.3984183046864,9.671630417033029 16.74291226102452,10.15125454487797 16.127202868894127,10.201808928900133 15.645026301827537,9.81559712240878 15.369789571219167,9.051416371923477 15.343394974276976,8.025606269389856" class="terrain-solid"/>
<text x="17.004317983062336" y="7.332894661011028" class="label">#D3D3D3</text>
<polygon points="12.101558415955859,20.06415460645828 13.238847277140561,20.258141109648115 14.18706453258379,20.65040005178646 14.801852700755138,21.181213564768917 14.989615856119144,21.769770103080393 14.721768760348876,22.326467269041267 14.039088705735391,22.766552965606376 13.045507542083488,23.023028134860446 11.892288994723485,23.056846757237757 10.75500013353878,22.862860254047927 9.806782878095554,22.47060131190958 9.191994709924206,21.93978779892712 9.0042315545602,21.351231260615645 9.272078650330467,20.79453409465477 9.954758704943952,20.354448398089662 10.948339868595856,20.097973228835592" class="terrain-solid"/>
<text x="11.996923705339672" y="21.56050068184802" class="label">#D3D3D3</text>
<polygon points="6.205806918040125,16.4722497134667 6.261456737269261,16.852773416301577 6.234775011701197,17.193781042624597 6.12982379218323,17.443357272569923 5.962580950501795,17.563506387542528 5.758507693242755,17.53593677394227 5.548672323895113,17.36484565552063 5.365020375279694,17.076280104112445 5.235511191764129,16.714171609066366 5.179861372534993,16.333647906231487 5.206543098103055,15.992640279908464 5.311494317621023,15.74306404996314 5.478737159302459,15.622914934990536 5.682810416561499,15.650484548590791 5.8926457859091395,15.821575667012432 6.07629773452456,16.11014121842062" class="terrain-solid"/>
<text x="5.720659054902126" y="16.593210661266532" class="label">#D3D3D3</text>
<polygon points="1.9984246173240827,17.84357773910815 2.2003903039173305,17.51630865679465 2.440025168530627,17.27223234218891 2.680846975322059,17.148507201632356 2.8861927872627433,17.163969266203523 3.0248005659491315,17.31626457673542 3.0755685335588643,17.582207552759993 3.030767727236133,17.92131078695658 2.8972186636232498,18.28194888589723 2.695252977030002,18.60921796821073 2.4556181124167056,18.853294282816467 2.214796305625274,18.977019423373022 2.0094504936845894,18.961557358801855 1.8708427149982012,18.809262048269957 1.8200747473884689,18.543319072245385 1.8648755537112,18.204215838048796" class="terrain-solid"/>
<text x="2.4478216404736663" y="18.06276331250269" class="label">#D3D3D3</text>
</g>
<g id="layer-shrub" class="layer ">
</g>
<g id="layer-terrain" class="layer ">
</g>
<g id="layer-clearance" class="layer hidden">
</g>
<g id="layer-models" class="layer ">
</g>
<g id="layer-paths" class="layer ">
</g>
<g id="layer-vectors" class="layer ">
</g>
<g id="layer-los" class="layer ">
</g>
<g id="layer-lof" class="layer ">
</g>

<g id="legend">
<g class="toggle" onclick="toggleLayer('deployment')"><rect x="0.4" y="0.14999999999999997" width="0.4" height="0.4" fill="#222" stroke="#222" stroke-width="0.05"/><text x="1.0" y="0.5499999999999999" class="label">Deployment Zones</text></g>
<g class="toggle" onclick="toggleLayer('grid')"><rect x="0.4" y="0.95" width="0.4" height="0.4" fill="#222" stroke="#222" stroke-width="0.05"/><text x="1.0" y="1.3499999999999999" class="label">0.5 MU Grid</text></g>
<g class="toggle" onclick="toggleLayer('delaunay')"><rect x="0.4" y="1.7500000000000002" width="0.4" height="0.4" fill="#222" stroke="#222" stroke-width="0.05"/><text x="1.0" y="2.1500000000000004" class="label">Delaunay Mesh</text></g>
<g class="toggle disabled"><rect x="0.4" y="2.55" width="0.4" height="0.4" fill="#222" stroke="#222" stroke-width="0.05"/><text x="1.0" y="2.95" class="label">Area Terrain</text></g>
<g class="toggle disabled"><rect x="0.4" y="3.3499999999999996" width="0.4" height="0.4" fill="#222" stroke="#222" stroke-width="0.05"/><text x="1.0" y="3.75" class="label">Buildings</text></g>
<g class="toggle disabled"><rect x="0.4" y="4.1499999999999995" width="0.4" height="0.4" fill="#222" stroke="#222" stroke-width="0.05"/><text x="1.0" y="4.55" class="label">Walls</text></g>
<g class="toggle disabled"><rect x="0.4" y="4.949999999999999" width="0.4" height="0.4" fill="#222" stroke="#222" stroke-width="0.05"/><text x="1.0" y="5.35" class="label">Trees</text></g>
<g class="toggle" onclick="toggleLayer('rocks')"><rect x="0.4" y="5.749999999999999" width="0.4" height="0.4" fill="#222" stroke="#222" stroke-width="0.05"/><text x="1.0" y="6.1499999999999995" class="label">Rocks</text></g>
<g class="toggle disabled"><rect x="0.4" y="6.549999999999999" width="0.4" height="0.4" fill="#222" stroke="#222" stroke-width="0.05"/><text x="1.0" y="6.949999999999999" class="label">Shrubs</text></g>
<g class="toggle" onclick="toggleLayer('terrain')"><rect x="0.4" y="7.349999999999999" width="0.4" height="0.4" fill="#222" stroke="#222" stroke-width="0.05"/><text x="1.0" y="7.749999999999999" class="label">Other Terrain</text></g>
<g class="toggle" onclick="toggleLayer('clearance')"><rect x="0.4" y="8.15" width="0.4" height="0.4" fill="#fff" stroke="#222" stroke-width="0.05"/><text x="1.0" y="8.549999999999999" class="label">Clearance Zones</text></g>
<g class="toggle" onclick="toggleLayer('models')"><rect x="0.4" y="8.950000000000001" width="0.4" height="0.4" fill="#222" stroke="#222" stroke-width="0.05"/><text x="1.0" y="9.35" class="label">Models</text></g>
<g class="toggle" onclick="toggleLayer('paths')"><rect x="0.4" y="9.750000000000002" width="0.4" height="0.4" fill="#222" stroke="#222" stroke-width="0.05"/><text x="1.0" y="10.15" class="label">Paths</text></g>
<g class="toggle" onclick="toggleLayer('vectors')"><rect x="0.4" y="10.550000000000002" width="0.4" height="0.4" fill="#222" stroke="#222" stroke-width="0.05"/><text x="1.0" y="10.950000000000001" class="label">Vectors</text></g>
<g class="toggle" onclick="toggleLayer('los')"><rect x="0.4" y="11.350000000000003" width="0.4" height="0.4" fill="#222" stroke="#222" stroke-width="0.05"/><text x="1.0" y="11.750000000000002" class="label">LOS</text></g>
<g class="toggle" onclick="toggleLayer('lof')"><rect x="0.4" y="12.150000000000004" width="0.4" height="0.4" fill="#222" stroke="#222" stroke-width="0.05"/><text x="1.0" y="12.550000000000002" class="label">LOF</text></g>
</g>
</svg>