<svg xmlns="http://www.w3.org/2000/svg" viewBox="0 0 24 24" width="960" height="960" font-family="Arial" font-size="0.6">
<defs>
  <style><![CDATA[
    .layer { display: inline; }
    .layer.hidden { display: none; }
    .grid-line { stroke: #999; stroke-width: 0.02; opacity: 0.2; }
    .grid-line-2mu { stroke: #666; stroke-width: 0.04; opacity: 0.4; }
    .grid-line-6mu { stroke: #333; stroke-width: 0.08; opacity: 0.6; }
    .delaunay-line { stroke: #4a6fa5; stroke-width: 0.03; opacity: 0.3; }
    #layer-area { opacity: 0.8; }
    #layer-building, #layer-wall, #layer-tree, #layer-rocks, #layer-shrub, #layer-terrain { opacity: 0.8; }
    .terrain-area { stroke: none; }
    .terrain-solid { stroke: #000; stroke-width: 0.05; }
    .model { stroke: #ff0000; stroke-width: 2; vector-effect: non-scaling-stroke; }
    .path { fill: none; stroke-width: 0.12; }
    .vector { stroke-width: 0.1; }
    .los-ray { stroke-width: 0.08; stroke-dasharray: 0.2 0.2; }
    .lof-ray { stroke-width: 0.08; stroke-dasharray: 0.3 0.15; }
    .label { fill: #111 !important; font-size: 0.6px; }
    .toggle { cursor: pointer; }
    .toggle.disabled { cursor: default; }
    .toggle.disabled rect { stroke: #ccc; fill: #fff; }
    .toggle.disabled text { fill: #ccc; }
#layer-wall { fill: #555555; }
  ]]></style>
</defs>
<rect x="0" y="0" width="24" height="24" fill="#ffffff" stroke="#111" stroke-width="0.05"/>
<script><![CDATA[
      function toggleLayer(id) {
        var layer = document.getElementById('layer-' + id);
        if (!layer) return;
        if (layer.classList.contains('hidden')) {
          layer.classList.remove('hidden');
        } else {
          layer.classList.add('hidden');
        }
      }
    ]]></script>
<text x="0.4" y="23.6" class="label">SMALL battlefield_A0-B0-W100-R0-S0-T0</text>
<g id="layer-deployment" class="layer ">
</g>
<g id="layer-grid" class="layer ">
<line x1="0" y1="0" x2="0" y2="24" class="grid-line-6mu"/>
<line x1="0.5" y1="0" x2="0.5" y2="24" class="grid-line"/>
<line x1="1" y1="0" x2="1" y2="24" class="grid-line"/>
<line x1="1.5" y1="0" x2="1.5" y2="24" class="grid-line"/>
<line x1="2" y1="0" x2="2" y2="24" class="grid-line-2mu"/>
<line x1="2.5" y1="0" x2="2.5" y2="24" class="grid-line"/>
<line x1="3" y1="0" x2="3" y2="24" class="grid-line"/>
<line x1="3.5" y1="0" x2="3.5" y2="24" class="grid-line"/>
<line x1="4" y1="0" x2="4" y2="24" class="grid-line-2mu"/>
<line x1="4.5" y1="0" x2="4.5" y2="24" class="grid-line"/>
<line x1="5" y1="0" x2="5" y2="24" class="grid-line"/>
<line x1="5.5" y1="0" x2="5.5" y2="24" class="grid-line"/>
<line x1="6" y1="0" x2="6" y2="24" class="grid-line-6mu"/>
<line x1="6.5" y1="0" x2="6.5" y2="24" class="grid-line"/>
<line x1="7" y1="0" x2="7" y2="24" class="grid-line"/>
<line x1="7.5" y1="0" x2="7.5" y2="24" class="grid-line"/>
<line x1="8" y1="0" x2="8" y2="24" class="grid-line-2mu"/>
<line x1="8.5" y1="0" x2="8.5" y2="24" class="grid-line"/>
<line x1="9" y1="0" x2="9" y2="24" class="grid-line"/>
<line x1="9.5" y1="0" x2="9.5" y2="24" class="grid-line"/>
<line x1="10" y1="0" x2="10" y2="24" class="grid-line-2mu"/>
<line x1="10.5" y1="0" x2="10.5" y2="24" class="grid-line"/>
<line x1="11" y1="0" x2="11" y2="24" class="grid-line"/>
<line x1="11.5" y1="0" x2="11.5" y2="24" class="grid-line"/>
<line x1="12" y1="0" x2="12" y2="24" class="grid-line-6mu"/>
<line x1="12.5" y1="0" x2="12.5" y2="24" class="grid-line"/>
<line x1="13" y1="0" x2="13" y2="24" class="grid-line"/>
<line x1="13.5" y1="0" x2="13.5" y2="24" class="grid-line"/>
<line x1="14" y1="0" x2="14" y2="24" class="grid-line-2mu"/>
<line x1="14.5" y1="0" x2="14.5" y2="24" class="grid-line"/>
<line x1="15" y1="0" x2="15" y2="24" class="grid-line"/>
<line x1="15.5" y1="0" x2="15.5" y2="24" class="grid-line"/>
<line x1="16" y1="0" x2="16" y2="24" class="grid-line-2mu"/>
<line x1="16.5" y1="0" x2="16.5" y2="24" class="grid-line"/>
<line x1="17" y1="0" x2="17" y2="24" class="grid-line"/>
<line x1="17.5" y1="0" x2="17.5" y2="24" class="grid-line"/>
<line x1="18" y1="0" x2="18" y2="24" class="grid-line-6mu"/>
<line x1="18.5" y1="0" x2="18.5" y2="24" class="grid-line"/>
<line x1="19" y1="0" x2="19" y2="24" class="grid-line"/>
<line x1="19.5" y1="0" x2="19.5" y2="24" class="grid-line"/>
<line x1="20" y1="0" x2="20" y2="24" class="grid-line-2mu"/>
<line x1="20.5" y1="0" x2="20.5" y2="24" class="grid-line"/>
<line x1="21" y1="0" x2="21" y2="24" class="grid-line"/>
<line x1="21.5" y1="0" x2="21.5" y2="24" class="grid-line"/>
<line x1="22" y1="0" x2="22" y2="24" class="grid-line-2mu"/>
<line x1="22.5" y1="0" x2="22.5" y2="24" class="grid-line"/>
<line x1="23" y1="0" x2="23" y2="24" class="grid-line"/>
<line x1="23.5" y1="0" x2="23.5" y2="24" class="grid-line"/>
<line x1="24" y1="0" x2="24" y2="24" class="grid-line-6mu"/>
<line x1="0" y1="0" x2="24" y2="0" class="grid-line-6mu"/>
<line x1="0" y1="0.5" x2="24" y2="0.5" class="grid-line"/>
<line x1="0" y1="1" x2="24" y2="1" class="grid-line"/>
<line x1="0" y1="1.5" x2="24" y2="1.5" class="grid-line"/>
<line x1="0" y1="2" x2="24" y2="2" class="grid-line-2mu"/>
<line x1="0" y1="2.5" x2="24" y2="2.5" class="grid-line"/>
<line x1="0" y1="3" x2="24" y2="3" class="grid-line"/>
<line x1="0" y1="3.5" x2="24" y2="3.5" class="grid-line"/>
<line x1="0" y1="4" x2="24" y2="4" class="grid-line-2mu"/>
<line x1="0" y1="4.5" x2="24" y2="4.5" class="grid-line"/>
<line x1="0" y1="5" x2="24" y2="5" class="grid-line"/>
<line x1="0" y1="5.5" x2="24" y2="5.5" class="grid-line"/>
<line x1="0" y1="6" x2="24" y2="6" class="grid-line-6mu"/>
<line x1="0" y1="6.5" x2="24" y2="6.5" class="grid-line"/>
<line x1="0" y1="7" x2="24" y2="7" class="grid-line"/>
<line x1="0" y1="7.5" x2="24" y2="7.5" class="grid-line"/>
<line x1="0" y1="8" x2="24" y2="8" class="grid-line-2mu"/>
<line x1="0" y1="8.5" x2="24" y2="8.5" class="grid-line"/>
<line x1="0" y1="9" x2="24" y2="9" class="grid-line"/>
<line x1="0" y1="9.5" x2="24" y2="9.5" class="grid-line"/>
<line x1="0" y1="10" x2="24" y2="10" class="grid-line-2mu"/>
<line x1="0" y1="10.5" x2="24" y2="10.5" class="grid-line"/>
<line x1="0" y1="11" x2="24" y2="11" class="grid-line"/>
<line x1="0" y1="11.5" x2="24" y2="11.5" class="grid-line"/>
<line x1="0" y1="12" x2="24" y2="12" class="grid-line-6mu"/>
<line x1="0" y1="12.5" x2="24" y2="12.5" class="grid-line"/>
<line x1="0" y1="13" x2="24" y2="13" class="grid-line"/>
<line x1="0" y1="13.5" x2="24" y2="13.5" class="grid-line"/>
<line x1="0" y1="14" x2="24" y2="14" class="grid-line-2mu"/>
<line x1="0" y1="14.5" x2="24" y2="14.5" class="grid-line"/>
<line x1="0" y1="15" x2="24" y2="15" class="grid-line"/>
<line x1="0" y1="15.5" x2="24" y2="15.5" class="grid-line"/>
<line x1="0" y1="16" x2="24" y2="16" class="grid-line-2mu"/>
<line x1="0" y1="16.5" x2="24" y2="16.5" class="grid-line"/>
<line x1="0" y1="17" x2="24" y2="17" class="grid-line"/>
<line x1="0" y1="17.5" x2="24" y2="17.5" class="grid-line"/>
<line x1="0" y1="18" x2="24" y2="18" class="grid-line-6mu"/>
<line x1="0" y1="18.5" x2="24" y2="18.5" class="grid-line"/>
<line x1="0" y1="19" x2="24" y2="19" class="grid-line"/>
<line x1="0" y1="19.5" x2="24" y2="19.5" class="grid-line"/>
<line x1="0" y1="20" x2="24" y2="20" class="grid-line-2mu"/>
<line x1="0" y1="20.5" x2="24" y2="20.5" class="grid-line"/>
<line x1="0" y1="21" x2="24" y2="21" class="grid-line"/>
<line x1="0" y1="21.5" x2="24" y2="21.5" class="grid-line"/>
<line x1="0" y1="22" x2="24" y2="22" class="grid-line-2mu"/>
<line x1="0" y1="22.5" x2="24" y2="22.5" class="grid-line"/>
<line x1="0" y1="23" x2="24" y2="23" class="grid-line"/>
<line x1="0" y1="23.5" x2="24" y2="23.5" class="grid-line"/>
<line x1="0" y1="24" x2="24" y2="24" class="grid-line-6mu"/>
</g>
<g id="layer-delaunay" class="layer ">
<line x1="12.880564428477022" y1="12.74124605633047" x2="13.25213684121572" y2="12.406680753151042" class="delaunay-line"/>
<line x1="13.25213684121572" y1="12.406680753151042" x2="10.500014075379118" y2="11.11650627770563" class="delaunay-line"/>
<line x1="10.500014075379118" y1="11.11650627770563" x2="12.880564428477022" y2="12.74124605633047" class="delaunay-line"/>
<line x1="11.296406996560217" y1="9.519667127191417" x2="10.500014075379118" y2="10.61650627770563" class="delaunay-line"/>
<line x1="10.500014075379118" y1="10.61650627770563" x2="10.500014075379118" y2="11.11650627770563" class="delaunay-line"/>
<line x1="10.500014075379118" y1="11.11650627770563" x2="11.296406996560217" y2="9.519667127191417" class="delaunay-line"/>
<line x1="13.25213684121572" y1="12.406680753151042" x2="11.296406996560217" y2="9.519667127191417" class="delaunay-line"/>
<line x1="11.296406996560217" y1="9.519667127191417" x2="10.500014075379118" y2="11.11650627770563" class="delaunay-line"/>
<line x1="10.500014075379118" y1="11.11650627770563" x2="13.25213684121572" y2="12.406680753151042" class="delaunay-line"/>
<line x1="13.25213684121572" y1="12.406680753151042" x2="11.531142777953162" y2="9.078193330761952" class="delaunay-line"/>
<line x1="11.531142777953162" y1="9.078193330761952" x2="11.296406996560217" y2="9.519667127191417" class="delaunay-line"/>
<line x1="11.296406996560217" y1="9.519667127191417" x2="13.25213684121572" y2="12.406680753151042" class="delaunay-line"/>
<line x1="11.296406996560217" y1="9.519667127191417" x2="5.998721439406653" y2="6.702837750476073" class="delaunay-line"/>
<line x1="5.998721439406653" y1="6.702837750476073" x2="10.500014075379118" y2="10.61650627770563" class="delaunay-line"/>
<line x1="10.500014075379118" y1="10.61650627770563" x2="11.296406996560217" y2="9.519667127191417" class="delaunay-line"/>
<line x1="17.26692047936887" y1="16.865549706015408" x2="16.50001407537912" y2="11.11650627770563" class="delaunay-line"/>
<line x1="16.50001407537912" y1="11.11650627770563" x2="13.25213684121572" y2="12.406680753151042" class="delaunay-line"/>
<line x1="13.25213684121572" y1="12.406680753151042" x2="17.26692047936887" y2="16.865549706015408" class="delaunay-line"/>
<line x1="13.25213684121572" y1="12.406680753151042" x2="16.50001407537912" y2="10.61650627770563" class="delaunay-line"/>
<line x1="16.50001407537912" y1="10.61650627770563" x2="11.531142777953162" y2="9.078193330761952" class="delaunay-line"/>
<line x1="11.531142777953162" y1="9.078193330761952" x2="13.25213684121572" y2="12.406680753151042" class="delaunay-line"/>
<line x1="16.50001407537912" y1="11.11650627770563" x2="16.50001407537912" y2="10.61650627770563" class="delaunay-line"/>
<line x1="16.50001407537912" y1="10.61650627770563" x2="13.25213684121572" y2="12.406680753151042" class="delaunay-line"/>
<line x1="13.25213684121572" y1="12.406680753151042" x2="16.50001407537912" y2="11.11650627770563" class="delaunay-line"/>
<line x1="9.401302805011793" y1="16.907379091370196" x2="9.89856375269593" y2="16.855114859736368" class="delaunay-line"/>
<line x1="9.89856375269593" y1="16.855114859736368" x2="10.500014075379118" y2="11.11650627770563" class="delaunay-line"/>
<line x1="10.500014075379118" y1="11.11650627770563" x2="9.401302805011793" y2="16.907379091370196" class="delaunay-line"/>
<line x1="10.500014075379118" y1="11.11650627770563" x2="9.89856375269593" y2="16.855114859736368" class="delaunay-line"/>
<line x1="9.89856375269593" y1="16.855114859736368" x2="12.880564428477022" y2="12.74124605633047" class="delaunay-line"/>
<line x1="12.880564428477022" y1="12.74124605633047" x2="10.500014075379118" y2="11.11650627770563" class="delaunay-line"/>
<line x1="12.880564428477022" y1="12.74124605633047" x2="16.895348066630174" y2="17.200115009194835" class="delaunay-line"/>
<line x1="16.895348066630174" y1="17.200115009194835" x2="13.25213684121572" y2="12.406680753151042" class="delaunay-line"/>
<line x1="13.25213684121572" y1="12.406680753151042" x2="12.880564428477022" y2="12.74124605633047" class="delaunay-line"/>
<line x1="4.009486507840824" y1="13.670592523042302" x2="9.401302805011793" y2="16.907379091370196" class="delaunay-line"/>
<line x1="9.401302805011793" y1="16.907379091370196" x2="10.500014075379118" y2="11.11650627770563" class="delaunay-line"/>
<line x1="10.500014075379118" y1="11.11650627770563" x2="4.009486507840824" y2="13.670592523042302" class="delaunay-line"/>
<line x1="8.744385406729547" y1="4.735480521018063" x2="8.744385406729547" y2="5.235480521018063" class="delaunay-line"/>
<line x1="8.744385406729547" y1="5.235480521018063" x2="11.531142777953162" y2="9.078193330761952" class="delaunay-line"/>
<line x1="11.531142777953162" y1="9.078193330761952" x2="8.744385406729547" y2="4.735480521018063" class="delaunay-line"/>
<line x1="11.531142777953162" y1="9.078193330761952" x2="8.744385406729547" y2="5.235480521018063" class="delaunay-line"/>
<line x1="8.744385406729547" y1="5.235480521018063" x2="11.296406996560217" y2="9.519667127191417" class="delaunay-line"/>
<line x1="11.296406996560217" y1="9.519667127191417" x2="11.531142777953162" y2="9.078193330761952" class="delaunay-line"/>
<line x1="10.500014075379118" y1="10.61650627770563" x2="4.009486507840824" y2="13.670592523042302" class="delaunay-line"/>
<line x1="4.009486507840824" y1="13.670592523042302" x2="10.500014075379118" y2="11.11650627770563" class="delaunay-line"/>
<line x1="10.500014075379118" y1="11.11650627770563" x2="10.500014075379118" y2="10.61650627770563" class="delaunay-line"/>
<line x1="19.930278466129746" y1="2.990927410295007" x2="8.744385406729547" y2="4.735480521018063" class="delaunay-line"/>
<line x1="8.744385406729547" y1="4.735480521018063" x2="11.531142777953162" y2="9.078193330761952" class="delaunay-line"/>
<line x1="11.531142777953162" y1="9.078193330761952" x2="19.930278466129746" y2="2.990927410295007" class="delaunay-line"/>
<line x1="18.96660503433717" y1="18.16546865132269" x2="16.895348066630174" y2="17.200115009194835" class="delaunay-line"/>
<line x1="16.895348066630174" y1="17.200115009194835" x2="10.525734532301849" y2="22.822246231946004" class="delaunay-line"/>
<line x1="10.525734532301849" y1="22.822246231946004" x2="18.96660503433717" y2="18.16546865132269" class="delaunay-line"/>
<line x1="9.89856375269593" y1="16.855114859736368" x2="16.895348066630174" y2="17.200115009194835" class="delaunay-line"/>
<line x1="16.895348066630174" y1="17.200115009194835" x2="12.880564428477022" y2="12.74124605633047" class="delaunay-line"/>
<line x1="12.880564428477022" y1="12.74124605633047" x2="9.89856375269593" y2="16.855114859736368" class="delaunay-line"/>
<line x1="21.30557867211906" y1="10.51503060361841" x2="20.868885256371133" y2="8.917057453865834" class="delaunay-line"/>
<line x1="20.868885256371133" y1="8.917057453865834" x2="16.50001407537912" y2="10.61650627770563" class="delaunay-line"/>
<line x1="16.50001407537912" y1="10.61650627770563" x2="21.30557867211906" y2="10.51503060361841" class="delaunay-line"/>
<line x1="16.895348066630174" y1="17.200115009194835" x2="17.26692047936887" y2="16.865549706015408" class="delaunay-line"/>
<line x1="17.26692047936887" y1="16.865549706015408" x2="13.25213684121572" y2="12.406680753151042" class="delaunay-line"/>
<line x1="13.25213684121572" y1="12.406680753151042" x2="16.895348066630174" y2="17.200115009194835" class="delaunay-line"/>
<line x1="6.233457220799599" y1="6.26136395404661" x2="5.998721439406653" y2="6.702837750476073" class="delaunay-line"/>
<line x1="5.998721439406653" y1="6.702837750476073" x2="8.744385406729547" y2="5.235480521018063" class="delaunay-line"/>
<line x1="8.744385406729547" y1="5.235480521018063" x2="6.233457220799599" y2="6.26136395404661" class="delaunay-line"/>
<line x1="8.744385406729547" y1="5.235480521018063" x2="5.998721439406653" y2="6.702837750476073" class="delaunay-line"/>
<line x1="5.998721439406653" y1="6.702837750476073" x2="11.296406996560217" y2="9.519667127191417" class="delaunay-line"/>
<line x1="11.296406996560217" y1="9.519667127191417" x2="8.744385406729547" y2="5.235480521018063" class="delaunay-line"/>
<line x1="8.744385406729547" y1="4.735480521018063" x2="6.233457220799599" y2="6.26136395404661" class="delaunay-line"/>
<line x1="6.233457220799599" y1="6.26136395404661" x2="8.744385406729547" y2="5.235480521018063" class="delaunay-line"/>
<line x1="8.744385406729547" y1="5.235480521018063" x2="8.744385406729547" y2="4.735480521018063" class="delaunay-line"/>
<line x1="5.998721439406653" y1="6.702837750476073" x2="4.009486507840824" y2="13.670592523042302" class="delaunay-line"/>
<line x1="4.009486507840824" y1="13.670592523042302" x2="10.500014075379118" y2="10.61650627770563" class="delaunay-line"/>
<line x1="10.500014075379118" y1="10.61650627770563" x2="5.998721439406653" y2="6.702837750476073" class="delaunay-line"/>
<line x1="1.8592788105690232" y1="8.069109964059091" x2="3.542696294592224" y2="13.84977649781495" class="delaunay-line"/>
<line x1="3.542696294592224" y1="13.84977649781495" x2="4.009486507840824" y2="13.670592523042302" class="delaunay-line"/>
<line x1="4.009486507840824" y1="13.670592523042302" x2="1.8592788105690232" y2="8.069109964059091" class="delaunay-line"/>
<line x1="4.009486507840824" y1="13.670592523042302" x2="4.454776657312998" y2="16.164195418049015" class="delaunay-line"/>
<line x1="4.454776657312998" y1="16.164195418049015" x2="9.401302805011793" y2="16.907379091370196" class="delaunay-line"/>
<line x1="9.401302805011793" y1="16.907379091370196" x2="4.009486507840824" y2="13.670592523042302" class="delaunay-line"/>
<line x1="3.542696294592224" y1="13.84977649781495" x2="4.454776657312998" y2="16.164195418049015" class="delaunay-line"/>
<line x1="4.454776657312998" y1="16.164195418049015" x2="4.009486507840824" y2="13.670592523042302" class="delaunay-line"/>
<line x1="4.009486507840824" y1="13.670592523042302" x2="3.542696294592224" y2="13.84977649781495" class="delaunay-line"/>
<line x1="21.30557867211906" y1="10.51503060361841" x2="16.50001407537912" y2="10.61650627770563" class="delaunay-line"/>
<line x1="16.50001407537912" y1="10.61650627770563" x2="16.50001407537912" y2="11.11650627770563" class="delaunay-line"/>
<line x1="16.50001407537912" y1="11.11650627770563" x2="21.30557867211906" y2="10.51503060361841" class="delaunay-line"/>
<line x1="16.50001407537912" y1="10.61650627770563" x2="19.930278466129746" y2="2.990927410295007" class="delaunay-line"/>
<line x1="19.930278466129746" y1="2.990927410295007" x2="11.531142777953162" y2="9.078193330761952" class="delaunay-line"/>
<line x1="11.531142777953162" y1="9.078193330761952" x2="16.50001407537912" y2="10.61650627770563" class="delaunay-line"/>
<line x1="17.26692047936887" y1="16.865549706015408" x2="21.30557867211906" y2="10.51503060361841" class="delaunay-line"/>
<line x1="21.30557867211906" y1="10.51503060361841" x2="16.50001407537912" y2="11.11650627770563" class="delaunay-line"/>
<line x1="16.50001407537912" y1="11.11650627770563" x2="17.26692047936887" y2="16.865549706015408" class="delaunay-line"/>
<line x1="3.542696294592224" y1="13.84977649781495" x2="3.974145809343838" y2="16.302014095957514" class="delaunay-line"/>
<line x1="3.974145809343838" y1="16.302014095957514" x2="4.454776657312998" y2="16.164195418049015" class="delaunay-line"/>
<line x1="4.454776657312998" y1="16.164195418049015" x2="3.542696294592224" y2="13.84977649781495" class="delaunay-line"/>
<line x1="10.028473584617712" y1="22.87451046357983" x2="10.525734532301849" y2="22.822246231946004" class="delaunay-line"/>
<line x1="10.525734532301849" y1="22.822246231946004" x2="9.401302805011793" y2="16.907379091370196" class="delaunay-line"/>
<line x1="9.401302805011793" y1="16.907379091370196" x2="10.028473584617712" y2="22.87451046357983" class="delaunay-line"/>
<line x1="16.895348066630174" y1="17.200115009194835" x2="18.96660503433717" y2="18.16546865132269" class="delaunay-line"/>
<line x1="18.96660503433717" y1="18.16546865132269" x2="17.26692047936887" y2="16.865549706015408" class="delaunay-line"/>
<line x1="17.26692047936887" y1="16.865549706015408" x2="16.895348066630174" y2="17.200115009194835" class="delaunay-line"/>
<line x1="17.26692047936887" y1="16.865549706015408" x2="18.96660503433717" y2="18.16546865132269" class="delaunay-line"/>
<line x1="18.96660503433717" y1="18.16546865132269" x2="21.30557867211906" y2="10.51503060361841" class="delaunay-line"/>
<line x1="21.30557867211906" y1="10.51503060361841" x2="17.26692047936887" y2="16.865549706015408" class="delaunay-line"/>
<line x1="10.525734532301849" y1="22.822246231946004" x2="16.895348066630174" y2="17.200115009194835" class="delaunay-line"/>
<line x1="16.895348066630174" y1="17.200115009194835" x2="9.89856375269593" y2="16.855114859736368" class="delaunay-line"/>
<line x1="9.89856375269593" y1="16.855114859736368" x2="10.525734532301849" y2="22.822246231946004" class="delaunay-line"/>
<line x1="19.922909790300203" y1="18.457840356045427" x2="18.96660503433717" y2="18.16546865132269" class="delaunay-line"/>
<line x1="18.96660503433717" y1="18.16546865132269" x2="24" y2="24" class="delaunay-line"/>
<line x1="24" y1="24" x2="19.922909790300203" y2="18.457840356045427" class="delaunay-line"/>
<line x1="21.30557867211906" y1="10.51503060361841" x2="21.362729426668704" y2="8.838840221345718" class="delaunay-line"/>
<line x1="21.362729426668704" y1="8.838840221345718" x2="20.868885256371133" y2="8.917057453865834" class="delaunay-line"/>
<line x1="20.868885256371133" y1="8.917057453865834" x2="21.30557867211906" y2="10.51503060361841" class="delaunay-line"/>
<line x1="20.868885256371133" y1="8.917057453865834" x2="19.930278466129746" y2="2.990927410295007" class="delaunay-line"/>
<line x1="19.930278466129746" y1="2.990927410295007" x2="16.50001407537912" y2="10.61650627770563" class="delaunay-line"/>
<line x1="16.50001407537912" y1="10.61650627770563" x2="20.868885256371133" y2="8.917057453865834" class="delaunay-line"/>
<line x1="18.96660503433717" y1="18.16546865132269" x2="22.261883428082093" y2="10.807402308341146" class="delaunay-line"/>
<line x1="22.261883428082093" y1="10.807402308341146" x2="21.30557867211906" y2="10.51503060361841" class="delaunay-line"/>
<line x1="21.30557867211906" y1="10.51503060361841" x2="18.96660503433717" y2="18.16546865132269" class="delaunay-line"/>
<line x1="21.30557867211906" y1="10.51503060361841" x2="22.261883428082093" y2="10.807402308341146" class="delaunay-line"/>
<line x1="22.261883428082093" y1="10.807402308341146" x2="21.362729426668704" y2="8.838840221345718" class="delaunay-line"/>
<line x1="21.362729426668704" y1="8.838840221345718" x2="21.30557867211906" y2="10.51503060361841" class="delaunay-line"/>
<line x1="10.525734532301849" y1="22.822246231946004" x2="9.89856375269593" y2="16.855114859736368" class="delaunay-line"/>
<line x1="9.89856375269593" y1="16.855114859736368" x2="9.401302805011793" y2="16.907379091370196" class="delaunay-line"/>
<line x1="9.401302805011793" y1="16.907379091370196" x2="10.525734532301849" y2="22.822246231946004" class="delaunay-line"/>
<line x1="18.96660503433717" y1="18.16546865132269" x2="19.922909790300203" y2="18.457840356045427" class="delaunay-line"/>
<line x1="19.922909790300203" y1="18.457840356045427" x2="22.261883428082093" y2="10.807402308341146" class="delaunay-line"/>
<line x1="22.261883428082093" y1="10.807402308341146" x2="18.96660503433717" y2="18.16546865132269" class="delaunay-line"/>
<line x1="2.7443854067295472" y1="5.235480521018063" x2="1.8592788105690232" y2="8.069109964059091" class="delaunay-line"/>
<line x1="1.8592788105690232" y1="8.069109964059091" x2="5.998721439406653" y2="6.702837750476073" class="delaunay-line"/>
<line x1="5.998721439406653" y1="6.702837750476073" x2="2.7443854067295472" y2="5.235480521018063" class="delaunay-line"/>
<line x1="5.998721439406653" y1="6.702837750476073" x2="1.8592788105690232" y2="8.069109964059091" class="delaunay-line"/>
<line x1="1.8592788105690232" y1="8.069109964059091" x2="4.009486507840824" y2="13.670592523042302" class="delaunay-line"/>
<line x1="4.009486507840824" y1="13.670592523042302" x2="5.998721439406653" y2="6.702837750476073" class="delaunay-line"/>
<line x1="3.542696294592224" y1="13.84977649781495" x2="0" y2="24" class="delaunay-line"/>
<line x1="0" y1="24" x2="3.974145809343838" y2="16.302014095957514" class="delaunay-line"/>
<line x1="3.974145809343838" y1="16.302014095957514" x2="3.542696294592224" y2="13.84977649781495" class="delaunay-line"/>
<line x1="2.7443854067295472" y1="5.235480521018063" x2="5.998721439406653" y2="6.702837750476073" class="delaunay-line"/>
<line x1="5.998721439406653" y1="6.702837750476073" x2="6.233457220799599" y2="6.26136395404661" class="delaunay-line"/>
<line x1="6.233457220799599" y1="6.26136395404661" x2="2.7443854067295472" y2="5.235480521018063" class="delaunay-line"/>
<line x1="2.7443854067295472" y1="5.235480521018063" x2="1.3924885973204226" y2="8.24829393883174" class="delaunay-line"/>
<line x1="1.3924885973204226" y1="8.24829393883174" x2="1.8592788105690232" y2="8.069109964059091" class="delaunay-line"/>
<line x1="1.8592788105690232" y1="8.069109964059091" x2="2.7443854067295472" y2="5.235480521018063" class="delaunay-line"/>
<line x1="1.8592788105690232" y1="8.069109964059091" x2="1.3924885973204226" y2="8.24829393883174" class="delaunay-line"/>
<line x1="1.3924885973204226" y1="8.24829393883174" x2="3.542696294592224" y2="13.84977649781495" class="delaunay-line"/>
<line x1="3.542696294592224" y1="13.84977649781495" x2="1.8592788105690232" y2="8.069109964059091" class="delaunay-line"/>
<line x1="2.7443854067295472" y1="4.735480521018063" x2="2.7443854067295472" y2="5.235480521018063" class="delaunay-line"/>
<line x1="2.7443854067295472" y1="5.235480521018063" x2="6.233457220799599" y2="6.26136395404661" class="delaunay-line"/>
<line x1="6.233457220799599" y1="6.26136395404661" x2="2.7443854067295472" y2="4.735480521018063" class="delaunay-line"/>
<line x1="8.744385406729547" y1="4.735480521018063" x2="2.7443854067295472" y2="4.735480521018063" class="delaunay-line"/>
<line x1="2.7443854067295472" y1="4.735480521018063" x2="6.233457220799599" y2="6.26136395404661" class="delaunay-line"/>
<line x1="6.233457220799599" y1="6.26136395404661" x2="8.744385406729547" y2="4.735480521018063" class="delaunay-line"/>
<line x1="2.7443854067295472" y1="5.235480521018063" x2="2.7443854067295472" y2="4.735480521018063" class="delaunay-line"/>
<line x1="2.7443854067295472" y1="4.735480521018063" x2="1.3924885973204226" y2="8.24829393883174" class="delaunay-line"/>
<line x1="1.3924885973204226" y1="8.24829393883174" x2="2.7443854067295472" y2="5.235480521018063" class="delaunay-line"/>
<line x1="10.028473584617712" y1="22.87451046357983" x2="9.401302805011793" y2="16.907379091370196" class="delaunay-line"/>
<line x1="9.401302805011793" y1="16.907379091370196" x2="6.108600792214997" y2="21.93176559367893" class="delaunay-line"/>
<line x1="6.108600792214997" y1="21.93176559367893" x2="10.028473584617712" y2="22.87451046357983" class="delaunay-line"/>
<line x1="20.424122636427317" y1="2.9127101777748914" x2="19.930278466129746" y2="2.990927410295007" class="delaunay-line"/>
<line x1="19.930278466129746" y1="2.990927410295007" x2="21.362729426668704" y2="8.838840221345718" class="delaunay-line"/>
<line x1="21.362729426668704" y1="8.838840221345718" x2="20.424122636427317" y2="2.9127101777748914" class="delaunay-line"/>
<line x1="21.362729426668704" y1="8.838840221345718" x2="19.930278466129746" y2="2.990927410295007" class="delaunay-line"/>
<line x1="19.930278466129746" y1="2.990927410295007" x2="20.868885256371133" y2="8.917057453865834" class="delaunay-line"/>
<line x1="20.868885256371133" y1="8.917057453865834" x2="21.362729426668704" y2="8.838840221345718" class="delaunay-line"/>
<line x1="8.744385406729547" y1="4.735480521018063" x2="0" y2="0" class="delaunay-line"/>
<line x1="0" y1="0" x2="2.7443854067295472" y2="4.735480521018063" class="delaunay-line"/>
<line x1="2.7443854067295472" y1="4.735480521018063" x2="8.744385406729547" y2="4.735480521018063" class="delaunay-line"/>
<line x1="6.108600792214997" y1="21.93176559367893" x2="9.401302805011793" y2="16.907379091370196" class="delaunay-line"/>
<line x1="9.401302805011793" y1="16.907379091370196" x2="4.454776657312998" y2="16.164195418049015" class="delaunay-line"/>
<line x1="4.454776657312998" y1="16.164195418049015" x2="6.108600792214997" y2="21.93176559367893" class="delaunay-line"/>
<line x1="24" y1="0" x2="20.424122636427317" y2="2.9127101777748914" class="delaunay-line"/>
<line x1="20.424122636427317" y1="2.9127101777748914" x2="21.362729426668704" y2="8.838840221345718" class="delaunay-line"/>
<line x1="21.362729426668704" y1="8.838840221345718" x2="24" y2="0" class="delaunay-line"/>
<line x1="19.930278466129746" y1="2.990927410295007" x2="0" y2="0" class="delaunay-line"/>
<line x1="0" y1="0" x2="8.744385406729547" y2="4.735480521018063" class="delaunay-line"/>
<line x1="8.744385406729547" y1="4.735480521018063" x2="19.930278466129746" y2="2.990927410295007" class="delaunay-line"/>
<line x1="5.627969944245837" y1="22.069584271587427" x2="6.108600792214997" y2="21.93176559367893" class="delaunay-line"/>
<line x1="6.108600792214997" y1="21.93176559367893" x2="4.454776657312998" y2="16.164195418049015" class="delaunay-line"/>
<line x1="4.454776657312998" y1="16.164195418049015" x2="5.627969944245837" y2="22.069584271587427" class="delaunay-line"/>
<line x1="3.974145809343838" y1="16.302014095957514" x2="5.627969944245837" y2="22.069584271587427" class="delaunay-line"/>
<line x1="5.627969944245837" y1="22.069584271587427" x2="4.454776657312998" y2="16.164195418049015" class="delaunay-line"/>
<line x1="4.454776657312998" y1="16.164195418049015" x2="3.974145809343838" y2="16.302014095957514" class="delaunay-line"/>
<line x1="6.108600792214997" y1="21.93176559367893" x2="5.627969944245837" y2="22.069584271587427" class="delaunay-line"/>
<line x1="5.627969944245837" y1="22.069584271587427" x2="10.028473584617712" y2="22.87451046357983" class="delaunay-line"/>
<line x1="10.028473584617712" y1="22.87451046357983" x2="6.108600792214997" y2="21.93176559367893" class="delaunay-line"/>
<line x1="0" y1="24" x2="5.627969944245837" y2="22.069584271587427" class="delaunay-line"/>
<line x1="5.627969944245837" y1="22.069584271587427" x2="3.974145809343838" y2="16.302014095957514" class="delaunay-line"/>
<line x1="3.974145809343838" y1="16.302014095957514" x2="0" y2="24" class="delaunay-line"/>
<line x1="22.261883428082093" y1="10.807402308341146" x2="24" y2="0" class="delaunay-line"/>
<line x1="24" y1="0" x2="21.362729426668704" y2="8.838840221345718" class="delaunay-line"/>
<line x1="21.362729426668704" y1="8.838840221345718" x2="22.261883428082093" y2="10.807402308341146" class="delaunay-line"/>
<line x1="20.424122636427317" y1="2.9127101777748914" x2="24" y2="0" class="delaunay-line"/>
<line x1="24" y1="0" x2="19.930278466129746" y2="2.990927410295007" class="delaunay-line"/>
<line x1="19.930278466129746" y1="2.990927410295007" x2="20.424122636427317" y2="2.9127101777748914" class="delaunay-line"/>
<line x1="2.7443854067295472" y1="4.735480521018063" x2="0" y2="0" class="delaunay-line"/>
<line x1="0" y1="0" x2="1.3924885973204226" y2="8.24829393883174" class="delaunay-line"/>
<line x1="1.3924885973204226" y1="8.24829393883174" x2="2.7443854067295472" y2="4.735480521018063" class="delaunay-line"/>
<line x1="24" y1="0" x2="0" y2="0" class="delaunay-line"/>
<line x1="0" y1="0" x2="19.930278466129746" y2="2.990927410295007" class="delaunay-line"/>
<line x1="19.930278466129746" y1="2.990927410295007" x2="24" y2="0" class="delaunay-line"/>
<line x1="10.525734532301849" y1="22.822246231946004" x2="24" y2="24" class="delaunay-line"/>
<line x1="24" y1="24" x2="18.96660503433717" y2="18.16546865132269" class="delaunay-line"/>
<line x1="18.96660503433717" y1="18.16546865132269" x2="10.525734532301849" y2="22.822246231946004" class="delaunay-line"/>
<line x1="19.922909790300203" y1="18.457840356045427" x2="24" y2="24" class="delaunay-line"/>
<line x1="24" y1="24" x2="22.261883428082093" y2="10.807402308341146" class="delaunay-line"/>
<line x1="22.261883428082093" y1="10.807402308341146" x2="19.922909790300203" y2="18.457840356045427" class="delaunay-line"/>
<line x1="22.261883428082093" y1="10.807402308341146" x2="24" y2="24" class="delaunay-line"/>
<line x1="24" y1="24" x2="24" y2="0" class="delaunay-line"/>
<line x1="24" y1="0" x2="22.261883428082093" y2="10.807402308341146" class="delaunay-line"/>
<line x1="10.028473584617712" y1="22.87451046357983" x2="24" y2="24" class="delaunay-line"/>
<line x1="24" y1="24" x2="10.525734532301849" y2="22.822246231946004" class="delaunay-line"/>
<line x1="10.525734532301849" y1="22.822246231946004" x2="10.028473584617712" y2="22.87451046357983" class="delaunay-line"/>
<line x1="0" y1="0" x2="0" y2="24" class="delaunay-line"/>
<line x1="0" y1="24" x2="1.3924885973204226" y2="8.24829393883174" class="delaunay-line"/>
<line x1="1.3924885973204226" y1="8.24829393883174" x2="0" y2="0" class="delaunay-line"/>
<line x1="1.3924885973204226" y1="8.24829393883174" x2="0" y2="24" class="delaunay-line"/>
<line x1="0" y1="24" x2="3.542696294592224" y2="13.84977649781495" class="delaunay-line"/>
<line x1="3.542696294592224" y1="13.84977649781495" x2="1.3924885973204226" y2="8.24829393883174" class="delaunay-line"/>
<line x1="5.627969944245837" y1="22.069584271587427" x2="0" y2="24" class="delaunay-line"/>
<line x1="0" y1="24" x2="10.028473584617712" y2="22.87451046357983" class="delaunay-line"/>
<line x1="10.028473584617712" y1="22.87451046357983" x2="5.627969944245837" y2="22.069584271587427" class="delaunay-line"/>
<line x1="10.028473584617712" y1="22.87451046357983" x2="0" y2="24" class="delaunay-line"/>
<line x1="0" y1="24" x2="24" y2="24" class="delaunay-line"/>
<line x1="24" y1="24" x2="10.028473584617712" y2="22.87451046357983" class="delaunay-line"/>
</g>
<g id="layer-area" class="layer ">
</g>
<g id="layer-building" class="layer ">
</g>
<g id="layer-wall" class="layer ">
<polygon points="17.26692047936887,16.865549706015408 16.895348066630174,17.200115009194835 12.880564428477022,12.74124605633047 13.25213684121572,12.406680753151042" class="terrain-solid"/>
<text x="15.073742453922947" y="14.80339788117294" class="label">#555555</text>
<polygon points="9.401302805011793,16.907379091370196 9.89856375269593,16.855114859736368 10.525734532301849,22.822246231946004 10.028473584617712,22.87451046357983" class="terrain-solid"/>
<text x="9.963518668656821" y="19.8648126616581" class="label">#555555</text>
<polygon points="21.362729426668704,8.838840221345718 20.868885256371133,8.917057453865834 19.930278466129746,2.990927410295007 20.424122636427317,2.9127101777748914" class="terrain-solid"/>
<text x="20.646503946399225" y="5.914883815820362" class="label">#555555</text>
<polygon points="5.998721439406653,6.702837750476073 6.233457220799599,6.26136395404661 11.531142777953162,9.078193330761952 11.296406996560217,9.519667127191417" class="terrain-solid"/>
<text x="8.764932108679908" y="7.890515540619013" class="label">#555555</text>
<polygon points="3.974145809343838,16.302014095957514 4.454776657312998,16.164195418049015 6.108600792214997,21.93176559367893 5.627969944245837,22.069584271587427" class="terrain-solid"/>
<text x="5.0413733007794175" y="19.11688984481822" class="label">#555555</text>
<polygon points="16.50001407537912,10.61650627770563 16.50001407537912,11.11650627770563 10.500014075379118,11.11650627770563 10.500014075379118,10.61650627770563" class="terrain-solid"/>
<text x="13.50001407537912" y="10.86650627770563" class="label">#555555</text>
<polygon points="8.744385406729547,4.735480521018063 8.744385406729547,5.235480521018063 2.7443854067295472,5.235480521018063 2.7443854067295472,4.735480521018063" class="terrain-solid"/>
<text x="5.744385406729547" y="4.985480521018063" class="label">#555555</text>
<polygon points="21.30557867211906,10.51503060361841 22.261883428082093,10.807402308341146 19.922909790300203,18.457840356045427 18.96660503433717,18.16546865132269" class="terrain-solid"/>
<text x="20.614244231209632" y="14.486435479831918" class="label">#555555</text>
<polygon points="4.009486507840824,13.670592523042302 3.542696294592224,13.84977649781495 1.3924885973204226,8.24829393883174 1.8592788105690232,8.069109964059091" class="terrain-solid"/>
<text x="2.7009875525806235" y="10.959443230937023" class="label">#555555</text>
</g>
<g id="layer-tree" class="layer ">
</g>
<g id="layer-rocks" class="layer ">
</g>
<g id="layer-shrub" class="layer ">
</g>
<g id="layer-terrain" class="layer ">
</g>
<g id="layer-clearance" class="layer hidden">
</g>
<g id="layer-models" class="layer ">
</g>
<g id="layer-paths" class="layer ">
</g>
<g id="layer-vectors" class="layer ">
</g>
<g id="layer-los" class="layer ">
</g>
<g id="layer-lof" class="layer ">
</g>

<g id="legend">
<g class="toggle" onclick="toggleLayer('deployment')"><rect x="0.4" y="0.14999999999999997" width="0.4" height="0.4" fill="#222" stroke="#222" stroke-width="0.05"/><text x="1.0" y="0.5499999999999999" class="label">Deployment Zones</text></g>
<g class="toggle" onclick="toggleLayer('grid')"><rect x="0.4" y="0.95" width="0.4" height="0.4" fill="#222" stroke="#222" stroke-width="0.05"/><text x="1.0" y="1.3499999999999999" class="label">0.5 MU Grid</text></g>
<g class="toggle" onclick="toggleLayer('delaunay')"><rect x="0.4" y="1.7500000000000002" width="0.4" height="0.4" fill="#222" stroke="#222" stroke-width="0.05"/><text x="1.0" y="2.1500000000000004" class="label">Delaunay Mesh</text></g>
<g class="toggle disabled"><rect x="0.4" y="2.55" width="0.4" height="0.4" fill="#222" stroke="#222" stroke-width="0.05"/><text x="1.0" y="2.95" class="label">Area Terrain</text></g>
<g class="toggle disabled"><rect x="0.4" y="3.3499999999999996" width="0.4" height="0.4" fill="#222" stroke="#222" stroke-width="0.05"/><text x="1.0" y="3.75" class="label">Buildings</text></g>
<g class="toggle" onclick="toggleLayer('wall')"><rect x="0.4" y="4.1499999999999995" width="0.4" height="0.4" fill="#222" stroke="#222" stroke-width="0.05"/><text x="1.0" y="4.55" class="label">Walls</text></g>
<g class="toggle disabled"><rect x="0.4" y="4.949999999999999" width="0.4" height="0.4" fill="#222" stroke="#222" stroke-width="0.05"/><text x="1.0" y="5.35" class="label">Trees</text></g>
<g class="toggle disabled"><rect x="0.4" y="5.749999999999999" width="0.4" height="0.4" fill="#222" stroke="#222" stroke-width="0.05"/><text x="1.0" y="6.1499999999999995" class="label">Rocks</text></g>
<g class="toggle disabled"><rect x="0.4" y="6.549999999999999" width="0.4" height="0.4" fill="#222" stroke="#222" stroke-width="0.05"/><text x="1.0" y="6.949999999999999" class="label">Shrubs</text></g>
<g class="toggle" onclick="toggleLayer('terrain')"><rect x="0.4" y="7.349999999999999" width="0.4" height="0.4" fill="#222" stroke="#222" stroke-width="0.05"/><text x="1.0" y="7.749999999999999" class="label">Other Terrain</text></g>
<g class="toggle" onclick="toggleLayer('clearance')"><rect x="0.4" y="8.15" width="0.4" height="0.4" fill="#fff" stroke="#222" stroke-width="0.05"/><text x="1.0" y="8.549999999999999" class="label">Clearance Zones</text></g>
<g class="toggle" onclick="toggleLayer('models')"><rect x="0.4" y="8.950000000000001" width="0.4" height="0.4" fill="#222" stroke="#222" stroke-width="0.05"/><text x="1.0" y="9.35" class="label">Models</text></g>
<g class="toggle" onclick="toggleLayer('paths')"><rect x="0.4" y="9.750000000000002" width="0.4" height="0.4" fill="#222" stroke="#222" stroke-width="0.05"/><text x="1.0" y="10.15" class="label">Paths</text></g>
<g class="toggle" onclick="toggleLayer('vectors')"><rect x="0.4" y="10.550000000000002" width="0.4" height="0.4" fill="#222" stroke="#222" stroke-width="0.05"/><text x="1.0" y="10.950000000000001" class="label">Vectors</text></g>
<g class="toggle" onclick="toggleLayer('los')"><rect x="0.4" y="11.350000000000003" width="0.4" height="0.4" fill="#222" stroke="#222" stroke-width="0.05"/><text x="1.0" y="11.750000000000002" class="label">LOS</text></g>
<g class="toggle" onclick="toggleLayer('lof')"><rect x="0.4" y="12.150000000000004" width="0.4" height="0.4" fill="#222" stroke="#222" stroke-width="0.05"/><text x="1.0" y="12.550000000000002" class="label">LOF</text></g>
</g>
</svg>