<svg xmlns="http://www.w3.org/2000/svg" viewBox="0 0 24 24" width="960" height="960" font-family="Arial" font-size="0.6">
<defs>
  <style><![CDATA[
    .layer { display: inline; }
    .layer.hidden { display: none; }
    .grid-line { stroke: #999; stroke-width: 0.02; opacity: 0.2; }
    .grid-line-2mu { stroke: #666; stroke-width: 0.04; opacity: 0.4; }
    .grid-line-6mu { stroke: #333; stroke-width: 0.08; opacity: 0.6; }
    .delaunay-line { stroke: #4a6fa5; stroke-width: 0.03; opacity: 0.3; }
    #layer-area { opacity: 0.8; }
    #layer-building, #layer-wall, #layer-tree, #layer-rocks, #layer-shrub, #layer-terrain { opacity: 0.8; }
    .terrain-area { stroke: none; }
    .terrain-solid { stroke: #000; stroke-width: 0.05; }
    .model { stroke: #ff0000; stroke-width: 2; vector-effect: non-scaling-stroke; }
    .path { fill: none; stroke-width: 0.12; }
    .vector { stroke-width: 0.1; }
    .los-ray { stroke-width: 0.08; stroke-dasharray: 0.2 0.2; }
    .lof-ray { stroke-width: 0.08; stroke-dasharray: 0.3 0.15; }
    .label { fill: #111 !important; font-size: 0.6px; }
    .toggle { cursor: pointer; }
    .toggle.disabled { cursor: default; }
    .toggle.disabled rect { stroke: #ccc; fill: #fff; }
    .toggle.disabled text { fill: #ccc; }
#layer-rocks { fill: #D3D3D3; }
  ]]></style>
</defs>
<rect x="0" y="0" width="24" height="24" fill="#ffffff" stroke="#111" stroke-width="0.05"/>
<script><![CDATA[
      function toggleLayer(id) {
        var layer = document.getElementById('layer-' + id);
        if (!layer) return;
        if (layer.classList.contains('hidden')) {
          layer.classList.remove('hidden');
        } else {
          layer.classList.add('hidden');
        }
      }
    ]]></script>
<text x="0.4" y="23.6" class="label">SMALL battlefield_A0-B0-W0-R20-S0-T0</text>
<g id="layer-deployment" class="layer ">
</g>
<g id="layer-grid" class="layer ">
<line x1="0" y1="0" x2="0" y2="24" class="grid-line-6mu"/>
<line x1="0.5" y1="0" x2="0.5" y2="24" class="grid-line"/>
<line x1="1" y1="0" x2="1" y2="24" class="grid-line"/>
<line x1="1.5" y1="0" x2="1.5" y2="24" class="grid-line"/>
<line x1="2" y1="0" x2="2" y2="24" class="grid-line-2mu"/>
<line x1="2.5" y1="0" x2="2.5" y2="24" class="grid-line"/>
<line x1="3" y1="0" x2="3" y2="24" class="grid-line"/>
<line x1="3.5" y1="0" x2="3.5" y2="24" class="grid-line"/>
<line x1="4" y1="0" x2="4" y2="24" class="grid-line-2mu"/>
<line x1="4.5" y1="0" x2="4.5" y2="24" class="grid-line"/>
<line x1="5" y1="0" x2="5" y2="24" class="grid-line"/>
<line x1="5.5" y1="0" x2="5.5" y2="24" class="grid-line"/>
<line x1="6" y1="0" x2="6" y2="24" class="grid-line-6mu"/>
<line x1="6.5" y1="0" x2="6.5" y2="24" class="grid-line"/>
<line x1="7" y1="0" x2="7" y2="24" class="grid-line"/>
<line x1="7.5" y1="0" x2="7.5" y2="24" class="grid-line"/>
<line x1="8" y1="0" x2="8" y2="24" class="grid-line-2mu"/>
<line x1="8.5" y1="0" x2="8.5" y2="24" class="grid-line"/>
<line x1="9" y1="0" x2="9" y2="24" class="grid-line"/>
<line x1="9.5" y1="0" x2="9.5" y2="24" class="grid-line"/>
<line x1="10" y1="0" x2="10" y2="24" class="grid-line-2mu"/>
<line x1="10.5" y1="0" x2="10.5" y2="24" class="grid-line"/>
<line x1="11" y1="0" x2="11" y2="24" class="grid-line"/>
<line x1="11.5" y1="0" x2="11.5" y2="24" class="grid-line"/>
<line x1="12" y1="0" x2="12" y2="24" class="grid-line-6mu"/>
<line x1="12.5" y1="0" x2="12.5" y2="24" class="grid-line"/>
<line x1="13" y1="0" x2="13" y2="24" class="grid-line"/>
<line x1="13.5" y1="0" x2="13.5" y2="24" class="grid-line"/>
<line x1="14" y1="0" x2="14" y2="24" class="grid-line-2mu"/>
<line x1="14.5" y1="0" x2="14.5" y2="24" class="grid-line"/>
<line x1="15" y1="0" x2="15" y2="24" class="grid-line"/>
<line x1="15.5" y1="0" x2="15.5" y2="24" class="grid-line"/>
<line x1="16" y1="0" x2="16" y2="24" class="grid-line-2mu"/>
<line x1="16.5" y1="0" x2="16.5" y2="24" class="grid-line"/>
<line x1="17" y1="0" x2="17" y2="24" class="grid-line"/>
<line x1="17.5" y1="0" x2="17.5" y2="24" class="grid-line"/>
<line x1="18" y1="0" x2="18" y2="24" class="grid-line-6mu"/>
<line x1="18.5" y1="0" x2="18.5" y2="24" class="grid-line"/>
<line x1="19" y1="0" x2="19" y2="24" class="grid-line"/>
<line x1="19.5" y1="0" x2="19.5" y2="24" class="grid-line"/>
<line x1="20" y1="0" x2="20" y2="24" class="grid-line-2mu"/>
<line x1="20.5" y1="0" x2="20.5" y2="24" class="grid-line"/>
<line x1="21" y1="0" x2="21" y2="24" class="grid-line"/>
<line x1="21.5" y1="0" x2="21.5" y2="24" class="grid-line"/>
<line x1="22" y1="0" x2="22" y2="24" class="grid-line-2mu"/>
<line x1="22.5" y1="0" x2="22.5" y2="24" class="grid-line"/>
<line x1="23" y1="0" x2="23" y2="24" class="grid-line"/>
<line x1="23.5" y1="0" x2="23.5" y2="24" class="grid-line"/>
<line x1="24" y1="0" x2="24" y2="24" class="grid-line-6mu"/>
<line x1="0" y1="0" x2="24" y2="0" class="grid-line-6mu"/>
<line x1="0" y1="0.5" x2="24" y2="0.5" class="grid-line"/>
<line x1="0" y1="1" x2="24" y2="1" class="grid-line"/>
<line x1="0" y1="1.5" x2="24" y2="1.5" class="grid-line"/>
<line x1="0" y1="2" x2="24" y2="2" class="grid-line-2mu"/>
<line x1="0" y1="2.5" x2="24" y2="2.5" class="grid-line"/>
<line x1="0" y1="3" x2="24" y2="3" class="grid-line"/>
<line x1="0" y1="3.5" x2="24" y2="3.5" class="grid-line"/>
<line x1="0" y1="4" x2="24" y2="4" class="grid-line-2mu"/>
<line x1="0" y1="4.5" x2="24" y2="4.5" class="grid-line"/>
<line x1="0" y1="5" x2="24" y2="5" class="grid-line"/>
<line x1="0" y1="5.5" x2="24" y2="5.5" class="grid-line"/>
<line x1="0" y1="6" x2="24" y2="6" class="grid-line-6mu"/>
<line x1="0" y1="6.5" x2="24" y2="6.5" class="grid-line"/>
<line x1="0" y1="7" x2="24" y2="7" class="grid-line"/>
<line x1="0" y1="7.5" x2="24" y2="7.5" class="grid-line"/>
<line x1="0" y1="8" x2="24" y2="8" class="grid-line-2mu"/>
<line x1="0" y1="8.5" x2="24" y2="8.5" class="grid-line"/>
<line x1="0" y1="9" x2="24" y2="9" class="grid-line"/>
<line x1="0" y1="9.5" x2="24" y2="9.5" class="grid-line"/>
<line x1="0" y1="10" x2="24" y2="10" class="grid-line-2mu"/>
<line x1="0" y1="10.5" x2="24" y2="10.5" class="grid-line"/>
<line x1="0" y1="11" x2="24" y2="11" class="grid-line"/>
<line x1="0" y1="11.5" x2="24" y2="11.5" class="grid-line"/>
<line x1="0" y1="12" x2="24" y2="12" class="grid-line-6mu"/>
<line x1="0" y1="12.5" x2="24" y2="12.5" class="grid-line"/>
<line x1="0" y1="13" x2="24" y2="13" class="grid-line"/>
<line x1="0" y1="13.5" x2="24" y2="13.5" class="grid-line"/>
<line x1="0" y1="14" x2="24" y2="14" class="grid-line-2mu"/>
<line x1="0" y1="14.5" x2="24" y2="14.5" class="grid-line"/>
<line x1="0" y1="15" x2="24" y2="15" class="grid-line"/>
<line x1="0" y1="15.5" x2="24" y2="15.5" class="grid-line"/>
<line x1="0" y1="16" x2="24" y2="16" class="grid-line-2mu"/>
<line x1="0" y1="16.5" x2="24" y2="16.5" class="grid-line"/>
<line x1="0" y1="17" x2="24" y2="17" class="grid-line"/>
<line x1="0" y1="17.5" x2="24" y2="17.5" class="grid-line"/>
<line x1="0" y1="18" x2="24" y2="18" class="grid-line-6mu"/>
<line x1="0" y1="18.5" x2="24" y2="18.5" class="grid-line"/>
<line x1="0" y1="19" x2="24" y2="19" class="grid-line"/>
<line x1="0" y1="19.5" x2="24" y2="19.5" class="grid-line"/>
<line x1="0" y1="20" x2="24" y2="20" class="grid-line-2mu"/>
<line x1="0" y1="20.5" x2="24" y2="20.5" class="grid-line"/>
<line x1="0" y1="21" x2="24" y2="21" class="grid-line"/>
<line x1="0" y1="21.5" x2="24" y2="21.5" class="grid-line"/>
<line x1="0" y1="22" x2="24" y2="22" class="grid-line-2mu"/>
<line x1="0" y1="22.5" x2="24" y2="22.5" class="grid-line"/>
<line x1="0" y1="23" x2="24" y2="23" class="grid-line"/>
<line x1="0" y1="23.5" x2="24" y2="23.5" class="grid-line"/>
<line x1="0" y1="24" x2="24" y2="24" class="grid-line-6mu"/>
</g>
<g id="layer-delaunay" class="layer ">
<line x1="11.757230512325467" y1="12.840536227597825" x2="12.242417533274764" y2="13.881023151765008" class="delaunay-line"/>
<line x1="12.242417533274764" y1="13.881023151765008" x2="12.206789740113791" y2="13.264269990722507" class="delaunay-line"/>
<line x1="12.206789740113791" y1="13.264269990722507" x2="11.757230512325467" y2="12.840536227597825" class="delaunay-line"/>
<line x1="11.757230512325467" y1="12.840536227597825" x2="11.858689883266386" y2="14.59690063283793" class="delaunay-line"/>
<line x1="11.858689883266386" y1="14.59690063283793" x2="12.242417533274764" y2="13.881023151765008" class="delaunay-line"/>
<line x1="12.242417533274764" y1="13.881023151765008" x2="11.757230512325467" y2="12.840536227597825" class="delaunay-line"/>
<line x1="10.962181167076025" y1="12.674331486670564" x2="11.858689883266386" y2="14.59690063283793" class="delaunay-line"/>
<line x1="11.858689883266386" y1="14.59690063283793" x2="11.757230512325467" y2="12.840536227597825" class="delaunay-line"/>
<line x1="11.757230512325467" y1="12.840536227597825" x2="10.962181167076025" y2="12.674331486670564" class="delaunay-line"/>
<line x1="10.962181167076025" y1="12.674331486670564" x2="11.114025846302617" y2="15.302916576893448" class="delaunay-line"/>
<line x1="11.114025846302617" y1="15.302916576893448" x2="11.858689883266386" y2="14.59690063283793" class="delaunay-line"/>
<line x1="11.858689883266386" y1="14.59690063283793" x2="10.962181167076025" y2="12.674331486670564" class="delaunay-line"/>
<line x1="9.942680760039426" y1="12.790958933097173" x2="11.114025846302617" y2="15.302916576893448" class="delaunay-line"/>
<line x1="11.114025846302617" y1="15.302916576893448" x2="10.962181167076025" y2="12.674331486670564" class="delaunay-line"/>
<line x1="10.962181167076025" y1="12.674331486670564" x2="9.942680760039426" y2="12.790958933097173" class="delaunay-line"/>
<line x1="9.942680760039426" y1="12.790958933097173" x2="8.85393898639279" y2="13.172663095389634" class="delaunay-line"/>
<line x1="8.85393898639279" y1="13.172663095389634" x2="11.114025846302617" y2="15.302916576893448" class="delaunay-line"/>
<line x1="11.114025846302617" y1="15.302916576893448" x2="9.942680760039426" y2="12.790958933097173" class="delaunay-line"/>
<line x1="8.85393898639279" y1="13.172663095389634" x2="10.12179377161489" y2="15.891586456499581" class="delaunay-line"/>
<line x1="10.12179377161489" y1="15.891586456499581" x2="11.114025846302617" y2="15.302916576893448" class="delaunay-line"/>
<line x1="11.114025846302617" y1="15.302916576893448" x2="8.85393898639279" y2="13.172663095389634" class="delaunay-line"/>
<line x1="8.85393898639279" y1="13.172663095389634" x2="9.033051997968254" y2="16.273290618792043" class="delaunay-line"/>
<line x1="9.033051997968254" y1="16.273290618792043" x2="10.12179377161489" y2="15.891586456499581" class="delaunay-line"/>
<line x1="10.12179377161489" y1="15.891586456499581" x2="8.85393898639279" y2="13.172663095389634" class="delaunay-line"/>
<line x1="8.85393898639279" y1="13.172663095389634" x2="7.8617069117050615" y2="13.761332974995767" class="delaunay-line"/>
<line x1="7.8617069117050615" y1="13.761332974995767" x2="9.033051997968254" y2="16.273290618792043" class="delaunay-line"/>
<line x1="9.033051997968254" y1="16.273290618792043" x2="8.85393898639279" y2="13.172663095389634" class="delaunay-line"/>
<line x1="7.8617069117050615" y1="13.761332974995767" x2="8.013551590931655" y2="16.38991806521865" class="delaunay-line"/>
<line x1="8.013551590931655" y1="16.38991806521865" x2="9.033051997968254" y2="16.273290618792043" class="delaunay-line"/>
<line x1="9.033051997968254" y1="16.273290618792043" x2="7.8617069117050615" y2="13.761332974995767" class="delaunay-line"/>
<line x1="7.8617069117050615" y1="13.761332974995767" x2="7.117042874741293" y2="14.467348919051286" class="delaunay-line"/>
<line x1="7.117042874741293" y1="14.467348919051286" x2="8.013551590931655" y2="16.38991806521865" class="delaunay-line"/>
<line x1="8.013551590931655" y1="16.38991806521865" x2="7.8617069117050615" y2="13.761332974995767" class="delaunay-line"/>
<line x1="7.117042874741293" y1="14.467348919051286" x2="6.733315224732916" y2="15.183226400124207" class="delaunay-line"/>
<line x1="6.733315224732916" y1="15.183226400124207" x2="8.013551590931655" y2="16.38991806521865" class="delaunay-line"/>
<line x1="8.013551590931655" y1="16.38991806521865" x2="7.117042874741293" y2="14.467348919051286" class="delaunay-line"/>
<line x1="6.733315224732916" y1="15.183226400124207" x2="7.218502245682213" y2="16.223713324291392" class="delaunay-line"/>
<line x1="7.218502245682213" y1="16.223713324291392" x2="8.013551590931655" y2="16.38991806521865" class="delaunay-line"/>
<line x1="8.013551590931655" y1="16.38991806521865" x2="6.733315224732916" y2="15.183226400124207" class="delaunay-line"/>
<line x1="6.733315224732916" y1="15.183226400124207" x2="6.768943017893891" y2="15.799979561166708" class="delaunay-line"/>
<line x1="6.768943017893891" y1="15.799979561166708" x2="7.218502245682213" y2="16.223713324291392" class="delaunay-line"/>
<line x1="7.218502245682213" y1="16.223713324291392" x2="6.733315224732916" y2="15.183226400124207" class="delaunay-line"/>
<line x1="18.109788937422213" y1="10.743189818100861" x2="17.62056313825628" y2="9.841169220421278" class="delaunay-line"/>
<line x1="17.62056313825628" y1="9.841169220421278" x2="12.206789740113791" y2="13.264269990722507" class="delaunay-line"/>
<line x1="12.206789740113791" y1="13.264269990722507" x2="18.109788937422213" y2="10.743189818100861" class="delaunay-line"/>
<line x1="12.206789740113791" y1="13.264269990722507" x2="17.62056313825628" y2="9.841169220421278" class="delaunay-line"/>
<line x1="17.62056313825628" y1="9.841169220421278" x2="11.757230512325467" y2="12.840536227597825" class="delaunay-line"/>
<line x1="11.757230512325467" y1="12.840536227597825" x2="12.206789740113791" y2="13.264269990722507" class="delaunay-line"/>
<line x1="11.757230512325467" y1="12.840536227597825" x2="17.221849454335135" y2="7.579951553566497" class="delaunay-line"/>
<line x1="17.221849454335135" y1="7.579951553566497" x2="10.962181167076025" y2="12.674331486670564" class="delaunay-line"/>
<line x1="10.962181167076025" y1="12.674331486670564" x2="11.757230512325467" y2="12.840536227597825" class="delaunay-line"/>
<line x1="7.969785402677667" y1="4.357169196421924" x2="7.38050319610233" y2="4.704644294483232" class="delaunay-line"/>
<line x1="7.38050319610233" y1="4.704644294483232" x2="9.942680760039426" y2="12.790958933097173" class="delaunay-line"/>
<line x1="9.942680760039426" y1="12.790958933097173" x2="7.969785402677667" y2="4.357169196421924" class="delaunay-line"/>
<line x1="9.942680760039426" y1="12.790958933097173" x2="6.851226345207404" y2="4.819004371585636" class="delaunay-line"/>
<line x1="6.851226345207404" y1="4.819004371585636" x2="8.85393898639279" y2="13.172663095389634" class="delaunay-line"/>
<line x1="8.85393898639279" y1="13.172663095389634" x2="9.942680760039426" y2="12.790958933097173" class="delaunay-line"/>
<line x1="18.109788937422213" y1="10.743189818100861" x2="12.206789740113791" y2="13.264269990722507" class="delaunay-line"/>
<line x1="12.206789740113791" y1="13.264269990722507" x2="12.242417533274764" y2="13.881023151765008" class="delaunay-line"/>
<line x1="12.242417533274764" y1="13.881023151765008" x2="18.109788937422213" y2="10.743189818100861" class="delaunay-line"/>
<line x1="18.109788937422213" y1="10.743189818100861" x2="12.242417533274764" y2="13.881023151765008" class="delaunay-line"/>
<line x1="12.242417533274764" y1="13.881023151765008" x2="18.701957460894707" y2="11.29912499156686" class="delaunay-line"/>
<line x1="18.701957460894707" y1="11.29912499156686" x2="18.109788937422213" y2="10.743189818100861" class="delaunay-line"/>
<line x1="18.701957460894707" y1="11.29912499156686" x2="12.242417533274764" y2="13.881023151765008" class="delaunay-line"/>
<line x1="12.242417533274764" y1="13.881023151765008" x2="11.858689883266386" y2="14.59690063283793" class="delaunay-line"/>
<line x1="11.858689883266386" y1="14.59690063283793" x2="18.701957460894707" y2="11.29912499156686" class="delaunay-line"/>
<line x1="19.30691641899611" y1="11.42433865022397" x2="18.701957460894707" y2="11.29912499156686" class="delaunay-line"/>
<line x1="18.701957460894707" y1="11.29912499156686" x2="11.858689883266386" y2="14.59690063283793" class="delaunay-line"/>
<line x1="11.858689883266386" y1="14.59690063283793" x2="19.30691641899611" y2="11.42433865022397" class="delaunay-line"/>
<line x1="18.109788937422213" y1="10.743189818100861" x2="20.350094317655504" y2="9.359879228808195" class="delaunay-line"/>
<line x1="20.350094317655504" y1="9.359879228808195" x2="17.62056313825628" y2="9.841169220421278" class="delaunay-line"/>
<line x1="17.62056313825628" y1="9.841169220421278" x2="18.109788937422213" y2="10.743189818100861" class="delaunay-line"/>
<line x1="19.30691641899611" y1="11.42433865022397" x2="11.858689883266386" y2="14.59690063283793" class="delaunay-line"/>
<line x1="11.858689883266386" y1="14.59690063283793" x2="24" y2="24" class="delaunay-line"/>
<line x1="24" y1="24" x2="19.30691641899611" y2="11.42433865022397" class="delaunay-line"/>
<line x1="20.26318351551363" y1="8.20944312468695" x2="17.308760256477008" y2="8.730387657687741" class="delaunay-line"/>
<line x1="17.308760256477008" y1="8.730387657687741" x2="17.62056313825628" y2="9.841169220421278" class="delaunay-line"/>
<line x1="17.62056313825628" y1="9.841169220421278" x2="20.26318351551363" y2="8.20944312468695" class="delaunay-line"/>
<line x1="17.62056313825628" y1="9.841169220421278" x2="17.308760256477008" y2="8.730387657687741" class="delaunay-line"/>
<line x1="17.308760256477008" y1="8.730387657687741" x2="11.757230512325467" y2="12.840536227597825" class="delaunay-line"/>
<line x1="11.757230512325467" y1="12.840536227597825" x2="17.62056313825628" y2="9.841169220421278" class="delaunay-line"/>
<line x1="24" y1="24" x2="11.858689883266386" y2="14.59690063283793" class="delaunay-line"/>
<line x1="11.858689883266386" y1="14.59690063283793" x2="11.114025846302617" y2="15.302916576893448" class="delaunay-line"/>
<line x1="11.114025846302617" y1="15.302916576893448" x2="24" y2="24" class="delaunay-line"/>
<line x1="18.701957460894707" y1="11.29912499156686" x2="19.8325662943221" y2="11.099768149606287" class="delaunay-line"/>
<line x1="19.8325662943221" y1="11.099768149606287" x2="18.109788937422213" y2="10.743189818100861" class="delaunay-line"/>
<line x1="18.109788937422213" y1="10.743189818100861" x2="18.701957460894707" y2="11.29912499156686" class="delaunay-line"/>
<line x1="19.95138063373436" y1="7.0986615619534135" x2="17.221849454335135" y2="7.579951553566497" class="delaunay-line"/>
<line x1="17.221849454335135" y1="7.579951553566497" x2="17.308760256477008" y2="8.730387657687741" class="delaunay-line"/>
<line x1="17.308760256477008" y1="8.730387657687741" x2="19.95138063373436" y2="7.0986615619534135" class="delaunay-line"/>
<line x1="17.308760256477008" y1="8.730387657687741" x2="17.221849454335135" y2="7.579951553566497" class="delaunay-line"/>
<line x1="17.221849454335135" y1="7.579951553566497" x2="11.757230512325467" y2="12.840536227597825" class="delaunay-line"/>
<line x1="11.757230512325467" y1="12.840536227597825" x2="17.308760256477008" y2="8.730387657687741" class="delaunay-line"/>
<line x1="8.85393898639279" y1="13.172663095389634" x2="6.851226345207404" y2="4.819004371585636" class="delaunay-line"/>
<line x1="6.851226345207404" y1="4.819004371585636" x2="7.8617069117050615" y2="13.761332974995767" class="delaunay-line"/>
<line x1="7.8617069117050615" y1="13.761332974995767" x2="8.85393898639279" y2="13.172663095389634" class="delaunay-line"/>
<line x1="19.30691641899611" y1="11.42433865022397" x2="19.8325662943221" y2="11.099768149606287" class="delaunay-line"/>
<line x1="19.8325662943221" y1="11.099768149606287" x2="18.701957460894707" y2="11.29912499156686" class="delaunay-line"/>
<line x1="18.701957460894707" y1="11.29912499156686" x2="19.30691641899611" y2="11.42433865022397" class="delaunay-line"/>
<line x1="19.95138063373436" y1="7.0986615619534135" x2="17.37306211360837" y2="6.56500437618075" class="delaunay-line"/>
<line x1="17.37306211360837" y1="6.56500437618075" x2="17.221849454335135" y2="7.579951553566497" class="delaunay-line"/>
<line x1="17.221849454335135" y1="7.579951553566497" x2="19.95138063373436" y2="7.0986615619534135" class="delaunay-line"/>
<line x1="7.969785402677667" y1="4.357169196421924" x2="9.942680760039426" y2="12.790958933097173" class="delaunay-line"/>
<line x1="9.942680760039426" y1="12.790958933097173" x2="10.962181167076025" y2="12.674331486670564" class="delaunay-line"/>
<line x1="10.962181167076025" y1="12.674331486670564" x2="7.969785402677667" y2="4.357169196421924" class="delaunay-line"/>
<line x1="19.8325662943221" y1="11.099768149606287" x2="20.19888165838227" y2="10.374826406193943" class="delaunay-line"/>
<line x1="20.19888165838227" y1="10.374826406193943" x2="18.109788937422213" y2="10.743189818100861" class="delaunay-line"/>
<line x1="18.109788937422213" y1="10.743189818100861" x2="19.8325662943221" y2="11.099768149606287" class="delaunay-line"/>
<line x1="7.969785402677667" y1="4.357169196421924" x2="10.962181167076025" y2="12.674331486670564" class="delaunay-line"/>
<line x1="10.962181167076025" y1="12.674331486670564" x2="8.529360090838825" y2="3.829479011211939" class="delaunay-line"/>
<line x1="8.529360090838825" y1="3.829479011211939" x2="7.969785402677667" y2="4.357169196421924" class="delaunay-line"/>
<line x1="7.8617069117050615" y1="13.761332974995767" x2="6.462532452635039" y2="4.682839142666976" class="delaunay-line"/>
<line x1="6.462532452635039" y1="4.682839142666976" x2="7.117042874741293" y2="14.467348919051286" class="delaunay-line"/>
<line x1="7.117042874741293" y1="14.467348919051286" x2="7.8617069117050615" y2="13.761332974995767" class="delaunay-line"/>
<line x1="7.117042874741293" y1="14.467348919051286" x2="6.462532452635039" y2="4.682839142666976" class="delaunay-line"/>
<line x1="6.462532452635039" y1="4.682839142666976" x2="6.733315224732916" y2="15.183226400124207" class="delaunay-line"/>
<line x1="6.733315224732916" y1="15.183226400124207" x2="7.117042874741293" y2="14.467348919051286" class="delaunay-line"/>
<line x1="20.19888165838227" y1="10.374826406193943" x2="20.350094317655504" y2="9.359879228808195" class="delaunay-line"/>
<line x1="20.350094317655504" y1="9.359879228808195" x2="18.109788937422213" y2="10.743189818100861" class="delaunay-line"/>
<line x1="18.109788937422213" y1="10.743189818100861" x2="20.19888165838227" y2="10.374826406193943" class="delaunay-line"/>
<line x1="8.529360090838825" y1="3.829479011211939" x2="10.962181167076025" y2="12.674331486670564" class="delaunay-line"/>
<line x1="10.962181167076025" y1="12.674331486670564" x2="17.221849454335135" y2="7.579951553566497" class="delaunay-line"/>
<line x1="17.221849454335135" y1="7.579951553566497" x2="8.529360090838825" y2="3.829479011211939" class="delaunay-line"/>
<line x1="6.462532452635039" y1="4.682839142666976" x2="6.851226345207404" y2="4.819004371585636" class="delaunay-line"/>
<line x1="6.851226345207404" y1="4.819004371585636" x2="6.273596640010471" y2="4.316878529489244" class="delaunay-line"/>
<line x1="6.273596640010471" y1="4.316878529489244" x2="6.462532452635039" y2="4.682839142666976" class="delaunay-line"/>
<line x1="7.38050319610233" y1="4.704644294483232" x2="6.851226345207404" y2="4.819004371585636" class="delaunay-line"/>
<line x1="6.851226345207404" y1="4.819004371585636" x2="9.942680760039426" y2="12.790958933097173" class="delaunay-line"/>
<line x1="9.942680760039426" y1="12.790958933097173" x2="7.38050319610233" y2="4.704644294483232" class="delaunay-line"/>
<line x1="18.26502735299453" y1="5.515492132150722" x2="17.739377477668544" y2="5.840062632768404" class="delaunay-line"/>
<line x1="17.739377477668544" y1="5.840062632768404" x2="18.869986311095932" y2="5.640705790807832" class="delaunay-line"/>
<line x1="18.869986311095932" y1="5.640705790807832" x2="18.26502735299453" y2="5.515492132150722" class="delaunay-line"/>
<line x1="17.37306211360837" y1="6.56500437618075" x2="8.529360090838825" y2="3.829479011211939" class="delaunay-line"/>
<line x1="8.529360090838825" y1="3.829479011211939" x2="17.221849454335135" y2="7.579951553566497" class="delaunay-line"/>
<line x1="17.221849454335135" y1="7.579951553566497" x2="17.37306211360837" y2="6.56500437618075" class="delaunay-line"/>
<line x1="8.974037086870448" y1="3.2019097860280583" x2="8.529360090838825" y2="3.829479011211939" class="delaunay-line"/>
<line x1="8.529360090838825" y1="3.829479011211939" x2="17.37306211360837" y2="6.56500437618075" class="delaunay-line"/>
<line x1="17.37306211360837" y1="6.56500437618075" x2="8.974037086870448" y2="3.2019097860280583" class="delaunay-line"/>
<line x1="6.273596640010471" y1="4.316878529489244" x2="6.851226345207404" y2="4.819004371585636" class="delaunay-line"/>
<line x1="6.851226345207404" y1="4.819004371585636" x2="7.38050319610233" y2="4.704644294483232" class="delaunay-line"/>
<line x1="7.38050319610233" y1="4.704644294483232" x2="6.273596640010471" y2="4.316878529489244" class="delaunay-line"/>
<line x1="6.273596640010471" y1="4.316878529489244" x2="7.38050319610233" y2="4.704644294483232" class="delaunay-line"/>
<line x1="7.38050319610233" y1="4.704644294483232" x2="6.313182672098379" y2="3.776836717967532" class="delaunay-line"/>
<line x1="6.313182672098379" y1="3.776836717967532" x2="6.273596640010471" y2="4.316878529489244" class="delaunay-line"/>
<line x1="6.851226345207404" y1="4.819004371585636" x2="6.462532452635039" y2="4.682839142666976" class="delaunay-line"/>
<line x1="6.462532452635039" y1="4.682839142666976" x2="7.8617069117050615" y2="13.761332974995767" class="delaunay-line"/>
<line x1="7.8617069117050615" y1="13.761332974995767" x2="6.851226345207404" y2="4.819004371585636" class="delaunay-line"/>
<line x1="20.350094317655504" y1="9.359879228808195" x2="20.26318351551363" y2="8.20944312468695" class="delaunay-line"/>
<line x1="20.26318351551363" y1="8.20944312468695" x2="17.62056313825628" y2="9.841169220421278" class="delaunay-line"/>
<line x1="17.62056313825628" y1="9.841169220421278" x2="20.350094317655504" y2="9.359879228808195" class="delaunay-line"/>
<line x1="18.869986311095932" y1="5.640705790807832" x2="17.739377477668544" y2="5.840062632768404" class="delaunay-line"/>
<line x1="17.739377477668544" y1="5.840062632768404" x2="19.46215483456843" y2="6.19664096427383" class="delaunay-line"/>
<line x1="19.46215483456843" y1="6.19664096427383" x2="18.869986311095932" y2="5.640705790807832" class="delaunay-line"/>
<line x1="9.236118349133728" y1="2.5700032464753324" x2="8.974037086870448" y2="3.2019097860280583" class="delaunay-line"/>
<line x1="8.974037086870448" y1="3.2019097860280583" x2="17.37306211360837" y2="6.56500437618075" class="delaunay-line"/>
<line x1="17.37306211360837" y1="6.56500437618075" x2="9.236118349133728" y2="2.5700032464753324" class="delaunay-line"/>
<line x1="6.313182672098379" y1="3.776836717967532" x2="7.38050319610233" y2="4.704644294483232" class="delaunay-line"/>
<line x1="7.38050319610233" y1="4.704644294483232" x2="6.575263934361659" y2="3.144930178414808" class="delaunay-line"/>
<line x1="6.575263934361659" y1="3.144930178414808" x2="6.313182672098379" y2="3.776836717967532" class="delaunay-line"/>
<line x1="6.462532452635039" y1="4.682839142666976" x2="0" y2="0" class="delaunay-line"/>
<line x1="0" y1="0" x2="6.733315224732916" y2="15.183226400124207" class="delaunay-line"/>
<line x1="6.733315224732916" y1="15.183226400124207" x2="6.462532452635039" y2="4.682839142666976" class="delaunay-line"/>
<line x1="9.236118349133728" y1="2.5700032464753324" x2="17.37306211360837" y2="6.56500437618075" class="delaunay-line"/>
<line x1="17.37306211360837" y1="6.56500437618075" x2="17.739377477668544" y2="5.840062632768404" class="delaunay-line"/>
<line x1="17.739377477668544" y1="5.840062632768404" x2="9.236118349133728" y2="2.5700032464753324" class="delaunay-line"/>
<line x1="6.575263934361659" y1="3.144930178414808" x2="7.38050319610233" y2="4.704644294483232" class="delaunay-line"/>
<line x1="7.38050319610233" y1="4.704644294483232" x2="7.969785402677667" y2="4.357169196421924" class="delaunay-line"/>
<line x1="7.969785402677667" y1="4.357169196421924" x2="6.575263934361659" y2="3.144930178414808" class="delaunay-line"/>
<line x1="20.26318351551363" y1="8.20944312468695" x2="19.95138063373436" y2="7.0986615619534135" class="delaunay-line"/>
<line x1="19.95138063373436" y1="7.0986615619534135" x2="17.308760256477008" y2="8.730387657687741" class="delaunay-line"/>
<line x1="17.308760256477008" y1="8.730387657687741" x2="20.26318351551363" y2="8.20944312468695" class="delaunay-line"/>
<line x1="19.46215483456843" y1="6.19664096427383" x2="17.739377477668544" y2="5.840062632768404" class="delaunay-line"/>
<line x1="17.739377477668544" y1="5.840062632768404" x2="17.37306211360837" y2="6.56500437618075" class="delaunay-line"/>
<line x1="17.37306211360837" y1="6.56500437618075" x2="19.46215483456843" y2="6.19664096427383" class="delaunay-line"/>
<line x1="9.275704381221638" y1="2.029961434953619" x2="9.236118349133728" y2="2.5700032464753324" class="delaunay-line"/>
<line x1="9.236118349133728" y1="2.5700032464753324" x2="17.739377477668544" y2="5.840062632768404" class="delaunay-line"/>
<line x1="17.739377477668544" y1="5.840062632768404" x2="9.275704381221638" y2="2.029961434953619" class="delaunay-line"/>
<line x1="19.95138063373436" y1="7.0986615619534135" x2="19.46215483456843" y2="6.19664096427383" class="delaunay-line"/>
<line x1="19.46215483456843" y1="6.19664096427383" x2="17.37306211360837" y2="6.56500437618075" class="delaunay-line"/>
<line x1="17.37306211360837" y1="6.56500437618075" x2="19.95138063373436" y2="7.0986615619534135" class="delaunay-line"/>
<line x1="6.575263934361659" y1="3.144930178414808" x2="7.969785402677667" y2="4.357169196421924" class="delaunay-line"/>
<line x1="7.969785402677667" y1="4.357169196421924" x2="8.529360090838825" y2="3.829479011211939" class="delaunay-line"/>
<line x1="8.529360090838825" y1="3.829479011211939" x2="6.575263934361659" y2="3.144930178414808" class="delaunay-line"/>
<line x1="9.275704381221638" y1="2.029961434953619" x2="17.739377477668544" y2="5.840062632768404" class="delaunay-line"/>
<line x1="17.739377477668544" y1="5.840062632768404" x2="18.26502735299453" y2="5.515492132150722" class="delaunay-line"/>
<line x1="18.26502735299453" y1="5.515492132150722" x2="9.275704381221638" y2="2.029961434953619" class="delaunay-line"/>
<line x1="7.019940930393282" y1="2.517360953230925" x2="6.575263934361659" y2="3.144930178414808" class="delaunay-line"/>
<line x1="6.575263934361659" y1="3.144930178414808" x2="8.529360090838825" y2="3.829479011211939" class="delaunay-line"/>
<line x1="8.529360090838825" y1="3.829479011211939" x2="7.019940930393282" y2="2.517360953230925" class="delaunay-line"/>
<line x1="7.019940930393282" y1="2.517360953230925" x2="8.529360090838825" y2="3.829479011211939" class="delaunay-line"/>
<line x1="8.529360090838825" y1="3.829479011211939" x2="7.57951561855444" y2="1.9896707680209413" class="delaunay-line"/>
<line x1="7.57951561855444" y1="1.9896707680209413" x2="7.019940930393282" y2="2.517360953230925" class="delaunay-line"/>
<line x1="9.08676856859707" y1="1.6640008217758884" x2="9.275704381221638" y2="2.029961434953619" class="delaunay-line"/>
<line x1="9.275704381221638" y1="2.029961434953619" x2="18.26502735299453" y2="5.515492132150722" class="delaunay-line"/>
<line x1="18.26502735299453" y1="5.515492132150722" x2="9.08676856859707" y2="1.6640008217758884" class="delaunay-line"/>
<line x1="7.57951561855444" y1="1.9896707680209413" x2="8.529360090838825" y2="3.829479011211939" class="delaunay-line"/>
<line x1="8.529360090838825" y1="3.829479011211939" x2="8.974037086870448" y2="3.2019097860280583" class="delaunay-line"/>
<line x1="8.974037086870448" y1="3.2019097860280583" x2="7.57951561855444" y2="1.9896707680209413" class="delaunay-line"/>
<line x1="7.57951561855444" y1="1.9896707680209413" x2="8.974037086870448" y2="3.2019097860280583" class="delaunay-line"/>
<line x1="8.974037086870448" y1="3.2019097860280583" x2="9.236118349133728" y2="2.5700032464753324" class="delaunay-line"/>
<line x1="9.236118349133728" y1="2.5700032464753324" x2="7.57951561855444" y2="1.9896707680209413" class="delaunay-line"/>
<line x1="24" y1="0" x2="9.08676856859707" y2="1.6640008217758884" class="delaunay-line"/>
<line x1="9.08676856859707" y1="1.6640008217758884" x2="18.26502735299453" y2="5.515492132150722" class="delaunay-line"/>
<line x1="18.26502735299453" y1="5.515492132150722" x2="24" y2="0" class="delaunay-line"/>
<line x1="9.275704381221638" y1="2.029961434953619" x2="8.698074676024705" y2="1.5278355928572287" class="delaunay-line"/>
<line x1="8.698074676024705" y1="1.5278355928572287" x2="9.236118349133728" y2="2.5700032464753324" class="delaunay-line"/>
<line x1="9.236118349133728" y1="2.5700032464753324" x2="9.275704381221638" y2="2.029961434953619" class="delaunay-line"/>
<line x1="8.168797825129777" y1="1.642195669959633" x2="7.57951561855444" y2="1.9896707680209413" class="delaunay-line"/>
<line x1="7.57951561855444" y1="1.9896707680209413" x2="9.236118349133728" y2="2.5700032464753324" class="delaunay-line"/>
<line x1="9.236118349133728" y1="2.5700032464753324" x2="8.168797825129777" y2="1.642195669959633" class="delaunay-line"/>
<line x1="9.08676856859707" y1="1.6640008217758884" x2="8.698074676024705" y2="1.5278355928572287" class="delaunay-line"/>
<line x1="8.698074676024705" y1="1.5278355928572287" x2="9.275704381221638" y2="2.029961434953619" class="delaunay-line"/>
<line x1="9.275704381221638" y1="2.029961434953619" x2="9.08676856859707" y2="1.6640008217758884" class="delaunay-line"/>
<line x1="8.698074676024705" y1="1.5278355928572287" x2="8.168797825129777" y2="1.642195669959633" class="delaunay-line"/>
<line x1="8.168797825129777" y1="1.642195669959633" x2="9.236118349133728" y2="2.5700032464753324" class="delaunay-line"/>
<line x1="9.236118349133728" y1="2.5700032464753324" x2="8.698074676024705" y2="1.5278355928572287" class="delaunay-line"/>
<line x1="0" y1="0" x2="0" y2="24" class="delaunay-line"/>
<line x1="0" y1="24" x2="6.733315224732916" y2="15.183226400124207" class="delaunay-line"/>
<line x1="6.733315224732916" y1="15.183226400124207" x2="0" y2="0" class="delaunay-line"/>
<line x1="6.733315224732916" y1="15.183226400124207" x2="0" y2="24" class="delaunay-line"/>
<line x1="0" y1="24" x2="6.768943017893891" y2="15.799979561166708" class="delaunay-line"/>
<line x1="6.768943017893891" y1="15.799979561166708" x2="6.733315224732916" y2="15.183226400124207" class="delaunay-line"/>
<line x1="6.768943017893891" y1="15.799979561166708" x2="0" y2="24" class="delaunay-line"/>
<line x1="0" y1="24" x2="7.218502245682213" y2="16.223713324291392" class="delaunay-line"/>
<line x1="7.218502245682213" y1="16.223713324291392" x2="6.768943017893891" y2="15.799979561166708" class="delaunay-line"/>
<line x1="7.218502245682213" y1="16.223713324291392" x2="0" y2="24" class="delaunay-line"/>
<line x1="0" y1="24" x2="8.013551590931655" y2="16.38991806521865" class="delaunay-line"/>
<line x1="8.013551590931655" y1="16.38991806521865" x2="7.218502245682213" y2="16.223713324291392" class="delaunay-line"/>
<line x1="8.013551590931655" y1="16.38991806521865" x2="0" y2="24" class="delaunay-line"/>
<line x1="0" y1="24" x2="9.033051997968254" y2="16.273290618792043" class="delaunay-line"/>
<line x1="9.033051997968254" y1="16.273290618792043" x2="8.013551590931655" y2="16.38991806521865" class="delaunay-line"/>
<line x1="9.033051997968254" y1="16.273290618792043" x2="24" y2="24" class="delaunay-line"/>
<line x1="24" y1="24" x2="10.12179377161489" y2="15.891586456499581" class="delaunay-line"/>
<line x1="10.12179377161489" y1="15.891586456499581" x2="9.033051997968254" y2="16.273290618792043" class="delaunay-line"/>
<line x1="10.12179377161489" y1="15.891586456499581" x2="24" y2="24" class="delaunay-line"/>
<line x1="24" y1="24" x2="11.114025846302617" y2="15.302916576893448" class="delaunay-line"/>
<line x1="11.114025846302617" y1="15.302916576893448" x2="10.12179377161489" y2="15.891586456499581" class="delaunay-line"/>
<line x1="19.30691641899611" y1="11.42433865022397" x2="24" y2="24" class="delaunay-line"/>
<line x1="24" y1="24" x2="19.8325662943221" y2="11.099768149606287" class="delaunay-line"/>
<line x1="19.8325662943221" y1="11.099768149606287" x2="19.30691641899611" y2="11.42433865022397" class="delaunay-line"/>
<line x1="0" y1="0" x2="6.462532452635039" y2="4.682839142666976" class="delaunay-line"/>
<line x1="6.462532452635039" y1="4.682839142666976" x2="6.273596640010471" y2="4.316878529489244" class="delaunay-line"/>
<line x1="6.273596640010471" y1="4.316878529489244" x2="0" y2="0" class="delaunay-line"/>
<line x1="0" y1="24" x2="24" y2="24" class="delaunay-line"/>
<line x1="24" y1="24" x2="9.033051997968254" y2="16.273290618792043" class="delaunay-line"/>
<line x1="9.033051997968254" y1="16.273290618792043" x2="0" y2="24" class="delaunay-line"/>
<line x1="19.8325662943221" y1="11.099768149606287" x2="24" y2="24" class="delaunay-line"/>
<line x1="24" y1="24" x2="20.19888165838227" y2="10.374826406193943" class="delaunay-line"/>
<line x1="20.19888165838227" y1="10.374826406193943" x2="19.8325662943221" y2="11.099768149606287" class="delaunay-line"/>
<line x1="20.19888165838227" y1="10.374826406193943" x2="24" y2="24" class="delaunay-line"/>
<line x1="24" y1="24" x2="20.350094317655504" y2="9.359879228808195" class="delaunay-line"/>
<line x1="20.350094317655504" y1="9.359879228808195" x2="20.19888165838227" y2="10.374826406193943" class="delaunay-line"/>
<line x1="20.350094317655504" y1="9.359879228808195" x2="24" y2="0" class="delaunay-line"/>
<line x1="24" y1="0" x2="20.26318351551363" y2="8.20944312468695" class="delaunay-line"/>
<line x1="20.26318351551363" y1="8.20944312468695" x2="20.350094317655504" y2="9.359879228808195" class="delaunay-line"/>
<line x1="6.575263934361659" y1="3.144930178414808" x2="0" y2="0" class="delaunay-line"/>
<line x1="0" y1="0" x2="6.313182672098379" y2="3.776836717967532" class="delaunay-line"/>
<line x1="6.313182672098379" y1="3.776836717967532" x2="6.575263934361659" y2="3.144930178414808" class="delaunay-line"/>
<line x1="6.313182672098379" y1="3.776836717967532" x2="0" y2="0" class="delaunay-line"/>
<line x1="0" y1="0" x2="6.273596640010471" y2="4.316878529489244" class="delaunay-line"/>
<line x1="6.273596640010471" y1="4.316878529489244" x2="6.313182672098379" y2="3.776836717967532" class="delaunay-line"/>
<line x1="7.019940930393282" y1="2.517360953230925" x2="0" y2="0" class="delaunay-line"/>
<line x1="0" y1="0" x2="6.575263934361659" y2="3.144930178414808" class="delaunay-line"/>
<line x1="6.575263934361659" y1="3.144930178414808" x2="7.019940930393282" y2="2.517360953230925" class="delaunay-line"/>
<line x1="7.57951561855444" y1="1.9896707680209413" x2="0" y2="0" class="delaunay-line"/>
<line x1="0" y1="0" x2="7.019940930393282" y2="2.517360953230925" class="delaunay-line"/>
<line x1="7.019940930393282" y1="2.517360953230925" x2="7.57951561855444" y2="1.9896707680209413" class="delaunay-line"/>
<line x1="8.168797825129777" y1="1.642195669959633" x2="0" y2="0" class="delaunay-line"/>
<line x1="0" y1="0" x2="7.57951561855444" y2="1.9896707680209413" class="delaunay-line"/>
<line x1="7.57951561855444" y1="1.9896707680209413" x2="8.168797825129777" y2="1.642195669959633" class="delaunay-line"/>
<line x1="8.698074676024705" y1="1.5278355928572287" x2="0" y2="0" class="delaunay-line"/>
<line x1="0" y1="0" x2="8.168797825129777" y2="1.642195669959633" class="delaunay-line"/>
<line x1="8.168797825129777" y1="1.642195669959633" x2="8.698074676024705" y2="1.5278355928572287" class="delaunay-line"/>
<line x1="19.46215483456843" y1="6.19664096427383" x2="24" y2="0" class="delaunay-line"/>
<line x1="24" y1="0" x2="18.869986311095932" y2="5.640705790807832" class="delaunay-line"/>
<line x1="18.869986311095932" y1="5.640705790807832" x2="19.46215483456843" y2="6.19664096427383" class="delaunay-line"/>
<line x1="18.869986311095932" y1="5.640705790807832" x2="24" y2="0" class="delaunay-line"/>
<line x1="24" y1="0" x2="18.26502735299453" y2="5.515492132150722" class="delaunay-line"/>
<line x1="18.26502735299453" y1="5.515492132150722" x2="18.869986311095932" y2="5.640705790807832" class="delaunay-line"/>
<line x1="9.08676856859707" y1="1.6640008217758884" x2="24" y2="0" class="delaunay-line"/>
<line x1="24" y1="0" x2="8.698074676024705" y2="1.5278355928572287" class="delaunay-line"/>
<line x1="8.698074676024705" y1="1.5278355928572287" x2="9.08676856859707" y2="1.6640008217758884" class="delaunay-line"/>
<line x1="8.698074676024705" y1="1.5278355928572287" x2="24" y2="0" class="delaunay-line"/>
<line x1="24" y1="0" x2="0" y2="0" class="delaunay-line"/>
<line x1="0" y1="0" x2="8.698074676024705" y2="1.5278355928572287" class="delaunay-line"/>
<line x1="19.95138063373436" y1="7.0986615619534135" x2="24" y2="0" class="delaunay-line"/>
<line x1="24" y1="0" x2="19.46215483456843" y2="6.19664096427383" class="delaunay-line"/>
<line x1="19.46215483456843" y1="6.19664096427383" x2="19.95138063373436" y2="7.0986615619534135" class="delaunay-line"/>
<line x1="20.26318351551363" y1="8.20944312468695" x2="24" y2="0" class="delaunay-line"/>
<line x1="24" y1="0" x2="19.95138063373436" y2="7.0986615619534135" class="delaunay-line"/>
<line x1="19.95138063373436" y1="7.0986615619534135" x2="20.26318351551363" y2="8.20944312468695" class="delaunay-line"/>
<line x1="24" y1="24" x2="24" y2="0" class="delaunay-line"/>
<line x1="24" y1="0" x2="20.350094317655504" y2="9.359879228808195" class="delaunay-line"/>
<line x1="20.350094317655504" y1="9.359879228808195" x2="24" y2="24" class="delaunay-line"/>
</g>
<g id="layer-area" class="layer ">
</g>
<g id="layer-building" class="layer ">
</g>
<g id="layer-wall" class="layer ">
</g>
<g id="layer-tree" class="layer ">
</g>
<g id="layer-rocks" class="layer ">
<polygon points="8.85393898639279,13.172663095389634 9.942680760039426,12.790958933097173 10.962181167076025,12.674331486670564 11.757230512325467,12.840536227597825 12.206789740113791,13.264269990722507 12.242417533274764,13.881023151765008 11.858689883266386,14.59690063283793 11.114025846302617,15.302916576893448 10.12179377161489,15.891586456499581 9.033051997968254,16.273290618792043 8.013551590931655,16.38991806521865 7.218502245682213,16.223713324291392 6.768943017893891,15.799979561166708 6.733315224732916,15.183226400124207 7.117042874741293,14.467348919051286 7.8617069117050615,13.761332974995767" class="terrain-solid"/>
<text x="9.48786637900384" y="14.53212477594461" class="label">#D3D3D3</text>
<polygon points="17.308760256477008,8.730387657687741 17.221849454335135,7.579951553566497 17.37306211360837,6.56500437618075 17.739377477668544,5.840062632768404 18.26502735299453,5.515492132150722 18.869986311095932,5.640705790807832 19.46215483456843,6.19664096427383 19.95138063373436,7.0986615619534135 20.26318351551363,8.20944312468695 20.350094317655504,9.359879228808195 20.19888165838227,10.374826406193943 19.8325662943221,11.099768149606287 19.30691641899611,11.42433865022397 18.701957460894707,11.29912499156686 18.109788937422213,10.743189818100861 17.62056313825628,9.841169220421278" class="terrain-solid"/>
<text x="18.78597188599532" y="8.469915391187346" class="label">#D3D3D3</text>
<polygon points="7.019940930393282,2.517360953230925 7.57951561855444,1.9896707680209413 8.168797825129777,1.642195669959633 8.698074676024705,1.5278355928572287 9.08676856859707,1.6640008217758884 9.275704381221638,2.029961434953619 9.236118349133728,2.5700032464753324 8.974037086870448,3.2019097860280583 8.529360090838825,3.829479011211939 7.969785402677667,4.357169196421924 7.38050319610233,4.704644294483232 6.851226345207404,4.819004371585636 6.462532452635039,4.682839142666976 6.273596640010471,4.316878529489244 6.313182672098379,3.776836717967532 6.575263934361659,3.144930178414808" class="terrain-solid"/>
<text x="7.774650510616054" y="3.173419982221433" class="label">#D3D3D3</text>
</g>
<g id="layer-shrub" class="layer ">
</g>
<g id="layer-terrain" class="layer ">
</g>
<g id="layer-clearance" class="layer hidden">
</g>
<g id="layer-models" class="layer ">
</g>
<g id="layer-paths" class="layer ">
</g>
<g id="layer-vectors" class="layer ">
</g>
<g id="layer-los" class="layer ">
</g>
<g id="layer-lof" class="layer ">
</g>

<g id="legend">
<g class="toggle" onclick="toggleLayer('deployment')"><rect x="0.4" y="0.14999999999999997" width="0.4" height="0.4" fill="#222" stroke="#222" stroke-width="0.05"/><text x="1.0" y="0.5499999999999999" class="label">Deployment Zones</text></g>
<g class="toggle" onclick="toggleLayer('grid')"><rect x="0.4" y="0.95" width="0.4" height="0.4" fill="#222" stroke="#222" stroke-width="0.05"/><text x="1.0" y="1.3499999999999999" class="label">0.5 MU Grid</text></g>
<g class="toggle" onclick="toggleLayer('delaunay')"><rect x="0.4" y="1.7500000000000002" width="0.4" height="0.4" fill="#222" stroke="#222" stroke-width="0.05"/><text x="1.0" y="2.1500000000000004" class="label">Delaunay Mesh</text></g>
<g class="toggle disabled"><rect x="0.4" y="2.55" width="0.4" height="0.4" fill="#222" stroke="#222" stroke-width="0.05"/><text x="1.0" y="2.95" class="label">Area Terrain</text></g>
<g class="toggle disabled"><rect x="0.4" y="3.3499999999999996" width="0.4" height="0.4" fill="#222" stroke="#222" stroke-width="0.05"/><text x="1.0" y="3.75" class="label">Buildings</text></g>
<g class="toggle disabled"><rect x="0.4" y="4.1499999999999995" width="0.4" height="0.4" fill="#222" stroke="#222" stroke-width="0.05"/><text x="1.0" y="4.55" class="label">Walls</text></g>
<g class="toggle disabled"><rect x="0.4" y="4.949999999999999" width="0.4" height="0.4" fill="#222" stroke="#222" stroke-width="0.05"/><text x="1.0" y="5.35" class="label">Trees</text></g>
<g class="toggle" onclick="toggleLayer('rocks')"><rect x="0.4" y="5.749999999999999" width="0.4" height="0.4" fill="#222" stroke="#222" stroke-width="0.05"/><text x="1.0" y="6.1499999999999995" class="label">Rocks</text></g>
<g class="toggle disabled"><rect x="0.4" y="6.549999999999999" width="0.4" height="0.4" fill="#222" stroke="#222" stroke-width="0.05"/><text x="1.0" y="6.949999999999999" class="label">Shrubs</text></g>
<g class="toggle" onclick="toggleLayer('terrain')"><rect x="0.4" y="7.349999999999999" width="0.4" height="0.4" fill="#222" stroke="#222" stroke-width="0.05"/><text x="1.0" y="7.749999999999999" class="label">Other Terrain</text></g>
<g class="toggle" onclick="toggleLayer('clearance')"><rect x="0.4" y="8.15" width="0.4" height="0.4" fill="#fff" stroke="#222" stroke-width="0.05"/><text x="1.0" y="8.549999999999999" class="label">Clearance Zones</text></g>
<g class="toggle" onclick="toggleLayer('models')"><rect x="0.4" y="8.950000000000001" width="0.4" height="0.4" fill="#222" stroke="#222" stroke-width="0.05"/><text x="1.0" y="9.35" class="label">Models</text></g>
<g class="toggle" onclick="toggleLayer('paths')"><rect x="0.4" y="9.750000000000002" width="0.4" height="0.4" fill="#222" stroke="#222" stroke-width="0.05"/><text x="1.0" y="10.15" class="label">Paths</text></g>
<g class="toggle" onclick="toggleLayer('vectors')"><rect x="0.4" y="10.550000000000002" width="0.4" height="0.4" fill="#222" stroke="#222" stroke-width="0.05"/><text x="1.0" y="10.950000000000001" class="label">Vectors</text></g>
<g class="toggle" onclick="toggleLayer('los')"><rect x="0.4" y="11.350000000000003" width="0.4" height="0.4" fill="#222" stroke="#222" stroke-width="0.05"/><text x="1.0" y="11.750000000000002" class="label">LOS</text></g>
<g class="toggle" onclick="toggleLayer('lof')"><rect x="0.4" y="12.150000000000004" width="0.4" height="0.4" fill="#222" stroke="#222" stroke-width="0.05"/><text x="1.0" y="12.550000000000002" class="label">LOF</text></g>
</g>
</svg>