<svg xmlns="http://www.w3.org/2000/svg" viewBox="0 0 24 24" width="960" height="960" font-family="Arial" font-size="0.6">
<defs>
  <style><![CDATA[
    .layer { display: inline; }
    .layer.hidden { display: none; }
    .grid-line { stroke: #999; stroke-width: 0.02; opacity: 0.2; }
    .grid-line-2mu { stroke: #666; stroke-width: 0.04; opacity: 0.4; }
    .grid-line-6mu { stroke: #333; stroke-width: 0.08; opacity: 0.6; }
    .delaunay-line { stroke: #4a6fa5; stroke-width: 0.03; opacity: 0.3; }
    #layer-area { opacity: 0.8; }
    #layer-building, #layer-wall, #layer-tree, #layer-rocks, #layer-shrub, #layer-terrain { opacity: 0.8; }
    .terrain-area { stroke: none; }
    .terrain-solid { stroke: #000; stroke-width: 0.05; }
    .model { stroke: #ff0000; stroke-width: 2; vector-effect: non-scaling-stroke; }
    .path { fill: none; stroke-width: 0.12; }
    .vector { stroke-width: 0.1; }
    .los-ray { stroke-width: 0.08; stroke-dasharray: 0.2 0.2; }
    .lof-ray { stroke-width: 0.08; stroke-dasharray: 0.3 0.15; }
    .label { fill: #111 !important; font-size: 0.6px; }
    .toggle { cursor: pointer; }
    .toggle.disabled { cursor: default; }
    .toggle.disabled rect { stroke: #ccc; fill: #fff; }
    .toggle.disabled text { fill: #ccc; }
#layer-area { fill: #C49A6C; }
  ]]></style>
</defs>
<rect x="0" y="0" width="24" height="24" fill="#ffffff" stroke="#111" stroke-width="0.05"/>
<script><![CDATA[
      function toggleLayer(id) {
        var layer = document.getElementById('layer-' + id);
        if (!layer) return;
        if (layer.classList.contains('hidden')) {
          layer.classList.remove('hidden');
        } else {
          layer.classList.add('hidden');
        }
      }
    ]]></script>
<text x="0.4" y="23.6" class="label">SMALL battlefield_A80-B0-W0-R0-S0-T0</text>
<g id="layer-deployment" class="layer ">
</g>
<g id="layer-grid" class="layer ">
<line x1="0" y1="0" x2="0" y2="24" class="grid-line-6mu"/>
<line x1="0.5" y1="0" x2="0.5" y2="24" class="grid-line"/>
<line x1="1" y1="0" x2="1" y2="24" class="grid-line"/>
<line x1="1.5" y1="0" x2="1.5" y2="24" class="grid-line"/>
<line x1="2" y1="0" x2="2" y2="24" class="grid-line-2mu"/>
<line x1="2.5" y1="0" x2="2.5" y2="24" class="grid-line"/>
<line x1="3" y1="0" x2="3" y2="24" class="grid-line"/>
<line x1="3.5" y1="0" x2="3.5" y2="24" class="grid-line"/>
<line x1="4" y1="0" x2="4" y2="24" class="grid-line-2mu"/>
<line x1="4.5" y1="0" x2="4.5" y2="24" class="grid-line"/>
<line x1="5" y1="0" x2="5" y2="24" class="grid-line"/>
<line x1="5.5" y1="0" x2="5.5" y2="24" class="grid-line"/>
<line x1="6" y1="0" x2="6" y2="24" class="grid-line-6mu"/>
<line x1="6.5" y1="0" x2="6.5" y2="24" class="grid-line"/>
<line x1="7" y1="0" x2="7" y2="24" class="grid-line"/>
<line x1="7.5" y1="0" x2="7.5" y2="24" class="grid-line"/>
<line x1="8" y1="0" x2="8" y2="24" class="grid-line-2mu"/>
<line x1="8.5" y1="0" x2="8.5" y2="24" class="grid-line"/>
<line x1="9" y1="0" x2="9" y2="24" class="grid-line"/>
<line x1="9.5" y1="0" x2="9.5" y2="24" class="grid-line"/>
<line x1="10" y1="0" x2="10" y2="24" class="grid-line-2mu"/>
<line x1="10.5" y1="0" x2="10.5" y2="24" class="grid-line"/>
<line x1="11" y1="0" x2="11" y2="24" class="grid-line"/>
<line x1="11.5" y1="0" x2="11.5" y2="24" class="grid-line"/>
<line x1="12" y1="0" x2="12" y2="24" class="grid-line-6mu"/>
<line x1="12.5" y1="0" x2="12.5" y2="24" class="grid-line"/>
<line x1="13" y1="0" x2="13" y2="24" class="grid-line"/>
<line x1="13.5" y1="0" x2="13.5" y2="24" class="grid-line"/>
<line x1="14" y1="0" x2="14" y2="24" class="grid-line-2mu"/>
<line x1="14.5" y1="0" x2="14.5" y2="24" class="grid-line"/>
<line x1="15" y1="0" x2="15" y2="24" class="grid-line"/>
<line x1="15.5" y1="0" x2="15.5" y2="24" class="grid-line"/>
<line x1="16" y1="0" x2="16" y2="24" class="grid-line-2mu"/>
<line x1="16.5" y1="0" x2="16.5" y2="24" class="grid-line"/>
<line x1="17" y1="0" x2="17" y2="24" class="grid-line"/>
<line x1="17.5" y1="0" x2="17.5" y2="24" class="grid-line"/>
<line x1="18" y1="0" x2="18" y2="24" class="grid-line-6mu"/>
<line x1="18.5" y1="0" x2="18.5" y2="24" class="grid-line"/>
<line x1="19" y1="0" x2="19" y2="24" class="grid-line"/>
<line x1="19.5" y1="0" x2="19.5" y2="24" class="grid-line"/>
<line x1="20" y1="0" x2="20" y2="24" class="grid-line-2mu"/>
<line x1="20.5" y1="0" x2="20.5" y2="24" class="grid-line"/>
<line x1="21" y1="0" x2="21" y2="24" class="grid-line"/>
<line x1="21.5" y1="0" x2="21.5" y2="24" class="grid-line"/>
<line x1="22" y1="0" x2="22" y2="24" class="grid-line-2mu"/>
<line x1="22.5" y1="0" x2="22.5" y2="24" class="grid-line"/>
<line x1="23" y1="0" x2="23" y2="24" class="grid-line"/>
<line x1="23.5" y1="0" x2="23.5" y2="24" class="grid-line"/>
<line x1="24" y1="0" x2="24" y2="24" class="grid-line-6mu"/>
<line x1="0" y1="0" x2="24" y2="0" class="grid-line-6mu"/>
<line x1="0" y1="0.5" x2="24" y2="0.5" class="grid-line"/>
<line x1="0" y1="1" x2="24" y2="1" class="grid-line"/>
<line x1="0" y1="1.5" x2="24" y2="1.5" class="grid-line"/>
<line x1="0" y1="2" x2="24" y2="2" class="grid-line-2mu"/>
<line x1="0" y1="2.5" x2="24" y2="2.5" class="grid-line"/>
<line x1="0" y1="3" x2="24" y2="3" class="grid-line"/>
<line x1="0" y1="3.5" x2="24" y2="3.5" class="grid-line"/>
<line x1="0" y1="4" x2="24" y2="4" class="grid-line-2mu"/>
<line x1="0" y1="4.5" x2="24" y2="4.5" class="grid-line"/>
<line x1="0" y1="5" x2="24" y2="5" class="grid-line"/>
<line x1="0" y1="5.5" x2="24" y2="5.5" class="grid-line"/>
<line x1="0" y1="6" x2="24" y2="6" class="grid-line-6mu"/>
<line x1="0" y1="6.5" x2="24" y2="6.5" class="grid-line"/>
<line x1="0" y1="7" x2="24" y2="7" class="grid-line"/>
<line x1="0" y1="7.5" x2="24" y2="7.5" class="grid-line"/>
<line x1="0" y1="8" x2="24" y2="8" class="grid-line-2mu"/>
<line x1="0" y1="8.5" x2="24" y2="8.5" class="grid-line"/>
<line x1="0" y1="9" x2="24" y2="9" class="grid-line"/>
<line x1="0" y1="9.5" x2="24" y2="9.5" class="grid-line"/>
<line x1="0" y1="10" x2="24" y2="10" class="grid-line-2mu"/>
<line x1="0" y1="10.5" x2="24" y2="10.5" class="grid-line"/>
<line x1="0" y1="11" x2="24" y2="11" class="grid-line"/>
<line x1="0" y1="11.5" x2="24" y2="11.5" class="grid-line"/>
<line x1="0" y1="12" x2="24" y2="12" class="grid-line-6mu"/>
<line x1="0" y1="12.5" x2="24" y2="12.5" class="grid-line"/>
<line x1="0" y1="13" x2="24" y2="13" class="grid-line"/>
<line x1="0" y1="13.5" x2="24" y2="13.5" class="grid-line"/>
<line x1="0" y1="14" x2="24" y2="14" class="grid-line-2mu"/>
<line x1="0" y1="14.5" x2="24" y2="14.5" class="grid-line"/>
<line x1="0" y1="15" x2="24" y2="15" class="grid-line"/>
<line x1="0" y1="15.5" x2="24" y2="15.5" class="grid-line"/>
<line x1="0" y1="16" x2="24" y2="16" class="grid-line-2mu"/>
<line x1="0" y1="16.5" x2="24" y2="16.5" class="grid-line"/>
<line x1="0" y1="17" x2="24" y2="17" class="grid-line"/>
<line x1="0" y1="17.5" x2="24" y2="17.5" class="grid-line"/>
<line x1="0" y1="18" x2="24" y2="18" class="grid-line-6mu"/>
<line x1="0" y1="18.5" x2="24" y2="18.5" class="grid-line"/>
<line x1="0" y1="19" x2="24" y2="19" class="grid-line"/>
<line x1="0" y1="19.5" x2="24" y2="19.5" class="grid-line"/>
<line x1="0" y1="20" x2="24" y2="20" class="grid-line-2mu"/>
<line x1="0" y1="20.5" x2="24" y2="20.5" class="grid-line"/>
<line x1="0" y1="21" x2="24" y2="21" class="grid-line"/>
<line x1="0" y1="21.5" x2="24" y2="21.5" class="grid-line"/>
<line x1="0" y1="22" x2="24" y2="22" class="grid-line-2mu"/>
<line x1="0" y1="22.5" x2="24" y2="22.5" class="grid-line"/>
<line x1="0" y1="23" x2="24" y2="23" class="grid-line"/>
<line x1="0" y1="23.5" x2="24" y2="23.5" class="grid-line"/>
<line x1="0" y1="24" x2="24" y2="24" class="grid-line-6mu"/>
</g>
<g id="layer-delaunay" class="layer ">
<line x1="9.369733276946816" y1="11.169430007919075" x2="14.862861246587226" y2="21.117624533413174" class="delaunay-line"/>
<line x1="14.862861246587226" y1="21.117624533413174" x2="17.152569191105762" y2="9.338098332041206" class="delaunay-line"/>
<line x1="17.152569191105762" y1="9.338098332041206" x2="9.369733276946816" y2="11.169430007919075" class="delaunay-line"/>
<line x1="14.862861246587226" y1="21.117624533413174" x2="24" y2="24" class="delaunay-line"/>
<line x1="24" y1="24" x2="17.152569191105762" y2="9.338098332041206" class="delaunay-line"/>
<line x1="17.152569191105762" y1="9.338098332041206" x2="14.862861246587226" y2="21.117624533413174" class="delaunay-line"/>
<line x1="9.369733276946816" y1="11.169430007919075" x2="0.13845349487226688" y2="18.255489602765" class="delaunay-line"/>
<line x1="0.13845349487226688" y1="18.255489602765" x2="14.862861246587226" y2="21.117624533413174" class="delaunay-line"/>
<line x1="14.862861246587226" y1="21.117624533413174" x2="9.369733276946816" y2="11.169430007919075" class="delaunay-line"/>
<line x1="14.862861246587226" y1="21.117624533413174" x2="0" y2="24" class="delaunay-line"/>
<line x1="0" y1="24" x2="24" y2="24" class="delaunay-line"/>
<line x1="24" y1="24" x2="14.862861246587226" y2="21.117624533413174" class="delaunay-line"/>
<line x1="9.107947180387564" y1="-3.8282854194267935" x2="2.428161439390804" y2="6.4759634013930345" class="delaunay-line"/>
<line x1="2.428161439390804" y1="6.4759634013930345" x2="9.369733276946816" y2="11.169430007919075" class="delaunay-line"/>
<line x1="9.369733276946816" y1="11.169430007919075" x2="9.107947180387564" y2="-3.8282854194267935" class="delaunay-line"/>
<line x1="9.369733276946816" y1="11.169430007919075" x2="-2.6284390649298786" y2="11.378858885166476" class="delaunay-line"/>
<line x1="-2.6284390649298786" y1="11.378858885166476" x2="0.13845349487226688" y2="18.255489602765" class="delaunay-line"/>
<line x1="0.13845349487226688" y1="18.255489602765" x2="9.369733276946816" y2="11.169430007919075" class="delaunay-line"/>
<line x1="0.13845349487226688" y1="18.255489602765" x2="0" y2="24" class="delaunay-line"/>
<line x1="0" y1="24" x2="14.862861246587226" y2="21.117624533413174" class="delaunay-line"/>
<line x1="14.862861246587226" y1="21.117624533413174" x2="0.13845349487226688" y2="18.255489602765" class="delaunay-line"/>
<line x1="2.428161439390804" y1="6.4759634013930345" x2="-2.6284390649298786" y2="11.378858885166476" class="delaunay-line"/>
<line x1="-2.6284390649298786" y1="11.378858885166476" x2="9.369733276946816" y2="11.169430007919075" class="delaunay-line"/>
<line x1="9.369733276946816" y1="11.169430007919075" x2="2.428161439390804" y2="6.4759634013930345" class="delaunay-line"/>
<line x1="0.13845349487226688" y1="18.255489602765" x2="-2.6284390649298786" y2="11.378858885166476" class="delaunay-line"/>
<line x1="-2.6284390649298786" y1="11.378858885166476" x2="0" y2="24" class="delaunay-line"/>
<line x1="0" y1="24" x2="0.13845349487226688" y2="18.255489602765" class="delaunay-line"/>
<line x1="24" y1="24" x2="24" y2="0" class="delaunay-line"/>
<line x1="24" y1="0" x2="17.152569191105762" y2="9.338098332041206" class="delaunay-line"/>
<line x1="17.152569191105762" y1="9.338098332041206" x2="24" y2="24" class="delaunay-line"/>
<line x1="17.152569191105762" y1="9.338098332041206" x2="9.107947180387564" y2="-3.8282854194267935" class="delaunay-line"/>
<line x1="9.107947180387564" y1="-3.8282854194267935" x2="9.369733276946816" y2="11.169430007919075" class="delaunay-line"/>
<line x1="9.369733276946816" y1="11.169430007919075" x2="17.152569191105762" y2="9.338098332041206" class="delaunay-line"/>
<line x1="24" y1="0" x2="9.107947180387564" y2="-3.8282854194267935" class="delaunay-line"/>
<line x1="9.107947180387564" y1="-3.8282854194267935" x2="17.152569191105762" y2="9.338098332041206" class="delaunay-line"/>
<line x1="17.152569191105762" y1="9.338098332041206" x2="24" y2="0" class="delaunay-line"/>
<line x1="2.428161439390804" y1="6.4759634013930345" x2="0" y2="0" class="delaunay-line"/>
<line x1="0" y1="0" x2="-2.6284390649298786" y2="11.378858885166476" class="delaunay-line"/>
<line x1="-2.6284390649298786" y1="11.378858885166476" x2="2.428161439390804" y2="6.4759634013930345" class="delaunay-line"/>
<line x1="9.107947180387564" y1="-3.8282854194267935" x2="0" y2="0" class="delaunay-line"/>
<line x1="0" y1="0" x2="2.428161439390804" y2="6.4759634013930345" class="delaunay-line"/>
<line x1="2.428161439390804" y1="6.4759634013930345" x2="9.107947180387564" y2="-3.8282854194267935" class="delaunay-line"/>
<line x1="9.107947180387564" y1="-3.8282854194267935" x2="-2.8902251614891306" y2="-3.6188565421793926" class="delaunay-line"/>
<line x1="-2.8902251614891306" y1="-3.6188565421793926" x2="0" y2="0" class="delaunay-line"/>
<line x1="0" y1="0" x2="9.107947180387564" y2="-3.8282854194267935" class="delaunay-line"/>
<line x1="0" y1="0" x2="-2.8902251614891306" y2="-3.6188565421793926" class="delaunay-line"/>
<line x1="-2.8902251614891306" y1="-3.6188565421793926" x2="-2.6284390649298786" y2="11.378858885166476" class="delaunay-line"/>
<line x1="-2.6284390649298786" y1="11.378858885166476" x2="0" y2="0" class="delaunay-line"/>
</g>
<g id="layer-area" class="layer ">
<polygon points="17.152569191105762,9.338098332041206 14.862861246587226,21.117624533413174 0.13845349487226688,18.255489602765 2.428161439390804,6.4759634013930345" class="terrain-area"/>
<text x="8.645511342989014" y="13.796793967403104" class="label">#C49A6C</text>
<polygon points="9.369733276946816,11.169430007919075 -2.6284390649298786,11.378858885166476 -2.8902251614891306,-3.6188565421793926 9.107947180387564,-3.8282854194267935" class="terrain-area"/>
<text x="3.2397540577288426" y="3.775286732869841" class="label">#C49A6C</text>
</g>
<g id="layer-building" class="layer ">
</g>
<g id="layer-wall" class="layer ">
</g>
<g id="layer-tree" class="layer ">
</g>
<g id="layer-rocks" class="layer ">
</g>
<g id="layer-shrub" class="layer ">
</g>
<g id="layer-terrain" class="layer ">
</g>
<g id="layer-clearance" class="layer hidden">
</g>
<g id="layer-models" class="layer ">
</g>
<g id="layer-paths" class="layer ">
</g>
<g id="layer-vectors" class="layer ">
</g>
<g id="layer-los" class="layer ">
</g>
<g id="layer-lof" class="layer ">
</g>

<g id="legend">
<g class="toggle" onclick="toggleLayer('deployment')"><rect x="0.4" y="0.14999999999999997" width="0.4" height="0.4" fill="#222" stroke="#222" stroke-width="0.05"/><text x="1.0" y="0.5499999999999999" class="label">Deployment Zones</text></g>
<g class="toggle" onclick="toggleLayer('grid')"><rect x="0.4" y="0.95" width="0.4" height="0.4" fill="#222" stroke="#222" stroke-width="0.05"/><text x="1.0" y="1.3499999999999999" class="label">0.5 MU Grid</text></g>
<g class="toggle" onclick="toggleLayer('delaunay')"><rect x="0.4" y="1.7500000000000002" width="0.4" height="0.4" fill="#222" stroke="#222" stroke-width="0.05"/><text x="1.0" y="2.1500000000000004" class="label">Delaunay Mesh</text></g>
<g class="toggle" onclick="toggleLayer('area')"><rect x="0.4" y="2.55" width="0.4" height="0.4" fill="#222" stroke="#222" stroke-width="0.05"/><text x="1.0" y="2.95" class="label">Area Terrain</text></g>
<g class="toggle disabled"><rect x="0.4" y="3.3499999999999996" width="0.4" height="0.4" fill="#222" stroke="#222" stroke-width="0.05"/><text x="1.0" y="3.75" class="label">Buildings</text></g>
<g class="toggle disabled"><rect x="0.4" y="4.1499999999999995" width="0.4" height="0.4" fill="#222" stroke="#222" stroke-width="0.05"/><text x="1.0" y="4.55" class="label">Walls</text></g>
<g class="toggle disabled"><rect x="0.4" y="4.949999999999999" width="0.4" height="0.4" fill="#222" stroke="#222" stroke-width="0.05"/><text x="1.0" y="5.35" class="label">Trees</text></g>
<g class="toggle disabled"><rect x="0.4" y="5.749999999999999" width="0.4" height="0.4" fill="#222" stroke="#222" stroke-width="0.05"/><text x="1.0" y="6.1499999999999995" class="label">Rocks</text></g>
<g class="toggle disabled"><rect x="0.4" y="6.549999999999999" width="0.4" height="0.4" fill="#222" stroke="#222" stroke-width="0.05"/><text x="1.0" y="6.949999999999999" class="label">Shrubs</text></g>
<g class="toggle" onclick="toggleLayer('terrain')"><rect x="0.4" y="7.349999999999999" width="0.4" height="0.4" fill="#222" stroke="#222" stroke-width="0.05"/><text x="1.0" y="7.749999999999999" class="label">Other Terrain</text></g>
<g class="toggle" onclick="toggleLayer('clearance')"><rect x="0.4" y="8.15" width="0.4" height="0.4" fill="#fff" stroke="#222" stroke-width="0.05"/><text x="1.0" y="8.549999999999999" class="label">Clearance Zones</text></g>
<g class="toggle" onclick="toggleLayer('models')"><rect x="0.4" y="8.950000000000001" width="0.4" height="0.4" fill="#222" stroke="#222" stroke-width="0.05"/><text x="1.0" y="9.35" class="label">Models</text></g>
<g class="toggle" onclick="toggleLayer('paths')"><rect x="0.4" y="9.750000000000002" width="0.4" height="0.4" fill="#222" stroke="#222" stroke-width="0.05"/><text x="1.0" y="10.15" class="label">Paths</text></g>
<g class="toggle" onclick="toggleLayer('vectors')"><rect x="0.4" y="10.550000000000002" width="0.4" height="0.4" fill="#222" stroke="#222" stroke-width="0.05"/><text x="1.0" y="10.950000000000001" class="label">Vectors</text></g>
<g class="toggle" onclick="toggleLayer('los')"><rect x="0.4" y="11.350000000000003" width="0.4" height="0.4" fill="#222" stroke="#222" stroke-width="0.05"/><text x="1.0" y="11.750000000000002" class="label">LOS</text></g>
<g class="toggle" onclick="toggleLayer('lof')"><rect x="0.4" y="12.150000000000004" width="0.4" height="0.4" fill="#222" stroke="#222" stroke-width="0.05"/><text x="1.0" y="12.550000000000002" class="label">LOF</text></g>
</g>
</svg>