<svg xmlns="http://www.w3.org/2000/svg" viewBox="0 0 24 24" width="960" height="960" font-family="Arial" font-size="0.6">
<defs>
  <style><![CDATA[
    .layer { display: inline; }
    .layer.hidden { display: none; }
    .grid-line { stroke: #999; stroke-width: 0.02; opacity: 0.2; }
    .grid-line-2mu { stroke: #666; stroke-width: 0.04; opacity: 0.4; }
    .grid-line-6mu { stroke: #333; stroke-width: 0.08; opacity: 0.6; }
    .delaunay-line { stroke: #4a6fa5; stroke-width: 0.03; opacity: 0.3; }
    #layer-area { opacity: 0.8; }
    #layer-building, #layer-wall, #layer-tree, #layer-rocks, #layer-shrub, #layer-terrain { opacity: 0.8; }
    .terrain-area { stroke: none; }
    .terrain-solid { stroke: #000; stroke-width: 0.05; }
    .model { stroke: #ff0000; stroke-width: 2; vector-effect: non-scaling-stroke; }
    .path { fill: none; stroke-width: 0.12; }
    .vector { stroke-width: 0.1; }
    .los-ray { stroke-width: 0.08; stroke-dasharray: 0.2 0.2; }
    .lof-ray { stroke-width: 0.08; stroke-dasharray: 0.3 0.15; }
    .label { fill: #111 !important; font-size: 0.6px; }
    .toggle { cursor: pointer; }
    .toggle.disabled { cursor: default; }
    .toggle.disabled rect { stroke: #ccc; fill: #fff; }
    .toggle.disabled text { fill: #ccc; }
#layer-shrub { fill: #006400; }
#layer-rocks { fill: #D3D3D3; }
  ]]></style>
</defs>
<rect x="0" y="0" width="24" height="24" fill="#ffffff" stroke="#111" stroke-width="0.05"/>
<script><![CDATA[
      function toggleLayer(id) {
        var layer = document.getElementById('layer-' + id);
        if (!layer) return;
        if (layer.classList.contains('hidden')) {
          layer.classList.remove('hidden');
        } else {
          layer.classList.add('hidden');
        }
      }
    ]]></script>
<text x="0.4" y="23.6" class="label">QAI_11 - VERY_SMALL</text>
<g id="layer-deployment" class="layer ">
</g>
<g id="layer-grid" class="layer ">
<line x1="0" y1="0" x2="0" y2="24" class="grid-line-6mu"/>
<line x1="0.5" y1="0" x2="0.5" y2="24" class="grid-line"/>
<line x1="1" y1="0" x2="1" y2="24" class="grid-line"/>
<line x1="1.5" y1="0" x2="1.5" y2="24" class="grid-line"/>
<line x1="2" y1="0" x2="2" y2="24" class="grid-line-2mu"/>
<line x1="2.5" y1="0" x2="2.5" y2="24" class="grid-line"/>
<line x1="3" y1="0" x2="3" y2="24" class="grid-line"/>
<line x1="3.5" y1="0" x2="3.5" y2="24" class="grid-line"/>
<line x1="4" y1="0" x2="4" y2="24" class="grid-line-2mu"/>
<line x1="4.5" y1="0" x2="4.5" y2="24" class="grid-line"/>
<line x1="5" y1="0" x2="5" y2="24" class="grid-line"/>
<line x1="5.5" y1="0" x2="5.5" y2="24" class="grid-line"/>
<line x1="6" y1="0" x2="6" y2="24" class="grid-line-6mu"/>
<line x1="6.5" y1="0" x2="6.5" y2="24" class="grid-line"/>
<line x1="7" y1="0" x2="7" y2="24" class="grid-line"/>
<line x1="7.5" y1="0" x2="7.5" y2="24" class="grid-line"/>
<line x1="8" y1="0" x2="8" y2="24" class="grid-line-2mu"/>
<line x1="8.5" y1="0" x2="8.5" y2="24" class="grid-line"/>
<line x1="9" y1="0" x2="9" y2="24" class="grid-line"/>
<line x1="9.5" y1="0" x2="9.5" y2="24" class="grid-line"/>
<line x1="10" y1="0" x2="10" y2="24" class="grid-line-2mu"/>
<line x1="10.5" y1="0" x2="10.5" y2="24" class="grid-line"/>
<line x1="11" y1="0" x2="11" y2="24" class="grid-line"/>
<line x1="11.5" y1="0" x2="11.5" y2="24" class="grid-line"/>
<line x1="12" y1="0" x2="12" y2="24" class="grid-line-6mu"/>
<line x1="12.5" y1="0" x2="12.5" y2="24" class="grid-line"/>
<line x1="13" y1="0" x2="13" y2="24" class="grid-line"/>
<line x1="13.5" y1="0" x2="13.5" y2="24" class="grid-line"/>
<line x1="14" y1="0" x2="14" y2="24" class="grid-line-2mu"/>
<line x1="14.5" y1="0" x2="14.5" y2="24" class="grid-line"/>
<line x1="15" y1="0" x2="15" y2="24" class="grid-line"/>
<line x1="15.5" y1="0" x2="15.5" y2="24" class="grid-line"/>
<line x1="16" y1="0" x2="16" y2="24" class="grid-line-2mu"/>
<line x1="16.5" y1="0" x2="16.5" y2="24" class="grid-line"/>
<line x1="17" y1="0" x2="17" y2="24" class="grid-line"/>
<line x1="17.5" y1="0" x2="17.5" y2="24" class="grid-line"/>
<line x1="18" y1="0" x2="18" y2="24" class="grid-line-6mu"/>
<line x1="18.5" y1="0" x2="18.5" y2="24" class="grid-line"/>
<line x1="19" y1="0" x2="19" y2="24" class="grid-line"/>
<line x1="19.5" y1="0" x2="19.5" y2="24" class="grid-line"/>
<line x1="20" y1="0" x2="20" y2="24" class="grid-line-2mu"/>
<line x1="20.5" y1="0" x2="20.5" y2="24" class="grid-line"/>
<line x1="21" y1="0" x2="21" y2="24" class="grid-line"/>
<line x1="21.5" y1="0" x2="21.5" y2="24" class="grid-line"/>
<line x1="22" y1="0" x2="22" y2="24" class="grid-line-2mu"/>
<line x1="22.5" y1="0" x2="22.5" y2="24" class="grid-line"/>
<line x1="23" y1="0" x2="23" y2="24" class="grid-line"/>
<line x1="23.5" y1="0" x2="23.5" y2="24" class="grid-line"/>
<line x1="24" y1="0" x2="24" y2="24" class="grid-line-6mu"/>
<line x1="0" y1="0" x2="24" y2="0" class="grid-line-6mu"/>
<line x1="0" y1="0.5" x2="24" y2="0.5" class="grid-line"/>
<line x1="0" y1="1" x2="24" y2="1" class="grid-line"/>
<line x1="0" y1="1.5" x2="24" y2="1.5" class="grid-line"/>
<line x1="0" y1="2" x2="24" y2="2" class="grid-line-2mu"/>
<line x1="0" y1="2.5" x2="24" y2="2.5" class="grid-line"/>
<line x1="0" y1="3" x2="24" y2="3" class="grid-line"/>
<line x1="0" y1="3.5" x2="24" y2="3.5" class="grid-line"/>
<line x1="0" y1="4" x2="24" y2="4" class="grid-line-2mu"/>
<line x1="0" y1="4.5" x2="24" y2="4.5" class="grid-line"/>
<line x1="0" y1="5" x2="24" y2="5" class="grid-line"/>
<line x1="0" y1="5.5" x2="24" y2="5.5" class="grid-line"/>
<line x1="0" y1="6" x2="24" y2="6" class="grid-line-6mu"/>
<line x1="0" y1="6.5" x2="24" y2="6.5" class="grid-line"/>
<line x1="0" y1="7" x2="24" y2="7" class="grid-line"/>
<line x1="0" y1="7.5" x2="24" y2="7.5" class="grid-line"/>
<line x1="0" y1="8" x2="24" y2="8" class="grid-line-2mu"/>
<line x1="0" y1="8.5" x2="24" y2="8.5" class="grid-line"/>
<line x1="0" y1="9" x2="24" y2="9" class="grid-line"/>
<line x1="0" y1="9.5" x2="24" y2="9.5" class="grid-line"/>
<line x1="0" y1="10" x2="24" y2="10" class="grid-line-2mu"/>
<line x1="0" y1="10.5" x2="24" y2="10.5" class="grid-line"/>
<line x1="0" y1="11" x2="24" y2="11" class="grid-line"/>
<line x1="0" y1="11.5" x2="24" y2="11.5" class="grid-line"/>
<line x1="0" y1="12" x2="24" y2="12" class="grid-line-6mu"/>
<line x1="0" y1="12.5" x2="24" y2="12.5" class="grid-line"/>
<line x1="0" y1="13" x2="24" y2="13" class="grid-line"/>
<line x1="0" y1="13.5" x2="24" y2="13.5" class="grid-line"/>
<line x1="0" y1="14" x2="24" y2="14" class="grid-line-2mu"/>
<line x1="0" y1="14.5" x2="24" y2="14.5" class="grid-line"/>
<line x1="0" y1="15" x2="24" y2="15" class="grid-line"/>
<line x1="0" y1="15.5" x2="24" y2="15.5" class="grid-line"/>
<line x1="0" y1="16" x2="24" y2="16" class="grid-line-2mu"/>
<line x1="0" y1="16.5" x2="24" y2="16.5" class="grid-line"/>
<line x1="0" y1="17" x2="24" y2="17" class="grid-line"/>
<line x1="0" y1="17.5" x2="24" y2="17.5" class="grid-line"/>
<line x1="0" y1="18" x2="24" y2="18" class="grid-line-6mu"/>
<line x1="0" y1="18.5" x2="24" y2="18.5" class="grid-line"/>
<line x1="0" y1="19" x2="24" y2="19" class="grid-line"/>
<line x1="0" y1="19.5" x2="24" y2="19.5" class="grid-line"/>
<line x1="0" y1="20" x2="24" y2="20" class="grid-line-2mu"/>
<line x1="0" y1="20.5" x2="24" y2="20.5" class="grid-line"/>
<line x1="0" y1="21" x2="24" y2="21" class="grid-line"/>
<line x1="0" y1="21.5" x2="24" y2="21.5" class="grid-line"/>
<line x1="0" y1="22" x2="24" y2="22" class="grid-line-2mu"/>
<line x1="0" y1="22.5" x2="24" y2="22.5" class="grid-line"/>
<line x1="0" y1="23" x2="24" y2="23" class="grid-line"/>
<line x1="0" y1="23.5" x2="24" y2="23.5" class="grid-line"/>
<line x1="0" y1="24" x2="24" y2="24" class="grid-line-6mu"/>
</g>
<g id="layer-delaunay" class="layer ">
<line x1="11.723553844611912" y1="6.462532315580456" x2="11.223999399759535" y2="5.740919569880816" class="delaunay-line"/>
<line x1="11.223999399759535" y1="5.740919569880816" x2="11.383063815721146" y2="6.429903250075631" class="delaunay-line"/>
<line x1="11.383063815721146" y1="6.429903250075631" x2="11.723553844611912" y2="6.462532315580456" class="delaunay-line"/>
<line x1="11.723553844611912" y1="6.462532315580456" x2="11.515726169686781" y2="5.562331755633681" class="delaunay-line"/>
<line x1="11.515726169686781" y1="5.562331755633681" x2="11.223999399759535" y2="5.740919569880816" class="delaunay-line"/>
<line x1="11.223999399759535" y1="5.740919569880816" x2="11.723553844611912" y2="6.462532315580456" class="delaunay-line"/>
<line x1="11.223999399759535" y1="5.740919569880816" x2="11.13535724878361" y2="6.32061230933465" class="delaunay-line"/>
<line x1="11.13535724878361" y1="6.32061230933465" x2="11.383063815721146" y2="6.429903250075631" class="delaunay-line"/>
<line x1="11.383063815721146" y1="6.429903250075631" x2="11.223999399759535" y2="5.740919569880816" class="delaunay-line"/>
<line x1="11.223999399759535" y1="5.740919569880816" x2="11.049272207193152" y2="5.947737028548839" class="delaunay-line"/>
<line x1="11.049272207193152" y1="5.947737028548839" x2="11.13535724878361" y2="6.32061230933465" class="delaunay-line"/>
<line x1="11.13535724878361" y1="6.32061230933465" x2="11.223999399759535" y2="5.740919569880816" class="delaunay-line"/>
<line x1="11.049272207193152" y1="5.947737028548839" x2="11.01814522314992" y2="6.151298048360478" class="delaunay-line"/>
<line x1="11.01814522314992" y1="6.151298048360478" x2="11.13535724878361" y2="6.32061230933465" class="delaunay-line"/>
<line x1="11.13535724878361" y1="6.32061230933465" x2="11.049272207193152" y2="5.947737028548839" class="delaunay-line"/>
<line x1="11.723553844611912" y1="6.462532315580456" x2="11.880039760763223" y2="5.439161961623995" class="delaunay-line"/>
<line x1="11.880039760763223" y1="5.439161961623995" x2="11.515726169686781" y2="5.562331755633681" class="delaunay-line"/>
<line x1="11.515726169686781" y1="5.562331755633681" x2="11.723553844611912" y2="6.462532315580456" class="delaunay-line"/>
<line x1="11.723553844611912" y1="6.462532315580456" x2="12.104990815107088" y2="6.41353202640923" class="delaunay-line"/>
<line x1="12.104990815107088" y1="6.41353202640923" x2="11.880039760763223" y2="5.439161961623995" class="delaunay-line"/>
<line x1="11.880039760763223" y1="5.439161961623995" x2="11.723553844611912" y2="6.462532315580456" class="delaunay-line"/>
<line x1="12.104990815107088" y1="6.41353202640923" x2="12.2614767312584" y2="5.390161672452769" class="delaunay-line"/>
<line x1="12.2614767312584" y1="5.390161672452769" x2="11.880039760763223" y2="5.439161961623995" class="delaunay-line"/>
<line x1="11.880039760763223" y1="5.439161961623995" x2="12.104990815107088" y2="6.41353202640923" class="delaunay-line"/>
<line x1="12.46930440618353" y1="6.290362232399544" x2="12.2614767312584" y2="5.390161672452769" class="delaunay-line"/>
<line x1="12.2614767312584" y1="5.390161672452769" x2="12.104990815107088" y2="6.41353202640923" class="delaunay-line"/>
<line x1="12.104990815107088" y1="6.41353202640923" x2="12.46930440618353" y2="6.290362232399544" class="delaunay-line"/>
<line x1="12.761031176110777" y1="6.111774418152409" x2="12.601966760149166" y2="5.422790737957595" class="delaunay-line"/>
<line x1="12.601966760149166" y1="5.422790737957595" x2="12.2614767312584" y2="5.390161672452769" class="delaunay-line"/>
<line x1="12.2614767312584" y1="5.390161672452769" x2="12.761031176110777" y2="6.111774418152409" class="delaunay-line"/>
<line x1="12.46930440618353" y1="6.290362232399544" x2="12.761031176110777" y2="6.111774418152409" class="delaunay-line"/>
<line x1="12.761031176110777" y1="6.111774418152409" x2="12.2614767312584" y2="5.390161672452769" class="delaunay-line"/>
<line x1="12.2614767312584" y1="5.390161672452769" x2="12.46930440618353" y2="6.290362232399544" class="delaunay-line"/>
<line x1="12.761031176110777" y1="6.111774418152409" x2="12.849673327086702" y2="5.532081678698575" class="delaunay-line"/>
<line x1="12.849673327086702" y1="5.532081678698575" x2="12.601966760149166" y2="5.422790737957595" class="delaunay-line"/>
<line x1="12.601966760149166" y1="5.422790737957595" x2="12.761031176110777" y2="6.111774418152409" class="delaunay-line"/>
<line x1="12.761031176110777" y1="6.111774418152409" x2="12.93575836867716" y2="5.9049569594843865" class="delaunay-line"/>
<line x1="12.93575836867716" y1="5.9049569594843865" x2="12.849673327086702" y2="5.532081678698575" class="delaunay-line"/>
<line x1="12.849673327086702" y1="5.532081678698575" x2="12.761031176110777" y2="6.111774418152409" class="delaunay-line"/>
<line x1="12.93575836867716" y1="5.9049569594843865" x2="12.966885352720391" y2="5.701395939672747" class="delaunay-line"/>
<line x1="12.966885352720391" y1="5.701395939672747" x2="12.849673327086702" y2="5.532081678698575" class="delaunay-line"/>
<line x1="12.849673327086702" y1="5.532081678698575" x2="12.93575836867716" y2="5.9049569594843865" class="delaunay-line"/>
<line x1="4.544187338018097" y1="8.998713015016689" x2="4.687446552847597" y2="9.131140471047498" class="delaunay-line"/>
<line x1="4.687446552847597" y1="9.131140471047498" x2="11.01814522314992" y2="6.151298048360478" class="delaunay-line"/>
<line x1="11.01814522314992" y1="6.151298048360478" x2="4.544187338018097" y2="8.998713015016689" class="delaunay-line"/>
<line x1="11.01814522314992" y1="6.151298048360478" x2="4.769123015858963" y2="9.308310415265781" class="delaunay-line"/>
<line x1="4.769123015858963" y1="9.308310415265781" x2="11.13535724878361" y2="6.32061230933465" class="delaunay-line"/>
<line x1="11.13535724878361" y1="6.32061230933465" x2="11.01814522314992" y2="6.151298048360478" class="delaunay-line"/>
<line x1="11.13535724878361" y1="6.32061230933465" x2="4.776782225957692" y2="9.50325032971385" class="delaunay-line"/>
<line x1="4.776782225957692" y1="9.50325032971385" x2="11.383063815721146" y2="6.429903250075631" class="delaunay-line"/>
<line x1="11.383063815721146" y1="6.429903250075631" x2="11.13535724878361" y2="6.32061230933465" class="delaunay-line"/>
<line x1="11.383063815721146" y1="6.429903250075631" x2="4.709258137837169" y2="9.686282379551711" class="delaunay-line"/>
<line x1="4.709258137837169" y1="9.686282379551711" x2="11.723553844611912" y2="6.462532315580456" class="delaunay-line"/>
<line x1="11.723553844611912" y1="6.462532315580456" x2="11.383063815721146" y2="6.429903250075631" class="delaunay-line"/>
<line x1="11.723553844611912" y1="6.462532315580456" x2="24" y2="24" class="delaunay-line"/>
<line x1="24" y1="24" x2="12.104990815107088" y2="6.41353202640923" class="delaunay-line"/>
<line x1="12.104990815107088" y1="6.41353202640923" x2="11.723553844611912" y2="6.462532315580456" class="delaunay-line"/>
<line x1="12.104990815107088" y1="6.41353202640923" x2="24" y2="24" class="delaunay-line"/>
<line x1="24" y1="24" x2="12.46930440618353" y2="6.290362232399544" class="delaunay-line"/>
<line x1="12.46930440618353" y1="6.290362232399544" x2="12.104990815107088" y2="6.41353202640923" class="delaunay-line"/>
<line x1="4.544187338018097" y1="8.998713015016689" x2="11.01814522314992" y2="6.151298048360478" class="delaunay-line"/>
<line x1="11.01814522314992" y1="6.151298048360478" x2="11.049272207193152" y2="5.947737028548839" class="delaunay-line"/>
<line x1="11.049272207193152" y1="5.947737028548839" x2="4.544187338018097" y2="8.998713015016689" class="delaunay-line"/>
<line x1="4.544187338018097" y1="8.998713015016689" x2="11.049272207193152" y2="5.947737028548839" class="delaunay-line"/>
<line x1="11.049272207193152" y1="5.947737028548839" x2="4.361155288180239" y2="8.931188926896166" class="delaunay-line"/>
<line x1="4.361155288180239" y1="8.931188926896166" x2="4.544187338018097" y2="8.998713015016689" class="delaunay-line"/>
<line x1="4.687446552847597" y1="9.131140471047498" x2="4.769123015858963" y2="9.308310415265781" class="delaunay-line"/>
<line x1="4.769123015858963" y1="9.308310415265781" x2="11.01814522314992" y2="6.151298048360478" class="delaunay-line"/>
<line x1="11.01814522314992" y1="6.151298048360478" x2="4.687446552847597" y2="9.131140471047498" class="delaunay-line"/>
<line x1="4.361155288180239" y1="8.931188926896166" x2="11.049272207193152" y2="5.947737028548839" class="delaunay-line"/>
<line x1="11.049272207193152" y1="5.947737028548839" x2="0" y2="0" class="delaunay-line"/>
<line x1="0" y1="0" x2="4.361155288180239" y2="8.931188926896166" class="delaunay-line"/>
<line x1="4.687446552847597" y1="9.131140471047498" x2="4.776782225957692" y2="9.50325032971385" class="delaunay-line"/>
<line x1="4.776782225957692" y1="9.50325032971385" x2="4.769123015858963" y2="9.308310415265781" class="delaunay-line"/>
<line x1="4.769123015858963" y1="9.308310415265781" x2="4.687446552847597" y2="9.131140471047498" class="delaunay-line"/>
<line x1="4.57683068180636" y1="9.829541594381208" x2="4.776782225957692" y2="9.50325032971385" class="delaunay-line"/>
<line x1="4.776782225957692" y1="9.50325032971385" x2="4.687446552847597" y2="9.131140471047498" class="delaunay-line"/>
<line x1="4.687446552847597" y1="9.131140471047498" x2="4.57683068180636" y2="9.829541594381208" class="delaunay-line"/>
<line x1="4.769123015858963" y1="9.308310415265781" x2="4.776782225957692" y2="9.50325032971385" class="delaunay-line"/>
<line x1="4.776782225957692" y1="9.50325032971385" x2="11.13535724878361" y2="6.32061230933465" class="delaunay-line"/>
<line x1="11.13535724878361" y1="6.32061230933465" x2="4.769123015858963" y2="9.308310415265781" class="delaunay-line"/>
<line x1="4.166215373732171" y1="8.938848136994897" x2="4.361155288180239" y2="8.931188926896166" class="delaunay-line"/>
<line x1="4.361155288180239" y1="8.931188926896166" x2="0" y2="0" class="delaunay-line"/>
<line x1="0" y1="0" x2="4.166215373732171" y2="8.938848136994897" class="delaunay-line"/>
<line x1="4.57683068180636" y1="9.829541594381208" x2="4.709258137837169" y2="9.686282379551711" class="delaunay-line"/>
<line x1="4.709258137837169" y1="9.686282379551711" x2="4.776782225957692" y2="9.50325032971385" class="delaunay-line"/>
<line x1="4.776782225957692" y1="9.50325032971385" x2="4.57683068180636" y2="9.829541594381208" class="delaunay-line"/>
<line x1="4.166215373732171" y1="8.938848136994897" x2="4.687446552847597" y2="9.131140471047498" class="delaunay-line"/>
<line x1="4.687446552847597" y1="9.131140471047498" x2="4.544187338018097" y2="8.998713015016689" class="delaunay-line"/>
<line x1="4.544187338018097" y1="8.998713015016689" x2="4.166215373732171" y2="8.938848136994897" class="delaunay-line"/>
<line x1="4.776782225957692" y1="9.50325032971385" x2="4.709258137837169" y2="9.686282379551711" class="delaunay-line"/>
<line x1="4.709258137837169" y1="9.686282379551711" x2="11.383063815721146" y2="6.429903250075631" class="delaunay-line"/>
<line x1="11.383063815721146" y1="6.429903250075631" x2="4.776782225957692" y2="9.50325032971385" class="delaunay-line"/>
<line x1="0" y1="0" x2="11.049272207193152" y2="5.947737028548839" class="delaunay-line"/>
<line x1="11.049272207193152" y1="5.947737028548839" x2="11.223999399759535" y2="5.740919569880816" class="delaunay-line"/>
<line x1="11.223999399759535" y1="5.740919569880816" x2="0" y2="0" class="delaunay-line"/>
<line x1="4.361155288180239" y1="8.931188926896166" x2="4.166215373732171" y2="8.938848136994897" class="delaunay-line"/>
<line x1="4.166215373732171" y1="8.938848136994897" x2="4.544187338018097" y2="8.998713015016689" class="delaunay-line"/>
<line x1="4.544187338018097" y1="8.998713015016689" x2="4.361155288180239" y2="8.931188926896166" class="delaunay-line"/>
<line x1="4.399660737588076" y1="9.911218057392572" x2="4.57683068180636" y2="9.829541594381208" class="delaunay-line"/>
<line x1="4.57683068180636" y1="9.829541594381208" x2="4.687446552847597" y2="9.131140471047498" class="delaunay-line"/>
<line x1="4.687446552847597" y1="9.131140471047498" x2="4.399660737588076" y2="9.911218057392572" class="delaunay-line"/>
<line x1="4.709258137837169" y1="9.686282379551711" x2="4.57683068180636" y2="9.829541594381208" class="delaunay-line"/>
<line x1="4.57683068180636" y1="9.829541594381208" x2="11.723553844611912" y2="6.462532315580456" class="delaunay-line"/>
<line x1="11.723553844611912" y1="6.462532315580456" x2="4.709258137837169" y2="9.686282379551711" class="delaunay-line"/>
<line x1="4.166215373732171" y1="8.938848136994897" x2="4.399660737588076" y2="9.911218057392572" class="delaunay-line"/>
<line x1="4.399660737588076" y1="9.911218057392572" x2="4.687446552847597" y2="9.131140471047498" class="delaunay-line"/>
<line x1="4.687446552847597" y1="9.131140471047498" x2="4.166215373732171" y2="8.938848136994897" class="delaunay-line"/>
<line x1="4.02168877330215" y1="9.851353179370781" x2="4.399660737588076" y2="9.911218057392572" class="delaunay-line"/>
<line x1="4.399660737588076" y1="9.911218057392572" x2="4.166215373732171" y2="8.938848136994897" class="delaunay-line"/>
<line x1="4.166215373732171" y1="8.938848136994897" x2="4.02168877330215" y2="9.851353179370781" class="delaunay-line"/>
<line x1="4.57683068180636" y1="9.829541594381208" x2="24" y2="24" class="delaunay-line"/>
<line x1="24" y1="24" x2="11.723553844611912" y2="6.462532315580456" class="delaunay-line"/>
<line x1="11.723553844611912" y1="6.462532315580456" x2="4.57683068180636" y2="9.829541594381208" class="delaunay-line"/>
<line x1="3.989045429513886" y1="9.020524600006262" x2="3.789093885362554" y2="9.34681586467362" class="delaunay-line"/>
<line x1="3.789093885362554" y1="9.34681586467362" x2="4.166215373732171" y2="8.938848136994897" class="delaunay-line"/>
<line x1="4.166215373732171" y1="8.938848136994897" x2="3.989045429513886" y2="9.020524600006262" class="delaunay-line"/>
<line x1="4.02168877330215" y1="9.851353179370781" x2="4.204720823140008" y2="9.918877267491304" class="delaunay-line"/>
<line x1="4.204720823140008" y1="9.918877267491304" x2="4.399660737588076" y2="9.911218057392572" class="delaunay-line"/>
<line x1="4.399660737588076" y1="9.911218057392572" x2="4.02168877330215" y2="9.851353179370781" class="delaunay-line"/>
<line x1="3.8566179734830777" y1="9.163783814835758" x2="3.789093885362554" y2="9.34681586467362" class="delaunay-line"/>
<line x1="3.789093885362554" y1="9.34681586467362" x2="3.989045429513886" y2="9.020524600006262" class="delaunay-line"/>
<line x1="3.989045429513886" y1="9.020524600006262" x2="3.8566179734830777" y2="9.163783814835758" class="delaunay-line"/>
<line x1="3.7967530954612854" y1="9.541755779121688" x2="4.02168877330215" y2="9.851353179370781" class="delaunay-line"/>
<line x1="4.02168877330215" y1="9.851353179370781" x2="4.166215373732171" y2="8.938848136994897" class="delaunay-line"/>
<line x1="4.166215373732171" y1="8.938848136994897" x2="3.7967530954612854" y2="9.541755779121688" class="delaunay-line"/>
<line x1="3.789093885362554" y1="9.34681586467362" x2="3.7967530954612854" y2="9.541755779121688" class="delaunay-line"/>
<line x1="3.7967530954612854" y1="9.541755779121688" x2="4.166215373732171" y2="8.938848136994897" class="delaunay-line"/>
<line x1="4.166215373732171" y1="8.938848136994897" x2="3.789093885362554" y2="9.34681586467362" class="delaunay-line"/>
<line x1="3.7967530954612854" y1="9.541755779121688" x2="3.8784295584726496" y2="9.718925723339972" class="delaunay-line"/>
<line x1="3.8784295584726496" y1="9.718925723339972" x2="4.02168877330215" y2="9.851353179370781" class="delaunay-line"/>
<line x1="4.02168877330215" y1="9.851353179370781" x2="3.7967530954612854" y2="9.541755779121688" class="delaunay-line"/>
<line x1="11.880039760763223" y1="5.439161961623995" x2="0" y2="0" class="delaunay-line"/>
<line x1="0" y1="0" x2="11.515726169686781" y2="5.562331755633681" class="delaunay-line"/>
<line x1="11.515726169686781" y1="5.562331755633681" x2="11.880039760763223" y2="5.439161961623995" class="delaunay-line"/>
<line x1="11.515726169686781" y1="5.562331755633681" x2="0" y2="0" class="delaunay-line"/>
<line x1="0" y1="0" x2="11.223999399759535" y2="5.740919569880816" class="delaunay-line"/>
<line x1="11.223999399759535" y1="5.740919569880816" x2="11.515726169686781" y2="5.562331755633681" class="delaunay-line"/>
<line x1="4.166215373732171" y1="8.938848136994897" x2="0" y2="0" class="delaunay-line"/>
<line x1="0" y1="0" x2="3.989045429513886" y2="9.020524600006262" class="delaunay-line"/>
<line x1="3.989045429513886" y1="9.020524600006262" x2="4.166215373732171" y2="8.938848136994897" class="delaunay-line"/>
<line x1="3.989045429513886" y1="9.020524600006262" x2="0" y2="0" class="delaunay-line"/>
<line x1="0" y1="0" x2="3.8566179734830777" y2="9.163783814835758" class="delaunay-line"/>
<line x1="3.8566179734830777" y1="9.163783814835758" x2="3.989045429513886" y2="9.020524600006262" class="delaunay-line"/>
<line x1="3.8566179734830777" y1="9.163783814835758" x2="0" y2="0" class="delaunay-line"/>
<line x1="0" y1="0" x2="3.789093885362554" y2="9.34681586467362" class="delaunay-line"/>
<line x1="3.789093885362554" y1="9.34681586467362" x2="3.8566179734830777" y2="9.163783814835758" class="delaunay-line"/>
<line x1="3.789093885362554" y1="9.34681586467362" x2="0" y2="0" class="delaunay-line"/>
<line x1="0" y1="0" x2="3.7967530954612854" y2="9.541755779121688" class="delaunay-line"/>
<line x1="3.7967530954612854" y1="9.541755779121688" x2="3.789093885362554" y2="9.34681586467362" class="delaunay-line"/>
<line x1="12.2614767312584" y1="5.390161672452769" x2="0" y2="0" class="delaunay-line"/>
<line x1="0" y1="0" x2="11.880039760763223" y2="5.439161961623995" class="delaunay-line"/>
<line x1="11.880039760763223" y1="5.439161961623995" x2="12.2614767312584" y2="5.390161672452769" class="delaunay-line"/>
<line x1="24" y1="0" x2="0" y2="0" class="delaunay-line"/>
<line x1="0" y1="0" x2="12.2614767312584" y2="5.390161672452769" class="delaunay-line"/>
<line x1="12.2614767312584" y1="5.390161672452769" x2="24" y2="0" class="delaunay-line"/>
<line x1="12.849673327086702" y1="5.532081678698575" x2="24" y2="0" class="delaunay-line"/>
<line x1="24" y1="0" x2="12.601966760149166" y2="5.422790737957595" class="delaunay-line"/>
<line x1="12.601966760149166" y1="5.422790737957595" x2="12.849673327086702" y2="5.532081678698575" class="delaunay-line"/>
<line x1="12.601966760149166" y1="5.422790737957595" x2="24" y2="0" class="delaunay-line"/>
<line x1="24" y1="0" x2="12.2614767312584" y2="5.390161672452769" class="delaunay-line"/>
<line x1="12.2614767312584" y1="5.390161672452769" x2="12.601966760149166" y2="5.422790737957595" class="delaunay-line"/>
<line x1="12.966885352720391" y1="5.701395939672747" x2="24" y2="0" class="delaunay-line"/>
<line x1="24" y1="0" x2="12.849673327086702" y2="5.532081678698575" class="delaunay-line"/>
<line x1="12.849673327086702" y1="5.532081678698575" x2="12.966885352720391" y2="5.701395939672747" class="delaunay-line"/>
<line x1="12.93575836867716" y1="5.9049569594843865" x2="24" y2="0" class="delaunay-line"/>
<line x1="24" y1="0" x2="12.966885352720391" y2="5.701395939672747" class="delaunay-line"/>
<line x1="12.966885352720391" y1="5.701395939672747" x2="12.93575836867716" y2="5.9049569594843865" class="delaunay-line"/>
<line x1="24" y1="24" x2="24" y2="0" class="delaunay-line"/>
<line x1="24" y1="0" x2="12.93575836867716" y2="5.9049569594843865" class="delaunay-line"/>
<line x1="12.93575836867716" y1="5.9049569594843865" x2="24" y2="24" class="delaunay-line"/>
<line x1="24" y1="24" x2="12.93575836867716" y2="5.9049569594843865" class="delaunay-line"/>
<line x1="12.93575836867716" y1="5.9049569594843865" x2="12.761031176110777" y2="6.111774418152409" class="delaunay-line"/>
<line x1="12.761031176110777" y1="6.111774418152409" x2="24" y2="24" class="delaunay-line"/>
<line x1="0" y1="0" x2="0" y2="24" class="delaunay-line"/>
<line x1="0" y1="24" x2="3.7967530954612854" y2="9.541755779121688" class="delaunay-line"/>
<line x1="3.7967530954612854" y1="9.541755779121688" x2="0" y2="0" class="delaunay-line"/>
<line x1="3.7967530954612854" y1="9.541755779121688" x2="0" y2="24" class="delaunay-line"/>
<line x1="0" y1="24" x2="3.8784295584726496" y2="9.718925723339972" class="delaunay-line"/>
<line x1="3.8784295584726496" y1="9.718925723339972" x2="3.7967530954612854" y2="9.541755779121688" class="delaunay-line"/>
<line x1="3.8784295584726496" y1="9.718925723339972" x2="0" y2="24" class="delaunay-line"/>
<line x1="0" y1="24" x2="4.02168877330215" y2="9.851353179370781" class="delaunay-line"/>
<line x1="4.02168877330215" y1="9.851353179370781" x2="3.8784295584726496" y2="9.718925723339972" class="delaunay-line"/>
<line x1="4.02168877330215" y1="9.851353179370781" x2="0" y2="24" class="delaunay-line"/>
<line x1="0" y1="24" x2="4.204720823140008" y2="9.918877267491304" class="delaunay-line"/>
<line x1="4.204720823140008" y1="9.918877267491304" x2="4.02168877330215" y2="9.851353179370781" class="delaunay-line"/>
<line x1="4.204720823140008" y1="9.918877267491304" x2="0" y2="24" class="delaunay-line"/>
<line x1="0" y1="24" x2="4.399660737588076" y2="9.911218057392572" class="delaunay-line"/>
<line x1="4.399660737588076" y1="9.911218057392572" x2="4.204720823140008" y2="9.918877267491304" class="delaunay-line"/>
<line x1="4.399660737588076" y1="9.911218057392572" x2="0" y2="24" class="delaunay-line"/>
<line x1="0" y1="24" x2="4.57683068180636" y2="9.829541594381208" class="delaunay-line"/>
<line x1="4.57683068180636" y1="9.829541594381208" x2="4.399660737588076" y2="9.911218057392572" class="delaunay-line"/>
<line x1="12.46930440618353" y1="6.290362232399544" x2="24" y2="24" class="delaunay-line"/>
<line x1="24" y1="24" x2="12.761031176110777" y2="6.111774418152409" class="delaunay-line"/>
<line x1="12.761031176110777" y1="6.111774418152409" x2="12.46930440618353" y2="6.290362232399544" class="delaunay-line"/>
<line x1="0" y1="24" x2="24" y2="24" class="delaunay-line"/>
<line x1="24" y1="24" x2="4.57683068180636" y2="9.829541594381208" class="delaunay-line"/>
<line x1="4.57683068180636" y1="9.829541594381208" x2="0" y2="24" class="delaunay-line"/>
</g>
<g id="layer-area" class="layer ">
</g>
<g id="layer-building" class="layer ">
</g>
<g id="layer-wall" class="layer ">
</g>
<g id="layer-tree" class="layer ">
</g>
<g id="layer-rocks" class="layer ">
<polygon points="11.880039760763223,5.439161961623995 12.2614767312584,5.390161672452769 12.601966760149166,5.422790737957595 12.849673327086702,5.532081678698575 12.966885352720391,5.701395939672747 12.93575836867716,5.9049569594843865 12.761031176110777,6.111774418152409 12.46930440618353,6.290362232399544 12.104990815107088,6.41353202640923 11.723553844611912,6.462532315580456 11.383063815721146,6.429903250075631 11.13535724878361,6.32061230933465 11.01814522314992,6.151298048360478 11.049272207193152,5.947737028548839 11.223999399759535,5.740919569880816 11.515726169686781,5.562331755633681" class="terrain-solid"/>
<text x="11.992515287935156" y="5.926346994016612" class="label">#D3D3D3</text>
</g>
<g id="layer-shrub" class="layer ">
<polygon points="3.789093885362554,9.34681586467362 3.8566179734830777,9.163783814835758 3.989045429513886,9.020524600006262 4.166215373732171,8.938848136994897 4.361155288180239,8.931188926896166 4.544187338018097,8.998713015016689 4.687446552847597,9.131140471047498 4.769123015858963,9.308310415265781 4.776782225957692,9.50325032971385 4.709258137837169,9.686282379551711 4.57683068180636,9.829541594381208 4.399660737588076,9.911218057392572 4.204720823140008,9.918877267491304 4.02168877330215,9.851353179370781 3.8784295584726496,9.718925723339972 3.7967530954612854,9.541755779121688" class="terrain-solid"/>
<text x="4.282938055660123" y="9.425033097193737" class="label">#006400</text>
</g>
<g id="layer-terrain" class="layer ">
</g>
<g id="layer-models" class="layer ">
</g>
<g id="layer-paths" class="layer ">
</g>
<g id="layer-vectors" class="layer ">
</g>
<g id="layer-los" class="layer ">
</g>
<g id="layer-lof" class="layer ">
</g>

<g id="legend">
<g class="toggle" onclick="toggleLayer('deployment')"><rect x="0.4" y="0.14999999999999997" width="0.4" height="0.4" fill="#222" stroke="#222" stroke-width="0.05"/><text x="1.0" y="0.5499999999999999" class="label">Deployment Zones</text></g>
<g class="toggle" onclick="toggleLayer('grid')"><rect x="0.4" y="0.95" width="0.4" height="0.4" fill="#222" stroke="#222" stroke-width="0.05"/><text x="1.0" y="1.3499999999999999" class="label">0.5 MU Grid</text></g>
<g class="toggle disabled"><rect x="0.4" y="1.7500000000000002" width="0.4" height="0.4" fill="#222" stroke="#222" stroke-width="0.05"/><text x="1.0" y="2.1500000000000004" class="label">Area Terrain</text></g>
<g class="toggle disabled"><rect x="0.4" y="2.55" width="0.4" height="0.4" fill="#222" stroke="#222" stroke-width="0.05"/><text x="1.0" y="2.95" class="label">Buildings</text></g>
<g class="toggle disabled"><rect x="0.4" y="3.3499999999999996" width="0.4" height="0.4" fill="#222" stroke="#222" stroke-width="0.05"/><text x="1.0" y="3.75" class="label">Walls</text></g>
<g class="toggle disabled"><rect x="0.4" y="4.1499999999999995" width="0.4" height="0.4" fill="#222" stroke="#222" stroke-width="0.05"/><text x="1.0" y="4.55" class="label">Trees</text></g>
<g class="toggle" onclick="toggleLayer('rocks')"><rect x="0.4" y="4.949999999999999" width="0.4" height="0.4" fill="#222" stroke="#222" stroke-width="0.05"/><text x="1.0" y="5.35" class="label">Rocks</text></g>
<g class="toggle" onclick="toggleLayer('shrub')"><rect x="0.4" y="5.749999999999999" width="0.4" height="0.4" fill="#222" stroke="#222" stroke-width="0.05"/><text x="1.0" y="6.1499999999999995" class="label">Shrubs</text></g>
<g class="toggle" onclick="toggleLayer('delaunay')"><rect x="0.4" y="6.549999999999999" width="0.4" height="0.4" fill="#222" stroke="#222" stroke-width="0.05"/><text x="1.0" y="6.949999999999999" class="label">Delaunay Mesh</text></g>
</g>
</svg>