<svg xmlns="http://www.w3.org/2000/svg" viewBox="0 0 36 36" width="1440" height="1440" font-family="Arial" font-size="0.6">
<defs>
  <style><![CDATA[
    .layer { display: inline; }
    .layer.hidden { display: none; }
    .grid-line { stroke: #999; stroke-width: 0.02; opacity: 0.2; }
    .grid-line-2mu { stroke: #666; stroke-width: 0.04; opacity: 0.4; }
    .grid-line-6mu { stroke: #333; stroke-width: 0.08; opacity: 0.6; }
    .delaunay-line { stroke: #4a6fa5; stroke-width: 0.03; opacity: 0.3; }
    #layer-area { opacity: 0.8; }
    #layer-building, #layer-wall, #layer-tree, #layer-rocks, #layer-shrub, #layer-terrain { opacity: 0.8; }
    .terrain-area { stroke: none; }
    .terrain-solid { stroke: #000; stroke-width: 0.05; }
    .model { stroke: #ff0000; stroke-width: 2; vector-effect: non-scaling-stroke; }
    .path { fill: none; stroke-width: 0.12; }
    .vector { stroke-width: 0.1; }
    .los-ray { stroke-width: 0.08; stroke-dasharray: 0.2 0.2; }
    .lof-ray { stroke-width: 0.08; stroke-dasharray: 0.3 0.15; }
    .label { fill: #111 !important; font-size: 0.6px; }
    .toggle { cursor: pointer; }
    .toggle.disabled { cursor: default; }
    .toggle.disabled rect { stroke: #ccc; fill: #fff; }
    .toggle.disabled text { fill: #ccc; }
#layer-area { fill: #C49A6C; }
  ]]></style>
</defs>
<rect x="0" y="0" width="36" height="36" fill="#ffffff" stroke="#111" stroke-width="0.05"/>
<script><![CDATA[
      function toggleLayer(id) {
        var layer = document.getElementById('layer-' + id);
        if (!layer) return;
        if (layer.classList.contains('hidden')) {
          layer.classList.remove('hidden');
        } else {
          layer.classList.add('hidden');
        }
      }
    ]]></script>
<text x="0.4" y="35.6" class="label">OVERLAP-DEMO: 36×36 MU with 60% density showing overlap</text>
<g id="layer-deployment" class="layer ">
</g>
<g id="layer-grid" class="layer hidden">
<line x1="0" y1="0" x2="0" y2="36" class="grid-line-6mu"/>
<line x1="0.5" y1="0" x2="0.5" y2="36" class="grid-line"/>
<line x1="1" y1="0" x2="1" y2="36" class="grid-line"/>
<line x1="1.5" y1="0" x2="1.5" y2="36" class="grid-line"/>
<line x1="2" y1="0" x2="2" y2="36" class="grid-line-2mu"/>
<line x1="2.5" y1="0" x2="2.5" y2="36" class="grid-line"/>
<line x1="3" y1="0" x2="3" y2="36" class="grid-line"/>
<line x1="3.5" y1="0" x2="3.5" y2="36" class="grid-line"/>
<line x1="4" y1="0" x2="4" y2="36" class="grid-line-2mu"/>
<line x1="4.5" y1="0" x2="4.5" y2="36" class="grid-line"/>
<line x1="5" y1="0" x2="5" y2="36" class="grid-line"/>
<line x1="5.5" y1="0" x2="5.5" y2="36" class="grid-line"/>
<line x1="6" y1="0" x2="6" y2="36" class="grid-line-6mu"/>
<line x1="6.5" y1="0" x2="6.5" y2="36" class="grid-line"/>
<line x1="7" y1="0" x2="7" y2="36" class="grid-line"/>
<line x1="7.5" y1="0" x2="7.5" y2="36" class="grid-line"/>
<line x1="8" y1="0" x2="8" y2="36" class="grid-line-2mu"/>
<line x1="8.5" y1="0" x2="8.5" y2="36" class="grid-line"/>
<line x1="9" y1="0" x2="9" y2="36" class="grid-line"/>
<line x1="9.5" y1="0" x2="9.5" y2="36" class="grid-line"/>
<line x1="10" y1="0" x2="10" y2="36" class="grid-line-2mu"/>
<line x1="10.5" y1="0" x2="10.5" y2="36" class="grid-line"/>
<line x1="11" y1="0" x2="11" y2="36" class="grid-line"/>
<line x1="11.5" y1="0" x2="11.5" y2="36" class="grid-line"/>
<line x1="12" y1="0" x2="12" y2="36" class="grid-line-6mu"/>
<line x1="12.5" y1="0" x2="12.5" y2="36" class="grid-line"/>
<line x1="13" y1="0" x2="13" y2="36" class="grid-line"/>
<line x1="13.5" y1="0" x2="13.5" y2="36" class="grid-line"/>
<line x1="14" y1="0" x2="14" y2="36" class="grid-line-2mu"/>
<line x1="14.5" y1="0" x2="14.5" y2="36" class="grid-line"/>
<line x1="15" y1="0" x2="15" y2="36" class="grid-line"/>
<line x1="15.5" y1="0" x2="15.5" y2="36" class="grid-line"/>
<line x1="16" y1="0" x2="16" y2="36" class="grid-line-2mu"/>
<line x1="16.5" y1="0" x2="16.5" y2="36" class="grid-line"/>
<line x1="17" y1="0" x2="17" y2="36" class="grid-line"/>
<line x1="17.5" y1="0" x2="17.5" y2="36" class="grid-line"/>
<line x1="18" y1="0" x2="18" y2="36" class="grid-line-6mu"/>
<line x1="18.5" y1="0" x2="18.5" y2="36" class="grid-line"/>
<line x1="19" y1="0" x2="19" y2="36" class="grid-line"/>
<line x1="19.5" y1="0" x2="19.5" y2="36" class="grid-line"/>
<line x1="20" y1="0" x2="20" y2="36" class="grid-line-2mu"/>
<line x1="20.5" y1="0" x2="20.5" y2="36" class="grid-line"/>
<line x1="21" y1="0" x2="21" y2="36" class="grid-line"/>
<line x1="21.5" y1="0" x2="21.5" y2="36" class="grid-line"/>
<line x1="22" y1="0" x2="22" y2="36" class="grid-line-2mu"/>
<line x1="22.5" y1="0" x2="22.5" y2="36" class="grid-line"/>
<line x1="23" y1="0" x2="23" y2="36" class="grid-line"/>
<line x1="23.5" y1="0" x2="23.5" y2="36" class="grid-line"/>
<line x1="24" y1="0" x2="24" y2="36" class="grid-line-6mu"/>
<line x1="24.5" y1="0" x2="24.5" y2="36" class="grid-line"/>
<line x1="25" y1="0" x2="25" y2="36" class="grid-line"/>
<line x1="25.5" y1="0" x2="25.5" y2="36" class="grid-line"/>
<line x1="26" y1="0" x2="26" y2="36" class="grid-line-2mu"/>
<line x1="26.5" y1="0" x2="26.5" y2="36" class="grid-line"/>
<line x1="27" y1="0" x2="27" y2="36" class="grid-line"/>
<line x1="27.5" y1="0" x2="27.5" y2="36" class="grid-line"/>
<line x1="28" y1="0" x2="28" y2="36" class="grid-line-2mu"/>
<line x1="28.5" y1="0" x2="28.5" y2="36" class="grid-line"/>
<line x1="29" y1="0" x2="29" y2="36" class="grid-line"/>
<line x1="29.5" y1="0" x2="29.5" y2="36" class="grid-line"/>
<line x1="30" y1="0" x2="30" y2="36" class="grid-line-6mu"/>
<line x1="30.5" y1="0" x2="30.5" y2="36" class="grid-line"/>
<line x1="31" y1="0" x2="31" y2="36" class="grid-line"/>
<line x1="31.5" y1="0" x2="31.5" y2="36" class="grid-line"/>
<line x1="32" y1="0" x2="32" y2="36" class="grid-line-2mu"/>
<line x1="32.5" y1="0" x2="32.5" y2="36" class="grid-line"/>
<line x1="33" y1="0" x2="33" y2="36" class="grid-line"/>
<line x1="33.5" y1="0" x2="33.5" y2="36" class="grid-line"/>
<line x1="34" y1="0" x2="34" y2="36" class="grid-line-2mu"/>
<line x1="34.5" y1="0" x2="34.5" y2="36" class="grid-line"/>
<line x1="35" y1="0" x2="35" y2="36" class="grid-line"/>
<line x1="35.5" y1="0" x2="35.5" y2="36" class="grid-line"/>
<line x1="36" y1="0" x2="36" y2="36" class="grid-line-6mu"/>
<line x1="0" y1="0" x2="36" y2="0" class="grid-line-6mu"/>
<line x1="0" y1="0.5" x2="36" y2="0.5" class="grid-line"/>
<line x1="0" y1="1" x2="36" y2="1" class="grid-line"/>
<line x1="0" y1="1.5" x2="36" y2="1.5" class="grid-line"/>
<line x1="0" y1="2" x2="36" y2="2" class="grid-line-2mu"/>
<line x1="0" y1="2.5" x2="36" y2="2.5" class="grid-line"/>
<line x1="0" y1="3" x2="36" y2="3" class="grid-line"/>
<line x1="0" y1="3.5" x2="36" y2="3.5" class="grid-line"/>
<line x1="0" y1="4" x2="36" y2="4" class="grid-line-2mu"/>
<line x1="0" y1="4.5" x2="36" y2="4.5" class="grid-line"/>
<line x1="0" y1="5" x2="36" y2="5" class="grid-line"/>
<line x1="0" y1="5.5" x2="36" y2="5.5" class="grid-line"/>
<line x1="0" y1="6" x2="36" y2="6" class="grid-line-6mu"/>
<line x1="0" y1="6.5" x2="36" y2="6.5" class="grid-line"/>
<line x1="0" y1="7" x2="36" y2="7" class="grid-line"/>
<line x1="0" y1="7.5" x2="36" y2="7.5" class="grid-line"/>
<line x1="0" y1="8" x2="36" y2="8" class="grid-line-2mu"/>
<line x1="0" y1="8.5" x2="36" y2="8.5" class="grid-line"/>
<line x1="0" y1="9" x2="36" y2="9" class="grid-line"/>
<line x1="0" y1="9.5" x2="36" y2="9.5" class="grid-line"/>
<line x1="0" y1="10" x2="36" y2="10" class="grid-line-2mu"/>
<line x1="0" y1="10.5" x2="36" y2="10.5" class="grid-line"/>
<line x1="0" y1="11" x2="36" y2="11" class="grid-line"/>
<line x1="0" y1="11.5" x2="36" y2="11.5" class="grid-line"/>
<line x1="0" y1="12" x2="36" y2="12" class="grid-line-6mu"/>
<line x1="0" y1="12.5" x2="36" y2="12.5" class="grid-line"/>
<line x1="0" y1="13" x2="36" y2="13" class="grid-line"/>
<line x1="0" y1="13.5" x2="36" y2="13.5" class="grid-line"/>
<line x1="0" y1="14" x2="36" y2="14" class="grid-line-2mu"/>
<line x1="0" y1="14.5" x2="36" y2="14.5" class="grid-line"/>
<line x1="0" y1="15" x2="36" y2="15" class="grid-line"/>
<line x1="0" y1="15.5" x2="36" y2="15.5" class="grid-line"/>
<line x1="0" y1="16" x2="36" y2="16" class="grid-line-2mu"/>
<line x1="0" y1="16.5" x2="36" y2="16.5" class="grid-line"/>
<line x1="0" y1="17" x2="36" y2="17" class="grid-line"/>
<line x1="0" y1="17.5" x2="36" y2="17.5" class="grid-line"/>
<line x1="0" y1="18" x2="36" y2="18" class="grid-line-6mu"/>
<line x1="0" y1="18.5" x2="36" y2="18.5" class="grid-line"/>
<line x1="0" y1="19" x2="36" y2="19" class="grid-line"/>
<line x1="0" y1="19.5" x2="36" y2="19.5" class="grid-line"/>
<line x1="0" y1="20" x2="36" y2="20" class="grid-line-2mu"/>
<line x1="0" y1="20.5" x2="36" y2="20.5" class="grid-line"/>
<line x1="0" y1="21" x2="36" y2="21" class="grid-line"/>
<line x1="0" y1="21.5" x2="36" y2="21.5" class="grid-line"/>
<line x1="0" y1="22" x2="36" y2="22" class="grid-line-2mu"/>
<line x1="0" y1="22.5" x2="36" y2="22.5" class="grid-line"/>
<line x1="0" y1="23" x2="36" y2="23" class="grid-line"/>
<line x1="0" y1="23.5" x2="36" y2="23.5" class="grid-line"/>
<line x1="0" y1="24" x2="36" y2="24" class="grid-line-6mu"/>
<line x1="0" y1="24.5" x2="36" y2="24.5" class="grid-line"/>
<line x1="0" y1="25" x2="36" y2="25" class="grid-line"/>
<line x1="0" y1="25.5" x2="36" y2="25.5" class="grid-line"/>
<line x1="0" y1="26" x2="36" y2="26" class="grid-line-2mu"/>
<line x1="0" y1="26.5" x2="36" y2="26.5" class="grid-line"/>
<line x1="0" y1="27" x2="36" y2="27" class="grid-line"/>
<line x1="0" y1="27.5" x2="36" y2="27.5" class="grid-line"/>
<line x1="0" y1="28" x2="36" y2="28" class="grid-line-2mu"/>
<line x1="0" y1="28.5" x2="36" y2="28.5" class="grid-line"/>
<line x1="0" y1="29" x2="36" y2="29" class="grid-line"/>
<line x1="0" y1="29.5" x2="36" y2="29.5" class="grid-line"/>
<line x1="0" y1="30" x2="36" y2="30" class="grid-line-6mu"/>
<line x1="0" y1="30.5" x2="36" y2="30.5" class="grid-line"/>
<line x1="0" y1="31" x2="36" y2="31" class="grid-line"/>
<line x1="0" y1="31.5" x2="36" y2="31.5" class="grid-line"/>
<line x1="0" y1="32" x2="36" y2="32" class="grid-line-2mu"/>
<line x1="0" y1="32.5" x2="36" y2="32.5" class="grid-line"/>
<line x1="0" y1="33" x2="36" y2="33" class="grid-line"/>
<line x1="0" y1="33.5" x2="36" y2="33.5" class="grid-line"/>
<line x1="0" y1="34" x2="36" y2="34" class="grid-line-2mu"/>
<line x1="0" y1="34.5" x2="36" y2="34.5" class="grid-line"/>
<line x1="0" y1="35" x2="36" y2="35" class="grid-line"/>
<line x1="0" y1="35.5" x2="36" y2="35.5" class="grid-line"/>
<line x1="0" y1="36" x2="36" y2="36" class="grid-line-6mu"/>
</g>
<g id="layer-delaunay" class="layer hidden">
<line x1="14.319698221682168" y1="14.883725942213763" x2="16.730749991907473" y2="8.718635422201716" class="delaunay-line"/>
<line x1="16.730749991907473" y1="8.718635422201716" x2="6.605192515363158" y2="10.248383268023275" class="delaunay-line"/>
<line x1="6.605192515363158" y1="10.248383268023275" x2="14.319698221682168" y2="14.883725942213763" class="delaunay-line"/>
<line x1="6.605192515363158" y1="10.248383268023275" x2="7.562589774910501" y2="15.287649652062056" class="delaunay-line"/>
<line x1="7.562589774910501" y1="15.287649652062056" x2="14.319698221682168" y2="14.883725942213763" class="delaunay-line"/>
<line x1="14.319698221682168" y1="14.883725942213763" x2="6.605192515363158" y2="10.248383268023275" class="delaunay-line"/>
<line x1="16.730749991907473" y1="8.718635422201716" x2="10.262002427036878" y2="3.5952088746392326" class="delaunay-line"/>
<line x1="10.262002427036878" y1="3.5952088746392326" x2="6.605192515363158" y2="10.248383268023275" class="delaunay-line"/>
<line x1="6.605192515363158" y1="10.248383268023275" x2="16.730749991907473" y2="8.718635422201716" class="delaunay-line"/>
<line x1="16.730749991907473" y1="8.718635422201716" x2="22.63528125282204" y2="1.9262492001967666" class="delaunay-line"/>
<line x1="22.63528125282204" y1="1.9262492001967666" x2="10.262002427036878" y2="3.5952088746392326" class="delaunay-line"/>
<line x1="10.262002427036878" y1="3.5952088746392326" x2="16.730749991907473" y2="8.718635422201716" class="delaunay-line"/>
<line x1="29.277457248947698" y1="13.698382742111399" x2="22.63528125282204" y2="1.9262492001967666" class="delaunay-line"/>
<line x1="22.63528125282204" y1="1.9262492001967666" x2="16.730749991907473" y2="8.718635422201716" class="delaunay-line"/>
<line x1="16.730749991907473" y1="8.718635422201716" x2="29.277457248947698" y2="13.698382742111399" class="delaunay-line"/>
<line x1="0.4247356164425087" y1="20.534390876448622" x2="7.249102188911989" y2="23.826983097236024" class="delaunay-line"/>
<line x1="7.249102188911989" y1="23.826983097236024" x2="7.562589774910501" y2="15.287649652062056" class="delaunay-line"/>
<line x1="7.562589774910501" y1="15.287649652062056" x2="0.4247356164425087" y2="20.534390876448622" class="delaunay-line"/>
<line x1="7.562589774910501" y1="15.287649652062056" x2="7.249102188911989" y2="23.826983097236024" class="delaunay-line"/>
<line x1="7.249102188911989" y1="23.826983097236024" x2="14.319698221682168" y2="14.883725942213763" class="delaunay-line"/>
<line x1="14.319698221682168" y1="14.883725942213763" x2="7.562589774910501" y2="15.287649652062056" class="delaunay-line"/>
<line x1="6.605192515363158" y1="10.248383268023275" x2="0.4247356164425087" y2="20.534390876448622" class="delaunay-line"/>
<line x1="0.4247356164425087" y1="20.534390876448622" x2="7.562589774910501" y2="15.287649652062056" class="delaunay-line"/>
<line x1="7.562589774910501" y1="15.287649652062056" x2="6.605192515363158" y2="10.248383268023275" class="delaunay-line"/>
<line x1="-7.0529611968680275" y1="11.913383836904083" x2="0.4247356164425087" y2="20.534390876448622" class="delaunay-line"/>
<line x1="0.4247356164425087" y1="20.534390876448622" x2="6.605192515363158" y2="10.248383268023275" class="delaunay-line"/>
<line x1="6.605192515363158" y1="10.248383268023275" x2="-7.0529611968680275" y2="11.913383836904083" class="delaunay-line"/>
<line x1="7.249102188911989" y1="23.826983097236024" x2="8.139241322761519" y2="25.16973355063911" class="delaunay-line"/>
<line x1="8.139241322761519" y1="25.16973355063911" x2="14.319698221682168" y2="14.883725942213763" class="delaunay-line"/>
<line x1="14.319698221682168" y1="14.883725942213763" x2="7.249102188911989" y2="23.826983097236024" class="delaunay-line"/>
<line x1="14.319698221682168" y1="14.883725942213763" x2="25.787264954580735" y2="16.5913437700878" class="delaunay-line"/>
<line x1="25.787264954580735" y1="16.5913437700878" x2="16.730749991907473" y2="8.718635422201716" class="delaunay-line"/>
<line x1="16.730749991907473" y1="8.718635422201716" x2="14.319698221682168" y2="14.883725942213763" class="delaunay-line"/>
<line x1="2.0529497662053577" y1="26.826983097236024" x2="8.139241322761519" y2="25.16973355063911" class="delaunay-line"/>
<line x1="8.139241322761519" y1="25.16973355063911" x2="7.249102188911989" y2="23.826983097236024" class="delaunay-line"/>
<line x1="7.249102188911989" y1="23.826983097236024" x2="2.0529497662053577" y2="26.826983097236024" class="delaunay-line"/>
<line x1="11.749102188911992" y1="31.621211731295972" x2="25.787264954580735" y2="16.5913437700878" class="delaunay-line"/>
<line x1="25.787264954580735" y1="16.5913437700878" x2="14.319698221682168" y2="14.883725942213763" class="delaunay-line"/>
<line x1="14.319698221682168" y1="14.883725942213763" x2="11.749102188911992" y2="31.621211731295972" class="delaunay-line"/>
<line x1="22.63528125282204" y1="1.9262492001967666" x2="0" y2="0" class="delaunay-line"/>
<line x1="0" y1="0" x2="10.262002427036878" y2="3.5952088746392326" class="delaunay-line"/>
<line x1="10.262002427036878" y1="3.5952088746392326" x2="22.63528125282204" y2="1.9262492001967666" class="delaunay-line"/>
<line x1="10.262002427036878" y1="3.5952088746392326" x2="0" y2="0" class="delaunay-line"/>
<line x1="0" y1="0" x2="6.605192515363158" y2="10.248383268023275" class="delaunay-line"/>
<line x1="6.605192515363158" y1="10.248383268023275" x2="10.262002427036878" y2="3.5952088746392326" class="delaunay-line"/>
<line x1="25.787264954580735" y1="16.5913437700878" x2="29.277457248947698" y2="13.698382742111399" class="delaunay-line"/>
<line x1="29.277457248947698" y1="13.698382742111399" x2="16.730749991907473" y2="8.718635422201716" class="delaunay-line"/>
<line x1="16.730749991907473" y1="8.718635422201716" x2="25.787264954580735" y2="16.5913437700878" class="delaunay-line"/>
<line x1="0" y1="0" x2="-7.0529611968680275" y2="11.913383836904083" class="delaunay-line"/>
<line x1="-7.0529611968680275" y1="11.913383836904083" x2="6.605192515363158" y2="10.248383268023275" class="delaunay-line"/>
<line x1="6.605192515363158" y1="10.248383268023275" x2="0" y2="0" class="delaunay-line"/>
<line x1="0" y1="0" x2="-4.353548544741651" y2="0.22094305948126025" class="delaunay-line"/>
<line x1="-4.353548544741651" y1="0.22094305948126025" x2="-7.0529611968680275" y2="11.913383836904083" class="delaunay-line"/>
<line x1="-7.0529611968680275" y1="11.913383836904083" x2="0" y2="0" class="delaunay-line"/>
<line x1="0" y1="36" x2="2.0529497662053577" y2="26.826983097236024" class="delaunay-line"/>
<line x1="2.0529497662053577" y1="26.826983097236024" x2="0.4247356164425087" y2="20.534390876448622" class="delaunay-line"/>
<line x1="0.4247356164425087" y1="20.534390876448622" x2="0" y2="36" class="delaunay-line"/>
<line x1="0.4247356164425087" y1="20.534390876448622" x2="2.0529497662053577" y2="26.826983097236024" class="delaunay-line"/>
<line x1="2.0529497662053577" y1="26.826983097236024" x2="7.249102188911989" y2="23.826983097236024" class="delaunay-line"/>
<line x1="7.249102188911989" y1="23.826983097236024" x2="0.4247356164425087" y2="20.534390876448622" class="delaunay-line"/>
<line x1="29.277457248947698" y1="13.698382742111399" x2="30.218213418356576" y2="4.747685683796938" class="delaunay-line"/>
<line x1="30.218213418356576" y1="4.747685683796938" x2="22.63528125282204" y2="1.9262492001967666" class="delaunay-line"/>
<line x1="22.63528125282204" y1="1.9262492001967666" x2="29.277457248947698" y2="13.698382742111399" class="delaunay-line"/>
<line x1="29.277457248947698" y1="13.698382742111399" x2="31.6917962154953" y2="9.798957548082852" class="delaunay-line"/>
<line x1="31.6917962154953" y1="9.798957548082852" x2="30.218213418356576" y2="4.747685683796938" class="delaunay-line"/>
<line x1="30.218213418356576" y1="4.747685683796938" x2="29.277457248947698" y2="13.698382742111399" class="delaunay-line"/>
<line x1="6.552949766205361" y1="34.62121173129597" x2="11.749102188911992" y2="31.621211731295972" class="delaunay-line"/>
<line x1="11.749102188911992" y1="31.621211731295972" x2="8.139241322761519" y2="25.16973355063911" class="delaunay-line"/>
<line x1="8.139241322761519" y1="25.16973355063911" x2="6.552949766205361" y2="34.62121173129597" class="delaunay-line"/>
<line x1="8.139241322761519" y1="25.16973355063911" x2="11.749102188911992" y2="31.621211731295972" class="delaunay-line"/>
<line x1="11.749102188911992" y1="31.621211731295972" x2="14.319698221682168" y2="14.883725942213763" class="delaunay-line"/>
<line x1="14.319698221682168" y1="14.883725942213763" x2="8.139241322761519" y2="25.16973355063911" class="delaunay-line"/>
<line x1="25.787264954580735" y1="16.5913437700878" x2="35.24458862115734" y2="14.325553521717318" class="delaunay-line"/>
<line x1="35.24458862115734" y1="14.325553521717318" x2="29.277457248947698" y2="13.698382742111399" class="delaunay-line"/>
<line x1="29.277457248947698" y1="13.698382742111399" x2="25.787264954580735" y2="16.5913437700878" class="delaunay-line"/>
<line x1="36" y1="36" x2="35.24458862115734" y2="14.325553521717318" class="delaunay-line"/>
<line x1="35.24458862115734" y1="14.325553521717318" x2="25.787264954580735" y2="16.5913437700878" class="delaunay-line"/>
<line x1="25.787264954580735" y1="16.5913437700878" x2="36" y2="36" class="delaunay-line"/>
<line x1="29.277457248947698" y1="13.698382742111399" x2="35.24458862115734" y2="14.325553521717318" class="delaunay-line"/>
<line x1="35.24458862115734" y1="14.325553521717318" x2="31.6917962154953" y2="9.798957548082852" class="delaunay-line"/>
<line x1="31.6917962154953" y1="9.798957548082852" x2="29.277457248947698" y2="13.698382742111399" class="delaunay-line"/>
<line x1="31.6917962154953" y1="9.798957548082852" x2="36.18534479056621" y2="5.374856463402857" class="delaunay-line"/>
<line x1="36.18534479056621" y1="5.374856463402857" x2="30.218213418356576" y2="4.747685683796938" class="delaunay-line"/>
<line x1="30.218213418356576" y1="4.747685683796938" x2="31.6917962154953" y2="9.798957548082852" class="delaunay-line"/>
<line x1="2.0529497662053577" y1="26.826983097236024" x2="6.552949766205361" y2="34.62121173129597" class="delaunay-line"/>
<line x1="6.552949766205361" y1="34.62121173129597" x2="8.139241322761519" y2="25.16973355063911" class="delaunay-line"/>
<line x1="8.139241322761519" y1="25.16973355063911" x2="2.0529497662053577" y2="26.826983097236024" class="delaunay-line"/>
<line x1="0" y1="36" x2="6.552949766205361" y2="34.62121173129597" class="delaunay-line"/>
<line x1="6.552949766205361" y1="34.62121173129597" x2="2.0529497662053577" y2="26.826983097236024" class="delaunay-line"/>
<line x1="2.0529497662053577" y1="26.826983097236024" x2="0" y2="36" class="delaunay-line"/>
<line x1="35.24458862115734" y1="14.325553521717318" x2="36.18534479056621" y2="5.374856463402857" class="delaunay-line"/>
<line x1="36.18534479056621" y1="5.374856463402857" x2="31.6917962154953" y2="9.798957548082852" class="delaunay-line"/>
<line x1="31.6917962154953" y1="9.798957548082852" x2="35.24458862115734" y2="14.325553521717318" class="delaunay-line"/>
<line x1="30.218213418356576" y1="4.747685683796938" x2="36" y2="0" class="delaunay-line"/>
<line x1="36" y1="0" x2="22.63528125282204" y2="1.9262492001967666" class="delaunay-line"/>
<line x1="22.63528125282204" y1="1.9262492001967666" x2="30.218213418356576" y2="4.747685683796938" class="delaunay-line"/>
<line x1="36.18534479056621" y1="5.374856463402857" x2="36" y2="0" class="delaunay-line"/>
<line x1="36" y1="0" x2="30.218213418356576" y2="4.747685683796938" class="delaunay-line"/>
<line x1="30.218213418356576" y1="4.747685683796938" x2="36.18534479056621" y2="5.374856463402857" class="delaunay-line"/>
<line x1="22.63528125282204" y1="1.9262492001967666" x2="36" y2="0" class="delaunay-line"/>
<line x1="36" y1="0" x2="0" y2="0" class="delaunay-line"/>
<line x1="0" y1="0" x2="22.63528125282204" y2="1.9262492001967666" class="delaunay-line"/>
<line x1="-7.0529611968680275" y1="11.913383836904083" x2="0" y2="36" class="delaunay-line"/>
<line x1="0" y1="36" x2="0.4247356164425087" y2="20.534390876448622" class="delaunay-line"/>
<line x1="0.4247356164425087" y1="20.534390876448622" x2="-7.0529611968680275" y2="11.913383836904083" class="delaunay-line"/>
<line x1="0" y1="36" x2="36" y2="36" class="delaunay-line"/>
<line x1="36" y1="36" x2="6.552949766205361" y2="34.62121173129597" class="delaunay-line"/>
<line x1="6.552949766205361" y1="34.62121173129597" x2="0" y2="36" class="delaunay-line"/>
<line x1="6.552949766205361" y1="34.62121173129597" x2="36" y2="36" class="delaunay-line"/>
<line x1="36" y1="36" x2="11.749102188911992" y2="31.621211731295972" class="delaunay-line"/>
<line x1="11.749102188911992" y1="31.621211731295972" x2="6.552949766205361" y2="34.62121173129597" class="delaunay-line"/>
<line x1="11.749102188911992" y1="31.621211731295972" x2="36" y2="36" class="delaunay-line"/>
<line x1="36" y1="36" x2="25.787264954580735" y2="16.5913437700878" class="delaunay-line"/>
<line x1="25.787264954580735" y1="16.5913437700878" x2="11.749102188911992" y2="31.621211731295972" class="delaunay-line"/>
<line x1="35.24458862115734" y1="14.325553521717318" x2="36" y2="36" class="delaunay-line"/>
<line x1="36" y1="36" x2="36.18534479056621" y2="5.374856463402857" class="delaunay-line"/>
<line x1="36.18534479056621" y1="5.374856463402857" x2="35.24458862115734" y2="14.325553521717318" class="delaunay-line"/>
</g>
<g id="layer-area" class="layer ">
<polygon points="2.0529497662053577,26.826983097236024 7.249102188911989,23.826983097236024 11.749102188911992,31.621211731295972 6.552949766205361,34.62121173129597" class="terrain-area"/>
<text x="6.9010259775586755" y="29.224097414265998" class="label">#C49A6C</text>
<polygon points="6.605192515363158,10.248383268023275 14.319698221682168,14.883725942213763 8.139241322761519,25.16973355063911 0.4247356164425087,20.534390876448622" class="terrain-area"/>
<text x="7.372216919062338" y="17.709058409331192" class="label">#C49A6C</text>
<polygon points="16.730749991907473,8.718635422201716 22.63528125282204,1.9262492001967666 31.6917962154953,9.798957548082852 25.787264954580735,16.5913437700878" class="terrain-area"/>
<text x="24.211273103701387" y="9.258796485142284" class="label">#C49A6C</text>
<polygon points="10.262002427036878,3.5952088746392326 7.562589774910501,15.287649652062056 -7.0529611968680275,11.913383836904083 -4.353548544741651,0.22094305948126025" class="terrain-area"/>
<text x="1.6045206150844251" y="7.754296355771658" class="label">#C49A6C</text>
<polygon points="35.24458862115734,14.325553521717318 29.277457248947698,13.698382742111399 30.218213418356576,4.747685683796938 36.18534479056621,5.374856463402857" class="terrain-area"/>
<text x="32.73140101975696" y="9.536619602757128" class="label">#C49A6C</text>
</g>
<g id="layer-building" class="layer hidden">
</g>
<g id="layer-wall" class="layer hidden">
</g>
<g id="layer-tree" class="layer hidden">
</g>
<g id="layer-rocks" class="layer hidden">
</g>
<g id="layer-shrub" class="layer hidden">
</g>
<g id="layer-terrain" class="layer hidden">
</g>
<g id="layer-models" class="layer ">
</g>
<g id="layer-paths" class="layer ">
</g>
<g id="layer-vectors" class="layer ">
</g>
<g id="layer-los" class="layer ">
</g>
<g id="layer-lof" class="layer ">
</g>

<g id="legend">
<g class="toggle" onclick="toggleLayer('area')"><rect x="0.4" y="0.14999999999999997" width="0.4" height="0.4" fill="#222" stroke="#222" stroke-width="0.05"/><text x="1.0" y="0.5499999999999999" class="label">Area Terrain (Rough)</text></g>
<g class="toggle" onclick="toggleLayer('grid')"><rect x="0.4" y="0.95" width="0.4" height="0.4" fill="#fff" stroke="#222" stroke-width="0.05"/><text x="1.0" y="1.3499999999999999" class="label">0.5 MU Grid</text></g>
<g class="toggle disabled"><rect x="0.4" y="1.7500000000000002" width="0.4" height="0.4" fill="#fff" stroke="#222" stroke-width="0.05"/><text x="1.0" y="2.1500000000000004" class="label">Trees</text></g>
<g class="toggle disabled"><rect x="0.4" y="2.55" width="0.4" height="0.4" fill="#fff" stroke="#222" stroke-width="0.05"/><text x="1.0" y="2.95" class="label">Rocks</text></g>
<g class="toggle disabled"><rect x="0.4" y="3.3499999999999996" width="0.4" height="0.4" fill="#fff" stroke="#222" stroke-width="0.05"/><text x="1.0" y="3.75" class="label">Shrubs</text></g>
<g class="toggle" onclick="toggleLayer('delaunay')"><rect x="0.4" y="4.1499999999999995" width="0.4" height="0.4" fill="#fff" stroke="#222" stroke-width="0.05"/><text x="1.0" y="4.55" class="label">Delaunay Mesh</text></g>
<g class="toggle disabled"><rect x="0.4" y="4.949999999999999" width="0.4" height="0.4" fill="#fff" stroke="#222" stroke-width="0.05"/><text x="1.0" y="5.35" class="label">Buildings</text></g>
<g class="toggle disabled"><rect x="0.4" y="5.749999999999999" width="0.4" height="0.4" fill="#fff" stroke="#222" stroke-width="0.05"/><text x="1.0" y="6.1499999999999995" class="label">Walls</text></g>
<g class="toggle" onclick="toggleLayer('terrain')"><rect x="0.4" y="6.549999999999999" width="0.4" height="0.4" fill="#fff" stroke="#222" stroke-width="0.05"/><text x="1.0" y="6.949999999999999" class="label">Other Terrain</text></g>
</g>
</svg>