<svg xmlns="http://www.w3.org/2000/svg" viewBox="0 0 36 36" width="1440" height="1440" font-family="Arial" font-size="0.6">
<defs>
  <style><![CDATA[
    .layer { display: inline; }
    .layer.hidden { display: none; }
    .grid-line { stroke: #999; stroke-width: 0.02; opacity: 0.2; }
    .grid-line-2mu { stroke: #666; stroke-width: 0.04; opacity: 0.4; }
    .grid-line-6mu { stroke: #333; stroke-width: 0.08; opacity: 0.6; }
    .delaunay-line { stroke: #4a6fa5; stroke-width: 0.03; opacity: 0.3; }
    #layer-area { opacity: 0.8; }
    #layer-building, #layer-wall, #layer-tree, #layer-rocks, #layer-shrub, #layer-terrain { opacity: 0.8; }
    .terrain-area { stroke: none; }
    .terrain-solid { stroke: #000; stroke-width: 0.05; }
    .model { stroke: #ff0000; stroke-width: 2; vector-effect: non-scaling-stroke; }
    .path { fill: none; stroke-width: 0.12; }
    .vector { stroke-width: 0.1; }
    .los-ray { stroke-width: 0.08; stroke-dasharray: 0.2 0.2; }
    .lof-ray { stroke-width: 0.08; stroke-dasharray: 0.3 0.15; }
    .label { fill: #111 !important; font-size: 0.6px; }
    .toggle { cursor: pointer; }
    .toggle.disabled { cursor: default; }
    .toggle.disabled rect { stroke: #ccc; fill: #fff; }
    .toggle.disabled text { fill: #ccc; }

  ]]></style>
</defs>
<rect x="0" y="0" width="36" height="36" fill="#ffffff" stroke="#111" stroke-width="0.05"/>
<script><![CDATA[
      function toggleLayer(id) {
        var layer = document.getElementById('layer-' + id);
        if (!layer) return;
        if (layer.classList.contains('hidden')) {
          layer.classList.remove('hidden');
        } else {
          layer.classList.add('hidden');
        }
      }
    ]]></script>
<text x="0.4" y="35.6" class="label">QAI_12 - Turn 1</text>
<g id="layer-deployment" class="layer ">
<rect x="0" y="32" width="36" height="4" fill="#ff0000" opacity="0.2"/>
<rect x="0" y="0" width="36" height="4" fill="#0000ff" opacity="0.2"/>
</g>
<g id="layer-grid" class="layer ">
<line x1="0" y1="0" x2="0" y2="36" class="grid-line-6mu"/>
<line x1="0.5" y1="0" x2="0.5" y2="36" class="grid-line"/>
<line x1="1" y1="0" x2="1" y2="36" class="grid-line"/>
<line x1="1.5" y1="0" x2="1.5" y2="36" class="grid-line"/>
<line x1="2" y1="0" x2="2" y2="36" class="grid-line-2mu"/>
<line x1="2.5" y1="0" x2="2.5" y2="36" class="grid-line"/>
<line x1="3" y1="0" x2="3" y2="36" class="grid-line"/>
<line x1="3.5" y1="0" x2="3.5" y2="36" class="grid-line"/>
<line x1="4" y1="0" x2="4" y2="36" class="grid-line-2mu"/>
<line x1="4.5" y1="0" x2="4.5" y2="36" class="grid-line"/>
<line x1="5" y1="0" x2="5" y2="36" class="grid-line"/>
<line x1="5.5" y1="0" x2="5.5" y2="36" class="grid-line"/>
<line x1="6" y1="0" x2="6" y2="36" class="grid-line-6mu"/>
<line x1="6.5" y1="0" x2="6.5" y2="36" class="grid-line"/>
<line x1="7" y1="0" x2="7" y2="36" class="grid-line"/>
<line x1="7.5" y1="0" x2="7.5" y2="36" class="grid-line"/>
<line x1="8" y1="0" x2="8" y2="36" class="grid-line-2mu"/>
<line x1="8.5" y1="0" x2="8.5" y2="36" class="grid-line"/>
<line x1="9" y1="0" x2="9" y2="36" class="grid-line"/>
<line x1="9.5" y1="0" x2="9.5" y2="36" class="grid-line"/>
<line x1="10" y1="0" x2="10" y2="36" class="grid-line-2mu"/>
<line x1="10.5" y1="0" x2="10.5" y2="36" class="grid-line"/>
<line x1="11" y1="0" x2="11" y2="36" class="grid-line"/>
<line x1="11.5" y1="0" x2="11.5" y2="36" class="grid-line"/>
<line x1="12" y1="0" x2="12" y2="36" class="grid-line-6mu"/>
<line x1="12.5" y1="0" x2="12.5" y2="36" class="grid-line"/>
<line x1="13" y1="0" x2="13" y2="36" class="grid-line"/>
<line x1="13.5" y1="0" x2="13.5" y2="36" class="grid-line"/>
<line x1="14" y1="0" x2="14" y2="36" class="grid-line-2mu"/>
<line x1="14.5" y1="0" x2="14.5" y2="36" class="grid-line"/>
<line x1="15" y1="0" x2="15" y2="36" class="grid-line"/>
<line x1="15.5" y1="0" x2="15.5" y2="36" class="grid-line"/>
<line x1="16" y1="0" x2="16" y2="36" class="grid-line-2mu"/>
<line x1="16.5" y1="0" x2="16.5" y2="36" class="grid-line"/>
<line x1="17" y1="0" x2="17" y2="36" class="grid-line"/>
<line x1="17.5" y1="0" x2="17.5" y2="36" class="grid-line"/>
<line x1="18" y1="0" x2="18" y2="36" class="grid-line-6mu"/>
<line x1="18.5" y1="0" x2="18.5" y2="36" class="grid-line"/>
<line x1="19" y1="0" x2="19" y2="36" class="grid-line"/>
<line x1="19.5" y1="0" x2="19.5" y2="36" class="grid-line"/>
<line x1="20" y1="0" x2="20" y2="36" class="grid-line-2mu"/>
<line x1="20.5" y1="0" x2="20.5" y2="36" class="grid-line"/>
<line x1="21" y1="0" x2="21" y2="36" class="grid-line"/>
<line x1="21.5" y1="0" x2="21.5" y2="36" class="grid-line"/>
<line x1="22" y1="0" x2="22" y2="36" class="grid-line-2mu"/>
<line x1="22.5" y1="0" x2="22.5" y2="36" class="grid-line"/>
<line x1="23" y1="0" x2="23" y2="36" class="grid-line"/>
<line x1="23.5" y1="0" x2="23.5" y2="36" class="grid-line"/>
<line x1="24" y1="0" x2="24" y2="36" class="grid-line-6mu"/>
<line x1="24.5" y1="0" x2="24.5" y2="36" class="grid-line"/>
<line x1="25" y1="0" x2="25" y2="36" class="grid-line"/>
<line x1="25.5" y1="0" x2="25.5" y2="36" class="grid-line"/>
<line x1="26" y1="0" x2="26" y2="36" class="grid-line-2mu"/>
<line x1="26.5" y1="0" x2="26.5" y2="36" class="grid-line"/>
<line x1="27" y1="0" x2="27" y2="36" class="grid-line"/>
<line x1="27.5" y1="0" x2="27.5" y2="36" class="grid-line"/>
<line x1="28" y1="0" x2="28" y2="36" class="grid-line-2mu"/>
<line x1="28.5" y1="0" x2="28.5" y2="36" class="grid-line"/>
<line x1="29" y1="0" x2="29" y2="36" class="grid-line"/>
<line x1="29.5" y1="0" x2="29.5" y2="36" class="grid-line"/>
<line x1="30" y1="0" x2="30" y2="36" class="grid-line-6mu"/>
<line x1="30.5" y1="0" x2="30.5" y2="36" class="grid-line"/>
<line x1="31" y1="0" x2="31" y2="36" class="grid-line"/>
<line x1="31.5" y1="0" x2="31.5" y2="36" class="grid-line"/>
<line x1="32" y1="0" x2="32" y2="36" class="grid-line-2mu"/>
<line x1="32.5" y1="0" x2="32.5" y2="36" class="grid-line"/>
<line x1="33" y1="0" x2="33" y2="36" class="grid-line"/>
<line x1="33.5" y1="0" x2="33.5" y2="36" class="grid-line"/>
<line x1="34" y1="0" x2="34" y2="36" class="grid-line-2mu"/>
<line x1="34.5" y1="0" x2="34.5" y2="36" class="grid-line"/>
<line x1="35" y1="0" x2="35" y2="36" class="grid-line"/>
<line x1="35.5" y1="0" x2="35.5" y2="36" class="grid-line"/>
<line x1="36" y1="0" x2="36" y2="36" class="grid-line-6mu"/>
<line x1="0" y1="0" x2="36" y2="0" class="grid-line-6mu"/>
<line x1="0" y1="0.5" x2="36" y2="0.5" class="grid-line"/>
<line x1="0" y1="1" x2="36" y2="1" class="grid-line"/>
<line x1="0" y1="1.5" x2="36" y2="1.5" class="grid-line"/>
<line x1="0" y1="2" x2="36" y2="2" class="grid-line-2mu"/>
<line x1="0" y1="2.5" x2="36" y2="2.5" class="grid-line"/>
<line x1="0" y1="3" x2="36" y2="3" class="grid-line"/>
<line x1="0" y1="3.5" x2="36" y2="3.5" class="grid-line"/>
<line x1="0" y1="4" x2="36" y2="4" class="grid-line-2mu"/>
<line x1="0" y1="4.5" x2="36" y2="4.5" class="grid-line"/>
<line x1="0" y1="5" x2="36" y2="5" class="grid-line"/>
<line x1="0" y1="5.5" x2="36" y2="5.5" class="grid-line"/>
<line x1="0" y1="6" x2="36" y2="6" class="grid-line-6mu"/>
<line x1="0" y1="6.5" x2="36" y2="6.5" class="grid-line"/>
<line x1="0" y1="7" x2="36" y2="7" class="grid-line"/>
<line x1="0" y1="7.5" x2="36" y2="7.5" class="grid-line"/>
<line x1="0" y1="8" x2="36" y2="8" class="grid-line-2mu"/>
<line x1="0" y1="8.5" x2="36" y2="8.5" class="grid-line"/>
<line x1="0" y1="9" x2="36" y2="9" class="grid-line"/>
<line x1="0" y1="9.5" x2="36" y2="9.5" class="grid-line"/>
<line x1="0" y1="10" x2="36" y2="10" class="grid-line-2mu"/>
<line x1="0" y1="10.5" x2="36" y2="10.5" class="grid-line"/>
<line x1="0" y1="11" x2="36" y2="11" class="grid-line"/>
<line x1="0" y1="11.5" x2="36" y2="11.5" class="grid-line"/>
<line x1="0" y1="12" x2="36" y2="12" class="grid-line-6mu"/>
<line x1="0" y1="12.5" x2="36" y2="12.5" class="grid-line"/>
<line x1="0" y1="13" x2="36" y2="13" class="grid-line"/>
<line x1="0" y1="13.5" x2="36" y2="13.5" class="grid-line"/>
<line x1="0" y1="14" x2="36" y2="14" class="grid-line-2mu"/>
<line x1="0" y1="14.5" x2="36" y2="14.5" class="grid-line"/>
<line x1="0" y1="15" x2="36" y2="15" class="grid-line"/>
<line x1="0" y1="15.5" x2="36" y2="15.5" class="grid-line"/>
<line x1="0" y1="16" x2="36" y2="16" class="grid-line-2mu"/>
<line x1="0" y1="16.5" x2="36" y2="16.5" class="grid-line"/>
<line x1="0" y1="17" x2="36" y2="17" class="grid-line"/>
<line x1="0" y1="17.5" x2="36" y2="17.5" class="grid-line"/>
<line x1="0" y1="18" x2="36" y2="18" class="grid-line-6mu"/>
<line x1="0" y1="18.5" x2="36" y2="18.5" class="grid-line"/>
<line x1="0" y1="19" x2="36" y2="19" class="grid-line"/>
<line x1="0" y1="19.5" x2="36" y2="19.5" class="grid-line"/>
<line x1="0" y1="20" x2="36" y2="20" class="grid-line-2mu"/>
<line x1="0" y1="20.5" x2="36" y2="20.5" class="grid-line"/>
<line x1="0" y1="21" x2="36" y2="21" class="grid-line"/>
<line x1="0" y1="21.5" x2="36" y2="21.5" class="grid-line"/>
<line x1="0" y1="22" x2="36" y2="22" class="grid-line-2mu"/>
<line x1="0" y1="22.5" x2="36" y2="22.5" class="grid-line"/>
<line x1="0" y1="23" x2="36" y2="23" class="grid-line"/>
<line x1="0" y1="23.5" x2="36" y2="23.5" class="grid-line"/>
<line x1="0" y1="24" x2="36" y2="24" class="grid-line-6mu"/>
<line x1="0" y1="24.5" x2="36" y2="24.5" class="grid-line"/>
<line x1="0" y1="25" x2="36" y2="25" class="grid-line"/>
<line x1="0" y1="25.5" x2="36" y2="25.5" class="grid-line"/>
<line x1="0" y1="26" x2="36" y2="26" class="grid-line-2mu"/>
<line x1="0" y1="26.5" x2="36" y2="26.5" class="grid-line"/>
<line x1="0" y1="27" x2="36" y2="27" class="grid-line"/>
<line x1="0" y1="27.5" x2="36" y2="27.5" class="grid-line"/>
<line x1="0" y1="28" x2="36" y2="28" class="grid-line-2mu"/>
<line x1="0" y1="28.5" x2="36" y2="28.5" class="grid-line"/>
<line x1="0" y1="29" x2="36" y2="29" class="grid-line"/>
<line x1="0" y1="29.5" x2="36" y2="29.5" class="grid-line"/>
<line x1="0" y1="30" x2="36" y2="30" class="grid-line-6mu"/>
<line x1="0" y1="30.5" x2="36" y2="30.5" class="grid-line"/>
<line x1="0" y1="31" x2="36" y2="31" class="grid-line"/>
<line x1="0" y1="31.5" x2="36" y2="31.5" class="grid-line"/>
<line x1="0" y1="32" x2="36" y2="32" class="grid-line-2mu"/>
<line x1="0" y1="32.5" x2="36" y2="32.5" class="grid-line"/>
<line x1="0" y1="33" x2="36" y2="33" class="grid-line"/>
<line x1="0" y1="33.5" x2="36" y2="33.5" class="grid-line"/>
<line x1="0" y1="34" x2="36" y2="34" class="grid-line-2mu"/>
<line x1="0" y1="34.5" x2="36" y2="34.5" class="grid-line"/>
<line x1="0" y1="35" x2="36" y2="35" class="grid-line"/>
<line x1="0" y1="35.5" x2="36" y2="35.5" class="grid-line"/>
<line x1="0" y1="36" x2="36" y2="36" class="grid-line-6mu"/>
</g>
<g id="layer-delaunay" class="layer hidden">
<line x1="17.5" y1="22.5" x2="18.5" y2="23.5" class="delaunay-line"/>
<line x1="18.5" y1="23.5" x2="18.5" y2="22.5" class="delaunay-line"/>
<line x1="18.5" y1="22.5" x2="17.5" y2="22.5" class="delaunay-line"/>
<line x1="17.5" y1="22.5" x2="17.5" y2="23.5" class="delaunay-line"/>
<line x1="17.5" y1="23.5" x2="18.5" y2="23.5" class="delaunay-line"/>
<line x1="18.5" y1="23.5" x2="17.5" y2="22.5" class="delaunay-line"/>
<line x1="17.5" y1="23.5" x2="17.5" y2="27.5" class="delaunay-line"/>
<line x1="17.5" y1="27.5" x2="18.5" y2="23.5" class="delaunay-line"/>
<line x1="18.5" y1="23.5" x2="17.5" y2="23.5" class="delaunay-line"/>
<line x1="17.5" y1="23.5" x2="16.5" y2="27.5" class="delaunay-line"/>
<line x1="16.5" y1="27.5" x2="17.5" y2="27.5" class="delaunay-line"/>
<line x1="17.5" y1="27.5" x2="17.5" y2="23.5" class="delaunay-line"/>
<line x1="9.5" y1="27.5" x2="16.5" y2="27.5" class="delaunay-line"/>
<line x1="16.5" y1="27.5" x2="17.5" y2="23.5" class="delaunay-line"/>
<line x1="17.5" y1="23.5" x2="9.5" y2="27.5" class="delaunay-line"/>
<line x1="16.5" y1="27.5" x2="17.5" y2="28.5" class="delaunay-line"/>
<line x1="17.5" y1="28.5" x2="17.5" y2="27.5" class="delaunay-line"/>
<line x1="17.5" y1="27.5" x2="16.5" y2="27.5" class="delaunay-line"/>
<line x1="17.5" y1="27.5" x2="31.5" y2="22.5" class="delaunay-line"/>
<line x1="31.5" y1="22.5" x2="18.5" y2="23.5" class="delaunay-line"/>
<line x1="18.5" y1="23.5" x2="17.5" y2="27.5" class="delaunay-line"/>
<line x1="16.5" y1="27.5" x2="16.5" y2="28.5" class="delaunay-line"/>
<line x1="16.5" y1="28.5" x2="17.5" y2="28.5" class="delaunay-line"/>
<line x1="17.5" y1="28.5" x2="16.5" y2="27.5" class="delaunay-line"/>
<line x1="9.5" y1="18.5" x2="9.5" y2="19.5" class="delaunay-line"/>
<line x1="9.5" y1="19.5" x2="17.5" y2="22.5" class="delaunay-line"/>
<line x1="17.5" y1="22.5" x2="9.5" y2="18.5" class="delaunay-line"/>
<line x1="17.5" y1="22.5" x2="9.5" y2="19.5" class="delaunay-line"/>
<line x1="9.5" y1="19.5" x2="17.5" y2="23.5" class="delaunay-line"/>
<line x1="17.5" y1="23.5" x2="17.5" y2="22.5" class="delaunay-line"/>
<line x1="16.5" y1="27.5" x2="9.5" y2="27.5" class="delaunay-line"/>
<line x1="9.5" y1="27.5" x2="16.5" y2="28.5" class="delaunay-line"/>
<line x1="16.5" y1="28.5" x2="16.5" y2="27.5" class="delaunay-line"/>
<line x1="9.5" y1="19.5" x2="9.5" y2="27.5" class="delaunay-line"/>
<line x1="9.5" y1="27.5" x2="17.5" y2="23.5" class="delaunay-line"/>
<line x1="17.5" y1="23.5" x2="9.5" y2="19.5" class="delaunay-line"/>
<line x1="18.5" y1="22.5" x2="9.5" y2="18.5" class="delaunay-line"/>
<line x1="9.5" y1="18.5" x2="17.5" y2="22.5" class="delaunay-line"/>
<line x1="17.5" y1="22.5" x2="18.5" y2="22.5" class="delaunay-line"/>
<line x1="9.5" y1="27.5" x2="9.5" y2="28.5" class="delaunay-line"/>
<line x1="9.5" y1="28.5" x2="16.5" y2="28.5" class="delaunay-line"/>
<line x1="16.5" y1="28.5" x2="9.5" y2="27.5" class="delaunay-line"/>
<line x1="9.5" y1="18.5" x2="8.5" y2="19.5" class="delaunay-line"/>
<line x1="8.5" y1="19.5" x2="9.5" y2="19.5" class="delaunay-line"/>
<line x1="9.5" y1="19.5" x2="9.5" y2="18.5" class="delaunay-line"/>
<line x1="9.5" y1="19.5" x2="8.5" y2="19.5" class="delaunay-line"/>
<line x1="8.5" y1="19.5" x2="9.5" y2="27.5" class="delaunay-line"/>
<line x1="9.5" y1="27.5" x2="9.5" y2="19.5" class="delaunay-line"/>
<line x1="9.5" y1="27.5" x2="8.5" y2="27.5" class="delaunay-line"/>
<line x1="8.5" y1="27.5" x2="9.5" y2="28.5" class="delaunay-line"/>
<line x1="9.5" y1="28.5" x2="9.5" y2="27.5" class="delaunay-line"/>
<line x1="8.5" y1="19.5" x2="8.5" y2="27.5" class="delaunay-line"/>
<line x1="8.5" y1="27.5" x2="9.5" y2="27.5" class="delaunay-line"/>
<line x1="9.5" y1="27.5" x2="8.5" y2="19.5" class="delaunay-line"/>
<line x1="9.5" y1="18.5" x2="8.5" y2="18.5" class="delaunay-line"/>
<line x1="8.5" y1="18.5" x2="8.5" y2="19.5" class="delaunay-line"/>
<line x1="8.5" y1="19.5" x2="9.5" y2="18.5" class="delaunay-line"/>
<line x1="8.5" y1="27.5" x2="8.5" y2="28.5" class="delaunay-line"/>
<line x1="8.5" y1="28.5" x2="9.5" y2="28.5" class="delaunay-line"/>
<line x1="9.5" y1="28.5" x2="8.5" y2="27.5" class="delaunay-line"/>
<line x1="18.5" y1="23.5" x2="31.5" y2="22.5" class="delaunay-line"/>
<line x1="31.5" y1="22.5" x2="18.5" y2="22.5" class="delaunay-line"/>
<line x1="18.5" y1="22.5" x2="18.5" y2="23.5" class="delaunay-line"/>
<line x1="18.5" y1="22.5" x2="36" y2="0" class="delaunay-line"/>
<line x1="36" y1="0" x2="9.5" y2="18.5" class="delaunay-line"/>
<line x1="9.5" y1="18.5" x2="18.5" y2="22.5" class="delaunay-line"/>
<line x1="17.5" y1="28.5" x2="31.5" y2="22.5" class="delaunay-line"/>
<line x1="31.5" y1="22.5" x2="17.5" y2="27.5" class="delaunay-line"/>
<line x1="17.5" y1="27.5" x2="17.5" y2="28.5" class="delaunay-line"/>
<line x1="31.5" y1="22.5" x2="31.5" y2="21.5" class="delaunay-line"/>
<line x1="31.5" y1="21.5" x2="18.5" y2="22.5" class="delaunay-line"/>
<line x1="18.5" y1="22.5" x2="31.5" y2="22.5" class="delaunay-line"/>
<line x1="34.5" y1="27.5" x2="32.5" y2="22.5" class="delaunay-line"/>
<line x1="32.5" y1="22.5" x2="31.5" y2="22.5" class="delaunay-line"/>
<line x1="31.5" y1="22.5" x2="34.5" y2="27.5" class="delaunay-line"/>
<line x1="31.5" y1="22.5" x2="32.5" y2="22.5" class="delaunay-line"/>
<line x1="32.5" y1="22.5" x2="31.5" y2="21.5" class="delaunay-line"/>
<line x1="31.5" y1="21.5" x2="31.5" y2="22.5" class="delaunay-line"/>
<line x1="32.5" y1="22.5" x2="32.5" y2="21.5" class="delaunay-line"/>
<line x1="32.5" y1="21.5" x2="31.5" y2="21.5" class="delaunay-line"/>
<line x1="31.5" y1="21.5" x2="32.5" y2="22.5" class="delaunay-line"/>
<line x1="31.5" y1="21.5" x2="36" y2="0" class="delaunay-line"/>
<line x1="36" y1="0" x2="18.5" y2="22.5" class="delaunay-line"/>
<line x1="18.5" y1="22.5" x2="31.5" y2="21.5" class="delaunay-line"/>
<line x1="34.5" y1="28.5" x2="34.5" y2="27.5" class="delaunay-line"/>
<line x1="34.5" y1="27.5" x2="31.5" y2="22.5" class="delaunay-line"/>
<line x1="31.5" y1="22.5" x2="34.5" y2="28.5" class="delaunay-line"/>
<line x1="32.5" y1="22.5" x2="35.5" y2="27.5" class="delaunay-line"/>
<line x1="35.5" y1="27.5" x2="32.5" y2="21.5" class="delaunay-line"/>
<line x1="32.5" y1="21.5" x2="32.5" y2="22.5" class="delaunay-line"/>
<line x1="17.5" y1="28.5" x2="34.5" y2="28.5" class="delaunay-line"/>
<line x1="34.5" y1="28.5" x2="31.5" y2="22.5" class="delaunay-line"/>
<line x1="31.5" y1="22.5" x2="17.5" y2="28.5" class="delaunay-line"/>
<line x1="34.5" y1="28.5" x2="35.5" y2="27.5" class="delaunay-line"/>
<line x1="35.5" y1="27.5" x2="34.5" y2="27.5" class="delaunay-line"/>
<line x1="34.5" y1="27.5" x2="34.5" y2="28.5" class="delaunay-line"/>
<line x1="34.5" y1="27.5" x2="35.5" y2="27.5" class="delaunay-line"/>
<line x1="35.5" y1="27.5" x2="32.5" y2="22.5" class="delaunay-line"/>
<line x1="32.5" y1="22.5" x2="34.5" y2="27.5" class="delaunay-line"/>
<line x1="34.5" y1="28.5" x2="35.5" y2="28.5" class="delaunay-line"/>
<line x1="35.5" y1="28.5" x2="35.5" y2="27.5" class="delaunay-line"/>
<line x1="35.5" y1="27.5" x2="34.5" y2="28.5" class="delaunay-line"/>
<line x1="17.5" y1="28.5" x2="36" y2="36" class="delaunay-line"/>
<line x1="36" y1="36" x2="34.5" y2="28.5" class="delaunay-line"/>
<line x1="34.5" y1="28.5" x2="17.5" y2="28.5" class="delaunay-line"/>
<line x1="34.5" y1="28.5" x2="36" y2="36" class="delaunay-line"/>
<line x1="36" y1="36" x2="35.5" y2="28.5" class="delaunay-line"/>
<line x1="35.5" y1="28.5" x2="34.5" y2="28.5" class="delaunay-line"/>
<line x1="35.5" y1="28.5" x2="36" y2="36" class="delaunay-line"/>
<line x1="36" y1="36" x2="35.5" y2="27.5" class="delaunay-line"/>
<line x1="35.5" y1="27.5" x2="35.5" y2="28.5" class="delaunay-line"/>
<line x1="0" y1="36" x2="36" y2="36" class="delaunay-line"/>
<line x1="36" y1="36" x2="17.5" y2="28.5" class="delaunay-line"/>
<line x1="17.5" y1="28.5" x2="0" y2="36" class="delaunay-line"/>
<line x1="0" y1="36" x2="17.5" y2="28.5" class="delaunay-line"/>
<line x1="17.5" y1="28.5" x2="16.5" y2="28.5" class="delaunay-line"/>
<line x1="16.5" y1="28.5" x2="0" y2="36" class="delaunay-line"/>
<line x1="0" y1="36" x2="16.5" y2="28.5" class="delaunay-line"/>
<line x1="16.5" y1="28.5" x2="9.5" y2="28.5" class="delaunay-line"/>
<line x1="9.5" y1="28.5" x2="0" y2="36" class="delaunay-line"/>
<line x1="8.5" y1="27.5" x2="0" y2="36" class="delaunay-line"/>
<line x1="0" y1="36" x2="8.5" y2="28.5" class="delaunay-line"/>
<line x1="8.5" y1="28.5" x2="8.5" y2="27.5" class="delaunay-line"/>
<line x1="8.5" y1="28.5" x2="0" y2="36" class="delaunay-line"/>
<line x1="0" y1="36" x2="9.5" y2="28.5" class="delaunay-line"/>
<line x1="9.5" y1="28.5" x2="8.5" y2="28.5" class="delaunay-line"/>
<line x1="8.5" y1="19.5" x2="0" y2="36" class="delaunay-line"/>
<line x1="0" y1="36" x2="8.5" y2="27.5" class="delaunay-line"/>
<line x1="8.5" y1="27.5" x2="8.5" y2="19.5" class="delaunay-line"/>
<line x1="8.5" y1="18.5" x2="0" y2="36" class="delaunay-line"/>
<line x1="0" y1="36" x2="8.5" y2="19.5" class="delaunay-line"/>
<line x1="8.5" y1="19.5" x2="8.5" y2="18.5" class="delaunay-line"/>
<line x1="36" y1="36" x2="36" y2="0" class="delaunay-line"/>
<line x1="36" y1="0" x2="35.5" y2="27.5" class="delaunay-line"/>
<line x1="35.5" y1="27.5" x2="36" y2="36" class="delaunay-line"/>
<line x1="35.5" y1="27.5" x2="36" y2="0" class="delaunay-line"/>
<line x1="36" y1="0" x2="32.5" y2="21.5" class="delaunay-line"/>
<line x1="32.5" y1="21.5" x2="35.5" y2="27.5" class="delaunay-line"/>
<line x1="32.5" y1="21.5" x2="36" y2="0" class="delaunay-line"/>
<line x1="36" y1="0" x2="31.5" y2="21.5" class="delaunay-line"/>
<line x1="31.5" y1="21.5" x2="32.5" y2="21.5" class="delaunay-line"/>
<line x1="9.5" y1="18.5" x2="0" y2="0" class="delaunay-line"/>
<line x1="0" y1="0" x2="8.5" y2="18.5" class="delaunay-line"/>
<line x1="8.5" y1="18.5" x2="9.5" y2="18.5" class="delaunay-line"/>
<line x1="36" y1="0" x2="0" y2="0" class="delaunay-line"/>
<line x1="0" y1="0" x2="9.5" y2="18.5" class="delaunay-line"/>
<line x1="9.5" y1="18.5" x2="36" y2="0" class="delaunay-line"/>
<line x1="8.5" y1="18.5" x2="0" y2="0" class="delaunay-line"/>
<line x1="0" y1="0" x2="0" y2="36" class="delaunay-line"/>
<line x1="0" y1="36" x2="8.5" y2="18.5" class="delaunay-line"/>
</g>
<g id="layer-area" class="layer ">
</g>
<g id="layer-building" class="layer ">
</g>
<g id="layer-wall" class="layer ">
</g>
<g id="layer-tree" class="layer ">
</g>
<g id="layer-rocks" class="layer ">
</g>
<g id="layer-shrub" class="layer ">
</g>
<g id="layer-terrain" class="layer ">
<polygon points="17.5,22.5 18.5,22.5 18.5,23.5 17.5,23.5" class="terrain-solid"/>
<text x="18" y="23" class="label">#bbb</text>
<polygon points="8.5,27.5 9.5,27.5 9.5,28.5 8.5,28.5" class="terrain-solid"/>
<text x="9" y="28" class="label">#bbb</text>
<polygon points="16.5,27.5 17.5,27.5 17.5,28.5 16.5,28.5" class="terrain-solid"/>
<text x="17" y="28" class="label">#bbb</text>
<polygon points="8.5,18.5 9.5,18.5 9.5,19.5 8.5,19.5" class="terrain-solid"/>
<text x="9" y="19" class="label">#bbb</text>
<polygon points="31.5,21.5 32.5,21.5 32.5,22.5 31.5,22.5" class="terrain-solid"/>
<text x="32" y="22" class="label">#bbb</text>
<polygon points="34.5,27.5 35.5,27.5 35.5,28.5 34.5,28.5" class="terrain-solid"/>
<text x="35" y="28" class="label">#bbb</text>
</g>
<g id="layer-models" class="layer ">
<circle cx="0" cy="5" r="0.5" fill="#4CAF50" class="model"/>
<text x="0.7" y="5" class="label">Side A-1</text>
<circle cx="1" cy="5" r="0.5" fill="#4CAF50" class="model"/>
<text x="1.7" y="5" class="label">Side A-2</text>
<circle cx="2" cy="5" r="0.5" fill="#4CAF50" class="model"/>
<text x="2.7" y="5" class="label">Side A-3</text>
<circle cx="3" cy="5" r="0.5" fill="#4CAF50" class="model"/>
<text x="3.7" y="5" class="label">Side A-4</text>
<circle cx="0" cy="30" r="0.5" fill="#F44336" class="model"/>
<text x="0.7" y="30" class="label">Side B-1</text>
<circle cx="1" cy="30" r="0.5" fill="#F44336" class="model"/>
<text x="1.7" y="30" class="label">Side B-2</text>
<circle cx="2" cy="30" r="0.5" fill="#F44336" class="model"/>
<text x="2.7" y="30" class="label">Side B-3</text>
<circle cx="3" cy="30" r="0.5" fill="#F44336" class="model"/>
<text x="3.7" y="30" class="label">Side B-4</text>
</g>
<g id="layer-paths" class="layer ">
</g>
<g id="layer-vectors" class="layer ">
</g>
<g id="layer-los" class="layer ">
</g>
<g id="layer-lof" class="layer ">
</g>

<g id="legend">
<g class="toggle" onclick="toggleLayer('deployment')"><rect x="0.4" y="0.14999999999999997" width="0.4" height="0.4" fill="#222" stroke="#222" stroke-width="0.05"/><text x="1.0" y="0.5499999999999999" class="label">Deployment Zones</text></g>
<g class="toggle" onclick="toggleLayer('grid')"><rect x="0.4" y="0.95" width="0.4" height="0.4" fill="#222" stroke="#222" stroke-width="0.05"/><text x="1.0" y="1.3499999999999999" class="label">0.5 MU Grid</text></g>
<g class="toggle" onclick="toggleLayer('delaunay')"><rect x="0.4" y="1.7500000000000002" width="0.4" height="0.4" fill="#fff" stroke="#222" stroke-width="0.05"/><text x="1.0" y="2.1500000000000004" class="label">Delaunay Mesh</text></g>
<g class="toggle disabled"><rect x="0.4" y="2.55" width="0.4" height="0.4" fill="#222" stroke="#222" stroke-width="0.05"/><text x="1.0" y="2.95" class="label">Area Terrain</text></g>
<g class="toggle disabled"><rect x="0.4" y="3.3499999999999996" width="0.4" height="0.4" fill="#222" stroke="#222" stroke-width="0.05"/><text x="1.0" y="3.75" class="label">Buildings</text></g>
<g class="toggle disabled"><rect x="0.4" y="4.1499999999999995" width="0.4" height="0.4" fill="#222" stroke="#222" stroke-width="0.05"/><text x="1.0" y="4.55" class="label">Walls</text></g>
<g class="toggle disabled"><rect x="0.4" y="4.949999999999999" width="0.4" height="0.4" fill="#222" stroke="#222" stroke-width="0.05"/><text x="1.0" y="5.35" class="label">Trees</text></g>
<g class="toggle disabled"><rect x="0.4" y="5.749999999999999" width="0.4" height="0.4" fill="#222" stroke="#222" stroke-width="0.05"/><text x="1.0" y="6.1499999999999995" class="label">Rocks</text></g>
<g class="toggle disabled"><rect x="0.4" y="6.549999999999999" width="0.4" height="0.4" fill="#222" stroke="#222" stroke-width="0.05"/><text x="1.0" y="6.949999999999999" class="label">Shrubs</text></g>
<g class="toggle" onclick="toggleLayer('terrain')"><rect x="0.4" y="7.349999999999999" width="0.4" height="0.4" fill="#222" stroke="#222" stroke-width="0.05"/><text x="1.0" y="7.749999999999999" class="label">Other Terrain</text></g>
<g class="toggle" onclick="toggleLayer('models')"><rect x="0.4" y="8.15" width="0.4" height="0.4" fill="#222" stroke="#222" stroke-width="0.05"/><text x="1.0" y="8.549999999999999" class="label">Models</text></g>
</g>
</svg>