<svg xmlns="http://www.w3.org/2000/svg" xml:space="preserve" width="96" height="96" viewBox="0 0 25.4 25.4"><path d="m12.8 0-.7.1-.3.1-.4.4a3 3 0 0 1-.3.4l-.1.2-.2-.2-.5-.7h-.1C10 0 9.9 0 9.5.1L9 .4h-.3l-.4.2H8l-.3.2-.6.3c-.4.1-.5.1-.6.4l-.1.2H6l-.4-.1H5l-.5.3c-.2 0-.5.4-.5.5 0 .1 0 .1-.2 0h-.3a2 2 0 0 0-.5 1c0 .2.2.6.4.6l.2.1c.3.3.3.6 0 .7l-.4-.1c-.4-.3-.6-.3-1 .1l-.5.4-.6.4-.3 1v.3c.2.2.2.2 0 .5v.4c.2.3.2.5 0 .7-.4.3-.4.5 0 .8.4.4.6.5.9.5.2 0 .4.1.5.3l-.2.4v.1l-.3.3-.2.2-.4-.1c-.5-.1-.7-.1-.8 0v.9c.2.1.2.3.2.4 0 .3.1.4.5.5l.4.3-.2.1c0 .2-.3.4-.7.4-.4 0-.4.2-.4.9l.1.8.2.2v.3l.4.2c.3 0 .5 0 .5.2v.3c-.1 0-.2.2-.1.4 0 .3 0 .4-.2.6-.2.1-.2.2-.2.4 0 .3.1.8.4 1l.2.5.5.1c.3 0 .4 0 .5.2l.2.3.1.4c.2.3.2.6.1.9v.4l.4.2.7.4c.5.4.7.5 1 .5.2 0 .4 0 .4.2s.2.5.5.6c.3.1.4.2.8 0H7l.4-.2c.3-.3.4-.4.6-.1.1 0 .2.2.2.5 0 .4.2.6.6.7l.7.4a1.6 1.6 0 0 0 .7.5l.4-.2.3-.3h.6c1.2.2 1.8.1 2 0 .2-.3.2-1 0-1.2l-.1-.4c0-.2 0-.2.3-.4l.9-.1h.6l.1.3.2.2.4.1.3.1.3.1c.3.2.3.2.7 0l.5-.1c.2 0 .2 0 .5-.3l.3-.3.2.1c.3.1.5 0 .7-.3.3-.4.4-.5.6-.5.2 0 .4-.2.5-.4l.2-.4.9-.5c.3 0 .6-.3.7-.4v-.3l-.1-.7-.2-.6v-.3h1l.3-.3c.3-.3.4-.4.7-.4l.4-.2c.1-.2.1-.2 0-.4v-.4s0-.2.2-.3c.3-.2.3-.2.2-.5l.2-.4c.2-.2.3-.3.2-.4L25 14c-.2-.4-.2-.4-.1-.7v-.6a4.7 4.7 0 0 0-.8-1.5l.2-.4c.3-.3.4-.5.3-.6v-.6l.2-.5-.2-.5-.4-.5-.2-.3c-.2-.2-.3-.2-.2-.4 0-.2 0-.4-.2-.7l-.2-.5-.2-.3c-.1-.4-.1-.4-.6-.9l-.7-.4c-.2 0-.2 0-.4-.4-.1-.5-.4-.7-1-.8-.4 0-.4 0-.4-.2V3c.3-.3 0-.6-.5-.7-.8 0-.8 0-1.2-.6-.4-.5-.6-.6-.8-.4-.3.1-.7.2-.8.1-.4-.2-.4-.3-.7-.2-.1 0-.3 0-.4.2v.5c0 .1-.3 0-.4-.4 0-.2-.3-.6-.5-.6H14V.7c0-.2-.2-.6-.4-.6l-.7-.1z" style="fill:green;stroke-width:.326561"/><path d="m10 25.3-.5-.4-.7-.4c-.4-.1-.5-.3-.6-.7 0-.3 0-.4-.2-.5-.2-.3-.3-.2-.6 0a1 1 0 0 1-.4.3h-.4c-.4.2-.5.1-.8 0-.3-.1-.5-.4-.5-.6l-.4-.2c-.3 0-.5 0-1-.5l-.7-.4-.3-.2c-.2-.1-.2-.2 0-.4 0-.3 0-.6-.2-1l-.1-.3-.2-.3-.5-.2-.5-.1-.2-.4c-.3-.3-.4-.8-.4-1.1 0-.2 0-.3.2-.4l.2-.6v-.7c0-.2 0-.2-.4-.2-.2 0-.2 0-.3-.2l-.1-.3-.2-.2C0 15 0 15 .1 14.5c0-.7 0-.8.4-.9.4 0 .7-.2.7-.4l.2-.1-.4-.3c-.4-.1-.5-.2-.5-.5L.4 12a1 1 0 0 1-.1-.9c0-.1.3-.1.8 0h.4l.2-.1.2-.3H2l.2-.5c0-.2-.3-.3-.5-.3-.3 0-.5-.1-.9-.5-.4-.3-.4-.5 0-.8.2-.2.2-.4 0-.7v-.4C1 7 1 7 .9 6.9a1 1 0 0 1 0-.4l.3-1 .6-.3.5-.4c.4-.4.6-.4 1-.1l.3.1c.4 0 .4-.4.1-.7L3.4 4c-.2 0-.4-.4-.4-.6l.5-1h.3c.1.1.2.1.2 0s.3-.5.5-.5c.1 0 .5-.2.5-.4h.5l.4.1h.4l.1-.1c.1-.3.2-.3.6-.4a6.2 6.2 0 0 0 1-.4l.2-.1.4-.1.3-.1.6-.2h.7l.1.1.5.7.2.2.1-.2.3-.4.4-.4h.3c.2-.2.3-.2.7-.2h.7c.2.1.4.5.4.7v.2h.9c.2 0 .5.4.5.6.1.3.3.5.4.4v-.5l.4-.2.7.2c.1.1.5 0 .8-.1.2-.2.4 0 .8.4.4.5.4.6 1.2.6.6 0 .8.4.5.7v.3c0 .2 0 .2.4.2.6 0 .9.3 1 .8.2.4.2.4.4.4s.3 0 .7.4c.5.5.5.5.6.9l.2.3.2.5c.2.3.2.5.2.7l.2.4.2.3.4.5.2.5-.1.5c-.2.3-.2.6 0 .6 0 .1 0 .3-.4.6l-.2.4.3.4.5 1.1v1.3c.3.5.4 1 .4 1.2l-.2.4-.2.4c.1.3 0 .3-.2.5l-.3.3.1.4c.1.2.1.2 0 .4l-.4.2c-.3 0-.4 0-.7.4l-.3.3h-.5a4 4 0 0 0-.6 0v.3l.2.6v1c0 .1-.3.4-.6.4l-.9.5-.2.4c0 .2-.3.4-.5.4s-.3.1-.6.5c-.2.4-.4.4-.7.3h-.2l-.3.2c-.3.3-.3.3-.5.3h-.5c-.4.3-.4.3-.7.1a1 1 0 0 0-.3-.1H16l-.4-.2-.2-.2v-.2l-.7-.1-1 .1-.2.4.1.4c.2.3.2 1 0 1.1-.2.2-.8.3-2 .2H11l-.3.2-.4.2-.3-.1zm.5-.6c.2-.1.2-.2.5-.1h.5l.9.1.8-.1V24l-.1-.5c-.2-.3-.2-.7 0-.8l.1-.4c0-.6 0-.7-.6-.5-.4.2-.5.2-.8 0l-.5-.2-.4-.4.4-.1c.4 0 .4 0 .5-.2.1-.3 0-.4-.4-.8l-.4-.6a115.4 115.4 0 0 0-.3-.5c-.2-.1-.2-.2-.2-.3v-1c-.2-.2-.3-.1-.4.1-.2.2-.3.6-.4 1.3 0 .2-.1.3-.2.3-.2 0-.5-.2-.6-.4h-.3l-.3-.2-.2-.1c-.3-.1-.3-.4 0-.5.2 0 .6-.4.6-.5l.2-.2c.1-.2.1-.2.6-.2.6 0 .6 0 .9-.2l.4-.2.3-.3c0-.1 0-.2-.2-.2-.2-.1-.6 0-.8 0l-.4.2-.5-.1-.1-.2c0-.2.2-.4.5-.4s.4 0 .5-.2c0-.3-.1-.5-.5-.5l-.2-.2c0-.2-.2-.3-.7-.4l-.7.1c-.6.2-.9 0-.5-.3.3-.3.3-.4 0-.7l-.3-.2-.4-.4-.7-.5c-.5-.3-.6-.3-.6-.5l.1-.3-.5-.4-.7-.2c-.5 0-.6-.2-.6-.6 0-.2 0-.3-.2-.4L3 10h-.3l-.2.3c-.1.3-.3.5-.7.7-.2.2-.3.2-.6.2H.7c-.1 0 0 .3 0 .4l.2.4v.3h.6l.1.4v.4l-.2.2-.2.4-.4.1c-.2 0-.2 0-.3.2l-.1.4c0 .3 0 .4.2.5l.2.3c0 .2.2.5.3.5.2 0 .7.4.8.6.2.3.2.5 0 .5-.3 0-.4.1-.4.4l-.2.4c-.2.2 0 .7.3 1.2.2.3.4.4.7.4.2 0 .4.2.5.6l.3.6c.2.3.3.4.2.5-.1.5-.1.5.3.7l.6.4c.3.3.5.4.9.4.3 0 .3 0 1 .7l.4.1c.3 0 .6-.2.9-.6.2-.4.4-.4.5-.1l.3.2c.2.1.3.2.3.6 0 .4 0 .5.6.8l.6.5c.3.3.4.3.8 0zm-5.6-7.2-.3-.5a1 1 0 0 0-.3-.3c-.3 0-.2-.3 0-.6.2-.1.2-.2.2-.4 0-.5.2-.6.7-.4h.4l.1.4c.3.7.3.9 0 1.3l-.3.4c0 .2 0 .2-.2.2l-.3-.1zm.4-.7c.3-.3.4-.4.3-.6l-.2-.3c-.1-.3-.2-.3-.3-.3-.1 0-.2 0-.5.5l-.1.3.1.2c.1.3.3.4.4.4l.3-.2zM17 23.3l.2-.3c.1-.2.3-.2.4 0 .2.2.3.1.5-.1 0-.3.3-.5.4-.5l.2.1.3.1.2-.4c0-.2.2-.3.5-.3s.5-.1.5-.3c0-.2.4-.5 1-.8.7-.4.7-.4.7-.6V20l-.2-.5c0-.3 0-.3-.3-.5-.4-.2-.4-.3-.2-.6.3-.5.4-.5.7-.2.2.2.2.2.5.2.4 0 .4 0 .7-.3l.6-.4c.2 0 .3 0 .4-.2v-.3c-.3-.2-.3-.3 0-.5.4-.3.5-.4.3-.7-.1-.2-.1-.3.2-.5.3-.2.3-.2.2-.4l-.2-.2-.1-.5V14c-.2-.1-.2-.3-.1-.4v-1.2l-.6-.7-.6.3c-.2.1-.3.2-.4.1-.3 0-.5 0-.6.2v.5l-.2.2.2.4c.2.3.2.5 0 .7l-.7.1h-.9l-.3-.3-.3-.3-.2.1c-.2.2-.5.1-.8-.2-.4-.3-1.2-.8-1.3-.7v.2c0 .4 0 .4-.4.4l-.3.1c-.3.3-.3.4-.5.3-.3 0-.7-.2-.8-.3-.3-.2-.4 0-.3.2 0 .3 0 .3-.3.5-.2.3-.3.5-.1.7.1 0 .1.3-.1.6-.3.3-.3.4-.3.6 0 .3 0 .3-.4.4-.2 0-.4.2-.5.5-.1.3 0 .4.2.7.3.2.3.3.3.4l-.2.3.2.5c.2.3.2.5 0 .7l-.2.2-.3-.1c-.6-.2-.9-.2-1 0 0 .4 0 .8.3 1.1l.3.5.3.4c.2 0 .4.2.4.4v.2c.2.1.3.1.8 0l.7.1v.2l.2.3.6.4h.7zm-1-3.5-.1-.4-.1-.5c-.2-.1-.3-.4-.2-.5V18l.3-.7c.3-.6.4-.7.8-.3.6.4.6.4 1.1.2.6-.3 1-.3 1.5 0l.3.1.4.3.2.2-.3.1c-.2 0-.5.3-.5.5v.3l-.6.4-.8.6c-.2.2-.4.3-.6.1h-.8c-.2.2-.5.2-.6 0zm.7-.5.2-1.3c0-.2-.4-.7-.5-.7-.1 0-.2.2-.3.8 0 .6 0 1.3.2 1.4.1.1.3 0 .4-.2zm.8.1-.1-.3c-.2-.2-.2-.2-.3 0v.4h.4zm.6-.3.1-.2-.5-.2c-.1 0 0 .3 0 .4.2.1.2.1.4 0zm.9-.5c.2-.1.2-.4 0-.6l-.7-.1a35.1 35.1 0 0 1-1.1 0c0 .1.3.4.6.4l.3.2.6.2.3-.1zm0-1c.2-.1 0-.4-.3-.4-.2 0-.4.3-.2.4h.6zm2-1-.2-.2c-.5-.5-.5-.5-.8-.4-.4 0-.4-.1-.1-.6.2-.3.3-.4 1-.4.5 0 .5 0 .7.2l.2.2v.4c0 .4-.2.8-.4.8H21zm.3-.5.1-.3-.1-.3c-.3-.2-.7-.3-.8-.2-.2.1-.1.3.2.6.3.4.5.4.6.2zm-4.3-1c-.1-.2 0-.4.2-.6.3-.2.4-.2.6 0 .2.3.2.4 0 .6-.3.2-.6.2-.8 0zm5.7-.4c-.1-.1 0-.6.3-.8 0-.2.1-.2.2-.1.2 0 .5.6.4.7l-.2.2h-.7zm-10 6.8c.3-.2.2-.4 0-.6-.2-.2-.3-.2-.3 0l-.3.4c-.2.3-.1.4.3.3l.4-.1zm-.3-1.3v-.3l.1-.5v-.3l-.3.3-.2.6.2.3.2-.1zm1.6-1c.1 0 .1 0 0-.2l-1-.6-.1.3c0 .4 0 .5.5.6h.6zm-1.8-.2v-.2c.2-.1.4-.9.4-1.2 0-.3 0-.4-.2-.5l-.1-.2-.2.2c-.2.3-.3.5-.3 1.3v.8c.2 0 .4 0 .4-.2zm-2.7-.1.1-.4v-.6c-.2-.3-.4-.3-.5 0l-.3.4c-.3.2-.3.4 0 .5l.6.2.1-.1zm2-.3a4 4 0 0 0 0-1.4H11v.5c.2 0 .2 0 0 .2v.7c0 .3.4.3.5 0zm2.3-.4-.1-.5-.3-.3v-1c0-.5 0-.6-.2-.9-.2-.4-.3-.4-.4-.3V17c0 .6.1.8.5 1 .3.3.4.3.5 0zm-1.4-2-.2-.4c-.2-.2-.2-.2-.3-.1v1c.1.1.5-.3.5-.5zm-.7-.2c0-.2-.1-.3-.3-.2-.2 0-.2.2 0 .4.1.2.1.2.2.1V16zm2.5 0c0-.3-.5-1.2-.8-1.4-.2-.1-.2-.2-.3-.1v.5l.2.3.7.9h.2zm-2.7-.6c.1-.2.2-.5 0-.6 0 0-.5.6-.4.7l.4-.1zm-.8 0c.2-.3.2-.4 0-.6-.2-.1-.4 0-.4.2l.3.4h.1zm1.7-.3c.2-.2 0-.6-.2-.5-.2 0-.2.4 0 .5v.1l.2-.1zm2-.6c-.5-1-.9-1.2-1-.9 0 .2 0 .5.5 1 .2.3.4.3.5.2v-.3zm-4.4 0c0-.1-.2-.4-.6-.4l-.5.1c0 .2.2.3.5.3h.3c.2.2.2.2.3 0zm1.3 0c.1-.2.1-.4 0-.4-.2 0-.2-.3-.1-.5.3-.5.7-.6 1.1-.2l.1.4v.4c.1 0 .4 0 .5-.2.2-.2.2-.6 0-.9a.7.7 0 0 1-.1-.4c0-.5 0-1.2.2-1.5.1-.2.4-.4.6-.4.3 0 .3-.1.1-.3v-.6c.1-.2.2-.4 0-.5h-.3l-.3-.1-.3-.3-.1-.2-.4.3-.4.3-.3-.2a1 1 0 0 0-.2-.3h-.6c-.5 0-.5 0-.7.3l-.4.2-.4-.2c-.1-.2-.3-.3-.4-.3l-.3.4c-.2.3-.4.4-.9.4l-.4.1v.3l.2.2c.2.1.2.4.2.5v.4c0 .2 0 .3.2.4.3.1.6.6.7 1 .1.3.1.3.4.3l.3.2.1.4c0 .3 0 .4.3.4l.7.3.7.4.2-.1zm-.8-1h.1zm-.8-1a.6.6 0 0 1 0-.8h.3c.2.1.4.4.4.6 0 .1-.4.2-.7.1zm1.9-.3c-.1 0 0-.2 0-.2.2 0 .3 0 .2.2h-.2zm-.2-.7-.5-.3c-.5-.4-.5-.5-.1-.8.3-.4.5-.4.7-.1.2.2.2.8.1 1 0 .2 0 .2-.2.2zm0-.8-.4-.1.1.3.2.1v-.3zm3.5 3c0-.3 0-.6-.3-1l-.2-.4c-.2-.4-.4-.6-.7-.6-.3 0-.3 0-.5.2l-.1.3a8 8 0 0 0 1.1 1.6l.2.2c.2.2.2.2.4.1l.1-.4zm-6.2.1c.3-.3.3-.5 0-.6-.2 0-.2-.1-.3-.3l-.2-.2c-.6 0-1 0-1 .2s.3.5.5.5.5.3.5.5v.2c0 .1.3 0 .5-.3zm3.4.1c0-.1 0-.2-.2-.3l-.2-.1-.1.1-.1.1v.3l.4.2c.1 0 .2 0 .2-.3zm9.4-.1h.3c.3.1.3-.3 0-.5-.3-.3-.3-.3 0-.7.2-.4 0-.9-.3-.9l-1.4.6c0 .1-.5.2-.6 0V12c-.1-.3-.2-.4-.6-.5h-.5c-.1.2 0 .4.5.8.3.3.4.4.3.7 0 0 0 .2.2.3l.3-.1.3-.2.2.2.4.3c.1.3.2.3.4.4l.5-.1zm-5.4-.6-.4-.8-.5-.2c-.4-.2-.4-.2-.4 0-.1 0-.1.1 0 .4l1 .6h.3zm1-.1c.2-.1.2-.3.2-.4l-.5-.1c-.3-.2-.6-.2-.6 0l.3.5h.6zm-9.3-.7c.2-.2 0-.5-.2-.5h-.2c-.2-.2-.4-.2-.6 0-.1.2-.2.4 0 .5h1zm9.8-.3.1-.2h-.8c-.3.1-.4.2-.3.3h.5l.5-.1zM6.3 12l.4-.4c.2-.1.3-.4.3-.5l-.1-.4c-.2-.2-.3-.2-.8.1-.2.2-.4.3-.5.2-.2 0-.2-.1 0-.2l.3-.2c.1-.2.1-.2 0-.2l-.7-.1h-.6l-.2.2c-.2.2-.2.2-.1.4l.3.1c.4 0 .6 0 1 .3.3.2.3.2.3.5 0 .5 0 .5.4.2zm9.5-.1.5-.1c.4 0 1.2-.3 1.2-.4l-.2-.2-.4-.1h-.5l-.3.2-.3.1-.4.1s-.2.1-.2.3c0 .2.3.2.6.1zm4.4 0 .2-.1.1-.1.3-.2c.4 0 1-.3 1-.4.3-.4.5-.4.6-.2l.2.3c.2.2.3.2.8 0 .5-.4.6-.5.7-.8l.3-1V9l-.8-1c-.4 0-.4-.2-.3-.4 0-.4 0-.6-.2-.9l-.2-.5-.2-.4-.9-.7c-.2 0-.5-.4-.6-.6 0-.2 0-.3-.2-.3s-.4 0-.5.3c-.1.3-.3.3-.8.1l-.6-.2.2-.4.3-.3.1-.3.1-.5c0-.3 0-.3-.6-.3s-.6 0-.8-.2a2 2 0 0 1-.2-.4c-.2-.4-.5-.5-.8-.3-.2.1-.3.2-.6.1-.4 0-.4 0-.5.2l-.3.6-.2.8-.1.6c-.1.1-.1.2 0 .4v.5c-.2.5-.2.6 0 .8.3.2.3.3.3.5v.3c0 .2.2.4.6.8.2.2.6.4.9.4.2.1.5.4.5.7 0 .4-.3.5-1 .2-.6-.2-.8-.2-1.2.2-.3.3-.3.4-.2.7.1.3.3.3.8-.1.4-.4.5-.4.7-.1l.2.2h.8v.1c.1.4.1.4.3.5l.4-.1h.5c.4.2.5.4.4.6v.7l.1.4c0 .3.1.4.4.2zm0-3.4-.1-.1-.2-.2a2 2 0 0 1-.6-1s0-.2.2-.3l.4-.6.3-.2v.6l-.3.5c-.1.2 0 .5.1.6l.3.2c0 .2.2 0 .3-.3.1-.4.2-.5.7-.4l.6-.1c.1-.2 0-.5-.2-.6h-1l-.1-.1.2-.7.2.2c0 .2 0 .2.4.2s.7.2.8.6c.1.3.1.5 0 .8l-.1.2-.5-.1c-.5-.1-.6-.1-.7.2 0 .4-.2.6-.4.6h-.3zm2.2 3.1s-.2-.1-.2 0 .2.1.2 0zm-7.4-.2a3.8 3.8 0 0 0 .8-.3c.4-.2.4-.5 0-.5-.2 0-.4 0-.7.2l-.4.2c-.2 0-.5.3-.5.4l.3.1.5-.1zm4.2-.3c.1-.1.2-.5 0-.6 0-.1-.6 0-.8.2-.2.2-.2.3.1.4.4.2.6.2.7 0zm-4.6-.4.3-.1c.2 0 .2-.2.3-.7v-.6c-.2-.3-.1-.5 0-.6v-.2h-.7l-.5.2c-.4 0-.6.3-.3.5.3 0 .5.3.5.4 0 0 0 .2-.2.3v.5l.1.3c0 .2.4.2.5 0zm3.1 0c.2-.2.2-.2.1-.4V10c-.2-.2-.2-.2-.5-.1-.4 0-1 .3-1 .4l.3.1.5.2h.6zM4.4 10l.4-.2.5-.1.2-.4c-.1-.5-.1-.7.1-1.2l.3-.5h.4l.5.1.4.2h.5c.1 0 .1-.2 0-.4-.2-.2-.2-.6-.1-.8l.2-.1c.1 0 .3 0 .4-.2.2-.1.4-.1.6.2l.2.2.3.5c.3.5.4.7.6.7.2 0 .3-.4.3-.6 0-.4.2-.7.4-.8l.3-.3.1-.3c.1.1.5.2.5 0v-.3c0-.3.2-.3.5-.2.4.2.8 0 1-.4 0-.3 0-.4.8-.4h.9c.1.2.3.2.3.2.1 0 .1 0 0-.2l-.2-.3c-.1-.1-.1-.2.1-.8.2-.4.3-.5.2-.6v-.7c0-.7 0-.8-.4-1h-1.1l-.1-.4c0-.6-.2-.7-.6-.4l-.3.2-.1-.2c-.1-.1-.2-.1-.4 0-.2 0-.4.1-.5.4-.2.3-.4.5-.6.5-.2 0-.3 0-.4-.2a303.3 303.3 0 0 1-1-.8l-.2.1-.4.2a4 4 0 0 0-1.6.6l-.5.2-.3.3c-.2.3-.4.3-.7.2-.5-.2-.6-.2-.7-.1-.1 0-.2 0-.2.2s-.1.3-.3.4l-.3.2-.3.2c-.4 0-.5 0-.6.3v.3l.3.5c.4.3.4.4.3.7-.3.5-.6.6-.9.3-.5-.3-.7-.3-1 .3-.2.3-.2.3-.4.3-.3 0-.3 0-.3.5l-.1.6c-.1.2-.1.3 0 .4 0 .4-.1 1.3-.3 1.6-.1.2 0 .4.2.5.3.3.3.3.9.2h.5l.2.2c.2.3.3.3.5.3l.4.1c.4.2.5.2.6 0zM6 4.5c-.6-.1-.7-.3-.5-.6l.2-.2h.2c.1-.1.2-.2.1-.4l.1-.2.5-.1c.2 0 .3 0 .4.2.2.3.2.6.2 1l-.3.3h-1Zm.9-.4v-.6h-.3l-.7.6c0 .2.9.2 1 0zm3.6-.2-.2-.1c-.3 0-.5-.3-.5-.6v-.5c-.1-.3-.1-.4.3-.6.3-.2.4-.2.7 0 .2.1.3.5.2.8v.4l-.2.4c-.2.2-.2.3-.3.2zm.2-.5v-1c0-.1-.3-.2-.5 0v1.1h.5zM6.9 9.6c.1 0 .1-.3-.1-.5l-1-.4c-.3.1 0 .7.6 1h.5zM8 9.3c.2-.2.3-.5.3-.7l-.2-.1H7c-.1 0-.2 0-.3-.2 0-.2 0-.3-.2-.3-.3-.1-.6.3-.4.5l1 .6.4.2H8zm1.8-.5.5-.3c.1-.2.1-.2.3-.1l.4.2.3.1.2.1c.1.2.3.1.6 0 .3-.3.4-.5.2-.7-.2-.2-.6-.3-1-.4H11l-.6.2c-.4.4-.6.4-.9.2l-.2-.2c-.1 0-.2.2-.2.5 0 .2.3.5.5.5l.3-.1zm4-.6c.4-.4.5-.6.5-.8.2-.6.2-.9 0-1.6 0-.2-.2-.2-.3 0l-.5.7c-.2.2-.4.7-.4 1.2l.1 1 .6-.5zm3.7.2c.2-.1 0-.4-.3-.4-.1 0-.2.3 0 .4h.3zm-1.4-.3H16l.2.1h.1zM8.5 8c0-.1 0-.2-.2-.3l-.1-.2c-.1 0-.2.3-.1.5l.3.2V8zm6.7 0 1-.4v-.3l-.4-.2c-.2-.2-.4-.1-.8.3l-.4.6h.6zm-2.3-.3V6.5c-.1-.2-.5-.4-.6-.4l-.1.3v.7c.1.4.3.9.5 1 .2 0 .3-.2.2-.4zm-4-.2L8.8 7c-.2-.2-.4-.2-.5 0l.3.7c.2 0 .3 0 .3-.2zm2.5-.2V7c-.2-.2-.5-.3-.6-.1-.2 0-.1.3 0 .4h.6zm3.6-.6v.1zm-3 0-.3-.3-.1.2c0 .2 0 .2.2.2h.2zm3.6-.5s-.2-.1-.2 0v.3l.1-.1.1-.2zm-2.2 0 .2-.1v-.5l-.2-.1h-.1V6l-.1.2c0 .1.2.1.2 0zm1.7-.3c.1-.3 0-.6-.3-.5-.1.2 0 .8.1.7l.2-.2zm-1-.5c.1-.1 0-.3 0-.4h-.3c-.3 0-.2.5.1.5l.2-.1zm6.1-1.2V4c-.2-.2-.3-.2-.5 0v.3h.5z" style="fill:#000;fill-opacity:.5;stroke-width:.326561"/></svg>