<?xml version="1.0" encoding="UTF-8" standalone="no"?>
<svg
   xml:space="preserve"
   width="96"
   height="96"
   viewBox="0 0 25.4 25.4"
   version="1.1"
   id="svg2"
   sodipodi:docname="shrub.svg"
   inkscape:version="1.4.3 (0d15f750, 2025-12-25)"
   xmlns:inkscape="http://www.inkscape.org/namespaces/inkscape"
   xmlns:sodipodi="http://sodipodi.sourceforge.net/DTD/sodipodi-0.dtd"
   xmlns="http://www.w3.org/2000/svg"
   xmlns:svg="http://www.w3.org/2000/svg"><defs
     id="defs2" /><sodipodi:namedview
     id="namedview2"
     pagecolor="#ffffff"
     bordercolor="#000000"
     borderopacity="0.25"
     inkscape:showpageshadow="2"
     inkscape:pageopacity="0.0"
     inkscape:pagecheckerboard="0"
     inkscape:deskcolor="#d1d1d1"
     inkscape:zoom="3.5209269"
     inkscape:cx="51.974951"
     inkscape:cy="44.590531"
     inkscape:window-width="1489"
     inkscape:window-height="783"
     inkscape:window-x="0"
     inkscape:window-y="25"
     inkscape:window-maximized="0"
     inkscape:current-layer="svg2" /><path
     id="path77"
     style="fill:#008000;stroke-width:0.326561"
     d="M 12.845818,2.9706386e-5 C 12.43638,0.00151971 12.254884,0.02879271 12.079078,0.11371721 c -0.126723,0.061212 -0.27232,0.1119637 -0.32362,0.1130412 -0.05129,0.00108 -0.188835,0.1542817 -0.305534,0.3404146 -0.116699,0.1861311 -0.272553,0.395224 -0.346227,0.46443569 L 10.969985,1.1569226 10.817541,0.99543561 C 10.619781,0.78492681 10.3221,0.39584521 10.3221,0.34819571 c -3.4e-5,-3.332e-4 -5.8e-4,-0.00159 -6.47e-4,-0.00194 -0.0061,-0.022835 -0.07454,-0.078904 -0.15761,-0.1272518 -0.139006,-0.080887 -0.2150841,-0.083174 -0.6194651,-0.020025 -0.253448,0.039577 -0.55723,0.1141962 -0.675016,0.1660086 -0.117786,0.051812 -0.260053,0.095169 -0.316515,0.096246 -0.05646,0.00108 -0.206585,0.051829 -0.333309,0.1130412 -0.126725,0.061212 -0.264284,0.1119637 -0.305533,0.1130412 -0.04124,0.00108 -0.170932,0.053042 -0.288093,0.1149787 C 7.5087519,0.86423161 7.210565,0.98480411 6.9631691,1.0703656 6.5570262,1.2108178 6.502234,1.2478232 6.3966727,1.4547046 L 6.2797562,1.6840162 5.9367577,1.6478432 C 5.7480086,1.6281184 5.5444184,1.5861926 5.4845941,1.5541805 5.3577868,1.4863188 5.0410267,1.4763864 5.013052,1.5393231 4.9629463,1.6520606 4.5960266,1.8991162 4.478853,1.8991162 c -0.1292023,0 -0.4353689,0.3543762 -0.4353689,0.5038395 0,0.1200736 -0.1103975,0.1354797 -0.2609631,0.03682 C 3.6411401,2.3471513 3.6256857,2.3479463 3.4828011,2.4546326 3.287852,2.6001822 2.9844893,3.1995201 2.9841293,3.4390573 c -2.825e-4,0.1921141 0.2574994,0.5335532 0.4030715,0.5335532 0.039163,0 0.1512161,0.067189 0.24869,0.1492139 C 3.9159601,4.357483 3.8575815,4.7457212 3.5267258,4.84787 3.4800921,4.8622666 3.3287923,4.7878183 3.1908327,4.682507 2.808372,4.3905679 2.6457659,4.4162858 2.2051159,4.8368885 2.0059707,5.0269751 1.7901343,5.1824708 1.7258225,5.1824708 c -0.1627969,0 -0.4723894,0.2014937 -0.5981479,0.3895066 -0.16074948,0.2403235 -0.36724568,0.7723803 -0.36754448,0.9476058 -1.5e-4,0.086048 0.044543,0.24982 0.09883,0.3636687 0.093386,0.195814 0.093336,0.2220189 -0.00194,0.4902746 -0.091537,0.2578734 -0.092672,0.2992704 -0.012275,0.4547474 0.1369897,0.264913 0.109245,0.422102 -0.1130412,0.637551 -0.3039528,0.294601 -0.2848497,0.529118 0.0717,0.871384 0.35209478,0.33799 0.64504988,0.510945 0.86686238,0.510945 0.2728019,0 0.4609487,0.09375 0.484461,0.2415841 0.024738,0.155562 -0.059728,0.44958 -0.1291897,0.44958 -0.02645,0 -0.062385,0.04534 -0.080098,0.100774 -0.017711,0.05544 -0.1226761,0.173002 -0.2331874,0.260963 l -0.2008898,0.15955 -0.3791714,-0.08785 c -0.52303398,-0.121299 -0.75673998,-0.114274 -0.83068918,0.0239 -0.1096412,0.204856 -0.067148,0.648071 0.085912,0.896576 0.083931,0.136264 0.1419348,0.318097 0.1421086,0.445059 3.275e-4,0.237382 0.1185111,0.349266 0.4392446,0.41599 0.17190678,0.03576 0.51208568,0.319744 0.38304708,0.319744 -0.034112,0 -0.087371,0.07239 -0.1182086,0.160842 -0.060477,0.173482 -0.33888788,0.323202 -0.71441858,0.384338 -0.394283,0.06419 -0.4438115,0.154562 -0.4624987,0.840379 -0.016087,0.590347 -0.0117,0.613481 0.1421085,0.796454 0.087118,0.103649 0.1582573,0.227696 0.1582573,0.27582 0,0.04812 0.053331,0.162492 0.1188549,0.254504 0.09748,0.136898 0.1610313,0.1673 0.3494579,0.1673 0.31553138,0 0.45345548,0.0851 0.45345548,0.27905 0,0.08759 -0.031096,0.189353 -0.06847,0.226727 -0.039937,0.03994 -0.063886,0.214515 -0.058136,0.423097 0.00911,0.330638 -0.00386,0.370119 -0.19120068,0.577477 -0.1444921,0.15993 -0.2008898,0.276147 -0.2008898,0.413406 0,0.323353 0.1731772,0.80256 0.39919588,1.104571 0.1185474,0.158406 0.2450253,0.343287 0.2809874,0.410823 0.053856,0.101137 0.130708,0.126673 0.4340771,0.145985 0.3211613,0.02045 0.3870943,0.04571 0.5180503,0.19443 0.082605,0.09381 0.1668751,0.222148 0.1873249,0.285509 0.020446,0.06336 0.089565,0.231153 0.1530897,0.372712 0.1605232,0.357689 0.1839012,0.621437 0.081389,0.917246 -0.084436,0.24365 -0.082913,0.257477 0.038111,0.358501 0.069151,0.05772 0.2429135,0.144365 0.3862769,0.193139 0.1549544,0.05272 0.4317099,0.239627 0.682767,0.460561 0.44608,0.392554 0.7212084,0.524575 0.983133,0.472188 0.1935452,-0.03871 0.4063013,0.0949 0.4063013,0.25515 0,0.198618 0.1871633,0.410058 0.4870448,0.549701 0.3235463,0.150674 0.4369992,0.161803 0.7938701,0.07945 0.1350997,-0.03117 0.3149178,-0.07016 0.3998418,-0.08656 0.084922,-0.0164 0.2512337,-0.121024 0.3694823,-0.232543 0.3095786,-0.291967 0.4668546,-0.316233 0.6582206,-0.102061 0.117189,0.13115 0.164836,0.259917 0.195723,0.532907 0.04734,0.418437 0.202706,0.609808 0.544534,0.670494 0.281504,0.04997 0.524345,0.203933 0.736381,0.46702 0.09686,0.120186 0.289673,0.276683 0.42891,0.34752 0.1392361,0.07084 0.2730951,0.129411 0.2977821,0.129836 0.02469,4.4e-4 0.180444,-0.105886 0.345582,-0.236417 l 0.300366,-0.237709 0.605254,0.05039 c 1.222791,0.101274 1.86957,0.05277 2.077369,-0.155028 0.178359,-0.178358 0.159158,-0.843116 -0.0323,-1.125241 -0.08087,-0.119174 -0.144046,-0.294864 -0.144046,-0.400488 0,-0.167827 0.03394,-0.20714 0.315869,-0.366252 0.291849,-0.164705 0.357977,-0.178282 0.864278,-0.178282 0.471287,0 0.564327,0.01591 0.663388,0.114974 0.06336,0.06336 0.114974,0.165182 0.114974,0.226081 0,0.07764 0.0643,0.130636 0.215748,0.177635 0.118798,0.03687 0.298067,0.103787 0.397904,0.148569 0.09982,0.04479 0.216471,0.08139 0.259671,0.08139 0.0432,0 0.175683,0.05226 0.293906,0.115624 0.275517,0.147667 0.337031,0.144923 0.661449,-0.02777 0.208891,-0.111261 0.317835,-0.135003 0.491567,-0.107223 0.210171,0.03361 0.240552,0.01817 0.524509,-0.262256 l 0.301658,-0.297136 0.22027,0.09172 c 0.318575,0.13311 0.455902,0.0739 0.701498,-0.304887 0.257708,-0.397465 0.405564,-0.529386 0.597503,-0.532261 0.244097,-0.0036 0.425417,-0.135261 0.517403,-0.375942 0.0482,-0.126128 0.136532,-0.301879 0.196369,-0.390153 0.107436,-0.158487 0.541315,-0.398506 0.862988,-0.477355 0.287881,-0.07058 0.656465,-0.308768 0.691164,-0.446997 0.01814,-0.0723 0.01,-0.220483 -0.01809,-0.329432 -0.02814,-0.108949 -0.06869,-0.39814 -0.08979,-0.642719 -0.02642,-0.306328 -0.07249,-0.488504 -0.148568,-0.585228 -0.126798,-0.161196 -0.143226,-0.303028 -0.03876,-0.338478 0.0396,-0.01341 0.311115,-0.01254 0.603316,0.0026 l 0.531615,0.02777 0.32362,-0.35075 c 0.281244,-0.304329 0.363553,-0.358669 0.627215,-0.413406 0.187216,-0.03886 0.354359,-0.116586 0.43537,-0.202828 0.128486,-0.136766 0.128956,-0.145276 0.03618,-0.388216 -0.05219,-0.136625 -0.09495,-0.289051 -0.09495,-0.338476 0,-0.04942 0.126566,-0.195994 0.280987,-0.326203 0.278018,-0.234425 0.280292,-0.239398 0.23448,-0.484461 -0.04484,-0.239892 -0.03879,-0.253762 0.188616,-0.451519 0.20075,-0.174578 0.229878,-0.228841 0.202828,-0.374649 -0.04087,-0.220326 -0.170357,-0.63946 -0.361085,-1.167874 -0.134698,-0.373181 -0.146253,-0.458196 -0.09754,-0.740902 0.03392,-0.196525 0.03499,-0.41089 0.0026,-0.557454 -0.04951,-0.223722 -0.414485,-1.008846 -0.498672,-1.07292 -0.07416,-0.05644 -0.297135,-0.399907 -0.297135,-0.457331 0,-0.03191 0.114098,-0.186923 0.253857,-0.34429 0.281645,-0.317174 0.365643,-0.503158 0.270007,-0.598794 -0.09734,-0.09734 -0.07572,-0.3821581 0.04909,-0.6414271 0.06201,-0.128807 0.128872,-0.337712 0.147922,-0.464436 0.03197,-0.212669 0.01281,-0.257377 -0.24869,-0.577477 -0.155824,-0.19074 -0.301483,-0.403732 -0.32362,-0.473481 -0.02214,-0.06975 -0.143476,-0.215225 -0.269361,-0.322974 -0.212083,-0.181535 -0.225958,-0.212307 -0.193784,-0.4192198 0.02745,-0.1765668 -0.004,-0.307742 -0.148568,-0.6265696 -0.10057,-0.2218 -0.216146,-0.442138 -0.257121,-0.4896624 -0.04095,-0.047501 -0.117557,-0.213534 -0.169855,-0.3694622 -0.127587,-0.3804094 -0.114149,-0.363128 -0.621403,-0.8313351 -0.370048,-0.3415611 -0.479476,-0.411469 -0.641426,-0.411469 -0.223529,0 -0.279257,-0.054154 -0.387569,-0.3746498 C 21.368617,3.8144661 21.078922,3.5929467 20.47511,3.52626 20.105614,3.485453 20.084729,3.474896 20.067517,3.3253701 c -0.01,-0.086737 0.02211,-0.2153557 0.0717,-0.2861549 C 20.387443,2.684743 20.160787,2.3907812 19.595975,2.3351318 18.848783,2.2615164 18.763268,2.2178557 18.375779,1.7169596 17.995746,1.2256952 17.836401,1.1370446 17.587077,1.276423 17.285385,1.4451186 16.944098,1.5233818 16.840361,1.4482452 16.448596,1.1644859 16.399405,1.1455231 16.140153,1.1808227 c -0.160008,0.02179 -0.313105,0.088165 -0.399842,0.1731141 -0.125548,0.1229611 -0.132798,0.1527366 -0.06589,0.2777577 0.0479,0.089503 0.0563,0.1728335 0.02325,0.2318953 -0.08319,0.1486583 -0.280109,-0.029903 -0.355271,-0.3223281 -0.06754,-0.262772 -0.353907,-0.61402929 -0.516109,-0.63302909 -0.05384,-0.00627 -0.2785,-0.012586 -0.499316,-0.014211 l -0.401135,-0.00322 -0.03489,-0.2067033 c -0.03818,-0.2297782 -0.236323,-0.540313 -0.401128,-0.628512 -0.05907,-0.031612 -0.348877,-0.056629 -0.64401,-0.05555100361 z"
     inkscape:label="foliage" /><path
     style="fill:#000000;fill-opacity:0.5;stroke-width:0.326561"
     d="m 9.9249307,25.270225 c -0.139237,-0.07084 -0.332407,-0.227135 -0.429266,-0.347316 -0.212035,-0.263087 -0.454705,-0.417017 -0.736209,-0.466996 -0.341828,-0.06069 -0.49735,-0.252158 -0.54469,-0.670596 -0.03089,-0.272989 -0.07815,-0.402009 -0.195338,-0.533159 -0.191367,-0.214177 -0.348862,-0.189719 -0.6584413,0.102249 -0.1182487,0.111524 -0.2844843,0.216189 -0.3694058,0.232585 -0.084924,0.0164 -0.264937,0.05532 -0.4000367,0.0865 -0.3568709,0.08235 -0.4700471,0.071 -0.7935934,-0.07967 C 5.4980689,23.454179 5.3107298,23.242865 5.3107298,23.044247 5.3107298,22.884 5.0978472,22.75032 4.9043019,22.789029 4.6423774,22.841419 4.3675768,22.709379 3.9214969,22.316825 3.6704397,22.095887 3.3934679,21.909207 3.2385134,21.856489 3.09515,21.807715 2.9212758,21.72058 2.8521253,21.662859 2.7311017,21.561835 2.7296767,21.548448 2.8141133,21.304798 2.9166246,21.008989 2.8931998,20.745125 2.7326767,20.387436 2.6691524,20.245876 2.6004391,20.078213 2.579993,20.01485 2.5595433,19.951489 2.4752317,19.822893 2.3926264,19.729081 2.2616704,19.58036 2.1952612,19.555512 1.8740998,19.535062 1.5707308,19.51575 1.4942329,19.48995 1.4403773,19.388817 1.4044152,19.321281 1.2779967,19.136423 1.1594493,18.978017 0.93343059,18.676006 0.76018129,18.196645 0.76018129,17.873292 c 0,-0.137259 0.056549,-0.253584 0.2010415,-0.413515 0.18733531,-0.207358 0.20037641,-0.246722 0.19126401,-0.577361 -0.00575,-0.208581 0.018225,-0.382837 0.058162,-0.422778 0.037374,-0.03737 0.067949,-0.139612 0.067949,-0.227203 0,-0.193952 -0.1375747,-0.278516 -0.45310611,-0.278516 -0.1884266,0 -0.2519184,-0.0304 -0.3493985,-0.167298 -0.065524,-0.09201 -0.1191236,-0.206668 -0.1191236,-0.254788 0,-0.04812 -0.071287,-0.172292 -0.1584045,-0.275937 -0.1538057,-0.182973 -0.1579244,-0.206098 -0.1418371,-0.796445 0.018687,-0.685817 0.068474,-0.776238 0.4627572,-0.840425 0.3755307,-0.06114 0.65384501,-0.210897 0.71432191,-0.384378 0.030837,-0.08845 0.083961,-0.160823 0.1180736,-0.160823 0.1290385,0 -0.2110151,-0.283712 -0.38292191,-0.319477 -0.3207337,-0.06672 -0.4391486,-0.178893 -0.4394761,-0.416275 -1.738e-4,-0.126962 -0.0582743,-0.308823 -0.1422059,-0.445086 -0.1530595,-0.248506 -0.1955153,-0.691761 -0.085874,-0.896616 0.073949,-0.138176 0.3077552,-0.144786 0.83078931,-0.02349 l 0.3791494,0.08794 0.2009239,-0.159933 c 0.1105113,-0.08796 0.2154151,-0.205294 0.2331261,-0.260737 0.017712,-0.05544 0.053837,-0.100799 0.080287,-0.100799 0.069462,0 0.153972,-0.293957 0.1292335,-0.449519 C 2.1314,9.9419948 1.9432707,9.8481298 1.6704688,9.8481298 c -0.2218124,0 -0.5149829,-0.172657 -0.86707761,-0.510647 -0.3565501,-0.342267 -0.3759523,-0.577199 -0.072,-0.8718 0.2222863,-0.215448 0.2501884,-0.372588 0.1131987,-0.637501 -0.080399,-0.155477 -0.079287,-0.196652 0.01225,-0.4545257 0.095274,-0.2682557 0.095386,-0.2947366 0.002,-0.4905506 C 0.80455329,6.7692568 0.76025379,6.6057136 0.76040379,6.5196659 0.76070259,6.3444404 0.96684649,5.8125277 1.1275959,5.5722042 1.2533544,5.3841913 1.5630934,5.1823761 1.7258903,5.1823761 c 0.064312,0 0.2798655,-0.1555245 0.4790108,-0.345611 C 2.6455514,4.4161624 2.8085596,4.3906826 3.1910202,4.6826218 3.3289799,4.7879331 3.4800107,4.8623085 3.5266439,4.8479112 3.8575001,4.7457623 3.9158744,4.3575205 3.6358051,4.121862 3.5383312,4.0398379 3.4265375,3.9727374 3.3873742,3.9727374 c -0.1455721,0 -0.4038191,-0.3414798 -0.4035366,-0.5335939 3.6e-4,-0.2395373 0.3043302,-0.8389042 0.4992793,-0.9844538 0.1428846,-0.1066863 0.1580619,-0.1074237 0.2994428,-0.0148 0.1505658,0.098661 0.2608783,0.082962 0.2608783,-0.037112 0,-0.1494633 0.3062265,-0.503713 0.4354288,-0.503713 0.1171736,0 0.4840969,-0.2472747 0.5342026,-0.3600121 0.027975,-0.062937 0.3447398,-0.052862 0.4715471,0.015 0.059824,0.032012 0.2631933,0.074349 0.4519424,0.094074 L 6.27974,1.684001 6.3966261,1.4548736 C 6.5021874,1.2479922 6.5572005,1.2106452 6.9633434,1.070193 7.2107393,0.98463148 7.5090137,0.86396408 7.6261737,0.80202978 c 0.117161,-0.061937 0.246764,-0.1134862 0.288009,-0.1145612 0.04125,-0.00108 0.178674,-0.052037 0.305399,-0.1132487 0.126723,-0.061212 0.276602,-0.1121737 0.333061,-0.1132487 0.05646,-0.00108 0.199024,-0.044337 0.31681,-0.096149 0.117786,-0.051812 0.421523,-0.126576 0.674971,-0.1661531 0.404381,-0.063149 0.4802153,-0.060674 0.6192213,0.020212 0.08712,0.050699 0.158405,0.1089362 0.158405,0.1294323 0,0.047649 0.297847,0.43646 0.495607,0.6469688 l 0.15205,0.16185322 0.133949,-0.1258398 c 0.07367,-0.069212 0.229435,-0.27812942 0.346138,-0.46426222 0.116698,-0.1861329 0.254153,-0.3393024 0.305445,-0.3403774 0.0513,-0.00108 0.196944,-0.052037 0.323667,-0.1132487 0.175806,-0.084924 0.357574,-0.1117612 0.767012,-0.11324869556 0.295133,-0.00108 0.584939,0.0239119956 0.644015,0.0555239956 0.164804,0.088199 0.363166,0.398928 0.40135,0.6287016 l 0.03434,0.2066439 0.401485,0.003 c 0.220816,0.00163 0.445532,0.00812 0.499368,0.0144 0.162202,0.019 0.448206,0.36975962 0.515746,0.63253162 0.07516,0.2924241 0.272292,0.4713883 0.355485,0.32273 0.03305,-0.059062 0.02469,-0.1427371 -0.02321,-0.2322398 -0.06691,-0.1250211 -0.05992,-0.1545645 0.06562,-0.2775256 0.08674,-0.084949 0.239708,-0.1511195 0.399717,-0.1729093 0.259252,-0.0353 0.308772,-0.0164 0.700538,0.2673595 0.103736,0.075137 0.444881,-0.0035 0.746573,-0.1721956 0.249324,-0.1393784 0.408749,-0.050249 0.788782,0.441015 0.387489,0.5008955 0.473028,0.5442063 1.22022,0.6178217 0.564815,0.055649 0.791718,0.349591 0.54346,0.7040295 -0.04959,0.070799 -0.08199,0.1996889 -0.072,0.2864254 0.01721,0.1495258 0.03836,0.1599345 0.407857,0.2007415 0.603812,0.066687 0.893456,0.2881955 1.073516,0.8209894 0.108311,0.3204951 0.164139,0.374412 0.387668,0.374412 0.16195,0 0.270919,0.069962 0.640967,0.4115228 0.507257,0.4682071 0.494394,0.4510111 0.621981,0.8314205 0.0523,0.1559282 0.128606,0.3223888 0.169574,0.3699095 0.04097,0.047524 0.156743,0.2678495 0.257276,0.4896157 0.144535,0.3188276 0.175522,0.4499473 0.148066,0.6265141 -0.03217,0.2069128 -0.01792,0.2376798 0.194159,0.4192158 0.125885,0.107749 0.246993,0.252979 0.269131,0.322727 0.02214,0.06975 0.16774,0.282874 0.323565,0.473615 0.261503,0.3201 0.280648,0.364539 0.248672,0.577208 -0.01905,0.126724 -0.08537,0.335794 -0.147386,0.464601 -0.124811,0.259268 -0.146755,0.5439812 -0.04942,0.6413162 0.09564,0.09564 0.01162,0.281896 -0.27002,0.59907 -0.139765,0.157367 -0.254117,0.312227 -0.254117,0.344135 0,0.05742 0.223502,0.400584 0.297659,0.457023 0.08419,0.06407 0.448933,0.849244 0.498442,1.072967 0.03244,0.146563 0.03155,0.361083 -0.0024,0.557608 -0.04871,0.282705 -0.03754,0.367846 0.09716,0.741027 0.190728,0.528415 0.320423,0.947712 0.361291,1.168038 0.02705,0.145808 -0.0023,0.199834 -0.203,0.374412 -0.227406,0.197756 -0.233186,0.211613 -0.188348,0.451505 0.04581,0.245063 0.04351,0.249807 -0.234506,0.484232 -0.154421,0.13021 -0.280766,0.277183 -0.280766,0.326606 0,0.04942 0.04269,0.201645 0.09487,0.338271 0.09279,0.24294 0.09197,0.251489 -0.03651,0.388255 -0.08101,0.08624 -0.247767,0.164006 -0.434982,0.202872 -0.263662,0.05474 -0.34621,0.109136 -0.627455,0.413466 l -0.32385,0.350436 -0.531276,-0.0274 c -0.2922,-0.01507 -0.563676,-0.01641 -0.603277,-0.003 -0.104474,0.03545 -0.08835,0.177487 0.03845,0.338682 0.07609,0.09672 0.122386,0.278777 0.148807,0.585105 0.0211,0.244578 0.06139,0.533831 0.08952,0.642785 0.02814,0.108949 0.03631,0.257247 0.01817,0.329542 -0.0347,0.138229 -0.403166,0.376737 -0.691049,0.447308 -0.321673,0.07885 -0.755705,0.318917 -0.863142,0.477404 -0.05984,0.08827 -0.14824,0.263697 -0.196444,0.389826 -0.09199,0.240681 -0.273079,0.372317 -0.517176,0.375927 -0.191938,0.0029 -0.339863,0.134532 -0.59757,0.531996 -0.245596,0.378785 -0.382654,0.438469 -0.701229,0.305359 l -0.220725,-0.09222 -0.301454,0.29771 c -0.283957,0.280428 -0.314404,0.295637 -0.524575,0.262029 -0.173732,-0.02778 -0.282506,-0.0041 -0.491396,0.107136 -0.324418,0.172701 -0.386203,0.17528 -0.661721,0.02761 -0.118224,-0.06336 -0.250292,-0.115199 -0.293496,-0.115199 -0.0432,0 -0.16023,-0.03665 -0.26006,-0.08144 -0.09984,-0.04479 -0.278715,-0.111598 -0.397518,-0.148472 -0.151455,-0.047 -0.216008,-0.100136 -0.216008,-0.177774 0,-0.0609 -0.05184,-0.162578 -0.115199,-0.22594 -0.09906,-0.09906 -0.192006,-0.115199 -0.663293,-0.115199 -0.506301,0 -0.57218,0.0136 -0.864029,0.178305 -0.281932,0.159112 -0.315938,0.198546 -0.315938,0.366373 0,0.105624 0.06314,0.2811 0.144005,0.400273 0.191455,0.282125 0.210371,0.947147 0.03201,1.125505 -0.207799,0.207798 -0.854553,0.255959 -2.077344,0.15469 l -0.60528,-0.05012 -0.300252,0.237335 c -0.165138,0.130534 -0.320454,0.236976 -0.345146,0.236536 -0.02469,-4.25e-4 -0.158817,-0.05876 -0.2980533,-0.129604 z m 0.5451033,-0.534912 c 0.203347,-0.183621 0.252937,-0.201952 0.485679,-0.179526 0.142565,0.01374 0.371287,0.05449 0.508272,0.09055 0.136986,0.03606 0.547245,0.07149 0.911689,0.07872 0.644477,0.0128 0.665839,0.0093 0.779988,-0.130849 0.0969,-0.118899 0.112298,-0.199974 0.08834,-0.464986 -0.01596,-0.176538 -0.08375,-0.428234 -0.150623,-0.559323 -0.163018,-0.319541 -0.161973,-0.662885 0.0024,-0.771991 0.09502,-0.0631 0.130126,-0.156867 0.150452,-0.401978 0.04719,-0.569077 -0.110674,-0.672156 -0.691388,-0.451438 -0.380931,0.144784 -0.472024,0.141302 -0.792644,-0.0303 -0.142565,-0.0763 -0.364503,-0.190478 -0.493197,-0.253718 -0.274145,-0.134718 -0.455482,-0.316808 -0.401875,-0.403546 0.02081,-0.03367 0.198319,-0.06162 0.394455,-0.06211 0.390563,-9.8e-4 0.451121,-0.02425 0.549595,-0.211338 0.136062,-0.258498 0.0813,-0.378881 -0.362011,-0.795813 -0.264808,-0.249051 -0.441087,-0.463777 -0.461059,-0.561618 -0.01779,-0.08712 -0.0458,-0.223239 -0.06225,-0.302482 -0.01966,-0.09467 -0.103598,-0.179178 -0.244807,-0.246451 -0.176024,-0.08386 -0.211079,-0.128124 -0.193808,-0.244737 0.0555,-0.374708 0.02089,-1.04909 -0.05635,-1.098002 -0.139957,-0.08864 -0.199839,-0.05796 -0.357786,0.183285 -0.1479563,0.225985 -0.2652223,0.597471 -0.3938133,1.247572 -0.05259,0.265887 -0.0768,0.30241 -0.200429,0.30241 -0.130567,0 -0.432186,-0.172683 -0.567305,-0.324793 -0.03204,-0.03607 -0.161941,-0.08375 -0.288665,-0.105962 -0.126725,-0.0222 -0.263117,-0.0674 -0.303095,-0.100436 -0.03998,-0.03304 -0.156623,-0.101999 -0.25921,-0.153251 -0.263048,-0.131412 -0.259504,-0.346338 0.0072,-0.436134 0.232601,-0.07831 0.641517,-0.409715 0.641517,-0.519907 0,-0.0433 0.06697,-0.158332 0.148842,-0.255621 0.148448,-0.176421 0.150262,-0.176852 0.684492,-0.162825 0.5274053,0.01385 0.5398753,0.011 0.8101593,-0.182875 0.15098,-0.108324 0.367856,-0.228855 0.481946,-0.267862 0.170789,-0.05839 0.210625,-0.102474 0.225489,-0.249511 0.0152,-0.150417 -0.0075,-0.188338 -0.144005,-0.24038 -0.202976,-0.07739 -0.645695,-0.01664 -0.784537,0.107662 -0.06467,0.0579 -0.2421883,0.101961 -0.4689113,0.116398 -0.312757,0.01991 -0.382191,0.0059 -0.486356,-0.09829 -0.06684,-0.06684 -0.121511,-0.171473 -0.121511,-0.232536 0,-0.171608 0.269967,-0.349791 0.529971,-0.349791 0.27587,0 0.4404923,-0.08146 0.5023123,-0.248575 0.0977,-0.264093 -0.1265273,-0.480793 -0.4649623,-0.44935 -0.129164,0.012 -0.163253,-0.01779 -0.221147,-0.193203 -0.08727,-0.264462 -0.233779,-0.353389 -0.658633,-0.399803 -0.263697,-0.02881 -0.430214,-0.0097 -0.732634,0.08385 -0.6573712,0.203453 -0.8688351,0.06427 -0.485208,-0.319356 0.270472,-0.270471 0.264893,-0.422526 -0.02511,-0.684531 -0.1268165,-0.114573 -0.2515225,-0.20831 -0.2771247,-0.20831 -0.0256,0 -0.2289287,-0.178089 -0.4518349,-0.395754 C 6.5476569,12.978838 6.2381892,12.736887 6.082856,12.658834 5.5844066,12.40837 5.5412246,12.369441 5.5412246,12.170556 c 0,-0.101399 0.027875,-0.201576 0.061937,-0.222629 C 5.6933356,11.892207 5.4592408,11.663391 5.1132372,11.469064 4.9022471,11.350565 4.7125343,11.296495 4.42961,11.274224 3.9164846,11.233834 3.8131721,11.143457 3.8131721,10.734969 c 0,-0.280738 -0.015987,-0.317143 -0.2013078,-0.458496 C 3.4584971,10.159499 3.3229187,10.115892 3.0425669,10.093389 l -0.3679896,-0.02954 -0.1544318,0.309757 c -0.1654069,0.33177 -0.3246026,0.505298 -0.6927571,0.755122 -0.1946315,0.132075 -0.2936004,0.157526 -0.6159905,0.158406 -0.2112551,5.88e-4 -0.42510261,0.01679 -0.47521461,0.03601 -0.1363072,0.0523 -0.1099237,0.2729 0.050699,0.423788 0.1215986,0.114236 0.1370146,0.168203 0.1081737,0.378661 -0.028125,0.205227 -0.015137,0.25534 0.079287,0.305875 0.062112,0.03324 0.16324821,0.04727 0.22475251,0.03119 0.061499,-0.01609 0.1823379,-0.0025 0.2685206,0.03034 0.1370135,0.05209 0.1566957,0.0907 0.1566957,0.307393 0,0.1363 -0.035387,0.298946 -0.078649,0.361437 -0.043249,0.06249 -0.098099,0.178422 -0.1218861,0.257625 -0.023787,0.0792 -0.1071737,0.229321 -0.1853153,0.333596 -0.1294973,0.172813 -0.1656682,0.188106 -0.40871541,0.172805 -0.2391373,-0.01505 -0.2743456,-10e-4 -0.3413073,0.135998 -0.041062,0.08404 -0.080937,0.299709 -0.088612,0.479285 -0.013075,0.305978 -0.00212,0.336209 0.173773,0.48084 0.1248111,0.102611 0.1875503,0.204599 0.1872054,0.304328 -5.55e-4,0.164671 0.2328985,0.454824 0.36596951,0.454824 0.1257223,0 0.66074,0.442307 0.7885323,0.65189 0.1736855,0.284848 0.1489558,0.422833 -0.083599,0.466461 -0.2390072,0.04484 -0.2966141,0.112724 -0.3411261,0.401958 -0.018987,0.123349 -0.090461,0.283818 -0.1588344,0.356602 -0.2329624,0.247978 -0.1259686,0.749797 0.2722381,1.276853 0.1726081,0.228458 0.3870344,0.343036 0.6525901,0.34871 0.2279361,0.0049 0.4689508,0.244521 0.5824395,0.579146 0.036087,0.106424 0.1691893,0.373128 0.2957716,0.592681 0.1789955,0.310465 0.221435,0.433891 0.1909528,0.555331 -0.1281948,0.51072 -0.129141,0.50799 0.2364923,0.680962 0.1851504,0.08759 0.4546886,0.26968 0.5989744,0.404642 0.3241601,0.303213 0.5158804,0.381592 0.9084184,0.371379 0.32828,-0.0085 0.3227013,-0.01225 1.0293308,0.692595 0.1587069,0.158317 0.2128125,0.178845 0.4032129,0.152987 0.3325224,-0.04516 0.6314465,-0.252787 0.8602777,-0.597536 0.2556307,-0.385124 0.4353717,-0.42042 0.5647027,-0.110886 0.05799,0.138783 0.132777,0.21137 0.245581,0.23835 0.268433,0.0642 0.306206,0.127335 0.306206,0.511809 0,0.451017 0.09275,0.579553 0.597509,0.828044 0.251075,0.123611 0.452451,0.277993 0.61351,0.470361 0.29913,0.357277 0.4568513,0.373826 0.7801823,0.08186 z M 4.8990895,17.465971 C 4.8192404,17.378847 4.6785207,17.184991 4.586383,17.035178 4.4942466,16.885366 4.347362,16.733177 4.2599755,16.696979 4.039658,16.605719 4.0543504,16.414436 4.3024255,16.144333 4.4650274,15.967289 4.5038095,15.878934 4.504032,15.685023 4.5046007,15.18785 4.6532615,15.099694 5.2096177,15.266605 l 0.3719682,0.111598 0.1499221,0.359864 c 0.2772031,0.665385 0.2651494,0.856485 -0.077199,1.223892 -0.088561,0.09505 -0.190134,0.282969 -0.2257161,0.417614 -0.056462,0.213637 -0.085049,0.244807 -0.2245037,0.244807 -0.1007364,0 -0.2134726,-0.05855 -0.3049928,-0.158404 z M 5.3419669,16.78407 C 5.640346,16.53957 5.7040303,16.390102 5.5719905,16.244198 5.5198911,16.186624 5.4296109,16.013517 5.3713778,15.859514 5.2888038,15.641143 5.2343294,15.57568 5.1238969,15.562111 4.9731436,15.543586 4.8946408,15.63291 4.6354787,16.117817 l -0.1337735,0.250299 0.1301636,0.260627 c 0.1141112,0.228488 0.2486184,0.346065 0.4099578,0.358361 0.02635,0.002 0.1614119,-0.08936 0.3001403,-0.203034 z m 11.6651321,6.483582 c 0.06095,-0.03262 0.150637,-0.136303 0.199299,-0.230407 0.106774,-0.206486 0.320461,-0.229862 0.441047,-0.04825 0.108249,0.163027 0.277877,0.107399 0.418286,-0.137176 0.116923,-0.203661 0.368712,-0.44111 0.471261,-0.444417 0.03532,-0.0011 0.130139,0.04977 0.210691,0.113136 0.08055,0.06336 0.18357,0.115199 0.22893,0.115199 0.09205,0 0.216167,-0.233066 0.216167,-0.405924 0,-0.204278 0.204397,-0.3429 0.505601,-0.3429 0.307965,0 0.531232,-0.121574 0.531232,-0.289272 0,-0.222041 0.342084,-0.505177 1.010646,-0.83649 0.640024,-0.317173 0.659809,-0.332622 0.659809,-0.515203 0,-0.103524 -0.03889,-0.281283 -0.0864,-0.395018 -0.04752,-0.113736 -0.0864,-0.324589 -0.0864,-0.468565 0,-0.253913 -0.0094,-0.267781 -0.312644,-0.461771 -0.387797,-0.24807 -0.427634,-0.356772 -0.2398,-0.654322 0.280745,-0.444728 0.466321,-0.478771 0.751619,-0.137883 0.146634,0.175207 0.180191,0.187207 0.523488,0.187207 0.366573,0 0.367007,-1.99e-4 0.671701,-0.306689 0.228916,-0.230264 0.372838,-0.323711 0.577561,-0.375004 0.179881,-0.04508 0.305124,-0.117849 0.36804,-0.213872 0.09005,-0.137429 0.08897,-0.152668 -0.01928,-0.273015 -0.217674,-0.242003 -0.20313,-0.304481 0.130861,-0.562153 0.339034,-0.261562 0.387304,-0.408018 0.226939,-0.688547 -0.125739,-0.219957 -0.108587,-0.261259 0.200709,-0.483471 0.2746,-0.197281 0.284171,-0.213205 0.219648,-0.365415 C 24.789,14.95989 24.698686,14.828913 24.625401,14.756349 24.48519,14.617517 24.473658,14.580962 24.490253,14.328 c 0.0056,-0.08639 -0.03046,-0.21528 -0.0803,-0.286425 -0.113399,-0.161907 -0.115599,-0.336673 -0.006,-0.481525 0.139723,-0.18473 0.114949,-0.831195 -0.04332,-1.130372 -0.248801,-0.470311 -0.387796,-0.662631 -0.523634,-0.724523 -0.143328,-0.0653 -0.182894,-0.04711 -0.669356,0.307727 -0.158593,0.115686 -0.242123,0.139186 -0.393642,0.110761 -0.300701,-0.05641 -0.522665,0.01491 -0.564442,0.181364 -0.01982,0.079 -0.0079,0.171764 0.02646,0.206148 0.04495,0.04495 0.01464,0.122961 -0.107898,0.27768 -0.09372,0.118336 -0.170416,0.228615 -0.170416,0.245051 0,0.01644 0.09072,0.167641 0.201606,0.336009 0.233707,0.354863 0.253916,0.557897 0.072,0.72337 -0.106437,0.09682 -0.238869,0.124586 -0.740989,0.155357 -0.533487,0.03269 -0.645158,0.02299 -0.876445,-0.07615 -0.200467,-0.08592 -0.285883,-0.163454 -0.350508,-0.318122 -0.07031,-0.168266 -0.115336,-0.204504 -0.254138,-0.204504 -0.09279,0 -0.20096,0.03889 -0.2404,0.0864 -0.146358,0.17635 -0.432672,0.105161 -0.772277,-0.192018 -0.425032,-0.371936 -1.186248,-0.838994 -1.255133,-0.77011 -0.02944,0.02944 -0.05419,0.141308 -0.05503,0.248612 -0.0029,0.365017 -0.03007,0.396704 -0.341293,0.396704 -0.221845,0 -0.306821,0.02735 -0.384932,0.123861 -0.242532,0.299685 -0.302033,0.339044 -0.461129,0.305037 -0.284561,-0.06082 -0.673162,-0.215833 -0.830191,-0.331145 -0.238262,-0.174963 -0.35095,-0.09697 -0.304778,0.21092 0.03645,0.243021 0.02844,0.260858 -0.226583,0.504446 -0.276434,0.264047 -0.343567,0.489869 -0.184799,0.621635 0.161173,0.133762 0.143749,0.342982 -0.04976,0.597454 -0.261636,0.344063 -0.318272,0.467389 -0.318272,0.693042 0,0.231444 -0.06764,0.298893 -0.350799,0.349823 -0.24059,0.04327 -0.413006,0.207362 -0.54182,0.515659 -0.118874,0.284517 -0.07376,0.416433 0.243614,0.712223 0.225894,0.210535 0.254445,0.262993 0.219447,0.403213 -0.02212,0.08866 -0.07772,0.202804 -0.123536,0.253665 -0.09849,0.109336 -0.06449,0.222516 0.160874,0.53539 0.209894,0.291403 0.207655,0.487502 -0.0079,0.69404 l -0.169738,0.16262 -0.276675,-0.09965 c -0.601662,-0.216706 -0.892693,-0.18962 -0.990944,0.09222 -0.129122,0.370401 -0.04152,0.739277 0.246862,1.039513 0.08185,0.08521 0.228598,0.311932 0.326109,0.503822 0.122736,0.241536 0.219564,0.359499 0.314668,0.383369 0.145361,0.03649 0.316244,0.249195 0.316244,0.393653 0,0.0474 0.05832,0.141745 0.129604,0.209649 0.120162,0.114461 0.174291,0.121449 0.742701,0.09586 0.337202,-0.01517 0.639717,-0.01112 0.672254,0.009 0.03254,0.02011 0.07659,0.114062 0.09789,0.208792 0.0213,0.09472 0.05164,0.219522 0.06741,0.277327 0.02522,0.0924 0.335637,0.270524 0.680623,0.390554 0.178726,0.06219 0.54287,0.05795 0.665613,-0.0077 z m -1.147108,-3.458961 c -0.09256,-0.09936 -0.106449,-0.176335 -0.08146,-0.451872 0.02577,-0.284287 0.01302,-0.348032 -0.08852,-0.442647 -0.165005,-0.153727 -0.254404,-0.408942 -0.187221,-0.534476 0.02977,-0.05564 0.05271,-0.204382 0.05097,-0.330539 -0.0021,-0.158357 0.07469,-0.38893 0.248276,-0.744693 0.304043,-0.623116 0.399904,-0.663278 0.841798,-0.352677 0.586932,0.412545 0.596426,0.414416 1.090455,0.214943 0.543838,-0.219583 1.016142,-0.237053 1.43677,-0.05315 0.154512,0.06756 0.319811,0.159537 0.367333,0.204401 0.04753,0.04486 0.197382,0.160917 0.333023,0.257897 0.19745,0.141171 0.233368,0.192293 0.180153,0.256414 -0.03656,0.04405 -0.138314,0.08009 -0.226128,0.08009 -0.237421,0 -0.517228,0.284552 -0.518338,0.527127 -4.9e-4,0.106099 -0.01992,0.21889 -0.0432,0.250661 -0.05415,0.07391 -0.496065,0.374249 -0.550666,0.374249 -0.100899,0 -0.551053,0.336366 -0.787695,0.588587 -0.268395,0.286063 -0.446883,0.344639 -0.57602,0.189039 -0.0946,-0.113986 -0.608597,-0.113761 -0.82741,3.59e-4 -0.2382,0.124224 -0.528757,0.109436 -0.662119,-0.03371 z m 0.701439,-0.479018 c 0.13332,-0.283138 0.278831,-1.100304 0.230875,-1.296561 -0.05894,-0.241208 -0.368441,-0.754348 -0.454988,-0.754348 -0.143489,0 -0.243343,0.250611 -0.315532,0.791921 -0.08247,0.61847 0.0036,1.356965 0.169767,1.455452 0.155373,0.09212 0.260213,0.03644 0.369878,-0.196464 z m 0.8229,0.114274 c 0.01716,-0.04471 -0.04011,-0.189049 -0.127275,-0.320754 -0.158351,-0.239282 -0.158526,-0.239362 -0.232567,-0.105911 -0.0941,0.169587 -0.09782,0.350076 -0.009,0.438837 0.09486,0.09486 0.330813,0.08709 0.368899,-0.01213 z m 0.572037,-0.35735 c 0.07809,-0.05116 0.141978,-0.113149 0.141978,-0.137749 0,-0.04552 -0.41675,-0.230038 -0.519583,-0.230038 -0.106786,0 -0.05626,0.240891 0.07316,0.348862 0.158541,0.13226 0.133811,0.130724 0.304437,0.01892 z m 0.927204,-0.487689 c 0.223517,-0.138141 0.260652,-0.363136 0.0932,-0.564683 -0.0845,-0.101711 -0.203252,-0.130838 -0.734424,-0.180144 -0.348491,-0.03235 -0.753729,-0.07437 -0.900528,-0.0934 -0.26491,-0.03432 -0.266689,-0.03342 -0.237329,0.120161 0.03025,0.158275 0.310493,0.377066 0.59064,0.461135 0.0792,0.02376 0.204784,0.0816 0.279069,0.128525 0.156317,0.09874 0.51967,0.238327 0.635761,0.244246 0.04379,0.0023 0.166907,-0.0499 0.27361,-0.115849 z m 0.07333,-1.027532 c 0.126773,-0.08026 -0.151254,-0.400521 -0.351269,-0.404629 -0.248147,-0.0051 -0.452672,0.36069 -0.233674,0.417921 0.178805,0.04672 0.501732,0.03939 0.584943,-0.01329 z m 2.000272,-0.909826 c -0.05923,-0.01512 -0.188826,-0.118999 -0.288011,-0.230836 -0.445715,-0.502563 -0.477094,-0.522601 -0.742331,-0.474015 -0.424658,0.07779 -0.469929,-0.07534 -0.166495,-0.563175 0.202752,-0.325965 0.357594,-0.37986 1.009426,-0.351352 0.487129,0.0213 0.562033,0.03995 0.75655,0.188317 l 0.215894,0.16467 -0.03795,0.408309 c -0.03894,0.418993 -0.245909,0.841675 -0.412128,0.841675 -0.04063,0 -0.108374,0.0099 -0.150571,0.02195 -0.04219,0.01212 -0.125167,0.0096 -0.184387,-0.0055 z m 0.272132,-0.549225 c 0.04439,-0.07129 0.0962,-0.2139 0.115111,-0.31693 0.03095,-0.168532 0.01287,-0.201508 -0.180188,-0.328689 -0.256307,-0.168843 -0.641075,-0.241849 -0.806902,-0.153101 -0.170067,0.09102 -0.09902,0.282191 0.236236,0.635683 0.310226,0.3271 0.502809,0.376489 0.635738,0.163037 z M 16.9498,15.094788 c -0.146515,-0.205762 -0.09889,-0.375197 0.168779,-0.600422 0.240703,-0.202539 0.415545,-0.195569 0.600238,0.02392 0.199255,0.236802 0.188097,0.352642 -0.05449,0.565632 -0.275232,0.241657 -0.547247,0.245793 -0.714532,0.01088 z m 5.638984,-0.382335 c -0.09831,-0.118461 0.05746,-0.617909 0.266402,-0.854147 0.122724,-0.138756 0.167408,-0.156452 0.272656,-0.107987 0.146744,0.06759 0.480047,0.693062 0.406263,0.7624 -0.02749,0.02582 -0.15328,0.101462 -0.279535,0.168065 -0.271085,0.143003 -0.561905,0.156835 -0.665786,0.03166 z m -9.897908,6.764498 c 0.167608,-0.217974 0.136573,-0.417131 -0.09695,-0.622171 -0.224894,-0.197459 -0.282409,-0.193471 -0.33683,0.02336 -0.01993,0.0794 -0.119424,0.262383 -0.221113,0.406646 -0.223263,0.316747 -0.168019,0.38971 0.267364,0.353119 0.211928,-0.01781 0.308212,-0.0578 0.387531,-0.160955 z m -0.421835,-1.272012 c 0.03801,-0.03801 0.06912,-0.169103 0.06912,-0.291303 0,-0.122198 0.02887,-0.336863 0.06417,-0.477032 0.0353,-0.140169 0.04714,-0.299236 0.02632,-0.353484 -0.03845,-0.100187 -0.0593,-0.07864 -0.316422,0.326913 -0.104511,0.164851 -0.234889,0.478969 -0.234889,0.565934 0,0.106024 0.165344,0.298095 0.256614,0.298095 0.03627,0 0.09706,-0.03111 0.135077,-0.06912 z m 1.656564,-0.938474 c 0.108262,-0.08324 0.105399,-0.09149 -0.0898,-0.259414 -0.306409,-0.263614 -0.786439,-0.576249 -0.884791,-0.576249 -0.111023,0 -0.130156,0.03429 -0.176769,0.31681 -0.0543,0.329104 0.0357,0.419044 0.514342,0.514002 0.526501,0.104449 0.507653,0.104311 0.637011,0.0049 z m -1.875457,-0.280519 c 0,-0.03105 0.03538,-0.09737 0.07862,-0.147395 0.134614,-0.155695 0.32459,-0.898383 0.32459,-1.268937 0,-0.303244 -0.02116,-0.37485 -0.148376,-0.502064 l -0.148375,-0.148376 -0.167006,0.194196 c -0.218674,0.254276 -0.267091,0.455291 -0.313853,1.303019 -0.03875,0.702473 -0.03832,0.705842 0.09574,0.757936 0.133958,0.05206 0.27866,-0.04576 0.278659,-0.188379 z m -2.6435103,-0.09776 c 0.02376,-0.04564 0.08516,-0.221178 0.136431,-0.390096 0.09265,-0.305231 0.0923,-0.308712 -0.05792,-0.565044 -0.18886,-0.322266 -0.352585,-0.32541 -0.500942,-0.0096 -0.05495,0.116961 -0.19113,0.285444 -0.302633,0.374412 -0.238091,0.189974 -0.2698,0.396312 -0.07312,0.47586 0.241035,0.0975 0.647697,0.217852 0.701507,0.207625 0.02941,-0.0056 0.07292,-0.0475 0.0967,-0.09314 z m 1.9567003,-0.267385 c 0.07989,-0.210117 0.06733,-1.304867 -0.01594,-1.388119 -0.09091,-0.09091 -0.430084,-0.08891 -0.487659,0.0029 -0.06668,0.106286 -0.0237,0.28645 0.100261,0.420416 0.09402,0.101611 0.0985,0.133627 0.03224,0.230407 -0.09149,0.133626 -0.159799,0.587565 -0.114486,0.76082 0.05845,0.223507 0.397574,0.205066 0.485579,-0.0264 z m 2.324564,-0.47047 c 0.08244,-0.159403 0.07791,-0.174214 -0.127479,-0.417613 -0.117123,-0.138792 -0.249654,-0.280863 -0.294528,-0.315714 -0.06185,-0.04804 -0.06979,-0.117711 -0.03284,-0.288009 0.02681,-0.123561 0.04239,-0.457932 0.03461,-0.743061 -0.012,-0.44215 -0.03976,-0.571289 -0.188315,-0.877808 -0.202434,-0.4177 -0.239288,-0.451105 -0.362146,-0.328247 -0.108611,0.108611 -0.124373,1.043499 -0.03232,1.91735 0.06352,0.603066 0.149593,0.772574 0.533512,1.050683 0.289162,0.209468 0.362241,0.209844 0.469505,0.0024 z m -1.407347,-1.923079 c 0,-0.0995 -0.0735,-0.256346 -0.185342,-0.395518 -0.169732,-0.21121 -0.191565,-0.222128 -0.259209,-0.129619 -0.09537,0.130434 -0.09899,0.894864 -0.0046,0.989177 0.105824,0.105823 0.449228,-0.24891 0.449228,-0.46404 z m -0.691222,-0.190887 c 0,-0.244697 -0.128456,-0.351552 -0.318516,-0.264954 -0.18503,0.0843 -0.180932,0.242959 0.01225,0.472491 0.144602,0.171849 0.159369,0.176964 0.230408,0.07981 0.04175,-0.05709 0.0759,-0.186399 0.0759,-0.287349 z m 2.522962,0.02124 c 0.03801,-0.03801 0.06912,-0.116261 0.06912,-0.173866 0,-0.257149 -0.576152,-1.13731 -0.928638,-1.418638 -0.136358,-0.108836 -0.185751,-0.121573 -0.253429,-0.06541 -0.09202,0.07637 -0.0626,0.310877 0.0577,0.459796 0.03839,0.04753 0.125018,0.203489 0.192515,0.346596 0.205659,0.436038 0.463817,0.806256 0.600528,0.861204 0.174393,0.07009 0.182743,0.06979 0.262208,-0.0096 z m -2.727536,-0.700709 c 0.152659,-0.141478 0.204026,-0.455351 0.08641,-0.528038 -0.109024,-0.06739 -0.562166,0.540742 -0.470921,0.631987 0.07169,0.07169 0.245775,0.02463 0.384504,-0.103949 z m -0.735169,-0.04664 c 0.178171,-0.167382 0.17017,-0.355776 -0.02041,-0.48065 -0.223024,-0.14613 -0.455679,-0.05579 -0.439139,0.170525 0.01038,0.141419 0.210718,0.43537 0.296787,0.43537 0.0162,0 0.08944,-0.05636 0.162764,-0.125245 z m 1.655158,-0.21527 c 0.202646,-0.223921 -0.0011,-0.638328 -0.240199,-0.488604 -0.139308,0.08722 -0.160382,0.354029 -0.03859,0.488604 0.05481,0.06056 0.117536,0.110112 0.139395,0.110112 0.02186,0 0.08459,-0.04955 0.139396,-0.110112 z m 1.948925,-0.632267 c -0.502928,-0.869344 -0.81756,-1.160942 -0.928642,-0.860659 -0.09034,0.244218 0.03266,0.51121 0.439045,0.952945 0.274269,0.298133 0.473971,0.389516 0.573512,0.262436 0.05655,-0.0722 0.04066,-0.139386 -0.08391,-0.354722 z m -4.3618793,0.103349 c 0.06544,-0.206152 -0.21206,-0.436031 -0.582158,-0.482271 -0.375766,-0.04695 -0.542794,-0.0025 -0.542794,0.144468 0,0.144232 0.269844,0.278693 0.491779,0.245047 0.120924,-0.01834 0.218786,0.0099 0.31681,0.0915 0.181968,0.15142 0.268593,0.151762 0.316363,0.0012 z M 11.18612,14.456269 c 0.146215,-0.146216 0.148119,-0.327402 0.0039,-0.373168 -0.169776,-0.05389 -0.236298,-0.315794 -0.124573,-0.490484 0.312497,-0.488624 0.7626,-0.573342 1.144649,-0.215442 0.117086,0.109686 0.127196,0.157926 0.09421,0.449503 -0.02289,0.202291 -0.01435,0.340597 0.02241,0.363319 0.08161,0.05044 0.358728,-0.06161 0.515443,-0.208422 0.186888,-0.175066 0.179914,-0.586773 -0.0144,-0.85015 -0.104236,-0.141277 -0.143883,-0.267666 -0.143567,-0.457605 8.5e-4,-0.505884 0.109999,-1.20807 0.221577,-1.425443 0.123986,-0.241541 0.380047,-0.421027 0.600647,-0.421027 0.246789,0 0.291229,-0.128061 0.127941,-0.368678 -0.173623,-0.25585 -0.176168,-0.301893 -0.02897,-0.5241502 0.138038,-0.208432 0.150053,-0.463919 0.02409,-0.512255 -0.05011,-0.01924 -0.192848,-0.03496 -0.31719,-0.03496 -0.163776,0 -0.256096,-0.03571 -0.335005,-0.129603 -0.05991,-0.07129 -0.169902,-0.201708 -0.244426,-0.289833 l -0.135501,-0.16023 -0.35678,0.289833 c -0.196229,0.159409 -0.405103,0.289833 -0.464166,0.289833 -0.05906,0 -0.18364,-0.102798 -0.27684,-0.228453 -0.0932,-0.12565 -0.195376,-0.236251 -0.227057,-0.245783 -0.03167,-0.0095 -0.281669,-0.0086 -0.555529,0.0021 -0.492935,0.01924 -0.500156,0.02169 -0.7200243,0.244814 -0.132131,0.134083 -0.277088,0.225771 -0.357854,0.226347 -0.07466,5.23e-4 -0.265978,-0.102711 -0.425138,-0.229438 -0.159158,-0.126724 -0.323024,-0.230408 -0.364143,-0.230408 -0.105224,0 -0.240655,0.147712 -0.372652,0.406448 -0.128791,0.252451 -0.346975,0.341516 -0.837937,0.342056 -0.2359596,2.59e-4 -0.3180824,0.02769 -0.4256424,0.142184 -0.1270735,0.135246 -0.1288435,0.148608 -0.038037,0.2871902 0.052374,0.07994 0.157207,0.185952 0.2329524,0.235582 0.162889,0.106724 0.232557,0.330672 0.150544,0.483914 -0.03241,0.06056 -0.04222,0.228361 -0.02199,0.375997 0.03049,0.222388 0.06607,0.281896 0.214505,0.358654 0.328115,0.169675 0.690196,0.623683 0.785064,0.98438 0.08329,0.31668 0.09576,0.331518 0.325201,0.386945 0.131224,0.0317 0.295642,0.109261 0.365371,0.172371 0.110049,0.0996 0.121823,0.152086 0.08922,0.397812 -0.0411,0.309845 0.0032,0.375748 0.256822,0.381997 0.0792,0.002 0.403214,0.156673 0.7200233,0.343827 0.316811,0.187153 0.621382,0.341479 0.676822,0.342945 0.05544,0.0015 0.152646,-0.04917 0.216008,-0.112536 z m -0.775164,-0.91765 c -0.03935,-0.06366 0.05152,-0.132407 0.104711,-0.07921 0.05476,0.05476 0.04456,0.132837 -0.01736,0.132837 -0.02981,0 -0.06911,-0.02412 -0.08735,-0.05363 z M 9.6469937,12.439046 c -0.240285,-0.09669 -0.237363,-0.499334 0.005,-0.695625 0.107786,-0.08727 0.139372,-0.08916 0.279602,-0.01664 0.1681623,0.08696 0.3328493,0.348456 0.3328493,0.528511 0,0.189674 -0.3465203,0.292791 -0.6174983,0.183754 z m 1.8341573,-0.223693 c -0.09976,-0.06319 -0.03391,-0.178363 0.101986,-0.178363 0.132626,0 0.178636,0.04915 0.140075,0.149636 -0.03519,0.0917 -0.125679,0.102436 -0.242056,0.02873 z m -0.179827,-0.74403 c -0.04752,-0.02154 -0.274329,-0.163177 -0.504017,-0.314763 -0.515381,-0.340133 -0.527865,-0.421436 -0.123061,-0.801489 0.367187,-0.344734 0.539202,-0.3625002 0.734404,-0.07585 0.157672,0.231534 0.229165,0.826106 0.129979,1.080952 -0.06386,0.164094 -0.09171,0.177134 -0.23731,0.111149 z m -0.03672,-0.816838 c -0.04919,-0.04711 -0.213069,-0.07699 -0.352093,-0.06418 -0.137152,0.01264 -0.07116,0.181645 0.115199,0.295041 l 0.187207,0.113911 0.04969,-0.148596 c 0.02784,-0.08327 0.02784,-0.169513 0,-0.196178 z m 3.571663,3.071265 c -0.0069,-0.304491 -0.130214,-0.660264 -0.365776,-1.05514 -0.02835,-0.04752 -0.110924,-0.212221 -0.183508,-0.365998 -0.188197,-0.398732 -0.395133,-0.555631 -0.732828,-0.555631 -0.223714,0 -0.300672,0.02908 -0.427595,0.161557 -0.08514,0.08886 -0.154782,0.221429 -0.154782,0.294605 0,0.110936 0.700621,1.063936 1.065665,1.449531 0.0475,0.05017 0.08637,0.113749 0.08637,0.141262 0,0.02751 0.08051,0.133098 0.178919,0.234625 0.170558,0.175972 0.187381,0.180993 0.360011,0.107449 0.174972,-0.07454 0.180838,-0.08847 0.173521,-0.412262 z m -6.2150583,0.09164 c 0.262027,-0.343592 0.249919,-0.524826 -0.0405,-0.606291 -0.134717,-0.03779 -0.218302,-0.113986 -0.293824,-0.267849 -0.07111,-0.144887 -0.146278,-0.216855 -0.230407,-0.220616 -0.518056,-0.02316 -0.8675954,0.06199 -0.9308134,0.226725 -0.044987,0.117223 0.3182339,0.470078 0.4838774,0.470078 0.200199,0 0.466081,0.276753 0.466081,0.485137 0,0.102786 0.01357,0.200455 0.03015,0.21704 0.08687,0.08687 0.323833,-0.05297 0.515434,-0.304224 z m 3.3600493,0.112199 c 0.01496,-0.179303 -0.0089,-0.228669 -0.163761,-0.338946 l -0.181273,-0.129078 -0.142284,0.142285 -0.142286,0.142286 0.126352,0.214151 c 0.108524,0.183938 0.151703,0.211684 0.306047,0.196662 0.161269,-0.0157 0.181489,-0.03901 0.197205,-0.22736 z m 9.452427,-0.173303 c 0.124086,-0.09691 0.151762,-0.09939 0.267007,-0.02388 0.299945,0.196532 0.271684,-0.183764 -0.03491,-0.469751 -0.252415,-0.23545 -0.252545,-0.238911 -0.02453,-0.652077 0.244787,-0.443547 0.125757,-0.863263 -0.24783,-0.873884 -0.239986,-0.0069 -1.296806,0.447888 -1.40032,0.602509 -0.051,0.07617 -0.470078,0.114786 -0.563385,0.0519 -0.04392,-0.0296 -0.09247,-0.185062 -0.107886,-0.345461 -0.0345,-0.359075 -0.12896,-0.451368 -0.552974,-0.540306 -0.28435,-0.05965 -0.337646,-0.05631 -0.420236,0.02628 -0.145373,0.145373 -0.02066,0.366563 0.413923,0.73416 0.376248,0.318249 0.451192,0.479555 0.319477,0.687618 -0.07415,0.117123 -0.0145,0.227476 0.176275,0.326127 0.159419,0.08244 0.176589,0.07834 0.390018,-0.09317 l 0.223257,-0.179414 0.241474,0.152436 c 0.132811,0.08384 0.284653,0.230436 0.337426,0.325769 0.168584,0.304542 0.212786,0.346396 0.415576,0.3935 0.236305,0.05489 0.380485,0.02381 0.567636,-0.122349 z m -5.444107,-0.600431 c 0.04194,-0.109286 -0.186715,-0.515477 -0.4113,-0.730643 -0.08922,-0.08549 -0.316688,-0.208565 -0.505473,-0.273517 -0.323078,-0.111149 -0.347502,-0.112274 -0.415712,-0.01899 -0.105186,0.143854 -0.09244,0.200042 0.106937,0.471147 0.178604,0.242862 0.47353,0.437666 0.857431,0.566343 0.276381,0.09264 0.327835,0.09064 0.368117,-0.01434 z m 1.051933,-0.05147 c 0.145318,-0.101786 0.206193,-0.295069 0.114849,-0.364674 -0.03634,-0.02769 -0.223794,-0.107961 -0.416585,-0.178401 -0.340779,-0.124498 -0.657503,-0.123236 -0.657503,0.0026 0,0.109399 0.232996,0.50568 0.330805,0.562639 0.149151,0.08686 0.489916,0.07482 0.62843,-0.0222 z M 7.7124557,12.37326 c 0.170596,-0.141581 0.01822,-0.508269 -0.179648,-0.432338 -0.0459,0.01761 -0.1475253,-0.01836 -0.2258257,-0.07996 -0.2047927,-0.16109 -0.3775032,-0.139345 -0.5654723,0.0712 -0.1746943,0.195672 -0.2084339,0.380767 -0.091537,0.502197 0.085899,0.08924 0.940566,0.04009 1.062487,-0.0611 z m 9.7583913,-0.31334 c 0.09167,-0.08782 0.166679,-0.180761 0.166679,-0.206514 0,-0.06562 -0.446618,-0.0588 -0.487559,0.0075 -0.01845,0.02985 -0.156063,0.072 -0.30581,0.09367 -0.356971,0.05165 -0.46526,0.133666 -0.320669,0.242863 0.0744,0.05619 0.206573,0.07144 0.443343,0.05114 0.266857,-0.02287 0.372162,-0.06229 0.504016,-0.188605 z M 6.3242995,11.964653 c 0.1236735,-0.134822 0.2897991,-0.296827 0.369162,-0.360012 0.1923128,-0.153108 0.3453198,-0.398504 0.3453198,-0.55383 0,-0.06941 -0.063787,-0.209818 -0.1417396,-0.312025 -0.1757518,-0.230422 -0.3159902,-0.211474 -0.791956,0.107011 -0.2241437,0.14998 -0.3786494,0.214182 -0.4851732,0.201607 -0.2274962,-0.02686 -0.2315336,-0.145221 -0.00812,-0.238562 0.1065988,-0.04454 0.2379985,-0.14841 0.2919967,-0.23082 0.093336,-0.142451 0.092886,-0.152667 -0.00912,-0.207284 -0.059037,-0.0316 -0.3694208,-0.06491 -0.6897422,-0.07402 l -0.5824119,-0.01659 -0.2124088,0.211889 c -0.2086851,0.208174 -0.2107076,0.214488 -0.1153612,0.360012 0.075124,0.114649 0.1455733,0.148434 0.3117327,0.149497 0.3561059,0.0023 0.616383,0.08755 0.9566878,0.313434 0.3100265,0.205784 0.3236263,0.22527 0.3236263,0.463708 0,0.502795 0.1057238,0.547733 0.4375551,0.185991 z m 9.5059255,-0.06349 c 0.122786,-0.04301 0.352853,-0.09607 0.511259,-0.117911 0.323516,-0.0446 1.123236,-0.315038 1.123236,-0.379844 0,-0.02316 -0.05372,-0.110411 -0.119386,-0.19389 -0.101824,-0.129453 -0.163242,-0.151587 -0.417613,-0.150508 -0.171555,7.19e-4 -0.404884,0.04966 -0.549327,0.115198 -0.138105,0.06266 -0.28067,0.114824 -0.316812,0.115899 -0.03614,0.0011 -0.169394,0.05204 -0.296119,0.113249 -0.126723,0.06121 -0.270584,0.112174 -0.31969,0.113249 -0.128088,0.0028 -0.227527,0.119873 -0.227527,0.267883 0,0.203629 0.235569,0.248541 0.611978,0.116673 z m 4.341783,-0.037 c 0.0792,-0.06195 0.173232,-0.113211 0.208954,-0.113924 0.03572,-7.17e-4 0.09665,-0.03947 0.135392,-0.08616 0.03875,-0.04669 0.165042,-0.102449 0.280662,-0.123924 0.393465,-0.07307 0.958753,-0.307556 1.056878,-0.438383 0.280684,-0.374231 0.41778,-0.417579 0.540727,-0.170972 0.03599,0.07219 0.126678,0.19644 0.201525,0.276113 0.160871,0.171238 0.258216,0.158659 0.779012,-0.100649 0.561717,-0.279691 0.655118,-0.376783 0.711618,-0.739747 0.04887,-0.313977 0.173859,-0.7134912 0.302376,-0.9665402 0.05524,-0.108749 0.04437,-0.17308 -0.06317,-0.374412 C 23.931383,8.2869138 23.91484,8.2667818 23.560493,8.0939438 23.241434,7.9383188 23.180846,7.8323108 23.270018,7.5857128 23.393791,7.2434176 23.358704,7.0089403 23.141043,6.7238798 23.031557,6.5804864 22.91167,6.3369917 22.874635,6.1827797 22.837597,6.0285677 22.774236,5.8489173 22.733822,5.7835568 22.652232,5.6516045 21.901622,5.124768 21.795206,5.124768 c -0.157155,0 -0.516347,-0.4082303 -0.579353,-0.6584487 -0.05359,-0.2128301 -0.09137,-0.2599058 -0.233696,-0.2911642 -0.222415,-0.048849 -0.398261,0.050762 -0.49397,0.2798243 C 20.354565,4.774782 20.20886,4.8085066 19.65265,4.6483697 19.387116,4.5719207 19.144107,4.468543 19.112631,4.4186423 c -0.04434,-0.070287 0.0036,-0.1620181 0.213067,-0.4071103 0.148662,-0.1740105 0.270294,-0.3364662 0.270294,-0.3610122 0,-0.02455 0.05354,-0.1552269 0.118974,-0.2904017 0.06544,-0.1351747 0.121198,-0.3239063 0.123911,-0.4194039 0.0086,-0.3048853 -0.0807,-0.3504285 -0.687646,-0.3504285 -0.53893,0 -0.548024,-0.00238 -0.716715,-0.1829042 C 18.340546,2.3067827 18.22343,2.1447795 18.174262,2.0473694 17.950768,1.6046044 17.721093,1.5144092 17.369869,1.731478 c -0.151431,0.093586 -0.284932,0.1195861 -0.599107,0.1166361 -0.366514,-0.00337 -0.408846,0.00813 -0.453409,0.1243861 -0.08001,0.2086464 -0.17357,0.4001967 -0.329871,0.6753861 -0.106049,0.1867053 -0.159155,0.388793 -0.189875,0.7224905 -0.02538,0.2755918 -0.0826,0.524249 -0.141253,0.6137667 -0.09087,0.1386909 -0.0915,0.1674744 -0.008,0.3672596 0.0846,0.2024902 0.08291,0.238921 -0.02575,0.5528999 -0.165103,0.4770783 -0.152047,0.5515937 0.146817,0.8379567 0.212097,0.203224 0.261691,0.2879042 0.255667,0.43654 -0.0041,0.1014239 -0.0098,0.2518684 -0.01263,0.33432 -0.005,0.1454771 0.182504,0.3922143 0.617058,0.811977 0.18158,0.1753991 0.533398,0.3542631 0.821124,0.4174591 0.273976,0.06017 0.501101,0.339348 0.501101,0.615932 0,0.421861 -0.284729,0.494815 -0.976614,0.250229 -0.613677,-0.21694 -0.744768,-0.196962 -1.137637,0.173369 -0.353805,0.33351 -0.383987,0.425008 -0.247747,0.751074 0.122374,0.292895 0.284888,0.262529 0.780565,-0.145855 0.454416,-0.374388 0.482413,-0.378847 0.694824,-0.110661 l 0.185462,0.234165 0.421154,-0.03946 0.421153,-0.03946 0.03365,0.164917 c 0.08021,0.393039 0.115624,0.4526602 0.280168,0.4716232 0.08922,0.01025 0.266097,-0.02286 0.393041,-0.07365 0.223723,-0.08951 0.24011,-0.0878 0.534042,0.05601 0.386359,0.189028 0.481064,0.347623 0.354144,0.593058 -0.124486,0.240732 -0.115586,0.448469 0.02928,0.682853 0.08827,0.142834 0.111573,0.247545 0.08572,0.385331 -0.05511,0.29375 0.104136,0.359402 0.369083,0.15216 z m 0.0288,-3.4097402 c -0.06336,-0.03592 -0.128164,-0.08175 -0.144005,-0.101824 -0.01584,-0.02007 -0.106561,-0.09089 -0.201606,-0.157355 -0.198999,-0.139177 -0.547218,-0.7619086 -0.547218,-0.9786111 0,-0.095137 0.07742,-0.2203513 0.220166,-0.3560835 0.121086,-0.1151487 0.30746,-0.3574847 0.414154,-0.5385351 0.150705,-0.2557333 0.210827,-0.3152089 0.269451,-0.266557 0.115461,0.095824 0.09067,0.3081315 -0.07471,0.6400015 -0.0826,0.1657419 -0.188654,0.3791119 -0.23568,0.4741546 -0.133407,0.2696319 -0.08045,0.5033126 0.135635,0.5984886 0.09999,0.04404 0.214358,0.140922 0.254162,0.215297 0.09975,0.186372 0.197664,0.09241 0.311395,-0.298813 0.116299,-0.4000689 0.202196,-0.4445409 0.734282,-0.3801829 0.476377,0.057624 0.544325,0.04435 0.595317,-0.1163112 0.06971,-0.21965 -0.02832,-0.5075004 -0.210615,-0.6183554 -0.155496,-0.094561 -0.206578,-0.097611 -0.524182,-0.031337 -0.255758,0.053374 -0.388808,0.056612 -0.48701,0.011875 -0.07431,-0.033862 -0.135011,-0.076849 -0.134884,-0.095524 7.84e-4,-0.1131487 0.215265,-0.6050044 0.272092,-0.6239466 0.03763,-0.012537 0.107249,0.070162 0.154727,0.1837841 0.0852,0.2039064 0.09037,0.2064164 0.398776,0.1935116 0.423414,-0.017725 0.657771,0.1568782 0.808992,0.6027006 0.110661,0.3262438 0.102848,0.4608672 -0.04766,0.8210758 l -0.07547,0.180625 -0.466028,-0.113986 c -0.533717,-0.130545 -0.603804,-0.106374 -0.698933,0.24104 -0.09996,0.365054 -0.267954,0.583924 -0.446686,0.581957 -0.08759,-9.47e-4 -0.211094,-0.03115 -0.274456,-0.06707 z m 2.217672,3.1713632 c 0,-0.08839 -0.175814,-0.127265 -0.248199,-0.05487 -0.0518,0.0518 -0.04874,0.07934 0.01305,0.117524 0.09116,0.05635 0.23515,0.01799 0.23515,-0.06264 z m -7.40184,-0.227878 c 0.221768,-0.06727 0.442095,-0.145738 0.489617,-0.174366 0.04753,-0.02862 0.192891,-0.101074 0.323042,-0.160982 0.374038,-0.172176 0.387217,-0.448795 0.02257,-0.473714 -0.280105,-0.01914 -0.413742,0.01543 -0.709258,0.183476 -0.164327,0.09345 -0.363577,0.20078 -0.44278,0.238523 -0.164073,0.07819 -0.460814,0.335161 -0.460814,0.399057 0,0.04299 0.128778,0.08895 0.288009,0.102799 0.04752,0.0041 0.267848,-0.04752 0.489615,-0.114799 z m 4.176137,-0.282569 c 0.117798,-0.117799 0.158032,-0.477049 0.0691,-0.616985 -0.06004,-0.09447 -0.655336,0.06009 -0.884761,0.229707 -0.221494,0.163757 -0.189291,0.264206 0.124436,0.388139 0.349103,0.13791 0.552705,0.137656 0.691222,-8.48e-4 z M 14.648861,10.72005 c 0.07555,-0.059 0.197179,-0.126024 0.270277,-0.148933 0.160574,-0.05033 0.213051,-0.179006 0.264973,-0.6497442 0.02825,-0.256109 0.01503,-0.431017 -0.04621,-0.611385 -0.0913,-0.26893 -0.07075,-0.467137 0.06471,-0.624042 0.04582,-0.05309 0.07357,-0.143808 0.06165,-0.201607 -0.02729,-0.132248 -0.257378,-0.121098 -0.723503,0.03508 -0.1818,0.06091 -0.440852,0.127877 -0.575671,0.148813 -0.37711,0.05856 -0.556717,0.380887 -0.272459,0.488962 0.270149,0.102711 0.488783,0.303378 0.488783,0.448616 0,0.07659 -0.0648,0.21627 -0.144005,0.310398 -0.164398,0.1953762 -0.177031,0.3037162 -0.05922,0.5079122 0.0457,0.0792 0.109474,0.202326 0.141731,0.273608 0.07381,0.1631 0.33459,0.174108 0.528948,0.02232 z m 3.096177,-0.101186 c 0.112836,-0.07904 0.127321,-0.125154 0.09496,-0.30241 -0.021,-0.115036 -0.07797,-0.27087 -0.126604,-0.3463062 -0.08114,-0.125862 -0.115361,-0.134337 -0.415753,-0.102936 -0.433497,0.04531 -0.999768,0.2934512 -0.974079,0.4268442 0.01225,0.06361 0.09996,0.113074 0.248829,0.140332 0.12645,0.02315 0.359513,0.09265 0.517919,0.154431 0.362299,0.14132 0.487654,0.147073 0.654729,0.03005 z M 4.4477334,9.9777258 c 0.098774,-0.12558 0.174248,-0.159282 0.3641921,-0.162636 0.1431183,-0.0025 0.3291187,-0.05851 0.4619234,-0.139023 0.2161038,-0.131018 0.2210925,-0.141382 0.1782043,-0.370182 -0.088924,-0.474391 -0.052699,-0.735568 0.1604506,-1.157018 0.1121612,-0.221767 0.2597758,-0.453624 0.3280275,-0.51524 0.1118113,-0.100936 0.1480696,-0.104886 0.3663671,-0.03991 0.1332485,0.03966 0.3718758,0.09864 0.5302802,0.131037 0.1584057,0.0324 0.3415224,0.108687 0.4069266,0.169512 0.1330935,0.123774 0.2666085,0.139527 0.4320875,0.05096 0.145263,-0.07774 0.141406,-0.250086 -0.01013,-0.455125 C 7.5211147,7.2940495 7.4600052,6.861732 7.5527387,6.6884464 c 0.04653,-0.086924 0.121162,-0.1237486 0.251349,-0.1240236 0.101849,-2.087e-4 0.262942,-0.051874 0.357986,-0.1148236 0.274314,-0.1816705 0.4492,-0.1509158 0.63064,0.1108987 0.08619,0.1243611 0.194983,0.240801 0.241782,0.2587595 0.0468,0.017962 0.173096,0.22078 0.280658,0.4507136 0.260504,0.5568728 0.420068,0.7452538 0.591682,0.6985368 0.1787963,-0.04867 0.3078693,-0.319377 0.2926373,-0.613749 -0.0158,-0.3053452 0.19398,-0.6913108 0.434547,-0.7995034 0.106924,-0.048087 0.190062,-0.1415508 0.222085,-0.2496659 0.09897,-0.3341624 0.09781,-0.3323062 0.172343,-0.2738006 0.118799,0.093249 0.423771,0.1287173 0.494935,0.057549 0.0363,-0.0363 0.066,-0.1912354 0.066,-0.3442986 0,-0.3436061 0.07232,-0.3809394 0.425903,-0.2198638 0.424745,0.1934941 0.782708,0.031225 0.901109,-0.4084853 0.09344,-0.346996 0.149229,-0.373087 0.88803,-0.4152828 0.621597,-0.035499 0.685352,-0.029237 0.887853,0.087312 0.126296,0.072687 0.259578,0.1096737 0.316507,0.087824 0.08832,-0.0339 0.08994,-0.053987 0.01582,-0.1973127 -0.04538,-0.087762 -0.137007,-0.208894 -0.203612,-0.2691708 -0.169502,-0.153397 -0.153997,-0.2593758 0.115261,-0.7878247 0.195283,-0.3832644 0.228765,-0.4957356 0.192648,-0.6471264 -0.02404,-0.1007864 -0.03934,-0.420424 -0.034,-0.7103182 0.01225,-0.6619049 -0.03929,-0.8018783 -0.34532,-0.9388955 -0.215421,-0.096449 -0.261948,-0.099049 -0.468484,-0.026175 -0.280953,0.099124 -0.628703,0.1047988 -0.721723,0.01175 -0.03805,-0.03805 -0.06912,-0.2210088 -0.06912,-0.40700042 0,-0.5974494 -0.16412,-0.698207 -0.612633,-0.3761094 l -0.257059,0.184603 -0.131494,-0.1649093 c -0.116423,-0.1460034 -0.156948,-0.1607782 -0.353519,-0.1288798 -0.235143,0.038162 -0.426768,0.2166663 -0.568308,0.529404 C 11.442394,1.2244325 11.210973,1.403633 10.979575,1.403633 c -0.160429,0 -0.242314,-0.043412 -0.387238,-0.2052852 C 10.491251,1.0854366 10.286888,0.85639798 10.13819,0.68936238 9.8901627,0.41075178 9.8524067,0.38874698 9.6811547,0.42299788 c -0.102674,0.020537 -0.229059,0.075687 -0.280862,0.1225736 -0.0518,0.046875 -0.227418,0.1105112 -0.390256,0.1413871 C 8.3505967,0.81201848 7.7748677,1.0392684 7.3846099,1.3285426 7.2736361,1.4107916 7.0750471,1.508333 6.9432924,1.5452876 6.7679831,1.594462 6.6722492,1.6658487 6.5863215,1.8114871 6.4358619,2.0664967 6.2409017,2.1162448 5.8627847,1.9961125 5.3812377,1.8431192 5.3324345,1.8360305 5.1743888,1.8961136 c -0.1151362,0.043774 -0.151612,0.097411 -0.151612,0.2229462 0,0.1812779 -0.1229986,0.3185964 -0.3456123,0.3858344 C 4.5979654,2.5288189 4.4598807,2.6096555 4.3703155,2.6845296 4.280754,2.7594038 4.1381869,2.8358891 4.0535054,2.8544927 3.6981257,2.9325543 3.6049567,2.9832237 3.4813969,3.1655904 3.3587733,3.3465696 3.3566483,3.3658831 3.4445973,3.5000953 3.4959217,3.5784319 3.6776121,3.7844671 3.8483402,3.9579451 4.1858589,4.3008999 4.2266071,4.4458883 4.0594565,4.709124 3.7520625,5.1932172 3.5258201,5.2836837 3.2137612,5.0472877 2.7408891,4.6890705 2.5498496,4.7288763 2.2201959,5.2543153 2.0286693,5.5595906 1.9958485,5.5855265 1.8010544,5.5855265 c -0.3017703,0 -0.3495885,0.076812 -0.3495885,0.5615986 0,0.2747594 -0.032225,0.4856782 -0.091824,0.6009181 -0.061324,0.1185862 -0.078524,0.2372098 -0.051787,0.3571522 0.087899,0.3943354 -0.014462,1.3278404 -0.1719593,1.5682204 -0.14248091,0.217454 -0.1056863,0.380333 0.1301397,0.576011 0.2937217,0.243723 0.3708721,0.259877 0.9339594,0.19555 l 0.4893223,-0.0559 0.2207837,0.258296 c 0.1953815,0.228576 0.2484334,0.258468 0.4611097,0.259804 0.1321785,8.16e-4 0.3440099,0.05057 0.4707334,0.1105362 0.3237288,0.153191 0.460991,0.144118 0.6058519,-0.04005 z M 5.8684172,4.4894815 C 5.3467906,4.3536518 5.1989048,4.1580153 5.4003987,3.8703436 5.4497232,3.7999319 5.5346722,3.7423238 5.5891878,3.7423238 c 0.054512,0 0.1594982,-0.042287 0.2332924,-0.093974 C 5.9371789,3.5680133 5.951455,3.5218751 5.9208416,3.3304397 5.8884169,3.1276521 5.8990668,3.1011711 6.0336403,3.0500042 c 0.081736,-0.031075 0.2761593,-0.056499 0.4320525,-0.056499 0.2669032,0 0.2923467,0.01345 0.4360301,0.2305749 C 7.0860708,3.502649 7.1473863,3.8056093 7.0833895,4.121692 7.0426275,4.3230047 6.999628,4.3750803 6.7861417,4.4817029 6.4958512,4.6266812 6.3984511,4.6275074 5.8684109,4.4894528 Z M 6.7873179,4.1158908 C 6.912129,3.9452027 6.8864793,3.6480099 6.737956,3.5439836 6.6675443,3.4946591 6.5659504,3.4543096 6.5121898,3.4543096 c -0.1042363,0 -0.740649,0.5510099 -0.740649,0.6412564 0,0.1898328 0.8789649,0.2074164 1.0157734,0.020325 z M 10.411234,3.8619587 C 10.393159,3.832709 10.299823,3.7915345 10.203825,3.7704472 9.9260487,3.7094354 9.7462277,3.4727856 9.7452067,3.1668879 9.7447287,3.0239995 9.7080447,2.8034083 9.6636827,2.6766834 9.5695337,2.407744 9.6043077,2.3485097 10.021617,2.0668692 c 0.305678,-0.2062989 0.394058,-0.2074014 0.629741,-0.00787 0.215052,0.1820792 0.303856,0.4976481 0.238658,0.8480779 -0.02357,0.1267248 -0.04436,0.3256225 -0.04619,0.4419949 -0.0023,0.1400897 -0.05371,0.2714744 -0.152444,0.3888131 -0.154771,0.1839341 -0.224154,0.2146588 -0.280149,0.1240486 z m 0.152654,-0.4549223 c 0.07374,-0.071787 0.116023,-0.7840248 0.05575,-0.9390556 -0.08134,-0.2092351 -0.335194,-0.2688644 -0.489158,-0.1148987 -0.108274,0.1082738 -0.111262,0.1438046 -0.04906,0.5836434 0.03642,0.2575908 0.08239,0.4944881 0.102136,0.5264377 0.03576,0.057862 0.303883,0.0183 0.380332,-0.056124 z M 6.8564521,9.6409458 c 0.1830454,-0.12821 0.1469334,-0.358967 -0.076874,-0.49123 -0.4494461,-0.265607 -0.8972235,-0.46427 -0.9772401,-0.433566 -0.2537208,0.09736 0.086937,0.661547 0.569231,0.942725 0.1658669,0.0967 0.3298838,0.09064 0.4848845,-0.01792 z m 1.2599906,-0.383243 c 0.174291,-0.190613 0.314326,-0.494024 0.293883,-0.636744 -0.01373,-0.0958 -0.07161,-0.13441 -0.248303,-0.165588 -0.385034,-0.06794 -0.7489882,-0.0523 -0.8674193,0.03727 -0.061499,0.04651 -0.1693506,0.0854 -0.2396748,0.0864 -0.1032738,0.0015 -0.1430296,-0.05019 -0.2067414,-0.26869 -0.058649,-0.20116 -0.1159361,-0.282873 -0.2234249,-0.318701 -0.3619946,-0.120661 -0.6661737,0.261158 -0.3862394,0.48483 0.2186175,0.174681 0.5724035,0.400278 0.9154658,0.583763 0.1742468,0.0932 0.36794,0.204905 0.430431,0.248248 0.169205,0.117361 0.398261,0.09549 0.532023,-0.0508 z m 1.791271,-0.480358 c 0.1581123,-0.08204 0.3582713,-0.223043 0.4447973,-0.313357 0.156912,-0.163782 0.157938,-0.16397 0.394662,-0.0725 0.130537,0.05044 0.289183,0.13769 0.352545,0.193883 0.06336,0.0562 0.185423,0.119599 0.271245,0.140891 0.08582,0.0213 0.186201,0.07506 0.22306,0.119474 0.113899,0.137245 0.345898,0.09055 0.605006,-0.121774 0.331192,-0.271387 0.363758,-0.393959 0.158134,-0.595183 -0.198574,-0.194326 -0.518699,-0.332179 -0.941864,-0.405585 -0.174922,-0.03035 -0.343407,-0.06021 -0.374412,-0.06639 -0.184849,-0.03676 -0.343317,0.03402 -0.65019,0.290441 -0.4215113,0.352205 -0.6317033,0.380223 -0.8642543,0.115198 -0.0834,-0.09505 -0.185299,-0.172802 -0.226445,-0.172802 -0.115723,0 -0.206005,0.257946 -0.165619,0.473221 0.0382,0.203594 0.305024,0.561985 0.419173,0.56301 0.03667,3.26e-4 0.19605,-0.06651 0.354162,-0.148548 z m 3.9502933,-0.620316 c 0.408895,-0.404317 0.501718,-0.531212 0.579366,-0.7920251 0.180256,-0.6054606 0.176597,-0.8583289 -0.0224,-1.5490123 -0.05473,-0.1899216 -0.211816,-0.2174525 -0.265191,-0.046474 -0.03871,0.1239861 -0.423554,0.636704 -0.575702,0.766985 -0.195579,0.1674706 -0.367707,0.6613637 -0.405647,1.1639404 -0.03838,0.508315 0.03102,0.938044 0.151485,0.938044 0.02815,0 0.270296,-0.216654 0.538095,-0.481453 z m 3.771286,0.257355 c 0.185836,-0.117749 -0.107211,-0.453771 -0.333191,-0.382048 -0.14339,0.04551 -0.190554,0.304105 -0.06847,0.375441 0.116873,0.06829 0.299571,0.0713 0.401666,0.0066 z m -1.403009,-0.294318 c 0,-0.101036 -0.24608,-0.151373 -0.329955,-0.0675 -0.09181,0.09181 0.01038,0.190883 0.176989,0.171602 0.0897,-0.01037 0.152966,-0.05344 0.152966,-0.104099 z M 8.4686337,7.9821188 c 0.01311,-0.111248 -0.02516,-0.198421 -0.129603,-0.295216 -0.08151,-0.07555 -0.148208,-0.164513 -0.148208,-0.197707 0,-0.033199 -0.02309,-0.060349 -0.0513,-0.060349 -0.07152,0 -0.114274,0.40553 -0.05869,0.556765 0.04326,0.117711 0.183393,0.192445 0.311598,0.166176 0.03169,-0.0065 0.06597,-0.08284 0.0762,-0.169665 z m 6.6920153,0.0039 c 0.528218,-0.147049 0.887436,-0.281963 0.993632,-0.373183 0.140086,-0.120324 0.125908,-0.2835817 -0.0288,-0.3316161 -0.07129,-0.022125 -0.198408,-0.088686 -0.282501,-0.1478858 -0.271476,-0.1911329 -0.404992,-0.1430922 -0.849219,0.305559 -0.225021,0.2272619 -0.40913,0.4583899 -0.40913,0.5136169 0,0.05522 -0.0324,0.115348 -0.072,0.133606 -0.130554,0.06019 0.325039,-0.01012 0.648022,-0.100098 z m -2.229742,-0.237287 c -0.02277,-0.06502 -0.04394,-0.3515135 -0.04702,-0.6366427 -0.0031,-0.2851293 -0.02571,-0.5624186 -0.05026,-0.6161992 -0.07946,-0.1740268 -0.429353,-0.4022942 -0.555346,-0.3623059 -0.100036,0.03175 -0.111874,0.073249 -0.08732,0.3060128 0.01563,0.1481033 0.04396,0.435665 0.06297,0.6390239 0.04269,0.4566611 0.255866,0.9086731 0.443115,0.9395371 0.166354,0.02741 0.288543,-0.113348 0.233873,-0.269426 z M 8.9291777,7.4639938 c 0.0154,-0.1874666 -0.01213,-0.2544983 -0.171877,-0.4193752 -0.203284,-0.2097363 -0.407022,-0.2378423 -0.440769,-0.060812 -0.02511,0.1317673 0.201541,0.6009472 0.325853,0.6745112 0.174984,0.103549 0.267469,0.04089 0.286793,-0.194329 z M 11.383016,7.2787072 c 0.129276,-0.049612 0.113286,-0.1439109 -0.05523,-0.3256363 -0.16042,-0.1730068 -0.397385,-0.2074514 -0.568148,-0.082586 -0.148001,0.1082237 -0.09977,0.341931 0.08086,0.391883 0.190024,0.052549 0.429369,0.059762 0.542507,0.016337 z m 3.586574,-0.551855 c -0.01839,-0.045949 -0.03204,-0.0323 -0.0348,0.0348 -0.0025,0.060724 0.01112,0.094736 0.03025,0.075599 0.01914,-0.019137 0.02119,-0.068824 0.0045,-0.1103988 z m -3.010028,0.017575 c 0.04344,-0.070274 -0.187137,-0.3523824 -0.288007,-0.3523824 -0.05556,0 -0.08222,0.065362 -0.08222,0.2016065 0,0.1847079 0.0142,0.2016077 0.169407,0.2016077 0.09317,0 0.183543,-0.022875 0.200821,-0.050837 z m 3.661902,-0.5254065 c 0,-0.071862 -0.186992,-0.1238361 -0.243228,-0.067599 -0.02814,0.028137 -0.03284,0.1241611 -0.0105,0.2133988 l 0.04072,0.1622407 0.106474,-0.1314885 c 0.05856,-0.072324 0.106474,-0.1517658 0.106474,-0.176548 z m -2.181801,0.044612 c 0.0378,-0.070624 0.103512,-0.1632031 0.146033,-0.2057214 0.108898,-0.1088987 0.09606,-0.260227 -0.03487,-0.4112003 -0.0617,-0.071137 -0.121574,-0.1575307 -0.133059,-0.1919828 -0.0115,-0.03445 -0.06361,-0.046237 -0.115836,-0.0262 -0.07709,0.029575 -0.08869,0.089424 -0.06161,0.3179989 0.01834,0.1548582 0.0079,0.3310499 -0.02341,0.391538 -0.03121,0.060487 -0.04514,0.1423784 -0.03094,0.1819804 0.041,0.1143487 0.178691,0.083737 0.253695,-0.056412 z m 1.642052,-0.352231 c 0.115711,-0.3342336 -0.04465,-0.6547812 -0.233233,-0.4661996 -0.160379,0.1603794 -0.07889,0.7603863 0.09539,0.7022957 0.03489,-0.011625 0.09691,-0.1178737 0.137846,-0.2360961 z M 14.121184,5.3871488 c 0.0895,-0.1078363 0.05682,-0.3211076 -0.06046,-0.3945818 -0.05054,-0.031662 -0.160702,-0.040299 -0.244809,-0.019187 -0.275675,0.069187 -0.180338,0.4970006 0.110761,0.4970006 0.06899,0 0.156516,-0.03745 0.194508,-0.083236 z m 6.09691,-1.137927 c 0.104598,-0.1045989 0.08389,-0.2093652 -0.07226,-0.3655096 -0.179066,-0.1790667 -0.22392,-0.1772405 -0.4035,0.016425 -0.183466,0.197859 -0.182575,0.2220575 0.01212,0.3276538 0.193928,0.1052113 0.3717,0.1134237 0.463695,0.021425 z"
     id="path2"
     inkscape:label="branches" /></svg>
