<svg xmlns="http://www.w3.org/2000/svg" width="288" height="576" viewBox="0 0 76.2 152.4"><path d="M14.8 2A12.6 12.8 0 0 0 2.2 15a12.6 12.8 0 0 0 2 7 11 11.3 0 0 0-3.7 8.3 11 11.3 0 0 0 7 10.5 11 11.3 0 0 0 11 10.8 11 11.3 0 0 0 10.2-6.7 11 11.3 0 0 0 .7.3 11 11.3 0 0 0 10 6.4 11 11.3 0 0 0 .5 0 8.8 8.6 9.4 0 0-.1 0 8.8 8.6 9.4 0 0-1.2.5 15 15.3 50 0 0-4.6 2.7 15 15.3 50 0 0-4.8 7.2 13.3 13.5 50 0 0-10.6 3 13.3 13.5 50 0 0-4.3 14.5A13.3 13.5 50 0 0 13 98a13.3 13.5 50 0 0 14 4.1 13.3 13.5 50 0 0 .2 1 13.3 13.5 50 0 0-.7 9.1 8.8 8.6 9.4 0 0-3-1 8.8 8.6 9.4 0 0-9 4 8.8 8.6 9.4 0 0-9.7 7.1 8.8 8.6 9.4 0 0 4 8.7 8.8 8.6 9.4 0 0-.5.5 8.8 8.6 9.4 0 0-6.1 6.8 8.8 8.6 9.4 0 0 7.2 10 8.8 8.6 9.4 0 0 6-1 8.8 8.6 9.4 0 0 5.3 3 8.8 8.6 9.4 0 0 8.8-3.8 10 9.8 9.4 0 0 9-6.2 11 11.3 0 0 0 5 1.3 11 11.3 0 0 0 10.2-6.7 11 11.3 0 0 0 .8.4 11 11.3 0 0 0 10 6.3 11 11.3 0 0 0 11-11.3 11 11.3 0 0 0-2.6-7.2 11 11.3 0 0 0 2.8-7.4 11 11.3 0 0 0-6.6-10.3 12.6 12.8 0 0 0-3-6 13.3 13.5 50 0 0-.2-6 15 15.3 50 0 0 0-19.2 15 15.3 50 0 0-7.4-4.8 15 15.3 50 0 0 .1-.3 8.8 8.6 9.4 0 0 2.3-2.4 10 9.8 9.4 0 0 9.5-8.2 10 9.8 9.4 0 0-.7-5.6 10 9.8 9.4 0 0 5-7 10 9.8 9.4 0 0-8.2-11.3 10 9.8 9.4 0 0-5.6.7 8.8 8.6 9.4 0 0-6-4 8.8 8.6 9.4 0 0-7 1.8 11 11.3 0 0 0 2.8-7.4A11 11.3 0 0 0 44 15.2 12.6 12.8 0 0 0 31.7 5a12.6 12.8 0 0 0-7 2.1 12.6 12.8 0 0 0-9.9-5Z" style="fill:#00ca00;fill-opacity:1;stroke-width:1.05833"/><path d="m29.8 45.7.6-7.4c0-.5 0-.7-.5-1.4a3 3 0 0 0-.7-.8 41.5 41.5 0 0 0-1 5.2l.3.4-.3-.3c-.3-.2-.3-.2-.4.5l-.2.7.2-1.7.7-3.6.3-2-1-1.3-1-1.4-.3.5-.3.6.2 1c.3.6.5 1 1 1.4.7.7.7.8 0 .2l-.5-.4v2.8l-.2-1.2c-.2-2-.2-2-.5-2.7l-.3-.6-.5 1c-.6 1-.6 1.1-.6 2.4v1.3-1.1l-.2-1.1-.3.8c-.7 1.3-.6.8 0-.6.7-1.4.7-1.6.5-1.4l-1.5.6 1-.5.9-.5.6-1.5.6-1.5-.7-2a14 14 0 0 0-.9-2.1L23 30.2c-.3.4-.1 1.3.3 2.2.2.4.3.6.1.4-.3-.5-.4-.4-.3.1v.4c-.2 0-.2-.5-.3-.9l-.1-1.2-.2-.5-.5.7c-.4.5-.8 1.3-1 2-.5 1.2-.5 1.2-.4 2.8.2 1.6.2 1.6.8 2.6a59.8 59.8 0 0 0 3 4.4L23 41.9l.2 1.5c.4 1.8.3 2.2 0 .5-.5-2-.4-2-1-.6-.8 1.7-.8 1.5 0-.2l.4-1.6-1-1.5c-.8-1-1-1.3-1-1.1a77.3 77.3 0 0 0-1 3l.3-2c0-.2-1.2 1.1-1.2 1.3 0 .3 0 2.3-.1 2 0-.3-.2-.3-.6.2-.4.3-.3.2 0-.2.5-.6.5-.8.5-1.4v-.7l-.5.6a77 77 0 0 1 1-1.3c1-1.3 1.1-1.6 1.1-2.6a6 6 0 0 0-.3-2.3l-1.6 1.6a13.5 13.5 0 0 0-2.6 4l-1.2 2.3 1-2.3 1-2.4-.8.4c-.7.4-.8.6-1.2 1.4l-.4.7.3-.7c.3-.6.2-.7-.2-.4l-1.6 1 .8-.7c.6-.4.7-.6.5-.6-.2-.1-.1-.2.3-.2 1-.2 2.4-1.3 4.1-3.3 1.4-1.5 1.6-1.9 1.9-2.7l.2-1c0-.1-2.2.2-2.9.4-.6.2-.8.6-.8 1.8v.8-.7l-.2-.8-.2.6a40.7 40.7 0 0 0-.3.4c0-.5 0-.5-.2-.3l.2-.3c.4-.5.7-1 .7-1.3 0-.2-.8.2-1.8.8-1 .6-1.3.9-2 1.9-.7 1-.8 1.1-.8 2v.2c0-.4-.2-.7-.2-.7l-.2.1-.4.7-.4.5.3-.5.7-1.1c.4-.7.3-.7-.6-.3l-.6.1.8-.4c.7-.3 1-.5 1.3-.9.6-.8.5-.9-.7-.8-1.5.1-1.3 0 .3-.2 1-.1 1.3-.2 2.1-.8l1-.8-1.4-.4.2-.1h.5l-.2-.4c-.2-.4-.2-.4.1 0 .8.9.8.9 3.7.1l2.5-.6 1.3-1.8c.8-1.1 1.2-1.8 1-1.8-.3 0-1.3.6-1.8 1.2-.3.3-.5.5-.4.3 0-.2 0-.2-.7.1-.2 0 0 0 .3-.3.6-.3.6-.3.3-.4-.3 0-.3 0 .1-.1.4 0 1.1-.4 1-.7l-.8-.2c-1.2-.3-1-.4.2-.2.8.2 1.1.2 1.7 0 .8-.2 1.2-.5 1-.8-.3-.2-2.5-1-4-1.3-1.6-.3-1.6-.3-2.4 0-1 .4-1.1.5-.9 1.1.3.7.3.8 0 .2l-.3-.5-.2.4-.2.4.1-.5c.3-.6.2-.6-.7-.2a98.1 98.1 0 0 0-4.7 5.7l.6-1s-1 0-1.4.2c-.2 0-.4.4-.5.7a2 2 0 0 1-.4.6l.2-.6.3-.6h-.3c-.2 0-.4 0-.5.2h-.3l.5-.3a68.6 68.6 0 0 0 2.6-.5l.6-1-.8-.3c-.7 0-.9 0-1.3.3l-.5.3.4-.3.2-.4-.7-.3c-.9-.2-.6-.3.6 0l1.6.2h.8l1-1.4.8-1.4-1.1-.1-1-.1-2 1-1.8 1 1.5-1 1.5-1-3.2-.1H4.9l2.5-.2c2.3-.2 2.4-.2 2-.4-.1-.2-.4-.3-.7-.4-.3 0-1.2-.6-1-.6l1.3.6c1.2.6 1.3.6 3 .6h2l-.4-.3-.7-.6c-.3 0-.4-.2-.3-.2v-.5c-.2-.5 0-.3.3.2.1.3.6.7 1 1l.8.6 1.4-.6 1.4-.7a10 10 0 0 0-2.6-2.3c-1-.5-2.3-.5-4 .1-1.8.6-1.9.6-.8.1l1-.5-1.6-.5-1.7-.5h1.4c.1.4 2.5.8 3.3.6l.6-.1-1.2-1c-1-.8-1.3-1-2.1-1-.8-.2-.8-.2-.2-.2h.6l-.8-.7-.8-.7 1.3.8c3.1 2.3 3.9 2.8 4.4 3h.6l-1.2-2.3a3 3 0 0 0-1.1-.4c-.5 0-.8-.3-.9-.4 0-.2 0-.2.1 0 .2.1 1.7.5 1.7.3l-.3-.6c-.2-.4-.4-.6-.9-.8l-2.8-1.2-.5-.7-.4-.5.8.8c.4.4 1 .7 1.9 1 1.4.6 1.6.6 1.4.3-.3-.3-1.1-2-1-1.8l2 3.4 2 3.2 1.4 1.2c1.2 1 1.5 1.3 2.1 1.3a29.3 29.3 0 0 1 3.2.6l-.6-.6-.9-.8c-.1-.1.2 0 .7.5l1 .6-.1-.8v-.6l.1.5.2 1c.1.3 1.4 1 1.7 1l.1-2v-2L23 20.8l-1.6-1.4-1.4-.2-1.3-.2-1 .5c-1.4.7-1.6.7-.5 0 .5-.2.9-.5.9-.6l-1.3-.4-1.2-.4c0-.2 0-.2.4 0s2.1.5 2.2.4l-.6-.7c-1.5-1.8-1.5-1.8-.8-1.1l.6.6V17c-.1-.4-.1-.4.1 0 .6 1.3 1.4 1.9 2.8 2 .8 0 .8 0 .4-1-.2-.4-.8-1.2-2-2.3l-1.2-1.4.4.3c0 .2 2 2 2.2 2l-.4-1.2-.4-1.2 1.2 2.5 1.2 2.6 1.3.9 1.5.9c.2 0 0-.7-.4-2.2-.5-1.5-.6-1.6-2.3-3.8L20 12.8l-2-1.3c-2.7-1.8-2.6-1.8.5 0l.8.5-.6-1.2c-1.5-2.5-1.8-3.3-.4-1l.7 1V9.2l.1-1.8v2c.1 2.1 0 2 1.4 3.5.4.4.5.5.5.3.2-.6.1-1.9-.2-2.5l-.2-.6.3.5.3.5v-.4c.1-.2.2.5.1 1.4v1.8l1 1.2 1.2 1.1v-1a15 15 0 0 0-.3-5L23 8.6l.4 1.1.4 1.2.5-1.4.4-1.2-.3 1.6a7.5 7.5 0 0 0-.4 2.6c0 1.1 0 1.1.7 1.6l.6.6-.1-.6c-.2-1.2-.3-1.5 0-.8.2 1.2.3 1.3.4.8.1-.3.2-.2.1.3 0 .6 0 .8.4 1.6.2.4.5.8.6.7l.4-.8.4-.8-.3-1.6a18 18 0 0 0-.3-2.2l.3.6a1485 1485 0 0 1 .5 2.6l.6-1.3.5-1.3s-.2 1-.7 2.2c-.7 2.1-.8 2.6-.4 2l.5-.4c.1 0 0 .2-.5.7-.5.4-1 1.4-1.6 2.3l-.8 1.5.1 1.7a134.6 134.6 0 0 1 .3 3.7 25.9 25.9 0 0 0 5-5.5c.3-.5.8-5.1.6-6.2-.1-1.2-.1-1.2-1.2-2.2l-.9-.9.8.7c.4.3.8.6 1 .6.1 0-.1-1-.5-1.8s-.4-1 0-.2l.4.6.1-.7.2-.6-.1.8c0 .8.3 3 .5 3l.5-1.8.5-1.8-.2 1.6a11 11 0 0 0-.2 1.6c0 .1.4 0 .7-.3.6-.3.8-.6 1.4-1.7l.8-1.3-.5 1.2-.6 1.1 1-.6c1.2-.8 1-.5-.8.7-2.3 1.7-2.3 1.6-2.4 3.4V17l.8-.6c.6-.5 1-1 1.3-1.8.6-1.2.8-1.3.3-.2-.4.9-.4 1 .2.5.6-.5.8-.5.3 0a17.2 17.2 0 0 0-3 3v1.4l1.8-1.2 2-1.5.6-1.6.4-1.3-.2 1.2a15 15 0 0 0-.4 1.3c0 .3.6-.3 1.2-1.2l.8-1-.5.8-.5 1a45.8 45.8 0 0 0 2.3-1l-2 1.2 1.4-.2H40l-1.8.3c-1.7.3-1.8.3-2.7 1l-.9.8h1.6l-1.2.2c-.8 0-1 .2-3.3 2l-1.1 1.4-.8 1.2h1.8l.6-1a16.5 16.5 0 0 0 1.1-1.2v.3l1-.5.7-.4s0 .2.2.2l-.2.1c-.6 0-1.3.6-2.2 1.5l-.8.8h1.5l1.4-.2-1.4.3c-1.4.3-1.4.4-.2.8l.4.2s-.5 0-1-.3c-1-.3-1-.3-2.3-.1-.7.1-1.3.3-1.5.5a2897 2897 0 0 0-2.7 2.7c-.2.1.2.3 2.3.8l2.2.6 1.2-.4a14 14 0 0 0 1.3-.4l3.4-3.5.9-2c.6-1.8 1-2.3.4-1l-.1.9.7-.4.6-.4-.7.6c-.7.5-1.3 1.4-1.2 1.8 0 0 1-.3 2.2-.9a18 18 0 0 1 2-.7c-.6.2-2.4 1.2-2.3 1.2l.7.2h-.3c-1.4 0-2.2.4-3.9 2.4l-1.4 1.6.5.1c.4 0 .8-.2 1.8-1a19.9 19.9 0 0 0 1.7-1.6s0 .2-.3.4l-.5.5h.4c.3.1.2.1-.1.2-.4 0-.7.2-1.2.7l-.7.8h1.8a6 6 0 0 0 2.8-.4c1.2-.5 1.4-.5.1 0l-.9.5h.8c.5.2 0 .2-2.4.3-3.4 0-4.8.2-5.7.7l-.6.3 1 .5 1.8.6c1 .1 2.8-.3 3.7-1 .5-.2.6-.3.4 0l-.4.2-.1.2c0 .1.5.2 1.8 0h1.8l-2.2.3c-2 .1-3.2.4-3.2.6l1 .5c1.1.4 1.3.4 3.3.1.3 0 .1 0-.4.2l-1 .4s.4.2 2.9.7c1.2.3.8.3-.7 0a23 23 0 0 0-1.3-.2c-.3 0 1 1.5 1.5 1.6.2 0 .3.1.1 0-.3 0-.4 0 .4 1l-1.2-1.2c-1.3-1.5-1.3-1.5-2.6-1.9-1.3-.4-1.5-.4-1.1 0l-.4-.3c-.6-.4-1.6-.8-2.2-.7-.3 0-.3.1.6 1.1.9 1 1.3 1.2 2.6 1.9 1.7.9 1.9 1 .2.3l-1-.4s.6.9 1.5 1.8a28.2 28.2 0 0 1 .6 1l-.9-.9.3 1 .2 1-.4-1.2-.4-1.2-2.3-2.3a13.4 13.4 0 0 0-2.9-2.5c-.7-.3-.7-.2-.4.5.4.8 1 1.4 1.5 1.7.5.2.5.3.2.2l-.4-.1.6.8c.5.7.6.7.2.4l-.5-.5c0-.2-1.1-1.4-1.2-1.4l-.1.8-.2.6v-.8c.1-.7 0-.9-.4-1.8l-1-1.2c-.4-.2-5-1.2-5.2-1.1l.5 2a12.5 12.5 0 0 0 2.8 4.9 52.7 52.7 0 0 0 6.6 1.5h-1.6c-.3-.1-.4-.1-.4.2 0 .7.4 1 1.7 1.7l1.3.7-1.3-.5-1.3-.4c0 .4.7 2.2.9 2.3a28.7 28.7 0 0 1 1 1.1c-1.2-1-1.3-1-1 .1.1.4.2.6.1.7l-.4-1.5A40 40 0 0 0 33 36l-3.3-.6c-.3 0-.3 0 .1.7l.7 1.2c.4.5 1 1 1.9 1.2l.5.3.1.5c.2.2.2.5.2.5l-.3-.4c-.2-.5-.4-.6-1-.9l-.7-.2 1.3 2.5a2156 2156 0 0 1-.1.2l-1.6-2.4-.5 3.2.5.9a15 15 0 0 1 1.4 2.3l-1-1.3c-1.1-1.7-1.3-1.7-.8-.1l.3.8s-.2-.1-.2-.4l-.3-.5-.3 1.2-.2 1zm-4.1-27.5.5-.8-.4-1c-.4-1-1.4-2.5-1.8-2.5-.2 0 0 2.4.2 3.3l.9 2 .6-1zm-6.3 26.6v-.1.3-.2zm8-1.8c0-.2 0-.2 0 0 .1 0 .1.2 0 .2V43zm-1.2-6.5c0-.2.2-.4.2-.3l-.1.3c-.3.3-.3.3-.1 0zm17.1-4.6h.3-.3zm-6-.5c0-.2 0-.2.2 0 .2.1.3.2.1.2 0 0-.2 0-.2-.2zM8.5 28.9h.3-.2c-.2 0-.2 0 0 0zm11.8-.2h.2-.2c-.1 0-.1 0 0 0zm-4-1.1c0-.2 0-.2.1-.1v.3-.2zm25.2-.3h.4-.4zm-29.6-2.7c-.3-.1 0-.2.3 0 .2.1.2.1.1.2l-.4-.2z" style="fill:#000;stroke-width:.538646"/><path d="M22.6 99.6s4.5-2 8.2-3.4c.5-.2.7-.5 1.2-1.3l.4-1.1a49.8 49.8 0 0 0-6 1.8l-.2.5v-.5c.2-.4.2-.4-.7-.2l-.9.2 2-.7 4.1-1.3L33 93l1-1.9.9-1.8h-1.6l-.8.8c-.6.6-.9 1-1 1.8-.4 1-.6 1.2-.3.1l.2-.7-1.5.7-1.5.8 1.2-.9c2-1.3 2-1.3 2.6-2l.5-.6h-1.4c-1.4 0-1.5 0-2.8.7l-1.5.7 1.2-.7 1.1-.7h-1c-1.8.1-1.3 0 .6-.2 1.8 0 2-.1 1.8-.3a9.9 9.9 0 0 1-1.5-1.2l1 .7 1.1.7 2-.2 1.9-.2 1.7-1.9 1.8-2c-.1-.2-2.7-.7-3.4-.8-.6 0-1.4.6-2.2 1.7l-.3.3c.3-.6.2-.7-.4-.3-.3.2-.4.3-.4.1l.9-.7 1.2-.8.4-.5-1.1-.2h-2.6c-1.5.3-1.6.3-3.2 1.3s-1.6 1-2.3 2.3a71.7 71.7 0 0 0-3 5.5l.7-2-1.5 1c-1.8 1.4-2.3 1.6-.6.2 1.9-1.5 1.9-1.4 0-1.3-2 0-2 0 .3-.2l1.9-.4 1-2c.8-1.3 1-1.7.7-1.7l-3.5 1c-3.6 1.2-3.7 1-.3-.1l2.4-1-2-.5c-.5.2-2.6 1.2-2.4 1 .4-.3.4-.3-.4-.6-.6-.1-.5-.2.2 0 .9.1 1.1.1 1.7-.2l.8-.4-1-.3c-.9-.3-.9-.3-.1-.1l2 .4c2 .4 2.4.4 3.5-.2 1.2-.7 2.3-1.5 2.2-1.6l-2.6-.8c-2.3-.6-2.8-.6-5.6-.6h-3.2l3-.2c1.7 0 3.1-.2 3.1-.2l-.8-.6c-.9-.5-1.1-.6-2.1-.6h-1 .9c.8-.1.9-.3.3-.5l-2-1.1 1.2.4c.9.4 1 .5 1 .2s0-.2.4.2c.8 1 2.6 1.9 5.7 2.6 2.4.6 3 .6 4 .4.6 0 1.2-.2 1.2-.3l-2.1-2.8c-.6-.5-1.1-.5-2.4.1l-.9.5.8-.5.7-.5h-.7a48.7 48.7 0 0 0-.6 0c.6-.2.6-.2.2-.4h.4c.8.2 1.6.2 1.8 0 .2 0-.6-.7-1.9-1.5a6.3 6.3 0 0 0-3-1c-1.6-.2-1.7-.2-2.6.3-1 .4-1 .4-.3 0 .4-.2.7-.5.7-.6h-.2l-1-.1-.7-.2h.7l1.5.2c1 0 1 0 0-.8l-.5-.6 1 .7c.6.5 1 .7 1.6.8 1.2.2 1.3.1.4-1.2-.9-1.4-.6-1.3.4.2.8 1 1 1.3 2 1.9l1.4.5c.1 0 0-.9-.3-1.7 0-.2 0-.2.2.2l.4.5.3-.4c.2-.5.2-.5 0 .1-.5 1.3-.5 1.4 1.9 4l2.1 2.3 2.6.4c1.6.2 2.5.3 2.5.1-.2-.4-1.4-1-2.4-1.3-.4-.2-.7-.3-.5-.3.2 0 .2 0-.5-.7l.5.2c.7.5.7.5.6 0-.1-.2 0-.2.2.2s1 .9 1.3.8c0 0 0-.6-.2-1.1-.4-1.4-.2-1.3.2.1a4 4 0 0 0 1 1.8c.6.7 1.2 1 1.3.5.2-.4-.3-3-.8-5-.5-1.7-.5-1.7-1.3-2.4-1-1-1.1-1-1.6-.3-.6.7-.8.7-.3 0l.4-.6-.5.1h-.6l.6-.2c.9 0 .8-.1-.1-.8-.6-.4-1.2-.6-3.6-1a117.6 117.6 0 0 0-5.1-.8h1.3c.1 0-.5-1-1-1.4l-1-.2H25l.8-.1h.8l-.2-.4-.5-.4c-.2-.2-.2-.3-.1-.3a82.2 82.2 0 0 0 2.5 2.8h1.5l-.2-.9c-.3-.7-.5-1-1-1.2l-.6-.3.5.1.6.1-.2-1c-.2-1 0-.7.4.7l.7 1.9.5.8 1.9.2 2 .1-.5-1.2-.5-1.2-2-1.4a28 28 0 0 1-2.2-1.5l1.9 1c1 .7 1.9 1.2 2 1.1l-2-3.5-1.8-3.4L31 65c1.5 2.4 1.5 2.5 1.6 2v-2.4c.1 0 .2.8.2 1.7 0 1.6 0 1.6 1 3.6l1 2 .2-.6.2-1 .1-.5c.2.1.3 0 .5-.2.4-.6.3-.3 0 .3-.3.4-.5 1.1-.6 1.7l-.2 1.2 1.5 1.1L38 75c.3-.1 1-3 1-4 0-1.3-.8-2.7-2.4-4.2-1.6-1.6-1.7-1.7-.5-.8l1.2.9-.5-2.1a11 11 0 0 1-.3-2l.2.6c.1.4.2.6.4.6.1 0 .1.1 0 .2-.3.3.6 3.1 1.2 3.9l.5.6.4-1.9c.3-1.6.3-2 0-2.8-.3-.9-.3-1 0-.3l.4.6.3-1.2.3-1.3-.2 1.9c-.7 4.6-.8 5.6-.7 6.3l.3.7a13 13 0 0 0 1.7-2.6c.1-.2 0-.9-.1-1.4-.1-.5-.2-1 0-1.1 0-.2.1-.2 0 0 0 .4.4 2 .6 2l.5-.6c.3-.4.4-.8.3-1.4-.3-3.1-.3-3.9-.2-3.7l.4-.9c.2-.6.3-1 .3-.7l-.3 1.3a5 5 0 0 0-.1 2.5c.2 1.8.2 2 .4 1.7.2-.4 1.5-2.2 1.5-2l-2.5 4-2.4 3.9-.5 2.2c-.4 1.8-.4 2.3-.2 3a35 35 0 0 1 1.2 3.6l.2-1 .4-1.3v1l-.3 1.3c0 .1.7-.2.9-.5.1-.2.4-.4.6-.4.4-.1.3 0-.4.5l-1 .8c-.2.2-.2 2 0 2.3 0 0 .9-.3 2.1-1l2.1-1.2.5-2.4.5-2.4-.5-1.6-.5-1.6-1-.7c-1.6-1.1-1.7-1.3-.4-.5l1.2.6-.3-1.6c-.2-.7-.3-1.4-.2-1.5.1-.2.1 0 .2.4 0 .6.6 2.6.7 2.6l.5-1c1-2.6 1-2.7.7-1.6l-.3 1.1.4-.3c.4-.3.4-.3 0 .2-1 1.3-1.1 2.5-.5 4 .4.9.5.9 1.2 0 .4-.5.9-1.6 1.4-3.4.5-1.5.9-2.4.9-2.1l-.2.6c-.1 0-1 3.3-.8 3.3l1-1 1-1.1-2 2.7-2 2.7-.2 2c-.2 1-.3 1.8-.2 2 .1.1.8-.4 2.1-1.7 1.3-1.4 1.4-1.5 2.7-4.5l1.4-3.2.3-2.8c.4-4 .5-3.7.2.5v1.1l.9-1.3c1.8-3 2.5-3.7 1-1l-1 1.4 2-1 2-.9-2.1 1.2c-2.3 1.3-2.2 1.2-3 3.3-.3.7-.3.8 0 .8.7-.1 2-1 2.5-1.6l.5-.5-.4.6-.3.5.4-.1c.3 0-.4.3-1.4.8l-2 1-.6 1.8-.6 1.8 1.1-.5c2.4-1 3.8-2 5.2-3.1l1.4-1.2-1 1-1 1.1 1.7-.2a8 8 0 0 1 1.6-.3l-2 .5a9 9 0 0 0-3 1.1c-1 .7-1 .7-1.3 1.6l-.2 1 .6-.5c1-.8 1.4-1 .7-.4-1 1-1 1-.5 1 .4-.1.3 0-.3.2-.7.3-.9.4-1.4 1.3-.4.5-.6 1-.5 1h2.1l1.7-1.2a21.5 21.5 0 0 0 2-1.5l-.4.6a1779.3 1779.3 0 0 1-2.5 2l1.7-.1 1.7-.2-2.8.5c-2.5.4-3 .6-2.3.7l.7.2c.2.2-.2 0-1-.1-.7-.2-2-.4-3.3-.4h-2l-1.8 1a161.3 161.3 0 0 1-3.8 2.3 31 31 0 0 0 8.6 2.4c.7 0 5.9-2 7-2.8 1.2-.8 1.2-.8 1.6-2.6l.5-1.4L59 81l-.3 1.2c.1.3 1.1-.6 1.7-1.3.6-1 .8-1 .3-.1l-.5.6.8-.2.8-.2-1 .4c-.9.4-3 2-3 2.3l2.4-.5 2.1-.5-1.7.6-2 .7s.3.4.8.6c.7.4 1.2.5 2.6.5l1.8.1-1.5.1H61l1.1.8c1.6.9 1 .7-1.2-.4-3-1.6-3-1.6-4.9-.7l-1.8.8c0 .1.4.4 1 .6 1 .3 1.7.5 2.7.4 1.6 0 2 .1.4.2-1.1 0-1.1.1-.4.5.9.4 1 .5.2.2a17 17 0 0 0-4.9-1.3l-1 .3-.5.4 2.3 1.2 2.7 1.3 2-.3 1.6-.2-1.4.4-1.6.4c-.3.1.7.4 2 .5l1.6.3h-2.5a54.9 54.9 0 0 0 2.4 1.9L58.3 91l.9 1.4.9 1.4-1.4-1.7c-1.2-1.7-1.3-1.7-2.5-2.3l-1.4-.5.5 1c.5.7.6 1 .3.7-.2-.2-.6-.7-.8-1.2-.5-.8-.7-1-4-2.4l-2-.4H47l.5 1 .5.8 1.3.3a19.8 19.8 0 0 0 2 .4c-.3 0-.4.1-.4.2l1.1.7 1 .6c-.2 0-.3.2-.3.3 0 .2 0 .2-.1 0-.4-.7-1.4-1.2-2.8-1.6l-1.3-.4.8 1.5 1 1.5-1.1-1.3c-1.1-1.4-1.2-1.4-1 0v.7l-.2-1.3c-.2-1.2-.3-1.3-1.2-2.4-.5-.8-1-1.2-1.3-1.3A3468.3 3468.3 0 0 0 41 85c-.2 0-.2.4.4 3l.7 2.6 1 1c.6.7 1 1.2 1.2 1.2l5.5 1.7c.3 0 1.5 0 2.7-.2 2.2-.3 3-.3 1.2 0l-1 .3.9.5.7.5-1-.4c-1-.6-2.3-.7-2.6-.3l2.1 1.8a21.7 21.7 0 0 1 2 1.7l-2.6-1.7.1.8c.2.6.2.6-.2-.3-.7-1.5-1.6-2-4.6-2.8l-2.5-.6.2.6c.2.4.6.7 2 1.3a23.8 23.8 0 0 0 2.6 1l-.6-.2-.7-.2.1.4c.1.4 0 .4-.2 0s-.5-.6-1.4-.9l-1.3-.3 1 2a9 9 0 0 0 2 2.6c1.3 1.1 1.3 1.3 0 .3l-.9-.8.3.9c.2.6-.1 0-1.5-2.4-2-3.6-2.9-5-3.9-5.7l-.6-.4v1.3c0 .8.1 1.8.3 2.2a8.6 8.6 0 0 0 3 3.5c.6.3.7.4.4.3-.3 0-.5-.2-.6-.3H45c-.1.1.1.6 1 2l1 2-1.5-2.3c-1.2-2-2.2-3.2-2.4-3V99c.2 1.4.2 1.5 1.7 3.6l-.4-.4c-.5-.5-.9-.9-1-.8 0 0 0 .5.9 3.4.3 1.5 0 1-.5-.7l-.4-1.4c-.2-.3-1 1.9-.9 2.4v.2c-.2-.5-.1-.5-.7.8-.2.3 0-.5.5-1.8.8-2.3.9-2.3.6-3.9-.2-1.5-.3-1.8-.6-1.2v-.5A4 4 0 0 0 42 96c-.2-.4-.3-.4-.8 1.2a9 9 0 0 0-.6 3.8c0 2.3 0 2.5-.2.4 0-.8-.1-1.4-.2-1.4l-1 2.6a33.8 33.8 0 0 1-.7 1.3l.4-1.5-.9.8-.8.8c-.1 0 .3-.5 1-1l1-1.1 1.1-3.7c.9-2.6 1.2-3.8 1.1-4.5 0-1-.1-1-.7-.2-.7 1-1 1.9-1 2.6 0 .6 0 .7-.1.3l-.2-.5-.5 1c-.4 1-.4 1.1-.3.5 0-.4.2-.7.3-.8l.8-2-.9.2-.8.3 1-.4c.8-.4.9-.5 1.5-1.5.4-.7.8-1.4.8-1.7 0-.6-1.5-6.2-1.7-6.2 0 0-.9.7-1.8 1.7a15 15 0 0 0-3.7 5.6 63 63 0 0 0 2 8l-.7-2c-.2-.3-.2-.3-.5-.2-.8.5-1 1-1 2.8v1.8l-.1-1.7c0-1-.2-1.6-.3-1.6-.5.3-2 2-2 2.2a34.3 34.3 0 0 1-.7 1.7c.5-1.8.5-2-.6-1l-.6.5 1.3-1.3a48 48 0 0 0 3.9-4.1l-1.2-3.9c-.2-.3-.2-.3-.7.5l-.8 1.4a4 4 0 0 0-.3 2.7v.7c-.2 0-.4.2-.5.4l-.4.5s0-.3.3-.6c.3-.4.4-.8.3-1.5l-.1-.9-2 2.8a2594.4 2594.4 0 0 1-2 3 66 66 0 0 1 3.5-6c-.1 0-3.6 1-3.8 1.2l-.6 1a18 18 0 0 1-1.7 2.8l.9-1.8c1.1-2 1-2.4-.3-.9l-.8.8s0-.3.3-.5l.4-.6s-.7 0-1.4.4l-1.3.3zm26.9-19.5h1.1l1-1c.8-1 1.8-2.8 1.6-3.2 0-.2-2.6 1.4-3.4 2-.8.8-1.7 2-1.6 2l1.3.2zm-31.7 8c.2-.1.2 0 .1 0l-.3.2.2-.2zm6.3 7.5h.1c0 .2-.2.3-.3.2l.2-.2zm6.3-4.9.4.1c0 .1-.2.1-.4 0-.4 0-.4 0 0 0zm14.3 15.7.2.2-.2-.1v-.1zM42 99.8c.2-.2.2-.2.1.1 0 .4-.1.5-.2.3v-.4zM28.6 67.7l.1.2-.1-.1c-.1-.2-.1-.2 0-.1zM35.3 80l.2.3-.2-.1c-.1-.2-.1-.3 0-.2zm-1-4.8h.2c-.1.2-.3.2-.4.2l.2-.2zm14.2 26.6c.2.1.3.3.3.5l-.2-.2c-.1-.3-.2-.4 0-.3zM35 68.8c0-.3.2 0 .2.4 0 .3 0 .3-.1.2a1 1 0 0 1 0-.5z" style="fill:#000;stroke-width:.645367"/><path d="m8 127 5.3 2.6c.3.2.5.2 1.1 0 .4 0 .7-.1.7-.2a32.2 32.2 0 0 0-3.4-2.2l-.4.1.3-.1c.3-.2.3-.2-.2-.5l-.5-.4 1.2.7 2.4 1.5 1.3.8 1.3-.3 1.3-.3-.3-.4-.3-.4H17c-.5 0-.9 0-1.3.2-.7.3-.8.2-.2 0l.4-.3-1-.4-1-.5 1 .3 2 .4h.6l-.6-.7c-.5-.7-.6-.7-1.5-1l-1-.5.8.3.9.2-.5-.5c-.8-.8-.5-.6.4.3.8.8 1 1 .9.7v-1.3.9l.2.8.9.9.9.9h3.4l-1-2c-.3-.3-1-.4-1.8-.4h-.3c.4 0 .4-.2 0-.3-.2 0-.3-.1-.2-.2 0 0 .4 0 .7.2l1 .2h.3l-.4-.6a7 7 0 0 0-1-1.3c-.8-.6-.9-.6-2-1-1.2-.4-1.2-.4-2.1-.2a46.6 46.6 0 0 0-4 .8l1.3-.5-1.2-.3c-1.4-.2-1.7-.4-.4-.2 1.6.3 1.6.4.7-.5-1-1-.8-1 .2 0l1 .8 1.5-.3c1-.2 1.2-.3 1-.4a60.3 60.3 0 0 0-2-1.5l1.5.8-.6-1.3c-.3 0-1.7-.7-1.5-.7.3 0 .4 0 .1-.5-.1-.3 0-.3.2.2.2.4.4.5.8.7l.5.2-.3-.6c-.2-.5-.2-.5 0-.1l.7 1.2c.7 1.2.8 1.3 1.6 1.6.8.3 1.7.5 1.7.4l-.7-1.6c-.7-1.3-.9-1.6-2.1-3l-1.3-1.6 1.3 1.4 1.4 1.5v-.7c-.1-.7-.2-.8-.6-1.3l-.4-.5.4.4c.4.4.4.4.3 0l-.2-1.4.2.7c.2.6.2.7.4.6v.2c-.1.9.2 2.2 1.2 4 .7 1.4.9 1.7 1.4 2.1l.7.5.5-2.3c0-.4-.2-.7-1-1l-.7-.3.6.2h.6l-.4-.2a32.4 32.4 0 0 0-.2-.3h.3c0-.2 0-.1.1.1.3.5.6.8.8.9.1 0 0-.6 0-1.6a4 4 0 0 0-.8-1.9c-.6-.9-.7-1-1.3-1.2-.6-.2-.6-.2-.1 0h.5v-.1l-.3-.5-.3-.5.3.4.6.8c.3.5.4.4.4-.3v-.5l.1.7c0 .6 0 .9.3 1.2.4.7.5.6.8-.3.3-1 .3-.9 0 .3-.2.8-.2 1 0 1.8l.3.9.7-.9c0-.1.1-.1 0 .2l-.1.4h.3c.4-.1.4-.1 0 0-.9.3-1 .3-1.2 2.6l-.2 2 .9 1.5c.5.9 1 1.3 1 1.2 0-.2-.1-1-.4-1.7l-.1-.4c.1.2.1.1.2-.5v.4c.1.5.2.5.3.3.1-.2.1-.2 0 .1 0 .3 0 1 .2 1l.4-.6c.6-.8.6-.6 0 .2l-.4 1.2c0 .7 0 1 .3 1 .3-.2 1.4-1.6 2.1-2.6.6-1 .6-1 .7-1.7 0-.9 0-1-.6-1s-.6 0 0 0h.4l-.3-.3-.2-.3s.2 0 .3.2c.4.4.4.4.4-.4 0-.5-.2-.9-1-2.2a76.5 76.5 0 0 0-1.2-2.2l.2-1-.3-.6-.3-.4.3.3.4.4v-.3l.1-.4v-.2l.1.4a53.5 53.5 0 0 0-.3 2l.6.8.3-.5c.3-.4.3-.6.2-1v-.4.3l.3.3.4-.5c.4-.5.3-.3-.2.5a7 7 0 0 0-.6 1.1l-.2.6.7 1 .8 1 .4-.7.3-.7-.1-1.7-.2-1.6.3 1.3c0 .8.2 1.4.3 1.5l1-2.4.9-2.3-.6 1.8c-.5 1.8-.5 1.8-.3 1.7l.5-.5c.2-.2.8-.7.7-.5l-.8.8c-.7.6-.7.7-1.3 2l-.6 1.3.4-.1.6-.4c.2-.2.3-.2.3-.1l.3.1c.4 0 .3 0-.2.2l-1 .4-.7.4v1.2c0 .7.1 1.2.2 1.2.2.1 1.8-.8 2.3-1.2.7-.6 1-1.5 1.1-3 .1-1.4.1-1.5.2-.5v.9l1-1 .8-1.1-.3.4c-.1.2-.2.3-.1.4l-.1.1c-.3 0-1.3 1.6-1.4 2.2v.5l1-.5c1-.6 1.1-.7 1.4-1.3.3-.5.3-.5.2 0l-.2.4.7-.4.8-.4-1 .7c-2.6 1.6-3.1 2-3.4 2.4-.2.2-.3.3-.2.4l2-.3.6-.6.5-.5c.2 0 .2 0 0 0-.1.2-.8 1.1-.7 1.2h.5c.4 0 .6-.2.8-.5l1.8-1.7.6-.1.5-.2-.8.4a4 4 0 0 0-1.3 1c-.8.9-.9 1-.6 1l1.6-.2-3 .5-3 .4-1.3.7c-1 .6-1.3.8-1.5 1.2a22.8 22.8 0 0 1-1.3 2.1l.6-.3.8-.4-.5.4-.8.5.6.2.5.1c.2.2.1.2-.4 0l-.9-.1c-.1 0-1 .7-1.1 1l1.4.6 1.5.5 1.4-.7 1.4-.8.6-1 .5-.9v-.8c-.2-1.2-.1-1.3 0-.4 0 .5.2.8.3.8l.6-.7.6-.8c.2 0 .2 0 0 .3-.3.2-1 1.3-1 1.4l.7-.2c1.7-.5 1.7-.6 1-.2l-.6.2.3.1c.3 0 .3 0-.1.1-1 0-1.7.5-2.2 1.5-.3.5-.2.5.6.5a8 8 0 0 0 2.2-.7l1.4-.5-.4.2-2 1h1l1 .1-2.2.2-2.2.1-1 .7-1.1.8c0 .1.5.2 1.7.3 1.2 0 1.3 0 3.4-.5l2.1-.7 1.5-1c2.1-1.5 2-1.4-.1.3a3 3 0 0 0-.6.5l1-.2c2.3-.3 2.9-.3 1 0l-1.1.2 1.2.6 1.3.5-1.4-.5c-1.6-.6-1.5-.6-3 0-.4.1-.4.2-.3.3.4.3 1.3.6 1.8.5h.5l-.4.1h-.5l.3.3-1-.4-1.3-.6-1.2.5-1.1.5.7.3c1.5.7 2.5 1 3.7 1.2l1.2.2H35l.8.7c.5.3.9.6.8.7l-1-.8c-.8-.6-1.2-.8-1.8-1-.8-.3-.8-.3-1.4 0l-.6.3.5.1.6.2c-1-.1-1-.1-.8.1.2.2.2.2-.2 0s-.6-.2-1.2-.2c-.4 0-.8.2-.7.2l.4.6.5.5 1.2.3a14 14 0 0 0 1.7.4h-.5a1176.5 1176.5 0 0 1-2-.4l.7.8.8.8-1.4-1.2c-1.3-1-1.6-1.3-1.3-.8l.1.4c0 .2 0 0-.3-.5a8 8 0 0 0-1.2-1.8l-.8-1-1.3-.5a105 105 0 0 1-2.8-.9 20.1 20.1 0 0 0 2.5 5.2c.3.4 3.5 2 4.3 2.3 1 .3 1 .3 2-.2l.9-.4-.7.4a3 3 0 0 0-.7.4c-.1.2.7.3 1.3.3h.2l-.5.1.4.3.5.3-.6-.3c-.6-.3-2.3-.6-2.4-.5l1.2 1 1.2.8-1.1-.6-1.1-.6v.6c0 .5.2.7.8 1.5l.7.9-.7-.7-.6-.7.1.8c.2 1.2.1.9-.3-.7-.5-2.2-.5-2.1-1.7-2.8l-1.2-.5.1.8c.3.6.5 1 1 1.5.7.8.7 1 0 .2-.5-.5-.5-.5-.4 0 .2.6.2.7 0 .3-.6-1.7-1.2-2.8-1.4-3-.2-.2-.4-.4-.6-.4l-.4-.1.4 1.7.5 1.8 1 .9.8.7-.8-.5-.9-.6c-.2-.1 0 .5.6 1.2l.5.8-.5-.6a3 3 0 0 0-.5-.6 35.7 35.7 0 0 0 0 2l-.3-1.7-.3 1-.3 1 .2-1.3c.3-1.4.3-1.5 0-2.3 0-.5-.2-.9-.2-.9l-.3.7-.2.4c0-.2 0-.6.2-.9.2-.6.2-.7-.5-3a8 8 0 0 0-.7-1.2l-.6-.9-.2.6-.3.7.4.8a12.9 12.9 0 0 0 .7 1.1l-.3-.1.2.8v.7H25c0 .2 0 .1 0 0 .1-.5 0-1.2-.4-2l-.4-.9-.4 1-.3 1.1.2-1c.2-1.2.1-1.2-.5-.5l-.3.3.5-.7c.5-.6.5-.6.7-1.6.2-.6.2-1 .1-1.2A2153.2 2153.2 0 0 0 23 130l-1.2 1.5-1 1.4-.1 1v1l1.4 3.5 1.3 1.2c1 1 1.3 1.4.5.6l-.6-.3.1.6v.6l-.1-.7c-.2-.7-.7-1.4-1-1.4v1.8a14.1 14.1 0 0 1 0 1.7l-.3-2-.3.4c-.2.4-.2.3 0-.2.5-1 .4-1.7-.5-3.5l-.8-1.5-.2.4c-.1.3 0 .6.3 1.6a15.5 15.5 0 0 0 .6 1.6l-.2-.3-.2-.5-.2.2c-.1.2-.1.2 0 0 0-.3 0-.6-.2-1.1l-.4-.8-.5 1.3a4.7 4.7 0 0 0-.5 2.2c0 1-.1 1.1-.1 0v-.7l-.3.5c-.3.4-.1 0 .5-1.8 1-2.5 1.2-3.5 1.1-4.3v-.5l-.7.6-1 1c-.3.8-.5 2.2-.3 3v.4l-.1-.4-.1-.2c-.1 0-.3.4-.6 1.4a7 7 0 0 1-.5 1.3l.5-1.7c.4-1.5.6-2.4.4-2.5l-.6.6c-.7.7-.7.8-1 2.4-.1.2-.1 0 0-.4v-.8c-.1 0-.3.2-1.4 1.8-.6.8-.5.5.1-.5l.6-.8c0-.2-1.4.3-1.6.6-.1.1-.2.2 0 0 0-.2 0-.2-.8 0l1.1-.4c1.5-.6 1.5-.6 2.2-1.4.7-.8.7-1 .3-.8l.3-.2c.5-.3 1-1 1.2-1.4 0-.3 0-.3-1 .1s-1.2.6-2.1 1.3c-1.2 1-1.3 1.1-.3.1.4-.3.7-.6.6-.7l-1.8.6a22 22 0 0 1-.8.2c.5-.1 1-.3.9-.4h-.8l-.8-.2h1l1 .1 2.2-1c1.7-.7 2.4-1 2.7-1.3.4-.4.4-.5-.2-.5-.8 0-1.3.3-1.7.6-.3.3-.3.3-.2 0l.2-.2-.7.2c-.7.2-.8.2-.4 0 .2 0 .4-.2.5-.1.1 0 1.4-.4 1.3-.5l-.4-.3-.5-.3.6.2c.5.3.6.3 1.4.2.5 0 1-.2 1.2-.3a26 26 0 0 0 2.3-3.5l-1.6-.2a9.7 9.7 0 0 0-4.3.6 41 41 0 0 0-3 4.4l.5-1.2c.1-.2.1-.3 0-.4-.6-.2-1 0-1.9.8l-.8.7.7-.8c.5-.4.8-.8.7-.8-.3-.1-1.8-.2-2 0a22.3 22.3 0 0 1-1 .3c1-.5 1-.6.2-.7h-.5 1.1l3.7.2 1.5-2.3c0-.2 0-.2-.6 0l-1 .1c-.5.1-1 .4-1.5 1l-.3.3h-.8c0-.1.1-.2.4-.2.3 0 .5 0 .8-.4l.4-.5-2.2.2a1705.7 1705.7 0 0 1 0-.1l2.1-.5-2.2-1.3-.7.1-2.1.4 1.2-.3c1.6-.4 1.6-.5.3-.6h-.7.4l.5-.1-.8-.6a5 5 0 0 1-.7-.5zm21.1 5 .5.6h.9c.8 0 2.2-.2 2.3-.5 0-.1-1.8-.7-2.5-.8h-1.7l.5.7zm-17.4-12.2c.2 0 .2 0 0 0h-.1.1zm-1 6.3c.1 0 .1 0 0 0h-.2.2zm5 1c.2.1.2.3.2.3l-.2-.2c-.1-.3-.1-.3 0 0zm-1.6 13.7v.2c-.1 0-.1 0 0-.1 0-.2 0-.2 0 0zm2.1-4.1c.2 0 .2 0 0 .1s-.3.1-.2 0l.2-.1zm10.2-20.2v.2c-.1 0-.1 0 0-.2 0-.1 0-.1 0 0zm-3.3 8.5v.2-.1c0-.2 0-.2 0 0zm2-2.5c.1 0 .1 0 0 0H25h.2zM18 140.8l-.1.3c-.1 0 0 0 0-.2s.1-.2.1-.1zM28.5 120c.2 0 .2 0 0 .3-.2.1-.2.1-.2 0l.2-.3zm11-72.8 5.2 2.6c.3.2.5.2 1.2 0 .4 0 .7-.2.7-.2a32.2 32.2 0 0 0-3.4-2.2h-.4.3c.2-.2.2-.2-.3-.5l-.4-.4 1.2.7 2.4 1.5 1.3.8 1.3-.3 1.3-.3-.3-.4-.4-.4h-.7c-.6-.1-.9 0-1.3.2-.7.3-.8.2-.2 0l.4-.3-1-.4-1-.5 1 .3c1.4.4 1.4.4 2 .4h.6l-.6-.7c-.6-.7-.6-.7-1.6-1.1l-1-.4 1 .3.7.2-.4-.5c-.8-.8-.5-.6.4.3.8.8.9.9.9.7v-1.3.9l.1.8 1 .9.8.8h3.5l-1-1.9c-.3-.3-1-.4-1.8-.4h-.3c.4-.1.4-.2 0-.3-.3 0-.3-.1-.2-.2l.6.2 1 .2h.4l-.4-.6a7 7 0 0 0-1.1-1.3c-.8-.6-.8-.7-2-1-1.1-.4-1.1-.4-2-.2a46.6 46.6 0 0 0-4 .8l1.2-.5-1.1-.3c-1.5-.3-1.7-.4-.4-.2 1.6.3 1.5.3.7-.5-1-1-.8-1 .2 0l1 .8L46 43c1-.2 1.3-.3 1.1-.4a60.3 60.3 0 0 0-2-1.5l1.5.8-.6-1.3c-.3 0-1.7-.7-1.5-.7.3 0 .3 0 .1-.5l.1.2c.3.4.4.5.9.7l.5.2-.3-.6a60 60 0 0 1 .7 1c.6 1.3.8 1.4 1.5 1.7.9.3 1.7.5 1.8.4l-.7-1.6c-.7-1.4-1-1.6-2.2-3l-1.3-1.6 1.4 1.4 1.4 1.5V39c-.1-.7-.2-.8-.7-1.3l-.4-.5.5.4c.3.4.4.4.3 0l-.2-1.4.2.7c.2.6.2.7.3.6.1-.2.2-.1 0 .2 0 .9.3 2.1 1.2 4 .8 1.4 1 1.7 1.5 2.1l.7.5.5-2.3c0-.4-.2-.7-1-1l-.7-.3.6.1.5.2-.3-.3a32.4 32.4 0 0 0-.2-.4c.3.2.3.2.2 0l.2.2.7.9c.2 0 .2-.6 0-1.6a4 4 0 0 0-.8-1.9c-.5-.9-.6-1-1.2-1.2-.6-.2-.6-.2-.1-.1h.5l-.4-.5-.2-.5.3.4.5.8c.4.5.5.4.5-.3v-.6.8c0 .5.1.9.4 1.2.4.7.5.6.7-.3.4-1 .4-1 .1.3-.2.8-.2 1 0 1.8 0 .4.2.9.3.9l.7-.9v.2l-.2.4.4-.1c.3 0 .3 0 0 0-1 .4-1 .4-1.2 2.7l-.3 2 1 1.5c.5.9.9 1.3 1 1.2a5 5 0 0 0-.4-1.7l-.1-.4c.1.2.1.1.1-.5l.1.3c.1.6.1.6.3.4 0-.2 0-.2 0 0-.1.4 0 1 .2 1l.4-.5c.5-.8.6-.6 0 .2-.3.5-.4.7-.4 1.2-.1.6 0 1 .3 1 .2-.2 1.4-1.6 2-2.6.7-1 .7-1 .7-1.7 0-.9 0-1-.5-1h.4l-.2-.3-.2-.3.3.2c.4.4.4.4.3-.4 0-.5-.2-.9-1-2.2a76.5 76.5 0 0 0-1.2-2.2l.3-1-.3-.6-.4-.4s.2 0 .4.3l.4.3v-.6l.1-.2a53.5 53.5 0 0 0-.3 2.4l.6.8.4-.5c.2-.5.3-.6.2-1l-.1-.4.1.3.2.3.4-.5c.5-.5.4-.3-.1.5a7 7 0 0 0-.6 1.1l-.3.6.8 1 .7 1 .4-.7.4-.7-.2-1.7-.1-1.6.2 1.3.3 1.4 1-2.3 1-2.3-.6 1.8c-.6 1.8-.6 1.8-.3 1.7l.5-.5c.1-.2.8-.7.7-.5l-.8.7c-.8.7-.8.8-1.3 2l-.6 1.4.4-.1.6-.4c.1-.2.2-.2.3-.1l.3.1c.4 0 .2 0-.2.1-.3 0-.7.3-1 .5l-.7.4v1.2l.1 1.2c.2.1 1.9-.8 2.4-1.2.7-.6 1-1.5 1.1-3 0-1.4.1-1.5.2-.5v.9l.9-1 .8-1.1-.2.4-.2.4c.1 0 0 .1 0 .1-.3 0-1.3 1.6-1.4 2.2v.5l1-.6c1-.5 1-.6 1.4-1.2.3-.5.3-.5.1-.1l-.1.5.7-.4.8-.4-1 .7c-2.6 1.6-3.2 2-3.4 2.4l-.3.3c.2.1 1.8 0 2-.2.2 0 .5-.3.7-.6l.5-.5c.2 0 .2 0 0 0l-.7 1.1h.5c.3 0 .6-.1.8-.4 1.4-1.5 1.8-1.8 1.8-1.7l.6-.1.5-.2-.8.4a4 4 0 0 0-1.3 1c-.8.9-1 1-.7 1l1.7-.2-3 .5-3 .4-1.3.7c-1.1.6-1.3.8-1.5 1.2a22.8 22.8 0 0 1-1.4 2.1s.3 0 .6-.3l.9-.4s-.1.2-.6.4l-.7.5.6.2.5.1c.2.2 0 .2-.4 0l-.9-.1c-.2 0-1 .7-1.1 1l1.4.6 1.4.5 1.4-.8 1.5-.7.5-1 .6-.9v-.8c-.2-1.2-.2-1.3 0-.4 0 .5.2.8.2.8s.4-.3.6-.8l.7-.7c.2 0 .1 0 0 .2-.4.3-1.1 1.4-1 1.5l.7-.2 1-.3-.7.3.4.1H64c-1 .1-1.7.6-2.2 1.6-.3.5-.3.5.6.5a8 8 0 0 0 2.2-.7l1.4-.5-.4.2-2 1h2l-2.2.3-2.3.1-1 .7-1 .7c-.1.2.4.3 1.6.4 1.3 0 1.3 0 3.4-.6l2.2-.6 1.5-1c2-1.5 2-1.4-.2.3a3 3 0 0 0-.5.4h1c2.2-.5 2.9-.4.9 0l-1 .1 1.2.6 1.3.5-1.4-.5c-1.6-.6-1.5-.6-3 0-.4.1-.5.2-.3.3.3.3 1.3.6 1.8.5h.5l-.5.1h-.4l.3.3-1-.4-1.4-.6-1.1.5-1.2.5.8.3c1.5.7 2.5 1 3.7 1.2l1.2.2h-2l1 .7.7.6-1-.7c-.9-.6-1.2-.8-1.9-1-.8-.3-.8-.3-1.3 0l-.6.3.5.1c.9.2 1.1.3.5.2-1-.1-1-.1-.7.1.2.2.1.2-.2 0-.4-.2-.6-.3-1.3-.2-.4 0-.7.2-.7.2l.5.6.5.5 1.2.3a14 14 0 0 0 1.6.4h-.5a1176.5 1176.5 0 0 1-2-.4l.8.8.8.8-1.4-1.2c-1.3-1-1.6-1.3-1.3-.8l.1.4-.3-.5a8 8 0 0 0-1.2-1.8l-.9-1-1.2-.5a105 105 0 0 1-2.8-.9 20.1 20.1 0 0 0 2.5 5.2c.3.4 3.5 2 4.3 2.3.9.3 1 .3 2-.2l.9-.4-.8.4a3 3 0 0 0-.7.4c0 .2.8.3 1.4.3.7-.1.8 0 .2 0l-.5.1.4.3.4.3-.5-.3c-.6-.3-2.4-.7-2.4-.5l1.2 1 1.1.8-1-.6-1.2-.7v.7c.1.5.3.7.9 1.5l.7.9-.7-.7-.7-.7.2.8c.2 1.2 0 .9-.3-.7-.5-2.2-.5-2.1-1.8-2.8l-1.2-.5.2.8c.2.5.5 1 1 1.5.6.7.7 1 0 .2-.5-.5-.5-.5-.4 0 .2.6.2.7 0 .3-.6-1.7-1.2-2.8-1.4-3l-.7-.4-.3-.1.4 1.7.5 1.8c0 .1.4.5 1 .9l.7.7-.8-.5-.8-.6c-.2-.1 0 .4.5 1.2l.6.8s-.3-.2-.5-.6a3 3 0 0 0-.5-.6 35.7 35.7 0 0 0 0 2l-.3-1.7-.3 1-.3 1 .2-1.3c.3-1.4.3-1.5 0-2.3 0-.5-.2-.9-.3-.9l-.3.7c-.1.5-.2.6-.2.4l.3-.9c.2-.6.1-.8-.5-3a8 8 0 0 0-.7-1.2l-.6-.9-.3.6-.2.7.4.7a12.9 12.9 0 0 0 .6 1.2l-.2-.2.1 1v.6h-.1c-.1.1-.1.1 0 0 0-.5 0-1.2-.5-2.1l-.4-.8-.3 1-.4 1.1.2-1c.2-1.2.2-1.2-.4-.5l-.3.3.5-.7c.5-.6.5-.6.7-1.6.1-.6.2-1 0-1.2a2153.2 2153.2 0 0 0-1-2.8c-.1-.1-.3.1-1.3 1.5l-1 1.4-.2 1v1l1.5 3.5 1.2 1.2c1.1 1 1.4 1.4.5.6l-.5-.3v.6c.1.3.2.5.1.6l-.2-.7c-.1-.7-.6-1.4-1-1.4V61a14.1 14.1 0 0 1 0 1.7l-.2-2-.3.4c-.2.3-.2.3 0-.2.5-1 .4-1.7-.5-3.5l-.8-1.5-.2.4c-.1.3 0 .5.3 1.5a15.5 15.5 0 0 0 .5 1.7l-.2-.3-.1-.5-.2.2c-.1.2-.2.2 0 0 0-.3 0-.6-.3-1.2l-.3-.7-.5 1.3a4.7 4.7 0 0 0-.5 2.2c0 1-.1 1.1-.2 0v-.7l-.3.5.6-1.8c.9-2.5 1.2-3.5 1.1-4.3v-.5l-.7.6-1 1c-.3.8-.5 2.2-.4 3 .1.4.1.6 0 .4v-.4l-.2-.2-.6 1.4a7 7 0 0 1-.4 1.3l.4-1.7c.5-1.5.7-2.4.5-2.5l-.7.6c-.6.7-.6.7-1 2.3v-1.1s-.3.2-1.4 1.8c-.5.8-.4.5.2-.5l.5-.8c.1-.3-1.3.3-1.5.6-.1.1-.2.1-.1 0 .1-.2.1-.2-.7 0l1-.5c1.6-.5 1.6-.5 2.3-1.3.6-.8.7-1 .3-.8l.3-.2c.5-.3 1-1 1.1-1.4.1-.3 0-.3-1 .1-.9.4-1.2.6-2 1.3-1.2 1-1.3 1-.3.1.4-.3.6-.6.6-.7l-1.8.6a22 22 0 0 1-.8.2c.5-.2.9-.3.8-.4h-.8l-.7-.2h2l2.2-.9c1.7-.7 2.4-1 2.7-1.3.4-.5.4-.5-.2-.5-.8 0-1.4.3-1.7.6-.3.3-.3.3-.2 0l.2-.2-.8.2c-.6.2-.7.2-.3 0l.5-.2 1.3-.4-.5-.3-.4-.3.6.2c.5.3.6.3 1.4.2.5 0 1-.2 1.1-.4.4-.2 2.4-3.3 2.4-3.4l-1.6-.2a9.7 9.7 0 0 0-4.4.6 41 41 0 0 0-3 4.3l.6-1.1c.1-.2 0-.3-.1-.4-.6-.2-1 0-1.8.8l-.8.7.7-.8.7-.8c-.4-.1-1.8-.2-2 0a22.3 22.3 0 0 1-1 .3c1-.5 1-.6.1-.7h-.5H42l3.7.2 1.4-2.3c.1-.2.1-.2-.5 0l-1 .1c-.6 0-1 .4-1.5 1l-.4.3s-.2-.1-.4 0h-.4c0-.1.2-.2.5-.2s.5-.1.8-.4l.4-.5-2.2.2a1705.6 1705.6 0 0 1-.1-.1l2.2-.5-2.2-1.3-.7.1-2.1.3 1.2-.3c1.5-.3 1.6-.4.3-.5h-.7s.2-.1.4 0l.5-.1-.8-.6a5 5 0 0 1-.8-.5zm21 5 .5.6h1c.8 0 2.1-.3 2.2-.5 0-.1-1.8-.7-2.5-.8h-1.6l.5.7zM43.3 40c.1 0 .1 0 0 0H43h.2zm-1 6.3H42h.2zm5 1c.2.1.2.2.2.3 0 0-.2-.1-.2-.3-.2-.2-.1-.2 0 0zM45.7 61v.2c-.1 0-.1 0 0-.1 0-.2 0-.2 0 0zm2-4.1c.2 0 .2 0 0 0-.1.2-.2.2-.2 0h.3zM58 36.7l-.1.1v-.1c0-.1 0-.1 0 0zm-3.3 8.5v.2c-.1 0-.1 0 0-.2zm2-2.5s.1 0 0 0h-.2.2zM49.5 61l-.2.3v-.2c.1-.2.2-.3.2-.1zM60 40.3c.2-.1.1 0-.1.3h-.1l.2-.3z" style="fill:#000;stroke-width:.419814"/><path d="m50.4 137.7 3-6.8c.2-.4.2-.7 0-1.5a3 3 0 0 0-.3-1 41.6 41.6 0 0 0-2.6 4.6v.5l-.1-.4c-.2-.3-.2-.3-.6.3l-.4.6.8-1.5 1.7-3.1 1-1.8-.5-1.7-.5-1.6-.5.4-.4.5v1c0 .7 0 1 .3 1.6.5.9.4 1 0 .2l-.3-.5-.5 1.3-.5 1.3.3-1.2c.4-2 .4-2 .4-2.7v-.7l-1 .8c-.8.8-.8.9-1.3 2l-.4 1.3.3-1 .2-1.1-.6.6c-1 1-.8.6.3-.5l1-1.2-1.7.1 1-.2 1.1-.2 1-1.2 1.1-1.2v-2.2l-.1-2.2-2.5 1.5c-.3.3-.5 1.2-.4 2.2v.4c-.1-.5-.3-.5-.4 0 0 .4 0 .4-.2.3l.2-.8.2-1.3v-.5l-.7.5a6 6 0 0 0-1.6 1.6c-.8 1-.9 1-1.3 2.5s-.4 1.6-.1 2.7a59.8 59.8 0 0 0 1.3 5.1l-.7-1.6-.3 1.4c-.3 2-.5 2.3-.2.5.2-2 .3-2-.8-.8-1.2 1.3-1.2 1.1 0-.3.6-.6 1-1.2 1-1.3l-.4-1.8c-.4-1.2-.5-1.6-.7-1.4a77.3 77.3 0 0 0-1.8 2.7l1-2s-1.6.7-1.6.9l-.8 2c0-.5 0-.5-.7-.2-.4.2-.3.2.2-.2.6-.3.7-.5.9-1l.2-.7-.7.3c-.7.4-.7.4-.2 0l1.5-.9c1.5-.9 1.7-1 2-2 .4-1.1.6-2.3.5-2.3l-2 1a14 14 0 0 0-3.9 2.9l-1.9 1.8 1.8-1.9 1.7-1.9-.9.2c-.8.1-1 .2-1.5.8l-.7.6.5-.6c.5-.5.5-.6 0-.4l-1.8.4.9-.4c.8-.2.9-.3.7-.5h.3c1.1.1 2.7-.5 5-1.7 1.8-1 2.1-1.3 2.7-2l.6-1-3-.4c-.6 0-.9.3-1.3 1.4l-.3.8.2-.8.1-.7-.3.4a40.7 40.7 0 0 0-.5.4c.3-.5.3-.5 0-.4-.2 0-.1 0 .2-.2.6-.4 1-.8 1.1-1 0-.2-.8-.1-2 .1-1 .3-1.5.5-2.4 1.1-1.1.8-1.2.9-1.5 1.7l-.1.2v-.7h-.1l-.6.5-.6.3.5-.3c.2-.3.7-.6 1-.8.6-.5.5-.6-.5-.5h-.6c0-.1.4-.2 1-.2s1-.2 1.4-.4c.9-.7.8-.7-.4-1-1.4-.4-1.2-.4.4-.1 1 .2 1.3.2 2.3 0l1.1-.5-1.1-.9c-.2 0-.2-.1.2 0l.5.1-.1-.4c0-.4 0-.4.1 0 .4 1.2.5 1.2 3.4 1.4l2.6.2 1.8-1.2c1.1-.8 1.7-1.3 1.6-1.4-.3 0-1.5.2-2.2.5l-.5.2c.2-.1.1-.2-.6-.1l.4-.2c.6-.1.7-.2.4-.3-.3-.2-.2-.2.1 0 .4 0 1.2-.1 1.3-.3l-.8-.6c-1-.6-.8-.6.2 0 .7.3 1 .5 1.7.5.8 0 1.2-.1 1-.4 0-.4-1.9-1.7-3.3-2.6-1.3-.7-1.3-.8-2.1-.7-1.2 0-1.3 0-1.3.7v.2l-.2-.6-.2.3-.4.3c-.1 0 0-.2.3-.4.5-.5.4-.6-.6-.4-.6 0-1 .3-2.7 1.4a98.1 98.1 0 0 0-3.6 2.4l.8-.7c0-.1-.9-.3-1.4-.3l-.7.5a2 2 0 0 1-.5.4l.4-.5.5-.5h-.9c-.2 0-.3 0-.2-.2h.5a68.2 68.2 0 0 0 2.6.3l1-.8-.7-.5c-.6-.2-.8-.3-1.3-.1l-.6.1.4-.2.4-.3-.6-.5c-.7-.5-.4-.4.6.2.4.3 1 .6 1.5.7l.7.3 1.3-1 1.3-1-1-.5-1-.4-2 .3-2.2.3 1.8-.5c1-.1 1.7-.4 1.8-.4l-3-1.2-3.1-1 2.3.6c2.3.6 2.4.6 2.2.3l-.6-.6c-.3-.2-1-1-.7-1l1 1c1 1 1 1 2.6 1.7l1.8.6-.2-.4-.5-.8-.2-.3c.2 0 .2-.2.2-.4-.1-.6 0-.4.2.2 0 .3.3.9.6 1.3l.5.8 1.6-.1 1.6-.2a10 10 0 0 0-1.8-3c-.8-.8-2-1.2-3.8-1.2-1.9 0-2 0-.7-.2l1.1-.1-1.4-1-1.4-1.1s.3 0 .5.2c.3.3.5.3.6.2l.1.1c0 .4 2.2 1.6 3 1.7h.6l-.8-1.3c-.7-1.1-1-1.3-1.6-1.7-.7-.4-.7-.4-.2-.2l.6.1-.5-.8-.6-1 1 1.2c2.2 3.3 2.7 4 3.2 4.3l.5.3-.4-2.6a3 3 0 0 0-.9-.8c-.4-.2-.7-.5-.7-.7 0-.1 0-.1.2 0 .1.3 1.4 1 1.4 1v-.7c-.1-.5-.3-.7-.6-1-2-1.8-2.5-2.2-2.3-2.2 0 0 0-.3-.3-.8l-.2-.6.6 1c.2.5.6 1 1.4 1.6 1.1 1 1.3 1 1.2.8l-.3-2.1.8 3.9.7 3.7 1 1.6c.8 1.4 1 1.6 1.6 1.9a29.3 29.3 0 0 1 2.8 1.6l-.4-.8-.6-1c0-.2.2.1.5.6l.7 1s.3-.5.2-.9c0-.1 0-.4.2-.6.1-.2.2 0 0 .6l-.2 1c0 .3 1 1.4 1.3 1.5l.8-1.9.6-1.8-1-1.8L51 110l-1.2-.7-1.2-.6-1 .1c-1.6.2-1.7.2-.5 0l1-.4-1-.7c-.6-.4-1-.8-1-.9l.3.2c.4.3 1.8 1.2 2 1.1l-.4-1c-.8-2-.8-2-.4-1.2l.4.8.1-.4c0-.4 0-.4.1.1a3 3 0 0 0 2 2.7c.7.3.8.3.7-.7 0-.5-.4-1.4-1-2.9l-.8-1.7.3.4c0 .2 1.3 2.6 1.4 2.5v-2.4l.4 2.7.3 2.9 1 1.3c.4.7.9 1.3 1 1.3.2 0 .3-.6.3-2.2s0-1.7-1-4.3l-.9-2.7-1.4-1.9c-2-2.6-1.8-2.5.4.2l.7.7-.2-1.3c-.7-2.9-.7-3.7 0-1.2l.2 1.4.7-1.7.6-1.7-.6 1.9c-.6 2-.6 2 0 3.7.3.6.4.7.5.5.4-.5.7-1.7.7-2.4v-.6.6l.1.5.3-.3-.5 1.3-.6 1.7.7 1.4.6 1.5.4-1A15 15 0 0 0 56 102c0-.8.1-1.5.2-1.5v1.2a5 5 0 0 0 0 1.2l.9-1.1.8-1-.9 1.3c-.7 1.1-1 1.6-1.2 2.4-.3 1-.3 1 .1 1.8l.4.7.1-.6c.2-1.2.3-1.5.2-.7 0 1.2 0 1.2.2.9.2-.3.2-.2 0 .3-.3.5-.3.7-.1 1.5 0 .6.2 1 .3 1l.7-.7.5-.6.4-1.6a18 18 0 0 0 .4-2.1v.6a1486.6 1486.6 0 0 1-.4 2.6l1-1 1-1-1.4 1.8c-1.4 1.7-1.6 2.1-1 1.7l.5-.2c.2 0-.1.2-.6.5l-2.3 1.6-1.3 1.2-.4 1.6a134.5 134.5 0 0 1-1 3.6 26 26 0 0 0 6.5-3.5c.5-.4 2.5-4.6 2.7-5.7.3-1.1.2-1.2-.5-2.5l-.5-1 .6.8.6 1c.2 0 .3-1.1.2-1.9-.1-.9 0-1 .1-.2l.1.7.4-.6.3-.6-.3.8c-.4.7-.7 3-.5 3l1-1.5 1.1-1.6-.7 1.4a11 11 0 0 0-.7 1.5h.7c.7-.2 1-.4 2-1.2l1-1-.8 1-.9.8 1.1-.2c1.5-.3 1-.1-1 .4-2.7.8-2.6.8-3.3 2.4l-.7 1.6s.5 0 1-.3c.8-.3 1.3-.6 1.9-1.2 1-1 1.2-1 .3-.1-.6.6-.6.7 0 .5.8-.3 1-.3.3 0a16 16 0 0 0-3.7 2l-.5.8v.5l2-.6 2.4-.8 1-1.2c.5-.7 1-1.2 1-1.1l-.7 1-.7 1.1c-.1.3.6 0 1.5-.7a9 9 0 0 1 1-.8l-.7.7-.7.7a46.1 46.1 0 0 0 2.5-.2l-2.2.6 1.3.3 1.4.3-1.8-.2c-1.8-.3-1.8-.3-2.9 0l-1.1.5.9.4c.7.1.8.2.5.2l-1.1-.2c-.8-.3-1-.2-3.8.8-.2 0-1 .5-1.5 1l-1.2.8.8.2.9.3 1-.6a16.5 16.5 0 0 0 1.4-.8c-.2.1-.2.2-.2.3l1.1-.3h.9v.2c.2 0 .1.1-.1 0-.6-.1-1.5.1-2.6.7l-1 .5 1.4.4 1.4.4-1.4-.2c-1.5-.2-1.5-.1-.5.6l.3.4-.9-.6c-.8-.6-.8-.7-2-.8-.8-.2-1.4-.2-1.6 0a2824.9 2824.9 0 0 0-3.5 1.6c-.2 0 .1.3 2 1.5l1.9 1.3h2.6L64 119c.2-.2 1-.9 1.6-1.7 1.2-1.4 1.6-1.8.7-.6l-.4.6h.8l.7-.2-.9.3c-.8.2-1.7.9-1.7 1.3h2.4a18 18 0 0 1 2.1-.2c-.6 0-2.6.4-2.6.5l.6.4c.5.2.4.2-.3 0-1.2-.6-2.1-.4-4.4.9l-1.9 1 .5.3c.4.1.8 0 2-.5a19.9 19.9 0 0 0 2.1-.8l-.4.3-.6.2.3.2c.3.2.2.2-.1 0-.3 0-.7 0-1.4.4l-1 .5 1.8.6a6 6 0 0 0 2.8.5c1.3 0 1.4 0 .1.2h-1l.7.4-2.3-.6c-3.3-1-4.6-1.3-5.6-1.2H58l.8.9c.4.4 1 1 1.5 1.1a7 7 0 0 0 3.8.4c.5-.1.7-.1.4 0l-.5.1-.2.2c0 .1.5.3 1.8.6a9 9 0 0 1 1.7.6l-2.2-.5c-1.9-.5-3.1-.7-3.2-.5 0 0 .3.5.8.9.9.7 1 .8 3 1.1.3.1.1.1-.4 0h-1c-.1.2.3.4 2.4 1.7 1 .7.6.6-.7-.2l-1-.6c-.4 0 .4 1.7.8 2 .2.1.2.2 0 .1-.3-.2-.3-.2.1 1l-.7-1.5c-.8-1.8-.8-1.9-1.9-2.7-1-.8-1.2-.9-1-.4 0 .2 0 0-.3-.3a3.3 3.3 0 0 0-1.8-1.4c-.4 0-.3 0 .2 1.2s.8 1.6 1.8 2.6c1.4 1.5 1.4 1.6.1.4-.4-.5-.9-.8-.9-.7l.9 2.2a28.2 28.2 0 0 1 .3 1l-.6-1v1l-.1 1v-2.5l-1.4-2.9c-1-2-1.5-3-2-3.3-.5-.6-.6-.5-.5.3.1 1 .4 1.7.9 2.1.3.4.3.4 0 .2l-.3-.2.3 1c.3.8.3.9 0 .4l-.2-.6-.7-1.7-.4.6-.3.6.3-.7c.3-.7.3-.9.1-1.9-.1-.6-.3-1.2-.5-1.4a21 21 0 0 0-4.6-2.8v2a12.5 12.5 0 0 0 .9 5.6 52.7 52.7 0 0 0 5.8 3.6 18 18 0 0 1-1.6-.6c-.3-.2-.3-.2-.4 0-.3.8 0 1.2 1 2.3l1 1s-.5-.3-1-.9l-1.1-.8a7 7 0 0 0 0 2.5 28.7 28.7 0 0 1 .6 1.4c-.8-1.4-.9-1.4-1-.2v.6-1.5a40 40 0 0 0 0-4.7 26 26 0 0 0-3-1.7c-.2-.1-.2-.1 0 .7l.2 1.3c.2.6.6 1.3 1.4 1.8.2.2.4.4.3.5v1l-.1-.5c0-.5-.2-.7-.6-1.1l-.7-.5.5 2.8a2139.3 2139.3 0 0 1-.2.2l-.7-2.8-1.6 2.8.2 1 .5 2.7-.4-1.6c-.5-2-.7-2-.7-.4v1l-.1-.6-.1-.6-.7 1.1-.6 1zm5.2-27.3.8-.6v-1.2c0-1-.6-2.8-1-2.9 0 0-.7 2.4-.8 3.3l.1 2 .9-.6zm-14.7 23c0-.2.1-.2.1 0v.2c-.1 0-.1 0 0-.2zm8.2 1c0-.2 0-.2 0 0v.2-.2zm1-6.6c.1-.2.3-.3.3-.2 0 0 0 .2-.3.3-.3.1-.3.1 0-.1zm17.7 1.3h.2c0 .1 0 .2-.2.1-.1 0-.2-.1 0-.1zm-5.5-2.4c0-.2 0-.2.2 0v.3l-.2-.3zm-26.5-12 .3.2h-.2c-.2 0-.2-.1 0-.1zm11.2 3.8h.2c0 .1 0 .1-.2 0-.1 0-.2 0 0 0zm-3.4-2.4c0-.2.1-.2.1 0v.2c-.1 0-.1 0 0-.2zm23.8 8 .5.2h-.3l-.2-.2zm-27-12.2c-.2-.3 0-.2.3 0 .2.2.2.2 0 .2a.8.8 0 0 1-.3-.2z" style="fill:#000;stroke-width:.538646"/></svg>