<?xml version="1.0" encoding="UTF-8" standalone="no"?>
<svg
   width="288"
   height="576"
   viewBox="0 0 76.2 152.4"
   version="1.1"
   id="svg5"
   sodipodi:docname="tree-stand.svg"
   inkscape:version="1.4.3 (0d15f750, 2025-12-25)"
   xmlns:inkscape="http://www.inkscape.org/namespaces/inkscape"
   xmlns:sodipodi="http://sodipodi.sourceforge.net/DTD/sodipodi-0.dtd"
   xmlns="http://www.w3.org/2000/svg"
   xmlns:svg="http://www.w3.org/2000/svg">
  <defs
     id="defs5" />
  <sodipodi:namedview
     id="namedview5"
     pagecolor="#ffffff"
     bordercolor="#000000"
     borderopacity="0.25"
     inkscape:showpageshadow="2"
     inkscape:pageopacity="0.0"
     inkscape:pagecheckerboard="0"
     inkscape:deskcolor="#d1d1d1"
     inkscape:zoom="0.57852505"
     inkscape:cx="304.22192"
     inkscape:cy="329.28565"
     inkscape:window-width="1596"
     inkscape:window-height="836"
     inkscape:window-x="66"
     inkscape:window-y="38"
     inkscape:window-maximized="0"
     inkscape:current-layer="svg5" />
  <g
     inkscape:groupmode="layer"
     id="layer7"
     inkscape:label="terrain">
    <path
       d="M14.8 2A12.6 12.8 0 0 0 2.2 15a12.6 12.8 0 0 0 2 7 11 11.3 0 0 0-3.7 8.3 11 11.3 0 0 0 7 10.5 11 11.3 0 0 0 11 10.8 11 11.3 0 0 0 10.2-6.7 11 11.3 0 0 0 .7.3 11 11.3 0 0 0 10 6.4 11 11.3 0 0 0 .5 0 8.8 8.6 9.4 0 0-.1 0 8.8 8.6 9.4 0 0-1.2.5 15 15.3 50 0 0-4.6 2.7 15 15.3 50 0 0-4.8 7.2 13.3 13.5 50 0 0-10.6 3 13.3 13.5 50 0 0-4.3 14.5A13.3 13.5 50 0 0 13 98a13.3 13.5 50 0 0 14 4.1 13.3 13.5 50 0 0 .2 1 13.3 13.5 50 0 0-.7 9.1 8.8 8.6 9.4 0 0-3-1 8.8 8.6 9.4 0 0-9 4 8.8 8.6 9.4 0 0-9.7 7.1 8.8 8.6 9.4 0 0 4 8.7 8.8 8.6 9.4 0 0-.5.5 8.8 8.6 9.4 0 0-6.1 6.8 8.8 8.6 9.4 0 0 7.2 10 8.8 8.6 9.4 0 0 6-1 8.8 8.6 9.4 0 0 5.3 3 8.8 8.6 9.4 0 0 8.8-3.8 10 9.8 9.4 0 0 9-6.2 11 11.3 0 0 0 5 1.3 11 11.3 0 0 0 10.2-6.7 11 11.3 0 0 0 .8.4 11 11.3 0 0 0 10 6.3 11 11.3 0 0 0 11-11.3 11 11.3 0 0 0-2.6-7.2 11 11.3 0 0 0 2.8-7.4 11 11.3 0 0 0-6.6-10.3 12.6 12.8 0 0 0-3-6 13.3 13.5 50 0 0-.2-6 15 15.3 50 0 0 0-19.2 15 15.3 50 0 0-7.4-4.8 15 15.3 50 0 0 .1-.3 8.8 8.6 9.4 0 0 2.3-2.4 10 9.8 9.4 0 0 9.5-8.2 10 9.8 9.4 0 0-.7-5.6 10 9.8 9.4 0 0 5-7 10 9.8 9.4 0 0-8.2-11.3 10 9.8 9.4 0 0-5.6.7 8.8 8.6 9.4 0 0-6-4 8.8 8.6 9.4 0 0-7 1.8 11 11.3 0 0 0 2.8-7.4A11 11.3 0 0 0 44 15.2 12.6 12.8 0 0 0 31.7 5a12.6 12.8 0 0 0-7 2.1 12.6 12.8 0 0 0-9.9-5Z"
       style="fill:#00ca00;fill-opacity:1;stroke-width:1.05833"
       id="path1" />
  </g>
  <g
     inkscape:groupmode="layer"
     id="layer6"
     inkscape:label="deco"
     style="display:inline">
    <path
       d="m 29.8,45.7 0.6,-7.4 c 0,-0.5 0,-0.7 -0.5,-1.4 a 3,3 0 0 0 -0.7,-0.8 41.5,41.5 0 0 0 -1,5.2 l 0.3,0.4 -0.3,-0.3 c -0.3,-0.2 -0.3,-0.2 -0.4,0.5 l -0.2,0.7 0.2,-1.7 0.7,-3.6 0.3,-2 -1,-1.3 -1,-1.4 -0.3,0.5 -0.3,0.6 0.2,1 c 0.3,0.6 0.5,1 1,1.4 0.7,0.7 0.7,0.8 0,0.2 l -0.5,-0.4 v 2.8 l -0.2,-1.2 c -0.2,-2 -0.2,-2 -0.5,-2.7 l -0.3,-0.6 -0.5,1 c -0.6,1 -0.6,1.1 -0.6,2.4 v 1.3 -1.1 l -0.2,-1.1 -0.3,0.8 c -0.7,1.3 -0.6,0.8 0,-0.6 0.7,-1.4 0.7,-1.6 0.5,-1.4 l -1.5,0.6 1,-0.5 0.9,-0.5 0.6,-1.5 0.6,-1.5 -0.7,-2 A 14,14 0 0 0 24.8,28 L 23,30.2 c -0.3,0.4 -0.1,1.3 0.3,2.2 0.2,0.4 0.3,0.6 0.1,0.4 -0.3,-0.5 -0.4,-0.4 -0.3,0.1 v 0.4 c -0.2,0 -0.2,-0.5 -0.3,-0.9 L 22.7,31.2 22.5,30.7 22,31.4 c -0.4,0.5 -0.8,1.3 -1,2 -0.5,1.2 -0.5,1.2 -0.4,2.8 0.2,1.6 0.2,1.6 0.8,2.6 a 59.8,59.8 0 0 0 3,4.4 l -1.4,-1.3 0.2,1.5 c 0.4,1.8 0.3,2.2 0,0.5 -0.5,-2 -0.4,-2 -1,-0.6 -0.8,1.7 -0.8,1.5 0,-0.2 l 0.4,-1.6 -1,-1.5 c -0.8,-1 -1,-1.3 -1,-1.1 a 77.3,77.3 0 0 0 -1,3 l 0.3,-2 c 0,-0.2 -1.2,1.1 -1.2,1.3 0,0.3 0,2.3 -0.1,2 0,-0.3 -0.2,-0.3 -0.6,0.2 -0.4,0.3 -0.3,0.2 0,-0.2 0.5,-0.6 0.5,-0.8 0.5,-1.4 V 41.1 L 18,41.7 a 77,77 0 0 1 1,-1.3 c 1,-1.3 1.1,-1.6 1.1,-2.6 a 6,6 0 0 0 -0.3,-2.3 l -1.6,1.6 a 13.5,13.5 0 0 0 -2.6,4 l -1.2,2.3 1,-2.3 1,-2.4 -0.8,0.4 c -0.7,0.4 -0.8,0.6 -1.2,1.4 l -0.4,0.7 0.3,-0.7 c 0.3,-0.6 0.2,-0.7 -0.2,-0.4 l -1.6,1 0.8,-0.7 c 0.6,-0.4 0.7,-0.6 0.5,-0.6 -0.2,-0.1 -0.1,-0.2 0.3,-0.2 1,-0.2 2.4,-1.3 4.1,-3.3 1.4,-1.5 1.6,-1.9 1.9,-2.7 l 0.2,-1 c 0,-0.1 -2.2,0.2 -2.9,0.4 -0.6,0.2 -0.8,0.6 -0.8,1.8 v 0.8 -0.7 l -0.2,-0.8 -0.2,0.6 a 40.7,40.7 0 0 0 -0.3,0.4 c 0,-0.5 0,-0.5 -0.2,-0.3 l 0.2,-0.3 c 0.4,-0.5 0.7,-1 0.7,-1.3 0,-0.2 -0.8,0.2 -1.8,0.8 -1,0.6 -1.3,0.9 -2,1.9 -0.7,1 -0.8,1.1 -0.8,2 v 0.2 c 0,-0.4 -0.2,-0.7 -0.2,-0.7 l -0.2,0.1 -0.4,0.7 -0.4,0.5 0.3,-0.5 0.7,-1.1 c 0.4,-0.7 0.3,-0.7 -0.6,-0.3 l -0.6,0.1 0.8,-0.4 c 0.7,-0.3 1,-0.5 1.3,-0.9 0.6,-0.8 0.5,-0.9 -0.7,-0.8 -1.5,0.1 -1.3,0 0.3,-0.2 1,-0.1 1.3,-0.2 2.1,-0.8 l 1,-0.8 -1.4,-0.4 0.2,-0.1 h 0.5 l -0.2,-0.4 c -0.2,-0.4 -0.2,-0.4 0.1,0 0.8,0.9 0.8,0.9 3.7,0.1 l 2.5,-0.6 1.3,-1.8 c 0.8,-1.1 1.2,-1.8 1,-1.8 -0.3,0 -1.3,0.6 -1.8,1.2 -0.3,0.3 -0.5,0.5 -0.4,0.3 0,-0.2 0,-0.2 -0.7,0.1 -0.2,0 0,0 0.3,-0.3 0.6,-0.3 0.6,-0.3 0.3,-0.4 -0.3,0 -0.3,0 0.1,-0.1 0.4,0 1.1,-0.4 1,-0.7 l -0.8,-0.2 c -1.2,-0.3 -1,-0.4 0.2,-0.2 0.8,0.2 1.1,0.2 1.7,0 0.8,-0.2 1.2,-0.5 1,-0.8 -0.3,-0.2 -2.5,-1 -4,-1.3 -1.6,-0.3 -1.6,-0.3 -2.4,0 -1,0.4 -1.1,0.5 -0.9,1.1 0.3,0.7 0.3,0.8 0,0.2 l -0.3,-0.5 -0.2,0.4 -0.2,0.4 0.1,-0.5 c 0.3,-0.6 0.2,-0.6 -0.7,-0.2 a 98.1,98.1 0 0 0 -4.7,5.7 l 0.6,-1 c 0,0 -1,0 -1.4,0.2 -0.2,0 -0.4,0.4 -0.5,0.7 A 2,2 0 0 1 9,32.7 L 9.2,32.1 9.5,31.5 H 9.2 c -0.2,0 -0.4,0 -0.5,0.2 H 8.4 l 0.5,-0.3 a 68.6,68.6 0 0 0 2.6,-0.5 l 0.6,-1 -0.8,-0.3 c -0.7,0 -0.9,0 -1.3,0.3 L 9.5,30.2 9.9,29.9 10.1,29.5 9.4,29.2 C 8.5,29 8.8,28.9 10,29.2 l 1.6,0.2 h 0.8 l 1,-1.4 0.8,-1.4 -1.1,-0.1 -1,-0.1 -2,1 -1.8,1 1.5,-1 1.5,-1 -3.2,-0.1 H 4.9 L 7.4,26.1 C 9.7,25.9 9.8,25.9 9.4,25.7 9.3,25.5 9,25.4 8.7,25.3 8.4,25.3 7.5,24.7 7.7,24.7 L 9,25.3 c 1.2,0.6 1.3,0.6 3,0.6 h 2 L 13.6,25.6 12.9,25 c -0.3,0 -0.4,-0.2 -0.3,-0.2 v -0.5 c -0.2,-0.5 0,-0.3 0.3,0.2 0.1,0.3 0.6,0.7 1,1 l 0.8,0.6 1.4,-0.6 1.4,-0.7 a 10,10 0 0 0 -2.6,-2.3 c -1,-0.5 -2.3,-0.5 -4,0.1 -1.8,0.6 -1.9,0.6 -0.8,0.1 l 1,-0.5 -1.6,-0.5 -1.7,-0.5 h 1.4 c 0.1,0.4 2.5,0.8 3.3,0.6 l 0.6,-0.1 -1.2,-1 c -1,-0.8 -1.3,-1 -2.1,-1 C 9,19.5 9,19.5 9.6,19.5 h 0.6 L 9.4,18.8 8.6,18.1 9.9,18.9 c 3.1,2.3 3.9,2.8 4.4,3 h 0.6 l -1.2,-2.3 a 3,3 0 0 0 -1.1,-0.4 c -0.5,0 -0.8,-0.3 -0.9,-0.4 0,-0.2 0,-0.2 0.1,0 0.2,0.1 1.7,0.5 1.7,0.3 L 13.2,18.5 C 13,18.1 12.8,17.9 12.3,17.7 L 9.5,16.5 9,15.8 8.6,15.3 9.4,16.1 c 0.4,0.4 1,0.7 1.9,1 1.4,0.6 1.6,0.6 1.4,0.3 -0.3,-0.3 -1.1,-2 -1,-1.8 l 2,3.4 2,3.2 1.4,1.2 c 1.2,1 1.5,1.3 2.1,1.3 a 29.3,29.3 0 0 1 3.2,0.6 l -0.6,-0.6 -0.9,-0.8 c -0.1,-0.1 0.2,0 0.7,0.5 l 1,0.6 -0.1,-0.8 v -0.6 l 0.1,0.5 0.2,1 c 0.1,0.3 1.4,1 1.7,1 l 0.1,-2 v -2 L 23,20.8 21.4,19.4 20,19.2 18.7,19 l -1,0.5 c -1.4,0.7 -1.6,0.7 -0.5,0 0.5,-0.2 0.9,-0.5 0.9,-0.6 l -1.3,-0.4 -1.2,-0.4 c 0,-0.2 0,-0.2 0.4,0 0.4,0.2 2.1,0.5 2.2,0.4 L 17.6,17.8 C 16.1,16 16.1,16 16.8,16.7 l 0.6,0.6 V 17 c -0.1,-0.4 -0.1,-0.4 0.1,0 0.6,1.3 1.4,1.9 2.8,2 0.8,0 0.8,0 0.4,-1 -0.2,-0.4 -0.8,-1.2 -2,-2.3 l -1.2,-1.4 0.4,0.3 c 0,0.2 2,2 2.2,2 l -0.4,-1.2 -0.4,-1.2 1.2,2.5 1.2,2.6 1.3,0.9 1.5,0.9 c 0.2,0 0,-0.7 -0.4,-2.2 -0.5,-1.5 -0.6,-1.6 -2.3,-3.8 L 20,12.8 18,11.5 c -2.7,-1.8 -2.6,-1.8 0.5,0 L 19.3,12 18.7,10.8 C 17.2,8.3 16.9,7.5 18.3,9.8 l 0.7,1 V 9.2 l 0.1,-1.8 v 2 c 0.1,2.1 0,2 1.4,3.5 0.4,0.4 0.5,0.5 0.5,0.3 0.2,-0.6 0.1,-1.9 -0.2,-2.5 l -0.2,-0.6 0.3,0.5 0.3,0.5 v -0.4 c 0.1,-0.2 0.2,0.5 0.1,1.4 v 1.8 l 1,1.2 1.2,1.1 v -1 a 15,15 0 0 0 -0.3,-5 L 23,8.6 l 0.4,1.1 0.4,1.2 0.5,-1.4 0.4,-1.2 -0.3,1.6 A 7.5,7.5 0 0 0 24,12.5 c 0,1.1 0,1.1 0.7,1.6 l 0.6,0.6 -0.1,-0.6 c -0.2,-1.2 -0.3,-1.5 0,-0.8 0.2,1.2 0.3,1.3 0.4,0.8 0.1,-0.3 0.2,-0.2 0.1,0.3 0,0.6 0,0.8 0.4,1.6 0.2,0.4 0.5,0.8 0.6,0.7 l 0.4,-0.8 0.4,-0.8 -0.3,-1.6 a 18,18 0 0 0 -0.3,-2.2 l 0.3,0.6 a 1485,1485 0 0 1 0.5,2.6 l 0.6,-1.3 0.5,-1.3 c 0,0 -0.2,1 -0.7,2.2 -0.7,2.1 -0.8,2.6 -0.4,2 l 0.5,-0.4 c 0.1,0 0,0.2 -0.5,0.7 -0.5,0.4 -1,1.4 -1.6,2.3 l -0.8,1.5 0.1,1.7 a 134.6,134.6 0 0 1 0.3,3.7 25.9,25.9 0 0 0 5,-5.5 C 31,19.6 31.5,15 31.3,13.9 31.2,12.7 31.2,12.7 30.1,11.7 l -0.9,-0.9 0.8,0.7 c 0.4,0.3 0.8,0.6 1,0.6 0.1,0 -0.1,-1 -0.5,-1.8 -0.4,-0.8 -0.4,-1 0,-0.2 l 0.4,0.6 0.1,-0.7 0.2,-0.6 -0.1,0.8 c 0,0.8 0.3,3 0.5,3 l 0.5,-1.8 0.5,-1.8 -0.2,1.6 a 11,11 0 0 0 -0.2,1.6 c 0,0.1 0.4,0 0.7,-0.3 0.6,-0.3 0.8,-0.6 1.4,-1.7 l 0.8,-1.3 -0.5,1.2 -0.6,1.1 1,-0.6 c 1.2,-0.8 1,-0.5 -0.8,0.7 -2.3,1.7 -2.3,1.6 -2.4,3.4 V 17 l 0.8,-0.6 c 0.6,-0.5 1,-1 1.3,-1.8 0.6,-1.2 0.8,-1.3 0.3,-0.2 -0.4,0.9 -0.4,1 0.2,0.5 0.6,-0.5 0.8,-0.5 0.3,0 a 17.2,17.2 0 0 0 -3,3 v 1.4 l 1.8,-1.2 2,-1.5 0.6,-1.6 0.4,-1.3 -0.2,1.2 a 15,15 0 0 0 -0.4,1.3 c 0,0.3 0.6,-0.3 1.2,-1.2 l 0.8,-1 -0.5,0.8 -0.5,1 a 45.8,45.8 0 0 0 2.3,-1 l -2,1.2 1.4,-0.2 H 40 l -1.8,0.3 c -1.7,0.3 -1.8,0.3 -2.7,1 l -0.9,0.8 h 1.6 L 35,18.1 c -0.8,0 -1,0.2 -3.3,2 l -1.1,1.4 -0.8,1.2 h 1.8 l 0.6,-1 a 16.5,16.5 0 0 0 1.1,-1.2 v 0.3 l 1,-0.5 0.7,-0.4 c 0,0 0,0.2 0.2,0.2 L 35,20.2 c -0.6,0 -1.3,0.6 -2.2,1.5 L 32,22.5 h 1.5 l 1.4,-0.2 -1.4,0.3 c -1.4,0.3 -1.4,0.4 -0.2,0.8 l 0.4,0.2 c 0,0 -0.5,0 -1,-0.3 -1,-0.3 -1,-0.3 -2.3,-0.1 -0.7,0.1 -1.3,0.3 -1.5,0.5 a 2897,2897 0 0 0 -2.7,2.7 c -0.2,0.1 0.2,0.3 2.3,0.8 l 2.2,0.6 1.2,-0.4 A 14,14 0 0 0 33.2,27 l 3.4,-3.5 0.9,-2 c 0.6,-1.8 1,-2.3 0.4,-1 l -0.1,0.9 0.7,-0.4 0.6,-0.4 -0.7,0.6 c -0.7,0.5 -1.3,1.4 -1.2,1.8 0,0 1,-0.3 2.2,-0.9 a 18,18 0 0 1 2,-0.7 c -0.6,0.2 -2.4,1.2 -2.3,1.2 l 0.7,0.2 h -0.3 c -1.4,0 -2.2,0.4 -3.9,2.4 l -1.4,1.6 0.5,0.1 c 0.4,0 0.8,-0.2 1.8,-1 a 19.9,19.9 0 0 0 1.7,-1.6 c 0,0 0,0.2 -0.3,0.4 l -0.5,0.5 h 0.4 c 0.3,0.1 0.2,0.1 -0.1,0.2 -0.4,0 -0.7,0.2 -1.2,0.7 l -0.7,0.8 h 1.8 a 6,6 0 0 0 2.8,-0.4 c 1.2,-0.5 1.4,-0.5 0.1,0 L 39.6,27 h 0.8 c 0.5,0.2 0,0.2 -2.4,0.3 -3.4,0 -4.8,0.2 -5.7,0.7 l -0.6,0.3 1,0.5 1.8,0.6 c 1,0.1 2.8,-0.3 3.7,-1 0.5,-0.2 0.6,-0.3 0.4,0 l -0.4,0.2 -0.1,0.2 c 0,0.1 0.5,0.2 1.8,0 h 1.8 l -2.2,0.3 c -2,0.1 -3.2,0.4 -3.2,0.6 l 1,0.5 c 1.1,0.4 1.3,0.4 3.3,0.1 0.3,0 0.1,0 -0.4,0.2 l -1,0.4 c 0,0 0.4,0.2 2.9,0.7 1.2,0.3 0.8,0.3 -0.7,0 a 23,23 0 0 0 -1.3,-0.2 c -0.3,0 1,1.5 1.5,1.6 0.2,0 0.3,0.1 0.1,0 -0.3,0 -0.4,0 0.4,1 l -1.2,-1.2 c -1.3,-1.5 -1.3,-1.5 -2.6,-1.9 -1.3,-0.4 -1.5,-0.4 -1.1,0 l -0.4,-0.3 c -0.6,-0.4 -1.6,-0.8 -2.2,-0.7 -0.3,0 -0.3,0.1 0.6,1.1 0.9,1 1.3,1.2 2.6,1.9 1.7,0.9 1.9,1 0.2,0.3 l -1,-0.4 c 0,0 0.6,0.9 1.5,1.8 a 28.2,28.2 0 0 1 0.6,1 l -0.9,-0.9 0.3,1 0.2,1 L 38.3,35.5 37.9,34.3 35.6,32 A 13.4,13.4 0 0 0 32.7,29.5 C 32,29.2 32,29.3 32.3,30 c 0.4,0.8 1,1.4 1.5,1.7 0.5,0.2 0.5,0.3 0.2,0.2 l -0.4,-0.1 0.6,0.8 c 0.5,0.7 0.6,0.7 0.2,0.4 l -0.5,-0.5 c 0,-0.2 -1.1,-1.4 -1.2,-1.4 l -0.1,0.8 -0.2,0.6 v -0.8 c 0.1,-0.7 0,-0.9 -0.4,-1.8 l -1,-1.2 c -0.4,-0.2 -5,-1.2 -5.2,-1.1 l 0.5,2 a 12.5,12.5 0 0 0 2.8,4.9 52.7,52.7 0 0 0 6.6,1.5 h -1.6 c -0.3,-0.1 -0.4,-0.1 -0.4,0.2 0,0.7 0.4,1 1.7,1.7 l 1.3,0.7 -1.3,-0.5 -1.3,-0.4 c 0,0.4 0.7,2.2 0.9,2.3 a 28.7,28.7 0 0 1 1,1.1 c -1.2,-1 -1.3,-1 -1,0.1 0.1,0.4 0.2,0.6 0.1,0.7 L 34.7,40.4 A 40,40 0 0 0 33,36 l -3.3,-0.6 c -0.3,0 -0.3,0 0.1,0.7 l 0.7,1.2 c 0.4,0.5 1,1 1.9,1.2 l 0.5,0.3 0.1,0.5 c 0.2,0.2 0.2,0.5 0.2,0.5 l -0.3,-0.4 c -0.2,-0.5 -0.4,-0.6 -1,-0.9 l -0.7,-0.2 1.3,2.5 A 2156,2156 0 0 1 32.4,41 l -1.6,-2.4 -0.5,3.2 0.5,0.9 a 15,15 0 0 1 1.4,2.3 l -1,-1.3 C 30.1,42 29.9,42 30.4,43.6 l 0.3,0.8 c 0,0 -0.2,-0.1 -0.2,-0.4 l -0.3,-0.5 -0.3,1.2 -0.2,1 z m -4.1,-27.5 0.5,-0.8 -0.4,-1 c -0.4,-1 -1.4,-2.5 -1.8,-2.5 -0.2,0 0,2.4 0.2,3.3 l 0.9,2 z M 19.4,44.8 V 44.7 45 Z m 8,-1.8 c 0,-0.2 0,-0.2 0,0 0.1,0 0.1,0.2 0,0.2 z m -1.2,-6.5 c 0,-0.2 0.2,-0.4 0.2,-0.3 l -0.1,0.3 c -0.3,0.3 -0.3,0.3 -0.1,0 z m 17.1,-4.6 h 0.3 z m -6,-0.5 c 0,-0.2 0,-0.2 0.2,0 0.2,0.1 0.3,0.2 0.1,0.2 0,0 -0.2,0 -0.2,-0.2 z M 8.5,28.9 H 8.8 8.6 c -0.2,0 -0.2,0 0,0 z m 11.8,-0.2 h 0.2 -0.2 c -0.1,0 -0.1,0 0,0 z m -4,-1.1 c 0,-0.2 0,-0.2 0.1,-0.1 v 0.3 -0.2 z m 25.2,-0.3 h 0.4 z M 11.9,24.6 c -0.3,-0.1 0,-0.2 0.3,0 0.2,0.1 0.2,0.1 0.1,0.2 z"
       style="fill:#000000;stroke-width:0.538646"
       id="path2" />
    <path
       d="m 22.6,99.6 c 0,0 4.5,-2 8.2,-3.4 0.5,-0.2 0.7,-0.5 1.2,-1.3 l 0.4,-1.1 a 49.8,49.8 0 0 0 -6,1.8 l -0.2,0.5 v -0.5 c 0.2,-0.4 0.2,-0.4 -0.7,-0.2 l -0.9,0.2 2,-0.7 4.1,-1.3 2.3,-0.6 1,-1.9 0.9,-1.8 h -1.6 l -0.8,0.8 c -0.6,0.6 -0.9,1 -1,1.8 -0.4,1 -0.6,1.2 -0.3,0.1 l 0.2,-0.7 -1.5,0.7 -1.5,0.8 1.2,-0.9 c 2,-1.3 2,-1.3 2.6,-2 l 0.5,-0.6 h -1.4 c -1.4,0 -1.5,0 -2.8,0.7 L 27,90.7 28.2,90 29.3,89.3 h -1 c -1.8,0.1 -1.3,0 0.6,-0.2 1.8,0 2,-0.1 1.8,-0.3 a 9.9,9.9 0 0 1 -1.5,-1.2 l 1,0.7 1.1,0.7 2,-0.2 1.9,-0.2 1.7,-1.9 1.8,-2 C 38.6,84.5 36,84 35.3,83.9 c -0.6,0 -1.4,0.6 -2.2,1.7 l -0.3,0.3 C 33.1,85.3 33,85.2 32.4,85.6 32.1,85.8 32,85.9 32,85.7 l 0.9,-0.7 1.2,-0.8 0.4,-0.5 -1.1,-0.2 h -2.6 c -1.5,0.3 -1.6,0.3 -3.2,1.3 -1.6,1 -1.6,1 -2.3,2.3 a 71.7,71.7 0 0 0 -3,5.5 l 0.7,-2 -1.5,1 c -1.8,1.4 -2.3,1.6 -0.6,0.2 1.9,-1.5 1.9,-1.4 0,-1.3 -2,0 -2,0 0.3,-0.2 l 1.9,-0.4 1,-2 c 0.8,-1.3 1,-1.7 0.7,-1.7 l -3.5,1 c -3.6,1.2 -3.7,1 -0.3,-0.1 l 2.4,-1 -2,-0.5 c -0.5,0.2 -2.6,1.2 -2.4,1 0.4,-0.3 0.4,-0.3 -0.4,-0.6 -0.6,-0.1 -0.5,-0.2 0.2,0 0.9,0.1 1.1,0.1 1.7,-0.2 l 0.8,-0.4 -1,-0.3 C 19.4,84.8 19.4,84.8 20.2,85 l 2,0.4 c 2,0.4 2.4,0.4 3.5,-0.2 1.2,-0.7 2.3,-1.5 2.2,-1.6 L 25.3,82.8 C 23,82.2 22.5,82.2 19.7,82.2 h -3.2 l 3,-0.2 c 1.7,0 3.1,-0.2 3.1,-0.2 l -0.8,-0.6 c -0.9,-0.5 -1.1,-0.6 -2.1,-0.6 h -1 0.9 c 0.8,-0.1 0.9,-0.3 0.3,-0.5 l -2,-1.1 1.2,0.4 c 0.9,0.4 1,0.5 1,0.2 0,-0.3 0,-0.2 0.4,0.2 0.8,1 2.6,1.9 5.7,2.6 2.4,0.6 3,0.6 4,0.4 0.6,0 1.2,-0.2 1.2,-0.3 l -2.1,-2.8 c -0.6,-0.5 -1.1,-0.5 -2.4,0.1 l -0.9,0.5 0.8,-0.5 0.7,-0.5 h -0.7 a 48.7,48.7 0 0 0 -0.6,0 c 0.6,-0.2 0.6,-0.2 0.2,-0.4 h 0.4 c 0.8,0.2 1.6,0.2 1.8,0 0.2,0 -0.6,-0.7 -1.9,-1.5 a 6.3,6.3 0 0 0 -3,-1 c -1.6,-0.2 -1.7,-0.2 -2.6,0.3 -1,0.4 -1,0.4 -0.3,0 0.4,-0.2 0.7,-0.5 0.7,-0.6 h -0.2 l -1,-0.1 -0.7,-0.2 h 0.7 l 1.5,0.2 c 1,0 1,0 0,-0.8 l -0.5,-0.6 1,0.7 c 0.6,0.5 1,0.7 1.6,0.8 1.2,0.2 1.3,0.1 0.4,-1.2 -0.9,-1.4 -0.6,-1.3 0.4,0.2 0.8,1 1,1.3 2,1.9 l 1.4,0.5 c 0.1,0 0,-0.9 -0.3,-1.7 0,-0.2 0,-0.2 0.2,0.2 l 0.4,0.5 0.3,-0.4 c 0.2,-0.5 0.2,-0.5 0,0.1 -0.5,1.3 -0.5,1.4 1.9,4 l 2.1,2.3 2.6,0.4 c 1.6,0.2 2.5,0.3 2.5,0.1 -0.2,-0.4 -1.4,-1 -2.4,-1.3 -0.4,-0.2 -0.7,-0.3 -0.5,-0.3 0.2,0 0.2,0 -0.5,-0.7 l 0.5,0.2 c 0.7,0.5 0.7,0.5 0.6,0 -0.1,-0.2 0,-0.2 0.2,0.2 0.2,0.4 1,0.9 1.3,0.8 0,0 0,-0.6 -0.2,-1.1 -0.4,-1.4 -0.2,-1.3 0.2,0.1 a 4,4 0 0 0 1,1.8 c 0.6,0.7 1.2,1 1.3,0.5 0.2,-0.4 -0.3,-3 -0.8,-5 -0.5,-1.7 -0.5,-1.7 -1.3,-2.4 -1,-1 -1.1,-1 -1.6,-0.3 -0.6,0.7 -0.8,0.7 -0.3,0 l 0.4,-0.6 -0.5,0.1 h -0.6 l 0.6,-0.2 c 0.9,0 0.8,-0.1 -0.1,-0.8 -0.6,-0.4 -1.2,-0.6 -3.6,-1 a 117.6,117.6 0 0 0 -5.1,-0.8 h 1.3 c 0.1,0 -0.5,-1 -1,-1.4 l -1,-0.2 H 25 l 0.8,-0.1 h 0.8 l -0.2,-0.4 -0.5,-0.4 c -0.2,-0.2 -0.2,-0.3 -0.1,-0.3 a 82.2,82.2 0 0 0 2.5,2.8 h 1.5 l -0.2,-0.9 c -0.3,-0.7 -0.5,-1 -1,-1.2 l -0.6,-0.3 0.5,0.1 0.6,0.1 -0.2,-1 c -0.2,-1 0,-0.7 0.4,0.7 l 0.7,1.9 0.5,0.8 1.9,0.2 2,0.1 -0.5,-1.2 -0.5,-1.2 -2,-1.4 a 28,28 0 0 1 -2.2,-1.5 l 1.9,1 c 1,0.7 1.9,1.2 2,1.1 L 31.1,66 29.3,62.6 31,65 c 1.5,2.4 1.5,2.5 1.6,2 v -2.4 c 0.1,0 0.2,0.8 0.2,1.7 0,1.6 0,1.6 1,3.6 l 1,2 0.2,-0.6 0.2,-1 0.1,-0.5 c 0.2,0.1 0.3,0 0.5,-0.2 0.4,-0.6 0.3,-0.3 0,0.3 -0.3,0.4 -0.5,1.1 -0.6,1.7 L 35,72.8 36.5,73.9 38,75 c 0.3,-0.1 1,-3 1,-4 0,-1.3 -0.8,-2.7 -2.4,-4.2 C 35,65.2 34.9,65.1 36.1,66 l 1.2,0.9 -0.5,-2.1 a 11,11 0 0 1 -0.3,-2 l 0.2,0.6 c 0.1,0.4 0.2,0.6 0.4,0.6 0.1,0 0.1,0.1 0,0.2 -0.3,0.3 0.6,3.1 1.2,3.9 l 0.5,0.6 0.4,-1.9 c 0.3,-1.6 0.3,-2 0,-2.8 -0.3,-0.9 -0.3,-1 0,-0.3 l 0.4,0.6 0.3,-1.2 0.3,-1.3 -0.2,1.9 c -0.7,4.6 -0.8,5.6 -0.7,6.3 l 0.3,0.7 a 13,13 0 0 0 1.7,-2.6 c 0.1,-0.2 0,-0.9 -0.1,-1.4 -0.1,-0.5 -0.2,-1 0,-1.1 0,-0.2 0.1,-0.2 0,0 0,0.4 0.4,2 0.6,2 L 42.3,67 c 0.3,-0.4 0.4,-0.8 0.3,-1.4 -0.3,-3.1 -0.3,-3.9 -0.2,-3.7 L 42.8,61 c 0.2,-0.6 0.3,-1 0.3,-0.7 l -0.3,1.3 a 5,5 0 0 0 -0.1,2.5 c 0.2,1.8 0.2,2 0.4,1.7 0.2,-0.4 1.5,-2.2 1.5,-2 l -2.5,4 -2.4,3.9 -0.5,2.2 c -0.4,1.8 -0.4,2.3 -0.2,3 a 35,35 0 0 1 1.2,3.6 l 0.2,-1 0.4,-1.3 v 1 l -0.3,1.3 c 0,0.1 0.7,-0.2 0.9,-0.5 0.1,-0.2 0.4,-0.4 0.6,-0.4 0.4,-0.1 0.3,0 -0.4,0.5 l -1,0.8 c -0.2,0.2 -0.2,2 0,2.3 0,0 0.9,-0.3 2.1,-1 l 2.1,-1.2 0.5,-2.4 0.5,-2.4 -0.5,-1.6 -0.5,-1.6 -1,-0.7 C 42.2,71.2 42.1,71 43.4,71.8 l 1.2,0.6 -0.3,-1.6 c -0.2,-0.7 -0.3,-1.4 -0.2,-1.5 0.1,-0.2 0.1,0 0.2,0.4 0,0.6 0.6,2.6 0.7,2.6 l 0.5,-1 c 1,-2.6 1,-2.7 0.7,-1.6 l -0.3,1.1 0.4,-0.3 c 0.4,-0.3 0.4,-0.3 0,0.2 -1,1.3 -1.1,2.5 -0.5,4 0.4,0.9 0.5,0.9 1.2,0 0.4,-0.5 0.9,-1.6 1.4,-3.4 0.5,-1.5 0.9,-2.4 0.9,-2.1 l -0.2,0.6 c -0.1,0 -1,3.3 -0.8,3.3 l 1,-1 1,-1.1 -2,2.7 -2,2.7 -0.2,2 c -0.2,1 -0.3,1.8 -0.2,2 0.1,0.1 0.8,-0.4 2.1,-1.7 1.3,-1.4 1.4,-1.5 2.7,-4.5 l 1.4,-3.2 0.3,-2.8 c 0.4,-4 0.5,-3.7 0.2,0.5 v 1.1 l 0.9,-1.3 c 1.8,-3 2.5,-3.7 1,-1 l -1,1.4 2,-1 2,-0.9 -2.1,1.2 c -2.3,1.3 -2.2,1.2 -3,3.3 -0.3,0.7 -0.3,0.8 0,0.8 0.7,-0.1 2,-1 2.5,-1.6 l 0.5,-0.5 -0.4,0.6 -0.3,0.5 0.4,-0.1 c 0.3,0 -0.4,0.3 -1.4,0.8 l -2,1 -0.6,1.8 -0.6,1.8 1.1,-0.5 c 2.4,-1 3.8,-2 5.2,-3.1 l 1.4,-1.2 -1,1 -1,1.1 1.7,-0.2 a 8,8 0 0 1 1.6,-0.3 l -2,0.5 a 9,9 0 0 0 -3,1.1 c -1,0.7 -1,0.7 -1.3,1.6 l -0.2,1 0.6,-0.5 c 1,-0.8 1.4,-1 0.7,-0.4 -1,1 -1,1 -0.5,1 0.4,-0.1 0.3,0 -0.3,0.2 -0.7,0.3 -0.9,0.4 -1.4,1.3 -0.4,0.5 -0.6,1 -0.5,1 h 2.1 L 55.4,79 a 21.5,21.5 0 0 0 2,-1.5 L 57,78.1 a 1779.3,1779.3 0 0 1 -2.5,2 l 1.7,-0.1 1.7,-0.2 -2.8,0.5 c -2.5,0.4 -3,0.6 -2.3,0.7 l 0.7,0.2 c 0.2,0.2 -0.2,0 -1,-0.1 -0.7,-0.2 -2,-0.4 -3.3,-0.4 h -2 l -1.8,1 a 161.3,161.3 0 0 1 -3.8,2.3 31,31 0 0 0 8.6,2.4 c 0.7,0 5.9,-2 7,-2.8 1.2,-0.8 1.2,-0.8 1.6,-2.6 L 59.3,79.6 59,81 58.7,82.2 c 0.1,0.3 1.1,-0.6 1.7,-1.3 0.6,-1 0.8,-1 0.3,-0.1 l -0.5,0.6 0.8,-0.2 0.8,-0.2 -1,0.4 c -0.9,0.4 -3,2 -3,2.3 l 2.4,-0.5 2.1,-0.5 -1.7,0.6 -2,0.7 c 0,0 0.3,0.4 0.8,0.6 0.7,0.4 1.2,0.5 2.6,0.5 l 1.8,0.1 -1.5,0.1 H 61 l 1.1,0.8 c 1.6,0.9 1,0.7 -1.2,-0.4 -3,-1.6 -3,-1.6 -4.9,-0.7 l -1.8,0.8 c 0,0.1 0.4,0.4 1,0.6 1,0.3 1.7,0.5 2.7,0.4 1.6,0 2,0.1 0.4,0.2 -1.1,0 -1.1,0.1 -0.4,0.5 0.9,0.4 1,0.5 0.2,0.2 a 17,17 0 0 0 -4.9,-1.3 l -1,0.3 -0.5,0.4 2.3,1.2 2.7,1.3 2,-0.3 1.6,-0.2 -1.4,0.4 -1.6,0.4 c -0.3,0.1 0.7,0.4 2,0.5 l 1.6,0.3 h -2.5 a 54.9,54.9 0 0 0 2.4,1.9 l -2.5,-1.6 0.9,1.4 0.9,1.4 -1.4,-1.7 c -1.2,-1.7 -1.3,-1.7 -2.5,-2.3 l -1.4,-0.5 0.5,1 c 0.5,0.7 0.6,1 0.3,0.7 -0.2,-0.2 -0.6,-0.7 -0.8,-1.2 -0.5,-0.8 -0.7,-1 -4,-2.4 L 48.8,87 H 47 l 0.5,1 0.5,0.8 1.3,0.3 a 19.8,19.8 0 0 0 2,0.4 c -0.3,0 -0.4,0.1 -0.4,0.2 l 1.1,0.7 1,0.6 c -0.2,0 -0.3,0.2 -0.3,0.3 0,0.2 0,0.2 -0.1,0 -0.4,-0.7 -1.4,-1.2 -2.8,-1.6 l -1.3,-0.4 0.8,1.5 1,1.5 -1.1,-1.3 c -1.1,-1.4 -1.2,-1.4 -1,0 v 0.7 L 48,90.4 C 47.8,89.2 47.7,89.1 46.8,88 46.3,87.2 45.8,86.8 45.5,86.7 A 3468.3,3468.3 0 0 0 41,85 c -0.2,0 -0.2,0.4 0.4,3 l 0.7,2.6 1,1 c 0.6,0.7 1,1.2 1.2,1.2 l 5.5,1.7 c 0.3,0 1.5,0 2.7,-0.2 2.2,-0.3 3,-0.3 1.2,0 l -1,0.3 0.9,0.5 0.7,0.5 -1,-0.4 c -1,-0.6 -2.3,-0.7 -2.6,-0.3 l 2.1,1.8 a 21.7,21.7 0 0 1 2,1.7 l -2.6,-1.7 0.1,0.8 c 0.2,0.6 0.2,0.6 -0.2,-0.3 -0.7,-1.5 -1.6,-2 -4.6,-2.8 l -2.5,-0.6 0.2,0.6 c 0.2,0.4 0.6,0.7 2,1.3 a 23.8,23.8 0 0 0 2.6,1 l -0.6,-0.2 -0.7,-0.2 0.1,0.4 c 0.1,0.4 0,0.4 -0.2,0 -0.2,-0.4 -0.5,-0.6 -1.4,-0.9 l -1.3,-0.3 1,2 a 9,9 0 0 0 2,2.6 c 1.3,1.1 1.3,1.3 0,0.3 l -0.9,-0.8 0.3,0.9 c 0.2,0.6 -0.1,0 -1.5,-2.4 -2,-3.6 -2.9,-5 -3.9,-5.7 L 42.1,92 v 1.3 c 0,0.8 0.1,1.8 0.3,2.2 a 8.6,8.6 0 0 0 3,3.5 c 0.6,0.3 0.7,0.4 0.4,0.3 -0.3,0 -0.5,-0.2 -0.6,-0.3 H 45 c -0.1,0.1 0.1,0.6 1,2 l 1,2 -1.5,-2.3 c -1.2,-2 -2.2,-3.2 -2.4,-3 V 99 c 0.2,1.4 0.2,1.5 1.7,3.6 l -0.4,-0.4 c -0.5,-0.5 -0.9,-0.9 -1,-0.8 0,0 0,0.5 0.9,3.4 0.3,1.5 0,1 -0.5,-0.7 l -0.4,-1.4 c -0.2,-0.3 -1,1.9 -0.9,2.4 v 0.2 c -0.2,-0.5 -0.1,-0.5 -0.7,0.8 -0.2,0.3 0,-0.5 0.5,-1.8 0.8,-2.3 0.9,-2.3 0.6,-3.9 -0.2,-1.5 -0.3,-1.8 -0.6,-1.2 V 98.7 A 4,4 0 0 0 42,96 c -0.2,-0.4 -0.3,-0.4 -0.8,1.2 a 9,9 0 0 0 -0.6,3.8 c 0,2.3 0,2.5 -0.2,0.4 0,-0.8 -0.1,-1.4 -0.2,-1.4 l -1,2.6 a 33.8,33.8 0 0 1 -0.7,1.3 l 0.4,-1.5 -0.9,0.8 -0.8,0.8 c -0.1,0 0.3,-0.5 1,-1 l 1,-1.1 1.1,-3.7 c 0.9,-2.6 1.2,-3.8 1.1,-4.5 0,-1 -0.1,-1 -0.7,-0.2 -0.7,1 -1,1.9 -1,2.6 0,0.6 0,0.7 -0.1,0.3 l -0.2,-0.5 -0.5,1 c -0.4,1 -0.4,1.1 -0.3,0.5 0,-0.4 0.2,-0.7 0.3,-0.8 l 0.8,-2 -0.9,0.2 -0.8,0.3 1,-0.4 c 0.8,-0.4 0.9,-0.5 1.5,-1.5 0.4,-0.7 0.8,-1.4 0.8,-1.7 0,-0.6 -1.5,-6.2 -1.7,-6.2 0,0 -0.9,0.7 -1.8,1.7 a 15,15 0 0 0 -3.7,5.6 63,63 0 0 0 2,8 l -0.7,-2 c -0.2,-0.3 -0.2,-0.3 -0.5,-0.2 -0.8,0.5 -1,1 -1,2.8 v 1.8 l -0.1,-1.7 c 0,-1 -0.2,-1.6 -0.3,-1.6 -0.5,0.3 -2,2 -2,2.2 a 34.3,34.3 0 0 1 -0.7,1.7 c 0.5,-1.8 0.5,-2 -0.6,-1 l -0.6,0.5 1.3,-1.3 a 48,48 0 0 0 3.9,-4.1 l -1.2,-3.9 c -0.2,-0.3 -0.2,-0.3 -0.7,0.5 l -0.8,1.4 a 4,4 0 0 0 -0.3,2.7 v 0.7 c -0.2,0 -0.4,0.2 -0.5,0.4 l -0.4,0.5 c 0,0 0,-0.3 0.3,-0.6 0.3,-0.4 0.4,-0.8 0.3,-1.5 l -0.1,-0.9 -2,2.8 a 2594.4,2594.4 0 0 1 -2,3 66,66 0 0 1 3.5,-6 c -0.1,0 -3.6,1 -3.8,1.2 l -0.6,1 a 18,18 0 0 1 -1.7,2.8 l 0.9,-1.8 c 1.1,-2 1,-2.4 -0.3,-0.9 l -0.8,0.8 c 0,0 0,-0.3 0.3,-0.5 l 0.4,-0.6 c 0,0 -0.7,0 -1.4,0.4 l -1.3,0.3 z M 49.5,80.1 h 1.1 l 1,-1 c 0.8,-1 1.8,-2.8 1.6,-3.2 0,-0.2 -2.6,1.4 -3.4,2 -0.8,0.8 -1.7,2 -1.6,2 z m -31.7,8 c 0.2,-0.1 0.2,0 0.1,0 l -0.3,0.2 z m 6.3,7.5 h 0.1 c 0,0.2 -0.2,0.3 -0.3,0.2 z m 6.3,-4.9 0.4,0.1 c 0,0.1 -0.2,0.1 -0.4,0 -0.4,0 -0.4,0 0,0 z m 14.3,15.7 0.2,0.2 -0.2,-0.1 z M 42,99.8 c 0.2,-0.2 0.2,-0.2 0.1,0.1 0,0.4 -0.1,0.5 -0.2,0.3 v -0.4 z m -13.4,-32.1 0.1,0.2 -0.1,-0.1 c -0.1,-0.2 -0.1,-0.2 0,-0.1 z m 6.7,12.3 0.2,0.3 -0.2,-0.1 C 35.2,80 35.2,79.9 35.3,80 Z m -1,-4.8 h 0.2 c -0.1,0.2 -0.3,0.2 -0.4,0.2 z m 14.2,26.6 c 0.2,0.1 0.3,0.3 0.3,0.5 l -0.2,-0.2 c -0.1,-0.3 -0.2,-0.4 0,-0.3 z M 35,68.8 c 0,-0.3 0.2,0 0.2,0.4 0,0.3 0,0.3 -0.1,0.2 a 1,1 0 0 1 0,-0.5 z"
       style="fill:#000000;stroke-width:0.645367"
       id="path3" />
    <path
       d="m 8,127 5.3,2.6 c 0.3,0.2 0.5,0.2 1.1,0 0.4,0 0.7,-0.1 0.7,-0.2 a 32.2,32.2 0 0 0 -3.4,-2.2 l -0.4,0.1 0.3,-0.1 c 0.3,-0.2 0.3,-0.2 -0.2,-0.5 l -0.5,-0.4 1.2,0.7 2.4,1.5 1.3,0.8 1.3,-0.3 1.3,-0.3 -0.3,-0.4 -0.3,-0.4 H 17 c -0.5,0 -0.9,0 -1.3,0.2 -0.7,0.3 -0.8,0.2 -0.2,0 l 0.4,-0.3 -1,-0.4 -1,-0.5 1,0.3 2,0.4 h 0.6 l -0.6,-0.7 c -0.5,-0.7 -0.6,-0.7 -1.5,-1 l -1,-0.5 0.8,0.3 0.9,0.2 -0.5,-0.5 c -0.8,-0.8 -0.5,-0.6 0.4,0.3 0.8,0.8 1,1 0.9,0.7 v -1.3 0.9 l 0.2,0.8 0.9,0.9 0.9,0.9 h 3.4 l -1,-2 c -0.3,-0.3 -1,-0.4 -1.8,-0.4 h -0.3 c 0.4,0 0.4,-0.2 0,-0.3 -0.2,0 -0.3,-0.1 -0.2,-0.2 0,0 0.4,0 0.7,0.2 l 1,0.2 H 21 l -0.4,-0.6 a 7,7 0 0 0 -1,-1.3 c -0.8,-0.6 -0.9,-0.6 -2,-1 -1.2,-0.4 -1.2,-0.4 -2.1,-0.2 a 46.6,46.6 0 0 0 -4,0.8 l 1.3,-0.5 -1.2,-0.3 c -1.4,-0.2 -1.7,-0.4 -0.4,-0.2 1.6,0.3 1.6,0.4 0.7,-0.5 -1,-1 -0.8,-1 0.2,0 l 1,0.8 1.5,-0.3 c 1,-0.2 1.2,-0.3 1,-0.4 a 60.3,60.3 0 0 0 -2,-1.5 l 1.5,0.8 -0.6,-1.3 c -0.3,0 -1.7,-0.7 -1.5,-0.7 0.3,0 0.4,0 0.1,-0.5 -0.1,-0.3 0,-0.3 0.2,0.2 0.2,0.4 0.4,0.5 0.8,0.7 l 0.5,0.2 -0.3,-0.6 c -0.2,-0.5 -0.2,-0.5 0,-0.1 l 0.7,1.2 c 0.7,1.2 0.8,1.3 1.6,1.6 0.8,0.3 1.7,0.5 1.7,0.4 l -0.7,-1.6 c -0.7,-1.3 -0.9,-1.6 -2.1,-3 l -1.3,-1.6 1.3,1.4 1.4,1.5 v -0.7 c -0.1,-0.7 -0.2,-0.8 -0.6,-1.3 l -0.4,-0.5 0.4,0.4 c 0.4,0.4 0.4,0.4 0.3,0 l -0.2,-1.4 0.2,0.7 c 0.2,0.6 0.2,0.7 0.4,0.6 v 0.2 c -0.1,0.9 0.2,2.2 1.2,4 0.7,1.4 0.9,1.7 1.4,2.1 l 0.7,0.5 0.5,-2.3 c 0,-0.4 -0.2,-0.7 -1,-1 l -0.7,-0.3 0.6,0.2 h 0.6 l -0.4,-0.2 a 32.4,32.4 0 0 0 -0.2,-0.3 H 20 c 0,-0.2 0,-0.1 0.1,0.1 0.3,0.5 0.6,0.8 0.8,0.9 0.1,0 0,-0.6 0,-1.6 a 4,4 0 0 0 -0.8,-1.9 c -0.6,-0.9 -0.7,-1 -1.3,-1.2 -0.6,-0.2 -0.6,-0.2 -0.1,0 h 0.5 v -0.1 l -0.3,-0.5 -0.3,-0.5 0.3,0.4 0.6,0.8 c 0.3,0.5 0.4,0.4 0.4,-0.3 v -0.5 l 0.1,0.7 c 0,0.6 0,0.9 0.3,1.2 0.4,0.7 0.5,0.6 0.8,-0.3 0.3,-1 0.3,-0.9 0,0.3 -0.2,0.8 -0.2,1 0,1.8 l 0.3,0.9 0.7,-0.9 c 0,-0.1 0.1,-0.1 0,0.2 l -0.1,0.4 h 0.3 c 0.4,-0.1 0.4,-0.1 0,0 -0.9,0.3 -1,0.3 -1.2,2.6 l -0.2,2 0.9,1.5 c 0.5,0.9 1,1.3 1,1.2 0,-0.2 -0.1,-1 -0.4,-1.7 l -0.1,-0.4 c 0.1,0.2 0.1,0.1 0.2,-0.5 v 0.4 c 0.1,0.5 0.2,0.5 0.3,0.3 0.1,-0.2 0.1,-0.2 0,0.1 0,0.3 0,1 0.2,1 l 0.4,-0.6 c 0.6,-0.8 0.6,-0.6 0,0.2 l -0.4,1.2 c 0,0.7 0,1 0.3,1 0.3,-0.2 1.4,-1.6 2.1,-2.6 0.6,-1 0.6,-1 0.7,-1.7 0,-0.9 0,-1 -0.6,-1 -0.6,0 -0.6,0 0,0 h 0.4 l -0.3,-0.3 -0.2,-0.3 c 0,0 0.2,0 0.3,0.2 0.4,0.4 0.4,0.4 0.4,-0.4 0,-0.5 -0.2,-0.9 -1,-2.2 a 76.5,76.5 0 0 0 -1.2,-2.2 l 0.2,-1 -0.3,-0.6 -0.3,-0.4 0.3,0.3 0.4,0.4 v -0.3 l 0.1,-0.4 v -0.2 l 0.1,0.4 a 53.5,53.5 0 0 0 -0.3,2 l 0.6,0.8 0.3,-0.5 c 0.3,-0.4 0.3,-0.6 0.2,-1 v -0.4 0.3 l 0.3,0.3 0.4,-0.5 c 0.4,-0.5 0.3,-0.3 -0.2,0.5 a 7,7 0 0 0 -0.6,1.1 l -0.2,0.6 0.7,1 0.8,1 0.4,-0.7 0.3,-0.7 -0.1,-1.7 -0.2,-1.6 0.3,1.3 c 0,0.8 0.2,1.4 0.3,1.5 l 1,-2.4 0.9,-2.3 -0.6,1.8 c -0.5,1.8 -0.5,1.8 -0.3,1.7 l 0.5,-0.5 c 0.2,-0.2 0.8,-0.7 0.7,-0.5 l -0.8,0.8 c -0.7,0.6 -0.7,0.7 -1.3,2 l -0.6,1.3 0.4,-0.1 0.6,-0.4 c 0.2,-0.2 0.3,-0.2 0.3,-0.1 l 0.3,0.1 c 0.4,0 0.3,0 -0.2,0.2 l -1,0.4 -0.7,0.4 v 1.2 c 0,0.7 0.1,1.2 0.2,1.2 0.2,0.1 1.8,-0.8 2.3,-1.2 0.7,-0.6 1,-1.5 1.1,-3 0.1,-1.4 0.1,-1.5 0.2,-0.5 v 0.9 l 1,-1 0.8,-1.1 -0.3,0.4 c -0.1,0.2 -0.2,0.3 -0.1,0.4 l -0.1,0.1 c -0.3,0 -1.3,1.6 -1.4,2.2 v 0.5 l 1,-0.5 c 1,-0.6 1.1,-0.7 1.4,-1.3 0.3,-0.5 0.3,-0.5 0.2,0 l -0.2,0.4 0.7,-0.4 0.8,-0.4 -1,0.7 c -2.6,1.6 -3.1,2 -3.4,2.4 -0.2,0.2 -0.3,0.3 -0.2,0.4 l 2,-0.3 0.6,-0.6 0.5,-0.5 c 0.2,0 0.2,0 0,0 -0.1,0.2 -0.8,1.1 -0.7,1.2 h 0.5 c 0.4,0 0.6,-0.2 0.8,-0.5 l 1.8,-1.7 0.6,-0.1 0.5,-0.2 -0.8,0.4 a 4,4 0 0 0 -1.3,1 c -0.8,0.9 -0.9,1 -0.6,1 l 1.6,-0.2 -3,0.5 -3,0.4 -1.3,0.7 c -1,0.6 -1.3,0.8 -1.5,1.2 a 22.8,22.8 0 0 1 -1.3,2.1 l 0.6,-0.3 0.8,-0.4 -0.5,0.4 -0.8,0.5 0.6,0.2 0.5,0.1 c 0.2,0.2 0.1,0.2 -0.4,0 L 24.9,128 c -0.1,0 -1,0.7 -1.1,1 l 1.4,0.6 1.5,0.5 1.4,-0.7 1.4,-0.8 0.6,-1 0.5,-0.9 v -0.8 c -0.2,-1.2 -0.1,-1.3 0,-0.4 0,0.5 0.2,0.8 0.3,0.8 l 0.6,-0.7 0.6,-0.8 c 0.2,0 0.2,0 0,0.3 -0.3,0.2 -1,1.3 -1,1.4 l 0.7,-0.2 c 1.7,-0.5 1.7,-0.6 1,-0.2 l -0.6,0.2 0.3,0.1 c 0.3,0 0.3,0 -0.1,0.1 -1,0 -1.7,0.5 -2.2,1.5 -0.3,0.5 -0.2,0.5 0.6,0.5 a 8,8 0 0 0 2.2,-0.7 l 1.4,-0.5 -0.4,0.2 -2,1 h 1 l 1,0.1 -2.2,0.2 -2.2,0.1 -1,0.7 -1.1,0.8 c 0,0.1 0.5,0.2 1.7,0.3 1.2,0 1.3,0 3.4,-0.5 l 2.1,-0.7 1.5,-1 c 2.1,-1.5 2,-1.4 -0.1,0.3 a 3,3 0 0 0 -0.6,0.5 l 1,-0.2 c 2.3,-0.3 2.9,-0.3 1,0 l -1.1,0.2 1.2,0.6 1.3,0.5 -1.4,-0.5 c -1.6,-0.6 -1.5,-0.6 -3,0 -0.4,0.1 -0.4,0.2 -0.3,0.3 0.4,0.3 1.3,0.6 1.8,0.5 h 0.5 l -0.4,0.1 h -0.5 l 0.3,0.3 -1,-0.4 -1.3,-0.6 -1.2,0.5 -1.1,0.5 0.7,0.3 c 1.5,0.7 2.5,1 3.7,1.2 l 1.2,0.2 H 35 l 0.8,0.7 c 0.5,0.3 0.9,0.6 0.8,0.7 l -1,-0.8 c -0.8,-0.6 -1.2,-0.8 -1.8,-1 -0.8,-0.3 -0.8,-0.3 -1.4,0 l -0.6,0.3 0.5,0.1 0.6,0.2 c -1,-0.1 -1,-0.1 -0.8,0.1 0.2,0.2 0.2,0.2 -0.2,0 -0.4,-0.2 -0.6,-0.2 -1.2,-0.2 -0.4,0 -0.8,0.2 -0.7,0.2 l 0.4,0.6 0.5,0.5 1.2,0.3 a 14,14 0 0 0 1.7,0.4 h -0.5 a 1176.5,1176.5 0 0 1 -2,-0.4 l 0.7,0.8 0.8,0.8 -1.4,-1.2 c -1.3,-1 -1.6,-1.3 -1.3,-0.8 l 0.1,0.4 c 0,0.2 0,0 -0.3,-0.5 a 8,8 0 0 0 -1.2,-1.8 l -0.8,-1 -1.3,-0.5 a 105,105 0 0 1 -2.8,-0.9 20.1,20.1 0 0 0 2.5,5.2 c 0.3,0.4 3.5,2 4.3,2.3 1,0.3 1,0.3 2,-0.2 l 0.9,-0.4 -0.7,0.4 a 3,3 0 0 0 -0.7,0.4 c -0.1,0.2 0.7,0.3 1.3,0.3 h 0.2 l -0.5,0.1 0.4,0.3 0.5,0.3 -0.6,-0.3 c -0.6,-0.3 -2.3,-0.6 -2.4,-0.5 l 1.2,1 1.2,0.8 -1.1,-0.6 -1.1,-0.6 v 0.6 c 0,0.5 0.2,0.7 0.8,1.5 l 0.7,0.9 -0.7,-0.7 -0.6,-0.7 0.1,0.8 c 0.2,1.2 0.1,0.9 -0.3,-0.7 -0.5,-2.2 -0.5,-2.1 -1.7,-2.8 l -1.2,-0.5 0.1,0.8 c 0.3,0.6 0.5,1 1,1.5 0.7,0.8 0.7,1 0,0.2 -0.5,-0.5 -0.5,-0.5 -0.4,0 0.2,0.6 0.2,0.7 0,0.3 -0.6,-1.7 -1.2,-2.8 -1.4,-3 -0.2,-0.2 -0.4,-0.4 -0.6,-0.4 l -0.4,-0.1 0.4,1.7 0.5,1.8 1,0.9 0.8,0.7 -0.8,-0.5 -0.9,-0.6 c -0.2,-0.1 0,0.5 0.6,1.2 l 0.5,0.8 -0.5,-0.6 a 3,3 0 0 0 -0.5,-0.6 35.7,35.7 0 0 0 0,2 l -0.3,-1.7 -0.3,1 -0.3,1 0.2,-1.3 c 0.3,-1.4 0.3,-1.5 0,-2.3 0,-0.5 -0.2,-0.9 -0.2,-0.9 l -0.3,0.7 -0.2,0.4 c 0,-0.2 0,-0.6 0.2,-0.9 0.2,-0.6 0.2,-0.7 -0.5,-3 a 8,8 0 0 0 -0.7,-1.2 l -0.6,-0.9 -0.2,0.6 -0.3,0.7 0.4,0.8 a 12.9,12.9 0 0 0 0.7,1.1 l -0.3,-0.1 0.2,0.8 v 0.7 H 25 c 0,0.2 0,0.1 0,0 0.1,-0.5 0,-1.2 -0.4,-2 l -0.4,-0.9 -0.4,1 -0.3,1.1 0.2,-1 c 0.2,-1.2 0.1,-1.2 -0.5,-0.5 l -0.3,0.3 0.5,-0.7 c 0.5,-0.6 0.5,-0.6 0.7,-1.6 0.2,-0.6 0.2,-1 0.1,-1.2 A 2153.2,2153.2 0 0 0 23,130 l -1.2,1.5 -1,1.4 -0.1,1 v 1 l 1.4,3.5 1.3,1.2 c 1,1 1.3,1.4 0.5,0.6 l -0.6,-0.3 0.1,0.6 v 0.6 l -0.1,-0.7 c -0.2,-0.7 -0.7,-1.4 -1,-1.4 v 1.8 a 14.1,14.1 0 0 1 0,1.7 l -0.3,-2 -0.3,0.4 c -0.2,0.4 -0.2,0.3 0,-0.2 0.5,-1 0.4,-1.7 -0.5,-3.5 l -0.8,-1.5 -0.2,0.4 c -0.1,0.3 0,0.6 0.3,1.6 a 15.5,15.5 0 0 0 0.6,1.6 l -0.2,-0.3 -0.2,-0.5 -0.2,0.2 c -0.1,0.2 -0.1,0.2 0,0 0,-0.3 0,-0.6 -0.2,-1.1 l -0.4,-0.8 -0.5,1.3 a 4.7,4.7 0 0 0 -0.5,2.2 c 0,1 -0.1,1.1 -0.1,0 v -0.7 l -0.3,0.5 c -0.3,0.4 -0.1,0 0.5,-1.8 1,-2.5 1.2,-3.5 1.1,-4.3 v -0.5 l -0.7,0.6 -1,1 c -0.3,0.8 -0.5,2.2 -0.3,3 v 0.4 l -0.1,-0.4 -0.1,-0.2 c -0.1,0 -0.3,0.4 -0.6,1.4 a 7,7 0 0 1 -0.5,1.3 l 0.5,-1.7 c 0.4,-1.5 0.6,-2.4 0.4,-2.5 l -0.6,0.6 c -0.7,0.7 -0.7,0.8 -1,2.4 -0.1,0.2 -0.1,0 0,-0.4 v -0.8 c -0.1,0 -0.3,0.2 -1.4,1.8 -0.6,0.8 -0.5,0.5 0.1,-0.5 l 0.6,-0.8 c 0,-0.2 -1.4,0.3 -1.6,0.6 -0.1,0.1 -0.2,0.2 0,0 0,-0.2 0,-0.2 -0.8,0 l 1.1,-0.4 c 1.5,-0.6 1.5,-0.6 2.2,-1.4 0.7,-0.8 0.7,-1 0.3,-0.8 l 0.3,-0.2 c 0.5,-0.3 1,-1 1.2,-1.4 0,-0.3 0,-0.3 -1,0.1 -1,0.4 -1.2,0.6 -2.1,1.3 -1.2,1 -1.3,1.1 -0.3,0.1 0.4,-0.3 0.7,-0.6 0.6,-0.7 l -1.8,0.6 a 22,22 0 0 1 -0.8,0.2 c 0.5,-0.1 1,-0.3 0.9,-0.4 H 12.8 L 12,136.1 h 1 l 1,0.1 2.2,-1 c 1.7,-0.7 2.4,-1 2.7,-1.3 0.4,-0.4 0.4,-0.5 -0.2,-0.5 -0.8,0 -1.3,0.3 -1.7,0.6 -0.3,0.3 -0.3,0.3 -0.2,0 l 0.2,-0.2 -0.7,0.2 c -0.7,0.2 -0.8,0.2 -0.4,0 0.2,0 0.4,-0.2 0.5,-0.1 0.1,0 1.4,-0.4 1.3,-0.5 l -0.4,-0.3 -0.5,-0.3 0.6,0.2 c 0.5,0.3 0.6,0.3 1.4,0.2 0.5,0 1,-0.2 1.2,-0.3 a 26,26 0 0 0 2.3,-3.5 l -1.6,-0.2 a 9.7,9.7 0 0 0 -4.3,0.6 41,41 0 0 0 -3,4.4 l 0.5,-1.2 c 0.1,-0.2 0.1,-0.3 0,-0.4 -0.6,-0.2 -1,0 -1.9,0.8 l -0.8,0.7 0.7,-0.8 c 0.5,-0.4 0.8,-0.8 0.7,-0.8 -0.3,-0.1 -1.8,-0.2 -2,0 a 22.3,22.3 0 0 1 -1,0.3 c 1,-0.5 1,-0.6 0.2,-0.7 h -0.5 1.1 l 3.7,0.2 1.5,-2.3 c 0,-0.2 0,-0.2 -0.6,0 l -1,0.1 c -0.5,0.1 -1,0.4 -1.5,1 l -0.3,0.3 h -0.8 c 0,-0.1 0.1,-0.2 0.4,-0.2 0.3,0 0.5,0 0.8,-0.4 l 0.4,-0.5 -2.2,0.2 a 1705.7,1705.7 0 0 1 0,-0.1 l 2.1,-0.5 -2.2,-1.3 -0.7,0.1 -2.1,0.4 1.2,-0.3 c 1.6,-0.4 1.6,-0.5 0.3,-0.6 H 8.7 9.1 l 0.5,-0.1 -0.8,-0.6 A 5,5 0 0 1 8.1,127 Z m 21.1,5 0.5,0.6 h 0.9 c 0.8,0 2.2,-0.2 2.3,-0.5 0,-0.1 -1.8,-0.7 -2.5,-0.8 H 28.6 Z M 11.7,119.8 c 0.2,0 0.2,0 0,0 h -0.1 z m -1,6.3 c 0.1,0 0.1,0 0,0 h -0.2 z m 5,1 c 0.2,0.1 0.2,0.3 0.2,0.3 l -0.2,-0.2 c -0.1,-0.3 -0.1,-0.3 0,0 z m -1.6,13.7 v 0.2 c -0.1,0 -0.1,0 0,-0.1 0,-0.2 0,-0.2 0,0 z m 2.1,-4.1 c 0.2,0 0.2,0 0,0.1 -0.2,0.1 -0.3,0.1 -0.2,0 z m 10.2,-20.2 v 0.2 c -0.1,0 -0.1,0 0,-0.2 0,-0.1 0,-0.1 0,0 z m -3.3,8.5 v 0.2 -0.1 c 0,-0.2 0,-0.2 0,0 z m 2,-2.5 c 0.1,0 0.1,0 0,0 H 25 25.2 Z m -7.1,18.3 -0.1,0.3 c -0.1,0 0,0 0,-0.2 0,-0.2 0.1,-0.2 0.1,-0.1 z M 28.5,120 c 0.2,0 0.2,0 0,0.3 -0.2,0.1 -0.2,0.1 -0.2,0 z m 11,-72.8 5.2,2.6 c 0.3,0.2 0.5,0.2 1.2,0 0.4,0 0.7,-0.2 0.7,-0.2 a 32.2,32.2 0 0 0 -3.4,-2.2 h -0.4 0.3 c 0.2,-0.2 0.2,-0.2 -0.3,-0.5 l -0.4,-0.4 1.2,0.7 2.4,1.5 1.3,0.8 1.3,-0.3 1.3,-0.3 -0.3,-0.4 -0.4,-0.4 h -0.7 c -0.6,-0.1 -0.9,0 -1.3,0.2 -0.7,0.3 -0.8,0.2 -0.2,0 l 0.4,-0.3 -1,-0.4 -1,-0.5 1,0.3 c 1.4,0.4 1.4,0.4 2,0.4 H 49 L 48.4,47.1 C 47.8,46.4 47.8,46.4 46.8,46 l -1,-0.4 1,0.3 0.7,0.2 -0.4,-0.5 c -0.8,-0.8 -0.5,-0.6 0.4,0.3 0.8,0.8 0.9,0.9 0.9,0.7 v -1.3 0.9 l 0.1,0.8 1,0.9 0.8,0.8 h 3.5 l -1,-1.9 c -0.3,-0.3 -1,-0.4 -1.8,-0.4 h -0.3 c 0.4,-0.1 0.4,-0.2 0,-0.3 -0.3,0 -0.3,-0.1 -0.2,-0.2 l 0.6,0.2 1,0.2 h 0.4 L 52.1,45.7 A 7,7 0 0 0 51,44.4 C 50.2,43.8 50.2,43.7 49,43.4 47.9,43 47.9,43 47,43.2 A 46.6,46.6 0 0 0 43,44 l 1.2,-0.5 -1.1,-0.3 c -1.5,-0.3 -1.7,-0.4 -0.4,-0.2 1.6,0.3 1.5,0.3 0.7,-0.5 -1,-1 -0.8,-1 0.2,0 l 1,0.8 L 46,43 c 1,-0.2 1.3,-0.3 1.1,-0.4 a 60.3,60.3 0 0 0 -2,-1.5 l 1.5,0.8 -0.6,-1.3 c -0.3,0 -1.7,-0.7 -1.5,-0.7 0.3,0 0.3,0 0.1,-0.5 l 0.1,0.2 c 0.3,0.4 0.4,0.5 0.9,0.7 l 0.5,0.2 -0.3,-0.6 a 60,60 0 0 1 0.7,1 c 0.6,1.3 0.8,1.4 1.5,1.7 0.9,0.3 1.7,0.5 1.8,0.4 l -0.7,-1.6 c -0.7,-1.4 -1,-1.6 -2.2,-3 l -1.3,-1.6 1.4,1.4 1.4,1.5 V 39 c -0.1,-0.7 -0.2,-0.8 -0.7,-1.3 l -0.4,-0.5 0.5,0.4 c 0.3,0.4 0.4,0.4 0.3,0 l -0.2,-1.4 0.2,0.7 c 0.2,0.6 0.2,0.7 0.3,0.6 0.1,-0.2 0.2,-0.1 0,0.2 0,0.9 0.3,2.1 1.2,4 0.8,1.4 1,1.7 1.5,2.1 l 0.7,0.5 0.5,-2.3 c 0,-0.4 -0.2,-0.7 -1,-1 l -0.7,-0.3 0.6,0.1 0.5,0.2 -0.3,-0.3 a 32.4,32.4 0 0 0 -0.2,-0.4 c 0.3,0.2 0.3,0.2 0.2,0 l 0.2,0.2 0.7,0.9 c 0.2,0 0.2,-0.6 0,-1.6 A 4,4 0 0 0 51.5,37.9 C 51,37 50.9,36.9 50.3,36.7 49.7,36.5 49.7,36.5 50.2,36.6 h 0.5 l -0.4,-0.5 -0.2,-0.5 0.3,0.4 0.5,0.8 c 0.4,0.5 0.5,0.4 0.5,-0.3 v -0.6 0.8 c 0,0.5 0.1,0.9 0.4,1.2 0.4,0.7 0.5,0.6 0.7,-0.3 0.4,-1 0.4,-1 0.1,0.3 -0.2,0.8 -0.2,1 0,1.8 0,0.4 0.2,0.9 0.3,0.9 l 0.7,-0.9 v 0.2 l -0.2,0.4 0.4,-0.1 c 0.3,0 0.3,0 0,0 -1,0.4 -1,0.4 -1.2,2.7 l -0.3,2 1,1.5 c 0.5,0.9 0.9,1.3 1,1.2 a 5,5 0 0 0 -0.4,-1.7 l -0.1,-0.4 c 0.1,0.2 0.1,0.1 0.1,-0.5 l 0.1,0.3 c 0.1,0.6 0.1,0.6 0.3,0.4 0,-0.2 0,-0.2 0,0 -0.1,0.4 0,1 0.2,1 l 0.4,-0.5 c 0.5,-0.8 0.6,-0.6 0,0.2 -0.3,0.5 -0.4,0.7 -0.4,1.2 -0.1,0.6 0,1 0.3,1 0.2,-0.2 1.4,-1.6 2,-2.6 0.7,-1 0.7,-1 0.7,-1.7 0,-0.9 0,-1 -0.5,-1 h 0.4 L 57.2,43 57,42.7 l 0.3,0.2 c 0.4,0.4 0.4,0.4 0.3,-0.4 0,-0.5 -0.2,-0.9 -1,-2.2 a 76.5,76.5 0 0 0 -1.2,-2.2 l 0.3,-1 -0.3,-0.6 -0.4,-0.4 c 0,0 0.2,0 0.4,0.3 l 0.4,0.3 v -0.6 l 0.1,-0.2 a 53.5,53.5 0 0 0 -0.3,2.4 l 0.6,0.8 0.4,-0.5 c 0.2,-0.5 0.3,-0.6 0.2,-1 l -0.1,-0.4 0.1,0.3 0.2,0.3 0.4,-0.5 c 0.5,-0.5 0.4,-0.3 -0.1,0.5 a 7,7 0 0 0 -0.6,1.1 l -0.3,0.6 0.8,1 0.7,1 0.4,-0.7 0.4,-0.7 -0.2,-1.7 -0.1,-1.6 0.2,1.3 0.3,1.4 1,-2.3 1,-2.3 -0.6,1.8 c -0.6,1.8 -0.6,1.8 -0.3,1.7 l 0.5,-0.5 c 0.1,-0.2 0.8,-0.7 0.7,-0.5 l -0.8,0.7 c -0.8,0.7 -0.8,0.8 -1.3,2 l -0.6,1.4 0.4,-0.1 0.6,-0.4 c 0.1,-0.2 0.2,-0.2 0.3,-0.1 l 0.3,0.1 c 0.4,0 0.2,0 -0.2,0.1 -0.3,0 -0.7,0.3 -1,0.5 L 58.2,42 v 1.2 l 0.1,1.2 c 0.2,0.1 1.9,-0.8 2.4,-1.2 0.7,-0.6 1,-1.5 1.1,-3 0,-1.4 0.1,-1.5 0.2,-0.5 v 0.9 l 0.9,-1 0.8,-1.1 -0.2,0.4 -0.2,0.4 c 0.1,0 0,0.1 0,0.1 -0.3,0 -1.3,1.6 -1.4,2.2 v 0.5 l 1,-0.6 c 1,-0.5 1,-0.6 1.4,-1.2 0.3,-0.5 0.3,-0.5 0.1,-0.1 l -0.1,0.5 0.7,-0.4 0.8,-0.4 -1,0.7 c -2.6,1.6 -3.2,2 -3.4,2.4 l -0.3,0.3 c 0.2,0.1 1.8,0 2,-0.2 0.2,0 0.5,-0.3 0.7,-0.6 L 64.3,42 c 0.2,0 0.2,0 0,0 l -0.7,1.1 h 0.5 c 0.3,0 0.6,-0.1 0.8,-0.4 1.4,-1.5 1.8,-1.8 1.8,-1.7 l 0.6,-0.1 0.5,-0.2 -0.8,0.4 a 4,4 0 0 0 -1.3,1 c -0.8,0.9 -1,1 -0.7,1 l 1.7,-0.2 -3,0.5 -3,0.4 -1.3,0.7 c -1.1,0.6 -1.3,0.8 -1.5,1.2 a 22.8,22.8 0 0 1 -1.4,2.1 c 0,0 0.3,0 0.6,-0.3 L 58,47.1 c 0,0 -0.1,0.2 -0.6,0.4 l -0.7,0.5 0.6,0.2 0.5,0.1 c 0.2,0.2 0,0.2 -0.4,0 l -0.9,-0.1 c -0.2,0 -1,0.7 -1.1,1 l 1.4,0.6 1.4,0.5 1.4,-0.8 1.5,-0.7 0.5,-1 0.6,-0.9 v -0.8 c -0.2,-1.2 -0.2,-1.3 0,-0.4 0,0.5 0.2,0.8 0.2,0.8 0,0 0.4,-0.3 0.6,-0.8 L 63.7,45 c 0.2,0 0.1,0 0,0.2 -0.4,0.3 -1.1,1.4 -1,1.5 l 0.7,-0.2 1,-0.3 -0.7,0.3 0.4,0.1 H 64 c -1,0.1 -1.7,0.6 -2.2,1.6 -0.3,0.5 -0.3,0.5 0.6,0.5 A 8,8 0 0 0 64.6,48 l 1.4,-0.5 -0.4,0.2 -2,1 h 2 l -2.2,0.3 -2.3,0.1 -1,0.7 -1,0.7 c -0.1,0.2 0.4,0.3 1.6,0.4 1.3,0 1.3,0 3.4,-0.6 l 2.2,-0.6 1.5,-1 c 2,-1.5 2,-1.4 -0.2,0.3 a 3,3 0 0 0 -0.5,0.4 h 1 c 2.2,-0.5 2.9,-0.4 0.9,0 l -1,0.1 1.2,0.6 1.3,0.5 -1.4,-0.5 c -1.6,-0.6 -1.5,-0.6 -3,0 -0.4,0.1 -0.5,0.2 -0.3,0.3 0.3,0.3 1.3,0.6 1.8,0.5 h 0.5 L 67.6,51 h -0.4 l 0.3,0.3 -1,-0.4 -1.4,-0.6 -1.1,0.5 -1.2,0.5 0.8,0.3 c 1.5,0.7 2.5,1 3.7,1.2 l 1.2,0.2 h -2 l 1,0.7 0.7,0.6 -1,-0.7 C 66.3,53 66,52.8 65.3,52.6 64.5,52.3 64.5,52.3 64,52.6 l -0.6,0.3 0.5,0.1 c 0.9,0.2 1.1,0.3 0.5,0.2 -1,-0.1 -1,-0.1 -0.7,0.1 0.2,0.2 0.1,0.2 -0.2,0 -0.4,-0.2 -0.6,-0.3 -1.3,-0.2 -0.4,0 -0.7,0.2 -0.7,0.2 l 0.5,0.6 0.5,0.5 1.2,0.3 a 14,14 0 0 0 1.6,0.4 h -0.5 a 1176.5,1176.5 0 0 1 -2,-0.4 l 0.8,0.8 0.8,0.8 -1.4,-1.2 c -1.3,-1 -1.6,-1.3 -1.3,-0.8 l 0.1,0.4 -0.3,-0.5 a 8,8 0 0 0 -1.2,-1.8 l -0.9,-1 -1.2,-0.5 a 105,105 0 0 1 -2.8,-0.9 20.1,20.1 0 0 0 2.5,5.2 c 0.3,0.4 3.5,2 4.3,2.3 0.9,0.3 1,0.3 2,-0.2 l 0.9,-0.4 -0.8,0.4 a 3,3 0 0 0 -0.7,0.4 c 0,0.2 0.8,0.3 1.4,0.3 0.7,-0.1 0.8,0 0.2,0 l -0.5,0.1 0.4,0.3 0.4,0.3 -0.5,-0.3 c -0.6,-0.3 -2.4,-0.7 -2.4,-0.5 l 1.2,1 1.1,0.8 -1,-0.6 -1.2,-0.7 v 0.7 c 0.1,0.5 0.3,0.7 0.9,1.5 l 0.7,0.9 -0.7,-0.7 -0.7,-0.7 0.2,0.8 c 0.2,1.2 0,0.9 -0.3,-0.7 C 62.3,58 62.3,58.1 61,57.4 l -1.2,-0.5 0.2,0.8 c 0.2,0.5 0.5,1 1,1.5 0.6,0.7 0.7,1 0,0.2 -0.5,-0.5 -0.5,-0.5 -0.4,0 0.2,0.6 0.2,0.7 0,0.3 -0.6,-1.7 -1.2,-2.8 -1.4,-3 l -0.7,-0.4 -0.3,-0.1 0.4,1.7 0.5,1.8 c 0,0.1 0.4,0.5 1,0.9 l 0.7,0.7 -0.8,-0.5 -0.8,-0.6 c -0.2,-0.1 0,0.4 0.5,1.2 l 0.6,0.8 c 0,0 -0.3,-0.2 -0.5,-0.6 a 3,3 0 0 0 -0.5,-0.6 35.7,35.7 0 0 0 0,2 l -0.3,-1.7 -0.3,1 -0.3,1 0.2,-1.3 c 0.3,-1.4 0.3,-1.5 0,-2.3 0,-0.5 -0.2,-0.9 -0.3,-0.9 L 58,59.5 c -0.1,0.5 -0.2,0.6 -0.2,0.4 L 58.1,59 c 0.2,-0.6 0.1,-0.8 -0.5,-3 a 8,8 0 0 0 -0.7,-1.2 l -0.6,-0.9 -0.3,0.6 -0.2,0.7 0.4,0.7 a 12.9,12.9 0 0 0 0.6,1.2 l -0.2,-0.2 0.1,1 v 0.6 h -0.1 c -0.1,0.1 -0.1,0.1 0,0 0,-0.5 0,-1.2 -0.5,-2.1 l -0.4,-0.8 -0.3,1 -0.4,1.1 0.2,-1 c 0.2,-1.2 0.2,-1.2 -0.4,-0.5 l -0.3,0.3 0.5,-0.7 c 0.5,-0.6 0.5,-0.6 0.7,-1.6 0.1,-0.6 0.2,-1 0,-1.2 a 2153.2,2153.2 0 0 0 -1,-2.8 c -0.1,-0.1 -0.3,0.1 -1.3,1.5 l -1,1.4 -0.2,1 v 1 l 1.5,3.5 1.2,1.2 c 1.1,1 1.4,1.4 0.5,0.6 l -0.5,-0.3 v 0.6 c 0.1,0.3 0.2,0.5 0.1,0.6 l -0.2,-0.7 c -0.1,-0.7 -0.6,-1.4 -1,-1.4 V 61 a 14.1,14.1 0 0 1 0,1.7 l -0.2,-2 -0.3,0.4 c -0.2,0.3 -0.2,0.3 0,-0.2 0.5,-1 0.4,-1.7 -0.5,-3.5 L 52,55.9 51.8,56.3 c -0.1,0.3 0,0.5 0.3,1.5 a 15.5,15.5 0 0 0 0.5,1.7 l -0.2,-0.3 -0.1,-0.5 -0.2,0.2 c -0.1,0.2 -0.2,0.2 0,0 0,-0.3 0,-0.6 -0.3,-1.2 L 51.5,57 51,58.3 a 4.7,4.7 0 0 0 -0.5,2.2 c 0,1 -0.1,1.1 -0.2,0 V 59.8 L 50,60.3 50.6,58.5 C 51.5,56 51.8,55 51.7,54.2 v -0.5 l -0.7,0.6 -1,1 c -0.3,0.8 -0.5,2.2 -0.4,3 0.1,0.4 0.1,0.6 0,0.4 v -0.4 l -0.2,-0.2 -0.6,1.4 a 7,7 0 0 1 -0.4,1.3 l 0.4,-1.7 c 0.5,-1.5 0.7,-2.4 0.5,-2.5 l -0.7,0.6 c -0.6,0.7 -0.6,0.7 -1,2.3 v -1.1 c 0,0 -0.3,0.2 -1.4,1.8 -0.5,0.8 -0.4,0.5 0.2,-0.5 l 0.5,-0.8 c 0.1,-0.3 -1.3,0.3 -1.5,0.6 -0.1,0.1 -0.2,0.1 -0.1,0 0.1,-0.2 0.1,-0.2 -0.7,0 l 1,-0.5 c 1.6,-0.5 1.6,-0.5 2.3,-1.3 0.6,-0.8 0.7,-1 0.3,-0.8 l 0.3,-0.2 c 0.5,-0.3 1,-1 1.1,-1.4 0.1,-0.3 0,-0.3 -1,0.1 -0.9,0.4 -1.2,0.6 -2,1.3 -1.2,1 -1.3,1 -0.3,0.1 0.4,-0.3 0.6,-0.6 0.6,-0.7 l -1.8,0.6 a 22,22 0 0 1 -0.8,0.2 c 0.5,-0.2 0.9,-0.3 0.8,-0.4 h -0.8 l -0.7,-0.2 h 2 l 2.2,-0.9 c 1.7,-0.7 2.4,-1 2.7,-1.3 0.4,-0.5 0.4,-0.5 -0.2,-0.5 -0.8,0 -1.4,0.3 -1.7,0.6 -0.3,0.3 -0.3,0.3 -0.2,0 l 0.2,-0.2 -0.8,0.2 c -0.6,0.2 -0.7,0.2 -0.3,0 L 48,54 49.3,53.6 48.8,53.3 48.4,53 49,53.2 c 0.5,0.3 0.6,0.3 1.4,0.2 0.5,0 1,-0.2 1.1,-0.4 0.4,-0.2 2.4,-3.3 2.4,-3.4 l -1.6,-0.2 a 9.7,9.7 0 0 0 -4.4,0.6 41,41 0 0 0 -3,4.3 l 0.6,-1.1 c 0.1,-0.2 0,-0.3 -0.1,-0.4 -0.6,-0.2 -1,0 -1.8,0.8 l -0.8,0.7 0.7,-0.8 0.7,-0.8 c -0.4,-0.1 -1.8,-0.2 -2,0 a 22.3,22.3 0 0 1 -1,0.3 c 1,-0.5 1,-0.6 0.1,-0.7 H 40.8 42 l 3.7,0.2 1.4,-2.3 c 0.1,-0.2 0.1,-0.2 -0.5,0 l -1,0.1 c -0.6,0 -1,0.4 -1.5,1 l -0.4,0.3 c 0,0 -0.2,-0.1 -0.4,0 h -0.4 c 0,-0.1 0.2,-0.2 0.5,-0.2 0.3,0 0.5,-0.1 0.8,-0.4 l 0.4,-0.5 -2.2,0.2 a 1705.6,1705.6 0 0 1 -0.1,-0.1 l 2.2,-0.5 -2.2,-1.3 -0.7,0.1 -2.1,0.3 1.2,-0.3 c 1.5,-0.3 1.6,-0.4 0.3,-0.5 h -0.7 c 0,0 0.2,-0.1 0.4,0 l 0.5,-0.1 -0.8,-0.6 a 5,5 0 0 1 -0.8,-0.5 z m 21,5 0.5,0.6 h 1 c 0.8,0 2.1,-0.3 2.2,-0.5 0,-0.1 -1.8,-0.7 -2.5,-0.8 h -1.6 l 0.5,0.7 z M 43.3,40 c 0.1,0 0.1,0 0,0 H 43 43.2 Z m -1,6.3 H 42 42.2 Z m 5,1 c 0.2,0.1 0.2,0.2 0.2,0.3 0,0 -0.2,-0.1 -0.2,-0.3 -0.2,-0.2 -0.1,-0.2 0,0 z M 45.7,61 v 0.2 c -0.1,0 -0.1,0 0,-0.1 0,-0.2 0,-0.2 0,0 z m 2,-4.1 c 0.2,0 0.2,0 0,0 -0.1,0.2 -0.2,0.2 -0.2,0 h 0.3 z M 58,36.7 57.9,36.8 v -0.1 c 0,-0.1 0,-0.1 0,0 z m -3.3,8.5 v 0.2 c -0.1,0 -0.1,0 0,-0.2 z m 2,-2.5 c 0,0 0.1,0 0,0 H 56.5 Z M 49.5,61 49.3,61.3 v -0.2 c 0.1,-0.2 0.2,-0.3 0.2,-0.1 z M 60,40.3 c 0.2,-0.1 0.1,0 -0.1,0.3 h -0.1 z"
       style="fill:#000000;stroke-width:0.419814"
       id="path4" />
    <path
       d="m 50.4,137.7 3,-6.8 c 0.2,-0.4 0.2,-0.7 0,-1.5 a 3,3 0 0 0 -0.3,-1 41.6,41.6 0 0 0 -2.6,4.6 v 0.5 l -0.1,-0.4 c -0.2,-0.3 -0.2,-0.3 -0.6,0.3 l -0.4,0.6 0.8,-1.5 1.7,-3.1 1,-1.8 -0.5,-1.7 -0.5,-1.6 -0.5,0.4 -0.4,0.5 v 1 c 0,0.7 0,1 0.3,1.6 0.5,0.9 0.4,1 0,0.2 l -0.3,-0.5 -0.5,1.3 -0.5,1.3 0.3,-1.2 c 0.4,-2 0.4,-2 0.4,-2.7 v -0.7 l -1,0.8 c -0.8,0.8 -0.8,0.9 -1.3,2 l -0.4,1.3 0.3,-1 0.2,-1.1 -0.6,0.6 c -1,1 -0.8,0.6 0.3,-0.5 l 1,-1.2 -1.7,0.1 1,-0.2 1.1,-0.2 1,-1.2 1.1,-1.2 v -2.2 l -0.1,-2.2 -2.5,1.5 c -0.3,0.3 -0.5,1.2 -0.4,2.2 v 0.4 c -0.1,-0.5 -0.3,-0.5 -0.4,0 0,0.4 0,0.4 -0.2,0.3 l 0.2,-0.8 0.2,-1.3 v -0.5 l -0.7,0.5 a 6,6 0 0 0 -1.6,1.6 c -0.8,1 -0.9,1 -1.3,2.5 -0.4,1.5 -0.4,1.6 -0.1,2.7 a 59.8,59.8 0 0 0 1.3,5.1 l -0.7,-1.6 -0.3,1.4 c -0.3,2 -0.5,2.3 -0.2,0.5 0.2,-2 0.3,-2 -0.8,-0.8 -1.2,1.3 -1.2,1.1 0,-0.3 0.6,-0.6 1,-1.2 1,-1.3 l -0.4,-1.8 C 44.3,128.4 44.2,128 44,128.2 a 77.3,77.3 0 0 0 -1.8,2.7 l 1,-2 c 0,0 -1.6,0.7 -1.6,0.9 l -0.8,2 c 0,-0.5 0,-0.5 -0.7,-0.2 -0.4,0.2 -0.3,0.2 0.2,-0.2 0.6,-0.3 0.7,-0.5 0.9,-1 l 0.2,-0.7 -0.7,0.3 c -0.7,0.4 -0.7,0.4 -0.2,0 l 1.5,-0.9 c 1.5,-0.9 1.7,-1 2,-2 0.4,-1.1 0.6,-2.3 0.5,-2.3 l -2,1 a 14,14 0 0 0 -3.9,2.9 l -1.9,1.8 1.8,-1.9 1.7,-1.9 -0.9,0.2 c -0.8,0.1 -1,0.2 -1.5,0.8 l -0.7,0.6 0.5,-0.6 c 0.5,-0.5 0.5,-0.6 0,-0.4 l -1.8,0.4 0.9,-0.4 c 0.8,-0.2 0.9,-0.3 0.7,-0.5 h 0.3 c 1.1,0.1 2.7,-0.5 5,-1.7 1.8,-1 2.1,-1.3 2.7,-2 l 0.6,-1 -3,-0.4 c -0.6,0 -0.9,0.3 -1.3,1.4 l -0.3,0.8 0.2,-0.8 0.1,-0.7 -0.3,0.4 a 40.7,40.7 0 0 0 -0.5,0.4 c 0.3,-0.5 0.3,-0.5 0,-0.4 -0.2,0 -0.1,0 0.2,-0.2 0.6,-0.4 1,-0.8 1.1,-1 0,-0.2 -0.8,-0.1 -2,0.1 -1,0.3 -1.5,0.5 -2.4,1.1 -1.1,0.8 -1.2,0.9 -1.5,1.7 l -0.1,0.2 V 124 h -0.1 l -0.6,0.5 -0.6,0.3 0.5,-0.3 c 0.2,-0.3 0.7,-0.6 1,-0.8 0.6,-0.5 0.5,-0.6 -0.5,-0.5 h -0.6 c 0,-0.1 0.4,-0.2 1,-0.2 0.6,0 1,-0.2 1.4,-0.4 0.9,-0.7 0.8,-0.7 -0.4,-1 -1.4,-0.4 -1.2,-0.4 0.4,-0.1 1,0.2 1.3,0.2 2.3,0 L 41.1,121 40,120.1 c -0.2,0 -0.2,-0.1 0.2,0 l 0.5,0.1 -0.1,-0.4 c 0,-0.4 0,-0.4 0.1,0 0.4,1.2 0.5,1.2 3.4,1.4 l 2.6,0.2 1.8,-1.2 c 1.1,-0.8 1.7,-1.3 1.6,-1.4 -0.3,0 -1.5,0.2 -2.2,0.5 l -0.5,0.2 c 0.2,-0.1 0.1,-0.2 -0.6,-0.1 l 0.4,-0.2 c 0.6,-0.1 0.7,-0.2 0.4,-0.3 -0.3,-0.2 -0.2,-0.2 0.1,0 0.4,0 1.2,-0.1 1.3,-0.3 L 48.2,118 c -1,-0.6 -0.8,-0.6 0.2,0 0.7,0.3 1,0.5 1.7,0.5 0.8,0 1.2,-0.1 1,-0.4 0,-0.4 -1.9,-1.7 -3.3,-2.6 -1.3,-0.7 -1.3,-0.8 -2.1,-0.7 -1.2,0 -1.3,0 -1.3,0.7 v 0.2 l -0.2,-0.6 -0.2,0.3 -0.4,0.3 c -0.1,0 0,-0.2 0.3,-0.4 0.5,-0.5 0.4,-0.6 -0.6,-0.4 -0.6,0 -1,0.3 -2.7,1.4 a 98.1,98.1 0 0 0 -3.6,2.4 l 0.8,-0.7 c 0,-0.1 -0.9,-0.3 -1.4,-0.3 l -0.7,0.5 a 2,2 0 0 1 -0.5,0.4 l 0.4,-0.5 0.5,-0.5 h -0.9 c -0.2,0 -0.3,0 -0.2,-0.2 h 0.5 a 68.2,68.2 0 0 0 2.6,0.3 l 1,-0.8 -0.7,-0.5 c -0.6,-0.2 -0.8,-0.3 -1.3,-0.1 l -0.6,0.1 0.4,-0.2 0.4,-0.3 -0.6,-0.5 c -0.7,-0.5 -0.4,-0.4 0.6,0.2 0.4,0.3 1,0.6 1.5,0.7 l 0.7,0.3 1.3,-1 1.3,-1 -1,-0.5 -1,-0.4 -2,0.3 -2.2,0.3 1.8,-0.5 c 1,-0.1 1.7,-0.4 1.8,-0.4 l -3,-1.2 -3.1,-1 2.3,0.6 c 2.3,0.6 2.4,0.6 2.2,0.3 l -0.6,-0.6 c -0.3,-0.2 -1,-1 -0.7,-1 l 1,1 c 1,1 1,1 2.6,1.7 l 1.8,0.6 -0.2,-0.4 -0.5,-0.8 -0.2,-0.3 c 0.2,0 0.2,-0.2 0.2,-0.4 -0.1,-0.6 0,-0.4 0.2,0.2 0,0.3 0.3,0.9 0.6,1.3 l 0.5,0.8 1.6,-0.1 1.6,-0.2 a 10,10 0 0 0 -1.8,-3 c -0.8,-0.8 -2,-1.2 -3.8,-1.2 -1.9,0 -2,0 -0.7,-0.2 l 1.1,-0.1 -1.4,-1 -1.4,-1.1 c 0,0 0.3,0 0.5,0.2 0.3,0.3 0.5,0.3 0.6,0.2 l 0.1,0.1 c 0,0.4 2.2,1.6 3,1.7 h 0.6 l -0.8,-1.3 c -0.7,-1.1 -1,-1.3 -1.6,-1.7 -0.7,-0.4 -0.7,-0.4 -0.2,-0.2 l 0.6,0.1 -0.5,-0.8 -0.6,-1 1,1.2 c 2.2,3.3 2.7,4 3.2,4.3 l 0.5,0.3 -0.4,-2.6 A 3,3 0 0 0 42.9,107 c -0.4,-0.2 -0.7,-0.5 -0.7,-0.7 0,-0.1 0,-0.1 0.2,0 0.1,0.3 1.4,1 1.4,1 v -0.7 c -0.1,-0.5 -0.3,-0.7 -0.6,-1 -2,-1.8 -2.5,-2.2 -2.3,-2.2 0,0 0,-0.3 -0.3,-0.8 l -0.2,-0.6 0.6,1 c 0.2,0.5 0.6,1 1.4,1.6 1.1,1 1.3,1 1.2,0.8 l -0.3,-2.1 0.8,3.9 0.7,3.7 1,1.6 c 0.8,1.4 1,1.6 1.6,1.9 a 29.3,29.3 0 0 1 2.8,1.6 l -0.4,-0.8 -0.6,-1 c 0,-0.2 0.2,0.1 0.5,0.6 l 0.7,1 c 0,0 0.3,-0.5 0.2,-0.9 0,-0.1 0,-0.4 0.2,-0.6 0.1,-0.2 0.2,0 0,0.6 l -0.2,1 c 0,0.3 1,1.4 1.3,1.5 l 0.8,-1.9 0.6,-1.8 -1,-1.8 -1.3,-1.9 -1.2,-0.7 -1.2,-0.6 -1,0.1 c -1.6,0.2 -1.7,0.2 -0.5,0 l 1,-0.4 -1,-0.7 c -0.6,-0.4 -1,-0.8 -1,-0.9 l 0.3,0.2 c 0.4,0.3 1.8,1.2 2,1.1 l -0.4,-1 c -0.8,-2 -0.8,-2 -0.4,-1.2 l 0.4,0.8 0.1,-0.4 c 0,-0.4 0,-0.4 0.1,0.1 a 3,3 0 0 0 2,2.7 c 0.7,0.3 0.8,0.3 0.7,-0.7 0,-0.5 -0.4,-1.4 -1,-2.9 l -0.8,-1.7 0.3,0.4 c 0,0.2 1.3,2.6 1.4,2.5 v -2.4 l 0.4,2.7 0.3,2.9 1,1.3 c 0.4,0.7 0.9,1.3 1,1.3 0.2,0 0.3,-0.6 0.3,-2.2 0,-1.6 0,-1.7 -1,-4.3 l -0.9,-2.7 -1.4,-1.9 c -2,-2.6 -1.8,-2.5 0.4,0.2 l 0.7,0.7 -0.2,-1.3 c -0.7,-2.9 -0.7,-3.7 0,-1.2 l 0.2,1.4 0.7,-1.7 0.6,-1.7 -0.6,1.9 c -0.6,2 -0.6,2 0,3.7 0.3,0.6 0.4,0.7 0.5,0.5 0.4,-0.5 0.7,-1.7 0.7,-2.4 v -0.6 0.6 l 0.1,0.5 0.3,-0.3 -0.5,1.3 -0.6,1.7 0.7,1.4 0.6,1.5 0.4,-1 A 15,15 0 0 0 56,102 c 0,-0.8 0.1,-1.5 0.2,-1.5 v 1.2 a 5,5 0 0 0 0,1.2 l 0.9,-1.1 0.8,-1 -0.9,1.3 c -0.7,1.1 -1,1.6 -1.2,2.4 -0.3,1 -0.3,1 0.1,1.8 l 0.4,0.7 0.1,-0.6 c 0.2,-1.2 0.3,-1.5 0.2,-0.7 0,1.2 0,1.2 0.2,0.9 0.2,-0.3 0.2,-0.2 0,0.3 -0.3,0.5 -0.3,0.7 -0.1,1.5 0,0.6 0.2,1 0.3,1 l 0.7,-0.7 0.5,-0.6 0.4,-1.6 a 18,18 0 0 0 0.4,-2.1 v 0.6 a 1486.6,1486.6 0 0 1 -0.4,2.6 l 1,-1 1,-1 -1.4,1.8 c -1.4,1.7 -1.6,2.1 -1,1.7 l 0.5,-0.2 c 0.2,0 -0.1,0.2 -0.6,0.5 l -2.3,1.6 -1.3,1.2 -0.4,1.6 a 134.5,134.5 0 0 1 -1,3.6 26,26 0 0 0 6.5,-3.5 c 0.5,-0.4 2.5,-4.6 2.7,-5.7 0.3,-1.1 0.2,-1.2 -0.5,-2.5 l -0.5,-1 0.6,0.8 0.6,1 c 0.2,0 0.3,-1.1 0.2,-1.9 -0.1,-0.9 0,-1 0.1,-0.2 l 0.1,0.7 0.4,-0.6 0.3,-0.6 -0.3,0.8 c -0.4,0.7 -0.7,3 -0.5,3 l 1,-1.5 1.1,-1.6 -0.7,1.4 a 11,11 0 0 0 -0.7,1.5 h 0.7 c 0.7,-0.2 1,-0.4 2,-1.2 l 1,-1 -0.8,1 -0.9,0.8 1.1,-0.2 c 1.5,-0.3 1,-0.1 -1,0.4 -2.7,0.8 -2.6,0.8 -3.3,2.4 l -0.7,1.6 c 0,0 0.5,0 1,-0.3 0.8,-0.3 1.3,-0.6 1.9,-1.2 1,-1 1.2,-1 0.3,-0.1 -0.6,0.6 -0.6,0.7 0,0.5 0.8,-0.3 1,-0.3 0.3,0 a 16,16 0 0 0 -3.7,2 l -0.5,0.8 v 0.5 l 2,-0.6 2.4,-0.8 1,-1.2 c 0.5,-0.7 1,-1.2 1,-1.1 l -0.7,1 -0.7,1.1 c -0.1,0.3 0.6,0 1.5,-0.7 a 9,9 0 0 1 1,-0.8 l -0.7,0.7 -0.7,0.7 a 46.1,46.1 0 0 0 2.5,-0.2 l -2.2,0.6 1.3,0.3 1.4,0.3 -1.8,-0.2 c -1.8,-0.3 -1.8,-0.3 -2.9,0 l -1.1,0.5 0.9,0.4 c 0.7,0.1 0.8,0.2 0.5,0.2 l -1.1,-0.2 c -0.8,-0.3 -1,-0.2 -3.8,0.8 -0.2,0 -1,0.5 -1.5,1 l -1.2,0.8 0.8,0.2 0.9,0.3 1,-0.6 a 16.5,16.5 0 0 0 1.4,-0.8 c -0.2,0.1 -0.2,0.2 -0.2,0.3 l 1.1,-0.3 h 0.9 v 0.2 c 0.2,0 0.1,0.1 -0.1,0 -0.6,-0.1 -1.5,0.1 -2.6,0.7 l -1,0.5 1.4,0.4 1.4,0.4 -1.4,-0.2 c -1.5,-0.2 -1.5,-0.1 -0.5,0.6 l 0.3,0.4 -0.9,-0.6 c -0.8,-0.6 -0.8,-0.7 -2,-0.8 -0.8,-0.2 -1.4,-0.2 -1.6,0 a 2824.9,2824.9 0 0 0 -3.5,1.6 c -0.2,0 0.1,0.3 2,1.5 l 1.9,1.3 h 2.6 L 64,119 c 0.2,-0.2 1,-0.9 1.6,-1.7 1.2,-1.4 1.6,-1.8 0.7,-0.6 l -0.4,0.6 h 0.8 l 0.7,-0.2 -0.9,0.3 c -0.8,0.2 -1.7,0.9 -1.7,1.3 h 2.4 a 18,18 0 0 1 2.1,-0.2 c -0.6,0 -2.6,0.4 -2.6,0.5 l 0.6,0.4 c 0.5,0.2 0.4,0.2 -0.3,0 -1.2,-0.6 -2.1,-0.4 -4.4,0.9 l -1.9,1 0.5,0.3 c 0.4,0.1 0.8,0 2,-0.5 a 19.9,19.9 0 0 0 2.1,-0.8 l -0.4,0.3 -0.6,0.2 0.3,0.2 c 0.3,0.2 0.2,0.2 -0.1,0 -0.3,0 -0.7,0 -1.4,0.4 l -1,0.5 1.8,0.6 a 6,6 0 0 0 2.8,0.5 c 1.3,0 1.4,0 0.1,0.2 h -1 l 0.7,0.4 -2.3,-0.6 c -3.3,-1 -4.6,-1.3 -5.6,-1.2 H 58 l 0.8,0.9 c 0.4,0.4 1,1 1.5,1.1 a 7,7 0 0 0 3.8,0.4 c 0.5,-0.1 0.7,-0.1 0.4,0 l -0.5,0.1 -0.2,0.2 c 0,0.1 0.5,0.3 1.8,0.6 a 9,9 0 0 1 1.7,0.6 l -2.2,-0.5 c -1.9,-0.5 -3.1,-0.7 -3.2,-0.5 0,0 0.3,0.5 0.8,0.9 0.9,0.7 1,0.8 3,1.1 0.3,0.1 0.1,0.1 -0.4,0 h -1 c -0.1,0.2 0.3,0.4 2.4,1.7 1,0.7 0.6,0.6 -0.7,-0.2 l -1,-0.6 c -0.4,0 0.4,1.7 0.8,2 0.2,0.1 0.2,0.2 0,0.1 -0.3,-0.2 -0.3,-0.2 0.1,1 l -0.7,-1.5 c -0.8,-1.8 -0.8,-1.9 -1.9,-2.7 -1,-0.8 -1.2,-0.9 -1,-0.4 0,0.2 0,0 -0.3,-0.3 a 3.3,3.3 0 0 0 -1.8,-1.4 c -0.4,0 -0.3,0 0.2,1.2 0.5,1.2 0.8,1.6 1.8,2.6 1.4,1.5 1.4,1.6 0.1,0.4 -0.4,-0.5 -0.9,-0.8 -0.9,-0.7 l 0.9,2.2 a 28.2,28.2 0 0 1 0.3,1 l -0.6,-1 v 1 l -0.1,1 v -2.5 l -1.4,-2.9 c -1,-2 -1.5,-3 -2,-3.3 -0.5,-0.6 -0.6,-0.5 -0.5,0.3 0.1,1 0.4,1.7 0.9,2.1 0.3,0.4 0.3,0.4 0,0.2 l -0.3,-0.2 0.3,1 c 0.3,0.8 0.3,0.9 0,0.4 l -0.2,-0.6 -0.7,-1.7 -0.4,0.6 -0.3,0.6 0.3,-0.7 c 0.3,-0.7 0.3,-0.9 0.1,-1.9 -0.1,-0.6 -0.3,-1.2 -0.5,-1.4 a 21,21 0 0 0 -4.6,-2.8 v 2 a 12.5,12.5 0 0 0 0.9,5.6 52.7,52.7 0 0 0 5.8,3.6 18,18 0 0 1 -1.6,-0.6 c -0.3,-0.2 -0.3,-0.2 -0.4,0 -0.3,0.8 0,1.2 1,2.3 l 1,1 c 0,0 -0.5,-0.3 -1,-0.9 l -1.1,-0.8 a 7,7 0 0 0 0,2.5 28.7,28.7 0 0 1 0.6,1.4 C 57,134 56.9,134 56.8,135.2 v 0.6 -1.5 a 40,40 0 0 0 0,-4.7 26,26 0 0 0 -3,-1.7 c -0.2,-0.1 -0.2,-0.1 0,0.7 l 0.2,1.3 c 0.2,0.6 0.6,1.3 1.4,1.8 0.2,0.2 0.4,0.4 0.3,0.5 v 1 l -0.1,-0.5 c 0,-0.5 -0.2,-0.7 -0.6,-1.1 l -0.7,-0.5 0.5,2.8 a 2139.3,2139.3 0 0 1 -0.2,0.2 l -0.7,-2.8 -1.6,2.8 0.2,1 0.5,2.7 -0.4,-1.6 c -0.5,-2 -0.7,-2 -0.7,-0.4 v 1 l -0.1,-0.6 -0.1,-0.6 -0.7,1.1 z m 5.2,-27.3 0.8,-0.6 v -1.2 c 0,-1 -0.6,-2.8 -1,-2.9 0,0 -0.7,2.4 -0.8,3.3 l 0.1,2 z m -14.7,23 c 0,-0.2 0.1,-0.2 0.1,0 v 0.2 c -0.1,0 -0.1,0 0,-0.2 z m 8.2,1 c 0,-0.2 0,-0.2 0,0 v 0.2 z m 1,-6.6 c 0.1,-0.2 0.3,-0.3 0.3,-0.2 0,0 0,0.2 -0.3,0.3 -0.3,0.1 -0.3,0.1 0,-0.1 z m 17.7,1.3 H 68 c 0,0.1 0,0.2 -0.2,0.1 -0.1,0 -0.2,-0.1 0,-0.1 z m -5.5,-2.4 c 0,-0.2 0,-0.2 0.2,0 v 0.3 z m -26.5,-12 0.3,0.2 h -0.2 c -0.2,0 -0.2,-0.1 0,-0.1 z m 11.2,3.8 h 0.2 c 0,0.1 0,0.1 -0.2,0 -0.1,0 -0.2,0 0,0 z m -3.4,-2.4 c 0,-0.2 0.1,-0.2 0.1,0 v 0.2 c -0.1,0 -0.1,0 0,-0.2 z m 23.8,8 0.5,0.2 h -0.3 z m -27,-12.2 c -0.2,-0.3 0,-0.2 0.3,0 0.2,0.2 0.2,0.2 0,0.2 a 0.8,0.8 0 0 1 -0.3,-0.2 z"
       style="fill:#000000;stroke-width:0.538646"
       id="path5" />
  </g>
</svg>
