<svg xmlns="http://www.w3.org/2000/svg" xml:space="preserve" width="192" height="192" viewBox="0 0 50.8 50.8"><path d="M14.6.7A12.6 12.8 0 0 0 2 13.5a12.6 12.8 0 0 0 2 7 11 11.3 0 0 0-3.7 8.4 11 11.3 0 0 0 7 10.4 11 11.3 0 0 0 11 10.8 11 11.3 0 0 0 10.2-6.7 11 11.3 0 0 0 .7.4 11 11.3 0 0 0 10 6.3 11 11.3 0 0 0 11-11.3 11 11.3 0 0 0-2.5-7.2 11 11.3 0 0 0 2.8-7.4 11 11.3 0 0 0-6.6-10.3A12.6 12.8 0 0 0 31.5 3.5a12.6 12.8 0 0 0-7 2.2 12.6 12.8 0 0 0-9.9-5Z" style="fill:#00ca00;fill-opacity:1;stroke-width:1.05833"/><path d="m24.7 45.6 2.2-7c.1-.5 0-.8-.2-1.5a3 3 0 0 0-.5-1 41.6 41.6 0 0 0-2 4.9l.1.4-.2-.3c-.2-.3-.2-.3-.5.4l-.4.6.6-1.6 1.4-3.3.8-1.9-.7-1.6-.7-1.5-.4.5-.4.5v1c.1.6.3 1 .6 1.6.6.7.5 1 0 .2l-.4-.5-.3 1.3-.4 1.4.2-1.3c.2-1.9.2-2 0-2.7v-.7l-.8 1c-.8.8-.8.9-1 2.1l-.4 1.3.2-1 .1-1.2-.5.7c-.9 1.2-.7.8.2-.5.9-1.2 1-1.4.8-1.3l-1.6.3 1-.3 1-.3 1-1.3.9-1.4-.3-2.1a14 14 0 0 0-.4-2.2L21.4 29c-.3.4-.4 1.2-.1 2.3 0 .4.1.6 0 .4-.2-.5-.3-.5-.4 0 0 .4 0 .5-.1.4v-1L21 30v-.5l-.8.6c-.3.4-1 1.1-1.3 1.7-.7 1.1-.7 1.1-1 2.7-.2 1.6-.2 1.6.2 2.7a59.8 59.8 0 0 0 2 5l-1-1.6L19 42c0 1.9-.2 2.2-.2.5 0-2 .1-2-.8-.8-1 1.4-1 1.3 0-.2l.8-1.5-.7-1.7c-.5-1.2-.7-1.5-.8-1.3a77.3 77.3 0 0 0-1.5 2.8l.7-2-1.5 1-.5 2c0-.3 0-.3-.6 0-.4.3-.4.2.1-.2s.6-.6.8-1.2l.1-.6-.7.4c-.6.4-.6.4-.2 0l1.5-1c1.3-1.1 1.5-1.3 1.7-2.4.2-1 .3-2.2.1-2.3l-1.8 1.3a12 12 0 0 0-3.5 3.3l-1.7 2 1.5-2 1.6-2.1-.9.2c-.8.2-1 .4-1.5 1l-.5.7.4-.7c.4-.5.4-.6-.1-.4l-1.8.6 1-.4c.7-.4.8-.5.6-.6-.2-.1-.1-.1.3-.1 1 0 2.6-.7 4.7-2.3 1.7-1.2 2-1.5 2.5-2.3.2-.5.5-.9.4-1h-3c-.5 0-.8.3-1 1.5l-.3.8v-.8l.1-.7-.3.5a40.7 40.7 0 0 0-.3.3c.1-.4.1-.4-.2-.3l.3-.3 1-1c0-.2-.8 0-2 .3-1 .4-1.4.6-2.3 1.4-1 .9-1 1-1.3 1.8-.1.8-.1.9 0 .2l-.1-.7h-.2c0 .1-.2.4-.5.6l-.5.4.4-.4 1-1c.5-.5.4-.5-.6-.4H8l1-.2c.7 0 1-.2 1.4-.6.8-.7.7-.8-.5-1-1.5-.1-1.2-.2.3 0 1 0 1.3 0 2.3-.4l1-.5c.1-.1-.5-.5-1.2-.8h.8l-.2-.4c-.1-.4-.1-.4.2.1.5 1 .5 1 3.5 1l2.6-.2 1.6-1.4 1.5-1.5c-.4-.1-1.5.3-2.1.7l-.5.3c.1-.2 0-.2-.7-.1l.4-.2c.6-.2.6-.3.3-.4-.2-.1-.2-.1.2 0 .4 0 1.2-.3 1.2-.5l-.8-.4c-1.1-.5-1-.6.2-.1.7.3 1 .4 1.7.3.8 0 1.2-.2 1-.5-.1-.3-2.1-1.5-3.6-2.1-1.4-.7-1.4-.7-2.2-.6-1.2.2-1.3.2-1.2 1 .2.7.1.8 0 0l-.2-.5-.2.4c-.2.2-.3.4-.4.3 0 0 0-.2.3-.4.4-.6.3-.6-.7-.4a98.1 98.1 0 0 0-5.8 4.6l.7-.9H8.4c-.1 0-.4.2-.6.5a2 2 0 0 1-.5.5l.4-.6.4-.5H7a68.6 68.6 0 0 0 3.2-.1s.7-.8.7-1l-.7-.3c-.6-.2-.8-.2-1.3 0l-.5.1.4-.2.3-.3-.7-.4c-.7-.5-.4-.4.7 0 .4.3 1.1.5 1.5.6l.8.2 1.1-1.2 1.2-1.2-1-.3-1-.3-2 .6-2.2.5 1.7-.6c1-.3 1.7-.6 1.7-.7L7.8 22l-3.2-.6 2.5.3c2.3.3 2.4.3 2.1 0l-.6-.5c-.4-.2-1-.9-.9-.8l1.2.8c1 .9 1 .9 2.8 1.3l1.8.4-.2-.4-.6-.7c-.3-.1-.3-.3-.2-.3.1 0 .1-.2 0-.4 0-.6 0-.4.3.2 0 .3.4.8.8 1.2l.6.7 1.5-.2 1.6-.5a10 10 0 0 0-2.1-2.7c-.9-.7-2.1-1-4-.8-1.8.2-2 .2-.7 0l1.1-.3-1.5-.9c-.9-.4-1.6-.8-1.5-.9l.5.2c.4.2.5.3.6.2.1-.1.1-.1.2 0 0 .4 2.3 1.3 3 1.3h.7l-1-1.2c-.8-1-1-1.2-1.8-1.5-.7-.3-.7-.3-.2-.2h.7l-.7-.7c-.3-.4-.6-.8-.6-1l1 1.2c2.6 3 3.2 3.6 3.8 3.8.2.2.5.3.5.2 0-.2-.5-2.2-.7-2.5a3 3 0 0 0-1-.6c-.4-.2-.7-.5-.7-.6 0-.2 0-.2.1 0l1.5.7-.1-.7c-.1-.4-.3-.7-.7-1-2.2-1.4-2.7-1.8-2.5-1.8.1 0 0-.3-.3-.7-.3-.5-.5-.7-.3-.6l.6 1c.3.4.8.8 1.6 1.3 1.2.9 1.4 1 1.3.6l-.5-2 1.2 3.8 1.2 3.6 1.1 1.5c1 1.2 1.3 1.5 1.8 1.7a29.3 29.3 0 0 1 3 1.2l-.5-.7c-.3-.4-.6-.8-.6-1l.5.6.8.9s.2-.6.1-.9l.1-.6c.1-.2.2-.1.1.6v1c0 .3 1.1 1.3 1.4 1.3 0 0 .3-.7.5-2l.4-1.9-1.2-1.6-1.3-1.6-1.3-.5-1.3-.6-1 .3c-1.5.4-1.7.4-.5 0l1-.5-1.2-.6-1-.7c-.1-.2 0-.1.3 0 .4.4 2 1 2 1l-.3-.9c-1.1-2-1.2-2-.6-1.2l.5.8v-.5c0-.4 0-.4.1.2.3 1.2 1 2 2.4 2.4.7.2.7.2.5-.8 0-.5-.5-1.4-1.3-2.7l-1-1.7c.2.2.4.4.3.5l1.7 2.3v-1.2l-.2-1.3.6 2.7.7 2.8 1 1.2 1.2 1.2c.3 0 .3-.7.1-2.3-.1-1.5-.1-1.6-1.4-4.1l-1.2-2.6-1.7-1.7c-2.3-2.4-2.1-2.3.4.1.4.4.7.7.8.6l-.4-1.2c-1-2.8-1-3.6-.2-1.2l.5 1.3.4-1.7.5-1.7-.4 1.9c-.4 2.1-.4 2 .5 3.7.3.5.4.6.5.4.3-.5.5-1.8.4-2.4l-.1-.6.2.5.1.5.2-.3-.3 1.4-.4 1.7.8 1.3.9 1.4.2-1c.6-2 .9-3.4.8-5V8l.2 1.2.1 1.2.7-1.2.7-1.1-.7 1.5a7.5 7.5 0 0 0-.9 2.5c-.1 1-.1 1 .4 1.7l.4.6v-.6c0-1.1.1-1.5.2-.7 0 1.2 0 1.3.3.9.2-.3.2-.2 0 .3-.2.6-.2.8 0 1.6l.4.8.7-.7.5-.6v-1.7a18 18 0 0 0 .3-2.1v.6a1415.8 1415.8 0 0 1 0 2.6l.9-1.1.8-1.2-1.2 2c-1.1 1.9-1.3 2.3-.8 1.9l.5-.3c.2 0 0 .2-.6.5-.5.4-1.4 1.2-2 2l-1.1 1.2-.3 1.7a134.6 134.6 0 0 1-.6 3.7A25.9 25.9 0 0 0 31 21c.4-.5 1.9-5 2-6 .1-1.2.1-1.2-.7-2.4l-.7-1 .7.7.7.9c.2 0 .2-1 0-1.8-.2-1-.2-1 0-.3l.3.7.2-.7.3-.6-.2.8c-.3.8-.4 3.1-.2 3.2l1-1.7.8-1.7-.5 1.5A11 11 0 0 0 34 14c0 .1.3 0 .8 0 .6-.3.9-.6 1.7-1.5l1-1-.7 1-.8 1 1-.4c1.4-.5 1-.3-.9.5-2.6 1.1-2.5 1-3 2.8l-.5 1.6c0 .1.5 0 1-.4.6-.3 1.1-.8 1.7-1.4.8-1 1-1.2.3-.2-.6.8-.6.8 0 .5.8-.3 1-.3.4 0-2 1.1-3.3 2-3.6 2.4l-.3 1v.4l2-.9 2.2-1c.2 0 .6-.7 1-1.4l.7-1-.5 1a15 15 0 0 0-.6 1.3c0 .3.6-.2 1.4-1a9 9 0 0 1 1-.9l-.7.8-.6.8a45.8 45.8 0 0 0 2.4-.5l-2 .8s.6.2 1.3.2l1.4.2h-1.8c-1.8-.1-1.9-.1-2.9.3l-1 .6 1 .3c.6 0 .8.1.5.1h-1.2c-.8-.2-1-.1-3.7 1.2-.2 0-.8.6-1.4 1.1l-1 1 .8.1.9.2.9-.7a16.5 16.5 0 0 0 1.3-1l-.1.3 1-.3.9-.2.1.2c.1.1 0 .1-.2 0-.5 0-1.4.3-2.4 1l-1 .7 1.4.2 1.5.2h-1.4c-1.5 0-1.6 0-.5.7l.4.3-1-.5c-.8-.5-.9-.5-2-.6-.9 0-1.5 0-1.7.2a2881.6 2881.6 0 0 0-3.3 2c-.1.1.2.3 2.2 1.3l2 1h1.2l1.4-.2c.2 0 3.5-2.2 4-2.7l1.4-1.8c1-1.5 1.4-2 .6-.7l-.3.7s.4 0 .7-.2l.7-.2-.8.4c-.8.3-1.6 1-1.6 1.5l2.4-.4a18 18 0 0 1 2-.3c-.5 0-2.4.6-2.4.7l.6.4c.5.2.4.2-.3 0-1.3-.4-2.2-.2-4.3 1.4L33 28.3l.5.2c.4 0 .7 0 2-.7a19.9 19.9 0 0 0 2-1.1l-.5.3-.5.3.3.2c.3.1.3.2-.1 0a8.2 8.2 0 0 0-2.2 1.1l1.8.5a6 6 0 0 0 2.8.2c1.3-.3 1.5-.2.1 0l-1 .3.8.2c.5.2-.1.2-2.4-.3-3.4-.6-4.7-.8-5.7-.5l-.6.1.8.8 1.6 1c1 .3 2.8.2 3.9-.1l.4-.1-.5.2-.1.2s.4.2 1.8.4a9 9 0 0 1 1.7.4l-2.2-.3c-2-.3-3.2-.3-3.2 0l.9.7c1 .6 1 .6 3.1.8h-.4c-.6 0-1 .1-1 .2-.1.1.3.3 2.6 1.4a23 23 0 0 0-1.9-.6c-.3-.1.7 1.6 1 1.8l.2.1c-.4-.1-.4-.1.1 1l-.8-1.4c-1-1.8-1-1.8-2.2-2.5-1.1-.6-1.3-.7-1-.2l-.4-.3a3.3 3.3 0 0 0-2-1.2c-.3 0-.3 0 .4 1.2.6 1 1 1.4 2 2.4 1.6 1.2 1.7 1.4.3.3l-1-.6 1 2.1a28.2 28.2 0 0 1 .5 1l-.7-1v2l-.1-1.2-.1-1.2-1.7-2.7c-1.3-2-1.9-2.8-2.3-3.1-.6-.5-.7-.4-.5.3.2 1 .6 1.7 1 2 .5.4.5.4.2.3l-.4-.2.4.9c.4.8.4.9.1.5l-.3-.6c0-.2-.8-1.7-.9-1.6l-.3.6-.3.7.3-.8c.2-.8.2-.9-.1-1.9l-.7-1.4a34 34 0 0 0-4.9-2.2l.1 2a12.5 12.5 0 0 0 1.7 5.4 52.7 52.7 0 0 0 6.1 3A18 18 0 0 1 31 37c-.3-.1-.4 0-.4.2-.2.7.1 1.1 1.3 2l1 1-1-.8-1.2-.7c-.1.5.1 2.3.3 2.5a28.7 28.7 0 0 1 .7 1.3c-.9-1.3-1-1.3-1 0v.6-1.5a40 40 0 0 0-.6-4.8 26 26 0 0 0-3.2-1.3c-.3 0-.3 0 0 .7l.5 1.3c.2.6.7 1.2 1.5 1.6l.4.4v.6c.2.2.2.4.1.4l-.2-.5c0-.4-.2-.6-.7-1l-.7-.3.7 2.7a2142.5 2142.5 0 0 1-.1.2l-1-2.7-1.3 3 .3 1c.6 1.3 1 2.6.9 2.5l-.7-1.5c-.7-1.8-.9-2-.7-.3v1-.6c0-.3-.1-.5-.2-.5l-.6 1.1-.4 1zm2-27.7.6-.7-.2-1.1c-.1-1-.8-2.7-1.2-2.8-.1 0-.5 2.4-.4 3.3 0 1 .2 2.1.3 2 .1 0 .5-.3.8-.7zm-12 24.6c0-.2.1-.2.1 0v.2-.2zm8.3 0c0-.2 0-.2 0 0v.2-.2zm.2-6.7.3-.2c0 .1 0 .2-.2.3-.3.2-.3.2-.1 0zm17.7-.7h.2s0 .1-.1 0h-.1zm-5.7-1.8c0-.2 0-.2.2 0 .1.2.2.3 0 .3 0 0-.2-.1-.2-.3zM7.5 24.6h.2c0 .1 0 .2-.2.1-.1 0-.1 0 0 0zM19 27h.2s0 .1-.1 0H19zm-3.6-2c0-.1 0-.2 0 0 .1 0 0 .2 0 .2V25zM40 30.2h.5c0 .1 0 .2-.3.1l-.2-.1zm-28.3-9c-.2-.2 0-.2.3 0 .2.2.2.2 0 .2a.8.8 0 0 1-.3-.2z" style="fill:#000;stroke-width:.538646"/></svg>