<?xml version="1.0" encoding="UTF-8" standalone="no"?>
<svg
   width="288"
   height="288"
   viewBox="0 0 76.2 76.2"
   version="1.1"
   id="svg4"
   sodipodi:docname="tree-cluster.svg"
   inkscape:version="1.4.3 (0d15f750, 2025-12-25)"
   xmlns:inkscape="http://www.inkscape.org/namespaces/inkscape"
   xmlns:sodipodi="http://sodipodi.sourceforge.net/DTD/sodipodi-0.dtd"
   xmlns="http://www.w3.org/2000/svg"
   xmlns:svg="http://www.w3.org/2000/svg">
  <defs
     id="defs4" />
  <sodipodi:namedview
     id="namedview4"
     pagecolor="#ffffff"
     bordercolor="#000000"
     borderopacity="0.25"
     inkscape:showpageshadow="2"
     inkscape:pageopacity="0.0"
     inkscape:pagecheckerboard="0"
     inkscape:deskcolor="#d1d1d1"
     inkscape:zoom="1.2368701"
     inkscape:cx="190.39994"
     inkscape:cy="157.25176"
     inkscape:window-width="1599"
     inkscape:window-height="796"
     inkscape:window-x="0"
     inkscape:window-y="25"
     inkscape:window-maximized="0"
     inkscape:current-layer="layer13" />
  <g
     inkscape:groupmode="layer"
     id="layer12"
     inkscape:label="terrain">
    <path
       d="M-45.6 3a16 15.6 85.3 0 0 .7 12.3 16 15.6 85.3 0 0 6 6.7 14 13.8 83.4 0 0 .4 11.5 14 13.8 83.4 0 0 4 5A17.4 17.4 19.6 0 0-36 42a17.4 17.4 19.6 0 0-.5 10 17.4 17.4 19.6 0 0-11 10.7 17.4 17.4 19.6 0 0 10.6 22.2 17.4 17.4 19.6 0 0 9.9.5 15.4 15.3 19.6 0 0 9 8.8 15.4 15.3 19.6 0 0 16.7-4.3 15.4 15.3 19.6 0 0 19-9.5 15.4 15.3 19.6 0 0-4-16.2 15.4 15.3 19.6 0 0 1-.8 15.4 15.3 19.6 0 0 12.7-10.1 15.4 15.3 19.6 0 0 .8-5.6 11 11.3 8.6 0 0 2.2-3.3 11 11.3 8.6 0 0 .8.4A11 11.3 8.6 0 0 41 51a11 11.3 8.6 0 0 11-11.4 11 11.3 8.6 0 0-2.4-7.2 11 11.3 8.6 0 0 2.7-7.5 11 11.3 8.6 0 0-6.5-10.3A12.5 12.8 9.3 0 0 33.6 4.3a12.5 12.8 9.3 0 0-7 2.2 12.5 12.8 9.3 0 0-9.8-5 12.5 12.8 9.3 0 0-1.4.2 14 13.8 83.4 0 0-.5-1.1A14 13.8 83.4 0 0 2-7.4a16 15.6 85.3 0 0-19.3-4.8A16 15.6 85.3 0 0-24-5.9 16 15.6 85.3 0 0-37.7-6a16 15.6 85.3 0 0-8 9z"
       style="fill:#00ca00;fill-opacity:1;stroke-width:1.45298"
       transform="matrix(0.24353784,0.68393371,-0.68393371,0.24353784,68.731442,30.566971)"
       id="path1" />
  </g>
  <g
     inkscape:groupmode="layer"
     id="layer13"
     inkscape:label="deco"
     style="display:inline">
    <path
       d="m 17,54.6 4.6,-5.8 c 0.3,-0.4 0.3,-0.6 0.3,-1.5 v -1 a 41.6,41.6 0 0 0 -3.7,3.8 v 0.5 L 18.1,50.2 C 18,49.8 18,49.8 17.4,50.4 l -0.5,0.4 1.1,-1.2 2.5,-2.7 1.4,-1.4 -0.1,-1.8 V 42 l -0.7,0.3 -0.5,0.3 -0.3,1 a 3,3 0 0 0 0,1.7 c 0.2,1 0.1,1 -0.1,0.2 L 20,44.9 19.2,46.1 18.4,47.2 19,46.1 c 0.9,-1.8 0.9,-1.8 1,-2.5 l 0.1,-0.7 -1,0.6 c -1,0.5 -1,0.6 -1.8,1.6 l -0.7,1.1 0.5,-1 0.6,-1 -0.8,0.5 c -1.2,0.8 -1,0.5 0.4,-0.4 1.3,-0.8 1.4,-1 1.2,-1 l -1.6,-0.2 h 1 l 1.1,0.1 1.3,-0.9 1.4,-0.9 0.5,-2.1 0.4,-2.2 -2.7,0.8 c -0.5,0.3 -0.9,1 -1,2.1 l -0.1,0.4 c 0,-0.6 -0.1,-0.6 -0.4,0 l -0.2,0.2 c 0,-0.1 0,-0.5 0.3,-0.9 0.2,-0.3 0.5,-0.8 0.5,-1.1 l 0.2,-0.5 -1,0.3 -1.8,1.1 c -1,0.8 -1,0.8 -1.8,2.2 -0.8,1.4 -0.8,1.4 -0.8,2.6 a 59.8,59.8 0 0 0 0,5.3 c 0,-1 -0.2,-1.7 -0.2,-1.8 l -0.7,1.3 c -0.7,1.8 -1,2.1 -0.3,0.5 0.7,-2 0.7,-1.9 -0.6,-1 -1.4,1 -1.4,0.8 0.1,-0.3 0.7,-0.4 1.2,-0.9 1.3,-1 v -2 c 0,-1.2 -0.1,-1.5 -0.3,-1.4 A 77.3,77.3 0 0 0 10.7,46 l 1.4,-1.6 -1.8,0.4 -1.2,1.8 c 0.1,-0.4 0,-0.5 -0.6,-0.3 -0.4,0 -0.4,0 0.2,-0.2 0.6,-0.2 0.8,-0.3 1.1,-0.8 l 0.4,-0.6 -0.8,0.2 c -0.8,0.2 -0.8,0.2 -0.2,0 a 77,77 0 0 1 1.7,-0.6 c 1.7,-0.5 1.9,-0.6 2.5,-1.5 0.6,-1 1,-2 1,-2.1 l -2.3,0.5 c -1.9,0.5 -2.3,0.7 -4.3,1.9 l -2.3,1.2 2,-1.3 2.3,-1.4 -1,-0.1 c -0.7,0 -1,0 -1.7,0.4 L 6.4,42.3 7,41.9 C 7.6,41.5 7.6,41.4 7,41.4 H 5.2 l 1,-0.1 c 0.8,0 1,-0.1 0.8,-0.3 -0.1,-0.2 0,-0.2 0.4,0 1,0.4 2.7,0.2 5.1,-0.5 2,-0.5 2.5,-0.7 3.1,-1.3 0.5,-0.3 0.8,-0.6 0.8,-0.7 0,0 -2,-1 -2.7,-1.2 -0.6,-0.2 -1,0 -1.6,1 l -0.5,0.8 0.3,-0.7 0.4,-0.7 -0.5,0.3 a 40.7,40.7 0 0 0 -0.5,0.3 c 0.3,-0.4 0.3,-0.4 0,-0.4 -0.2,0 0,0 0.3,-0.2 l 1.3,-0.6 c 0.1,-0.2 -0.7,-0.4 -2,-0.4 -1,0 -1.5,0 -2.6,0.5 C 7.1,37.7 7,37.7 6.5,38.5 6.1,39.2 6,39.2 6.3,38.6 L 6.6,37.9 H 6.4 L 5.7,38.2 5.1,38.5 5.6,38.2 6.8,37.6 C 7.5,37.3 7.4,37.2 6.5,37 L 5.8,36.9 h 1 c 0.7,0.2 1,0.2 1.6,0 1,-0.4 0.9,-0.5 -0.2,-1 -1.3,-0.7 -1,-0.7 0.4,0 1,0.4 1.2,0.5 2.2,0.4 L 12,36.2 11.1,35.1 c -0.2,-0.2 -0.1,-0.2 0.2,0 l 0.5,0.3 V 34.9 35 c 0.2,1.2 0.3,1.2 3,2.1 l 2.6,0.9 2,-0.8 c 1.3,-0.5 2,-0.9 1.9,-1 H 19 c -0.4,0.1 -0.6,0.2 -0.5,0 L 17.9,36 h 0.4 c 0.7,0 0.7,0 0.5,-0.3 -0.2,-0.2 -0.2,-0.2 0.1,0 0.4,0.2 1.2,0.2 1.3,0 L 19.6,35 c -0.9,-0.8 -0.7,-0.8 0.2,0 0.6,0.6 1,0.8 1.5,1 0.8,0.2 1.3,0.1 1.2,-0.2 a 12,12 0 0 0 -2.7,-3.3 c -1,-1 -1,-1 -1.9,-1.3 -1.1,-0.2 -1.2,-0.2 -1.3,0.5 -0.2,0.7 -0.3,0.8 -0.2,0.1 v -0.6 l -0.3,0.3 -0.4,0.2 c -0.1,0 0,-0.2 0.4,-0.4 0.6,-0.3 0.5,-0.4 -0.5,-0.5 -0.6,-0.1 -1.1,0 -3,0.7 a 98.1,98.1 0 0 0 -4,1.5 l 1,-0.5 c 0,-0.1 -0.8,-0.5 -1.4,-0.6 0,0 -0.4,0 -0.7,0.2 A 2,2 0 0 1 6.9,32.5 L 7.4,32.1 7.9,31.7 7.7,31.6 7.1,31.4 c -0.2,0 -0.3,0 -0.2,-0.1 h 0.6 a 68.6,68.6 0 0 0 2.4,1 l 1,-0.6 C 11,31.7 10.8,31.4 10.4,31.1 9.9,30.7 9.7,30.6 9.3,30.6 H 8.7 9.1 L 9.5,30.4 9.1,29.7 C 8.5,29 8.8,29.2 9.6,30.1 l 1.3,1 0.6,0.4 L 13,31 14.5,30.3 13.7,29.6 12.9,29 10.7,28.8 8.6,28.5 h 3.6 c 0,0 -1.1,-0.9 -2.6,-1.8 L 6.8,24.9 9,26 c 2,1.1 2.2,1.2 2,0.8 L 10.6,26.1 C 10.3,25.8 9.9,24.9 10.1,25 l 0.7,1.2 c 0.7,1.2 0.7,1.2 2.3,2.2 l 1.5,1 L 14.5,29 14.2,28.1 C 14,27.9 14,27.7 14.2,27.7 l 0.2,-0.3 c 0,-0.6 0.1,-0.4 0,0.2 0,0.4 0.2,1 0.4,1.5 l 0.3,0.9 1.5,0.3 1.6,0.1 a 10,10 0 0 0 -1,-3.3 C 16.7,26.1 15.6,25.4 13.8,25 12,24.5 11.9,24.5 13.2,24.6 l 1.1,0.2 -1.1,-1.4 a 9.2,9.2 0 0 1 -1.1,-1.3 l 0.4,0.4 c 0.3,0.3 0.4,0.4 0.5,0.3 l 0.2,0.1 c -0.1,0.4 1.7,2 2.4,2.3 L 16.2,25.4 15.7,24 C 15.3,22.7 15.2,22.4 14.6,21.9 14,21.4 14,21.3 14.4,21.6 L 15,22 c 0,0 0,-0.5 -0.3,-1 l -0.3,-1 0.6,1.3 c 1.4,3.7 1.7,4.5 2.1,5 l 0.5,0.3 c 0,-0.2 0.3,-2.3 0.2,-2.6 a 3,3 0 0 0 -0.7,-1 l -0.5,-0.7 c 0,-0.2 0.1,-0.2 0.2,0 0,0.2 1,1.3 1.1,1.2 L 18,22.8 c 0,-0.4 0,-0.7 -0.3,-1.1 L 16,19.1 v -0.9 c -0.1,-0.5 -0.2,-0.8 0,-0.6 l 0.2,1.1 a 5,5 0 0 0 1,1.9 c 0.8,1.2 1,1.4 1,1 l 0.2,-2 -0.2,3.9 -0.2,3.8 0.6,1.8 c 0.5,1.5 0.6,1.8 1,2.2 a 29.3,29.3 0 0 1 2.4,2.2 l -0.2,-0.8 -0.3,-1.1 c 0,-0.2 0.2,0.1 0.4,0.7 0.1,0.6 0.3,1 0.4,1 l 0.4,-0.7 c 0,-0.1 0.1,-0.4 0.3,-0.5 0.2,-0.2 0.2,-0.1 -0.1,0.5 l -0.4,1 c 0,0.3 0.6,1.6 0.9,1.7 l 1.2,-1.6 1,-1.7 -0.6,-2 -0.6,-2 -1,-0.9 -1,-1 h -1.1 c -1.6,-0.2 -1.7,-0.3 -0.5,-0.2 l 1.1,-0.1 -0.8,-1 -0.8,-1 c 0,-0.2 0,-0.2 0.3,0.2 l 1.6,1.6 v -1 l -0.2,-1.4 0.2,1 0.2,-0.5 c 0.2,-0.4 0.2,-0.4 0,0.2 -0.1,1.3 0.3,2.3 1.4,3.1 0.6,0.5 0.6,0.5 0.8,-0.6 0.1,-0.5 0,-1.4 -0.3,-3 l -0.3,-1.8 0.2,0.5 0.7,2.7 0.3,-1.1 0.3,-1.3 c 0,0 0,1.2 -0.3,2.8 l -0.4,2.8 0.6,1.5 0.7,1.6 c 0.2,0 0.5,-0.6 0.9,-2.1 0.4,-1.5 0.4,-1.6 0.1,-4.4 l -0.2,-2.9 -1,-2.1 c -1.3,-3 -1.2,-3 0.4,0.2 l 0.4,0.9 0.1,-1.3 c 0.1,-3 0.3,-3.8 0.3,-1.2 v 1.4 l 1,-1.5 1,-1.4 -1,1.6 c -1.2,1.9 -1.1,1.8 -0.8,3.7 0,0.6 0.1,0.7 0.3,0.5 0.5,-0.3 1,-1.4 1.1,-2.1 0,-0.4 0.2,-0.6 0.2,-0.6 v 1.1 l 0.2,-0.3 c 0.2,-0.1 -0.2,0.4 -0.7,1.3 l -1,1.4 0.3,1.6 0.3,1.6 0.6,-0.9 c 1.3,-1.7 2,-3 2.4,-4.4 l 0.6,-1.4 c 0,0 0,0.5 -0.3,1.2 A 5,5 0 0 0 31,22.2 l 1.1,-0.9 1,-0.8 -1,1.1 c -1,1 -1.4,1.3 -1.8,2 -0.6,1 -0.6,1 -0.3,1.8 l 0.2,0.8 0.2,-0.6 c 0.5,-1 0.6,-1.4 0.4,-0.6 -0.4,1.1 -0.4,1.2 0,0.9 l -0.2,0.3 c -0.3,0.4 -0.4,0.7 -0.5,1.5 l 0.1,1 0.9,-0.5 0.7,-0.5 0.7,-1.5 a 18,18 0 0 0 0.9,-2 l -0.1,0.7 a 1415,1415 0 0 1 -1,2.5 l 1.2,-0.8 1.2,-0.8 -1.9,1.5 c -1.7,1.3 -2,1.6 -1.4,1.4 H 32 l -0.7,0.2 c -0.7,0.1 -1.7,0.6 -2.6,1 l -1.5,0.9 -0.9,1.5 a 134.6,134.6 0 0 1 -1.8,3.2 25.9,25.9 0 0 0 7.2,-1.8 c 0.5,-0.3 3.5,-4 4,-4.9 0.5,-1 0.5,-1 0.1,-2.5 l -0.2,-1.2 0.3,1 0.4,1 c 0.1,0.1 0.5,-1 0.6,-1.7 0.1,-0.9 0.2,-1 0.2,-0.2 v 0.7 l 0.4,-0.5 0.5,-0.5 -0.5,0.7 c -0.5,0.7 -1.4,2.8 -1.3,2.9 l 1.5,-1.3 1.4,-1.2 -1,1.1 -1.1,1.3 c 0,0 0.3,0.2 0.7,0.2 0.7,0 1,-0.2 2.1,-0.7 l 1.4,-0.7 -1,0.7 -1.1,0.6 h 1 c 1.5,0.1 1.1,0.2 -1,0.3 -2.8,0 -2.7,0 -3.8,1.5 l -1,1.3 h 1 c 0.8,0 1.4,-0.3 2.1,-0.8 1.2,-0.6 1.4,-0.7 0.4,0 -0.8,0.5 -0.8,0.6 -0.1,0.5 0.7,0 0.9,0 0.2,0.1 a 23,23 0 0 0 -4.1,1 l -0.6,0.7 -0.2,0.5 2.2,-0.1 2.4,-0.2 c 0.2,0 0.8,-0.4 1.4,-1 l 1.1,-0.8 -0.9,0.9 -1,0.9 c -0.1,0.2 0.7,0 1.7,-0.4 a 9,9 0 0 1 1.2,-0.5 c 0,0 -0.3,0.3 -0.9,0.5 l -0.9,0.5 a 45.8,45.8 0 0 0 2.5,0.5 h -2.3 l 1.3,0.6 1.2,0.6 -1.7,-0.6 c -1.6,-0.7 -1.7,-0.8 -2.8,-0.7 l -1.2,0.2 0.8,0.6 0.5,0.3 -1,-0.5 c -0.8,-0.4 -1,-0.4 -4,-0.1 l -1.7,0.5 -1.3,0.6 0.8,0.4 0.7,0.5 1,-0.3 a 16.5,16.5 0 0 0 1.7,-0.5 l -0.3,0.2 1.2,0.1 c 0.5,0 1,0 0.8,0.1 v 0.3 c 0.2,0.1 0,0.1 -0.1,0 -0.5,-0.3 -1.5,-0.3 -2.7,0 l -1,0.3 1.2,0.7 1.2,0.7 -1.3,-0.5 c -1.4,-0.6 -1.4,-0.5 -0.6,0.5 l 0.2,0.4 -0.7,-0.8 C 31.1,36.7 31,36.6 29.9,36.2 29.2,35.9 28.6,35.7 28.4,35.8 a 2874.4,2874.4 0 0 0 -3.8,0.7 c -0.2,0 0,0.4 1.5,2 l 1.6,1.7 1.1,0.3 1.4,0.3 4.6,-1 c 0.3,0 1.1,-0.6 2,-1.2 1.4,-1.1 2,-1.4 0.8,-0.5 -0.3,0.3 -0.6,0.5 -0.5,0.6 h 1.5 c 0,0.1 -0.4,0.2 -1,0.2 -0.8,0 -1.8,0.4 -2,0.8 l 2.4,0.5 a 18,18 0 0 1 2,0.4 l -2.5,-0.2 0.4,0.6 -0.3,-0.2 c -1,-0.8 -2,-0.8 -4.5,-0.1 l -2,0.6 c 0,0 0.1,0.2 0.4,0.3 0.3,0.3 0.7,0.3 2,0 a 19.9,19.9 0 0 0 2.3,-0.2 l -0.5,0.1 -0.6,0.1 0.2,0.3 c 0.2,0.2 0.2,0.2 -0.1,0 h -1.5 l -1,0.3 1.5,1 a 6,6 0 0 0 2.6,1.1 c 1.4,0.3 1.4,0.5 0.1,0.2 l -1,-0.2 0.6,0.5 c 0.4,0.4 -0.1,0.1 -2.1,-1 -3,-1.9 -4.1,-2.5 -5.1,-2.6 h -0.7 l 0.6,1 1.1,1.4 c 0.8,0.6 2.5,1.2 3.6,1.3 h 0.4 -0.5 l -0.2,0.2 c 0,0 0.4,0.4 1.6,1 a 9,9 0 0 1 1.5,1 l -2,-1 c -1.7,-1 -3,-1.5 -3,-1.3 l 0.6,1 c 0.6,1 0.7,1 2.6,2 0.3,0 0.1,0 -0.4,-0.2 l -1,-0.2 c -0.1,0 0.2,0.4 2,2.2 0.8,0.9 0.4,0.6 -0.6,-0.4 l -1,-0.8 c -0.2,-0.2 0.1,1.7 0.4,2 0.1,0.3 0.2,0.3 0,0.2 -0.2,-0.2 -0.2,-0.2 -0.2,1 L 33.4,50 c -0.3,-2 -0.3,-2 -1.1,-3 -0.9,-1.1 -1,-1.2 -1,-0.7 l -0.1,-0.4 c -0.3,-0.7 -1,-1.5 -1.5,-1.8 -0.3,-0.2 -0.3,-0.1 0,1.3 0.1,1.2 0.3,1.6 1,3 1,1.6 1,1.8 0,0.3 l -0.6,-1 c 0,0.1 0,1.2 0.3,2.4 a 28.2,28.2 0 0 1 0,1.2 c 0,-0.8 -0.2,-1.3 -0.3,-1.2 l -0.3,1 -0.3,0.8 0.2,-1.1 0.3,-1.3 -0.6,-3 c -0.4,-2.3 -0.7,-3.3 -1,-3.8 -0.4,-0.6 -0.5,-0.6 -0.6,0.2 -0.2,1 0,1.7 0.3,2.3 0.2,0.4 0.2,0.4 0,0.2 l -0.3,-0.3 0.1,1 v 0.4 l -0.2,-0.6 c 0,-0.2 -0.1,-1.9 -0.2,-1.8 l -0.6,0.5 -0.4,0.5 0.4,-0.7 c 0.5,-0.6 0.5,-0.7 0.6,-1.7 l -0.1,-1.6 c -0.3,-0.4 -3.6,-3.8 -3.8,-3.8 l -0.6,2 a 12.5,12.5 0 0 0 -0.4,5.6 52.7,52.7 0 0 0 4.7,5 18,18 0 0 1 -1.3,-1.1 c -0.2,-0.2 -0.3,-0.2 -0.5,0 -0.4,0.6 -0.3,1.1 0.5,2.4 l 0.7,1.3 -0.8,-1.2 -0.8,-1 a 7,7 0 0 0 -0.6,2.5 28.7,28.7 0 0 1 0.2,1.4 C 24.3,52.7 24.2,52.6 23.9,53.8 L 23.6,54.4 24,52.9 A 40,40 0 0 0 25.2,48.3 26,26 0 0 0 22.7,46 c -0.3,-0.2 -0.3,-0.2 -0.3,0.6 V 48 c 0,0.6 0.3,1.3 0.9,2 0.2,0.3 0.3,0.5 0.2,0.6 l -0.1,0.5 -0.1,0.4 V 51 c 0,-0.4 0,-0.7 -0.4,-1.2 L 22.4,49.2 22.1,52 a 2141.7,2141.7 0 0 1 -0.2,0.1 v -2.9 l -2.2,2.5 v 1 c 0,1.4 -0.1,2.8 -0.2,2.6 v -1.6 c 0,-2 -0.2,-2.1 -0.6,-0.5 l -0.3,0.9 V 53.5 C 18.8,53.3 18.8,53 18.7,53 l -0.9,0.8 z m 11.6,-25.2 1,-0.4 0.2,-1.1 c 0.2,-1 0.1,-2.9 -0.2,-3 -0.1,-0.2 -1.3,2 -1.6,2.9 -0.3,0.8 -0.5,2 -0.4,2 z M 8.8,48.2 C 8.9,48 9,48 8.9,48.2 l -0.1,0.2 z m 7.7,2.9 c 0.1,-0.1 0.2,-0.2 0.1,0 l -0.1,0.2 c -0.1,0 0,0 0,-0.2 z m 2.6,-6.2 h 0.3 l -0.3,0.2 c -0.3,0 -0.3,0 0,-0.2 z m 16.8,5.6 0.2,0.1 H 36 c -0.1,0 -0.1,-0.1 0,-0.1 z m -4.7,-3.7 c 0,-0.2 0.1,-0.2 0.2,0 l -0.1,0.4 c 0,0 -0.1,-0.2 0,-0.4 z M 8.4,28.8 8.6,29 c 0,0.1 -0.1,0 -0.2,0 -0.1,0 -0.2,-0.1 0,-0.1 z m 9.9,6.4 0.2,0.1 h -0.2 c -0.1,-0.1 -0.1,-0.2 0,-0.1 z M 15.6,32 c 0.1,-0.2 0.1,-0.2 0.1,0 l -0.1,0.2 c -0.1,0 0,-0.1 0,-0.2 z m 21.2,13.5 0.4,0.2 c 0.1,0.1 0,0.1 -0.2,0 z M 13.5,27.2 c -0.1,-0.3 0,-0.2 0.3,0.1 0.1,0.2 0.1,0.3 0,0.2 a 0.8,0.8 0 0 1 -0.3,-0.3 z"
       style="fill:#000000;stroke-width:0.538646"
       id="path2" />
    <path
       d="m 25.8,45 2.1,-7 c 0.2,-0.5 0.1,-0.7 -0.2,-1.5 a 3,3 0 0 0 -0.4,-0.9 41.6,41.6 0 0 0 -2,4.8 l 0.1,0.5 -0.2,-0.3 C 24.9,40.3 24.9,40.3 24.6,41 l -0.3,0.6 0.6,-1.6 1.4,-3.4 0.7,-1.8 -0.7,-1.6 -0.6,-1.6 -0.5,0.5 -0.4,0.5 0.1,1 c 0,0.7 0.2,1 0.6,1.6 0.5,0.8 0.5,1 0,0.2 L 25,35 l -0.4,1.4 -0.3,1.4 0.1,-1.3 c 0.3,-2 0.3,-2 0.1,-2.7 V 33 l -0.9,0.9 c -0.7,0.9 -0.7,1 -1,2.2 l -0.3,1.3 0.1,-1.1 0.2,-1.1 -0.6,0.7 c -0.8,1.1 -0.7,0.7 0.3,-0.6 0.8,-1.2 1,-1.3 0.7,-1.3 l -1.6,0.3 1,-0.3 1,-0.3 1,-1.3 1,-1.3 -0.4,-2.2 a 14,14 0 0 0 -0.4,-2.2 l -2.2,1.8 c -0.4,0.4 -0.4,1.2 -0.2,2.2 0.1,0.5 0.2,0.6 0,0.4 -0.1,-0.5 -0.3,-0.5 -0.3,0 0,0.4 0,0.5 -0.2,0.4 v -0.9 l 0.2,-1.2 v -0.5 l -0.8,0.6 c -0.4,0.3 -1,1 -1.4,1.7 -0.7,1 -0.7,1 -1,2.6 -0.1,1.6 -0.1,1.6 0.3,2.8 a 59.8,59.8 0 0 0 1.9,4.9 L 20,39.9 19.9,41.4 c -0.1,1.9 -0.2,2.3 -0.2,0.5 0,-2 0,-2 -0.9,-0.7 -1,1.4 -1,1.2 0,-0.3 0.5,-0.6 0.8,-1.3 0.8,-1.4 L 19,37.7 c -0.5,-1.1 -0.7,-1.4 -0.8,-1.3 a 77.3,77.3 0 0 0 -1.5,2.9 l 0.7,-2 -1.5,1 -0.5,2 c 0,-0.4 -0.1,-0.4 -0.7,0 -0.4,0.2 -0.3,0.2 0.2,-0.2 0.5,-0.4 0.6,-0.6 0.7,-1.2 l 0.2,-0.7 -0.7,0.5 c -0.7,0.4 -0.7,0.4 -0.2,0 l 1.4,-1.1 c 1.4,-1 1.5,-1.3 1.7,-2.3 0.3,-1.1 0.3,-2.3 0.2,-2.3 l -1.9,1.2 a 13.7,13.7 0 0 0 -3.4,3.4 c -1,1 -1.7,2 -1.7,2 l 1.5,-2.1 1.5,-2 -0.8,0.1 c -0.8,0.3 -1,0.4 -1.5,1 l -0.6,0.7 0.4,-0.6 c 0.5,-0.6 0.4,-0.7 0,-0.4 l -1.8,0.6 0.9,-0.5 c 0.7,-0.3 0.8,-0.4 0.6,-0.5 -0.2,-0.1 0,-0.2 0.4,-0.2 1,0 2.6,-0.7 4.7,-2.2 1.6,-1.3 2,-1.6 2.4,-2.3 l 0.5,-1 c 0,0 -2.3,-0.2 -3,-0.1 -0.6,0 -0.9,0.4 -1.1,1.5 l -0.2,0.8 v -0.7 l 0.1,-0.8 -0.3,0.5 a 40.7,40.7 0 0 0 -0.4,0.4 c 0.2,-0.5 0.2,-0.5 -0.1,-0.3 -0.2,0 0,0 0.2,-0.3 0.5,-0.4 1,-0.9 1,-1.1 0,-0.2 -0.8,0 -2,0.4 a 5,5 0 0 0 -2.2,1.3 c -1,1 -1.1,1 -1.3,1.9 -0.2,0.8 -0.2,0.8 -0.1,0.2 V 33 l -0.2,0.1 -0.5,0.6 -0.6,0.4 0.5,-0.5 0.9,-0.9 c 0.5,-0.5 0.4,-0.6 -0.5,-0.4 H 9 l 1,-0.2 a 3,3 0 0 0 1.4,-0.6 c 0.7,-0.7 0.7,-0.8 -0.6,-1 -1.4,-0.2 -1.2,-0.2 0.4,0 1,0 1.3,0 2.2,-0.4 l 1.1,-0.6 -1.2,-0.7 c -0.2,-0.1 -0.2,-0.1 0.2,0 H 14 l -0.1,-0.4 c -0.2,-0.4 -0.1,-0.4 0.1,0 0.6,1 0.6,1.1 3.5,1 l 2.7,-0.1 1.6,-1.5 c 1,-0.9 1.5,-1.5 1.4,-1.5 -0.3,0 -1.4,0.3 -2,0.8 l -0.6,0.2 c 0.2,-0.2 0.1,-0.2 -0.6,0 -0.2,0 0,-0.1 0.3,-0.3 0.7,-0.2 0.7,-0.2 0.4,-0.3 -0.3,-0.1 -0.2,-0.2 0.2,-0.1 0.4,0 1.1,-0.2 1.2,-0.4 l -0.9,-0.5 c -1,-0.4 -0.9,-0.5 0.3,0 0.7,0.3 1,0.3 1.6,0.3 0.8,0 1.3,-0.3 1,-0.6 0,-0.3 -2,-1.4 -3.5,-2.1 -1.4,-0.6 -1.4,-0.6 -2.3,-0.5 -1.1,0.1 -1.2,0.2 -1.1,0.9 0.1,0.7 0,0.8 -0.1,0.1 L 17,23.3 16.7,23.7 C 16.6,23.9 16.4,24 16.3,24 l 0.3,-0.5 C 17.1,23 17,22.9 16,23.2 15.4,23.3 15,23.6 13.4,25 a 98.1,98.1 0 0 0 -3.2,2.8 l 0.7,-0.9 c 0,0 -0.9,-0.2 -1.4,-0.1 -0.2,0 -0.4,0.3 -0.6,0.5 A 2,2 0 0 1 8.4,27.8 L 8.7,27.3 9.1,26.8 H 8 c 0,-0.2 0.3,-0.2 0.6,-0.2 a 68.6,68.6 0 0 0 2.6,0 c 0,0 0.8,-0.8 0.8,-1 l -0.7,-0.3 c -0.6,-0.2 -0.9,-0.2 -1.3,0 L 9.4,25.5 9.8,25.3 10.2,24.9 9.5,24.5 C 8.7,24.1 9,24.1 10.1,24.6 l 1.6,0.6 0.7,0.1 1.2,-1.1 C 14.3,23.6 14.8,23 14.7,23 l -1,-0.4 -1,-0.3 -2,0.6 c -1.2,0.3 -2,0.6 -2.1,0.5 L 10.3,22.8 12,22.2 C 12,22.1 10.6,21.7 8.9,21.4 L 5.7,20.7 8.1,21 c 2.4,0.4 2.4,0.4 2.2,0 L 9.6,20.6 8.8,19.7 9.9,20.6 c 1,0.8 1,0.8 2.9,1.3 l 1.8,0.4 -0.3,-0.4 c -0.1,-0.3 -0.4,-0.6 -0.6,-0.7 -0.2,-0.2 -0.3,-0.3 -0.2,-0.4 0.2,0 0.2,-0.1 0.1,-0.4 -0.1,-0.5 0,-0.4 0.2,0.2 l 0.8,1.3 0.7,0.7 1.5,-0.3 c 0.8,-0.1 1.5,-0.3 1.5,-0.4 a 10,10 0 0 0 -2,-2.8 c -1,-0.7 -2.2,-1 -4,-0.7 -1.9,0.2 -2,0.2 -0.8,-0.1 l 1.2,-0.3 -1.6,-0.8 -1.5,-1 0.6,0.3 c 0.3,0.2 0.5,0.2 0.6,0.1 h 0.1 c 0,0.4 2.3,1.4 3.1,1.4 h 0.7 l -1,-1.2 c -0.9,-1.1 -1,-1.3 -1.8,-1.6 -0.7,-0.3 -0.8,-0.3 -0.2,-0.2 l 0.6,0.1 -0.6,-0.8 -0.7,-0.9 1.1,1.2 c 2.6,2.9 3.2,3.5 3.7,3.8 l 0.6,0.2 -0.7,-2.5 a 3,3 0 0 0 -1,-0.7 c -0.4,-0.2 -0.8,-0.4 -0.8,-0.6 0,-0.1 0,-0.1 0.2,0 0.1,0.2 1.5,0.9 1.5,0.7 l -0.1,-0.6 c -0.2,-0.4 -0.3,-0.7 -0.7,-1 l -2.6,-1.8 c 0.2,0 0,-0.3 -0.3,-0.8 l -0.3,-0.6 0.7,1 c 0.3,0.4 0.7,0.9 1.5,1.4 1.3,0.8 1.5,1 1.4,0.6 a 95.5,95.5 0 0 1 0.7,1.7 l 1.1,3.6 1.2,1.5 c 1,1.3 1.2,1.5 1.8,1.7 a 29.3,29.3 0 0 1 3,1.3 l -0.5,-0.7 -0.7,-1 0.6,0.6 0.7,0.9 0.2,-0.9 v -0.6 c 0.2,-0.3 0.2,-0.2 0.2,0.5 v 1.1 c 0,0.2 1,1.2 1.4,1.3 l 0.5,-2 0.4,-1.9 -1.3,-1.6 -1.3,-1.7 -1.3,-0.5 -1.2,-0.5 -1,0.3 c -1.6,0.3 -1.7,0.3 -0.6,0 l 1,-0.5 c 0,0 -0.5,-0.4 -1.1,-0.6 L 17.9,15 c 0,-0.2 0,-0.2 0.3,0 l 2.1,1 -0.4,-1 -0.6,-1.2 0.5,0.8 v -0.4 c 0,-0.5 0,-0.4 0.2,0.1 0.3,1.3 1,2 2.3,2.5 0.7,0.2 0.8,0.1 0.6,-0.9 -0.1,-0.5 -0.5,-1.3 -1.4,-2.7 -0.7,-1 -1,-1.8 -0.9,-1.6 l 0.3,0.4 c 0,0.1 1.6,2.4 1.7,2.3 l -0.1,-1.2 -0.2,-1.2 0.7,2.7 0.6,2.8 1.1,1.1 1.2,1.2 c 0.2,0 0.2,-0.6 0,-2.2 0,-1.6 0,-1.7 -1.3,-4.2 L 23.3,10.7 21.7,9.1 c -2.3,-2.4 -2.2,-2.3 0.4,0 L 22.8,9.8 22.5,8.5 C 21.5,5.8 21.4,5 22.3,7.4 l 0.5,1.3 0.4,-1.8 0.4,-1.7 -0.3,2 c -0.4,2 -0.5,2 0.5,3.6 0.3,0.6 0.4,0.6 0.5,0.4 0.3,-0.5 0.5,-1.7 0.3,-2.4 V 8.2 l 0.1,0.5 0.2,0.6 0.1,-0.4 -0.2,1.4 -0.4,1.7 0.8,1.4 0.8,1.4 0.3,-1 c 0.6,-2 0.8,-3.5 0.8,-5 V 7.4 l 0.1,1.1 c 0,0.7 0.1,1.3 0.2,1.3 L 28.1,8.6 28.8,7.4 28,9 a 7.5,7.5 0 0 0 -0.9,2.5 c -0.2,1 -0.2,1.1 0.3,1.7 l 0.5,0.7 v -0.6 c 0,-1.2 0.1,-1.5 0.1,-0.7 0,1.2 0,1.2 0.3,0.9 0.2,-0.3 0.2,-0.3 0,0.3 v 1.5 c 0.2,0.5 0.4,1 0.5,0.9 l 0.6,-0.7 0.5,-0.7 0.1,-1.7 a 18,18 0 0 0 0.2,-2 l 0.1,0.5 a 1415.8,1415.8 0 0 1 0,2.7 l 0.8,-1.2 C 31.6,12.5 31.9,11.9 32,12 l -1.2,2 c -1.2,1.9 -1.4,2.3 -0.8,1.8 l 0.5,-0.3 c 0.2,0 -0.1,0.2 -0.6,0.6 a 7,7 0 0 0 -2,1.9 l -1.2,1.3 -0.2,1.7 a 134.6,134.6 0 0 1 -0.6,3.6 25.9,25.9 0 0 0 6,-4.2 c 0.5,-0.4 2,-4.9 2,-6 0.2,-1.1 0.2,-1.2 -0.7,-2.4 l -0.6,-1 0.6,0.8 0.7,0.8 c 0.2,0 0.2,-1 0,-1.8 -0.2,-0.9 -0.1,-1 0.1,-0.2 l 0.2,0.6 0.3,-0.6 0.3,-0.6 -0.3,0.8 c -0.2,0.8 -0.3,3 -0.1,3.1 l 0.9,-1.7 c 0.4,-1 0.8,-1.7 0.9,-1.6 L 35.6,12 A 11,11 0 0 0 35,13.6 l 0.8,-0.1 a 4,4 0 0 0 1.7,-1.4 l 1,-1.1 -0.7,1 -0.8,1 1,-0.4 c 1.5,-0.5 1.1,-0.2 -0.8,0.6 -2.6,1 -2.6,1 -3.1,2.8 l -0.4,1.6 1,-0.4 c 0.6,-0.4 1,-0.8 1.6,-1.5 0.9,-1 1,-1.1 0.3,-0.1 -0.5,0.7 -0.5,0.8 0.1,0.5 0.7,-0.3 0.9,-0.4 0.3,0 -2,1.1 -3.3,2 -3.5,2.4 -0.2,0.2 -0.3,0.6 -0.3,0.9 v 0.4 l 2,-0.8 2.2,-1 1,-1.4 0.7,-1.2 -0.6,1.1 a 15,15 0 0 0 -0.6,1.2 c 0,0.3 0.7,-0.1 1.5,-1 a 9,9 0 0 1 1,-0.8 L 39.7,16.7 39,17.5 A 45.8,45.8 0 0 0 41.5,17 l -2.1,0.8 1.3,0.2 1.4,0.1 h -1.8 c -1.8,0 -1.8,0 -2.8,0.4 l -1.1,0.6 c 0,0 0.4,0.2 1,0.2 0.6,0.1 0.8,0.2 0.5,0.2 l -1.2,-0.1 c -0.8,-0.1 -1,0 -3.6,1.2 -0.2,0.1 -0.9,0.6 -1.4,1.2 l -1,1 0.8,0.1 0.8,0.2 1,-0.7 a 16.5,16.5 0 0 0 1.2,-1 v 0.3 l 1,-0.4 0.9,-0.2 v 0.3 h -0.1 c -0.6,0 -1.5,0.3 -2.5,1 l -1,0.7 1.5,0.2 1.4,0.2 h -1.4 c -1.5,0 -1.5,0 -0.4,0.6 l 0.4,0.4 -1,-0.5 c -0.9,-0.6 -1,-0.6 -2.1,-0.6 l -1.6,0.1 a 2881.6,2881.6 0 0 0 -3.3,2.1 c -0.2,0 0.2,0.3 2.1,1.2 l 2,1 h 1.3 l 1.4,-0.2 4,-2.6 c 0.2,-0.1 0.8,-1 1.3,-1.8 1,-1.6 1.4,-2 0.7,-0.8 l -0.4,0.8 0.8,-0.3 0.7,-0.1 -0.8,0.4 c -0.9,0.3 -1.6,1 -1.6,1.4 0,0.1 1,0 2.3,-0.3 A 18,18 0 0 1 42.2,24 c -0.5,0 -2.5,0.6 -2.4,0.7 l 0.6,0.3 c 0.4,0.2 0.4,0.2 -0.3,0 -1.3,-0.4 -2.2,-0.1 -4.3,1.4 l -1.7,1.3 c 0,0 0.2,0.2 0.5,0.2 0.4,0.1 0.7,0 1.9,-0.7 a 19.9,19.9 0 0 0 2,-1 l -0.4,0.3 -0.5,0.3 0.3,0.2 c 0.2,0.1 0.2,0.1 -0.2,0 -0.3,0 -0.6,0.1 -1.3,0.6 l -0.8,0.5 1.7,0.4 a 6,6 0 0 0 2.8,0.2 c 1.4,-0.2 1.5,-0.1 0.2,0.1 l -1,0.2 0.7,0.3 C 40.5,29.5 40,29.4 37.6,29 34.3,28.3 33,28.2 32,28.4 l -0.7,0.2 0.9,0.7 c 0.5,0.4 1.2,0.9 1.6,1 1,0.3 2.8,0.3 3.8,0 l 0.4,-0.2 -0.5,0.3 v 0.1 c -0.1,0.1 0.4,0.3 1.7,0.5 A 9,9 0 0 1 41,31.3 L 38.7,31.1 C 36.8,30.8 35.5,30.8 35.5,31 l 1,0.7 c 0.9,0.7 1,0.7 3,0.8 l -0.4,0.1 -1,0.1 c 0,0.2 0.3,0.4 2.6,1.4 1.1,0.5 0.7,0.4 -0.7,-0.1 a 23,23 0 0 0 -1.2,-0.5 c -0.2,0 0.8,1.6 1.1,1.8 0.3,0.2 0.3,0.2 0.1,0.2 -0.3,-0.2 -0.3,-0.2 0.2,0.9 0,0.2 -0.3,-0.4 -0.9,-1.4 -1,-1.7 -1,-1.7 -2.1,-2.4 -1.2,-0.7 -1.4,-0.7 -1.1,-0.3 0,0.2 0,0 -0.3,-0.3 a 3.3,3.3 0 0 0 -2,-1.2 c -0.4,0 -0.4,0 0.4,1.3 0.6,1 1,1.4 2,2.3 1.6,1.3 1.6,1.4 0.2,0.4 l -1,-0.7 1.1,2.2 a 28.2,28.2 0 0 1 0.5,1 l -0.7,-1 v 2 L 36.1,37.1 V 35.8 L 34.3,33 c -1.2,-2 -1.8,-2.8 -2.2,-3 -0.7,-0.5 -0.8,-0.5 -0.6,0.3 0.3,1 0.6,1.6 1.1,2 0.4,0.3 0.4,0.4 0.1,0.2 l -0.3,-0.2 0.4,1 c 0.4,0.7 0.4,0.8 0,0.4 l -0.3,-0.6 -0.8,-1.6 -0.3,0.7 -0.3,0.6 0.2,-0.8 c 0.2,-0.7 0.2,-0.8 0,-1.8 l -0.8,-1.4 a 25,25 0 0 0 -4.8,-2.2 v 2 a 12.5,12.5 0 0 0 1.7,5.4 52.7,52.7 0 0 0 6.2,3 18,18 0 0 1 -1.6,-0.5 c -0.3,-0.2 -0.4,-0.1 -0.5,0.1 -0.1,0.8 0.2,1.2 1.4,2.1 l 1,1 -1.1,-0.8 c -0.6,-0.5 -1.1,-0.8 -1.2,-0.7 0,0.5 0.2,2.3 0.4,2.5 a 28.7,28.7 0 0 1 0.7,1.3 c -1,-1.3 -1,-1.3 -1,-0.1 v 0.6 L 31.6,41 A 40,40 0 0 0 31,36.3 26,26 0 0 0 28,35 c -0.3,0 -0.3,0 0,0.7 l 0.4,1.3 c 0.2,0.6 0.8,1.1 1.6,1.6 l 0.4,0.4 v 1 l -0.1,-0.5 c -0.1,-0.4 -0.3,-0.7 -0.8,-1 l -0.6,-0.4 0.7,2.8 A 2142.5,2142.5 0 0 1 29.4,41 l -1,-2.7 -1.2,3 0.3,1 c 0.5,1.4 1,2.7 0.8,2.6 L 27.7,43.4 C 27,41.5 26.7,41.4 27,43.1 V 44 43.5 l -0.2,-0.6 c -0.1,0 -0.4,0.5 -0.6,1.2 l -0.4,1 z m 1.9,-27.6 0.7,-0.7 -0.2,-1.1 c -0.1,-1.1 -0.9,-2.8 -1.2,-2.8 -0.2,0 -0.5,2.4 -0.5,3.3 0,0.9 0.3,2 0.4,2 z M 15.8,42 c 0,-0.2 0,-0.2 0.1,-0.1 v 0.3 z m 8.2,0 c 0,-0.2 0.1,-0.2 0.1,-0.1 v 0.3 c -0.1,0 -0.1,0 0,-0.2 z m 0.2,-6.7 0.3,-0.2 c 0,0 0,0.2 -0.2,0.3 -0.3,0.2 -0.3,0.2 0,-0.1 z m 17.7,-0.8 h 0.3 c 0,0.1 0,0.2 -0.2,0.1 -0.1,0 -0.2,0 0,0 z m -5.6,-1.7 c 0,-0.2 0,-0.2 0.1,0 0.2,0.2 0.2,0.3 0,0.3 z M 8.5,24 h 0.3 c 0,0 0,0.1 -0.2,0 -0.2,0 -0.2,0 0,0 z M 20,26.4 h 0.3 c 0,0.1 0,0.2 -0.2,0.1 -0.1,0 -0.2,0 0,0 z m -3.6,-2 c 0,0 0.1,-0.1 0.1,0 v 0.3 c 0,0 -0.1,0 0,-0.2 z m 24.7,5.2 0.4,0.1 c 0.1,0.1 0,0.1 -0.2,0 H 41 Z m -28.3,-9 0.3,0.1 c 0.1,0.1 0.2,0.2 0,0.1 a 0.8,0.8 0 0 1 -0.3,-0.2 z"
       style="fill:#000000;stroke-width:0.538646"
       transform="matrix(0.24353784,0.68393371,-0.68393371,0.24353784,68.731442,30.566971)"
       id="path3" />
    <path
       d="m -3.7,37.9 -1.5,-9.2 c 0,-0.5 -0.2,-0.8 -1,-1.5 l -1,-0.8 v 3.1 c 0,3 0,3 0.4,3.5 l 0.4,0.4 -0.4,-0.2 c -0.5,-0.3 -0.5,-0.3 -0.4,0.7 0,0.5 0,1 -0.1,0.9 l -0.2,-2.1 -0.2,-4.6 -0.2,-2.4 -1.7,-1.5 -1.6,-1.4 -0.2,0.8 -0.2,0.8 0.6,1 a 4,4 0 0 0 1.6,1.6 c 1,0.5 1,0.8 0,0.2 l -0.6,-0.3 0.3,1.7 0.4,1.7 -0.5,-1.5 c -0.8,-2.3 -0.8,-2.3 -1.4,-3 l -0.5,-0.8 -0.4,1.4 c -0.4,1.4 -0.4,1.5 0,3 l 0.4,1.7 -0.5,-1.3 -0.4,-1.3 -0.2,1 c -0.4,1.8 -0.4,1.2 0,-0.7 0.3,-1.8 0.3,-2 0.1,-1.9 -0.2,0.3 -1.6,1.3 -1.6,1.2 l 1,-0.9 1,-0.9 0.2,-2 0.4,-2 -1.6,-2.2 -1.6,-2.3 -1.6,3.2 c -0.1,0.6 0.3,1.6 1.1,2.7 l 0.3,0.4 c -0.6,-0.5 -0.7,-0.4 -0.4,0.2 v 0.5 c -0.1,0 -0.4,-0.5 -0.5,-1 l -0.6,-1.5 -0.3,-0.5 -0.5,1 -0.6,2.7 c -0.2,1.6 -0.2,1.7 0.4,3.5 0.6,1.9 0.6,2 1.7,3 a 74.7,74.7 0 0 0 4.8,4.5 l -1.8,-1.3 c 0,0 0.2,0.8 0.7,1.7 1,2.2 1,2.7 0,0.7 -1,-2.3 -1,-2.3 -1.3,-0.4 -0.4,2.2 -0.5,2 -0.2,-0.3 l 0.2,-2 -1.7,-1.6 c -1.2,-1 -1.6,-1.3 -1.6,-1 l 0.1,3.7 c 0.3,4 0.1,4 -0.2,0.3 l -0.4,-2.7 a 7,7 0 0 0 -1,2 c 0,0.4 0.6,2.9 0.4,2.6 -0.2,-0.5 -0.3,-0.5 -0.7,0.3 -0.3,0.5 -0.3,0.4 0,-0.3 0.4,-0.8 0.4,-1 0.2,-1.8 l -0.2,-0.8 -0.5,0.9 a 96,96 0 0 1 0.8,-1.9 c 1,-2 1,-2.3 0.7,-3.5 -0.4,-1.4 -1,-2.8 -1.1,-2.7 l -1.4,2.4 a 16.8,16.8 0 0 0 -2,5.6 l -0.9,3.2 0.6,-3.1 0.6,-3.2 -0.9,0.7 c -0.7,0.7 -0.9,1 -1,2 l -0.3,1 v -1 c 0.2,-0.8 0.1,-0.9 -0.3,-0.4 l -1.6,1.7 0.7,-1 c 0.7,-0.8 0.8,-1 0.5,-1 -0.3,0 -0.2,-0.1 0.3,-0.3 1.2,-0.6 2.5,-2.3 4,-5.1 1.2,-2.3 1.4,-2.8 1.5,-4 v -1.3 c 0,0 -2.6,1 -3.4,1.5 -0.7,0.4 -0.8,1 -0.4,2.3 l 0.2,1 -0.3,-0.8 -0.4,-0.9 v 0.7 a 50.8,50.8 0 0 0 -0.3,0.7 c 0,-0.7 0,-0.7 -0.3,-0.4 l 0.1,-0.4 c 0.3,-0.7 0.6,-1.5 0.5,-1.7 0,-0.3 -0.9,0.3 -2,1.5 -1,1 -1.3,1.4 -1.8,2.7 -0.6,1.6 -0.7,1.7 -0.4,2.8 0.2,1 0.2,1 0,0.2 l -0.5,-0.8 -0.1,0.2 -0.3,1 -0.4,0.7 0.2,-0.7 0.6,-1.6 c 0.3,-0.9 0.2,-1 -0.8,-0.2 l -0.8,0.4 1,-0.7 c 0.7,-0.6 1,-1 1.2,-1.5 0.5,-1.2 0.4,-1.3 -1,-0.8 -1.8,0.6 -1.6,0.4 0.3,-0.3 1.2,-0.5 1.5,-0.7 2.3,-1.6 l 1,-1.2 c 0,-0.2 -1,-0.2 -1.9,-0.2 -0.3,0 -0.2,0 0.2,-0.1 l 0.7,-0.2 -0.4,-0.5 c -0.4,-0.3 -0.4,-0.3 0.2,0 1.1,1 1.2,1 4.4,-0.8 l 3,-1.6 1,-2.5 c 0.6,-1.6 0.9,-2.5 0.7,-2.5 -0.4,0.1 -1.4,1.2 -2,2 l -0.3,0.5 c 0,-0.2 0,-0.2 -0.8,0.3 -0.2,0.1 0,0 0.3,-0.4 0.6,-0.6 0.6,-0.6 0.2,-0.6 -0.4,0 -0.3,0 0.1,-0.2 0.5,-0.1 1.2,-0.8 1.1,-1.1 h -1.1 c -1.5,0 -1.4,-0.2 0.2,-0.3 1,0 1.4,-0.1 2,-0.5 1,-0.5 1.3,-1 1,-1.2 -0.4,-0.3 -3.3,-0.5 -5.3,-0.4 -1.9,0 -2,0 -2.8,0.6 -1.2,0.8 -1.3,1 -0.8,1.6 0.6,0.8 0.6,1 0,0.3 l -0.5,-0.6 v 0.6 l -0.2,0.6 v -0.7 c 0.2,-0.9 0,-0.9 -0.9,0 -0.6,0.4 -1,1 -1.9,3.3 a 122.5,122.5 0 0 0 -2.1,5 9,9 0 0 0 0.3,-1.4 l -1.6,0.6 c -0.2,0.1 -0.4,0.6 -0.4,1 l -0.3,0.8 v -0.8 l 0.2,-0.8 -0.3,0.1 c -0.2,0 -0.5,0.2 -0.6,0.4 -0.2,0.1 -0.3,0.2 -0.3,0 l 0.5,-0.4 a 85.6,85.6 0 0 0 3,-1.4 l 0.4,-1.5 h -1 c -0.8,0.1 -1,0.2 -1.5,0.7 l -0.5,0.5 0.3,-0.5 c 0.2,-0.2 0.3,-0.5 0.2,-0.5 l -1,-0.1 c -1,0 -0.7,-0.2 0.8,-0.2 l 2,-0.3 1,-0.2 0.7,-2 0.6,-1.9 -1.3,0.2 -1.3,0.2 -2,1.7 -2,1.8 c 0,0 0.6,-0.8 1.5,-1.6 l 1.6,-1.7 -4,0.8 -4,1 3,-1 c 2.8,-0.9 2.9,-1 2.4,-1.1 l -1,-0.2 c -0.5,0 -1.6,-0.4 -1.4,-0.5 l 1.8,0.3 c 1.6,0.4 1.6,0.4 3.9,0 l 2.2,-0.6 -0.5,-0.3 -1,-0.5 c -0.4,0 -0.5,-0.1 -0.4,-0.2 l -0.2,-0.6 c -0.4,-0.5 -0.1,-0.4 0.4,0.2 l 1.6,1 1,0.4 1.6,-1.2 c 0.9,-0.6 1.5,-1.2 1.5,-1.3 a 13,13 0 0 0 -3.8,-2 c -1.4,-0.3 -3,0.2 -4.9,1.4 -2,1.2 -2,1.3 -0.9,0.3 l 1.2,-1 h -2.2 c -1.3,0 -2.2,-0.2 -2.2,-0.2 h 0.7 c 0.5,0 0.7,-0.1 0.8,-0.3 0,-0.1 0,-0.1 0.2,0 0.2,0.4 3.3,0.2 4.2,-0.2 l 0.7,-0.4 -1.8,-0.8 C -34.2,12 -34.6,12 -35.6,12 h -0.3 l 0.8,-0.3 -1.1,-0.6 -1.3,-0.6 c 0,0 0.8,0.2 1.8,0.7 4.5,1.9 5.6,2.2 6.3,2.2 h 0.7 c 0,-0.3 -1.8,-2.3 -2.1,-2.5 l -1.5,-0.2 c -0.5,0 -1,0 -1.2,-0.2 0,-0.2 0,-0.2 0.2,0 0.3,0 2.1,0 2,-0.1 L -31.7,9.7 A 2,2 0 0 0 -33,9 c -3.3,-0.5 -4,-0.6 -3.9,-0.7 0.2,0 -0.2,-0.3 -0.8,-0.7 l -0.6,-0.4 1.2,0.6 c 0.6,0.4 1.4,0.6 2.6,0.8 1.9,0.2 2.1,0.2 1.8,0 l -1.7,-2 3.4,3.4 3.3,3.4 2.1,1 c 1.8,1 2.3,1 3,1 a 36.5,36.5 0 0 1 4,-0.2 l -1,-0.6 a 9,9 0 0 1 -1.2,-0.7 l 1,0.4 1.3,0.5 c 0.1,0 -0.1,-0.7 -0.4,-1 L -19.1,13 c 0,-0.3 0.1,-0.2 0.4,0.6 l 0.6,1.3 c 0.1,0.2 2,0.7 2.3,0.6 0,0 0,-1 -0.5,-2.5 l -0.6,-2.4 -2.3,-1.1 -2.4,-1.1 h -1.7 l -1.7,0.2 -1,0.8 c -1.5,1.3 -1.7,1.4 -0.6,0.3 0.6,-0.5 1,-1 0.9,-1 -0.1,-0.1 -0.8,-0.2 -1.6,-0.1 L -29,8.4 c 0,-0.2 0,-0.2 0.5,-0.1 l 2.8,-0.1 -1,-0.8 c -2.2,-1.6 -2.3,-1.7 -1.2,-1 l 1,0.5 -0.3,-0.5 c -0.2,-0.5 -0.2,-0.5 0.3,0 1,1.4 2.2,1.8 4,1.6 0.9,-0.2 0.9,-0.2 0,-1.3 -0.3,-0.5 -1.2,-1.2 -3,-2.2 C -27.2,3.6 -28,3 -27.7,3.1 l 0.5,0.3 a 14,14 0 0 0 3.2,1.7 c 0,0 -0.3,-0.7 -0.8,-1.3 a 57.3,57.3 0 0 1 1.4,1.4 l 2.2,2.7 1.9,0.8 c 1,0.4 1.9,0.7 2,0.6 0.2,0 -0.1,-0.8 -1.2,-2.5 -1,-1.7 -1,-1.8 -3.8,-4 l -2.9,-1.9 -2.7,-1 c -4,-1.4 -3.7,-1.4 0.5,-0.1 l 1.2,0.3 -1.1,-1.2 c -2.6,-2.6 -3.2,-3.5 -0.9,-1.2 l 1.3,1.2 -0.5,-2.2 -0.4,-2.2 0.6,2.4 c 0.7,2.6 0.6,2.5 2.6,3.8 0.7,0.5 0.8,0.5 0.8,0.2 0,-0.7 -0.4,-2.3 -1,-2.9 l -0.4,-0.6 0.5,0.5 0.5,0.5 v -0.5 l 0.5,1.7 0.4,2.2 1.7,1 1.7,1.1 -0.2,-1.2 c -0.5,-2.7 -1,-4.4 -2,-6 -0.4,-1 -0.8,-1.7 -0.7,-1.8 l 0.8,1.3 0.8,1.3 c 0,0 0.2,-0.8 0.2,-1.8 V -6 -4 c 0,1.6 0.1,2.3 0.4,3.3 0.4,1.3 0.4,1.3 1.3,1.8 l 0.9,0.4 -0.3,-0.6 c -0.6,-1.4 -0.7,-1.8 -0.3,-1 0.7,1.4 0.8,1.5 0.9,0.9 l 0.1,0.4 c 0.1,0.7 0.3,1 1,1.7 0.4,0.5 0.8,0.8 0.9,0.7 l 0.3,-1.1 0.2,-1 -0.8,-2 a 22.4,22.4 0 0 0 -1,-2.5 1768,1768 0 0 1 1.9,3.7 c 0.1,0 0.3,-0.8 0.4,-1.8 L -14.8,-2.8 -15,0 c -0.3,2.7 -0.2,3.3 0,2.5 l 0.5,-0.6 c 0.2,-0.2 0,0.2 -0.4,0.9 -0.4,0.7 -0.9,2 -1.2,3.3 l -0.6,2 0.7,2 a 168,168 0 0 1 1.3,4.5 32.3,32.3 0 0 0 4.6,-8 c 0.1,-0.8 -0.6,-6.6 -1,-7.8 -0.6,-1.4 -0.6,-1.5 -2.2,-2.4 l -1.3,-0.8 1.2,0.6 1.2,0.5 c 0.2,0 -0.4,-1.3 -1,-2 -0.7,-0.9 -0.7,-1 0,-0.3 l 0.5,0.6 v -1.6 l 0.2,1 c 0.1,1 1.2,3.7 1.5,3.6 v -2.4 a 7,7 0 0 1 0.2,-2.3 l 0.2,2 0.2,2 0.8,-0.6 c 0.5,-0.6 0.8,-1 1.1,-2.5 l 0.6,-1.7 -0.3,1.5 -0.3,1.5 1,-1 c 1.3,-1.3 1,-0.8 -0.7,1.2 -2.4,2.6 -2.3,2.5 -2,4.8 l 0.4,2 c 0,0.1 0.5,-0.3 0.9,-1 C -8.4,0.9 -8.1,0 -8,-1 c 0.4,-1.6 0.6,-1.9 0.3,-0.3 -0.2,1 -0.1,1.2 0.4,0.5 0.6,-0.8 0.8,-0.9 0.3,-0.2 a 21.4,21.4 0 0 0 -2.6,4.6 l 0.1,1.2 0.2,0.6 1.9,-2.1 2,-2.4 0.2,-2 c 0,-1 0.1,-1.8 0.2,-1.8 v 3.3 c 0,0.3 0.6,-0.5 1,-1.9 L -3.3,-3 -3.6,-1.8 C -3.8,-1 -4,-0.5 -3.8,-0.5 a 57.2,57.2 0 0 0 2.5,-2 l -2,2.2 1.7,-0.6 A 9,9 0 0 1 0,-1.5 l -2,1 c -2,0.8 -2.2,0.9 -3,2 a 6,6 0 0 0 -1,1.2 l 1.2,-0.2 c 0.8,-0.3 1,-0.3 0.7,-0.1 a 7,7 0 0 1 -1.4,0.5 c -1,0.3 -1.1,0.5 -3.4,3.4 a 13,13 0 0 0 -1,2 l -0.6,1.7 1,-0.3 1.1,-0.3 0.6,-1.2 a 20.6,20.6 0 0 0 1,-1.9 v 0.4 l 1,-1 0.9,-0.7 c 0,0.2 0,0.3 0.2,0.3 0.2,0 0.1,0 -0.1,0.1 -0.7,0.2 -1.5,1 -2.3,2.5 L -7.7,9 -6,8.5 -4.3,7.9 -5.8,8.7 c -1.7,0.8 -1.7,0.8 -0.2,1 l 0.7,0.1 H -6.7 C -8,9.7 -8.1,9.7 -9.4,10.3 c -1,0.4 -1.6,0.8 -1.7,1 a 3601.8,3601.8 0 0 0 -2.6,4.1 c -0.1,0.2 0.4,0.3 3,0.3 h 3 L -6.4,15 -5,14 c 0.2,-0.1 2.7,-4.3 3,-5.1 0.2,-0.3 0.4,-1.5 0.6,-2.8 0.3,-2.3 0.5,-3 0.3,-1.2 v 1 L -0.3,5.3 C 0,4.9 0.3,4.6 0.4,4.7 l -0.7,0.9 c -0.8,0.8 -1.3,2 -1,2.5 L 1.1,6.4 A 22.6,22.6 0 0 1 3.3,5 C 2.7,5.4 0.8,7.1 1,7.2 h 0.9 c 0.6,0 0.6,0 -0.4,0.2 -1.6,0.3 -2.5,1 -4,4 l -1.2,2.3 h 0.6 c 0.5,-0.2 0.9,-0.5 1.9,-1.9 A 24.9,24.9 0 0 0 0.3,9.5 c 0,0 0,0.3 -0.3,0.6 l -0.4,0.6 H 0 c 0.4,0 0.4,0.1 0,0.2 -0.4,0.2 -0.8,0.5 -1.3,1.3 l -0.6,1.2 2.2,-0.6 c 1.9,-0.5 2.3,-0.6 3.2,-1.3 1.4,-1 1.7,-1 0.3,0 l -1,0.8 h 1 l -3,0.8 c -4,1.1 -5.6,1.7 -6.6,2.6 l -0.6,0.5 1.4,0.3 c 0.7,0.2 1.8,0.3 2.3,0.2 A 9,9 0 0 0 1.5,14.6 C 2,14.1 2.2,14 2,14.3 L 1.5,14.8 V 15 c 0,0.2 0.6,0 2.2,-0.5 C 5,14.1 6,14 6,14 l -2.6,1 c -2.3,0.6 -3.8,1.3 -3.7,1.6 l 1.4,0.3 c 1.4,0.2 1.6,0.2 4,-0.8 l -0.5,0.3 -1,0.8 H 7 c 1.6,0 1,0.2 -0.8,0.3 H 4.7 c -0.3,0.2 1.7,1.5 2.2,1.6 h 0.2 c -0.4,0 -0.5,0 0.7,1 L 6,19 C 4,17.5 4,17.5 2.3,17.4 0.7,17.2 0.4,17.3 1,17.7 L 0.5,17.5 c -0.9,-0.4 -2.2,-0.5 -3,-0.3 -0.3,0.2 -0.3,0.2 1.2,1.2 A 9,9 0 0 0 2.3,20 c 2.4,0.6 2.6,0.7 0.4,0.3 L 1.2,20.2 3.6,22 a 35.2,35.2 0 0 1 1,0.9 C 3.9,22.3 3.3,22 3.3,22.1 l 0.6,1.1 0.6,1.1 -0.9,-1.2 -0.8,-1.4 -3.4,-2 a 16.8,16.8 0 0 0 -4.2,-2.3 c -1,-0.2 -1,0 -0.4,0.7 0.8,1 1.6,1.5 2.3,1.6 0.7,0.2 0.7,0.2 0.3,0.2 h -0.6 l 1,0.8 c 0.9,0.7 1,0.8 0.4,0.5 l -0.7,-0.5 a 7,7 0 0 0 -1.9,-1.3 v 1.8 -1 c -0.3,-1 -0.3,-1.1 -1.2,-2 a 5.2,5.2 0 0 0 -1.5,-1.3 36,36 0 0 0 -6.7,0.2 l 1.2,2.2 a 15.6,15.6 0 0 0 4.8,5.2 65.7,65.7 0 0 0 8.5,0 l -2,0.3 c -0.4,0 -0.5,0 -0.4,0.4 0.2,0.9 0.8,1.2 2.6,1.6 l 1.7,0.5 c 0,0 -0.8,0 -1.7,-0.3 h -1.7 a 9,9 0 0 0 1.7,2.6 35.8,35.8 0 0 1 1.5,1 c -1.7,-0.9 -1.8,-0.8 -1,0.5 l 0.3,0.7 -1,-1.6 a 50,50 0 0 0 -3.2,-5 c -0.1,-0.1 -3.8,0.1 -4.2,0.2 -0.4,0.1 -0.4,0.1 0.3,0.8 l 1.2,1.3 a 4,4 0 0 0 2.6,0.9 c 0.4,0 0.8,0.1 0.7,0.2 l 0.4,0.6 0.3,0.5 c 0,0 -0.3,-0.1 -0.5,-0.4 -0.3,-0.5 -0.6,-0.6 -1.4,-0.8 h -1 l 2.4,2.7 A 2673.2,2673.2 0 0 1 0.8,34 68.8,68.8 0 0 1 -4.4,29 l 0.3,4 c 0,0 0.3,0.5 0.8,0.9 l 2.4,2.4 -1.6,-1.3 c -1.8,-1.7 -2,-1.7 -1,0.1 l 0.6,1 -0.4,-0.5 -0.5,-0.6 v 1.6 a 8,8 0 0 1 0,1.4 z m -13,-32.2 0.4,-1.1 -0.8,-1.2 c -0.8,-1.1 -2.4,-2.6 -2.9,-2.5 -0.2,0 0.8,3 1.3,4 0.5,1 1.4,2.2 1.6,2.1 z m 0,34.1 c 0,-0.2 0,-0.2 0.2,-0.1 V 40 l -0.1,-0.2 z m 9.3,-4.5 c 0,-0.2 0,-0.2 0,0 0.2,0 0.2,0.2 0.2,0.3 z m -3.4,-7.6 c 0,-0.2 0.2,-0.4 0.3,-0.4 l -0.1,0.5 c -0.2,0.4 -0.2,0.4 -0.2,0 z M 8.7,17.2 H 9 8.8 c -0.2,0.1 -0.2,0.1 -0.1,0 z m -7.3,1.1 c -0.2,-0.2 -0.2,-0.2 0.1,0 0.4,0.1 0.4,0.2 0.2,0.3 z m -36,5.4 c 0.2,0 0.3,-0.1 0.4,0 h -0.2 c -0.2,0.1 -0.2,0 -0.1,0 z M -20.3,20 h 0.3 l -0.2,0.1 h -0.1 z m -5.1,-0.2 c 0,-0.2 0,-0.2 0,0 l 0.1,0.3 z M 5,12.2 5.6,12.1 5.3,12.2 Z m -36.7,5.3 c -0.3,-0.1 0,-0.2 0.4,0 h 0.2 a 1,1 0 0 1 -0.6,0 z"
       style="fill:#000000;stroke-width:0.672573"
       transform="matrix(0.24353784,0.68393371,-0.68393371,0.24353784,68.731442,30.566971)"
       id="path4" />
    <path
       d="m 32.968955,41.870426 2.380525,3.497915 c 0.15109,0.271863 0.279737,0.301368 0.756427,0.463412 a 1.773547,1.7206214 0 0 0 0.559962,0.154787 24.593185,23.859283 0 0 0 -1.420151,-2.645094 l -0.264775,-0.139796 0.211918,0.02225 c 0.249811,-0.02177 0.249811,-0.02177 0.04586,-0.411186 l -0.15857,-0.352649 0.498647,0.852351 1.012256,1.86627 0.551501,0.9699 0.991276,0.280067 0.953381,0.324089 -0.03741,-0.403928 -0.0753,-0.359905 -0.491652,-0.323616 c -0.317632,-0.257345 -0.529549,-0.279593 -0.953382,-0.324088 -0.55248,-0.074 -0.643232,-0.147528 -0.09075,-0.07353 l 0.370977,-0.07305 -0.483684,-0.690779 -0.521579,-0.646757 0.551991,0.52195 c 0.793833,0.867339 0.793833,0.867339 1.187254,1.036642 l 0.36301,0.294107 -0.06733,-0.727069 C 38.696235,44.343693 38.65086,44.30693 38.220032,43.7337 l -0.476202,-0.609993 0.46124,0.448422 0.423345,0.492444 -0.09026,-0.521476 c -0.195977,-0.756575 -0.05237,-0.565498 0.15857,0.352648 0.241354,0.793339 0.210941,0.918146 0.324625,0.786081 l 0.470184,-0.81464 -0.242817,0.550509 -0.242818,0.55051 0.210941,0.918145 0.210941,0.918145 1.149848,0.632715 a 8.2765527,8.0295665 0 0 0 1.149847,0.632715 l 0.01691,-1.630227 c -0.02992,-0.323142 -0.392931,-0.617253 -0.92248,-0.896845 -0.264774,-0.139797 -0.348045,-0.13254 -0.181508,-0.147054 0.264774,0.139797 0.340563,0.05175 0.113685,-0.132064 -0.181507,-0.147052 -0.22688,-0.183819 -0.105716,-0.235098 l 0.408383,0.330874 0.468721,0.529207 0.22688,0.183819 0.0309,-0.572756 c 0.01545,-0.286379 -0.07482,-0.807856 -0.240867,-1.241289 -0.1885,-0.675788 -0.1885,-0.675788 -0.800826,-1.396075 -0.688119,-0.632241 -0.688119,-0.632241 -1.384208,-0.897319 a 35.352704,34.29772 0 0 0 -2.943414,-0.965006 l 1.067065,0.192022 -0.642744,-0.595477 c -0.824248,-0.742532 -0.967855,-0.933608 -0.151089,-0.271863 0.907517,0.735274 0.907517,0.735274 0.658682,-0.13885 -0.256317,-0.95491 -0.165565,-0.881382 0.136127,0.110292 0.08278,0.440691 0.28673,0.830102 0.332106,0.866866 l 1.044133,0.397616 c 0.688608,0.184291 0.900524,0.206539 0.893042,0.125754 a 45.698395,44.334678 0 0 0 -0.747482,-1.726475 l 0.642241,1.043435 0.114659,-1.027964 -0.718044,-0.955383 c 0.181506,0.147053 0.219397,0.103033 0.265261,-0.308153 0.06083,-0.249613 0.02293,-0.205592 0.01496,0.161572 -0.008,0.367164 0.04488,0.484713 0.279249,0.749317 l 0.241842,0.345389 0.03839,-0.49197 c 0.08376,-0.455207 0.08376,-0.455207 0.07579,-0.08805 l -0.03139,1.020705 c -0.07676,0.983943 0.02146,1.138255 0.399438,1.593936 0.38545,0.536466 0.929962,0.97763 0.967856,0.933609 l 0.175486,-1.277579 a 8.099198,7.8575043 0 0 0 -0.254365,-2.746706 c -0.07481,-0.807855 -0.263311,-1.483644 -0.263311,-1.483644 l 0.384475,1.432365 0.339099,1.3956 0.257781,-0.388938 c 0.167029,-0.462466 0.197441,-0.587273 0.114659,-1.027964 l -0.09026,-0.521476 0.120677,0.396669 c 0.08278,0.440691 0.166053,0.433434 0.1815,0.147057 l 0.409847,-1.012975 -0.114172,0.580015 c -0.129133,0.418443 -0.121652,0.499229 -4.87e-4,0.447949 0.121166,-0.05128 0.09075,0.07353 -0.06083,0.249615 -0.378945,0.440218 -0.667627,1.401912 -0.782774,2.877825 -0.01642,1.182276 -0.03188,1.468654 0.134176,1.902087 l 0.264286,0.587747 c 0,0 0.962326,-0.938973 1.182212,-1.28389 0.227367,-0.264131 0.159547,-0.543251 -0.263799,-1.035695 l -0.287215,-0.382154 0.317632,0.257346 0.325112,0.33813 -0.113197,-0.315882 a 24.061121,23.343097 0 0 0 -0.02993,-0.323143 c 0.15109,0.271864 0.15109,0.271864 0.174023,0.06627 0.07579,-0.08805 0,0 0.06034,0.198332 -0.008,0.367164 0.02944,0.771092 0.12019,0.844618 0.09075,0.07353 0.303156,-0.352173 0.576387,-1.02749 a 2.9559117,2.8677023 0 0 0 0.243793,-1.446407 c -0.07481,-0.807855 -0.03692,-0.851876 -0.369512,-1.270794 -0.287215,-0.382154 -0.287215,-0.382154 -0.05286,-0.11755 l 0.408384,0.330873 0.03041,-0.124808 -0.08278,-0.440691 0.04586,-0.411185 0.03741,0.403927 0.06733,0.72707 c 0.03741,0.403926 0.120677,0.396669 0.370976,-0.07305 l 0.227367,-0.264132 -0.288194,0.513747 a 1.773547,1.7206214 0 0 0 -0.258268,0.836887 c 0.05237,0.565498 0.09775,0.602261 0.681126,0.103506 0.621275,-0.542777 0.545486,-0.454733 -0.151576,0.17609 -0.378945,0.440218 -0.492629,0.572283 -0.652176,1.115534 l -0.144585,0.704823 0.772366,-0.270916 c 0.121167,-0.05128 0.121167,-0.05128 -0.07579,0.08805 l -0.189472,0.220109 0.219397,0.103032 c 0.257293,0.05901 0.219399,0.103033 -0.03789,0.04402 -0.681126,-0.103506 -0.726502,-0.140269 -1.780068,1.173126 l -0.977777,1.225352 0.07433,1.255804 c 0.02944,0.771091 0.112219,1.211782 0.150114,1.167761 0.113684,-0.132065 0.394396,-0.726596 0.394883,-1.174546 l 0.136616,-0.337658 c 0.01496,0.161571 0.05286,0.117551 0.227367,-0.264131 0.07579,-0.08805 0.04537,0.03677 0.02244,0.242357 -0.174509,0.38168 -0.174509,0.38168 -0.01545,0.286378 0.159047,-0.09532 0.166542,-0.01452 -0.03041,0.124807 -0.151577,0.176091 -0.326089,0.557767 -0.273232,0.675316 l 0.567931,-0.212377 c 0.560447,-0.293167 0.567929,-0.212378 -0.113684,0.132064 -0.401388,0.197865 -0.515072,0.329929 -0.742441,0.594058 -0.303156,0.352174 -0.356501,0.682575 -0.106689,0.6608 0.136126,0.110292 1.393153,-0.365744 2.279201,-0.768724 0.80278,-0.395721 0.80278,-0.395721 1.098455,-0.828683 0.371463,-0.521004 0.363982,-0.60179 0.0085,-0.815113 -0.355525,-0.213325 -0.363007,-0.294109 -0.0075,-0.08079 l 0.264783,0.139794 -0.06782,-0.27912 c -0.05286,-0.117549 -0.02244,-0.242356 0.01545,-0.286378 l 0.113196,0.315883 c 0.03741,0.403927 0.120677,0.39667 0.363496,-0.153837 0.181991,-0.300895 0.197442,-0.587273 0.168493,-1.806313 a 57.994987,56.264319 0 0 0 -0.0579,-2.43808 l 0.14312,0.639025 c 0,0 0.431801,-0.32267 0.5759,-0.579541 0.07579,-0.08805 0.01545,-0.286378 4.87e-4,-0.447949 a 1.1823647,1.1470809 0 0 1 -0.03741,-0.403928 l 0.113197,0.315884 0.0753,0.359906 0.416841,-0.48424 c 0.09075,0.07352 -0.02293,0.205593 -0.136616,0.337658 a 40.555108,39.344876 0 0 0 -0.985261,1.144565 c 0,0 0.05985,0.646283 0.150603,0.719811 l 0.401388,-0.197864 c 0.318134,-0.190578 0.431802,-0.32267 0.492629,-0.572282 l 0.136616,-0.337658 -0.06083,0.249615 0.02992,0.323141 0.446766,-0.161098 c 0.484658,-0.205121 0.370976,-0.07305 -0.272743,0.227368 l -0.878569,0.483766 -0.310637,0.271388 0.0444,0.932663 c 0.007,0.528734 0.08978,0.969425 0.127671,0.925404 l 0.560446,-0.293167 0.515072,-0.329928 0.485635,-1.101019 c 0.318612,-0.638545 0.485641,-1.10101 0.56891,-1.108268 l -0.371951,0.968953 -0.371952,0.968952 c 0.04537,0.03676 0.757397,-0.432496 1.537738,-1.070566 l 1.530256,-1.15135 -1.045597,0.946231 c -1.090971,0.909467 -1.090971,0.909467 -0.833679,0.968479 l 0.446765,-0.161097 0.711539,-0.0213 -0.825223,0.153366 c -0.741952,0.146109 -0.741952,0.146109 -1.688828,0.798704 l -0.863605,0.645336 0.295188,0.01499 c 0.174021,0.06627 0.423833,0.04449 0.544998,-0.0068 0.166542,-0.01452 0.249811,-0.02177 0.257292,0.05901 -0.07579,0.08804 -0.03041,0.124807 0.143608,0.191077 0.264774,0.139797 0.181507,0.147052 -0.166541,0.01451 l -0.893044,-0.125754 -0.582892,0.0508 -0.43229,0.770618 c -0.257781,0.388938 -0.43229,0.770618 -0.386915,0.807382 a 5.9118234,5.7354046 0 0 0 2.028415,0.148948 c 0.696577,-0.182872 1.287439,-0.600843 1.833413,-1.503525 0.629244,-0.909942 0.667139,-0.953964 0.348532,-0.315411 l -0.318607,0.638553 0.96932,-0.41024 1.022177,-0.292689 -0.363497,0.153837 c -0.204437,0.05853 -0.280224,0.14658 -0.272743,0.227368 l -0.03789,0.04402 c -0.1815,-0.147057 -1.506837,0.497808 -1.809993,0.849983 l -0.265261,0.308152 0.923455,9.48e-4 c 0.840186,0.0082 0.968832,0.03771 1.408116,-0.204172 0.401387,-0.197864 0.439283,-0.241883 0.16654,-0.01451 l -0.272742,0.227368 0.590374,0.02998 0.673644,0.02272 -0.96135,0.04307 c -2.301158,0.07841 -2.800779,0.121968 -3.126381,0.231786 l -0.318133,0.190578 1.399658,0.610941 a 1.773547,1.7206214 0 0 0 0.696577,-0.182872 c 0.242329,-0.102561 0.484659,-0.205122 0.575412,-0.131593 0.04537,0.03677 0.04537,0.03677 -0.07579,0.08805 -0.128647,-0.02951 -0.976801,0.329454 -0.886049,0.402982 l 0.310149,0.176559 c 0.257293,0.05901 0.431315,0.125281 0.71902,0.05949 l 1.802024,-0.482819 c -0.07579,0.08805 0.136127,0.110291 0.476691,0.162043 l 0.385938,0.08852 -0.71902,-0.05949 c -0.295187,-0.01499 -0.673644,-0.02272 -1.203681,0.145635 -0.855635,0.278174 -1.022176,0.292689 -0.802779,0.39572 a 56.457913,54.773114 0 0 1 -1.036633,-0.316831 l -2.050372,-0.839253 -1.135372,-0.0232 c -0.968832,-0.03771 -1.135373,-0.02319 -1.453492,0.167409 a 17.321642,16.804736 0 0 1 -1.726722,0.842727 l 0.507104,0.03723 0.719021,0.05949 -0.499623,0.04355 -0.673645,-0.02272 0.332597,0.418915 0.272255,0.220583 c 0.06033,0.198336 0.01496,0.161571 -0.302669,-0.09578 l -0.499134,-0.4044 c -0.09075,-0.07353 -0.923456,-9.48e-4 -1.120411,0.138376 l 0.718046,0.955384 0.710564,0.874597 1.218642,0.01593 1.264019,0.0527 0.719509,-0.388463 0.681613,-0.344443 0.242818,-0.55051 c 0.470185,-0.814639 0.50808,-0.858662 0.227367,-0.26413 l -0.152066,0.624036 c 0,0 0.370976,-0.07305 0.689096,-0.263658 l 0.73447,-0.226894 c 0.09075,0.07353 0.09075,0.07353 -0.113684,0.132065 l -1.249544,0.55682 0.605337,0.19155 0.771878,0.177033 -0.55248,-0.074 0.181506,0.147052 c 0.226879,0.183819 0.181501,0.147057 -0.121167,0.05128 -0.703569,-0.345862 -1.286462,-0.295056 -2.005971,0.09341 -0.356013,0.234625 -0.348532,0.31541 0.181016,0.595003 0.264774,0.139797 0.779359,0.25782 1.755672,0.376316 0.719021,0.05949 1.195711,0.221528 1.067065,0.192023 l -0.295187,-0.01499 c -0.04537,-0.03677 -1.695333,-0.177979 -1.687852,-0.09719 l 0.582405,0.397142 0.620299,0.35312 -1.49041,-0.684467 -1.497892,-0.765253 -0.915974,0.07984 -0.999245,0.0871 c -0.07579,0.08805 0.196441,0.308641 0.998269,0.808801 0.726014,0.58822 0.77139,0.624983 2.398415,0.971792 l 1.672402,0.383574 1.332327,-0.11613 c 1.960596,-0.130172 1.877324,-0.122914 -0.15158,0.176084 l -0.582893,0.0508 0.70357,0.345863 c 1.604093,0.552402 2.004996,0.802489 0.574924,0.316356 l -0.779359,-0.257819 0.665187,0.837835 0.619811,0.801069 -0.793833,-0.867339 c -0.75594,-0.911361 -0.718045,-0.955383 -1.823005,-1.103384 -0.385938,-0.08852 -0.423832,-0.04449 -0.370975,0.07305 0.113196,0.315884 0.581918,0.845091 0.975337,1.014393 l 0.272255,0.220583 -0.264774,-0.139797 -0.348044,-0.132538 0.143608,0.191077 -0.559473,-0.602736 -0.619812,-0.801069 -0.938419,-0.162517 -0.938418,-0.162518 0.340077,0.499701 c 0.680153,0.999403 1.284998,1.638904 1.965637,2.19036 l 0.635262,0.514691 -0.53703,-0.360379 c -0.317653,-0.257323 -0.627803,-0.433883 -0.665697,-0.389861 l 0.279249,0.749316 0.279248,0.749317 -0.422856,-0.940393 a 4.4338675,4.3015535 0 0 0 -0.793343,-1.31529 c -0.37797,-0.455681 -0.423346,-0.492445 -0.885075,-0.492917 l -0.507103,-0.03724 0.272255,0.220582 c 0.544511,0.441165 0.642743,0.595477 0.279737,0.301368 -0.544511,-0.441164 -0.544511,-0.441164 -0.522066,-0.198808 0.06033,0.198336 0.06033,0.198336 -0.136128,-0.110292 l -0.680637,-0.551453 c -0.302668,-0.09578 -0.605337,-0.191551 -0.597857,-0.110764 l 0.09027,0.521476 0.128157,0.477455 0.733495,0.669004 a 10.641282,10.323728 0 0 0 0.831729,0.823317 L 46.419235,56.13044 a 836.99595,812.01859 0 0 1 -1.225149,-0.99262 l 0.241355,0.793339 c 0.08278,0.440691 0.241355,0.793339 0.158084,0.800597 L 45.140742,55.46822 c -0.407407,-1.226772 -0.513122,-1.461869 -0.51361,-1.013921 l -0.05335,0.3304 c -0.07579,0.08805 -0.05286,-0.117546 -0.04488,-0.484712 a 4.1382764,4.0147832 0 0 0 -0.104254,-1.578946 l -0.135153,-1.00619 -0.695601,-0.713025 a 79.573143,77.198546 0 0 1 -1.406164,-1.587624 15.311623,14.854698 0 0 0 -0.367885,4.185381 c -0.008,0.367164 1.465527,2.681857 1.964661,3.086258 0.423346,0.492444 0.468722,0.529208 1.354284,0.574176 l 0.681125,0.103507 -0.590374,-0.02998 -0.628268,0.01405 c -0.07579,0.08805 0.377969,0.45568 0.816765,0.661746 0.484172,0.24283 0.491653,0.323615 0.05286,0.117551 l -0.348044,-0.132539 0.15857,0.352649 0.15857,0.352648 -0.249324,-0.426175 C 44.903455,57.89132 43.943078,57.038499 43.821913,57.089778 l 0.430339,1.021179 c 0.302177,0.543726 0.468234,0.977157 0.384962,0.984415 l -0.4079,-0.778828 a 6.5030057,6.3089451 0 0 0 -0.498646,-0.852349 l -0.25778,0.388937 a 2.3647293,2.2941618 0 0 0 -0.0089,1.263063 l 0.120189,0.844619 -0.188496,-0.67579 -0.150603,-0.719811 -0.197442,0.587272 c -0.341538,0.844146 -0.326089,0.557767 0.0309,-0.572757 0.5315,-1.512203 0.5315,-1.512203 -0.09579,-2.394058 l -0.574437,-0.764306 -0.197441,0.587272 c -0.04586,0.411185 -0.01593,0.734328 0.07433,1.255804 0.112707,0.763833 0.120188,0.844619 -0.06831,0.16883 -0.128158,-0.477456 -0.173534,-0.514219 -0.264773,-0.139797 -0.129134,0.418443 -0.159548,0.54325 -0.113685,0.132064 0.258757,-1.284836 0.343003,-2.187993 0.237288,-2.42309 -0.01496,-0.161572 -0.15857,-0.35265 -0.294696,-0.462941 l -0.181507,-0.147053 -0.394883,1.174545 -0.379922,1.336117 0.256317,0.954909 0.279249,0.749316 -0.271768,-0.668531 a 8.8677351,8.6031069 0 0 0 -0.317127,-0.705257 c -0.136126,-0.110291 -0.219885,0.344917 -0.114659,1.027965 a 5.320641,5.1618642 0 0 1 -0.01594,0.734327 l -0.09776,-0.602264 -0.09774,-0.602262 a 27.076151,26.268153 0 0 0 -0.720485,1.284362 l 0.432779,-1.218567 -0.583381,0.498756 -0.5759,0.579542 0.682103,-0.792393 c 0.682101,-0.792392 0.682101,-0.792392 0.879543,-1.379665 l 0.144585,-0.704822 c 0,0 -0.24233,0.102561 -0.469698,0.366691 -0.272742,0.227368 -0.393909,0.278644 -0.280225,0.14658 l 0.500111,-0.491496 c 0.348533,-0.31541 0.378946,-0.440218 0.819693,-2.025948 0.03041,-0.124807 0.0688,-0.616779 -0.01399,-1.05747 l -0.07481,-0.807855 -0.348532,0.315411 -0.39391,0.278645 -0.06132,0.697564 a 9.7545086,9.4634176 0 0 0 -9.78e-4,0.895898 l -0.136126,-0.110292 -0.197441,0.587272 -0.2503,0.469724 -0.136126,-0.110291 0.03789,-0.04402 c 0.227366,-0.264131 0.43229,-0.770618 0.493604,-1.468181 l 0.06132,-0.697565 -0.659171,0.5868 -0.621275,0.542777 0.530524,-0.616305 c 0.568418,-0.660326 0.568418,-0.660326 -0.120677,-0.396669 l -0.333082,0.02903 0.605826,-0.256399 c 0.613306,-0.175614 0.6512,-0.219636 1.06804,-0.703875 l 0.560936,-0.741112 a 1703.551,1652.7142 0 0 0 0.297626,-2.224757 c 0.07579,-0.08805 -0.211916,-0.02225 -1.340295,0.483293 l -1.211649,0.512799 -0.492629,0.572283 -0.439772,0.689832 -0.336008,2.716727 c -0.03041,0.124808 0.150602,0.719812 0.324136,1.23403 0.347069,1.028437 0.376994,1.351579 0.09775,0.602262 l -0.211431,-0.470195 -0.16703,0.462465 -0.219885,0.344917 0.121653,-0.49923 c 0.204923,-0.506487 0.152553,-1.071985 -0.02895,-1.219039 -0.04537,-0.03677 -0.378945,0.440217 -0.735447,1.122791 a 10.641282,10.323728 0 0 1 -0.659657,1.034749 c 0.189473,-0.220111 0.675109,-1.321129 0.591838,-1.313872 l -0.363496,0.153839 c -0.242329,0.10256 -0.242329,0.10256 0.113685,-0.132066 0.67413,-0.425231 0.879056,-0.931715 0.994203,-2.407628 l 0.05432,-1.226298 c 0,0 -0.166542,0.01451 -0.280226,0.14658 -0.196954,0.139322 -0.26526,0.308153 -0.402364,1.09376 a 11.764529,11.413455 0 0 0 -0.304133,1.248073 l 0.01545,-0.286378 0.05334,-0.330401 -0.204433,0.05854 c -0.121166,0.05128 -0.121166,0.05128 0.07579,-0.08805 0.113685,-0.132065 0.181991,-0.300894 0.220374,-0.792866 l 0.07628,-0.535992 -0.825711,0.601315 a 3.547094,3.4412428 0 0 0 -1.151798,1.159083 c -0.439773,0.689832 -0.523043,0.69709 -0.121167,0.05128 l 0.288193,-0.513746 -0.401389,0.197864 c -0.280224,0.14658 -0.04537,-0.03676 1.045597,-0.946232 1.568151,-1.195373 2.106156,-1.730892 2.394349,-2.244637 l 0.174511,-0.381681 -0.658682,0.138851 c -0.370977,0.07305 -0.863118,0.197388 -1.060072,0.336712 -0.515072,0.329928 -1.197174,1.122318 -1.439992,1.672827 l -0.06083,0.249615 0.05334,-0.330401 -0.04537,-0.03676 c -0.0075,-0.08079 -0.287706,0.0658 -0.871086,0.564553 a 5.320641,5.1618642 0 0 1 -0.818228,0.682101 l 0.962325,-0.938974 c 0.856124,-0.726122 1.348753,-1.298405 1.258001,-1.371933 l -0.696577,0.182872 c -0.658681,0.13885 -0.696575,0.182872 -1.499842,1.026544 l 0.106202,-0.212851 0.33357,-0.476981 c -0.09075,-0.07353 -0.295188,-0.01499 -1.620521,0.629874 -0.643721,0.300418 -0.446765,0.161098 0.310637,-0.271389 a 13.597194,13.191431 0 0 0 0.681614,-0.344444 c 0.07579,-0.08805 -1.02917,-0.236044 -1.233605,-0.177507 -0.204438,0.05853 -0.204438,0.05853 -0.128647,-0.02951 0.204437,-0.05853 0.204437,-0.05853 -0.484172,-0.24283 -0.09075,-0.07353 0.295187,0.01499 0.976313,0.118496 1.150335,0.184765 1.150335,0.184765 1.884806,-0.04213 0.772366,-0.270914 0.848155,-0.358958 0.552968,-0.373947 -0.09075,-0.07353 0,0 0.249811,-0.02177 a 1.9509017,1.8926835 0 0 0 1.302401,-0.439272 c 0.151577,-0.17609 0.151577,-0.17609 -0.741464,-0.30184 -0.681126,-0.103506 -1.014208,-0.07447 -1.801536,0.03487 -1.196199,0.22642 -1.241575,0.189656 -0.257293,-0.05901 l 0.696577,-0.182872 -1.415109,-0.324562 a 16.671342,16.173841 0 0 1 -0.643231,-0.147528 l 0.71902,0.05949 -0.907518,-0.735274 0.6203,0.353121 0.589887,0.477928 1.952625,0.236991 c 1.362253,0.207012 1.952626,0.236991 2.194956,0.134432 0.492142,-0.124335 0.530036,-0.168356 0.09124,-0.374422 -0.567442,-0.235571 -0.953381,-0.324088 -1.324357,-0.251035 -0.287706,0.0658 -0.333082,0.02903 -0.128647,-0.02951 l 0.204438,-0.05853 -0.605337,-0.19155 c -0.469209,-0.08126 -0.514585,-0.118022 -0.181506,-0.147052 l 0.385938,0.08852 1.029171,0.236044 -0.20395,-0.389409 -0.15857,-0.352649 0.287215,0.382155 c 0.241843,0.345389 0.287216,0.382155 0.816766,0.661747 l 0.938419,0.162517 a 14.779558,14.338512 0 0 0 2.817207,-1.304243 l -0.907517,-0.735275 a 7.3897792,7.1692558 0 0 0 -3.094505,-1.23687 31.155309,30.225582 0 0 0 -3.710737,1.626439 10.641282,10.323728 0 0 1 0.833193,-0.520526 c 0.204437,-0.05853 0.196956,-0.139323 0.144098,-0.256873 -0.325113,-0.338132 -0.6203,-0.353121 -1.483418,-0.155733 l -0.832704,0.07258 0.779847,-0.19013 c 0.454247,-0.08031 0.779847,-0.19013 0.772366,-0.270916 -0.22688,-0.183818 -1.119435,-0.757521 -1.285975,-0.743005 a 16.966933,16.460611 0 0 1 -0.855136,-0.169776 c 0.968829,0.0377 0.968829,0.0377 0.424318,-0.403465 l -0.272255,-0.220582 0.718533,0.507433 a 23.647293,22.941618 0 0 0 2.360033,1.463764 15.370741,14.912052 0 0 0 1.726723,-0.842726 c 0.113683,-0.132065 0.113683,-0.132065 -0.317632,-0.257345 l -0.741504,-0.30184 c -0.348045,-0.13254 -0.802291,-0.05223 -1.332327,0.116129 l -0.333081,0.02903 -0.453759,-0.367636 0.264774,0.139797 c 0.219398,0.103032 0.431315,0.12528 0.756915,0.01546 l 0.408871,-0.117074 -1.535786,-0.721232 a 1266.6082,1228.8104 0 0 1 0.03041,-0.124808 l 1.604094,0.552403 -0.90654,-1.631174 -0.567442,-0.235572 C 32.725161,43.316829 31.945802,43.05901 32.066967,43.00773 l 0.908005,0.287325 c 1.127404,0.390357 1.286464,0.295055 0.401388,-0.197864 l -0.408383,-0.330874 0.226879,0.183819 0.348045,0.132538 c 0.0379,-0.04402 -0.0753,-0.359905 -0.317144,-0.705294 L 32.923584,41.833656 Z M 44.7727,52.85362 l 0.05237,0.565498 0.574924,0.316357 c 0.537029,0.360379 1.611576,0.633187 1.725259,0.501122 0.07579,-0.08805 -0.899548,-1.102437 -1.307931,-1.433311 -0.408383,-0.330873 -1.021201,-0.603208 -1.059096,-0.559187 z M 38.119684,38.571159 c 0.09075,0.07353 0.09075,0.07353 0.0075,0.08079 l -0.136127,-0.110292 z m -3.107352,3.609785 c 0.09075,0.07353 0.05286,0.117551 0.0075,0.08079 l -0.136127,-0.110291 c 0.03789,-0.04402 0.03789,-0.04402 0.09075,0.07352 z m 2.964395,2.551211 -0.02293,0.205593 c 0,0 -0.09075,-0.07353 -0.06033,-0.198336 0.02293,-0.205592 0.02293,-0.205592 0.04537,0.03677 z m -6.344326,8.085965 -0.113684,0.132065 c -0.04537,-0.03676 -0.09075,-0.07353 0.03041,-0.124807 0.03789,-0.04402 0.07579,-0.08805 0,0 z m 2.893485,-1.840236 c 0.09075,0.07353 0.09075,0.07353 -0.0379,0.04402 -0.166541,0.01451 -0.211916,-0.02225 -0.136127,-0.110291 z m 14.527756,-9.00285 -0.113683,0.132064 c 0,0 -0.04537,-0.03676 0.07579,-0.08804 0.07579,-0.08805 0.07579,-0.08805 0,0 z m -5.446891,4.180176 -0.113685,0.132065 c -0.04537,-0.03677 -0.09075,-0.07352 0.03041,-0.124808 0.03789,-0.04402 0.07579,-0.08805 0,0 z m 2.27172,-0.84951 c 0,0 0.0075,0.08079 -0.0379,0.04402 l -0.136127,-0.110293 c 0,0 0.03789,-0.04402 0.09075,0.07353 z m -11.719495,8.961667 -0.196955,0.139322 c -0.08327,0.0073 -0.04537,-0.03677 0.07579,-0.08805 l 0.113684,-0.132064 z m 14.807982,-9.149431 -0.159047,0.09532 c -0.08327,0.0073 -0.166541,0.01451 -0.04537,-0.03676 a 0.47294587,0.45883237 0 0 1 0.204437,-0.05853 z"
       style="fill:#000000;stroke-width:0.313651"
       id="path5" />
  </g>
</svg>
