<svg xmlns="http://www.w3.org/2000/svg" width="288" height="288" viewBox="0 0 76.2 76.2"><path d="M-45.6 3a16 15.6 85.3 0 0 .7 12.3 16 15.6 85.3 0 0 6 6.7 14 13.8 83.4 0 0 .4 11.5 14 13.8 83.4 0 0 4 5A17.4 17.4 19.6 0 0-36 42a17.4 17.4 19.6 0 0-.5 10 17.4 17.4 19.6 0 0-11 10.7 17.4 17.4 19.6 0 0 10.6 22.2 17.4 17.4 19.6 0 0 9.9.5 15.4 15.3 19.6 0 0 9 8.8 15.4 15.3 19.6 0 0 16.7-4.3 15.4 15.3 19.6 0 0 19-9.5 15.4 15.3 19.6 0 0-4-16.2 15.4 15.3 19.6 0 0 1-.8 15.4 15.3 19.6 0 0 12.7-10.1 15.4 15.3 19.6 0 0 .8-5.6 11 11.3 8.6 0 0 2.2-3.3 11 11.3 8.6 0 0 .8.4A11 11.3 8.6 0 0 41 51a11 11.3 8.6 0 0 11-11.4 11 11.3 8.6 0 0-2.4-7.2 11 11.3 8.6 0 0 2.7-7.5 11 11.3 8.6 0 0-6.5-10.3A12.5 12.8 9.3 0 0 33.6 4.3a12.5 12.8 9.3 0 0-7 2.2 12.5 12.8 9.3 0 0-9.8-5 12.5 12.8 9.3 0 0-1.4.2 14 13.8 83.4 0 0-.5-1.1A14 13.8 83.4 0 0 2-7.4a16 15.6 85.3 0 0-19.3-4.8A16 15.6 85.3 0 0-24-5.9 16 15.6 85.3 0 0-37.7-6a16 15.6 85.3 0 0-8 9z" style="fill:#00ca00;fill-opacity:1;stroke-width:1.45298" transform="rotate(70.4 12.7 64) scale(.726)"/><path d="m17 54.6 4.6-5.8c.3-.4.3-.6.3-1.5v-1a41.6 41.6 0 0 0-3.7 3.8v.5l-.1-.4c-.1-.4-.1-.4-.7.2l-.5.4 1.1-1.2 2.5-2.7 1.4-1.4-.1-1.8V42l-.7.3-.5.3-.3 1a3 3 0 0 0 0 1.7c.2 1 .1 1-.1.2l-.2-.6-.8 1.2-.8 1.1.6-1.1c.9-1.8.9-1.8 1-2.5l.1-.7-1 .6c-1 .5-1 .6-1.8 1.6l-.7 1.1.5-1 .6-1-.8.5c-1.2.8-1 .5.4-.4 1.3-.8 1.4-1 1.2-1l-1.6-.2h1l1.1.1 1.3-.9 1.4-.9.5-2.1.4-2.2-2.7.8c-.5.3-.9 1-1 2.1l-.1.4c0-.6-.1-.6-.4 0l-.2.2c0-.1 0-.5.3-.9.2-.3.5-.8.5-1.1l.2-.5-1 .3-1.8 1.1c-1 .8-1 .8-1.8 2.2-.8 1.4-.8 1.4-.8 2.6a59.8 59.8 0 0 0 0 5.3c0-1-.2-1.7-.2-1.8l-.7 1.3c-.7 1.8-1 2.1-.3.5.7-2 .7-1.9-.6-1-1.4 1-1.4.8.1-.3.7-.4 1.2-.9 1.3-1v-2c0-1.2-.1-1.5-.3-1.4a77.3 77.3 0 0 0-2.4 2.1l1.4-1.6-1.8.4-1.2 1.8c.1-.4 0-.5-.6-.3-.4 0-.4 0 .2-.2.6-.2.8-.3 1.1-.8l.4-.6-.8.2c-.8.2-.8.2-.2 0a77 77 0 0 1 1.7-.6c1.7-.5 1.9-.6 2.5-1.5.6-1 1-2 1-2.1l-2.3.5c-1.9.5-2.3.7-4.3 1.9l-2.3 1.2 2-1.3 2.3-1.4-1-.1c-.7 0-1 0-1.7.4l-.7.4.6-.4c.6-.4.6-.5 0-.5H5.2l1-.1c.8 0 1-.1.8-.3-.1-.2 0-.2.4 0 1 .4 2.7.2 5.1-.5 2-.5 2.5-.7 3.1-1.3.5-.3.8-.6.8-.7 0 0-2-1-2.7-1.2-.6-.2-1 0-1.6 1l-.5.8.3-.7.4-.7-.5.3a40.7 40.7 0 0 0-.5.3c.3-.4.3-.4 0-.4-.2 0 0 0 .3-.2l1.3-.6c.1-.2-.7-.4-2-.4-1 0-1.5 0-2.6.5-1.2.5-1.3.5-1.8 1.3-.4.7-.5.7-.2.1l.3-.7h-.2l-.7.3-.6.3.5-.3 1.2-.6c.7-.3.6-.4-.3-.6l-.7-.1h1c.7.2 1 .2 1.6 0 1-.4.9-.5-.2-1-1.3-.7-1-.7.4 0 1 .4 1.2.5 2.2.4l1.2-.1-.9-1.1c-.2-.2-.1-.2.2 0l.5.3v-.5.1c.2 1.2.3 1.2 3 2.1l2.6.9 2-.8c1.3-.5 2-.9 1.9-1H19c-.4.1-.6.2-.5 0l-.6-.2h.4c.7 0 .7 0 .5-.3-.2-.2-.2-.2.1 0 .4.2 1.2.2 1.3 0l-.6-.7c-.9-.8-.7-.8.2 0 .6.6 1 .8 1.5 1 .8.2 1.3.1 1.2-.2a12 12 0 0 0-2.7-3.3c-1-1-1-1-1.9-1.3-1.1-.2-1.2-.2-1.3.5-.2.7-.3.8-.2.1v-.6l-.3.3-.4.2c-.1 0 0-.2.4-.4.6-.3.5-.4-.5-.5-.6-.1-1.1 0-3 .7a98.1 98.1 0 0 0-4 1.5l1-.5c0-.1-.8-.5-1.4-.6 0 0-.4 0-.7.2a2 2 0 0 1-.6.4l.5-.4.5-.4-.2-.1-.6-.2c-.2 0-.3 0-.2-.1h.6a68.6 68.6 0 0 0 2.4 1l1-.6c.1 0-.1-.3-.5-.6-.5-.4-.7-.5-1.1-.5h-.6.4l.4-.2-.4-.7c-.6-.7-.3-.5.5.4l1.3 1 .6.4L13 31l1.5-.7-.8-.7-.8-.6-2.2-.2-2.1-.3h3.6s-1.1-.9-2.6-1.8l-2.8-1.8L9 26c2 1.1 2.2 1.2 2 .8l-.4-.7c-.3-.3-.7-1.2-.5-1.1l.7 1.2c.7 1.2.7 1.2 2.3 2.2l1.5 1-.1-.4-.3-.9c-.2-.2-.2-.4 0-.4l.2-.3c0-.6.1-.4 0 .2 0 .4.2 1 .4 1.5l.3.9 1.5.3 1.6.1a10 10 0 0 0-1-3.3c-.5-1-1.6-1.7-3.4-2.1-1.8-.5-1.9-.5-.6-.4l1.1.2-1.1-1.4a9.2 9.2 0 0 1-1.1-1.3l.4.4c.3.3.4.4.5.3l.2.1c-.1.4 1.7 2 2.4 2.3l.6.2-.5-1.4c-.4-1.3-.5-1.6-1.1-2.1-.6-.5-.6-.6-.2-.3l.6.4s0-.5-.3-1l-.3-1 .6 1.3c1.4 3.7 1.7 4.5 2.1 5l.5.3c0-.2.3-2.3.2-2.6a3 3 0 0 0-.7-1l-.5-.7c0-.2.1-.2.2 0 0 .2 1 1.3 1.1 1.2l.1-.7c0-.4 0-.7-.3-1.1L16 19.1v-.9c-.1-.5-.2-.8 0-.6l.2 1.1a5 5 0 0 0 1 1.9c.8 1.2 1 1.4 1 1l.2-2-.2 3.9-.2 3.8.6 1.8c.5 1.5.6 1.8 1 2.2a29.3 29.3 0 0 1 2.4 2.2l-.2-.8-.3-1.1c0-.2.2.1.4.7.1.6.3 1 .4 1l.4-.7c0-.1.1-.4.3-.5.2-.2.2-.1-.1.5l-.4 1c0 .3.6 1.6.9 1.7l1.2-1.6 1-1.7-.6-2-.6-2-1-.9-1-1h-1.1c-1.6-.2-1.7-.3-.5-.2l1.1-.1-.8-1-.8-1c0-.2 0-.2.3.2l1.6 1.6v-1l-.2-1.4.2 1 .2-.5c.2-.4.2-.4 0 .2-.1 1.3.3 2.3 1.4 3.1.6.5.6.5.8-.6.1-.5 0-1.4-.3-3l-.3-1.8.2.5.7 2.7.3-1.1.3-1.3s0 1.2-.3 2.8l-.4 2.8.6 1.5.7 1.6c.2 0 .5-.6.9-2.1s.4-1.6.1-4.4l-.2-2.9-1-2.1c-1.3-3-1.2-3 .4.2l.4.9.1-1.3c.1-3 .3-3.8.3-1.2v1.4l1-1.5 1-1.4-1 1.6c-1.2 1.9-1.1 1.8-.8 3.7 0 .6.1.7.3.5.5-.3 1-1.4 1.1-2.1 0-.4.2-.6.2-.6v1.1l.2-.3c.2-.1-.2.4-.7 1.3l-1 1.4.3 1.6.3 1.6.6-.9c1.3-1.7 2-3 2.4-4.4l.6-1.4s0 .5-.3 1.2a5 5 0 0 0-.3 1.2l1.1-.9 1-.8-1 1.1c-1 1-1.4 1.3-1.8 2-.6 1-.6 1-.3 1.8l.2.8.2-.6c.5-1 .6-1.4.4-.6-.4 1.1-.4 1.2 0 .9l-.2.3c-.3.4-.4.7-.5 1.5l.1 1 .9-.5.7-.5.7-1.5a18 18 0 0 0 .9-2l-.1.7a1415 1415 0 0 1-1 2.5l1.2-.8 1.2-.8-1.9 1.5c-1.7 1.3-2 1.6-1.4 1.4h.6l-.7.2c-.7.1-1.7.6-2.6 1l-1.5.9-.9 1.5a134.6 134.6 0 0 1-1.8 3.2 25.9 25.9 0 0 0 7.2-1.8c.5-.3 3.5-4 4-4.9.5-1 .5-1 .1-2.5l-.2-1.2.3 1 .4 1c.1.1.5-1 .6-1.7.1-.9.2-1 .2-.2v.7l.4-.5.5-.5-.5.7c-.5.7-1.4 2.8-1.3 2.9l1.5-1.3 1.4-1.2-1 1.1-1.1 1.3s.3.2.7.2c.7 0 1-.2 2.1-.7l1.4-.7-1 .7-1.1.6h1c1.5.1 1.1.2-1 .3-2.8 0-2.7 0-3.8 1.5l-1 1.3h1c.8 0 1.4-.3 2.1-.8 1.2-.6 1.4-.7.4 0-.8.5-.8.6-.1.5.7 0 .9 0 .2.1a23 23 0 0 0-4.1 1l-.6.7-.2.5 2.2-.1 2.4-.2c.2 0 .8-.4 1.4-1l1.1-.8-.9.9-1 .9c-.1.2.7 0 1.7-.4a9 9 0 0 1 1.2-.5s-.3.3-.9.5l-.9.5a45.8 45.8 0 0 0 2.5.5h-2.3l1.3.6 1.2.6-1.7-.6c-1.6-.7-1.7-.8-2.8-.7l-1.2.2.8.6.5.3-1-.5c-.8-.4-1-.4-4-.1l-1.7.5-1.3.6.8.4.7.5 1-.3a16.5 16.5 0 0 0 1.7-.5l-.3.2 1.2.1c.5 0 1 0 .8.1v.3c.2.1 0 .1-.1 0-.5-.3-1.5-.3-2.7 0l-1 .3 1.2.7 1.2.7-1.3-.5c-1.4-.6-1.4-.5-.6.5l.2.4-.7-.8c-.6-.8-.7-.9-1.8-1.3-.7-.3-1.3-.5-1.5-.4a2874.4 2874.4 0 0 0-3.8.7c-.2 0 0 .4 1.5 2l1.6 1.7 1.1.3 1.4.3 4.6-1c.3 0 1.1-.6 2-1.2 1.4-1.1 2-1.4.8-.5-.3.3-.6.5-.5.6h1.5c0 .1-.4.2-1 .2-.8 0-1.8.4-2 .8l2.4.5a18 18 0 0 1 2 .4l-2.5-.2.4.6-.3-.2c-1-.8-2-.8-4.5-.1l-2 .6s.1.2.4.3c.3.3.7.3 2 0a19.9 19.9 0 0 0 2.3-.2l-.5.1-.6.1.2.3c.2.2.2.2-.1 0h-1.5l-1 .3 1.5 1a6 6 0 0 0 2.6 1.1c1.4.3 1.4.5.1.2l-1-.2.6.5c.4.4-.1.1-2.1-1-3-1.9-4.1-2.5-5.1-2.6h-.7l.6 1 1.1 1.4c.8.6 2.5 1.2 3.6 1.3h.4-.5l-.2.2s.4.4 1.6 1a9 9 0 0 1 1.5 1l-2-1c-1.7-1-3-1.5-3-1.3l.6 1c.6 1 .7 1 2.6 2 .3 0 .1 0-.4-.2l-1-.2c-.1 0 .2.4 2 2.2.8.9.4.6-.6-.4l-1-.8c-.2-.2.1 1.7.4 2 .1.3.2.3 0 .2-.2-.2-.2-.2-.2 1l-.3-1.6c-.3-2-.3-2-1.1-3-.9-1.1-1-1.2-1-.7l-.1-.4c-.3-.7-1-1.5-1.5-1.8-.3-.2-.3-.1 0 1.3.1 1.2.3 1.6 1 3 1 1.6 1 1.8 0 .3l-.6-1c0 .1 0 1.2.3 2.4a28.2 28.2 0 0 1 0 1.2c0-.8-.2-1.3-.3-1.2l-.3 1-.3.8.2-1.1.3-1.3-.6-3c-.4-2.3-.7-3.3-1-3.8-.4-.6-.5-.6-.6.2-.2 1 0 1.7.3 2.3.2.4.2.4 0 .2l-.3-.3.1 1v.4l-.2-.6c0-.2-.1-1.9-.2-1.8l-.6.5-.4.5.4-.7c.5-.6.5-.7.6-1.7l-.1-1.6c-.3-.4-3.6-3.8-3.8-3.8l-.6 2a12.5 12.5 0 0 0-.4 5.6 52.7 52.7 0 0 0 4.7 5 18 18 0 0 1-1.3-1.1c-.2-.2-.3-.2-.5 0-.4.6-.3 1.1.5 2.4l.7 1.3-.8-1.2-.8-1a7 7 0 0 0-.6 2.5 28.7 28.7 0 0 1 .2 1.4c-.4-1.5-.5-1.6-.8-.4l-.3.6.4-1.5a40 40 0 0 0 1.2-4.6 26 26 0 0 0-2.5-2.3c-.3-.2-.3-.2-.3.6V48c0 .6.3 1.3.9 2 .2.3.3.5.2.6l-.1.5-.1.4V51c0-.4 0-.7-.4-1.2l-.5-.6-.3 2.8a2141.7 2141.7 0 0 1-.2.1v-2.9l-2.2 2.5v1c0 1.4-.1 2.8-.2 2.6v-1.6c0-2-.2-2.1-.6-.5l-.3.9v-.6c.2-.2.2-.5.1-.5l-.9.8-.8.8zm11.6-25.2 1-.4.2-1.1c.2-1 .1-2.9-.2-3-.1-.2-1.3 2-1.6 2.9-.3.8-.5 2-.4 2l1-.4zM8.8 48.2c.1-.2.2-.2.1 0l-.1.2v-.2zm7.7 2.9c.1-.1.2-.2.1 0l-.1.2c-.1 0 0 0 0-.2zm2.6-6.2h.3l-.3.2c-.3 0-.3 0 0-.2zm16.8 5.6.2.1H36c-.1 0-.1-.1 0-.1zm-4.7-3.7c0-.2.1-.2.2 0l-.1.4s-.1-.2 0-.4zm-22.8-18 .2.2c0 .1-.1 0-.2 0s-.2-.1 0-.1zm9.9 6.4.2.1h-.2c-.1-.1-.1-.2 0-.1zM15.6 32c.1-.2.1-.2.1 0l-.1.2c-.1 0 0-.1 0-.2zm21.2 13.5.4.2c.1.1 0 .1-.2 0l-.2-.2zM13.5 27.2c-.1-.3 0-.2.3.1.1.2.1.3 0 .2a.8.8 0 0 1-.3-.3z" style="fill:#000;stroke-width:.538646"/><path d="m25.8 45 2.1-7c.2-.5.1-.7-.2-1.5a3 3 0 0 0-.4-.9 41.6 41.6 0 0 0-2 4.8l.1.5-.2-.3c-.3-.3-.3-.3-.6.4l-.3.6.6-1.6 1.4-3.4.7-1.8-.7-1.6-.6-1.6-.5.5-.4.5.1 1c0 .7.2 1 .6 1.6.5.8.5 1 0 .2L25 35l-.4 1.4-.3 1.4.1-1.3c.3-2 .3-2 .1-2.7V33l-.9.9c-.7.9-.7 1-1 2.2l-.3 1.3.1-1.1.2-1.1-.6.7c-.8 1.1-.7.7.3-.6.8-1.2 1-1.3.7-1.3l-1.6.3 1-.3 1-.3 1-1.3 1-1.3-.4-2.2a14 14 0 0 0-.4-2.2l-2.2 1.8c-.4.4-.4 1.2-.2 2.2.1.5.2.6 0 .4-.1-.5-.3-.5-.3 0 0 .4 0 .5-.2.4v-.9l.2-1.2v-.5l-.8.6c-.4.3-1 1-1.4 1.7-.7 1-.7 1-1 2.6-.1 1.6-.1 1.6.3 2.8a59.8 59.8 0 0 0 1.9 4.9l-.9-1.6-.1 1.5c-.1 1.9-.2 2.3-.2.5 0-2 0-2-.9-.7-1 1.4-1 1.2 0-.3.5-.6.8-1.3.8-1.4l-.6-1.8c-.5-1.1-.7-1.4-.8-1.3a77.3 77.3 0 0 0-1.5 2.9l.7-2-1.5 1-.5 2c0-.4-.1-.4-.7 0-.4.2-.3.2.2-.2s.6-.6.7-1.2l.2-.7-.7.5c-.7.4-.7.4-.2 0l1.4-1.1c1.4-1 1.5-1.3 1.7-2.3.3-1.1.3-2.3.2-2.3l-1.9 1.2a13.7 13.7 0 0 0-3.4 3.4c-1 1-1.7 2-1.7 2l1.5-2.1 1.5-2-.8.1c-.8.3-1 .4-1.5 1l-.6.7.4-.6c.5-.6.4-.7 0-.4l-1.8.6.9-.5c.7-.3.8-.4.6-.5-.2-.1 0-.2.4-.2 1 0 2.6-.7 4.7-2.2 1.6-1.3 2-1.6 2.4-2.3l.5-1s-2.3-.2-3-.1c-.6 0-.9.4-1.1 1.5l-.2.8v-.7l.1-.8-.3.5a40.7 40.7 0 0 0-.4.4c.2-.5.2-.5-.1-.3-.2 0 0 0 .2-.3.5-.4 1-.9 1-1.1 0-.2-.8 0-2 .4a5 5 0 0 0-2.2 1.3c-1 1-1.1 1-1.3 1.9-.2.8-.2.8-.1.2V33l-.2.1-.5.6-.6.4.5-.5.9-.9c.5-.5.4-.6-.5-.4H9l1-.2a3 3 0 0 0 1.4-.6c.7-.7.7-.8-.6-1-1.4-.2-1.2-.2.4 0 1 0 1.3 0 2.2-.4l1.1-.6-1.2-.7c-.2-.1-.2-.1.2 0h.5l-.1-.4c-.2-.4-.1-.4.1 0 .6 1 .6 1.1 3.5 1l2.7-.1 1.6-1.5c1-.9 1.5-1.5 1.4-1.5-.3 0-1.4.3-2 .8l-.6.2c.2-.2.1-.2-.6 0-.2 0 0-.1.3-.3.7-.2.7-.2.4-.3-.3-.1-.2-.2.2-.1.4 0 1.1-.2 1.2-.4l-.9-.5c-1-.4-.9-.5.3 0 .7.3 1 .3 1.6.3.8 0 1.3-.3 1-.6 0-.3-2-1.4-3.5-2.1-1.4-.6-1.4-.6-2.3-.5-1.1.1-1.2.2-1.1.9.1.7 0 .8-.1.1l-.1-.5-.3.4c-.1.2-.3.3-.4.3l.3-.5c.5-.5.4-.6-.6-.3-.6.1-1 .4-2.6 1.8a98.1 98.1 0 0 0-3.2 2.8l.7-.9s-.9-.2-1.4-.1c-.2 0-.4.3-.6.5a2 2 0 0 1-.5.5l.3-.5.4-.5H8c0-.2.3-.2.6-.2a68.6 68.6 0 0 0 2.6 0s.8-.8.8-1l-.7-.3c-.6-.2-.9-.2-1.3 0l-.6.2.4-.2.4-.4-.7-.4c-.8-.4-.5-.4.6.1l1.6.6.7.1 1.2-1.1c.7-.6 1.2-1.2 1.1-1.2l-1-.4-1-.3-2 .6c-1.2.3-2 .6-2.1.5l1.7-.6 1.7-.6c0-.1-1.4-.5-3.1-.8l-3.2-.7 2.4.3c2.4.4 2.4.4 2.2 0l-.7-.4-.8-.9 1.1.9c1 .8 1 .8 2.9 1.3l1.8.4-.3-.4c-.1-.3-.4-.6-.6-.7-.2-.2-.3-.3-.2-.4.2 0 .2-.1.1-.4-.1-.5 0-.4.2.2l.8 1.3.7.7 1.5-.3c.8-.1 1.5-.3 1.5-.4a10 10 0 0 0-2-2.8c-1-.7-2.2-1-4-.7-1.9.2-2 .2-.8-.1l1.2-.3-1.6-.8-1.5-1 .6.3c.3.2.5.2.6.1h.1c0 .4 2.3 1.4 3.1 1.4h.7l-1-1.2c-.9-1.1-1-1.3-1.8-1.6-.7-.3-.8-.3-.2-.2l.6.1-.6-.8-.7-.9 1.1 1.2c2.6 2.9 3.2 3.5 3.7 3.8l.6.2-.7-2.5a3 3 0 0 0-1-.7c-.4-.2-.8-.4-.8-.6 0-.1 0-.1.2 0 .1.2 1.5.9 1.5.7l-.1-.6c-.2-.4-.3-.7-.7-1l-2.6-1.8c.2 0 0-.3-.3-.8l-.3-.6.7 1c.3.4.7.9 1.5 1.4 1.3.8 1.5 1 1.4.6a95.5 95.5 0 0 1 .7 1.7L17 19l1.2 1.5c1 1.3 1.2 1.5 1.8 1.7a29.3 29.3 0 0 1 3 1.3l-.5-.7-.7-1 .6.6.7.9.2-.9v-.6c.2-.3.2-.2.2.5v1.1c0 .2 1 1.2 1.4 1.3l.5-2 .4-1.9-1.3-1.6-1.3-1.7-1.3-.5-1.2-.5-1 .3c-1.6.3-1.7.3-.6 0l1-.5s-.5-.4-1.1-.6l-1.1-.7c0-.2 0-.2.3 0l2.1 1-.4-1-.6-1.2.5.8v-.4c0-.5 0-.4.2.1.3 1.3 1 2 2.3 2.5.7.2.8.1.6-.9-.1-.5-.5-1.3-1.4-2.7-.7-1-1-1.8-.9-1.6l.3.4c0 .1 1.6 2.4 1.7 2.3l-.1-1.2-.2-1.2.7 2.7.6 2.8 1.1 1.1 1.2 1.2c.2 0 .2-.6 0-2.2 0-1.6 0-1.7-1.3-4.2l-1.3-2.6-1.6-1.6c-2.3-2.4-2.2-2.3.4 0l.7.7-.3-1.3c-1-2.7-1.1-3.5-.2-1.1l.5 1.3.4-1.8.4-1.7-.3 2c-.4 2-.5 2 .5 3.6.3.6.4.6.5.4.3-.5.5-1.7.3-2.4v-.6l.1.5.2.6.1-.4-.2 1.4-.4 1.7.8 1.4.8 1.4.3-1c.6-2 .8-3.5.8-5V7.4l.1 1.1c0 .7.1 1.3.2 1.3l.7-1.2.7-1.2L28 9a7.5 7.5 0 0 0-.9 2.5c-.2 1-.2 1.1.3 1.7l.5.7v-.6c0-1.2.1-1.5.1-.7 0 1.2 0 1.2.3.9.2-.3.2-.3 0 .3v1.5c.2.5.4 1 .5.9l.6-.7.5-.7.1-1.7a18 18 0 0 0 .2-2l.1.5a1415.8 1415.8 0 0 1 0 2.7l.8-1.2c.5-.6.8-1.2.9-1.1l-1.2 2c-1.2 1.9-1.4 2.3-.8 1.8l.5-.3c.2 0-.1.2-.6.6a7 7 0 0 0-2 1.9l-1.2 1.3-.2 1.7a134.6 134.6 0 0 1-.6 3.6 25.9 25.9 0 0 0 6-4.2c.5-.4 2-4.9 2-6 .2-1.1.2-1.2-.7-2.4l-.6-1 .6.8.7.8c.2 0 .2-1 0-1.8-.2-.9-.1-1 .1-.2l.2.6.3-.6.3-.6-.3.8c-.2.8-.3 3-.1 3.1l.9-1.7c.4-1 .8-1.7.9-1.6l-.6 1.4a11 11 0 0 0-.6 1.6l.8-.1a4 4 0 0 0 1.7-1.4l1-1.1-.7 1-.8 1 1-.4c1.5-.5 1.1-.2-.8.6-2.6 1-2.6 1-3.1 2.8l-.4 1.6 1-.4c.6-.4 1-.8 1.6-1.5.9-1 1-1.1.3-.1-.5.7-.5.8.1.5.7-.3.9-.4.3 0-2 1.1-3.3 2-3.5 2.4-.2.2-.3.6-.3.9v.4l2-.8 2.2-1 1-1.4.7-1.2-.6 1.1a15 15 0 0 0-.6 1.2c0 .3.7-.1 1.5-1a9 9 0 0 1 1-.8l-.7.8-.7.8a45.8 45.8 0 0 0 2.5-.5l-2.1.8 1.3.2 1.4.1h-1.8c-1.8 0-1.8 0-2.8.4l-1.1.6s.4.2 1 .2c.6.1.8.2.5.2l-1.2-.1c-.8-.1-1 0-3.6 1.2-.2.1-.9.6-1.4 1.2l-1 1 .8.1.8.2 1-.7a16.5 16.5 0 0 0 1.2-1v.3l1-.4.9-.2v.3h-.1c-.6 0-1.5.3-2.5 1l-1 .7 1.5.2 1.4.2h-1.4c-1.5 0-1.5 0-.4.6l.4.4-1-.5c-.9-.6-1-.6-2.1-.6l-1.6.1a2881.6 2881.6 0 0 0-3.3 2.1c-.2 0 .2.3 2.1 1.2l2 1h1.3l1.4-.2 4-2.6c.2-.1.8-1 1.3-1.8 1-1.6 1.4-2 .7-.8l-.4.8.8-.3.7-.1-.8.4c-.9.3-1.6 1-1.6 1.4 0 .1 1 0 2.3-.3a18 18 0 0 1 2.1-.3c-.5 0-2.5.6-2.4.7l.6.3c.4.2.4.2-.3 0-1.3-.4-2.2-.1-4.3 1.4l-1.7 1.3s.2.2.5.2c.4.1.7 0 1.9-.7a19.9 19.9 0 0 0 2-1l-.4.3-.5.3.3.2c.2.1.2.1-.2 0-.3 0-.6.1-1.3.6l-.8.5 1.7.4a6 6 0 0 0 2.8.2c1.4-.2 1.5-.1.2.1l-1 .2.7.3c.5.2 0 .1-2.4-.3-3.3-.7-4.6-.8-5.6-.6l-.7.2.9.7c.5.4 1.2.9 1.6 1 1 .3 2.8.3 3.8 0l.4-.2-.5.3v.1c-.1.1.4.3 1.7.5a9 9 0 0 1 1.8.3l-2.3-.2c-1.9-.3-3.2-.3-3.2-.1l1 .7c.9.7 1 .7 3 .8l-.4.1-1 .1c0 .2.3.4 2.6 1.4 1.1.5.7.4-.7-.1a23 23 0 0 0-1.2-.5c-.2 0 .8 1.6 1.1 1.8.3.2.3.2.1.2-.3-.2-.3-.2.2.9 0 .2-.3-.4-.9-1.4-1-1.7-1-1.7-2.1-2.4-1.2-.7-1.4-.7-1.1-.3 0 .2 0 0-.3-.3a3.3 3.3 0 0 0-2-1.2c-.4 0-.4 0 .4 1.3.6 1 1 1.4 2 2.3 1.6 1.3 1.6 1.4.2.4l-1-.7 1.1 2.2a28.2 28.2 0 0 1 .5 1l-.7-1v2l-.2-1.2v-1.3L34.3 33c-1.2-2-1.8-2.8-2.2-3-.7-.5-.8-.5-.6.3.3 1 .6 1.6 1.1 2 .4.3.4.4.1.2l-.3-.2.4 1c.4.7.4.8 0 .4l-.3-.6-.8-1.6-.3.7-.3.6.2-.8c.2-.7.2-.8 0-1.8l-.8-1.4a25 25 0 0 0-4.8-2.2v2a12.5 12.5 0 0 0 1.7 5.4 52.7 52.7 0 0 0 6.2 3 18 18 0 0 1-1.6-.5c-.3-.2-.4-.1-.5.1-.1.8.2 1.2 1.4 2.1l1 1-1.1-.8c-.6-.5-1.1-.8-1.2-.7 0 .5.2 2.3.4 2.5a28.7 28.7 0 0 1 .7 1.3c-1-1.3-1-1.3-1-.1v.6l-.1-1.5a40 40 0 0 0-.6-4.7 26 26 0 0 0-3-1.3c-.3 0-.3 0 0 .7l.4 1.3c.2.6.8 1.1 1.6 1.6l.4.4v1l-.1-.5c-.1-.4-.3-.7-.8-1l-.6-.4.7 2.8a2142.5 2142.5 0 0 1-.2.1l-1-2.7-1.2 3 .3 1c.5 1.4 1 2.7.8 2.6l-.6-1.5c-.7-1.9-1-2-.7-.3v.9-.5l-.2-.6c-.1 0-.4.5-.6 1.2l-.4 1zm1.9-27.6.7-.7-.2-1.1c-.1-1.1-.9-2.8-1.2-2.8-.2 0-.5 2.4-.5 3.3 0 .9.3 2 .4 2l.8-.7zM15.8 42c0-.2 0-.2.1-.1v.3l-.1-.2zm8.2 0c0-.2.1-.2.1-.1v.3c-.1 0-.1 0 0-.2zm.2-6.7.3-.2s0 .2-.2.3c-.3.2-.3.2 0-.1zm17.7-.8h.3c0 .1 0 .2-.2.1-.1 0-.2 0 0 0zm-5.6-1.7c0-.2 0-.2.1 0 .2.2.2.3 0 .3l-.1-.3zM8.5 24h.3s0 .1-.2 0c-.2 0-.2 0 0 0zM20 26.4h.3c0 .1 0 .2-.2.1-.1 0-.2 0 0 0zm-3.6-2s.1-.1.1 0v.3s-.1 0 0-.2zm24.7 5.2.4.1c.1.1 0 .1-.2 0H41zm-28.3-9 .3.1c.1.1.2.2 0 .1a.8.8 0 0 1-.3-.2z" style="fill:#000;stroke-width:.538646" transform="rotate(70.4 12.7 64) scale(.726)"/><path d="m-3.7 37.9-1.5-9.2c0-.5-.2-.8-1-1.5l-1-.8v3.1c0 3 0 3 .4 3.5l.4.4-.4-.2c-.5-.3-.5-.3-.4.7 0 .5 0 1-.1.9l-.2-2.1-.2-4.6-.2-2.4-1.7-1.5-1.6-1.4-.2.8-.2.8.6 1A4 4 0 0 0-9.4 27c1 .5 1 .8 0 .2l-.6-.3.3 1.7.4 1.7-.5-1.5c-.8-2.3-.8-2.3-1.4-3l-.5-.8-.4 1.4c-.4 1.4-.4 1.5 0 3l.4 1.7-.5-1.3-.4-1.3-.2 1c-.4 1.8-.4 1.2 0-.7.3-1.8.3-2 .1-1.9-.2.3-1.6 1.3-1.6 1.2l1-.9 1-.9.2-2 .4-2-1.6-2.2-1.6-2.3-1.6 3.2c-.1.6.3 1.6 1.1 2.7l.3.4c-.6-.5-.7-.4-.4.2v.5c-.1 0-.4-.5-.5-1l-.6-1.5-.3-.5-.5 1-.6 2.7c-.2 1.6-.2 1.7.4 3.5.6 1.9.6 2 1.7 3a74.7 74.7 0 0 0 4.8 4.5l-1.8-1.3s.2.8.7 1.7c1 2.2 1 2.7 0 .7-1-2.3-1-2.3-1.3-.4-.4 2.2-.5 2-.2-.3l.2-2-1.7-1.6c-1.2-1-1.6-1.3-1.6-1l.1 3.7c.3 4 .1 4-.2.3l-.4-2.7a7 7 0 0 0-1 2c0 .4.6 2.9.4 2.6-.2-.5-.3-.5-.7.3-.3.5-.3.4 0-.3.4-.8.4-1 .2-1.8l-.2-.8-.5.9a96 96 0 0 1 .8-1.9c1-2 1-2.3.7-3.5-.4-1.4-1-2.8-1.1-2.7l-1.4 2.4a16.8 16.8 0 0 0-2 5.6l-.9 3.2.6-3.1.6-3.2-.9.7c-.7.7-.9 1-1 2l-.3 1v-1c.2-.8.1-.9-.3-.4l-1.6 1.7.7-1c.7-.8.8-1 .5-1-.3 0-.2-.1.3-.3 1.2-.6 2.5-2.3 4-5.1 1.2-2.3 1.4-2.8 1.5-4v-1.3s-2.6 1-3.4 1.5c-.7.4-.8 1-.4 2.3l.2 1-.3-.8-.4-.9v.7a50.8 50.8 0 0 0-.3.7c0-.7 0-.7-.3-.4l.1-.4c.3-.7.6-1.5.5-1.7 0-.3-.9.3-2 1.5-1 1-1.3 1.4-1.8 2.7-.6 1.6-.7 1.7-.4 2.8.2 1 .2 1 0 .2l-.5-.8-.1.2-.3 1-.4.7.2-.7.6-1.6c.3-.9.2-1-.8-.2l-.8.4 1-.7c.7-.6 1-1 1.2-1.5.5-1.2.4-1.3-1-.8-1.8.6-1.6.4.3-.3 1.2-.5 1.5-.7 2.3-1.6l1-1.2c0-.2-1-.2-1.9-.2-.3 0-.2 0 .2-.1l.7-.2-.4-.5c-.4-.3-.4-.3.2 0 1.1 1 1.2 1 4.4-.8l3-1.6 1-2.5c.6-1.6.9-2.5.7-2.5-.4.1-1.4 1.2-2 2l-.3.5c0-.2 0-.2-.8.3-.2.1 0 0 .3-.4.6-.6.6-.6.2-.6-.4 0-.3 0 .1-.2.5-.1 1.2-.8 1.1-1.1h-1.1c-1.5 0-1.4-.2.2-.3 1 0 1.4-.1 2-.5 1-.5 1.3-1 1-1.2-.4-.3-3.3-.5-5.3-.4-1.9 0-2 0-2.8.6-1.2.8-1.3 1-.8 1.6.6.8.6 1 0 .3l-.5-.6v.6l-.2.6v-.7c.2-.9 0-.9-.9 0-.6.4-1 1-1.9 3.3a122.5 122.5 0 0 0-2.1 5 9 9 0 0 0 .3-1.4l-1.6.6c-.2.1-.4.6-.4 1l-.3.8v-.8l.2-.8-.3.1c-.2 0-.5.2-.6.4-.2.1-.3.2-.3 0l.5-.4a85.6 85.6 0 0 0 3-1.4l.4-1.5h-1c-.8.1-1 .2-1.5.7l-.5.5.3-.5c.2-.2.3-.5.2-.5l-1-.1c-1 0-.7-.2.8-.2l2-.3 1-.2.7-2 .6-1.9-1.3.2-1.3.2-2 1.7-2 1.8s.6-.8 1.5-1.6l1.6-1.7-4 .8-4 1 3-1c2.8-.9 2.9-1 2.4-1.1l-1-.2c-.5 0-1.6-.4-1.4-.5l1.8.3c1.6.4 1.6.4 3.9 0l2.2-.6-.5-.3-1-.5c-.4 0-.5-.1-.4-.2l-.2-.6c-.4-.5-.1-.4.4.2l1.6 1 1 .4 1.6-1.2c.9-.6 1.5-1.2 1.5-1.3a13 13 0 0 0-3.8-2c-1.4-.3-3 .2-4.9 1.4-2 1.2-2 1.3-.9.3l1.2-1h-2.2c-1.3 0-2.2-.2-2.2-.2h.7c.5 0 .7-.1.8-.3 0-.1 0-.1.2 0 .2.4 3.3.2 4.2-.2l.7-.4-1.8-.8c-1.5-.8-1.9-.8-2.9-.8h-.3l.8-.3-1.1-.6-1.3-.6s.8.2 1.8.7c4.5 1.9 5.6 2.2 6.3 2.2h.7c0-.3-1.8-2.3-2.1-2.5l-1.5-.2c-.5 0-1 0-1.2-.2 0-.2 0-.2.2 0 .3 0 2.1 0 2-.1l-.4-.7A2 2 0 0 0-33 9c-3.3-.5-4-.6-3.9-.7.2 0-.2-.3-.8-.7l-.6-.4 1.2.6c.6.4 1.4.6 2.6.8 1.9.2 2.1.2 1.8 0l-1.7-2L-31 10l3.3 3.4 2.1 1c1.8 1 2.3 1 3 1a36.5 36.5 0 0 1 4-.2l-1-.6a9 9 0 0 1-1.2-.7l1 .4 1.3.5c.1 0-.1-.7-.4-1l-.2-.8c0-.3.1-.2.4.6l.6 1.3c.1.2 2 .7 2.3.6 0 0 0-1-.5-2.5l-.6-2.4-2.3-1.1-2.4-1.1h-1.7l-1.7.2-1 .8c-1.5 1.3-1.7 1.4-.6.3.6-.5 1-1 .9-1-.1-.1-.8-.2-1.6-.1l-1.7-.2c0-.2 0-.2.5-.1l2.8-.1-1-.8c-2.2-1.6-2.3-1.7-1.2-1l1 .5-.3-.5c-.2-.5-.2-.5.3 0 1 1.4 2.2 1.8 4 1.6.9-.2.9-.2 0-1.3-.3-.5-1.2-1.2-3-2.2-1.3-.9-2.1-1.5-1.8-1.4l.5.3A14 14 0 0 0-24 5.1s-.3-.7-.8-1.3a57.3 57.3 0 0 1 1.4 1.4l2.2 2.7 1.9.8c1 .4 1.9.7 2 .6.2 0-.1-.8-1.2-2.5-1-1.7-1-1.8-3.8-4L-25.2.9l-2.7-1c-4-1.4-3.7-1.4.5-.1l1.2.3-1.1-1.2c-2.6-2.6-3.2-3.5-.9-1.2l1.3 1.2-.5-2.2-.4-2.2.6 2.4c.7 2.6.6 2.5 2.6 3.8.7.5.8.5.8.2 0-.7-.4-2.3-1-2.9l-.4-.6.5.5.5.5v-.5l.5 1.7.4 2.2 1.7 1 1.7 1.1-.2-1.2c-.5-2.7-1-4.4-2-6-.4-1-.8-1.7-.7-1.8l.8 1.3.8 1.3s.2-.8.2-1.8V-6v2c0 1.6.1 2.3.4 3.3.4 1.3.4 1.3 1.3 1.8l.9.4-.3-.6c-.6-1.4-.7-1.8-.3-1 .7 1.4.8 1.5.9.9l.1.4c.1.7.3 1 1 1.7.4.5.8.8.9.7l.3-1.1.2-1-.8-2a22.4 22.4 0 0 0-1-2.5A1768 1768 0 0 1-15.5.7c.1 0 .3-.8.4-1.8l.3-1.7L-15 0c-.3 2.7-.2 3.3 0 2.5l.5-.6c.2-.2 0 .2-.4.9s-.9 2-1.2 3.3l-.6 2 .7 2a168 168 0 0 1 1.3 4.5 32.3 32.3 0 0 0 4.6-8c.1-.8-.6-6.6-1-7.8-.6-1.4-.6-1.5-2.2-2.4l-1.3-.8 1.2.6 1.2.5c.2 0-.4-1.3-1-2-.7-.9-.7-1 0-.3l.5.6v-1.6l.2 1c.1 1 1.2 3.7 1.5 3.6v-2.4a7 7 0 0 1 .2-2.3l.2 2 .2 2 .8-.6c.5-.6.8-1 1.1-2.5l.6-1.7-.3 1.5-.3 1.5 1-1c1.3-1.3 1-.8-.7 1.2-2.4 2.6-2.3 2.5-2 4.8l.4 2c0 .1.5-.3.9-1C-8.4.9-8.1 0-8-1c.4-1.6.6-1.9.3-.3-.2 1-.1 1.2.4.5.6-.8.8-.9.3-.2a21.4 21.4 0 0 0-2.6 4.6l.1 1.2.2.6 1.9-2.1 2-2.4.2-2c0-1 .1-1.8.2-1.8V.4c0 .3.6-.5 1-1.9l.7-1.5-.3 1.2C-3.8-1-4-.5-3.8-.5a57.2 57.2 0 0 0 2.5-2l-2 2.2 1.7-.6A9 9 0 0 1 0-1.5l-2 1c-2 .8-2.2.9-3 2a6 6 0 0 0-1 1.2l1.2-.2c.8-.3 1-.3.7-.1a7 7 0 0 1-1.4.5c-1 .3-1.1.5-3.4 3.4a13 13 0 0 0-1 2l-.6 1.7 1-.3 1.1-.3.6-1.2a20.6 20.6 0 0 0 1-1.9v.4l1-1 .9-.7c0 .2 0 .3.2.3s.1 0-.1.1c-.7.2-1.5 1-2.3 2.5L-7.7 9l1.7-.5 1.7-.6-1.5.8c-1.7.8-1.7.8-.2 1l.7.1h-1.4c-1.3-.1-1.4-.1-2.7.5-1 .4-1.6.8-1.7 1a3601.8 3601.8 0 0 0-2.6 4.1c-.1.2.4.3 3 .3h3l1.3-.7 1.4-1c.2-.1 2.7-4.3 3-5.1.2-.3.4-1.5.6-2.8.3-2.3.5-3 .3-1.2v1l.8-.6c.3-.4.6-.7.7-.6l-.7.9c-.8.8-1.3 2-1 2.5l2.4-1.7A22.6 22.6 0 0 1 3.3 5C2.7 5.4.8 7.1 1 7.2h.9c.6 0 .6 0-.4.2-1.6.3-2.5 1-4 4l-1.2 2.3h.6c.5-.2.9-.5 1.9-1.9A24.9 24.9 0 0 0 .3 9.5s0 .3-.3.6l-.4.6H0c.4 0 .4.1 0 .2-.4.2-.8.5-1.3 1.3l-.6 1.2 2.2-.6c1.9-.5 2.3-.6 3.2-1.3 1.4-1 1.7-1 .3 0l-1 .8h1l-3 .8c-4 1.1-5.6 1.7-6.6 2.6l-.6.5 1.4.3c.7.2 1.8.3 2.3.2a9 9 0 0 0 4.2-2.1c.5-.5.7-.6.5-.3l-.5.5v.2c0 .2.6 0 2.2-.5C5 14.1 6 14 6 14l-2.6 1c-2.3.6-3.8 1.3-3.7 1.6l1.4.3c1.4.2 1.6.2 4-.8l-.5.3-1 .8H7c1.6 0 1 .2-.8.3H4.7c-.3.2 1.7 1.5 2.2 1.6h.2c-.4 0-.5 0 .7 1L6 19c-2-1.5-2-1.5-3.7-1.6-1.6-.2-1.9-.1-1.3.3l-.5-.2c-.9-.4-2.2-.5-3-.3-.3.2-.3.2 1.2 1.2A9 9 0 0 0 2.3 20c2.4.6 2.6.7.4.3l-1.5-.1L3.6 22a35.2 35.2 0 0 1 1 .9c-.7-.6-1.3-.9-1.3-.8l.6 1.1.6 1.1-.9-1.2-.8-1.4-3.4-2a16.8 16.8 0 0 0-4.2-2.3c-1-.2-1 0-.4.7.8 1 1.6 1.5 2.3 1.6.7.2.7.2.3.2h-.6l1 .8c.9.7 1 .8.4.5l-.7-.5a7 7 0 0 0-1.9-1.3v1.8-1c-.3-1-.3-1.1-1.2-2a5.2 5.2 0 0 0-1.5-1.3 36 36 0 0 0-6.7.2l1.2 2.2a15.6 15.6 0 0 0 4.8 5.2 65.7 65.7 0 0 0 8.5 0l-2 .3c-.4 0-.5 0-.4.4.2.9.8 1.2 2.6 1.6l1.7.5s-.8 0-1.7-.3H-.8a9 9 0 0 0 1.7 2.6 35.8 35.8 0 0 1 1.5 1c-1.7-.9-1.8-.8-1 .5l.3.7-1-1.6a50 50 0 0 0-3.2-5c-.1-.1-3.8.1-4.2.2-.4.1-.4.1.3.8l1.2 1.3a4 4 0 0 0 2.6.9c.4 0 .8.1.7.2l.4.6.3.5s-.3-.1-.5-.4c-.3-.5-.6-.6-1.4-.8h-1l2.4 2.7A2673.2 2673.2 0 0 1 .8 34a68.8 68.8 0 0 1-5.2-5l.3 4s.3.5.8.9l2.4 2.4-1.6-1.3c-1.8-1.7-2-1.7-1 .1l.6 1-.4-.5-.5-.6v1.6a8 8 0 0 1 0 1.4zm-13-32.2.4-1.1-.8-1.2C-17.9 2.3-19.5.8-20 .9c-.2 0 .8 3 1.3 4s1.4 2.2 1.6 2.1l.4-1.3zm0 34.1c0-.2 0-.2.2-.1v.3l-.1-.2zm9.3-4.5c0-.2 0-.2 0 0 .2 0 .2.2.2.3l-.2-.3zm-3.4-7.6c0-.2.2-.4.3-.4l-.1.5c-.2.4-.2.4-.2 0zM8.7 17.2H9h-.2c-.2.1-.2.1-.1 0zm-7.3 1.1c-.2-.2-.2-.2.1 0 .4.1.4.2.2.3l-.3-.3zm-36 5.4c.2 0 .3-.1.4 0h-.2c-.2.1-.2 0-.1 0zm14.3-3.7h.3l-.2.1h-.1zm-5.1-.2c0-.2 0-.2 0 0l.1.3-.1-.3zM5 12.2l.6-.1-.3.1H5zm-36.7 5.3c-.3-.1 0-.2.4 0h.2a1 1 0 0 1-.6 0z" style="fill:#000;stroke-width:.672573" transform="rotate(70.4 12.7 64) scale(.726)"/></svg>