<?xml version="1.0" encoding="UTF-8" standalone="no"?>
<svg
   width="576"
   height="576"
   viewBox="0 0 152.4 152.4"
   version="1.1"
   id="svg6"
   sodipodi:docname="tree-grove.svg"
   inkscape:version="1.4.3 (0d15f750, 2025-12-25)"
   xmlns:inkscape="http://www.inkscape.org/namespaces/inkscape"
   xmlns:sodipodi="http://sodipodi.sourceforge.net/DTD/sodipodi-0.dtd"
   xmlns="http://www.w3.org/2000/svg"
   xmlns:svg="http://www.w3.org/2000/svg">
  <defs
     id="defs6" />
  <sodipodi:namedview
     id="namedview6"
     pagecolor="#ffffff"
     bordercolor="#000000"
     borderopacity="0.25"
     inkscape:showpageshadow="2"
     inkscape:pageopacity="0.0"
     inkscape:pagecheckerboard="0"
     inkscape:deskcolor="#d1d1d1"
     inkscape:zoom="1.0730175"
     inkscape:cx="338.29829"
     inkscape:cy="356.93732"
     inkscape:window-width="1626"
     inkscape:window-height="799"
     inkscape:window-x="0"
     inkscape:window-y="25"
     inkscape:window-maximized="0"
     inkscape:current-layer="layer10" />
  <g
     inkscape:groupmode="layer"
     id="layer10"
     inkscape:label="terrain">
    <path
       d="M103 .9A13.6 13.4 1.3 0 0 90.2 9a13.6 13.4 1.3 0 0-13.3 13 13.6 13.4 1.3 0 0 7.8 12.5 13.6 13.4 1.3 0 0-.5 1 13.6 13.4 1.3 0 0-8 11.8A13.6 13.4 1.3 0 0 89.7 61a13.6 13.4 1.3 0 0 8.8-3 13.6 13.4 1.3 0 0 8.9 3.6 13.6 13.4 1.3 0 0 12.6-7.7 15.4 15.2 1.3 0 0 12.9-14.6 15.4 15.2 1.3 0 0-2.4-8.5 15.4 15.2 1.3 0 0 6.2-11.9 15.4 15.2 1.3 0 0-15-15.5 15.4 15.2 1.3 0 0-8.5 2.2A13.6 13.4 1.3 0 0 103 1zM51.8 4.7a12.8 12.6 65 0 0-5 1.2 12.8 12.6 65 0 0-5.4 4.9 12.8 12.6 65 0 0-11.1-.3 12.8 12.6 65 0 0-6 17 12.8 12.6 65 0 0 4.8 5.4 11.3 11 65 0 0 .2 9.2A11.3 11 65 0 0 40 48.6a11.3 11 65 0 0 14.6 5 11.3 11 65 0 0 6.3-10.3 11.3 11 65 0 0 .9 0 11.3 11 65 0 0 11.7 1.5A11.3 11 65 0 0 78.7 30a11.3 11 65 0 0-5.3-5.4 11.3 11 65 0 0-.7-8 11.3 11 65 0 0-10.3-6.4 12.8 12.6 65 0 0-10.6-5.4zM20.6 56.1a14 14.3 11.8 0 0-13 11.4 14 14.3 11.8 0 0 .6 8 12.4 12.6 11.8 0 0-6 8.4 12.4 12.6 11.8 0 0 5.2 13 12.4 12.6 11.8 0 0 9.6 14.3 12.4 12.6 11.8 0 0 9-1.5 12.6 12.8 0 0 0-1.6 6.1 12.6 12.8 0 0 0 2 7 11 11.3 0 0 0-3.7 8.4 11 11.3 0 0 0 7 10.5 11 11.3 0 0 0 11 10.7 11 11.3 0 0 0 10.2-6.7 11 11.3 0 0 0 .7.4 11 11.3 0 0 0 10 6.3 11 11.3 0 0 0 11-11.2 11 11.3 0 0 0-2.5-7.2 11 11.3 0 0 0 2.8-7.5 11 11.3 0 0 0-6.6-10.3A12.6 12.8 0 0 0 54.6 106a12.4 12.6 11.8 0 0-1.2-8.2 12.4 12.6 11.8 0 0 4.7-7.5 12.4 12.6 11.8 0 0-4.9-12.7 14 14.3 11.8 0 0-11.1-14.2 14 14.3 11.8 0 0-8.1.8 14 14.3 11.8 0 0-9.8-7.7 14 14.3 11.8 0 0-3.6-.3zm106 35.5a13.9 13.7 75.6 0 0-3.7.4 13.9 13.7 75.6 0 0-6.8 4.2 13.9 13.7 75.6 0 0-11.8-2.6 13.9 13.7 75.6 0 0-9.7 16.9 13.9 13.7 75.6 0 0 4 6.8A12.2 12 75.6 0 0 97 127a12.2 12 75.6 0 0 10.1 9.1 12.2 12 75.6 0 0 14.6 8.4 12.2 12 75.6 0 0 8.8-9.8 12.2 12 75.6 0 0 1 .2 12.2 12 75.6 0 0 12 4 12.2 12 75.6 0 0 8.7-15 12.2 12 75.6 0 0-4.7-6.8 12.2 12 75.6 0 0 1-8.6 12.2 12 75.6 0 0-9.8-9 13.9 13.7 75.6 0 0-12-8z"
       style="fill:#00ca00;fill-opacity:1;stroke-width:1.05833"
       id="path1" />
  </g>
  <g
     inkscape:groupmode="layer"
     id="layer11"
     inkscape:label="deco">
    <path
       d="m51 51 2.2-7.1c.2-.4.1-.7-.2-1.5a3 3 0 0 0-.4-.8 41.6 41.6 0 0 0-2 4.8l.1.4-.2-.3c-.3-.3-.3-.3-.6.4l-.3.6.6-1.6 1.4-3.3.7-1.9-.7-1.6-.6-1.6-.5.5-.4.5.1 1c0 .7.2 1.1.6 1.6.5.8.5 1 0 .2l-.4-.4-.4 1.3-.3 1.4.1-1.3c.3-2 .3-2 .1-2.7l-.1-.7-.8 1c-.7.8-.8.9-1 2.1l-.3 1.3.1-1L48 41l-.6.7c-.8 1.2-.7.7.3-.5.8-1.2 1-1.4.7-1.3l-1.6.3 1-.4 1-.2 1-1.4 1-1.3-.4-2.2a14 14 0 0 0-.4-2.2l-2.2 1.8c-.4.4-.4 1.2-.2 2.3.1.4.1.6 0 .4-.1-.6-.3-.5-.3 0 0 .3 0 .4-.2.4v-1l.2-1.2v-.5l-.8.6c-.4.3-1 1.1-1.4 1.7-.7 1-.7 1.1-1 2.7-.1 1.5-.1 1.6.3 2.7a59.8 59.8 0 0 0 1.9 4.9l-.9-1.6-.1 1.5c-.1 2-.2 2.3-.2.6 0-2 0-2-.9-.8-1 1.4-1 1.3 0-.3.5-.6.8-1.2.8-1.4l-.6-1.7c-.5-1.2-.7-1.5-.8-1.3a77.3 77.3 0 0 0-1.5 2.8l.7-2-1.5 1-.5 2c0-.4-.1-.4-.7 0l.2-.2c.5-.4.6-.6.7-1.2l.2-.7-.7.5c-.7.4-.7.4-.2 0l1.4-1.1c1.3-1 1.5-1.3 1.7-2.3.3-1.1.3-2.2.2-2.3l-1.9 1.3a11.7 11.7 0 0 0-3.4 3.3l-1.7 2 1.5-2 1.5-2.1-.8.2c-.8.2-1 .4-1.5 1l-.6.6.4-.6c.5-.5.4-.6 0-.4l-1.8.6.9-.5c.7-.3.8-.4.6-.5-.2-.1 0-.2.4-.1 1 0 2.6-.8 4.7-2.3 1.6-1.2 2-1.5 2.4-2.3l.5-1s-2.3-.2-3-.1c-.6 0-.9.4-1.1 1.5l-.2.9v-.8l.1-.7-.3.4a40.7 40.7 0 0 0-.4.4c.2-.4.2-.5-.1-.3-.2 0 0 0 .2-.3l1-1c0-.3-.8-.1-2 .3-1 .4-1.4.6-2.3 1.4-1 .9-1 1-1.2 1.8-.2.8-.2.8-.1.2V39h-.2l-.5.6-.6.4.5-.4.9-1c.5-.5.4-.6-.5-.4h-.7l1-.2a3 3 0 0 0 1.4-.6c.7-.7.7-.8-.6-1-1.4-.1-1.2-.2.4 0 1 0 1.3 0 2.2-.4.6-.2 1.1-.5 1.1-.6l-1.2-.7h.7l-.1-.4c-.2-.4-.1-.4.1.1.5 1 .6 1 3.5 1l2.7-.2 1.6-1.5c1-.9 1.5-1.4 1.4-1.5-.3 0-1.4.4-2 .8l-.6.2c.2-.1.1-.2-.6 0-.2 0 0-.1.3-.2.7-.3.7-.3.4-.4-.3-.1-.2-.1.1 0 .5 0 1.2-.3 1.3-.5l-.9-.4c-1-.5-.9-.6.3-.1.7.3 1 .4 1.6.3.8 0 1.3-.2 1-.5 0-.4-2-1.5-3.5-2.2-1.4-.6-1.4-.6-2.3-.5-1.1.2-1.2.2-1.1.9.1.8 0 .9-.1.2l-.1-.6-.3.4c-.1.2-.3.3-.4.3l.3-.5c.5-.5.4-.5-.6-.3-.6.1-1 .5-2.6 1.8a98.1 98.1 0 0 0-3.2 2.8l.7-.9h-1.4c-.2 0-.4.2-.7.5a2 2 0 0 1-.4.5l.3-.6.4-.5h-1.1l.6-.2a68.6 68.6 0 0 0 2.6 0l.8-.9-.7-.3c-.6-.2-.9-.3-1.3 0l-.6.1.4-.2.4-.3-.7-.5c-.8-.4-.5-.4.6.1.5.3 1.2.5 1.6.6l.7.1 1.2-1c.7-.7 1.2-1.2 1.1-1.3l-1-.3-1-.3-2 .5-2.1.6 1.7-.6 1.7-.7-3.2-.8-3.1-.7 2.4.4c2.4.3 2.4.3 2.2 0l-.7-.5c-.3-.2-1-.9-.8-.9l1.1 1c1 .7 1 .8 2.9 1.2l1.8.4-.3-.4-.6-.7-.2-.3c.2 0 .2-.2.1-.5-.1-.5 0-.3.2.3l.8 1.2.7.7 1.5-.3c.8-.1 1.5-.3 1.5-.4a10 10 0 0 0-2-2.7c-1-.7-2.2-1-4-.8-1.9.2-2 .2-.8 0L38 24l-1.6-.8-1.5-.9.6.2c.3.2.5.2.6.1l.1.1c0 .4 2.3 1.3 3.1 1.3h.7l-1-1.2c-.9-1-1-1.3-1.8-1.6-.7-.2-.8-.3-.2-.1h.6l-.6-.8-.7-.8 1.1 1c2.6 3 3.2 3.6 3.7 3.9l.6.2-.7-2.5a3 3 0 0 0-1-.7l-.8-.5c0-.2 0-.2.2 0a4 4 0 0 0 1.5.7s0-.4-.2-.7c0-.4-.2-.7-.6-1a12.6 12.6 0 0 1-2.6-1.8c.2 0 0-.3-.3-.8l-.3-.5.7.9c.3.5.7.9 1.5 1.4 1.3.9 1.5 1 1.4.6a95.5 95.5 0 0 1 .7 1.7l1.1 3.7 1.2 1.5c1 1.2 1.2 1.5 1.8 1.7a29.3 29.3 0 0 1 3 1.2l-.5-.7-.7-1 .6.6.7.9.2-.9v-.6c.2-.3.2-.1.2.5v1.2c0 .2 1 1.1 1.4 1.2l.5-2 .4-1.9-1.3-1.6-1.3-1.6-1.3-.6-1.2-.5-1 .3c-1.6.4-1.7.4-.6 0l1-.5-1.1-.6-1.1-.7c0-.2 0-.2.3 0 .4.4 2 1 2.1 1l-.4-.9-.6-1.2.5.7v-.4c0-.4 0-.4.2.1.3 1.3 1 2 2.3 2.5.7.2.8.2.6-.9-.1-.4-.5-1.3-1.4-2.6-.7-1.1-1-1.9-.9-1.7l.3.4c0 .2 1.6 2.4 1.7 2.3l-.1-1.2-.2-1.2.7 2.7.6 2.8 1.1 1.2 1.2 1.1c.2 0 .2-.6 0-2.2 0-1.5 0-1.6-1.3-4.1l-1.3-2.6L47 15c-2.3-2.4-2.2-2.3.4.1l.7.6-.3-1.2c-1-2.8-1.1-3.6-.2-1.2l.5 1.3.4-1.7.4-1.8-.3 2c-.4 2.1-.5 2 .5 3.7.3.5.4.6.5.4a4 4 0 0 0 .3-2.4v-.7l.1.6.2.5.1-.4-.2 1.4-.4 1.8.8 1.3.8 1.4.3-1c.6-2 .8-3.4.8-5v-1.5l.1 1.2c0 .7.1 1.2.2 1.2l.7-1.2.7-1.2-.7 1.6a7.5 7.5 0 0 0-.9 2.5c-.2 1-.2 1 .3 1.7l.5.6V19c0-1.1.1-1.5.1-.7 0 1.2 0 1.3.3.9.2-.3.2-.2 0 .3-.1.5-.1.8 0 1.6.2.5.4.9.5.8l.6-.7.5-.7.1-1.6a18 18 0 0 0 .2-2.2l.1.7a1484.7 1484.7 0 0 1 0 2.6l.8-1.2.9-1.1-1.2 2c-1.2 1.9-1.4 2.3-.8 1.9 0-.2.3-.3.5-.3s-.1.2-.6.5c-.6.4-1.4 1.1-2 2L52 25l-.2 1.7a134.6 134.6 0 0 1-.6 3.7 25.9 25.9 0 0 0 6-4.3c.5-.4 2-4.8 2-6 .2-1.1.2-1.1-.7-2.3l-.6-1.1.6.8c.3.5.7.8.7.8.2 0 .2-1 0-1.8s-.1-1 .1-.2l.2.7.3-.7.3-.6-.3.8c-.2.8-.3 3.1-.1 3.2l.9-1.8c.4-1 .8-1.7.9-1.6l-.6 1.5a11 11 0 0 0-.6 1.5l.8-.1c.6-.2 1-.5 1.7-1.4l1-1-.7 1-.8 1 1-.4c1.5-.5 1.1-.3-.8.5-2.6 1.1-2.6 1-3.1 2.8l-.4 1.6c0 .1.4 0 1-.4l1.6-1.4c.9-1.1 1-1.2.3-.2-.5.8-.5.8.1.5.7-.3.9-.3.3 0-2 1.1-3.3 2-3.5 2.4-.2.2-.3.6-.3.9v.5l2-.9 2.2-1 1-1.4.7-1.2-.6 1.2a15 15 0 0 0-.6 1.2c0 .3.7-.2 1.5-1a9 9 0 0 1 1-.9l-.7.8-.7.8a45.8 45.8 0 0 0 2.5-.5l-2.1.8 1.3.2c.8 0 1.4.1 1.4.2h-1.8c-1.8-.2-1.8-.2-2.8.3l-1.1.6 1 .3c.6 0 .8 0 .5.1H62c-.8-.2-1-.1-3.6 1.2-.2 0-.9.6-1.4 1l-1 1 .8.2.8.2 1-.7a16.5 16.5 0 0 0 1.2-1v.3l1-.3.9-.2c-.1 0 0 .1 0 .2.2 0 .1.1-.1 0-.6 0-1.5.3-2.5 1l-1 .7 1.5.2 1.4.2h-1.4c-1.5 0-1.5 0-.4.7l.4.3-1-.5c-.9-.5-1-.6-2.1-.6-.8 0-1.4 0-1.6.2a2892.4 2892.4 0 0 0-3.3 2c-.2.1.2.3 2.1 1.3l2 1H57l1.4-.2 4-2.7c.2-.1.8-1 1.3-1.8 1-1.6 1.4-2 .7-.7l-.4.7.8-.2.7-.2-.8.4c-.9.3-1.6 1-1.6 1.5l2.3-.4a18 18 0 0 1 2.1-.3c-.5 0-2.5.6-2.4.7l.6.3c.4.3.4.3-.3 0-1.4-.4-2.2 0-4.3 1.5-1 .6-1.7 1.2-1.7 1.3l.4.2c.5 0 .8 0 2-.7a19.9 19.9 0 0 0 2-1.1l-.4.3-.5.3.3.2c.2.1.2.1-.2 0-.3 0-.6.1-1.3.6l-.8.6 1.7.3a6 6 0 0 0 2.8.2c1.4-.2 1.5 0 .2.2l-1 .1.7.3c.5.2 0 .1-2.4-.3-3.3-.6-4.6-.8-5.6-.5l-.7.1.9.7c.5.4 1.2.9 1.6 1 1 .3 2.8.3 3.8 0 .5-.2.7-.3.4-.1l-.5.2v.1c-.1.2.4.3 1.7.5a9 9 0 0 1 1.8.3H64c-1.9-.3-3.2-.3-3.2 0l1 .6c.9.7 1 .7 3 .9h-.4l-1 .2s.3.3 2.6 1.3c1.1.5.7.5-.7 0a23 23 0 0 0-1.2-.6c-.2 0 .8 1.7 1.1 1.9.3.1.3.2.1 0-.3 0-.3 0 .2 1 0 .2-.3-.4-.9-1.3-1-1.8-1-1.8-2.1-2.5-1.2-.7-1.4-.7-1.1-.2l-.3-.4a3.3 3.3 0 0 0-2-1.1c-.4 0-.4 0 .4 1.2.6 1 1 1.4 2 2.3 1.6 1.3 1.6 1.5.2.4l-1-.6 1.1 2a28.2 28.2 0 0 1 .5 1.1l-.7-1v2l-.2-1.2v-1.2L59.6 39a18 18 0 0 0-2.2-3.2c-.7-.4-.8-.4-.6.4.3 1 .6 1.7 1.1 2 .4.3.4.4.1.2l-.3-.1.4.9c.4.8.4.8 0 .4L58 39l-.8-1.6-.3.7-.3.6.2-.7c.2-.8.2-1 0-1.9l-.8-1.4c-.3-.3-4.7-2.3-4.8-2.2v2a12.5 12.5 0 0 0 1.7 5.4 52.7 52.7 0 0 0 6.2 3 18 18 0 0 1-1.6-.5c-.3-.1-.4-.1-.5.2-.1.7.2 1.1 1.4 2l1 1-1.1-.8c-.6-.5-1.1-.8-1.2-.7 0 .5.2 2.3.4 2.5A28.7 28.7 0 0 1 58 48c-1-1.3-1-1.3-1 0v.5V47a40 40 0 0 0-.6-4.7 26 26 0 0 0-3.1-1.3c-.3 0-.3 0 0 .7l.4 1.3c.2.6.8 1.1 1.6 1.6l.4.4v1l-.1-.5c-.1-.4-.3-.6-.8-1l-.6-.4.7 2.8a2155 2155 0 0 1-.2.2l-1-2.8-1.2 3 .3 1c.5 1.4 1 2.7.8 2.6l-.6-1.5c-.7-1.9-1-2-.7-.3v1l-.1-.6c0-.3 0-.5-.2-.6l-.5 1.2-.4 1zm2-27.7.7-.7-.2-1.1c-.1-1.1-.9-2.7-1.2-2.8-.2 0-.5 2.4-.5 3.3 0 .9.3 2.1.4 2l.8-.7zM41 48c0-.2 0-.2 0 0 .1 0 0 .2 0 .2V48zm8.2 0c0-.2.1-.2.1 0v.2c-.1 0-.1 0 0-.2zm.2-6.7.3-.2s0 .2-.2.3c-.3.2-.3.2 0 0zm17.7-.7h.3-.2c-.1 0-.2 0 0 0zm-5.6-1.8c0-.2 0-.2.1 0 .2.2.2.3 0 .3l-.1-.3zM33.8 30h.3l-.2.1c-.2 0-.2 0 0-.1zm11.5 2.3.3.1h-.2c-.1 0-.2 0 0 0zm-3.6-1.9c0-.2.1-.2.1 0v.2s-.1 0 0-.2zm24.6 5.2h.5c.1.1 0 .1-.2 0h-.3zm-28.2-9c-.3-.3 0-.2.3 0 .1.1.2.2 0 .2a.8.8 0 0 1-.3-.2z"
       style="fill:#000;stroke-width:0.538646"
       id="path2" />
    <path
       d="m88.6 49.1 8-3.8c.5-.2.7-.5 1.1-1.3.3-.6.5-1 .4-1.1a52.4 52.4 0 0 0-5.9 2.1l-.2.5v-.4c.1-.5.1-.5-.8-.2l-.8.2 1.9-.7 4-1.5 2.3-.9.8-1.8.9-1.9h-.8l-.8.1-.8.9c-.6.6-.8 1-1 1.8-.2 1-.3 1.1-.1 0v-.6l-1.4.8-1.5.8 1.3-.9c1.8-1.3 1.8-1.3 2.4-2l.5-.7h-1.5c-1.3.2-1.4.2-2.8 1l-1.3.7 1-.7 1.1-.8-1 .1c-1.8.2-1.2 0 .6-.2 1.8-.2 2-.3 1.8-.4a10 10 0 0 1-1.6-1l1.2.5 1 .6 2-.3 1.9-.3 1.6-2c1-1 1.7-2 1.6-2 0-.1-2.7-.5-3.4-.5-.6 0-1.4.7-2 1.7l-.4.4c.3-.6.2-.7-.4-.3-.3.2-.4.3-.4.1l.8-.7a3 3 0 0 0 1.2-.9l.4-.4-1.1-.1c-.7 0-1.8 0-2.7.2-1.5.3-1.5.3-3 1.3-1.6 1.1-1.6 1.1-2.3 2.4a66.6 66.6 0 0 0-2.7 5.4l.7-2-1.5 1.1c-1.7 1.5-2.1 1.7-.6.3 1.8-1.6 1.8-1.5 0-1.3-2.1.3-2 .2.2-.2 1-.1 1.8-.4 2-.5l.9-2c.6-1.3.7-1.6.5-1.6l-3.4 1.2c-3.6 1.3-3.7 1.3-.4-.1l2.4-1.1c0-.1-2-.5-2.2-.4-.3.3-2.4 1.4-2.2 1.2.4-.3.3-.4-.5-.6h.3c.8 0 1 0 1.7-.4l.7-.4-1-.2a98 98 0 0 1 2 .2c2 .2 2.4.2 3.4-.4 1.2-.7 2.3-1.6 2.2-1.7l-2.7-.6c-2.3-.4-2.9-.4-5.8-.2l-3.1.2 3-.4 3.1-.3-1-.6c-.8-.4-1-.5-2-.4h-1 .8c.9-.2 1-.3.3-.5l-2-1 1.2.4c.9.3 1 .4 1 0l.4.3c.9.9 2.8 1.6 5.9 2 2.5.4 3 .5 4 .2l1.3-.3c0-.1-1.7-2-2.4-2.6-.5-.5-1-.4-2.3.3l-.9.5.7-.6.7-.5-.6.1a51.6 51.6 0 0 0-.7 0c.6-.2.6-.3.2-.4h.4a4 4 0 0 0 1.8 0c.2-.2-.6-.7-2-1.4a6.6 6.6 0 0 0-3-.8c-1.7 0-1.8 0-2.7.5-.9.5-1 .5-.3 0 .4-.3.7-.5.6-.6h-1.1l-.8-.2h2.3c1 0 1 0 0-.7l-.6-.5 1 .5c.6.5 1 .7 1.7.7 1.2.1 1.3 0 .3-1.2-1-1.3-.7-1.2.5.2.8 1 1 1.2 2.2 1.6l1.3.5c.2 0 0-.8-.4-1.6 0-.3 0-.2.2.1l.4.5.3-.4c.2-.5.2-.5 0 .1-.4 1.3-.4 1.3 2.2 3.6l2.3 2.2 2.6.1h2.5c-.2-.4-1.5-1-2.4-1.1l-.6-.2c.3 0 .2-.1-.5-.7l.5.2c.7.4.7.4.6 0-.1-.3 0-.3.2 0 .3.5 1.1.9 1.4.7l-.3-1c-.6-1.3-.3-1.2.2.1.4.9.6 1.2 1.1 1.7.7.6 1.3.8 1.4.4.1-.4-.5-3-1.2-4.7-.6-1.6-.6-1.6-1.4-2.2-1.1-.9-1.2-.9-1.7-.3-.6.8-.7.8-.3.1l.4-.6-.5.1H99l.6-.2c.8 0 .8-.1-.2-.7-.6-.4-1.3-.5-3.7-.7a125.2 125.2 0 0 0-5.2-.5H92c0-.1-.6-1-1.1-1.3-.2-.1-.6-.2-1-.1H89l.7-.2h.8l-.2-.3-.5-.5c-.2 0-.3-.2-.2-.2l.6.3a80.6 80.6 0 0 0 2.2 2.2h1.4c.1 0 0-.5-.3-1-.3-.6-.5-.8-1-1l-.6-.3.5.1h.6l-.2-.8c-.3-1 0-.7.4.6l.8 1.7.5.7 2 .1h2l-.6-1.1-.5-1-2.3-1.3-2.2-1.3s1 .3 2 .9l2 .9-2-3.3-2-3.1 1.7 2.3c1.7 2.2 1.8 2.2 1.8 1.8l-.1-1v-1.3s.2.7.2 1.6c.2 1.5.2 1.5 1.3 3.3l1.2 2 .2-.6c.1-.3.2-.7.1-1 0-.3 0-.5.2-.4.1 0 .2 0 .4-.3.3-.5.3-.3 0 .4a5 5 0 0 0-.4 1.6l-.1 1 1.5 1.1a6 6 0 0 0 1.7 1c.2-.2.7-3 .6-4-.1-1.2-1-2.5-2.7-3.8-1.7-1.4-1.8-1.5-.5-.7l1.2.7-.6-2-.5-1.9.3.7c.1.4.3.6.4.5.1 0 .2.1 0 .2-.2.3.9 3 1.6 3.6l.5.5.2-1.7c.3-1.6.2-2-.1-2.8-.4-.8-.4-.8 0-.3.1.4.4.7.4.6l.2-1.1.2-1.3v1.8c-.5 4.5-.5 5.5-.3 6l.3.7c.2-.1 1.5-2.2 1.6-2.6 0-.2 0-.8-.3-1.3-.1-.5-.2-1 0-1 0-.2 0-.2 0 0 0 .3.6 2 .7 1.8l.4-.6c.3-.4.4-.8.3-1.3l-.5-3.6.4-.8.2-.7-.2 1.2c-.2.7-.2 1.4 0 2.5.4 1.7.5 2 .6 1.5a107.4 107.4 0 0 1-1 2l-2 3.8-.4 2.2c-.2 1.8-.2 2.2 0 2.8a32.5 32.5 0 0 1 1.5 3.4l.2-1c0-.5.2-1 .3-1.2v.9a8 8 0 0 0-.2 1.3c0 .1.7-.3.9-.6l.6-.4c.3 0 .2 0-.4.5l-1 .9c-.2.2 0 1.9.1 2.2l2.2-1.1 2-1.3.3-2.3.3-2.4-.6-1.4-.6-1.5-1-.7c-1.7-.9-1.8-1-.5-.4.6.4 1.2.5 1.2.5l-.4-1.5c-.2-.7-.4-1.3-.3-1.4.1-.2.2-.1.2.3a9 9 0 0 0 1 2.5l.4-1c.8-2.5.9-2.6.6-1.5l-.2 1 .4-.3c.3-.3.3-.3 0 .2-1 1.3-1 2.4-.2 3.9.4.7.5.7 1.2-.2.3-.5.7-1.5 1.2-3.3.3-1.4.6-2.3.6-2v.5c-.2.1-.8 3.2-.7 3.2l1-1 1-1.1-1.9 2.7-1.8 2.7-.2 1.9v1.9c.2.2.8-.4 2-1.7C114 26 114 26 115.2 23l1.2-3.1v-2.7c.1-3.8.2-3.6.3.5v1c.1 0 .5-.5.8-1.3 1.7-3 2.3-3.7 1-1l-.8 1.4 1.8-1 2-1-2 1.2c-2.3 1.4-2.2 1.3-2.8 3.4-.3.7-.3.8 0 .7.7-.2 2-1 2.4-1.7.2-.3.4-.6.5-.5l-.3.6-.4.5.5-.1-1.4.9-2 1-.4 1.8-.5 1.7 1.1-.5c2.3-1.2 3.7-2.1 5-3.4l1.3-1.2s-.3.5-.9 1l-1 1.2 1.7-.4 1.6-.3-1.9.6c-1.5.5-2 .7-3 1.3-1 .7-1 .7-1.1 1.6l-.2.9.5-.5c1-.9 1.4-1 .8-.4-1 1-1 1-.5 1l-.3.2c-.6.3-.8.5-1.3 1.3-.4.5-.5 1-.4 1h1.1l1-.2 1.6-1.2a21.4 21.4 0 0 0 2-1.6 1784.5 1784.5 0 0 1-2.8 2.6l1.7-.2 1.7-.2-2.8.7c-2.5.5-3 .7-2.2.7l.7.3-1-.1a12 12 0 0 0-3.4-.2l-2 .1-1.7 1.1a163.3 163.3 0 0 1-3.7 2.5 32.5 32.5 0 0 0 8.8 1.7c.7 0 5.8-2.4 6.8-3.2 1.1-.8 1.2-.8 1.5-2.5l.4-1.4-.2 1.2c-.1.6-.2 1.2-.1 1.3.1.2 1-.7 1.6-1.5.5-.9.7-1 .2 0l-.4.6.8-.3.8-.3-1 .5c-.8.4-3 2.2-2.8 2.4l2.3-.6a16 16 0 0 1 2.1-.6l-1.7.7a5 5 0 0 0-1.8.8c-.1 0 .2.3.7.5.7.3 1.2.4 2.7.3h1.8l-1.5.2-1.5.1 1.2.6c1.6.8 1 .6-1.3-.3-3.1-1.3-3-1.3-5-.3l-1.8.9 1.2.5a7 7 0 0 0 2.7.2c1.6-.1 1.9 0 .4.2-1.1 0-1.2.1-.4.4.9.3 1 .5.3.3-2.6-.7-4.6-1.1-5.1-1a3 3 0 0 0-1 .4l-.5.3 2.5 1 2.7 1.1 2-.4 1.7-.3-1.5.5-1.5.4c-.3.2.7.4 2 .5h1.6l-1.2.1c-.7 0-1.3 0-1.2.1a56 56 0 0 0 2.4 1.7 8.5 8.5 0 0 0-2.5-1.1l1 1.2 1 1.3-1.4-1.5c-1.4-1.5-1.5-1.6-2.8-2a6 6 0 0 0-1.4-.5l.6 1 .4.6-1-1c-.5-.8-.8-1-4.1-2-.3-.2-1.2-.3-2.2-.3l-1.7-.1.6.8.6.9 1.3.2a21 21 0 0 0 2 .2l-.4.2 1.2.6 1 .5c-.2 0-.3.2-.2.3 0 .2 0 .1-.2 0-.4-.6-1.4-1-3-1.4l-1.3-.2 1 1.3 1 1.4-1.1-1.2c-1.2-1.2-1.3-1.2-1 .2v.6l-.3-1.2c-.3-1.2-.3-1.2-1.3-2.3a5 5 0 0 0-1.5-1.1 3673.8 3673.8 0 0 0-4.5-1.1c-.2 0-.1.4.7 2.7l.8 2.6 1.1.9 1.3 1 5.6 1.2 2.8-.3c2.2-.5 3-.5 1.1-.1l-.9.3.9.5.7.4-1-.4c-1-.4-2.3-.5-2.6 0l2.3 1.5a21.9 21.9 0 0 1 2 1.5 14 14 0 0 0-2.7-1.4s0 .4.2.7c.2.6.2.6-.2-.2-.8-1.4-1.8-1.9-4.9-2.4l-2.6-.4.3.5c.3.4.7.6 2.2 1.1a25.1 25.1 0 0 0 2.6.8h-.6l-.7-.3.1.4c.1.4.1.3-.2 0-.2-.3-.6-.5-1.5-.7l-1.3-.2 1.2 1.7a7 7 0 0 0 2.2 2.5c1.3 1 1.3 1.1 0 .2l-1-.7.4.8c.3.6-.2 0-1.7-2.2a18.5 18.5 0 0 0-4.3-5l-.7-.5.1 1.3c0 .7.3 1.7.5 2 .5 1.1 2 2.6 3.3 3.2.6.3.7.4.4.3l-.6-.2h-.3s.2.5 1.2 1.8l1.1 1.7-1.6-2c-1.4-1.8-2.4-2.9-2.7-2.7l.2 1.3c.2 1.3.3 1.4 2 3.3l-.5-.4-1-.7c-.2 0 0 .5 1 3.2.5 1.4.2 1-.5-.6l-.6-1.4c-.1-.3-.8 1.9-.6 2.4v.2c-.2-.4-.2-.5-.7.8-.1.3 0-.5.4-1.7.7-2.3.7-2.3.3-3.8-.3-1.5-.5-1.7-.6-1V47c.1-.9-.2-2-.7-2.6-.3-.3-.3-.2-.7 1.3-.4 1.4-.5 2-.3 3.6.2 2.3 0 2.4-.2.4l-.3-1.3-1 2.6a31.1 31.1 0 0 1-.4 1.2l.3-1.4-.9.9-.8.7s.3-.5.9-1l1-1.2.9-3.5c.7-2.6.9-3.7.8-4.3-.2-1-.3-1-.8-.2-.6 1-.9 1.8-.8 2.5 0 .6 0 .7-.1.3l-.2-.5-.4 1.1c-.4 1-.4 1-.3.5l.2-.8c.2-.1.8-2 .7-2l-.9.3-.8.3 1-.5c.7-.4.9-.5 1.4-1.5.4-.6.7-1.4.7-1.7 0-.6-2-5.7-2.2-5.8l-1.6 1.7a14.2 14.2 0 0 0-3.4 5.7 58.1 58.1 0 0 0 2.6 7.4l-.9-1.7c-.1-.4-.2-.4-.5-.2-.7.4-.9 1-.7 2.7l.1 1.7-.3-1.6c-.1-.9-.3-1.6-.4-1.5-.4.3-1.8 2-1.9 2.2l-.5 2.2c-.5 2.1-.5 1.8 0-.6.4-1.7.3-1.8-.7-.8l-.6.5 1.2-1.3a61 61 0 0 0 3.7-4.2 29 29 0 0 0-1.5-3.7c-.2-.3-.2-.2-.7.6l-.7 1.4a3 3 0 0 0 0 2.5v.7c-.2 0-.4.2-.5.5l-.4.4s0-.3.3-.6c.3-.4.3-.7.2-1.4a3 3 0 0 0-.2-.8s-.9 1.2-1.8 2.8a2437.9 2437.9 0 0 1-1.9 3 61.7 61.7 0 0 1 3.1-6l-3.6 1.4-.6 1A17 17 0 0 1 91 51l.7-1.7c1-2 1-2.3-.3-.8l-.8.7.4-.5c.2-.2.4-.5.3-.6l-1.4.5a8 8 0 0 1-1.3.4zm25.7-20.4h1.2l.9-1c.8-1 1.6-2.9 1.4-3.2a13 13 0 0 0-3.3 2.2c-.8.7-1.6 1.9-1.5 2h1.3zM83 38.5c.1-.1.2-.1.1 0 0 0-.2.2-.3.1l.2-.1zm6.9 6.7h.1c0 .2-.2.2-.3.2l.2-.2zm6-5c.2-.1.4 0 .4 0h-.5c-.4 0-.4 0 0 0zM111.4 54l.1.2c0 .1 0 0-.2 0V54zm-3.2-6c.1-.3.1-.3 0 0 0 .4 0 .4-.2.3 0-.1 0-.3.2-.4zM92.4 18.2l.2.2-.2-.1c-.1-.2 0-.2 0-.1zm7.7 11.3.1.3-.2-.2v-.1zM98.7 25c.2-.1.2-.1.2 0l-.3.2.1-.2zM115 49.5l.3.4c0 .2 0 0-.2-.2l-.1-.2zM98.9 19c0-.4.2-.2.3.3 0 .2 0 .3-.1.2L99 19z"
       style="fill:#000;stroke-width:0.633701"
       id="path3" />
    <path
       d="m25 108.3 4-7.2c.2-.5.3-.8.1-1.7l-.3-1a46 46 0 0 0-3.3 4.7v.5l-.1-.3c-.2-.4-.2-.4-.7.3l-.5.5 1-1.5 2.3-3.4 1.2-1.8-.4-1.9-.3-1.9-.6.5-.6.4-.1 1c0 .9 0 1.3.3 2 .4 1 .3 1.1-.1.2l-.3-.6-.7 1.4-.7 1.4.5-1.3c.6-2.1.7-2.1.7-3V95l-1 .8c-1 .7-1.1.8-1.7 2.1l-.6 1.4.4-1.2.4-1.2-.7.6c-1.2 1.1-1 .7.3-.5 1.3-1 1.4-1.3 1.2-1.2h-1.9l1.2-.2h1.2l1.3-1.3 1.3-1.2.2-2.4V88s-2.3 1-2.8 1.4c-.4.3-.7 1.2-.7 2.4v.4c-.1-.6-.3-.6-.4 0-.1.4-.2.5-.3.4 0-.1 0-.6.3-1l.4-1.4v-.5l-.9.5-2 1.5c-.9 1-1 1-1.5 2.7-.6 1.6-.6 1.7-.4 3a66.5 66.5 0 0 0 1 5.8l-.7-2-.5 1.7c-.5 2-.7 2.4-.3.5.5-2.2.6-2.2-.7-1-1.5 1.3-1.5 1.1 0-.3.7-.6 1.2-1.2 1.2-1.4 0-.1 0-1-.3-2-.3-1.4-.4-1.8-.5-1.6-.2.1-1 1.3-2 2.7-2 2.9-2.1 3-.3 0l1.2-2a6 6 0 0 0-1.9.8c0 .4-1 2.4-1 2 .1-.4 0-.4-.7-.1-.5.2-.4.1.2-.2.7-.4.8-.5 1-1.1l.4-.7-.8.3a85.5 85.5 0 0 1 1.6-.9c1.6-.8 1.9-1 2.3-2.1.5-1.2.9-2.4.7-2.5l-2.3 1a15 15 0 0 0-4.5 2.8 36 36 0 0 1-2.3 1.8l2.1-2a66 66 0 0 0 2.2-1.8h-1c-1 .1-1.2.2-1.9.8l-.7.6.6-.6c.6-.5.5-.6 0-.5l-2 .3 1-.3c.9-.2 1-.3.8-.5-.1-.1 0-.2.4 0 1.2.2 3-.2 5.7-1.4 2-1 2.5-1.2 3.1-2 .5-.4.8-.9.8-1l-3.2-.7c-.7-.1-1 .2-1.6 1.4l-.4.8.2-.8.2-.8-.4.5a45.2 45.2 0 0 0-.5.3c.3-.5.3-.5 0-.4-.2 0-.1 0 .3-.2.6-.3 1.2-.8 1.3-1 0-.2-.9-.2-2.3 0-1.2.1-1.6.3-2.7 1-1.3.7-1.4.8-1.8 1.6-.4.9-.4 1-.2.2.2-.4.2-.7.1-.8h-.1l-.7.5-.7.4.5-.4 1.2-.8c.8-.4.7-.6-.4-.6l-.7-.1h1c.8 0 1.3-.1 1.7-.4 1-.6 1-.7-.4-1.1-1.5-.6-1.2-.6.5 0a4 4 0 0 0 2.5 0c.7 0 1.3-.2 1.3-.3 0 0-.5-.6-1.2-1-.2-.2-.1-.2.3 0l.5.2v-.6c-.1-.4 0-.4 0 .2.4 1.2.5 1.2 3.7 1.7l3 .5 2-1.2c1.3-.7 2-1.2 1.9-1.3-.4-.2-1.6 0-2.5.4l-.5.1c.2-.2 0-.2-.8-.2l.5-.2c.7 0 .8 0 .5-.3-.3-.2-.3-.2.1 0 .5.1 1.4 0 1.5-.2l-.8-.7c-1.1-.8-1-.8.2 0 .7.5 1 .6 1.8.7.9.2 1.4 0 1.3-.3-.2-.4-2-2.1-3.5-3.2-1.4-1-1.4-1-2.3-1-1.3-.1-1.4 0-1.5.7 0 .8 0 1-.1.1v-.6l-.4.3-.5.3.4-.4c.7-.5.6-.6-.6-.6A109 109 0 0 0 12 86a8 8 0 0 0 1-.8l-1.5-.4-.8.4-.6.5.5-.5.5-.5-.2-.1-.7-.1c-.2 0-.3 0-.2-.1h.6a76.2 76.2 0 0 0 2.8.6l1.1-.9-.7-.5c-.6-.3-.8-.4-1.4-.3h-.6.5l.4-.4-.6-.6c-.8-.6-.4-.5.6.3l1.6 1 .8.3 1.5-1 1.5-1-1-.6-1-.6-2.4.2a26 26 0 0 1-2.4 0l2-.2 2-.4-3.2-1.5-3.3-1.5 2.6 1c2.5.8 2.5.8 2.3.4a3 3 0 0 0-.6-.6c-.3-.3-1-1.2-.7-1.1l1 1.1c1 1.2 1 1.2 2.8 2l1.9 1-.2-.6-.5-.9c-.2-.2-.2-.3-.1-.4.2 0 .2 0 .2-.4 0-.6 0-.4.2.3 0 .3.3 1 .6 1.5l.5 1h1.7l1.8-.1c0-.3-1-2.7-1.7-3.5-.8-1-2-1.5-4.1-1.7-2-.2-2.2-.2-.8-.3H17l-1.5-1.3-1.4-1.3.5.4c.4.2.5.3.7.2l.1.1c0 .4 2.2 2 3 2.1l.8.2-.8-1.6c-.7-1.3-.9-1.6-1.6-2-.7-.5-.8-.5-.2-.3l.7.3-.5-1-.5-1.2.9 1.5c2.1 3.8 2.6 4.6 3.1 5l.6.3c0-.2 0-2.5-.2-2.8-.1-.3-.5-.7-.9-1-.4-.3-.7-.6-.7-.8 0-.2 0-.2.1 0 .2.3 1.5 1.3 1.5 1.1v-.7c0-.5-.1-.8-.5-1.2-2-2.1-2.5-2.6-2.3-2.6l-.2-.9-.2-.7.5 1.2c.2.6.7 1.1 1.4 1.9 1.2 1.2 1.4 1.3 1.3 1l-.1-2.4.5 4.4.4 4.2 1 1.9c.7 1.6 1 1.9 1.5 2.2a32.5 32.5 0 0 1 3 2l-.4-.8a8 8 0 0 1-.5-1.2c0-.2.1.1.5.7l.6 1.2c.1 0 .3-.6.3-1l.3-.6c.2-.3.2-.1 0 .6l-.3 1.2c0 .3 1 1.6 1.3 1.7l1-2 .8-2-1-2-1-2.1-1.3-.9-1.2-.9h-1.3c-1.7.2-1.8.1-.5 0l1.2-.3-1-1c-.7-.4-1.1-.8-1.1-1l.3.2a9 9 0 0 0 2 1.5l-.2-1c-.7-2.5-.7-2.6-.3-1.6l.4 1 .1-.5c.1-.4.1-.4.1.2 0 1.5.6 2.5 2 3.2.7.4.8.4.8-.8 0-.5-.3-1.6-.9-3.2-.5-1.3-.8-2.2-.6-2l.2.5 1.3 3 .2-1.4.1-1.4.1 3v3.3l1 1.5 1 1.5c.2.1.4-.6.6-2.4.2-1.7.2-1.8-.6-4.8l-.8-3.1-1.4-2.2c-2-3.1-1.8-3 .5.2l.6.9v-1.5c-.5-3.2-.4-4.1 0-1.3L30 68l.9-1.8.8-1.8-.8 2c-1 2.3-1 2.2-.3 4.2.2.7.3.7.5.5a5 5 0 0 0 .9-2.5V68l.1.6v.6l.3-.3c.2-.2-.1.5-.6 1.5L31 72l.6 1.7.6 1.7.5-1c1.1-2.1 1.7-3.6 2-5.3l.3-1.6-.1 1.3-.1 1.4 1-1.2 1-1-1 1.4a8.3 8.3 0 0 0-1.6 2.5c-.4 1.1-.4 1.1 0 2l.3.8.2-.7c.3-1.2.4-1.6.3-.8-.2 1.4-.2 1.4.1 1 .3-.2.3-.1 0 .4-.4.6-.4.8-.3 1.7 0 .6.1 1 .2 1 0 0 .5-.2.8-.6l.7-.6.6-1.8a20 20 0 0 0 .6-2.2v.6a1665.8 1665.8 0 0 1-.7 3l1.2-1.2 1.2-1-1.7 2c-1.7 1.7-2 2.1-1.3 1.7l.6-.2c.2 0-.2.2-.8.5-.7.3-1.7 1-2.6 1.6L32 80.3l-.7 1.8a149.6 149.6 0 0 1-1.5 4 28.7 28.7 0 0 0 7.6-3.3c.5-.4 3.1-4.9 3.5-6 .4-1.3.4-1.3-.2-2.8l-.5-1.3.5 1 .6 1c.2.1.5-1 .4-2 0-1 0-1 .2-.1v.7l.5-.6.4-.6-.4.8c-.5.8-1.1 3.3-1 3.4l1.5-1.7 1.3-1.6-1 1.5-1 1.6h1c.7-.1 1-.3 2.1-1.1l1.4-1-1 1-1.1.9 1.2-.2c1.7-.2 1.2 0-1 .4-3.2.6-3.1.6-4 2.3l-1 1.7 1.2-.2c.8-.3 1.5-.6 2.2-1.2 1.2-1 1.4-1 .4-.1-.8.7-.8.7 0 .6a19 19 0 0 0-4 1.9c-.3.1-.6.5-.7.8l-.1.5 2.4-.4 2.7-.6 1.3-1.3 1-1.2-.8 1.2-.9 1.1c-.1.3.7 0 1.8-.7a10 10 0 0 1 1.2-.7l-.9.7c-.5.3-.9.7-.8.7a50.9 50.9 0 0 0 2.7 0l-2.5.4 1.5.5a8 8 0 0 1 1.5.5l-2-.4c-1.9-.5-2-.5-3.2-.3l-1.3.4 1 .5.6.3-1.3-.3c-.8-.4-1-.3-4.3.5-.2 0-1 .4-1.7.9l-1.4.8 1 .4.8.4 1.1-.6a18.3 18.3 0 0 0 1.7-.8c-.2.1-.3.3-.2.3l1.2-.1h1v.3c-.6-.3-1.7 0-3 .5l-1.1.5 1.5.5 1.5.6-1.5-.4c-1.6-.3-1.7-.3-.7.7l.4.4-1-.7c-.8-.8-.8-.9-2.1-1.2-1-.2-1.5-.3-1.8-.2a3232.1 3232.1 0 0 0-4 1.5c-.2 0 .1.4 2 1.9l2 1.6 1.3.1 1.6.2c.2 0 4.2-1.6 4.9-2 .2 0 1-.8 1.9-1.6 1.4-1.5 2-2 .8-.7l-.5.7h1l.7-.1s-.4.2-1 .2c-1 .2-2 .8-2 1.3l2.6.1a20 20 0 0 1 2.4.2c-.7 0-3 .1-2.9.2l.6.5c.5.3.4.3-.3 0-1.4-.8-2.4-.7-5 .5l-2.2 1 .5.3c.4.2.8.2 2.3-.3a22.1 22.1 0 0 0 2.4-.7l-.5.3-.7.2.3.2c.3.3.3.3-.1.1-.4-.1-.8 0-1.6.3a9 9 0 0 0-1 .4l1.8.8a8 8 0 0 0 3 .9c1.5 0 1.6.2.2.1h-1.2l.7.5-2.5-1a18.1 18.1 0 0 0-6-1.8h-.8l.8 1c.5.6 1.1 1.2 1.5 1.4 1 .6 3 1 4.2.8h.5l-.6.2-.2.1c0 .1.5.4 1.9.9 1 .4 1.9.7 1.8.8l-2.4-.8c-2-.7-3.4-1-3.5-.8l.9 1c.9.9 1 1 3.2 1.6h-.5c-.6-.1-1.1-.2-1.2-.1l2.6 2c1.1.9.7.7-.7-.2l-1.2-.8c-.3-.1.4 2 .8 2.2.2.2.2.3 0 .2-.3-.2-.3-.3 0 1 0 .3-.2-.4-.6-1.6-.7-2.2-.7-2.2-1.8-3.2-1-1-1.3-1-1.1-.5l-.3-.4a3.7 3.7 0 0 0-1.9-1.8c-.4 0-.4 0 .1 1.5a8 8 0 0 0 1.8 3c1.3 1.7 1.4 1.9 0 .4-.4-.6-.8-1-.9-.9l.7 2.6a31.3 31.3 0 0 1 .3 1.2c-.2-.8-.5-1.3-.5-1.3l-.2 1.1c0 .6-.2 1-.2 1v-1.3l.2-1.3-1.2-3.3a15 15 0 0 0-1.8-4c-.6-.6-.7-.6-.6.3 0 1.1.3 2 .7 2.5.4.4.4.5 0 .2l-.3-.3.3 1.1c.2 1 .2 1 0 .6l-.3-.8c0-.1-.5-2-.6-1.9l-.5.7-.4.6.4-.8c.4-.8.5-1 .3-2 0-.7-.2-1.5-.4-1.7a32 32 0 0 0-4.8-3.6l-.3 2.3a13.8 13.8 0 0 0 .5 6.2 58.5 58.5 0 0 0 6 4.6 20 20 0 0 1-1.6-.9c-.3-.2-.3-.1-.5.1-.3.8 0 1.3 1 2.6l1 1.3s-.6-.5-1.1-1.2l-1.1-1c-.2.5-.4 2.6-.2 2.8a31.8 31.8 0 0 1 .4 1.6c-.6-1.6-.7-1.6-1-.3l-.1.7.2-1.7c.2-1.5.5-5 .4-5.3l-3-2.1c-.4-.1-.4-.1-.3.8l.2 1.5c.1.7.6 1.4 1.4 2 .2.3.4.5.3.6v1.1c-.1 0-.2-.2-.2-.6 0-.5-.1-.7-.6-1.2a3 3 0 0 0-.6-.6l.1 3.2a2388.3 2388.3 0 0 1-.2.1l-.5-3.2-2 3 .1 1.1.4 3-.4-1.8c-.3-2.1-.6-2.3-.7-.4l-.2 1v-1.2s-.5.4-.9 1c-.4.7-.7 1.2-.7 1zm8.4-29.7.9-.6v-1.3c.2-1.2-.2-3.1-.6-3.3a12 12 0 0 0-1.3 3.5c-.1 1-.2 2.4 0 2.3l1-.6zm-18.5 24c0-.1.1-.2.1 0l-.1.3v-.3zm9 1.9c0-.2 0-.2 0 0v.2c-.2 0-.2 0 0-.2zm1.7-7.2.4-.2-.4.3c-.3.2-.3.2 0-.1zm19.4 3.2.3.1H45c-.2 0-.2-.1 0-.1zm-5.8-3.2c0-.3 0-.3.2 0v.3l-.2-.3zM11.1 81.5l.2.1c0 .1 0 .1-.2 0-.2 0-.2 0 0 0zm12 5.2.2.1h-.2c-.2 0-.2-.1 0-.1zm-3.5-3c0-.1 0-.1 0 0v.3c-.1 0-.1 0 0-.2zM45.2 95c.1 0 .3 0 .4.2h-.2l-.2-.2zM16.4 78.7c-.2-.3 0-.2.4.2.1.1.1.2 0 .2a.9.9 0 0 1-.4-.4z"
       style="fill:#000;stroke-width:0.598493"
       id="path4" />
    <path
       d="m127.7 141 .4-9.2c0-.6 0-.9-.7-1.7l-.8-1-.7 3c-.6 3-.6 3-.3 3.5l.3.5-.3-.3c-.4-.3-.4-.3-.6.6 0 .6-.2 1-.2.9l.2-2.1.7-4.5.3-2.4-1.3-1.8-1.3-1.7-.4.8-.3.7.4 1.1c.3.9.6 1.3 1.2 1.8.9.8.9 1 0 .3l-.6-.5v3.5l-.2-1.6c-.3-2.4-.3-2.4-.7-3.2l-.4-.8-.6 1.3c-.7 1.3-.7 1.4-.6 3v1.6l-.1-1.4-.2-1.3-.4 1c-.7 1.6-.7 1 0-.7.8-1.8.8-2 .6-1.9l-1.9 1 1.2-.8 1.1-.7.7-1.8.7-2-1-2.4-1.1-2.6c-.2 0-1.9 2.2-2.2 2.8-.3.6-.1 1.6.5 2.8l.2.5c-.4-.6-.6-.5-.5.2.1.4 0 .5 0 .4-.2 0-.3-.5-.3-1 0-.6-.1-1.3-.3-1.6l-.2-.6-.6 1a11 11 0 0 0-1.2 2.4c-.5 1.5-.5 1.6-.3 3.5.2 2 .2 2 1 3.3a74.4 74.4 0 0 0 3.9 5.3l-1.5-1.6c-.1 0 0 .8.3 1.8.5 2.3.4 2.8 0 .7-.7-2.5-.6-2.4-1.4-.7-.8 2-.8 1.9 0-.3l.5-2-1.3-1.8c-1-1.3-1.3-1.6-1.4-1.4l-.6 3.7c-.5 3.9-.7 4-.3.2l.2-2.6a7 7 0 0 0-1.5 1.7v2.6c-.1-.5-.2-.5-.8.2-.4.4-.3.3.1-.3.5-.7.6-1 .6-1.7v-.9l-.8.8a95.6 95.6 0 0 1 1.1-1.7c1.4-1.7 1.5-2 1.4-3.3 0-1.4-.3-2.8-.5-2.8l-1.8 2a16.8 16.8 0 0 0-3.1 5.1l-1.5 3 1.2-3 1.2-3-1 .6c-.8.5-1 .7-1.4 1.7l-.5 1 .3-1c.3-.8.3-.9-.3-.4l-1.8 1.2.9-.8c.8-.6.9-.8.6-.9-.3 0-.2-.1.4-.2 1.3-.3 2.9-1.7 5-4.2 1.6-2 1.8-2.5 2.1-3.5l.3-1.3c0-.1-2.8.4-3.6.7-.7.3-1 .8-1 2.2l.1 1-.1-.8-.2-1-.2.7a50.7 50.7 0 0 0-.4.6c.1-.6 0-.6-.2-.4l.2-.4c.5-.6.8-1.3.8-1.6 0-.2-1 .2-2.2 1a6.5 6.5 0 0 0-2.4 2.4c-.9 1.4-1 1.5-.9 2.6v.3l-.3-.9c-.1 0-.2 0-.2.2l-.5.8-.5.6.4-.6.8-1.4c.5-.8.4-.9-.8-.4l-.7.3 1-.6c.8-.4 1.2-.7 1.6-1.2.7-1 .6-1.1-1-1-1.8.3-1.5.1.4-.2 1.3-.2 1.6-.3 2.6-1.1l1.2-1c0-.1-.9-.4-1.7-.5-.3 0-.3 0 .2-.1h.6l-.3-.6c-.3-.4-.2-.4.2.1 1 1 1 1 4.5 0l3.2-1 1.5-2.2c1-1.4 1.4-2.3 1.2-2.3-.4 0-1.6.9-2.3 1.6-.3.4-.5.6-.5.4.2-.2 0-.2-.8.2-.2 0 0-.1.4-.4.7-.5.7-.5.3-.6h.2c.5-.1 1.3-.7 1.3-1l-1.1-.2c-1.5-.3-1.3-.4.2-.2 1 .1 1.4.1 2.1-.1 1-.3 1.5-.7 1.1-1-.3-.3-3-1.1-5-1.5-1.8-.3-1.9-.3-2.8.1-1.4.6-1.5.6-1.1 1.4.4.9.3 1-.1.3l-.3-.7-.2.6-.4.5.2-.7c.4-.8.3-.8-.8-.2-.7.3-1.1.9-2.6 3a122 122 0 0 0-3 4.3 9 9 0 0 0 .6-1.2c0-.1-1.1 0-1.8.3l-.6.8-.3.8.2-.8.3-.7h-.4c-.2 0-.5 0-.6.2-.2.1-.4.1-.4 0l.7-.3a85.6 85.6 0 0 0 3.1-.8l.7-1.4-1-.1c-.8-.1-1 0-1.5.3l-.6.4.4-.4.3-.5-1-.3c-1-.3-.6-.3.8 0 .6 0 1.6.2 2 .1h1l1.1-1.7 1-1.8-1.3-.1H105l-2.3 1.2-2.4 1.3 1.9-1.2 1.8-1.4h-4l-4 .2 3-.3c3-.4 3-.4 2.6-.7l-1-.4c-.4 0-1.5-.7-1.2-.7l1.6.7c1.5.6 1.6.7 3.9.6h2.3l-.5-.5c-.2-.2-.6-.5-1-.6-.2-.1-.4-.3-.2-.4v-.5c-.4-.6-.1-.4.3.2.2.4.8 1 1.3 1.3l1 .6 1.7-.8a6 6 0 0 0 1.8-1c0-.3-2.4-2.2-3.4-2.6-1.3-.6-2.9-.5-5 .3-2.2.8-2.3.8-1 .1l1.4-.7-2.2-.5-2-.6h.7c.4.2.7.2.7 0 .1-.1.2 0 .2 0 .2.5 3.2.9 4.2.6l.8-.2-1.6-1.1c-1.4-1-1.7-1.2-2.7-1.3-1-.1-1-.1-.3-.1l.8-.1c0-.1-.4-.5-1-.8l-1-.9 1.6 1c4 2.8 5 3.3 5.6 3.5.4 0 .8.1.8 0 0-.2-1.4-2.5-1.6-2.7-.2-.2-.8-.4-1.4-.5-.6-.1-1-.4-1.1-.5 0-.2 0-.2.2 0 .2.1 2 .5 2 .3l-.4-.7c-.2-.5-.5-.8-1-1-3.2-1-4-1.4-3.7-1.4.1 0-.1-.4-.6-.8l-.6-.6 1.1.9c.5.5 1.2.8 2.4 1.2 1.7.6 2 .7 1.7.3a118.8 118.8 0 0 1 1.4 1.9l2.5 4 1.9 1.4c1.6 1.3 2 1.5 2.7 1.5a36.4 36.4 0 0 1 4 .6l-.9-.7a9 9 0 0 1-1-1l.8.6 1.2.8-.1-1-.1-.9c0-.3.1-.2.3.7 0 .6.2 1.2.3 1.3 0 .3 1.7 1 2.1 1V112l-2.1-1.6-2-1.5-1.8-.3-1.7-.2-1.2.6c-1.6 1-1.8 1-.5.2.6-.4 1-.8 1-.9l-1.6-.4c-.8-.1-1.5-.3-1.5-.5-.1-.2 0-.2.4 0 .6.2 2.7.6 2.8.5l-.7-1c-2-2-2-2-1.1-1.3l.8.8v-.5c-.2-.6-.2-.5.1 0a4 4 0 0 0 3.6 2.3c1 0 1 0 .4-1.2-.3-.5-1-1.4-2.5-2.8-1.1-1-1.8-1.8-1.6-1.7l.5.4c0 .2 2.7 2.4 2.8 2.3l-.5-1.4-.6-1.5 1.6 3 1.7 3.2 1.6 1.1 1.8 1c.3 0 .1-.8-.6-2.6-.6-1.9-.7-2-3-4.6l-2.3-2.7-2.5-1.6c-3.5-2-3.3-2 .6 0l1 .6-.8-1.4c-2-3-2.4-4-.6-1.4l1 1.5v-4.5l.1 2.4c.2 2.7.2 2.6 1.8 4.3.6.6.7.6.7.4.3-.7 0-2.3-.3-3l-.3-.8.4.6.3.6.1-.5.2 1.8v2.2l1.4 1.4 1.4 1.4v-1.3c.1-2.7 0-4.4-.6-6.2l-.4-1.9.5 1.4c.3.8.5 1.5.6 1.4l.5-1.6.5-1.7-.4 2a9.3 9.3 0 0 0-.3 3.4c.1 1.3.1 1.3.9 2l.8.6-.2-.8c-.3-1.4-.3-1.8 0-.9.3 1.5.4 1.5.6 1 0-.4.1-.3 0 .4 0 .7.1 1 .6 1.8.3.6.7 1 .8 1l.5-1.1.4-1-.4-2a22.3 22.3 0 0 0-.4-2.6l.3.7a1706.4 1706.4 0 0 1 .7 3.2s.4-.7.7-1.7c.3-1 .6-1.6.7-1.6l-.8 2.8c-.8 2.6-1 3.2-.4 2.5 0-.2.3-.4.5-.6.2 0 0 .3-.6.9-.5.6-1.3 1.8-1.8 3l-1 1.8.2 2.1a167.3 167.3 0 0 1 .5 4.6 32 32 0 0 0 6-7c.3-.6.7-6.4.5-7.7-.2-1.5-.2-1.5-1.6-2.7l-1.1-1 1 .7 1.1.8c.3 0 0-1.4-.5-2.2-.6-1-.5-1.2 0-.3l.5.7v-.8l.2-.9v1c0 1.1.5 4 .8 3.9l.5-2.3c.3-1.3.5-2.4.6-2.3l-.2 2c-.2 1-.3 1.9-.2 2 0 .1.4 0 .9-.4.6-.5 1-.9 1.6-2.2l.9-1.6-.6 1.4-.6 1.4 1.1-.7c1.6-1 1.2-.7-.9 1-2.8 2-2.7 2-2.8 4.2v2.1c0 .1.5-.2 1-.7.7-.7 1.1-1.4 1.6-2.3.7-1.6 1-1.8.3-.3-.4 1-.4 1.1.3.6.7-.6 1-.7.3-.1a23 23 0 0 0-3.5 4 3 3 0 0 0 0 1.1v.6l2.2-1.7 2.4-1.8.7-2 .5-1.7-.3 1.6-.4 1.6c0 .4.7-.4 1.5-1.6l.9-1.4-.6 1.2-.5 1.1a56.4 56.4 0 0 0 2.8-1.3l-2.3 1.6 1.7-.2a9 9 0 0 1 1.7-.2l-2.1.5c-2.2.4-2.3.5-3.4 1.3a6 6 0 0 0-1 1c0 .2.5.2 1.2 0 .8 0 1 0 .7.1a7 7 0 0 1-1.5.3c-1 0-1.2.2-4 2.6l-1.4 1.8-1 1.5 1.2-.1h1l1-1.2a20.5 20.5 0 0 0 1.2-1.6c-.1.2-.1.4 0 .4l1.1-.7 1-.6c0 .2 0 .3.2.3s.1.1-.2.1c-.7.1-1.6.8-2.7 2l-.9 1 1.8-.1 1.8-.2-1.7.4c-1.8.4-1.8.5-.3 1l.6.2s-.7 0-1.4-.3c-1.2-.3-1.3-.3-2.7 0-1 .2-1.7.4-1.9.7a3628.7 3628.7 0 0 0-3.3 3.5c-.2 0 .3.2 3 .8l2.7.6 1.4-.5 1.7-.6 4-4.4 1-2.6c.7-2.2 1-2.9.6-1.1l-.2 1 .9-.5.7-.5-.8.8c-1 .6-1.7 1.7-1.5 2.2 0 .1 1.3-.4 2.7-1.1a22.5 22.5 0 0 1 2.5-1 11 11 0 0 0-2.8 1.6l.8.2h-.3c-1.7 0-2.7.6-4.8 3.1l-1.6 2.1.6.1c.5 0 1-.3 2.2-1.4a24.8 24.8 0 0 0 2-2s0 .3-.4.6l-.5.5.4.1c.4 0 .4.1-.1.2-.4 0-.8.2-1.4 1l-.9 1 2.3-.1c2-.1 2.3-.2 3.4-.7 1.6-.7 1.8-.6.2.1l-1 .5.8.1c.7.1 0 .2-3 .4-4.1.3-5.8.5-7 1.1l-.6.4 1.2.6 2.2.7c1.3 0 3.5-.5 4.6-1.3.6-.4.8-.5.5-.2l-.5.4-.1.2c0 .2.6.2 2.3 0l2.2-.1-2.8.4c-2.3.2-3.9.6-3.9.9l1.3.6c1.4.5 1.5.5 4.1 0 .4 0 .1 0-.5.2l-1.2.5c0 .1.5.3 3.6.8 1.5.3 1 .3-.9 0l-1.6-.1c-.3 0 1.4 1.7 2 1.9.2 0 .3.1 0 0-.4 0-.4 0 .5 1.1l-1.4-1.3c-1.8-1.8-1.8-1.8-3.4-2.3-1.5-.5-1.8-.5-1.3 0 0 .2-.1 0-.5-.3a5 5 0 0 0-2.8-.8c-.4.1-.4.2.9 1.4a9 9 0 0 0 3.2 2.2c2.2 1 2.4 1.2.3.4-.8-.4-1.4-.6-1.4-.5l2 2.2a35 35 0 0 1 .9 1.1l-1.2-1c0 .1.1.7.4 1.3l.3 1.1-.6-1.4-.5-1.5-3-2.7c-2-2-3-2.8-3.6-3-1-.4-1-.3-.5.6.5 1 1.2 1.8 2 2 .5.3.5.4.1.3h-.5l.8.9c.7.8.7.9.2.5-.3-.2-.5-.5-.5-.6a7 7 0 0 0-1.6-1.7l-.2 1v.8-1c0-1 0-1.2-.7-2.2l-1.3-1.5c-.5-.3-6.4-1.4-6.6-1.2l.8 2.4a15.5 15.5 0 0 0 3.7 6 65.5 65.5 0 0 0 8.3 1.7l-2.1-.1c-.4 0-.5 0-.5.3 0 1 .6 1.4 2.3 2.1l1.6.8-1.7-.6-1.5-.4c0 .6.8 2.7 1.1 2.9a35.6 35.6 0 0 1 1.2 1.3c-1.4-1.3-1.5-1.2-1 .2 0 .4.1.7 0 .8l-.6-1.8c-.5-1.7-1.9-5.3-2-5.5-.2-.1-3.8-.7-4.3-.6-.3 0-.3 0 .2.8l1 1.5a4 4 0 0 0 2.3 1.4c.4 0 .7.3.7.4l.2.6.2.5-.4-.5c-.3-.5-.5-.7-1.2-1l-1-.2 1.8 3a2687.1 2687.1 0 0 1 2 3.4 68.3 68.3 0 0 1-4.2-6s-.6 3.8-.5 4l.6 1c1 1.5 2 3 1.8 2.9l-1.2-1.7c-1.5-2-1.7-2-1 0l.4 1-.3-.5-.4-.7-.3 1.6a8 8 0 0 1-.2 1.3zm-6.3-33.9.6-1-.5-1.4c-.5-1.2-2-3-2.3-3-.3 0 0 3.1.4 4.2.3 1 1 2.4 1.1 2.3l.7-1.1zm-6.7 33.3c0-.3 0-.3.1-.2v.4-.2zm10-2.6v-.1.4-.3zm-1.9-8 .3-.4-.2.4c-.2.3-.2.3 0 0zm21-6.5h.4l-.2.1h-.1zm-7.3-.4c0-.2 0-.2.2 0 .3.2.3.3.1.3 0 0-.2 0-.3-.3zm-36-1.8h.3-.3c-.2 0-.2 0 0 0zm14.5-.8h.3l-.2.1c-.2 0-.2 0 0 0zm-5-1.2c0-.2.1-.2.2-.1v.4l-.1-.3zm31.3-1.4h.6-.6zm-36.9-2c-.3-.3 0-.3.5-.1.2 0 .2.1 0 .2a1 1 0 0 1-.5-.2z"
       style="fill:#000;stroke-width:0.669684"
       id="path5" />
    <path
       d="m47.1 148.6 2.2-7.1c.1-.5 0-.7-.2-1.5a3 3 0 0 0-.5-.9 41.5 41.5 0 0 0-2 4.8l.1.5-.2-.3c-.2-.3-.2-.3-.5.4l-.4.6.6-1.6 1.4-3.3.8-1.9-.7-1.6-.7-1.6-.4.5-.4.5v1c.1.7.3 1 .6 1.6.6.8.5 1 0 .2l-.4-.5-.3 1.4-.4 1.4.2-1.3c.2-2 .2-2 0-2.7v-.7l-.8.9c-.8.9-.8 1-1 2.2l-.4 1.3.2-1.1.1-1.1-.5.7c-.9 1.1-.7.7.2-.6.9-1.2 1-1.3.8-1.3l-1.6.3 1-.3 1-.3 1-1.3.9-1.3-.3-2.2a14 14 0 0 0-.4-2.2l-2.3 1.8c-.3.4-.4 1.2-.1 2.3v.3c-.2-.5-.3-.5-.4 0 0 .4 0 .5-.1.4v-.9l.1-1.2v-.5l-.8.6c-.3.3-1 1-1.3 1.7-.7 1-.7 1-1 2.6-.2 1.6-.2 1.6.2 2.8a59.8 59.8 0 0 0 2 4.9l-1-1.6-.1 1.5c0 2-.2 2.3-.2.5 0-2 .1-2-.8-.7-1 1.4-1 1.2 0-.3l.8-1.4-.7-1.8c-.5-1.1-.7-1.4-.8-1.2a77.3 77.3 0 0 0-1.5 2.8l.7-2-1.5 1-.5 2c0-.4 0-.4-.6 0-.4.2-.4.2.1-.2s.6-.6.8-1.2l.1-.7-.7.5c-.6.4-.6.4-.2 0l1.5-1.1c1.3-1 1.5-1.3 1.7-2.3.2-1.1.3-2.3.1-2.3l-1.8 1.2c-1.6 1.2-2 1.5-3.5 3.4l-1.7 2 1.5-2.1 1.6-2-.9.2c-.8.2-1 .3-1.5 1l-.5.6.4-.6c.4-.6.4-.7-.1-.4l-1.8.6 1-.5c.7-.3.8-.4.6-.5-.2-.1-.1-.2.3-.2 1 0 2.6-.7 4.7-2.2 1.7-1.3 2-1.6 2.5-2.3l.4-1s-2.2-.2-3-.1c-.5 0-.8.4-1 1.5l-.3.8v-.7l.1-.8-.3.5a40.6 40.6 0 0 0-.3.4c.1-.5.1-.5-.2-.3l.3-.3 1-1c0-.3-.8-.1-2 .3a6 6 0 0 0-2.3 1.3c-1 1-1 1-1.3 1.9-.1.8-.1.8 0 .2l-.1-.8-.2.1-.5.6-.5.4.4-.5 1-.9c.5-.5.4-.6-.6-.4h-.7l1-.2c.7-.1 1-.3 1.4-.6.8-.7.7-.8-.5-1-1.5-.2-1.2-.2.3 0 1 0 1.3 0 2.3-.4l1-.6-1.2-.7c-.2 0-.1-.1.2 0h.6l-.2-.4c-.1-.4-.1-.4.2 0 .5 1.1.5 1.1 3.5 1l2.6-.1 1.6-1.5 1.5-1.5c-.4 0-1.5.3-2.1.8l-.5.2c.1-.2 0-.2-.7 0-.2 0 0-.1.4-.3.6-.2.6-.2.3-.3-.2-.1-.2-.2.2-.1.4 0 1.2-.2 1.2-.4l-.8-.5c-1.1-.4-1-.5.2 0 .7.3 1 .3 1.7.3.8 0 1.2-.3 1-.6-.1-.3-2.1-1.4-3.6-2-1.4-.7-1.4-.7-2.2-.6-1.2.1-1.3.2-1.2.9.2.7.1.8 0 .1l-.2-.5-.3.4c0 .2-.2.3-.3.3 0 0 0-.2.3-.5.4-.5.3-.6-.7-.3a98.1 98.1 0 0 0-5.8 4.6l.7-.9s-.8-.2-1.4-.1l-.6.5a2 2 0 0 1-.5.5l.4-.5.4-.5h-1.1c0-.2.2-.2.5-.2a68 68 0 0 0 2.6 0s.8-.8.8-1l-.7-.3c-.6-.2-.8-.2-1.3 0l-.5.2.4-.2.3-.4-.7-.4c-.7-.4-.4-.4.7.1l1.5.6.8.1 1.1-1.1 1.2-1.2-1-.4-1-.3-2 .6c-1.2.3-2.1.6-2.2.5l1.7-.6 1.7-.6-3.1-.8-3.2-.7 2.5.3c2.3.4 2.4.4 2.1 0l-.6-.4c-.4-.2-1-1-.9-.9l1.2.9c1 .8 1 .8 2.8 1.3l1.8.4-.2-.4-.6-.7c-.3-.2-.3-.3-.2-.4.1 0 .1-.1 0-.4 0-.5 0-.3.3.2 0 .3.4.9.8 1.3l.6.7 1.5-.3c.9-.1 1.5-.3 1.6-.4a10 10 0 0 0-2.1-2.7c-.9-.8-2.1-1-4-.8-1.8.2-2 .2-.7-.1l1.1-.3-1.5-.8-1.5-.9s.3 0 .5.2c.4.2.5.2.6.1l.2.1c0 .3 2.3 1.3 3 1.3h.7l-1-1.2c-.8-1.1-1-1.3-1.8-1.6-.7-.3-.7-.3-.2-.2l.7.1-.7-.8-.6-.9 1 1.2c2.6 2.9 3.2 3.5 3.7 3.8l.6.2c0-.2-.5-2.3-.7-2.5a3 3 0 0 0-1-.7c-.4-.2-.7-.4-.7-.6 0-.1 0-.1.1 0 .2.2 1.5.9 1.5.7l-.1-.6c-.1-.4-.3-.7-.7-1-2.2-1.5-2.7-1.8-2.5-1.8.1 0 0-.3-.3-.8-.3-.4-.5-.7-.3-.6 0 .2.4.6.6 1 .3.4.8.9 1.6 1.4 1.2.8 1.4 1 1.3.6l-.5-2 1.2 3.7 1.2 3.6 1.1 1.5c1 1.3 1.3 1.5 1.8 1.7a29.3 29.3 0 0 1 3 1.3l-.5-.7c-.3-.4-.6-.8-.6-1l.5.6.8.9s.2-.6.1-.9l.1-.6c.1-.3.2-.2.1.5v1.1c0 .2 1.1 1.2 1.4 1.3l.5-2 .4-1.9-1.3-1.6-1.2-1.7-1.3-.5-1.3-.5-1 .3c-1.5.3-1.7.3-.5 0l1-.5-1.2-.6-1-.7c-.1-.2 0-.2.3 0l2 1-.3-1c-1.1-2-1.2-2-.6-1.2l.5.8v-.4c0-.5 0-.4.1.1.3 1.3 1 2 2.4 2.5.7.2.7.1.5-.9 0-.5-.5-1.3-1.3-2.7l-1-1.6.3.4c0 .2 1.7 2.4 1.7 2.3v-1.2l-.2-1.2.6 2.7.7 2.8 1 1.1 1.2 1.2c.3 0 .3-.6.1-2.2-.1-1.6-.1-1.7-1.4-4.2l-1.2-2.6-1.7-1.6c-2.3-2.4-2.1-2.3.4 0l.8.7-.4-1.3c-1-2.7-1-3.5-.2-1.1l.5 1.3.4-1.7.5-1.8-.4 2c-.4 2-.4 2 .5 3.6.3.6.4.6.5.4.3-.5.5-1.7.4-2.4l-.1-.6.2.5.1.6.2-.4c0-.2 0 .5-.3 1.4l-.4 1.7.8 1.4.9 1.4.2-1c.6-2 .9-3.5.8-5v-1.5l.2 1.1.1 1.3.7-1.2.7-1.2-.7 1.5a7.5 7.5 0 0 0-.9 2.5c-.1 1.1-.1 1.1.3 1.7l.5.7v-.6c0-1.2.1-1.5.2-.7 0 1.2 0 1.2.3.9.2-.3.2-.3 0 .3-.2.5-.2.8 0 1.5l.4.9.7-.7.5-.7v-1.7a18 18 0 0 0 .3-2v.5a1484.3 1484.3 0 0 1 0 2.7l.9-1.2.8-1.1-1.2 2c-1.1 1.9-1.3 2.3-.8 1.8l.5-.3c.2 0 0 .2-.6.6-.5.3-1.4 1.1-2 1.9l-1.1 1.3-.3 1.7a134.6 134.6 0 0 1-.6 3.6 26 26 0 0 0 6.1-4.2c.4-.4 1.9-4.9 2-6 .1-1.1.1-1.2-.7-2.4l-.7-1 .7.8.7.8c.2 0 .2-1 0-1.8-.2-.9-.2-1 0-.2l.3.6.2-.6.3-.6-.2.8c-.3.8-.4 3-.2 3.1l1-1.7.8-1.6-.5 1.4a11 11 0 0 0-.6 1.6l.8-.1c.6-.3.9-.5 1.7-1.4l1-1.1-.7 1-.8 1 1-.4c1.4-.5 1-.2-.9.6-2.6 1-2.5 1-3 2.8L55 121l1-.4c.6-.4 1.1-.8 1.7-1.5.8-1 1-1.1.3-.1-.6.7-.6.8 0 .5.8-.3 1-.3.4 0-2 1.1-3.3 2-3.6 2.4l-.3.9v.4l2-.8 2.2-1c.2 0 .6-.7 1-1.4l.7-1.2-.5 1.1a15 15 0 0 0-.6 1.2c0 .3.6-.1 1.4-1a9 9 0 0 1 1-.8l-.7.8-.6.8a46.2 46.2 0 0 0 2.4-.5l-2 .8 1.3.2 1.4.1h-1.8c-1.8 0-1.9 0-2.9.4l-1 .6s.4.2 1 .2c.6.1.8.2.5.2l-1.2-.1c-.8-.1-1 0-3.7 1.2l-1.4 1.2-1 1 .8.1.9.2.9-.7a16.5 16.5 0 0 0 1.3-1l-.1.3 1-.4.9-.2.1.3h-.2c-.5 0-1.4.3-2.4 1l-1 .7 1.4.2 1.5.2h-1.4c-1.5 0-1.6 0-.5.6l.4.4-1-.5c-.8-.6-.9-.6-2-.6l-1.7.1a2874 2874 0 0 0-3.3 2.1c-.1 0 .2.3 2.2 1.3l2 1 1.2-.1 1.4-.2a44 44 0 0 0 4-2.6l1.4-1.8c1-1.6 1.4-2 .6-.8l-.3.8.7-.3.7-.1-.8.4c-.8.3-1.6 1-1.6 1.4a7 7 0 0 0 2.4-.3 18 18 0 0 1 2-.3c-.5 0-2.4.6-2.4.7l.6.3c.5.2.4.2-.3 0-1.3-.4-2.2 0-4.3 1.4l-1.7 1.4.5.1c.4.1.7 0 2-.6a19.9 19.9 0 0 0 2-1.1l-.5.3-.5.3.3.2c.3.1.3.1-.1 0-.3 0-.7.1-1.3.6l-.9.5 1.8.4a6 6 0 0 0 2.8.2c1.3-.2 1.5-.1.1.1l-1 .2.8.3c.5.2-.1.1-2.4-.3-3.4-.7-4.7-.8-5.7-.6l-.6.2.8.7c.5.4 1.2.9 1.6 1 1 .3 2.8.3 3.9 0 .5-.3.6-.3.4-.1l-.5.2-.1.1c0 .1.4.3 1.8.5a9 9 0 0 1 1.7.3l-2.2-.2c-2-.3-3.2-.3-3.2-.1 0 0 .3.4.9.7 1 .7 1 .7 3.1.8l-.4.1c-.6 0-1 0-1 .2-.1 0 .3.3 2.6 1.3 1 .5.7.4-.7-.1a23 23 0 0 0-1.2-.5c-.3 0 .7 1.6 1 1.9.3 0 .4.1.2 0-.4 0-.4 0 .1 1l-.8-1.4c-1-1.7-1-1.7-2.2-2.4-1.1-.7-1.3-.7-1-.3 0 .2-.1 0-.4-.3a3.3 3.3 0 0 0-2-1.2c-.3 0-.3 0 .4 1.3.6 1 1 1.4 2 2.3 1.6 1.3 1.7 1.4.3.4l-1-.7 1 2.2a28.2 28.2 0 0 1 .5 1l-.7-1v2l-.1-1.2-.1-1.3-1.7-2.7c-1.3-2-1.9-2.8-2.3-3-.6-.5-.7-.5-.5.3.2 1 .6 1.6 1 2 .5.3.5.4.2.2l-.4-.2.4 1c.4.8.4.8.1.4l-.3-.6-.9-1.6-.3.7-.3.6.3-.8c.2-.7.2-.8-.1-1.8l-.7-1.4c-.4-.4-4.7-2.3-4.9-2.2l.1 2a12.5 12.5 0 0 0 1.7 5.4 52.7 52.7 0 0 0 6.1 3 18 18 0 0 1-1.6-.5c-.3-.2-.4-.1-.4.1-.2.8.1 1.2 1.3 2.1l1 1-1-.8-1.2-.7c-.1.5.1 2.3.3 2.5a28.7 28.7 0 0 1 .7 1.3c-.9-1.3-1-1.3-1-.1v.6-1.5a40 40 0 0 0-.6-4.7 26 26 0 0 0-3.2-1.3c-.3 0-.3 0 0 .7l.5 1.3c.2.6.7 1.1 1.5 1.6.3.1.5.3.4.4v.5c.2.2.2.5.1.5l-.2-.5c0-.4-.2-.7-.7-1l-.7-.4.7 2.8a2150.8 2150.8 0 0 1-.1.1l-1-2.7-1.3 3 .3 1c.6 1.4 1 2.7.9 2.6l-.7-1.5c-.7-1.9-.9-2-.7-.3v.9-.5l-.2-.6-.6 1.2-.4 1zm2-27.7.6-.7-.2-1.1c-.1-1.1-.8-2.8-1.2-2.8-.1 0-.5 2.4-.4 3.3 0 .9.2 2 .3 2 .1 0 .5-.3.8-.7zm-12 24.6c0-.2.1-.2.1-.1v.3-.2zm8.3 0v-.1.3-.2zm.2-6.7c.1-.2.3-.3.3-.2 0 0 0 .2-.2.3-.3.2-.3.2-.1-.1zm17.7-.8h.2c0 .2 0 .2-.1.1h-.1zm-5.7-1.7c0-.2 0-.2.2 0v.3l-.2-.3zM30 127.6h.2s0 .1-.2 0c-.1 0-.1 0 0 0zm11.5 2.3h.2c0 .1 0 .2-.1.1h-.1zm-3.6-2s0-.1 0 0v.3-.2zm24.6 5.2.5.1h-.5zm-28.3-9c-.2-.2 0-.1.3.1.2.1.2.2 0 .1a.8.8 0 0 1-.3-.2z"
       style="fill:#000;stroke-width:0.538646"
       id="path6" />
  </g>
</svg>
