<svg xmlns="http://www.w3.org/2000/svg" viewBox="0 0 24 24" width="960" height="960" font-family="Arial" font-size="0.6">
<defs>
  <style><![CDATA[
    .layer { display: inline; }
    .layer.hidden { display: none; }
    .grid-line { stroke: #999; stroke-width: 0.02; opacity: 0.2; }
    .delaunay-line { stroke: #4a6fa5; stroke-width: 0.03; opacity: 0.3; }
    .terrain-area { stroke: #000; stroke-width: 0.05; }
    .terrain-solid { stroke: #000; stroke-width: 0.05; }
    .model { stroke: #000; stroke-width: 0.05; }
    .path { fill: none; stroke-width: 0.12; }
    .vector { stroke-width: 0.1; }
    .los-ray { stroke-width: 0.08; stroke-dasharray: 0.2 0.2; }
    .lof-ray { stroke-width: 0.08; stroke-dasharray: 0.3 0.15; }
    .label { fill: #111; font-size: 0.6px; }
    .toggle { cursor: pointer; }
  ]]></style>
</defs>
<rect x="0" y="0" width="24" height="24" fill="#ffffff" stroke="#111" stroke-width="0.05"/>
<g id="legend">
<g class="toggle" onclick="toggleLayer('grid')"><rect x="0.4" y="0.14999999999999997" width="0.4" height="0.4" fill="#222" stroke="#222" stroke-width="0.05"/><text x="1.0" y="0.5499999999999999" class="label">0.5 MU Grid</text></g>
<g class="toggle" onclick="toggleLayer('delaunay')"><rect x="0.4" y="0.95" width="0.4" height="0.4" fill="#222" stroke="#222" stroke-width="0.05"/><text x="1.0" y="1.3499999999999999" class="label">Delaunay Mesh</text></g>
<g class="toggle" onclick="toggleLayer('area')"><rect x="0.4" y="1.7500000000000002" width="0.4" height="0.4" fill="#222" stroke="#222" stroke-width="0.05"/><text x="1.0" y="2.1500000000000004" class="label">Area Terrain</text></g>
<g class="toggle" onclick="toggleLayer('terrain')"><rect x="0.4" y="2.55" width="0.4" height="0.4" fill="#222" stroke="#222" stroke-width="0.05"/><text x="1.0" y="2.95" class="label">Other Terrain</text></g>
<g class="toggle" onclick="toggleLayer('models')"><rect x="0.4" y="3.3499999999999996" width="0.4" height="0.4" fill="#222" stroke="#222" stroke-width="0.05"/><text x="1.0" y="3.75" class="label">Models</text></g>
<g class="toggle" onclick="toggleLayer('paths')"><rect x="0.4" y="4.1499999999999995" width="0.4" height="0.4" fill="#222" stroke="#222" stroke-width="0.05"/><text x="1.0" y="4.55" class="label">Paths</text></g>
<g class="toggle" onclick="toggleLayer('vectors')"><rect x="0.4" y="4.949999999999999" width="0.4" height="0.4" fill="#222" stroke="#222" stroke-width="0.05"/><text x="1.0" y="5.35" class="label">Vectors</text></g>
<g class="toggle" onclick="toggleLayer('los')"><rect x="0.4" y="5.749999999999999" width="0.4" height="0.4" fill="#222" stroke="#222" stroke-width="0.05"/><text x="1.0" y="6.1499999999999995" class="label">LOS</text></g>
<g class="toggle" onclick="toggleLayer('lof')"><rect x="0.4" y="6.549999999999999" width="0.4" height="0.4" fill="#222" stroke="#222" stroke-width="0.05"/><text x="1.0" y="6.949999999999999" class="label">LOF</text></g>
</g>
<script><![CDATA[
      function toggleLayer(id) {
        var layer = document.getElementById('layer-' + id);
        if (!layer) return;
        if (layer.classList.contains('hidden')) {
          layer.classList.remove('hidden');
        } else {
          layer.classList.add('hidden');
        }
      }
    ]]></script>
<text x="0.4" y="23.6" class="label">Battlefield 24x24 density 75 blockLOS 100</text>
<g id="layer-grid" class="layer ">
<line x1="0" y1="0" x2="0" y2="24" class="grid-line"/>
<line x1="0.5" y1="0" x2="0.5" y2="24" class="grid-line"/>
<line x1="1" y1="0" x2="1" y2="24" class="grid-line"/>
<line x1="1.5" y1="0" x2="1.5" y2="24" class="grid-line"/>
<line x1="2" y1="0" x2="2" y2="24" class="grid-line"/>
<line x1="2.5" y1="0" x2="2.5" y2="24" class="grid-line"/>
<line x1="3" y1="0" x2="3" y2="24" class="grid-line"/>
<line x1="3.5" y1="0" x2="3.5" y2="24" class="grid-line"/>
<line x1="4" y1="0" x2="4" y2="24" class="grid-line"/>
<line x1="4.5" y1="0" x2="4.5" y2="24" class="grid-line"/>
<line x1="5" y1="0" x2="5" y2="24" class="grid-line"/>
<line x1="5.5" y1="0" x2="5.5" y2="24" class="grid-line"/>
<line x1="6" y1="0" x2="6" y2="24" class="grid-line"/>
<line x1="6.5" y1="0" x2="6.5" y2="24" class="grid-line"/>
<line x1="7" y1="0" x2="7" y2="24" class="grid-line"/>
<line x1="7.5" y1="0" x2="7.5" y2="24" class="grid-line"/>
<line x1="8" y1="0" x2="8" y2="24" class="grid-line"/>
<line x1="8.5" y1="0" x2="8.5" y2="24" class="grid-line"/>
<line x1="9" y1="0" x2="9" y2="24" class="grid-line"/>
<line x1="9.5" y1="0" x2="9.5" y2="24" class="grid-line"/>
<line x1="10" y1="0" x2="10" y2="24" class="grid-line"/>
<line x1="10.5" y1="0" x2="10.5" y2="24" class="grid-line"/>
<line x1="11" y1="0" x2="11" y2="24" class="grid-line"/>
<line x1="11.5" y1="0" x2="11.5" y2="24" class="grid-line"/>
<line x1="12" y1="0" x2="12" y2="24" class="grid-line"/>
<line x1="12.5" y1="0" x2="12.5" y2="24" class="grid-line"/>
<line x1="13" y1="0" x2="13" y2="24" class="grid-line"/>
<line x1="13.5" y1="0" x2="13.5" y2="24" class="grid-line"/>
<line x1="14" y1="0" x2="14" y2="24" class="grid-line"/>
<line x1="14.5" y1="0" x2="14.5" y2="24" class="grid-line"/>
<line x1="15" y1="0" x2="15" y2="24" class="grid-line"/>
<line x1="15.5" y1="0" x2="15.5" y2="24" class="grid-line"/>
<line x1="16" y1="0" x2="16" y2="24" class="grid-line"/>
<line x1="16.5" y1="0" x2="16.5" y2="24" class="grid-line"/>
<line x1="17" y1="0" x2="17" y2="24" class="grid-line"/>
<line x1="17.5" y1="0" x2="17.5" y2="24" class="grid-line"/>
<line x1="18" y1="0" x2="18" y2="24" class="grid-line"/>
<line x1="18.5" y1="0" x2="18.5" y2="24" class="grid-line"/>
<line x1="19" y1="0" x2="19" y2="24" class="grid-line"/>
<line x1="19.5" y1="0" x2="19.5" y2="24" class="grid-line"/>
<line x1="20" y1="0" x2="20" y2="24" class="grid-line"/>
<line x1="20.5" y1="0" x2="20.5" y2="24" class="grid-line"/>
<line x1="21" y1="0" x2="21" y2="24" class="grid-line"/>
<line x1="21.5" y1="0" x2="21.5" y2="24" class="grid-line"/>
<line x1="22" y1="0" x2="22" y2="24" class="grid-line"/>
<line x1="22.5" y1="0" x2="22.5" y2="24" class="grid-line"/>
<line x1="23" y1="0" x2="23" y2="24" class="grid-line"/>
<line x1="23.5" y1="0" x2="23.5" y2="24" class="grid-line"/>
<line x1="24" y1="0" x2="24" y2="24" class="grid-line"/>
<line x1="0" y1="0" x2="24" y2="0" class="grid-line"/>
<line x1="0" y1="0.5" x2="24" y2="0.5" class="grid-line"/>
<line x1="0" y1="1" x2="24" y2="1" class="grid-line"/>
<line x1="0" y1="1.5" x2="24" y2="1.5" class="grid-line"/>
<line x1="0" y1="2" x2="24" y2="2" class="grid-line"/>
<line x1="0" y1="2.5" x2="24" y2="2.5" class="grid-line"/>
<line x1="0" y1="3" x2="24" y2="3" class="grid-line"/>
<line x1="0" y1="3.5" x2="24" y2="3.5" class="grid-line"/>
<line x1="0" y1="4" x2="24" y2="4" class="grid-line"/>
<line x1="0" y1="4.5" x2="24" y2="4.5" class="grid-line"/>
<line x1="0" y1="5" x2="24" y2="5" class="grid-line"/>
<line x1="0" y1="5.5" x2="24" y2="5.5" class="grid-line"/>
<line x1="0" y1="6" x2="24" y2="6" class="grid-line"/>
<line x1="0" y1="6.5" x2="24" y2="6.5" class="grid-line"/>
<line x1="0" y1="7" x2="24" y2="7" class="grid-line"/>
<line x1="0" y1="7.5" x2="24" y2="7.5" class="grid-line"/>
<line x1="0" y1="8" x2="24" y2="8" class="grid-line"/>
<line x1="0" y1="8.5" x2="24" y2="8.5" class="grid-line"/>
<line x1="0" y1="9" x2="24" y2="9" class="grid-line"/>
<line x1="0" y1="9.5" x2="24" y2="9.5" class="grid-line"/>
<line x1="0" y1="10" x2="24" y2="10" class="grid-line"/>
<line x1="0" y1="10.5" x2="24" y2="10.5" class="grid-line"/>
<line x1="0" y1="11" x2="24" y2="11" class="grid-line"/>
<line x1="0" y1="11.5" x2="24" y2="11.5" class="grid-line"/>
<line x1="0" y1="12" x2="24" y2="12" class="grid-line"/>
<line x1="0" y1="12.5" x2="24" y2="12.5" class="grid-line"/>
<line x1="0" y1="13" x2="24" y2="13" class="grid-line"/>
<line x1="0" y1="13.5" x2="24" y2="13.5" class="grid-line"/>
<line x1="0" y1="14" x2="24" y2="14" class="grid-line"/>
<line x1="0" y1="14.5" x2="24" y2="14.5" class="grid-line"/>
<line x1="0" y1="15" x2="24" y2="15" class="grid-line"/>
<line x1="0" y1="15.5" x2="24" y2="15.5" class="grid-line"/>
<line x1="0" y1="16" x2="24" y2="16" class="grid-line"/>
<line x1="0" y1="16.5" x2="24" y2="16.5" class="grid-line"/>
<line x1="0" y1="17" x2="24" y2="17" class="grid-line"/>
<line x1="0" y1="17.5" x2="24" y2="17.5" class="grid-line"/>
<line x1="0" y1="18" x2="24" y2="18" class="grid-line"/>
<line x1="0" y1="18.5" x2="24" y2="18.5" class="grid-line"/>
<line x1="0" y1="19" x2="24" y2="19" class="grid-line"/>
<line x1="0" y1="19.5" x2="24" y2="19.5" class="grid-line"/>
<line x1="0" y1="20" x2="24" y2="20" class="grid-line"/>
<line x1="0" y1="20.5" x2="24" y2="20.5" class="grid-line"/>
<line x1="0" y1="21" x2="24" y2="21" class="grid-line"/>
<line x1="0" y1="21.5" x2="24" y2="21.5" class="grid-line"/>
<line x1="0" y1="22" x2="24" y2="22" class="grid-line"/>
<line x1="0" y1="22.5" x2="24" y2="22.5" class="grid-line"/>
<line x1="0" y1="23" x2="24" y2="23" class="grid-line"/>
<line x1="0" y1="23.5" x2="24" y2="23.5" class="grid-line"/>
<line x1="0" y1="24" x2="24" y2="24" class="grid-line"/>
</g>
<g id="layer-delaunay" class="layer ">
<line x1="11.459137721700307" y1="13.577729561258492" x2="11.264465103039022" y2="13.590489078800864" class="delaunay-line"/>
<line x1="11.264465103039022" y1="13.590489078800864" x2="11.643874625590282" y2="13.640439290053179" class="delaunay-line"/>
<line x1="11.643874625590282" y1="13.640439290053179" x2="11.459137721700307" y2="13.577729561258492" class="delaunay-line"/>
<line x1="11.876837538734815" y1="13.944042469394137" x2="11.7905512957359" y2="13.769071277441038" class="delaunay-line"/>
<line x1="11.7905512957359" y1="13.769071277441038" x2="11.643874625590282" y2="13.640439290053179" class="delaunay-line"/>
<line x1="11.643874625590282" y1="13.640439290053179" x2="11.876837538734815" y2="13.944042469394137" class="delaunay-line"/>
<line x1="11.264465103039022" y1="13.590489078800864" x2="11.876837538734815" y2="13.944042469394137" class="delaunay-line"/>
<line x1="11.876837538734815" y1="13.944042469394137" x2="11.643874625590282" y2="13.640439290053179" class="delaunay-line"/>
<line x1="11.643874625590282" y1="13.640439290053179" x2="11.264465103039022" y2="13.590489078800864" class="delaunay-line"/>
<line x1="10.910911712445749" y1="14.202861514496657" x2="11.876837538734815" y2="13.944042469394137" class="delaunay-line"/>
<line x1="11.876837538734815" y1="13.944042469394137" x2="11.264465103039022" y2="13.590489078800864" class="delaunay-line"/>
<line x1="11.264465103039022" y1="13.590489078800864" x2="10.910911712445749" y2="14.202861514496657" class="delaunay-line"/>
<line x1="11.089493911085922" y1="13.676775321799779" x2="10.960861923698063" y2="13.823451991945397" class="delaunay-line"/>
<line x1="10.960861923698063" y1="13.823451991945397" x2="11.264465103039022" y2="13.590489078800864" class="delaunay-line"/>
<line x1="11.264465103039022" y1="13.590489078800864" x2="11.089493911085922" y2="13.676775321799779" class="delaunay-line"/>
<line x1="11.8268873274825" y1="14.323451991945397" x2="11.889597056277188" y2="14.138715088055422" class="delaunay-line"/>
<line x1="11.889597056277188" y1="14.138715088055422" x2="11.876837538734815" y2="13.944042469394137" class="delaunay-line"/>
<line x1="11.876837538734815" y1="13.944042469394137" x2="11.8268873274825" y2="14.323451991945397" class="delaunay-line"/>
<line x1="10.960861923698063" y1="13.823451991945397" x2="10.910911712445749" y2="14.202861514496657" class="delaunay-line"/>
<line x1="10.910911712445749" y1="14.202861514496657" x2="11.264465103039022" y2="13.590489078800864" class="delaunay-line"/>
<line x1="11.264465103039022" y1="13.590489078800864" x2="10.960861923698063" y2="13.823451991945397" class="delaunay-line"/>
<line x1="10.898152194903377" y1="14.008188895835373" x2="10.910911712445749" y2="14.202861514496657" class="delaunay-line"/>
<line x1="10.910911712445749" y1="14.202861514496657" x2="10.960861923698063" y2="13.823451991945397" class="delaunay-line"/>
<line x1="10.960861923698063" y1="13.823451991945397" x2="10.898152194903377" y2="14.008188895835373" class="delaunay-line"/>
<line x1="11.523284148141542" y1="14.55641490508993" x2="11.8268873274825" y2="14.323451991945397" class="delaunay-line"/>
<line x1="11.8268873274825" y1="14.323451991945397" x2="11.876837538734815" y2="13.944042469394137" class="delaunay-line"/>
<line x1="11.876837538734815" y1="13.944042469394137" x2="11.523284148141542" y2="14.55641490508993" class="delaunay-line"/>
<line x1="11.523284148141542" y1="14.55641490508993" x2="11.698255340094642" y2="14.470128662091016" class="delaunay-line"/>
<line x1="11.698255340094642" y1="14.470128662091016" x2="11.8268873274825" y2="14.323451991945397" class="delaunay-line"/>
<line x1="11.8268873274825" y1="14.323451991945397" x2="11.523284148141542" y2="14.55641490508993" class="delaunay-line"/>
<line x1="10.910911712445749" y1="14.202861514496657" x2="11.523284148141542" y2="14.55641490508993" class="delaunay-line"/>
<line x1="11.523284148141542" y1="14.55641490508993" x2="11.876837538734815" y2="13.944042469394137" class="delaunay-line"/>
<line x1="11.876837538734815" y1="13.944042469394137" x2="10.910911712445749" y2="14.202861514496657" class="delaunay-line"/>
<line x1="11.143874625590282" y1="14.506464693837616" x2="11.523284148141542" y2="14.55641490508993" class="delaunay-line"/>
<line x1="11.523284148141542" y1="14.55641490508993" x2="10.910911712445749" y2="14.202861514496657" class="delaunay-line"/>
<line x1="10.910911712445749" y1="14.202861514496657" x2="11.143874625590282" y2="14.506464693837616" class="delaunay-line"/>
<line x1="10.997197955444664" y1="14.377832706449757" x2="11.143874625590282" y2="14.506464693837616" class="delaunay-line"/>
<line x1="11.143874625590282" y1="14.506464693837616" x2="10.910911712445749" y2="14.202861514496657" class="delaunay-line"/>
<line x1="10.910911712445749" y1="14.202861514496657" x2="10.997197955444664" y2="14.377832706449757" class="delaunay-line"/>
<line x1="11.143874625590282" y1="14.506464693837616" x2="11.328611529480257" y2="14.569174422632303" class="delaunay-line"/>
<line x1="11.328611529480257" y1="14.569174422632303" x2="11.523284148141542" y2="14.55641490508993" class="delaunay-line"/>
<line x1="11.523284148141542" y1="14.55641490508993" x2="11.143874625590282" y2="14.506464693837616" class="delaunay-line"/>
<line x1="10.997197955444664" y1="14.377832706449757" x2="7.728561947453284" y2="19.217991283902474" class="delaunay-line"/>
<line x1="7.728561947453284" y1="19.217991283902474" x2="11.143874625590282" y2="14.506464693837616" class="delaunay-line"/>
<line x1="11.143874625590282" y1="14.506464693837616" x2="10.997197955444664" y2="14.377832706449757" class="delaunay-line"/>
<line x1="11.143874625590282" y1="14.506464693837616" x2="7.857193934841142" y2="19.36466795404809" class="delaunay-line"/>
<line x1="7.857193934841142" y1="19.36466795404809" x2="11.328611529480257" y2="14.569174422632303" class="delaunay-line"/>
<line x1="11.328611529480257" y1="14.569174422632303" x2="11.143874625590282" y2="14.506464693837616" class="delaunay-line"/>
<line x1="11.328611529480257" y1="14.569174422632303" x2="7.919903663635827" y2="19.549404857938065" class="delaunay-line"/>
<line x1="7.919903663635827" y1="19.549404857938065" x2="11.523284148141542" y2="14.55641490508993" class="delaunay-line"/>
<line x1="11.523284148141542" y1="14.55641490508993" x2="11.328611529480257" y2="14.569174422632303" class="delaunay-line"/>
<line x1="17.867744546729064" y1="19.095266628039848" x2="17.95403078972798" y2="18.92029543608675" class="delaunay-line"/>
<line x1="17.95403078972798" y1="18.92029543608675" x2="11.698255340094642" y2="14.470128662091016" class="delaunay-line"/>
<line x1="11.698255340094642" y1="14.470128662091016" x2="17.867744546729064" y2="19.095266628039848" class="delaunay-line"/>
<line x1="11.698255340094642" y1="14.470128662091016" x2="17.95403078972798" y2="18.92029543608675" class="delaunay-line"/>
<line x1="17.95403078972798" y1="18.92029543608675" x2="11.8268873274825" y2="14.323451991945397" class="delaunay-line"/>
<line x1="11.8268873274825" y1="14.323451991945397" x2="11.698255340094642" y2="14.470128662091016" class="delaunay-line"/>
<line x1="7.553590755500183" y1="19.131705040903558" x2="7.728561947453284" y2="19.217991283902474" class="delaunay-line"/>
<line x1="7.728561947453284" y1="19.217991283902474" x2="10.997197955444664" y2="14.377832706449757" class="delaunay-line"/>
<line x1="10.997197955444664" y1="14.377832706449757" x2="7.553590755500183" y2="19.131705040903558" class="delaunay-line"/>
<line x1="7.553590755500183" y1="19.131705040903558" x2="10.997197955444664" y2="14.377832706449757" class="delaunay-line"/>
<line x1="10.997197955444664" y1="14.377832706449757" x2="10.910911712445749" y2="14.202861514496657" class="delaunay-line"/>
<line x1="10.910911712445749" y1="14.202861514496657" x2="7.553590755500183" y2="19.131705040903558" class="delaunay-line"/>
<line x1="7.553590755500183" y1="19.131705040903558" x2="10.910911712445749" y2="14.202861514496657" class="delaunay-line"/>
<line x1="10.910911712445749" y1="14.202861514496657" x2="7.358918136838896" y2="19.118945523361187" class="delaunay-line"/>
<line x1="7.358918136838896" y1="19.118945523361187" x2="7.553590755500183" y2="19.131705040903558" class="delaunay-line"/>
<line x1="7.358918136838896" y1="19.118945523361187" x2="10.910911712445749" y2="14.202861514496657" class="delaunay-line"/>
<line x1="10.910911712445749" y1="14.202861514496657" x2="10.898152194903377" y2="14.008188895835373" class="delaunay-line"/>
<line x1="10.898152194903377" y1="14.008188895835373" x2="7.358918136838896" y2="19.118945523361187" class="delaunay-line"/>
<line x1="7.919903663635827" y1="19.549404857938065" x2="7.857193934841142" y2="19.36466795404809" class="delaunay-line"/>
<line x1="7.857193934841142" y1="19.36466795404809" x2="7.728561947453284" y2="19.217991283902474" class="delaunay-line"/>
<line x1="7.728561947453284" y1="19.217991283902474" x2="7.919903663635827" y2="19.549404857938065" class="delaunay-line"/>
<line x1="7.728561947453284" y1="19.217991283902474" x2="7.857193934841142" y2="19.36466795404809" class="delaunay-line"/>
<line x1="7.857193934841142" y1="19.36466795404809" x2="11.143874625590282" y2="14.506464693837616" class="delaunay-line"/>
<line x1="11.143874625590282" y1="14.506464693837616" x2="7.728561947453284" y2="19.217991283902474" class="delaunay-line"/>
<line x1="7.174181232948923" y1="19.181655252155874" x2="7.358918136838896" y2="19.118945523361187" class="delaunay-line"/>
<line x1="7.358918136838896" y1="19.118945523361187" x2="10.898152194903377" y2="14.008188895835373" class="delaunay-line"/>
<line x1="10.898152194903377" y1="14.008188895835373" x2="7.174181232948923" y2="19.181655252155874" class="delaunay-line"/>
<line x1="7.553590755500183" y1="19.131705040903558" x2="7.919903663635827" y2="19.549404857938065" class="delaunay-line"/>
<line x1="7.919903663635827" y1="19.549404857938065" x2="7.728561947453284" y2="19.217991283902474" class="delaunay-line"/>
<line x1="7.728561947453284" y1="19.217991283902474" x2="7.553590755500183" y2="19.131705040903558" class="delaunay-line"/>
<line x1="7.174181232948923" y1="19.181655252155874" x2="7.919903663635827" y2="19.549404857938065" class="delaunay-line"/>
<line x1="7.919903663635827" y1="19.549404857938065" x2="7.553590755500183" y2="19.131705040903558" class="delaunay-line"/>
<line x1="7.553590755500183" y1="19.131705040903558" x2="7.174181232948923" y2="19.181655252155874" class="delaunay-line"/>
<line x1="7.857193934841142" y1="19.36466795404809" x2="7.919903663635827" y2="19.549404857938065" class="delaunay-line"/>
<line x1="7.919903663635827" y1="19.549404857938065" x2="11.328611529480257" y2="14.569174422632303" class="delaunay-line"/>
<line x1="11.328611529480257" y1="14.569174422632303" x2="7.857193934841142" y2="19.36466795404809" class="delaunay-line"/>
<line x1="0" y1="0" x2="7.174181232948923" y2="19.181655252155874" class="delaunay-line"/>
<line x1="7.174181232948923" y1="19.181655252155874" x2="10.898152194903377" y2="14.008188895835373" class="delaunay-line"/>
<line x1="10.898152194903377" y1="14.008188895835373" x2="0" y2="0" class="delaunay-line"/>
<line x1="7.358918136838896" y1="19.118945523361187" x2="7.174181232948923" y2="19.181655252155874" class="delaunay-line"/>
<line x1="7.174181232948923" y1="19.181655252155874" x2="7.553590755500183" y2="19.131705040903558" class="delaunay-line"/>
<line x1="7.553590755500183" y1="19.131705040903558" x2="7.358918136838896" y2="19.118945523361187" class="delaunay-line"/>
<line x1="7.82085790309454" y1="19.91904866855245" x2="7.907144146093456" y2="19.74407747659935" class="delaunay-line"/>
<line x1="7.907144146093456" y1="19.74407747659935" x2="7.919903663635827" y2="19.549404857938065" class="delaunay-line"/>
<line x1="7.919903663635827" y1="19.549404857938065" x2="7.82085790309454" y2="19.91904866855245" class="delaunay-line"/>
<line x1="17.867744546729064" y1="19.095266628039848" x2="11.698255340094642" y2="14.470128662091016" class="delaunay-line"/>
<line x1="11.698255340094642" y1="14.470128662091016" x2="11.523284148141542" y2="14.55641490508993" class="delaunay-line"/>
<line x1="11.523284148141542" y1="14.55641490508993" x2="17.867744546729064" y2="19.095266628039848" class="delaunay-line"/>
<line x1="0" y1="0" x2="7.027504562803305" y2="19.310287239543733" class="delaunay-line"/>
<line x1="7.027504562803305" y1="19.310287239543733" x2="7.174181232948923" y2="19.181655252155874" class="delaunay-line"/>
<line x1="7.174181232948923" y1="19.181655252155874" x2="0" y2="0" class="delaunay-line"/>
<line x1="7.674181232948921" y1="20.047680655940308" x2="7.82085790309454" y2="19.91904866855245" class="delaunay-line"/>
<line x1="7.82085790309454" y1="19.91904866855245" x2="7.919903663635827" y2="19.549404857938065" class="delaunay-line"/>
<line x1="7.919903663635827" y1="19.549404857938065" x2="7.674181232948921" y2="20.047680655940308" class="delaunay-line"/>
<line x1="7.674181232948921" y1="20.047680655940308" x2="7.919903663635827" y2="19.549404857938065" class="delaunay-line"/>
<line x1="7.919903663635827" y1="19.549404857938065" x2="7.174181232948923" y2="19.181655252155874" class="delaunay-line"/>
<line x1="7.174181232948923" y1="19.181655252155874" x2="7.674181232948921" y2="20.047680655940308" class="delaunay-line"/>
<line x1="17.867744546729064" y1="19.095266628039848" x2="11.523284148141542" y2="14.55641490508993" class="delaunay-line"/>
<line x1="11.523284148141542" y1="14.55641490508993" x2="17.854985029186693" y2="19.289939246701135" class="delaunay-line"/>
<line x1="17.854985029186693" y1="19.289939246701135" x2="17.867744546729064" y2="19.095266628039848" class="delaunay-line"/>
<line x1="6.928458802262018" y1="19.679931050158118" x2="7.674181232948921" y2="20.047680655940308" class="delaunay-line"/>
<line x1="7.674181232948921" y1="20.047680655940308" x2="7.174181232948923" y2="19.181655252155874" class="delaunay-line"/>
<line x1="7.174181232948923" y1="19.181655252155874" x2="6.928458802262018" y2="19.679931050158118" class="delaunay-line"/>
<line x1="6.928458802262018" y1="19.679931050158118" x2="7.174181232948923" y2="19.181655252155874" class="delaunay-line"/>
<line x1="7.174181232948923" y1="19.181655252155874" x2="7.027504562803305" y2="19.310287239543733" class="delaunay-line"/>
<line x1="7.027504562803305" y1="19.310287239543733" x2="6.928458802262018" y2="19.679931050158118" class="delaunay-line"/>
<line x1="6.941218319804388" y1="19.48525843149683" x2="6.928458802262018" y2="19.679931050158118" class="delaunay-line"/>
<line x1="6.928458802262018" y1="19.679931050158118" x2="7.027504562803305" y2="19.310287239543733" class="delaunay-line"/>
<line x1="7.027504562803305" y1="19.310287239543733" x2="6.941218319804388" y2="19.48525843149683" class="delaunay-line"/>
<line x1="7.2947717103976615" y1="20.097630867192624" x2="7.489444329058949" y2="20.110390384734995" class="delaunay-line"/>
<line x1="7.489444329058949" y1="20.110390384734995" x2="7.674181232948921" y2="20.047680655940308" class="delaunay-line"/>
<line x1="7.674181232948921" y1="20.047680655940308" x2="7.2947717103976615" y2="20.097630867192624" class="delaunay-line"/>
<line x1="6.928458802262018" y1="19.679931050158118" x2="7.2947717103976615" y2="20.097630867192624" class="delaunay-line"/>
<line x1="7.2947717103976615" y1="20.097630867192624" x2="7.674181232948921" y2="20.047680655940308" class="delaunay-line"/>
<line x1="7.674181232948921" y1="20.047680655940308" x2="6.928458802262018" y2="19.679931050158118" class="delaunay-line"/>
<line x1="7.119800518444561" y1="20.011344624193708" x2="7.2947717103976615" y2="20.097630867192624" class="delaunay-line"/>
<line x1="7.2947717103976615" y1="20.097630867192624" x2="6.928458802262018" y2="19.679931050158118" class="delaunay-line"/>
<line x1="6.928458802262018" y1="19.679931050158118" x2="7.119800518444561" y2="20.011344624193708" class="delaunay-line"/>
<line x1="6.991168531056703" y1="19.86466795404809" x2="7.119800518444561" y2="20.011344624193708" class="delaunay-line"/>
<line x1="7.119800518444561" y1="20.011344624193708" x2="6.928458802262018" y2="19.679931050158118" class="delaunay-line"/>
<line x1="6.928458802262018" y1="19.679931050158118" x2="6.991168531056703" y2="19.86466795404809" class="delaunay-line"/>
<line x1="10.188375684771827" y1="22.969706255598158" x2="17.91769475798138" y2="19.474676150591108" class="delaunay-line"/>
<line x1="17.91769475798138" y1="19.474676150591108" x2="17.854985029186693" y2="19.289939246701135" class="delaunay-line"/>
<line x1="17.854985029186693" y1="19.289939246701135" x2="10.188375684771827" y2="22.969706255598158" class="delaunay-line"/>
<line x1="7.919903663635827" y1="19.549404857938065" x2="10.041699014626207" y2="22.8410742682103" class="delaunay-line"/>
<line x1="10.041699014626207" y1="22.8410742682103" x2="11.523284148141542" y2="14.55641490508993" class="delaunay-line"/>
<line x1="11.523284148141542" y1="14.55641490508993" x2="7.919903663635827" y2="19.549404857938065" class="delaunay-line"/>
<line x1="11.523284148141542" y1="14.55641490508993" x2="10.041699014626207" y2="22.8410742682103" class="delaunay-line"/>
<line x1="10.041699014626207" y1="22.8410742682103" x2="17.854985029186693" y2="19.289939246701135" class="delaunay-line"/>
<line x1="17.854985029186693" y1="19.289939246701135" x2="11.523284148141542" y2="14.55641490508993" class="delaunay-line"/>
<line x1="11.8268873274825" y1="14.323451991945397" x2="18.1007074598736" y2="18.791663448698888" class="delaunay-line"/>
<line x1="18.1007074598736" y1="18.791663448698888" x2="11.889597056277188" y2="14.138715088055422" class="delaunay-line"/>
<line x1="11.889597056277188" y1="14.138715088055422" x2="11.8268873274825" y2="14.323451991945397" class="delaunay-line"/>
<line x1="19.99501780845786" y1="11.81433177585949" x2="19.932308079663173" y2="11.629594871969514" class="delaunay-line"/>
<line x1="19.932308079663173" y1="11.629594871969514" x2="11.876837538734815" y2="13.944042469394137" class="delaunay-line"/>
<line x1="11.876837538734815" y1="13.944042469394137" x2="19.99501780845786" y2="11.81433177585949" class="delaunay-line"/>
<line x1="11.876837538734815" y1="13.944042469394137" x2="19.932308079663173" y2="11.629594871969514" class="delaunay-line"/>
<line x1="19.932308079663173" y1="11.629594871969514" x2="11.7905512957359" y2="13.769071277441038" class="delaunay-line"/>
<line x1="11.7905512957359" y1="13.769071277441038" x2="11.876837538734815" y2="13.944042469394137" class="delaunay-line"/>
<line x1="14.573651622652994" y1="5.06964083597024" x2="14.382309906470448" y2="5.031580602225884" class="delaunay-line"/>
<line x1="14.382309906470448" y1="5.031580602225884" x2="11.643874625590282" y2="13.640439290053179" class="delaunay-line"/>
<line x1="11.643874625590282" y1="13.640439290053179" x2="14.573651622652994" y2="5.06964083597024" class="delaunay-line"/>
<line x1="7.907144146093456" y1="19.74407747659935" x2="10.041699014626207" y2="22.8410742682103" class="delaunay-line"/>
<line x1="10.041699014626207" y1="22.8410742682103" x2="7.919903663635827" y2="19.549404857938065" class="delaunay-line"/>
<line x1="7.919903663635827" y1="19.549404857938065" x2="7.907144146093456" y2="19.74407747659935" class="delaunay-line"/>
<line x1="18.285444363763574" y1="18.7289537199042" x2="18.65508817437796" y2="18.827999480445488" class="delaunay-line"/>
<line x1="18.65508817437796" y1="18.827999480445488" x2="18.48011698242486" y2="18.74171323744657" class="delaunay-line"/>
<line x1="18.48011698242486" y1="18.74171323744657" x2="18.285444363763574" y2="18.7289537199042" class="delaunay-line"/>
<line x1="17.95403078972798" y1="18.92029543608675" x2="18.1007074598736" y2="18.791663448698888" class="delaunay-line"/>
<line x1="18.1007074598736" y1="18.791663448698888" x2="11.8268873274825" y2="14.323451991945397" class="delaunay-line"/>
<line x1="11.8268873274825" y1="14.323451991945397" x2="17.95403078972798" y2="18.92029543608675" class="delaunay-line"/>
<line x1="17.91769475798138" y1="19.474676150591108" x2="10.274661927770744" y2="23.144677447551256" class="delaunay-line"/>
<line x1="10.274661927770744" y1="23.144677447551256" x2="18.046326745369242" y2="19.62135282073673" class="delaunay-line"/>
<line x1="18.046326745369242" y1="19.62135282073673" x2="17.91769475798138" y2="19.474676150591108" class="delaunay-line"/>
<line x1="17.867744546729064" y1="19.095266628039848" x2="17.854985029186693" y2="19.289939246701135" class="delaunay-line"/>
<line x1="17.854985029186693" y1="19.289939246701135" x2="17.95403078972798" y2="18.92029543608675" class="delaunay-line"/>
<line x1="17.95403078972798" y1="18.92029543608675" x2="17.867744546729064" y2="19.095266628039848" class="delaunay-line"/>
<line x1="18.285444363763574" y1="18.7289537199042" x2="18.1007074598736" y2="18.791663448698888" class="delaunay-line"/>
<line x1="18.1007074598736" y1="18.791663448698888" x2="18.65508817437796" y2="18.827999480445488" class="delaunay-line"/>
<line x1="18.65508817437796" y1="18.827999480445488" x2="18.285444363763574" y2="18.7289537199042" class="delaunay-line"/>
<line x1="19.99501780845786" y1="11.81433177585949" x2="11.876837538734815" y2="13.944042469394137" class="delaunay-line"/>
<line x1="11.876837538734815" y1="13.944042469394137" x2="11.889597056277188" y2="14.138715088055422" class="delaunay-line"/>
<line x1="11.889597056277188" y1="14.138715088055422" x2="19.99501780845786" y2="11.81433177585949" class="delaunay-line"/>
<line x1="7.907144146093456" y1="19.74407747659935" x2="7.82085790309454" y2="19.91904866855245" class="delaunay-line"/>
<line x1="7.82085790309454" y1="19.91904866855245" x2="9.856962110736236" y2="22.778364539415612" class="delaunay-line"/>
<line x1="9.856962110736236" y1="22.778364539415612" x2="7.907144146093456" y2="19.74407747659935" class="delaunay-line"/>
<line x1="17.854985029186693" y1="19.289939246701135" x2="17.91769475798138" y2="19.474676150591108" class="delaunay-line"/>
<line x1="17.91769475798138" y1="19.474676150591108" x2="17.95403078972798" y2="18.92029543608675" class="delaunay-line"/>
<line x1="17.95403078972798" y1="18.92029543608675" x2="17.854985029186693" y2="19.289939246701135" class="delaunay-line"/>
<line x1="18.65508817437796" y1="18.827999480445488" x2="18.1007074598736" y2="18.791663448698888" class="delaunay-line"/>
<line x1="18.1007074598736" y1="18.791663448698888" x2="17.95403078972798" y2="18.92029543608675" class="delaunay-line"/>
<line x1="17.95403078972798" y1="18.92029543608675" x2="18.65508817437796" y2="18.827999480445488" class="delaunay-line"/>
<line x1="19.99501780845786" y1="11.81433177585949" x2="11.889597056277188" y2="14.138715088055422" class="delaunay-line"/>
<line x1="11.889597056277188" y1="14.138715088055422" x2="18.1007074598736" y2="18.791663448698888" class="delaunay-line"/>
<line x1="18.1007074598736" y1="18.791663448698888" x2="19.99501780845786" y2="11.81433177585949" class="delaunay-line"/>
<line x1="9.856962110736236" y1="22.778364539415612" x2="7.82085790309454" y2="19.91904866855245" class="delaunay-line"/>
<line x1="7.82085790309454" y1="19.91904866855245" x2="9.66228949207495" y2="22.791124056957983" class="delaunay-line"/>
<line x1="9.66228949207495" y1="22.791124056957983" x2="9.856962110736236" y2="22.778364539415612" class="delaunay-line"/>
<line x1="17.91769475798138" y1="19.474676150591108" x2="18.046326745369242" y2="19.62135282073673" class="delaunay-line"/>
<line x1="18.046326745369242" y1="19.62135282073673" x2="17.95403078972798" y2="18.92029543608675" class="delaunay-line"/>
<line x1="17.95403078972798" y1="18.92029543608675" x2="17.91769475798138" y2="19.474676150591108" class="delaunay-line"/>
<line x1="18.046326745369242" y1="19.62135282073673" x2="18.65508817437796" y2="18.827999480445488" class="delaunay-line"/>
<line x1="18.65508817437796" y1="18.827999480445488" x2="17.95403078972798" y2="18.92029543608675" class="delaunay-line"/>
<line x1="17.95403078972798" y1="18.92029543608675" x2="18.046326745369242" y2="19.62135282073673" class="delaunay-line"/>
<line x1="19.99501780845786" y1="11.81433177585949" x2="18.1007074598736" y2="18.791663448698888" class="delaunay-line"/>
<line x1="18.1007074598736" y1="18.791663448698888" x2="18.285444363763574" y2="18.7289537199042" class="delaunay-line"/>
<line x1="18.285444363763574" y1="18.7289537199042" x2="19.99501780845786" y2="11.81433177585949" class="delaunay-line"/>
<line x1="9.66228949207495" y1="22.791124056957983" x2="7.674181232948921" y2="20.047680655940308" class="delaunay-line"/>
<line x1="7.674181232948921" y1="20.047680655940308" x2="9.487318300121848" y2="22.8774102999569" class="delaunay-line"/>
<line x1="9.487318300121848" y1="22.8774102999569" x2="9.66228949207495" y2="22.791124056957983" class="delaunay-line"/>
<line x1="9.66228949207495" y1="22.791124056957983" x2="7.82085790309454" y2="19.91904866855245" class="delaunay-line"/>
<line x1="7.82085790309454" y1="19.91904866855245" x2="7.674181232948921" y2="20.047680655940308" class="delaunay-line"/>
<line x1="7.674181232948921" y1="20.047680655940308" x2="9.66228949207495" y2="22.791124056957983" class="delaunay-line"/>
<line x1="7.674181232948921" y1="20.047680655940308" x2="7.489444329058949" y2="20.110390384734995" class="delaunay-line"/>
<line x1="7.489444329058949" y1="20.110390384734995" x2="9.487318300121848" y2="22.8774102999569" class="delaunay-line"/>
<line x1="9.487318300121848" y1="22.8774102999569" x2="7.674181232948921" y2="20.047680655940308" class="delaunay-line"/>
<line x1="10.287421445313115" y1="23.339350066212543" x2="18.22129793732234" y2="19.707639063735645" class="delaunay-line"/>
<line x1="18.22129793732234" y1="19.707639063735645" x2="18.046326745369242" y2="19.62135282073673" class="delaunay-line"/>
<line x1="18.046326745369242" y1="19.62135282073673" x2="10.287421445313115" y2="23.339350066212543" class="delaunay-line"/>
<line x1="18.74738413001922" y1="19.529056865095466" x2="18.78372016176582" y2="18.974676150591108" class="delaunay-line"/>
<line x1="18.78372016176582" y1="18.974676150591108" x2="18.65508817437796" y2="18.827999480445488" class="delaunay-line"/>
<line x1="18.65508817437796" y1="18.827999480445488" x2="18.74738413001922" y2="19.529056865095466" class="delaunay-line"/>
<line x1="18.74738413001922" y1="19.529056865095466" x2="18.65508817437796" y2="18.827999480445488" class="delaunay-line"/>
<line x1="18.65508817437796" y1="18.827999480445488" x2="18.046326745369242" y2="19.62135282073673" class="delaunay-line"/>
<line x1="18.046326745369242" y1="19.62135282073673" x2="18.74738413001922" y2="19.529056865095466" class="delaunay-line"/>
<line x1="9.856962110736236" y1="22.778364539415612" x2="10.041699014626207" y2="22.8410742682103" class="delaunay-line"/>
<line x1="10.041699014626207" y1="22.8410742682103" x2="7.907144146093456" y2="19.74407747659935" class="delaunay-line"/>
<line x1="7.907144146093456" y1="19.74407747659935" x2="9.856962110736236" y2="22.778364539415612" class="delaunay-line"/>
<line x1="18.285444363763574" y1="18.7289537199042" x2="18.48011698242486" y2="18.74171323744657" class="delaunay-line"/>
<line x1="18.48011698242486" y1="18.74171323744657" x2="20.123649795845722" y2="11.961008446005108" class="delaunay-line"/>
<line x1="20.123649795845722" y1="11.961008446005108" x2="18.285444363763574" y2="18.7289537199042" class="delaunay-line"/>
<line x1="19.99501780845786" y1="11.81433177585949" x2="18.285444363763574" y2="18.7289537199042" class="delaunay-line"/>
<line x1="18.285444363763574" y1="18.7289537199042" x2="20.123649795845722" y2="11.961008446005108" class="delaunay-line"/>
<line x1="20.123649795845722" y1="11.961008446005108" x2="19.99501780845786" y2="11.81433177585949" class="delaunay-line"/>
<line x1="11.643874625590282" y1="13.640439290053179" x2="14.382309906470448" y2="5.031580602225884" class="delaunay-line"/>
<line x1="14.382309906470448" y1="5.031580602225884" x2="11.459137721700307" y2="13.577729561258492" class="delaunay-line"/>
<line x1="11.459137721700307" y1="13.577729561258492" x2="11.643874625590282" y2="13.640439290053179" class="delaunay-line"/>
<line x1="11.459137721700307" y1="13.577729561258492" x2="14.220098232059721" y2="4.923194226563515" class="delaunay-line"/>
<line x1="14.220098232059721" y1="4.923194226563515" x2="11.264465103039022" y2="13.590489078800864" class="delaunay-line"/>
<line x1="11.264465103039022" y1="13.590489078800864" x2="11.459137721700307" y2="13.577729561258492" class="delaunay-line"/>
<line x1="9.487318300121848" y1="22.8774102999569" x2="7.489444329058949" y2="20.110390384734995" class="delaunay-line"/>
<line x1="7.489444329058949" y1="20.110390384734995" x2="9.35868631273399" y2="23.024086970102516" class="delaunay-line"/>
<line x1="9.35868631273399" y1="23.024086970102516" x2="9.487318300121848" y2="22.8774102999569" class="delaunay-line"/>
<line x1="9.856962110736236" y1="22.778364539415612" x2="9.66228949207495" y2="22.791124056957983" class="delaunay-line"/>
<line x1="9.66228949207495" y1="22.791124056957983" x2="10.041699014626207" y2="22.8410742682103" class="delaunay-line"/>
<line x1="10.041699014626207" y1="22.8410742682103" x2="9.856962110736236" y2="22.778364539415612" class="delaunay-line"/>
<line x1="20.123649795845722" y1="11.961008446005108" x2="18.48011698242486" y2="18.74171323744657" class="delaunay-line"/>
<line x1="18.48011698242486" y1="18.74171323744657" x2="20.29862098779882" y2="12.047294689004023" class="delaunay-line"/>
<line x1="20.29862098779882" y1="12.047294689004023" x2="20.123649795845722" y2="11.961008446005108" class="delaunay-line"/>
<line x1="20.03135384020446" y1="11.25995106135513" x2="19.945067597205544" y2="11.43492225330823" class="delaunay-line"/>
<line x1="19.945067597205544" y1="11.43492225330823" x2="20.17803051035008" y2="11.131319073967271" class="delaunay-line"/>
<line x1="20.17803051035008" y1="11.131319073967271" x2="20.03135384020446" y2="11.25995106135513" class="delaunay-line"/>
<line x1="19.932308079663173" y1="11.629594871969514" x2="19.945067597205544" y2="11.43492225330823" class="delaunay-line"/>
<line x1="19.945067597205544" y1="11.43492225330823" x2="11.7905512957359" y2="13.769071277441038" class="delaunay-line"/>
<line x1="11.7905512957359" y1="13.769071277441038" x2="19.932308079663173" y2="11.629594871969514" class="delaunay-line"/>
<line x1="10.274661927770744" y1="23.144677447551256" x2="10.188375684771827" y2="22.969706255598158" class="delaunay-line"/>
<line x1="10.188375684771827" y1="22.969706255598158" x2="10.287421445313115" y2="23.339350066212543" class="delaunay-line"/>
<line x1="10.287421445313115" y1="23.339350066212543" x2="10.274661927770744" y2="23.144677447551256" class="delaunay-line"/>
<line x1="10.041699014626207" y1="22.8410742682103" x2="10.188375684771827" y2="22.969706255598158" class="delaunay-line"/>
<line x1="10.188375684771827" y1="22.969706255598158" x2="17.854985029186693" y2="19.289939246701135" class="delaunay-line"/>
<line x1="17.854985029186693" y1="19.289939246701135" x2="10.041699014626207" y2="22.8410742682103" class="delaunay-line"/>
<line x1="20.29862098779882" y1="12.047294689004023" x2="18.48011698242486" y2="18.74171323744657" class="delaunay-line"/>
<line x1="18.48011698242486" y1="18.74171323744657" x2="18.65508817437796" y2="18.827999480445488" class="delaunay-line"/>
<line x1="18.65508817437796" y1="18.827999480445488" x2="20.29862098779882" y2="12.047294689004023" class="delaunay-line"/>
<line x1="19.99501780845786" y1="11.81433177585949" x2="20.123649795845722" y2="11.961008446005108" class="delaunay-line"/>
<line x1="20.123649795845722" y1="11.961008446005108" x2="19.932308079663173" y2="11.629594871969514" class="delaunay-line"/>
<line x1="19.932308079663173" y1="11.629594871969514" x2="19.99501780845786" y2="11.81433177585949" class="delaunay-line"/>
<line x1="9.35868631273399" y1="23.024086970102516" x2="7.489444329058949" y2="20.110390384734995" class="delaunay-line"/>
<line x1="7.489444329058949" y1="20.110390384734995" x2="7.2947717103976615" y2="20.097630867192624" class="delaunay-line"/>
<line x1="7.2947717103976615" y1="20.097630867192624" x2="9.35868631273399" y2="23.024086970102516" class="delaunay-line"/>
<line x1="9.66228949207495" y1="22.791124056957983" x2="9.35868631273399" y2="23.024086970102516" class="delaunay-line"/>
<line x1="9.35868631273399" y1="23.024086970102516" x2="10.041699014626207" y2="22.8410742682103" class="delaunay-line"/>
<line x1="10.041699014626207" y1="22.8410742682103" x2="9.66228949207495" y2="22.791124056957983" class="delaunay-line"/>
<line x1="9.35868631273399" y1="23.024086970102516" x2="7.2947717103976615" y2="20.097630867192624" class="delaunay-line"/>
<line x1="7.2947717103976615" y1="20.097630867192624" x2="9.295976583939304" y2="23.20882387399249" class="delaunay-line"/>
<line x1="9.295976583939304" y1="23.20882387399249" x2="9.35868631273399" y2="23.024086970102516" class="delaunay-line"/>
<line x1="24" y1="24" x2="18.415970555983627" y2="19.720398581278015" class="delaunay-line"/>
<line x1="18.415970555983627" y1="19.720398581278015" x2="18.22129793732234" y2="19.707639063735645" class="delaunay-line"/>
<line x1="18.22129793732234" y1="19.707639063735645" x2="24" y2="24" class="delaunay-line"/>
<line x1="18.22129793732234" y1="19.707639063735645" x2="18.415970555983627" y2="19.720398581278015" class="delaunay-line"/>
<line x1="18.415970555983627" y1="19.720398581278015" x2="18.046326745369242" y2="19.62135282073673" class="delaunay-line"/>
<line x1="18.046326745369242" y1="19.62135282073673" x2="18.22129793732234" y2="19.707639063735645" class="delaunay-line"/>
<line x1="18.833670373018137" y1="19.354085673142368" x2="18.846429890560508" y2="19.15941305448108" class="delaunay-line"/>
<line x1="18.846429890560508" y1="19.15941305448108" x2="18.74738413001922" y2="19.529056865095466" class="delaunay-line"/>
<line x1="18.74738413001922" y1="19.529056865095466" x2="18.833670373018137" y2="19.354085673142368" class="delaunay-line"/>
<line x1="20.493293606460107" y1="12.060054206546395" x2="20.29862098779882" y2="12.047294689004023" class="delaunay-line"/>
<line x1="20.29862098779882" y1="12.047294689004023" x2="18.65508817437796" y2="18.827999480445488" class="delaunay-line"/>
<line x1="18.65508817437796" y1="18.827999480445488" x2="20.493293606460107" y2="12.060054206546395" class="delaunay-line"/>
<line x1="20.17803051035008" y1="11.131319073967271" x2="19.945067597205544" y2="11.43492225330823" class="delaunay-line"/>
<line x1="19.945067597205544" y1="11.43492225330823" x2="19.932308079663173" y2="11.629594871969514" class="delaunay-line"/>
<line x1="19.932308079663173" y1="11.629594871969514" x2="20.17803051035008" y2="11.131319073967271" class="delaunay-line"/>
<line x1="14.573651622652994" y1="5.06964083597024" x2="11.643874625590282" y2="13.640439290053179" class="delaunay-line"/>
<line x1="11.643874625590282" y1="13.640439290053179" x2="11.7905512957359" y2="13.769071277441038" class="delaunay-line"/>
<line x1="11.7905512957359" y1="13.769071277441038" x2="14.573651622652994" y2="5.06964083597024" class="delaunay-line"/>
<line x1="24" y1="24" x2="18.6007074598736" y2="19.65768885248333" class="delaunay-line"/>
<line x1="18.6007074598736" y1="19.65768885248333" x2="18.415970555983627" y2="19.720398581278015" class="delaunay-line"/>
<line x1="18.415970555983627" y1="19.720398581278015" x2="24" y2="24" class="delaunay-line"/>
<line x1="18.415970555983627" y1="19.720398581278015" x2="18.6007074598736" y2="19.65768885248333" class="delaunay-line"/>
<line x1="18.6007074598736" y1="19.65768885248333" x2="18.046326745369242" y2="19.62135282073673" class="delaunay-line"/>
<line x1="18.046326745369242" y1="19.62135282073673" x2="18.415970555983627" y2="19.720398581278015" class="delaunay-line"/>
<line x1="18.74738413001922" y1="19.529056865095466" x2="18.846429890560508" y2="19.15941305448108" class="delaunay-line"/>
<line x1="18.846429890560508" y1="19.15941305448108" x2="18.78372016176582" y2="18.974676150591108" class="delaunay-line"/>
<line x1="18.78372016176582" y1="18.974676150591108" x2="18.74738413001922" y2="19.529056865095466" class="delaunay-line"/>
<line x1="20.493293606460107" y1="12.060054206546395" x2="18.65508817437796" y2="18.827999480445488" class="delaunay-line"/>
<line x1="18.65508817437796" y1="18.827999480445488" x2="18.78372016176582" y2="18.974676150591108" class="delaunay-line"/>
<line x1="18.78372016176582" y1="18.974676150591108" x2="20.493293606460107" y2="12.060054206546395" class="delaunay-line"/>
<line x1="20.493293606460107" y1="12.060054206546395" x2="18.78372016176582" y2="18.974676150591108" class="delaunay-line"/>
<line x1="18.78372016176582" y1="18.974676150591108" x2="20.67803051035008" y2="11.997344477751708" class="delaunay-line"/>
<line x1="20.67803051035008" y1="11.997344477751708" x2="20.493293606460107" y2="12.060054206546395" class="delaunay-line"/>
<line x1="20.123649795845722" y1="11.961008446005108" x2="20.17803051035008" y2="11.131319073967271" class="delaunay-line"/>
<line x1="20.17803051035008" y1="11.131319073967271" x2="19.932308079663173" y2="11.629594871969514" class="delaunay-line"/>
<line x1="19.932308079663173" y1="11.629594871969514" x2="20.123649795845722" y2="11.961008446005108" class="delaunay-line"/>
<line x1="10.287421445313115" y1="23.339350066212543" x2="10.188375684771827" y2="22.969706255598158" class="delaunay-line"/>
<line x1="10.188375684771827" y1="22.969706255598158" x2="10.041699014626207" y2="22.8410742682103" class="delaunay-line"/>
<line x1="10.041699014626207" y1="22.8410742682103" x2="10.287421445313115" y2="23.339350066212543" class="delaunay-line"/>
<line x1="10.188375684771827" y1="22.969706255598158" x2="10.274661927770744" y2="23.144677447551256" class="delaunay-line"/>
<line x1="10.274661927770744" y1="23.144677447551256" x2="17.91769475798138" y2="19.474676150591108" class="delaunay-line"/>
<line x1="17.91769475798138" y1="19.474676150591108" x2="10.188375684771827" y2="22.969706255598158" class="delaunay-line"/>
<line x1="18.6007074598736" y1="19.65768885248333" x2="18.74738413001922" y2="19.529056865095466" class="delaunay-line"/>
<line x1="18.74738413001922" y1="19.529056865095466" x2="18.046326745369242" y2="19.62135282073673" class="delaunay-line"/>
<line x1="18.046326745369242" y1="19.62135282073673" x2="18.6007074598736" y2="19.65768885248333" class="delaunay-line"/>
<line x1="9.295976583939304" y1="23.20882387399249" x2="7.2947717103976615" y2="20.097630867192624" class="delaunay-line"/>
<line x1="7.2947717103976615" y1="20.097630867192624" x2="7.119800518444561" y2="20.011344624193708" class="delaunay-line"/>
<line x1="7.119800518444561" y1="20.011344624193708" x2="9.295976583939304" y2="23.20882387399249" class="delaunay-line"/>
<line x1="9.487318300121848" y1="22.8774102999569" x2="9.35868631273399" y2="23.024086970102516" class="delaunay-line"/>
<line x1="9.35868631273399" y1="23.024086970102516" x2="9.66228949207495" y2="22.791124056957983" class="delaunay-line"/>
<line x1="9.66228949207495" y1="22.791124056957983" x2="9.487318300121848" y2="22.8774102999569" class="delaunay-line"/>
<line x1="20.29862098779882" y1="12.047294689004023" x2="20.17803051035008" y2="11.131319073967271" class="delaunay-line"/>
<line x1="20.17803051035008" y1="11.131319073967271" x2="20.123649795845722" y2="11.961008446005108" class="delaunay-line"/>
<line x1="20.123649795845722" y1="11.961008446005108" x2="20.29862098779882" y2="12.047294689004023" class="delaunay-line"/>
<line x1="14.573651622652994" y1="5.06964083597024" x2="11.7905512957359" y2="13.769071277441038" class="delaunay-line"/>
<line x1="11.7905512957359" y1="13.769071277441038" x2="19.945067597205544" y2="11.43492225330823" class="delaunay-line"/>
<line x1="19.945067597205544" y1="11.43492225330823" x2="14.573651622652994" y2="5.06964083597024" class="delaunay-line"/>
<line x1="20.67803051035008" y1="11.997344477751708" x2="18.78372016176582" y2="18.974676150591108" class="delaunay-line"/>
<line x1="18.78372016176582" y1="18.974676150591108" x2="18.846429890560508" y2="19.15941305448108" class="delaunay-line"/>
<line x1="18.846429890560508" y1="19.15941305448108" x2="20.67803051035008" y2="11.997344477751708" class="delaunay-line"/>
<line x1="20.55744003290134" y1="11.081368862714957" x2="20.362767414240054" y2="11.068609345172584" class="delaunay-line"/>
<line x1="20.362767414240054" y1="11.068609345172584" x2="20.17803051035008" y2="11.131319073967271" class="delaunay-line"/>
<line x1="20.17803051035008" y1="11.131319073967271" x2="20.55744003290134" y2="11.081368862714957" class="delaunay-line"/>
<line x1="10.224711716518428" y1="23.524086970102516" x2="10.287421445313115" y2="23.339350066212543" class="delaunay-line"/>
<line x1="10.287421445313115" y1="23.339350066212543" x2="10.041699014626207" y2="22.8410742682103" class="delaunay-line"/>
<line x1="10.041699014626207" y1="22.8410742682103" x2="10.224711716518428" y2="23.524086970102516" class="delaunay-line"/>
<line x1="10.274661927770744" y1="23.144677447551256" x2="10.287421445313115" y2="23.339350066212543" class="delaunay-line"/>
<line x1="10.287421445313115" y1="23.339350066212543" x2="18.046326745369242" y2="19.62135282073673" class="delaunay-line"/>
<line x1="18.046326745369242" y1="19.62135282073673" x2="10.274661927770744" y2="23.144677447551256" class="delaunay-line"/>
<line x1="9.308736101481674" y1="23.403496492653776" x2="9.295976583939304" y2="23.20882387399249" class="delaunay-line"/>
<line x1="9.295976583939304" y1="23.20882387399249" x2="7.119800518444561" y2="20.011344624193708" class="delaunay-line"/>
<line x1="7.119800518444561" y1="20.011344624193708" x2="9.308736101481674" y2="23.403496492653776" class="delaunay-line"/>
<line x1="9.35868631273399" y1="23.024086970102516" x2="9.54169901462621" y2="23.707099671994733" class="delaunay-line"/>
<line x1="9.54169901462621" y1="23.707099671994733" x2="10.041699014626207" y2="22.8410742682103" class="delaunay-line"/>
<line x1="10.041699014626207" y1="22.8410742682103" x2="9.35868631273399" y2="23.024086970102516" class="delaunay-line"/>
<line x1="20.55744003290134" y1="11.081368862714957" x2="20.17803051035008" y2="11.131319073967271" class="delaunay-line"/>
<line x1="20.17803051035008" y1="11.131319073967271" x2="20.29862098779882" y2="12.047294689004023" class="delaunay-line"/>
<line x1="20.29862098779882" y1="12.047294689004023" x2="20.55744003290134" y2="11.081368862714957" class="delaunay-line"/>
<line x1="14.573651622652994" y1="5.06964083597024" x2="19.945067597205544" y2="11.43492225330823" class="delaunay-line"/>
<line x1="19.945067597205544" y1="11.43492225330823" x2="14.764993338835538" y2="5.031580602225884" class="delaunay-line"/>
<line x1="14.764993338835538" y1="5.031580602225884" x2="14.573651622652994" y2="5.06964083597024" class="delaunay-line"/>
<line x1="20.8247071804957" y1="11.86871249036385" x2="20.67803051035008" y2="11.997344477751708" class="delaunay-line"/>
<line x1="20.67803051035008" y1="11.997344477751708" x2="18.846429890560508" y2="19.15941305448108" class="delaunay-line"/>
<line x1="18.846429890560508" y1="19.15941305448108" x2="20.8247071804957" y2="11.86871249036385" class="delaunay-line"/>
<line x1="20.493293606460107" y1="12.060054206546395" x2="20.67803051035008" y2="11.997344477751708" class="delaunay-line"/>
<line x1="20.67803051035008" y1="11.997344477751708" x2="20.29862098779882" y2="12.047294689004023" class="delaunay-line"/>
<line x1="20.29862098779882" y1="12.047294689004023" x2="20.493293606460107" y2="12.060054206546395" class="delaunay-line"/>
<line x1="10.09607972913057" y1="23.670763640248133" x2="10.224711716518428" y2="23.524086970102516" class="delaunay-line"/>
<line x1="10.224711716518428" y1="23.524086970102516" x2="9.921108537177469" y2="23.75704988324705" class="delaunay-line"/>
<line x1="9.921108537177469" y1="23.75704988324705" x2="10.09607972913057" y2="23.670763640248133" class="delaunay-line"/>
<line x1="10.287421445313115" y1="23.339350066212543" x2="10.224711716518428" y2="23.524086970102516" class="delaunay-line"/>
<line x1="10.224711716518428" y1="23.524086970102516" x2="18.22129793732234" y2="19.707639063735645" class="delaunay-line"/>
<line x1="18.22129793732234" y1="19.707639063735645" x2="10.287421445313115" y2="23.339350066212543" class="delaunay-line"/>
<line x1="19.945067597205544" y1="11.43492225330823" x2="20.03135384020446" y2="11.25995106135513" class="delaunay-line"/>
<line x1="20.03135384020446" y1="11.25995106135513" x2="14.764993338835538" y2="5.031580602225884" class="delaunay-line"/>
<line x1="14.764993338835538" y1="5.031580602225884" x2="19.945067597205544" y2="11.43492225330823" class="delaunay-line"/>
<line x1="11.264465103039022" y1="13.590489078800864" x2="14.111711856397351" y2="4.760982552152785" class="delaunay-line"/>
<line x1="14.111711856397351" y1="4.760982552152785" x2="11.089493911085922" y2="13.676775321799779" class="delaunay-line"/>
<line x1="11.089493911085922" y1="13.676775321799779" x2="11.264465103039022" y2="13.590489078800864" class="delaunay-line"/>
<line x1="11.089493911085922" y1="13.676775321799779" x2="0" y2="0" class="delaunay-line"/>
<line x1="0" y1="0" x2="10.960861923698063" y2="13.823451991945397" class="delaunay-line"/>
<line x1="10.960861923698063" y1="13.823451991945397" x2="11.089493911085922" y2="13.676775321799779" class="delaunay-line"/>
<line x1="0" y1="0" x2="0" y2="24" class="delaunay-line"/>
<line x1="0" y1="24" x2="7.027504562803305" y2="19.310287239543733" class="delaunay-line"/>
<line x1="7.027504562803305" y1="19.310287239543733" x2="0" y2="0" class="delaunay-line"/>
<line x1="14.764993338835538" y1="5.031580602225884" x2="20.03135384020446" y2="11.25995106135513" class="delaunay-line"/>
<line x1="20.03135384020446" y1="11.25995106135513" x2="14.927205013246267" y2="4.923194226563515" class="delaunay-line"/>
<line x1="14.927205013246267" y1="4.923194226563515" x2="14.764993338835538" y2="5.031580602225884" class="delaunay-line"/>
<line x1="0" y1="24" x2="9.308736101481674" y2="23.403496492653776" class="delaunay-line"/>
<line x1="9.308736101481674" y1="23.403496492653776" x2="7.119800518444561" y2="20.011344624193708" class="delaunay-line"/>
<line x1="7.119800518444561" y1="20.011344624193708" x2="0" y2="24" class="delaunay-line"/>
<line x1="9.295976583939304" y1="23.20882387399249" x2="9.54169901462621" y2="23.707099671994733" class="delaunay-line"/>
<line x1="9.54169901462621" y1="23.707099671994733" x2="9.35868631273399" y2="23.024086970102516" class="delaunay-line"/>
<line x1="9.35868631273399" y1="23.024086970102516" x2="9.295976583939304" y2="23.20882387399249" class="delaunay-line"/>
<line x1="14.573651622652994" y1="5.06964083597024" x2="14.220098232059721" y2="4.923194226563515" class="delaunay-line"/>
<line x1="14.220098232059721" y1="4.923194226563515" x2="14.382309906470448" y2="5.031580602225884" class="delaunay-line"/>
<line x1="14.382309906470448" y1="5.031580602225884" x2="14.573651622652994" y2="5.06964083597024" class="delaunay-line"/>
<line x1="14.382309906470448" y1="5.031580602225884" x2="14.220098232059721" y2="4.923194226563515" class="delaunay-line"/>
<line x1="14.220098232059721" y1="4.923194226563515" x2="11.459137721700307" y2="13.577729561258492" class="delaunay-line"/>
<line x1="11.459137721700307" y1="13.577729561258492" x2="14.382309906470448" y2="5.031580602225884" class="delaunay-line"/>
<line x1="20.732411224854438" y1="11.167655105713871" x2="20.55744003290134" y2="11.081368862714957" class="delaunay-line"/>
<line x1="20.55744003290134" y1="11.081368862714957" x2="20.29862098779882" y2="12.047294689004023" class="delaunay-line"/>
<line x1="20.29862098779882" y1="12.047294689004023" x2="20.732411224854438" y2="11.167655105713871" class="delaunay-line"/>
<line x1="14.927205013246267" y1="4.923194226563515" x2="20.03135384020446" y2="11.25995106135513" class="delaunay-line"/>
<line x1="20.03135384020446" y1="11.25995106135513" x2="20.17803051035008" y2="11.131319073967271" class="delaunay-line"/>
<line x1="20.17803051035008" y1="11.131319073967271" x2="14.927205013246267" y2="4.923194226563515" class="delaunay-line"/>
<line x1="14.927205013246267" y1="4.923194226563515" x2="20.17803051035008" y2="11.131319073967271" class="delaunay-line"/>
<line x1="20.17803051035008" y1="11.131319073967271" x2="15.035591388908639" y2="4.760982552152785" class="delaunay-line"/>
<line x1="15.035591388908639" y1="4.760982552152785" x2="14.927205013246267" y2="4.923194226563515" class="delaunay-line"/>
<line x1="14.573651622652994" y1="5.06964083597024" x2="14.111711856397351" y2="4.760982552152785" class="delaunay-line"/>
<line x1="14.111711856397351" y1="4.760982552152785" x2="14.220098232059721" y2="4.923194226563515" class="delaunay-line"/>
<line x1="14.220098232059721" y1="4.923194226563515" x2="14.573651622652994" y2="5.06964083597024" class="delaunay-line"/>
<line x1="9.921108537177469" y1="23.75704988324705" x2="10.224711716518428" y2="23.524086970102516" class="delaunay-line"/>
<line x1="10.224711716518428" y1="23.524086970102516" x2="10.041699014626207" y2="22.8410742682103" class="delaunay-line"/>
<line x1="10.041699014626207" y1="22.8410742682103" x2="9.921108537177469" y2="23.75704988324705" class="delaunay-line"/>
<line x1="10.224711716518428" y1="23.524086970102516" x2="24" y2="24" class="delaunay-line"/>
<line x1="24" y1="24" x2="18.22129793732234" y2="19.707639063735645" class="delaunay-line"/>
<line x1="18.22129793732234" y1="19.707639063735645" x2="10.224711716518428" y2="23.524086970102516" class="delaunay-line"/>
<line x1="20.67803051035008" y1="11.997344477751708" x2="20.732411224854438" y2="11.167655105713871" class="delaunay-line"/>
<line x1="20.732411224854438" y1="11.167655105713871" x2="20.29862098779882" y2="12.047294689004023" class="delaunay-line"/>
<line x1="20.29862098779882" y1="12.047294689004023" x2="20.67803051035008" y2="11.997344477751708" class="delaunay-line"/>
<line x1="24" y1="24" x2="20.8247071804957" y2="11.86871249036385" class="delaunay-line"/>
<line x1="20.8247071804957" y1="11.86871249036385" x2="18.846429890560508" y2="19.15941305448108" class="delaunay-line"/>
<line x1="18.846429890560508" y1="19.15941305448108" x2="24" y2="24" class="delaunay-line"/>
<line x1="14.220098232059721" y1="4.216087445376967" x2="14.111711856397351" y2="4.760982552152785" class="delaunay-line"/>
<line x1="14.111711856397351" y1="4.760982552152785" x2="14.38230990647045" y2="4.107701069714598" class="delaunay-line"/>
<line x1="14.38230990647045" y1="4.107701069714598" x2="14.220098232059721" y2="4.216087445376967" class="delaunay-line"/>
<line x1="14.220098232059721" y1="4.923194226563515" x2="14.111711856397351" y2="4.760982552152785" class="delaunay-line"/>
<line x1="14.111711856397351" y1="4.760982552152785" x2="11.264465103039022" y2="13.590489078800864" class="delaunay-line"/>
<line x1="11.264465103039022" y1="13.590489078800864" x2="14.220098232059721" y2="4.923194226563515" class="delaunay-line"/>
<line x1="7.027504562803305" y1="19.310287239543733" x2="0" y2="24" class="delaunay-line"/>
<line x1="0" y1="24" x2="6.941218319804388" y2="19.48525843149683" class="delaunay-line"/>
<line x1="6.941218319804388" y1="19.48525843149683" x2="7.027504562803305" y2="19.310287239543733" class="delaunay-line"/>
<line x1="0" y1="24" x2="9.39502234448059" y2="23.578467684606874" class="delaunay-line"/>
<line x1="9.39502234448059" y1="23.578467684606874" x2="9.308736101481674" y2="23.403496492653776" class="delaunay-line"/>
<line x1="9.308736101481674" y1="23.403496492653776" x2="0" y2="24" class="delaunay-line"/>
<line x1="9.308736101481674" y1="23.403496492653776" x2="9.39502234448059" y2="23.578467684606874" class="delaunay-line"/>
<line x1="9.39502234448059" y1="23.578467684606874" x2="9.295976583939304" y2="23.20882387399249" class="delaunay-line"/>
<line x1="9.295976583939304" y1="23.20882387399249" x2="9.308736101481674" y2="23.403496492653776" class="delaunay-line"/>
<line x1="20.923752941036987" y1="11.499068679749465" x2="20.732411224854438" y2="11.167655105713871" class="delaunay-line"/>
<line x1="20.732411224854438" y1="11.167655105713871" x2="20.67803051035008" y2="11.997344477751708" class="delaunay-line"/>
<line x1="20.67803051035008" y1="11.997344477751708" x2="20.923752941036987" y2="11.499068679749465" class="delaunay-line"/>
<line x1="15.035591388908639" y1="4.760982552152785" x2="20.17803051035008" y2="11.131319073967271" class="delaunay-line"/>
<line x1="20.17803051035008" y1="11.131319073967271" x2="20.362767414240054" y2="11.068609345172584" class="delaunay-line"/>
<line x1="20.362767414240054" y1="11.068609345172584" x2="15.035591388908639" y2="4.760982552152785" class="delaunay-line"/>
<line x1="9.54169901462621" y1="23.707099671994733" x2="9.921108537177469" y2="23.75704988324705" class="delaunay-line"/>
<line x1="9.921108537177469" y1="23.75704988324705" x2="10.041699014626207" y2="22.8410742682103" class="delaunay-line"/>
<line x1="10.041699014626207" y1="22.8410742682103" x2="9.54169901462621" y2="23.707099671994733" class="delaunay-line"/>
<line x1="10.09607972913057" y1="23.670763640248133" x2="24" y2="24" class="delaunay-line"/>
<line x1="24" y1="24" x2="10.224711716518428" y2="23.524086970102516" class="delaunay-line"/>
<line x1="10.224711716518428" y1="23.524086970102516" x2="10.09607972913057" y2="23.670763640248133" class="delaunay-line"/>
<line x1="15.035591388908639" y1="4.760982552152785" x2="20.362767414240054" y2="11.068609345172584" class="delaunay-line"/>
<line x1="20.362767414240054" y1="11.068609345172584" x2="15.073651622652994" y2="4.569640835970242" class="delaunay-line"/>
<line x1="15.073651622652994" y1="4.569640835970242" x2="15.035591388908639" y2="4.760982552152785" class="delaunay-line"/>
<line x1="14.38230990647045" y1="4.107701069714598" x2="14.111711856397351" y2="4.760982552152785" class="delaunay-line"/>
<line x1="14.111711856397351" y1="4.760982552152785" x2="14.573651622652994" y2="4.069640835970242" class="delaunay-line"/>
<line x1="14.573651622652994" y1="4.069640835970242" x2="14.38230990647045" y2="4.107701069714598" class="delaunay-line"/>
<line x1="9.39502234448059" y1="23.578467684606874" x2="9.54169901462621" y2="23.707099671994733" class="delaunay-line"/>
<line x1="9.54169901462621" y1="23.707099671994733" x2="9.295976583939304" y2="23.20882387399249" class="delaunay-line"/>
<line x1="9.295976583939304" y1="23.20882387399249" x2="9.39502234448059" y2="23.578467684606874" class="delaunay-line"/>
<line x1="20.8247071804957" y1="11.86871249036385" x2="20.910993423494617" y2="11.69374129841075" class="delaunay-line"/>
<line x1="20.910993423494617" y1="11.69374129841075" x2="20.67803051035008" y2="11.997344477751708" class="delaunay-line"/>
<line x1="20.67803051035008" y1="11.997344477751708" x2="20.8247071804957" y2="11.86871249036385" class="delaunay-line"/>
<line x1="24" y1="24" x2="20.910993423494617" y2="11.69374129841075" class="delaunay-line"/>
<line x1="20.910993423494617" y1="11.69374129841075" x2="20.8247071804957" y2="11.86871249036385" class="delaunay-line"/>
<line x1="20.8247071804957" y1="11.86871249036385" x2="24" y2="24" class="delaunay-line"/>
<line x1="9.54169901462621" y1="23.707099671994733" x2="9.726435918516183" y2="23.76980940078942" class="delaunay-line"/>
<line x1="9.726435918516183" y1="23.76980940078942" x2="9.921108537177469" y2="23.75704988324705" class="delaunay-line"/>
<line x1="9.921108537177469" y1="23.75704988324705" x2="9.54169901462621" y2="23.707099671994733" class="delaunay-line"/>
<line x1="20.923752941036987" y1="11.499068679749465" x2="20.8610432122423" y2="11.31433177585949" class="delaunay-line"/>
<line x1="20.8610432122423" y1="11.31433177585949" x2="20.732411224854438" y2="11.167655105713871" class="delaunay-line"/>
<line x1="20.732411224854438" y1="11.167655105713871" x2="20.923752941036987" y2="11.499068679749465" class="delaunay-line"/>
<line x1="20.910993423494617" y1="11.69374129841075" x2="20.923752941036987" y2="11.499068679749465" class="delaunay-line"/>
<line x1="20.923752941036987" y1="11.499068679749465" x2="20.67803051035008" y2="11.997344477751708" class="delaunay-line"/>
<line x1="20.67803051035008" y1="11.997344477751708" x2="20.910993423494617" y2="11.69374129841075" class="delaunay-line"/>
<line x1="14.220098232059721" y1="4.216087445376967" x2="14.073651622652994" y2="4.56964083597024" class="delaunay-line"/>
<line x1="14.073651622652994" y1="4.56964083597024" x2="14.111711856397351" y2="4.760982552152785" class="delaunay-line"/>
<line x1="14.111711856397351" y1="4.760982552152785" x2="14.220098232059721" y2="4.216087445376967" class="delaunay-line"/>
<line x1="14.111711856397351" y1="4.760982552152785" x2="0" y2="0" class="delaunay-line"/>
<line x1="0" y1="0" x2="11.089493911085922" y2="13.676775321799779" class="delaunay-line"/>
<line x1="11.089493911085922" y1="13.676775321799779" x2="14.111711856397351" y2="4.760982552152785" class="delaunay-line"/>
<line x1="15.073651622652994" y1="4.569640835970242" x2="20.362767414240054" y2="11.068609345172584" class="delaunay-line"/>
<line x1="20.362767414240054" y1="11.068609345172584" x2="20.55744003290134" y2="11.081368862714957" class="delaunay-line"/>
<line x1="20.55744003290134" y1="11.081368862714957" x2="15.073651622652994" y2="4.569640835970242" class="delaunay-line"/>
<line x1="14.220098232059721" y1="4.216087445376967" x2="14.11171185639735" y2="4.378299119787697" class="delaunay-line"/>
<line x1="14.11171185639735" y1="4.378299119787697" x2="14.073651622652994" y2="4.56964083597024" class="delaunay-line"/>
<line x1="14.073651622652994" y1="4.56964083597024" x2="14.220098232059721" y2="4.216087445376967" class="delaunay-line"/>
<line x1="15.035591388908637" y1="4.378299119787697" x2="14.764993338835538" y2="5.031580602225884" class="delaunay-line"/>
<line x1="14.764993338835538" y1="5.031580602225884" x2="14.927205013246267" y2="4.923194226563515" class="delaunay-line"/>
<line x1="14.927205013246267" y1="4.923194226563515" x2="15.035591388908637" y2="4.378299119787697" class="delaunay-line"/>
<line x1="0" y1="0" x2="10.898152194903377" y2="14.008188895835373" class="delaunay-line"/>
<line x1="10.898152194903377" y1="14.008188895835373" x2="10.960861923698063" y2="13.823451991945397" class="delaunay-line"/>
<line x1="10.960861923698063" y1="13.823451991945397" x2="0" y2="0" class="delaunay-line"/>
<line x1="15.035591388908637" y1="4.378299119787697" x2="15.073651622652994" y2="4.569640835970242" class="delaunay-line"/>
<line x1="15.073651622652994" y1="4.569640835970242" x2="24" y2="0" class="delaunay-line"/>
<line x1="24" y1="0" x2="15.035591388908637" y2="4.378299119787697" class="delaunay-line"/>
<line x1="15.035591388908639" y1="4.760982552152785" x2="15.073651622652994" y2="4.569640835970242" class="delaunay-line"/>
<line x1="15.073651622652994" y1="4.569640835970242" x2="14.927205013246267" y2="4.923194226563515" class="delaunay-line"/>
<line x1="14.927205013246267" y1="4.923194226563515" x2="15.035591388908639" y2="4.760982552152785" class="delaunay-line"/>
<line x1="15.073651622652994" y1="4.569640835970242" x2="20.55744003290134" y2="11.081368862714957" class="delaunay-line"/>
<line x1="20.55744003290134" y1="11.081368862714957" x2="24" y2="0" class="delaunay-line"/>
<line x1="24" y1="0" x2="15.073651622652994" y2="4.569640835970242" class="delaunay-line"/>
<line x1="15.035591388908637" y1="4.378299119787697" x2="14.573651622652994" y2="5.06964083597024" class="delaunay-line"/>
<line x1="14.573651622652994" y1="5.06964083597024" x2="14.764993338835538" y2="5.031580602225884" class="delaunay-line"/>
<line x1="14.764993338835538" y1="5.031580602225884" x2="15.035591388908637" y2="4.378299119787697" class="delaunay-line"/>
<line x1="14.927205013246267" y1="4.216087445376967" x2="15.035591388908637" y2="4.378299119787697" class="delaunay-line"/>
<line x1="15.035591388908637" y1="4.378299119787697" x2="24" y2="0" class="delaunay-line"/>
<line x1="24" y1="0" x2="14.927205013246267" y2="4.216087445376967" class="delaunay-line"/>
<line x1="15.073651622652994" y1="4.569640835970242" x2="15.035591388908637" y2="4.378299119787697" class="delaunay-line"/>
<line x1="15.035591388908637" y1="4.378299119787697" x2="14.927205013246267" y2="4.923194226563515" class="delaunay-line"/>
<line x1="14.927205013246267" y1="4.923194226563515" x2="15.073651622652994" y2="4.569640835970242" class="delaunay-line"/>
<line x1="14.573651622652994" y1="4.069640835970242" x2="14.111711856397351" y2="4.760982552152785" class="delaunay-line"/>
<line x1="14.111711856397351" y1="4.760982552152785" x2="14.573651622652994" y2="5.06964083597024" class="delaunay-line"/>
<line x1="14.573651622652994" y1="5.06964083597024" x2="14.573651622652994" y2="4.069640835970242" class="delaunay-line"/>
<line x1="24" y1="0" x2="20.55744003290134" y2="11.081368862714957" class="delaunay-line"/>
<line x1="20.55744003290134" y1="11.081368862714957" x2="20.732411224854438" y2="11.167655105713871" class="delaunay-line"/>
<line x1="20.732411224854438" y1="11.167655105713871" x2="24" y2="0" class="delaunay-line"/>
<line x1="15.035591388908637" y1="4.378299119787697" x2="14.573651622652994" y2="4.069640835970242" class="delaunay-line"/>
<line x1="14.573651622652994" y1="4.069640835970242" x2="14.573651622652994" y2="5.06964083597024" class="delaunay-line"/>
<line x1="14.573651622652994" y1="5.06964083597024" x2="15.035591388908637" y2="4.378299119787697" class="delaunay-line"/>
<line x1="14.927205013246267" y1="4.216087445376967" x2="14.573651622652994" y2="4.069640835970242" class="delaunay-line"/>
<line x1="14.573651622652994" y1="4.069640835970242" x2="15.035591388908637" y2="4.378299119787697" class="delaunay-line"/>
<line x1="15.035591388908637" y1="4.378299119787697" x2="14.927205013246267" y2="4.216087445376967" class="delaunay-line"/>
<line x1="14.927205013246267" y1="4.216087445376967" x2="14.76499333883554" y2="4.107701069714598" class="delaunay-line"/>
<line x1="14.76499333883554" y1="4.107701069714598" x2="14.573651622652994" y2="4.069640835970242" class="delaunay-line"/>
<line x1="14.573651622652994" y1="4.069640835970242" x2="14.927205013246267" y2="4.216087445376967" class="delaunay-line"/>
<line x1="6.928458802262018" y1="19.679931050158118" x2="0" y2="24" class="delaunay-line"/>
<line x1="0" y1="24" x2="6.991168531056703" y2="19.86466795404809" class="delaunay-line"/>
<line x1="6.991168531056703" y1="19.86466795404809" x2="6.928458802262018" y2="19.679931050158118" class="delaunay-line"/>
<line x1="6.991168531056703" y1="19.86466795404809" x2="0" y2="24" class="delaunay-line"/>
<line x1="0" y1="24" x2="7.119800518444561" y2="20.011344624193708" class="delaunay-line"/>
<line x1="7.119800518444561" y1="20.011344624193708" x2="6.991168531056703" y2="19.86466795404809" class="delaunay-line"/>
<line x1="9.39502234448059" y1="23.578467684606874" x2="0" y2="24" class="delaunay-line"/>
<line x1="0" y1="24" x2="9.54169901462621" y2="23.707099671994733" class="delaunay-line"/>
<line x1="9.54169901462621" y1="23.707099671994733" x2="9.39502234448059" y2="23.578467684606874" class="delaunay-line"/>
<line x1="9.54169901462621" y1="23.707099671994733" x2="0" y2="24" class="delaunay-line"/>
<line x1="0" y1="24" x2="9.726435918516183" y2="23.76980940078942" class="delaunay-line"/>
<line x1="9.726435918516183" y1="23.76980940078942" x2="9.54169901462621" y2="23.707099671994733" class="delaunay-line"/>
<line x1="6.941218319804388" y1="19.48525843149683" x2="0" y2="24" class="delaunay-line"/>
<line x1="0" y1="24" x2="6.928458802262018" y2="19.679931050158118" class="delaunay-line"/>
<line x1="6.928458802262018" y1="19.679931050158118" x2="6.941218319804388" y2="19.48525843149683" class="delaunay-line"/>
<line x1="0" y1="0" x2="14.111711856397351" y2="4.760982552152785" class="delaunay-line"/>
<line x1="14.111711856397351" y1="4.760982552152785" x2="14.073651622652994" y2="4.56964083597024" class="delaunay-line"/>
<line x1="14.073651622652994" y1="4.56964083597024" x2="0" y2="0" class="delaunay-line"/>
<line x1="0" y1="0" x2="14.073651622652994" y2="4.56964083597024" class="delaunay-line"/>
<line x1="14.073651622652994" y1="4.56964083597024" x2="14.11171185639735" y2="4.378299119787697" class="delaunay-line"/>
<line x1="14.11171185639735" y1="4.378299119787697" x2="0" y2="0" class="delaunay-line"/>
<line x1="18.74738413001922" y1="19.529056865095466" x2="24" y2="24" class="delaunay-line"/>
<line x1="24" y1="24" x2="18.833670373018137" y2="19.354085673142368" class="delaunay-line"/>
<line x1="18.833670373018137" y1="19.354085673142368" x2="18.74738413001922" y2="19.529056865095466" class="delaunay-line"/>
<line x1="18.833670373018137" y1="19.354085673142368" x2="24" y2="24" class="delaunay-line"/>
<line x1="24" y1="24" x2="18.846429890560508" y2="19.15941305448108" class="delaunay-line"/>
<line x1="18.846429890560508" y1="19.15941305448108" x2="18.833670373018137" y2="19.354085673142368" class="delaunay-line"/>
<line x1="20.910993423494617" y1="11.69374129841075" x2="24" y2="24" class="delaunay-line"/>
<line x1="24" y1="24" x2="20.923752941036987" y2="11.499068679749465" class="delaunay-line"/>
<line x1="20.923752941036987" y1="11.499068679749465" x2="20.910993423494617" y2="11.69374129841075" class="delaunay-line"/>
<line x1="18.6007074598736" y1="19.65768885248333" x2="24" y2="24" class="delaunay-line"/>
<line x1="24" y1="24" x2="18.74738413001922" y2="19.529056865095466" class="delaunay-line"/>
<line x1="18.74738413001922" y1="19.529056865095466" x2="18.6007074598736" y2="19.65768885248333" class="delaunay-line"/>
<line x1="9.921108537177469" y1="23.75704988324705" x2="24" y2="24" class="delaunay-line"/>
<line x1="24" y1="24" x2="10.09607972913057" y2="23.670763640248133" class="delaunay-line"/>
<line x1="10.09607972913057" y1="23.670763640248133" x2="9.921108537177469" y2="23.75704988324705" class="delaunay-line"/>
<line x1="9.726435918516183" y1="23.76980940078942" x2="24" y2="24" class="delaunay-line"/>
<line x1="24" y1="24" x2="9.921108537177469" y2="23.75704988324705" class="delaunay-line"/>
<line x1="9.921108537177469" y1="23.75704988324705" x2="9.726435918516183" y2="23.76980940078942" class="delaunay-line"/>
<line x1="0" y1="24" x2="24" y2="24" class="delaunay-line"/>
<line x1="24" y1="24" x2="9.726435918516183" y2="23.76980940078942" class="delaunay-line"/>
<line x1="9.726435918516183" y1="23.76980940078942" x2="0" y2="24" class="delaunay-line"/>
<line x1="14.38230990647045" y1="4.107701069714598" x2="0" y2="0" class="delaunay-line"/>
<line x1="0" y1="0" x2="14.220098232059721" y2="4.216087445376967" class="delaunay-line"/>
<line x1="14.220098232059721" y1="4.216087445376967" x2="14.38230990647045" y2="4.107701069714598" class="delaunay-line"/>
<line x1="14.220098232059721" y1="4.216087445376967" x2="0" y2="0" class="delaunay-line"/>
<line x1="0" y1="0" x2="14.11171185639735" y2="4.378299119787697" class="delaunay-line"/>
<line x1="14.11171185639735" y1="4.378299119787697" x2="14.220098232059721" y2="4.216087445376967" class="delaunay-line"/>
<line x1="14.573651622652994" y1="4.069640835970242" x2="0" y2="0" class="delaunay-line"/>
<line x1="0" y1="0" x2="14.38230990647045" y2="4.107701069714598" class="delaunay-line"/>
<line x1="14.38230990647045" y1="4.107701069714598" x2="14.573651622652994" y2="4.069640835970242" class="delaunay-line"/>
<line x1="24" y1="0" x2="0" y2="0" class="delaunay-line"/>
<line x1="0" y1="0" x2="14.573651622652994" y2="4.069640835970242" class="delaunay-line"/>
<line x1="14.573651622652994" y1="4.069640835970242" x2="24" y2="0" class="delaunay-line"/>
<line x1="14.927205013246267" y1="4.216087445376967" x2="24" y2="0" class="delaunay-line"/>
<line x1="24" y1="0" x2="14.76499333883554" y2="4.107701069714598" class="delaunay-line"/>
<line x1="14.76499333883554" y1="4.107701069714598" x2="14.927205013246267" y2="4.216087445376967" class="delaunay-line"/>
<line x1="14.76499333883554" y1="4.107701069714598" x2="24" y2="0" class="delaunay-line"/>
<line x1="24" y1="0" x2="14.573651622652994" y2="4.069640835970242" class="delaunay-line"/>
<line x1="14.573651622652994" y1="4.069640835970242" x2="14.76499333883554" y2="4.107701069714598" class="delaunay-line"/>
<line x1="20.8610432122423" y1="11.31433177585949" x2="24" y2="0" class="delaunay-line"/>
<line x1="24" y1="0" x2="20.732411224854438" y2="11.167655105713871" class="delaunay-line"/>
<line x1="20.732411224854438" y1="11.167655105713871" x2="20.8610432122423" y2="11.31433177585949" class="delaunay-line"/>
<line x1="20.923752941036987" y1="11.499068679749465" x2="24" y2="0" class="delaunay-line"/>
<line x1="24" y1="0" x2="20.8610432122423" y2="11.31433177585949" class="delaunay-line"/>
<line x1="20.8610432122423" y1="11.31433177585949" x2="20.923752941036987" y2="11.499068679749465" class="delaunay-line"/>
<line x1="24" y1="24" x2="24" y2="0" class="delaunay-line"/>
<line x1="24" y1="0" x2="20.923752941036987" y2="11.499068679749465" class="delaunay-line"/>
<line x1="20.923752941036987" y1="11.499068679749465" x2="24" y2="24" class="delaunay-line"/>
</g>
<g id="layer-area" class="layer ">
</g>
<g id="layer-terrain" class="layer ">
<polygon points="18.78372016176582,18.974676150591108 18.846429890560508,19.15941305448108 18.833670373018137,19.354085673142368 18.74738413001922,19.529056865095466 18.6007074598736,19.65768885248333 18.415970555983627,19.720398581278015 18.22129793732234,19.707639063735645 18.046326745369242,19.62135282073673 17.91769475798138,19.474676150591108 17.854985029186693,19.289939246701135 17.867744546729064,19.095266628039848 17.95403078972798,18.92029543608675 18.1007074598736,18.791663448698888 18.285444363763574,18.7289537199042 18.48011698242486,18.74171323744657 18.65508817437796,18.827999480445488" fill="Dark Green" class="terrain-solid"/>
<polygon points="7.553590755500183,19.131705040903558 7.728561947453284,19.217991283902474 7.857193934841142,19.36466795404809 7.919903663635827,19.549404857938065 7.907144146093456,19.74407747659935 7.82085790309454,19.91904866855245 7.674181232948921,20.047680655940308 7.489444329058949,20.110390384734995 7.2947717103976615,20.097630867192624 7.119800518444561,20.011344624193708 6.991168531056703,19.86466795404809 6.928458802262018,19.679931050158118 6.941218319804388,19.48525843149683 7.027504562803305,19.310287239543733 7.174181232948923,19.181655252155874 7.358918136838896,19.118945523361187" fill="Dark Green" class="terrain-solid"/>
<polygon points="9.308736101481674,23.403496492653776 9.295976583939304,23.20882387399249 9.35868631273399,23.024086970102516 9.487318300121848,22.8774102999569 9.66228949207495,22.791124056957983 9.856962110736236,22.778364539415612 10.041699014626207,22.8410742682103 10.188375684771827,22.969706255598158 10.274661927770744,23.144677447551256 10.287421445313115,23.339350066212543 10.224711716518428,23.524086970102516 10.09607972913057,23.670763640248133 9.921108537177469,23.75704988324705 9.726435918516183,23.76980940078942 9.54169901462621,23.707099671994733 9.39502234448059,23.578467684606874" fill="Dark Green" class="terrain-solid"/>
<polygon points="20.8610432122423,11.31433177585949 20.923752941036987,11.499068679749465 20.910993423494617,11.69374129841075 20.8247071804957,11.86871249036385 20.67803051035008,11.997344477751708 20.493293606460107,12.060054206546395 20.29862098779882,12.047294689004023 20.123649795845722,11.961008446005108 19.99501780845786,11.81433177585949 19.932308079663173,11.629594871969514 19.945067597205544,11.43492225330823 20.03135384020446,11.25995106135513 20.17803051035008,11.131319073967271 20.362767414240054,11.068609345172584 20.55744003290134,11.081368862714957 20.732411224854438,11.167655105713871" fill="Dark Green" class="terrain-solid"/>
<polygon points="14.220098232059721,4.923194226563515 14.111711856397351,4.760982552152785 14.073651622652994,4.56964083597024 14.11171185639735,4.378299119787697 14.220098232059721,4.216087445376967 14.38230990647045,4.107701069714598 14.573651622652994,4.069640835970242 14.76499333883554,4.107701069714598 14.927205013246267,4.216087445376967 15.035591388908637,4.378299119787697 15.073651622652994,4.569640835970242 15.035591388908639,4.760982552152785 14.927205013246267,4.923194226563515 14.764993338835538,5.031580602225884 14.573651622652994,5.06964083597024 14.382309906470448,5.031580602225884" fill="Dark Green" class="terrain-solid"/>
<polygon points="11.8268873274825,14.323451991945397 11.698255340094642,14.470128662091016 11.523284148141542,14.55641490508993 11.328611529480257,14.569174422632303 11.143874625590282,14.506464693837616 10.997197955444664,14.377832706449757 10.910911712445749,14.202861514496657 10.898152194903377,14.008188895835373 10.960861923698063,13.823451991945397 11.089493911085922,13.676775321799779 11.264465103039022,13.590489078800864 11.459137721700307,13.577729561258492 11.643874625590282,13.640439290053179 11.7905512957359,13.769071277441038 11.876837538734815,13.944042469394137 11.889597056277188,14.138715088055422" fill="Dark Green" class="terrain-solid"/>
</g>
<g id="layer-models" class="layer ">
</g>
<g id="layer-paths" class="layer ">
</g>
<g id="layer-vectors" class="layer ">
</g>
<g id="layer-los" class="layer ">
</g>
<g id="layer-lof" class="layer ">
</g>

</svg>