<svg xmlns="http://www.w3.org/2000/svg" viewBox="0 0 24 24" width="960" height="960" font-family="Arial" font-size="0.6">
<defs>
  <style><![CDATA[
    .layer { display: inline; }
    .layer.hidden { display: none; }
    .grid-line { stroke: #999; stroke-width: 0.02; opacity: 0.2; }
    .delaunay-line { stroke: #4a6fa5; stroke-width: 0.03; opacity: 0.3; }
    .terrain-area { stroke: #000; stroke-width: 0.05; }
    .terrain-solid { stroke: #000; stroke-width: 0.05; }
    .model { stroke: #ff0000; stroke-width: 2; vector-effect: non-scaling-stroke; }
    .path { fill: none; stroke-width: 0.12; }
    .vector { stroke-width: 0.1; }
    .los-ray { stroke-width: 0.08; stroke-dasharray: 0.2 0.2; }
    .lof-ray { stroke-width: 0.08; stroke-dasharray: 0.3 0.15; }
    .label { fill: #111 !important; font-size: 0.6px; }
    .toggle { cursor: pointer; }
    .toggle.disabled { cursor: default; }
    .toggle.disabled rect { stroke: #ccc; fill: #fff; }
    .toggle.disabled text { fill: #ccc; }
#layer-area { fill: #C49A6C; }
#layer-building { fill: #000000; }
#layer-tree { fill: #90EE90; }
#layer-shrub { fill: #006400; }
  ]]></style>
</defs>
<rect x="0" y="0" width="24" height="24" fill="#ffffff" stroke="#111" stroke-width="0.05"/>
<script><![CDATA[
      function toggleLayer(id) {
        var layer = document.getElementById('layer-' + id);
        if (!layer) return;
        if (layer.classList.contains('hidden')) {
          layer.classList.remove('hidden');
        } else {
          layer.classList.add('hidden');
        }
      }
    ]]></script>
<text x="0.4" y="23.6" class="label">Battlefield 24x24 density 75 blockLOS 100</text>
<g id="layer-grid" class="layer ">
<line x1="0" y1="0" x2="0" y2="24" class="grid-line"/>
<line x1="0.5" y1="0" x2="0.5" y2="24" class="grid-line"/>
<line x1="1" y1="0" x2="1" y2="24" class="grid-line"/>
<line x1="1.5" y1="0" x2="1.5" y2="24" class="grid-line"/>
<line x1="2" y1="0" x2="2" y2="24" class="grid-line"/>
<line x1="2.5" y1="0" x2="2.5" y2="24" class="grid-line"/>
<line x1="3" y1="0" x2="3" y2="24" class="grid-line"/>
<line x1="3.5" y1="0" x2="3.5" y2="24" class="grid-line"/>
<line x1="4" y1="0" x2="4" y2="24" class="grid-line"/>
<line x1="4.5" y1="0" x2="4.5" y2="24" class="grid-line"/>
<line x1="5" y1="0" x2="5" y2="24" class="grid-line"/>
<line x1="5.5" y1="0" x2="5.5" y2="24" class="grid-line"/>
<line x1="6" y1="0" x2="6" y2="24" class="grid-line"/>
<line x1="6.5" y1="0" x2="6.5" y2="24" class="grid-line"/>
<line x1="7" y1="0" x2="7" y2="24" class="grid-line"/>
<line x1="7.5" y1="0" x2="7.5" y2="24" class="grid-line"/>
<line x1="8" y1="0" x2="8" y2="24" class="grid-line"/>
<line x1="8.5" y1="0" x2="8.5" y2="24" class="grid-line"/>
<line x1="9" y1="0" x2="9" y2="24" class="grid-line"/>
<line x1="9.5" y1="0" x2="9.5" y2="24" class="grid-line"/>
<line x1="10" y1="0" x2="10" y2="24" class="grid-line"/>
<line x1="10.5" y1="0" x2="10.5" y2="24" class="grid-line"/>
<line x1="11" y1="0" x2="11" y2="24" class="grid-line"/>
<line x1="11.5" y1="0" x2="11.5" y2="24" class="grid-line"/>
<line x1="12" y1="0" x2="12" y2="24" class="grid-line"/>
<line x1="12.5" y1="0" x2="12.5" y2="24" class="grid-line"/>
<line x1="13" y1="0" x2="13" y2="24" class="grid-line"/>
<line x1="13.5" y1="0" x2="13.5" y2="24" class="grid-line"/>
<line x1="14" y1="0" x2="14" y2="24" class="grid-line"/>
<line x1="14.5" y1="0" x2="14.5" y2="24" class="grid-line"/>
<line x1="15" y1="0" x2="15" y2="24" class="grid-line"/>
<line x1="15.5" y1="0" x2="15.5" y2="24" class="grid-line"/>
<line x1="16" y1="0" x2="16" y2="24" class="grid-line"/>
<line x1="16.5" y1="0" x2="16.5" y2="24" class="grid-line"/>
<line x1="17" y1="0" x2="17" y2="24" class="grid-line"/>
<line x1="17.5" y1="0" x2="17.5" y2="24" class="grid-line"/>
<line x1="18" y1="0" x2="18" y2="24" class="grid-line"/>
<line x1="18.5" y1="0" x2="18.5" y2="24" class="grid-line"/>
<line x1="19" y1="0" x2="19" y2="24" class="grid-line"/>
<line x1="19.5" y1="0" x2="19.5" y2="24" class="grid-line"/>
<line x1="20" y1="0" x2="20" y2="24" class="grid-line"/>
<line x1="20.5" y1="0" x2="20.5" y2="24" class="grid-line"/>
<line x1="21" y1="0" x2="21" y2="24" class="grid-line"/>
<line x1="21.5" y1="0" x2="21.5" y2="24" class="grid-line"/>
<line x1="22" y1="0" x2="22" y2="24" class="grid-line"/>
<line x1="22.5" y1="0" x2="22.5" y2="24" class="grid-line"/>
<line x1="23" y1="0" x2="23" y2="24" class="grid-line"/>
<line x1="23.5" y1="0" x2="23.5" y2="24" class="grid-line"/>
<line x1="24" y1="0" x2="24" y2="24" class="grid-line"/>
<line x1="0" y1="0" x2="24" y2="0" class="grid-line"/>
<line x1="0" y1="0.5" x2="24" y2="0.5" class="grid-line"/>
<line x1="0" y1="1" x2="24" y2="1" class="grid-line"/>
<line x1="0" y1="1.5" x2="24" y2="1.5" class="grid-line"/>
<line x1="0" y1="2" x2="24" y2="2" class="grid-line"/>
<line x1="0" y1="2.5" x2="24" y2="2.5" class="grid-line"/>
<line x1="0" y1="3" x2="24" y2="3" class="grid-line"/>
<line x1="0" y1="3.5" x2="24" y2="3.5" class="grid-line"/>
<line x1="0" y1="4" x2="24" y2="4" class="grid-line"/>
<line x1="0" y1="4.5" x2="24" y2="4.5" class="grid-line"/>
<line x1="0" y1="5" x2="24" y2="5" class="grid-line"/>
<line x1="0" y1="5.5" x2="24" y2="5.5" class="grid-line"/>
<line x1="0" y1="6" x2="24" y2="6" class="grid-line"/>
<line x1="0" y1="6.5" x2="24" y2="6.5" class="grid-line"/>
<line x1="0" y1="7" x2="24" y2="7" class="grid-line"/>
<line x1="0" y1="7.5" x2="24" y2="7.5" class="grid-line"/>
<line x1="0" y1="8" x2="24" y2="8" class="grid-line"/>
<line x1="0" y1="8.5" x2="24" y2="8.5" class="grid-line"/>
<line x1="0" y1="9" x2="24" y2="9" class="grid-line"/>
<line x1="0" y1="9.5" x2="24" y2="9.5" class="grid-line"/>
<line x1="0" y1="10" x2="24" y2="10" class="grid-line"/>
<line x1="0" y1="10.5" x2="24" y2="10.5" class="grid-line"/>
<line x1="0" y1="11" x2="24" y2="11" class="grid-line"/>
<line x1="0" y1="11.5" x2="24" y2="11.5" class="grid-line"/>
<line x1="0" y1="12" x2="24" y2="12" class="grid-line"/>
<line x1="0" y1="12.5" x2="24" y2="12.5" class="grid-line"/>
<line x1="0" y1="13" x2="24" y2="13" class="grid-line"/>
<line x1="0" y1="13.5" x2="24" y2="13.5" class="grid-line"/>
<line x1="0" y1="14" x2="24" y2="14" class="grid-line"/>
<line x1="0" y1="14.5" x2="24" y2="14.5" class="grid-line"/>
<line x1="0" y1="15" x2="24" y2="15" class="grid-line"/>
<line x1="0" y1="15.5" x2="24" y2="15.5" class="grid-line"/>
<line x1="0" y1="16" x2="24" y2="16" class="grid-line"/>
<line x1="0" y1="16.5" x2="24" y2="16.5" class="grid-line"/>
<line x1="0" y1="17" x2="24" y2="17" class="grid-line"/>
<line x1="0" y1="17.5" x2="24" y2="17.5" class="grid-line"/>
<line x1="0" y1="18" x2="24" y2="18" class="grid-line"/>
<line x1="0" y1="18.5" x2="24" y2="18.5" class="grid-line"/>
<line x1="0" y1="19" x2="24" y2="19" class="grid-line"/>
<line x1="0" y1="19.5" x2="24" y2="19.5" class="grid-line"/>
<line x1="0" y1="20" x2="24" y2="20" class="grid-line"/>
<line x1="0" y1="20.5" x2="24" y2="20.5" class="grid-line"/>
<line x1="0" y1="21" x2="24" y2="21" class="grid-line"/>
<line x1="0" y1="21.5" x2="24" y2="21.5" class="grid-line"/>
<line x1="0" y1="22" x2="24" y2="22" class="grid-line"/>
<line x1="0" y1="22.5" x2="24" y2="22.5" class="grid-line"/>
<line x1="0" y1="23" x2="24" y2="23" class="grid-line"/>
<line x1="0" y1="23.5" x2="24" y2="23.5" class="grid-line"/>
<line x1="0" y1="24" x2="24" y2="24" class="grid-line"/>
</g>
<g id="layer-delaunay" class="layer ">
<line x1="14.103323329854382" y1="14.19561928549564" x2="14.017037086855467" y2="14.37059047744874" class="delaunay-line"/>
<line x1="14.017037086855467" y1="14.37059047744874" x2="14.25" y2="14.066987298107781" class="delaunay-line"/>
<line x1="14.25" y1="14.066987298107781" x2="14.103323329854382" y2="14.19561928549564" class="delaunay-line"/>
<line x1="14.62940952255126" y1="14.017037086855467" x2="14.434736903889975" y2="14.004277569313095" class="delaunay-line"/>
<line x1="14.434736903889975" y1="14.004277569313095" x2="14.25" y2="14.066987298107781" class="delaunay-line"/>
<line x1="14.25" y1="14.066987298107781" x2="14.62940952255126" y2="14.017037086855467" class="delaunay-line"/>
<line x1="14.017037086855467" y1="14.37059047744874" x2="14.62940952255126" y2="14.017037086855467" class="delaunay-line"/>
<line x1="14.62940952255126" y1="14.017037086855467" x2="14.25" y2="14.066987298107781" class="delaunay-line"/>
<line x1="14.25" y1="14.066987298107781" x2="14.017037086855467" y2="14.37059047744874" class="delaunay-line"/>
<line x1="14.933012701892219" y1="14.25" x2="14.62940952255126" y2="14.017037086855467" class="delaunay-line"/>
<line x1="14.62940952255126" y1="14.017037086855467" x2="14.982962913144533" y2="14.62940952255126" class="delaunay-line"/>
<line x1="14.982962913144533" y1="14.62940952255126" x2="14.933012701892219" y2="14.25" class="delaunay-line"/>
<line x1="14.004277569313095" y1="14.565263096110025" x2="14.066987298107781" y2="14.75" class="delaunay-line"/>
<line x1="14.066987298107781" y1="14.75" x2="14.017037086855467" y2="14.37059047744874" class="delaunay-line"/>
<line x1="14.017037086855467" y1="14.37059047744874" x2="14.004277569313095" y2="14.565263096110025" class="delaunay-line"/>
<line x1="14.933012701892219" y1="14.25" x2="14.80438071450436" y2="14.103323329854382" class="delaunay-line"/>
<line x1="14.80438071450436" y1="14.103323329854382" x2="14.62940952255126" y2="14.017037086855467" class="delaunay-line"/>
<line x1="14.62940952255126" y1="14.017037086855467" x2="14.933012701892219" y2="14.25" class="delaunay-line"/>
<line x1="14.37059047744874" y1="14.982962913144533" x2="14.62940952255126" y2="14.017037086855467" class="delaunay-line"/>
<line x1="14.62940952255126" y1="14.017037086855467" x2="14.017037086855467" y2="14.37059047744874" class="delaunay-line"/>
<line x1="14.017037086855467" y1="14.37059047744874" x2="14.37059047744874" y2="14.982962913144533" class="delaunay-line"/>
<line x1="14.37059047744874" y1="14.982962913144533" x2="14.017037086855467" y2="14.37059047744874" class="delaunay-line"/>
<line x1="14.017037086855467" y1="14.37059047744874" x2="14.066987298107781" y2="14.75" class="delaunay-line"/>
<line x1="14.066987298107781" y1="14.75" x2="14.37059047744874" y2="14.982962913144533" class="delaunay-line"/>
<line x1="14.19561928549564" y1="14.896676670145618" x2="14.37059047744874" y2="14.982962913144533" class="delaunay-line"/>
<line x1="14.37059047744874" y1="14.982962913144533" x2="14.066987298107781" y2="14.75" class="delaunay-line"/>
<line x1="14.066987298107781" y1="14.75" x2="14.19561928549564" y2="14.896676670145618" class="delaunay-line"/>
<line x1="14.982962913144533" y1="14.62940952255126" x2="14.995722430686905" y2="14.434736903889975" class="delaunay-line"/>
<line x1="14.995722430686905" y1="14.434736903889975" x2="14.933012701892219" y2="14.25" class="delaunay-line"/>
<line x1="14.933012701892219" y1="14.25" x2="14.982962913144533" y2="14.62940952255126" class="delaunay-line"/>
<line x1="14.37059047744874" y1="14.982962913144533" x2="14.982962913144533" y2="14.62940952255126" class="delaunay-line"/>
<line x1="14.982962913144533" y1="14.62940952255126" x2="14.62940952255126" y2="14.017037086855467" class="delaunay-line"/>
<line x1="14.62940952255126" y1="14.017037086855467" x2="14.37059047744874" y2="14.982962913144533" class="delaunay-line"/>
<line x1="14.37059047744874" y1="14.982962913144533" x2="14.75" y2="14.933012701892219" class="delaunay-line"/>
<line x1="14.75" y1="14.933012701892219" x2="14.982962913144533" y2="14.62940952255126" class="delaunay-line"/>
<line x1="14.982962913144533" y1="14.62940952255126" x2="14.37059047744874" y2="14.982962913144533" class="delaunay-line"/>
<line x1="14.565263096110025" y1="14.995722430686905" x2="14.75" y2="14.933012701892219" class="delaunay-line"/>
<line x1="14.75" y1="14.933012701892219" x2="14.37059047744874" y2="14.982962913144533" class="delaunay-line"/>
<line x1="14.37059047744874" y1="14.982962913144533" x2="14.565263096110025" y2="14.995722430686905" class="delaunay-line"/>
<line x1="14.75" y1="14.933012701892219" x2="14.896676670145618" y2="14.80438071450436" class="delaunay-line"/>
<line x1="14.896676670145618" y1="14.80438071450436" x2="14.982962913144533" y2="14.62940952255126" class="delaunay-line"/>
<line x1="14.982962913144533" y1="14.62940952255126" x2="14.75" y2="14.933012701892219" class="delaunay-line"/>
<line x1="10.707106781186548" y1="15.292893218813454" x2="10.923879532511286" y2="15.617316567634909" class="delaunay-line"/>
<line x1="10.923879532511286" y1="15.617316567634909" x2="14.004277569313095" y2="14.565263096110025" class="delaunay-line"/>
<line x1="14.004277569313095" y1="14.565263096110025" x2="10.707106781186548" y2="15.292893218813454" class="delaunay-line"/>
<line x1="14.004277569313095" y1="14.565263096110025" x2="10.923879532511286" y2="15.617316567634909" class="delaunay-line"/>
<line x1="10.923879532511286" y1="15.617316567634909" x2="14.066987298107781" y2="14.75" class="delaunay-line"/>
<line x1="14.066987298107781" y1="14.75" x2="14.004277569313095" y2="14.565263096110025" class="delaunay-line"/>
<line x1="14.066987298107781" y1="14.75" x2="11" y2="16" class="delaunay-line"/>
<line x1="11" y1="16" x2="14.19561928549564" y2="14.896676670145618" class="delaunay-line"/>
<line x1="14.19561928549564" y1="14.896676670145618" x2="14.066987298107781" y2="14.75" class="delaunay-line"/>
<line x1="14.19561928549564" y1="14.896676670145618" x2="10.923879532511286" y2="16.38268343236509" class="delaunay-line"/>
<line x1="10.923879532511286" y1="16.38268343236509" x2="14.37059047744874" y2="14.982962913144533" class="delaunay-line"/>
<line x1="14.37059047744874" y1="14.982962913144533" x2="14.19561928549564" y2="14.896676670145618" class="delaunay-line"/>
<line x1="14.37059047744874" y1="14.982962913144533" x2="13.130526192220051" y2="21.00855513862619" class="delaunay-line"/>
<line x1="13.130526192220051" y1="21.00855513862619" x2="14.565263096110025" y2="14.995722430686905" class="delaunay-line"/>
<line x1="14.565263096110025" y1="14.995722430686905" x2="14.37059047744874" y2="14.982962913144533" class="delaunay-line"/>
<line x1="10.707106781186548" y1="15.292893218813454" x2="14.004277569313095" y2="14.565263096110025" class="delaunay-line"/>
<line x1="14.004277569313095" y1="14.565263096110025" x2="14.017037086855467" y2="14.37059047744874" class="delaunay-line"/>
<line x1="14.017037086855467" y1="14.37059047744874" x2="10.707106781186548" y2="15.292893218813454" class="delaunay-line"/>
<line x1="10.707106781186548" y1="15.292893218813454" x2="14.017037086855467" y2="14.37059047744874" class="delaunay-line"/>
<line x1="14.017037086855467" y1="14.37059047744874" x2="14.103323329854382" y2="14.19561928549564" class="delaunay-line"/>
<line x1="14.103323329854382" y1="14.19561928549564" x2="10.707106781186548" y2="15.292893218813454" class="delaunay-line"/>
<line x1="14.995722430686905" y1="14.434736903889975" x2="18.00855513862619" y2="13.130526192220053" class="delaunay-line"/>
<line x1="18.00855513862619" y1="13.130526192220053" x2="14.933012701892219" y2="14.25" class="delaunay-line"/>
<line x1="14.933012701892219" y1="14.25" x2="14.995722430686905" y2="14.434736903889975" class="delaunay-line"/>
<line x1="14.933012701892219" y1="14.25" x2="18.00855513862619" y2="13.130526192220053" class="delaunay-line"/>
<line x1="18.00855513862619" y1="13.130526192220053" x2="14.80438071450436" y2="14.103323329854382" class="delaunay-line"/>
<line x1="14.80438071450436" y1="14.103323329854382" x2="14.933012701892219" y2="14.25" class="delaunay-line"/>
<line x1="14.80438071450436" y1="14.103323329854382" x2="18.03407417371093" y2="12.74118095489748" class="delaunay-line"/>
<line x1="18.03407417371093" y1="12.74118095489748" x2="14.62940952255126" y2="14.017037086855467" class="delaunay-line"/>
<line x1="14.62940952255126" y1="14.017037086855467" x2="14.80438071450436" y2="14.103323329854382" class="delaunay-line"/>
<line x1="14.62940952255126" y1="14.017037086855467" x2="18.206646659708763" y2="12.39123857099128" class="delaunay-line"/>
<line x1="18.206646659708763" y1="12.39123857099128" x2="14.434736903889975" y2="14.004277569313095" class="delaunay-line"/>
<line x1="14.434736903889975" y1="14.004277569313095" x2="14.62940952255126" y2="14.017037086855467" class="delaunay-line"/>
<line x1="18.133974596215563" y1="13.500000000000002" x2="18.00855513862619" y2="13.130526192220053" class="delaunay-line"/>
<line x1="18.00855513862619" y1="13.130526192220053" x2="14.995722430686905" y2="14.434736903889975" class="delaunay-line"/>
<line x1="14.995722430686905" y1="14.434736903889975" x2="18.133974596215563" y2="13.500000000000002" class="delaunay-line"/>
<line x1="18.133974596215563" y1="13.500000000000002" x2="14.995722430686905" y2="14.434736903889975" class="delaunay-line"/>
<line x1="14.995722430686905" y1="14.434736903889975" x2="14.982962913144533" y2="14.62940952255126" class="delaunay-line"/>
<line x1="14.982962913144533" y1="14.62940952255126" x2="18.133974596215563" y2="13.500000000000002" class="delaunay-line"/>
<line x1="18.133974596215563" y1="13.500000000000002" x2="14.982962913144533" y2="14.62940952255126" class="delaunay-line"/>
<line x1="14.982962913144533" y1="14.62940952255126" x2="18.391238570991277" y2="13.793353340291235" class="delaunay-line"/>
<line x1="18.391238570991277" y1="13.793353340291235" x2="18.133974596215563" y2="13.500000000000002" class="delaunay-line"/>
<line x1="18.391238570991277" y1="13.793353340291235" x2="14.982962913144533" y2="14.62940952255126" class="delaunay-line"/>
<line x1="14.982962913144533" y1="14.62940952255126" x2="14.896676670145618" y2="14.80438071450436" class="delaunay-line"/>
<line x1="14.896676670145618" y1="14.80438071450436" x2="18.391238570991277" y2="13.793353340291235" class="delaunay-line"/>
<line x1="10.923879532511286" y1="15.617316567634909" x2="11" y2="16" class="delaunay-line"/>
<line x1="11" y1="16" x2="14.066987298107781" y2="14.75" class="delaunay-line"/>
<line x1="14.066987298107781" y1="14.75" x2="10.923879532511286" y2="15.617316567634909" class="delaunay-line"/>
<line x1="10.38268343236509" y1="15.076120467488714" x2="10.707106781186548" y2="15.292893218813454" class="delaunay-line"/>
<line x1="10.707106781186548" y1="15.292893218813454" x2="14.103323329854382" y2="14.19561928549564" class="delaunay-line"/>
<line x1="14.103323329854382" y1="14.19561928549564" x2="10.38268343236509" y2="15.076120467488714" class="delaunay-line"/>
<line x1="10.923879532511286" y1="15.617316567634909" x2="10.707106781186548" y2="15.292893218813454" class="delaunay-line"/>
<line x1="10.707106781186548" y1="15.292893218813454" x2="11" y2="16" class="delaunay-line"/>
<line x1="11" y1="16" x2="10.923879532511286" y2="15.617316567634909" class="delaunay-line"/>
<line x1="18.206646659708763" y1="12.39123857099128" x2="18.03407417371093" y2="12.74118095489748" class="delaunay-line"/>
<line x1="18.03407417371093" y1="12.74118095489748" x2="18.500000000000004" y2="12.13397459621556" class="delaunay-line"/>
<line x1="18.500000000000004" y1="12.13397459621556" x2="18.206646659708763" y2="12.39123857099128" class="delaunay-line"/>
<line x1="18.00855513862619" y1="13.130526192220053" x2="18.03407417371093" y2="12.74118095489748" class="delaunay-line"/>
<line x1="18.03407417371093" y1="12.74118095489748" x2="14.80438071450436" y2="14.103323329854382" class="delaunay-line"/>
<line x1="14.80438071450436" y1="14.103323329854382" x2="18.00855513862619" y2="13.130526192220053" class="delaunay-line"/>
<line x1="10" y1="15" x2="10.38268343236509" y2="15.076120467488714" class="delaunay-line"/>
<line x1="10.38268343236509" y1="15.076120467488714" x2="14.25" y2="14.066987298107781" class="delaunay-line"/>
<line x1="14.25" y1="14.066987298107781" x2="10" y2="15" class="delaunay-line"/>
<line x1="14.25" y1="14.066987298107781" x2="10.38268343236509" y2="15.076120467488714" class="delaunay-line"/>
<line x1="10.38268343236509" y1="15.076120467488714" x2="14.103323329854382" y2="14.19561928549564" class="delaunay-line"/>
<line x1="14.103323329854382" y1="14.19561928549564" x2="14.25" y2="14.066987298107781" class="delaunay-line"/>
<line x1="18.74118095489748" y1="13.965925826289068" x2="14.896676670145618" y2="14.80438071450436" class="delaunay-line"/>
<line x1="14.896676670145618" y1="14.80438071450436" x2="14.75" y2="14.933012701892219" class="delaunay-line"/>
<line x1="14.75" y1="14.933012701892219" x2="18.74118095489748" y2="13.965925826289068" class="delaunay-line"/>
<line x1="18.74118095489748" y1="13.965925826289068" x2="18.391238570991277" y2="13.793353340291235" class="delaunay-line"/>
<line x1="18.391238570991277" y1="13.793353340291235" x2="14.896676670145618" y2="14.80438071450436" class="delaunay-line"/>
<line x1="14.896676670145618" y1="14.80438071450436" x2="18.74118095489748" y2="13.965925826289068" class="delaunay-line"/>
<line x1="18.500000000000004" y1="12.13397459621556" x2="18.03407417371093" y2="12.74118095489748" class="delaunay-line"/>
<line x1="18.03407417371093" y1="12.74118095489748" x2="18.00855513862619" y2="13.130526192220053" class="delaunay-line"/>
<line x1="18.00855513862619" y1="13.130526192220053" x2="18.500000000000004" y2="12.13397459621556" class="delaunay-line"/>
<line x1="10.707106781186548" y1="16.707106781186546" x2="10.923879532511286" y2="16.38268343236509" class="delaunay-line"/>
<line x1="10.923879532511286" y1="16.38268343236509" x2="11" y2="16" class="delaunay-line"/>
<line x1="11" y1="16" x2="10.707106781186548" y2="16.707106781186546" class="delaunay-line"/>
<line x1="11" y1="16" x2="10.923879532511286" y2="16.38268343236509" class="delaunay-line"/>
<line x1="10.923879532511286" y1="16.38268343236509" x2="14.19561928549564" y2="14.896676670145618" class="delaunay-line"/>
<line x1="14.19561928549564" y1="14.896676670145618" x2="11" y2="16" class="delaunay-line"/>
<line x1="19.130526192220053" y1="13.99144486137381" x2="18.74118095489748" y2="13.965925826289068" class="delaunay-line"/>
<line x1="18.74118095489748" y1="13.965925826289068" x2="13.793353340291235" y2="21.39123857099128" class="delaunay-line"/>
<line x1="13.793353340291235" y1="21.39123857099128" x2="19.130526192220053" y2="13.99144486137381" class="delaunay-line"/>
<line x1="10" y1="15" x2="14.25" y2="14.066987298107781" class="delaunay-line"/>
<line x1="14.25" y1="14.066987298107781" x2="12.74118095489748" y2="1.9659258262890686" class="delaunay-line"/>
<line x1="12.74118095489748" y1="1.9659258262890686" x2="10" y2="15" class="delaunay-line"/>
<line x1="10.707106781186548" y1="15.292893218813454" x2="10.707106781186548" y2="16.707106781186546" class="delaunay-line"/>
<line x1="10.707106781186548" y1="16.707106781186546" x2="11" y2="16" class="delaunay-line"/>
<line x1="11" y1="16" x2="10.707106781186548" y2="15.292893218813454" class="delaunay-line"/>
<line x1="18.500000000000004" y1="12.13397459621556" x2="18.00855513862619" y2="13.130526192220053" class="delaunay-line"/>
<line x1="18.00855513862619" y1="13.130526192220053" x2="18.133974596215563" y2="13.500000000000002" class="delaunay-line"/>
<line x1="18.133974596215563" y1="13.500000000000002" x2="18.500000000000004" y2="12.13397459621556" class="delaunay-line"/>
<line x1="18.03407417371093" y1="12.74118095489748" x2="18.206646659708763" y2="12.39123857099128" class="delaunay-line"/>
<line x1="18.206646659708763" y1="12.39123857099128" x2="14.62940952255126" y2="14.017037086855467" class="delaunay-line"/>
<line x1="14.62940952255126" y1="14.017037086855467" x2="18.03407417371093" y2="12.74118095489748" class="delaunay-line"/>
<line x1="18.74118095489748" y1="13.965925826289068" x2="14.75" y2="14.933012701892219" class="delaunay-line"/>
<line x1="14.75" y1="14.933012701892219" x2="13.793353340291235" y2="21.39123857099128" class="delaunay-line"/>
<line x1="13.793353340291235" y1="21.39123857099128" x2="18.74118095489748" y2="13.965925826289068" class="delaunay-line"/>
<line x1="18.391238570991277" y1="13.793353340291235" x2="18.74118095489748" y2="13.965925826289068" class="delaunay-line"/>
<line x1="18.74118095489748" y1="13.965925826289068" x2="18.133974596215563" y2="13.500000000000002" class="delaunay-line"/>
<line x1="18.133974596215563" y1="13.500000000000002" x2="18.391238570991277" y2="13.793353340291235" class="delaunay-line"/>
<line x1="10.38268343236509" y1="15.076120467488714" x2="10.707106781186548" y2="16.707106781186546" class="delaunay-line"/>
<line x1="10.707106781186548" y1="16.707106781186546" x2="10.707106781186548" y2="15.292893218813454" class="delaunay-line"/>
<line x1="10.707106781186548" y1="15.292893218813454" x2="10.38268343236509" y2="15.076120467488714" class="delaunay-line"/>
<line x1="10.923879532511286" y1="16.38268343236509" x2="13.130526192220051" y2="21.00855513862619" class="delaunay-line"/>
<line x1="13.130526192220051" y1="21.00855513862619" x2="14.37059047744874" y2="14.982962913144533" class="delaunay-line"/>
<line x1="14.37059047744874" y1="14.982962913144533" x2="10.923879532511286" y2="16.38268343236509" class="delaunay-line"/>
<line x1="12.74118095489748" y1="1.9659258262890686" x2="14.25" y2="14.066987298107781" class="delaunay-line"/>
<line x1="14.25" y1="14.066987298107781" x2="14.434736903889975" y2="14.004277569313095" class="delaunay-line"/>
<line x1="14.434736903889975" y1="14.004277569313095" x2="12.74118095489748" y2="1.9659258262890686" class="delaunay-line"/>
<line x1="10.38268343236509" y1="15.076120467488714" x2="10.38268343236509" y2="16.923879532511286" class="delaunay-line"/>
<line x1="10.38268343236509" y1="16.923879532511286" x2="10.707106781186548" y2="16.707106781186546" class="delaunay-line"/>
<line x1="10.707106781186548" y1="16.707106781186546" x2="10.38268343236509" y2="15.076120467488714" class="delaunay-line"/>
<line x1="18.74118095489748" y1="13.965925826289068" x2="18.500000000000004" y2="12.13397459621556" class="delaunay-line"/>
<line x1="18.500000000000004" y1="12.13397459621556" x2="18.133974596215563" y2="13.500000000000002" class="delaunay-line"/>
<line x1="18.133974596215563" y1="13.500000000000002" x2="18.74118095489748" y2="13.965925826289068" class="delaunay-line"/>
<line x1="18.206646659708763" y1="12.39123857099128" x2="19.099876884532563" y2="11.050838778855901" class="delaunay-line"/>
<line x1="19.099876884532563" y1="11.050838778855901" x2="14.434736903889975" y2="14.004277569313095" class="delaunay-line"/>
<line x1="14.434736903889975" y1="14.004277569313095" x2="18.206646659708763" y2="12.39123857099128" class="delaunay-line"/>
<line x1="13.5" y1="21.133974596215563" x2="14.75" y2="14.933012701892219" class="delaunay-line"/>
<line x1="14.75" y1="14.933012701892219" x2="14.565263096110025" y2="14.995722430686905" class="delaunay-line"/>
<line x1="14.565263096110025" y1="14.995722430686905" x2="13.5" y2="21.133974596215563" class="delaunay-line"/>
<line x1="18.74118095489748" y1="13.965925826289068" x2="19.130526192220053" y2="13.99144486137381" class="delaunay-line"/>
<line x1="19.130526192220053" y1="13.99144486137381" x2="18.500000000000004" y2="12.13397459621556" class="delaunay-line"/>
<line x1="18.500000000000004" y1="12.13397459621556" x2="18.74118095489748" y2="13.965925826289068" class="delaunay-line"/>
<line x1="9.292893218813452" y1="15.292893218813454" x2="10.38268343236509" y2="16.923879532511286" class="delaunay-line"/>
<line x1="10.38268343236509" y1="16.923879532511286" x2="10.38268343236509" y2="15.076120467488714" class="delaunay-line"/>
<line x1="10.38268343236509" y1="15.076120467488714" x2="9.292893218813452" y2="15.292893218813454" class="delaunay-line"/>
<line x1="10.707106781186548" y1="16.707106781186546" x2="13.130526192220051" y2="21.00855513862619" class="delaunay-line"/>
<line x1="13.130526192220051" y1="21.00855513862619" x2="10.923879532511286" y2="16.38268343236509" class="delaunay-line"/>
<line x1="10.923879532511286" y1="16.38268343236509" x2="10.707106781186548" y2="16.707106781186546" class="delaunay-line"/>
<line x1="12.39123857099128" y1="1.7933533402912352" x2="9.61731656763491" y2="15.076120467488714" class="delaunay-line"/>
<line x1="9.61731656763491" y1="15.076120467488714" x2="10" y2="15" class="delaunay-line"/>
<line x1="10" y1="15" x2="12.39123857099128" y2="1.7933533402912352" class="delaunay-line"/>
<line x1="10" y1="15" x2="9.61731656763491" y2="15.076120467488714" class="delaunay-line"/>
<line x1="9.61731656763491" y1="15.076120467488714" x2="10.38268343236509" y2="15.076120467488714" class="delaunay-line"/>
<line x1="10.38268343236509" y1="15.076120467488714" x2="10" y2="15" class="delaunay-line"/>
<line x1="19.499999999999996" y1="13.86602540378444" x2="18.869473807779947" y2="12.00855513862619" class="delaunay-line"/>
<line x1="18.869473807779947" y1="12.00855513862619" x2="18.500000000000004" y2="12.13397459621556" class="delaunay-line"/>
<line x1="18.500000000000004" y1="12.13397459621556" x2="19.499999999999996" y2="13.86602540378444" class="delaunay-line"/>
<line x1="18.500000000000004" y1="12.13397459621556" x2="19.099876884532563" y2="11.050838778855901" class="delaunay-line"/>
<line x1="19.099876884532563" y1="11.050838778855901" x2="18.206646659708763" y2="12.39123857099128" class="delaunay-line"/>
<line x1="18.206646659708763" y1="12.39123857099128" x2="18.500000000000004" y2="12.13397459621556" class="delaunay-line"/>
<line x1="19.130526192220053" y1="13.99144486137381" x2="19.499999999999996" y2="13.86602540378444" class="delaunay-line"/>
<line x1="19.499999999999996" y1="13.86602540378444" x2="18.500000000000004" y2="12.13397459621556" class="delaunay-line"/>
<line x1="18.500000000000004" y1="12.13397459621556" x2="19.130526192220053" y2="13.99144486137381" class="delaunay-line"/>
<line x1="9.61731656763491" y1="16.923879532511286" x2="10" y2="17" class="delaunay-line"/>
<line x1="10" y1="17" x2="10.38268343236509" y2="16.923879532511286" class="delaunay-line"/>
<line x1="10.38268343236509" y1="16.923879532511286" x2="9.61731656763491" y2="16.923879532511286" class="delaunay-line"/>
<line x1="9.61731656763491" y1="15.076120467488714" x2="9.292893218813452" y2="15.292893218813454" class="delaunay-line"/>
<line x1="9.292893218813452" y1="15.292893218813454" x2="10.38268343236509" y2="15.076120467488714" class="delaunay-line"/>
<line x1="10.38268343236509" y1="15.076120467488714" x2="9.61731656763491" y2="15.076120467488714" class="delaunay-line"/>
<line x1="19.499999999999996" y1="13.86602540378444" x2="19.25881904510252" y2="12.034074173710932" class="delaunay-line"/>
<line x1="19.25881904510252" y1="12.034074173710932" x2="18.869473807779947" y2="12.00855513862619" class="delaunay-line"/>
<line x1="18.869473807779947" y1="12.00855513862619" x2="19.499999999999996" y2="13.86602540378444" class="delaunay-line"/>
<line x1="19.499999999999996" y1="13.86602540378444" x2="19.866025403784437" y2="12.499999999999998" class="delaunay-line"/>
<line x1="19.866025403784437" y1="12.499999999999998" x2="19.25881904510252" y2="12.034074173710932" class="delaunay-line"/>
<line x1="19.25881904510252" y1="12.034074173710932" x2="19.499999999999996" y2="13.86602540378444" class="delaunay-line"/>
<line x1="9.292893218813452" y1="16.707106781186546" x2="9.61731656763491" y2="16.923879532511286" class="delaunay-line"/>
<line x1="9.61731656763491" y1="16.923879532511286" x2="10.38268343236509" y2="16.923879532511286" class="delaunay-line"/>
<line x1="10.38268343236509" y1="16.923879532511286" x2="9.292893218813452" y2="16.707106781186546" class="delaunay-line"/>
<line x1="9.292893218813452" y1="15.292893218813454" x2="9.292893218813452" y2="16.707106781186546" class="delaunay-line"/>
<line x1="9.292893218813452" y1="16.707106781186546" x2="10.38268343236509" y2="16.923879532511286" class="delaunay-line"/>
<line x1="10.38268343236509" y1="16.923879532511286" x2="9.292893218813452" y2="15.292893218813454" class="delaunay-line"/>
<line x1="19.866025403784437" y1="12.499999999999998" x2="19.608761429008723" y2="12.206646659708765" class="delaunay-line"/>
<line x1="19.608761429008723" y1="12.206646659708765" x2="19.25881904510252" y2="12.034074173710932" class="delaunay-line"/>
<line x1="19.25881904510252" y1="12.034074173710932" x2="19.866025403784437" y2="12.499999999999998" class="delaunay-line"/>
<line x1="19.793353340291237" y1="13.60876142900872" x2="19.96592582628907" y2="13.25881904510252" class="delaunay-line"/>
<line x1="19.96592582628907" y1="13.25881904510252" x2="19.499999999999996" y2="13.86602540378444" class="delaunay-line"/>
<line x1="19.499999999999996" y1="13.86602540378444" x2="19.793353340291237" y2="13.60876142900872" class="delaunay-line"/>
<line x1="9" y1="16" x2="9.292893218813452" y2="16.707106781186546" class="delaunay-line"/>
<line x1="9.292893218813452" y1="16.707106781186546" x2="9.292893218813452" y2="15.292893218813454" class="delaunay-line"/>
<line x1="9.292893218813452" y1="15.292893218813454" x2="9" y2="16" class="delaunay-line"/>
<line x1="9.076120467488714" y1="15.617316567634909" x2="9" y2="16" class="delaunay-line"/>
<line x1="9" y1="16" x2="9.292893218813452" y2="15.292893218813454" class="delaunay-line"/>
<line x1="9.292893218813452" y1="15.292893218813454" x2="9.076120467488714" y2="15.617316567634909" class="delaunay-line"/>
<line x1="19.99144486137381" y1="12.869473807779947" x2="19.866025403784437" y2="12.499999999999998" class="delaunay-line"/>
<line x1="19.866025403784437" y1="12.499999999999998" x2="19.499999999999996" y2="13.86602540378444" class="delaunay-line"/>
<line x1="19.499999999999996" y1="13.86602540378444" x2="19.99144486137381" y2="12.869473807779947" class="delaunay-line"/>
<line x1="19.96592582628907" y1="13.25881904510252" x2="19.99144486137381" y2="12.869473807779947" class="delaunay-line"/>
<line x1="19.99144486137381" y1="12.869473807779947" x2="19.499999999999996" y2="13.86602540378444" class="delaunay-line"/>
<line x1="19.499999999999996" y1="13.86602540378444" x2="19.96592582628907" y2="13.25881904510252" class="delaunay-line"/>
<line x1="9" y1="16" x2="9.076120467488714" y2="16.38268343236509" class="delaunay-line"/>
<line x1="9.076120467488714" y1="16.38268343236509" x2="9.292893218813452" y2="16.707106781186546" class="delaunay-line"/>
<line x1="9.292893218813452" y1="16.707106781186546" x2="9" y2="16" class="delaunay-line"/>
<line x1="19.866025403784437" y1="12.499999999999998" x2="19.099876884532563" y2="11.050838778855901" class="delaunay-line"/>
<line x1="19.099876884532563" y1="11.050838778855901" x2="19.608761429008723" y2="12.206646659708765" class="delaunay-line"/>
<line x1="19.608761429008723" y1="12.206646659708765" x2="19.866025403784437" y2="12.499999999999998" class="delaunay-line"/>
<line x1="19.608761429008723" y1="12.206646659708765" x2="19.099876884532563" y2="11.050838778855901" class="delaunay-line"/>
<line x1="19.099876884532563" y1="11.050838778855901" x2="19.25881904510252" y2="12.034074173710932" class="delaunay-line"/>
<line x1="19.25881904510252" y1="12.034074173710932" x2="19.608761429008723" y2="12.206646659708765" class="delaunay-line"/>
<line x1="19.25881904510252" y1="12.034074173710932" x2="19.099876884532563" y2="11.050838778855901" class="delaunay-line"/>
<line x1="19.099876884532563" y1="11.050838778855901" x2="18.869473807779947" y2="12.00855513862619" class="delaunay-line"/>
<line x1="18.869473807779947" y1="12.00855513862619" x2="19.25881904510252" y2="12.034074173710932" class="delaunay-line"/>
<line x1="18.869473807779947" y1="12.00855513862619" x2="19.099876884532563" y2="11.050838778855901" class="delaunay-line"/>
<line x1="19.099876884532563" y1="11.050838778855901" x2="18.500000000000004" y2="12.13397459621556" class="delaunay-line"/>
<line x1="18.500000000000004" y1="12.13397459621556" x2="18.869473807779947" y2="12.00855513862619" class="delaunay-line"/>
<line x1="12.741180954897478" y1="21.034074173710934" x2="10.707106781186548" y2="16.707106781186546" class="delaunay-line"/>
<line x1="10.707106781186548" y1="16.707106781186546" x2="10.38268343236509" y2="16.923879532511286" class="delaunay-line"/>
<line x1="10.38268343236509" y1="16.923879532511286" x2="12.741180954897478" y2="21.034074173710934" class="delaunay-line"/>
<line x1="12.741180954897478" y1="21.034074173710934" x2="13.130526192220051" y2="21.00855513862619" class="delaunay-line"/>
<line x1="13.130526192220051" y1="21.00855513862619" x2="10.707106781186548" y2="16.707106781186546" class="delaunay-line"/>
<line x1="10.707106781186548" y1="16.707106781186546" x2="12.741180954897478" y2="21.034074173710934" class="delaunay-line"/>
<line x1="19.130526192220053" y1="13.99144486137381" x2="24" y2="24" class="delaunay-line"/>
<line x1="24" y1="24" x2="19.499999999999996" y2="13.86602540378444" class="delaunay-line"/>
<line x1="19.499999999999996" y1="13.86602540378444" x2="19.130526192220053" y2="13.99144486137381" class="delaunay-line"/>
<line x1="19.499999999999996" y1="13.86602540378444" x2="24" y2="24" class="delaunay-line"/>
<line x1="24" y1="24" x2="19.793353340291237" y2="13.60876142900872" class="delaunay-line"/>
<line x1="19.793353340291237" y1="13.60876142900872" x2="19.499999999999996" y2="13.86602540378444" class="delaunay-line"/>
<line x1="12.741180954897478" y1="21.034074173710934" x2="10.38268343236509" y2="16.923879532511286" class="delaunay-line"/>
<line x1="10.38268343236509" y1="16.923879532511286" x2="12.39123857099128" y2="21.206646659708763" class="delaunay-line"/>
<line x1="12.39123857099128" y1="21.206646659708763" x2="12.741180954897478" y2="21.034074173710934" class="delaunay-line"/>
<line x1="10.38268343236509" y1="16.923879532511286" x2="10" y2="17" class="delaunay-line"/>
<line x1="10" y1="17" x2="12.39123857099128" y2="21.206646659708763" class="delaunay-line"/>
<line x1="12.39123857099128" y1="21.206646659708763" x2="10.38268343236509" y2="16.923879532511286" class="delaunay-line"/>
<line x1="13.130526192220051" y1="21.00855513862619" x2="13.5" y2="21.133974596215563" class="delaunay-line"/>
<line x1="13.5" y1="21.133974596215563" x2="14.565263096110025" y2="14.995722430686905" class="delaunay-line"/>
<line x1="14.565263096110025" y1="14.995722430686905" x2="13.130526192220051" y2="21.00855513862619" class="delaunay-line"/>
<line x1="12.39123857099128" y1="21.206646659708763" x2="10" y2="17" class="delaunay-line"/>
<line x1="10" y1="17" x2="12.13397459621556" y2="21.5" class="delaunay-line"/>
<line x1="12.13397459621556" y1="21.5" x2="12.39123857099128" y2="21.206646659708763" class="delaunay-line"/>
<line x1="13.130526192220051" y1="21.00855513862619" x2="12.741180954897478" y2="21.034074173710934" class="delaunay-line"/>
<line x1="12.741180954897478" y1="21.034074173710934" x2="13.5" y2="21.133974596215563" class="delaunay-line"/>
<line x1="13.5" y1="21.133974596215563" x2="13.130526192220051" y2="21.00855513862619" class="delaunay-line"/>
<line x1="12.741180954897478" y1="21.034074173710934" x2="13.793353340291235" y2="21.39123857099128" class="delaunay-line"/>
<line x1="13.793353340291235" y1="21.39123857099128" x2="13.5" y2="21.133974596215563" class="delaunay-line"/>
<line x1="13.5" y1="21.133974596215563" x2="12.741180954897478" y2="21.034074173710934" class="delaunay-line"/>
<line x1="13.5" y1="21.133974596215563" x2="13.793353340291235" y2="21.39123857099128" class="delaunay-line"/>
<line x1="13.793353340291235" y1="21.39123857099128" x2="14.75" y2="14.933012701892219" class="delaunay-line"/>
<line x1="14.75" y1="14.933012701892219" x2="13.5" y2="21.133974596215563" class="delaunay-line"/>
<line x1="12.13397459621556" y1="21.5" x2="10" y2="17" class="delaunay-line"/>
<line x1="10" y1="17" x2="9.61731656763491" y2="16.923879532511286" class="delaunay-line"/>
<line x1="9.61731656763491" y1="16.923879532511286" x2="12.13397459621556" y2="21.5" class="delaunay-line"/>
<line x1="12.741180954897478" y1="21.034074173710934" x2="13.965925826289068" y2="21.74118095489748" class="delaunay-line"/>
<line x1="13.965925826289068" y1="21.74118095489748" x2="13.793353340291235" y2="21.39123857099128" class="delaunay-line"/>
<line x1="13.793353340291235" y1="21.39123857099128" x2="12.741180954897478" y2="21.034074173710934" class="delaunay-line"/>
<line x1="13.991444861373811" y1="22.13052619222005" x2="13.258819045102522" y2="22.965925826289066" class="delaunay-line"/>
<line x1="13.258819045102522" y1="22.965925826289066" x2="13.86602540378444" y2="22.5" class="delaunay-line"/>
<line x1="13.86602540378444" y1="22.5" x2="13.991444861373811" y2="22.13052619222005" class="delaunay-line"/>
<line x1="13.793353340291235" y1="21.39123857099128" x2="13.965925826289068" y2="21.74118095489748" class="delaunay-line"/>
<line x1="13.965925826289068" y1="21.74118095489748" x2="19.130526192220053" y2="13.99144486137381" class="delaunay-line"/>
<line x1="19.130526192220053" y1="13.99144486137381" x2="13.793353340291235" y2="21.39123857099128" class="delaunay-line"/>
<line x1="12.008555138626189" y1="21.86947380777995" x2="12.13397459621556" y2="21.5" class="delaunay-line"/>
<line x1="12.13397459621556" y1="21.5" x2="6.109495827765988" y2="18.55083877885591" class="delaunay-line"/>
<line x1="6.109495827765988" y1="18.55083877885591" x2="12.008555138626189" y2="21.86947380777995" class="delaunay-line"/>
<line x1="12.39123857099128" y1="21.206646659708763" x2="12.13397459621556" y2="21.5" class="delaunay-line"/>
<line x1="12.13397459621556" y1="21.5" x2="12.741180954897478" y2="21.034074173710934" class="delaunay-line"/>
<line x1="12.741180954897478" y1="21.034074173710934" x2="12.39123857099128" y2="21.206646659708763" class="delaunay-line"/>
<line x1="12.13397459621556" y1="21.5" x2="9.61731656763491" y2="16.923879532511286" class="delaunay-line"/>
<line x1="9.61731656763491" y1="16.923879532511286" x2="6.109495827765988" y2="18.55083877885591" class="delaunay-line"/>
<line x1="6.109495827765988" y1="18.55083877885591" x2="12.13397459621556" y2="21.5" class="delaunay-line"/>
<line x1="13.86602540378444" y1="22.5" x2="13.258819045102522" y2="22.965925826289066" class="delaunay-line"/>
<line x1="13.258819045102522" y1="22.965925826289066" x2="13.60876142900872" y2="22.793353340291237" class="delaunay-line"/>
<line x1="13.60876142900872" y1="22.793353340291237" x2="13.86602540378444" y2="22.5" class="delaunay-line"/>
<line x1="13.965925826289068" y1="21.74118095489748" x2="24" y2="24" class="delaunay-line"/>
<line x1="24" y1="24" x2="19.130526192220053" y2="13.99144486137381" class="delaunay-line"/>
<line x1="19.130526192220053" y1="13.99144486137381" x2="13.965925826289068" y2="21.74118095489748" class="delaunay-line"/>
<line x1="12.034074173710932" y1="22.25881904510252" x2="12.008555138626189" y2="21.86947380777995" class="delaunay-line"/>
<line x1="12.008555138626189" y1="21.86947380777995" x2="6.109495827765988" y2="18.55083877885591" class="delaunay-line"/>
<line x1="6.109495827765988" y1="18.55083877885591" x2="12.034074173710932" y2="22.25881904510252" class="delaunay-line"/>
<line x1="12.13397459621556" y1="21.5" x2="12.008555138626189" y2="21.86947380777995" class="delaunay-line"/>
<line x1="12.008555138626189" y1="21.86947380777995" x2="12.741180954897478" y2="21.034074173710934" class="delaunay-line"/>
<line x1="12.741180954897478" y1="21.034074173710934" x2="12.13397459621556" y2="21.5" class="delaunay-line"/>
<line x1="13.258819045102522" y1="22.965925826289066" x2="13.965925826289068" y2="21.74118095489748" class="delaunay-line"/>
<line x1="13.965925826289068" y1="21.74118095489748" x2="12.741180954897478" y2="21.034074173710934" class="delaunay-line"/>
<line x1="12.741180954897478" y1="21.034074173710934" x2="13.258819045102522" y2="22.965925826289066" class="delaunay-line"/>
<line x1="13.991444861373811" y1="22.13052619222005" x2="24" y2="24" class="delaunay-line"/>
<line x1="24" y1="24" x2="13.965925826289068" y2="21.74118095489748" class="delaunay-line"/>
<line x1="13.965925826289068" y1="21.74118095489748" x2="13.991444861373811" y2="22.13052619222005" class="delaunay-line"/>
<line x1="6.109495827765988" y1="18.55083877885591" x2="9.61731656763491" y2="16.923879532511286" class="delaunay-line"/>
<line x1="9.61731656763491" y1="16.923879532511286" x2="9.292893218813452" y2="16.707106781186546" class="delaunay-line"/>
<line x1="9.292893218813452" y1="16.707106781186546" x2="6.109495827765988" y2="18.55083877885591" class="delaunay-line"/>
<line x1="12.008555138626189" y1="21.86947380777995" x2="12.034074173710932" y2="22.25881904510252" class="delaunay-line"/>
<line x1="12.034074173710932" y1="22.25881904510252" x2="12.741180954897478" y2="21.034074173710934" class="delaunay-line"/>
<line x1="12.741180954897478" y1="21.034074173710934" x2="12.008555138626189" y2="21.86947380777995" class="delaunay-line"/>
<line x1="13.258819045102522" y1="22.965925826289066" x2="13.991444861373811" y2="22.13052619222005" class="delaunay-line"/>
<line x1="13.991444861373811" y1="22.13052619222005" x2="13.965925826289068" y2="21.74118095489748" class="delaunay-line"/>
<line x1="13.965925826289068" y1="21.74118095489748" x2="13.258819045102522" y2="22.965925826289066" class="delaunay-line"/>
<line x1="0" y1="24" x2="12.206646659708765" y2="22.60876142900872" class="delaunay-line"/>
<line x1="12.206646659708765" y1="22.60876142900872" x2="12.034074173710932" y2="22.25881904510252" class="delaunay-line"/>
<line x1="12.034074173710932" y1="22.25881904510252" x2="0" y2="24" class="delaunay-line"/>
<line x1="12.034074173710932" y1="22.25881904510252" x2="13.258819045102522" y2="22.965925826289066" class="delaunay-line"/>
<line x1="13.258819045102522" y1="22.965925826289066" x2="12.741180954897478" y2="21.034074173710934" class="delaunay-line"/>
<line x1="12.741180954897478" y1="21.034074173710934" x2="12.034074173710932" y2="22.25881904510252" class="delaunay-line"/>
<line x1="12.206646659708765" y1="22.60876142900872" x2="13.258819045102522" y2="22.965925826289066" class="delaunay-line"/>
<line x1="13.258819045102522" y1="22.965925826289066" x2="12.034074173710932" y2="22.25881904510252" class="delaunay-line"/>
<line x1="12.034074173710932" y1="22.25881904510252" x2="12.206646659708765" y2="22.60876142900872" class="delaunay-line"/>
<line x1="12.206646659708765" y1="22.60876142900872" x2="12.5" y2="22.866025403784437" class="delaunay-line"/>
<line x1="12.5" y1="22.866025403784437" x2="13.258819045102522" y2="22.965925826289066" class="delaunay-line"/>
<line x1="13.258819045102522" y1="22.965925826289066" x2="12.206646659708765" y2="22.60876142900872" class="delaunay-line"/>
<line x1="12.5" y1="22.866025403784437" x2="12.869473807779949" y2="22.99144486137381" class="delaunay-line"/>
<line x1="12.869473807779949" y1="22.99144486137381" x2="13.258819045102522" y2="22.965925826289066" class="delaunay-line"/>
<line x1="13.258819045102522" y1="22.965925826289066" x2="12.5" y2="22.866025403784437" class="delaunay-line"/>
<line x1="9" y1="16" x2="6.109495827765988" y2="18.55083877885591" class="delaunay-line"/>
<line x1="6.109495827765988" y1="18.55083877885591" x2="9.076120467488714" y2="16.38268343236509" class="delaunay-line"/>
<line x1="9.076120467488714" y1="16.38268343236509" x2="9" y2="16" class="delaunay-line"/>
<line x1="9.076120467488714" y1="16.38268343236509" x2="6.109495827765988" y2="18.55083877885591" class="delaunay-line"/>
<line x1="6.109495827765988" y1="18.55083877885591" x2="9.292893218813452" y2="16.707106781186546" class="delaunay-line"/>
<line x1="9.292893218813452" y1="16.707106781186546" x2="9.076120467488714" y2="16.38268343236509" class="delaunay-line"/>
<line x1="12.206646659708765" y1="22.60876142900872" x2="0" y2="24" class="delaunay-line"/>
<line x1="0" y1="24" x2="12.5" y2="22.866025403784437" class="delaunay-line"/>
<line x1="12.5" y1="22.866025403784437" x2="12.206646659708765" y2="22.60876142900872" class="delaunay-line"/>
<line x1="9.076120467488714" y1="15.617316567634909" x2="6.109495827765988" y2="18.55083877885591" class="delaunay-line"/>
<line x1="6.109495827765988" y1="18.55083877885591" x2="9" y2="16" class="delaunay-line"/>
<line x1="9" y1="16" x2="9.076120467488714" y2="15.617316567634909" class="delaunay-line"/>
<line x1="1.9659258262890682" y1="13.258819045102522" x2="6.109495827765988" y2="18.55083877885591" class="delaunay-line"/>
<line x1="6.109495827765988" y1="18.55083877885591" x2="9.076120467488714" y2="15.617316567634909" class="delaunay-line"/>
<line x1="9.076120467488714" y1="15.617316567634909" x2="1.9659258262890682" y2="13.258819045102522" class="delaunay-line"/>
<line x1="19.099876884532563" y1="11.050838778855901" x2="13.130526192220051" y2="1.9914448613738098" class="delaunay-line"/>
<line x1="13.130526192220051" y1="1.9914448613738098" x2="14.434736903889975" y2="14.004277569313095" class="delaunay-line"/>
<line x1="14.434736903889975" y1="14.004277569313095" x2="19.099876884532563" y2="11.050838778855901" class="delaunay-line"/>
<line x1="1.9914448613738098" y1="12.869473807779949" x2="9.076120467488714" y2="15.617316567634909" class="delaunay-line"/>
<line x1="9.076120467488714" y1="15.617316567634909" x2="9.292893218813452" y2="15.292893218813454" class="delaunay-line"/>
<line x1="9.292893218813452" y1="15.292893218813454" x2="1.9914448613738098" y2="12.869473807779949" class="delaunay-line"/>
<line x1="1.9914448613738098" y1="12.869473807779949" x2="1.9659258262890682" y2="13.258819045102522" class="delaunay-line"/>
<line x1="1.9659258262890682" y1="13.258819045102522" x2="9.076120467488714" y2="15.617316567634909" class="delaunay-line"/>
<line x1="9.076120467488714" y1="15.617316567634909" x2="1.9914448613738098" y2="12.869473807779949" class="delaunay-line"/>
<line x1="1.9914448613738098" y1="12.869473807779949" x2="9.292893218813452" y2="15.292893218813454" class="delaunay-line"/>
<line x1="9.292893218813452" y1="15.292893218813454" x2="1.8660254037844393" y2="12.500000000000002" class="delaunay-line"/>
<line x1="1.8660254037844393" y1="12.500000000000002" x2="1.9914448613738098" y2="12.869473807779949" class="delaunay-line"/>
<line x1="1.8660254037844393" y1="12.500000000000002" x2="9.292893218813452" y2="15.292893218813454" class="delaunay-line"/>
<line x1="9.292893218813452" y1="15.292893218813454" x2="9.61731656763491" y2="15.076120467488714" class="delaunay-line"/>
<line x1="9.61731656763491" y1="15.076120467488714" x2="1.8660254037844393" y2="12.500000000000002" class="delaunay-line"/>
<line x1="13.130526192220051" y1="1.9914448613738098" x2="12.74118095489748" y2="1.9659258262890686" class="delaunay-line"/>
<line x1="12.74118095489748" y1="1.9659258262890686" x2="14.434736903889975" y2="14.004277569313095" class="delaunay-line"/>
<line x1="14.434736903889975" y1="14.004277569313095" x2="13.130526192220051" y2="1.9914448613738098" class="delaunay-line"/>
<line x1="19.099876884532563" y1="11.050838778855901" x2="13.5" y2="1.8660254037844382" class="delaunay-line"/>
<line x1="13.5" y1="1.8660254037844382" x2="13.130526192220051" y2="1.9914448613738098" class="delaunay-line"/>
<line x1="13.130526192220051" y1="1.9914448613738098" x2="19.099876884532563" y2="11.050838778855901" class="delaunay-line"/>
<line x1="13.09987688453256" y1="0.6585339334426381" x2="12.39123857099128" y2="1.7933533402912352" class="delaunay-line"/>
<line x1="12.39123857099128" y1="1.7933533402912352" x2="12.74118095489748" y2="1.9659258262890686" class="delaunay-line"/>
<line x1="12.74118095489748" y1="1.9659258262890686" x2="13.09987688453256" y2="0.6585339334426381" class="delaunay-line"/>
<line x1="1.9914448613738098" y1="12.869473807779949" x2="1.7933533402912343" y2="13.608761429008721" class="delaunay-line"/>
<line x1="1.7933533402912343" y1="13.608761429008721" x2="1.9659258262890682" y2="13.258819045102522" class="delaunay-line"/>
<line x1="1.9659258262890682" y1="13.258819045102522" x2="1.9914448613738098" y2="12.869473807779949" class="delaunay-line"/>
<line x1="1.9659258262890682" y1="13.258819045102522" x2="1.7933533402912343" y2="13.608761429008721" class="delaunay-line"/>
<line x1="1.7933533402912343" y1="13.608761429008721" x2="6.109495827765988" y2="18.55083877885591" class="delaunay-line"/>
<line x1="6.109495827765988" y1="18.55083877885591" x2="1.9659258262890682" y2="13.258819045102522" class="delaunay-line"/>
<line x1="12.39123857099128" y1="1.7933533402912352" x2="1.8660254037844393" y2="12.500000000000002" class="delaunay-line"/>
<line x1="1.8660254037844393" y1="12.500000000000002" x2="9.61731656763491" y2="15.076120467488714" class="delaunay-line"/>
<line x1="9.61731656763491" y1="15.076120467488714" x2="12.39123857099128" y2="1.7933533402912352" class="delaunay-line"/>
<line x1="1.9914448613738098" y1="12.869473807779949" x2="1.1305261922200511" y2="13.99144486137381" class="delaunay-line"/>
<line x1="1.1305261922200511" y1="13.99144486137381" x2="1.7933533402912343" y2="13.608761429008721" class="delaunay-line"/>
<line x1="1.7933533402912343" y1="13.608761429008721" x2="1.9914448613738098" y2="12.869473807779949" class="delaunay-line"/>
<line x1="13.09987688453256" y1="0.6585339334426381" x2="12.74118095489748" y2="1.9659258262890686" class="delaunay-line"/>
<line x1="12.74118095489748" y1="1.9659258262890686" x2="13.130526192220051" y2="1.9914448613738098" class="delaunay-line"/>
<line x1="13.130526192220051" y1="1.9914448613738098" x2="13.09987688453256" y2="0.6585339334426381" class="delaunay-line"/>
<line x1="12.74118095489748" y1="1.9659258262890686" x2="12.39123857099128" y2="1.7933533402912352" class="delaunay-line"/>
<line x1="12.39123857099128" y1="1.7933533402912352" x2="10" y2="15" class="delaunay-line"/>
<line x1="10" y1="15" x2="12.74118095489748" y2="1.9659258262890686" class="delaunay-line"/>
<line x1="19.099876884532563" y1="11.050838778855901" x2="13.793353340291235" y2="1.6087614290087198" class="delaunay-line"/>
<line x1="13.793353340291235" y1="1.6087614290087198" x2="13.5" y2="1.8660254037844382" class="delaunay-line"/>
<line x1="13.5" y1="1.8660254037844382" x2="19.099876884532563" y2="11.050838778855901" class="delaunay-line"/>
<line x1="13.5" y1="1.8660254037844382" x2="13.09987688453256" y2="0.6585339334426381" class="delaunay-line"/>
<line x1="13.09987688453256" y1="0.6585339334426381" x2="13.130526192220051" y2="1.9914448613738098" class="delaunay-line"/>
<line x1="13.130526192220051" y1="1.9914448613738098" x2="13.5" y2="1.8660254037844382" class="delaunay-line"/>
<line x1="1.1305261922200511" y1="13.99144486137381" x2="1.5" y2="13.86602540378444" class="delaunay-line"/>
<line x1="1.5" y1="13.86602540378444" x2="1.7933533402912343" y2="13.608761429008721" class="delaunay-line"/>
<line x1="1.7933533402912343" y1="13.608761429008721" x2="1.1305261922200511" y2="13.99144486137381" class="delaunay-line"/>
<line x1="1.7933533402912343" y1="13.608761429008721" x2="1.5" y2="13.86602540378444" class="delaunay-line"/>
<line x1="1.5" y1="13.86602540378444" x2="6.109495827765988" y2="18.55083877885591" class="delaunay-line"/>
<line x1="6.109495827765988" y1="18.55083877885591" x2="1.7933533402912343" y2="13.608761429008721" class="delaunay-line"/>
<line x1="0.10949582776598188" y1="8.158533933442644" x2="1.6087614290087209" y2="12.206646659708765" class="delaunay-line"/>
<line x1="1.6087614290087209" y1="12.206646659708765" x2="1.8660254037844393" y2="12.500000000000002" class="delaunay-line"/>
<line x1="1.8660254037844393" y1="12.500000000000002" x2="0.10949582776598188" y2="8.158533933442644" class="delaunay-line"/>
<line x1="0.8694738077799489" y1="12.00855513862619" x2="1.1305261922200511" y2="13.99144486137381" class="delaunay-line"/>
<line x1="1.1305261922200511" y1="13.99144486137381" x2="1.9914448613738098" y2="12.869473807779949" class="delaunay-line"/>
<line x1="1.9914448613738098" y1="12.869473807779949" x2="0.8694738077799489" y2="12.00855513862619" class="delaunay-line"/>
<line x1="12.008555138626189" y1="1.130526192220052" x2="12.13397459621556" y2="1.5000000000000004" class="delaunay-line"/>
<line x1="12.13397459621556" y1="1.5000000000000004" x2="13.09987688453256" y2="0.6585339334426381" class="delaunay-line"/>
<line x1="13.09987688453256" y1="0.6585339334426381" x2="12.008555138626189" y2="1.130526192220052" class="delaunay-line"/>
<line x1="12.39123857099128" y1="1.7933533402912352" x2="0.10949582776598188" y2="8.158533933442644" class="delaunay-line"/>
<line x1="0.10949582776598188" y1="8.158533933442644" x2="1.8660254037844393" y2="12.500000000000002" class="delaunay-line"/>
<line x1="1.8660254037844393" y1="12.500000000000002" x2="12.39123857099128" y2="1.7933533402912352" class="delaunay-line"/>
<line x1="24" y1="0" x2="13.96592582628907" y2="1.2588190451025207" class="delaunay-line"/>
<line x1="13.96592582628907" y1="1.2588190451025207" x2="13.793353340291235" y2="1.6087614290087198" class="delaunay-line"/>
<line x1="13.793353340291235" y1="1.6087614290087198" x2="24" y2="0" class="delaunay-line"/>
<line x1="13.09987688453256" y1="0.6585339334426381" x2="12.13397459621556" y2="1.5000000000000004" class="delaunay-line"/>
<line x1="12.13397459621556" y1="1.5000000000000004" x2="12.39123857099128" y2="1.7933533402912352" class="delaunay-line"/>
<line x1="12.39123857099128" y1="1.7933533402912352" x2="13.09987688453256" y2="0.6585339334426381" class="delaunay-line"/>
<line x1="13.991444861373811" y1="0.8694738077799478" x2="13.96592582628907" y2="1.2588190451025207" class="delaunay-line"/>
<line x1="13.96592582628907" y1="1.2588190451025207" x2="24" y2="0" class="delaunay-line"/>
<line x1="24" y1="0" x2="13.991444861373811" y2="0.8694738077799478" class="delaunay-line"/>
<line x1="0.8694738077799489" y1="12.00855513862619" x2="1.9914448613738098" y2="12.869473807779949" class="delaunay-line"/>
<line x1="1.9914448613738098" y1="12.869473807779949" x2="1.8660254037844393" y2="12.500000000000002" class="delaunay-line"/>
<line x1="1.8660254037844393" y1="12.500000000000002" x2="0.8694738077799489" y2="12.00855513862619" class="delaunay-line"/>
<line x1="1.5" y1="13.86602540378444" x2="1.1305261922200511" y2="13.99144486137381" class="delaunay-line"/>
<line x1="1.1305261922200511" y1="13.99144486137381" x2="6.109495827765988" y2="18.55083877885591" class="delaunay-line"/>
<line x1="6.109495827765988" y1="18.55083877885591" x2="1.5" y2="13.86602540378444" class="delaunay-line"/>
<line x1="12.869473807779949" y1="22.99144486137381" x2="24" y2="24" class="delaunay-line"/>
<line x1="24" y1="24" x2="13.258819045102522" y2="22.965925826289066" class="delaunay-line"/>
<line x1="13.258819045102522" y1="22.965925826289066" x2="12.869473807779949" y2="22.99144486137381" class="delaunay-line"/>
<line x1="13.258819045102522" y1="22.965925826289066" x2="24" y2="24" class="delaunay-line"/>
<line x1="24" y1="24" x2="13.60876142900872" y2="22.793353340291237" class="delaunay-line"/>
<line x1="13.60876142900872" y1="22.793353340291237" x2="13.258819045102522" y2="22.965925826289066" class="delaunay-line"/>
<line x1="13.60876142900872" y1="22.793353340291237" x2="24" y2="24" class="delaunay-line"/>
<line x1="24" y1="24" x2="13.86602540378444" y2="22.5" class="delaunay-line"/>
<line x1="13.86602540378444" y1="22.5" x2="13.60876142900872" y2="22.793353340291237" class="delaunay-line"/>
<line x1="13.86602540378444" y1="22.5" x2="24" y2="24" class="delaunay-line"/>
<line x1="24" y1="24" x2="13.991444861373811" y2="22.13052619222005" class="delaunay-line"/>
<line x1="13.991444861373811" y1="22.13052619222005" x2="13.86602540378444" y2="22.5" class="delaunay-line"/>
<line x1="19.793353340291237" y1="13.60876142900872" x2="24" y2="24" class="delaunay-line"/>
<line x1="24" y1="24" x2="19.96592582628907" y2="13.25881904510252" class="delaunay-line"/>
<line x1="19.96592582628907" y1="13.25881904510252" x2="19.793353340291237" y2="13.60876142900872" class="delaunay-line"/>
<line x1="19.96592582628907" y1="13.25881904510252" x2="24" y2="24" class="delaunay-line"/>
<line x1="24" y1="24" x2="19.99144486137381" y2="12.869473807779947" class="delaunay-line"/>
<line x1="19.99144486137381" y1="12.869473807779947" x2="19.96592582628907" y2="13.25881904510252" class="delaunay-line"/>
<line x1="19.99144486137381" y1="12.869473807779947" x2="24" y2="0" class="delaunay-line"/>
<line x1="24" y1="0" x2="19.866025403784437" y2="12.499999999999998" class="delaunay-line"/>
<line x1="19.866025403784437" y1="12.499999999999998" x2="19.99144486137381" y2="12.869473807779947" class="delaunay-line"/>
<line x1="0.10949582776598188" y1="8.158533933442644" x2="1.2588190451025212" y2="12.034074173710932" class="delaunay-line"/>
<line x1="1.2588190451025212" y1="12.034074173710932" x2="1.6087614290087209" y2="12.206646659708765" class="delaunay-line"/>
<line x1="1.6087614290087209" y1="12.206646659708765" x2="0.10949582776598188" y2="8.158533933442644" class="delaunay-line"/>
<line x1="1.6087614290087209" y1="12.206646659708765" x2="1.2588190451025212" y2="12.034074173710932" class="delaunay-line"/>
<line x1="1.2588190451025212" y1="12.034074173710932" x2="1.8660254037844393" y2="12.500000000000002" class="delaunay-line"/>
<line x1="1.8660254037844393" y1="12.500000000000002" x2="1.6087614290087209" y2="12.206646659708765" class="delaunay-line"/>
<line x1="13.09987688453256" y1="0.6585339334426381" x2="13.5" y2="1.8660254037844382" class="delaunay-line"/>
<line x1="13.5" y1="1.8660254037844382" x2="13.793353340291235" y2="1.6087614290087198" class="delaunay-line"/>
<line x1="13.793353340291235" y1="1.6087614290087198" x2="13.09987688453256" y2="0.6585339334426381" class="delaunay-line"/>
<line x1="12.13397459621556" y1="1.5000000000000004" x2="0.10949582776598188" y2="8.158533933442644" class="delaunay-line"/>
<line x1="0.10949582776598188" y1="8.158533933442644" x2="12.39123857099128" y2="1.7933533402912352" class="delaunay-line"/>
<line x1="12.39123857099128" y1="1.7933533402912352" x2="12.13397459621556" y2="1.5000000000000004" class="delaunay-line"/>
<line x1="13.86602540378444" y1="0.49999999999999956" x2="13.991444861373811" y2="0.8694738077799478" class="delaunay-line"/>
<line x1="13.991444861373811" y1="0.8694738077799478" x2="24" y2="0" class="delaunay-line"/>
<line x1="24" y1="0" x2="13.86602540378444" y2="0.49999999999999956" class="delaunay-line"/>
<line x1="13.96592582628907" y1="1.2588190451025207" x2="13.09987688453256" y2="0.6585339334426381" class="delaunay-line"/>
<line x1="13.09987688453256" y1="0.6585339334426381" x2="13.793353340291235" y2="1.6087614290087198" class="delaunay-line"/>
<line x1="13.793353340291235" y1="1.6087614290087198" x2="13.96592582628907" y2="1.2588190451025207" class="delaunay-line"/>
<line x1="0.3912385709912792" y1="13.793353340291235" x2="0.7411809548974788" y2="13.965925826289068" class="delaunay-line"/>
<line x1="0.7411809548974788" y1="13.965925826289068" x2="1.1305261922200511" y2="13.99144486137381" class="delaunay-line"/>
<line x1="1.1305261922200511" y1="13.99144486137381" x2="0.3912385709912792" y2="13.793353340291235" class="delaunay-line"/>
<line x1="1.1305261922200511" y1="13.99144486137381" x2="0" y2="24" class="delaunay-line"/>
<line x1="0" y1="24" x2="6.109495827765988" y2="18.55083877885591" class="delaunay-line"/>
<line x1="6.109495827765988" y1="18.55083877885591" x2="1.1305261922200511" y2="13.99144486137381" class="delaunay-line"/>
<line x1="0.10949582776598188" y1="8.158533933442644" x2="0.8694738077799489" y2="12.00855513862619" class="delaunay-line"/>
<line x1="0.8694738077799489" y1="12.00855513862619" x2="1.2588190451025212" y2="12.034074173710932" class="delaunay-line"/>
<line x1="1.2588190451025212" y1="12.034074173710932" x2="0.10949582776598188" y2="8.158533933442644" class="delaunay-line"/>
<line x1="1.2588190451025212" y1="12.034074173710932" x2="0.8694738077799489" y2="12.00855513862619" class="delaunay-line"/>
<line x1="0.8694738077799489" y1="12.00855513862619" x2="1.8660254037844393" y2="12.500000000000002" class="delaunay-line"/>
<line x1="1.8660254037844393" y1="12.500000000000002" x2="1.2588190451025212" y2="12.034074173710932" class="delaunay-line"/>
<line x1="13.991444861373811" y1="0.8694738077799478" x2="13.09987688453256" y2="0.6585339334426381" class="delaunay-line"/>
<line x1="13.09987688453256" y1="0.6585339334426381" x2="13.96592582628907" y2="1.2588190451025207" class="delaunay-line"/>
<line x1="13.96592582628907" y1="1.2588190451025207" x2="13.991444861373811" y2="0.8694738077799478" class="delaunay-line"/>
<line x1="13.09987688453256" y1="0.6585339334426381" x2="12.03407417371093" y2="0.7411809548974795" class="delaunay-line"/>
<line x1="12.03407417371093" y1="0.7411809548974795" x2="12.008555138626189" y2="1.130526192220052" class="delaunay-line"/>
<line x1="12.008555138626189" y1="1.130526192220052" x2="13.09987688453256" y2="0.6585339334426381" class="delaunay-line"/>
<line x1="0" y1="0" x2="0.10949582776598188" y2="8.158533933442644" class="delaunay-line"/>
<line x1="0.10949582776598188" y1="8.158533933442644" x2="12.13397459621556" y2="1.5000000000000004" class="delaunay-line"/>
<line x1="12.13397459621556" y1="1.5000000000000004" x2="0" y2="0" class="delaunay-line"/>
<line x1="13.991444861373811" y1="0.8694738077799478" x2="13.86602540378444" y2="0.49999999999999956" class="delaunay-line"/>
<line x1="13.86602540378444" y1="0.49999999999999956" x2="13.09987688453256" y2="0.6585339334426381" class="delaunay-line"/>
<line x1="13.09987688453256" y1="0.6585339334426381" x2="13.991444861373811" y2="0.8694738077799478" class="delaunay-line"/>
<line x1="13.09987688453256" y1="0.6585339334426381" x2="12.206646659708765" y2="0.39123857099128057" class="delaunay-line"/>
<line x1="12.206646659708765" y1="0.39123857099128057" x2="12.03407417371093" y2="0.7411809548974795" class="delaunay-line"/>
<line x1="12.03407417371093" y1="0.7411809548974795" x2="13.09987688453256" y2="0.6585339334426381" class="delaunay-line"/>
<line x1="24" y1="0" x2="13.793353340291235" y2="1.6087614290087198" class="delaunay-line"/>
<line x1="13.793353340291235" y1="1.6087614290087198" x2="19.099876884532563" y2="11.050838778855901" class="delaunay-line"/>
<line x1="19.099876884532563" y1="11.050838778855901" x2="24" y2="0" class="delaunay-line"/>
<line x1="0.13397459621556074" y1="13.499999999999998" x2="0.3912385709912792" y2="13.793353340291235" class="delaunay-line"/>
<line x1="0.3912385709912792" y1="13.793353340291235" x2="1.1305261922200511" y2="13.99144486137381" class="delaunay-line"/>
<line x1="1.1305261922200511" y1="13.99144486137381" x2="0.13397459621556074" y2="13.499999999999998" class="delaunay-line"/>
<line x1="0.7411809548974788" y1="13.965925826289068" x2="0" y2="24" class="delaunay-line"/>
<line x1="0" y1="24" x2="1.1305261922200511" y2="13.99144486137381" class="delaunay-line"/>
<line x1="1.1305261922200511" y1="13.99144486137381" x2="0.7411809548974788" y2="13.965925826289068" class="delaunay-line"/>
<line x1="0.10949582776598188" y1="8.158533933442644" x2="0.5" y2="12.13397459621556" class="delaunay-line"/>
<line x1="0.5" y1="12.13397459621556" x2="0.8694738077799489" y2="12.00855513862619" class="delaunay-line"/>
<line x1="0.8694738077799489" y1="12.00855513862619" x2="0.10949582776598188" y2="8.158533933442644" class="delaunay-line"/>
<line x1="0.008555138626190062" y1="13.130526192220051" x2="0.13397459621556074" y2="13.499999999999998" class="delaunay-line"/>
<line x1="0.13397459621556074" y1="13.499999999999998" x2="1.1305261922200511" y2="13.99144486137381" class="delaunay-line"/>
<line x1="1.1305261922200511" y1="13.99144486137381" x2="0.008555138626190062" y2="13.130526192220051" class="delaunay-line"/>
<line x1="12.5" y1="0.13397459621556151" x2="12.206646659708765" y2="0.39123857099128057" class="delaunay-line"/>
<line x1="12.206646659708765" y1="0.39123857099128057" x2="13.09987688453256" y2="0.6585339334426381" class="delaunay-line"/>
<line x1="13.09987688453256" y1="0.6585339334426381" x2="12.5" y2="0.13397459621556151" class="delaunay-line"/>
<line x1="0" y1="0" x2="12.13397459621556" y2="1.5000000000000004" class="delaunay-line"/>
<line x1="12.13397459621556" y1="1.5000000000000004" x2="12.008555138626189" y2="1.130526192220052" class="delaunay-line"/>
<line x1="12.008555138626189" y1="1.130526192220052" x2="0" y2="0" class="delaunay-line"/>
<line x1="13.86602540378444" y1="0.49999999999999956" x2="13.60876142900872" y2="0.20664665970876467" class="delaunay-line"/>
<line x1="13.60876142900872" y1="0.20664665970876467" x2="13.09987688453256" y2="0.6585339334426381" class="delaunay-line"/>
<line x1="13.09987688453256" y1="0.6585339334426381" x2="13.86602540378444" y2="0.49999999999999956" class="delaunay-line"/>
<line x1="0.008555138626190062" y1="13.130526192220051" x2="1.1305261922200511" y2="13.99144486137381" class="delaunay-line"/>
<line x1="1.1305261922200511" y1="13.99144486137381" x2="0.8694738077799489" y2="12.00855513862619" class="delaunay-line"/>
<line x1="0.8694738077799489" y1="12.00855513862619" x2="0.008555138626190062" y2="13.130526192220051" class="delaunay-line"/>
<line x1="0.10949582776598188" y1="8.158533933442644" x2="0.20664665970876572" y2="12.391238570991279" class="delaunay-line"/>
<line x1="0.20664665970876572" y1="12.391238570991279" x2="0.5" y2="12.13397459621556" class="delaunay-line"/>
<line x1="0.5" y1="12.13397459621556" x2="0.10949582776598188" y2="8.158533933442644" class="delaunay-line"/>
<line x1="0.5" y1="12.13397459621556" x2="0.20664665970876572" y2="12.391238570991279" class="delaunay-line"/>
<line x1="0.20664665970876572" y1="12.391238570991279" x2="0.8694738077799489" y2="12.00855513862619" class="delaunay-line"/>
<line x1="0.8694738077799489" y1="12.00855513862619" x2="0.5" y2="12.13397459621556" class="delaunay-line"/>
<line x1="12.869473807779949" y1="0.008555138626190117" x2="12.5" y2="0.13397459621556151" class="delaunay-line"/>
<line x1="12.5" y1="0.13397459621556151" x2="13.09987688453256" y2="0.6585339334426381" class="delaunay-line"/>
<line x1="13.09987688453256" y1="0.6585339334426381" x2="12.869473807779949" y2="0.008555138626190117" class="delaunay-line"/>
<line x1="13.60876142900872" y1="0.20664665970876467" x2="13.25881904510252" y2="0.034074173710931244" class="delaunay-line"/>
<line x1="13.25881904510252" y1="0.034074173710931244" x2="13.09987688453256" y2="0.6585339334426381" class="delaunay-line"/>
<line x1="13.09987688453256" y1="0.6585339334426381" x2="13.60876142900872" y2="0.20664665970876467" class="delaunay-line"/>
<line x1="0.20664665970876572" y1="12.391238570991279" x2="0.008555138626190062" y2="13.130526192220051" class="delaunay-line"/>
<line x1="0.008555138626190062" y1="13.130526192220051" x2="0.8694738077799489" y2="12.00855513862619" class="delaunay-line"/>
<line x1="0.8694738077799489" y1="12.00855513862619" x2="0.20664665970876572" y2="12.391238570991279" class="delaunay-line"/>
<line x1="0.20664665970876572" y1="12.391238570991279" x2="0.03407417371093169" y2="12.741180954897478" class="delaunay-line"/>
<line x1="0.03407417371093169" y1="12.741180954897478" x2="0.008555138626190062" y2="13.130526192220051" class="delaunay-line"/>
<line x1="0.008555138626190062" y1="13.130526192220051" x2="0.20664665970876572" y2="12.391238570991279" class="delaunay-line"/>
<line x1="13.25881904510252" y1="0.034074173710931244" x2="12.869473807779949" y2="0.008555138626190117" class="delaunay-line"/>
<line x1="12.869473807779949" y1="0.008555138626190117" x2="13.09987688453256" y2="0.6585339334426381" class="delaunay-line"/>
<line x1="13.09987688453256" y1="0.6585339334426381" x2="13.25881904510252" y2="0.034074173710931244" class="delaunay-line"/>
<line x1="0" y1="0" x2="12.008555138626189" y2="1.130526192220052" class="delaunay-line"/>
<line x1="12.008555138626189" y1="1.130526192220052" x2="12.03407417371093" y2="0.7411809548974795" class="delaunay-line"/>
<line x1="12.03407417371093" y1="0.7411809548974795" x2="0" y2="0" class="delaunay-line"/>
<line x1="0.20664665970876572" y1="12.391238570991279" x2="0.10949582776598188" y2="8.158533933442644" class="delaunay-line"/>
<line x1="0.10949582776598188" y1="8.158533933442644" x2="0.03407417371093169" y2="12.741180954897478" class="delaunay-line"/>
<line x1="0.03407417371093169" y1="12.741180954897478" x2="0.20664665970876572" y2="12.391238570991279" class="delaunay-line"/>
<line x1="0.03407417371093169" y1="12.741180954897478" x2="0.10949582776598188" y2="8.158533933442644" class="delaunay-line"/>
<line x1="0.10949582776598188" y1="8.158533933442644" x2="0.008555138626190062" y2="13.130526192220051" class="delaunay-line"/>
<line x1="0.008555138626190062" y1="13.130526192220051" x2="0.03407417371093169" y2="12.741180954897478" class="delaunay-line"/>
<line x1="0" y1="0" x2="12.03407417371093" y2="0.7411809548974795" class="delaunay-line"/>
<line x1="12.03407417371093" y1="0.7411809548974795" x2="12.206646659708765" y2="0.39123857099128057" class="delaunay-line"/>
<line x1="12.206646659708765" y1="0.39123857099128057" x2="0" y2="0" class="delaunay-line"/>
<line x1="24" y1="24" x2="24" y2="0" class="delaunay-line"/>
<line x1="24" y1="0" x2="19.99144486137381" y2="12.869473807779947" class="delaunay-line"/>
<line x1="19.99144486137381" y1="12.869473807779947" x2="24" y2="24" class="delaunay-line"/>
<line x1="19.866025403784437" y1="12.499999999999998" x2="24" y2="0" class="delaunay-line"/>
<line x1="24" y1="0" x2="19.099876884532563" y2="11.050838778855901" class="delaunay-line"/>
<line x1="19.099876884532563" y1="11.050838778855901" x2="19.866025403784437" y2="12.499999999999998" class="delaunay-line"/>
<line x1="13.86602540378444" y1="0.49999999999999956" x2="24" y2="0" class="delaunay-line"/>
<line x1="24" y1="0" x2="13.60876142900872" y2="0.20664665970876467" class="delaunay-line"/>
<line x1="13.60876142900872" y1="0.20664665970876467" x2="13.86602540378444" y2="0.49999999999999956" class="delaunay-line"/>
<line x1="13.60876142900872" y1="0.20664665970876467" x2="24" y2="0" class="delaunay-line"/>
<line x1="24" y1="0" x2="13.25881904510252" y2="0.034074173710931244" class="delaunay-line"/>
<line x1="13.25881904510252" y1="0.034074173710931244" x2="13.60876142900872" y2="0.20664665970876467" class="delaunay-line"/>
<line x1="13.25881904510252" y1="0.034074173710931244" x2="24" y2="0" class="delaunay-line"/>
<line x1="24" y1="0" x2="12.869473807779949" y2="0.008555138626190117" class="delaunay-line"/>
<line x1="12.869473807779949" y1="0.008555138626190117" x2="13.25881904510252" y2="0.034074173710931244" class="delaunay-line"/>
<line x1="0.008555138626190062" y1="13.130526192220051" x2="0" y2="24" class="delaunay-line"/>
<line x1="0" y1="24" x2="0.13397459621556074" y2="13.499999999999998" class="delaunay-line"/>
<line x1="0.13397459621556074" y1="13.499999999999998" x2="0.008555138626190062" y2="13.130526192220051" class="delaunay-line"/>
<line x1="0.13397459621556074" y1="13.499999999999998" x2="0" y2="24" class="delaunay-line"/>
<line x1="0" y1="24" x2="0.3912385709912792" y2="13.793353340291235" class="delaunay-line"/>
<line x1="0.3912385709912792" y1="13.793353340291235" x2="0.13397459621556074" y2="13.499999999999998" class="delaunay-line"/>
<line x1="0.3912385709912792" y1="13.793353340291235" x2="0" y2="24" class="delaunay-line"/>
<line x1="0" y1="24" x2="0.7411809548974788" y2="13.965925826289068" class="delaunay-line"/>
<line x1="0.7411809548974788" y1="13.965925826289068" x2="0.3912385709912792" y2="13.793353340291235" class="delaunay-line"/>
<line x1="6.109495827765988" y1="18.55083877885591" x2="0" y2="24" class="delaunay-line"/>
<line x1="0" y1="24" x2="12.034074173710932" y2="22.25881904510252" class="delaunay-line"/>
<line x1="12.034074173710932" y1="22.25881904510252" x2="6.109495827765988" y2="18.55083877885591" class="delaunay-line"/>
<line x1="12.5" y1="22.866025403784437" x2="0" y2="24" class="delaunay-line"/>
<line x1="0" y1="24" x2="12.869473807779949" y2="22.99144486137381" class="delaunay-line"/>
<line x1="12.869473807779949" y1="22.99144486137381" x2="12.5" y2="22.866025403784437" class="delaunay-line"/>
<line x1="12.869473807779949" y1="22.99144486137381" x2="0" y2="24" class="delaunay-line"/>
<line x1="0" y1="24" x2="24" y2="24" class="delaunay-line"/>
<line x1="24" y1="24" x2="12.869473807779949" y2="22.99144486137381" class="delaunay-line"/>
<line x1="12.869473807779949" y1="0.008555138626190117" x2="0" y2="0" class="delaunay-line"/>
<line x1="0" y1="0" x2="12.5" y2="0.13397459621556151" class="delaunay-line"/>
<line x1="12.5" y1="0.13397459621556151" x2="12.869473807779949" y2="0.008555138626190117" class="delaunay-line"/>
<line x1="12.5" y1="0.13397459621556151" x2="0" y2="0" class="delaunay-line"/>
<line x1="0" y1="0" x2="12.206646659708765" y2="0.39123857099128057" class="delaunay-line"/>
<line x1="12.206646659708765" y1="0.39123857099128057" x2="12.5" y2="0.13397459621556151" class="delaunay-line"/>
<line x1="0.10949582776598188" y1="8.158533933442644" x2="0" y2="0" class="delaunay-line"/>
<line x1="0" y1="0" x2="0.008555138626190062" y2="13.130526192220051" class="delaunay-line"/>
<line x1="0.008555138626190062" y1="13.130526192220051" x2="0.10949582776598188" y2="8.158533933442644" class="delaunay-line"/>
<line x1="0.008555138626190062" y1="13.130526192220051" x2="0" y2="0" class="delaunay-line"/>
<line x1="0" y1="0" x2="0" y2="24" class="delaunay-line"/>
<line x1="0" y1="24" x2="0.008555138626190062" y2="13.130526192220051" class="delaunay-line"/>
<line x1="24" y1="0" x2="0" y2="0" class="delaunay-line"/>
<line x1="0" y1="0" x2="12.869473807779949" y2="0.008555138626190117" class="delaunay-line"/>
<line x1="12.869473807779949" y1="0.008555138626190117" x2="24" y2="0" class="delaunay-line"/>
</g>
<g id="layer-area" class="layer ">
<polygon points="6.109495827765988,18.55083877885591 0.10949582776598188,8.158533933442644 13.09987688453256,0.6585339334426381 19.099876884532563,11.050838778855901" class="terrain-area"/>
<text x="9.604686356149273" y="9.604686356149273" class="label">#C49A6C</text>
</g>
<g id="layer-building" class="layer ">
<polygon points="12.733251256355043,5.439022622295093 8.733251256355043,12.367225852570602 0.07299721851065577,7.367225852570605 4.072997218510655,0.4390226222950946" class="terrain-solid"/>
<text x="6.403124237432849" y="6.403124237432849" class="label">#000000</text>
<polygon points="0.19013570639174215,21.18315089459052 1.2254118868018264,17.319447589434247 7.020966844536236,18.872361860049374 5.985690664126151,22.736065165205645" class="terrain-solid"/>
<text x="3.605551275463989" y="20.027756377319946" class="label">#000000</text>
<polygon points="20.259807184888825,23.625832588673262 16.795705569751068,21.625832588673262 19.795705569751068,16.42968016596663 23.259807184888825,18.42968016596663" class="terrain-solid"/>
<text x="20.027756377319946" y="20.027756377319946" class="label">#000000</text>
<polygon points="23.259807184888825,5.203627486817306 19.795705569751068,7.203627486817305 16.795705569751068,2.0074750641106722 20.259807184888825,0.007475064110672669" class="terrain-solid"/>
<text x="20.027756377319946" y="3.6055512754639887" class="label">#000000</text>
</g>
<g id="layer-wall" class="layer ">
</g>
<g id="layer-tree" class="layer ">
<polygon points="18.03407417371093,12.74118095489748 18.206646659708763,12.39123857099128 18.500000000000004,12.13397459621556 18.869473807779947,12.00855513862619 19.25881904510252,12.034074173710932 19.608761429008723,12.206646659708765 19.866025403784437,12.499999999999998 19.99144486137381,12.869473807779947 19.96592582628907,13.25881904510252 19.793353340291237,13.60876142900872 19.499999999999996,13.86602540378444 19.130526192220053,13.99144486137381 18.74118095489748,13.965925826289068 18.391238570991277,13.793353340291235 18.133974596215563,13.500000000000002 18.00855513862619,13.130526192220053" class="terrain-solid"/>
<text x="19.000000000000007" y="13.000000000000002" class="label">#90EE90</text>
<polygon points="12.13397459621556,21.5 12.39123857099128,21.206646659708763 12.741180954897478,21.034074173710934 13.130526192220051,21.00855513862619 13.5,21.133974596215563 13.793353340291235,21.39123857099128 13.965925826289068,21.74118095489748 13.991444861373811,22.13052619222005 13.86602540378444,22.5 13.60876142900872,22.793353340291237 13.258819045102522,22.965925826289066 12.869473807779949,22.99144486137381 12.5,22.866025403784437 12.206646659708765,22.60876142900872 12.034074173710932,22.25881904510252 12.008555138626189,21.86947380777995" class="terrain-solid"/>
<text x="12.999999999999996" y="22.000000000000004" class="label">#90EE90</text>
<polygon points="12.5,0.13397459621556151 12.869473807779949,0.008555138626190117 13.25881904510252,0.034074173710931244 13.60876142900872,0.20664665970876467 13.86602540378444,0.49999999999999956 13.991444861373811,0.8694738077799478 13.96592582628907,1.2588190451025207 13.793353340291235,1.6087614290087198 13.5,1.8660254037844382 13.130526192220051,1.9914448613738098 12.74118095489748,1.9659258262890686 12.39123857099128,1.7933533402912352 12.13397459621556,1.5000000000000004 12.008555138626189,1.130526192220052 12.03407417371093,0.7411809548974795 12.206646659708765,0.39123857099128057" class="terrain-solid"/>
<text x="12.999999999999998" y="1" class="label">#90EE90</text>
<polygon points="9,16 9.076120467488714,15.617316567634909 9.292893218813452,15.292893218813454 9.61731656763491,15.076120467488714 10,15 10.38268343236509,15.076120467488714 10.707106781186548,15.292893218813454 10.923879532511286,15.617316567634909 11,16 10.923879532511286,16.38268343236509 10.707106781186548,16.707106781186546 10.38268343236509,16.923879532511286 10,17 9.61731656763491,16.923879532511286 9.292893218813452,16.707106781186546 9.076120467488714,16.38268343236509" class="terrain-solid"/>
<text x="10" y="16" class="label">#90EE90</text>
<polygon points="1.2588190451025212,12.034074173710932 1.6087614290087209,12.206646659708765 1.8660254037844393,12.500000000000002 1.9914448613738098,12.869473807779949 1.9659258262890682,13.258819045102522 1.7933533402912343,13.608761429008721 1.5,13.86602540378444 1.1305261922200511,13.99144486137381 0.7411809548974788,13.965925826289068 0.3912385709912792,13.793353340291235 0.13397459621556074,13.499999999999998 0.008555138626190062,13.130526192220051 0.03407417371093169,12.741180954897478 0.20664665970876572,12.391238570991279 0.5,12.13397459621556 0.8694738077799489,12.00855513862619" class="terrain-solid"/>
<text x="1" y="13" class="label">#90EE90</text>
</g>
<g id="layer-rocks" class="layer ">
</g>
<g id="layer-shrub" class="layer ">
<polygon points="14.933012701892219,14.25 14.995722430686905,14.434736903889975 14.982962913144533,14.62940952255126 14.896676670145618,14.80438071450436 14.75,14.933012701892219 14.565263096110025,14.995722430686905 14.37059047744874,14.982962913144533 14.19561928549564,14.896676670145618 14.066987298107781,14.75 14.004277569313095,14.565263096110025 14.017037086855467,14.37059047744874 14.103323329854382,14.19561928549564 14.25,14.066987298107781 14.434736903889975,14.004277569313095 14.62940952255126,14.017037086855467 14.80438071450436,14.103323329854382" class="terrain-solid"/>
<text x="14.500000000000004" y="14.5" class="label">#006400</text>
</g>
<g id="layer-terrain" class="layer ">
</g>
<g id="layer-models" class="layer ">
</g>
<g id="layer-paths" class="layer ">
</g>
<g id="layer-vectors" class="layer ">
</g>
<g id="layer-los" class="layer ">
</g>
<g id="layer-lof" class="layer ">
</g>

<g id="legend">
<g class="toggle" onclick="toggleLayer('grid')"><rect x="0.4" y="0.14999999999999997" width="0.4" height="0.4" fill="#222" stroke="#222" stroke-width="0.05"/><text x="1.0" y="0.5499999999999999" class="label">0.5 MU Grid</text></g>
<g class="toggle" onclick="toggleLayer('delaunay')"><rect x="0.4" y="0.95" width="0.4" height="0.4" fill="#222" stroke="#222" stroke-width="0.05"/><text x="1.0" y="1.3499999999999999" class="label">Delaunay Mesh</text></g>
<g class="toggle" onclick="toggleLayer('area')"><rect x="0.4" y="1.7500000000000002" width="0.4" height="0.4" fill="#222" stroke="#222" stroke-width="0.05"/><text x="1.0" y="2.1500000000000004" class="label">Area Terrain</text></g>
<g class="toggle" onclick="toggleLayer('building')"><rect x="0.4" y="2.55" width="0.4" height="0.4" fill="#222" stroke="#222" stroke-width="0.05"/><text x="1.0" y="2.95" class="label">Buildings</text></g>
<g class="toggle disabled"><rect x="0.4" y="3.3499999999999996" width="0.4" height="0.4" fill="#222" stroke="#222" stroke-width="0.05"/><text x="1.0" y="3.75" class="label">Walls</text></g>
<g class="toggle" onclick="toggleLayer('tree')"><rect x="0.4" y="4.1499999999999995" width="0.4" height="0.4" fill="#222" stroke="#222" stroke-width="0.05"/><text x="1.0" y="4.55" class="label">Trees</text></g>
<g class="toggle disabled"><rect x="0.4" y="4.949999999999999" width="0.4" height="0.4" fill="#222" stroke="#222" stroke-width="0.05"/><text x="1.0" y="5.35" class="label">Rocks</text></g>
<g class="toggle" onclick="toggleLayer('shrub')"><rect x="0.4" y="5.749999999999999" width="0.4" height="0.4" fill="#222" stroke="#222" stroke-width="0.05"/><text x="1.0" y="6.1499999999999995" class="label">Shrubs</text></g>
<g class="toggle" onclick="toggleLayer('terrain')"><rect x="0.4" y="6.549999999999999" width="0.4" height="0.4" fill="#222" stroke="#222" stroke-width="0.05"/><text x="1.0" y="6.949999999999999" class="label">Other Terrain</text></g>
<g class="toggle" onclick="toggleLayer('models')"><rect x="0.4" y="7.349999999999999" width="0.4" height="0.4" fill="#222" stroke="#222" stroke-width="0.05"/><text x="1.0" y="7.749999999999999" class="label">Models</text></g>
<g class="toggle" onclick="toggleLayer('paths')"><rect x="0.4" y="8.15" width="0.4" height="0.4" fill="#222" stroke="#222" stroke-width="0.05"/><text x="1.0" y="8.549999999999999" class="label">Paths</text></g>
<g class="toggle" onclick="toggleLayer('vectors')"><rect x="0.4" y="8.950000000000001" width="0.4" height="0.4" fill="#222" stroke="#222" stroke-width="0.05"/><text x="1.0" y="9.35" class="label">Vectors</text></g>
<g class="toggle" onclick="toggleLayer('los')"><rect x="0.4" y="9.750000000000002" width="0.4" height="0.4" fill="#222" stroke="#222" stroke-width="0.05"/><text x="1.0" y="10.15" class="label">LOS</text></g>
<g class="toggle" onclick="toggleLayer('lof')"><rect x="0.4" y="10.550000000000002" width="0.4" height="0.4" fill="#222" stroke="#222" stroke-width="0.05"/><text x="1.0" y="10.950000000000001" class="label">LOF</text></g>
</g>
</svg>