<svg xmlns="http://www.w3.org/2000/svg" viewBox="0 0 24 24" width="960" height="960" font-family="Arial" font-size="0.6">
<defs>
  <style><![CDATA[
    .layer { display: inline; }
    .layer.hidden { display: none; }
    .grid-line { stroke: #999; stroke-width: 0.02; opacity: 0.2; }
    .delaunay-line { stroke: #4a6fa5; stroke-width: 0.03; opacity: 0.3; }
    .terrain-area { stroke: #000; stroke-width: 0.05; }
    .terrain-solid { stroke: #000; stroke-width: 0.05; }
    .model { stroke: #ff0000; stroke-width: 2; vector-effect: non-scaling-stroke; }
    .path { fill: none; stroke-width: 0.12; }
    .vector { stroke-width: 0.1; }
    .los-ray { stroke-width: 0.08; stroke-dasharray: 0.2 0.2; }
    .lof-ray { stroke-width: 0.08; stroke-dasharray: 0.3 0.15; }
    .label { fill: #111 !important; font-size: 0.6px; }
    .toggle { cursor: pointer; }
    .toggle.disabled { cursor: default; }
    .toggle.disabled rect { stroke: #ccc; fill: #fff; }
    .toggle.disabled text { fill: #ccc; }
#layer-area { fill: #C49A6C; }
#layer-building { fill: #000000; }
#layer-wall { fill: #555555; }
#layer-tree { fill: #90EE90; }
  ]]></style>
</defs>
<rect x="0" y="0" width="24" height="24" fill="#ffffff" stroke="#111" stroke-width="0.05"/>
<script><![CDATA[
      function toggleLayer(id) {
        var layer = document.getElementById('layer-' + id);
        if (!layer) return;
        if (layer.classList.contains('hidden')) {
          layer.classList.remove('hidden');
        } else {
          layer.classList.add('hidden');
        }
      }
    ]]></script>
<text x="0.4" y="23.6" class="label">Battlefield 24x24 density 50 blockLOS 100</text>
<g id="layer-grid" class="layer ">
<line x1="0" y1="0" x2="0" y2="24" class="grid-line"/>
<line x1="0.5" y1="0" x2="0.5" y2="24" class="grid-line"/>
<line x1="1" y1="0" x2="1" y2="24" class="grid-line"/>
<line x1="1.5" y1="0" x2="1.5" y2="24" class="grid-line"/>
<line x1="2" y1="0" x2="2" y2="24" class="grid-line"/>
<line x1="2.5" y1="0" x2="2.5" y2="24" class="grid-line"/>
<line x1="3" y1="0" x2="3" y2="24" class="grid-line"/>
<line x1="3.5" y1="0" x2="3.5" y2="24" class="grid-line"/>
<line x1="4" y1="0" x2="4" y2="24" class="grid-line"/>
<line x1="4.5" y1="0" x2="4.5" y2="24" class="grid-line"/>
<line x1="5" y1="0" x2="5" y2="24" class="grid-line"/>
<line x1="5.5" y1="0" x2="5.5" y2="24" class="grid-line"/>
<line x1="6" y1="0" x2="6" y2="24" class="grid-line"/>
<line x1="6.5" y1="0" x2="6.5" y2="24" class="grid-line"/>
<line x1="7" y1="0" x2="7" y2="24" class="grid-line"/>
<line x1="7.5" y1="0" x2="7.5" y2="24" class="grid-line"/>
<line x1="8" y1="0" x2="8" y2="24" class="grid-line"/>
<line x1="8.5" y1="0" x2="8.5" y2="24" class="grid-line"/>
<line x1="9" y1="0" x2="9" y2="24" class="grid-line"/>
<line x1="9.5" y1="0" x2="9.5" y2="24" class="grid-line"/>
<line x1="10" y1="0" x2="10" y2="24" class="grid-line"/>
<line x1="10.5" y1="0" x2="10.5" y2="24" class="grid-line"/>
<line x1="11" y1="0" x2="11" y2="24" class="grid-line"/>
<line x1="11.5" y1="0" x2="11.5" y2="24" class="grid-line"/>
<line x1="12" y1="0" x2="12" y2="24" class="grid-line"/>
<line x1="12.5" y1="0" x2="12.5" y2="24" class="grid-line"/>
<line x1="13" y1="0" x2="13" y2="24" class="grid-line"/>
<line x1="13.5" y1="0" x2="13.5" y2="24" class="grid-line"/>
<line x1="14" y1="0" x2="14" y2="24" class="grid-line"/>
<line x1="14.5" y1="0" x2="14.5" y2="24" class="grid-line"/>
<line x1="15" y1="0" x2="15" y2="24" class="grid-line"/>
<line x1="15.5" y1="0" x2="15.5" y2="24" class="grid-line"/>
<line x1="16" y1="0" x2="16" y2="24" class="grid-line"/>
<line x1="16.5" y1="0" x2="16.5" y2="24" class="grid-line"/>
<line x1="17" y1="0" x2="17" y2="24" class="grid-line"/>
<line x1="17.5" y1="0" x2="17.5" y2="24" class="grid-line"/>
<line x1="18" y1="0" x2="18" y2="24" class="grid-line"/>
<line x1="18.5" y1="0" x2="18.5" y2="24" class="grid-line"/>
<line x1="19" y1="0" x2="19" y2="24" class="grid-line"/>
<line x1="19.5" y1="0" x2="19.5" y2="24" class="grid-line"/>
<line x1="20" y1="0" x2="20" y2="24" class="grid-line"/>
<line x1="20.5" y1="0" x2="20.5" y2="24" class="grid-line"/>
<line x1="21" y1="0" x2="21" y2="24" class="grid-line"/>
<line x1="21.5" y1="0" x2="21.5" y2="24" class="grid-line"/>
<line x1="22" y1="0" x2="22" y2="24" class="grid-line"/>
<line x1="22.5" y1="0" x2="22.5" y2="24" class="grid-line"/>
<line x1="23" y1="0" x2="23" y2="24" class="grid-line"/>
<line x1="23.5" y1="0" x2="23.5" y2="24" class="grid-line"/>
<line x1="24" y1="0" x2="24" y2="24" class="grid-line"/>
<line x1="0" y1="0" x2="24" y2="0" class="grid-line"/>
<line x1="0" y1="0.5" x2="24" y2="0.5" class="grid-line"/>
<line x1="0" y1="1" x2="24" y2="1" class="grid-line"/>
<line x1="0" y1="1.5" x2="24" y2="1.5" class="grid-line"/>
<line x1="0" y1="2" x2="24" y2="2" class="grid-line"/>
<line x1="0" y1="2.5" x2="24" y2="2.5" class="grid-line"/>
<line x1="0" y1="3" x2="24" y2="3" class="grid-line"/>
<line x1="0" y1="3.5" x2="24" y2="3.5" class="grid-line"/>
<line x1="0" y1="4" x2="24" y2="4" class="grid-line"/>
<line x1="0" y1="4.5" x2="24" y2="4.5" class="grid-line"/>
<line x1="0" y1="5" x2="24" y2="5" class="grid-line"/>
<line x1="0" y1="5.5" x2="24" y2="5.5" class="grid-line"/>
<line x1="0" y1="6" x2="24" y2="6" class="grid-line"/>
<line x1="0" y1="6.5" x2="24" y2="6.5" class="grid-line"/>
<line x1="0" y1="7" x2="24" y2="7" class="grid-line"/>
<line x1="0" y1="7.5" x2="24" y2="7.5" class="grid-line"/>
<line x1="0" y1="8" x2="24" y2="8" class="grid-line"/>
<line x1="0" y1="8.5" x2="24" y2="8.5" class="grid-line"/>
<line x1="0" y1="9" x2="24" y2="9" class="grid-line"/>
<line x1="0" y1="9.5" x2="24" y2="9.5" class="grid-line"/>
<line x1="0" y1="10" x2="24" y2="10" class="grid-line"/>
<line x1="0" y1="10.5" x2="24" y2="10.5" class="grid-line"/>
<line x1="0" y1="11" x2="24" y2="11" class="grid-line"/>
<line x1="0" y1="11.5" x2="24" y2="11.5" class="grid-line"/>
<line x1="0" y1="12" x2="24" y2="12" class="grid-line"/>
<line x1="0" y1="12.5" x2="24" y2="12.5" class="grid-line"/>
<line x1="0" y1="13" x2="24" y2="13" class="grid-line"/>
<line x1="0" y1="13.5" x2="24" y2="13.5" class="grid-line"/>
<line x1="0" y1="14" x2="24" y2="14" class="grid-line"/>
<line x1="0" y1="14.5" x2="24" y2="14.5" class="grid-line"/>
<line x1="0" y1="15" x2="24" y2="15" class="grid-line"/>
<line x1="0" y1="15.5" x2="24" y2="15.5" class="grid-line"/>
<line x1="0" y1="16" x2="24" y2="16" class="grid-line"/>
<line x1="0" y1="16.5" x2="24" y2="16.5" class="grid-line"/>
<line x1="0" y1="17" x2="24" y2="17" class="grid-line"/>
<line x1="0" y1="17.5" x2="24" y2="17.5" class="grid-line"/>
<line x1="0" y1="18" x2="24" y2="18" class="grid-line"/>
<line x1="0" y1="18.5" x2="24" y2="18.5" class="grid-line"/>
<line x1="0" y1="19" x2="24" y2="19" class="grid-line"/>
<line x1="0" y1="19.5" x2="24" y2="19.5" class="grid-line"/>
<line x1="0" y1="20" x2="24" y2="20" class="grid-line"/>
<line x1="0" y1="20.5" x2="24" y2="20.5" class="grid-line"/>
<line x1="0" y1="21" x2="24" y2="21" class="grid-line"/>
<line x1="0" y1="21.5" x2="24" y2="21.5" class="grid-line"/>
<line x1="0" y1="22" x2="24" y2="22" class="grid-line"/>
<line x1="0" y1="22.5" x2="24" y2="22.5" class="grid-line"/>
<line x1="0" y1="23" x2="24" y2="23" class="grid-line"/>
<line x1="0" y1="23.5" x2="24" y2="23.5" class="grid-line"/>
<line x1="0" y1="24" x2="24" y2="24" class="grid-line"/>
</g>
<g id="layer-delaunay" class="layer ">
<line x1="15.206646659708763" y1="15.39123857099128" x2="15.034074173710932" y2="15.741180954897478" class="delaunay-line"/>
<line x1="15.034074173710932" y1="15.741180954897478" x2="15.5" y2="15.13397459621556" class="delaunay-line"/>
<line x1="15.5" y1="15.13397459621556" x2="15.206646659708763" y2="15.39123857099128" class="delaunay-line"/>
<line x1="16.60876142900872" y1="15.206646659708765" x2="15.869473807779949" y2="15.008555138626189" class="delaunay-line"/>
<line x1="15.869473807779949" y1="15.008555138626189" x2="15.5" y2="15.13397459621556" class="delaunay-line"/>
<line x1="15.5" y1="15.13397459621556" x2="16.60876142900872" y2="15.206646659708765" class="delaunay-line"/>
<line x1="16.60876142900872" y1="15.206646659708765" x2="16.25881904510252" y2="15.03407417371093" class="delaunay-line"/>
<line x1="16.25881904510252" y1="15.03407417371093" x2="15.869473807779949" y2="15.008555138626189" class="delaunay-line"/>
<line x1="15.869473807779949" y1="15.008555138626189" x2="16.60876142900872" y2="15.206646659708765" class="delaunay-line"/>
<line x1="16.60876142900872" y1="15.206646659708765" x2="15.5" y2="15.13397459621556" class="delaunay-line"/>
<line x1="15.5" y1="15.13397459621556" x2="15.034074173710932" y2="15.741180954897478" class="delaunay-line"/>
<line x1="15.034074173710932" y1="15.741180954897478" x2="16.60876142900872" y2="15.206646659708765" class="delaunay-line"/>
<line x1="15.74118095489748" y1="16.965925826289066" x2="16.60876142900872" y2="15.206646659708765" class="delaunay-line"/>
<line x1="16.60876142900872" y1="15.206646659708765" x2="15.034074173710932" y2="15.741180954897478" class="delaunay-line"/>
<line x1="15.034074173710932" y1="15.741180954897478" x2="15.74118095489748" y2="16.965925826289066" class="delaunay-line"/>
<line x1="15.008555138626189" y1="16.130526192220053" x2="15.13397459621556" y2="16.5" class="delaunay-line"/>
<line x1="15.13397459621556" y1="16.5" x2="15.034074173710932" y2="15.741180954897478" class="delaunay-line"/>
<line x1="15.034074173710932" y1="15.741180954897478" x2="15.008555138626189" y2="16.130526192220053" class="delaunay-line"/>
<line x1="15.13397459621556" y1="16.5" x2="15.74118095489748" y2="16.965925826289066" class="delaunay-line"/>
<line x1="15.74118095489748" y1="16.965925826289066" x2="15.034074173710932" y2="15.741180954897478" class="delaunay-line"/>
<line x1="15.034074173710932" y1="15.741180954897478" x2="15.13397459621556" y2="16.5" class="delaunay-line"/>
<line x1="16.793353340291233" y1="16.60876142900872" x2="16.866025403784437" y2="15.5" class="delaunay-line"/>
<line x1="16.866025403784437" y1="15.5" x2="16.60876142900872" y2="15.206646659708765" class="delaunay-line"/>
<line x1="16.60876142900872" y1="15.206646659708765" x2="16.793353340291233" y2="16.60876142900872" class="delaunay-line"/>
<line x1="15.13397459621556" y1="16.5" x2="15.39123857099128" y2="16.793353340291237" class="delaunay-line"/>
<line x1="15.39123857099128" y1="16.793353340291237" x2="15.74118095489748" y2="16.965925826289066" class="delaunay-line"/>
<line x1="15.74118095489748" y1="16.965925826289066" x2="15.13397459621556" y2="16.5" class="delaunay-line"/>
<line x1="15.74118095489748" y1="16.965925826289066" x2="16.793353340291233" y2="16.60876142900872" class="delaunay-line"/>
<line x1="16.793353340291233" y1="16.60876142900872" x2="16.60876142900872" y2="15.206646659708765" class="delaunay-line"/>
<line x1="16.60876142900872" y1="15.206646659708765" x2="15.74118095489748" y2="16.965925826289066" class="delaunay-line"/>
<line x1="16.793353340291233" y1="16.60876142900872" x2="16.99144486137381" y2="15.86947380777995" class="delaunay-line"/>
<line x1="16.99144486137381" y1="15.86947380777995" x2="16.866025403784437" y2="15.5" class="delaunay-line"/>
<line x1="16.866025403784437" y1="15.5" x2="16.793353340291233" y2="16.60876142900872" class="delaunay-line"/>
<line x1="15.74118095489748" y1="16.965925826289066" x2="16.5" y2="16.866025403784437" class="delaunay-line"/>
<line x1="16.5" y1="16.866025403784437" x2="16.793353340291233" y2="16.60876142900872" class="delaunay-line"/>
<line x1="16.793353340291233" y1="16.60876142900872" x2="15.74118095489748" y2="16.965925826289066" class="delaunay-line"/>
<line x1="15.74118095489748" y1="16.965925826289066" x2="16.13052619222005" y2="16.99144486137381" class="delaunay-line"/>
<line x1="16.13052619222005" y1="16.99144486137381" x2="16.5" y2="16.866025403784437" class="delaunay-line"/>
<line x1="16.5" y1="16.866025403784437" x2="15.74118095489748" y2="16.965925826289066" class="delaunay-line"/>
<line x1="16.793353340291233" y1="16.60876142900872" x2="16.96592582628907" y2="16.25881904510252" class="delaunay-line"/>
<line x1="16.96592582628907" y1="16.25881904510252" x2="16.99144486137381" y2="15.86947380777995" class="delaunay-line"/>
<line x1="16.99144486137381" y1="15.86947380777995" x2="16.793353340291233" y2="16.60876142900872" class="delaunay-line"/>
<line x1="13.382683432365088" y1="21.07612046748871" x2="15.29621578270216" y2="17.341384152152592" class="delaunay-line"/>
<line x1="15.29621578270216" y1="17.341384152152592" x2="13" y2="21" class="delaunay-line"/>
<line x1="13" y1="21" x2="13.382683432365088" y2="21.07612046748871" class="delaunay-line"/>
<line x1="15.13397459621556" y1="16.5" x2="15.29621578270216" y2="17.341384152152592" class="delaunay-line"/>
<line x1="15.29621578270216" y1="17.341384152152592" x2="15.39123857099128" y2="16.793353340291237" class="delaunay-line"/>
<line x1="15.39123857099128" y1="16.793353340291237" x2="15.13397459621556" y2="16.5" class="delaunay-line"/>
<line x1="15.39123857099128" y1="16.793353340291237" x2="15.29621578270216" y2="17.341384152152592" class="delaunay-line"/>
<line x1="15.29621578270216" y1="17.341384152152592" x2="15.74118095489748" y2="16.965925826289066" class="delaunay-line"/>
<line x1="15.74118095489748" y1="16.965925826289066" x2="15.39123857099128" y2="16.793353340291237" class="delaunay-line"/>
<line x1="15.74118095489748" y1="16.965925826289066" x2="15.29621578270216" y2="17.341384152152592" class="delaunay-line"/>
<line x1="15.29621578270216" y1="17.341384152152592" x2="16.13052619222005" y2="16.99144486137381" class="delaunay-line"/>
<line x1="16.13052619222005" y1="16.99144486137381" x2="15.74118095489748" y2="16.965925826289066" class="delaunay-line"/>
<line x1="16.13052619222005" y1="16.99144486137381" x2="13.923879532511286" y2="21.617316567634912" class="delaunay-line"/>
<line x1="13.923879532511286" y1="21.617316567634912" x2="16.5" y2="16.866025403784437" class="delaunay-line"/>
<line x1="16.5" y1="16.866025403784437" x2="16.13052619222005" y2="16.99144486137381" class="delaunay-line"/>
<line x1="13" y1="21" x2="15.29621578270216" y2="17.341384152152592" class="delaunay-line"/>
<line x1="15.29621578270216" y1="17.341384152152592" x2="12.61731656763491" y2="21.076120467488714" class="delaunay-line"/>
<line x1="12.61731656763491" y1="21.076120467488714" x2="13" y2="21" class="delaunay-line"/>
<line x1="15.29621578270216" y1="17.341384152152592" x2="13.923879532511286" y2="21.617316567634912" class="delaunay-line"/>
<line x1="13.923879532511286" y1="21.617316567634912" x2="16.13052619222005" y2="16.99144486137381" class="delaunay-line"/>
<line x1="16.13052619222005" y1="16.99144486137381" x2="15.29621578270216" y2="17.341384152152592" class="delaunay-line"/>
<line x1="16.5" y1="16.866025403784437" x2="24" y2="24" class="delaunay-line"/>
<line x1="24" y1="24" x2="16.793353340291233" y2="16.60876142900872" class="delaunay-line"/>
<line x1="16.793353340291233" y1="16.60876142900872" x2="16.5" y2="16.866025403784437" class="delaunay-line"/>
<line x1="15.29621578270216" y1="17.341384152152592" x2="15.13397459621556" y2="16.5" class="delaunay-line"/>
<line x1="15.13397459621556" y1="16.5" x2="12.61731656763491" y2="21.076120467488714" class="delaunay-line"/>
<line x1="12.61731656763491" y1="21.076120467488714" x2="15.29621578270216" y2="17.341384152152592" class="delaunay-line"/>
<line x1="16.99144486137381" y1="15.86947380777995" x2="21.206646659708767" y2="13.608761429008721" class="delaunay-line"/>
<line x1="21.206646659708767" y1="13.608761429008721" x2="16.866025403784437" y2="15.5" class="delaunay-line"/>
<line x1="16.866025403784437" y1="15.5" x2="16.99144486137381" y2="15.86947380777995" class="delaunay-line"/>
<line x1="16.866025403784437" y1="15.5" x2="21.03407417371093" y2="13.258819045102522" class="delaunay-line"/>
<line x1="21.03407417371093" y1="13.258819045102522" x2="16.60876142900872" y2="15.206646659708765" class="delaunay-line"/>
<line x1="16.60876142900872" y1="15.206646659708765" x2="16.866025403784437" y2="15.5" class="delaunay-line"/>
<line x1="16.60876142900872" y1="15.206646659708765" x2="21.008555138626193" y2="12.869473807779949" class="delaunay-line"/>
<line x1="21.008555138626193" y1="12.869473807779949" x2="16.25881904510252" y2="15.03407417371093" class="delaunay-line"/>
<line x1="16.25881904510252" y1="15.03407417371093" x2="16.60876142900872" y2="15.206646659708765" class="delaunay-line"/>
<line x1="16.25881904510252" y1="15.03407417371093" x2="18.40204432393241" y2="5.750274236683772" class="delaunay-line"/>
<line x1="18.40204432393241" y1="5.750274236683772" x2="15.869473807779949" y2="15.008555138626189" class="delaunay-line"/>
<line x1="15.869473807779949" y1="15.008555138626189" x2="16.25881904510252" y2="15.03407417371093" class="delaunay-line"/>
<line x1="21.500000000000004" y1="13.866025403784437" x2="21.206646659708767" y2="13.608761429008721" class="delaunay-line"/>
<line x1="21.206646659708767" y1="13.608761429008721" x2="16.99144486137381" y2="15.86947380777995" class="delaunay-line"/>
<line x1="16.99144486137381" y1="15.86947380777995" x2="21.500000000000004" y2="13.866025403784437" class="delaunay-line"/>
<line x1="21.500000000000004" y1="13.866025403784437" x2="16.99144486137381" y2="15.86947380777995" class="delaunay-line"/>
<line x1="16.99144486137381" y1="15.86947380777995" x2="16.96592582628907" y2="16.25881904510252" class="delaunay-line"/>
<line x1="16.96592582628907" y1="16.25881904510252" x2="21.500000000000004" y2="13.866025403784437" class="delaunay-line"/>
<line x1="21.500000000000004" y1="13.866025403784437" x2="16.96592582628907" y2="16.25881904510252" class="delaunay-line"/>
<line x1="16.96592582628907" y1="16.25881904510252" x2="21.869473807779947" y2="13.991444861373811" class="delaunay-line"/>
<line x1="21.869473807779947" y1="13.991444861373811" x2="21.500000000000004" y2="13.866025403784437" class="delaunay-line"/>
<line x1="21.206646659708767" y1="13.608761429008721" x2="21.03407417371093" y2="13.258819045102522" class="delaunay-line"/>
<line x1="21.03407417371093" y1="13.258819045102522" x2="16.866025403784437" y2="15.5" class="delaunay-line"/>
<line x1="16.866025403784437" y1="15.5" x2="21.206646659708767" y2="13.608761429008721" class="delaunay-line"/>
<line x1="13.382683432365088" y1="21.07612046748871" x2="13.707106781186548" y2="21.292893218813454" class="delaunay-line"/>
<line x1="13.707106781186548" y1="21.292893218813454" x2="15.29621578270216" y2="17.341384152152592" class="delaunay-line"/>
<line x1="15.29621578270216" y1="17.341384152152592" x2="13.382683432365088" y2="21.07612046748871" class="delaunay-line"/>
<line x1="12.61731656763491" y1="21.076120467488714" x2="15.13397459621556" y2="16.5" class="delaunay-line"/>
<line x1="15.13397459621556" y1="16.5" x2="15.008555138626189" y2="16.130526192220053" class="delaunay-line"/>
<line x1="15.008555138626189" y1="16.130526192220053" x2="12.61731656763491" y2="21.076120467488714" class="delaunay-line"/>
<line x1="13.382683432365088" y1="21.07612046748871" x2="13" y2="21" class="delaunay-line"/>
<line x1="13" y1="21" x2="13.707106781186548" y2="21.292893218813454" class="delaunay-line"/>
<line x1="13.707106781186548" y1="21.292893218813454" x2="13.382683432365088" y2="21.07612046748871" class="delaunay-line"/>
<line x1="21.869473807779947" y1="13.991444861373811" x2="16.96592582628907" y2="16.25881904510252" class="delaunay-line"/>
<line x1="16.96592582628907" y1="16.25881904510252" x2="16.793353340291233" y2="16.60876142900872" class="delaunay-line"/>
<line x1="16.793353340291233" y1="16.60876142900872" x2="21.869473807779947" y2="13.991444861373811" class="delaunay-line"/>
<line x1="21.206646659708767" y1="13.608761429008721" x2="21.008555138626193" y2="12.869473807779949" class="delaunay-line"/>
<line x1="21.008555138626193" y1="12.869473807779949" x2="21.03407417371093" y2="13.258819045102522" class="delaunay-line"/>
<line x1="21.03407417371093" y1="13.258819045102522" x2="21.206646659708767" y2="13.608761429008721" class="delaunay-line"/>
<line x1="21.500000000000004" y1="13.866025403784437" x2="21.008555138626193" y2="12.869473807779949" class="delaunay-line"/>
<line x1="21.008555138626193" y1="12.869473807779949" x2="21.206646659708767" y2="13.608761429008721" class="delaunay-line"/>
<line x1="21.206646659708767" y1="13.608761429008721" x2="21.500000000000004" y2="13.866025403784437" class="delaunay-line"/>
<line x1="21.03407417371093" y1="13.258819045102522" x2="21.008555138626193" y2="12.869473807779949" class="delaunay-line"/>
<line x1="21.008555138626193" y1="12.869473807779949" x2="16.60876142900872" y2="15.206646659708765" class="delaunay-line"/>
<line x1="16.60876142900872" y1="15.206646659708765" x2="21.03407417371093" y2="13.258819045102522" class="delaunay-line"/>
<line x1="15.869473807779949" y1="15.008555138626189" x2="18.40204432393241" y2="5.750274236683772" class="delaunay-line"/>
<line x1="18.40204432393241" y1="5.750274236683772" x2="15.5" y2="15.13397459621556" class="delaunay-line"/>
<line x1="15.5" y1="15.13397459621556" x2="15.869473807779949" y2="15.008555138626189" class="delaunay-line"/>
<line x1="12.61731656763491" y1="21.076120467488714" x2="13.923879532511286" y2="21.617316567634912" class="delaunay-line"/>
<line x1="13.923879532511286" y1="21.617316567634912" x2="13.707106781186548" y2="21.292893218813454" class="delaunay-line"/>
<line x1="13.707106781186548" y1="21.292893218813454" x2="12.61731656763491" y2="21.076120467488714" class="delaunay-line"/>
<line x1="13.707106781186548" y1="21.292893218813454" x2="13.923879532511286" y2="21.617316567634912" class="delaunay-line"/>
<line x1="13.923879532511286" y1="21.617316567634912" x2="15.29621578270216" y2="17.341384152152592" class="delaunay-line"/>
<line x1="15.29621578270216" y1="17.341384152152592" x2="13.707106781186548" y2="21.292893218813454" class="delaunay-line"/>
<line x1="12.292893218813452" y1="21.292893218813454" x2="12.61731656763491" y2="21.076120467488714" class="delaunay-line"/>
<line x1="12.61731656763491" y1="21.076120467488714" x2="5" y2="16" class="delaunay-line"/>
<line x1="5" y1="16" x2="12.292893218813452" y2="21.292893218813454" class="delaunay-line"/>
<line x1="13" y1="21" x2="12.61731656763491" y2="21.076120467488714" class="delaunay-line"/>
<line x1="12.61731656763491" y1="21.076120467488714" x2="13.707106781186548" y2="21.292893218813454" class="delaunay-line"/>
<line x1="13.707106781186548" y1="21.292893218813454" x2="13" y2="21" class="delaunay-line"/>
<line x1="22.25881904510252" y1="13.965925826289068" x2="21.869473807779947" y2="13.991444861373811" class="delaunay-line"/>
<line x1="21.869473807779947" y1="13.991444861373811" x2="24" y2="24" class="delaunay-line"/>
<line x1="24" y1="24" x2="22.25881904510252" y2="13.965925826289068" class="delaunay-line"/>
<line x1="21.391238570991277" y1="12.206646659708767" x2="21.133974596215563" y2="12.5" class="delaunay-line"/>
<line x1="21.133974596215563" y1="12.5" x2="21.74118095489748" y2="12.034074173710932" class="delaunay-line"/>
<line x1="21.74118095489748" y1="12.034074173710932" x2="21.391238570991277" y2="12.206646659708767" class="delaunay-line"/>
<line x1="22.991444861373807" y1="13.130526192220051" x2="21.008555138626193" y2="12.869473807779949" class="delaunay-line"/>
<line x1="21.008555138626193" y1="12.869473807779949" x2="21.500000000000004" y2="13.866025403784437" class="delaunay-line"/>
<line x1="21.500000000000004" y1="13.866025403784437" x2="22.991444861373807" y2="13.130526192220051" class="delaunay-line"/>
<line x1="21.008555138626193" y1="12.869473807779949" x2="21.133974596215563" y2="12.5" class="delaunay-line"/>
<line x1="21.133974596215563" y1="12.5" x2="16.25881904510252" y2="15.03407417371093" class="delaunay-line"/>
<line x1="16.25881904510252" y1="15.03407417371093" x2="21.008555138626193" y2="12.869473807779949" class="delaunay-line"/>
<line x1="13.707106781186548" y1="22.707106781186546" x2="14" y2="22" class="delaunay-line"/>
<line x1="14" y1="22" x2="13.923879532511286" y2="21.617316567634912" class="delaunay-line"/>
<line x1="13.923879532511286" y1="21.617316567634912" x2="13.707106781186548" y2="22.707106781186546" class="delaunay-line"/>
<line x1="13.923879532511286" y1="21.617316567634912" x2="14" y2="22" class="delaunay-line"/>
<line x1="14" y1="22" x2="16.5" y2="16.866025403784437" class="delaunay-line"/>
<line x1="16.5" y1="16.866025403784437" x2="13.923879532511286" y2="21.617316567634912" class="delaunay-line"/>
<line x1="5" y1="16" x2="12.61731656763491" y2="21.076120467488714" class="delaunay-line"/>
<line x1="12.61731656763491" y1="21.076120467488714" x2="15.008555138626189" y2="16.130526192220053" class="delaunay-line"/>
<line x1="15.008555138626189" y1="16.130526192220053" x2="5" y2="16" class="delaunay-line"/>
<line x1="12.61731656763491" y1="21.076120467488714" x2="12.076120467488714" y2="22.382683432365088" class="delaunay-line"/>
<line x1="12.076120467488714" y1="22.382683432365088" x2="13.923879532511286" y2="21.617316567634912" class="delaunay-line"/>
<line x1="13.923879532511286" y1="21.617316567634912" x2="12.61731656763491" y2="21.076120467488714" class="delaunay-line"/>
<line x1="12.076120467488712" y1="21.61731656763491" x2="12.292893218813452" y2="21.292893218813454" class="delaunay-line"/>
<line x1="12.292893218813452" y1="21.292893218813454" x2="4.793353340291234" y2="21.391238570991277" class="delaunay-line"/>
<line x1="4.793353340291234" y1="21.391238570991277" x2="12.076120467488712" y2="21.61731656763491" class="delaunay-line"/>
<line x1="24" y1="24" x2="21.869473807779947" y2="13.991444861373811" class="delaunay-line"/>
<line x1="21.869473807779947" y1="13.991444861373811" x2="16.793353340291233" y2="16.60876142900872" class="delaunay-line"/>
<line x1="16.793353340291233" y1="16.60876142900872" x2="24" y2="24" class="delaunay-line"/>
<line x1="21.869473807779947" y1="13.991444861373811" x2="22.25881904510252" y2="13.965925826289068" class="delaunay-line"/>
<line x1="22.25881904510252" y1="13.965925826289068" x2="21.500000000000004" y2="13.866025403784437" class="delaunay-line"/>
<line x1="21.500000000000004" y1="13.866025403784437" x2="21.869473807779947" y2="13.991444861373811" class="delaunay-line"/>
<line x1="21.74118095489748" y1="12.034074173710932" x2="21.133974596215563" y2="12.5" class="delaunay-line"/>
<line x1="21.133974596215563" y1="12.5" x2="21.008555138626193" y2="12.869473807779949" class="delaunay-line"/>
<line x1="21.008555138626193" y1="12.869473807779949" x2="21.74118095489748" y2="12.034074173710932" class="delaunay-line"/>
<line x1="21.133974596215563" y1="12.5" x2="18.40204432393241" y2="5.750274236683772" class="delaunay-line"/>
<line x1="18.40204432393241" y1="5.750274236683772" x2="16.25881904510252" y2="15.03407417371093" class="delaunay-line"/>
<line x1="16.25881904510252" y1="15.03407417371093" x2="21.133974596215563" y2="12.5" class="delaunay-line"/>
<line x1="13.707106781186548" y1="22.707106781186546" x2="13.923879532511288" y2="22.38268343236509" class="delaunay-line"/>
<line x1="13.923879532511288" y1="22.38268343236509" x2="14" y2="22" class="delaunay-line"/>
<line x1="14" y1="22" x2="13.707106781186548" y2="22.707106781186546" class="delaunay-line"/>
<line x1="14" y1="22" x2="24" y2="24" class="delaunay-line"/>
<line x1="24" y1="24" x2="16.5" y2="16.866025403784437" class="delaunay-line"/>
<line x1="16.5" y1="16.866025403784437" x2="14" y2="22" class="delaunay-line"/>
<line x1="5" y1="16" x2="15.008555138626189" y2="16.130526192220053" class="delaunay-line"/>
<line x1="15.008555138626189" y1="16.130526192220053" x2="15.034074173710932" y2="15.741180954897478" class="delaunay-line"/>
<line x1="15.034074173710932" y1="15.741180954897478" x2="5" y2="16" class="delaunay-line"/>
<line x1="13.38268343236509" y1="22.923879532511286" x2="13.707106781186548" y2="22.707106781186546" class="delaunay-line"/>
<line x1="13.707106781186548" y1="22.707106781186546" x2="13.923879532511286" y2="21.617316567634912" class="delaunay-line"/>
<line x1="13.923879532511286" y1="21.617316567634912" x2="13.38268343236509" y2="22.923879532511286" class="delaunay-line"/>
<line x1="24" y1="24" x2="22.608761429008723" y2="13.793353340291233" class="delaunay-line"/>
<line x1="22.608761429008723" y1="13.793353340291233" x2="22.25881904510252" y2="13.965925826289068" class="delaunay-line"/>
<line x1="22.25881904510252" y1="13.965925826289068" x2="24" y2="24" class="delaunay-line"/>
<line x1="22.25881904510252" y1="13.965925826289068" x2="22.991444861373807" y2="13.130526192220051" class="delaunay-line"/>
<line x1="22.991444861373807" y1="13.130526192220051" x2="21.500000000000004" y2="13.866025403784437" class="delaunay-line"/>
<line x1="21.500000000000004" y1="13.866025403784437" x2="22.25881904510252" y2="13.965925826289068" class="delaunay-line"/>
<line x1="22.499999999999996" y1="12.133974596215563" x2="21.74118095489748" y2="12.034074173710932" class="delaunay-line"/>
<line x1="21.74118095489748" y1="12.034074173710932" x2="21.008555138626193" y2="12.869473807779949" class="delaunay-line"/>
<line x1="21.008555138626193" y1="12.869473807779949" x2="22.499999999999996" y2="12.133974596215563" class="delaunay-line"/>
<line x1="13.38268343236509" y1="22.923879532511286" x2="13.923879532511286" y2="21.617316567634912" class="delaunay-line"/>
<line x1="13.923879532511286" y1="21.617316567634912" x2="12.076120467488714" y2="22.382683432365088" class="delaunay-line"/>
<line x1="12.076120467488714" y1="22.382683432365088" x2="13.38268343236509" y2="22.923879532511286" class="delaunay-line"/>
<line x1="13.923879532511288" y1="22.38268343236509" x2="24" y2="24" class="delaunay-line"/>
<line x1="24" y1="24" x2="14" y2="22" class="delaunay-line"/>
<line x1="14" y1="22" x2="13.923879532511288" y2="22.38268343236509" class="delaunay-line"/>
<line x1="12.076120467488712" y1="21.61731656763491" x2="12" y2="22" class="delaunay-line"/>
<line x1="12" y1="22" x2="12.292893218813452" y2="21.292893218813454" class="delaunay-line"/>
<line x1="12.292893218813452" y1="21.292893218813454" x2="12.076120467488712" y2="21.61731656763491" class="delaunay-line"/>
<line x1="22.608761429008723" y1="13.793353340291233" x2="22.866025403784437" y2="13.5" class="delaunay-line"/>
<line x1="22.866025403784437" y1="13.5" x2="22.25881904510252" y2="13.965925826289068" class="delaunay-line"/>
<line x1="22.25881904510252" y1="13.965925826289068" x2="22.608761429008723" y2="13.793353340291233" class="delaunay-line"/>
<line x1="22.499999999999996" y1="12.133974596215563" x2="22.130526192220053" y2="12.008555138626189" class="delaunay-line"/>
<line x1="22.130526192220053" y1="12.008555138626189" x2="21.74118095489748" y2="12.034074173710932" class="delaunay-line"/>
<line x1="21.74118095489748" y1="12.034074173710932" x2="22.499999999999996" y2="12.133974596215563" class="delaunay-line"/>
<line x1="12.076120467488714" y1="22.382683432365088" x2="12.61731656763491" y2="21.076120467488714" class="delaunay-line"/>
<line x1="12.61731656763491" y1="21.076120467488714" x2="12.292893218813452" y2="21.292893218813454" class="delaunay-line"/>
<line x1="12.292893218813452" y1="21.292893218813454" x2="12.076120467488714" y2="22.382683432365088" class="delaunay-line"/>
<line x1="12" y1="22" x2="12.076120467488714" y2="22.382683432365088" class="delaunay-line"/>
<line x1="12.076120467488714" y1="22.382683432365088" x2="12.292893218813452" y2="21.292893218813454" class="delaunay-line"/>
<line x1="12.292893218813452" y1="21.292893218813454" x2="12" y2="22" class="delaunay-line"/>
<line x1="22.866025403784437" y1="13.5" x2="22.991444861373807" y2="13.130526192220051" class="delaunay-line"/>
<line x1="22.991444861373807" y1="13.130526192220051" x2="22.25881904510252" y2="13.965925826289068" class="delaunay-line"/>
<line x1="22.25881904510252" y1="13.965925826289068" x2="22.866025403784437" y2="13.5" class="delaunay-line"/>
<line x1="22.991444861373807" y1="13.130526192220051" x2="22.499999999999996" y2="12.133974596215563" class="delaunay-line"/>
<line x1="22.499999999999996" y1="12.133974596215563" x2="21.008555138626193" y2="12.869473807779949" class="delaunay-line"/>
<line x1="21.008555138626193" y1="12.869473807779949" x2="22.991444861373807" y2="13.130526192220051" class="delaunay-line"/>
<line x1="12.292893218813452" y1="22.707106781186546" x2="13" y2="23" class="delaunay-line"/>
<line x1="13" y1="23" x2="13.38268343236509" y2="22.923879532511286" class="delaunay-line"/>
<line x1="13.38268343236509" y1="22.923879532511286" x2="12.292893218813452" y2="22.707106781186546" class="delaunay-line"/>
<line x1="12.076120467488714" y1="22.382683432365088" x2="12.292893218813452" y2="22.707106781186546" class="delaunay-line"/>
<line x1="12.292893218813452" y1="22.707106781186546" x2="13.38268343236509" y2="22.923879532511286" class="delaunay-line"/>
<line x1="13.38268343236509" y1="22.923879532511286" x2="12.076120467488714" y2="22.382683432365088" class="delaunay-line"/>
<line x1="22.991444861373807" y1="13.130526192220051" x2="22.793353340291233" y2="12.391238570991279" class="delaunay-line"/>
<line x1="22.793353340291233" y1="12.391238570991279" x2="22.499999999999996" y2="12.133974596215563" class="delaunay-line"/>
<line x1="22.499999999999996" y1="12.133974596215563" x2="22.991444861373807" y2="13.130526192220051" class="delaunay-line"/>
<line x1="22.96592582628907" y1="12.741180954897478" x2="22.793353340291233" y2="12.391238570991279" class="delaunay-line"/>
<line x1="22.793353340291233" y1="12.391238570991279" x2="22.991444861373807" y2="13.130526192220051" class="delaunay-line"/>
<line x1="22.991444861373807" y1="13.130526192220051" x2="22.96592582628907" y2="12.741180954897478" class="delaunay-line"/>
<line x1="12.292893218813452" y1="22.707106781186546" x2="12.617316567634912" y2="22.92387953251129" class="delaunay-line"/>
<line x1="12.617316567634912" y1="22.92387953251129" x2="13" y2="23" class="delaunay-line"/>
<line x1="13" y1="23" x2="12.292893218813452" y2="22.707106781186546" class="delaunay-line"/>
<line x1="22.130526192220053" y1="12.008555138626189" x2="22.499999999999996" y2="12.133974596215563" class="delaunay-line"/>
<line x1="22.499999999999996" y1="12.133974596215563" x2="22.38268343236509" y2="7.923879532511286" class="delaunay-line"/>
<line x1="22.38268343236509" y1="7.923879532511286" x2="22.130526192220053" y2="12.008555138626189" class="delaunay-line"/>
<line x1="22" y1="7.999999999999999" x2="22.130526192220053" y2="12.008555138626189" class="delaunay-line"/>
<line x1="22.130526192220053" y1="12.008555138626189" x2="22.38268343236509" y2="7.923879532511286" class="delaunay-line"/>
<line x1="22.38268343236509" y1="7.923879532511286" x2="22" y2="7.999999999999999" class="delaunay-line"/>
<line x1="22" y1="7.999999999999999" x2="21.74118095489748" y2="12.034074173710932" class="delaunay-line"/>
<line x1="21.74118095489748" y1="12.034074173710932" x2="22.130526192220053" y2="12.008555138626189" class="delaunay-line"/>
<line x1="22.130526192220053" y1="12.008555138626189" x2="22" y2="7.999999999999999" class="delaunay-line"/>
<line x1="22" y1="7.999999999999999" x2="21.617316567634912" y2="7.923879532511288" class="delaunay-line"/>
<line x1="21.617316567634912" y1="7.923879532511288" x2="21.74118095489748" y2="12.034074173710932" class="delaunay-line"/>
<line x1="21.74118095489748" y1="12.034074173710932" x2="22" y2="7.999999999999999" class="delaunay-line"/>
<line x1="21.74118095489748" y1="12.034074173710932" x2="21.617316567634912" y2="7.923879532511288" class="delaunay-line"/>
<line x1="21.617316567634912" y1="7.923879532511288" x2="21.391238570991277" y2="12.206646659708767" class="delaunay-line"/>
<line x1="21.391238570991277" y1="12.206646659708767" x2="21.74118095489748" y2="12.034074173710932" class="delaunay-line"/>
<line x1="21.391238570991277" y1="12.206646659708767" x2="21.292893218813454" y2="7.707106781186548" class="delaunay-line"/>
<line x1="21.292893218813454" y1="7.707106781186548" x2="21.133974596215563" y2="12.5" class="delaunay-line"/>
<line x1="21.133974596215563" y1="12.5" x2="21.391238570991277" y2="12.206646659708767" class="delaunay-line"/>
<line x1="4.923879532511286" y1="15.617316567634909" x2="15.034074173710932" y2="15.741180954897478" class="delaunay-line"/>
<line x1="15.034074173710932" y1="15.741180954897478" x2="15.206646659708763" y2="15.39123857099128" class="delaunay-line"/>
<line x1="15.206646659708763" y1="15.39123857099128" x2="4.923879532511286" y2="15.617316567634909" class="delaunay-line"/>
<line x1="21.617316567634912" y1="7.923879532511288" x2="21.292893218813454" y2="7.707106781186548" class="delaunay-line"/>
<line x1="21.292893218813454" y1="7.707106781186548" x2="21.391238570991277" y2="12.206646659708767" class="delaunay-line"/>
<line x1="21.391238570991277" y1="12.206646659708767" x2="21.617316567634912" y2="7.923879532511288" class="delaunay-line"/>
<line x1="22.38268343236509" y1="7.923879532511286" x2="22.499999999999996" y2="12.133974596215563" class="delaunay-line"/>
<line x1="22.499999999999996" y1="12.133974596215563" x2="22.707106781186546" y2="7.707106781186548" class="delaunay-line"/>
<line x1="22.707106781186546" y1="7.707106781186548" x2="22.38268343236509" y2="7.923879532511286" class="delaunay-line"/>
<line x1="21.617316567634912" y1="7.923879532511288" x2="22" y2="7.999999999999999" class="delaunay-line"/>
<line x1="22" y1="7.999999999999999" x2="21.292893218813454" y2="7.707106781186548" class="delaunay-line"/>
<line x1="21.292893218813454" y1="7.707106781186548" x2="21.617316567634912" y2="7.923879532511288" class="delaunay-line"/>
<line x1="21" y1="7.000000000000001" x2="21.07612046748871" y2="7.382683432365089" class="delaunay-line"/>
<line x1="21.07612046748871" y1="7.382683432365089" x2="21.292893218813454" y2="7.707106781186548" class="delaunay-line"/>
<line x1="21.292893218813454" y1="7.707106781186548" x2="21" y2="7.000000000000001" class="delaunay-line"/>
<line x1="21.292893218813454" y1="7.707106781186548" x2="18.40204432393241" y2="5.750274236683772" class="delaunay-line"/>
<line x1="18.40204432393241" y1="5.750274236683772" x2="21.133974596215563" y2="12.5" class="delaunay-line"/>
<line x1="21.133974596215563" y1="12.5" x2="21.292893218813454" y2="7.707106781186548" class="delaunay-line"/>
<line x1="22.707106781186546" y1="7.707106781186548" x2="22.499999999999996" y2="12.133974596215563" class="delaunay-line"/>
<line x1="22.499999999999996" y1="12.133974596215563" x2="22.793353340291233" y2="12.391238570991279" class="delaunay-line"/>
<line x1="22.793353340291233" y1="12.391238570991279" x2="22.707106781186546" y2="7.707106781186548" class="delaunay-line"/>
<line x1="21.076120467488714" y1="6.617316567634911" x2="21" y2="7.000000000000001" class="delaunay-line"/>
<line x1="21" y1="7.000000000000001" x2="21.292893218813454" y2="7.707106781186548" class="delaunay-line"/>
<line x1="21.292893218813454" y1="7.707106781186548" x2="21.076120467488714" y2="6.617316567634911" class="delaunay-line"/>
<line x1="21.076120467488714" y1="6.617316567634911" x2="21.292893218813454" y2="7.707106781186548" class="delaunay-line"/>
<line x1="21.292893218813454" y1="7.707106781186548" x2="22" y2="7.999999999999999" class="delaunay-line"/>
<line x1="22" y1="7.999999999999999" x2="21.076120467488714" y2="6.617316567634911" class="delaunay-line"/>
<line x1="21.07612046748871" y1="7.382683432365089" x2="18.40204432393241" y2="5.750274236683772" class="delaunay-line"/>
<line x1="18.40204432393241" y1="5.750274236683772" x2="21.292893218813454" y2="7.707106781186548" class="delaunay-line"/>
<line x1="21.292893218813454" y1="7.707106781186548" x2="21.07612046748871" y2="7.382683432365089" class="delaunay-line"/>
<line x1="21" y1="7.000000000000001" x2="18.40204432393241" y2="5.750274236683772" class="delaunay-line"/>
<line x1="18.40204432393241" y1="5.750274236683772" x2="21.07612046748871" y2="7.382683432365089" class="delaunay-line"/>
<line x1="21.07612046748871" y1="7.382683432365089" x2="21" y2="7.000000000000001" class="delaunay-line"/>
<line x1="4.923879532511286" y1="15.617316567634909" x2="5" y2="16" class="delaunay-line"/>
<line x1="5" y1="16" x2="15.034074173710932" y2="15.741180954897478" class="delaunay-line"/>
<line x1="15.034074173710932" y1="15.741180954897478" x2="4.923879532511286" y2="15.617316567634909" class="delaunay-line"/>
<line x1="22.38268343236509" y1="7.923879532511286" x2="22.707106781186546" y2="7.707106781186548" class="delaunay-line"/>
<line x1="22.707106781186546" y1="7.707106781186548" x2="22" y2="7.999999999999999" class="delaunay-line"/>
<line x1="22" y1="7.999999999999999" x2="22.38268343236509" y2="7.923879532511286" class="delaunay-line"/>
<line x1="21" y1="7.000000000000001" x2="21.076120467488714" y2="6.617316567634911" class="delaunay-line"/>
<line x1="21.076120467488714" y1="6.617316567634911" x2="18.40204432393241" y2="5.750274236683772" class="delaunay-line"/>
<line x1="18.40204432393241" y1="5.750274236683772" x2="21" y2="7.000000000000001" class="delaunay-line"/>
<line x1="22.923879532511286" y1="7.38268343236509" x2="22.707106781186546" y2="7.707106781186548" class="delaunay-line"/>
<line x1="22.707106781186546" y1="7.707106781186548" x2="22.793353340291233" y2="12.391238570991279" class="delaunay-line"/>
<line x1="22.793353340291233" y1="12.391238570991279" x2="22.923879532511286" y2="7.38268343236509" class="delaunay-line"/>
<line x1="22.923879532511286" y1="7.38268343236509" x2="22.793353340291233" y2="12.391238570991279" class="delaunay-line"/>
<line x1="22.793353340291233" y1="12.391238570991279" x2="22.96592582628907" y2="12.741180954897478" class="delaunay-line"/>
<line x1="22.96592582628907" y1="12.741180954897478" x2="22.923879532511286" y2="7.38268343236509" class="delaunay-line"/>
<line x1="22.707106781186546" y1="7.707106781186548" x2="21.076120467488714" y2="6.617316567634911" class="delaunay-line"/>
<line x1="21.076120467488714" y1="6.617316567634911" x2="22" y2="7.999999999999999" class="delaunay-line"/>
<line x1="22" y1="7.999999999999999" x2="22.707106781186546" y2="7.707106781186548" class="delaunay-line"/>
<line x1="4.923879532511286" y1="15.617316567634909" x2="15.206646659708763" y2="15.39123857099128" class="delaunay-line"/>
<line x1="15.206646659708763" y1="15.39123857099128" x2="4.707106781186548" y2="15.292893218813452" class="delaunay-line"/>
<line x1="4.707106781186548" y1="15.292893218813452" x2="4.923879532511286" y2="15.617316567634909" class="delaunay-line"/>
<line x1="12.076120467488712" y1="21.61731656763491" x2="4.965925826289069" y2="21.74118095489748" class="delaunay-line"/>
<line x1="4.965925826289069" y1="21.74118095489748" x2="12" y2="22" class="delaunay-line"/>
<line x1="12" y1="22" x2="12.076120467488712" y2="21.61731656763491" class="delaunay-line"/>
<line x1="12" y1="22" x2="4.99144486137381" y2="22.13052619222005" class="delaunay-line"/>
<line x1="4.99144486137381" y1="22.13052619222005" x2="12.076120467488714" y2="22.382683432365088" class="delaunay-line"/>
<line x1="12.076120467488714" y1="22.382683432365088" x2="12" y2="22" class="delaunay-line"/>
<line x1="12.076120467488714" y1="22.382683432365088" x2="4.866025403784437" y2="22.5" class="delaunay-line"/>
<line x1="4.866025403784437" y1="22.5" x2="12.292893218813452" y2="22.707106781186546" class="delaunay-line"/>
<line x1="12.292893218813452" y1="22.707106781186546" x2="12.076120467488714" y2="22.382683432365088" class="delaunay-line"/>
<line x1="23" y1="6.999999999999999" x2="22.923879532511286" y2="7.38268343236509" class="delaunay-line"/>
<line x1="22.923879532511286" y1="7.38268343236509" x2="22.96592582628907" y2="12.741180954897478" class="delaunay-line"/>
<line x1="22.96592582628907" y1="12.741180954897478" x2="23" y2="6.999999999999999" class="delaunay-line"/>
<line x1="22.707106781186546" y1="7.707106781186548" x2="22.923879532511286" y2="7.38268343236509" class="delaunay-line"/>
<line x1="22.923879532511286" y1="7.38268343236509" x2="21.076120467488714" y2="6.617316567634911" class="delaunay-line"/>
<line x1="21.076120467488714" y1="6.617316567634911" x2="22.707106781186546" y2="7.707106781186548" class="delaunay-line"/>
<line x1="22" y1="6.000000000000001" x2="21.292893218813454" y2="6.292893218813452" class="delaunay-line"/>
<line x1="21.292893218813454" y1="6.292893218813452" x2="21.076120467488714" y2="6.617316567634911" class="delaunay-line"/>
<line x1="21.076120467488714" y1="6.617316567634911" x2="22" y2="6.000000000000001" class="delaunay-line"/>
<line x1="21.076120467488714" y1="6.617316567634911" x2="21.292893218813454" y2="6.292893218813452" class="delaunay-line"/>
<line x1="21.292893218813454" y1="6.292893218813452" x2="18.40204432393241" y2="5.750274236683772" class="delaunay-line"/>
<line x1="18.40204432393241" y1="5.750274236683772" x2="21.076120467488714" y2="6.617316567634911" class="delaunay-line"/>
<line x1="5" y1="16" x2="4.923879532511286" y2="16.38268343236509" class="delaunay-line"/>
<line x1="4.923879532511286" y1="16.38268343236509" x2="12.292893218813452" y2="21.292893218813454" class="delaunay-line"/>
<line x1="12.292893218813452" y1="21.292893218813454" x2="5" y2="16" class="delaunay-line"/>
<line x1="4.707106781186548" y1="15.292893218813452" x2="15.206646659708763" y2="15.39123857099128" class="delaunay-line"/>
<line x1="15.206646659708763" y1="15.39123857099128" x2="15.5" y2="15.13397459621556" class="delaunay-line"/>
<line x1="15.5" y1="15.13397459621556" x2="4.707106781186548" y2="15.292893218813452" class="delaunay-line"/>
<line x1="5" y1="16" x2="4.707106781186548" y2="16.707106781186546" class="delaunay-line"/>
<line x1="4.707106781186548" y1="16.707106781186546" x2="4.923879532511286" y2="16.38268343236509" class="delaunay-line"/>
<line x1="4.923879532511286" y1="16.38268343236509" x2="5" y2="16" class="delaunay-line"/>
<line x1="13.38268343236509" y1="22.923879532511286" x2="24" y2="24" class="delaunay-line"/>
<line x1="24" y1="24" x2="13.707106781186548" y2="22.707106781186546" class="delaunay-line"/>
<line x1="13.707106781186548" y1="22.707106781186546" x2="13.38268343236509" y2="22.923879532511286" class="delaunay-line"/>
<line x1="13.707106781186548" y1="22.707106781186546" x2="24" y2="24" class="delaunay-line"/>
<line x1="24" y1="24" x2="13.923879532511288" y2="22.38268343236509" class="delaunay-line"/>
<line x1="13.923879532511288" y1="22.38268343236509" x2="13.707106781186548" y2="22.707106781186546" class="delaunay-line"/>
<line x1="22.608761429008723" y1="13.793353340291233" x2="24" y2="24" class="delaunay-line"/>
<line x1="24" y1="24" x2="22.866025403784437" y2="13.5" class="delaunay-line"/>
<line x1="22.866025403784437" y1="13.5" x2="22.608761429008723" y2="13.793353340291233" class="delaunay-line"/>
<line x1="22.866025403784437" y1="13.5" x2="24" y2="24" class="delaunay-line"/>
<line x1="24" y1="24" x2="22.991444861373807" y2="13.130526192220051" class="delaunay-line"/>
<line x1="22.991444861373807" y1="13.130526192220051" x2="22.866025403784437" y2="13.5" class="delaunay-line"/>
<line x1="22.991444861373807" y1="13.130526192220051" x2="23" y2="6.999999999999999" class="delaunay-line"/>
<line x1="23" y1="6.999999999999999" x2="22.96592582628907" y2="12.741180954897478" class="delaunay-line"/>
<line x1="22.96592582628907" y1="12.741180954897478" x2="22.991444861373807" y2="13.130526192220051" class="delaunay-line"/>
<line x1="13" y1="23" x2="24" y2="24" class="delaunay-line"/>
<line x1="24" y1="24" x2="13.38268343236509" y2="22.923879532511286" class="delaunay-line"/>
<line x1="13.38268343236509" y1="22.923879532511286" x2="13" y2="23" class="delaunay-line"/>
<line x1="18.40204432393241" y1="5.750274236683772" x2="4.707106781186548" y2="15.292893218813452" class="delaunay-line"/>
<line x1="4.707106781186548" y1="15.292893218813452" x2="15.5" y2="15.13397459621556" class="delaunay-line"/>
<line x1="15.5" y1="15.13397459621556" x2="18.40204432393241" y2="5.750274236683772" class="delaunay-line"/>
<line x1="4.382683432365089" y1="15.076120467488714" x2="4.707106781186548" y2="16.707106781186546" class="delaunay-line"/>
<line x1="4.707106781186548" y1="16.707106781186546" x2="5" y2="16" class="delaunay-line"/>
<line x1="5" y1="16" x2="4.382683432365089" y2="15.076120467488714" class="delaunay-line"/>
<line x1="4.382683432365089" y1="15.076120467488714" x2="5" y2="16" class="delaunay-line"/>
<line x1="5" y1="16" x2="4.923879532511286" y2="15.617316567634909" class="delaunay-line"/>
<line x1="4.923879532511286" y1="15.617316567634909" x2="4.382683432365089" y2="15.076120467488714" class="delaunay-line"/>
<line x1="4.923879532511286" y1="16.38268343236509" x2="4.793353340291234" y2="21.391238570991277" class="delaunay-line"/>
<line x1="4.793353340291234" y1="21.391238570991277" x2="12.292893218813452" y2="21.292893218813454" class="delaunay-line"/>
<line x1="12.292893218813452" y1="21.292893218813454" x2="4.923879532511286" y2="16.38268343236509" class="delaunay-line"/>
<line x1="24" y1="0" x2="23" y2="6.999999999999999" class="delaunay-line"/>
<line x1="23" y1="6.999999999999999" x2="22.991444861373807" y2="13.130526192220051" class="delaunay-line"/>
<line x1="22.991444861373807" y1="13.130526192220051" x2="24" y2="0" class="delaunay-line"/>
<line x1="22.923879532511286" y1="7.38268343236509" x2="22" y2="6.000000000000001" class="delaunay-line"/>
<line x1="22" y1="6.000000000000001" x2="21.076120467488714" y2="6.617316567634911" class="delaunay-line"/>
<line x1="21.076120467488714" y1="6.617316567634911" x2="22.923879532511286" y2="7.38268343236509" class="delaunay-line"/>
<line x1="22" y1="6.000000000000001" x2="21.61731656763491" y2="6.076120467488714" class="delaunay-line"/>
<line x1="21.61731656763491" y1="6.076120467488714" x2="21.292893218813454" y2="6.292893218813452" class="delaunay-line"/>
<line x1="21.292893218813454" y1="6.292893218813452" x2="22" y2="6.000000000000001" class="delaunay-line"/>
<line x1="21.292893218813454" y1="6.292893218813452" x2="21.61731656763491" y2="6.076120467488714" class="delaunay-line"/>
<line x1="21.61731656763491" y1="6.076120467488714" x2="18.40204432393241" y2="5.750274236683772" class="delaunay-line"/>
<line x1="18.40204432393241" y1="5.750274236683772" x2="21.292893218813454" y2="6.292893218813452" class="delaunay-line"/>
<line x1="4.000000000000001" y1="17" x2="4.382683432365089" y2="16.92387953251129" class="delaunay-line"/>
<line x1="4.382683432365089" y1="16.92387953251129" x2="4.707106781186548" y2="16.707106781186546" class="delaunay-line"/>
<line x1="4.707106781186548" y1="16.707106781186546" x2="4.000000000000001" y2="17" class="delaunay-line"/>
<line x1="4.707106781186548" y1="16.707106781186546" x2="4.793353340291234" y2="21.391238570991277" class="delaunay-line"/>
<line x1="4.793353340291234" y1="21.391238570991277" x2="4.923879532511286" y2="16.38268343236509" class="delaunay-line"/>
<line x1="4.923879532511286" y1="16.38268343236509" x2="4.707106781186548" y2="16.707106781186546" class="delaunay-line"/>
<line x1="3.9131569295963873" y1="1.8679885601459552" x2="4.382683432365089" y2="15.076120467488714" class="delaunay-line"/>
<line x1="4.382683432365089" y1="15.076120467488714" x2="4.707106781186548" y2="15.292893218813452" class="delaunay-line"/>
<line x1="4.707106781186548" y1="15.292893218813452" x2="3.9131569295963873" y2="1.8679885601459552" class="delaunay-line"/>
<line x1="4.707106781186548" y1="15.292893218813452" x2="4.382683432365089" y2="15.076120467488714" class="delaunay-line"/>
<line x1="4.382683432365089" y1="15.076120467488714" x2="4.923879532511286" y2="15.617316567634909" class="delaunay-line"/>
<line x1="4.923879532511286" y1="15.617316567634909" x2="4.707106781186548" y2="15.292893218813452" class="delaunay-line"/>
<line x1="22.707106781186546" y1="6.292893218813452" x2="22" y2="6.000000000000001" class="delaunay-line"/>
<line x1="22" y1="6.000000000000001" x2="22.923879532511286" y2="7.38268343236509" class="delaunay-line"/>
<line x1="22.923879532511286" y1="7.38268343236509" x2="22.707106781186546" y2="6.292893218813452" class="delaunay-line"/>
<line x1="22.707106781186546" y1="6.292893218813452" x2="22.923879532511286" y2="7.38268343236509" class="delaunay-line"/>
<line x1="22.923879532511286" y1="7.38268343236509" x2="23" y2="6.999999999999999" class="delaunay-line"/>
<line x1="23" y1="6.999999999999999" x2="22.707106781186546" y2="6.292893218813452" class="delaunay-line"/>
<line x1="21.61731656763491" y1="6.076120467488714" x2="21.39123857099128" y2="1.793353340291237" class="delaunay-line"/>
<line x1="21.39123857099128" y1="1.793353340291237" x2="18.40204432393241" y2="5.750274236683772" class="delaunay-line"/>
<line x1="18.40204432393241" y1="5.750274236683772" x2="21.61731656763491" y2="6.076120467488714" class="delaunay-line"/>
<line x1="22.92387953251129" y1="6.617316567634911" x2="22.707106781186546" y2="6.292893218813452" class="delaunay-line"/>
<line x1="22.707106781186546" y1="6.292893218813452" x2="23" y2="6.999999999999999" class="delaunay-line"/>
<line x1="23" y1="6.999999999999999" x2="22.92387953251129" y2="6.617316567634911" class="delaunay-line"/>
<line x1="22.707106781186546" y1="6.292893218813452" x2="22.382683432365088" y2="6.076120467488711" class="delaunay-line"/>
<line x1="22.382683432365088" y1="6.076120467488711" x2="22" y2="6.000000000000001" class="delaunay-line"/>
<line x1="22" y1="6.000000000000001" x2="22.707106781186546" y2="6.292893218813452" class="delaunay-line"/>
<line x1="3.6173165676349104" y1="16.923879532511286" x2="4.000000000000001" y2="17" class="delaunay-line"/>
<line x1="4.000000000000001" y1="17" x2="4.707106781186548" y2="16.707106781186546" class="delaunay-line"/>
<line x1="4.707106781186548" y1="16.707106781186546" x2="3.6173165676349104" y2="16.923879532511286" class="delaunay-line"/>
<line x1="4.499999999999998" y1="21.13397459621556" x2="4.793353340291234" y2="21.391238570991277" class="delaunay-line"/>
<line x1="4.793353340291234" y1="21.391238570991277" x2="4.707106781186548" y2="16.707106781186546" class="delaunay-line"/>
<line x1="4.707106781186548" y1="16.707106781186546" x2="4.499999999999998" y2="21.13397459621556" class="delaunay-line"/>
<line x1="0.8073283883661349" y1="13.459098475614775" x2="4" y2="15" class="delaunay-line"/>
<line x1="4" y1="15" x2="3.9131569295963873" y2="1.8679885601459552" class="delaunay-line"/>
<line x1="3.9131569295963873" y1="1.8679885601459552" x2="0.8073283883661349" y2="13.459098475614775" class="delaunay-line"/>
<line x1="3.2928932188134525" y1="16.707106781186546" x2="3.6173165676349104" y2="16.923879532511286" class="delaunay-line"/>
<line x1="3.6173165676349104" y1="16.923879532511286" x2="4.707106781186548" y2="16.707106781186546" class="delaunay-line"/>
<line x1="4.707106781186548" y1="16.707106781186546" x2="3.2928932188134525" y2="16.707106781186546" class="delaunay-line"/>
<line x1="3.2928932188134525" y1="16.707106781186546" x2="4.707106781186548" y2="16.707106781186546" class="delaunay-line"/>
<line x1="4.707106781186548" y1="16.707106781186546" x2="3.076120467488714" y2="16.382683432365088" class="delaunay-line"/>
<line x1="3.076120467488714" y1="16.382683432365088" x2="3.2928932188134525" y2="16.707106781186546" class="delaunay-line"/>
<line x1="4.499999999999998" y1="21.13397459621556" x2="4.707106781186548" y2="16.707106781186546" class="delaunay-line"/>
<line x1="4.707106781186548" y1="16.707106781186546" x2="4.382683432365089" y2="16.92387953251129" class="delaunay-line"/>
<line x1="4.382683432365089" y1="16.92387953251129" x2="4.499999999999998" y2="21.13397459621556" class="delaunay-line"/>
<line x1="12.292893218813452" y1="22.707106781186546" x2="4.608761429008722" y2="22.793353340291237" class="delaunay-line"/>
<line x1="4.608761429008722" y1="22.793353340291237" x2="12.617316567634912" y2="22.92387953251129" class="delaunay-line"/>
<line x1="12.617316567634912" y1="22.92387953251129" x2="12.292893218813452" y2="22.707106781186546" class="delaunay-line"/>
<line x1="0.8073283883661349" y1="13.459098475614775" x2="3.61731656763491" y2="15.076120467488712" class="delaunay-line"/>
<line x1="3.61731656763491" y1="15.076120467488712" x2="4" y2="15" class="delaunay-line"/>
<line x1="4" y1="15" x2="0.8073283883661349" y2="13.459098475614775" class="delaunay-line"/>
<line x1="4" y1="15" x2="3.2928932188134525" y2="15.292893218813452" class="delaunay-line"/>
<line x1="3.2928932188134525" y1="15.292893218813452" x2="4.382683432365089" y2="15.076120467488714" class="delaunay-line"/>
<line x1="4.382683432365089" y1="15.076120467488714" x2="4" y2="15" class="delaunay-line"/>
<line x1="4.499999999999998" y1="21.13397459621556" x2="4.382683432365089" y2="16.92387953251129" class="delaunay-line"/>
<line x1="4.382683432365089" y1="16.92387953251129" x2="4.130526192220053" y2="21.00855513862619" class="delaunay-line"/>
<line x1="4.130526192220053" y1="21.00855513862619" x2="4.499999999999998" y2="21.13397459621556" class="delaunay-line"/>
<line x1="12.617316567634912" y1="22.92387953251129" x2="4.258819045102521" y2="22.96592582628907" class="delaunay-line"/>
<line x1="4.258819045102521" y1="22.96592582628907" x2="13" y2="23" class="delaunay-line"/>
<line x1="13" y1="23" x2="12.617316567634912" y2="22.92387953251129" class="delaunay-line"/>
<line x1="4.793353340291234" y1="21.391238570991277" x2="4.965925826289069" y2="21.74118095489748" class="delaunay-line"/>
<line x1="4.965925826289069" y1="21.74118095489748" x2="12.076120467488712" y2="21.61731656763491" class="delaunay-line"/>
<line x1="12.076120467488712" y1="21.61731656763491" x2="4.793353340291234" y2="21.391238570991277" class="delaunay-line"/>
<line x1="4.130526192220053" y1="21.00855513862619" x2="4.382683432365089" y2="16.92387953251129" class="delaunay-line"/>
<line x1="4.382683432365089" y1="16.92387953251129" x2="4.000000000000001" y2="17" class="delaunay-line"/>
<line x1="4.000000000000001" y1="17" x2="4.130526192220053" y2="21.00855513862619" class="delaunay-line"/>
<line x1="4.866025403784437" y1="22.5" x2="4.99144486137381" y2="22.13052619222005" class="delaunay-line"/>
<line x1="4.99144486137381" y1="22.13052619222005" x2="4.965925826289069" y2="21.74118095489748" class="delaunay-line"/>
<line x1="4.965925826289069" y1="21.74118095489748" x2="4.866025403784437" y2="22.5" class="delaunay-line"/>
<line x1="4.866025403784437" y1="22.5" x2="4.965925826289069" y2="21.74118095489748" class="delaunay-line"/>
<line x1="4.965925826289069" y1="21.74118095489748" x2="4.793353340291234" y2="21.391238570991277" class="delaunay-line"/>
<line x1="4.793353340291234" y1="21.391238570991277" x2="4.866025403784437" y2="22.5" class="delaunay-line"/>
<line x1="4.965925826289069" y1="21.74118095489748" x2="4.99144486137381" y2="22.13052619222005" class="delaunay-line"/>
<line x1="4.99144486137381" y1="22.13052619222005" x2="12" y2="22" class="delaunay-line"/>
<line x1="12" y1="22" x2="4.965925826289069" y2="21.74118095489748" class="delaunay-line"/>
<line x1="3.61731656763491" y1="15.076120467488712" x2="3.2928932188134525" y2="15.292893218813452" class="delaunay-line"/>
<line x1="3.2928932188134525" y1="15.292893218813452" x2="4" y2="15" class="delaunay-line"/>
<line x1="4" y1="15" x2="3.61731656763491" y2="15.076120467488712" class="delaunay-line"/>
<line x1="3.7411809548974793" y1="21.03407417371093" x2="4.130526192220053" y2="21.00855513862619" class="delaunay-line"/>
<line x1="4.130526192220053" y1="21.00855513862619" x2="4.000000000000001" y2="17" class="delaunay-line"/>
<line x1="4.000000000000001" y1="17" x2="3.7411809548974793" y2="21.03407417371093" class="delaunay-line"/>
<line x1="3.076120467488714" y1="16.382683432365088" x2="4.707106781186548" y2="16.707106781186546" class="delaunay-line"/>
<line x1="4.707106781186548" y1="16.707106781186546" x2="4.382683432365089" y2="15.076120467488714" class="delaunay-line"/>
<line x1="4.382683432365089" y1="15.076120467488714" x2="3.076120467488714" y2="16.382683432365088" class="delaunay-line"/>
<line x1="3.7411809548974793" y1="21.03407417371093" x2="4.000000000000001" y2="17" class="delaunay-line"/>
<line x1="4.000000000000001" y1="17" x2="3.6173165676349104" y2="16.923879532511286" class="delaunay-line"/>
<line x1="3.6173165676349104" y1="16.923879532511286" x2="3.7411809548974793" y2="21.03407417371093" class="delaunay-line"/>
<line x1="4.499999999999998" y1="21.13397459621556" x2="4.130526192220053" y2="21.00855513862619" class="delaunay-line"/>
<line x1="4.130526192220053" y1="21.00855513862619" x2="4.793353340291234" y2="21.391238570991277" class="delaunay-line"/>
<line x1="4.793353340291234" y1="21.391238570991277" x2="4.499999999999998" y2="21.13397459621556" class="delaunay-line"/>
<line x1="4.99144486137381" y1="22.13052619222005" x2="4.866025403784437" y2="22.5" class="delaunay-line"/>
<line x1="4.866025403784437" y1="22.5" x2="12.076120467488714" y2="22.382683432365088" class="delaunay-line"/>
<line x1="12.076120467488714" y1="22.382683432365088" x2="4.99144486137381" y2="22.13052619222005" class="delaunay-line"/>
<line x1="13" y1="23" x2="0" y2="24" class="delaunay-line"/>
<line x1="0" y1="24" x2="24" y2="24" class="delaunay-line"/>
<line x1="24" y1="24" x2="13" y2="23" class="delaunay-line"/>
<line x1="4.130526192220053" y1="21.00855513862619" x2="4.866025403784437" y2="22.5" class="delaunay-line"/>
<line x1="4.866025403784437" y1="22.5" x2="4.793353340291234" y2="21.391238570991277" class="delaunay-line"/>
<line x1="4.793353340291234" y1="21.391238570991277" x2="4.130526192220053" y2="21.00855513862619" class="delaunay-line"/>
<line x1="3.391238570991278" y1="21.206646659708763" x2="3.7411809548974793" y2="21.03407417371093" class="delaunay-line"/>
<line x1="3.7411809548974793" y1="21.03407417371093" x2="3.6173165676349104" y2="16.923879532511286" class="delaunay-line"/>
<line x1="3.6173165676349104" y1="16.923879532511286" x2="3.391238570991278" y2="21.206646659708763" class="delaunay-line"/>
<line x1="3.2928932188134525" y1="15.292893218813452" x2="3.076120467488714" y2="16.382683432365088" class="delaunay-line"/>
<line x1="3.076120467488714" y1="16.382683432365088" x2="4.382683432365089" y2="15.076120467488714" class="delaunay-line"/>
<line x1="4.382683432365089" y1="15.076120467488714" x2="3.2928932188134525" y2="15.292893218813452" class="delaunay-line"/>
<line x1="3.2928932188134525" y1="15.292893218813452" x2="3.000000000000001" y2="15.999999999999998" class="delaunay-line"/>
<line x1="3.000000000000001" y1="15.999999999999998" x2="3.076120467488714" y2="16.382683432365088" class="delaunay-line"/>
<line x1="3.076120467488714" y1="16.382683432365088" x2="3.2928932188134525" y2="15.292893218813452" class="delaunay-line"/>
<line x1="3.076120467488712" y1="15.61731656763491" x2="3.000000000000001" y2="15.999999999999998" class="delaunay-line"/>
<line x1="3.000000000000001" y1="15.999999999999998" x2="3.2928932188134525" y2="15.292893218813452" class="delaunay-line"/>
<line x1="3.2928932188134525" y1="15.292893218813452" x2="3.076120467488712" y2="15.61731656763491" class="delaunay-line"/>
<line x1="3.391238570991278" y1="21.206646659708763" x2="3.2928932188134525" y2="16.707106781186546" class="delaunay-line"/>
<line x1="3.2928932188134525" y1="16.707106781186546" x2="3.133974596215563" y2="21.5" class="delaunay-line"/>
<line x1="3.133974596215563" y1="21.5" x2="3.391238570991278" y2="21.206646659708763" class="delaunay-line"/>
<line x1="3.391238570991278" y1="21.206646659708763" x2="3.6173165676349104" y2="16.923879532511286" class="delaunay-line"/>
<line x1="3.6173165676349104" y1="16.923879532511286" x2="3.2928932188134525" y2="16.707106781186546" class="delaunay-line"/>
<line x1="3.2928932188134525" y1="16.707106781186546" x2="3.391238570991278" y2="21.206646659708763" class="delaunay-line"/>
<line x1="4.130526192220053" y1="21.00855513862619" x2="3.133974596215563" y2="21.5" class="delaunay-line"/>
<line x1="3.133974596215563" y1="21.5" x2="4.866025403784437" y2="22.5" class="delaunay-line"/>
<line x1="4.866025403784437" y1="22.5" x2="4.130526192220053" y2="21.00855513862619" class="delaunay-line"/>
<line x1="4.258819045102521" y1="22.96592582628907" x2="4.608761429008722" y2="22.793353340291237" class="delaunay-line"/>
<line x1="4.608761429008722" y1="22.793353340291237" x2="4.866025403784437" y2="22.5" class="delaunay-line"/>
<line x1="4.866025403784437" y1="22.5" x2="4.258819045102521" y2="22.96592582628907" class="delaunay-line"/>
<line x1="4.866025403784437" y1="22.5" x2="4.608761429008722" y2="22.793353340291237" class="delaunay-line"/>
<line x1="4.608761429008722" y1="22.793353340291237" x2="12.292893218813452" y2="22.707106781186546" class="delaunay-line"/>
<line x1="12.292893218813452" y1="22.707106781186546" x2="4.866025403784437" y2="22.5" class="delaunay-line"/>
<line x1="3.133974596215563" y1="21.5" x2="3.2928932188134525" y2="16.707106781186546" class="delaunay-line"/>
<line x1="3.2928932188134525" y1="16.707106781186546" x2="3.076120467488714" y2="16.382683432365088" class="delaunay-line"/>
<line x1="3.076120467488714" y1="16.382683432365088" x2="3.133974596215563" y2="21.5" class="delaunay-line"/>
<line x1="3.7411809548974793" y1="21.03407417371093" x2="3.133974596215563" y2="21.5" class="delaunay-line"/>
<line x1="3.133974596215563" y1="21.5" x2="4.130526192220053" y2="21.00855513862619" class="delaunay-line"/>
<line x1="4.130526192220053" y1="21.00855513862619" x2="3.7411809548974793" y2="21.03407417371093" class="delaunay-line"/>
<line x1="3.8694738077799467" y1="22.99144486137381" x2="4.258819045102521" y2="22.96592582628907" class="delaunay-line"/>
<line x1="4.258819045102521" y1="22.96592582628907" x2="4.866025403784437" y2="22.5" class="delaunay-line"/>
<line x1="4.866025403784437" y1="22.5" x2="3.8694738077799467" y2="22.99144486137381" class="delaunay-line"/>
<line x1="4.608761429008722" y1="22.793353340291237" x2="4.258819045102521" y2="22.96592582628907" class="delaunay-line"/>
<line x1="4.258819045102521" y1="22.96592582628907" x2="12.617316567634912" y2="22.92387953251129" class="delaunay-line"/>
<line x1="12.617316567634912" y1="22.92387953251129" x2="4.608761429008722" y2="22.793353340291237" class="delaunay-line"/>
<line x1="3.0085551386261904" y1="21.86947380777995" x2="3.133974596215563" y2="21.5" class="delaunay-line"/>
<line x1="3.133974596215563" y1="21.5" x2="0" y2="24" class="delaunay-line"/>
<line x1="0" y1="24" x2="3.0085551386261904" y2="21.86947380777995" class="delaunay-line"/>
<line x1="3.391238570991278" y1="21.206646659708763" x2="3.133974596215563" y2="21.5" class="delaunay-line"/>
<line x1="3.133974596215563" y1="21.5" x2="3.7411809548974793" y2="21.03407417371093" class="delaunay-line"/>
<line x1="3.7411809548974793" y1="21.03407417371093" x2="3.391238570991278" y2="21.206646659708763" class="delaunay-line"/>
<line x1="3.206646659708766" y1="22.60876142900872" x2="3.8694738077799467" y2="22.99144486137381" class="delaunay-line"/>
<line x1="3.8694738077799467" y1="22.99144486137381" x2="4.866025403784437" y2="22.5" class="delaunay-line"/>
<line x1="4.866025403784437" y1="22.5" x2="3.206646659708766" y2="22.60876142900872" class="delaunay-line"/>
<line x1="4.258819045102521" y1="22.96592582628907" x2="0" y2="24" class="delaunay-line"/>
<line x1="0" y1="24" x2="13" y2="23" class="delaunay-line"/>
<line x1="13" y1="23" x2="4.258819045102521" y2="22.96592582628907" class="delaunay-line"/>
<line x1="0" y1="24" x2="3.133974596215563" y2="21.5" class="delaunay-line"/>
<line x1="3.133974596215563" y1="21.5" x2="3.076120467488714" y2="16.382683432365088" class="delaunay-line"/>
<line x1="3.076120467488714" y1="16.382683432365088" x2="0" y2="24" class="delaunay-line"/>
<line x1="3.133974596215563" y1="21.5" x2="3.206646659708766" y2="22.60876142900872" class="delaunay-line"/>
<line x1="3.206646659708766" y1="22.60876142900872" x2="4.866025403784437" y2="22.5" class="delaunay-line"/>
<line x1="4.866025403784437" y1="22.5" x2="3.133974596215563" y2="21.5" class="delaunay-line"/>
<line x1="3.206646659708766" y1="22.60876142900872" x2="3.5000000000000018" y2="22.86602540378444" class="delaunay-line"/>
<line x1="3.5000000000000018" y1="22.86602540378444" x2="3.8694738077799467" y2="22.99144486137381" class="delaunay-line"/>
<line x1="3.8694738077799467" y1="22.99144486137381" x2="3.206646659708766" y2="22.60876142900872" class="delaunay-line"/>
<line x1="3.0085551386261904" y1="21.86947380777995" x2="3.206646659708766" y2="22.60876142900872" class="delaunay-line"/>
<line x1="3.206646659708766" y1="22.60876142900872" x2="3.133974596215563" y2="21.5" class="delaunay-line"/>
<line x1="3.133974596215563" y1="21.5" x2="3.0085551386261904" y2="21.86947380777995" class="delaunay-line"/>
<line x1="3.034074173710932" y1="22.25881904510252" x2="3.206646659708766" y2="22.60876142900872" class="delaunay-line"/>
<line x1="3.206646659708766" y1="22.60876142900872" x2="3.0085551386261904" y2="21.86947380777995" class="delaunay-line"/>
<line x1="3.0085551386261904" y1="21.86947380777995" x2="3.034074173710932" y2="22.25881904510252" class="delaunay-line"/>
<line x1="22" y1="6.000000000000001" x2="21.74118095489748" y2="1.9659258262890673" class="delaunay-line"/>
<line x1="21.74118095489748" y1="1.9659258262890673" x2="21.61731656763491" y2="6.076120467488714" class="delaunay-line"/>
<line x1="21.61731656763491" y1="6.076120467488714" x2="22" y2="6.000000000000001" class="delaunay-line"/>
<line x1="3.9131569295963873" y1="1.8679885601459552" x2="4" y2="15" class="delaunay-line"/>
<line x1="4" y1="15" x2="4.382683432365089" y2="15.076120467488714" class="delaunay-line"/>
<line x1="4.382683432365089" y1="15.076120467488714" x2="3.9131569295963873" y2="1.8679885601459552" class="delaunay-line"/>
<line x1="3.61731656763491" y1="15.076120467488712" x2="0.8073283883661349" y2="13.459098475614775" class="delaunay-line"/>
<line x1="0.8073283883661349" y1="13.459098475614775" x2="3.2928932188134525" y2="15.292893218813452" class="delaunay-line"/>
<line x1="3.2928932188134525" y1="15.292893218813452" x2="3.61731656763491" y2="15.076120467488712" class="delaunay-line"/>
<line x1="22.130526192220053" y1="1.9914448613738098" x2="21.74118095489748" y2="1.9659258262890673" class="delaunay-line"/>
<line x1="21.74118095489748" y1="1.9659258262890673" x2="22" y2="6.000000000000001" class="delaunay-line"/>
<line x1="22" y1="6.000000000000001" x2="22.130526192220053" y2="1.9914448613738098" class="delaunay-line"/>
<line x1="22.130526192220053" y1="1.9914448613738098" x2="22" y2="6.000000000000001" class="delaunay-line"/>
<line x1="22" y1="6.000000000000001" x2="22.382683432365088" y2="6.076120467488711" class="delaunay-line"/>
<line x1="22.382683432365088" y1="6.076120467488711" x2="22.130526192220053" y2="1.9914448613738098" class="delaunay-line"/>
<line x1="22.130526192220053" y1="1.9914448613738098" x2="22.382683432365088" y2="6.076120467488711" class="delaunay-line"/>
<line x1="22.382683432365088" y1="6.076120467488711" x2="22.5" y2="1.8660254037844382" class="delaunay-line"/>
<line x1="22.5" y1="1.8660254037844382" x2="22.130526192220053" y2="1.9914448613738098" class="delaunay-line"/>
<line x1="21.74118095489748" y1="1.9659258262890673" x2="21.39123857099128" y2="1.793353340291237" class="delaunay-line"/>
<line x1="21.39123857099128" y1="1.793353340291237" x2="21.61731656763491" y2="6.076120467488714" class="delaunay-line"/>
<line x1="21.61731656763491" y1="6.076120467488714" x2="21.74118095489748" y2="1.9659258262890673" class="delaunay-line"/>
<line x1="22.5" y1="1.8660254037844382" x2="22.382683432365088" y2="6.076120467488711" class="delaunay-line"/>
<line x1="22.382683432365088" y1="6.076120467488711" x2="22.707106781186546" y2="6.292893218813452" class="delaunay-line"/>
<line x1="22.707106781186546" y1="6.292893218813452" x2="22.5" y2="1.8660254037844382" class="delaunay-line"/>
<line x1="21.74118095489748" y1="1.9659258262890673" x2="21.133974596215563" y2="1.5000000000000004" class="delaunay-line"/>
<line x1="21.133974596215563" y1="1.5000000000000004" x2="21.39123857099128" y2="1.793353340291237" class="delaunay-line"/>
<line x1="21.39123857099128" y1="1.793353340291237" x2="21.74118095489748" y2="1.9659258262890673" class="delaunay-line"/>
<line x1="22.5" y1="1.8660254037844382" x2="22.707106781186546" y2="6.292893218813452" class="delaunay-line"/>
<line x1="22.707106781186546" y1="6.292893218813452" x2="22.793353340291233" y2="1.6087614290087198" class="delaunay-line"/>
<line x1="22.793353340291233" y1="1.6087614290087198" x2="22.5" y2="1.8660254037844382" class="delaunay-line"/>
<line x1="21.034074173710934" y1="0.7411809548974809" x2="21.133974596215563" y2="1.5000000000000004" class="delaunay-line"/>
<line x1="21.133974596215563" y1="1.5000000000000004" x2="21.74118095489748" y2="1.9659258262890673" class="delaunay-line"/>
<line x1="21.74118095489748" y1="1.9659258262890673" x2="21.034074173710934" y2="0.7411809548974809" class="delaunay-line"/>
<line x1="21.39123857099128" y1="1.793353340291237" x2="21.133974596215563" y2="1.5000000000000004" class="delaunay-line"/>
<line x1="21.133974596215563" y1="1.5000000000000004" x2="18.40204432393241" y2="5.750274236683772" class="delaunay-line"/>
<line x1="18.40204432393241" y1="5.750274236683772" x2="21.39123857099128" y2="1.793353340291237" class="delaunay-line"/>
<line x1="3.076120467488712" y1="15.61731656763491" x2="0.8073283883661349" y2="13.459098475614775" class="delaunay-line"/>
<line x1="0.8073283883661349" y1="13.459098475614775" x2="3.000000000000001" y2="15.999999999999998" class="delaunay-line"/>
<line x1="3.000000000000001" y1="15.999999999999998" x2="3.076120467488712" y2="15.61731656763491" class="delaunay-line"/>
<line x1="3.000000000000001" y1="15.999999999999998" x2="0.8073283883661349" y2="13.459098475614775" class="delaunay-line"/>
<line x1="0.8073283883661349" y1="13.459098475614775" x2="3.076120467488714" y2="16.382683432365088" class="delaunay-line"/>
<line x1="3.076120467488714" y1="16.382683432365088" x2="3.000000000000001" y2="15.999999999999998" class="delaunay-line"/>
<line x1="3.0085551386261904" y1="21.86947380777995" x2="0" y2="24" class="delaunay-line"/>
<line x1="0" y1="24" x2="3.034074173710932" y2="22.25881904510252" class="delaunay-line"/>
<line x1="3.034074173710932" y1="22.25881904510252" x2="3.0085551386261904" y2="21.86947380777995" class="delaunay-line"/>
<line x1="3.2928932188134525" y1="15.292893218813452" x2="0.8073283883661349" y2="13.459098475614775" class="delaunay-line"/>
<line x1="0.8073283883661349" y1="13.459098475614775" x2="3.076120467488712" y2="15.61731656763491" class="delaunay-line"/>
<line x1="3.076120467488712" y1="15.61731656763491" x2="3.2928932188134525" y2="15.292893218813452" class="delaunay-line"/>
<line x1="3.9131569295963873" y1="1.8679885601459552" x2="4.707106781186548" y2="15.292893218813452" class="delaunay-line"/>
<line x1="4.707106781186548" y1="15.292893218813452" x2="18.40204432393241" y2="5.750274236683772" class="delaunay-line"/>
<line x1="18.40204432393241" y1="5.750274236683772" x2="3.9131569295963873" y2="1.8679885601459552" class="delaunay-line"/>
<line x1="22.130526192220053" y1="1.9914448613738098" x2="22.793353340291233" y2="1.6087614290087198" class="delaunay-line"/>
<line x1="22.793353340291233" y1="1.6087614290087198" x2="21.74118095489748" y2="1.9659258262890673" class="delaunay-line"/>
<line x1="21.74118095489748" y1="1.9659258262890673" x2="22.130526192220053" y2="1.9914448613738098" class="delaunay-line"/>
<line x1="22.793353340291233" y1="1.6087614290087198" x2="22.707106781186546" y2="6.292893218813452" class="delaunay-line"/>
<line x1="22.707106781186546" y1="6.292893218813452" x2="22.92387953251129" y2="6.617316567634911" class="delaunay-line"/>
<line x1="22.92387953251129" y1="6.617316567634911" x2="22.793353340291233" y2="1.6087614290087198" class="delaunay-line"/>
<line x1="21.034074173710934" y1="0.7411809548974809" x2="21.00855513862619" y2="1.1305261922200507" class="delaunay-line"/>
<line x1="21.00855513862619" y1="1.1305261922200507" x2="21.133974596215563" y2="1.5000000000000004" class="delaunay-line"/>
<line x1="21.133974596215563" y1="1.5000000000000004" x2="21.034074173710934" y2="0.7411809548974809" class="delaunay-line"/>
<line x1="21.133974596215563" y1="1.5000000000000004" x2="21.00855513862619" y2="1.1305261922200507" class="delaunay-line"/>
<line x1="21.00855513862619" y1="1.1305261922200507" x2="18.40204432393241" y2="5.750274236683772" class="delaunay-line"/>
<line x1="18.40204432393241" y1="5.750274236683772" x2="21.133974596215563" y2="1.5000000000000004" class="delaunay-line"/>
<line x1="22.965925826289066" y1="1.2588190451025194" x2="22.793353340291233" y2="1.6087614290087198" class="delaunay-line"/>
<line x1="22.793353340291233" y1="1.6087614290087198" x2="24" y2="0" class="delaunay-line"/>
<line x1="24" y1="0" x2="22.965925826289066" y2="1.2588190451025194" class="delaunay-line"/>
<line x1="22.5" y1="1.8660254037844382" x2="22.793353340291233" y2="1.6087614290087198" class="delaunay-line"/>
<line x1="22.793353340291233" y1="1.6087614290087198" x2="22.130526192220053" y2="1.9914448613738098" class="delaunay-line"/>
<line x1="22.130526192220053" y1="1.9914448613738098" x2="22.5" y2="1.8660254037844382" class="delaunay-line"/>
<line x1="22.793353340291233" y1="1.6087614290087198" x2="22.92387953251129" y2="6.617316567634911" class="delaunay-line"/>
<line x1="22.92387953251129" y1="6.617316567634911" x2="24" y2="0" class="delaunay-line"/>
<line x1="24" y1="0" x2="22.793353340291233" y2="1.6087614290087198" class="delaunay-line"/>
<line x1="22.793353340291233" y1="1.6087614290087198" x2="21.034074173710934" y2="0.7411809548974809" class="delaunay-line"/>
<line x1="21.034074173710934" y1="0.7411809548974809" x2="21.74118095489748" y2="1.9659258262890673" class="delaunay-line"/>
<line x1="21.74118095489748" y1="1.9659258262890673" x2="22.793353340291233" y2="1.6087614290087198" class="delaunay-line"/>
<line x1="21.00855513862619" y1="1.1305261922200507" x2="21.034074173710934" y2="0.7411809548974809" class="delaunay-line"/>
<line x1="21.034074173710934" y1="0.7411809548974809" x2="18.40204432393241" y2="5.750274236683772" class="delaunay-line"/>
<line x1="18.40204432393241" y1="5.750274236683772" x2="21.00855513862619" y2="1.1305261922200507" class="delaunay-line"/>
<line x1="22.99144486137381" y1="0.8694738077799495" x2="22.965925826289066" y2="1.2588190451025194" class="delaunay-line"/>
<line x1="22.965925826289066" y1="1.2588190451025194" x2="24" y2="0" class="delaunay-line"/>
<line x1="24" y1="0" x2="22.99144486137381" y2="0.8694738077799495" class="delaunay-line"/>
<line x1="22.793353340291233" y1="1.6087614290087198" x2="22.965925826289066" y2="1.2588190451025194" class="delaunay-line"/>
<line x1="22.965925826289066" y1="1.2588190451025194" x2="21.034074173710934" y2="0.7411809548974809" class="delaunay-line"/>
<line x1="21.034074173710934" y1="0.7411809548974809" x2="22.793353340291233" y2="1.6087614290087198" class="delaunay-line"/>
<line x1="21.5" y1="0.13397459621556151" x2="21.206646659708763" y2="0.39123857099128057" class="delaunay-line"/>
<line x1="21.206646659708763" y1="0.39123857099128057" x2="21.034074173710934" y2="0.7411809548974809" class="delaunay-line"/>
<line x1="21.034074173710934" y1="0.7411809548974809" x2="21.5" y2="0.13397459621556151" class="delaunay-line"/>
<line x1="21.034074173710934" y1="0.7411809548974809" x2="3.9131569295963873" y2="1.8679885601459552" class="delaunay-line"/>
<line x1="3.9131569295963873" y1="1.8679885601459552" x2="18.40204432393241" y2="5.750274236683772" class="delaunay-line"/>
<line x1="18.40204432393241" y1="5.750274236683772" x2="21.034074173710934" y2="0.7411809548974809" class="delaunay-line"/>
<line x1="24" y1="0" x2="22.92387953251129" y2="6.617316567634911" class="delaunay-line"/>
<line x1="22.92387953251129" y1="6.617316567634911" x2="23" y2="6.999999999999999" class="delaunay-line"/>
<line x1="23" y1="6.999999999999999" x2="24" y2="0" class="delaunay-line"/>
<line x1="21.869473807779947" y1="0.008555138626190117" x2="21.5" y2="0.13397459621556151" class="delaunay-line"/>
<line x1="21.5" y1="0.13397459621556151" x2="21.034074173710934" y2="0.7411809548974809" class="delaunay-line"/>
<line x1="21.034074173710934" y1="0.7411809548974809" x2="21.869473807779947" y2="0.008555138626190117" class="delaunay-line"/>
<line x1="21.869473807779947" y1="0.008555138626190117" x2="21.034074173710934" y2="0.7411809548974809" class="delaunay-line"/>
<line x1="21.034074173710934" y1="0.7411809548974809" x2="22.25881904510252" y2="0.03407417371093269" class="delaunay-line"/>
<line x1="22.25881904510252" y1="0.03407417371093269" x2="21.869473807779947" y2="0.008555138626190117" class="delaunay-line"/>
<line x1="21.206646659708763" y1="0.39123857099128057" x2="3.9131569295963873" y2="1.8679885601459552" class="delaunay-line"/>
<line x1="3.9131569295963873" y1="1.8679885601459552" x2="21.034074173710934" y2="0.7411809548974809" class="delaunay-line"/>
<line x1="21.034074173710934" y1="0.7411809548974809" x2="21.206646659708763" y2="0.39123857099128057" class="delaunay-line"/>
<line x1="22.99144486137381" y1="0.8694738077799495" x2="22.866025403784437" y2="0.49999999999999956" class="delaunay-line"/>
<line x1="22.866025403784437" y1="0.49999999999999956" x2="22.965925826289066" y2="1.2588190451025194" class="delaunay-line"/>
<line x1="22.965925826289066" y1="1.2588190451025194" x2="22.99144486137381" y2="0.8694738077799495" class="delaunay-line"/>
<line x1="22.25881904510252" y1="0.03407417371093269" x2="21.034074173710934" y2="0.7411809548974809" class="delaunay-line"/>
<line x1="21.034074173710934" y1="0.7411809548974809" x2="22.965925826289066" y2="1.2588190451025194" class="delaunay-line"/>
<line x1="22.965925826289066" y1="1.2588190451025194" x2="22.25881904510252" y2="0.03407417371093269" class="delaunay-line"/>
<line x1="22.866025403784437" y1="0.49999999999999956" x2="22.25881904510252" y2="0.03407417371093269" class="delaunay-line"/>
<line x1="22.25881904510252" y1="0.03407417371093269" x2="22.965925826289066" y2="1.2588190451025194" class="delaunay-line"/>
<line x1="22.965925826289066" y1="1.2588190451025194" x2="22.866025403784437" y2="0.49999999999999956" class="delaunay-line"/>
<line x1="22.60876142900872" y1="0.20664665970876311" x2="22.25881904510252" y2="0.03407417371093269" class="delaunay-line"/>
<line x1="22.25881904510252" y1="0.03407417371093269" x2="22.866025403784437" y2="0.49999999999999956" class="delaunay-line"/>
<line x1="22.866025403784437" y1="0.49999999999999956" x2="22.60876142900872" y2="0.20664665970876311" class="delaunay-line"/>
<line x1="22.866025403784437" y1="0.49999999999999956" x2="24" y2="0" class="delaunay-line"/>
<line x1="24" y1="0" x2="22.60876142900872" y2="0.20664665970876311" class="delaunay-line"/>
<line x1="22.60876142900872" y1="0.20664665970876311" x2="22.866025403784437" y2="0.49999999999999956" class="delaunay-line"/>
<line x1="22.60876142900872" y1="0.20664665970876311" x2="24" y2="0" class="delaunay-line"/>
<line x1="24" y1="0" x2="22.25881904510252" y2="0.03407417371093269" class="delaunay-line"/>
<line x1="22.25881904510252" y1="0.03407417371093269" x2="22.60876142900872" y2="0.20664665970876311" class="delaunay-line"/>
<line x1="22.25881904510252" y1="0.03407417371093269" x2="24" y2="0" class="delaunay-line"/>
<line x1="24" y1="0" x2="21.869473807779947" y2="0.008555138626190117" class="delaunay-line"/>
<line x1="21.869473807779947" y1="0.008555138626190117" x2="22.25881904510252" y2="0.03407417371093269" class="delaunay-line"/>
<line x1="22.99144486137381" y1="0.8694738077799495" x2="24" y2="0" class="delaunay-line"/>
<line x1="24" y1="0" x2="22.866025403784437" y2="0.49999999999999956" class="delaunay-line"/>
<line x1="22.866025403784437" y1="0.49999999999999956" x2="22.99144486137381" y2="0.8694738077799495" class="delaunay-line"/>
<line x1="24" y1="24" x2="24" y2="0" class="delaunay-line"/>
<line x1="24" y1="0" x2="22.991444861373807" y2="13.130526192220051" class="delaunay-line"/>
<line x1="22.991444861373807" y1="13.130526192220051" x2="24" y2="24" class="delaunay-line"/>
<line x1="0.8073283883661349" y1="13.459098475614775" x2="0" y2="24" class="delaunay-line"/>
<line x1="0" y1="24" x2="3.076120467488714" y2="16.382683432365088" class="delaunay-line"/>
<line x1="3.076120467488714" y1="16.382683432365088" x2="0.8073283883661349" y2="13.459098475614775" class="delaunay-line"/>
<line x1="3.034074173710932" y1="22.25881904510252" x2="0" y2="24" class="delaunay-line"/>
<line x1="0" y1="24" x2="3.206646659708766" y2="22.60876142900872" class="delaunay-line"/>
<line x1="3.206646659708766" y1="22.60876142900872" x2="3.034074173710932" y2="22.25881904510252" class="delaunay-line"/>
<line x1="3.206646659708766" y1="22.60876142900872" x2="0" y2="24" class="delaunay-line"/>
<line x1="0" y1="24" x2="3.5000000000000018" y2="22.86602540378444" class="delaunay-line"/>
<line x1="3.5000000000000018" y1="22.86602540378444" x2="3.206646659708766" y2="22.60876142900872" class="delaunay-line"/>
<line x1="3.5000000000000018" y1="22.86602540378444" x2="0" y2="24" class="delaunay-line"/>
<line x1="0" y1="24" x2="3.8694738077799467" y2="22.99144486137381" class="delaunay-line"/>
<line x1="3.8694738077799467" y1="22.99144486137381" x2="3.5000000000000018" y2="22.86602540378444" class="delaunay-line"/>
<line x1="3.8694738077799467" y1="22.99144486137381" x2="0" y2="24" class="delaunay-line"/>
<line x1="0" y1="24" x2="4.258819045102521" y2="22.96592582628907" class="delaunay-line"/>
<line x1="4.258819045102521" y1="22.96592582628907" x2="3.8694738077799467" y2="22.99144486137381" class="delaunay-line"/>
<line x1="0" y1="0" x2="3.9131569295963873" y2="1.8679885601459552" class="delaunay-line"/>
<line x1="3.9131569295963873" y1="1.8679885601459552" x2="21.5" y2="0.13397459621556151" class="delaunay-line"/>
<line x1="21.5" y1="0.13397459621556151" x2="0" y2="0" class="delaunay-line"/>
<line x1="21.5" y1="0.13397459621556151" x2="3.9131569295963873" y2="1.8679885601459552" class="delaunay-line"/>
<line x1="3.9131569295963873" y1="1.8679885601459552" x2="21.206646659708763" y2="0.39123857099128057" class="delaunay-line"/>
<line x1="21.206646659708763" y1="0.39123857099128057" x2="21.5" y2="0.13397459621556151" class="delaunay-line"/>
<line x1="21.869473807779947" y1="0.008555138626190117" x2="0" y2="0" class="delaunay-line"/>
<line x1="0" y1="0" x2="21.5" y2="0.13397459621556151" class="delaunay-line"/>
<line x1="21.5" y1="0.13397459621556151" x2="21.869473807779947" y2="0.008555138626190117" class="delaunay-line"/>
<line x1="3.9131569295963873" y1="1.8679885601459552" x2="0" y2="0" class="delaunay-line"/>
<line x1="0" y1="0" x2="0.8073283883661349" y2="13.459098475614775" class="delaunay-line"/>
<line x1="0.8073283883661349" y1="13.459098475614775" x2="3.9131569295963873" y2="1.8679885601459552" class="delaunay-line"/>
<line x1="0.8073283883661349" y1="13.459098475614775" x2="0" y2="0" class="delaunay-line"/>
<line x1="0" y1="0" x2="0" y2="24" class="delaunay-line"/>
<line x1="0" y1="24" x2="0.8073283883661349" y2="13.459098475614775" class="delaunay-line"/>
<line x1="24" y1="0" x2="0" y2="0" class="delaunay-line"/>
<line x1="0" y1="0" x2="21.869473807779947" y2="0.008555138626190117" class="delaunay-line"/>
<line x1="21.869473807779947" y1="0.008555138626190117" x2="24" y2="0" class="delaunay-line"/>
</g>
<g id="layer-area" class="layer ">
<polygon points="0.8073283883661349,13.459098475614775 3.9131569295963873,1.8679885601459552 18.40204432393241,5.750274236683772 15.29621578270216,17.341384152152592" class="terrain-area"/>
<text x="9.604686356149273" y="9.604686356149273" class="label">#C49A6C</text>
</g>
<g id="layer-building" class="layer ">
<polygon points="8.972732317076522,12.268029549288272 1.2453257067639731,10.19747718846811 3.8335161577891768,0.538218925577425 11.560922768101724,2.6087712863975874" class="terrain-solid"/>
<text x="6.4031242374328485" y="6.4031242374328485" class="label">#000000</text>
<polygon points="16.42968016596663,20.259807184888825 18.42968016596663,16.795705569751068 23.625832588673262,19.795705569751068 21.625832588673262,23.259807184888825" class="terrain-solid"/>
<text x="20.027756377319946" y="20.027756377319946" class="label">#000000</text>
</g>
<g id="layer-wall" class="layer ">
<polygon points="19.885065941081944,9.013257342214391 20.014475463633207,9.496220255358924 14.218920505898797,11.04913452597405 14.089510983347534,10.566171612829518" class="terrain-solid"/>
<text x="17.05199322349037" y="10.031195934094221" class="label">#555555</text>
<polygon points="19.885065941081944,1.9924600528182448 20.014475463633207,2.4754229659627787 14.218920505898797,4.028337236577903 14.089510983347534,3.5453743234333692" class="terrain-solid"/>
<text x="17.05199322349037" y="3.010398644698074" class="label">#555555</text>
<polygon points="12.864268651685796,16.03405463161054 12.993678174237056,16.517017544755074 7.198123216502646,18.0699318153702 7.068713693951386,17.586968902225667" class="terrain-solid"/>
<text x="10.031195934094221" y="17.05199322349037" class="label">#555555</text>
</g>
<g id="layer-tree" class="layer ">
<polygon points="4.258819045102521,22.96592582628907 3.8694738077799467,22.99144486137381 3.5000000000000018,22.86602540378444 3.206646659708766,22.60876142900872 3.034074173710932,22.25881904510252 3.0085551386261904,21.86947380777995 3.133974596215563,21.5 3.391238570991278,21.206646659708763 3.7411809548974793,21.03407417371093 4.130526192220053,21.00855513862619 4.499999999999998,21.13397459621556 4.793353340291234,21.391238570991277 4.965925826289069,21.74118095489748 4.99144486137381,22.13052619222005 4.866025403784437,22.5 4.608761429008722,22.793353340291237" class="terrain-solid"/>
<text x="3.999999999999999" y="21.999999999999993" class="label">#90EE90</text>
<polygon points="16.5,16.866025403784437 16.13052619222005,16.99144486137381 15.74118095489748,16.965925826289066 15.39123857099128,16.793353340291237 15.13397459621556,16.5 15.008555138626189,16.130526192220053 15.034074173710932,15.741180954897478 15.206646659708763,15.39123857099128 15.5,15.13397459621556 15.869473807779949,15.008555138626189 16.25881904510252,15.03407417371093 16.60876142900872,15.206646659708765 16.866025403784437,15.5 16.99144486137381,15.86947380777995 16.96592582628907,16.25881904510252 16.793353340291233,16.60876142900872" class="terrain-solid"/>
<text x="16" y="15.999999999999998" class="label">#90EE90</text>
<polygon points="4.707106781186548,16.707106781186546 4.382683432365089,16.92387953251129 4.000000000000001,17 3.6173165676349104,16.923879532511286 3.2928932188134525,16.707106781186546 3.076120467488714,16.382683432365088 3.000000000000001,15.999999999999998 3.076120467488712,15.61731656763491 3.2928932188134525,15.292893218813452 3.61731656763491,15.076120467488712 4,15 4.382683432365089,15.076120467488714 4.707106781186548,15.292893218813452 4.923879532511286,15.617316567634909 5,16 4.923879532511286,16.38268343236509" class="terrain-solid"/>
<text x="4" y="16" class="label">#90EE90</text>
<polygon points="21.5,0.13397459621556151 21.869473807779947,0.008555138626190117 22.25881904510252,0.03407417371093269 22.60876142900872,0.20664665970876311 22.866025403784437,0.49999999999999956 22.99144486137381,0.8694738077799495 22.965925826289066,1.2588190451025194 22.793353340291233,1.6087614290087198 22.5,1.8660254037844382 22.130526192220053,1.9914448613738098 21.74118095489748,1.9659258262890673 21.39123857099128,1.793353340291237 21.133974596215563,1.5000000000000004 21.00855513862619,1.1305261922200507 21.034074173710934,0.7411809548974809 21.206646659708763,0.39123857099128057" class="terrain-solid"/>
<text x="22.000000000000007" y="1" class="label">#90EE90</text>
<polygon points="21.292893218813454,6.292893218813452 21.61731656763491,6.076120467488714 22,6.000000000000001 22.382683432365088,6.076120467488711 22.707106781186546,6.292893218813452 22.92387953251129,6.617316567634911 23,6.999999999999999 22.923879532511286,7.38268343236509 22.707106781186546,7.707106781186548 22.38268343236509,7.923879532511286 22,7.999999999999999 21.617316567634912,7.923879532511288 21.292893218813454,7.707106781186548 21.07612046748871,7.382683432365089 21,7.000000000000001 21.076120467488714,6.617316567634911" class="terrain-solid"/>
<text x="21.999999999999996" y="7.000000000000001" class="label">#90EE90</text>
<polygon points="21.03407417371093,13.258819045102522 21.008555138626193,12.869473807779949 21.133974596215563,12.5 21.391238570991277,12.206646659708767 21.74118095489748,12.034074173710932 22.130526192220053,12.008555138626189 22.499999999999996,12.133974596215563 22.793353340291233,12.391238570991279 22.96592582628907,12.741180954897478 22.991444861373807,13.130526192220051 22.866025403784437,13.5 22.608761429008723,13.793353340291233 22.25881904510252,13.965925826289068 21.869473807779947,13.991444861373811 21.500000000000004,13.866025403784437 21.206646659708767,13.608761429008721" class="terrain-solid"/>
<text x="22.000000000000007" y="13.000000000000002" class="label">#90EE90</text>
<polygon points="13.707106781186548,21.292893218813454 13.923879532511286,21.617316567634912 14,22 13.923879532511288,22.38268343236509 13.707106781186548,22.707106781186546 13.38268343236509,22.923879532511286 13,23 12.617316567634912,22.92387953251129 12.292893218813452,22.707106781186546 12.076120467488714,22.382683432365088 12,22 12.076120467488712,21.61731656763491 12.292893218813452,21.292893218813454 12.61731656763491,21.076120467488714 13,21 13.382683432365088,21.07612046748871" class="terrain-solid"/>
<text x="13" y="21.999999999999996" class="label">#90EE90</text>
</g>
<g id="layer-rocks" class="layer ">
</g>
<g id="layer-shrub" class="layer ">
</g>
<g id="layer-terrain" class="layer ">
</g>
<g id="layer-models" class="layer ">
</g>
<g id="layer-paths" class="layer ">
</g>
<g id="layer-vectors" class="layer ">
</g>
<g id="layer-los" class="layer ">
</g>
<g id="layer-lof" class="layer ">
</g>

<g id="legend">
<g class="toggle" onclick="toggleLayer('grid')"><rect x="0.4" y="0.14999999999999997" width="0.4" height="0.4" fill="#222" stroke="#222" stroke-width="0.05"/><text x="1.0" y="0.5499999999999999" class="label">0.5 MU Grid</text></g>
<g class="toggle" onclick="toggleLayer('delaunay')"><rect x="0.4" y="0.95" width="0.4" height="0.4" fill="#222" stroke="#222" stroke-width="0.05"/><text x="1.0" y="1.3499999999999999" class="label">Delaunay Mesh</text></g>
<g class="toggle" onclick="toggleLayer('area')"><rect x="0.4" y="1.7500000000000002" width="0.4" height="0.4" fill="#222" stroke="#222" stroke-width="0.05"/><text x="1.0" y="2.1500000000000004" class="label">Area Terrain</text></g>
<g class="toggle" onclick="toggleLayer('building')"><rect x="0.4" y="2.55" width="0.4" height="0.4" fill="#222" stroke="#222" stroke-width="0.05"/><text x="1.0" y="2.95" class="label">Buildings</text></g>
<g class="toggle" onclick="toggleLayer('wall')"><rect x="0.4" y="3.3499999999999996" width="0.4" height="0.4" fill="#222" stroke="#222" stroke-width="0.05"/><text x="1.0" y="3.75" class="label">Walls</text></g>
<g class="toggle" onclick="toggleLayer('tree')"><rect x="0.4" y="4.1499999999999995" width="0.4" height="0.4" fill="#222" stroke="#222" stroke-width="0.05"/><text x="1.0" y="4.55" class="label">Trees</text></g>
<g class="toggle disabled"><rect x="0.4" y="4.949999999999999" width="0.4" height="0.4" fill="#222" stroke="#222" stroke-width="0.05"/><text x="1.0" y="5.35" class="label">Rocks</text></g>
<g class="toggle disabled"><rect x="0.4" y="5.749999999999999" width="0.4" height="0.4" fill="#222" stroke="#222" stroke-width="0.05"/><text x="1.0" y="6.1499999999999995" class="label">Shrubs</text></g>
<g class="toggle" onclick="toggleLayer('terrain')"><rect x="0.4" y="6.549999999999999" width="0.4" height="0.4" fill="#222" stroke="#222" stroke-width="0.05"/><text x="1.0" y="6.949999999999999" class="label">Other Terrain</text></g>
<g class="toggle" onclick="toggleLayer('models')"><rect x="0.4" y="7.349999999999999" width="0.4" height="0.4" fill="#222" stroke="#222" stroke-width="0.05"/><text x="1.0" y="7.749999999999999" class="label">Models</text></g>
<g class="toggle" onclick="toggleLayer('paths')"><rect x="0.4" y="8.15" width="0.4" height="0.4" fill="#222" stroke="#222" stroke-width="0.05"/><text x="1.0" y="8.549999999999999" class="label">Paths</text></g>
<g class="toggle" onclick="toggleLayer('vectors')"><rect x="0.4" y="8.950000000000001" width="0.4" height="0.4" fill="#222" stroke="#222" stroke-width="0.05"/><text x="1.0" y="9.35" class="label">Vectors</text></g>
<g class="toggle" onclick="toggleLayer('los')"><rect x="0.4" y="9.750000000000002" width="0.4" height="0.4" fill="#222" stroke="#222" stroke-width="0.05"/><text x="1.0" y="10.15" class="label">LOS</text></g>
<g class="toggle" onclick="toggleLayer('lof')"><rect x="0.4" y="10.550000000000002" width="0.4" height="0.4" fill="#222" stroke="#222" stroke-width="0.05"/><text x="1.0" y="10.950000000000001" class="label">LOF</text></g>
</g>
</svg>