<svg xmlns="http://www.w3.org/2000/svg" viewBox="0 0 24 24" width="960" height="960" font-family="Arial" font-size="0.6">
<defs>
  <style><![CDATA[
    .layer { display: inline; }
    .layer.hidden { display: none; }
    .grid-line { stroke: #999; stroke-width: 0.02; opacity: 0.2; }
    .delaunay-line { stroke: #4a6fa5; stroke-width: 0.03; opacity: 0.3; }
    .terrain-area { stroke: #000; stroke-width: 0.05; }
    .terrain-solid { stroke: #000; stroke-width: 0.05; }
    .model { stroke: #ff0000; stroke-width: 2; vector-effect: non-scaling-stroke; }
    .path { fill: none; stroke-width: 0.12; }
    .vector { stroke-width: 0.1; }
    .los-ray { stroke-width: 0.08; stroke-dasharray: 0.2 0.2; }
    .lof-ray { stroke-width: 0.08; stroke-dasharray: 0.3 0.15; }
    .label { fill: #111 !important; font-size: 0.6px; }
    .toggle { cursor: pointer; }
    .toggle.disabled { cursor: default; }
    .toggle.disabled rect { stroke: #ccc; fill: #fff; }
    .toggle.disabled text { fill: #ccc; }
#layer-area { fill: #C49A6C; }
#layer-building { fill: #000000; }
#layer-wall { fill: #555555; }
#layer-tree { fill: #90EE90; }
  ]]></style>
</defs>
<rect x="0" y="0" width="24" height="24" fill="#ffffff" stroke="#111" stroke-width="0.05"/>
<script><![CDATA[
      function toggleLayer(id) {
        var layer = document.getElementById('layer-' + id);
        if (!layer) return;
        if (layer.classList.contains('hidden')) {
          layer.classList.remove('hidden');
        } else {
          layer.classList.add('hidden');
        }
      }
    ]]></script>
<text x="0.4" y="23.6" class="label">LOS Checks (SIZ 3) blockLOS 50 - Unblocked</text>
<g id="layer-grid" class="layer ">
<line x1="0" y1="0" x2="0" y2="24" class="grid-line"/>
<line x1="0.5" y1="0" x2="0.5" y2="24" class="grid-line"/>
<line x1="1" y1="0" x2="1" y2="24" class="grid-line"/>
<line x1="1.5" y1="0" x2="1.5" y2="24" class="grid-line"/>
<line x1="2" y1="0" x2="2" y2="24" class="grid-line"/>
<line x1="2.5" y1="0" x2="2.5" y2="24" class="grid-line"/>
<line x1="3" y1="0" x2="3" y2="24" class="grid-line"/>
<line x1="3.5" y1="0" x2="3.5" y2="24" class="grid-line"/>
<line x1="4" y1="0" x2="4" y2="24" class="grid-line"/>
<line x1="4.5" y1="0" x2="4.5" y2="24" class="grid-line"/>
<line x1="5" y1="0" x2="5" y2="24" class="grid-line"/>
<line x1="5.5" y1="0" x2="5.5" y2="24" class="grid-line"/>
<line x1="6" y1="0" x2="6" y2="24" class="grid-line"/>
<line x1="6.5" y1="0" x2="6.5" y2="24" class="grid-line"/>
<line x1="7" y1="0" x2="7" y2="24" class="grid-line"/>
<line x1="7.5" y1="0" x2="7.5" y2="24" class="grid-line"/>
<line x1="8" y1="0" x2="8" y2="24" class="grid-line"/>
<line x1="8.5" y1="0" x2="8.5" y2="24" class="grid-line"/>
<line x1="9" y1="0" x2="9" y2="24" class="grid-line"/>
<line x1="9.5" y1="0" x2="9.5" y2="24" class="grid-line"/>
<line x1="10" y1="0" x2="10" y2="24" class="grid-line"/>
<line x1="10.5" y1="0" x2="10.5" y2="24" class="grid-line"/>
<line x1="11" y1="0" x2="11" y2="24" class="grid-line"/>
<line x1="11.5" y1="0" x2="11.5" y2="24" class="grid-line"/>
<line x1="12" y1="0" x2="12" y2="24" class="grid-line"/>
<line x1="12.5" y1="0" x2="12.5" y2="24" class="grid-line"/>
<line x1="13" y1="0" x2="13" y2="24" class="grid-line"/>
<line x1="13.5" y1="0" x2="13.5" y2="24" class="grid-line"/>
<line x1="14" y1="0" x2="14" y2="24" class="grid-line"/>
<line x1="14.5" y1="0" x2="14.5" y2="24" class="grid-line"/>
<line x1="15" y1="0" x2="15" y2="24" class="grid-line"/>
<line x1="15.5" y1="0" x2="15.5" y2="24" class="grid-line"/>
<line x1="16" y1="0" x2="16" y2="24" class="grid-line"/>
<line x1="16.5" y1="0" x2="16.5" y2="24" class="grid-line"/>
<line x1="17" y1="0" x2="17" y2="24" class="grid-line"/>
<line x1="17.5" y1="0" x2="17.5" y2="24" class="grid-line"/>
<line x1="18" y1="0" x2="18" y2="24" class="grid-line"/>
<line x1="18.5" y1="0" x2="18.5" y2="24" class="grid-line"/>
<line x1="19" y1="0" x2="19" y2="24" class="grid-line"/>
<line x1="19.5" y1="0" x2="19.5" y2="24" class="grid-line"/>
<line x1="20" y1="0" x2="20" y2="24" class="grid-line"/>
<line x1="20.5" y1="0" x2="20.5" y2="24" class="grid-line"/>
<line x1="21" y1="0" x2="21" y2="24" class="grid-line"/>
<line x1="21.5" y1="0" x2="21.5" y2="24" class="grid-line"/>
<line x1="22" y1="0" x2="22" y2="24" class="grid-line"/>
<line x1="22.5" y1="0" x2="22.5" y2="24" class="grid-line"/>
<line x1="23" y1="0" x2="23" y2="24" class="grid-line"/>
<line x1="23.5" y1="0" x2="23.5" y2="24" class="grid-line"/>
<line x1="24" y1="0" x2="24" y2="24" class="grid-line"/>
<line x1="0" y1="0" x2="24" y2="0" class="grid-line"/>
<line x1="0" y1="0.5" x2="24" y2="0.5" class="grid-line"/>
<line x1="0" y1="1" x2="24" y2="1" class="grid-line"/>
<line x1="0" y1="1.5" x2="24" y2="1.5" class="grid-line"/>
<line x1="0" y1="2" x2="24" y2="2" class="grid-line"/>
<line x1="0" y1="2.5" x2="24" y2="2.5" class="grid-line"/>
<line x1="0" y1="3" x2="24" y2="3" class="grid-line"/>
<line x1="0" y1="3.5" x2="24" y2="3.5" class="grid-line"/>
<line x1="0" y1="4" x2="24" y2="4" class="grid-line"/>
<line x1="0" y1="4.5" x2="24" y2="4.5" class="grid-line"/>
<line x1="0" y1="5" x2="24" y2="5" class="grid-line"/>
<line x1="0" y1="5.5" x2="24" y2="5.5" class="grid-line"/>
<line x1="0" y1="6" x2="24" y2="6" class="grid-line"/>
<line x1="0" y1="6.5" x2="24" y2="6.5" class="grid-line"/>
<line x1="0" y1="7" x2="24" y2="7" class="grid-line"/>
<line x1="0" y1="7.5" x2="24" y2="7.5" class="grid-line"/>
<line x1="0" y1="8" x2="24" y2="8" class="grid-line"/>
<line x1="0" y1="8.5" x2="24" y2="8.5" class="grid-line"/>
<line x1="0" y1="9" x2="24" y2="9" class="grid-line"/>
<line x1="0" y1="9.5" x2="24" y2="9.5" class="grid-line"/>
<line x1="0" y1="10" x2="24" y2="10" class="grid-line"/>
<line x1="0" y1="10.5" x2="24" y2="10.5" class="grid-line"/>
<line x1="0" y1="11" x2="24" y2="11" class="grid-line"/>
<line x1="0" y1="11.5" x2="24" y2="11.5" class="grid-line"/>
<line x1="0" y1="12" x2="24" y2="12" class="grid-line"/>
<line x1="0" y1="12.5" x2="24" y2="12.5" class="grid-line"/>
<line x1="0" y1="13" x2="24" y2="13" class="grid-line"/>
<line x1="0" y1="13.5" x2="24" y2="13.5" class="grid-line"/>
<line x1="0" y1="14" x2="24" y2="14" class="grid-line"/>
<line x1="0" y1="14.5" x2="24" y2="14.5" class="grid-line"/>
<line x1="0" y1="15" x2="24" y2="15" class="grid-line"/>
<line x1="0" y1="15.5" x2="24" y2="15.5" class="grid-line"/>
<line x1="0" y1="16" x2="24" y2="16" class="grid-line"/>
<line x1="0" y1="16.5" x2="24" y2="16.5" class="grid-line"/>
<line x1="0" y1="17" x2="24" y2="17" class="grid-line"/>
<line x1="0" y1="17.5" x2="24" y2="17.5" class="grid-line"/>
<line x1="0" y1="18" x2="24" y2="18" class="grid-line"/>
<line x1="0" y1="18.5" x2="24" y2="18.5" class="grid-line"/>
<line x1="0" y1="19" x2="24" y2="19" class="grid-line"/>
<line x1="0" y1="19.5" x2="24" y2="19.5" class="grid-line"/>
<line x1="0" y1="20" x2="24" y2="20" class="grid-line"/>
<line x1="0" y1="20.5" x2="24" y2="20.5" class="grid-line"/>
<line x1="0" y1="21" x2="24" y2="21" class="grid-line"/>
<line x1="0" y1="21.5" x2="24" y2="21.5" class="grid-line"/>
<line x1="0" y1="22" x2="24" y2="22" class="grid-line"/>
<line x1="0" y1="22.5" x2="24" y2="22.5" class="grid-line"/>
<line x1="0" y1="23" x2="24" y2="23" class="grid-line"/>
<line x1="0" y1="23.5" x2="24" y2="23.5" class="grid-line"/>
<line x1="0" y1="24" x2="24" y2="24" class="grid-line"/>
</g>
<g id="layer-delaunay" class="layer ">
<line x1="15.034074173710932" y1="12.741180954897478" x2="15.869473807779949" y2="12.00855513862619" class="delaunay-line"/>
<line x1="15.869473807779949" y1="12.00855513862619" x2="15.206646659708765" y2="12.391238570991279" class="delaunay-line"/>
<line x1="15.206646659708765" y1="12.391238570991279" x2="15.034074173710932" y2="12.741180954897478" class="delaunay-line"/>
<line x1="15.869473807779949" y1="12.00855513862619" x2="15.5" y2="12.13397459621556" class="delaunay-line"/>
<line x1="15.5" y1="12.13397459621556" x2="15.206646659708765" y2="12.391238570991279" class="delaunay-line"/>
<line x1="15.206646659708765" y1="12.391238570991279" x2="15.869473807779949" y2="12.00855513862619" class="delaunay-line"/>
<line x1="16.60876142900872" y1="12.206646659708765" x2="16.25881904510252" y2="12.034074173710932" class="delaunay-line"/>
<line x1="16.25881904510252" y1="12.034074173710932" x2="15.869473807779949" y2="12.00855513862619" class="delaunay-line"/>
<line x1="15.869473807779949" y1="12.00855513862619" x2="16.60876142900872" y2="12.206646659708765" class="delaunay-line"/>
<line x1="16.13052619222005" y1="13.99144486137381" x2="16.60876142900872" y2="12.206646659708765" class="delaunay-line"/>
<line x1="16.60876142900872" y1="12.206646659708765" x2="15.869473807779949" y2="12.00855513862619" class="delaunay-line"/>
<line x1="15.869473807779949" y1="12.00855513862619" x2="16.13052619222005" y2="13.99144486137381" class="delaunay-line"/>
<line x1="16.13052619222005" y1="13.99144486137381" x2="15.869473807779949" y2="12.00855513862619" class="delaunay-line"/>
<line x1="15.869473807779949" y1="12.00855513862619" x2="15.034074173710932" y2="12.741180954897478" class="delaunay-line"/>
<line x1="15.034074173710932" y1="12.741180954897478" x2="16.13052619222005" y2="13.99144486137381" class="delaunay-line"/>
<line x1="15.008555138626189" y1="13.130526192220053" x2="15.13397459621556" y2="13.5" class="delaunay-line"/>
<line x1="15.13397459621556" y1="13.5" x2="15.034074173710932" y2="12.741180954897478" class="delaunay-line"/>
<line x1="15.034074173710932" y1="12.741180954897478" x2="15.008555138626189" y2="13.130526192220053" class="delaunay-line"/>
<line x1="15.13397459621556" y1="13.5" x2="15.391238570991279" y2="13.793353340291235" class="delaunay-line"/>
<line x1="15.391238570991279" y1="13.793353340291235" x2="15.034074173710932" y2="12.741180954897478" class="delaunay-line"/>
<line x1="15.034074173710932" y1="12.741180954897478" x2="15.13397459621556" y2="13.5" class="delaunay-line"/>
<line x1="15.391238570991279" y1="13.793353340291235" x2="16.13052619222005" y2="13.99144486137381" class="delaunay-line"/>
<line x1="16.13052619222005" y1="13.99144486137381" x2="15.034074173710932" y2="12.741180954897478" class="delaunay-line"/>
<line x1="15.034074173710932" y1="12.741180954897478" x2="15.391238570991279" y2="13.793353340291235" class="delaunay-line"/>
<line x1="15.741180954897478" y1="13.965925826289068" x2="16.13052619222005" y2="13.99144486137381" class="delaunay-line"/>
<line x1="16.13052619222005" y1="13.99144486137381" x2="15.391238570991279" y2="13.793353340291235" class="delaunay-line"/>
<line x1="15.391238570991279" y1="13.793353340291235" x2="15.741180954897478" y2="13.965925826289068" class="delaunay-line"/>
<line x1="16.5" y1="13.866025403784437" x2="16.99144486137381" y2="12.869473807779949" class="delaunay-line"/>
<line x1="16.99144486137381" y1="12.869473807779949" x2="16.60876142900872" y2="12.206646659708765" class="delaunay-line"/>
<line x1="16.60876142900872" y1="12.206646659708765" x2="16.5" y2="13.866025403784437" class="delaunay-line"/>
<line x1="16.13052619222005" y1="13.99144486137381" x2="16.5" y2="13.866025403784437" class="delaunay-line"/>
<line x1="16.5" y1="13.866025403784437" x2="16.60876142900872" y2="12.206646659708765" class="delaunay-line"/>
<line x1="16.60876142900872" y1="12.206646659708765" x2="16.13052619222005" y2="13.99144486137381" class="delaunay-line"/>
<line x1="16.99144486137381" y1="12.869473807779949" x2="16.86602540378444" y2="12.499999999999998" class="delaunay-line"/>
<line x1="16.86602540378444" y1="12.499999999999998" x2="16.60876142900872" y2="12.206646659708765" class="delaunay-line"/>
<line x1="16.60876142900872" y1="12.206646659708765" x2="16.99144486137381" y2="12.869473807779949" class="delaunay-line"/>
<line x1="16.5" y1="13.866025403784437" x2="16.793353340291233" y2="13.608761429008723" class="delaunay-line"/>
<line x1="16.793353340291233" y1="13.608761429008723" x2="16.99144486137381" y2="12.869473807779949" class="delaunay-line"/>
<line x1="16.99144486137381" y1="12.869473807779949" x2="16.5" y2="13.866025403784437" class="delaunay-line"/>
<line x1="16.793353340291233" y1="13.608761429008723" x2="16.96592582628907" y2="13.258819045102522" class="delaunay-line"/>
<line x1="16.96592582628907" y1="13.258819045102522" x2="16.99144486137381" y2="12.869473807779949" class="delaunay-line"/>
<line x1="16.99144486137381" y1="12.869473807779949" x2="16.793353340291233" y2="13.608761429008723" class="delaunay-line"/>
<line x1="16.99144486137381" y1="12.869473807779949" x2="21.206646659708767" y2="10.608761429008721" class="delaunay-line"/>
<line x1="21.206646659708767" y1="10.608761429008721" x2="16.86602540378444" y2="12.499999999999998" class="delaunay-line"/>
<line x1="16.86602540378444" y1="12.499999999999998" x2="16.99144486137381" y2="12.869473807779949" class="delaunay-line"/>
<line x1="16.86602540378444" y1="12.499999999999998" x2="21.03407417371093" y2="10.25881904510252" class="delaunay-line"/>
<line x1="21.03407417371093" y1="10.25881904510252" x2="16.60876142900872" y2="12.206646659708765" class="delaunay-line"/>
<line x1="16.60876142900872" y1="12.206646659708765" x2="16.86602540378444" y2="12.499999999999998" class="delaunay-line"/>
<line x1="16.60876142900872" y1="12.206646659708765" x2="21.00855513862619" y2="9.86947380777995" class="delaunay-line"/>
<line x1="21.00855513862619" y1="9.86947380777995" x2="16.25881904510252" y2="12.034074173710932" class="delaunay-line"/>
<line x1="16.25881904510252" y1="12.034074173710932" x2="16.60876142900872" y2="12.206646659708765" class="delaunay-line"/>
<line x1="16.25881904510252" y1="12.034074173710932" x2="17.34138415215259" y2="3.9131569295963846" class="delaunay-line"/>
<line x1="17.34138415215259" y1="3.9131569295963846" x2="15.869473807779949" y2="12.00855513862619" class="delaunay-line"/>
<line x1="15.869473807779949" y1="12.00855513862619" x2="16.25881904510252" y2="12.034074173710932" class="delaunay-line"/>
<line x1="21.5" y1="10.86602540378444" x2="21.206646659708767" y2="10.608761429008721" class="delaunay-line"/>
<line x1="21.206646659708767" y1="10.608761429008721" x2="16.99144486137381" y2="12.869473807779949" class="delaunay-line"/>
<line x1="16.99144486137381" y1="12.869473807779949" x2="21.5" y2="10.86602540378444" class="delaunay-line"/>
<line x1="21.5" y1="15.13397459621556" x2="16.99144486137381" y2="12.869473807779949" class="delaunay-line"/>
<line x1="16.99144486137381" y1="12.869473807779949" x2="16.96592582628907" y2="13.258819045102522" class="delaunay-line"/>
<line x1="16.96592582628907" y1="13.258819045102522" x2="21.5" y2="15.13397459621556" class="delaunay-line"/>
<line x1="21.206646659708763" y1="15.39123857099128" x2="16.96592582628907" y2="13.258819045102522" class="delaunay-line"/>
<line x1="16.96592582628907" y1="13.258819045102522" x2="16.793353340291233" y2="13.608761429008723" class="delaunay-line"/>
<line x1="16.793353340291233" y1="13.608761429008723" x2="21.206646659708763" y2="15.39123857099128" class="delaunay-line"/>
<line x1="21.034074173710934" y1="15.74118095489748" x2="16.793353340291233" y2="13.608761429008723" class="delaunay-line"/>
<line x1="16.793353340291233" y1="13.608761429008723" x2="16.5" y2="13.866025403784437" class="delaunay-line"/>
<line x1="16.5" y1="13.866025403784437" x2="21.034074173710934" y2="15.74118095489748" class="delaunay-line"/>
<line x1="21.034074173710934" y1="15.74118095489748" x2="21.206646659708763" y2="15.39123857099128" class="delaunay-line"/>
<line x1="21.206646659708763" y1="15.39123857099128" x2="16.793353340291233" y2="13.608761429008723" class="delaunay-line"/>
<line x1="16.793353340291233" y1="13.608761429008723" x2="21.034074173710934" y2="15.74118095489748" class="delaunay-line"/>
<line x1="21.034074173710934" y1="15.74118095489748" x2="16.5" y2="13.866025403784437" class="delaunay-line"/>
<line x1="16.5" y1="13.866025403784437" x2="21.00855513862619" y2="16.13052619222005" class="delaunay-line"/>
<line x1="21.00855513862619" y1="16.13052619222005" x2="21.034074173710934" y2="15.74118095489748" class="delaunay-line"/>
<line x1="21.206646659708767" y1="10.608761429008721" x2="21.03407417371093" y2="10.25881904510252" class="delaunay-line"/>
<line x1="21.03407417371093" y1="10.25881904510252" x2="16.86602540378444" y2="12.499999999999998" class="delaunay-line"/>
<line x1="16.86602540378444" y1="12.499999999999998" x2="21.206646659708767" y2="10.608761429008721" class="delaunay-line"/>
<line x1="21.00855513862619" y1="16.13052619222005" x2="16.5" y2="13.866025403784437" class="delaunay-line"/>
<line x1="16.5" y1="13.866025403784437" x2="16.13052619222005" y2="13.99144486137381" class="delaunay-line"/>
<line x1="16.13052619222005" y1="13.99144486137381" x2="21.00855513862619" y2="16.13052619222005" class="delaunay-line"/>
<line x1="21.5" y1="15.13397459621556" x2="21.5" y2="10.86602540378444" class="delaunay-line"/>
<line x1="21.5" y1="10.86602540378444" x2="16.99144486137381" y2="12.869473807779949" class="delaunay-line"/>
<line x1="16.99144486137381" y1="12.869473807779949" x2="21.5" y2="15.13397459621556" class="delaunay-line"/>
<line x1="21.206646659708767" y1="10.608761429008721" x2="21.00855513862619" y2="9.86947380777995" class="delaunay-line"/>
<line x1="21.00855513862619" y1="9.86947380777995" x2="21.03407417371093" y2="10.25881904510252" class="delaunay-line"/>
<line x1="21.03407417371093" y1="10.25881904510252" x2="21.206646659708767" y2="10.608761429008721" class="delaunay-line"/>
<line x1="21.034074173710934" y1="15.74118095489748" x2="21.5" y2="15.13397459621556" class="delaunay-line"/>
<line x1="21.5" y1="15.13397459621556" x2="21.206646659708763" y2="15.39123857099128" class="delaunay-line"/>
<line x1="21.206646659708763" y1="15.39123857099128" x2="21.034074173710934" y2="15.74118095489748" class="delaunay-line"/>
<line x1="21.206646659708763" y1="15.39123857099128" x2="21.5" y2="15.13397459621556" class="delaunay-line"/>
<line x1="21.5" y1="15.13397459621556" x2="16.96592582628907" y2="13.258819045102522" class="delaunay-line"/>
<line x1="16.96592582628907" y1="13.258819045102522" x2="21.206646659708763" y2="15.39123857099128" class="delaunay-line"/>
<line x1="21.133974596215563" y1="9.5" x2="21.00855513862619" y2="9.86947380777995" class="delaunay-line"/>
<line x1="21.00855513862619" y1="9.86947380777995" x2="21.206646659708767" y2="10.608761429008721" class="delaunay-line"/>
<line x1="21.206646659708767" y1="10.608761429008721" x2="21.133974596215563" y2="9.5" class="delaunay-line"/>
<line x1="21.03407417371093" y1="10.25881904510252" x2="21.00855513862619" y2="9.86947380777995" class="delaunay-line"/>
<line x1="21.00855513862619" y1="9.86947380777995" x2="16.60876142900872" y2="12.206646659708765" class="delaunay-line"/>
<line x1="16.60876142900872" y1="12.206646659708765" x2="21.03407417371093" y2="10.25881904510252" class="delaunay-line"/>
<line x1="15.869473807779949" y1="12.00855513862619" x2="17.34138415215259" y2="3.9131569295963846" class="delaunay-line"/>
<line x1="17.34138415215259" y1="3.9131569295963846" x2="15.5" y2="12.13397459621556" class="delaunay-line"/>
<line x1="15.5" y1="12.13397459621556" x2="15.869473807779949" y2="12.00855513862619" class="delaunay-line"/>
<line x1="21.133974596215563" y1="16.5" x2="21.00855513862619" y2="16.13052619222005" class="delaunay-line"/>
<line x1="21.00855513862619" y1="16.13052619222005" x2="18.74118095489748" y2="21.034074173710934" class="delaunay-line"/>
<line x1="18.74118095489748" y1="21.034074173710934" x2="21.133974596215563" y2="16.5" class="delaunay-line"/>
<line x1="21.034074173710934" y1="15.74118095489748" x2="21.869473807779947" y2="15.008555138626189" class="delaunay-line"/>
<line x1="21.869473807779947" y1="15.008555138626189" x2="21.5" y2="15.13397459621556" class="delaunay-line"/>
<line x1="21.5" y1="15.13397459621556" x2="21.034074173710934" y2="15.74118095489748" class="delaunay-line"/>
<line x1="15.13397459621556" y1="13.5" x2="13.459098475614777" y2="18.402044323932408" class="delaunay-line"/>
<line x1="13.459098475614777" y1="18.402044323932408" x2="15.391238570991279" y2="13.793353340291235" class="delaunay-line"/>
<line x1="15.391238570991279" y1="13.793353340291235" x2="15.13397459621556" y2="13.5" class="delaunay-line"/>
<line x1="15.391238570991279" y1="13.793353340291235" x2="13.459098475614777" y2="18.402044323932408" class="delaunay-line"/>
<line x1="13.459098475614777" y1="18.402044323932408" x2="15.741180954897478" y2="13.965925826289068" class="delaunay-line"/>
<line x1="15.741180954897478" y1="13.965925826289068" x2="15.391238570991279" y2="13.793353340291235" class="delaunay-line"/>
<line x1="15.741180954897478" y1="13.965925826289068" x2="13.459098475614777" y2="18.402044323932408" class="delaunay-line"/>
<line x1="13.459098475614777" y1="18.402044323932408" x2="16.13052619222005" y2="13.99144486137381" class="delaunay-line"/>
<line x1="16.13052619222005" y1="13.99144486137381" x2="15.741180954897478" y2="13.965925826289068" class="delaunay-line"/>
<line x1="15.008555138626189" y1="13.130526192220053" x2="13.459098475614777" y2="18.402044323932408" class="delaunay-line"/>
<line x1="13.459098475614777" y1="18.402044323932408" x2="15.13397459621556" y2="13.5" class="delaunay-line"/>
<line x1="15.13397459621556" y1="13.5" x2="15.008555138626189" y2="13.130526192220053" class="delaunay-line"/>
<line x1="4.793353340291237" y1="21.39123857099128" x2="13.459098475614777" y2="18.402044323932408" class="delaunay-line"/>
<line x1="13.459098475614777" y1="18.402044323932408" x2="4.5" y2="21.133974596215563" class="delaunay-line"/>
<line x1="4.5" y1="21.133974596215563" x2="4.793353340291237" y2="21.39123857099128" class="delaunay-line"/>
<line x1="21.869473807779947" y1="15.008555138626189" x2="21.869473807779947" y2="10.99144486137381" class="delaunay-line"/>
<line x1="21.869473807779947" y1="10.99144486137381" x2="21.5" y2="10.86602540378444" class="delaunay-line"/>
<line x1="21.5" y1="10.86602540378444" x2="21.869473807779947" y2="15.008555138626189" class="delaunay-line"/>
<line x1="21.5" y1="10.86602540378444" x2="21.869473807779947" y2="10.99144486137381" class="delaunay-line"/>
<line x1="21.869473807779947" y1="10.99144486137381" x2="21.206646659708767" y2="10.608761429008721" class="delaunay-line"/>
<line x1="21.206646659708767" y1="10.608761429008721" x2="21.5" y2="10.86602540378444" class="delaunay-line"/>
<line x1="22.258819045102523" y1="15.034074173710932" x2="21.869473807779947" y2="15.008555138626189" class="delaunay-line"/>
<line x1="21.869473807779947" y1="15.008555138626189" x2="21.034074173710934" y2="15.74118095489748" class="delaunay-line"/>
<line x1="21.034074173710934" y1="15.74118095489748" x2="22.258819045102523" y2="15.034074173710932" class="delaunay-line"/>
<line x1="21.5" y1="15.13397459621556" x2="21.869473807779947" y2="15.008555138626189" class="delaunay-line"/>
<line x1="21.869473807779947" y1="15.008555138626189" x2="21.5" y2="10.86602540378444" class="delaunay-line"/>
<line x1="21.5" y1="10.86602540378444" x2="21.5" y2="15.13397459621556" class="delaunay-line"/>
<line x1="21.741180954897477" y1="9.034074173710934" x2="21.133974596215563" y2="9.5" class="delaunay-line"/>
<line x1="21.133974596215563" y1="9.5" x2="21.206646659708767" y2="10.608761429008721" class="delaunay-line"/>
<line x1="21.206646659708767" y1="10.608761429008721" x2="21.741180954897477" y2="9.034074173710934" class="delaunay-line"/>
<line x1="21.00855513862619" y1="9.86947380777995" x2="21.133974596215563" y2="9.5" class="delaunay-line"/>
<line x1="21.133974596215563" y1="9.5" x2="16.25881904510252" y2="12.034074173710932" class="delaunay-line"/>
<line x1="16.25881904510252" y1="12.034074173710932" x2="21.00855513862619" y2="9.86947380777995" class="delaunay-line"/>
<line x1="18.74118095489748" y1="21.034074173710934" x2="21.00855513862619" y2="16.13052619222005" class="delaunay-line"/>
<line x1="21.00855513862619" y1="16.13052619222005" x2="16.13052619222005" y2="13.99144486137381" class="delaunay-line"/>
<line x1="16.13052619222005" y1="13.99144486137381" x2="18.74118095489748" y2="21.034074173710934" class="delaunay-line"/>
<line x1="21.00855513862619" y1="16.13052619222005" x2="21.133974596215563" y2="16.5" class="delaunay-line"/>
<line x1="21.133974596215563" y1="16.5" x2="21.034074173710934" y2="15.74118095489748" class="delaunay-line"/>
<line x1="21.034074173710934" y1="15.74118095489748" x2="21.00855513862619" y2="16.13052619222005" class="delaunay-line"/>
<line x1="21.869473807779947" y1="15.008555138626189" x2="22.258819045102523" y2="10.965925826289066" class="delaunay-line"/>
<line x1="22.258819045102523" y1="10.965925826289066" x2="21.869473807779947" y2="10.99144486137381" class="delaunay-line"/>
<line x1="21.869473807779947" y1="10.99144486137381" x2="21.869473807779947" y2="15.008555138626189" class="delaunay-line"/>
<line x1="21.869473807779947" y1="10.99144486137381" x2="22.258819045102523" y2="10.965925826289066" class="delaunay-line"/>
<line x1="22.258819045102523" y1="10.965925826289066" x2="21.206646659708767" y2="10.608761429008721" class="delaunay-line"/>
<line x1="21.206646659708767" y1="10.608761429008721" x2="21.869473807779947" y2="10.99144486137381" class="delaunay-line"/>
<line x1="22.60876142900872" y1="15.206646659708763" x2="22.258819045102523" y2="15.034074173710932" class="delaunay-line"/>
<line x1="22.258819045102523" y1="15.034074173710932" x2="22.866025403784437" y2="15.5" class="delaunay-line"/>
<line x1="22.866025403784437" y1="15.5" x2="22.60876142900872" y2="15.206646659708763" class="delaunay-line"/>
<line x1="21.869473807779947" y1="15.008555138626189" x2="22.258819045102523" y2="15.034074173710932" class="delaunay-line"/>
<line x1="22.258819045102523" y1="15.034074173710932" x2="22.258819045102523" y2="10.965925826289066" class="delaunay-line"/>
<line x1="22.258819045102523" y1="10.965925826289066" x2="21.869473807779947" y2="15.008555138626189" class="delaunay-line"/>
<line x1="21.741180954897477" y1="9.034074173710934" x2="21.39123857099128" y2="9.206646659708763" class="delaunay-line"/>
<line x1="21.39123857099128" y1="9.206646659708763" x2="21.133974596215563" y2="9.5" class="delaunay-line"/>
<line x1="21.133974596215563" y1="9.5" x2="21.741180954897477" y2="9.034074173710934" class="delaunay-line"/>
<line x1="21.133974596215563" y1="9.5" x2="17.34138415215259" y2="3.9131569295963846" class="delaunay-line"/>
<line x1="17.34138415215259" y1="3.9131569295963846" x2="16.25881904510252" y2="12.034074173710932" class="delaunay-line"/>
<line x1="16.25881904510252" y1="12.034074173710932" x2="21.133974596215563" y2="9.5" class="delaunay-line"/>
<line x1="19.13052619222005" y1="21.00855513862619" x2="21.39123857099128" y2="16.793353340291237" class="delaunay-line"/>
<line x1="21.39123857099128" y1="16.793353340291237" x2="21.133974596215563" y2="16.5" class="delaunay-line"/>
<line x1="21.133974596215563" y1="16.5" x2="19.13052619222005" y2="21.00855513862619" class="delaunay-line"/>
<line x1="22.866025403784437" y1="15.5" x2="22.258819045102523" y2="15.034074173710932" class="delaunay-line"/>
<line x1="22.258819045102523" y1="15.034074173710932" x2="21.034074173710934" y2="15.74118095489748" class="delaunay-line"/>
<line x1="21.034074173710934" y1="15.74118095489748" x2="22.866025403784437" y2="15.5" class="delaunay-line"/>
<line x1="22.258819045102523" y1="15.034074173710932" x2="22.60876142900872" y2="10.793353340291237" class="delaunay-line"/>
<line x1="22.60876142900872" y1="10.793353340291237" x2="22.258819045102523" y2="10.965925826289066" class="delaunay-line"/>
<line x1="22.258819045102523" y1="10.965925826289066" x2="22.258819045102523" y2="15.034074173710932" class="delaunay-line"/>
<line x1="22.258819045102523" y1="10.965925826289066" x2="21.741180954897477" y2="9.034074173710934" class="delaunay-line"/>
<line x1="21.741180954897477" y1="9.034074173710934" x2="21.206646659708767" y2="10.608761429008721" class="delaunay-line"/>
<line x1="21.206646659708767" y1="10.608761429008721" x2="22.258819045102523" y2="10.965925826289066" class="delaunay-line"/>
<line x1="21.74118095489748" y1="16.965925826289066" x2="21.034074173710934" y2="15.74118095489748" class="delaunay-line"/>
<line x1="21.034074173710934" y1="15.74118095489748" x2="21.133974596215563" y2="16.5" class="delaunay-line"/>
<line x1="21.133974596215563" y1="16.5" x2="21.74118095489748" y2="16.965925826289066" class="delaunay-line"/>
<line x1="22.258819045102523" y1="15.034074173710932" x2="22.60876142900872" y2="15.206646659708763" class="delaunay-line"/>
<line x1="22.60876142900872" y1="15.206646659708763" x2="22.60876142900872" y2="10.793353340291237" class="delaunay-line"/>
<line x1="22.60876142900872" y1="10.793353340291237" x2="22.258819045102523" y2="15.034074173710932" class="delaunay-line"/>
<line x1="22.793353340291233" y1="9.391238570991279" x2="21.741180954897477" y2="9.034074173710934" class="delaunay-line"/>
<line x1="21.741180954897477" y1="9.034074173710934" x2="22.258819045102523" y2="10.965925826289066" class="delaunay-line"/>
<line x1="22.258819045102523" y1="10.965925826289066" x2="22.793353340291233" y2="9.391238570991279" class="delaunay-line"/>
<line x1="19.5" y1="21.133974596215563" x2="21.74118095489748" y2="16.965925826289066" class="delaunay-line"/>
<line x1="21.74118095489748" y1="16.965925826289066" x2="21.39123857099128" y2="16.793353340291237" class="delaunay-line"/>
<line x1="21.39123857099128" y1="16.793353340291237" x2="19.5" y2="21.133974596215563" class="delaunay-line"/>
<line x1="21.39123857099128" y1="16.793353340291237" x2="21.74118095489748" y2="16.965925826289066" class="delaunay-line"/>
<line x1="21.74118095489748" y1="16.965925826289066" x2="21.133974596215563" y2="16.5" class="delaunay-line"/>
<line x1="21.133974596215563" y1="16.5" x2="21.39123857099128" y2="16.793353340291237" class="delaunay-line"/>
<line x1="22.60876142900872" y1="15.206646659708763" x2="22.866025403784437" y2="10.5" class="delaunay-line"/>
<line x1="22.866025403784437" y1="10.5" x2="22.60876142900872" y2="10.793353340291237" class="delaunay-line"/>
<line x1="22.60876142900872" y1="10.793353340291237" x2="22.60876142900872" y2="15.206646659708763" class="delaunay-line"/>
<line x1="22.60876142900872" y1="10.793353340291237" x2="22.866025403784437" y2="10.5" class="delaunay-line"/>
<line x1="22.866025403784437" y1="10.5" x2="22.258819045102523" y2="10.965925826289066" class="delaunay-line"/>
<line x1="22.258819045102523" y1="10.965925826289066" x2="22.60876142900872" y2="10.793353340291237" class="delaunay-line"/>
<line x1="22.793353340291233" y1="16.60876142900872" x2="22.866025403784437" y2="15.5" class="delaunay-line"/>
<line x1="22.866025403784437" y1="15.5" x2="21.034074173710934" y2="15.74118095489748" class="delaunay-line"/>
<line x1="21.034074173710934" y1="15.74118095489748" x2="22.793353340291233" y2="16.60876142900872" class="delaunay-line"/>
<line x1="22.60876142900872" y1="15.206646659708763" x2="22.866025403784437" y2="15.5" class="delaunay-line"/>
<line x1="22.866025403784437" y1="15.5" x2="22.866025403784437" y2="10.5" class="delaunay-line"/>
<line x1="22.866025403784437" y1="10.5" x2="22.60876142900872" y2="15.206646659708763" class="delaunay-line"/>
<line x1="22.793353340291233" y1="9.391238570991279" x2="22.130526192220053" y2="9.00855513862619" class="delaunay-line"/>
<line x1="22.130526192220053" y1="9.00855513862619" x2="21.741180954897477" y2="9.034074173710934" class="delaunay-line"/>
<line x1="21.741180954897477" y1="9.034074173710934" x2="22.793353340291233" y2="9.391238570991279" class="delaunay-line"/>
<line x1="19.793353340291237" y1="21.39123857099128" x2="22.13052619222005" y2="16.99144486137381" class="delaunay-line"/>
<line x1="22.13052619222005" y1="16.99144486137381" x2="21.74118095489748" y2="16.965925826289066" class="delaunay-line"/>
<line x1="21.74118095489748" y1="16.965925826289066" x2="19.793353340291237" y2="21.39123857099128" class="delaunay-line"/>
<line x1="22.793353340291233" y1="16.60876142900872" x2="22.99144486137381" y2="15.86947380777995" class="delaunay-line"/>
<line x1="22.99144486137381" y1="15.86947380777995" x2="22.866025403784437" y2="15.5" class="delaunay-line"/>
<line x1="22.866025403784437" y1="15.5" x2="22.793353340291233" y2="16.60876142900872" class="delaunay-line"/>
<line x1="22.866025403784437" y1="15.5" x2="22.99144486137381" y2="10.13052619222005" class="delaunay-line"/>
<line x1="22.99144486137381" y1="10.13052619222005" x2="22.866025403784437" y2="10.5" class="delaunay-line"/>
<line x1="22.866025403784437" y1="10.5" x2="22.866025403784437" y2="15.5" class="delaunay-line"/>
<line x1="22.866025403784437" y1="10.5" x2="22.793353340291233" y2="9.391238570991279" class="delaunay-line"/>
<line x1="22.793353340291233" y1="9.391238570991279" x2="22.258819045102523" y2="10.965925826289066" class="delaunay-line"/>
<line x1="22.258819045102523" y1="10.965925826289066" x2="22.866025403784437" y2="10.5" class="delaunay-line"/>
<line x1="22.793353340291233" y1="16.60876142900872" x2="21.034074173710934" y2="15.74118095489748" class="delaunay-line"/>
<line x1="21.034074173710934" y1="15.74118095489748" x2="21.74118095489748" y2="16.965925826289066" class="delaunay-line"/>
<line x1="21.74118095489748" y1="16.965925826289066" x2="22.793353340291233" y2="16.60876142900872" class="delaunay-line"/>
<line x1="22.866025403784437" y1="15.5" x2="22.99144486137381" y2="15.86947380777995" class="delaunay-line"/>
<line x1="22.99144486137381" y1="15.86947380777995" x2="22.99144486137381" y2="10.13052619222005" class="delaunay-line"/>
<line x1="22.99144486137381" y1="10.13052619222005" x2="22.866025403784437" y2="15.5" class="delaunay-line"/>
<line x1="22.793353340291233" y1="9.391238570991279" x2="22.5" y2="9.13397459621556" class="delaunay-line"/>
<line x1="22.5" y1="9.13397459621556" x2="22.130526192220053" y2="9.00855513862619" class="delaunay-line"/>
<line x1="22.130526192220053" y1="9.00855513862619" x2="22.793353340291233" y2="9.391238570991279" class="delaunay-line"/>
<line x1="22.13052619222005" y1="16.99144486137381" x2="22.5" y2="16.866025403784437" class="delaunay-line"/>
<line x1="22.5" y1="16.866025403784437" x2="21.74118095489748" y2="16.965925826289066" class="delaunay-line"/>
<line x1="21.74118095489748" y1="16.965925826289066" x2="22.13052619222005" y2="16.99144486137381" class="delaunay-line"/>
<line x1="22.99144486137381" y1="10.13052619222005" x2="22.793353340291233" y2="9.391238570991279" class="delaunay-line"/>
<line x1="22.793353340291233" y1="9.391238570991279" x2="22.866025403784437" y2="10.5" class="delaunay-line"/>
<line x1="22.866025403784437" y1="10.5" x2="22.99144486137381" y2="10.13052619222005" class="delaunay-line"/>
<line x1="22.793353340291233" y1="16.60876142900872" x2="22.96592582628907" y2="16.25881904510252" class="delaunay-line"/>
<line x1="22.96592582628907" y1="16.25881904510252" x2="22.99144486137381" y2="15.86947380777995" class="delaunay-line"/>
<line x1="22.99144486137381" y1="15.86947380777995" x2="22.793353340291233" y2="16.60876142900872" class="delaunay-line"/>
<line x1="22.96592582628907" y1="9.74118095489748" x2="22.793353340291233" y2="9.391238570991279" class="delaunay-line"/>
<line x1="22.793353340291233" y1="9.391238570991279" x2="22.99144486137381" y2="10.13052619222005" class="delaunay-line"/>
<line x1="22.99144486137381" y1="10.13052619222005" x2="22.96592582628907" y2="9.74118095489748" class="delaunay-line"/>
<line x1="22.5" y1="16.866025403784437" x2="22.793353340291233" y2="16.60876142900872" class="delaunay-line"/>
<line x1="22.793353340291233" y1="16.60876142900872" x2="21.74118095489748" y2="16.965925826289066" class="delaunay-line"/>
<line x1="21.74118095489748" y1="16.965925826289066" x2="22.5" y2="16.866025403784437" class="delaunay-line"/>
<line x1="13.459098475614777" y1="18.402044323932408" x2="18.74118095489748" y2="21.034074173710934" class="delaunay-line"/>
<line x1="18.74118095489748" y1="21.034074173710934" x2="16.13052619222005" y2="13.99144486137381" class="delaunay-line"/>
<line x1="16.13052619222005" y1="13.99144486137381" x2="13.459098475614777" y2="18.402044323932408" class="delaunay-line"/>
<line x1="22.13052619222005" y1="16.99144486137381" x2="24" y2="24" class="delaunay-line"/>
<line x1="24" y1="24" x2="22.5" y2="16.866025403784437" class="delaunay-line"/>
<line x1="22.5" y1="16.866025403784437" x2="22.13052619222005" y2="16.99144486137381" class="delaunay-line"/>
<line x1="22.5" y1="16.866025403784437" x2="24" y2="24" class="delaunay-line"/>
<line x1="24" y1="24" x2="22.793353340291233" y2="16.60876142900872" class="delaunay-line"/>
<line x1="22.793353340291233" y1="16.60876142900872" x2="22.5" y2="16.866025403784437" class="delaunay-line"/>
<line x1="13.459098475614777" y1="18.402044323932408" x2="18.39123857099128" y2="21.206646659708763" class="delaunay-line"/>
<line x1="18.39123857099128" y1="21.206646659708763" x2="18.74118095489748" y2="21.034074173710934" class="delaunay-line"/>
<line x1="18.74118095489748" y1="21.034074173710934" x2="13.459098475614777" y2="18.402044323932408" class="delaunay-line"/>
<line x1="13.130526192220053" y1="21.00855513862619" x2="13.5" y2="21.13397459621556" class="delaunay-line"/>
<line x1="13.5" y1="21.13397459621556" x2="13.459098475614777" y2="18.402044323932408" class="delaunay-line"/>
<line x1="13.459098475614777" y1="18.402044323932408" x2="13.130526192220053" y2="21.00855513862619" class="delaunay-line"/>
<line x1="18.133974596215563" y1="21.5" x2="18.39123857099128" y2="21.206646659708763" class="delaunay-line"/>
<line x1="18.39123857099128" y1="21.206646659708763" x2="13.459098475614777" y2="18.402044323932408" class="delaunay-line"/>
<line x1="13.459098475614777" y1="18.402044323932408" x2="18.133974596215563" y2="21.5" class="delaunay-line"/>
<line x1="19.5" y1="21.133974596215563" x2="19.13052619222005" y2="21.00855513862619" class="delaunay-line"/>
<line x1="19.13052619222005" y1="21.00855513862619" x2="18.74118095489748" y2="21.034074173710934" class="delaunay-line"/>
<line x1="18.74118095489748" y1="21.034074173710934" x2="19.5" y2="21.133974596215563" class="delaunay-line"/>
<line x1="18.74118095489748" y1="21.034074173710934" x2="19.13052619222005" y2="21.00855513862619" class="delaunay-line"/>
<line x1="19.13052619222005" y1="21.00855513862619" x2="21.133974596215563" y2="16.5" class="delaunay-line"/>
<line x1="21.133974596215563" y1="16.5" x2="18.74118095489748" y2="21.034074173710934" class="delaunay-line"/>
<line x1="13.459098475614777" y1="18.402044323932408" x2="12.74118095489748" y2="21.03407417371093" class="delaunay-line"/>
<line x1="12.74118095489748" y1="21.03407417371093" x2="13.130526192220053" y2="21.00855513862619" class="delaunay-line"/>
<line x1="13.130526192220053" y1="21.00855513862619" x2="13.459098475614777" y2="18.402044323932408" class="delaunay-line"/>
<line x1="13.130526192220053" y1="21.00855513862619" x2="13.793353340291235" y2="21.39123857099128" class="delaunay-line"/>
<line x1="13.793353340291235" y1="21.39123857099128" x2="13.5" y2="21.13397459621556" class="delaunay-line"/>
<line x1="13.5" y1="21.13397459621556" x2="13.130526192220053" y2="21.00855513862619" class="delaunay-line"/>
<line x1="12.133974596215563" y1="21.5" x2="13.793353340291235" y2="21.39123857099128" class="delaunay-line"/>
<line x1="13.793353340291235" y1="21.39123857099128" x2="13.130526192220053" y2="21.00855513862619" class="delaunay-line"/>
<line x1="13.130526192220053" y1="21.00855513862619" x2="12.133974596215563" y2="21.5" class="delaunay-line"/>
<line x1="13.5" y1="21.13397459621556" x2="13.793353340291235" y2="21.39123857099128" class="delaunay-line"/>
<line x1="13.793353340291235" y1="21.39123857099128" x2="13.459098475614777" y2="18.402044323932408" class="delaunay-line"/>
<line x1="13.459098475614777" y1="18.402044323932408" x2="13.5" y2="21.13397459621556" class="delaunay-line"/>
<line x1="13.793353340291235" y1="21.39123857099128" x2="18.133974596215563" y2="21.5" class="delaunay-line"/>
<line x1="18.133974596215563" y1="21.5" x2="13.459098475614777" y2="18.402044323932408" class="delaunay-line"/>
<line x1="13.459098475614777" y1="18.402044323932408" x2="13.793353340291235" y2="21.39123857099128" class="delaunay-line"/>
<line x1="18.39123857099128" y1="21.206646659708763" x2="18.133974596215563" y2="21.5" class="delaunay-line"/>
<line x1="18.133974596215563" y1="21.5" x2="18.74118095489748" y2="21.034074173710934" class="delaunay-line"/>
<line x1="18.74118095489748" y1="21.034074173710934" x2="18.39123857099128" y2="21.206646659708763" class="delaunay-line"/>
<line x1="19.793353340291237" y1="21.39123857099128" x2="19.5" y2="21.133974596215563" class="delaunay-line"/>
<line x1="19.5" y1="21.133974596215563" x2="19.965925826289066" y2="21.74118095489748" class="delaunay-line"/>
<line x1="19.965925826289066" y1="21.74118095489748" x2="19.793353340291237" y2="21.39123857099128" class="delaunay-line"/>
<line x1="19.13052619222005" y1="21.00855513862619" x2="19.5" y2="21.133974596215563" class="delaunay-line"/>
<line x1="19.5" y1="21.133974596215563" x2="21.39123857099128" y2="16.793353340291237" class="delaunay-line"/>
<line x1="21.39123857099128" y1="16.793353340291237" x2="19.13052619222005" y2="21.00855513862619" class="delaunay-line"/>
<line x1="13.459098475614777" y1="18.402044323932408" x2="12.391238570991277" y2="21.206646659708763" class="delaunay-line"/>
<line x1="12.391238570991277" y1="21.206646659708763" x2="12.74118095489748" y2="21.03407417371093" class="delaunay-line"/>
<line x1="12.74118095489748" y1="21.03407417371093" x2="13.459098475614777" y2="18.402044323932408" class="delaunay-line"/>
<line x1="13.99144486137381" y1="22.13052619222005" x2="13.965925826289068" y2="21.74118095489748" class="delaunay-line"/>
<line x1="13.965925826289068" y1="21.74118095489748" x2="13.793353340291235" y2="21.39123857099128" class="delaunay-line"/>
<line x1="13.793353340291235" y1="21.39123857099128" x2="13.99144486137381" y2="22.13052619222005" class="delaunay-line"/>
<line x1="12.133974596215563" y1="21.5" x2="12.391238570991277" y2="21.206646659708763" class="delaunay-line"/>
<line x1="12.391238570991277" y1="21.206646659708763" x2="13.459098475614777" y2="18.402044323932408" class="delaunay-line"/>
<line x1="13.459098475614777" y1="18.402044323932408" x2="12.133974596215563" y2="21.5" class="delaunay-line"/>
<line x1="12.133974596215563" y1="21.5" x2="13.130526192220053" y2="21.00855513862619" class="delaunay-line"/>
<line x1="13.130526192220053" y1="21.00855513862619" x2="12.74118095489748" y2="21.03407417371093" class="delaunay-line"/>
<line x1="12.74118095489748" y1="21.03407417371093" x2="12.133974596215563" y2="21.5" class="delaunay-line"/>
<line x1="13.793353340291235" y1="21.39123857099128" x2="13.965925826289068" y2="21.74118095489748" class="delaunay-line"/>
<line x1="13.965925826289068" y1="21.74118095489748" x2="18.133974596215563" y2="21.5" class="delaunay-line"/>
<line x1="18.133974596215563" y1="21.5" x2="13.793353340291235" y2="21.39123857099128" class="delaunay-line"/>
<line x1="13.965925826289068" y1="21.74118095489748" x2="18.00855513862619" y2="21.86947380777995" class="delaunay-line"/>
<line x1="18.00855513862619" y1="21.86947380777995" x2="18.133974596215563" y2="21.5" class="delaunay-line"/>
<line x1="18.133974596215563" y1="21.5" x2="13.965925826289068" y2="21.74118095489748" class="delaunay-line"/>
<line x1="18.133974596215563" y1="21.5" x2="18.034074173710934" y2="22.25881904510252" class="delaunay-line"/>
<line x1="18.034074173710934" y1="22.25881904510252" x2="18.74118095489748" y2="21.034074173710934" class="delaunay-line"/>
<line x1="18.74118095489748" y1="21.034074173710934" x2="18.133974596215563" y2="21.5" class="delaunay-line"/>
<line x1="21.741180954897477" y1="9.034074173710934" x2="22.130526192220053" y2="9.00855513862619" class="delaunay-line"/>
<line x1="22.130526192220053" y1="9.00855513862619" x2="22" y2="2" class="delaunay-line"/>
<line x1="22" y1="2" x2="21.741180954897477" y2="9.034074173710934" class="delaunay-line"/>
<line x1="21.61731656763491" y1="1.923879532511286" x2="21.741180954897477" y2="9.034074173710934" class="delaunay-line"/>
<line x1="21.741180954897477" y1="9.034074173710934" x2="22" y2="2" class="delaunay-line"/>
<line x1="22" y1="2" x2="21.61731656763491" y2="1.923879532511286" class="delaunay-line"/>
<line x1="21.61731656763491" y1="1.923879532511286" x2="17.34138415215259" y2="3.9131569295963846" class="delaunay-line"/>
<line x1="17.34138415215259" y1="3.9131569295963846" x2="21.741180954897477" y2="9.034074173710934" class="delaunay-line"/>
<line x1="21.741180954897477" y1="9.034074173710934" x2="21.61731656763491" y2="1.923879532511286" class="delaunay-line"/>
<line x1="21.741180954897477" y1="9.034074173710934" x2="17.34138415215259" y2="3.9131569295963846" class="delaunay-line"/>
<line x1="17.34138415215259" y1="3.9131569295963846" x2="21.39123857099128" y2="9.206646659708763" class="delaunay-line"/>
<line x1="21.39123857099128" y1="9.206646659708763" x2="21.741180954897477" y2="9.034074173710934" class="delaunay-line"/>
<line x1="21.39123857099128" y1="9.206646659708763" x2="17.34138415215259" y2="3.9131569295963846" class="delaunay-line"/>
<line x1="17.34138415215259" y1="3.9131569295963846" x2="21.133974596215563" y2="9.5" class="delaunay-line"/>
<line x1="21.133974596215563" y1="9.5" x2="21.39123857099128" y2="9.206646659708763" class="delaunay-line"/>
<line x1="15.5" y1="12.13397459621556" x2="17.34138415215259" y2="3.9131569295963846" class="delaunay-line"/>
<line x1="17.34138415215259" y1="3.9131569295963846" x2="15.206646659708765" y2="12.391238570991279" class="delaunay-line"/>
<line x1="15.206646659708765" y1="12.391238570991279" x2="15.5" y2="12.13397459621556" class="delaunay-line"/>
<line x1="13.459098475614777" y1="18.402044323932408" x2="15.008555138626189" y2="13.130526192220053" class="delaunay-line"/>
<line x1="15.008555138626189" y1="13.130526192220053" x2="1.8679885601459572" y2="15.296215782702161" class="delaunay-line"/>
<line x1="1.8679885601459572" y1="15.296215782702161" x2="13.459098475614777" y2="18.402044323932408" class="delaunay-line"/>
<line x1="4.793353340291237" y1="21.39123857099128" x2="12.133974596215563" y2="21.5" class="delaunay-line"/>
<line x1="12.133974596215563" y1="21.5" x2="13.459098475614777" y2="18.402044323932408" class="delaunay-line"/>
<line x1="13.459098475614777" y1="18.402044323932408" x2="4.793353340291237" y2="21.39123857099128" class="delaunay-line"/>
<line x1="19.965925826289066" y1="21.74118095489748" x2="19.5" y2="21.133974596215563" class="delaunay-line"/>
<line x1="19.5" y1="21.133974596215563" x2="18.74118095489748" y2="21.034074173710934" class="delaunay-line"/>
<line x1="18.74118095489748" y1="21.034074173710934" x2="19.965925826289066" y2="21.74118095489748" class="delaunay-line"/>
<line x1="19.5" y1="21.133974596215563" x2="19.793353340291237" y2="21.39123857099128" class="delaunay-line"/>
<line x1="19.793353340291237" y1="21.39123857099128" x2="21.74118095489748" y2="16.965925826289066" class="delaunay-line"/>
<line x1="21.74118095489748" y1="16.965925826289066" x2="19.5" y2="21.133974596215563" class="delaunay-line"/>
<line x1="13.459098475614777" y1="18.402044323932408" x2="1.8679885601459572" y2="15.296215782702161" class="delaunay-line"/>
<line x1="1.8679885601459572" y1="15.296215782702161" x2="4.5" y2="21.133974596215563" class="delaunay-line"/>
<line x1="4.5" y1="21.133974596215563" x2="13.459098475614777" y2="18.402044323932408" class="delaunay-line"/>
<line x1="12.391238570991277" y1="21.206646659708763" x2="12.133974596215563" y2="21.5" class="delaunay-line"/>
<line x1="12.133974596215563" y1="21.5" x2="12.74118095489748" y2="21.03407417371093" class="delaunay-line"/>
<line x1="12.74118095489748" y1="21.03407417371093" x2="12.391238570991277" y2="21.206646659708763" class="delaunay-line"/>
<line x1="12.133974596215563" y1="21.5" x2="13.99144486137381" y2="22.13052619222005" class="delaunay-line"/>
<line x1="13.99144486137381" y1="22.13052619222005" x2="13.793353340291235" y2="21.39123857099128" class="delaunay-line"/>
<line x1="13.793353340291235" y1="21.39123857099128" x2="12.133974596215563" y2="21.5" class="delaunay-line"/>
<line x1="13.965925826289068" y1="21.74118095489748" x2="13.99144486137381" y2="22.13052619222005" class="delaunay-line"/>
<line x1="13.99144486137381" y1="22.13052619222005" x2="18.00855513862619" y2="21.86947380777995" class="delaunay-line"/>
<line x1="18.00855513862619" y1="21.86947380777995" x2="13.965925826289068" y2="21.74118095489748" class="delaunay-line"/>
<line x1="13.99144486137381" y1="22.13052619222005" x2="18.034074173710934" y2="22.25881904510252" class="delaunay-line"/>
<line x1="18.034074173710934" y1="22.25881904510252" x2="18.00855513862619" y2="21.86947380777995" class="delaunay-line"/>
<line x1="18.00855513862619" y1="21.86947380777995" x2="13.99144486137381" y2="22.13052619222005" class="delaunay-line"/>
<line x1="18.00855513862619" y1="21.86947380777995" x2="18.034074173710934" y2="22.25881904510252" class="delaunay-line"/>
<line x1="18.034074173710934" y1="22.25881904510252" x2="18.133974596215563" y2="21.5" class="delaunay-line"/>
<line x1="18.133974596215563" y1="21.5" x2="18.00855513862619" y2="21.86947380777995" class="delaunay-line"/>
<line x1="18.034074173710934" y1="22.25881904510252" x2="19.965925826289066" y2="21.74118095489748" class="delaunay-line"/>
<line x1="19.965925826289066" y1="21.74118095489748" x2="18.74118095489748" y2="21.034074173710934" class="delaunay-line"/>
<line x1="18.74118095489748" y1="21.034074173710934" x2="18.034074173710934" y2="22.25881904510252" class="delaunay-line"/>
<line x1="19.793353340291237" y1="21.39123857099128" x2="19.965925826289066" y2="21.74118095489748" class="delaunay-line"/>
<line x1="19.965925826289066" y1="21.74118095489748" x2="22.13052619222005" y2="16.99144486137381" class="delaunay-line"/>
<line x1="22.13052619222005" y1="16.99144486137381" x2="19.793353340291237" y2="21.39123857099128" class="delaunay-line"/>
<line x1="4.965925826289068" y1="21.741180954897477" x2="12.00855513862619" y2="21.86947380777995" class="delaunay-line"/>
<line x1="12.00855513862619" y1="21.86947380777995" x2="12.133974596215563" y2="21.5" class="delaunay-line"/>
<line x1="12.133974596215563" y1="21.5" x2="4.965925826289068" y2="21.741180954897477" class="delaunay-line"/>
<line x1="12.133974596215563" y1="21.5" x2="12.00855513862619" y2="21.86947380777995" class="delaunay-line"/>
<line x1="12.00855513862619" y1="21.86947380777995" x2="13.99144486137381" y2="22.13052619222005" class="delaunay-line"/>
<line x1="13.99144486137381" y1="22.13052619222005" x2="12.133974596215563" y2="21.5" class="delaunay-line"/>
<line x1="12.00855513862619" y1="21.86947380777995" x2="13.866025403784437" y2="22.5" class="delaunay-line"/>
<line x1="13.866025403784437" y1="22.5" x2="13.99144486137381" y2="22.13052619222005" class="delaunay-line"/>
<line x1="13.99144486137381" y1="22.13052619222005" x2="12.00855513862619" y2="21.86947380777995" class="delaunay-line"/>
<line x1="13.99144486137381" y1="22.13052619222005" x2="13.866025403784437" y2="22.5" class="delaunay-line"/>
<line x1="13.866025403784437" y1="22.5" x2="18.034074173710934" y2="22.25881904510252" class="delaunay-line"/>
<line x1="18.034074173710934" y1="22.25881904510252" x2="13.99144486137381" y2="22.13052619222005" class="delaunay-line"/>
<line x1="13.866025403784437" y1="22.5" x2="18.206646659708763" y2="22.60876142900872" class="delaunay-line"/>
<line x1="18.206646659708763" y1="22.60876142900872" x2="18.034074173710934" y2="22.25881904510252" class="delaunay-line"/>
<line x1="18.034074173710934" y1="22.25881904510252" x2="13.866025403784437" y2="22.5" class="delaunay-line"/>
<line x1="18.034074173710934" y1="22.25881904510252" x2="19.25881904510252" y2="22.965925826289066" class="delaunay-line"/>
<line x1="19.25881904510252" y1="22.965925826289066" x2="19.965925826289066" y2="21.74118095489748" class="delaunay-line"/>
<line x1="19.965925826289066" y1="21.74118095489748" x2="18.034074173710934" y2="22.25881904510252" class="delaunay-line"/>
<line x1="19.866025403784437" y1="22.5" x2="19.99144486137381" y2="22.13052619222005" class="delaunay-line"/>
<line x1="19.99144486137381" y1="22.13052619222005" x2="19.965925826289066" y2="21.74118095489748" class="delaunay-line"/>
<line x1="19.965925826289066" y1="21.74118095489748" x2="19.866025403784437" y2="22.5" class="delaunay-line"/>
<line x1="19.965925826289066" y1="21.74118095489748" x2="24" y2="24" class="delaunay-line"/>
<line x1="24" y1="24" x2="22.13052619222005" y2="16.99144486137381" class="delaunay-line"/>
<line x1="22.13052619222005" y1="16.99144486137381" x2="19.965925826289066" y2="21.74118095489748" class="delaunay-line"/>
<line x1="12.00855513862619" y1="21.86947380777995" x2="12.206646659708765" y2="22.60876142900872" class="delaunay-line"/>
<line x1="12.206646659708765" y1="22.60876142900872" x2="13.866025403784437" y2="22.5" class="delaunay-line"/>
<line x1="13.866025403784437" y1="22.5" x2="12.00855513862619" y2="21.86947380777995" class="delaunay-line"/>
<line x1="13.25881904510252" y1="22.96592582628907" x2="13.608761429008723" y2="22.793353340291237" class="delaunay-line"/>
<line x1="13.608761429008723" y1="22.793353340291237" x2="13.866025403784437" y2="22.5" class="delaunay-line"/>
<line x1="13.866025403784437" y1="22.5" x2="13.25881904510252" y2="22.96592582628907" class="delaunay-line"/>
<line x1="13.866025403784437" y1="22.5" x2="13.608761429008723" y2="22.793353340291237" class="delaunay-line"/>
<line x1="13.608761429008723" y1="22.793353340291237" x2="18.206646659708763" y2="22.60876142900872" class="delaunay-line"/>
<line x1="18.206646659708763" y1="22.60876142900872" x2="13.866025403784437" y2="22.5" class="delaunay-line"/>
<line x1="13.608761429008723" y1="22.793353340291237" x2="18.5" y2="22.866025403784437" class="delaunay-line"/>
<line x1="18.5" y1="22.866025403784437" x2="18.206646659708763" y2="22.60876142900872" class="delaunay-line"/>
<line x1="18.206646659708763" y1="22.60876142900872" x2="13.608761429008723" y2="22.793353340291237" class="delaunay-line"/>
<line x1="18.206646659708763" y1="22.60876142900872" x2="18.5" y2="22.866025403784437" class="delaunay-line"/>
<line x1="18.5" y1="22.866025403784437" x2="18.034074173710934" y2="22.25881904510252" class="delaunay-line"/>
<line x1="18.034074173710934" y1="22.25881904510252" x2="18.206646659708763" y2="22.60876142900872" class="delaunay-line"/>
<line x1="19.25881904510252" y1="22.965925826289066" x2="19.866025403784437" y2="22.5" class="delaunay-line"/>
<line x1="19.866025403784437" y1="22.5" x2="19.965925826289066" y2="21.74118095489748" class="delaunay-line"/>
<line x1="19.965925826289066" y1="21.74118095489748" x2="19.25881904510252" y2="22.965925826289066" class="delaunay-line"/>
<line x1="19.99144486137381" y1="22.13052619222005" x2="24" y2="24" class="delaunay-line"/>
<line x1="24" y1="24" x2="19.965925826289066" y2="21.74118095489748" class="delaunay-line"/>
<line x1="19.965925826289066" y1="21.74118095489748" x2="19.99144486137381" y2="22.13052619222005" class="delaunay-line"/>
<line x1="12.034074173710932" y1="22.25881904510252" x2="12.206646659708765" y2="22.60876142900872" class="delaunay-line"/>
<line x1="12.206646659708765" y1="22.60876142900872" x2="12.00855513862619" y2="21.86947380777995" class="delaunay-line"/>
<line x1="12.00855513862619" y1="21.86947380777995" x2="12.034074173710932" y2="22.25881904510252" class="delaunay-line"/>
<line x1="12.869473807779947" y1="22.99144486137381" x2="13.25881904510252" y2="22.96592582628907" class="delaunay-line"/>
<line x1="13.25881904510252" y1="22.96592582628907" x2="13.866025403784437" y2="22.5" class="delaunay-line"/>
<line x1="13.866025403784437" y1="22.5" x2="12.869473807779947" y2="22.99144486137381" class="delaunay-line"/>
<line x1="13.608761429008723" y1="22.793353340291237" x2="13.25881904510252" y2="22.96592582628907" class="delaunay-line"/>
<line x1="13.25881904510252" y1="22.96592582628907" x2="18.5" y2="22.866025403784437" class="delaunay-line"/>
<line x1="18.5" y1="22.866025403784437" x2="13.608761429008723" y2="22.793353340291237" class="delaunay-line"/>
<line x1="13.25881904510252" y1="22.96592582628907" x2="18.86947380777995" y2="22.99144486137381" class="delaunay-line"/>
<line x1="18.86947380777995" y1="22.99144486137381" x2="18.5" y2="22.866025403784437" class="delaunay-line"/>
<line x1="18.5" y1="22.866025403784437" x2="13.25881904510252" y2="22.96592582628907" class="delaunay-line"/>
<line x1="18.5" y1="22.866025403784437" x2="19.25881904510252" y2="22.965925826289066" class="delaunay-line"/>
<line x1="19.25881904510252" y1="22.965925826289066" x2="18.034074173710934" y2="22.25881904510252" class="delaunay-line"/>
<line x1="18.034074173710934" y1="22.25881904510252" x2="18.5" y2="22.866025403784437" class="delaunay-line"/>
<line x1="19.25881904510252" y1="22.965925826289066" x2="19.60876142900872" y2="22.793353340291237" class="delaunay-line"/>
<line x1="19.60876142900872" y1="22.793353340291237" x2="19.866025403784437" y2="22.5" class="delaunay-line"/>
<line x1="19.866025403784437" y1="22.5" x2="19.25881904510252" y2="22.965925826289066" class="delaunay-line"/>
<line x1="12.206646659708765" y1="22.60876142900872" x2="12.869473807779947" y2="22.99144486137381" class="delaunay-line"/>
<line x1="12.869473807779947" y1="22.99144486137381" x2="13.866025403784437" y2="22.5" class="delaunay-line"/>
<line x1="13.866025403784437" y1="22.5" x2="12.206646659708765" y2="22.60876142900872" class="delaunay-line"/>
<line x1="12.5" y1="22.86602540378444" x2="12.869473807779947" y2="22.99144486137381" class="delaunay-line"/>
<line x1="12.869473807779947" y1="22.99144486137381" x2="12.206646659708765" y2="22.60876142900872" class="delaunay-line"/>
<line x1="12.206646659708765" y1="22.60876142900872" x2="12.5" y2="22.86602540378444" class="delaunay-line"/>
<line x1="13.25881904510252" y1="22.96592582628907" x2="24" y2="24" class="delaunay-line"/>
<line x1="24" y1="24" x2="18.86947380777995" y2="22.99144486137381" class="delaunay-line"/>
<line x1="18.86947380777995" y1="22.99144486137381" x2="13.25881904510252" y2="22.96592582628907" class="delaunay-line"/>
<line x1="18.86947380777995" y1="22.99144486137381" x2="19.25881904510252" y2="22.965925826289066" class="delaunay-line"/>
<line x1="19.25881904510252" y1="22.965925826289066" x2="18.5" y2="22.866025403784437" class="delaunay-line"/>
<line x1="18.5" y1="22.866025403784437" x2="18.86947380777995" y2="22.99144486137381" class="delaunay-line"/>
<line x1="22" y1="2" x2="22.130526192220053" y2="9.00855513862619" class="delaunay-line"/>
<line x1="22.130526192220053" y1="9.00855513862619" x2="22.38268343236509" y2="1.923879532511286" class="delaunay-line"/>
<line x1="22.38268343236509" y1="1.923879532511286" x2="22" y2="2" class="delaunay-line"/>
<line x1="22.130526192220053" y1="9.00855513862619" x2="22.5" y2="9.13397459621556" class="delaunay-line"/>
<line x1="22.5" y1="9.13397459621556" x2="22.38268343236509" y2="1.923879532511286" class="delaunay-line"/>
<line x1="22.38268343236509" y1="1.923879532511286" x2="22.130526192220053" y2="9.00855513862619" class="delaunay-line"/>
<line x1="21.61731656763491" y1="1.923879532511286" x2="21.292893218813454" y2="1.7071067811865461" class="delaunay-line"/>
<line x1="21.292893218813454" y1="1.7071067811865461" x2="17.34138415215259" y2="3.9131569295963846" class="delaunay-line"/>
<line x1="17.34138415215259" y1="3.9131569295963846" x2="21.61731656763491" y2="1.923879532511286" class="delaunay-line"/>
<line x1="22.38268343236509" y1="1.923879532511286" x2="22.5" y2="9.13397459621556" class="delaunay-line"/>
<line x1="22.5" y1="9.13397459621556" x2="22.707106781186546" y2="1.7071067811865461" class="delaunay-line"/>
<line x1="22.707106781186546" y1="1.7071067811865461" x2="22.38268343236509" y2="1.923879532511286" class="delaunay-line"/>
<line x1="21.61731656763491" y1="1.923879532511286" x2="22" y2="2" class="delaunay-line"/>
<line x1="22" y1="2" x2="21.292893218813454" y2="1.7071067811865461" class="delaunay-line"/>
<line x1="21.292893218813454" y1="1.7071067811865461" x2="21.61731656763491" y2="1.923879532511286" class="delaunay-line"/>
<line x1="21" y1="1" x2="21.076120467488714" y2="1.3826834323650914" class="delaunay-line"/>
<line x1="21.076120467488714" y1="1.3826834323650914" x2="21.292893218813454" y2="1.7071067811865461" class="delaunay-line"/>
<line x1="21.292893218813454" y1="1.7071067811865461" x2="21" y2="1" class="delaunay-line"/>
<line x1="21.292893218813454" y1="1.7071067811865461" x2="21.076120467488714" y2="1.3826834323650914" class="delaunay-line"/>
<line x1="21.076120467488714" y1="1.3826834323650914" x2="17.34138415215259" y2="3.9131569295963846" class="delaunay-line"/>
<line x1="17.34138415215259" y1="3.9131569295963846" x2="21.292893218813454" y2="1.7071067811865461" class="delaunay-line"/>
<line x1="22.707106781186546" y1="1.7071067811865461" x2="22.5" y2="9.13397459621556" class="delaunay-line"/>
<line x1="22.5" y1="9.13397459621556" x2="22.793353340291233" y2="9.391238570991279" class="delaunay-line"/>
<line x1="22.793353340291233" y1="9.391238570991279" x2="22.707106781186546" y2="1.7071067811865461" class="delaunay-line"/>
<line x1="22" y1="2" x2="22.707106781186546" y2="1.7071067811865461" class="delaunay-line"/>
<line x1="22.707106781186546" y1="1.7071067811865461" x2="21.292893218813454" y2="1.7071067811865461" class="delaunay-line"/>
<line x1="21.292893218813454" y1="1.7071067811865461" x2="22" y2="2" class="delaunay-line"/>
<line x1="21.076120467488714" y1="0.6173165676349087" x2="21" y2="1" class="delaunay-line"/>
<line x1="21" y1="1" x2="21.292893218813454" y2="0.2928932188134539" class="delaunay-line"/>
<line x1="21.292893218813454" y1="0.2928932188134539" x2="21.076120467488714" y2="0.6173165676349087" class="delaunay-line"/>
<line x1="21.076120467488714" y1="1.3826834323650914" x2="21" y2="1" class="delaunay-line"/>
<line x1="21" y1="1" x2="17.34138415215259" y2="3.9131569295963846" class="delaunay-line"/>
<line x1="17.34138415215259" y1="3.9131569295963846" x2="21.076120467488714" y2="1.3826834323650914" class="delaunay-line"/>
<line x1="22.923879532511286" y1="1.3826834323650914" x2="22.707106781186546" y2="1.7071067811865461" class="delaunay-line"/>
<line x1="22.707106781186546" y1="1.7071067811865461" x2="22.793353340291233" y2="9.391238570991279" class="delaunay-line"/>
<line x1="22.793353340291233" y1="9.391238570991279" x2="22.923879532511286" y2="1.3826834323650914" class="delaunay-line"/>
<line x1="22.38268343236509" y1="1.923879532511286" x2="22.707106781186546" y2="1.7071067811865461" class="delaunay-line"/>
<line x1="22.707106781186546" y1="1.7071067811865461" x2="22" y2="2" class="delaunay-line"/>
<line x1="22" y1="2" x2="22.38268343236509" y2="1.923879532511286" class="delaunay-line"/>
<line x1="22.923879532511286" y1="1.3826834323650914" x2="22.793353340291233" y2="9.391238570991279" class="delaunay-line"/>
<line x1="22.793353340291233" y1="9.391238570991279" x2="24" y2="0" class="delaunay-line"/>
<line x1="24" y1="0" x2="22.923879532511286" y2="1.3826834323650914" class="delaunay-line"/>
<line x1="21.292893218813454" y1="0.2928932188134539" x2="21" y2="1" class="delaunay-line"/>
<line x1="21" y1="1" x2="21.292893218813454" y2="1.7071067811865461" class="delaunay-line"/>
<line x1="21.292893218813454" y1="1.7071067811865461" x2="21.292893218813454" y2="0.2928932188134539" class="delaunay-line"/>
<line x1="21" y1="1" x2="21.076120467488714" y2="0.6173165676349087" class="delaunay-line"/>
<line x1="21.076120467488714" y1="0.6173165676349087" x2="17.34138415215259" y2="3.9131569295963846" class="delaunay-line"/>
<line x1="17.34138415215259" y1="3.9131569295963846" x2="21" y2="1" class="delaunay-line"/>
<line x1="23" y1="0.9999999999999999" x2="22.923879532511286" y2="1.3826834323650914" class="delaunay-line"/>
<line x1="22.923879532511286" y1="1.3826834323650914" x2="24" y2="0" class="delaunay-line"/>
<line x1="24" y1="0" x2="23" y2="0.9999999999999999" class="delaunay-line"/>
<line x1="22.707106781186546" y1="0.2928932188134538" x2="21.292893218813454" y2="0.2928932188134539" class="delaunay-line"/>
<line x1="21.292893218813454" y1="0.2928932188134539" x2="21.292893218813454" y2="1.7071067811865461" class="delaunay-line"/>
<line x1="21.292893218813454" y1="1.7071067811865461" x2="22.707106781186546" y2="0.2928932188134538" class="delaunay-line"/>
<line x1="12.869473807779947" y1="22.99144486137381" x2="24" y2="24" class="delaunay-line"/>
<line x1="24" y1="24" x2="13.25881904510252" y2="22.96592582628907" class="delaunay-line"/>
<line x1="13.25881904510252" y1="22.96592582628907" x2="12.869473807779947" y2="22.99144486137381" class="delaunay-line"/>
<line x1="18.86947380777995" y1="22.99144486137381" x2="24" y2="24" class="delaunay-line"/>
<line x1="24" y1="24" x2="19.25881904510252" y2="22.965925826289066" class="delaunay-line"/>
<line x1="19.25881904510252" y1="22.965925826289066" x2="18.86947380777995" y2="22.99144486137381" class="delaunay-line"/>
<line x1="19.25881904510252" y1="22.965925826289066" x2="24" y2="24" class="delaunay-line"/>
<line x1="24" y1="24" x2="19.60876142900872" y2="22.793353340291237" class="delaunay-line"/>
<line x1="19.60876142900872" y1="22.793353340291237" x2="19.25881904510252" y2="22.965925826289066" class="delaunay-line"/>
<line x1="19.60876142900872" y1="22.793353340291237" x2="24" y2="24" class="delaunay-line"/>
<line x1="24" y1="24" x2="19.866025403784437" y2="22.5" class="delaunay-line"/>
<line x1="19.866025403784437" y1="22.5" x2="19.60876142900872" y2="22.793353340291237" class="delaunay-line"/>
<line x1="19.866025403784437" y1="22.5" x2="24" y2="24" class="delaunay-line"/>
<line x1="24" y1="24" x2="19.99144486137381" y2="22.13052619222005" class="delaunay-line"/>
<line x1="19.99144486137381" y1="22.13052619222005" x2="19.866025403784437" y2="22.5" class="delaunay-line"/>
<line x1="22.793353340291233" y1="16.60876142900872" x2="24" y2="24" class="delaunay-line"/>
<line x1="24" y1="24" x2="22.96592582628907" y2="16.25881904510252" class="delaunay-line"/>
<line x1="22.96592582628907" y1="16.25881904510252" x2="22.793353340291233" y2="16.60876142900872" class="delaunay-line"/>
<line x1="22.96592582628907" y1="16.25881904510252" x2="24" y2="24" class="delaunay-line"/>
<line x1="24" y1="24" x2="22.99144486137381" y2="15.86947380777995" class="delaunay-line"/>
<line x1="22.99144486137381" y1="15.86947380777995" x2="22.96592582628907" y2="16.25881904510252" class="delaunay-line"/>
<line x1="22.99144486137381" y1="15.86947380777995" x2="24" y2="24" class="delaunay-line"/>
<line x1="24" y1="24" x2="22.99144486137381" y2="10.13052619222005" class="delaunay-line"/>
<line x1="22.99144486137381" y1="10.13052619222005" x2="22.99144486137381" y2="15.86947380777995" class="delaunay-line"/>
<line x1="24" y1="0" x2="22.793353340291233" y2="9.391238570991279" class="delaunay-line"/>
<line x1="22.793353340291233" y1="9.391238570991279" x2="22.96592582628907" y2="9.74118095489748" class="delaunay-line"/>
<line x1="22.96592582628907" y1="9.74118095489748" x2="24" y2="0" class="delaunay-line"/>
<line x1="22.707106781186546" y1="0.2928932188134538" x2="21.292893218813454" y2="1.7071067811865461" class="delaunay-line"/>
<line x1="21.292893218813454" y1="1.7071067811865461" x2="22.707106781186546" y2="1.7071067811865461" class="delaunay-line"/>
<line x1="22.707106781186546" y1="1.7071067811865461" x2="22.707106781186546" y2="0.2928932188134538" class="delaunay-line"/>
<line x1="21.076120467488714" y1="0.6173165676349087" x2="5.750274236683769" y2="0.8073283883661357" class="delaunay-line"/>
<line x1="5.750274236683769" y1="0.8073283883661357" x2="17.34138415215259" y2="3.9131569295963846" class="delaunay-line"/>
<line x1="17.34138415215259" y1="3.9131569295963846" x2="21.076120467488714" y2="0.6173165676349087" class="delaunay-line"/>
<line x1="24" y1="0" x2="22.96592582628907" y2="9.74118095489748" class="delaunay-line"/>
<line x1="22.96592582628907" y1="9.74118095489748" x2="22.99144486137381" y2="10.13052619222005" class="delaunay-line"/>
<line x1="22.99144486137381" y1="10.13052619222005" x2="24" y2="0" class="delaunay-line"/>
<line x1="22.923879532511286" y1="1.3826834323650914" x2="23" y2="0.9999999999999999" class="delaunay-line"/>
<line x1="23" y1="0.9999999999999999" x2="22.707106781186546" y2="1.7071067811865461" class="delaunay-line"/>
<line x1="22.707106781186546" y1="1.7071067811865461" x2="22.923879532511286" y2="1.3826834323650914" class="delaunay-line"/>
<line x1="12.034074173710932" y1="22.25881904510252" x2="4.866025403784438" y2="22.5" class="delaunay-line"/>
<line x1="4.866025403784438" y1="22.5" x2="12.206646659708765" y2="22.60876142900872" class="delaunay-line"/>
<line x1="12.206646659708765" y1="22.60876142900872" x2="12.034074173710932" y2="22.25881904510252" class="delaunay-line"/>
<line x1="12.206646659708765" y1="22.60876142900872" x2="4.60876142900872" y2="22.793353340291233" class="delaunay-line"/>
<line x1="4.60876142900872" y1="22.793353340291233" x2="12.5" y2="22.86602540378444" class="delaunay-line"/>
<line x1="12.5" y1="22.86602540378444" x2="12.206646659708765" y2="22.60876142900872" class="delaunay-line"/>
<line x1="12.5" y1="22.86602540378444" x2="4.25881904510252" y2="22.965925826289066" class="delaunay-line"/>
<line x1="4.25881904510252" y1="22.965925826289066" x2="12.869473807779947" y2="22.99144486137381" class="delaunay-line"/>
<line x1="12.869473807779947" y1="22.99144486137381" x2="12.5" y2="22.86602540378444" class="delaunay-line"/>
<line x1="12.00855513862619" y1="21.86947380777995" x2="4.99144486137381" y2="22.13052619222005" class="delaunay-line"/>
<line x1="4.99144486137381" y1="22.13052619222005" x2="12.034074173710932" y2="22.25881904510252" class="delaunay-line"/>
<line x1="12.034074173710932" y1="22.25881904510252" x2="12.00855513862619" y2="21.86947380777995" class="delaunay-line"/>
<line x1="15.008555138626189" y1="13.130526192220053" x2="15.034074173710932" y2="12.741180954897478" class="delaunay-line"/>
<line x1="15.034074173710932" y1="12.741180954897478" x2="1.8679885601459572" y2="15.296215782702161" class="delaunay-line"/>
<line x1="1.8679885601459572" y1="15.296215782702161" x2="15.008555138626189" y2="13.130526192220053" class="delaunay-line"/>
<line x1="4.793353340291237" y1="21.39123857099128" x2="4.965925826289068" y2="21.741180954897477" class="delaunay-line"/>
<line x1="4.965925826289068" y1="21.741180954897477" x2="12.133974596215563" y2="21.5" class="delaunay-line"/>
<line x1="12.133974596215563" y1="21.5" x2="4.793353340291237" y2="21.39123857099128" class="delaunay-line"/>
<line x1="1.8679885601459572" y1="15.296215782702161" x2="15.034074173710932" y2="12.741180954897478" class="delaunay-line"/>
<line x1="15.034074173710932" y1="12.741180954897478" x2="5.750274236683769" y2="0.8073283883661357" class="delaunay-line"/>
<line x1="5.750274236683769" y1="0.8073283883661357" x2="1.8679885601459572" y2="15.296215782702161" class="delaunay-line"/>
<line x1="4.793353340291237" y1="21.39123857099128" x2="4.5" y2="21.133974596215563" class="delaunay-line"/>
<line x1="4.5" y1="21.133974596215563" x2="4.965925826289068" y2="21.741180954897477" class="delaunay-line"/>
<line x1="4.965925826289068" y1="21.741180954897477" x2="4.793353340291237" y2="21.39123857099128" class="delaunay-line"/>
<line x1="22" y1="1.359631073446891e-32" x2="21.61731656763491" y2="0.07612046748871396" class="delaunay-line"/>
<line x1="21.61731656763491" y1="0.07612046748871396" x2="21.292893218813454" y2="0.2928932188134539" class="delaunay-line"/>
<line x1="21.292893218813454" y1="0.2928932188134539" x2="22" y2="1.359631073446891e-32" class="delaunay-line"/>
<line x1="23" y1="0.9999999999999999" x2="22.707106781186546" y2="0.2928932188134538" class="delaunay-line"/>
<line x1="22.707106781186546" y1="0.2928932188134538" x2="22.707106781186546" y2="1.7071067811865461" class="delaunay-line"/>
<line x1="22.707106781186546" y1="1.7071067811865461" x2="23" y2="0.9999999999999999" class="delaunay-line"/>
<line x1="4.5" y1="21.133974596215563" x2="4.99144486137381" y2="22.13052619222005" class="delaunay-line"/>
<line x1="4.99144486137381" y1="22.13052619222005" x2="4.965925826289068" y2="21.741180954897477" class="delaunay-line"/>
<line x1="4.965925826289068" y1="21.741180954897477" x2="4.5" y2="21.133974596215563" class="delaunay-line"/>
<line x1="4.965925826289068" y1="21.741180954897477" x2="4.99144486137381" y2="22.13052619222005" class="delaunay-line"/>
<line x1="4.99144486137381" y1="22.13052619222005" x2="12.00855513862619" y2="21.86947380777995" class="delaunay-line"/>
<line x1="12.00855513862619" y1="21.86947380777995" x2="4.965925826289068" y2="21.741180954897477" class="delaunay-line"/>
<line x1="5.750274236683769" y1="0.8073283883661357" x2="15.206646659708765" y2="12.391238570991279" class="delaunay-line"/>
<line x1="15.206646659708765" y1="12.391238570991279" x2="17.34138415215259" y2="3.9131569295963846" class="delaunay-line"/>
<line x1="17.34138415215259" y1="3.9131569295963846" x2="5.750274236683769" y2="0.8073283883661357" class="delaunay-line"/>
<line x1="5.750274236683769" y1="0.8073283883661357" x2="15.034074173710932" y2="12.741180954897478" class="delaunay-line"/>
<line x1="15.034074173710932" y1="12.741180954897478" x2="15.206646659708765" y2="12.391238570991279" class="delaunay-line"/>
<line x1="15.206646659708765" y1="12.391238570991279" x2="5.750274236683769" y2="0.8073283883661357" class="delaunay-line"/>
<line x1="22.707106781186546" y1="0.2928932188134538" x2="22" y2="1.359631073446891e-32" class="delaunay-line"/>
<line x1="22" y1="1.359631073446891e-32" x2="21.292893218813454" y2="0.2928932188134539" class="delaunay-line"/>
<line x1="21.292893218813454" y1="0.2928932188134539" x2="22.707106781186546" y2="0.2928932188134538" class="delaunay-line"/>
<line x1="1.8679885601459572" y1="15.296215782702161" x2="4.130526192220049" y2="21.00855513862619" class="delaunay-line"/>
<line x1="4.130526192220049" y1="21.00855513862619" x2="4.5" y2="21.133974596215563" class="delaunay-line"/>
<line x1="4.5" y1="21.133974596215563" x2="1.8679885601459572" y2="15.296215782702161" class="delaunay-line"/>
<line x1="4.60876142900872" y1="22.793353340291233" x2="4.866025403784438" y2="22.5" class="delaunay-line"/>
<line x1="4.866025403784438" y1="22.5" x2="4.99144486137381" y2="22.13052619222005" class="delaunay-line"/>
<line x1="4.99144486137381" y1="22.13052619222005" x2="4.60876142900872" y2="22.793353340291233" class="delaunay-line"/>
<line x1="22.923879532511286" y1="0.6173165676349085" x2="22.707106781186546" y2="0.2928932188134538" class="delaunay-line"/>
<line x1="22.707106781186546" y1="0.2928932188134538" x2="23" y2="0.9999999999999999" class="delaunay-line"/>
<line x1="23" y1="0.9999999999999999" x2="22.923879532511286" y2="0.6173165676349085" class="delaunay-line"/>
<line x1="22.707106781186546" y1="0.2928932188134538" x2="22.38268343236509" y2="0.0761204674887139" class="delaunay-line"/>
<line x1="22.38268343236509" y1="0.0761204674887139" x2="22" y2="1.359631073446891e-32" class="delaunay-line"/>
<line x1="22" y1="1.359631073446891e-32" x2="22.707106781186546" y2="0.2928932188134538" class="delaunay-line"/>
<line x1="3.7411809548974806" y1="21.034074173710934" x2="4.99144486137381" y2="22.13052619222005" class="delaunay-line"/>
<line x1="4.99144486137381" y1="22.13052619222005" x2="4.5" y2="21.133974596215563" class="delaunay-line"/>
<line x1="4.5" y1="21.133974596215563" x2="3.7411809548974806" y2="21.034074173710934" class="delaunay-line"/>
<line x1="4.99144486137381" y1="22.13052619222005" x2="4.866025403784438" y2="22.5" class="delaunay-line"/>
<line x1="4.866025403784438" y1="22.5" x2="12.034074173710932" y2="22.25881904510252" class="delaunay-line"/>
<line x1="12.034074173710932" y1="22.25881904510252" x2="4.99144486137381" y2="22.13052619222005" class="delaunay-line"/>
<line x1="12.869473807779947" y1="22.99144486137381" x2="0" y2="24" class="delaunay-line"/>
<line x1="0" y1="24" x2="24" y2="24" class="delaunay-line"/>
<line x1="24" y1="24" x2="12.869473807779947" y2="22.99144486137381" class="delaunay-line"/>
<line x1="1.8679885601459572" y1="15.296215782702161" x2="3.7411809548974806" y2="21.034074173710934" class="delaunay-line"/>
<line x1="3.7411809548974806" y1="21.034074173710934" x2="4.130526192220049" y2="21.00855513862619" class="delaunay-line"/>
<line x1="4.130526192220049" y1="21.00855513862619" x2="1.8679885601459572" y2="15.296215782702161" class="delaunay-line"/>
<line x1="4.130526192220049" y1="21.00855513862619" x2="3.7411809548974806" y2="21.034074173710934" class="delaunay-line"/>
<line x1="3.7411809548974806" y1="21.034074173710934" x2="4.5" y2="21.133974596215563" class="delaunay-line"/>
<line x1="4.5" y1="21.133974596215563" x2="4.130526192220049" y2="21.00855513862619" class="delaunay-line"/>
<line x1="3.7411809548974806" y1="21.034074173710934" x2="4.60876142900872" y2="22.793353340291233" class="delaunay-line"/>
<line x1="4.60876142900872" y1="22.793353340291233" x2="4.99144486137381" y2="22.13052619222005" class="delaunay-line"/>
<line x1="4.99144486137381" y1="22.13052619222005" x2="3.7411809548974806" y2="21.034074173710934" class="delaunay-line"/>
<line x1="4.866025403784438" y1="22.5" x2="4.60876142900872" y2="22.793353340291233" class="delaunay-line"/>
<line x1="4.60876142900872" y1="22.793353340291233" x2="12.206646659708765" y2="22.60876142900872" class="delaunay-line"/>
<line x1="12.206646659708765" y1="22.60876142900872" x2="4.866025403784438" y2="22.5" class="delaunay-line"/>
<line x1="1.8679885601459572" y1="15.296215782702161" x2="3.3912385709912796" y2="21.206646659708767" class="delaunay-line"/>
<line x1="3.3912385709912796" y1="21.206646659708767" x2="3.7411809548974806" y2="21.034074173710934" class="delaunay-line"/>
<line x1="3.7411809548974806" y1="21.034074173710934" x2="1.8679885601459572" y2="15.296215782702161" class="delaunay-line"/>
<line x1="3.7411809548974806" y1="21.034074173710934" x2="4.25881904510252" y2="22.965925826289066" class="delaunay-line"/>
<line x1="4.25881904510252" y1="22.965925826289066" x2="4.60876142900872" y2="22.793353340291233" class="delaunay-line"/>
<line x1="4.60876142900872" y1="22.793353340291233" x2="3.7411809548974806" y2="21.034074173710934" class="delaunay-line"/>
<line x1="22.923879532511286" y1="0.6173165676349085" x2="24" y2="0" class="delaunay-line"/>
<line x1="24" y1="0" x2="22.707106781186546" y2="0.2928932188134538" class="delaunay-line"/>
<line x1="22.707106781186546" y1="0.2928932188134538" x2="22.923879532511286" y2="0.6173165676349085" class="delaunay-line"/>
<line x1="22.707106781186546" y1="0.2928932188134538" x2="24" y2="0" class="delaunay-line"/>
<line x1="24" y1="0" x2="22.38268343236509" y2="0.0761204674887139" class="delaunay-line"/>
<line x1="22.38268343236509" y1="0.0761204674887139" x2="22.707106781186546" y2="0.2928932188134538" class="delaunay-line"/>
<line x1="22.38268343236509" y1="0.0761204674887139" x2="24" y2="0" class="delaunay-line"/>
<line x1="24" y1="0" x2="22" y2="1.359631073446891e-32" class="delaunay-line"/>
<line x1="22" y1="1.359631073446891e-32" x2="22.38268343236509" y2="0.0761204674887139" class="delaunay-line"/>
<line x1="23" y1="0.9999999999999999" x2="24" y2="0" class="delaunay-line"/>
<line x1="24" y1="0" x2="22.923879532511286" y2="0.6173165676349085" class="delaunay-line"/>
<line x1="22.923879532511286" y1="0.6173165676349085" x2="23" y2="0.9999999999999999" class="delaunay-line"/>
<line x1="24" y1="24" x2="24" y2="0" class="delaunay-line"/>
<line x1="24" y1="0" x2="22.99144486137381" y2="10.13052619222005" class="delaunay-line"/>
<line x1="22.99144486137381" y1="10.13052619222005" x2="24" y2="24" class="delaunay-line"/>
<line x1="3.3912385709912796" y1="21.206646659708767" x2="4.25881904510252" y2="22.965925826289066" class="delaunay-line"/>
<line x1="4.25881904510252" y1="22.965925826289066" x2="3.7411809548974806" y2="21.034074173710934" class="delaunay-line"/>
<line x1="3.7411809548974806" y1="21.034074173710934" x2="3.3912385709912796" y2="21.206646659708767" class="delaunay-line"/>
<line x1="4.60876142900872" y1="22.793353340291233" x2="4.25881904510252" y2="22.965925826289066" class="delaunay-line"/>
<line x1="4.25881904510252" y1="22.965925826289066" x2="12.5" y2="22.86602540378444" class="delaunay-line"/>
<line x1="12.5" y1="22.86602540378444" x2="4.60876142900872" y2="22.793353340291233" class="delaunay-line"/>
<line x1="1.8679885601459572" y1="15.296215782702161" x2="3.133974596215561" y2="21.5" class="delaunay-line"/>
<line x1="3.133974596215561" y1="21.5" x2="3.3912385709912796" y2="21.206646659708767" class="delaunay-line"/>
<line x1="3.3912385709912796" y1="21.206646659708767" x2="1.8679885601459572" y2="15.296215782702161" class="delaunay-line"/>
<line x1="3.3912385709912796" y1="21.206646659708767" x2="3.5" y2="22.866025403784437" class="delaunay-line"/>
<line x1="3.5" y1="22.866025403784437" x2="4.25881904510252" y2="22.965925826289066" class="delaunay-line"/>
<line x1="4.25881904510252" y1="22.965925826289066" x2="3.3912385709912796" y2="21.206646659708767" class="delaunay-line"/>
<line x1="3.5" y1="22.866025403784437" x2="3.86947380777995" y2="22.99144486137381" class="delaunay-line"/>
<line x1="3.86947380777995" y1="22.99144486137381" x2="4.25881904510252" y2="22.965925826289066" class="delaunay-line"/>
<line x1="4.25881904510252" y1="22.965925826289066" x2="3.5" y2="22.866025403784437" class="delaunay-line"/>
<line x1="4.25881904510252" y1="22.965925826289066" x2="0" y2="24" class="delaunay-line"/>
<line x1="0" y1="24" x2="12.869473807779947" y2="22.99144486137381" class="delaunay-line"/>
<line x1="12.869473807779947" y1="22.99144486137381" x2="4.25881904510252" y2="22.965925826289066" class="delaunay-line"/>
<line x1="0" y1="24" x2="3.00855513862619" y2="21.869473807779947" class="delaunay-line"/>
<line x1="3.00855513862619" y1="21.869473807779947" x2="3.133974596215561" y2="21.5" class="delaunay-line"/>
<line x1="3.133974596215561" y1="21.5" x2="0" y2="24" class="delaunay-line"/>
<line x1="3.133974596215561" y1="21.5" x2="3.00855513862619" y2="21.869473807779947" class="delaunay-line"/>
<line x1="3.00855513862619" y1="21.869473807779947" x2="3.3912385709912796" y2="21.206646659708767" class="delaunay-line"/>
<line x1="3.3912385709912796" y1="21.206646659708767" x2="3.133974596215561" y2="21.5" class="delaunay-line"/>
<line x1="3.0340741737109327" y1="22.258819045102523" x2="3.5" y2="22.866025403784437" class="delaunay-line"/>
<line x1="3.5" y1="22.866025403784437" x2="3.3912385709912796" y2="21.206646659708767" class="delaunay-line"/>
<line x1="3.3912385709912796" y1="21.206646659708767" x2="3.0340741737109327" y2="22.258819045102523" class="delaunay-line"/>
<line x1="22" y1="1.359631073446891e-32" x2="5.750274236683769" y2="0.8073283883661357" class="delaunay-line"/>
<line x1="5.750274236683769" y1="0.8073283883661357" x2="21.61731656763491" y2="0.07612046748871396" class="delaunay-line"/>
<line x1="21.61731656763491" y1="0.07612046748871396" x2="22" y2="1.359631073446891e-32" class="delaunay-line"/>
<line x1="21.61731656763491" y1="0.07612046748871396" x2="5.750274236683769" y2="0.8073283883661357" class="delaunay-line"/>
<line x1="5.750274236683769" y1="0.8073283883661357" x2="21.292893218813454" y2="0.2928932188134539" class="delaunay-line"/>
<line x1="21.292893218813454" y1="0.2928932188134539" x2="21.61731656763491" y2="0.07612046748871396" class="delaunay-line"/>
<line x1="21.292893218813454" y1="0.2928932188134539" x2="5.750274236683769" y2="0.8073283883661357" class="delaunay-line"/>
<line x1="5.750274236683769" y1="0.8073283883661357" x2="21.076120467488714" y2="0.6173165676349087" class="delaunay-line"/>
<line x1="21.076120467488714" y1="0.6173165676349087" x2="21.292893218813454" y2="0.2928932188134539" class="delaunay-line"/>
<line x1="0" y1="24" x2="3.0340741737109327" y2="22.258819045102523" class="delaunay-line"/>
<line x1="3.0340741737109327" y1="22.258819045102523" x2="3.00855513862619" y2="21.869473807779947" class="delaunay-line"/>
<line x1="3.00855513862619" y1="21.869473807779947" x2="0" y2="24" class="delaunay-line"/>
<line x1="3.00855513862619" y1="21.869473807779947" x2="3.0340741737109327" y2="22.258819045102523" class="delaunay-line"/>
<line x1="3.0340741737109327" y1="22.258819045102523" x2="3.3912385709912796" y2="21.206646659708767" class="delaunay-line"/>
<line x1="3.3912385709912796" y1="21.206646659708767" x2="3.00855513862619" y2="21.869473807779947" class="delaunay-line"/>
<line x1="3.0340741737109327" y1="22.258819045102523" x2="3.2066466597087637" y2="22.60876142900872" class="delaunay-line"/>
<line x1="3.2066466597087637" y1="22.60876142900872" x2="3.5" y2="22.866025403784437" class="delaunay-line"/>
<line x1="3.5" y1="22.866025403784437" x2="3.0340741737109327" y2="22.258819045102523" class="delaunay-line"/>
<line x1="1.8679885601459572" y1="15.296215782702161" x2="0" y2="24" class="delaunay-line"/>
<line x1="0" y1="24" x2="3.133974596215561" y2="21.5" class="delaunay-line"/>
<line x1="3.133974596215561" y1="21.5" x2="1.8679885601459572" y2="15.296215782702161" class="delaunay-line"/>
<line x1="3.0340741737109327" y1="22.258819045102523" x2="0" y2="24" class="delaunay-line"/>
<line x1="0" y1="24" x2="3.2066466597087637" y2="22.60876142900872" class="delaunay-line"/>
<line x1="3.2066466597087637" y1="22.60876142900872" x2="3.0340741737109327" y2="22.258819045102523" class="delaunay-line"/>
<line x1="3.2066466597087637" y1="22.60876142900872" x2="0" y2="24" class="delaunay-line"/>
<line x1="0" y1="24" x2="3.5" y2="22.866025403784437" class="delaunay-line"/>
<line x1="3.5" y1="22.866025403784437" x2="3.2066466597087637" y2="22.60876142900872" class="delaunay-line"/>
<line x1="3.5" y1="22.866025403784437" x2="0" y2="24" class="delaunay-line"/>
<line x1="0" y1="24" x2="3.86947380777995" y2="22.99144486137381" class="delaunay-line"/>
<line x1="3.86947380777995" y1="22.99144486137381" x2="3.5" y2="22.866025403784437" class="delaunay-line"/>
<line x1="3.86947380777995" y1="22.99144486137381" x2="0" y2="24" class="delaunay-line"/>
<line x1="0" y1="24" x2="4.25881904510252" y2="22.965925826289066" class="delaunay-line"/>
<line x1="4.25881904510252" y1="22.965925826289066" x2="3.86947380777995" y2="22.99144486137381" class="delaunay-line"/>
<line x1="22" y1="1.359631073446891e-32" x2="0" y2="0" class="delaunay-line"/>
<line x1="0" y1="0" x2="5.750274236683769" y2="0.8073283883661357" class="delaunay-line"/>
<line x1="5.750274236683769" y1="0.8073283883661357" x2="22" y2="1.359631073446891e-32" class="delaunay-line"/>
<line x1="5.750274236683769" y1="0.8073283883661357" x2="0" y2="0" class="delaunay-line"/>
<line x1="0" y1="0" x2="1.8679885601459572" y2="15.296215782702161" class="delaunay-line"/>
<line x1="1.8679885601459572" y1="15.296215782702161" x2="5.750274236683769" y2="0.8073283883661357" class="delaunay-line"/>
<line x1="1.8679885601459572" y1="15.296215782702161" x2="0" y2="0" class="delaunay-line"/>
<line x1="0" y1="0" x2="0" y2="24" class="delaunay-line"/>
<line x1="0" y1="24" x2="1.8679885601459572" y2="15.296215782702161" class="delaunay-line"/>
<line x1="24" y1="0" x2="0" y2="0" class="delaunay-line"/>
<line x1="0" y1="0" x2="22" y2="1.359631073446891e-32" class="delaunay-line"/>
<line x1="22" y1="1.359631073446891e-32" x2="24" y2="0" class="delaunay-line"/>
</g>
<g id="layer-area" class="layer ">
<polygon points="5.750274236683769,0.8073283883661357 17.34138415215259,3.9131569295963846 13.459098475614777,18.402044323932408 1.8679885601459572,15.296215782702161" class="terrain-area"/>
<text x="9.604686356149273" y="9.604686356149273" class="label">#C49A6C</text>
</g>
<g id="layer-building" class="layer ">
<polygon points="12.733251256355043,5.439022622295093 8.733251256355043,12.367225852570602 0.07299721851065577,7.367225852570605 4.072997218510655,0.4390226222950946" class="terrain-solid"/>
<text x="6.403124237432849" y="6.403124237432849" class="label">#000000</text>
</g>
<g id="layer-wall" class="layer ">
<polygon points="14.218920505898797,4.028337236577903 14.089510983347534,3.545374323433369 19.885065941081944,1.9924600528182452 20.014475463633207,2.475422965962779" class="terrain-solid"/>
<text x="17.05199322349037" y="3.010398644698074" class="label">#555555</text>
<polygon points="0.17732592710649886,18.0699318153702 0.047916404555238934,17.586968902225667 5.843471362289649,16.03405463161054 5.972880884840909,16.517017544755074" class="terrain-solid"/>
<text x="3.010398644698074" y="17.05199322349037" class="label">#555555</text>
<polygon points="7.198123216502646,18.0699318153702 7.068713693951386,17.586968902225667 12.864268651685796,16.03405463161054 12.993678174237056,16.517017544755074" class="terrain-solid"/>
<text x="10.031195934094221" y="17.05199322349037" class="label">#555555</text>
</g>
<g id="layer-tree" class="layer ">
<polygon points="18.133974596215563,21.5 18.39123857099128,21.206646659708763 18.74118095489748,21.034074173710934 19.13052619222005,21.00855513862619 19.5,21.133974596215563 19.793353340291237,21.39123857099128 19.965925826289066,21.74118095489748 19.99144486137381,22.13052619222005 19.866025403784437,22.5 19.60876142900872,22.793353340291237 19.25881904510252,22.965925826289066 18.86947380777995,22.99144486137381 18.5,22.866025403784437 18.206646659708763,22.60876142900872 18.034074173710934,22.25881904510252 18.00855513862619,21.86947380777995" class="terrain-solid"/>
<text x="19" y="22.000000000000004" class="label">#90EE90</text>
<polygon points="22,2 21.61731656763491,1.923879532511286 21.292893218813454,1.7071067811865461 21.076120467488714,1.3826834323650914 21,1 21.076120467488714,0.6173165676349087 21.292893218813454,0.2928932188134539 21.61731656763491,0.07612046748871396 22,1.359631073446891e-32 22.38268343236509,0.0761204674887139 22.707106781186546,0.2928932188134538 22.923879532511286,0.6173165676349085 23,0.9999999999999999 22.923879532511286,1.3826834323650914 22.707106781186546,1.7071067811865461 22.38268343236509,1.923879532511286" class="terrain-solid"/>
<text x="22" y="1" class="label">#90EE90</text>
<polygon points="22.5,16.866025403784437 22.13052619222005,16.99144486137381 21.74118095489748,16.965925826289066 21.39123857099128,16.793353340291237 21.133974596215563,16.5 21.00855513862619,16.13052619222005 21.034074173710934,15.74118095489748 21.206646659708763,15.39123857099128 21.5,15.13397459621556 21.869473807779947,15.008555138626189 22.258819045102523,15.034074173710932 22.60876142900872,15.206646659708763 22.866025403784437,15.5 22.99144486137381,15.86947380777995 22.96592582628907,16.25881904510252 22.793353340291233,16.60876142900872" class="terrain-solid"/>
<text x="21.999999999999996" y="15.999999999999996" class="label">#90EE90</text>
<polygon points="3.5,22.866025403784437 3.2066466597087637,22.60876142900872 3.0340741737109327,22.258819045102523 3.00855513862619,21.869473807779947 3.133974596215561,21.5 3.3912385709912796,21.206646659708767 3.7411809548974806,21.034074173710934 4.130526192220049,21.00855513862619 4.5,21.133974596215563 4.793353340291237,21.39123857099128 4.965925826289068,21.741180954897477 4.99144486137381,22.13052619222005 4.866025403784438,22.5 4.60876142900872,22.793353340291233 4.25881904510252,22.965925826289066 3.86947380777995,22.99144486137381" class="terrain-solid"/>
<text x="3.9999999999999996" y="21.999999999999993" class="label">#90EE90</text>
<polygon points="15.741180954897478,13.965925826289068 15.391238570991279,13.793353340291235 15.13397459621556,13.5 15.008555138626189,13.130526192220053 15.034074173710932,12.741180954897478 15.206646659708765,12.391238570991279 15.5,12.13397459621556 15.869473807779949,12.00855513862619 16.25881904510252,12.034074173710932 16.60876142900872,12.206646659708765 16.86602540378444,12.499999999999998 16.99144486137381,12.869473807779949 16.96592582628907,13.258819045102522 16.793353340291233,13.608761429008723 16.5,13.866025403784437 16.13052619222005,13.99144486137381" class="terrain-solid"/>
<text x="16" y="13" class="label">#90EE90</text>
<polygon points="13.25881904510252,22.96592582628907 12.869473807779947,22.99144486137381 12.5,22.86602540378444 12.206646659708765,22.60876142900872 12.034074173710932,22.25881904510252 12.00855513862619,21.86947380777995 12.133974596215563,21.5 12.391238570991277,21.206646659708763 12.74118095489748,21.03407417371093 13.130526192220053,21.00855513862619 13.5,21.13397459621556 13.793353340291235,21.39123857099128 13.965925826289068,21.74118095489748 13.99144486137381,22.13052619222005 13.866025403784437,22.5 13.608761429008723,22.793353340291237" class="terrain-solid"/>
<text x="13.000000000000004" y="21.999999999999996" class="label">#90EE90</text>
<polygon points="21.5,10.86602540378444 21.206646659708767,10.608761429008721 21.03407417371093,10.25881904510252 21.00855513862619,9.86947380777995 21.133974596215563,9.5 21.39123857099128,9.206646659708763 21.741180954897477,9.034074173710934 22.130526192220053,9.00855513862619 22.5,9.13397459621556 22.793353340291233,9.391238570991279 22.96592582628907,9.74118095489748 22.99144486137381,10.13052619222005 22.866025403784437,10.5 22.60876142900872,10.793353340291237 22.258819045102523,10.965925826289066 21.869473807779947,10.99144486137381" class="terrain-solid"/>
<text x="22.000000000000004" y="10" class="label">#90EE90</text>
</g>
<g id="layer-rocks" class="layer ">
</g>
<g id="layer-shrub" class="layer ">
</g>
<g id="layer-terrain" class="layer ">
</g>
<g id="layer-models" class="layer ">
<circle cx="3" cy="3" r="0.5" fill="#f4a261" class="model"/>
<text x="3.7" y="3" class="label">Model</text>
</g>
<g id="layer-paths" class="layer ">
</g>
<g id="layer-vectors" class="layer ">
</g>
<g id="layer-los" class="layer ">
<line x1="3" y1="3" x2="12" y2="3" class="los-ray" stroke="#2d6a4f"/>
<text x="7.7" y="3.2" class="label">Unblocked</text>
</g>
<g id="layer-lof" class="layer ">
</g>

<g id="legend">
<g class="toggle" onclick="toggleLayer('grid')"><rect x="0.4" y="0.14999999999999997" width="0.4" height="0.4" fill="#222" stroke="#222" stroke-width="0.05"/><text x="1.0" y="0.5499999999999999" class="label">0.5 MU Grid</text></g>
<g class="toggle" onclick="toggleLayer('delaunay')"><rect x="0.4" y="0.95" width="0.4" height="0.4" fill="#222" stroke="#222" stroke-width="0.05"/><text x="1.0" y="1.3499999999999999" class="label">Delaunay Mesh</text></g>
<g class="toggle" onclick="toggleLayer('area')"><rect x="0.4" y="1.7500000000000002" width="0.4" height="0.4" fill="#222" stroke="#222" stroke-width="0.05"/><text x="1.0" y="2.1500000000000004" class="label">Area Terrain</text></g>
<g class="toggle" onclick="toggleLayer('building')"><rect x="0.4" y="2.55" width="0.4" height="0.4" fill="#222" stroke="#222" stroke-width="0.05"/><text x="1.0" y="2.95" class="label">Buildings</text></g>
<g class="toggle" onclick="toggleLayer('wall')"><rect x="0.4" y="3.3499999999999996" width="0.4" height="0.4" fill="#222" stroke="#222" stroke-width="0.05"/><text x="1.0" y="3.75" class="label">Walls</text></g>
<g class="toggle" onclick="toggleLayer('tree')"><rect x="0.4" y="4.1499999999999995" width="0.4" height="0.4" fill="#222" stroke="#222" stroke-width="0.05"/><text x="1.0" y="4.55" class="label">Trees</text></g>
<g class="toggle disabled"><rect x="0.4" y="4.949999999999999" width="0.4" height="0.4" fill="#222" stroke="#222" stroke-width="0.05"/><text x="1.0" y="5.35" class="label">Rocks</text></g>
<g class="toggle disabled"><rect x="0.4" y="5.749999999999999" width="0.4" height="0.4" fill="#222" stroke="#222" stroke-width="0.05"/><text x="1.0" y="6.1499999999999995" class="label">Shrubs</text></g>
<g class="toggle" onclick="toggleLayer('terrain')"><rect x="0.4" y="6.549999999999999" width="0.4" height="0.4" fill="#222" stroke="#222" stroke-width="0.05"/><text x="1.0" y="6.949999999999999" class="label">Other Terrain</text></g>
<g class="toggle" onclick="toggleLayer('models')"><rect x="0.4" y="7.349999999999999" width="0.4" height="0.4" fill="#222" stroke="#222" stroke-width="0.05"/><text x="1.0" y="7.749999999999999" class="label">Models</text></g>
<g class="toggle" onclick="toggleLayer('paths')"><rect x="0.4" y="8.15" width="0.4" height="0.4" fill="#222" stroke="#222" stroke-width="0.05"/><text x="1.0" y="8.549999999999999" class="label">Paths</text></g>
<g class="toggle" onclick="toggleLayer('vectors')"><rect x="0.4" y="8.950000000000001" width="0.4" height="0.4" fill="#222" stroke="#222" stroke-width="0.05"/><text x="1.0" y="9.35" class="label">Vectors</text></g>
<g class="toggle" onclick="toggleLayer('los')"><rect x="0.4" y="9.750000000000002" width="0.4" height="0.4" fill="#222" stroke="#222" stroke-width="0.05"/><text x="1.0" y="10.15" class="label">LOS</text></g>
<g class="toggle" onclick="toggleLayer('lof')"><rect x="0.4" y="10.550000000000002" width="0.4" height="0.4" fill="#222" stroke="#222" stroke-width="0.05"/><text x="1.0" y="10.950000000000001" class="label">LOF</text></g>
</g>
</svg>