<svg xmlns="http://www.w3.org/2000/svg" viewBox="0 0 24 24" width="960" height="960" font-family="Arial" font-size="0.6">
<defs>
  <style><![CDATA[
    .layer { display: inline; }
    .layer.hidden { display: none; }
    .grid-line { stroke: #999; stroke-width: 0.02; opacity: 0.2; }
    .delaunay-line { stroke: #4a6fa5; stroke-width: 0.03; opacity: 0.3; }
    .terrain-area { stroke: #000; stroke-width: 0.05; }
    .terrain-solid { stroke: #000; stroke-width: 0.05; }
    .model { stroke: #000; stroke-width: 0.05; }
    .path { fill: none; stroke-width: 0.12; }
    .vector { stroke-width: 0.1; }
    .los-ray { stroke-width: 0.08; stroke-dasharray: 0.2 0.2; }
    .lof-ray { stroke-width: 0.08; stroke-dasharray: 0.3 0.15; }
    .label { fill: #111; font-size: 0.6px; }
    .toggle { cursor: pointer; }
  ]]></style>
</defs>
<rect x="0" y="0" width="24" height="24" fill="#ffffff" stroke="#111" stroke-width="0.05"/>
<g id="legend">
<g class="toggle" onclick="toggleLayer('grid')"><rect x="0.4" y="0.14999999999999997" width="0.4" height="0.4" fill="#222" stroke="#222" stroke-width="0.05"/><text x="1.0" y="0.5499999999999999" class="label">0.5 MU Grid</text></g>
<g class="toggle" onclick="toggleLayer('delaunay')"><rect x="0.4" y="0.95" width="0.4" height="0.4" fill="#222" stroke="#222" stroke-width="0.05"/><text x="1.0" y="1.3499999999999999" class="label">Delaunay Mesh</text></g>
<g class="toggle" onclick="toggleLayer('area')"><rect x="0.4" y="1.7500000000000002" width="0.4" height="0.4" fill="#222" stroke="#222" stroke-width="0.05"/><text x="1.0" y="2.1500000000000004" class="label">Area Terrain</text></g>
<g class="toggle" onclick="toggleLayer('terrain')"><rect x="0.4" y="2.55" width="0.4" height="0.4" fill="#222" stroke="#222" stroke-width="0.05"/><text x="1.0" y="2.95" class="label">Other Terrain</text></g>
<g class="toggle" onclick="toggleLayer('models')"><rect x="0.4" y="3.3499999999999996" width="0.4" height="0.4" fill="#222" stroke="#222" stroke-width="0.05"/><text x="1.0" y="3.75" class="label">Models</text></g>
<g class="toggle" onclick="toggleLayer('paths')"><rect x="0.4" y="4.1499999999999995" width="0.4" height="0.4" fill="#222" stroke="#222" stroke-width="0.05"/><text x="1.0" y="4.55" class="label">Paths</text></g>
<g class="toggle" onclick="toggleLayer('vectors')"><rect x="0.4" y="4.949999999999999" width="0.4" height="0.4" fill="#222" stroke="#222" stroke-width="0.05"/><text x="1.0" y="5.35" class="label">Vectors</text></g>
<g class="toggle" onclick="toggleLayer('los')"><rect x="0.4" y="5.749999999999999" width="0.4" height="0.4" fill="#222" stroke="#222" stroke-width="0.05"/><text x="1.0" y="6.1499999999999995" class="label">LOS</text></g>
<g class="toggle" onclick="toggleLayer('lof')"><rect x="0.4" y="6.549999999999999" width="0.4" height="0.4" fill="#222" stroke="#222" stroke-width="0.05"/><text x="1.0" y="6.949999999999999" class="label">LOF</text></g>
</g>
<script><![CDATA[
      function toggleLayer(id) {
        var layer = document.getElementById('layer-' + id);
        if (!layer) return;
        if (layer.classList.contains('hidden')) {
          layer.classList.remove('hidden');
        } else {
          layer.classList.add('hidden');
        }
      }
    ]]></script>
<text x="0.4" y="23.6" class="label">Battlefield 24x24 density 25 blockLOS 100</text>
<g id="layer-grid" class="layer ">
<line x1="0" y1="0" x2="0" y2="24" class="grid-line"/>
<line x1="0.5" y1="0" x2="0.5" y2="24" class="grid-line"/>
<line x1="1" y1="0" x2="1" y2="24" class="grid-line"/>
<line x1="1.5" y1="0" x2="1.5" y2="24" class="grid-line"/>
<line x1="2" y1="0" x2="2" y2="24" class="grid-line"/>
<line x1="2.5" y1="0" x2="2.5" y2="24" class="grid-line"/>
<line x1="3" y1="0" x2="3" y2="24" class="grid-line"/>
<line x1="3.5" y1="0" x2="3.5" y2="24" class="grid-line"/>
<line x1="4" y1="0" x2="4" y2="24" class="grid-line"/>
<line x1="4.5" y1="0" x2="4.5" y2="24" class="grid-line"/>
<line x1="5" y1="0" x2="5" y2="24" class="grid-line"/>
<line x1="5.5" y1="0" x2="5.5" y2="24" class="grid-line"/>
<line x1="6" y1="0" x2="6" y2="24" class="grid-line"/>
<line x1="6.5" y1="0" x2="6.5" y2="24" class="grid-line"/>
<line x1="7" y1="0" x2="7" y2="24" class="grid-line"/>
<line x1="7.5" y1="0" x2="7.5" y2="24" class="grid-line"/>
<line x1="8" y1="0" x2="8" y2="24" class="grid-line"/>
<line x1="8.5" y1="0" x2="8.5" y2="24" class="grid-line"/>
<line x1="9" y1="0" x2="9" y2="24" class="grid-line"/>
<line x1="9.5" y1="0" x2="9.5" y2="24" class="grid-line"/>
<line x1="10" y1="0" x2="10" y2="24" class="grid-line"/>
<line x1="10.5" y1="0" x2="10.5" y2="24" class="grid-line"/>
<line x1="11" y1="0" x2="11" y2="24" class="grid-line"/>
<line x1="11.5" y1="0" x2="11.5" y2="24" class="grid-line"/>
<line x1="12" y1="0" x2="12" y2="24" class="grid-line"/>
<line x1="12.5" y1="0" x2="12.5" y2="24" class="grid-line"/>
<line x1="13" y1="0" x2="13" y2="24" class="grid-line"/>
<line x1="13.5" y1="0" x2="13.5" y2="24" class="grid-line"/>
<line x1="14" y1="0" x2="14" y2="24" class="grid-line"/>
<line x1="14.5" y1="0" x2="14.5" y2="24" class="grid-line"/>
<line x1="15" y1="0" x2="15" y2="24" class="grid-line"/>
<line x1="15.5" y1="0" x2="15.5" y2="24" class="grid-line"/>
<line x1="16" y1="0" x2="16" y2="24" class="grid-line"/>
<line x1="16.5" y1="0" x2="16.5" y2="24" class="grid-line"/>
<line x1="17" y1="0" x2="17" y2="24" class="grid-line"/>
<line x1="17.5" y1="0" x2="17.5" y2="24" class="grid-line"/>
<line x1="18" y1="0" x2="18" y2="24" class="grid-line"/>
<line x1="18.5" y1="0" x2="18.5" y2="24" class="grid-line"/>
<line x1="19" y1="0" x2="19" y2="24" class="grid-line"/>
<line x1="19.5" y1="0" x2="19.5" y2="24" class="grid-line"/>
<line x1="20" y1="0" x2="20" y2="24" class="grid-line"/>
<line x1="20.5" y1="0" x2="20.5" y2="24" class="grid-line"/>
<line x1="21" y1="0" x2="21" y2="24" class="grid-line"/>
<line x1="21.5" y1="0" x2="21.5" y2="24" class="grid-line"/>
<line x1="22" y1="0" x2="22" y2="24" class="grid-line"/>
<line x1="22.5" y1="0" x2="22.5" y2="24" class="grid-line"/>
<line x1="23" y1="0" x2="23" y2="24" class="grid-line"/>
<line x1="23.5" y1="0" x2="23.5" y2="24" class="grid-line"/>
<line x1="24" y1="0" x2="24" y2="24" class="grid-line"/>
<line x1="0" y1="0" x2="24" y2="0" class="grid-line"/>
<line x1="0" y1="0.5" x2="24" y2="0.5" class="grid-line"/>
<line x1="0" y1="1" x2="24" y2="1" class="grid-line"/>
<line x1="0" y1="1.5" x2="24" y2="1.5" class="grid-line"/>
<line x1="0" y1="2" x2="24" y2="2" class="grid-line"/>
<line x1="0" y1="2.5" x2="24" y2="2.5" class="grid-line"/>
<line x1="0" y1="3" x2="24" y2="3" class="grid-line"/>
<line x1="0" y1="3.5" x2="24" y2="3.5" class="grid-line"/>
<line x1="0" y1="4" x2="24" y2="4" class="grid-line"/>
<line x1="0" y1="4.5" x2="24" y2="4.5" class="grid-line"/>
<line x1="0" y1="5" x2="24" y2="5" class="grid-line"/>
<line x1="0" y1="5.5" x2="24" y2="5.5" class="grid-line"/>
<line x1="0" y1="6" x2="24" y2="6" class="grid-line"/>
<line x1="0" y1="6.5" x2="24" y2="6.5" class="grid-line"/>
<line x1="0" y1="7" x2="24" y2="7" class="grid-line"/>
<line x1="0" y1="7.5" x2="24" y2="7.5" class="grid-line"/>
<line x1="0" y1="8" x2="24" y2="8" class="grid-line"/>
<line x1="0" y1="8.5" x2="24" y2="8.5" class="grid-line"/>
<line x1="0" y1="9" x2="24" y2="9" class="grid-line"/>
<line x1="0" y1="9.5" x2="24" y2="9.5" class="grid-line"/>
<line x1="0" y1="10" x2="24" y2="10" class="grid-line"/>
<line x1="0" y1="10.5" x2="24" y2="10.5" class="grid-line"/>
<line x1="0" y1="11" x2="24" y2="11" class="grid-line"/>
<line x1="0" y1="11.5" x2="24" y2="11.5" class="grid-line"/>
<line x1="0" y1="12" x2="24" y2="12" class="grid-line"/>
<line x1="0" y1="12.5" x2="24" y2="12.5" class="grid-line"/>
<line x1="0" y1="13" x2="24" y2="13" class="grid-line"/>
<line x1="0" y1="13.5" x2="24" y2="13.5" class="grid-line"/>
<line x1="0" y1="14" x2="24" y2="14" class="grid-line"/>
<line x1="0" y1="14.5" x2="24" y2="14.5" class="grid-line"/>
<line x1="0" y1="15" x2="24" y2="15" class="grid-line"/>
<line x1="0" y1="15.5" x2="24" y2="15.5" class="grid-line"/>
<line x1="0" y1="16" x2="24" y2="16" class="grid-line"/>
<line x1="0" y1="16.5" x2="24" y2="16.5" class="grid-line"/>
<line x1="0" y1="17" x2="24" y2="17" class="grid-line"/>
<line x1="0" y1="17.5" x2="24" y2="17.5" class="grid-line"/>
<line x1="0" y1="18" x2="24" y2="18" class="grid-line"/>
<line x1="0" y1="18.5" x2="24" y2="18.5" class="grid-line"/>
<line x1="0" y1="19" x2="24" y2="19" class="grid-line"/>
<line x1="0" y1="19.5" x2="24" y2="19.5" class="grid-line"/>
<line x1="0" y1="20" x2="24" y2="20" class="grid-line"/>
<line x1="0" y1="20.5" x2="24" y2="20.5" class="grid-line"/>
<line x1="0" y1="21" x2="24" y2="21" class="grid-line"/>
<line x1="0" y1="21.5" x2="24" y2="21.5" class="grid-line"/>
<line x1="0" y1="22" x2="24" y2="22" class="grid-line"/>
<line x1="0" y1="22.5" x2="24" y2="22.5" class="grid-line"/>
<line x1="0" y1="23" x2="24" y2="23" class="grid-line"/>
<line x1="0" y1="23.5" x2="24" y2="23.5" class="grid-line"/>
<line x1="0" y1="24" x2="24" y2="24" class="grid-line"/>
</g>
<g id="layer-delaunay" class="layer ">
<line x1="3.4204169433204177" y1="13.580635263345998" x2="3.370466732068103" y2="13.960044785897258" class="delaunay-line"/>
<line x1="3.370466732068103" y1="13.960044785897258" x2="3.4331764608627893" y2="13.775307882007283" class="delaunay-line"/>
<line x1="3.4331764608627893" y1="13.775307882007283" x2="3.4204169433204177" y2="13.580635263345998" class="delaunay-line"/>
<line x1="3.4204169433204177" y1="13.580635263345998" x2="3.0668635527271446" y2="14.193007699041791" class="delaunay-line"/>
<line x1="3.0668635527271446" y1="14.193007699041791" x2="3.370466732068103" y2="13.960044785897258" class="delaunay-line"/>
<line x1="3.370466732068103" y1="13.960044785897258" x2="3.4204169433204177" y2="13.580635263345998" class="delaunay-line"/>
<line x1="3.0668635527271446" y1="14.193007699041791" x2="3.2418347446802436" y2="14.106721456042877" class="delaunay-line"/>
<line x1="3.2418347446802436" y1="14.106721456042877" x2="3.370466732068103" y2="13.960044785897258" class="delaunay-line"/>
<line x1="3.370466732068103" y1="13.960044785897258" x2="3.0668635527271446" y2="14.193007699041791" class="delaunay-line"/>
<line x1="3.4204169433204177" y1="13.580635263345998" x2="2.808044507624623" y2="13.227081872752725" class="delaunay-line"/>
<line x1="2.808044507624623" y1="13.227081872752725" x2="3.0668635527271446" y2="14.193007699041791" class="delaunay-line"/>
<line x1="3.0668635527271446" y1="14.193007699041791" x2="3.4204169433204177" y2="13.580635263345998" class="delaunay-line"/>
<line x1="3.3341307003215013" y1="13.405664071392899" x2="2.808044507624623" y2="13.227081872752725" class="delaunay-line"/>
<line x1="2.808044507624623" y1="13.227081872752725" x2="3.4204169433204177" y2="13.580635263345998" class="delaunay-line"/>
<line x1="3.4204169433204177" y1="13.580635263345998" x2="3.3341307003215013" y2="13.405664071392899" class="delaunay-line"/>
<line x1="2.687454030175884" y1="14.143057487789477" x2="2.8721909340658587" y2="14.205767216584164" class="delaunay-line"/>
<line x1="2.8721909340658587" y1="14.205767216584164" x2="3.0668635527271446" y2="14.193007699041791" class="delaunay-line"/>
<line x1="3.0668635527271446" y1="14.193007699041791" x2="2.687454030175884" y2="14.143057487789477" class="delaunay-line"/>
<line x1="2.5407773600302663" y1="14.014425500401618" x2="2.687454030175884" y2="14.143057487789477" class="delaunay-line"/>
<line x1="2.687454030175884" y1="14.143057487789477" x2="2.4544911170313504" y2="13.839454308448518" class="delaunay-line"/>
<line x1="2.4544911170313504" y1="13.839454308448518" x2="2.5407773600302663" y2="14.014425500401618" class="delaunay-line"/>
<line x1="3.187454030175884" y1="13.27703208400504" x2="2.808044507624623" y2="13.227081872752725" class="delaunay-line"/>
<line x1="2.808044507624623" y1="13.227081872752725" x2="3.3341307003215013" y2="13.405664071392899" class="delaunay-line"/>
<line x1="3.3341307003215013" y1="13.405664071392899" x2="3.187454030175884" y2="13.27703208400504" class="delaunay-line"/>
<line x1="3.0027171262859094" y1="13.214322355210353" x2="2.808044507624623" y2="13.227081872752725" class="delaunay-line"/>
<line x1="2.808044507624623" y1="13.227081872752725" x2="3.187454030175884" y2="13.27703208400504" class="delaunay-line"/>
<line x1="3.187454030175884" y1="13.27703208400504" x2="3.0027171262859094" y2="13.214322355210353" class="delaunay-line"/>
<line x1="2.4544911170313504" y1="13.839454308448518" x2="2.687454030175884" y2="14.143057487789477" class="delaunay-line"/>
<line x1="2.687454030175884" y1="14.143057487789477" x2="3.0668635527271446" y2="14.193007699041791" class="delaunay-line"/>
<line x1="3.0668635527271446" y1="14.193007699041791" x2="2.4544911170313504" y2="13.839454308448518" class="delaunay-line"/>
<line x1="2.808044507624623" y1="13.227081872752725" x2="2.4544911170313504" y2="13.839454308448518" class="delaunay-line"/>
<line x1="2.4544911170313504" y1="13.839454308448518" x2="3.0668635527271446" y2="14.193007699041791" class="delaunay-line"/>
<line x1="3.0668635527271446" y1="14.193007699041791" x2="2.808044507624623" y2="13.227081872752725" class="delaunay-line"/>
<line x1="2.808044507624623" y1="13.227081872752725" x2="2.5044413282836646" y2="13.460044785897258" class="delaunay-line"/>
<line x1="2.5044413282836646" y1="13.460044785897258" x2="2.4544911170313504" y2="13.839454308448518" class="delaunay-line"/>
<line x1="2.4544911170313504" y1="13.839454308448518" x2="2.808044507624623" y2="13.227081872752725" class="delaunay-line"/>
<line x1="2.633073315671524" y1="13.31336811575164" x2="2.5044413282836646" y2="13.460044785897258" class="delaunay-line"/>
<line x1="2.5044413282836646" y1="13.460044785897258" x2="2.808044507624623" y2="13.227081872752725" class="delaunay-line"/>
<line x1="2.808044507624623" y1="13.227081872752725" x2="2.633073315671524" y2="13.31336811575164" class="delaunay-line"/>
<line x1="2.5044413282836646" y1="13.460044785897258" x2="2.4417315994889783" y2="13.644781689787234" class="delaunay-line"/>
<line x1="2.4417315994889783" y1="13.644781689787234" x2="2.4544911170313504" y2="13.839454308448518" class="delaunay-line"/>
<line x1="2.4544911170313504" y1="13.839454308448518" x2="2.5044413282836646" y2="13.460044785897258" class="delaunay-line"/>
<line x1="3.0668635527271446" y1="14.193007699041791" x2="7.331451182914937" y2="20.05295889450937" class="delaunay-line"/>
<line x1="7.331451182914937" y1="20.05295889450937" x2="3.2418347446802436" y2="14.106721456042877" class="delaunay-line"/>
<line x1="3.2418347446802436" y1="14.106721456042877" x2="3.0668635527271446" y2="14.193007699041791" class="delaunay-line"/>
<line x1="3.2418347446802436" y1="14.106721456042877" x2="7.506422374868038" y2="19.966672651510454" class="delaunay-line"/>
<line x1="7.506422374868038" y1="19.966672651510454" x2="3.370466732068103" y2="13.960044785897258" class="delaunay-line"/>
<line x1="3.370466732068103" y1="13.960044785897258" x2="3.2418347446802436" y2="14.106721456042877" class="delaunay-line"/>
<line x1="3.370466732068103" y1="13.960044785897258" x2="7.701094993529322" y2="19.953913133968083" class="delaunay-line"/>
<line x1="7.701094993529322" y1="19.953913133968083" x2="3.4331764608627893" y2="13.775307882007283" class="delaunay-line"/>
<line x1="3.4331764608627893" y1="13.775307882007283" x2="3.370466732068103" y2="13.960044785897258" class="delaunay-line"/>
<line x1="3.4331764608627893" y1="13.775307882007283" x2="7.885831897419298" y2="20.016622862762766" class="delaunay-line"/>
<line x1="7.885831897419298" y1="20.016622862762766" x2="3.4204169433204177" y2="13.580635263345998" class="delaunay-line"/>
<line x1="3.4204169433204177" y1="13.580635263345998" x2="3.4331764608627893" y2="13.775307882007283" class="delaunay-line"/>
<line x1="3.4204169433204177" y1="13.580635263345998" x2="24" y2="0" class="delaunay-line"/>
<line x1="24" y1="0" x2="3.3341307003215013" y2="13.405664071392899" class="delaunay-line"/>
<line x1="3.3341307003215013" y1="13.405664071392899" x2="3.4204169433204177" y2="13.580635263345998" class="delaunay-line"/>
<line x1="7.202819195527078" y1="20.199635564654987" x2="7.331451182914937" y2="20.05295889450937" class="delaunay-line"/>
<line x1="7.331451182914937" y1="20.05295889450937" x2="3.0668635527271446" y2="14.193007699041791" class="delaunay-line"/>
<line x1="3.0668635527271446" y1="14.193007699041791" x2="7.202819195527078" y2="20.199635564654987" class="delaunay-line"/>
<line x1="7.202819195527078" y1="20.199635564654987" x2="3.0668635527271446" y2="14.193007699041791" class="delaunay-line"/>
<line x1="3.0668635527271446" y1="14.193007699041791" x2="2.8721909340658587" y2="14.205767216584164" class="delaunay-line"/>
<line x1="2.8721909340658587" y1="14.205767216584164" x2="7.202819195527078" y2="20.199635564654987" class="delaunay-line"/>
<line x1="7.202819195527078" y1="20.199635564654987" x2="2.8721909340658587" y2="14.205767216584164" class="delaunay-line"/>
<line x1="2.8721909340658587" y1="14.205767216584164" x2="7.140109466732393" y2="20.384372468544964" class="delaunay-line"/>
<line x1="7.140109466732393" y1="20.384372468544964" x2="7.202819195527078" y2="20.199635564654987" class="delaunay-line"/>
<line x1="7.331451182914937" y1="20.05295889450937" x2="7.506422374868038" y2="19.966672651510454" class="delaunay-line"/>
<line x1="7.506422374868038" y1="19.966672651510454" x2="3.2418347446802436" y2="14.106721456042877" class="delaunay-line"/>
<line x1="3.2418347446802436" y1="14.106721456042877" x2="7.331451182914937" y2="20.05295889450937" class="delaunay-line"/>
<line x1="7.140109466732393" y1="20.384372468544964" x2="2.8721909340658587" y2="14.205767216584164" class="delaunay-line"/>
<line x1="2.8721909340658587" y1="14.205767216584164" x2="0" y2="24" class="delaunay-line"/>
<line x1="0" y1="24" x2="7.140109466732393" y2="20.384372468544964" class="delaunay-line"/>
<line x1="7.140109466732393" y1="20.384372468544964" x2="7.701094993529322" y2="19.953913133968083" class="delaunay-line"/>
<line x1="7.701094993529322" y1="19.953913133968083" x2="7.506422374868038" y2="19.966672651510454" class="delaunay-line"/>
<line x1="7.506422374868038" y1="19.966672651510454" x2="7.140109466732393" y2="20.384372468544964" class="delaunay-line"/>
<line x1="7.140109466732393" y1="20.384372468544964" x2="7.506422374868038" y2="19.966672651510454" class="delaunay-line"/>
<line x1="7.506422374868038" y1="19.966672651510454" x2="7.331451182914937" y2="20.05295889450937" class="delaunay-line"/>
<line x1="7.331451182914937" y1="20.05295889450937" x2="7.140109466732393" y2="20.384372468544964" class="delaunay-line"/>
<line x1="7.506422374868038" y1="19.966672651510454" x2="7.701094993529322" y2="19.953913133968083" class="delaunay-line"/>
<line x1="7.701094993529322" y1="19.953913133968083" x2="3.370466732068103" y2="13.960044785897258" class="delaunay-line"/>
<line x1="3.370466732068103" y1="13.960044785897258" x2="7.506422374868038" y2="19.966672651510454" class="delaunay-line"/>
<line x1="7.152868984274765" y1="20.57904508720625" x2="7.140109466732393" y2="20.384372468544964" class="delaunay-line"/>
<line x1="7.140109466732393" y1="20.384372468544964" x2="0" y2="24" class="delaunay-line"/>
<line x1="0" y1="24" x2="7.152868984274765" y2="20.57904508720625" class="delaunay-line"/>
<line x1="7.202819195527078" y1="20.199635564654987" x2="7.140109466732393" y2="20.384372468544964" class="delaunay-line"/>
<line x1="7.140109466732393" y1="20.384372468544964" x2="7.331451182914937" y2="20.05295889450937" class="delaunay-line"/>
<line x1="7.331451182914937" y1="20.05295889450937" x2="7.202819195527078" y2="20.199635564654987" class="delaunay-line"/>
<line x1="8.032508567564916" y1="20.145254850150625" x2="7.885831897419298" y2="20.016622862762766" class="delaunay-line"/>
<line x1="7.885831897419298" y1="20.016622862762766" x2="7.701094993529322" y2="19.953913133968083" class="delaunay-line"/>
<line x1="7.701094993529322" y1="19.953913133968083" x2="8.032508567564916" y2="20.145254850150625" class="delaunay-line"/>
<line x1="7.701094993529322" y1="19.953913133968083" x2="7.885831897419298" y2="20.016622862762766" class="delaunay-line"/>
<line x1="7.885831897419298" y1="20.016622862762766" x2="3.4331764608627893" y2="13.775307882007283" class="delaunay-line"/>
<line x1="3.4331764608627893" y1="13.775307882007283" x2="7.701094993529322" y2="19.953913133968083" class="delaunay-line"/>
<line x1="0" y1="24" x2="2.8721909340658587" y2="14.205767216584164" class="delaunay-line"/>
<line x1="2.8721909340658587" y1="14.205767216584164" x2="2.687454030175884" y2="14.143057487789477" class="delaunay-line"/>
<line x1="2.687454030175884" y1="14.143057487789477" x2="0" y2="24" class="delaunay-line"/>
<line x1="8.131554328106201" y1="20.51489866076501" x2="8.11879481056383" y2="20.320226042103723" class="delaunay-line"/>
<line x1="8.11879481056383" y1="20.320226042103723" x2="7.701094993529322" y2="19.953913133968083" class="delaunay-line"/>
<line x1="7.701094993529322" y1="19.953913133968083" x2="8.131554328106201" y2="20.51489866076501" class="delaunay-line"/>
<line x1="8.11879481056383" y1="20.320226042103723" x2="8.032508567564916" y2="20.145254850150625" class="delaunay-line"/>
<line x1="8.032508567564916" y1="20.145254850150625" x2="7.701094993529322" y2="19.953913133968083" class="delaunay-line"/>
<line x1="7.701094993529322" y1="19.953913133968083" x2="8.11879481056383" y2="20.320226042103723" class="delaunay-line"/>
<line x1="7.885831897419298" y1="20.016622862762766" x2="24" y2="0" class="delaunay-line"/>
<line x1="24" y1="0" x2="3.4204169433204177" y2="13.580635263345998" class="delaunay-line"/>
<line x1="3.4204169433204177" y1="13.580635263345998" x2="7.885831897419298" y2="20.016622862762766" class="delaunay-line"/>
<line x1="0" y1="24" x2="7.239155227273679" y2="20.754016279159348" class="delaunay-line"/>
<line x1="7.239155227273679" y1="20.754016279159348" x2="7.152868984274765" y2="20.57904508720625" class="delaunay-line"/>
<line x1="7.152868984274765" y1="20.57904508720625" x2="0" y2="24" class="delaunay-line"/>
<line x1="8.131554328106201" y1="20.51489866076501" x2="7.701094993529322" y2="19.953913133968083" class="delaunay-line"/>
<line x1="7.701094993529322" y1="19.953913133968083" x2="7.570568801309273" y2="20.94535799534189" class="delaunay-line"/>
<line x1="7.570568801309273" y1="20.94535799534189" x2="8.131554328106201" y2="20.51489866076501" class="delaunay-line"/>
<line x1="7.701094993529322" y1="19.953913133968083" x2="7.140109466732393" y2="20.384372468544964" class="delaunay-line"/>
<line x1="7.140109466732393" y1="20.384372468544964" x2="7.570568801309273" y2="20.94535799534189" class="delaunay-line"/>
<line x1="7.570568801309273" y1="20.94535799534189" x2="7.701094993529322" y2="19.953913133968083" class="delaunay-line"/>
<line x1="7.239155227273679" y1="20.754016279159348" x2="7.570568801309273" y2="20.94535799534189" class="delaunay-line"/>
<line x1="7.570568801309273" y1="20.94535799534189" x2="7.152868984274765" y2="20.57904508720625" class="delaunay-line"/>
<line x1="7.152868984274765" y1="20.57904508720625" x2="7.239155227273679" y2="20.754016279159348" class="delaunay-line"/>
<line x1="7.570568801309273" y1="20.94535799534189" x2="7.140109466732393" y2="20.384372468544964" class="delaunay-line"/>
<line x1="7.140109466732393" y1="20.384372468544964" x2="7.152868984274765" y2="20.57904508720625" class="delaunay-line"/>
<line x1="7.152868984274765" y1="20.57904508720625" x2="7.570568801309273" y2="20.94535799534189" class="delaunay-line"/>
<line x1="7.385831897419298" y1="20.882648266547207" x2="7.570568801309273" y2="20.94535799534189" class="delaunay-line"/>
<line x1="7.570568801309273" y1="20.94535799534189" x2="7.239155227273679" y2="20.754016279159348" class="delaunay-line"/>
<line x1="7.239155227273679" y1="20.754016279159348" x2="7.385831897419298" y2="20.882648266547207" class="delaunay-line"/>
<line x1="7.940212611923658" y1="20.846312234800603" x2="8.068844599311516" y2="20.699635564654987" class="delaunay-line"/>
<line x1="8.068844599311516" y1="20.699635564654987" x2="8.131554328106201" y2="20.51489866076501" class="delaunay-line"/>
<line x1="8.131554328106201" y1="20.51489866076501" x2="7.940212611923658" y2="20.846312234800603" class="delaunay-line"/>
<line x1="7.570568801309273" y1="20.94535799534189" x2="7.7652414199705575" y2="20.93259847779952" class="delaunay-line"/>
<line x1="7.7652414199705575" y1="20.93259847779952" x2="8.131554328106201" y2="20.51489866076501" class="delaunay-line"/>
<line x1="8.131554328106201" y1="20.51489866076501" x2="7.570568801309273" y2="20.94535799534189" class="delaunay-line"/>
<line x1="7.7652414199705575" y1="20.93259847779952" x2="7.940212611923658" y2="20.846312234800603" class="delaunay-line"/>
<line x1="7.940212611923658" y1="20.846312234800603" x2="8.131554328106201" y2="20.51489866076501" class="delaunay-line"/>
<line x1="8.131554328106201" y1="20.51489866076501" x2="7.7652414199705575" y2="20.93259847779952" class="delaunay-line"/>
<line x1="2.4544911170313504" y1="13.839454308448518" x2="0" y2="24" class="delaunay-line"/>
<line x1="0" y1="24" x2="2.5407773600302663" y2="14.014425500401618" class="delaunay-line"/>
<line x1="2.5407773600302663" y1="14.014425500401618" x2="2.4544911170313504" y2="13.839454308448518" class="delaunay-line"/>
<line x1="2.5407773600302663" y1="14.014425500401618" x2="0" y2="24" class="delaunay-line"/>
<line x1="0" y1="24" x2="2.687454030175884" y2="14.143057487789477" class="delaunay-line"/>
<line x1="2.687454030175884" y1="14.143057487789477" x2="2.5407773600302663" y2="14.014425500401618" class="delaunay-line"/>
<line x1="7.239155227273679" y1="20.754016279159348" x2="0" y2="24" class="delaunay-line"/>
<line x1="0" y1="24" x2="7.385831897419298" y2="20.882648266547207" class="delaunay-line"/>
<line x1="7.385831897419298" y1="20.882648266547207" x2="7.239155227273679" y2="20.754016279159348" class="delaunay-line"/>
<line x1="7.385831897419298" y1="20.882648266547207" x2="0" y2="24" class="delaunay-line"/>
<line x1="0" y1="24" x2="7.570568801309273" y2="20.94535799534189" class="delaunay-line"/>
<line x1="7.570568801309273" y1="20.94535799534189" x2="7.385831897419298" y2="20.882648266547207" class="delaunay-line"/>
<line x1="7.570568801309273" y1="20.94535799534189" x2="0" y2="24" class="delaunay-line"/>
<line x1="0" y1="24" x2="7.7652414199705575" y2="20.93259847779952" class="delaunay-line"/>
<line x1="7.7652414199705575" y1="20.93259847779952" x2="7.570568801309273" y2="20.94535799534189" class="delaunay-line"/>
<line x1="2.4417315994889783" y1="13.644781689787234" x2="0" y2="24" class="delaunay-line"/>
<line x1="0" y1="24" x2="2.4544911170313504" y2="13.839454308448518" class="delaunay-line"/>
<line x1="2.4544911170313504" y1="13.839454308448518" x2="2.4417315994889783" y2="13.644781689787234" class="delaunay-line"/>
<line x1="3.0027171262859094" y1="13.214322355210353" x2="0" y2="0" class="delaunay-line"/>
<line x1="0" y1="0" x2="2.808044507624623" y2="13.227081872752725" class="delaunay-line"/>
<line x1="2.808044507624623" y1="13.227081872752725" x2="3.0027171262859094" y2="13.214322355210353" class="delaunay-line"/>
<line x1="2.808044507624623" y1="13.227081872752725" x2="0" y2="0" class="delaunay-line"/>
<line x1="0" y1="0" x2="2.633073315671524" y2="13.31336811575164" class="delaunay-line"/>
<line x1="2.633073315671524" y1="13.31336811575164" x2="2.808044507624623" y2="13.227081872752725" class="delaunay-line"/>
<line x1="2.633073315671524" y1="13.31336811575164" x2="0" y2="0" class="delaunay-line"/>
<line x1="0" y1="0" x2="2.5044413282836646" y2="13.460044785897258" class="delaunay-line"/>
<line x1="2.5044413282836646" y1="13.460044785897258" x2="2.633073315671524" y2="13.31336811575164" class="delaunay-line"/>
<line x1="2.5044413282836646" y1="13.460044785897258" x2="0" y2="0" class="delaunay-line"/>
<line x1="0" y1="0" x2="2.4417315994889783" y2="13.644781689787234" class="delaunay-line"/>
<line x1="2.4417315994889783" y1="13.644781689787234" x2="2.5044413282836646" y2="13.460044785897258" class="delaunay-line"/>
<line x1="2.4417315994889783" y1="13.644781689787234" x2="0" y2="0" class="delaunay-line"/>
<line x1="0" y1="0" x2="0" y2="24" class="delaunay-line"/>
<line x1="0" y1="24" x2="2.4417315994889783" y2="13.644781689787234" class="delaunay-line"/>
<line x1="3.187454030175884" y1="13.27703208400504" x2="0" y2="0" class="delaunay-line"/>
<line x1="0" y1="0" x2="3.0027171262859094" y2="13.214322355210353" class="delaunay-line"/>
<line x1="3.0027171262859094" y1="13.214322355210353" x2="3.187454030175884" y2="13.27703208400504" class="delaunay-line"/>
<line x1="3.3341307003215013" y1="13.405664071392899" x2="0" y2="0" class="delaunay-line"/>
<line x1="0" y1="0" x2="3.187454030175884" y2="13.27703208400504" class="delaunay-line"/>
<line x1="3.187454030175884" y1="13.27703208400504" x2="3.3341307003215013" y2="13.405664071392899" class="delaunay-line"/>
<line x1="24" y1="0" x2="0" y2="0" class="delaunay-line"/>
<line x1="0" y1="0" x2="3.3341307003215013" y2="13.405664071392899" class="delaunay-line"/>
<line x1="3.3341307003215013" y1="13.405664071392899" x2="24" y2="0" class="delaunay-line"/>
<line x1="24" y1="0" x2="7.885831897419298" y2="20.016622862762766" class="delaunay-line"/>
<line x1="7.885831897419298" y1="20.016622862762766" x2="8.032508567564916" y2="20.145254850150625" class="delaunay-line"/>
<line x1="8.032508567564916" y1="20.145254850150625" x2="24" y2="0" class="delaunay-line"/>
<line x1="8.131554328106201" y1="20.51489866076501" x2="24" y2="24" class="delaunay-line"/>
<line x1="24" y1="24" x2="8.11879481056383" y2="20.320226042103723" class="delaunay-line"/>
<line x1="8.11879481056383" y1="20.320226042103723" x2="8.131554328106201" y2="20.51489866076501" class="delaunay-line"/>
<line x1="8.11879481056383" y1="20.320226042103723" x2="24" y2="24" class="delaunay-line"/>
<line x1="24" y1="24" x2="8.032508567564916" y2="20.145254850150625" class="delaunay-line"/>
<line x1="8.032508567564916" y1="20.145254850150625" x2="8.11879481056383" y2="20.320226042103723" class="delaunay-line"/>
<line x1="8.068844599311516" y1="20.699635564654987" x2="24" y2="24" class="delaunay-line"/>
<line x1="24" y1="24" x2="8.131554328106201" y2="20.51489866076501" class="delaunay-line"/>
<line x1="8.131554328106201" y1="20.51489866076501" x2="8.068844599311516" y2="20.699635564654987" class="delaunay-line"/>
<line x1="7.940212611923658" y1="20.846312234800603" x2="24" y2="24" class="delaunay-line"/>
<line x1="24" y1="24" x2="8.068844599311516" y2="20.699635564654987" class="delaunay-line"/>
<line x1="8.068844599311516" y1="20.699635564654987" x2="7.940212611923658" y2="20.846312234800603" class="delaunay-line"/>
<line x1="7.7652414199705575" y1="20.93259847779952" x2="24" y2="24" class="delaunay-line"/>
<line x1="24" y1="24" x2="7.940212611923658" y2="20.846312234800603" class="delaunay-line"/>
<line x1="7.940212611923658" y1="20.846312234800603" x2="7.7652414199705575" y2="20.93259847779952" class="delaunay-line"/>
<line x1="0" y1="24" x2="24" y2="24" class="delaunay-line"/>
<line x1="24" y1="24" x2="7.7652414199705575" y2="20.93259847779952" class="delaunay-line"/>
<line x1="7.7652414199705575" y1="20.93259847779952" x2="0" y2="24" class="delaunay-line"/>
<line x1="24" y1="24" x2="24" y2="0" class="delaunay-line"/>
<line x1="24" y1="0" x2="8.032508567564916" y2="20.145254850150625" class="delaunay-line"/>
<line x1="8.032508567564916" y1="20.145254850150625" x2="24" y2="24" class="delaunay-line"/>
</g>
<g id="layer-area" class="layer ">
</g>
<g id="layer-terrain" class="layer ">
<polygon points="7.385831897419298,20.882648266547207 7.239155227273679,20.754016279159348 7.152868984274765,20.57904508720625 7.140109466732393,20.384372468544964 7.202819195527078,20.199635564654987 7.331451182914937,20.05295889450937 7.506422374868038,19.966672651510454 7.701094993529322,19.953913133968083 7.885831897419298,20.016622862762766 8.032508567564916,20.145254850150625 8.11879481056383,20.320226042103723 8.131554328106201,20.51489866076501 8.068844599311516,20.699635564654987 7.940212611923658,20.846312234800603 7.7652414199705575,20.93259847779952 7.570568801309273,20.94535799534189" fill="Dark Green" class="terrain-solid"/>
<polygon points="2.5044413282836646,13.460044785897258 2.633073315671524,13.31336811575164 2.808044507624623,13.227081872752725 3.0027171262859094,13.214322355210353 3.187454030175884,13.27703208400504 3.3341307003215013,13.405664071392899 3.4204169433204177,13.580635263345998 3.4331764608627893,13.775307882007283 3.370466732068103,13.960044785897258 3.2418347446802436,14.106721456042877 3.0668635527271446,14.193007699041791 2.8721909340658587,14.205767216584164 2.687454030175884,14.143057487789477 2.5407773600302663,14.014425500401618 2.4544911170313504,13.839454308448518 2.4417315994889783,13.644781689787234" fill="Dark Green" class="terrain-solid"/>
</g>
<g id="layer-models" class="layer ">
</g>
<g id="layer-paths" class="layer ">
</g>
<g id="layer-vectors" class="layer ">
</g>
<g id="layer-los" class="layer ">
</g>
<g id="layer-lof" class="layer ">
</g>

</svg>