<svg xmlns="http://www.w3.org/2000/svg" viewBox="0 0 24 24" width="960" height="960" font-family="Arial" font-size="0.6">
<defs>
  <style><![CDATA[
    .layer { display: inline; }
    .layer.hidden { display: none; }
    .grid-line { stroke: #999; stroke-width: 0.02; opacity: 0.2; }
    .delaunay-line { stroke: #4a6fa5; stroke-width: 0.03; opacity: 0.3; }
    .terrain-area { stroke: #000; stroke-width: 0.05; }
    .terrain-solid { stroke: #000; stroke-width: 0.05; }
    .model { stroke: #000; stroke-width: 0.05; }
    .path { fill: none; stroke-width: 0.12; }
    .vector { stroke-width: 0.1; }
    .los-ray { stroke-width: 0.08; stroke-dasharray: 0.2 0.2; }
    .lof-ray { stroke-width: 0.08; stroke-dasharray: 0.3 0.15; }
    .label { fill: #111; font-size: 0.6px; }
    .toggle { cursor: pointer; }
  ]]></style>
</defs>
<rect x="0" y="0" width="24" height="24" fill="#ffffff" stroke="#111" stroke-width="0.05"/>
<g id="legend">
<g class="toggle" onclick="toggleLayer('grid')"><rect x="0.4" y="0.14999999999999997" width="0.4" height="0.4" fill="#222" stroke="#222" stroke-width="0.05"/><text x="1.0" y="0.5499999999999999" class="label">0.5 MU Grid</text></g>
<g class="toggle" onclick="toggleLayer('delaunay')"><rect x="0.4" y="0.95" width="0.4" height="0.4" fill="#222" stroke="#222" stroke-width="0.05"/><text x="1.0" y="1.3499999999999999" class="label">Delaunay Mesh</text></g>
<g class="toggle" onclick="toggleLayer('area')"><rect x="0.4" y="1.7500000000000002" width="0.4" height="0.4" fill="#222" stroke="#222" stroke-width="0.05"/><text x="1.0" y="2.1500000000000004" class="label">Area Terrain</text></g>
<g class="toggle" onclick="toggleLayer('terrain')"><rect x="0.4" y="2.55" width="0.4" height="0.4" fill="#222" stroke="#222" stroke-width="0.05"/><text x="1.0" y="2.95" class="label">Other Terrain</text></g>
<g class="toggle" onclick="toggleLayer('models')"><rect x="0.4" y="3.3499999999999996" width="0.4" height="0.4" fill="#222" stroke="#222" stroke-width="0.05"/><text x="1.0" y="3.75" class="label">Models</text></g>
<g class="toggle" onclick="toggleLayer('paths')"><rect x="0.4" y="4.1499999999999995" width="0.4" height="0.4" fill="#222" stroke="#222" stroke-width="0.05"/><text x="1.0" y="4.55" class="label">Paths</text></g>
<g class="toggle" onclick="toggleLayer('vectors')"><rect x="0.4" y="4.949999999999999" width="0.4" height="0.4" fill="#222" stroke="#222" stroke-width="0.05"/><text x="1.0" y="5.35" class="label">Vectors</text></g>
<g class="toggle" onclick="toggleLayer('los')"><rect x="0.4" y="5.749999999999999" width="0.4" height="0.4" fill="#222" stroke="#222" stroke-width="0.05"/><text x="1.0" y="6.1499999999999995" class="label">LOS</text></g>
<g class="toggle" onclick="toggleLayer('lof')"><rect x="0.4" y="6.549999999999999" width="0.4" height="0.4" fill="#222" stroke="#222" stroke-width="0.05"/><text x="1.0" y="6.949999999999999" class="label">LOF</text></g>
</g>
<script><![CDATA[
      function toggleLayer(id) {
        var layer = document.getElementById('layer-' + id);
        if (!layer) return;
        if (layer.classList.contains('hidden')) {
          layer.classList.remove('hidden');
        } else {
          layer.classList.add('hidden');
        }
      }
    ]]></script>
<text x="0.4" y="23.6" class="label">Battlefield 24x24 density 75 blockLOS 50</text>
<g id="layer-grid" class="layer ">
<line x1="0" y1="0" x2="0" y2="24" class="grid-line"/>
<line x1="0.5" y1="0" x2="0.5" y2="24" class="grid-line"/>
<line x1="1" y1="0" x2="1" y2="24" class="grid-line"/>
<line x1="1.5" y1="0" x2="1.5" y2="24" class="grid-line"/>
<line x1="2" y1="0" x2="2" y2="24" class="grid-line"/>
<line x1="2.5" y1="0" x2="2.5" y2="24" class="grid-line"/>
<line x1="3" y1="0" x2="3" y2="24" class="grid-line"/>
<line x1="3.5" y1="0" x2="3.5" y2="24" class="grid-line"/>
<line x1="4" y1="0" x2="4" y2="24" class="grid-line"/>
<line x1="4.5" y1="0" x2="4.5" y2="24" class="grid-line"/>
<line x1="5" y1="0" x2="5" y2="24" class="grid-line"/>
<line x1="5.5" y1="0" x2="5.5" y2="24" class="grid-line"/>
<line x1="6" y1="0" x2="6" y2="24" class="grid-line"/>
<line x1="6.5" y1="0" x2="6.5" y2="24" class="grid-line"/>
<line x1="7" y1="0" x2="7" y2="24" class="grid-line"/>
<line x1="7.5" y1="0" x2="7.5" y2="24" class="grid-line"/>
<line x1="8" y1="0" x2="8" y2="24" class="grid-line"/>
<line x1="8.5" y1="0" x2="8.5" y2="24" class="grid-line"/>
<line x1="9" y1="0" x2="9" y2="24" class="grid-line"/>
<line x1="9.5" y1="0" x2="9.5" y2="24" class="grid-line"/>
<line x1="10" y1="0" x2="10" y2="24" class="grid-line"/>
<line x1="10.5" y1="0" x2="10.5" y2="24" class="grid-line"/>
<line x1="11" y1="0" x2="11" y2="24" class="grid-line"/>
<line x1="11.5" y1="0" x2="11.5" y2="24" class="grid-line"/>
<line x1="12" y1="0" x2="12" y2="24" class="grid-line"/>
<line x1="12.5" y1="0" x2="12.5" y2="24" class="grid-line"/>
<line x1="13" y1="0" x2="13" y2="24" class="grid-line"/>
<line x1="13.5" y1="0" x2="13.5" y2="24" class="grid-line"/>
<line x1="14" y1="0" x2="14" y2="24" class="grid-line"/>
<line x1="14.5" y1="0" x2="14.5" y2="24" class="grid-line"/>
<line x1="15" y1="0" x2="15" y2="24" class="grid-line"/>
<line x1="15.5" y1="0" x2="15.5" y2="24" class="grid-line"/>
<line x1="16" y1="0" x2="16" y2="24" class="grid-line"/>
<line x1="16.5" y1="0" x2="16.5" y2="24" class="grid-line"/>
<line x1="17" y1="0" x2="17" y2="24" class="grid-line"/>
<line x1="17.5" y1="0" x2="17.5" y2="24" class="grid-line"/>
<line x1="18" y1="0" x2="18" y2="24" class="grid-line"/>
<line x1="18.5" y1="0" x2="18.5" y2="24" class="grid-line"/>
<line x1="19" y1="0" x2="19" y2="24" class="grid-line"/>
<line x1="19.5" y1="0" x2="19.5" y2="24" class="grid-line"/>
<line x1="20" y1="0" x2="20" y2="24" class="grid-line"/>
<line x1="20.5" y1="0" x2="20.5" y2="24" class="grid-line"/>
<line x1="21" y1="0" x2="21" y2="24" class="grid-line"/>
<line x1="21.5" y1="0" x2="21.5" y2="24" class="grid-line"/>
<line x1="22" y1="0" x2="22" y2="24" class="grid-line"/>
<line x1="22.5" y1="0" x2="22.5" y2="24" class="grid-line"/>
<line x1="23" y1="0" x2="23" y2="24" class="grid-line"/>
<line x1="23.5" y1="0" x2="23.5" y2="24" class="grid-line"/>
<line x1="24" y1="0" x2="24" y2="24" class="grid-line"/>
<line x1="0" y1="0" x2="24" y2="0" class="grid-line"/>
<line x1="0" y1="0.5" x2="24" y2="0.5" class="grid-line"/>
<line x1="0" y1="1" x2="24" y2="1" class="grid-line"/>
<line x1="0" y1="1.5" x2="24" y2="1.5" class="grid-line"/>
<line x1="0" y1="2" x2="24" y2="2" class="grid-line"/>
<line x1="0" y1="2.5" x2="24" y2="2.5" class="grid-line"/>
<line x1="0" y1="3" x2="24" y2="3" class="grid-line"/>
<line x1="0" y1="3.5" x2="24" y2="3.5" class="grid-line"/>
<line x1="0" y1="4" x2="24" y2="4" class="grid-line"/>
<line x1="0" y1="4.5" x2="24" y2="4.5" class="grid-line"/>
<line x1="0" y1="5" x2="24" y2="5" class="grid-line"/>
<line x1="0" y1="5.5" x2="24" y2="5.5" class="grid-line"/>
<line x1="0" y1="6" x2="24" y2="6" class="grid-line"/>
<line x1="0" y1="6.5" x2="24" y2="6.5" class="grid-line"/>
<line x1="0" y1="7" x2="24" y2="7" class="grid-line"/>
<line x1="0" y1="7.5" x2="24" y2="7.5" class="grid-line"/>
<line x1="0" y1="8" x2="24" y2="8" class="grid-line"/>
<line x1="0" y1="8.5" x2="24" y2="8.5" class="grid-line"/>
<line x1="0" y1="9" x2="24" y2="9" class="grid-line"/>
<line x1="0" y1="9.5" x2="24" y2="9.5" class="grid-line"/>
<line x1="0" y1="10" x2="24" y2="10" class="grid-line"/>
<line x1="0" y1="10.5" x2="24" y2="10.5" class="grid-line"/>
<line x1="0" y1="11" x2="24" y2="11" class="grid-line"/>
<line x1="0" y1="11.5" x2="24" y2="11.5" class="grid-line"/>
<line x1="0" y1="12" x2="24" y2="12" class="grid-line"/>
<line x1="0" y1="12.5" x2="24" y2="12.5" class="grid-line"/>
<line x1="0" y1="13" x2="24" y2="13" class="grid-line"/>
<line x1="0" y1="13.5" x2="24" y2="13.5" class="grid-line"/>
<line x1="0" y1="14" x2="24" y2="14" class="grid-line"/>
<line x1="0" y1="14.5" x2="24" y2="14.5" class="grid-line"/>
<line x1="0" y1="15" x2="24" y2="15" class="grid-line"/>
<line x1="0" y1="15.5" x2="24" y2="15.5" class="grid-line"/>
<line x1="0" y1="16" x2="24" y2="16" class="grid-line"/>
<line x1="0" y1="16.5" x2="24" y2="16.5" class="grid-line"/>
<line x1="0" y1="17" x2="24" y2="17" class="grid-line"/>
<line x1="0" y1="17.5" x2="24" y2="17.5" class="grid-line"/>
<line x1="0" y1="18" x2="24" y2="18" class="grid-line"/>
<line x1="0" y1="18.5" x2="24" y2="18.5" class="grid-line"/>
<line x1="0" y1="19" x2="24" y2="19" class="grid-line"/>
<line x1="0" y1="19.5" x2="24" y2="19.5" class="grid-line"/>
<line x1="0" y1="20" x2="24" y2="20" class="grid-line"/>
<line x1="0" y1="20.5" x2="24" y2="20.5" class="grid-line"/>
<line x1="0" y1="21" x2="24" y2="21" class="grid-line"/>
<line x1="0" y1="21.5" x2="24" y2="21.5" class="grid-line"/>
<line x1="0" y1="22" x2="24" y2="22" class="grid-line"/>
<line x1="0" y1="22.5" x2="24" y2="22.5" class="grid-line"/>
<line x1="0" y1="23" x2="24" y2="23" class="grid-line"/>
<line x1="0" y1="23.5" x2="24" y2="23.5" class="grid-line"/>
<line x1="0" y1="24" x2="24" y2="24" class="grid-line"/>
</g>
<g id="layer-delaunay" class="layer ">
<line x1="9.709636221809507" y1="16.901456688854317" x2="9.518294505626962" y2="16.86339645510996" class="delaunay-line"/>
<line x1="9.518294505626962" y1="16.86339645510996" x2="9.871847896220235" y2="17.009843064516687" class="delaunay-line"/>
<line x1="9.871847896220235" y1="17.009843064516687" x2="9.709636221809507" y2="16.901456688854317" class="delaunay-line"/>
<line x1="9.518294505626962" y1="16.86339645510996" x2="9.164741115033689" y2="17.009843064516687" class="delaunay-line"/>
<line x1="9.164741115033689" y1="17.009843064516687" x2="9.871847896220235" y2="17.009843064516687" class="delaunay-line"/>
<line x1="9.871847896220235" y1="17.009843064516687" x2="9.518294505626962" y2="16.86339645510996" class="delaunay-line"/>
<line x1="9.326952789444416" y1="16.901456688854317" x2="9.164741115033689" y2="17.009843064516687" class="delaunay-line"/>
<line x1="9.164741115033689" y1="17.009843064516687" x2="9.518294505626962" y2="16.86339645510996" class="delaunay-line"/>
<line x1="9.518294505626962" y1="16.86339645510996" x2="9.326952789444416" y2="16.901456688854317" class="delaunay-line"/>
<line x1="10.018294505626962" y1="17.36339645510996" x2="9.980234271882605" y2="17.172054738927415" class="delaunay-line"/>
<line x1="9.980234271882605" y1="17.172054738927415" x2="9.871847896220235" y2="17.009843064516687" class="delaunay-line"/>
<line x1="9.871847896220235" y1="17.009843064516687" x2="10.018294505626962" y2="17.36339645510996" class="delaunay-line"/>
<line x1="9.980234271882605" y1="17.554738171292506" x2="10.018294505626962" y2="17.36339645510996" class="delaunay-line"/>
<line x1="10.018294505626962" y1="17.36339645510996" x2="9.871847896220235" y2="17.716949845703233" class="delaunay-line"/>
<line x1="9.871847896220235" y1="17.716949845703233" x2="9.980234271882605" y2="17.554738171292506" class="delaunay-line"/>
<line x1="9.871847896220235" y1="17.716949845703233" x2="10.018294505626962" y2="17.36339645510996" class="delaunay-line"/>
<line x1="10.018294505626962" y1="17.36339645510996" x2="9.871847896220235" y2="17.009843064516687" class="delaunay-line"/>
<line x1="9.871847896220235" y1="17.009843064516687" x2="9.871847896220235" y2="17.716949845703233" class="delaunay-line"/>
<line x1="9.871847896220235" y1="17.716949845703233" x2="9.871847896220235" y2="17.009843064516687" class="delaunay-line"/>
<line x1="9.871847896220235" y1="17.009843064516687" x2="9.164741115033689" y2="17.716949845703233" class="delaunay-line"/>
<line x1="9.164741115033689" y1="17.716949845703233" x2="9.871847896220235" y2="17.716949845703233" class="delaunay-line"/>
<line x1="9.056354739371319" y1="17.172054738927415" x2="9.018294505626962" y2="17.36339645510996" class="delaunay-line"/>
<line x1="9.018294505626962" y1="17.36339645510996" x2="9.164741115033689" y2="17.009843064516687" class="delaunay-line"/>
<line x1="9.164741115033689" y1="17.009843064516687" x2="9.056354739371319" y2="17.172054738927415" class="delaunay-line"/>
<line x1="9.164741115033689" y1="17.716949845703233" x2="9.871847896220235" y2="17.009843064516687" class="delaunay-line"/>
<line x1="9.871847896220235" y1="17.009843064516687" x2="9.164741115033689" y2="17.009843064516687" class="delaunay-line"/>
<line x1="9.164741115033689" y1="17.009843064516687" x2="9.164741115033689" y2="17.716949845703233" class="delaunay-line"/>
<line x1="9.018294505626962" y1="17.36339645510996" x2="9.164741115033689" y2="17.716949845703233" class="delaunay-line"/>
<line x1="9.164741115033689" y1="17.716949845703233" x2="9.164741115033689" y2="17.009843064516687" class="delaunay-line"/>
<line x1="9.164741115033689" y1="17.009843064516687" x2="9.018294505626962" y2="17.36339645510996" class="delaunay-line"/>
<line x1="9.056354739371319" y1="17.554738171292506" x2="9.164741115033689" y2="17.716949845703233" class="delaunay-line"/>
<line x1="9.164741115033689" y1="17.716949845703233" x2="9.018294505626962" y2="17.36339645510996" class="delaunay-line"/>
<line x1="9.018294505626962" y1="17.36339645510996" x2="9.056354739371319" y2="17.554738171292506" class="delaunay-line"/>
<line x1="9.518294505626962" y1="17.86339645510996" x2="9.709636221809507" y2="17.825336221365603" class="delaunay-line"/>
<line x1="9.709636221809507" y1="17.825336221365603" x2="9.871847896220235" y2="17.716949845703233" class="delaunay-line"/>
<line x1="9.871847896220235" y1="17.716949845703233" x2="9.518294505626962" y2="17.86339645510996" class="delaunay-line"/>
<line x1="9.164741115033689" y1="17.716949845703233" x2="9.518294505626962" y2="17.86339645510996" class="delaunay-line"/>
<line x1="9.518294505626962" y1="17.86339645510996" x2="9.871847896220235" y2="17.716949845703233" class="delaunay-line"/>
<line x1="9.871847896220235" y1="17.716949845703233" x2="9.164741115033689" y2="17.716949845703233" class="delaunay-line"/>
<line x1="9.164741115033689" y1="17.716949845703233" x2="9.326952789444416" y2="17.825336221365603" class="delaunay-line"/>
<line x1="9.326952789444416" y1="17.825336221365603" x2="9.518294505626962" y2="17.86339645510996" class="delaunay-line"/>
<line x1="9.518294505626962" y1="17.86339645510996" x2="9.164741115033689" y2="17.716949845703233" class="delaunay-line"/>
<line x1="9.164741115033689" y1="17.009843064516687" x2="5.889128406671391" y2="16.03017652908856" class="delaunay-line"/>
<line x1="5.889128406671391" y1="16.03017652908856" x2="9.056354739371319" y2="17.172054738927415" class="delaunay-line"/>
<line x1="9.056354739371319" y1="17.172054738927415" x2="9.164741115033689" y2="17.009843064516687" class="delaunay-line"/>
<line x1="9.056354739371319" y1="17.172054738927415" x2="5.826418677876705" y2="16.214913432978538" class="delaunay-line"/>
<line x1="5.826418677876705" y1="16.214913432978538" x2="9.018294505626962" y2="17.36339645510996" class="delaunay-line"/>
<line x1="9.018294505626962" y1="17.36339645510996" x2="9.056354739371319" y2="17.172054738927415" class="delaunay-line"/>
<line x1="9.018294505626962" y1="17.36339645510996" x2="5.6977866904888455" y2="16.361590103124154" class="delaunay-line"/>
<line x1="5.6977866904888455" y1="16.361590103124154" x2="9.056354739371319" y2="17.554738171292506" class="delaunay-line"/>
<line x1="9.056354739371319" y1="17.554738171292506" x2="9.018294505626962" y2="17.36339645510996" class="delaunay-line"/>
<line x1="9.056354739371319" y1="17.554738171292506" x2="5.5228154985357465" y2="16.447876346123074" class="delaunay-line"/>
<line x1="5.5228154985357465" y1="16.447876346123074" x2="9.164741115033689" y2="17.716949845703233" class="delaunay-line"/>
<line x1="9.164741115033689" y1="17.716949845703233" x2="9.056354739371319" y2="17.554738171292506" class="delaunay-line"/>
<line x1="9.164741115033689" y1="17.716949845703233" x2="0" y2="24" class="delaunay-line"/>
<line x1="0" y1="24" x2="9.326952789444416" y2="17.825336221365603" class="delaunay-line"/>
<line x1="9.326952789444416" y1="17.825336221365603" x2="9.164741115033689" y2="17.716949845703233" class="delaunay-line"/>
<line x1="5.87636888912902" y1="15.83550391042728" x2="5.889128406671391" y2="16.03017652908856" class="delaunay-line"/>
<line x1="5.889128406671391" y1="16.03017652908856" x2="9.164741115033689" y2="17.009843064516687" class="delaunay-line"/>
<line x1="9.164741115033689" y1="17.009843064516687" x2="5.87636888912902" y2="15.83550391042728" class="delaunay-line"/>
<line x1="5.87636888912902" y1="15.83550391042728" x2="9.164741115033689" y2="17.009843064516687" class="delaunay-line"/>
<line x1="9.164741115033689" y1="17.009843064516687" x2="9.326952789444416" y2="16.901456688854317" class="delaunay-line"/>
<line x1="9.326952789444416" y1="16.901456688854317" x2="5.87636888912902" y2="15.83550391042728" class="delaunay-line"/>
<line x1="5.87636888912902" y1="15.83550391042728" x2="9.326952789444416" y2="16.901456688854317" class="delaunay-line"/>
<line x1="9.326952789444416" y1="16.901456688854317" x2="5.790082646130103" y2="15.660532718474176" class="delaunay-line"/>
<line x1="5.790082646130103" y1="15.660532718474176" x2="5.87636888912902" y2="15.83550391042728" class="delaunay-line"/>
<line x1="5.889128406671391" y1="16.03017652908856" x2="5.826418677876705" y2="16.214913432978538" class="delaunay-line"/>
<line x1="5.826418677876705" y1="16.214913432978538" x2="9.056354739371319" y2="17.172054738927415" class="delaunay-line"/>
<line x1="9.056354739371319" y1="17.172054738927415" x2="5.889128406671391" y2="16.03017652908856" class="delaunay-line"/>
<line x1="5.790082646130103" y1="15.660532718474176" x2="9.326952789444416" y2="16.901456688854317" class="delaunay-line"/>
<line x1="9.326952789444416" y1="16.901456688854317" x2="9.518294505626962" y2="16.86339645510996" class="delaunay-line"/>
<line x1="9.518294505626962" y1="16.86339645510996" x2="5.790082646130103" y2="15.660532718474176" class="delaunay-line"/>
<line x1="5.889128406671391" y1="16.03017652908856" x2="5.6977866904888455" y2="16.361590103124154" class="delaunay-line"/>
<line x1="5.6977866904888455" y1="16.361590103124154" x2="5.826418677876705" y2="16.214913432978538" class="delaunay-line"/>
<line x1="5.826418677876705" y1="16.214913432978538" x2="5.889128406671391" y2="16.03017652908856" class="delaunay-line"/>
<line x1="5.87636888912902" y1="15.83550391042728" x2="5.6977866904888455" y2="16.361590103124154" class="delaunay-line"/>
<line x1="5.6977866904888455" y1="16.361590103124154" x2="5.889128406671391" y2="16.03017652908856" class="delaunay-line"/>
<line x1="5.889128406671391" y1="16.03017652908856" x2="5.87636888912902" y2="15.83550391042728" class="delaunay-line"/>
<line x1="5.826418677876705" y1="16.214913432978538" x2="5.6977866904888455" y2="16.361590103124154" class="delaunay-line"/>
<line x1="5.6977866904888455" y1="16.361590103124154" x2="9.018294505626962" y2="17.36339645510996" class="delaunay-line"/>
<line x1="9.018294505626962" y1="17.36339645510996" x2="5.826418677876705" y2="16.214913432978538" class="delaunay-line"/>
<line x1="5.643405975984486" y1="15.531900731086319" x2="5.790082646130103" y2="15.660532718474176" class="delaunay-line"/>
<line x1="5.790082646130103" y1="15.660532718474176" x2="9.518294505626962" y2="16.86339645510996" class="delaunay-line"/>
<line x1="9.518294505626962" y1="16.86339645510996" x2="5.643405975984486" y2="15.531900731086319" class="delaunay-line"/>
<line x1="5.87636888912902" y1="15.83550391042728" x2="5.32814287987446" y2="16.46063586366544" class="delaunay-line"/>
<line x1="5.32814287987446" y1="16.46063586366544" x2="5.6977866904888455" y2="16.361590103124154" class="delaunay-line"/>
<line x1="5.6977866904888455" y1="16.361590103124154" x2="5.87636888912902" y2="15.83550391042728" class="delaunay-line"/>
<line x1="5.32814287987446" y1="16.46063586366544" x2="5.5228154985357465" y2="16.447876346123074" class="delaunay-line"/>
<line x1="5.5228154985357465" y1="16.447876346123074" x2="5.6977866904888455" y2="16.361590103124154" class="delaunay-line"/>
<line x1="5.6977866904888455" y1="16.361590103124154" x2="5.32814287987446" y2="16.46063586366544" class="delaunay-line"/>
<line x1="5.6977866904888455" y1="16.361590103124154" x2="5.5228154985357465" y2="16.447876346123074" class="delaunay-line"/>
<line x1="5.5228154985357465" y1="16.447876346123074" x2="9.056354739371319" y2="17.554738171292506" class="delaunay-line"/>
<line x1="9.056354739371319" y1="17.554738171292506" x2="5.6977866904888455" y2="16.361590103124154" class="delaunay-line"/>
<line x1="17.066845400249907" y1="6.166736190392859" x2="5.643405975984486" y2="15.531900731086319" class="delaunay-line"/>
<line x1="5.643405975984486" y1="15.531900731086319" x2="9.518294505626962" y2="16.86339645510996" class="delaunay-line"/>
<line x1="9.518294505626962" y1="16.86339645510996" x2="17.066845400249907" y2="6.166736190392859" class="delaunay-line"/>
<line x1="5.790082646130103" y1="15.660532718474176" x2="5.643405975984486" y2="15.531900731086319" class="delaunay-line"/>
<line x1="5.643405975984486" y1="15.531900731086319" x2="5.87636888912902" y2="15.83550391042728" class="delaunay-line"/>
<line x1="5.87636888912902" y1="15.83550391042728" x2="5.790082646130103" y2="15.660532718474176" class="delaunay-line"/>
<line x1="5.263996453433225" y1="15.481950519834005" x2="5.32814287987446" y2="16.46063586366544" class="delaunay-line"/>
<line x1="5.32814287987446" y1="16.46063586366544" x2="5.87636888912902" y2="15.83550391042728" class="delaunay-line"/>
<line x1="5.87636888912902" y1="15.83550391042728" x2="5.263996453433225" y2="15.481950519834005" class="delaunay-line"/>
<line x1="5.5228154985357465" y1="16.447876346123074" x2="5.32814287987446" y2="16.46063586366544" class="delaunay-line"/>
<line x1="5.32814287987446" y1="16.46063586366544" x2="9.164741115033689" y2="17.716949845703233" class="delaunay-line"/>
<line x1="9.164741115033689" y1="17.716949845703233" x2="5.5228154985357465" y2="16.447876346123074" class="delaunay-line"/>
<line x1="5.263996453433225" y1="15.481950519834005" x2="1.1304780193784318" y2="12.594503469012327" class="delaunay-line"/>
<line x1="1.1304780193784318" y1="12.594503469012327" x2="1.1432375369208037" y2="12.789176087673612" class="delaunay-line"/>
<line x1="1.1432375369208037" y1="12.789176087673612" x2="5.263996453433225" y2="15.481950519834005" class="delaunay-line"/>
<line x1="5.643405975984486" y1="15.531900731086319" x2="5.263996453433225" y2="15.481950519834005" class="delaunay-line"/>
<line x1="5.263996453433225" y1="15.481950519834005" x2="5.87636888912902" y2="15.83550391042728" class="delaunay-line"/>
<line x1="5.87636888912902" y1="15.83550391042728" x2="5.643405975984486" y2="15.531900731086319" class="delaunay-line"/>
<line x1="4.996729305838868" y1="16.269294147482896" x2="5.143405975984486" y2="16.397926134870758" class="delaunay-line"/>
<line x1="5.143405975984486" y1="16.397926134870758" x2="5.32814287987446" y2="16.46063586366544" class="delaunay-line"/>
<line x1="5.32814287987446" y1="16.46063586366544" x2="4.996729305838868" y2="16.269294147482896" class="delaunay-line"/>
<line x1="5.32814287987446" y1="16.46063586366544" x2="0" y2="24" class="delaunay-line"/>
<line x1="0" y1="24" x2="9.164741115033689" y2="17.716949845703233" class="delaunay-line"/>
<line x1="9.164741115033689" y1="17.716949845703233" x2="5.32814287987446" y2="16.46063586366544" class="delaunay-line"/>
<line x1="5.458669072094511" y1="15.469191002291632" x2="5.263996453433225" y2="15.481950519834005" class="delaunay-line"/>
<line x1="5.263996453433225" y1="15.481950519834005" x2="5.643405975984486" y2="15.531900731086319" class="delaunay-line"/>
<line x1="5.643405975984486" y1="15.531900731086319" x2="5.458669072094511" y2="15.469191002291632" class="delaunay-line"/>
<line x1="5.263996453433225" y1="15.481950519834005" x2="4.996729305838868" y2="16.269294147482896" class="delaunay-line"/>
<line x1="4.996729305838868" y1="16.269294147482896" x2="5.32814287987446" y2="16.46063586366544" class="delaunay-line"/>
<line x1="5.32814287987446" y1="16.46063586366544" x2="5.263996453433225" y2="15.481950519834005" class="delaunay-line"/>
<line x1="4.89768354529758" y1="15.899650336868513" x2="4.910443062839952" y2="16.094322955529798" class="delaunay-line"/>
<line x1="4.910443062839952" y1="16.094322955529798" x2="4.996729305838868" y2="16.269294147482896" class="delaunay-line"/>
<line x1="4.996729305838868" y1="16.269294147482896" x2="4.89768354529758" y2="15.899650336868513" class="delaunay-line"/>
<line x1="4.89768354529758" y1="15.899650336868513" x2="4.996729305838868" y2="16.269294147482896" class="delaunay-line"/>
<line x1="4.996729305838868" y1="16.269294147482896" x2="5.263996453433225" y2="15.481950519834005" class="delaunay-line"/>
<line x1="5.263996453433225" y1="15.481950519834005" x2="4.89768354529758" y2="15.899650336868513" class="delaunay-line"/>
<line x1="5.089025261480126" y1="15.56823676283292" x2="4.960393274092266" y2="15.714913432978538" class="delaunay-line"/>
<line x1="4.960393274092266" y1="15.714913432978538" x2="5.263996453433225" y2="15.481950519834005" class="delaunay-line"/>
<line x1="5.263996453433225" y1="15.481950519834005" x2="5.089025261480126" y2="15.56823676283292" class="delaunay-line"/>
<line x1="4.960393274092266" y1="15.714913432978538" x2="4.89768354529758" y2="15.899650336868513" class="delaunay-line"/>
<line x1="4.89768354529758" y1="15.899650336868513" x2="5.263996453433225" y2="15.481950519834005" class="delaunay-line"/>
<line x1="5.263996453433225" y1="15.481950519834005" x2="4.960393274092266" y2="15.714913432978538" class="delaunay-line"/>
<line x1="10.018294505626962" y1="17.36339645510996" x2="17.145677231064024" y2="15.521879553734665" class="delaunay-line"/>
<line x1="17.145677231064024" y1="15.521879553734665" x2="9.980234271882605" y2="17.172054738927415" class="delaunay-line"/>
<line x1="9.980234271882605" y1="17.172054738927415" x2="10.018294505626962" y2="17.36339645510996" class="delaunay-line"/>
<line x1="9.980234271882605" y1="17.172054738927415" x2="17.107616997319667" y2="15.330537837552122" class="delaunay-line"/>
<line x1="17.107616997319667" y1="15.330537837552122" x2="9.871847896220235" y2="17.009843064516687" class="delaunay-line"/>
<line x1="9.871847896220235" y1="17.009843064516687" x2="9.980234271882605" y2="17.172054738927415" class="delaunay-line"/>
<line x1="9.871847896220235" y1="17.009843064516687" x2="17.145677231064024" y2="15.139196121369578" class="delaunay-line"/>
<line x1="17.145677231064024" y1="15.139196121369578" x2="9.709636221809507" y2="16.901456688854317" class="delaunay-line"/>
<line x1="9.709636221809507" y1="16.901456688854317" x2="9.871847896220235" y2="17.009843064516687" class="delaunay-line"/>
<line x1="9.709636221809507" y1="16.901456688854317" x2="17.153131643248823" y2="6.34170738234596" class="delaunay-line"/>
<line x1="17.153131643248823" y1="6.34170738234596" x2="9.518294505626962" y2="16.86339645510996" class="delaunay-line"/>
<line x1="9.518294505626962" y1="16.86339645510996" x2="9.709636221809507" y2="16.901456688854317" class="delaunay-line"/>
<line x1="17.254063606726394" y1="15.684091228145395" x2="17.145677231064024" y2="15.521879553734665" class="delaunay-line"/>
<line x1="17.145677231064024" y1="15.521879553734665" x2="10.018294505626962" y2="17.36339645510996" class="delaunay-line"/>
<line x1="10.018294505626962" y1="17.36339645510996" x2="17.254063606726394" y2="15.684091228145395" class="delaunay-line"/>
<line x1="17.254063606726394" y1="15.684091228145395" x2="10.018294505626962" y2="17.36339645510996" class="delaunay-line"/>
<line x1="10.018294505626962" y1="17.36339645510996" x2="9.980234271882605" y2="17.554738171292506" class="delaunay-line"/>
<line x1="9.980234271882605" y1="17.554738171292506" x2="17.254063606726394" y2="15.684091228145395" class="delaunay-line"/>
<line x1="17.254063606726394" y1="15.684091228145395" x2="9.980234271882605" y2="17.554738171292506" class="delaunay-line"/>
<line x1="9.980234271882605" y1="17.554738171292506" x2="17.41627528113712" y2="15.792477603807766" class="delaunay-line"/>
<line x1="17.41627528113712" y1="15.792477603807766" x2="17.254063606726394" y2="15.684091228145395" class="delaunay-line"/>
<line x1="17.145677231064024" y1="15.521879553734665" x2="17.107616997319667" y2="15.330537837552122" class="delaunay-line"/>
<line x1="17.107616997319667" y1="15.330537837552122" x2="9.980234271882605" y2="17.172054738927415" class="delaunay-line"/>
<line x1="9.980234271882605" y1="17.172054738927415" x2="17.145677231064024" y2="15.521879553734665" class="delaunay-line"/>
<line x1="17.41627528113712" y1="15.792477603807766" x2="9.980234271882605" y2="17.554738171292506" class="delaunay-line"/>
<line x1="9.980234271882605" y1="17.554738171292506" x2="9.871847896220235" y2="17.716949845703233" class="delaunay-line"/>
<line x1="9.871847896220235" y1="17.716949845703233" x2="17.41627528113712" y2="15.792477603807766" class="delaunay-line"/>
<line x1="17.145677231064024" y1="15.521879553734665" x2="17.145677231064024" y2="15.139196121369578" class="delaunay-line"/>
<line x1="17.145677231064024" y1="15.139196121369578" x2="17.107616997319667" y2="15.330537837552122" class="delaunay-line"/>
<line x1="17.107616997319667" y1="15.330537837552122" x2="17.145677231064024" y2="15.521879553734665" class="delaunay-line"/>
<line x1="17.254063606726394" y1="15.684091228145395" x2="17.145677231064024" y2="15.139196121369578" class="delaunay-line"/>
<line x1="17.145677231064024" y1="15.139196121369578" x2="17.145677231064024" y2="15.521879553734665" class="delaunay-line"/>
<line x1="17.145677231064024" y1="15.521879553734665" x2="17.254063606726394" y2="15.684091228145395" class="delaunay-line"/>
<line x1="17.107616997319667" y1="15.330537837552122" x2="17.145677231064024" y2="15.139196121369578" class="delaunay-line"/>
<line x1="17.145677231064024" y1="15.139196121369578" x2="9.871847896220235" y2="17.009843064516687" class="delaunay-line"/>
<line x1="9.871847896220235" y1="17.009843064516687" x2="17.107616997319667" y2="15.330537837552122" class="delaunay-line"/>
<line x1="17.607616997319667" y1="15.830537837552122" x2="17.41627528113712" y2="15.792477603807766" class="delaunay-line"/>
<line x1="17.41627528113712" y1="15.792477603807766" x2="24" y2="24" class="delaunay-line"/>
<line x1="24" y1="24" x2="17.607616997319667" y2="15.830537837552122" class="delaunay-line"/>
<line x1="17.254063606726394" y1="15.684091228145395" x2="17.254063606726394" y2="14.976984446958848" class="delaunay-line"/>
<line x1="17.254063606726394" y1="14.976984446958848" x2="17.145677231064024" y2="15.139196121369578" class="delaunay-line"/>
<line x1="17.145677231064024" y1="15.139196121369578" x2="17.254063606726394" y2="15.684091228145395" class="delaunay-line"/>
<line x1="17.96117038791294" y1="14.976984446958848" x2="17.254063606726394" y2="14.976984446958848" class="delaunay-line"/>
<line x1="17.254063606726394" y1="14.976984446958848" x2="17.254063606726394" y2="15.684091228145395" class="delaunay-line"/>
<line x1="17.254063606726394" y1="15.684091228145395" x2="17.96117038791294" y2="14.976984446958848" class="delaunay-line"/>
<line x1="17.145677231064024" y1="15.139196121369578" x2="17.254063606726394" y2="14.976984446958848" class="delaunay-line"/>
<line x1="17.254063606726394" y1="14.976984446958848" x2="9.709636221809507" y2="16.901456688854317" class="delaunay-line"/>
<line x1="9.709636221809507" y1="16.901456688854317" x2="17.145677231064024" y2="15.139196121369578" class="delaunay-line"/>
<line x1="24" y1="24" x2="17.41627528113712" y2="15.792477603807766" class="delaunay-line"/>
<line x1="17.41627528113712" y1="15.792477603807766" x2="9.871847896220235" y2="17.716949845703233" class="delaunay-line"/>
<line x1="9.871847896220235" y1="17.716949845703233" x2="24" y2="24" class="delaunay-line"/>
<line x1="17.41627528113712" y1="15.792477603807766" x2="17.607616997319667" y2="15.830537837552122" class="delaunay-line"/>
<line x1="17.607616997319667" y1="15.830537837552122" x2="17.254063606726394" y2="15.684091228145395" class="delaunay-line"/>
<line x1="17.254063606726394" y1="15.684091228145395" x2="17.41627528113712" y2="15.792477603807766" class="delaunay-line"/>
<line x1="17.607616997319667" y1="14.830537837552122" x2="17.41627528113712" y2="14.868598071296477" class="delaunay-line"/>
<line x1="17.41627528113712" y1="14.868598071296477" x2="17.254063606726394" y2="14.976984446958848" class="delaunay-line"/>
<line x1="17.254063606726394" y1="14.976984446958848" x2="17.607616997319667" y2="14.830537837552122" class="delaunay-line"/>
<line x1="17.254063606726394" y1="14.976984446958848" x2="17.153131643248823" y2="6.34170738234596" class="delaunay-line"/>
<line x1="17.153131643248823" y1="6.34170738234596" x2="9.709636221809507" y2="16.901456688854317" class="delaunay-line"/>
<line x1="9.709636221809507" y1="16.901456688854317" x2="17.254063606726394" y2="14.976984446958848" class="delaunay-line"/>
<line x1="24" y1="24" x2="17.798958713502213" y2="15.792477603807766" class="delaunay-line"/>
<line x1="17.798958713502213" y1="15.792477603807766" x2="17.607616997319667" y2="15.830537837552122" class="delaunay-line"/>
<line x1="17.607616997319667" y1="15.830537837552122" x2="24" y2="24" class="delaunay-line"/>
<line x1="17.96117038791294" y1="14.976984446958848" x2="17.607616997319667" y2="14.830537837552122" class="delaunay-line"/>
<line x1="17.607616997319667" y1="14.830537837552122" x2="17.254063606726394" y2="14.976984446958848" class="delaunay-line"/>
<line x1="17.254063606726394" y1="14.976984446958848" x2="17.96117038791294" y2="14.976984446958848" class="delaunay-line"/>
<line x1="17.96117038791294" y1="15.684091228145395" x2="17.254063606726394" y2="15.684091228145395" class="delaunay-line"/>
<line x1="17.254063606726394" y1="15.684091228145395" x2="17.607616997319667" y2="15.830537837552122" class="delaunay-line"/>
<line x1="17.607616997319667" y1="15.830537837552122" x2="17.96117038791294" y2="15.684091228145395" class="delaunay-line"/>
<line x1="5.263996453433225" y1="15.481950519834005" x2="5.458669072094511" y2="15.469191002291632" class="delaunay-line"/>
<line x1="5.458669072094511" y1="15.469191002291632" x2="1.1304780193784318" y2="12.594503469012327" class="delaunay-line"/>
<line x1="1.1304780193784318" y1="12.594503469012327" x2="5.263996453433225" y2="15.481950519834005" class="delaunay-line"/>
<line x1="17.798958713502213" y1="15.792477603807766" x2="17.96117038791294" y2="15.684091228145395" class="delaunay-line"/>
<line x1="17.96117038791294" y1="15.684091228145395" x2="17.607616997319667" y2="15.830537837552122" class="delaunay-line"/>
<line x1="17.607616997319667" y1="15.830537837552122" x2="17.798958713502213" y2="15.792477603807766" class="delaunay-line"/>
<line x1="17.96117038791294" y1="14.976984446958848" x2="17.798958713502213" y2="14.868598071296477" class="delaunay-line"/>
<line x1="17.798958713502213" y1="14.868598071296477" x2="17.607616997319667" y2="14.830537837552122" class="delaunay-line"/>
<line x1="17.607616997319667" y1="14.830537837552122" x2="17.96117038791294" y2="14.976984446958848" class="delaunay-line"/>
<line x1="17.96117038791294" y1="15.684091228145395" x2="17.96117038791294" y2="14.976984446958848" class="delaunay-line"/>
<line x1="17.96117038791294" y1="14.976984446958848" x2="17.254063606726394" y2="15.684091228145395" class="delaunay-line"/>
<line x1="17.254063606726394" y1="15.684091228145395" x2="17.96117038791294" y2="15.684091228145395" class="delaunay-line"/>
<line x1="18.06955676357531" y1="15.521879553734665" x2="17.96117038791294" y2="14.976984446958848" class="delaunay-line"/>
<line x1="17.96117038791294" y1="14.976984446958848" x2="17.96117038791294" y2="15.684091228145395" class="delaunay-line"/>
<line x1="17.96117038791294" y1="15.684091228145395" x2="18.06955676357531" y2="15.521879553734665" class="delaunay-line"/>
<line x1="18.06955676357531" y1="15.521879553734665" x2="18.06955676357531" y2="15.139196121369578" class="delaunay-line"/>
<line x1="18.06955676357531" y1="15.139196121369578" x2="17.96117038791294" y2="14.976984446958848" class="delaunay-line"/>
<line x1="17.96117038791294" y1="14.976984446958848" x2="18.06955676357531" y2="15.521879553734665" class="delaunay-line"/>
<line x1="18.107616997319667" y1="15.330537837552122" x2="18.06955676357531" y2="15.139196121369578" class="delaunay-line"/>
<line x1="18.06955676357531" y1="15.139196121369578" x2="18.06955676357531" y2="15.521879553734665" class="delaunay-line"/>
<line x1="18.06955676357531" y1="15.521879553734665" x2="18.107616997319667" y2="15.330537837552122" class="delaunay-line"/>
<line x1="5.089025261480126" y1="15.56823676283292" x2="1.0805278081261174" y2="12.973912991563587" class="delaunay-line"/>
<line x1="1.0805278081261174" y1="12.973912991563587" x2="4.960393274092266" y2="15.714913432978538" class="delaunay-line"/>
<line x1="4.960393274092266" y1="15.714913432978538" x2="5.089025261480126" y2="15.56823676283292" class="delaunay-line"/>
<line x1="4.960393274092266" y1="15.714913432978538" x2="0.951895820738258" y2="13.120589661709205" class="delaunay-line"/>
<line x1="0.951895820738258" y1="13.120589661709205" x2="4.89768354529758" y2="15.899650336868513" class="delaunay-line"/>
<line x1="4.89768354529758" y1="15.899650336868513" x2="4.960393274092266" y2="15.714913432978538" class="delaunay-line"/>
<line x1="4.89768354529758" y1="15.899650336868513" x2="0.7769246287851588" y2="13.20687590470812" class="delaunay-line"/>
<line x1="0.7769246287851588" y1="13.20687590470812" x2="4.910443062839952" y2="16.094322955529798" class="delaunay-line"/>
<line x1="4.910443062839952" y1="16.094322955529798" x2="4.89768354529758" y2="15.899650336868513" class="delaunay-line"/>
<line x1="4.910443062839952" y1="16.094322955529798" x2="0.5822520101238726" y2="13.219635422250493" class="delaunay-line"/>
<line x1="0.5822520101238726" y1="13.219635422250493" x2="4.996729305838868" y2="16.269294147482896" class="delaunay-line"/>
<line x1="4.996729305838868" y1="16.269294147482896" x2="4.910443062839952" y2="16.094322955529798" class="delaunay-line"/>
<line x1="4.996729305838868" y1="16.269294147482896" x2="0" y2="24" class="delaunay-line"/>
<line x1="0" y1="24" x2="5.143405975984486" y2="16.397926134870758" class="delaunay-line"/>
<line x1="5.143405975984486" y1="16.397926134870758" x2="4.996729305838868" y2="16.269294147482896" class="delaunay-line"/>
<line x1="1.1432375369208037" y1="12.789176087673612" x2="1.0805278081261174" y2="12.973912991563587" class="delaunay-line"/>
<line x1="1.0805278081261174" y1="12.973912991563587" x2="5.089025261480126" y2="15.56823676283292" class="delaunay-line"/>
<line x1="5.089025261480126" y1="15.56823676283292" x2="1.1432375369208037" y2="12.789176087673612" class="delaunay-line"/>
<line x1="1.1432375369208037" y1="12.789176087673612" x2="5.089025261480126" y2="15.56823676283292" class="delaunay-line"/>
<line x1="5.089025261480126" y1="15.56823676283292" x2="5.263996453433225" y2="15.481950519834005" class="delaunay-line"/>
<line x1="5.263996453433225" y1="15.481950519834005" x2="1.1432375369208037" y2="12.789176087673612" class="delaunay-line"/>
<line x1="5.458669072094511" y1="15.469191002291632" x2="1.0441917763795154" y2="12.419532277059227" class="delaunay-line"/>
<line x1="1.0441917763795154" y1="12.419532277059227" x2="1.1304780193784318" y2="12.594503469012327" class="delaunay-line"/>
<line x1="1.1304780193784318" y1="12.594503469012327" x2="5.458669072094511" y2="15.469191002291632" class="delaunay-line"/>
<line x1="5.458669072094511" y1="15.469191002291632" x2="17.066845400249907" y2="6.166736190392859" class="delaunay-line"/>
<line x1="17.066845400249907" y1="6.166736190392859" x2="1.0441917763795154" y2="12.419532277059227" class="delaunay-line"/>
<line x1="1.0441917763795154" y1="12.419532277059227" x2="5.458669072094511" y2="15.469191002291632" class="delaunay-line"/>
<line x1="0.7769246287851588" y1="13.20687590470812" x2="0.951895820738258" y2="13.120589661709205" class="delaunay-line"/>
<line x1="0.951895820738258" y1="13.120589661709205" x2="1.0805278081261174" y2="12.973912991563587" class="delaunay-line"/>
<line x1="1.0805278081261174" y1="12.973912991563587" x2="0.7769246287851588" y2="13.20687590470812" class="delaunay-line"/>
<line x1="1.0805278081261174" y1="12.973912991563587" x2="0.951895820738258" y2="13.120589661709205" class="delaunay-line"/>
<line x1="0.951895820738258" y1="13.120589661709205" x2="4.960393274092266" y2="15.714913432978538" class="delaunay-line"/>
<line x1="4.960393274092266" y1="15.714913432978538" x2="1.0805278081261174" y2="12.973912991563587" class="delaunay-line"/>
<line x1="5.458669072094511" y1="15.469191002291632" x2="5.643405975984486" y2="15.531900731086319" class="delaunay-line"/>
<line x1="5.643405975984486" y1="15.531900731086319" x2="17.066845400249907" y2="6.166736190392859" class="delaunay-line"/>
<line x1="17.066845400249907" y1="6.166736190392859" x2="5.458669072094511" y2="15.469191002291632" class="delaunay-line"/>
<line x1="1.1432375369208037" y1="12.789176087673612" x2="1.1304780193784318" y2="12.594503469012327" class="delaunay-line"/>
<line x1="1.1304780193784318" y1="12.594503469012327" x2="1.0805278081261174" y2="12.973912991563587" class="delaunay-line"/>
<line x1="1.0805278081261174" y1="12.973912991563587" x2="1.1432375369208037" y2="12.789176087673612" class="delaunay-line"/>
<line x1="1.1304780193784318" y1="12.594503469012327" x2="0.7769246287851588" y2="13.20687590470812" class="delaunay-line"/>
<line x1="0.7769246287851588" y1="13.20687590470812" x2="1.0805278081261174" y2="12.973912991563587" class="delaunay-line"/>
<line x1="1.0805278081261174" y1="12.973912991563587" x2="1.1304780193784318" y2="12.594503469012327" class="delaunay-line"/>
<line x1="0.951895820738258" y1="13.120589661709205" x2="0.7769246287851588" y2="13.20687590470812" class="delaunay-line"/>
<line x1="0.7769246287851588" y1="13.20687590470812" x2="4.89768354529758" y2="15.899650336868513" class="delaunay-line"/>
<line x1="4.89768354529758" y1="15.899650336868513" x2="0.951895820738258" y2="13.120589661709205" class="delaunay-line"/>
<line x1="0.8975151062338982" y1="12.290900289671368" x2="1.0441917763795154" y2="12.419532277059227" class="delaunay-line"/>
<line x1="1.0441917763795154" y1="12.419532277059227" x2="0" y2="0" class="delaunay-line"/>
<line x1="0" y1="0" x2="0.8975151062338982" y2="12.290900289671368" class="delaunay-line"/>
<line x1="1.1304780193784318" y1="12.594503469012327" x2="0.5181055836826374" y2="12.240950078419054" class="delaunay-line"/>
<line x1="0.5181055836826374" y1="12.240950078419054" x2="0.7769246287851588" y2="13.20687590470812" class="delaunay-line"/>
<line x1="0.7769246287851588" y1="13.20687590470812" x2="1.1304780193784318" y2="12.594503469012327" class="delaunay-line"/>
<line x1="0.39751510623389813" y1="13.156925693455806" x2="0.5822520101238726" y2="13.219635422250493" class="delaunay-line"/>
<line x1="0.5822520101238726" y1="13.219635422250493" x2="0.7769246287851588" y2="13.20687590470812" class="delaunay-line"/>
<line x1="0.7769246287851588" y1="13.20687590470812" x2="0.39751510623389813" y2="13.156925693455806" class="delaunay-line"/>
<line x1="0.7769246287851588" y1="13.20687590470812" x2="0.5822520101238726" y2="13.219635422250493" class="delaunay-line"/>
<line x1="0.5822520101238726" y1="13.219635422250493" x2="4.910443062839952" y2="16.094322955529798" class="delaunay-line"/>
<line x1="4.910443062839952" y1="16.094322955529798" x2="0.7769246287851588" y2="13.20687590470812" class="delaunay-line"/>
<line x1="17.29980831339444" y1="6.470339369733819" x2="17.254063606726394" y2="14.976984446958848" class="delaunay-line"/>
<line x1="17.254063606726394" y1="14.976984446958848" x2="17.41627528113712" y2="14.868598071296477" class="delaunay-line"/>
<line x1="17.41627528113712" y1="14.868598071296477" x2="17.29980831339444" y2="6.470339369733819" class="delaunay-line"/>
<line x1="1.0441917763795154" y1="12.419532277059227" x2="0.5181055836826374" y2="12.240950078419054" class="delaunay-line"/>
<line x1="0.5181055836826374" y1="12.240950078419054" x2="1.1304780193784318" y2="12.594503469012327" class="delaunay-line"/>
<line x1="1.1304780193784318" y1="12.594503469012327" x2="1.0441917763795154" y2="12.419532277059227" class="delaunay-line"/>
<line x1="0.2508384360882805" y1="13.028293706067947" x2="0.39751510623389813" y2="13.156925693455806" class="delaunay-line"/>
<line x1="0.39751510623389813" y1="13.156925693455806" x2="0.1645521930893644" y2="12.853322514114847" class="delaunay-line"/>
<line x1="0.1645521930893644" y1="12.853322514114847" x2="0.2508384360882805" y2="13.028293706067947" class="delaunay-line"/>
<line x1="0.5822520101238726" y1="13.219635422250493" x2="0" y2="24" class="delaunay-line"/>
<line x1="0" y1="24" x2="4.996729305838868" y2="16.269294147482896" class="delaunay-line"/>
<line x1="4.996729305838868" y1="16.269294147482896" x2="0.5822520101238726" y2="13.219635422250493" class="delaunay-line"/>
<line x1="0" y1="0" x2="0.7127782023439238" y2="12.228190560876682" class="delaunay-line"/>
<line x1="0.7127782023439238" y1="12.228190560876682" x2="0.8975151062338982" y2="12.290900289671368" class="delaunay-line"/>
<line x1="0.8975151062338982" y1="12.290900289671368" x2="0" y2="0" class="delaunay-line"/>
<line x1="0.1645521930893644" y1="12.853322514114847" x2="0.39751510623389813" y2="13.156925693455806" class="delaunay-line"/>
<line x1="0.39751510623389813" y1="13.156925693455806" x2="0.7769246287851588" y2="13.20687590470812" class="delaunay-line"/>
<line x1="0.7769246287851588" y1="13.20687590470812" x2="0.1645521930893644" y2="12.853322514114847" class="delaunay-line"/>
<line x1="0.5181055836826374" y1="12.240950078419054" x2="1.0441917763795154" y2="12.419532277059227" class="delaunay-line"/>
<line x1="1.0441917763795154" y1="12.419532277059227" x2="0.8975151062338982" y2="12.290900289671368" class="delaunay-line"/>
<line x1="0.8975151062338982" y1="12.290900289671368" x2="0.5181055836826374" y2="12.240950078419054" class="delaunay-line"/>
<line x1="0.7127782023439238" y1="12.228190560876682" x2="0.5181055836826374" y2="12.240950078419054" class="delaunay-line"/>
<line x1="0.5181055836826374" y1="12.240950078419054" x2="0.8975151062338982" y2="12.290900289671368" class="delaunay-line"/>
<line x1="0.8975151062338982" y1="12.290900289671368" x2="0.7127782023439238" y2="12.228190560876682" class="delaunay-line"/>
<line x1="0.5181055836826374" y1="12.240950078419054" x2="0.1645521930893644" y2="12.853322514114847" class="delaunay-line"/>
<line x1="0.1645521930893644" y1="12.853322514114847" x2="0.7769246287851588" y2="13.20687590470812" class="delaunay-line"/>
<line x1="0.7769246287851588" y1="13.20687590470812" x2="0.5181055836826374" y2="12.240950078419054" class="delaunay-line"/>
<line x1="0.2145024043416789" y1="12.473912991563587" x2="0.15179267554699247" y2="12.658649895453562" class="delaunay-line"/>
<line x1="0.15179267554699247" y1="12.658649895453562" x2="0.1645521930893644" y2="12.853322514114847" class="delaunay-line"/>
<line x1="0.1645521930893644" y1="12.853322514114847" x2="0.2145024043416789" y2="12.473912991563587" class="delaunay-line"/>
<line x1="0.2145024043416789" y1="12.473912991563587" x2="0.1645521930893644" y2="12.853322514114847" class="delaunay-line"/>
<line x1="0.1645521930893644" y1="12.853322514114847" x2="0.5181055836826374" y2="12.240950078419054" class="delaunay-line"/>
<line x1="0.5181055836826374" y1="12.240950078419054" x2="0.2145024043416789" y2="12.473912991563587" class="delaunay-line"/>
<line x1="0.3431343917295382" y1="12.327236321417969" x2="0.2145024043416789" y2="12.473912991563587" class="delaunay-line"/>
<line x1="0.2145024043416789" y1="12.473912991563587" x2="0.5181055836826374" y2="12.240950078419054" class="delaunay-line"/>
<line x1="0.5181055836826374" y1="12.240950078419054" x2="0.3431343917295382" y2="12.327236321417969" class="delaunay-line"/>
<line x1="0.15179267554699247" y1="12.658649895453562" x2="0" y2="24" class="delaunay-line"/>
<line x1="0" y1="24" x2="0.1645521930893644" y2="12.853322514114847" class="delaunay-line"/>
<line x1="0.1645521930893644" y1="12.853322514114847" x2="0.15179267554699247" y2="12.658649895453562" class="delaunay-line"/>
<line x1="0.1645521930893644" y1="12.853322514114847" x2="0" y2="24" class="delaunay-line"/>
<line x1="0" y1="24" x2="0.2508384360882805" y2="13.028293706067947" class="delaunay-line"/>
<line x1="0.2508384360882805" y1="13.028293706067947" x2="0.1645521930893644" y2="12.853322514114847" class="delaunay-line"/>
<line x1="0.2508384360882805" y1="13.028293706067947" x2="0" y2="24" class="delaunay-line"/>
<line x1="0" y1="24" x2="0.39751510623389813" y2="13.156925693455806" class="delaunay-line"/>
<line x1="0.39751510623389813" y1="13.156925693455806" x2="0.2508384360882805" y2="13.028293706067947" class="delaunay-line"/>
<line x1="0.39751510623389813" y1="13.156925693455806" x2="0" y2="24" class="delaunay-line"/>
<line x1="0" y1="24" x2="0.5822520101238726" y2="13.219635422250493" class="delaunay-line"/>
<line x1="0.5822520101238726" y1="13.219635422250493" x2="0.39751510623389813" y2="13.156925693455806" class="delaunay-line"/>
<line x1="5.143405975984486" y1="16.397926134870758" x2="0" y2="24" class="delaunay-line"/>
<line x1="0" y1="24" x2="5.32814287987446" y2="16.46063586366544" class="delaunay-line"/>
<line x1="5.32814287987446" y1="16.46063586366544" x2="5.143405975984486" y2="16.397926134870758" class="delaunay-line"/>
<line x1="9.326952789444416" y1="17.825336221365603" x2="0" y2="24" class="delaunay-line"/>
<line x1="0" y1="24" x2="9.518294505626962" y2="17.86339645510996" class="delaunay-line"/>
<line x1="9.518294505626962" y1="17.86339645510996" x2="9.326952789444416" y2="17.825336221365603" class="delaunay-line"/>
<line x1="9.518294505626962" y1="17.86339645510996" x2="24" y2="24" class="delaunay-line"/>
<line x1="24" y1="24" x2="9.709636221809507" y2="17.825336221365603" class="delaunay-line"/>
<line x1="9.709636221809507" y1="17.825336221365603" x2="9.518294505626962" y2="17.86339645510996" class="delaunay-line"/>
<line x1="9.709636221809507" y1="17.825336221365603" x2="24" y2="24" class="delaunay-line"/>
<line x1="24" y1="24" x2="9.871847896220235" y2="17.716949845703233" class="delaunay-line"/>
<line x1="9.871847896220235" y1="17.716949845703233" x2="9.709636221809507" y2="17.825336221365603" class="delaunay-line"/>
<line x1="17.484545217284417" y1="6.533049098528504" x2="17.41627528113712" y2="14.868598071296477" class="delaunay-line"/>
<line x1="17.41627528113712" y1="14.868598071296477" x2="17.607616997319667" y2="14.830537837552122" class="delaunay-line"/>
<line x1="17.607616997319667" y1="14.830537837552122" x2="17.484545217284417" y2="6.533049098528504" class="delaunay-line"/>
<line x1="17.484545217284417" y1="6.533049098528504" x2="17.29980831339444" y2="6.470339369733819" class="delaunay-line"/>
<line x1="17.29980831339444" y1="6.470339369733819" x2="17.41627528113712" y2="14.868598071296477" class="delaunay-line"/>
<line x1="17.41627528113712" y1="14.868598071296477" x2="17.484545217284417" y2="6.533049098528504" class="delaunay-line"/>
<line x1="0.7127782023439238" y1="12.228190560876682" x2="0" y2="0" class="delaunay-line"/>
<line x1="0" y1="0" x2="0.5181055836826374" y2="12.240950078419054" class="delaunay-line"/>
<line x1="0.5181055836826374" y1="12.240950078419054" x2="0.7127782023439238" y2="12.228190560876682" class="delaunay-line"/>
<line x1="17.484545217284417" y1="6.533049098528504" x2="17.607616997319667" y2="14.830537837552122" class="delaunay-line"/>
<line x1="17.607616997319667" y1="14.830537837552122" x2="17.679217835945703" y2="6.520289580986132" class="delaunay-line"/>
<line x1="17.679217835945703" y1="6.520289580986132" x2="17.484545217284417" y2="6.533049098528504" class="delaunay-line"/>
<line x1="17.607616997319667" y1="14.830537837552122" x2="21.670491322834636" y2="7.878781652554031" class="delaunay-line"/>
<line x1="21.670491322834636" y1="7.878781652554031" x2="17.679217835945703" y2="6.520289580986132" class="delaunay-line"/>
<line x1="17.679217835945703" y1="6.520289580986132" x2="17.607616997319667" y2="14.830537837552122" class="delaunay-line"/>
<line x1="21.58420507983572" y1="7.7038104606009306" x2="17.8541890278988" y2="6.4340033379872175" class="delaunay-line"/>
<line x1="17.8541890278988" y1="6.4340033379872175" x2="17.679217835945703" y2="6.520289580986132" class="delaunay-line"/>
<line x1="17.679217835945703" y1="6.520289580986132" x2="21.58420507983572" y2="7.7038104606009306" class="delaunay-line"/>
<line x1="17.29980831339444" y1="6.470339369733819" x2="17.153131643248823" y2="6.34170738234596" class="delaunay-line"/>
<line x1="17.153131643248823" y1="6.34170738234596" x2="17.254063606726394" y2="14.976984446958848" class="delaunay-line"/>
<line x1="17.254063606726394" y1="14.976984446958848" x2="17.29980831339444" y2="6.470339369733819" class="delaunay-line"/>
<line x1="17.798958713502213" y1="14.868598071296477" x2="21.670491322834636" y2="7.878781652554031" class="delaunay-line"/>
<line x1="21.670491322834636" y1="7.878781652554031" x2="17.607616997319667" y2="14.830537837552122" class="delaunay-line"/>
<line x1="17.607616997319667" y1="14.830537837552122" x2="17.798958713502213" y2="14.868598071296477" class="delaunay-line"/>
<line x1="17.29980831339444" y1="6.470339369733819" x2="17.484545217284417" y2="6.533049098528504" class="delaunay-line"/>
<line x1="17.484545217284417" y1="6.533049098528504" x2="17.153131643248823" y2="6.34170738234596" class="delaunay-line"/>
<line x1="17.153131643248823" y1="6.34170738234596" x2="17.29980831339444" y2="6.470339369733819" class="delaunay-line"/>
<line x1="17.484545217284417" y1="6.533049098528504" x2="17.066845400249907" y2="6.166736190392859" class="delaunay-line"/>
<line x1="17.066845400249907" y1="6.166736190392859" x2="17.153131643248823" y2="6.34170738234596" class="delaunay-line"/>
<line x1="17.153131643248823" y1="6.34170738234596" x2="17.484545217284417" y2="6.533049098528504" class="delaunay-line"/>
<line x1="17.153131643248823" y1="6.34170738234596" x2="17.066845400249907" y2="6.166736190392859" class="delaunay-line"/>
<line x1="17.066845400249907" y1="6.166736190392859" x2="9.518294505626962" y2="16.86339645510996" class="delaunay-line"/>
<line x1="9.518294505626962" y1="16.86339645510996" x2="17.153131643248823" y2="6.34170738234596" class="delaunay-line"/>
<line x1="17.8541890278988" y1="6.4340033379872175" x2="21.57144556229335" y2="7.509137841939647" class="delaunay-line"/>
<line x1="21.57144556229335" y1="7.509137841939647" x2="17.98282101528666" y2="6.287326667841599" class="delaunay-line"/>
<line x1="17.98282101528666" y1="6.287326667841599" x2="17.8541890278988" y2="6.4340033379872175" class="delaunay-line"/>
<line x1="17.484545217284417" y1="6.533049098528504" x2="17.054085882707536" y2="5.972063571731574" class="delaunay-line"/>
<line x1="17.054085882707536" y1="5.972063571731574" x2="17.066845400249907" y2="6.166736190392859" class="delaunay-line"/>
<line x1="17.066845400249907" y1="6.166736190392859" x2="17.484545217284417" y2="6.533049098528504" class="delaunay-line"/>
<line x1="18.045530744081343" y1="6.102589763951624" x2="17.054085882707536" y2="5.972063571731574" class="delaunay-line"/>
<line x1="17.054085882707536" y1="5.972063571731574" x2="17.484545217284417" y2="6.533049098528504" class="delaunay-line"/>
<line x1="17.484545217284417" y1="6.533049098528504" x2="18.045530744081343" y2="6.102589763951624" class="delaunay-line"/>
<line x1="17.066845400249907" y1="6.166736190392859" x2="17.054085882707536" y2="5.972063571731574" class="delaunay-line"/>
<line x1="17.054085882707536" y1="5.972063571731574" x2="1.0441917763795154" y2="12.419532277059227" class="delaunay-line"/>
<line x1="1.0441917763795154" y1="12.419532277059227" x2="17.066845400249907" y2="6.166736190392859" class="delaunay-line"/>
<line x1="17.798958713502213" y1="14.868598071296477" x2="21.817167992980256" y2="8.007413639941891" class="delaunay-line"/>
<line x1="21.817167992980256" y1="8.007413639941891" x2="21.670491322834636" y2="7.878781652554031" class="delaunay-line"/>
<line x1="21.670491322834636" y1="7.878781652554031" x2="17.798958713502213" y2="14.868598071296477" class="delaunay-line"/>
<line x1="17.679217835945703" y1="6.520289580986132" x2="18.045530744081343" y2="6.102589763951624" class="delaunay-line"/>
<line x1="18.045530744081343" y1="6.102589763951624" x2="17.484545217284417" y2="6.533049098528504" class="delaunay-line"/>
<line x1="17.484545217284417" y1="6.533049098528504" x2="17.679217835945703" y2="6.520289580986132" class="delaunay-line"/>
<line x1="17.24542759889008" y1="5.640649997695981" x2="17.11679561150222" y2="5.787326667841599" class="delaunay-line"/>
<line x1="17.11679561150222" y1="5.787326667841599" x2="17.054085882707536" y2="5.972063571731574" class="delaunay-line"/>
<line x1="17.054085882707536" y1="5.972063571731574" x2="17.24542759889008" y2="5.640649997695981" class="delaunay-line"/>
<line x1="17.054085882707536" y1="5.972063571731574" x2="0" y2="0" class="delaunay-line"/>
<line x1="0" y1="0" x2="1.0441917763795154" y2="12.419532277059227" class="delaunay-line"/>
<line x1="1.0441917763795154" y1="12.419532277059227" x2="17.054085882707536" y2="5.972063571731574" class="delaunay-line"/>
<line x1="18.045530744081343" y1="6.102589763951624" x2="17.98282101528666" y2="6.287326667841599" class="delaunay-line"/>
<line x1="17.98282101528666" y1="6.287326667841599" x2="21.634155291088035" y2="7.3244009380496715" class="delaunay-line"/>
<line x1="21.634155291088035" y1="7.3244009380496715" x2="18.045530744081343" y2="6.102589763951624" class="delaunay-line"/>
<line x1="17.8541890278988" y1="6.4340033379872175" x2="18.045530744081343" y2="6.102589763951624" class="delaunay-line"/>
<line x1="18.045530744081343" y1="6.102589763951624" x2="17.679217835945703" y2="6.520289580986132" class="delaunay-line"/>
<line x1="17.679217835945703" y1="6.520289580986132" x2="17.8541890278988" y2="6.4340033379872175" class="delaunay-line"/>
<line x1="17.420398790843176" y1="5.554363754697066" x2="17.24542759889008" y2="5.640649997695981" class="delaunay-line"/>
<line x1="17.24542759889008" y1="5.640649997695981" x2="17.054085882707536" y2="5.972063571731574" class="delaunay-line"/>
<line x1="17.054085882707536" y1="5.972063571731574" x2="17.420398790843176" y2="5.554363754697066" class="delaunay-line"/>
<line x1="17.11679561150222" y1="5.787326667841599" x2="0" y2="0" class="delaunay-line"/>
<line x1="0" y1="0" x2="17.054085882707536" y2="5.972063571731574" class="delaunay-line"/>
<line x1="17.054085882707536" y1="5.972063571731574" x2="17.11679561150222" y2="5.787326667841599" class="delaunay-line"/>
<line x1="17.798958713502213" y1="14.868598071296477" x2="17.96117038791294" y2="14.976984446958848" class="delaunay-line"/>
<line x1="17.96117038791294" y1="14.976984446958848" x2="21.817167992980256" y2="8.007413639941891" class="delaunay-line"/>
<line x1="21.817167992980256" y1="8.007413639941891" x2="17.798958713502213" y2="14.868598071296477" class="delaunay-line"/>
<line x1="17.98282101528666" y1="6.287326667841599" x2="18.045530744081343" y2="6.102589763951624" class="delaunay-line"/>
<line x1="18.045530744081343" y1="6.102589763951624" x2="17.8541890278988" y2="6.4340033379872175" class="delaunay-line"/>
<line x1="17.8541890278988" y1="6.4340033379872175" x2="17.98282101528666" y2="6.287326667841599" class="delaunay-line"/>
<line x1="17.615071409504463" y1="5.5416042371546945" x2="17.420398790843176" y2="5.554363754697066" class="delaunay-line"/>
<line x1="17.420398790843176" y1="5.554363754697066" x2="17.054085882707536" y2="5.972063571731574" class="delaunay-line"/>
<line x1="17.054085882707536" y1="5.972063571731574" x2="17.615071409504463" y2="5.5416042371546945" class="delaunay-line"/>
<line x1="17.24542759889008" y1="5.640649997695981" x2="0" y2="0" class="delaunay-line"/>
<line x1="0" y1="0" x2="17.11679561150222" y2="5.787326667841599" class="delaunay-line"/>
<line x1="17.11679561150222" y1="5.787326667841599" x2="17.24542759889008" y2="5.640649997695981" class="delaunay-line"/>
<line x1="18.045530744081343" y1="6.102589763951624" x2="17.615071409504463" y2="5.5416042371546945" class="delaunay-line"/>
<line x1="17.615071409504463" y1="5.5416042371546945" x2="17.054085882707536" y2="5.972063571731574" class="delaunay-line"/>
<line x1="17.054085882707536" y1="5.972063571731574" x2="18.045530744081343" y2="6.102589763951624" class="delaunay-line"/>
<line x1="18.032771226538973" y1="5.907917145290339" x2="17.615071409504463" y2="5.5416042371546945" class="delaunay-line"/>
<line x1="17.615071409504463" y1="5.5416042371546945" x2="18.045530744081343" y2="6.102589763951624" class="delaunay-line"/>
<line x1="18.045530744081343" y1="6.102589763951624" x2="18.032771226538973" y2="5.907917145290339" class="delaunay-line"/>
<line x1="18.032771226538973" y1="5.907917145290339" x2="17.946484983540056" y2="5.732945953337238" class="delaunay-line"/>
<line x1="17.946484983540056" y1="5.732945953337238" x2="17.615071409504463" y2="5.5416042371546945" class="delaunay-line"/>
<line x1="17.615071409504463" y1="5.5416042371546945" x2="18.032771226538973" y2="5.907917145290339" class="delaunay-line"/>
<line x1="17.946484983540056" y1="5.732945953337238" x2="17.79980831339444" y2="5.6043139659493795" class="delaunay-line"/>
<line x1="17.79980831339444" y1="5.6043139659493795" x2="17.615071409504463" y2="5.5416042371546945" class="delaunay-line"/>
<line x1="17.615071409504463" y1="5.5416042371546945" x2="17.946484983540056" y2="5.732945953337238" class="delaunay-line"/>
<line x1="18.032771226538973" y1="5.907917145290339" x2="21.937758470428996" y2="7.091438024905138" class="delaunay-line"/>
<line x1="21.937758470428996" y1="7.091438024905138" x2="17.946484983540056" y2="5.732945953337238" class="delaunay-line"/>
<line x1="17.946484983540056" y1="5.732945953337238" x2="18.032771226538973" y2="5.907917145290339" class="delaunay-line"/>
<line x1="17.946484983540056" y1="5.732945953337238" x2="24" y2="0" class="delaunay-line"/>
<line x1="24" y1="0" x2="17.79980831339444" y2="5.6043139659493795" class="delaunay-line"/>
<line x1="17.79980831339444" y1="5.6043139659493795" x2="17.946484983540056" y2="5.732945953337238" class="delaunay-line"/>
<line x1="18.045530744081343" y1="6.102589763951624" x2="21.762787278475898" y2="7.177724267904053" class="delaunay-line"/>
<line x1="21.762787278475898" y1="7.177724267904053" x2="18.032771226538973" y2="5.907917145290339" class="delaunay-line"/>
<line x1="18.032771226538973" y1="5.907917145290339" x2="18.045530744081343" y2="6.102589763951624" class="delaunay-line"/>
<line x1="21.817167992980256" y1="8.007413639941891" x2="17.96117038791294" y2="14.976984446958848" class="delaunay-line"/>
<line x1="17.96117038791294" y1="14.976984446958848" x2="22.00190489687023" y2="8.070123368736576" class="delaunay-line"/>
<line x1="22.00190489687023" y1="8.070123368736576" x2="21.817167992980256" y2="8.007413639941891" class="delaunay-line"/>
<line x1="17.96117038791294" y1="14.976984446958848" x2="18.06955676357531" y2="15.139196121369578" class="delaunay-line"/>
<line x1="18.06955676357531" y1="15.139196121369578" x2="22.00190489687023" y2="8.070123368736576" class="delaunay-line"/>
<line x1="22.00190489687023" y1="8.070123368736576" x2="17.96117038791294" y2="14.976984446958848" class="delaunay-line"/>
<line x1="22.00190489687023" y1="8.070123368736576" x2="18.06955676357531" y2="15.139196121369578" class="delaunay-line"/>
<line x1="18.06955676357531" y1="15.139196121369578" x2="22.196577515531516" y2="8.057363851194205" class="delaunay-line"/>
<line x1="22.196577515531516" y1="8.057363851194205" x2="22.00190489687023" y2="8.070123368736576" class="delaunay-line"/>
<line x1="21.817167992980256" y1="8.007413639941891" x2="21.58420507983572" y2="7.7038104606009306" class="delaunay-line"/>
<line x1="21.58420507983572" y1="7.7038104606009306" x2="21.670491322834636" y2="7.878781652554031" class="delaunay-line"/>
<line x1="21.670491322834636" y1="7.878781652554031" x2="21.817167992980256" y2="8.007413639941891" class="delaunay-line"/>
<line x1="21.670491322834636" y1="7.878781652554031" x2="21.58420507983572" y2="7.7038104606009306" class="delaunay-line"/>
<line x1="21.58420507983572" y1="7.7038104606009306" x2="17.679217835945703" y2="6.520289580986132" class="delaunay-line"/>
<line x1="17.679217835945703" y1="6.520289580986132" x2="21.670491322834636" y2="7.878781652554031" class="delaunay-line"/>
<line x1="22.196577515531516" y1="8.057363851194205" x2="18.06955676357531" y2="15.139196121369578" class="delaunay-line"/>
<line x1="18.06955676357531" y1="15.139196121369578" x2="18.107616997319667" y2="15.330537837552122" class="delaunay-line"/>
<line x1="18.107616997319667" y1="15.330537837552122" x2="22.196577515531516" y2="8.057363851194205" class="delaunay-line"/>
<line x1="21.634155291088035" y1="7.3244009380496715" x2="21.57144556229335" y2="7.509137841939647" class="delaunay-line"/>
<line x1="21.57144556229335" y1="7.509137841939647" x2="21.762787278475898" y2="7.177724267904053" class="delaunay-line"/>
<line x1="21.762787278475898" y1="7.177724267904053" x2="21.634155291088035" y2="7.3244009380496715" class="delaunay-line"/>
<line x1="21.57144556229335" y1="7.509137841939647" x2="21.58420507983572" y2="7.7038104606009306" class="delaunay-line"/>
<line x1="21.58420507983572" y1="7.7038104606009306" x2="21.762787278475898" y2="7.177724267904053" class="delaunay-line"/>
<line x1="21.762787278475898" y1="7.177724267904053" x2="21.57144556229335" y2="7.509137841939647" class="delaunay-line"/>
<line x1="21.58420507983572" y1="7.7038104606009306" x2="21.57144556229335" y2="7.509137841939647" class="delaunay-line"/>
<line x1="21.57144556229335" y1="7.509137841939647" x2="17.8541890278988" y2="6.4340033379872175" class="delaunay-line"/>
<line x1="17.8541890278988" y1="6.4340033379872175" x2="21.58420507983572" y2="7.7038104606009306" class="delaunay-line"/>
<line x1="22.371548707484614" y1="7.971077608195291" x2="22.196577515531516" y2="8.057363851194205" class="delaunay-line"/>
<line x1="22.196577515531516" y1="8.057363851194205" x2="18.107616997319667" y2="15.330537837552122" class="delaunay-line"/>
<line x1="18.107616997319667" y1="15.330537837552122" x2="22.371548707484614" y2="7.971077608195291" class="delaunay-line"/>
<line x1="21.762787278475898" y1="7.177724267904053" x2="21.58420507983572" y2="7.7038104606009306" class="delaunay-line"/>
<line x1="21.58420507983572" y1="7.7038104606009306" x2="21.817167992980256" y2="8.007413639941891" class="delaunay-line"/>
<line x1="21.817167992980256" y1="8.007413639941891" x2="21.762787278475898" y2="7.177724267904053" class="delaunay-line"/>
<line x1="21.762787278475898" y1="7.177724267904053" x2="21.817167992980256" y2="8.007413639941891" class="delaunay-line"/>
<line x1="21.817167992980256" y1="8.007413639941891" x2="22.00190489687023" y2="8.070123368736576" class="delaunay-line"/>
<line x1="22.00190489687023" y1="8.070123368736576" x2="21.762787278475898" y2="7.177724267904053" class="delaunay-line"/>
<line x1="21.57144556229335" y1="7.509137841939647" x2="21.634155291088035" y2="7.3244009380496715" class="delaunay-line"/>
<line x1="21.634155291088035" y1="7.3244009380496715" x2="17.98282101528666" y2="6.287326667841599" class="delaunay-line"/>
<line x1="17.98282101528666" y1="6.287326667841599" x2="21.57144556229335" y2="7.509137841939647" class="delaunay-line"/>
<line x1="24" y1="24" x2="22.371548707484614" y2="7.971077608195291" class="delaunay-line"/>
<line x1="22.371548707484614" y1="7.971077608195291" x2="18.107616997319667" y2="15.330537837552122" class="delaunay-line"/>
<line x1="18.107616997319667" y1="15.330537837552122" x2="24" y2="24" class="delaunay-line"/>
<line x1="22.500180694872473" y1="7.8244009380496715" x2="21.762787278475898" y2="7.177724267904053" class="delaunay-line"/>
<line x1="21.762787278475898" y1="7.177724267904053" x2="22.00190489687023" y2="8.070123368736576" class="delaunay-line"/>
<line x1="22.00190489687023" y1="8.070123368736576" x2="22.500180694872473" y2="7.8244009380496715" class="delaunay-line"/>
<line x1="22.500180694872473" y1="7.8244009380496715" x2="22.00190489687023" y2="8.070123368736576" class="delaunay-line"/>
<line x1="22.00190489687023" y1="8.070123368736576" x2="22.196577515531516" y2="8.057363851194205" class="delaunay-line"/>
<line x1="22.196577515531516" y1="8.057363851194205" x2="22.500180694872473" y2="7.8244009380496715" class="delaunay-line"/>
<line x1="21.634155291088035" y1="7.3244009380496715" x2="21.762787278475898" y2="7.177724267904053" class="delaunay-line"/>
<line x1="21.762787278475898" y1="7.177724267904053" x2="18.045530744081343" y2="6.102589763951624" class="delaunay-line"/>
<line x1="18.045530744081343" y1="6.102589763951624" x2="21.634155291088035" y2="7.3244009380496715" class="delaunay-line"/>
<line x1="0" y1="24" x2="24" y2="24" class="delaunay-line"/>
<line x1="24" y1="24" x2="9.518294505626962" y2="17.86339645510996" class="delaunay-line"/>
<line x1="9.518294505626962" y1="17.86339645510996" x2="0" y2="24" class="delaunay-line"/>
<line x1="17.798958713502213" y1="15.792477603807766" x2="24" y2="24" class="delaunay-line"/>
<line x1="24" y1="24" x2="17.96117038791294" y2="15.684091228145395" class="delaunay-line"/>
<line x1="17.96117038791294" y1="15.684091228145395" x2="17.798958713502213" y2="15.792477603807766" class="delaunay-line"/>
<line x1="17.96117038791294" y1="15.684091228145395" x2="24" y2="24" class="delaunay-line"/>
<line x1="24" y1="24" x2="18.06955676357531" y2="15.521879553734665" class="delaunay-line"/>
<line x1="18.06955676357531" y1="15.521879553734665" x2="17.96117038791294" y2="15.684091228145395" class="delaunay-line"/>
<line x1="18.06955676357531" y1="15.521879553734665" x2="24" y2="24" class="delaunay-line"/>
<line x1="24" y1="24" x2="18.107616997319667" y2="15.330537837552122" class="delaunay-line"/>
<line x1="18.107616997319667" y1="15.330537837552122" x2="18.06955676357531" y2="15.521879553734665" class="delaunay-line"/>
<line x1="24" y1="24" x2="22.500180694872473" y2="7.8244009380496715" class="delaunay-line"/>
<line x1="22.500180694872473" y1="7.8244009380496715" x2="22.371548707484614" y2="7.971077608195291" class="delaunay-line"/>
<line x1="22.371548707484614" y1="7.971077608195291" x2="24" y2="24" class="delaunay-line"/>
<line x1="22.371548707484614" y1="7.971077608195291" x2="22.500180694872473" y2="7.8244009380496715" class="delaunay-line"/>
<line x1="22.500180694872473" y1="7.8244009380496715" x2="22.196577515531516" y2="8.057363851194205" class="delaunay-line"/>
<line x1="22.196577515531516" y1="8.057363851194205" x2="22.371548707484614" y2="7.971077608195291" class="delaunay-line"/>
<line x1="22.500180694872473" y1="7.8244009380496715" x2="21.937758470428996" y2="7.091438024905138" class="delaunay-line"/>
<line x1="21.937758470428996" y1="7.091438024905138" x2="21.762787278475898" y2="7.177724267904053" class="delaunay-line"/>
<line x1="21.762787278475898" y1="7.177724267904053" x2="22.500180694872473" y2="7.8244009380496715" class="delaunay-line"/>
<line x1="21.762787278475898" y1="7.177724267904053" x2="21.937758470428996" y2="7.091438024905138" class="delaunay-line"/>
<line x1="21.937758470428996" y1="7.091438024905138" x2="18.032771226538973" y2="5.907917145290339" class="delaunay-line"/>
<line x1="18.032771226538973" y1="5.907917145290339" x2="21.762787278475898" y2="7.177724267904053" class="delaunay-line"/>
<line x1="24" y1="24" x2="22.562890423667163" y2="7.639664034159697" class="delaunay-line"/>
<line x1="22.562890423667163" y1="7.639664034159697" x2="22.500180694872473" y2="7.8244009380496715" class="delaunay-line"/>
<line x1="22.500180694872473" y1="7.8244009380496715" x2="24" y2="24" class="delaunay-line"/>
<line x1="22.317167992980256" y1="7.141388236157452" x2="22.132431089090282" y2="7.078678507362766" class="delaunay-line"/>
<line x1="22.132431089090282" y1="7.078678507362766" x2="21.937758470428996" y2="7.091438024905138" class="delaunay-line"/>
<line x1="21.937758470428996" y1="7.091438024905138" x2="22.317167992980256" y2="7.141388236157452" class="delaunay-line"/>
<line x1="22.317167992980256" y1="7.141388236157452" x2="21.937758470428996" y2="7.091438024905138" class="delaunay-line"/>
<line x1="21.937758470428996" y1="7.091438024905138" x2="22.500180694872473" y2="7.8244009380496715" class="delaunay-line"/>
<line x1="22.500180694872473" y1="7.8244009380496715" x2="22.317167992980256" y2="7.141388236157452" class="delaunay-line"/>
<line x1="21.937758470428996" y1="7.091438024905138" x2="24" y2="0" class="delaunay-line"/>
<line x1="24" y1="0" x2="17.946484983540056" y2="5.732945953337238" class="delaunay-line"/>
<line x1="17.946484983540056" y1="5.732945953337238" x2="21.937758470428996" y2="7.091438024905138" class="delaunay-line"/>
<line x1="24" y1="0" x2="22.550130906124792" y2="7.4449914154984125" class="delaunay-line"/>
<line x1="22.550130906124792" y1="7.4449914154984125" x2="22.562890423667163" y2="7.639664034159697" class="delaunay-line"/>
<line x1="22.562890423667163" y1="7.639664034159697" x2="24" y2="0" class="delaunay-line"/>
<line x1="22.562890423667163" y1="7.639664034159697" x2="22.550130906124792" y2="7.4449914154984125" class="delaunay-line"/>
<line x1="22.550130906124792" y1="7.4449914154984125" x2="22.500180694872473" y2="7.8244009380496715" class="delaunay-line"/>
<line x1="22.500180694872473" y1="7.8244009380496715" x2="22.562890423667163" y2="7.639664034159697" class="delaunay-line"/>
<line x1="22.463844663125876" y1="7.270020223545312" x2="22.317167992980256" y2="7.141388236157452" class="delaunay-line"/>
<line x1="22.317167992980256" y1="7.141388236157452" x2="22.500180694872473" y2="7.8244009380496715" class="delaunay-line"/>
<line x1="22.500180694872473" y1="7.8244009380496715" x2="22.463844663125876" y2="7.270020223545312" class="delaunay-line"/>
<line x1="22.132431089090282" y1="7.078678507362766" x2="24" y2="0" class="delaunay-line"/>
<line x1="24" y1="0" x2="21.937758470428996" y2="7.091438024905138" class="delaunay-line"/>
<line x1="21.937758470428996" y1="7.091438024905138" x2="22.132431089090282" y2="7.078678507362766" class="delaunay-line"/>
<line x1="22.550130906124792" y1="7.4449914154984125" x2="22.463844663125876" y2="7.270020223545312" class="delaunay-line"/>
<line x1="22.463844663125876" y1="7.270020223545312" x2="22.500180694872473" y2="7.8244009380496715" class="delaunay-line"/>
<line x1="22.500180694872473" y1="7.8244009380496715" x2="22.550130906124792" y2="7.4449914154984125" class="delaunay-line"/>
<line x1="24" y1="0" x2="0" y2="0" class="delaunay-line"/>
<line x1="0" y1="0" x2="17.420398790843176" y2="5.554363754697066" class="delaunay-line"/>
<line x1="17.420398790843176" y1="5.554363754697066" x2="24" y2="0" class="delaunay-line"/>
<line x1="17.420398790843176" y1="5.554363754697066" x2="0" y2="0" class="delaunay-line"/>
<line x1="0" y1="0" x2="17.24542759889008" y2="5.640649997695981" class="delaunay-line"/>
<line x1="17.24542759889008" y1="5.640649997695981" x2="17.420398790843176" y2="5.554363754697066" class="delaunay-line"/>
<line x1="0.5181055836826374" y1="12.240950078419054" x2="0" y2="0" class="delaunay-line"/>
<line x1="0" y1="0" x2="0.3431343917295382" y2="12.327236321417969" class="delaunay-line"/>
<line x1="0.3431343917295382" y1="12.327236321417969" x2="0.5181055836826374" y2="12.240950078419054" class="delaunay-line"/>
<line x1="0.3431343917295382" y1="12.327236321417969" x2="0" y2="0" class="delaunay-line"/>
<line x1="0" y1="0" x2="0.2145024043416789" y2="12.473912991563587" class="delaunay-line"/>
<line x1="0.2145024043416789" y1="12.473912991563587" x2="0.3431343917295382" y2="12.327236321417969" class="delaunay-line"/>
<line x1="0.2145024043416789" y1="12.473912991563587" x2="0" y2="0" class="delaunay-line"/>
<line x1="0" y1="0" x2="0.15179267554699247" y2="12.658649895453562" class="delaunay-line"/>
<line x1="0.15179267554699247" y1="12.658649895453562" x2="0.2145024043416789" y2="12.473912991563587" class="delaunay-line"/>
<line x1="0.15179267554699247" y1="12.658649895453562" x2="0" y2="0" class="delaunay-line"/>
<line x1="0" y1="0" x2="0" y2="24" class="delaunay-line"/>
<line x1="0" y1="24" x2="0.15179267554699247" y2="12.658649895453562" class="delaunay-line"/>
<line x1="17.79980831339444" y1="5.6043139659493795" x2="24" y2="0" class="delaunay-line"/>
<line x1="24" y1="0" x2="17.615071409504463" y2="5.5416042371546945" class="delaunay-line"/>
<line x1="17.615071409504463" y1="5.5416042371546945" x2="17.79980831339444" y2="5.6043139659493795" class="delaunay-line"/>
<line x1="17.615071409504463" y1="5.5416042371546945" x2="24" y2="0" class="delaunay-line"/>
<line x1="24" y1="0" x2="17.420398790843176" y2="5.554363754697066" class="delaunay-line"/>
<line x1="17.420398790843176" y1="5.554363754697066" x2="17.615071409504463" y2="5.5416042371546945" class="delaunay-line"/>
<line x1="22.317167992980256" y1="7.141388236157452" x2="24" y2="0" class="delaunay-line"/>
<line x1="24" y1="0" x2="22.132431089090282" y2="7.078678507362766" class="delaunay-line"/>
<line x1="22.132431089090282" y1="7.078678507362766" x2="22.317167992980256" y2="7.141388236157452" class="delaunay-line"/>
<line x1="22.463844663125876" y1="7.270020223545312" x2="24" y2="0" class="delaunay-line"/>
<line x1="24" y1="0" x2="22.317167992980256" y2="7.141388236157452" class="delaunay-line"/>
<line x1="22.317167992980256" y1="7.141388236157452" x2="22.463844663125876" y2="7.270020223545312" class="delaunay-line"/>
<line x1="22.550130906124792" y1="7.4449914154984125" x2="24" y2="0" class="delaunay-line"/>
<line x1="24" y1="0" x2="22.463844663125876" y2="7.270020223545312" class="delaunay-line"/>
<line x1="22.463844663125876" y1="7.270020223545312" x2="22.550130906124792" y2="7.4449914154984125" class="delaunay-line"/>
<line x1="24" y1="24" x2="24" y2="0" class="delaunay-line"/>
<line x1="24" y1="0" x2="22.562890423667163" y2="7.639664034159697" class="delaunay-line"/>
<line x1="22.562890423667163" y1="7.639664034159697" x2="24" y2="24" class="delaunay-line"/>
</g>
<g id="layer-area" class="layer ">
</g>
<g id="layer-terrain" class="layer ">
<polygon points="9.018294505626962,17.36339645510996 9.056354739371319,17.172054738927415 9.164741115033689,17.009843064516687 9.326952789444416,16.901456688854317 9.518294505626962,16.86339645510996 9.709636221809507,16.901456688854317 9.871847896220235,17.009843064516687 9.980234271882605,17.172054738927415 10.018294505626962,17.36339645510996 9.980234271882605,17.554738171292506 9.871847896220235,17.716949845703233 9.709636221809507,17.825336221365603 9.518294505626962,17.86339645510996 9.326952789444416,17.825336221365603 9.164741115033689,17.716949845703233 9.056354739371319,17.554738171292506" fill="Dark Green" class="terrain-solid"/>
<polygon points="22.317167992980256,7.141388236157452 22.463844663125876,7.270020223545312 22.550130906124792,7.4449914154984125 22.562890423667163,7.639664034159697 22.500180694872473,7.8244009380496715 22.371548707484614,7.971077608195291 22.196577515531516,8.057363851194205 22.00190489687023,8.070123368736576 21.817167992980256,8.007413639941891 21.670491322834636,7.878781652554031 21.58420507983572,7.7038104606009306 21.57144556229335,7.509137841939647 21.634155291088035,7.3244009380496715 21.762787278475898,7.177724267904053 21.937758470428996,7.091438024905138 22.132431089090282,7.078678507362766" fill="Dark Green" class="terrain-solid"/>
<polygon points="0.2145024043416789,12.473912991563587 0.3431343917295382,12.327236321417969 0.5181055836826374,12.240950078419054 0.7127782023439238,12.228190560876682 0.8975151062338982,12.290900289671368 1.0441917763795154,12.419532277059227 1.1304780193784318,12.594503469012327 1.1432375369208037,12.789176087673612 1.0805278081261174,12.973912991563587 0.951895820738258,13.120589661709205 0.7769246287851588,13.20687590470812 0.5822520101238726,13.219635422250493 0.39751510623389813,13.156925693455806 0.2508384360882805,13.028293706067947 0.1645521930893644,12.853322514114847 0.15179267554699247,12.658649895453562" fill="Dark Green" class="terrain-solid"/>
<polygon points="5.826418677876705,16.214913432978538 5.6977866904888455,16.361590103124154 5.5228154985357465,16.447876346123074 5.32814287987446,16.46063586366544 5.143405975984486,16.397926134870758 4.996729305838868,16.269294147482896 4.910443062839952,16.094322955529798 4.89768354529758,15.899650336868513 4.960393274092266,15.714913432978538 5.089025261480126,15.56823676283292 5.263996453433225,15.481950519834005 5.458669072094511,15.469191002291632 5.643405975984486,15.531900731086319 5.790082646130103,15.660532718474176 5.87636888912902,15.83550391042728 5.889128406671391,16.03017652908856" fill="Dark Green" class="terrain-solid"/>
<polygon points="17.96117038791294,15.684091228145395 17.798958713502213,15.792477603807766 17.607616997319667,15.830537837552122 17.41627528113712,15.792477603807766 17.254063606726394,15.684091228145395 17.145677231064024,15.521879553734665 17.107616997319667,15.330537837552122 17.145677231064024,15.139196121369578 17.254063606726394,14.976984446958848 17.41627528113712,14.868598071296477 17.607616997319667,14.830537837552122 17.798958713502213,14.868598071296477 17.96117038791294,14.976984446958848 18.06955676357531,15.139196121369578 18.107616997319667,15.330537837552122 18.06955676357531,15.521879553734665" fill="Dark Green" class="terrain-solid"/>
<polygon points="17.29980831339444,6.470339369733819 17.153131643248823,6.34170738234596 17.066845400249907,6.166736190392859 17.054085882707536,5.972063571731574 17.11679561150222,5.787326667841599 17.24542759889008,5.640649997695981 17.420398790843176,5.554363754697066 17.615071409504463,5.5416042371546945 17.79980831339444,5.6043139659493795 17.946484983540056,5.732945953337238 18.032771226538973,5.907917145290339 18.045530744081343,6.102589763951624 17.98282101528666,6.287326667841599 17.8541890278988,6.4340033379872175 17.679217835945703,6.520289580986132 17.484545217284417,6.533049098528504" fill="Dark Green" class="terrain-solid"/>
</g>
<g id="layer-models" class="layer ">
</g>
<g id="layer-paths" class="layer ">
</g>
<g id="layer-vectors" class="layer ">
</g>
<g id="layer-los" class="layer ">
</g>
<g id="layer-lof" class="layer ">
</g>

</svg>