<svg xmlns="http://www.w3.org/2000/svg" viewBox="0 0 24 24" width="960" height="960" font-family="Arial" font-size="0.6">
<defs>
  <style><![CDATA[
    .layer { display: inline; }
    .layer.hidden { display: none; }
    .grid-line { stroke: #999; stroke-width: 0.02; opacity: 0.2; }
    .delaunay-line { stroke: #4a6fa5; stroke-width: 0.03; opacity: 0.3; }
    .terrain-area { stroke: #000; stroke-width: 0.05; }
    .terrain-solid { stroke: #000; stroke-width: 0.05; }
    .model { stroke: #000; stroke-width: 0.05; }
    .path { fill: none; stroke-width: 0.12; }
    .vector { stroke-width: 0.1; }
    .los-ray { stroke-width: 0.08; stroke-dasharray: 0.2 0.2; }
    .lof-ray { stroke-width: 0.08; stroke-dasharray: 0.3 0.15; }
    .label { fill: #111; font-size: 0.6px; }
    .toggle { cursor: pointer; }
  ]]></style>
</defs>
<rect x="0" y="0" width="24" height="24" fill="#ffffff" stroke="#111" stroke-width="0.05"/>
<g id="legend">
<g class="toggle" onclick="toggleLayer('grid')"><rect x="0.4" y="0.14999999999999997" width="0.4" height="0.4" fill="#222" stroke="#222" stroke-width="0.05"/><text x="1.0" y="0.5499999999999999" class="label">0.5 MU Grid</text></g>
<g class="toggle" onclick="toggleLayer('delaunay')"><rect x="0.4" y="0.95" width="0.4" height="0.4" fill="#222" stroke="#222" stroke-width="0.05"/><text x="1.0" y="1.3499999999999999" class="label">Delaunay Mesh</text></g>
<g class="toggle" onclick="toggleLayer('area')"><rect x="0.4" y="1.7500000000000002" width="0.4" height="0.4" fill="#222" stroke="#222" stroke-width="0.05"/><text x="1.0" y="2.1500000000000004" class="label">Area Terrain</text></g>
<g class="toggle" onclick="toggleLayer('terrain')"><rect x="0.4" y="2.55" width="0.4" height="0.4" fill="#222" stroke="#222" stroke-width="0.05"/><text x="1.0" y="2.95" class="label">Other Terrain</text></g>
<g class="toggle" onclick="toggleLayer('models')"><rect x="0.4" y="3.3499999999999996" width="0.4" height="0.4" fill="#222" stroke="#222" stroke-width="0.05"/><text x="1.0" y="3.75" class="label">Models</text></g>
<g class="toggle" onclick="toggleLayer('paths')"><rect x="0.4" y="4.1499999999999995" width="0.4" height="0.4" fill="#222" stroke="#222" stroke-width="0.05"/><text x="1.0" y="4.55" class="label">Paths</text></g>
<g class="toggle" onclick="toggleLayer('vectors')"><rect x="0.4" y="4.949999999999999" width="0.4" height="0.4" fill="#222" stroke="#222" stroke-width="0.05"/><text x="1.0" y="5.35" class="label">Vectors</text></g>
<g class="toggle" onclick="toggleLayer('los')"><rect x="0.4" y="5.749999999999999" width="0.4" height="0.4" fill="#222" stroke="#222" stroke-width="0.05"/><text x="1.0" y="6.1499999999999995" class="label">LOS</text></g>
<g class="toggle" onclick="toggleLayer('lof')"><rect x="0.4" y="6.549999999999999" width="0.4" height="0.4" fill="#222" stroke="#222" stroke-width="0.05"/><text x="1.0" y="6.949999999999999" class="label">LOF</text></g>
</g>
<script><![CDATA[
      function toggleLayer(id) {
        var layer = document.getElementById('layer-' + id);
        if (!layer) return;
        if (layer.classList.contains('hidden')) {
          layer.classList.remove('hidden');
        } else {
          layer.classList.add('hidden');
        }
      }
    ]]></script>
<text x="0.4" y="23.6" class="label">Battlefield 24x24 density 25 blockLOS 50</text>
<g id="layer-grid" class="layer ">
<line x1="0" y1="0" x2="0" y2="24" class="grid-line"/>
<line x1="0.5" y1="0" x2="0.5" y2="24" class="grid-line"/>
<line x1="1" y1="0" x2="1" y2="24" class="grid-line"/>
<line x1="1.5" y1="0" x2="1.5" y2="24" class="grid-line"/>
<line x1="2" y1="0" x2="2" y2="24" class="grid-line"/>
<line x1="2.5" y1="0" x2="2.5" y2="24" class="grid-line"/>
<line x1="3" y1="0" x2="3" y2="24" class="grid-line"/>
<line x1="3.5" y1="0" x2="3.5" y2="24" class="grid-line"/>
<line x1="4" y1="0" x2="4" y2="24" class="grid-line"/>
<line x1="4.5" y1="0" x2="4.5" y2="24" class="grid-line"/>
<line x1="5" y1="0" x2="5" y2="24" class="grid-line"/>
<line x1="5.5" y1="0" x2="5.5" y2="24" class="grid-line"/>
<line x1="6" y1="0" x2="6" y2="24" class="grid-line"/>
<line x1="6.5" y1="0" x2="6.5" y2="24" class="grid-line"/>
<line x1="7" y1="0" x2="7" y2="24" class="grid-line"/>
<line x1="7.5" y1="0" x2="7.5" y2="24" class="grid-line"/>
<line x1="8" y1="0" x2="8" y2="24" class="grid-line"/>
<line x1="8.5" y1="0" x2="8.5" y2="24" class="grid-line"/>
<line x1="9" y1="0" x2="9" y2="24" class="grid-line"/>
<line x1="9.5" y1="0" x2="9.5" y2="24" class="grid-line"/>
<line x1="10" y1="0" x2="10" y2="24" class="grid-line"/>
<line x1="10.5" y1="0" x2="10.5" y2="24" class="grid-line"/>
<line x1="11" y1="0" x2="11" y2="24" class="grid-line"/>
<line x1="11.5" y1="0" x2="11.5" y2="24" class="grid-line"/>
<line x1="12" y1="0" x2="12" y2="24" class="grid-line"/>
<line x1="12.5" y1="0" x2="12.5" y2="24" class="grid-line"/>
<line x1="13" y1="0" x2="13" y2="24" class="grid-line"/>
<line x1="13.5" y1="0" x2="13.5" y2="24" class="grid-line"/>
<line x1="14" y1="0" x2="14" y2="24" class="grid-line"/>
<line x1="14.5" y1="0" x2="14.5" y2="24" class="grid-line"/>
<line x1="15" y1="0" x2="15" y2="24" class="grid-line"/>
<line x1="15.5" y1="0" x2="15.5" y2="24" class="grid-line"/>
<line x1="16" y1="0" x2="16" y2="24" class="grid-line"/>
<line x1="16.5" y1="0" x2="16.5" y2="24" class="grid-line"/>
<line x1="17" y1="0" x2="17" y2="24" class="grid-line"/>
<line x1="17.5" y1="0" x2="17.5" y2="24" class="grid-line"/>
<line x1="18" y1="0" x2="18" y2="24" class="grid-line"/>
<line x1="18.5" y1="0" x2="18.5" y2="24" class="grid-line"/>
<line x1="19" y1="0" x2="19" y2="24" class="grid-line"/>
<line x1="19.5" y1="0" x2="19.5" y2="24" class="grid-line"/>
<line x1="20" y1="0" x2="20" y2="24" class="grid-line"/>
<line x1="20.5" y1="0" x2="20.5" y2="24" class="grid-line"/>
<line x1="21" y1="0" x2="21" y2="24" class="grid-line"/>
<line x1="21.5" y1="0" x2="21.5" y2="24" class="grid-line"/>
<line x1="22" y1="0" x2="22" y2="24" class="grid-line"/>
<line x1="22.5" y1="0" x2="22.5" y2="24" class="grid-line"/>
<line x1="23" y1="0" x2="23" y2="24" class="grid-line"/>
<line x1="23.5" y1="0" x2="23.5" y2="24" class="grid-line"/>
<line x1="24" y1="0" x2="24" y2="24" class="grid-line"/>
<line x1="0" y1="0" x2="24" y2="0" class="grid-line"/>
<line x1="0" y1="0.5" x2="24" y2="0.5" class="grid-line"/>
<line x1="0" y1="1" x2="24" y2="1" class="grid-line"/>
<line x1="0" y1="1.5" x2="24" y2="1.5" class="grid-line"/>
<line x1="0" y1="2" x2="24" y2="2" class="grid-line"/>
<line x1="0" y1="2.5" x2="24" y2="2.5" class="grid-line"/>
<line x1="0" y1="3" x2="24" y2="3" class="grid-line"/>
<line x1="0" y1="3.5" x2="24" y2="3.5" class="grid-line"/>
<line x1="0" y1="4" x2="24" y2="4" class="grid-line"/>
<line x1="0" y1="4.5" x2="24" y2="4.5" class="grid-line"/>
<line x1="0" y1="5" x2="24" y2="5" class="grid-line"/>
<line x1="0" y1="5.5" x2="24" y2="5.5" class="grid-line"/>
<line x1="0" y1="6" x2="24" y2="6" class="grid-line"/>
<line x1="0" y1="6.5" x2="24" y2="6.5" class="grid-line"/>
<line x1="0" y1="7" x2="24" y2="7" class="grid-line"/>
<line x1="0" y1="7.5" x2="24" y2="7.5" class="grid-line"/>
<line x1="0" y1="8" x2="24" y2="8" class="grid-line"/>
<line x1="0" y1="8.5" x2="24" y2="8.5" class="grid-line"/>
<line x1="0" y1="9" x2="24" y2="9" class="grid-line"/>
<line x1="0" y1="9.5" x2="24" y2="9.5" class="grid-line"/>
<line x1="0" y1="10" x2="24" y2="10" class="grid-line"/>
<line x1="0" y1="10.5" x2="24" y2="10.5" class="grid-line"/>
<line x1="0" y1="11" x2="24" y2="11" class="grid-line"/>
<line x1="0" y1="11.5" x2="24" y2="11.5" class="grid-line"/>
<line x1="0" y1="12" x2="24" y2="12" class="grid-line"/>
<line x1="0" y1="12.5" x2="24" y2="12.5" class="grid-line"/>
<line x1="0" y1="13" x2="24" y2="13" class="grid-line"/>
<line x1="0" y1="13.5" x2="24" y2="13.5" class="grid-line"/>
<line x1="0" y1="14" x2="24" y2="14" class="grid-line"/>
<line x1="0" y1="14.5" x2="24" y2="14.5" class="grid-line"/>
<line x1="0" y1="15" x2="24" y2="15" class="grid-line"/>
<line x1="0" y1="15.5" x2="24" y2="15.5" class="grid-line"/>
<line x1="0" y1="16" x2="24" y2="16" class="grid-line"/>
<line x1="0" y1="16.5" x2="24" y2="16.5" class="grid-line"/>
<line x1="0" y1="17" x2="24" y2="17" class="grid-line"/>
<line x1="0" y1="17.5" x2="24" y2="17.5" class="grid-line"/>
<line x1="0" y1="18" x2="24" y2="18" class="grid-line"/>
<line x1="0" y1="18.5" x2="24" y2="18.5" class="grid-line"/>
<line x1="0" y1="19" x2="24" y2="19" class="grid-line"/>
<line x1="0" y1="19.5" x2="24" y2="19.5" class="grid-line"/>
<line x1="0" y1="20" x2="24" y2="20" class="grid-line"/>
<line x1="0" y1="20.5" x2="24" y2="20.5" class="grid-line"/>
<line x1="0" y1="21" x2="24" y2="21" class="grid-line"/>
<line x1="0" y1="21.5" x2="24" y2="21.5" class="grid-line"/>
<line x1="0" y1="22" x2="24" y2="22" class="grid-line"/>
<line x1="0" y1="22.5" x2="24" y2="22.5" class="grid-line"/>
<line x1="0" y1="23" x2="24" y2="23" class="grid-line"/>
<line x1="0" y1="23.5" x2="24" y2="23.5" class="grid-line"/>
<line x1="0" y1="24" x2="24" y2="24" class="grid-line"/>
</g>
<g id="layer-delaunay" class="layer ">
<line x1="3.142979562398686" y1="16.91820145377578" x2="3.034593186736315" y2="16.755989779365052" class="delaunay-line"/>
<line x1="3.034593186736315" y1="16.755989779365052" x2="3.181039796143041" y2="17.109543169958325" class="delaunay-line"/>
<line x1="3.181039796143041" y1="17.109543169958325" x2="3.142979562398686" y2="16.91820145377578" class="delaunay-line"/>
<line x1="3.0345931867363154" y1="17.463096560551598" x2="3.1429795623986845" y2="17.30088488614087" class="delaunay-line"/>
<line x1="3.1429795623986845" y1="17.30088488614087" x2="3.181039796143041" y2="17.109543169958325" class="delaunay-line"/>
<line x1="3.181039796143041" y1="17.109543169958325" x2="3.0345931867363154" y2="17.463096560551598" class="delaunay-line"/>
<line x1="3.034593186736315" y1="16.755989779365052" x2="3.0345931867363154" y2="17.463096560551598" class="delaunay-line"/>
<line x1="3.0345931867363154" y1="17.463096560551598" x2="3.181039796143041" y2="17.109543169958325" class="delaunay-line"/>
<line x1="3.181039796143041" y1="17.109543169958325" x2="3.034593186736315" y2="16.755989779365052" class="delaunay-line"/>
<line x1="2.489698079960497" y1="17.571482936213968" x2="3.0345931867363154" y2="17.463096560551598" class="delaunay-line"/>
<line x1="3.0345931867363154" y1="17.463096560551598" x2="3.034593186736315" y2="16.755989779365052" class="delaunay-line"/>
<line x1="3.034593186736315" y1="16.755989779365052" x2="2.489698079960497" y2="17.571482936213968" class="delaunay-line"/>
<line x1="2.489698079960497" y1="17.571482936213968" x2="2.8723815123255863" y2="17.571482936213968" class="delaunay-line"/>
<line x1="2.8723815123255863" y1="17.571482936213968" x2="3.0345931867363154" y2="17.463096560551598" class="delaunay-line"/>
<line x1="3.0345931867363154" y1="17.463096560551598" x2="2.489698079960497" y2="17.571482936213968" class="delaunay-line"/>
<line x1="2.489698079960497" y1="17.571482936213968" x2="3.034593186736315" y2="16.755989779365052" class="delaunay-line"/>
<line x1="3.034593186736315" y1="16.755989779365052" x2="2.8723815123255854" y2="16.647603403702682" class="delaunay-line"/>
<line x1="2.8723815123255854" y1="16.647603403702682" x2="2.489698079960497" y2="17.571482936213968" class="delaunay-line"/>
<line x1="2.6810397961430414" y1="16.609543169958325" x2="2.4896980799604966" y2="16.647603403702682" class="delaunay-line"/>
<line x1="2.4896980799604966" y1="16.647603403702682" x2="2.8723815123255854" y2="16.647603403702682" class="delaunay-line"/>
<line x1="2.8723815123255854" y1="16.647603403702682" x2="2.6810397961430414" y2="16.609543169958325" class="delaunay-line"/>
<line x1="2.489698079960497" y1="17.571482936213968" x2="2.681039796143041" y2="17.609543169958325" class="delaunay-line"/>
<line x1="2.681039796143041" y1="17.609543169958325" x2="2.8723815123255863" y2="17.571482936213968" class="delaunay-line"/>
<line x1="2.8723815123255863" y1="17.571482936213968" x2="2.489698079960497" y2="17.571482936213968" class="delaunay-line"/>
<line x1="2.4896980799604966" y1="16.647603403702682" x2="2.3274864055497675" y2="16.755989779365052" class="delaunay-line"/>
<line x1="2.3274864055497675" y1="16.755989779365052" x2="2.8723815123255854" y2="16.647603403702682" class="delaunay-line"/>
<line x1="2.8723815123255854" y1="16.647603403702682" x2="2.4896980799604966" y2="16.647603403702682" class="delaunay-line"/>
<line x1="2.327486405549768" y1="17.463096560551598" x2="2.489698079960497" y2="17.571482936213968" class="delaunay-line"/>
<line x1="2.489698079960497" y1="17.571482936213968" x2="2.8723815123255854" y2="16.647603403702682" class="delaunay-line"/>
<line x1="2.8723815123255854" y1="16.647603403702682" x2="2.327486405549768" y2="17.463096560551598" class="delaunay-line"/>
<line x1="2.181039796143042" y1="17.109543169958325" x2="2.327486405549768" y2="17.463096560551598" class="delaunay-line"/>
<line x1="2.327486405549768" y1="17.463096560551598" x2="2.8723815123255854" y2="16.647603403702682" class="delaunay-line"/>
<line x1="2.8723815123255854" y1="16.647603403702682" x2="2.181039796143042" y2="17.109543169958325" class="delaunay-line"/>
<line x1="2.181039796143042" y1="17.109543169958325" x2="2.8723815123255854" y2="16.647603403702682" class="delaunay-line"/>
<line x1="2.8723815123255854" y1="16.647603403702682" x2="2.3274864055497675" y2="16.755989779365052" class="delaunay-line"/>
<line x1="2.3274864055497675" y1="16.755989779365052" x2="2.181039796143042" y2="17.109543169958325" class="delaunay-line"/>
<line x1="2.219100029887398" y1="16.91820145377578" x2="2.181039796143042" y2="17.109543169958325" class="delaunay-line"/>
<line x1="2.181039796143042" y1="17.109543169958325" x2="2.3274864055497675" y2="16.755989779365052" class="delaunay-line"/>
<line x1="2.3274864055497675" y1="16.755989779365052" x2="2.219100029887398" y2="16.91820145377578" class="delaunay-line"/>
<line x1="2.181039796143042" y1="17.109543169958325" x2="2.219100029887397" y2="17.30088488614087" class="delaunay-line"/>
<line x1="2.219100029887397" y1="17.30088488614087" x2="2.327486405549768" y2="17.463096560551598" class="delaunay-line"/>
<line x1="2.327486405549768" y1="17.463096560551598" x2="2.181039796143042" y2="17.109543169958325" class="delaunay-line"/>
<line x1="2.8723815123255863" y1="17.571482936213968" x2="6.81021658754077" y2="22.458988416473545" class="delaunay-line"/>
<line x1="6.81021658754077" y1="22.458988416473545" x2="3.0345931867363154" y2="17.463096560551598" class="delaunay-line"/>
<line x1="3.0345931867363154" y1="17.463096560551598" x2="2.8723815123255863" y2="17.571482936213968" class="delaunay-line"/>
<line x1="3.0345931867363154" y1="17.463096560551598" x2="6.985187779493872" y2="22.37270217347463" class="delaunay-line"/>
<line x1="6.985187779493872" y1="22.37270217347463" x2="3.1429795623986845" y2="17.30088488614087" class="delaunay-line"/>
<line x1="3.1429795623986845" y1="17.30088488614087" x2="3.0345931867363154" y2="17.463096560551598" class="delaunay-line"/>
<line x1="3.1429795623986845" y1="17.30088488614087" x2="7.179860398155158" y2="22.359942655932258" class="delaunay-line"/>
<line x1="7.179860398155158" y1="22.359942655932258" x2="3.181039796143041" y2="17.109543169958325" class="delaunay-line"/>
<line x1="3.181039796143041" y1="17.109543169958325" x2="3.1429795623986845" y2="17.30088488614087" class="delaunay-line"/>
<line x1="3.181039796143041" y1="17.109543169958325" x2="7.364597302045132" y2="22.422652384726945" class="delaunay-line"/>
<line x1="7.364597302045132" y1="22.422652384726945" x2="3.142979562398686" y2="16.91820145377578" class="delaunay-line"/>
<line x1="3.142979562398686" y1="16.91820145377578" x2="3.181039796143041" y2="17.109543169958325" class="delaunay-line"/>
<line x1="6.681584600152913" y1="22.60566508661916" x2="6.81021658754077" y2="22.458988416473545" class="delaunay-line"/>
<line x1="6.81021658754077" y1="22.458988416473545" x2="2.8723815123255863" y2="17.571482936213968" class="delaunay-line"/>
<line x1="2.8723815123255863" y1="17.571482936213968" x2="6.681584600152913" y2="22.60566508661916" class="delaunay-line"/>
<line x1="6.681584600152913" y1="22.60566508661916" x2="2.8723815123255863" y2="17.571482936213968" class="delaunay-line"/>
<line x1="2.8723815123255863" y1="17.571482936213968" x2="2.681039796143041" y2="17.609543169958325" class="delaunay-line"/>
<line x1="2.681039796143041" y1="17.609543169958325" x2="6.681584600152913" y2="22.60566508661916" class="delaunay-line"/>
<line x1="6.681584600152913" y1="22.60566508661916" x2="2.681039796143041" y2="17.609543169958325" class="delaunay-line"/>
<line x1="2.681039796143041" y1="17.609543169958325" x2="6.618874871358227" y2="22.790401990509135" class="delaunay-line"/>
<line x1="6.618874871358227" y1="22.790401990509135" x2="6.681584600152913" y2="22.60566508661916" class="delaunay-line"/>
<line x1="6.618874871358227" y1="22.790401990509135" x2="2.681039796143041" y2="17.609543169958325" class="delaunay-line"/>
<line x1="2.681039796143041" y1="17.609543169958325" x2="0" y2="24" class="delaunay-line"/>
<line x1="0" y1="24" x2="6.618874871358227" y2="22.790401990509135" class="delaunay-line"/>
<line x1="6.681584600152913" y1="22.60566508661916" x2="6.985187779493872" y2="22.37270217347463" class="delaunay-line"/>
<line x1="6.985187779493872" y1="22.37270217347463" x2="6.81021658754077" y2="22.458988416473545" class="delaunay-line"/>
<line x1="6.81021658754077" y1="22.458988416473545" x2="6.681584600152913" y2="22.60566508661916" class="delaunay-line"/>
<line x1="6.81021658754077" y1="22.458988416473545" x2="6.985187779493872" y2="22.37270217347463" class="delaunay-line"/>
<line x1="6.985187779493872" y1="22.37270217347463" x2="3.0345931867363154" y2="17.463096560551598" class="delaunay-line"/>
<line x1="3.0345931867363154" y1="17.463096560551598" x2="6.81021658754077" y2="22.458988416473545" class="delaunay-line"/>
<line x1="24" y1="0" x2="0" y2="0" class="delaunay-line"/>
<line x1="0" y1="0" x2="3.034593186736315" y2="16.755989779365052" class="delaunay-line"/>
<line x1="3.034593186736315" y1="16.755989779365052" x2="24" y2="0" class="delaunay-line"/>
<line x1="6.631634388900598" y1="22.98507460917042" x2="6.618874871358227" y2="22.790401990509135" class="delaunay-line"/>
<line x1="6.618874871358227" y1="22.790401990509135" x2="0" y2="24" class="delaunay-line"/>
<line x1="0" y1="24" x2="6.631634388900598" y2="22.98507460917042" class="delaunay-line"/>
<line x1="6.681584600152913" y1="22.60566508661916" x2="6.717920631899514" y2="23.16004580112352" class="delaunay-line"/>
<line x1="6.717920631899514" y1="23.16004580112352" x2="6.985187779493872" y2="22.37270217347463" class="delaunay-line"/>
<line x1="6.985187779493872" y1="22.37270217347463" x2="6.681584600152913" y2="22.60566508661916" class="delaunay-line"/>
<line x1="7.364597302045132" y1="22.422652384726945" x2="7.179860398155158" y2="22.359942655932258" class="delaunay-line"/>
<line x1="7.179860398155158" y1="22.359942655932258" x2="6.985187779493872" y2="22.37270217347463" class="delaunay-line"/>
<line x1="6.985187779493872" y1="22.37270217347463" x2="7.364597302045132" y2="22.422652384726945" class="delaunay-line"/>
<line x1="6.985187779493872" y1="22.37270217347463" x2="7.179860398155158" y2="22.359942655932258" class="delaunay-line"/>
<line x1="7.179860398155158" y1="22.359942655932258" x2="3.1429795623986845" y2="17.30088488614087" class="delaunay-line"/>
<line x1="3.1429795623986845" y1="17.30088488614087" x2="6.985187779493872" y2="22.37270217347463" class="delaunay-line"/>
<line x1="0" y1="24" x2="2.681039796143041" y2="17.609543169958325" class="delaunay-line"/>
<line x1="2.681039796143041" y1="17.609543169958325" x2="2.489698079960497" y2="17.571482936213968" class="delaunay-line"/>
<line x1="2.489698079960497" y1="17.571482936213968" x2="0" y2="24" class="delaunay-line"/>
<line x1="6.717920631899514" y1="23.16004580112352" x2="7.364597302045132" y2="22.422652384726945" class="delaunay-line"/>
<line x1="7.364597302045132" y1="22.422652384726945" x2="6.985187779493872" y2="22.37270217347463" class="delaunay-line"/>
<line x1="6.985187779493872" y1="22.37270217347463" x2="6.717920631899514" y2="23.16004580112352" class="delaunay-line"/>
<line x1="6.717920631899514" y1="23.16004580112352" x2="6.681584600152913" y2="22.60566508661916" class="delaunay-line"/>
<line x1="6.681584600152913" y1="22.60566508661916" x2="6.618874871358227" y2="22.790401990509135" class="delaunay-line"/>
<line x1="6.618874871358227" y1="22.790401990509135" x2="6.717920631899514" y2="23.16004580112352" class="delaunay-line"/>
<line x1="7.179860398155158" y1="22.359942655932258" x2="7.364597302045132" y2="22.422652384726945" class="delaunay-line"/>
<line x1="7.364597302045132" y1="22.422652384726945" x2="3.181039796143041" y2="17.109543169958325" class="delaunay-line"/>
<line x1="3.181039796143041" y1="17.109543169958325" x2="7.179860398155158" y2="22.359942655932258" class="delaunay-line"/>
<line x1="0" y1="24" x2="6.717920631899514" y2="23.16004580112352" class="delaunay-line"/>
<line x1="6.717920631899514" y1="23.16004580112352" x2="6.631634388900598" y2="22.98507460917042" class="delaunay-line"/>
<line x1="6.631634388900598" y1="22.98507460917042" x2="0" y2="24" class="delaunay-line"/>
<line x1="6.631634388900598" y1="22.98507460917042" x2="6.717920631899514" y2="23.16004580112352" class="delaunay-line"/>
<line x1="6.717920631899514" y1="23.16004580112352" x2="6.618874871358227" y2="22.790401990509135" class="delaunay-line"/>
<line x1="6.618874871358227" y1="22.790401990509135" x2="6.631634388900598" y2="22.98507460917042" class="delaunay-line"/>
<line x1="7.244006824596392" y1="23.338627999763695" x2="7.511273972190749" y2="22.551284372114804" class="delaunay-line"/>
<line x1="7.511273972190749" y1="22.551284372114804" x2="7.364597302045132" y2="22.422652384726945" class="delaunay-line"/>
<line x1="7.364597302045132" y1="22.422652384726945" x2="7.244006824596392" y2="23.338627999763695" class="delaunay-line"/>
<line x1="7.364597302045132" y1="22.422652384726945" x2="24" y2="0" class="delaunay-line"/>
<line x1="24" y1="0" x2="3.142979562398686" y2="16.91820145377578" class="delaunay-line"/>
<line x1="3.142979562398686" y1="16.91820145377578" x2="7.364597302045132" y2="22.422652384726945" class="delaunay-line"/>
<line x1="2.219100029887397" y1="17.30088488614087" x2="0" y2="24" class="delaunay-line"/>
<line x1="0" y1="24" x2="2.327486405549768" y2="17.463096560551598" class="delaunay-line"/>
<line x1="2.327486405549768" y1="17.463096560551598" x2="2.219100029887397" y2="17.30088488614087" class="delaunay-line"/>
<line x1="2.327486405549768" y1="17.463096560551598" x2="0" y2="24" class="delaunay-line"/>
<line x1="0" y1="24" x2="2.489698079960497" y2="17.571482936213968" class="delaunay-line"/>
<line x1="2.489698079960497" y1="17.571482936213968" x2="2.327486405549768" y2="17.463096560551598" class="delaunay-line"/>
<line x1="2.181039796143042" y1="17.109543169958325" x2="0" y2="24" class="delaunay-line"/>
<line x1="0" y1="24" x2="2.219100029887397" y2="17.30088488614087" class="delaunay-line"/>
<line x1="2.219100029887397" y1="17.30088488614087" x2="2.181039796143042" y2="17.109543169958325" class="delaunay-line"/>
<line x1="0" y1="0" x2="0" y2="24" class="delaunay-line"/>
<line x1="0" y1="24" x2="2.181039796143042" y2="17.109543169958325" class="delaunay-line"/>
<line x1="2.181039796143042" y1="17.109543169958325" x2="0" y2="0" class="delaunay-line"/>
<line x1="0" y1="24" x2="6.864597302045132" y2="23.28867778851138" class="delaunay-line"/>
<line x1="6.864597302045132" y1="23.28867778851138" x2="6.717920631899514" y2="23.16004580112352" class="delaunay-line"/>
<line x1="6.717920631899514" y1="23.16004580112352" x2="0" y2="24" class="delaunay-line"/>
<line x1="6.717920631899514" y1="23.16004580112352" x2="6.864597302045132" y2="23.28867778851138" class="delaunay-line"/>
<line x1="6.864597302045132" y1="23.28867778851138" x2="7.364597302045132" y2="22.422652384726945" class="delaunay-line"/>
<line x1="7.364597302045132" y1="22.422652384726945" x2="6.717920631899514" y2="23.16004580112352" class="delaunay-line"/>
<line x1="7.610319732732036" y1="22.920928182729188" x2="7.597560215189666" y2="22.726255564067902" class="delaunay-line"/>
<line x1="7.597560215189666" y1="22.726255564067902" x2="7.511273972190749" y2="22.551284372114804" class="delaunay-line"/>
<line x1="7.511273972190749" y1="22.551284372114804" x2="7.610319732732036" y2="22.920928182729188" class="delaunay-line"/>
<line x1="0" y1="24" x2="7.049334205935105" y2="23.351387517306065" class="delaunay-line"/>
<line x1="7.049334205935105" y1="23.351387517306065" x2="6.864597302045132" y2="23.28867778851138" class="delaunay-line"/>
<line x1="6.864597302045132" y1="23.28867778851138" x2="0" y2="24" class="delaunay-line"/>
<line x1="7.547610003937351" y1="23.10566508661916" x2="7.610319732732036" y2="22.920928182729188" class="delaunay-line"/>
<line x1="7.610319732732036" y1="22.920928182729188" x2="7.511273972190749" y2="22.551284372114804" class="delaunay-line"/>
<line x1="7.511273972190749" y1="22.551284372114804" x2="7.547610003937351" y2="23.10566508661916" class="delaunay-line"/>
<line x1="7.244006824596392" y1="23.338627999763695" x2="7.364597302045132" y2="22.422652384726945" class="delaunay-line"/>
<line x1="7.364597302045132" y1="22.422652384726945" x2="6.864597302045132" y2="23.28867778851138" class="delaunay-line"/>
<line x1="6.864597302045132" y1="23.28867778851138" x2="7.244006824596392" y2="23.338627999763695" class="delaunay-line"/>
<line x1="24" y1="24" x2="7.244006824596392" y2="23.338627999763695" class="delaunay-line"/>
<line x1="7.244006824596392" y1="23.338627999763695" x2="7.049334205935105" y2="23.351387517306065" class="delaunay-line"/>
<line x1="7.049334205935105" y1="23.351387517306065" x2="24" y2="24" class="delaunay-line"/>
<line x1="7.049334205935105" y1="23.351387517306065" x2="7.244006824596392" y2="23.338627999763695" class="delaunay-line"/>
<line x1="7.244006824596392" y1="23.338627999763695" x2="6.864597302045132" y2="23.28867778851138" class="delaunay-line"/>
<line x1="6.864597302045132" y1="23.28867778851138" x2="7.049334205935105" y2="23.351387517306065" class="delaunay-line"/>
<line x1="7.244006824596392" y1="23.338627999763695" x2="7.547610003937351" y2="23.10566508661916" class="delaunay-line"/>
<line x1="7.547610003937351" y1="23.10566508661916" x2="7.511273972190749" y2="22.551284372114804" class="delaunay-line"/>
<line x1="7.511273972190749" y1="22.551284372114804" x2="7.244006824596392" y2="23.338627999763695" class="delaunay-line"/>
<line x1="7.244006824596392" y1="23.338627999763695" x2="7.418978016549493" y2="23.25234175676478" class="delaunay-line"/>
<line x1="7.418978016549493" y1="23.25234175676478" x2="7.547610003937351" y2="23.10566508661916" class="delaunay-line"/>
<line x1="7.547610003937351" y1="23.10566508661916" x2="7.244006824596392" y2="23.338627999763695" class="delaunay-line"/>
<line x1="2.6810397961430414" y1="16.609543169958325" x2="0" y2="0" class="delaunay-line"/>
<line x1="0" y1="0" x2="2.4896980799604966" y2="16.647603403702682" class="delaunay-line"/>
<line x1="2.4896980799604966" y1="16.647603403702682" x2="2.6810397961430414" y2="16.609543169958325" class="delaunay-line"/>
<line x1="2.4896980799604966" y1="16.647603403702682" x2="0" y2="0" class="delaunay-line"/>
<line x1="0" y1="0" x2="2.3274864055497675" y2="16.755989779365052" class="delaunay-line"/>
<line x1="2.3274864055497675" y1="16.755989779365052" x2="2.4896980799604966" y2="16.647603403702682" class="delaunay-line"/>
<line x1="2.3274864055497675" y1="16.755989779365052" x2="0" y2="0" class="delaunay-line"/>
<line x1="0" y1="0" x2="2.219100029887398" y2="16.91820145377578" class="delaunay-line"/>
<line x1="2.219100029887398" y1="16.91820145377578" x2="2.3274864055497675" y2="16.755989779365052" class="delaunay-line"/>
<line x1="2.219100029887398" y1="16.91820145377578" x2="0" y2="0" class="delaunay-line"/>
<line x1="0" y1="0" x2="2.181039796143042" y2="17.109543169958325" class="delaunay-line"/>
<line x1="2.181039796143042" y1="17.109543169958325" x2="2.219100029887398" y2="16.91820145377578" class="delaunay-line"/>
<line x1="2.8723815123255854" y1="16.647603403702682" x2="0" y2="0" class="delaunay-line"/>
<line x1="0" y1="0" x2="2.6810397961430414" y2="16.609543169958325" class="delaunay-line"/>
<line x1="2.6810397961430414" y1="16.609543169958325" x2="2.8723815123255854" y2="16.647603403702682" class="delaunay-line"/>
<line x1="3.034593186736315" y1="16.755989779365052" x2="0" y2="0" class="delaunay-line"/>
<line x1="0" y1="0" x2="2.8723815123255854" y2="16.647603403702682" class="delaunay-line"/>
<line x1="2.8723815123255854" y1="16.647603403702682" x2="3.034593186736315" y2="16.755989779365052" class="delaunay-line"/>
<line x1="24" y1="0" x2="3.034593186736315" y2="16.755989779365052" class="delaunay-line"/>
<line x1="3.034593186736315" y1="16.755989779365052" x2="3.142979562398686" y2="16.91820145377578" class="delaunay-line"/>
<line x1="3.142979562398686" y1="16.91820145377578" x2="24" y2="0" class="delaunay-line"/>
<line x1="24" y1="0" x2="7.364597302045132" y2="22.422652384726945" class="delaunay-line"/>
<line x1="7.364597302045132" y1="22.422652384726945" x2="7.511273972190749" y2="22.551284372114804" class="delaunay-line"/>
<line x1="7.511273972190749" y1="22.551284372114804" x2="24" y2="0" class="delaunay-line"/>
<line x1="7.610319732732036" y1="22.920928182729188" x2="24" y2="24" class="delaunay-line"/>
<line x1="24" y1="24" x2="7.597560215189666" y2="22.726255564067902" class="delaunay-line"/>
<line x1="7.597560215189666" y1="22.726255564067902" x2="7.610319732732036" y2="22.920928182729188" class="delaunay-line"/>
<line x1="7.597560215189666" y1="22.726255564067902" x2="24" y2="24" class="delaunay-line"/>
<line x1="24" y1="24" x2="7.511273972190749" y2="22.551284372114804" class="delaunay-line"/>
<line x1="7.511273972190749" y1="22.551284372114804" x2="7.597560215189666" y2="22.726255564067902" class="delaunay-line"/>
<line x1="7.547610003937351" y1="23.10566508661916" x2="24" y2="24" class="delaunay-line"/>
<line x1="24" y1="24" x2="7.610319732732036" y2="22.920928182729188" class="delaunay-line"/>
<line x1="7.610319732732036" y1="22.920928182729188" x2="7.547610003937351" y2="23.10566508661916" class="delaunay-line"/>
<line x1="7.418978016549493" y1="23.25234175676478" x2="24" y2="24" class="delaunay-line"/>
<line x1="24" y1="24" x2="7.547610003937351" y2="23.10566508661916" class="delaunay-line"/>
<line x1="7.547610003937351" y1="23.10566508661916" x2="7.418978016549493" y2="23.25234175676478" class="delaunay-line"/>
<line x1="7.244006824596392" y1="23.338627999763695" x2="24" y2="24" class="delaunay-line"/>
<line x1="24" y1="24" x2="7.418978016549493" y2="23.25234175676478" class="delaunay-line"/>
<line x1="7.418978016549493" y1="23.25234175676478" x2="7.244006824596392" y2="23.338627999763695" class="delaunay-line"/>
<line x1="0" y1="24" x2="24" y2="24" class="delaunay-line"/>
<line x1="24" y1="24" x2="7.049334205935105" y2="23.351387517306065" class="delaunay-line"/>
<line x1="7.049334205935105" y1="23.351387517306065" x2="0" y2="24" class="delaunay-line"/>
<line x1="24" y1="24" x2="24" y2="0" class="delaunay-line"/>
<line x1="24" y1="0" x2="7.511273972190749" y2="22.551284372114804" class="delaunay-line"/>
<line x1="7.511273972190749" y1="22.551284372114804" x2="24" y2="24" class="delaunay-line"/>
</g>
<g id="layer-area" class="layer ">
</g>
<g id="layer-terrain" class="layer ">
<polygon points="3.034593186736315,16.755989779365052 3.142979562398686,16.91820145377578 3.181039796143041,17.109543169958325 3.1429795623986845,17.30088488614087 3.0345931867363154,17.463096560551598 2.8723815123255863,17.571482936213968 2.681039796143041,17.609543169958325 2.489698079960497,17.571482936213968 2.327486405549768,17.463096560551598 2.219100029887397,17.30088488614087 2.181039796143042,17.109543169958325 2.219100029887398,16.91820145377578 2.3274864055497675,16.755989779365052 2.4896980799604966,16.647603403702682 2.6810397961430414,16.609543169958325 2.8723815123255854,16.647603403702682" fill="Dark Green" class="terrain-solid"/>
<polygon points="7.244006824596392,23.338627999763695 7.049334205935105,23.351387517306065 6.864597302045132,23.28867778851138 6.717920631899514,23.16004580112352 6.631634388900598,22.98507460917042 6.618874871358227,22.790401990509135 6.681584600152913,22.60566508661916 6.81021658754077,22.458988416473545 6.985187779493872,22.37270217347463 7.179860398155158,22.359942655932258 7.364597302045132,22.422652384726945 7.511273972190749,22.551284372114804 7.597560215189666,22.726255564067902 7.610319732732036,22.920928182729188 7.547610003937351,23.10566508661916 7.418978016549493,23.25234175676478" fill="Dark Green" class="terrain-solid"/>
</g>
<g id="layer-models" class="layer ">
</g>
<g id="layer-paths" class="layer ">
</g>
<g id="layer-vectors" class="layer ">
</g>
<g id="layer-los" class="layer ">
</g>
<g id="layer-lof" class="layer ">
</g>

</svg>