<svg xmlns="http://www.w3.org/2000/svg" viewBox="0 0 24 24" width="960" height="960" font-family="Arial" font-size="0.6">
<defs>
  <style><![CDATA[
    .layer { display: inline; }
    .layer.hidden { display: none; }
    .grid-line { stroke: #999; stroke-width: 0.02; opacity: 0.2; }
    .delaunay-line { stroke: #4a6fa5; stroke-width: 0.03; opacity: 0.3; }
    .terrain-area { stroke: #000; stroke-width: 0.05; }
    .terrain-solid { stroke: #000; stroke-width: 0.05; }
    .model { stroke: #000; stroke-width: 0.05; }
    .path { fill: none; stroke-width: 0.12; }
    .vector { stroke-width: 0.1; }
    .los-ray { stroke-width: 0.08; stroke-dasharray: 0.2 0.2; }
    .lof-ray { stroke-width: 0.08; stroke-dasharray: 0.3 0.15; }
    .label { fill: #111; font-size: 0.6px; }
    .toggle { cursor: pointer; }
  ]]></style>
</defs>
<rect x="0" y="0" width="24" height="24" fill="#ffffff" stroke="#111" stroke-width="0.05"/>
<g id="legend">
<g class="toggle" onclick="toggleLayer('grid')"><rect x="0.4" y="0.14999999999999997" width="0.4" height="0.4" fill="#222" stroke="#222" stroke-width="0.05"/><text x="1.0" y="0.5499999999999999" class="label">0.5 MU Grid</text></g>
<g class="toggle" onclick="toggleLayer('delaunay')"><rect x="0.4" y="0.95" width="0.4" height="0.4" fill="#222" stroke="#222" stroke-width="0.05"/><text x="1.0" y="1.3499999999999999" class="label">Delaunay Mesh</text></g>
<g class="toggle" onclick="toggleLayer('area')"><rect x="0.4" y="1.7500000000000002" width="0.4" height="0.4" fill="#222" stroke="#222" stroke-width="0.05"/><text x="1.0" y="2.1500000000000004" class="label">Area Terrain</text></g>
<g class="toggle" onclick="toggleLayer('terrain')"><rect x="0.4" y="2.55" width="0.4" height="0.4" fill="#222" stroke="#222" stroke-width="0.05"/><text x="1.0" y="2.95" class="label">Other Terrain</text></g>
<g class="toggle" onclick="toggleLayer('models')"><rect x="0.4" y="3.3499999999999996" width="0.4" height="0.4" fill="#222" stroke="#222" stroke-width="0.05"/><text x="1.0" y="3.75" class="label">Models</text></g>
<g class="toggle" onclick="toggleLayer('paths')"><rect x="0.4" y="4.1499999999999995" width="0.4" height="0.4" fill="#222" stroke="#222" stroke-width="0.05"/><text x="1.0" y="4.55" class="label">Paths</text></g>
<g class="toggle" onclick="toggleLayer('vectors')"><rect x="0.4" y="4.949999999999999" width="0.4" height="0.4" fill="#222" stroke="#222" stroke-width="0.05"/><text x="1.0" y="5.35" class="label">Vectors</text></g>
<g class="toggle" onclick="toggleLayer('los')"><rect x="0.4" y="5.749999999999999" width="0.4" height="0.4" fill="#222" stroke="#222" stroke-width="0.05"/><text x="1.0" y="6.1499999999999995" class="label">LOS</text></g>
<g class="toggle" onclick="toggleLayer('lof')"><rect x="0.4" y="6.549999999999999" width="0.4" height="0.4" fill="#222" stroke="#222" stroke-width="0.05"/><text x="1.0" y="6.949999999999999" class="label">LOF</text></g>
</g>
<script><![CDATA[
      function toggleLayer(id) {
        var layer = document.getElementById('layer-' + id);
        if (!layer) return;
        if (layer.classList.contains('hidden')) {
          layer.classList.remove('hidden');
        } else {
          layer.classList.add('hidden');
        }
      }
    ]]></script>
<text x="0.4" y="23.6" class="label">Battlefield 24x24 density 25 blockLOS 75</text>
<g id="layer-grid" class="layer ">
<line x1="0" y1="0" x2="0" y2="24" class="grid-line"/>
<line x1="0.5" y1="0" x2="0.5" y2="24" class="grid-line"/>
<line x1="1" y1="0" x2="1" y2="24" class="grid-line"/>
<line x1="1.5" y1="0" x2="1.5" y2="24" class="grid-line"/>
<line x1="2" y1="0" x2="2" y2="24" class="grid-line"/>
<line x1="2.5" y1="0" x2="2.5" y2="24" class="grid-line"/>
<line x1="3" y1="0" x2="3" y2="24" class="grid-line"/>
<line x1="3.5" y1="0" x2="3.5" y2="24" class="grid-line"/>
<line x1="4" y1="0" x2="4" y2="24" class="grid-line"/>
<line x1="4.5" y1="0" x2="4.5" y2="24" class="grid-line"/>
<line x1="5" y1="0" x2="5" y2="24" class="grid-line"/>
<line x1="5.5" y1="0" x2="5.5" y2="24" class="grid-line"/>
<line x1="6" y1="0" x2="6" y2="24" class="grid-line"/>
<line x1="6.5" y1="0" x2="6.5" y2="24" class="grid-line"/>
<line x1="7" y1="0" x2="7" y2="24" class="grid-line"/>
<line x1="7.5" y1="0" x2="7.5" y2="24" class="grid-line"/>
<line x1="8" y1="0" x2="8" y2="24" class="grid-line"/>
<line x1="8.5" y1="0" x2="8.5" y2="24" class="grid-line"/>
<line x1="9" y1="0" x2="9" y2="24" class="grid-line"/>
<line x1="9.5" y1="0" x2="9.5" y2="24" class="grid-line"/>
<line x1="10" y1="0" x2="10" y2="24" class="grid-line"/>
<line x1="10.5" y1="0" x2="10.5" y2="24" class="grid-line"/>
<line x1="11" y1="0" x2="11" y2="24" class="grid-line"/>
<line x1="11.5" y1="0" x2="11.5" y2="24" class="grid-line"/>
<line x1="12" y1="0" x2="12" y2="24" class="grid-line"/>
<line x1="12.5" y1="0" x2="12.5" y2="24" class="grid-line"/>
<line x1="13" y1="0" x2="13" y2="24" class="grid-line"/>
<line x1="13.5" y1="0" x2="13.5" y2="24" class="grid-line"/>
<line x1="14" y1="0" x2="14" y2="24" class="grid-line"/>
<line x1="14.5" y1="0" x2="14.5" y2="24" class="grid-line"/>
<line x1="15" y1="0" x2="15" y2="24" class="grid-line"/>
<line x1="15.5" y1="0" x2="15.5" y2="24" class="grid-line"/>
<line x1="16" y1="0" x2="16" y2="24" class="grid-line"/>
<line x1="16.5" y1="0" x2="16.5" y2="24" class="grid-line"/>
<line x1="17" y1="0" x2="17" y2="24" class="grid-line"/>
<line x1="17.5" y1="0" x2="17.5" y2="24" class="grid-line"/>
<line x1="18" y1="0" x2="18" y2="24" class="grid-line"/>
<line x1="18.5" y1="0" x2="18.5" y2="24" class="grid-line"/>
<line x1="19" y1="0" x2="19" y2="24" class="grid-line"/>
<line x1="19.5" y1="0" x2="19.5" y2="24" class="grid-line"/>
<line x1="20" y1="0" x2="20" y2="24" class="grid-line"/>
<line x1="20.5" y1="0" x2="20.5" y2="24" class="grid-line"/>
<line x1="21" y1="0" x2="21" y2="24" class="grid-line"/>
<line x1="21.5" y1="0" x2="21.5" y2="24" class="grid-line"/>
<line x1="22" y1="0" x2="22" y2="24" class="grid-line"/>
<line x1="22.5" y1="0" x2="22.5" y2="24" class="grid-line"/>
<line x1="23" y1="0" x2="23" y2="24" class="grid-line"/>
<line x1="23.5" y1="0" x2="23.5" y2="24" class="grid-line"/>
<line x1="24" y1="0" x2="24" y2="24" class="grid-line"/>
<line x1="0" y1="0" x2="24" y2="0" class="grid-line"/>
<line x1="0" y1="0.5" x2="24" y2="0.5" class="grid-line"/>
<line x1="0" y1="1" x2="24" y2="1" class="grid-line"/>
<line x1="0" y1="1.5" x2="24" y2="1.5" class="grid-line"/>
<line x1="0" y1="2" x2="24" y2="2" class="grid-line"/>
<line x1="0" y1="2.5" x2="24" y2="2.5" class="grid-line"/>
<line x1="0" y1="3" x2="24" y2="3" class="grid-line"/>
<line x1="0" y1="3.5" x2="24" y2="3.5" class="grid-line"/>
<line x1="0" y1="4" x2="24" y2="4" class="grid-line"/>
<line x1="0" y1="4.5" x2="24" y2="4.5" class="grid-line"/>
<line x1="0" y1="5" x2="24" y2="5" class="grid-line"/>
<line x1="0" y1="5.5" x2="24" y2="5.5" class="grid-line"/>
<line x1="0" y1="6" x2="24" y2="6" class="grid-line"/>
<line x1="0" y1="6.5" x2="24" y2="6.5" class="grid-line"/>
<line x1="0" y1="7" x2="24" y2="7" class="grid-line"/>
<line x1="0" y1="7.5" x2="24" y2="7.5" class="grid-line"/>
<line x1="0" y1="8" x2="24" y2="8" class="grid-line"/>
<line x1="0" y1="8.5" x2="24" y2="8.5" class="grid-line"/>
<line x1="0" y1="9" x2="24" y2="9" class="grid-line"/>
<line x1="0" y1="9.5" x2="24" y2="9.5" class="grid-line"/>
<line x1="0" y1="10" x2="24" y2="10" class="grid-line"/>
<line x1="0" y1="10.5" x2="24" y2="10.5" class="grid-line"/>
<line x1="0" y1="11" x2="24" y2="11" class="grid-line"/>
<line x1="0" y1="11.5" x2="24" y2="11.5" class="grid-line"/>
<line x1="0" y1="12" x2="24" y2="12" class="grid-line"/>
<line x1="0" y1="12.5" x2="24" y2="12.5" class="grid-line"/>
<line x1="0" y1="13" x2="24" y2="13" class="grid-line"/>
<line x1="0" y1="13.5" x2="24" y2="13.5" class="grid-line"/>
<line x1="0" y1="14" x2="24" y2="14" class="grid-line"/>
<line x1="0" y1="14.5" x2="24" y2="14.5" class="grid-line"/>
<line x1="0" y1="15" x2="24" y2="15" class="grid-line"/>
<line x1="0" y1="15.5" x2="24" y2="15.5" class="grid-line"/>
<line x1="0" y1="16" x2="24" y2="16" class="grid-line"/>
<line x1="0" y1="16.5" x2="24" y2="16.5" class="grid-line"/>
<line x1="0" y1="17" x2="24" y2="17" class="grid-line"/>
<line x1="0" y1="17.5" x2="24" y2="17.5" class="grid-line"/>
<line x1="0" y1="18" x2="24" y2="18" class="grid-line"/>
<line x1="0" y1="18.5" x2="24" y2="18.5" class="grid-line"/>
<line x1="0" y1="19" x2="24" y2="19" class="grid-line"/>
<line x1="0" y1="19.5" x2="24" y2="19.5" class="grid-line"/>
<line x1="0" y1="20" x2="24" y2="20" class="grid-line"/>
<line x1="0" y1="20.5" x2="24" y2="20.5" class="grid-line"/>
<line x1="0" y1="21" x2="24" y2="21" class="grid-line"/>
<line x1="0" y1="21.5" x2="24" y2="21.5" class="grid-line"/>
<line x1="0" y1="22" x2="24" y2="22" class="grid-line"/>
<line x1="0" y1="22.5" x2="24" y2="22.5" class="grid-line"/>
<line x1="0" y1="23" x2="24" y2="23" class="grid-line"/>
<line x1="0" y1="23.5" x2="24" y2="23.5" class="grid-line"/>
<line x1="0" y1="24" x2="24" y2="24" class="grid-line"/>
</g>
<g id="layer-delaunay" class="layer ">
<line x1="10.64233042574812" y1="12.351580667395053" x2="10.592380214495805" y2="12.730990189946311" class="delaunay-line"/>
<line x1="10.592380214495805" y1="12.730990189946311" x2="10.655089943290491" y2="12.54625328605634" class="delaunay-line"/>
<line x1="10.655089943290491" y1="12.54625328605634" x2="10.64233042574812" y2="12.351580667395053" class="delaunay-line"/>
<line x1="10.64233042574812" y1="12.351580667395053" x2="10.409367512603584" y2="12.047977488054094" class="delaunay-line"/>
<line x1="10.409367512603584" y1="12.047977488054094" x2="10.592380214495805" y2="12.730990189946311" class="delaunay-line"/>
<line x1="10.592380214495805" y1="12.730990189946311" x2="10.64233042574812" y2="12.351580667395053" class="delaunay-line"/>
<line x1="10.64233042574812" y1="12.351580667395053" x2="10.556044182749204" y2="12.176609475441952" class="delaunay-line"/>
<line x1="10.556044182749204" y1="12.176609475441952" x2="10.409367512603584" y2="12.047977488054094" class="delaunay-line"/>
<line x1="10.409367512603584" y1="12.047977488054094" x2="10.64233042574812" y2="12.351580667395053" class="delaunay-line"/>
<line x1="10.288777035154846" y1="12.963953103090848" x2="10.463748227107947" y2="12.877666860091932" class="delaunay-line"/>
<line x1="10.463748227107947" y1="12.877666860091932" x2="10.592380214495805" y2="12.730990189946311" class="delaunay-line"/>
<line x1="10.592380214495805" y1="12.730990189946311" x2="10.288777035154846" y2="12.963953103090848" class="delaunay-line"/>
<line x1="10.09410441649356" y1="12.976712620633219" x2="10.288777035154846" y2="12.963953103090848" class="delaunay-line"/>
<line x1="10.288777035154846" y1="12.963953103090848" x2="9.909367512603588" y2="12.914002891838532" class="delaunay-line"/>
<line x1="9.909367512603588" y1="12.914002891838532" x2="10.09410441649356" y2="12.976712620633219" class="delaunay-line"/>
<line x1="10.288777035154846" y1="12.963953103090848" x2="10.592380214495805" y2="12.730990189946311" class="delaunay-line"/>
<line x1="10.592380214495805" y1="12.730990189946311" x2="9.909367512603588" y2="12.914002891838532" class="delaunay-line"/>
<line x1="9.909367512603588" y1="12.914002891838532" x2="10.288777035154846" y2="12.963953103090848" class="delaunay-line"/>
<line x1="10.224630608713612" y1="11.985267759259408" x2="10.029957990052326" y2="11.998027276801778" class="delaunay-line"/>
<line x1="10.029957990052326" y1="11.998027276801778" x2="10.409367512603584" y2="12.047977488054094" class="delaunay-line"/>
<line x1="10.409367512603584" y1="12.047977488054094" x2="10.224630608713612" y2="11.985267759259408" class="delaunay-line"/>
<line x1="9.909367512603588" y1="12.914002891838532" x2="10.592380214495805" y2="12.730990189946311" class="delaunay-line"/>
<line x1="10.592380214495805" y1="12.730990189946311" x2="10.409367512603584" y2="12.047977488054094" class="delaunay-line"/>
<line x1="10.409367512603584" y1="12.047977488054094" x2="9.909367512603588" y2="12.914002891838532" class="delaunay-line"/>
<line x1="9.726354810711367" y1="12.230990189946315" x2="9.909367512603588" y2="12.914002891838532" class="delaunay-line"/>
<line x1="9.909367512603588" y1="12.914002891838532" x2="10.409367512603584" y2="12.047977488054094" class="delaunay-line"/>
<line x1="10.409367512603584" y1="12.047977488054094" x2="9.726354810711367" y2="12.230990189946315" class="delaunay-line"/>
<line x1="10.029957990052326" y1="11.998027276801778" x2="9.726354810711367" y2="12.230990189946315" class="delaunay-line"/>
<line x1="9.726354810711367" y1="12.230990189946315" x2="10.409367512603584" y2="12.047977488054094" class="delaunay-line"/>
<line x1="10.409367512603584" y1="12.047977488054094" x2="10.029957990052326" y2="11.998027276801778" class="delaunay-line"/>
<line x1="9.854986798099224" y1="12.084313519800695" x2="9.726354810711367" y2="12.230990189946315" class="delaunay-line"/>
<line x1="9.726354810711367" y1="12.230990189946315" x2="10.029957990052326" y2="11.998027276801778" class="delaunay-line"/>
<line x1="10.029957990052326" y1="11.998027276801778" x2="9.854986798099224" y2="12.084313519800695" class="delaunay-line"/>
<line x1="9.726354810711367" y1="12.230990189946315" x2="9.676404599459051" y2="12.610399712497573" class="delaunay-line"/>
<line x1="9.676404599459051" y1="12.610399712497573" x2="9.909367512603588" y2="12.914002891838532" class="delaunay-line"/>
<line x1="9.909367512603588" y1="12.914002891838532" x2="9.726354810711367" y2="12.230990189946315" class="delaunay-line"/>
<line x1="9.676404599459051" y1="12.610399712497573" x2="9.762690842457967" y2="12.785370904450675" class="delaunay-line"/>
<line x1="9.762690842457967" y1="12.785370904450675" x2="9.909367512603588" y2="12.914002891838532" class="delaunay-line"/>
<line x1="9.909367512603588" y1="12.914002891838532" x2="9.676404599459051" y2="12.610399712497573" class="delaunay-line"/>
<line x1="9.66364508191668" y1="12.415727093836287" x2="9.676404599459051" y2="12.610399712497573" class="delaunay-line"/>
<line x1="9.676404599459051" y1="12.610399712497573" x2="9.726354810711367" y2="12.230990189946315" class="delaunay-line"/>
<line x1="9.726354810711367" y1="12.230990189946315" x2="9.66364508191668" y2="12.415727093836287" class="delaunay-line"/>
<line x1="10.556044182749204" y1="12.176609475441952" x2="14.252980982522097" y2="6.5515418597767985" class="delaunay-line"/>
<line x1="14.252980982522097" y1="6.5515418597767985" x2="10.409367512603584" y2="12.047977488054094" class="delaunay-line"/>
<line x1="10.409367512603584" y1="12.047977488054094" x2="10.556044182749204" y2="12.176609475441952" class="delaunay-line"/>
<line x1="10.409367512603584" y1="12.047977488054094" x2="14.10630431237648" y2="6.4229098723889395" class="delaunay-line"/>
<line x1="14.10630431237648" y1="6.4229098723889395" x2="10.224630608713612" y2="11.985267759259408" class="delaunay-line"/>
<line x1="10.224630608713612" y1="11.985267759259408" x2="10.409367512603584" y2="12.047977488054094" class="delaunay-line"/>
<line x1="10.224630608713612" y1="11.985267759259408" x2="14.020018069377562" y2="6.247938680435839" class="delaunay-line"/>
<line x1="14.020018069377562" y1="6.247938680435839" x2="10.029957990052326" y2="11.998027276801778" class="delaunay-line"/>
<line x1="10.029957990052326" y1="11.998027276801778" x2="10.224630608713612" y2="11.985267759259408" class="delaunay-line"/>
<line x1="10.029957990052326" y1="11.998027276801778" x2="14.007258551835191" y2="6.053266061774554" class="delaunay-line"/>
<line x1="14.007258551835191" y1="6.053266061774554" x2="9.854986798099224" y2="12.084313519800695" class="delaunay-line"/>
<line x1="9.854986798099224" y1="12.084313519800695" x2="10.029957990052326" y2="11.998027276801778" class="delaunay-line"/>
<line x1="9.854986798099224" y1="12.084313519800695" x2="0" y2="0" class="delaunay-line"/>
<line x1="0" y1="0" x2="9.726354810711367" y2="12.230990189946315" class="delaunay-line"/>
<line x1="9.726354810711367" y1="12.230990189946315" x2="9.854986798099224" y2="12.084313519800695" class="delaunay-line"/>
<line x1="14.43771788641207" y1="6.614251588571483" x2="14.252980982522097" y2="6.5515418597767985" class="delaunay-line"/>
<line x1="14.252980982522097" y1="6.5515418597767985" x2="10.556044182749204" y2="12.176609475441952" class="delaunay-line"/>
<line x1="10.556044182749204" y1="12.176609475441952" x2="14.43771788641207" y2="6.614251588571483" class="delaunay-line"/>
<line x1="14.43771788641207" y1="6.614251588571483" x2="10.556044182749204" y2="12.176609475441952" class="delaunay-line"/>
<line x1="10.556044182749204" y1="12.176609475441952" x2="10.64233042574812" y2="12.351580667395053" class="delaunay-line"/>
<line x1="10.64233042574812" y1="12.351580667395053" x2="14.43771788641207" y2="6.614251588571483" class="delaunay-line"/>
<line x1="14.43771788641207" y1="6.614251588571483" x2="10.64233042574812" y2="12.351580667395053" class="delaunay-line"/>
<line x1="10.64233042574812" y1="12.351580667395053" x2="14.632390505073358" y2="6.601492071029112" class="delaunay-line"/>
<line x1="14.632390505073358" y1="6.601492071029112" x2="14.43771788641207" y2="6.614251588571483" class="delaunay-line"/>
<line x1="14.252980982522097" y1="6.5515418597767985" x2="14.10630431237648" y2="6.4229098723889395" class="delaunay-line"/>
<line x1="14.10630431237648" y1="6.4229098723889395" x2="10.409367512603584" y2="12.047977488054094" class="delaunay-line"/>
<line x1="10.409367512603584" y1="12.047977488054094" x2="14.252980982522097" y2="6.5515418597767985" class="delaunay-line"/>
<line x1="14.632390505073358" y1="6.601492071029112" x2="10.64233042574812" y2="12.351580667395053" class="delaunay-line"/>
<line x1="10.64233042574812" y1="12.351580667395053" x2="10.655089943290491" y2="12.54625328605634" class="delaunay-line"/>
<line x1="10.655089943290491" y1="12.54625328605634" x2="14.632390505073358" y2="6.601492071029112" class="delaunay-line"/>
<line x1="14.252980982522097" y1="6.5515418597767985" x2="14.43771788641207" y2="6.614251588571483" class="delaunay-line"/>
<line x1="14.43771788641207" y1="6.614251588571483" x2="14.10630431237648" y2="6.4229098723889395" class="delaunay-line"/>
<line x1="14.10630431237648" y1="6.4229098723889395" x2="14.252980982522097" y2="6.5515418597767985" class="delaunay-line"/>
<line x1="14.007258551835191" y1="6.053266061774554" x2="14.020018069377562" y2="6.247938680435839" class="delaunay-line"/>
<line x1="14.020018069377562" y1="6.247938680435839" x2="14.10630431237648" y2="6.4229098723889395" class="delaunay-line"/>
<line x1="14.10630431237648" y1="6.4229098723889395" x2="14.007258551835191" y2="6.053266061774554" class="delaunay-line"/>
<line x1="14.10630431237648" y1="6.4229098723889395" x2="14.020018069377562" y2="6.247938680435839" class="delaunay-line"/>
<line x1="14.020018069377562" y1="6.247938680435839" x2="10.224630608713612" y2="11.985267759259408" class="delaunay-line"/>
<line x1="10.224630608713612" y1="11.985267759259408" x2="14.10630431237648" y2="6.4229098723889395" class="delaunay-line"/>
<line x1="14.807361697026456" y1="6.515205828030197" x2="14.632390505073358" y2="6.601492071029112" class="delaunay-line"/>
<line x1="14.632390505073358" y1="6.601492071029112" x2="10.655089943290491" y2="12.54625328605634" class="delaunay-line"/>
<line x1="10.655089943290491" y1="12.54625328605634" x2="14.807361697026456" y2="6.515205828030197" class="delaunay-line"/>
<line x1="14.43771788641207" y1="6.614251588571483" x2="14.632390505073358" y2="6.601492071029112" class="delaunay-line"/>
<line x1="14.632390505073358" y1="6.601492071029112" x2="14.10630431237648" y2="6.4229098723889395" class="delaunay-line"/>
<line x1="14.10630431237648" y1="6.4229098723889395" x2="14.43771788641207" y2="6.614251588571483" class="delaunay-line"/>
<line x1="14.069968280629878" y1="5.868529157884579" x2="14.007258551835191" y2="6.053266061774554" class="delaunay-line"/>
<line x1="14.007258551835191" y1="6.053266061774554" x2="14.10630431237648" y2="6.4229098723889395" class="delaunay-line"/>
<line x1="14.10630431237648" y1="6.4229098723889395" x2="14.069968280629878" y2="5.868529157884579" class="delaunay-line"/>
<line x1="14.020018069377562" y1="6.247938680435839" x2="14.007258551835191" y2="6.053266061774554" class="delaunay-line"/>
<line x1="14.007258551835191" y1="6.053266061774554" x2="10.029957990052326" y2="11.998027276801778" class="delaunay-line"/>
<line x1="10.029957990052326" y1="11.998027276801778" x2="14.020018069377562" y2="6.247938680435839" class="delaunay-line"/>
<line x1="24" y1="24" x2="14.807361697026456" y2="6.515205828030197" class="delaunay-line"/>
<line x1="14.807361697026456" y1="6.515205828030197" x2="10.655089943290491" y2="12.54625328605634" class="delaunay-line"/>
<line x1="10.655089943290491" y1="12.54625328605634" x2="24" y2="24" class="delaunay-line"/>
<line x1="14.373571459970835" y1="5.635566244740046" x2="14.069968280629878" y2="5.868529157884579" class="delaunay-line"/>
<line x1="14.069968280629878" y1="5.868529157884579" x2="14.10630431237648" y2="6.4229098723889395" class="delaunay-line"/>
<line x1="14.10630431237648" y1="6.4229098723889395" x2="14.373571459970835" y2="5.635566244740046" class="delaunay-line"/>
<line x1="14.373571459970835" y1="5.635566244740046" x2="14.10630431237648" y2="6.4229098723889395" class="delaunay-line"/>
<line x1="14.10630431237648" y1="6.4229098723889395" x2="14.632390505073358" y2="6.601492071029112" class="delaunay-line"/>
<line x1="14.632390505073358" y1="6.601492071029112" x2="14.373571459970835" y2="5.635566244740046" class="delaunay-line"/>
<line x1="14.007258551835191" y1="6.053266061774554" x2="0" y2="0" class="delaunay-line"/>
<line x1="0" y1="0" x2="9.854986798099224" y2="12.084313519800695" class="delaunay-line"/>
<line x1="9.854986798099224" y1="12.084313519800695" x2="14.007258551835191" y2="6.053266061774554" class="delaunay-line"/>
<line x1="24" y1="24" x2="14.935993684414315" y2="6.368529157884579" class="delaunay-line"/>
<line x1="14.935993684414315" y1="6.368529157884579" x2="14.807361697026456" y2="6.515205828030197" class="delaunay-line"/>
<line x1="14.807361697026456" y1="6.515205828030197" x2="24" y2="24" class="delaunay-line"/>
<line x1="14.807361697026456" y1="6.515205828030197" x2="14.935993684414315" y2="6.368529157884579" class="delaunay-line"/>
<line x1="14.935993684414315" y1="6.368529157884579" x2="14.632390505073358" y2="6.601492071029112" class="delaunay-line"/>
<line x1="14.632390505073358" y1="6.601492071029112" x2="14.807361697026456" y2="6.515205828030197" class="delaunay-line"/>
<line x1="14.373571459970835" y1="5.635566244740046" x2="14.198600268017737" y2="5.7218524877389605" class="delaunay-line"/>
<line x1="14.198600268017737" y1="5.7218524877389605" x2="14.069968280629878" y2="5.868529157884579" class="delaunay-line"/>
<line x1="14.069968280629878" y1="5.868529157884579" x2="14.373571459970835" y2="5.635566244740046" class="delaunay-line"/>
<line x1="14.899657652667713" y1="5.814148443380218" x2="14.373571459970835" y2="5.635566244740046" class="delaunay-line"/>
<line x1="14.373571459970835" y1="5.635566244740046" x2="14.632390505073358" y2="6.601492071029112" class="delaunay-line"/>
<line x1="14.632390505073358" y1="6.601492071029112" x2="14.899657652667713" y2="5.814148443380218" class="delaunay-line"/>
<line x1="14.568244078632123" y1="5.622806727197674" x2="14.373571459970835" y2="5.635566244740046" class="delaunay-line"/>
<line x1="14.373571459970835" y1="5.635566244740046" x2="14.899657652667713" y2="5.814148443380218" class="delaunay-line"/>
<line x1="14.899657652667713" y1="5.814148443380218" x2="14.568244078632123" y2="5.622806727197674" class="delaunay-line"/>
<line x1="14.899657652667713" y1="5.814148443380218" x2="14.632390505073358" y2="6.601492071029112" class="delaunay-line"/>
<line x1="14.632390505073358" y1="6.601492071029112" x2="14.935993684414315" y2="6.368529157884579" class="delaunay-line"/>
<line x1="14.935993684414315" y1="6.368529157884579" x2="14.899657652667713" y2="5.814148443380218" class="delaunay-line"/>
<line x1="14.899657652667713" y1="5.814148443380218" x2="14.935993684414315" y2="6.368529157884579" class="delaunay-line"/>
<line x1="14.935993684414315" y1="6.368529157884579" x2="14.998703413209002" y2="6.1837922539946035" class="delaunay-line"/>
<line x1="14.998703413209002" y1="6.1837922539946035" x2="14.899657652667713" y2="5.814148443380218" class="delaunay-line"/>
<line x1="14.985943895666631" y1="5.989119635333319" x2="14.899657652667713" y2="5.814148443380218" class="delaunay-line"/>
<line x1="14.899657652667713" y1="5.814148443380218" x2="14.998703413209002" y2="6.1837922539946035" class="delaunay-line"/>
<line x1="14.998703413209002" y1="6.1837922539946035" x2="14.985943895666631" y2="5.989119635333319" class="delaunay-line"/>
<line x1="14.899657652667713" y1="5.814148443380218" x2="14.752980982522097" y2="5.685516455992359" class="delaunay-line"/>
<line x1="14.752980982522097" y1="5.685516455992359" x2="14.568244078632123" y2="5.622806727197674" class="delaunay-line"/>
<line x1="14.568244078632123" y1="5.622806727197674" x2="14.899657652667713" y2="5.814148443380218" class="delaunay-line"/>
<line x1="9.66364508191668" y1="12.415727093836287" x2="0" y2="24" class="delaunay-line"/>
<line x1="0" y1="24" x2="9.676404599459051" y2="12.610399712497573" class="delaunay-line"/>
<line x1="9.676404599459051" y1="12.610399712497573" x2="9.66364508191668" y2="12.415727093836287" class="delaunay-line"/>
<line x1="9.676404599459051" y1="12.610399712497573" x2="0" y2="24" class="delaunay-line"/>
<line x1="0" y1="24" x2="9.762690842457967" y2="12.785370904450675" class="delaunay-line"/>
<line x1="9.762690842457967" y1="12.785370904450675" x2="9.676404599459051" y2="12.610399712497573" class="delaunay-line"/>
<line x1="9.762690842457967" y1="12.785370904450675" x2="0" y2="24" class="delaunay-line"/>
<line x1="0" y1="24" x2="9.909367512603588" y2="12.914002891838532" class="delaunay-line"/>
<line x1="9.909367512603588" y1="12.914002891838532" x2="9.762690842457967" y2="12.785370904450675" class="delaunay-line"/>
<line x1="9.909367512603588" y1="12.914002891838532" x2="0" y2="24" class="delaunay-line"/>
<line x1="0" y1="24" x2="10.09410441649356" y2="12.976712620633219" class="delaunay-line"/>
<line x1="10.09410441649356" y1="12.976712620633219" x2="9.909367512603588" y2="12.914002891838532" class="delaunay-line"/>
<line x1="10.09410441649356" y1="12.976712620633219" x2="0" y2="24" class="delaunay-line"/>
<line x1="0" y1="24" x2="10.288777035154846" y2="12.963953103090848" class="delaunay-line"/>
<line x1="10.288777035154846" y1="12.963953103090848" x2="10.09410441649356" y2="12.976712620633219" class="delaunay-line"/>
<line x1="10.288777035154846" y1="12.963953103090848" x2="24" y2="24" class="delaunay-line"/>
<line x1="24" y1="24" x2="10.463748227107947" y2="12.877666860091932" class="delaunay-line"/>
<line x1="10.463748227107947" y1="12.877666860091932" x2="10.288777035154846" y2="12.963953103090848" class="delaunay-line"/>
<line x1="0" y1="0" x2="0" y2="24" class="delaunay-line"/>
<line x1="0" y1="24" x2="9.66364508191668" y2="12.415727093836287" class="delaunay-line"/>
<line x1="9.66364508191668" y1="12.415727093836287" x2="0" y2="0" class="delaunay-line"/>
<line x1="0" y1="0" x2="9.66364508191668" y2="12.415727093836287" class="delaunay-line"/>
<line x1="9.66364508191668" y1="12.415727093836287" x2="9.726354810711367" y2="12.230990189946315" class="delaunay-line"/>
<line x1="9.726354810711367" y1="12.230990189946315" x2="0" y2="0" class="delaunay-line"/>
<line x1="14.198600268017737" y1="5.7218524877389605" x2="0" y2="0" class="delaunay-line"/>
<line x1="0" y1="0" x2="14.069968280629878" y2="5.868529157884579" class="delaunay-line"/>
<line x1="14.069968280629878" y1="5.868529157884579" x2="14.198600268017737" y2="5.7218524877389605" class="delaunay-line"/>
<line x1="14.069968280629878" y1="5.868529157884579" x2="0" y2="0" class="delaunay-line"/>
<line x1="0" y1="0" x2="14.007258551835191" y2="6.053266061774554" class="delaunay-line"/>
<line x1="14.007258551835191" y1="6.053266061774554" x2="14.069968280629878" y2="5.868529157884579" class="delaunay-line"/>
<line x1="14.373571459970835" y1="5.635566244740046" x2="0" y2="0" class="delaunay-line"/>
<line x1="0" y1="0" x2="14.198600268017737" y2="5.7218524877389605" class="delaunay-line"/>
<line x1="14.198600268017737" y1="5.7218524877389605" x2="14.373571459970835" y2="5.635566244740046" class="delaunay-line"/>
<line x1="24" y1="0" x2="0" y2="0" class="delaunay-line"/>
<line x1="0" y1="0" x2="14.373571459970835" y2="5.635566244740046" class="delaunay-line"/>
<line x1="14.373571459970835" y1="5.635566244740046" x2="24" y2="0" class="delaunay-line"/>
<line x1="24" y1="0" x2="14.373571459970835" y2="5.635566244740046" class="delaunay-line"/>
<line x1="14.373571459970835" y1="5.635566244740046" x2="14.568244078632123" y2="5.622806727197674" class="delaunay-line"/>
<line x1="14.568244078632123" y1="5.622806727197674" x2="24" y2="0" class="delaunay-line"/>
<line x1="10.463748227107947" y1="12.877666860091932" x2="24" y2="24" class="delaunay-line"/>
<line x1="24" y1="24" x2="10.592380214495805" y2="12.730990189946311" class="delaunay-line"/>
<line x1="10.592380214495805" y1="12.730990189946311" x2="10.463748227107947" y2="12.877666860091932" class="delaunay-line"/>
<line x1="10.592380214495805" y1="12.730990189946311" x2="24" y2="24" class="delaunay-line"/>
<line x1="24" y1="24" x2="10.655089943290491" y2="12.54625328605634" class="delaunay-line"/>
<line x1="10.655089943290491" y1="12.54625328605634" x2="10.592380214495805" y2="12.730990189946311" class="delaunay-line"/>
<line x1="14.935993684414315" y1="6.368529157884579" x2="24" y2="0" class="delaunay-line"/>
<line x1="24" y1="0" x2="14.998703413209002" y2="6.1837922539946035" class="delaunay-line"/>
<line x1="14.998703413209002" y1="6.1837922539946035" x2="14.935993684414315" y2="6.368529157884579" class="delaunay-line"/>
<line x1="14.998703413209002" y1="6.1837922539946035" x2="24" y2="0" class="delaunay-line"/>
<line x1="24" y1="0" x2="14.985943895666631" y2="5.989119635333319" class="delaunay-line"/>
<line x1="14.985943895666631" y1="5.989119635333319" x2="14.998703413209002" y2="6.1837922539946035" class="delaunay-line"/>
<line x1="14.985943895666631" y1="5.989119635333319" x2="24" y2="0" class="delaunay-line"/>
<line x1="24" y1="0" x2="14.899657652667713" y2="5.814148443380218" class="delaunay-line"/>
<line x1="14.899657652667713" y1="5.814148443380218" x2="14.985943895666631" y2="5.989119635333319" class="delaunay-line"/>
<line x1="0" y1="24" x2="24" y2="24" class="delaunay-line"/>
<line x1="24" y1="24" x2="10.288777035154846" y2="12.963953103090848" class="delaunay-line"/>
<line x1="10.288777035154846" y1="12.963953103090848" x2="0" y2="24" class="delaunay-line"/>
<line x1="14.899657652667713" y1="5.814148443380218" x2="24" y2="0" class="delaunay-line"/>
<line x1="24" y1="0" x2="14.752980982522097" y2="5.685516455992359" class="delaunay-line"/>
<line x1="14.752980982522097" y1="5.685516455992359" x2="14.899657652667713" y2="5.814148443380218" class="delaunay-line"/>
<line x1="14.752980982522097" y1="5.685516455992359" x2="24" y2="0" class="delaunay-line"/>
<line x1="24" y1="0" x2="14.568244078632123" y2="5.622806727197674" class="delaunay-line"/>
<line x1="14.568244078632123" y1="5.622806727197674" x2="14.752980982522097" y2="5.685516455992359" class="delaunay-line"/>
<line x1="24" y1="24" x2="24" y2="0" class="delaunay-line"/>
<line x1="24" y1="0" x2="14.935993684414315" y2="6.368529157884579" class="delaunay-line"/>
<line x1="14.935993684414315" y1="6.368529157884579" x2="24" y2="24" class="delaunay-line"/>
</g>
<g id="layer-area" class="layer ">
</g>
<g id="layer-terrain" class="layer ">
<polygon points="9.676404599459051,12.610399712497573 9.66364508191668,12.415727093836287 9.726354810711367,12.230990189946315 9.854986798099224,12.084313519800695 10.029957990052326,11.998027276801778 10.224630608713612,11.985267759259408 10.409367512603584,12.047977488054094 10.556044182749204,12.176609475441952 10.64233042574812,12.351580667395053 10.655089943290491,12.54625328605634 10.592380214495805,12.730990189946311 10.463748227107947,12.877666860091932 10.288777035154846,12.963953103090848 10.09410441649356,12.976712620633219 9.909367512603588,12.914002891838532 9.762690842457967,12.785370904450675" fill="Dark Green" class="terrain-solid"/>
<polygon points="14.252980982522097,6.5515418597767985 14.10630431237648,6.4229098723889395 14.020018069377562,6.247938680435839 14.007258551835191,6.053266061774554 14.069968280629878,5.868529157884579 14.198600268017737,5.7218524877389605 14.373571459970835,5.635566244740046 14.568244078632123,5.622806727197674 14.752980982522097,5.685516455992359 14.899657652667713,5.814148443380218 14.985943895666631,5.989119635333319 14.998703413209002,6.1837922539946035 14.935993684414315,6.368529157884579 14.807361697026456,6.515205828030197 14.632390505073358,6.601492071029112 14.43771788641207,6.614251588571483" fill="Dark Green" class="terrain-solid"/>
</g>
<g id="layer-models" class="layer ">
</g>
<g id="layer-paths" class="layer ">
</g>
<g id="layer-vectors" class="layer ">
</g>
<g id="layer-los" class="layer ">
</g>
<g id="layer-lof" class="layer ">
</g>

</svg>