<svg xmlns="http://www.w3.org/2000/svg" viewBox="0 0 24 24" width="960" height="960" font-family="Arial" font-size="0.6">
<defs>
  <style><![CDATA[
    .layer { display: inline; }
    .layer.hidden { display: none; }
    .grid-line { stroke: #999; stroke-width: 0.02; opacity: 0.2; }
    .delaunay-line { stroke: #4a6fa5; stroke-width: 0.03; opacity: 0.3; }
    .terrain-area { stroke: #000; stroke-width: 0.05; }
    .terrain-solid { stroke: #000; stroke-width: 0.05; }
    .model { stroke: #ff0000; stroke-width: 2; vector-effect: non-scaling-stroke; }
    .path { fill: none; stroke-width: 0.12; }
    .vector { stroke-width: 0.1; }
    .los-ray { stroke-width: 0.08; stroke-dasharray: 0.2 0.2; }
    .lof-ray { stroke-width: 0.08; stroke-dasharray: 0.3 0.15; }
    .label { fill: #111 !important; font-size: 0.6px; }
    .toggle { cursor: pointer; }
    .toggle.disabled { cursor: default; }
    .toggle.disabled rect { stroke: #ccc; fill: #fff; }
    .toggle.disabled text { fill: #ccc; }
#layer-area { fill: #C49A6C; }
#layer-building { fill: #000000; }
#layer-shrub { fill: #006400; }
  ]]></style>
</defs>
<rect x="0" y="0" width="24" height="24" fill="#ffffff" stroke="#111" stroke-width="0.05"/>
<script><![CDATA[
      function toggleLayer(id) {
        var layer = document.getElementById('layer-' + id);
        if (!layer) return;
        if (layer.classList.contains('hidden')) {
          layer.classList.remove('hidden');
        } else {
          layer.classList.add('hidden');
        }
      }
    ]]></script>
<text x="0.4" y="23.6" class="label">Battlefield 24x24 density 25 blockLOS 75</text>
<g id="layer-deployment" class="layer ">
<rect x="0" y="22" width="24" height="2" fill="#ff0000" opacity="0.2"/>
<rect x="0" y="0" width="24" height="2" fill="#0000ff" opacity="0.2"/>
</g>
<g id="layer-grid" class="layer ">
<line x1="0" y1="0" x2="0" y2="24" class="grid-line"/>
<line x1="0.5" y1="0" x2="0.5" y2="24" class="grid-line"/>
<line x1="1" y1="0" x2="1" y2="24" class="grid-line"/>
<line x1="1.5" y1="0" x2="1.5" y2="24" class="grid-line"/>
<line x1="2" y1="0" x2="2" y2="24" class="grid-line"/>
<line x1="2.5" y1="0" x2="2.5" y2="24" class="grid-line"/>
<line x1="3" y1="0" x2="3" y2="24" class="grid-line"/>
<line x1="3.5" y1="0" x2="3.5" y2="24" class="grid-line"/>
<line x1="4" y1="0" x2="4" y2="24" class="grid-line"/>
<line x1="4.5" y1="0" x2="4.5" y2="24" class="grid-line"/>
<line x1="5" y1="0" x2="5" y2="24" class="grid-line"/>
<line x1="5.5" y1="0" x2="5.5" y2="24" class="grid-line"/>
<line x1="6" y1="0" x2="6" y2="24" class="grid-line"/>
<line x1="6.5" y1="0" x2="6.5" y2="24" class="grid-line"/>
<line x1="7" y1="0" x2="7" y2="24" class="grid-line"/>
<line x1="7.5" y1="0" x2="7.5" y2="24" class="grid-line"/>
<line x1="8" y1="0" x2="8" y2="24" class="grid-line"/>
<line x1="8.5" y1="0" x2="8.5" y2="24" class="grid-line"/>
<line x1="9" y1="0" x2="9" y2="24" class="grid-line"/>
<line x1="9.5" y1="0" x2="9.5" y2="24" class="grid-line"/>
<line x1="10" y1="0" x2="10" y2="24" class="grid-line"/>
<line x1="10.5" y1="0" x2="10.5" y2="24" class="grid-line"/>
<line x1="11" y1="0" x2="11" y2="24" class="grid-line"/>
<line x1="11.5" y1="0" x2="11.5" y2="24" class="grid-line"/>
<line x1="12" y1="0" x2="12" y2="24" class="grid-line"/>
<line x1="12.5" y1="0" x2="12.5" y2="24" class="grid-line"/>
<line x1="13" y1="0" x2="13" y2="24" class="grid-line"/>
<line x1="13.5" y1="0" x2="13.5" y2="24" class="grid-line"/>
<line x1="14" y1="0" x2="14" y2="24" class="grid-line"/>
<line x1="14.5" y1="0" x2="14.5" y2="24" class="grid-line"/>
<line x1="15" y1="0" x2="15" y2="24" class="grid-line"/>
<line x1="15.5" y1="0" x2="15.5" y2="24" class="grid-line"/>
<line x1="16" y1="0" x2="16" y2="24" class="grid-line"/>
<line x1="16.5" y1="0" x2="16.5" y2="24" class="grid-line"/>
<line x1="17" y1="0" x2="17" y2="24" class="grid-line"/>
<line x1="17.5" y1="0" x2="17.5" y2="24" class="grid-line"/>
<line x1="18" y1="0" x2="18" y2="24" class="grid-line"/>
<line x1="18.5" y1="0" x2="18.5" y2="24" class="grid-line"/>
<line x1="19" y1="0" x2="19" y2="24" class="grid-line"/>
<line x1="19.5" y1="0" x2="19.5" y2="24" class="grid-line"/>
<line x1="20" y1="0" x2="20" y2="24" class="grid-line"/>
<line x1="20.5" y1="0" x2="20.5" y2="24" class="grid-line"/>
<line x1="21" y1="0" x2="21" y2="24" class="grid-line"/>
<line x1="21.5" y1="0" x2="21.5" y2="24" class="grid-line"/>
<line x1="22" y1="0" x2="22" y2="24" class="grid-line"/>
<line x1="22.5" y1="0" x2="22.5" y2="24" class="grid-line"/>
<line x1="23" y1="0" x2="23" y2="24" class="grid-line"/>
<line x1="23.5" y1="0" x2="23.5" y2="24" class="grid-line"/>
<line x1="24" y1="0" x2="24" y2="24" class="grid-line"/>
<line x1="0" y1="0" x2="24" y2="0" class="grid-line"/>
<line x1="0" y1="0.5" x2="24" y2="0.5" class="grid-line"/>
<line x1="0" y1="1" x2="24" y2="1" class="grid-line"/>
<line x1="0" y1="1.5" x2="24" y2="1.5" class="grid-line"/>
<line x1="0" y1="2" x2="24" y2="2" class="grid-line"/>
<line x1="0" y1="2.5" x2="24" y2="2.5" class="grid-line"/>
<line x1="0" y1="3" x2="24" y2="3" class="grid-line"/>
<line x1="0" y1="3.5" x2="24" y2="3.5" class="grid-line"/>
<line x1="0" y1="4" x2="24" y2="4" class="grid-line"/>
<line x1="0" y1="4.5" x2="24" y2="4.5" class="grid-line"/>
<line x1="0" y1="5" x2="24" y2="5" class="grid-line"/>
<line x1="0" y1="5.5" x2="24" y2="5.5" class="grid-line"/>
<line x1="0" y1="6" x2="24" y2="6" class="grid-line"/>
<line x1="0" y1="6.5" x2="24" y2="6.5" class="grid-line"/>
<line x1="0" y1="7" x2="24" y2="7" class="grid-line"/>
<line x1="0" y1="7.5" x2="24" y2="7.5" class="grid-line"/>
<line x1="0" y1="8" x2="24" y2="8" class="grid-line"/>
<line x1="0" y1="8.5" x2="24" y2="8.5" class="grid-line"/>
<line x1="0" y1="9" x2="24" y2="9" class="grid-line"/>
<line x1="0" y1="9.5" x2="24" y2="9.5" class="grid-line"/>
<line x1="0" y1="10" x2="24" y2="10" class="grid-line"/>
<line x1="0" y1="10.5" x2="24" y2="10.5" class="grid-line"/>
<line x1="0" y1="11" x2="24" y2="11" class="grid-line"/>
<line x1="0" y1="11.5" x2="24" y2="11.5" class="grid-line"/>
<line x1="0" y1="12" x2="24" y2="12" class="grid-line"/>
<line x1="0" y1="12.5" x2="24" y2="12.5" class="grid-line"/>
<line x1="0" y1="13" x2="24" y2="13" class="grid-line"/>
<line x1="0" y1="13.5" x2="24" y2="13.5" class="grid-line"/>
<line x1="0" y1="14" x2="24" y2="14" class="grid-line"/>
<line x1="0" y1="14.5" x2="24" y2="14.5" class="grid-line"/>
<line x1="0" y1="15" x2="24" y2="15" class="grid-line"/>
<line x1="0" y1="15.5" x2="24" y2="15.5" class="grid-line"/>
<line x1="0" y1="16" x2="24" y2="16" class="grid-line"/>
<line x1="0" y1="16.5" x2="24" y2="16.5" class="grid-line"/>
<line x1="0" y1="17" x2="24" y2="17" class="grid-line"/>
<line x1="0" y1="17.5" x2="24" y2="17.5" class="grid-line"/>
<line x1="0" y1="18" x2="24" y2="18" class="grid-line"/>
<line x1="0" y1="18.5" x2="24" y2="18.5" class="grid-line"/>
<line x1="0" y1="19" x2="24" y2="19" class="grid-line"/>
<line x1="0" y1="19.5" x2="24" y2="19.5" class="grid-line"/>
<line x1="0" y1="20" x2="24" y2="20" class="grid-line"/>
<line x1="0" y1="20.5" x2="24" y2="20.5" class="grid-line"/>
<line x1="0" y1="21" x2="24" y2="21" class="grid-line"/>
<line x1="0" y1="21.5" x2="24" y2="21.5" class="grid-line"/>
<line x1="0" y1="22" x2="24" y2="22" class="grid-line"/>
<line x1="0" y1="22.5" x2="24" y2="22.5" class="grid-line"/>
<line x1="0" y1="23" x2="24" y2="23" class="grid-line"/>
<line x1="0" y1="23.5" x2="24" y2="23.5" class="grid-line"/>
<line x1="0" y1="24" x2="24" y2="24" class="grid-line"/>
</g>
<g id="layer-delaunay" class="layer ">
<line x1="14.250000000000002" y1="16.066987298107783" x2="14.62940952255126" y2="16.017037086855467" class="delaunay-line"/>
<line x1="14.62940952255126" y1="16.017037086855467" x2="14.434736903889974" y2="16.004277569313096" class="delaunay-line"/>
<line x1="14.434736903889974" y1="16.004277569313096" x2="14.250000000000002" y2="16.066987298107783" class="delaunay-line"/>
<line x1="14.933012701892219" y1="16.25" x2="14.804380714504362" y2="16.103323329854383" class="delaunay-line"/>
<line x1="14.804380714504362" y1="16.103323329854383" x2="14.62940952255126" y2="16.017037086855467" class="delaunay-line"/>
<line x1="14.62940952255126" y1="16.017037086855467" x2="14.933012701892219" y2="16.25" class="delaunay-line"/>
<line x1="14.250000000000002" y1="16.066987298107783" x2="14.933012701892219" y2="16.25" class="delaunay-line"/>
<line x1="14.933012701892219" y1="16.25" x2="14.62940952255126" y2="16.017037086855467" class="delaunay-line"/>
<line x1="14.62940952255126" y1="16.017037086855467" x2="14.250000000000002" y2="16.066987298107783" class="delaunay-line"/>
<line x1="14.982962913144535" y1="16.62940952255126" x2="14.995722430686905" y2="16.434736903889974" class="delaunay-line"/>
<line x1="14.995722430686905" y1="16.434736903889974" x2="14.896676670145618" y2="16.804380714504358" class="delaunay-line"/>
<line x1="14.896676670145618" y1="16.804380714504358" x2="14.982962913144535" y2="16.62940952255126" class="delaunay-line"/>
<line x1="14.995722430686905" y1="16.434736903889974" x2="14.749999999999998" y2="16.933012701892217" class="delaunay-line"/>
<line x1="14.749999999999998" y1="16.933012701892217" x2="14.896676670145618" y2="16.804380714504358" class="delaunay-line"/>
<line x1="14.896676670145618" y1="16.804380714504358" x2="14.995722430686905" y2="16.434736903889974" class="delaunay-line"/>
<line x1="14.103323329854382" y1="16.195619285495642" x2="14.004277569313095" y2="16.565263096110026" class="delaunay-line"/>
<line x1="14.004277569313095" y1="16.565263096110026" x2="14.250000000000002" y2="16.066987298107783" class="delaunay-line"/>
<line x1="14.250000000000002" y1="16.066987298107783" x2="14.103323329854382" y2="16.195619285495642" class="delaunay-line"/>
<line x1="14.995722430686905" y1="16.434736903889974" x2="14.933012701892219" y2="16.25" class="delaunay-line"/>
<line x1="14.933012701892219" y1="16.25" x2="14.749999999999998" y2="16.933012701892217" class="delaunay-line"/>
<line x1="14.749999999999998" y1="16.933012701892217" x2="14.995722430686905" y2="16.434736903889974" class="delaunay-line"/>
<line x1="14.017037086855465" y1="16.37059047744874" x2="14.004277569313095" y2="16.565263096110026" class="delaunay-line"/>
<line x1="14.004277569313095" y1="16.565263096110026" x2="14.103323329854382" y2="16.195619285495642" class="delaunay-line"/>
<line x1="14.103323329854382" y1="16.195619285495642" x2="14.017037086855465" y2="16.37059047744874" class="delaunay-line"/>
<line x1="14.749999999999998" y1="16.933012701892217" x2="14.933012701892219" y2="16.25" class="delaunay-line"/>
<line x1="14.933012701892219" y1="16.25" x2="14.250000000000002" y2="16.066987298107783" class="delaunay-line"/>
<line x1="14.250000000000002" y1="16.066987298107783" x2="14.749999999999998" y2="16.933012701892217" class="delaunay-line"/>
<line x1="14.066987298107781" y1="16.75" x2="14.749999999999998" y2="16.933012701892217" class="delaunay-line"/>
<line x1="14.749999999999998" y1="16.933012701892217" x2="14.250000000000002" y2="16.066987298107783" class="delaunay-line"/>
<line x1="14.250000000000002" y1="16.066987298107783" x2="14.066987298107781" y2="16.75" class="delaunay-line"/>
<line x1="14.004277569313095" y1="16.565263096110026" x2="14.066987298107781" y2="16.75" class="delaunay-line"/>
<line x1="14.066987298107781" y1="16.75" x2="14.250000000000002" y2="16.066987298107783" class="delaunay-line"/>
<line x1="14.250000000000002" y1="16.066987298107783" x2="14.004277569313095" y2="16.565263096110026" class="delaunay-line"/>
<line x1="14.37059047744874" y1="16.982962913144533" x2="14.565263096110026" y2="16.995722430686904" class="delaunay-line"/>
<line x1="14.565263096110026" y1="16.995722430686904" x2="14.749999999999998" y2="16.933012701892217" class="delaunay-line"/>
<line x1="14.749999999999998" y1="16.933012701892217" x2="14.37059047744874" y2="16.982962913144533" class="delaunay-line"/>
<line x1="14.066987298107781" y1="16.75" x2="14.37059047744874" y2="16.982962913144533" class="delaunay-line"/>
<line x1="14.37059047744874" y1="16.982962913144533" x2="14.749999999999998" y2="16.933012701892217" class="delaunay-line"/>
<line x1="14.749999999999998" y1="16.933012701892217" x2="14.066987298107781" y2="16.75" class="delaunay-line"/>
<line x1="14.195619285495638" y1="16.896676670145617" x2="14.37059047744874" y2="16.982962913144533" class="delaunay-line"/>
<line x1="14.37059047744874" y1="16.982962913144533" x2="14.066987298107781" y2="16.75" class="delaunay-line"/>
<line x1="14.066987298107781" y1="16.75" x2="14.195619285495638" y2="16.896676670145617" class="delaunay-line"/>
<line x1="14.982962913144535" y1="16.62940952255126" x2="18.872361860049374" y2="15.232069395464215" class="delaunay-line"/>
<line x1="18.872361860049374" y1="15.232069395464215" x2="14.995722430686905" y2="16.434736903889974" class="delaunay-line"/>
<line x1="14.995722430686905" y1="16.434736903889974" x2="14.982962913144535" y2="16.62940952255126" class="delaunay-line"/>
<line x1="14.995722430686905" y1="16.434736903889974" x2="18.872361860049374" y2="15.232069395464215" class="delaunay-line"/>
<line x1="18.872361860049374" y1="15.232069395464215" x2="14.933012701892219" y2="16.25" class="delaunay-line"/>
<line x1="14.933012701892219" y1="16.25" x2="14.995722430686905" y2="16.434736903889974" class="delaunay-line"/>
<line x1="14.933012701892219" y1="16.25" x2="18.872361860049374" y2="15.232069395464215" class="delaunay-line"/>
<line x1="18.872361860049374" y1="15.232069395464215" x2="14.804380714504362" y2="16.103323329854383" class="delaunay-line"/>
<line x1="14.804380714504362" y1="16.103323329854383" x2="14.933012701892219" y2="16.25" class="delaunay-line"/>
<line x1="14.804380714504362" y1="16.103323329854383" x2="18.872361860049374" y2="15.232069395464215" class="delaunay-line"/>
<line x1="18.872361860049374" y1="15.232069395464215" x2="14.62940952255126" y2="16.017037086855467" class="delaunay-line"/>
<line x1="14.62940952255126" y1="16.017037086855467" x2="14.804380714504362" y2="16.103323329854383" class="delaunay-line"/>
<line x1="14.62940952255126" y1="16.017037086855467" x2="17.319447589434247" y2="9.436514437729805" class="delaunay-line"/>
<line x1="17.319447589434247" y1="9.436514437729805" x2="14.434736903889974" y2="16.004277569313096" class="delaunay-line"/>
<line x1="14.434736903889974" y1="16.004277569313096" x2="14.62940952255126" y2="16.017037086855467" class="delaunay-line"/>
<line x1="14.896676670145618" y1="16.804380714504358" x2="18.872361860049374" y2="15.232069395464215" class="delaunay-line"/>
<line x1="18.872361860049374" y1="15.232069395464215" x2="14.982962913144535" y2="16.62940952255126" class="delaunay-line"/>
<line x1="14.982962913144535" y1="16.62940952255126" x2="14.896676670145618" y2="16.804380714504358" class="delaunay-line"/>
<line x1="24" y1="24" x2="18.872361860049374" y2="15.232069395464215" class="delaunay-line"/>
<line x1="18.872361860049374" y1="15.232069395464215" x2="14.896676670145618" y2="16.804380714504358" class="delaunay-line"/>
<line x1="14.896676670145618" y1="16.804380714504358" x2="24" y2="24" class="delaunay-line"/>
<line x1="14.004277569313095" y1="16.565263096110026" x2="8.544026184369454" y2="19.150627902167663" class="delaunay-line"/>
<line x1="8.544026184369454" y1="19.150627902167663" x2="14.066987298107781" y2="16.75" class="delaunay-line"/>
<line x1="14.066987298107781" y1="16.75" x2="14.004277569313095" y2="16.565263096110026" class="delaunay-line"/>
<line x1="14.066987298107781" y1="16.75" x2="8.544026184369454" y2="19.150627902167663" class="delaunay-line"/>
<line x1="8.544026184369454" y1="19.150627902167663" x2="14.195619285495638" y2="16.896676670145617" class="delaunay-line"/>
<line x1="14.195619285495638" y1="16.896676670145617" x2="14.066987298107781" y2="16.75" class="delaunay-line"/>
<line x1="14.195619285495638" y1="16.896676670145617" x2="8.544026184369454" y2="19.150627902167663" class="delaunay-line"/>
<line x1="8.544026184369454" y1="19.150627902167663" x2="14.37059047744874" y2="16.982962913144533" class="delaunay-line"/>
<line x1="14.37059047744874" y1="16.982962913144533" x2="14.195619285495638" y2="16.896676670145617" class="delaunay-line"/>
<line x1="14.37059047744874" y1="16.982962913144533" x2="8.544026184369454" y2="19.150627902167663" class="delaunay-line"/>
<line x1="8.544026184369454" y1="19.150627902167663" x2="14.565263096110026" y2="16.995722430686904" class="delaunay-line"/>
<line x1="14.565263096110026" y1="16.995722430686904" x2="14.37059047744874" y2="16.982962913144533" class="delaunay-line"/>
<line x1="14.565263096110026" y1="16.995722430686904" x2="24" y2="24" class="delaunay-line"/>
<line x1="24" y1="24" x2="14.749999999999998" y2="16.933012701892217" class="delaunay-line"/>
<line x1="14.749999999999998" y1="16.933012701892217" x2="14.565263096110026" y2="16.995722430686904" class="delaunay-line"/>
<line x1="14.017037086855465" y1="16.37059047744874" x2="8.544026184369454" y2="19.150627902167663" class="delaunay-line"/>
<line x1="8.544026184369454" y1="19.150627902167663" x2="14.004277569313095" y2="16.565263096110026" class="delaunay-line"/>
<line x1="14.004277569313095" y1="16.565263096110026" x2="14.017037086855465" y2="16.37059047744874" class="delaunay-line"/>
<line x1="4.760945792734565" y1="15.232069395464215" x2="8.544026184369454" y2="19.150627902167663" class="delaunay-line"/>
<line x1="8.544026184369454" y1="19.150627902167663" x2="14.017037086855465" y2="16.37059047744874" class="delaunay-line"/>
<line x1="14.017037086855465" y1="16.37059047744874" x2="4.760945792734565" y2="15.232069395464215" class="delaunay-line"/>
<line x1="4.760945792734565" y1="15.232069395464215" x2="14.017037086855465" y2="16.37059047744874" class="delaunay-line"/>
<line x1="14.017037086855465" y1="16.37059047744874" x2="14.103323329854382" y2="16.195619285495642" class="delaunay-line"/>
<line x1="14.103323329854382" y1="16.195619285495642" x2="4.760945792734565" y2="15.232069395464215" class="delaunay-line"/>
<line x1="18.872361860049374" y1="15.232069395464215" x2="17.319447589434247" y2="9.436514437729805" class="delaunay-line"/>
<line x1="17.319447589434247" y1="9.436514437729805" x2="14.62940952255126" y2="16.017037086855467" class="delaunay-line"/>
<line x1="14.62940952255126" y1="16.017037086855467" x2="18.872361860049374" y2="15.232069395464215" class="delaunay-line"/>
<line x1="14.434736903889974" y1="16.004277569313096" x2="14.308658283817454" y2="6.961939766255643" class="delaunay-line"/>
<line x1="14.308658283817454" y1="6.961939766255643" x2="14.250000000000002" y2="16.066987298107783" class="delaunay-line"/>
<line x1="14.250000000000002" y1="16.066987298107783" x2="14.434736903889974" y2="16.004277569313096" class="delaunay-line"/>
<line x1="14.250000000000002" y1="16.066987298107783" x2="6.313860063349687" y2="9.436514437729805" class="delaunay-line"/>
<line x1="6.313860063349687" y1="9.436514437729805" x2="14.103323329854382" y2="16.195619285495642" class="delaunay-line"/>
<line x1="14.103323329854382" y1="16.195619285495642" x2="14.250000000000002" y2="16.066987298107783" class="delaunay-line"/>
<line x1="24" y1="24" x2="22.736065165205645" y2="14.196793215054132" class="delaunay-line"/>
<line x1="22.736065165205645" y1="14.196793215054132" x2="18.872361860049374" y2="15.232069395464215" class="delaunay-line"/>
<line x1="18.872361860049374" y1="15.232069395464215" x2="24" y2="24" class="delaunay-line"/>
<line x1="18.872361860049374" y1="15.232069395464215" x2="19.150627902167663" y2="8.54402618436945" class="delaunay-line"/>
<line x1="19.150627902167663" y1="8.54402618436945" x2="17.319447589434247" y2="9.436514437729805" class="delaunay-line"/>
<line x1="17.319447589434247" y1="9.436514437729805" x2="18.872361860049374" y2="15.232069395464215" class="delaunay-line"/>
<line x1="24" y1="24" x2="14.896676670145618" y2="16.804380714504358" class="delaunay-line"/>
<line x1="14.896676670145618" y1="16.804380714504358" x2="14.749999999999998" y2="16.933012701892217" class="delaunay-line"/>
<line x1="14.749999999999998" y1="16.933012701892217" x2="24" y2="24" class="delaunay-line"/>
<line x1="22.736065165205645" y1="14.196793215054132" x2="19.150627902167663" y2="8.54402618436945" class="delaunay-line"/>
<line x1="19.150627902167663" y1="8.54402618436945" x2="18.872361860049374" y2="15.232069395464215" class="delaunay-line"/>
<line x1="18.872361860049374" y1="15.232069395464215" x2="22.736065165205645" y2="14.196793215054132" class="delaunay-line"/>
<line x1="14.691341716182546" y1="6.961939766255643" x2="14.5" y2="7" class="delaunay-line"/>
<line x1="14.5" y1="7" x2="17.319447589434247" y2="9.436514437729805" class="delaunay-line"/>
<line x1="17.319447589434247" y1="9.436514437729805" x2="14.691341716182546" y2="6.961939766255643" class="delaunay-line"/>
<line x1="17.319447589434247" y1="9.436514437729805" x2="14.308658283817454" y2="6.961939766255643" class="delaunay-line"/>
<line x1="14.308658283817454" y1="6.961939766255643" x2="14.434736903889974" y2="16.004277569313096" class="delaunay-line"/>
<line x1="14.434736903889974" y1="16.004277569313096" x2="17.319447589434247" y2="9.436514437729805" class="delaunay-line"/>
<line x1="14.853553390593273" y1="6.853553390593273" x2="14.691341716182546" y2="6.961939766255643" class="delaunay-line"/>
<line x1="14.691341716182546" y1="6.961939766255643" x2="17.319447589434247" y2="9.436514437729805" class="delaunay-line"/>
<line x1="17.319447589434247" y1="9.436514437729805" x2="14.853553390593273" y2="6.853553390593273" class="delaunay-line"/>
<line x1="14.146446609406727" y1="6.853553390593273" x2="14.308658283817454" y2="6.961939766255643" class="delaunay-line"/>
<line x1="14.308658283817454" y1="6.961939766255643" x2="14.5" y2="7" class="delaunay-line"/>
<line x1="14.5" y1="7" x2="14.146446609406727" y2="6.853553390593273" class="delaunay-line"/>
<line x1="14.5" y1="7" x2="14.308658283817454" y2="6.961939766255643" class="delaunay-line"/>
<line x1="14.308658283817454" y1="6.961939766255643" x2="17.319447589434247" y2="9.436514437729805" class="delaunay-line"/>
<line x1="17.319447589434247" y1="9.436514437729805" x2="14.5" y2="7" class="delaunay-line"/>
<line x1="14.961939766255643" y1="6.691341716182546" x2="14.853553390593273" y2="6.853553390593273" class="delaunay-line"/>
<line x1="14.853553390593273" y1="6.853553390593273" x2="17.319447589434247" y2="9.436514437729805" class="delaunay-line"/>
<line x1="17.319447589434247" y1="9.436514437729805" x2="14.961939766255643" y2="6.691341716182546" class="delaunay-line"/>
<line x1="14.691341716182546" y1="6.961939766255643" x2="14.853553390593273" y2="6.853553390593273" class="delaunay-line"/>
<line x1="14.853553390593273" y1="6.853553390593273" x2="14.5" y2="7" class="delaunay-line"/>
<line x1="14.5" y1="7" x2="14.691341716182546" y2="6.961939766255643" class="delaunay-line"/>
<line x1="14.853553390593273" y1="6.853553390593273" x2="14.146446609406727" y2="6.853553390593273" class="delaunay-line"/>
<line x1="14.146446609406727" y1="6.853553390593273" x2="14.5" y2="7" class="delaunay-line"/>
<line x1="14.5" y1="7" x2="14.853553390593273" y2="6.853553390593273" class="delaunay-line"/>
<line x1="8.691341716182546" y1="6.961939766255643" x2="6.313860063349687" y2="9.436514437729805" class="delaunay-line"/>
<line x1="6.313860063349687" y1="9.436514437729805" x2="14.250000000000002" y2="16.066987298107783" class="delaunay-line"/>
<line x1="14.250000000000002" y1="16.066987298107783" x2="8.691341716182546" y2="6.961939766255643" class="delaunay-line"/>
<line x1="19.150627902167663" y1="8.54402618436945" x2="14.961939766255643" y2="6.691341716182546" class="delaunay-line"/>
<line x1="14.961939766255643" y1="6.691341716182546" x2="17.319447589434247" y2="9.436514437729805" class="delaunay-line"/>
<line x1="17.319447589434247" y1="9.436514437729805" x2="19.150627902167663" y2="8.54402618436945" class="delaunay-line"/>
<line x1="14" y1="6.5" x2="14.038060233744357" y2="6.691341716182546" class="delaunay-line"/>
<line x1="14.038060233744357" y1="6.691341716182546" x2="14.146446609406727" y2="6.853553390593273" class="delaunay-line"/>
<line x1="14.146446609406727" y1="6.853553390593273" x2="14" y2="6.5" class="delaunay-line"/>
<line x1="14" y1="6.5" x2="14.146446609406727" y2="6.853553390593273" class="delaunay-line"/>
<line x1="14.146446609406727" y1="6.853553390593273" x2="14.146446609406727" y2="6.146446609406727" class="delaunay-line"/>
<line x1="14.146446609406727" y1="6.146446609406727" x2="14" y2="6.5" class="delaunay-line"/>
<line x1="6.313860063349687" y1="9.436514437729805" x2="4.760945792734565" y2="15.232069395464215" class="delaunay-line"/>
<line x1="4.760945792734565" y1="15.232069395464215" x2="14.103323329854382" y2="16.195619285495642" class="delaunay-line"/>
<line x1="14.103323329854382" y1="16.195619285495642" x2="6.313860063349687" y2="9.436514437729805" class="delaunay-line"/>
<line x1="14.250000000000002" y1="16.066987298107783" x2="14.308658283817454" y2="6.961939766255643" class="delaunay-line"/>
<line x1="14.308658283817454" y1="6.961939766255643" x2="8.691341716182546" y2="6.961939766255643" class="delaunay-line"/>
<line x1="8.691341716182546" y1="6.961939766255643" x2="14.250000000000002" y2="16.066987298107783" class="delaunay-line"/>
<line x1="19.150627902167663" y1="8.54402618436945" x2="15" y2="6.5" class="delaunay-line"/>
<line x1="15" y1="6.5" x2="14.961939766255643" y2="6.691341716182546" class="delaunay-line"/>
<line x1="14.961939766255643" y1="6.691341716182546" x2="19.150627902167663" y2="8.54402618436945" class="delaunay-line"/>
<line x1="14.961939766255643" y1="6.691341716182546" x2="15" y2="6.5" class="delaunay-line"/>
<line x1="15" y1="6.5" x2="14.853553390593273" y2="6.853553390593273" class="delaunay-line"/>
<line x1="14.853553390593273" y1="6.853553390593273" x2="14.961939766255643" y2="6.691341716182546" class="delaunay-line"/>
<line x1="14.038060233744357" y1="6.308658283817454" x2="14" y2="6.5" class="delaunay-line"/>
<line x1="14" y1="6.5" x2="14.146446609406727" y2="6.146446609406727" class="delaunay-line"/>
<line x1="14.146446609406727" y1="6.146446609406727" x2="14.038060233744357" y2="6.308658283817454" class="delaunay-line"/>
<line x1="8.691341716182546" y1="6.961939766255643" x2="14.308658283817454" y2="6.961939766255643" class="delaunay-line"/>
<line x1="14.308658283817454" y1="6.961939766255643" x2="8.853553390593273" y2="6.853553390593274" class="delaunay-line"/>
<line x1="8.853553390593273" y1="6.853553390593274" x2="8.691341716182546" y2="6.961939766255643" class="delaunay-line"/>
<line x1="19.150627902167663" y1="8.54402618436945" x2="14.961939766255643" y2="6.308658283817454" class="delaunay-line"/>
<line x1="14.961939766255643" y1="6.308658283817454" x2="15" y2="6.5" class="delaunay-line"/>
<line x1="15" y1="6.5" x2="19.150627902167663" y2="8.54402618436945" class="delaunay-line"/>
<line x1="15" y1="6.5" x2="14.853553390593273" y2="6.146446609406727" class="delaunay-line"/>
<line x1="14.853553390593273" y1="6.146446609406727" x2="14.853553390593273" y2="6.853553390593273" class="delaunay-line"/>
<line x1="14.853553390593273" y1="6.853553390593273" x2="15" y2="6.5" class="delaunay-line"/>
<line x1="14.146446609406727" y1="6.146446609406727" x2="14.146446609406727" y2="6.853553390593273" class="delaunay-line"/>
<line x1="14.146446609406727" y1="6.853553390593273" x2="14.853553390593273" y2="6.853553390593273" class="delaunay-line"/>
<line x1="14.853553390593273" y1="6.853553390593273" x2="14.146446609406727" y2="6.146446609406727" class="delaunay-line"/>
<line x1="14.308658283817454" y1="6.961939766255643" x2="14.146446609406727" y2="6.853553390593273" class="delaunay-line"/>
<line x1="14.146446609406727" y1="6.853553390593273" x2="8.853553390593273" y2="6.853553390593274" class="delaunay-line"/>
<line x1="8.853553390593273" y1="6.853553390593274" x2="14.308658283817454" y2="6.961939766255643" class="delaunay-line"/>
<line x1="19.150627902167663" y1="8.54402618436945" x2="14.853553390593273" y2="6.146446609406727" class="delaunay-line"/>
<line x1="14.853553390593273" y1="6.146446609406727" x2="14.961939766255643" y2="6.308658283817454" class="delaunay-line"/>
<line x1="14.961939766255643" y1="6.308658283817454" x2="19.150627902167663" y2="8.54402618436945" class="delaunay-line"/>
<line x1="14.961939766255643" y1="6.308658283817454" x2="14.853553390593273" y2="6.146446609406727" class="delaunay-line"/>
<line x1="14.853553390593273" y1="6.146446609406727" x2="15" y2="6.5" class="delaunay-line"/>
<line x1="15" y1="6.5" x2="14.961939766255643" y2="6.308658283817454" class="delaunay-line"/>
<line x1="14.853553390593273" y1="6.146446609406727" x2="14.146446609406727" y2="6.146446609406727" class="delaunay-line"/>
<line x1="14.146446609406727" y1="6.146446609406727" x2="14.853553390593273" y2="6.853553390593273" class="delaunay-line"/>
<line x1="14.853553390593273" y1="6.853553390593273" x2="14.853553390593273" y2="6.146446609406727" class="delaunay-line"/>
<line x1="14.146446609406727" y1="6.853553390593273" x2="14.038060233744357" y2="6.691341716182546" class="delaunay-line"/>
<line x1="14.038060233744357" y1="6.691341716182546" x2="8.853553390593273" y2="6.853553390593274" class="delaunay-line"/>
<line x1="8.853553390593273" y1="6.853553390593274" x2="14.146446609406727" y2="6.853553390593273" class="delaunay-line"/>
<line x1="14.5" y1="6" x2="14.308658283817454" y2="6.038060233744357" class="delaunay-line"/>
<line x1="14.308658283817454" y1="6.038060233744357" x2="14.146446609406727" y2="6.146446609406727" class="delaunay-line"/>
<line x1="14.146446609406727" y1="6.146446609406727" x2="14.5" y2="6" class="delaunay-line"/>
<line x1="10.665346527929092" y1="0.0587448101308814" x2="14.691341716182546" y2="6.038060233744357" class="delaunay-line"/>
<line x1="14.691341716182546" y1="6.038060233744357" x2="24" y2="0" class="delaunay-line"/>
<line x1="24" y1="0" x2="10.665346527929092" y2="0.0587448101308814" class="delaunay-line"/>
<line x1="14.853553390593273" y1="6.146446609406727" x2="14.5" y2="6" class="delaunay-line"/>
<line x1="14.5" y1="6" x2="14.146446609406727" y2="6.146446609406727" class="delaunay-line"/>
<line x1="14.146446609406727" y1="6.146446609406727" x2="14.853553390593273" y2="6.146446609406727" class="delaunay-line"/>
<line x1="14.691341716182546" y1="6.038060233744357" x2="14.5" y2="6" class="delaunay-line"/>
<line x1="14.5" y1="6" x2="14.853553390593273" y2="6.146446609406727" class="delaunay-line"/>
<line x1="14.853553390593273" y1="6.146446609406727" x2="14.691341716182546" y2="6.038060233744357" class="delaunay-line"/>
<line x1="19.150627902167663" y1="8.54402618436945" x2="24" y2="0" class="delaunay-line"/>
<line x1="24" y1="0" x2="14.853553390593273" y2="6.146446609406727" class="delaunay-line"/>
<line x1="14.853553390593273" y1="6.146446609406727" x2="19.150627902167663" y2="8.54402618436945" class="delaunay-line"/>
<line x1="22.736065165205645" y1="14.196793215054132" x2="21.18315089459052" y2="8.401238257319722" class="delaunay-line"/>
<line x1="21.18315089459052" y1="8.401238257319722" x2="19.150627902167663" y2="8.54402618436945" class="delaunay-line"/>
<line x1="19.150627902167663" y1="8.54402618436945" x2="22.736065165205645" y2="14.196793215054132" class="delaunay-line"/>
<line x1="14.038060233744357" y1="6.691341716182546" x2="8.961939766255643" y2="6.691341716182544" class="delaunay-line"/>
<line x1="8.961939766255643" y1="6.691341716182544" x2="8.853553390593273" y2="6.853553390593274" class="delaunay-line"/>
<line x1="8.853553390593273" y1="6.853553390593274" x2="14.038060233744357" y2="6.691341716182546" class="delaunay-line"/>
<line x1="9" y1="6.499999999999999" x2="8.961939766255643" y2="6.691341716182544" class="delaunay-line"/>
<line x1="8.961939766255643" y1="6.691341716182544" x2="14.038060233744357" y2="6.691341716182546" class="delaunay-line"/>
<line x1="14.038060233744357" y1="6.691341716182546" x2="9" y2="6.499999999999999" class="delaunay-line"/>
<line x1="8.961939766255645" y1="6.308658283817456" x2="9" y2="6.499999999999999" class="delaunay-line"/>
<line x1="9" y1="6.499999999999999" x2="14" y2="6.5" class="delaunay-line"/>
<line x1="14" y1="6.5" x2="8.961939766255645" y2="6.308658283817456" class="delaunay-line"/>
<line x1="14" y1="6.5" x2="9" y2="6.499999999999999" class="delaunay-line"/>
<line x1="9" y1="6.499999999999999" x2="14.038060233744357" y2="6.691341716182546" class="delaunay-line"/>
<line x1="14.038060233744357" y1="6.691341716182546" x2="14" y2="6.5" class="delaunay-line"/>
<line x1="14.038060233744357" y1="6.308658283817454" x2="8.961939766255645" y2="6.308658283817456" class="delaunay-line"/>
<line x1="8.961939766255645" y1="6.308658283817456" x2="14" y2="6.5" class="delaunay-line"/>
<line x1="14" y1="6.5" x2="14.038060233744357" y2="6.308658283817454" class="delaunay-line"/>
<line x1="8.853553390593273" y1="6.853553390593274" x2="8.5" y2="6.999999999999999" class="delaunay-line"/>
<line x1="8.5" y1="6.999999999999999" x2="8.691341716182546" y2="6.961939766255643" class="delaunay-line"/>
<line x1="8.691341716182546" y1="6.961939766255643" x2="8.853553390593273" y2="6.853553390593274" class="delaunay-line"/>
<line x1="8.691341716182546" y1="6.961939766255643" x2="8.5" y2="6.999999999999999" class="delaunay-line"/>
<line x1="8.5" y1="6.999999999999999" x2="6.313860063349687" y2="9.436514437729805" class="delaunay-line"/>
<line x1="6.313860063349687" y1="9.436514437729805" x2="8.691341716182546" y2="6.961939766255643" class="delaunay-line"/>
<line x1="14.038060233744357" y1="6.308658283817454" x2="8.853553390593273" y2="6.146446609406726" class="delaunay-line"/>
<line x1="8.853553390593273" y1="6.146446609406726" x2="8.961939766255645" y2="6.308658283817456" class="delaunay-line"/>
<line x1="8.961939766255645" y1="6.308658283817456" x2="14.038060233744357" y2="6.308658283817454" class="delaunay-line"/>
<line x1="8.853553390593273" y1="6.853553390593274" x2="8.961939766255643" y2="6.691341716182544" class="delaunay-line"/>
<line x1="8.961939766255643" y1="6.691341716182544" x2="8.5" y2="6.999999999999999" class="delaunay-line"/>
<line x1="8.5" y1="6.999999999999999" x2="8.853553390593273" y2="6.853553390593274" class="delaunay-line"/>
<line x1="8.146446609406727" y1="6.853553390593274" x2="8.308658283817456" y2="6.961939766255643" class="delaunay-line"/>
<line x1="8.308658283817456" y1="6.961939766255643" x2="8.038060233744357" y2="6.308658283817456" class="delaunay-line"/>
<line x1="8.038060233744357" y1="6.308658283817456" x2="8.146446609406727" y2="6.853553390593274" class="delaunay-line"/>
<line x1="8.5" y1="6.999999999999999" x2="8.308658283817456" y2="6.961939766255643" class="delaunay-line"/>
<line x1="8.308658283817456" y1="6.961939766255643" x2="6.313860063349687" y2="9.436514437729805" class="delaunay-line"/>
<line x1="6.313860063349687" y1="9.436514437729805" x2="8.5" y2="6.999999999999999" class="delaunay-line"/>
<line x1="14.038060233744357" y1="6.308658283817454" x2="14.146446609406727" y2="6.146446609406727" class="delaunay-line"/>
<line x1="14.146446609406727" y1="6.146446609406727" x2="8.853553390593273" y2="6.146446609406726" class="delaunay-line"/>
<line x1="8.853553390593273" y1="6.146446609406726" x2="14.038060233744357" y2="6.308658283817454" class="delaunay-line"/>
<line x1="8" y1="6.500000000000001" x2="8.146446609406727" y2="6.853553390593274" class="delaunay-line"/>
<line x1="8.146446609406727" y1="6.853553390593274" x2="8.038060233744357" y2="6.308658283817456" class="delaunay-line"/>
<line x1="8.038060233744357" y1="6.308658283817456" x2="8" y2="6.500000000000001" class="delaunay-line"/>
<line x1="8.5" y1="6.000000000000001" x2="8.5" y2="6.999999999999999" class="delaunay-line"/>
<line x1="8.5" y1="6.999999999999999" x2="8.961939766255643" y2="6.691341716182544" class="delaunay-line"/>
<line x1="8.961939766255643" y1="6.691341716182544" x2="8.5" y2="6.000000000000001" class="delaunay-line"/>
<line x1="8.308658283817456" y1="6.961939766255643" x2="8.146446609406727" y2="6.853553390593274" class="delaunay-line"/>
<line x1="8.146446609406727" y1="6.853553390593274" x2="6.313860063349687" y2="9.436514437729805" class="delaunay-line"/>
<line x1="6.313860063349687" y1="9.436514437729805" x2="8.308658283817456" y2="6.961939766255643" class="delaunay-line"/>
<line x1="8.853553390593273" y1="6.146446609406726" x2="14.146446609406727" y2="6.146446609406727" class="delaunay-line"/>
<line x1="14.146446609406727" y1="6.146446609406727" x2="10.665346527929092" y2="0.0587448101308814" class="delaunay-line"/>
<line x1="10.665346527929092" y1="0.0587448101308814" x2="8.853553390593273" y2="6.146446609406726" class="delaunay-line"/>
<line x1="9" y1="6.499999999999999" x2="8.853553390593273" y2="6.146446609406726" class="delaunay-line"/>
<line x1="8.853553390593273" y1="6.146446609406726" x2="8.961939766255643" y2="6.691341716182544" class="delaunay-line"/>
<line x1="8.961939766255643" y1="6.691341716182544" x2="9" y2="6.499999999999999" class="delaunay-line"/>
<line x1="8" y1="6.500000000000001" x2="8.038060233744355" y2="6.691341716182544" class="delaunay-line"/>
<line x1="8.038060233744355" y1="6.691341716182544" x2="8.146446609406727" y2="6.853553390593274" class="delaunay-line"/>
<line x1="8.146446609406727" y1="6.853553390593274" x2="8" y2="6.500000000000001" class="delaunay-line"/>
<line x1="8.146446609406727" y1="6.853553390593274" x2="8.038060233744355" y2="6.691341716182544" class="delaunay-line"/>
<line x1="8.038060233744355" y1="6.691341716182544" x2="6.313860063349687" y2="9.436514437729805" class="delaunay-line"/>
<line x1="6.313860063349687" y1="9.436514437729805" x2="8.146446609406727" y2="6.853553390593274" class="delaunay-line"/>
<line x1="8.691341716182544" y1="6.038060233744357" x2="8.853553390593273" y2="6.146446609406726" class="delaunay-line"/>
<line x1="8.853553390593273" y1="6.146446609406726" x2="10.665346527929092" y2="0.0587448101308814" class="delaunay-line"/>
<line x1="10.665346527929092" y1="0.0587448101308814" x2="8.691341716182544" y2="6.038060233744357" class="delaunay-line"/>
<line x1="8.961939766255645" y1="6.308658283817456" x2="8.853553390593273" y2="6.146446609406726" class="delaunay-line"/>
<line x1="8.853553390593273" y1="6.146446609406726" x2="9" y2="6.499999999999999" class="delaunay-line"/>
<line x1="9" y1="6.499999999999999" x2="8.961939766255645" y2="6.308658283817456" class="delaunay-line"/>
<line x1="8.038060233744357" y1="6.308658283817456" x2="8.308658283817456" y2="6.961939766255643" class="delaunay-line"/>
<line x1="8.308658283817456" y1="6.961939766255643" x2="8.5" y2="6.999999999999999" class="delaunay-line"/>
<line x1="8.5" y1="6.999999999999999" x2="8.038060233744357" y2="6.308658283817456" class="delaunay-line"/>
<line x1="8.038060233744355" y1="6.691341716182544" x2="8" y2="6.500000000000001" class="delaunay-line"/>
<line x1="8" y1="6.500000000000001" x2="6.313860063349687" y2="9.436514437729805" class="delaunay-line"/>
<line x1="6.313860063349687" y1="9.436514437729805" x2="8.038060233744355" y2="6.691341716182544" class="delaunay-line"/>
<line x1="10.665346527929092" y1="0.0587448101308814" x2="14.146446609406727" y2="6.146446609406727" class="delaunay-line"/>
<line x1="14.146446609406727" y1="6.146446609406727" x2="14.308658283817454" y2="6.038060233744357" class="delaunay-line"/>
<line x1="14.308658283817454" y1="6.038060233744357" x2="10.665346527929092" y2="0.0587448101308814" class="delaunay-line"/>
<line x1="8.853553390593273" y1="6.146446609406726" x2="8.691341716182544" y2="6.038060233744357" class="delaunay-line"/>
<line x1="8.691341716182544" y1="6.038060233744357" x2="8.961939766255643" y2="6.691341716182544" class="delaunay-line"/>
<line x1="8.961939766255643" y1="6.691341716182544" x2="8.853553390593273" y2="6.146446609406726" class="delaunay-line"/>
<line x1="8.5" y1="6.000000000000001" x2="8.038060233744357" y2="6.308658283817456" class="delaunay-line"/>
<line x1="8.038060233744357" y1="6.308658283817456" x2="8.5" y2="6.999999999999999" class="delaunay-line"/>
<line x1="8.5" y1="6.999999999999999" x2="8.5" y2="6.000000000000001" class="delaunay-line"/>
<line x1="8" y1="6.500000000000001" x2="2.4501567581934127" y2="8.401238257319722" class="delaunay-line"/>
<line x1="2.4501567581934127" y1="8.401238257319722" x2="6.313860063349687" y2="9.436514437729805" class="delaunay-line"/>
<line x1="6.313860063349687" y1="9.436514437729805" x2="8" y2="6.500000000000001" class="delaunay-line"/>
<line x1="10.665346527929092" y1="0.0587448101308814" x2="8.5" y2="6.000000000000001" class="delaunay-line"/>
<line x1="8.5" y1="6.000000000000001" x2="8.691341716182544" y2="6.038060233744357" class="delaunay-line"/>
<line x1="8.691341716182544" y1="6.038060233744357" x2="10.665346527929092" y2="0.0587448101308814" class="delaunay-line"/>
<line x1="8.691341716182544" y1="6.038060233744357" x2="8.5" y2="6.000000000000001" class="delaunay-line"/>
<line x1="8.5" y1="6.000000000000001" x2="8.961939766255643" y2="6.691341716182544" class="delaunay-line"/>
<line x1="8.961939766255643" y1="6.691341716182544" x2="8.691341716182544" y2="6.038060233744357" class="delaunay-line"/>
<line x1="8.544026184369454" y1="19.150627902167663" x2="24" y2="24" class="delaunay-line"/>
<line x1="24" y1="24" x2="14.565263096110026" y2="16.995722430686904" class="delaunay-line"/>
<line x1="14.565263096110026" y1="16.995722430686904" x2="8.544026184369454" y2="19.150627902167663" class="delaunay-line"/>
<line x1="8.5" y1="6.000000000000001" x2="8.146446609406727" y2="6.146446609406726" class="delaunay-line"/>
<line x1="8.146446609406727" y1="6.146446609406726" x2="8.038060233744357" y2="6.308658283817456" class="delaunay-line"/>
<line x1="8.038060233744357" y1="6.308658283817456" x2="8.5" y2="6.000000000000001" class="delaunay-line"/>
<line x1="8.5" y1="6.000000000000001" x2="8.308658283817454" y2="6.038060233744357" class="delaunay-line"/>
<line x1="8.308658283817454" y1="6.038060233744357" x2="8.146446609406727" y2="6.146446609406726" class="delaunay-line"/>
<line x1="8.146446609406727" y1="6.146446609406726" x2="8.5" y2="6.000000000000001" class="delaunay-line"/>
<line x1="2.4501567581934127" y1="8.401238257319722" x2="0.8972424875782907" y2="14.196793215054132" class="delaunay-line"/>
<line x1="0.8972424875782907" y1="14.196793215054132" x2="6.313860063349687" y2="9.436514437729805" class="delaunay-line"/>
<line x1="6.313860063349687" y1="9.436514437729805" x2="2.4501567581934127" y2="8.401238257319722" class="delaunay-line"/>
<line x1="6.313860063349687" y1="9.436514437729805" x2="0.8972424875782907" y2="14.196793215054132" class="delaunay-line"/>
<line x1="0.8972424875782907" y1="14.196793215054132" x2="4.760945792734565" y2="15.232069395464215" class="delaunay-line"/>
<line x1="4.760945792734565" y1="15.232069395464215" x2="6.313860063349687" y2="9.436514437729805" class="delaunay-line"/>
<line x1="4.760945792734565" y1="15.232069395464215" x2="0" y2="24" class="delaunay-line"/>
<line x1="0" y1="24" x2="8.544026184369454" y2="19.150627902167663" class="delaunay-line"/>
<line x1="8.544026184369454" y1="19.150627902167663" x2="4.760945792734565" y2="15.232069395464215" class="delaunay-line"/>
<line x1="2.4501567581934127" y1="8.401238257319722" x2="8" y2="6.500000000000001" class="delaunay-line"/>
<line x1="8" y1="6.500000000000001" x2="8.038060233744357" y2="6.308658283817456" class="delaunay-line"/>
<line x1="8.038060233744357" y1="6.308658283817456" x2="2.4501567581934127" y2="8.401238257319722" class="delaunay-line"/>
<line x1="0" y1="0" x2="2.4501567581934127" y2="8.401238257319722" class="delaunay-line"/>
<line x1="2.4501567581934127" y1="8.401238257319722" x2="8.038060233744357" y2="6.308658283817456" class="delaunay-line"/>
<line x1="8.038060233744357" y1="6.308658283817456" x2="0" y2="0" class="delaunay-line"/>
<line x1="0" y1="0" x2="8.038060233744357" y2="6.308658283817456" class="delaunay-line"/>
<line x1="8.038060233744357" y1="6.308658283817456" x2="8.146446609406727" y2="6.146446609406726" class="delaunay-line"/>
<line x1="8.146446609406727" y1="6.146446609406726" x2="0" y2="0" class="delaunay-line"/>
<line x1="2.4501567581934127" y1="8.401238257319722" x2="0.0587448101308814" y2="10.665346527929096" class="delaunay-line"/>
<line x1="0.0587448101308814" y1="10.665346527929096" x2="0.8972424875782907" y2="14.196793215054132" class="delaunay-line"/>
<line x1="0.8972424875782907" y1="14.196793215054132" x2="2.4501567581934127" y2="8.401238257319722" class="delaunay-line"/>
<line x1="0.8972424875782907" y1="14.196793215054132" x2="0" y2="24" class="delaunay-line"/>
<line x1="0" y1="24" x2="4.760945792734565" y2="15.232069395464215" class="delaunay-line"/>
<line x1="4.760945792734565" y1="15.232069395464215" x2="0.8972424875782907" y2="14.196793215054132" class="delaunay-line"/>
<line x1="8.544026184369454" y1="19.150627902167663" x2="0" y2="24" class="delaunay-line"/>
<line x1="0" y1="24" x2="24" y2="24" class="delaunay-line"/>
<line x1="24" y1="24" x2="8.544026184369454" y2="19.150627902167663" class="delaunay-line"/>
<line x1="0.0587448101308814" y1="10.665346527929096" x2="0" y2="24" class="delaunay-line"/>
<line x1="0" y1="24" x2="0.8972424875782907" y2="14.196793215054132" class="delaunay-line"/>
<line x1="0.8972424875782907" y1="14.196793215054132" x2="0.0587448101308814" y2="10.665346527929096" class="delaunay-line"/>
<line x1="8.5" y1="6.000000000000001" x2="10.665346527929092" y2="0.0587448101308814" class="delaunay-line"/>
<line x1="10.665346527929092" y1="0.0587448101308814" x2="8.308658283817454" y2="6.038060233744357" class="delaunay-line"/>
<line x1="8.308658283817454" y1="6.038060233744357" x2="8.5" y2="6.000000000000001" class="delaunay-line"/>
<line x1="8.308658283817454" y1="6.038060233744357" x2="0" y2="0" class="delaunay-line"/>
<line x1="0" y1="0" x2="8.146446609406727" y2="6.146446609406726" class="delaunay-line"/>
<line x1="8.146446609406727" y1="6.146446609406726" x2="8.308658283817454" y2="6.038060233744357" class="delaunay-line"/>
<line x1="2.4501567581934127" y1="8.401238257319722" x2="0" y2="0" class="delaunay-line"/>
<line x1="0" y1="0" x2="0.0587448101308814" y2="10.665346527929096" class="delaunay-line"/>
<line x1="0.0587448101308814" y1="10.665346527929096" x2="2.4501567581934127" y2="8.401238257319722" class="delaunay-line"/>
<line x1="14.5" y1="6" x2="10.665346527929092" y2="0.0587448101308814" class="delaunay-line"/>
<line x1="10.665346527929092" y1="0.0587448101308814" x2="14.308658283817454" y2="6.038060233744357" class="delaunay-line"/>
<line x1="14.308658283817454" y1="6.038060233744357" x2="14.5" y2="6" class="delaunay-line"/>
<line x1="14.691341716182546" y1="6.038060233744357" x2="10.665346527929092" y2="0.0587448101308814" class="delaunay-line"/>
<line x1="10.665346527929092" y1="0.0587448101308814" x2="14.5" y2="6" class="delaunay-line"/>
<line x1="14.5" y1="6" x2="14.691341716182546" y2="6.038060233744357" class="delaunay-line"/>
<line x1="24" y1="0" x2="14.691341716182546" y2="6.038060233744357" class="delaunay-line"/>
<line x1="14.691341716182546" y1="6.038060233744357" x2="14.853553390593273" y2="6.146446609406727" class="delaunay-line"/>
<line x1="14.853553390593273" y1="6.146446609406727" x2="24" y2="0" class="delaunay-line"/>
<line x1="22.736065165205645" y1="14.196793215054132" x2="24" y2="0" class="delaunay-line"/>
<line x1="24" y1="0" x2="21.18315089459052" y2="8.401238257319722" class="delaunay-line"/>
<line x1="21.18315089459052" y1="8.401238257319722" x2="22.736065165205645" y2="14.196793215054132" class="delaunay-line"/>
<line x1="21.18315089459052" y1="8.401238257319722" x2="24" y2="0" class="delaunay-line"/>
<line x1="24" y1="0" x2="19.150627902167663" y2="8.54402618436945" class="delaunay-line"/>
<line x1="19.150627902167663" y1="8.54402618436945" x2="21.18315089459052" y2="8.401238257319722" class="delaunay-line"/>
<line x1="24" y1="24" x2="24" y2="0" class="delaunay-line"/>
<line x1="24" y1="0" x2="22.736065165205645" y2="14.196793215054132" class="delaunay-line"/>
<line x1="22.736065165205645" y1="14.196793215054132" x2="24" y2="24" class="delaunay-line"/>
<line x1="24" y1="0" x2="0" y2="0" class="delaunay-line"/>
<line x1="0" y1="0" x2="10.665346527929092" y2="0.0587448101308814" class="delaunay-line"/>
<line x1="10.665346527929092" y1="0.0587448101308814" x2="24" y2="0" class="delaunay-line"/>
<line x1="10.665346527929092" y1="0.0587448101308814" x2="0" y2="0" class="delaunay-line"/>
<line x1="0" y1="0" x2="8.308658283817454" y2="6.038060233744357" class="delaunay-line"/>
<line x1="8.308658283817454" y1="6.038060233744357" x2="10.665346527929092" y2="0.0587448101308814" class="delaunay-line"/>
<line x1="0.0587448101308814" y1="10.665346527929096" x2="0" y2="0" class="delaunay-line"/>
<line x1="0" y1="0" x2="0" y2="24" class="delaunay-line"/>
<line x1="0" y1="24" x2="0.0587448101308814" y2="10.665346527929096" class="delaunay-line"/>
</g>
<g id="layer-area" class="layer ">
<polygon points="10.665346527929092,0.0587448101308814 19.150627902167663,8.54402618436945 8.544026184369454,19.150627902167663 0.0587448101308814,10.665346527929096" class="terrain-area"/>
<text x="9.604686356149273" y="9.604686356149273" class="label">#C49A6C</text>
</g>
<g id="layer-building" class="layer ">
<polygon points="4.760945792734565,15.232069395464215 0.8972424875782907,14.196793215054132 2.4501567581934127,8.401238257319722 6.313860063349687,9.436514437729805" class="terrain-solid"/>
<text x="3.6055512754639887" y="11.816653826391969" class="label">#000000</text>
<polygon points="17.319447589434247,9.436514437729805 21.18315089459052,8.401238257319722 22.736065165205645,14.196793215054132 18.872361860049374,15.232069395464215" class="terrain-solid"/>
<text x="20.027756377319946" y="11.816653826391969" class="label">#000000</text>
</g>
<g id="layer-wall" class="layer ">
</g>
<g id="layer-tree" class="layer ">
</g>
<g id="layer-rocks" class="layer ">
</g>
<g id="layer-shrub" class="layer ">
<polygon points="14.5,7 14.308658283817454,6.961939766255643 14.146446609406727,6.853553390593273 14.038060233744357,6.691341716182546 14,6.5 14.038060233744357,6.308658283817454 14.146446609406727,6.146446609406727 14.308658283817454,6.038060233744357 14.5,6 14.691341716182546,6.038060233744357 14.853553390593273,6.146446609406727 14.961939766255643,6.308658283817454 15,6.5 14.961939766255643,6.691341716182546 14.853553390593273,6.853553390593273 14.691341716182546,6.961939766255643" class="terrain-solid"/>
<text x="14.5" y="6.5" class="label">#006400</text>
<polygon points="14.982962913144535,16.62940952255126 14.896676670145618,16.804380714504358 14.749999999999998,16.933012701892217 14.565263096110026,16.995722430686904 14.37059047744874,16.982962913144533 14.195619285495638,16.896676670145617 14.066987298107781,16.75 14.004277569313095,16.565263096110026 14.017037086855465,16.37059047744874 14.103323329854382,16.195619285495642 14.250000000000002,16.066987298107783 14.434736903889974,16.004277569313096 14.62940952255126,16.017037086855467 14.804380714504362,16.103323329854383 14.933012701892219,16.25 14.995722430686905,16.434736903889974" class="terrain-solid"/>
<text x="14.5" y="16.5" class="label">#006400</text>
<polygon points="8.853553390593273,6.853553390593274 8.691341716182546,6.961939766255643 8.5,6.999999999999999 8.308658283817456,6.961939766255643 8.146446609406727,6.853553390593274 8.038060233744355,6.691341716182544 8,6.500000000000001 8.038060233744357,6.308658283817456 8.146446609406727,6.146446609406726 8.308658283817454,6.038060233744357 8.5,6.000000000000001 8.691341716182544,6.038060233744357 8.853553390593273,6.146446609406726 8.961939766255645,6.308658283817456 9,6.499999999999999 8.961939766255643,6.691341716182544" class="terrain-solid"/>
<text x="8.5" y="6.5" class="label">#006400</text>
</g>
<g id="layer-terrain" class="layer ">
</g>
<g id="layer-models" class="layer ">
</g>
<g id="layer-paths" class="layer ">
</g>
<g id="layer-vectors" class="layer ">
</g>
<g id="layer-los" class="layer ">
</g>
<g id="layer-lof" class="layer ">
</g>

<g id="legend">
<g class="toggle" onclick="toggleLayer('deployment')"><rect x="0.4" y="0.14999999999999997" width="0.4" height="0.4" fill="#222" stroke="#222" stroke-width="0.05"/><text x="1.0" y="0.5499999999999999" class="label">Deployment Zones</text></g>
<g class="toggle" onclick="toggleLayer('grid')"><rect x="0.4" y="0.95" width="0.4" height="0.4" fill="#222" stroke="#222" stroke-width="0.05"/><text x="1.0" y="1.3499999999999999" class="label">0.5 MU Grid</text></g>
<g class="toggle" onclick="toggleLayer('delaunay')"><rect x="0.4" y="1.7500000000000002" width="0.4" height="0.4" fill="#222" stroke="#222" stroke-width="0.05"/><text x="1.0" y="2.1500000000000004" class="label">Delaunay Mesh</text></g>
<g class="toggle" onclick="toggleLayer('area')"><rect x="0.4" y="2.55" width="0.4" height="0.4" fill="#222" stroke="#222" stroke-width="0.05"/><text x="1.0" y="2.95" class="label">Area Terrain</text></g>
<g class="toggle" onclick="toggleLayer('building')"><rect x="0.4" y="3.3499999999999996" width="0.4" height="0.4" fill="#222" stroke="#222" stroke-width="0.05"/><text x="1.0" y="3.75" class="label">Buildings</text></g>
<g class="toggle disabled"><rect x="0.4" y="4.1499999999999995" width="0.4" height="0.4" fill="#222" stroke="#222" stroke-width="0.05"/><text x="1.0" y="4.55" class="label">Walls</text></g>
<g class="toggle disabled"><rect x="0.4" y="4.949999999999999" width="0.4" height="0.4" fill="#222" stroke="#222" stroke-width="0.05"/><text x="1.0" y="5.35" class="label">Trees</text></g>
<g class="toggle disabled"><rect x="0.4" y="5.749999999999999" width="0.4" height="0.4" fill="#222" stroke="#222" stroke-width="0.05"/><text x="1.0" y="6.1499999999999995" class="label">Rocks</text></g>
<g class="toggle" onclick="toggleLayer('shrub')"><rect x="0.4" y="6.549999999999999" width="0.4" height="0.4" fill="#222" stroke="#222" stroke-width="0.05"/><text x="1.0" y="6.949999999999999" class="label">Shrubs</text></g>
<g class="toggle" onclick="toggleLayer('terrain')"><rect x="0.4" y="7.349999999999999" width="0.4" height="0.4" fill="#222" stroke="#222" stroke-width="0.05"/><text x="1.0" y="7.749999999999999" class="label">Other Terrain</text></g>
<g class="toggle" onclick="toggleLayer('models')"><rect x="0.4" y="8.15" width="0.4" height="0.4" fill="#222" stroke="#222" stroke-width="0.05"/><text x="1.0" y="8.549999999999999" class="label">Models</text></g>
<g class="toggle" onclick="toggleLayer('paths')"><rect x="0.4" y="8.950000000000001" width="0.4" height="0.4" fill="#222" stroke="#222" stroke-width="0.05"/><text x="1.0" y="9.35" class="label">Paths</text></g>
<g class="toggle" onclick="toggleLayer('vectors')"><rect x="0.4" y="9.750000000000002" width="0.4" height="0.4" fill="#222" stroke="#222" stroke-width="0.05"/><text x="1.0" y="10.15" class="label">Vectors</text></g>
<g class="toggle" onclick="toggleLayer('los')"><rect x="0.4" y="10.550000000000002" width="0.4" height="0.4" fill="#222" stroke="#222" stroke-width="0.05"/><text x="1.0" y="10.950000000000001" class="label">LOS</text></g>
<g class="toggle" onclick="toggleLayer('lof')"><rect x="0.4" y="11.350000000000003" width="0.4" height="0.4" fill="#222" stroke="#222" stroke-width="0.05"/><text x="1.0" y="11.750000000000002" class="label">LOF</text></g>
</g>
</svg>