<svg xmlns="http://www.w3.org/2000/svg" viewBox="0 0 24 24" width="960" height="960" font-family="Arial" font-size="0.6">
<defs>
  <style><![CDATA[
    .layer { display: inline; }
    .layer.hidden { display: none; }
    .grid-line { stroke: #999; stroke-width: 0.02; opacity: 0.2; }
    .delaunay-line { stroke: #4a6fa5; stroke-width: 0.03; opacity: 0.3; }
    .terrain-area { stroke: #000; stroke-width: 0.05; }
    .terrain-solid { stroke: #000; stroke-width: 0.05; }
    .model { stroke: #ff0000; stroke-width: 2; vector-effect: non-scaling-stroke; }
    .path { fill: none; stroke-width: 0.12; }
    .vector { stroke-width: 0.1; }
    .los-ray { stroke-width: 0.08; stroke-dasharray: 0.2 0.2; }
    .lof-ray { stroke-width: 0.08; stroke-dasharray: 0.3 0.15; }
    .label { fill: #111 !important; font-size: 0.6px; }
    .toggle { cursor: pointer; }
    .toggle.disabled { cursor: default; }
    .toggle.disabled rect { stroke: #ccc; fill: #fff; }
    .toggle.disabled text { fill: #ccc; }
#layer-area { fill: #C49A6C; }
#layer-building { fill: #000000; }
#layer-wall { fill: #555555; }
#layer-tree { fill: #90EE90; }
#layer-rocks { fill: #D3D3D3; }
#layer-shrub { fill: #006400; }
  ]]></style>
</defs>
<rect x="0" y="0" width="24" height="24" fill="#ffffff" stroke="#111" stroke-width="0.05"/>
<script><![CDATA[
      function toggleLayer(id) {
        var layer = document.getElementById('layer-' + id);
        if (!layer) return;
        if (layer.classList.contains('hidden')) {
          layer.classList.remove('hidden');
        } else {
          layer.classList.add('hidden');
        }
      }
    ]]></script>
<text x="0.4" y="23.6" class="label">Battlefield 24x24 density 0 blockLOS 100</text>
<g id="layer-grid" class="layer ">
<line x1="0" y1="0" x2="0" y2="24" class="grid-line"/>
<line x1="0.5" y1="0" x2="0.5" y2="24" class="grid-line"/>
<line x1="1" y1="0" x2="1" y2="24" class="grid-line"/>
<line x1="1.5" y1="0" x2="1.5" y2="24" class="grid-line"/>
<line x1="2" y1="0" x2="2" y2="24" class="grid-line"/>
<line x1="2.5" y1="0" x2="2.5" y2="24" class="grid-line"/>
<line x1="3" y1="0" x2="3" y2="24" class="grid-line"/>
<line x1="3.5" y1="0" x2="3.5" y2="24" class="grid-line"/>
<line x1="4" y1="0" x2="4" y2="24" class="grid-line"/>
<line x1="4.5" y1="0" x2="4.5" y2="24" class="grid-line"/>
<line x1="5" y1="0" x2="5" y2="24" class="grid-line"/>
<line x1="5.5" y1="0" x2="5.5" y2="24" class="grid-line"/>
<line x1="6" y1="0" x2="6" y2="24" class="grid-line"/>
<line x1="6.5" y1="0" x2="6.5" y2="24" class="grid-line"/>
<line x1="7" y1="0" x2="7" y2="24" class="grid-line"/>
<line x1="7.5" y1="0" x2="7.5" y2="24" class="grid-line"/>
<line x1="8" y1="0" x2="8" y2="24" class="grid-line"/>
<line x1="8.5" y1="0" x2="8.5" y2="24" class="grid-line"/>
<line x1="9" y1="0" x2="9" y2="24" class="grid-line"/>
<line x1="9.5" y1="0" x2="9.5" y2="24" class="grid-line"/>
<line x1="10" y1="0" x2="10" y2="24" class="grid-line"/>
<line x1="10.5" y1="0" x2="10.5" y2="24" class="grid-line"/>
<line x1="11" y1="0" x2="11" y2="24" class="grid-line"/>
<line x1="11.5" y1="0" x2="11.5" y2="24" class="grid-line"/>
<line x1="12" y1="0" x2="12" y2="24" class="grid-line"/>
<line x1="12.5" y1="0" x2="12.5" y2="24" class="grid-line"/>
<line x1="13" y1="0" x2="13" y2="24" class="grid-line"/>
<line x1="13.5" y1="0" x2="13.5" y2="24" class="grid-line"/>
<line x1="14" y1="0" x2="14" y2="24" class="grid-line"/>
<line x1="14.5" y1="0" x2="14.5" y2="24" class="grid-line"/>
<line x1="15" y1="0" x2="15" y2="24" class="grid-line"/>
<line x1="15.5" y1="0" x2="15.5" y2="24" class="grid-line"/>
<line x1="16" y1="0" x2="16" y2="24" class="grid-line"/>
<line x1="16.5" y1="0" x2="16.5" y2="24" class="grid-line"/>
<line x1="17" y1="0" x2="17" y2="24" class="grid-line"/>
<line x1="17.5" y1="0" x2="17.5" y2="24" class="grid-line"/>
<line x1="18" y1="0" x2="18" y2="24" class="grid-line"/>
<line x1="18.5" y1="0" x2="18.5" y2="24" class="grid-line"/>
<line x1="19" y1="0" x2="19" y2="24" class="grid-line"/>
<line x1="19.5" y1="0" x2="19.5" y2="24" class="grid-line"/>
<line x1="20" y1="0" x2="20" y2="24" class="grid-line"/>
<line x1="20.5" y1="0" x2="20.5" y2="24" class="grid-line"/>
<line x1="21" y1="0" x2="21" y2="24" class="grid-line"/>
<line x1="21.5" y1="0" x2="21.5" y2="24" class="grid-line"/>
<line x1="22" y1="0" x2="22" y2="24" class="grid-line"/>
<line x1="22.5" y1="0" x2="22.5" y2="24" class="grid-line"/>
<line x1="23" y1="0" x2="23" y2="24" class="grid-line"/>
<line x1="23.5" y1="0" x2="23.5" y2="24" class="grid-line"/>
<line x1="24" y1="0" x2="24" y2="24" class="grid-line"/>
<line x1="0" y1="0" x2="24" y2="0" class="grid-line"/>
<line x1="0" y1="0.5" x2="24" y2="0.5" class="grid-line"/>
<line x1="0" y1="1" x2="24" y2="1" class="grid-line"/>
<line x1="0" y1="1.5" x2="24" y2="1.5" class="grid-line"/>
<line x1="0" y1="2" x2="24" y2="2" class="grid-line"/>
<line x1="0" y1="2.5" x2="24" y2="2.5" class="grid-line"/>
<line x1="0" y1="3" x2="24" y2="3" class="grid-line"/>
<line x1="0" y1="3.5" x2="24" y2="3.5" class="grid-line"/>
<line x1="0" y1="4" x2="24" y2="4" class="grid-line"/>
<line x1="0" y1="4.5" x2="24" y2="4.5" class="grid-line"/>
<line x1="0" y1="5" x2="24" y2="5" class="grid-line"/>
<line x1="0" y1="5.5" x2="24" y2="5.5" class="grid-line"/>
<line x1="0" y1="6" x2="24" y2="6" class="grid-line"/>
<line x1="0" y1="6.5" x2="24" y2="6.5" class="grid-line"/>
<line x1="0" y1="7" x2="24" y2="7" class="grid-line"/>
<line x1="0" y1="7.5" x2="24" y2="7.5" class="grid-line"/>
<line x1="0" y1="8" x2="24" y2="8" class="grid-line"/>
<line x1="0" y1="8.5" x2="24" y2="8.5" class="grid-line"/>
<line x1="0" y1="9" x2="24" y2="9" class="grid-line"/>
<line x1="0" y1="9.5" x2="24" y2="9.5" class="grid-line"/>
<line x1="0" y1="10" x2="24" y2="10" class="grid-line"/>
<line x1="0" y1="10.5" x2="24" y2="10.5" class="grid-line"/>
<line x1="0" y1="11" x2="24" y2="11" class="grid-line"/>
<line x1="0" y1="11.5" x2="24" y2="11.5" class="grid-line"/>
<line x1="0" y1="12" x2="24" y2="12" class="grid-line"/>
<line x1="0" y1="12.5" x2="24" y2="12.5" class="grid-line"/>
<line x1="0" y1="13" x2="24" y2="13" class="grid-line"/>
<line x1="0" y1="13.5" x2="24" y2="13.5" class="grid-line"/>
<line x1="0" y1="14" x2="24" y2="14" class="grid-line"/>
<line x1="0" y1="14.5" x2="24" y2="14.5" class="grid-line"/>
<line x1="0" y1="15" x2="24" y2="15" class="grid-line"/>
<line x1="0" y1="15.5" x2="24" y2="15.5" class="grid-line"/>
<line x1="0" y1="16" x2="24" y2="16" class="grid-line"/>
<line x1="0" y1="16.5" x2="24" y2="16.5" class="grid-line"/>
<line x1="0" y1="17" x2="24" y2="17" class="grid-line"/>
<line x1="0" y1="17.5" x2="24" y2="17.5" class="grid-line"/>
<line x1="0" y1="18" x2="24" y2="18" class="grid-line"/>
<line x1="0" y1="18.5" x2="24" y2="18.5" class="grid-line"/>
<line x1="0" y1="19" x2="24" y2="19" class="grid-line"/>
<line x1="0" y1="19.5" x2="24" y2="19.5" class="grid-line"/>
<line x1="0" y1="20" x2="24" y2="20" class="grid-line"/>
<line x1="0" y1="20.5" x2="24" y2="20.5" class="grid-line"/>
<line x1="0" y1="21" x2="24" y2="21" class="grid-line"/>
<line x1="0" y1="21.5" x2="24" y2="21.5" class="grid-line"/>
<line x1="0" y1="22" x2="24" y2="22" class="grid-line"/>
<line x1="0" y1="22.5" x2="24" y2="22.5" class="grid-line"/>
<line x1="0" y1="23" x2="24" y2="23" class="grid-line"/>
<line x1="0" y1="23.5" x2="24" y2="23.5" class="grid-line"/>
<line x1="0" y1="24" x2="24" y2="24" class="grid-line"/>
</g>
<g id="layer-delaunay" class="layer ">
<line x1="10.382683432365088" y1="15.076120467488712" x2="9.999999999999998" y2="15" class="delaunay-line"/>
<line x1="9.999999999999998" y1="15" x2="10.999999999999998" y2="16" class="delaunay-line"/>
<line x1="10.999999999999998" y1="16" x2="10.382683432365088" y2="15.076120467488712" class="delaunay-line"/>
<line x1="9.999999999999998" y1="15" x2="9.61731656763491" y2="15.076120467488714" class="delaunay-line"/>
<line x1="9.61731656763491" y1="15.076120467488714" x2="10.999999999999998" y2="16" class="delaunay-line"/>
<line x1="10.999999999999998" y1="16" x2="9.999999999999998" y2="15" class="delaunay-line"/>
<line x1="10.999999999999998" y1="16" x2="10.707106781186548" y2="15.292893218813452" class="delaunay-line"/>
<line x1="10.707106781186548" y1="15.292893218813452" x2="10.382683432365088" y2="15.076120467488712" class="delaunay-line"/>
<line x1="10.382683432365088" y1="15.076120467488712" x2="10.999999999999998" y2="16" class="delaunay-line"/>
<line x1="10.999999999999998" y1="16" x2="10.923879532511286" y2="15.617316567634909" class="delaunay-line"/>
<line x1="10.923879532511286" y1="15.617316567634909" x2="10.707106781186548" y2="15.292893218813452" class="delaunay-line"/>
<line x1="10.707106781186548" y1="15.292893218813452" x2="10.999999999999998" y2="16" class="delaunay-line"/>
<line x1="10.38268343236509" y1="16.923879532511286" x2="10.707106781186548" y2="16.707106781186546" class="delaunay-line"/>
<line x1="10.707106781186548" y1="16.707106781186546" x2="10.999999999999998" y2="16" class="delaunay-line"/>
<line x1="10.999999999999998" y1="16" x2="10.38268343236509" y2="16.923879532511286" class="delaunay-line"/>
<line x1="10.707106781186548" y1="16.707106781186546" x2="10.923879532511288" y2="16.382683432365088" class="delaunay-line"/>
<line x1="10.923879532511288" y1="16.382683432365088" x2="10.999999999999998" y2="16" class="delaunay-line"/>
<line x1="10.999999999999998" y1="16" x2="10.707106781186548" y2="16.707106781186546" class="delaunay-line"/>
<line x1="9.076120467488714" y1="16.382683432365088" x2="10.999999999999998" y2="16" class="delaunay-line"/>
<line x1="10.999999999999998" y1="16" x2="9.61731656763491" y2="15.076120467488714" class="delaunay-line"/>
<line x1="9.61731656763491" y1="15.076120467488714" x2="9.076120467488714" y2="16.382683432365088" class="delaunay-line"/>
<line x1="9.292893218813452" y1="15.292893218813452" x2="9.076120467488712" y2="15.617316567634912" class="delaunay-line"/>
<line x1="9.076120467488712" y1="15.617316567634912" x2="9.61731656763491" y2="15.076120467488714" class="delaunay-line"/>
<line x1="9.61731656763491" y1="15.076120467488714" x2="9.292893218813452" y2="15.292893218813452" class="delaunay-line"/>
<line x1="9.076120467488712" y1="15.617316567634912" x2="9.076120467488714" y2="16.382683432365088" class="delaunay-line"/>
<line x1="9.076120467488714" y1="16.382683432365088" x2="9.61731656763491" y2="15.076120467488714" class="delaunay-line"/>
<line x1="9.61731656763491" y1="15.076120467488714" x2="9.076120467488712" y2="15.617316567634912" class="delaunay-line"/>
<line x1="9.076120467488712" y1="15.617316567634912" x2="9" y2="16" class="delaunay-line"/>
<line x1="9" y1="16" x2="9.076120467488714" y2="16.382683432365088" class="delaunay-line"/>
<line x1="9.076120467488714" y1="16.382683432365088" x2="9.076120467488712" y2="15.617316567634912" class="delaunay-line"/>
<line x1="9.617316567634912" y1="16.923879532511286" x2="10.38268343236509" y2="16.923879532511286" class="delaunay-line"/>
<line x1="10.38268343236509" y1="16.923879532511286" x2="10.999999999999998" y2="16" class="delaunay-line"/>
<line x1="10.999999999999998" y1="16" x2="9.617316567634912" y2="16.923879532511286" class="delaunay-line"/>
<line x1="9.076120467488714" y1="16.382683432365088" x2="9.617316567634912" y2="16.923879532511286" class="delaunay-line"/>
<line x1="9.617316567634912" y1="16.923879532511286" x2="10.999999999999998" y2="16" class="delaunay-line"/>
<line x1="10.999999999999998" y1="16" x2="9.076120467488714" y2="16.382683432365088" class="delaunay-line"/>
<line x1="9.076120467488714" y1="16.382683432365088" x2="9.292893218813452" y2="16.707106781186546" class="delaunay-line"/>
<line x1="9.292893218813452" y1="16.707106781186546" x2="9.617316567634912" y2="16.923879532511286" class="delaunay-line"/>
<line x1="9.617316567634912" y1="16.923879532511286" x2="9.076120467488714" y2="16.382683432365088" class="delaunay-line"/>
<line x1="9.617316567634912" y1="16.923879532511286" x2="10" y2="17" class="delaunay-line"/>
<line x1="10" y1="17" x2="10.38268343236509" y2="16.923879532511286" class="delaunay-line"/>
<line x1="10.38268343236509" y1="16.923879532511286" x2="9.617316567634912" y2="16.923879532511286" class="delaunay-line"/>
<line x1="10.38268343236509" y1="16.923879532511286" x2="13.099876884532565" y2="18.550838778855905" class="delaunay-line"/>
<line x1="13.099876884532565" y1="18.550838778855905" x2="10.707106781186548" y2="16.707106781186546" class="delaunay-line"/>
<line x1="10.707106781186548" y1="16.707106781186546" x2="10.38268343236509" y2="16.923879532511286" class="delaunay-line"/>
<line x1="10.707106781186548" y1="16.707106781186546" x2="13.099876884532565" y2="18.550838778855905" class="delaunay-line"/>
<line x1="13.099876884532565" y1="18.550838778855905" x2="10.923879532511288" y2="16.382683432365088" class="delaunay-line"/>
<line x1="10.923879532511288" y1="16.382683432365088" x2="10.707106781186548" y2="16.707106781186546" class="delaunay-line"/>
<line x1="10.923879532511288" y1="16.382683432365088" x2="13.099876884532565" y2="18.550838778855905" class="delaunay-line"/>
<line x1="13.099876884532565" y1="18.550838778855905" x2="10.999999999999998" y2="16" class="delaunay-line"/>
<line x1="10.999999999999998" y1="16" x2="10.923879532511288" y2="16.382683432365088" class="delaunay-line"/>
<line x1="10.999999999999998" y1="16" x2="13.099876884532565" y2="18.550838778855905" class="delaunay-line"/>
<line x1="13.099876884532565" y1="18.550838778855905" x2="10.923879532511286" y2="15.617316567634909" class="delaunay-line"/>
<line x1="10.923879532511286" y1="15.617316567634909" x2="10.999999999999998" y2="16" class="delaunay-line"/>
<line x1="10.923879532511286" y1="15.617316567634909" x2="18.06698729810778" y2="10.75" class="delaunay-line"/>
<line x1="18.06698729810778" y1="10.75" x2="10.707106781186548" y2="15.292893218813452" class="delaunay-line"/>
<line x1="10.707106781186548" y1="15.292893218813452" x2="10.923879532511286" y2="15.617316567634909" class="delaunay-line"/>
<line x1="10.12940952255126" y1="21.517037086855467" x2="13.099876884532565" y2="18.550838778855905" class="delaunay-line"/>
<line x1="13.099876884532565" y1="18.550838778855905" x2="10.38268343236509" y2="16.923879532511286" class="delaunay-line"/>
<line x1="10.38268343236509" y1="16.923879532511286" x2="10.12940952255126" y2="21.517037086855467" class="delaunay-line"/>
<line x1="10.12940952255126" y1="21.517037086855467" x2="10.38268343236509" y2="16.923879532511286" class="delaunay-line"/>
<line x1="10.38268343236509" y1="16.923879532511286" x2="10" y2="17" class="delaunay-line"/>
<line x1="10" y1="17" x2="10.12940952255126" y2="21.517037086855467" class="delaunay-line"/>
<line x1="9.408493649053892" y1="21.47548094716167" x2="10" y2="17" class="delaunay-line"/>
<line x1="10" y1="17" x2="9.617316567634912" y2="16.923879532511286" class="delaunay-line"/>
<line x1="9.617316567634912" y1="16.923879532511286" x2="9.408493649053892" y2="21.47548094716167" class="delaunay-line"/>
<line x1="9.408493649053892" y1="21.47548094716167" x2="9.74991499858278" y2="21.454754689042453" class="delaunay-line"/>
<line x1="9.74991499858278" y1="21.454754689042453" x2="10" y2="17" class="delaunay-line"/>
<line x1="10" y1="17" x2="9.408493649053892" y2="21.47548094716167" class="delaunay-line"/>
<line x1="9.408493649053892" y1="21.47548094716167" x2="9.617316567634912" y2="16.923879532511286" class="delaunay-line"/>
<line x1="9.617316567634912" y1="16.923879532511286" x2="9.157123779438122" y2="21.576060476298473" class="delaunay-line"/>
<line x1="9.157123779438122" y1="21.576060476298473" x2="9.408493649053892" y2="21.47548094716167" class="delaunay-line"/>
<line x1="9.617316567634912" y1="16.923879532511286" x2="9.292893218813452" y2="16.707106781186546" class="delaunay-line"/>
<line x1="9.292893218813452" y1="16.707106781186546" x2="9.157123779438122" y2="21.576060476298473" class="delaunay-line"/>
<line x1="9.157123779438122" y1="21.576060476298473" x2="9.617316567634912" y2="16.923879532511286" class="delaunay-line"/>
<line x1="9.157123779438122" y1="21.576060476298473" x2="9.292893218813452" y2="16.707106781186546" class="delaunay-line"/>
<line x1="9.292893218813452" y1="16.707106781186546" x2="9.034074173710932" y2="21.74118095489748" class="delaunay-line"/>
<line x1="9.034074173710932" y1="21.74118095489748" x2="9.157123779438122" y2="21.576060476298473" class="delaunay-line"/>
<line x1="9.87059047744874" y1="22.482962913144533" x2="10.12940952255126" y2="21.517037086855467" class="delaunay-line"/>
<line x1="10.12940952255126" y1="21.517037086855467" x2="9.74991499858278" y2="21.454754689042453" class="delaunay-line"/>
<line x1="9.74991499858278" y1="21.454754689042453" x2="9.87059047744874" y2="22.482962913144533" class="delaunay-line"/>
<line x1="9.74991499858278" y1="21.454754689042453" x2="10.12940952255126" y2="21.517037086855467" class="delaunay-line"/>
<line x1="10.12940952255126" y1="21.517037086855467" x2="10" y2="17" class="delaunay-line"/>
<line x1="10" y1="17" x2="9.74991499858278" y2="21.454754689042453" class="delaunay-line"/>
<line x1="9.034074173710932" y1="21.74118095489748" x2="9.292893218813452" y2="16.707106781186546" class="delaunay-line"/>
<line x1="9.292893218813452" y1="16.707106781186546" x2="1.7933533402912367" y2="21.39123857099128" class="delaunay-line"/>
<line x1="1.7933533402912367" y1="21.39123857099128" x2="9.034074173710932" y2="21.74118095489748" class="delaunay-line"/>
<line x1="9.408493649053892" y1="21.47548094716167" x2="9.225480947161671" y2="22.158493649053888" class="delaunay-line"/>
<line x1="9.225480947161671" y1="22.158493649053888" x2="9.74991499858278" y2="21.454754689042453" class="delaunay-line"/>
<line x1="9.74991499858278" y1="21.454754689042453" x2="9.408493649053892" y2="21.47548094716167" class="delaunay-line"/>
<line x1="10.25008500141722" y1="22.545245310957547" x2="10.489202619811556" y2="21.652846210125027" class="delaunay-line"/>
<line x1="10.489202619811556" y1="21.652846210125027" x2="10.12940952255126" y2="21.517037086855467" class="delaunay-line"/>
<line x1="10.12940952255126" y1="21.517037086855467" x2="10.25008500141722" y2="22.545245310957547" class="delaunay-line"/>
<line x1="10.12940952255126" y1="21.517037086855467" x2="10.489202619811556" y2="21.652846210125027" class="delaunay-line"/>
<line x1="10.489202619811556" y1="21.652846210125027" x2="13.099876884532565" y2="18.550838778855905" class="delaunay-line"/>
<line x1="13.099876884532565" y1="18.550838778855905" x2="10.12940952255126" y2="21.517037086855467" class="delaunay-line"/>
<line x1="1.7933533402912367" y1="21.39123857099128" x2="9.292893218813452" y2="16.707106781186546" class="delaunay-line"/>
<line x1="9.292893218813452" y1="16.707106781186546" x2="9.076120467488714" y2="16.382683432365088" class="delaunay-line"/>
<line x1="9.076120467488714" y1="16.382683432365088" x2="1.7933533402912367" y2="21.39123857099128" class="delaunay-line"/>
<line x1="9.157123779438122" y1="21.576060476298473" x2="9.225480947161671" y2="22.158493649053888" class="delaunay-line"/>
<line x1="9.225480947161671" y1="22.158493649053888" x2="9.408493649053892" y2="21.47548094716167" class="delaunay-line"/>
<line x1="9.408493649053892" y1="21.47548094716167" x2="9.157123779438122" y2="21.576060476298473" class="delaunay-line"/>
<line x1="10.941921981103166" y1="22.054295713087143" x2="10.842876220561878" y2="22.423939523701527" class="delaunay-line"/>
<line x1="10.842876220561878" y1="22.423939523701527" x2="10.965925826289068" y2="22.25881904510252" class="delaunay-line"/>
<line x1="10.965925826289068" y1="22.25881904510252" x2="10.941921981103166" y2="22.054295713087143" class="delaunay-line"/>
<line x1="10.489202619811556" y1="21.652846210125027" x2="10.774519052838329" y2="21.841506350946112" class="delaunay-line"/>
<line x1="10.774519052838329" y1="21.841506350946112" x2="13.099876884532565" y2="18.550838778855905" class="delaunay-line"/>
<line x1="13.099876884532565" y1="18.550838778855905" x2="10.489202619811556" y2="21.652846210125027" class="delaunay-line"/>
<line x1="9.034074173710932" y1="21.74118095489748" x2="9.058078018896834" y2="21.945704286912857" class="delaunay-line"/>
<line x1="9.058078018896834" y1="21.945704286912857" x2="9.157123779438122" y2="21.576060476298473" class="delaunay-line"/>
<line x1="9.157123779438122" y1="21.576060476298473" x2="9.034074173710932" y2="21.74118095489748" class="delaunay-line"/>
<line x1="10.941921981103166" y1="22.054295713087143" x2="10.774519052838329" y2="21.841506350946112" class="delaunay-line"/>
<line x1="10.774519052838329" y1="21.841506350946112" x2="10.842876220561878" y2="22.423939523701527" class="delaunay-line"/>
<line x1="10.842876220561878" y1="22.423939523701527" x2="10.941921981103166" y2="22.054295713087143" class="delaunay-line"/>
<line x1="10.774519052838329" y1="21.841506350946112" x2="10.941921981103166" y2="22.054295713087143" class="delaunay-line"/>
<line x1="10.941921981103166" y1="22.054295713087143" x2="13.099876884532565" y2="18.550838778855905" class="delaunay-line"/>
<line x1="13.099876884532565" y1="18.550838778855905" x2="10.774519052838329" y2="21.841506350946112" class="delaunay-line"/>
<line x1="9.058078018896834" y1="21.945704286912857" x2="9.225480947161671" y2="22.158493649053888" class="delaunay-line"/>
<line x1="9.225480947161671" y1="22.158493649053888" x2="9.157123779438122" y2="21.576060476298473" class="delaunay-line"/>
<line x1="9.157123779438122" y1="21.576060476298473" x2="9.058078018896834" y2="21.945704286912857" class="delaunay-line"/>
<line x1="10.842876220561878" y1="22.423939523701527" x2="10.774519052838329" y2="21.841506350946112" class="delaunay-line"/>
<line x1="10.774519052838329" y1="21.841506350946112" x2="10.591506350946108" y2="22.52451905283833" class="delaunay-line"/>
<line x1="10.591506350946108" y1="22.52451905283833" x2="10.842876220561878" y2="22.423939523701527" class="delaunay-line"/>
<line x1="10.941921981103166" y1="22.054295713087143" x2="10.965925826289068" y2="22.25881904510252" class="delaunay-line"/>
<line x1="10.965925826289068" y1="22.25881904510252" x2="13.099876884532565" y2="18.550838778855905" class="delaunay-line"/>
<line x1="13.099876884532565" y1="18.550838778855905" x2="10.941921981103166" y2="22.054295713087143" class="delaunay-line"/>
<line x1="9.225480947161671" y1="22.158493649053888" x2="9.510797380188444" y2="22.347153789874973" class="delaunay-line"/>
<line x1="9.510797380188444" y1="22.347153789874973" x2="9.74991499858278" y2="21.454754689042453" class="delaunay-line"/>
<line x1="9.74991499858278" y1="21.454754689042453" x2="9.225480947161671" y2="22.158493649053888" class="delaunay-line"/>
<line x1="10.25008500141722" y1="22.545245310957547" x2="10.774519052838329" y2="21.841506350946112" class="delaunay-line"/>
<line x1="10.774519052838329" y1="21.841506350946112" x2="10.489202619811556" y2="21.652846210125027" class="delaunay-line"/>
<line x1="10.489202619811556" y1="21.652846210125027" x2="10.25008500141722" y2="22.545245310957547" class="delaunay-line"/>
<line x1="9.510797380188444" y1="22.347153789874973" x2="9.87059047744874" y2="22.482962913144533" class="delaunay-line"/>
<line x1="9.87059047744874" y1="22.482962913144533" x2="9.74991499858278" y2="21.454754689042453" class="delaunay-line"/>
<line x1="9.74991499858278" y1="21.454754689042453" x2="9.510797380188444" y2="22.347153789874973" class="delaunay-line"/>
<line x1="9.87059047744874" y1="22.482962913144533" x2="10.25008500141722" y2="22.545245310957547" class="delaunay-line"/>
<line x1="10.25008500141722" y1="22.545245310957547" x2="10.12940952255126" y2="21.517037086855467" class="delaunay-line"/>
<line x1="10.12940952255126" y1="21.517037086855467" x2="9.87059047744874" y2="22.482962913144533" class="delaunay-line"/>
<line x1="10.25008500141722" y1="22.545245310957547" x2="10.591506350946108" y2="22.52451905283833" class="delaunay-line"/>
<line x1="10.591506350946108" y1="22.52451905283833" x2="10.774519052838329" y2="21.841506350946112" class="delaunay-line"/>
<line x1="10.774519052838329" y1="21.841506350946112" x2="10.25008500141722" y2="22.545245310957547" class="delaunay-line"/>
<line x1="18.19561928549564" y1="10.896676670145618" x2="10.923879532511286" y2="15.617316567634909" class="delaunay-line"/>
<line x1="10.923879532511286" y1="15.617316567634909" x2="13.099876884532565" y2="18.550838778855905" class="delaunay-line"/>
<line x1="13.099876884532565" y1="18.550838778855905" x2="18.19561928549564" y2="10.896676670145618" class="delaunay-line"/>
<line x1="18.19561928549564" y1="10.896676670145618" x2="18.06698729810778" y2="10.75" class="delaunay-line"/>
<line x1="18.06698729810778" y1="10.75" x2="10.923879532511286" y2="15.617316567634909" class="delaunay-line"/>
<line x1="10.923879532511286" y1="15.617316567634909" x2="18.19561928549564" y2="10.896676670145618" class="delaunay-line"/>
<line x1="10.707106781186548" y1="15.292893218813452" x2="18.004277569313096" y2="10.565263096110025" class="delaunay-line"/>
<line x1="18.004277569313096" y1="10.565263096110025" x2="10.382683432365088" y2="15.076120467488712" class="delaunay-line"/>
<line x1="10.382683432365088" y1="15.076120467488712" x2="10.707106781186548" y2="15.292893218813452" class="delaunay-line"/>
<line x1="10.382683432365088" y1="15.076120467488712" x2="18.017037086855467" y2="10.37059047744874" class="delaunay-line"/>
<line x1="18.017037086855467" y1="10.37059047744874" x2="9.999999999999998" y2="15" class="delaunay-line"/>
<line x1="9.999999999999998" y1="15" x2="10.382683432365088" y2="15.076120467488712" class="delaunay-line"/>
<line x1="6.109495827765981" y1="0.6585339334426425" x2="0.10949582776598454" y2="11.050838778855907" class="delaunay-line"/>
<line x1="0.10949582776598454" y1="11.050838778855907" x2="9.61731656763491" y2="15.076120467488714" class="delaunay-line"/>
<line x1="9.61731656763491" y1="15.076120467488714" x2="6.109495827765981" y2="0.6585339334426425" class="delaunay-line"/>
<line x1="18.370590477448737" y1="10.982962913144533" x2="18.19561928549564" y2="10.896676670145618" class="delaunay-line"/>
<line x1="18.19561928549564" y1="10.896676670145618" x2="13.099876884532565" y2="18.550838778855905" class="delaunay-line"/>
<line x1="13.099876884532565" y1="18.550838778855905" x2="18.370590477448737" y2="10.982962913144533" class="delaunay-line"/>
<line x1="18.19561928549564" y1="10.896676670145618" x2="18.004277569313096" y2="10.565263096110025" class="delaunay-line"/>
<line x1="18.004277569313096" y1="10.565263096110025" x2="18.06698729810778" y2="10.75" class="delaunay-line"/>
<line x1="18.06698729810778" y1="10.75" x2="18.19561928549564" y2="10.896676670145618" class="delaunay-line"/>
<line x1="18.06698729810778" y1="10.75" x2="18.004277569313096" y2="10.565263096110025" class="delaunay-line"/>
<line x1="18.004277569313096" y1="10.565263096110025" x2="10.707106781186548" y2="15.292893218813452" class="delaunay-line"/>
<line x1="10.707106781186548" y1="15.292893218813452" x2="18.06698729810778" y2="10.75" class="delaunay-line"/>
<line x1="18.869473807779947" y1="21.00855513862619" x2="18.370590477448737" y2="10.982962913144533" class="delaunay-line"/>
<line x1="18.370590477448737" y1="10.982962913144533" x2="13.099876884532565" y2="18.550838778855905" class="delaunay-line"/>
<line x1="13.099876884532565" y1="18.550838778855905" x2="18.869473807779947" y2="21.00855513862619" class="delaunay-line"/>
<line x1="18.19561928549564" y1="10.896676670145618" x2="18.370590477448737" y2="10.982962913144533" class="delaunay-line"/>
<line x1="18.370590477448737" y1="10.982962913144533" x2="18.004277569313096" y2="10.565263096110025" class="delaunay-line"/>
<line x1="18.004277569313096" y1="10.565263096110025" x2="18.19561928549564" y2="10.896676670145618" class="delaunay-line"/>
<line x1="18.103323329854383" y1="10.19561928549564" x2="18.017037086855467" y2="10.37059047744874" class="delaunay-line"/>
<line x1="18.017037086855467" y1="10.37059047744874" x2="18.004277569313096" y2="10.565263096110025" class="delaunay-line"/>
<line x1="18.004277569313096" y1="10.565263096110025" x2="18.103323329854383" y2="10.19561928549564" class="delaunay-line"/>
<line x1="18.004277569313096" y1="10.565263096110025" x2="18.017037086855467" y2="10.37059047744874" class="delaunay-line"/>
<line x1="18.017037086855467" y1="10.37059047744874" x2="10.382683432365088" y2="15.076120467488712" class="delaunay-line"/>
<line x1="10.382683432365088" y1="15.076120467488712" x2="18.004277569313096" y2="10.565263096110025" class="delaunay-line"/>
<line x1="18.03407417371093" y1="21.74118095489748" x2="13.099876884532565" y2="18.550838778855905" class="delaunay-line"/>
<line x1="13.099876884532565" y1="18.550838778855905" x2="18.00855513862619" y2="22.130526192220053" class="delaunay-line"/>
<line x1="18.00855513862619" y1="22.130526192220053" x2="18.03407417371093" y2="21.74118095489748" class="delaunay-line"/>
<line x1="18.03407417371093" y1="21.74118095489748" x2="18.206646659708763" y2="21.391238570991277" class="delaunay-line"/>
<line x1="18.206646659708763" y1="21.391238570991277" x2="13.099876884532565" y2="18.550838778855905" class="delaunay-line"/>
<line x1="13.099876884532565" y1="18.550838778855905" x2="18.03407417371093" y2="21.74118095489748" class="delaunay-line"/>
<line x1="13.099876884532565" y1="18.550838778855905" x2="10.965925826289068" y2="22.25881904510252" class="delaunay-line"/>
<line x1="10.965925826289068" y1="22.25881904510252" x2="18.00855513862619" y2="22.130526192220053" class="delaunay-line"/>
<line x1="18.00855513862619" y1="22.130526192220053" x2="13.099876884532565" y2="18.550838778855905" class="delaunay-line"/>
<line x1="1.5" y1="21.133974596215563" x2="9.076120467488714" y2="16.382683432365088" class="delaunay-line"/>
<line x1="9.076120467488714" y1="16.382683432365088" x2="9" y2="16" class="delaunay-line"/>
<line x1="9" y1="16" x2="1.5" y2="21.133974596215563" class="delaunay-line"/>
<line x1="1.5" y1="21.133974596215563" x2="1.7933533402912367" y2="21.39123857099128" class="delaunay-line"/>
<line x1="1.7933533402912367" y1="21.39123857099128" x2="9.076120467488714" y2="16.382683432365088" class="delaunay-line"/>
<line x1="9.076120467488714" y1="16.382683432365088" x2="1.5" y2="21.133974596215563" class="delaunay-line"/>
<line x1="9.034074173710932" y1="21.74118095489748" x2="1.99144486137381" y2="22.130526192220053" class="delaunay-line"/>
<line x1="1.99144486137381" y1="22.130526192220053" x2="9.058078018896834" y2="21.945704286912857" class="delaunay-line"/>
<line x1="9.058078018896834" y1="21.945704286912857" x2="9.034074173710932" y2="21.74118095489748" class="delaunay-line"/>
<line x1="9.058078018896834" y1="21.945704286912857" x2="1.8660254037844386" y2="22.5" class="delaunay-line"/>
<line x1="1.8660254037844386" y1="22.5" x2="9.225480947161671" y2="22.158493649053888" class="delaunay-line"/>
<line x1="9.225480947161671" y1="22.158493649053888" x2="9.058078018896834" y2="21.945704286912857" class="delaunay-line"/>
<line x1="9.225480947161671" y1="22.158493649053888" x2="1.60876142900872" y2="22.793353340291233" class="delaunay-line"/>
<line x1="1.60876142900872" y1="22.793353340291233" x2="9.510797380188444" y2="22.347153789874973" class="delaunay-line"/>
<line x1="9.510797380188444" y1="22.347153789874973" x2="9.225480947161671" y2="22.158493649053888" class="delaunay-line"/>
<line x1="9.510797380188444" y1="22.347153789874973" x2="0" y2="24" class="delaunay-line"/>
<line x1="0" y1="24" x2="9.87059047744874" y2="22.482962913144533" class="delaunay-line"/>
<line x1="9.87059047744874" y1="22.482962913144533" x2="9.510797380188444" y2="22.347153789874973" class="delaunay-line"/>
<line x1="9.87059047744874" y1="22.482962913144533" x2="0" y2="24" class="delaunay-line"/>
<line x1="0" y1="24" x2="10.25008500141722" y2="22.545245310957547" class="delaunay-line"/>
<line x1="10.25008500141722" y1="22.545245310957547" x2="9.87059047744874" y2="22.482962913144533" class="delaunay-line"/>
<line x1="1.5" y1="21.133974596215563" x2="0.10949582776598454" y2="11.050838778855907" class="delaunay-line"/>
<line x1="0.10949582776598454" y1="11.050838778855907" x2="1.1305261922200502" y2="21.00855513862619" class="delaunay-line"/>
<line x1="1.1305261922200502" y1="21.00855513862619" x2="1.5" y2="21.133974596215563" class="delaunay-line"/>
<line x1="18.00855513862619" y1="22.130526192220053" x2="10.965925826289068" y2="22.25881904510252" class="delaunay-line"/>
<line x1="10.965925826289068" y1="22.25881904510252" x2="18.133974596215563" y2="22.499999999999996" class="delaunay-line"/>
<line x1="18.133974596215563" y1="22.499999999999996" x2="18.00855513862619" y2="22.130526192220053" class="delaunay-line"/>
<line x1="1.7933533402912367" y1="21.39123857099128" x2="1.9659258262890669" y2="21.74118095489748" class="delaunay-line"/>
<line x1="1.9659258262890669" y1="21.74118095489748" x2="9.034074173710932" y2="21.74118095489748" class="delaunay-line"/>
<line x1="9.034074173710932" y1="21.74118095489748" x2="1.7933533402912367" y2="21.39123857099128" class="delaunay-line"/>
<line x1="18.869473807779947" y1="21.00855513862619" x2="18.565263096110023" y2="10.995722430686905" class="delaunay-line"/>
<line x1="18.565263096110023" y1="10.995722430686905" x2="18.370590477448737" y2="10.982962913144533" class="delaunay-line"/>
<line x1="18.370590477448737" y1="10.982962913144533" x2="18.869473807779947" y2="21.00855513862619" class="delaunay-line"/>
<line x1="18.370590477448737" y1="10.982962913144533" x2="18.896676670145617" y2="10.80438071450436" class="delaunay-line"/>
<line x1="18.896676670145617" y1="10.80438071450436" x2="18.004277569313096" y2="10.565263096110025" class="delaunay-line"/>
<line x1="18.004277569313096" y1="10.565263096110025" x2="18.370590477448737" y2="10.982962913144533" class="delaunay-line"/>
<line x1="18.03407417371093" y1="21.74118095489748" x2="18.500000000000004" y2="21.133974596215563" class="delaunay-line"/>
<line x1="18.500000000000004" y1="21.133974596215563" x2="18.206646659708763" y2="21.391238570991277" class="delaunay-line"/>
<line x1="18.206646659708763" y1="21.391238570991277" x2="18.03407417371093" y2="21.74118095489748" class="delaunay-line"/>
<line x1="18.206646659708763" y1="21.391238570991277" x2="18.500000000000004" y2="21.133974596215563" class="delaunay-line"/>
<line x1="18.500000000000004" y1="21.133974596215563" x2="13.099876884532565" y2="18.550838778855905" class="delaunay-line"/>
<line x1="13.099876884532565" y1="18.550838778855905" x2="18.206646659708763" y2="21.391238570991277" class="delaunay-line"/>
<line x1="1.5" y1="21.133974596215563" x2="9" y2="16" class="delaunay-line"/>
<line x1="9" y1="16" x2="0.10949582776598454" y2="11.050838778855907" class="delaunay-line"/>
<line x1="0.10949582776598454" y1="11.050838778855907" x2="1.5" y2="21.133974596215563" class="delaunay-line"/>
<line x1="1.7933533402912367" y1="21.39123857099128" x2="1.5" y2="21.133974596215563" class="delaunay-line"/>
<line x1="1.5" y1="21.133974596215563" x2="1.9659258262890669" y2="21.74118095489748" class="delaunay-line"/>
<line x1="1.9659258262890669" y1="21.74118095489748" x2="1.7933533402912367" y2="21.39123857099128" class="delaunay-line"/>
<line x1="18.995722430686904" y1="10.434736903889975" x2="18.103323329854383" y2="10.19561928549564" class="delaunay-line"/>
<line x1="18.103323329854383" y1="10.19561928549564" x2="18.004277569313096" y2="10.565263096110025" class="delaunay-line"/>
<line x1="18.004277569313096" y1="10.565263096110025" x2="18.995722430686904" y2="10.434736903889975" class="delaunay-line"/>
<line x1="18.017037086855467" y1="10.37059047744874" x2="6.109495827765981" y2="0.6585339334426425" class="delaunay-line"/>
<line x1="6.109495827765981" y1="0.6585339334426425" x2="9.999999999999998" y2="15" class="delaunay-line"/>
<line x1="9.999999999999998" y1="15" x2="18.017037086855467" y2="10.37059047744874" class="delaunay-line"/>
<line x1="18.133974596215563" y1="22.499999999999996" x2="10.965925826289068" y2="22.25881904510252" class="delaunay-line"/>
<line x1="10.965925826289068" y1="22.25881904510252" x2="10.842876220561878" y2="22.423939523701527" class="delaunay-line"/>
<line x1="10.842876220561878" y1="22.423939523701527" x2="18.133974596215563" y2="22.499999999999996" class="delaunay-line"/>
<line x1="18.03407417371093" y1="21.74118095489748" x2="18.133974596215563" y2="22.499999999999996" class="delaunay-line"/>
<line x1="18.133974596215563" y1="22.499999999999996" x2="18.500000000000004" y2="21.133974596215563" class="delaunay-line"/>
<line x1="18.500000000000004" y1="21.133974596215563" x2="18.03407417371093" y2="21.74118095489748" class="delaunay-line"/>
<line x1="18.133974596215563" y1="22.499999999999996" x2="10.842876220561878" y2="22.423939523701527" class="delaunay-line"/>
<line x1="10.842876220561878" y1="22.423939523701527" x2="18.391238570991277" y2="22.793353340291237" class="delaunay-line"/>
<line x1="18.391238570991277" y1="22.793353340291237" x2="18.133974596215563" y2="22.499999999999996" class="delaunay-line"/>
<line x1="1.8660254037844386" y1="22.5" x2="1.99144486137381" y2="22.130526192220053" class="delaunay-line"/>
<line x1="1.99144486137381" y1="22.130526192220053" x2="1.60876142900872" y2="22.793353340291233" class="delaunay-line"/>
<line x1="1.60876142900872" y1="22.793353340291233" x2="1.8660254037844386" y2="22.5" class="delaunay-line"/>
<line x1="1.9659258262890669" y1="21.74118095489748" x2="1.99144486137381" y2="22.130526192220053" class="delaunay-line"/>
<line x1="1.99144486137381" y1="22.130526192220053" x2="9.034074173710932" y2="21.74118095489748" class="delaunay-line"/>
<line x1="9.034074173710932" y1="21.74118095489748" x2="1.9659258262890669" y2="21.74118095489748" class="delaunay-line"/>
<line x1="22.017037086855467" y1="12.62940952255126" x2="18.75" y2="10.933012701892219" class="delaunay-line"/>
<line x1="18.75" y1="10.933012701892219" x2="18.565263096110023" y2="10.995722430686905" class="delaunay-line"/>
<line x1="18.565263096110023" y1="10.995722430686905" x2="22.017037086855467" y2="12.62940952255126" class="delaunay-line"/>
<line x1="18.565263096110023" y1="10.995722430686905" x2="18.75" y2="10.933012701892219" class="delaunay-line"/>
<line x1="18.75" y1="10.933012701892219" x2="18.370590477448737" y2="10.982962913144533" class="delaunay-line"/>
<line x1="18.370590477448737" y1="10.982962913144533" x2="18.565263096110023" y2="10.995722430686905" class="delaunay-line"/>
<line x1="18.434736903889977" y1="10.004277569313095" x2="18.25" y2="10.066987298107781" class="delaunay-line"/>
<line x1="18.25" y1="10.066987298107781" x2="18.629409522551263" y2="10.017037086855467" class="delaunay-line"/>
<line x1="18.629409522551263" y1="10.017037086855467" x2="18.434736903889977" y2="10.004277569313095" class="delaunay-line"/>
<line x1="6.109495827765981" y1="0.6585339334426425" x2="9.61731656763491" y2="15.076120467488714" class="delaunay-line"/>
<line x1="9.61731656763491" y1="15.076120467488714" x2="9.999999999999998" y2="15" class="delaunay-line"/>
<line x1="9.999999999999998" y1="15" x2="6.109495827765981" y2="0.6585339334426425" class="delaunay-line"/>
<line x1="19.25881904510252" y1="21.03407417371093" x2="18.869473807779947" y2="21.00855513862619" class="delaunay-line"/>
<line x1="18.869473807779947" y1="21.00855513862619" x2="18.500000000000004" y2="21.133974596215563" class="delaunay-line"/>
<line x1="18.500000000000004" y1="21.133974596215563" x2="19.25881904510252" y2="21.03407417371093" class="delaunay-line"/>
<line x1="18.500000000000004" y1="21.133974596215563" x2="18.869473807779947" y2="21.00855513862619" class="delaunay-line"/>
<line x1="18.869473807779947" y1="21.00855513862619" x2="13.099876884532565" y2="18.550838778855905" class="delaunay-line"/>
<line x1="13.099876884532565" y1="18.550838778855905" x2="18.500000000000004" y2="21.133974596215563" class="delaunay-line"/>
<line x1="0.7411809548974805" y1="21.034074173710934" x2="1.1305261922200502" y2="21.00855513862619" class="delaunay-line"/>
<line x1="1.1305261922200502" y1="21.00855513862619" x2="0.10949582776598454" y2="11.050838778855907" class="delaunay-line"/>
<line x1="0.10949582776598454" y1="11.050838778855907" x2="0.7411809548974805" y2="21.034074173710934" class="delaunay-line"/>
<line x1="1.60876142900872" y1="22.793353340291233" x2="1.99144486137381" y2="22.130526192220053" class="delaunay-line"/>
<line x1="1.99144486137381" y1="22.130526192220053" x2="1.9659258262890669" y2="21.74118095489748" class="delaunay-line"/>
<line x1="1.9659258262890669" y1="21.74118095489748" x2="1.60876142900872" y2="22.793353340291233" class="delaunay-line"/>
<line x1="22.004277569313096" y1="12.434736903889974" x2="18.896676670145617" y2="10.80438071450436" class="delaunay-line"/>
<line x1="18.896676670145617" y1="10.80438071450436" x2="18.75" y2="10.933012701892219" class="delaunay-line"/>
<line x1="18.75" y1="10.933012701892219" x2="22.004277569313096" y2="12.434736903889974" class="delaunay-line"/>
<line x1="18.75" y1="10.933012701892219" x2="18.896676670145617" y2="10.80438071450436" class="delaunay-line"/>
<line x1="18.896676670145617" y1="10.80438071450436" x2="18.370590477448737" y2="10.982962913144533" class="delaunay-line"/>
<line x1="18.370590477448737" y1="10.982962913144533" x2="18.75" y2="10.933012701892219" class="delaunay-line"/>
<line x1="18.629409522551263" y1="10.017037086855467" x2="18.25" y2="10.066987298107781" class="delaunay-line"/>
<line x1="18.25" y1="10.066987298107781" x2="18.103323329854383" y2="10.19561928549564" class="delaunay-line"/>
<line x1="18.103323329854383" y1="10.19561928549564" x2="18.629409522551263" y2="10.017037086855467" class="delaunay-line"/>
<line x1="18.00855513862619" y1="22.130526192220053" x2="18.133974596215563" y2="22.499999999999996" class="delaunay-line"/>
<line x1="18.133974596215563" y1="22.499999999999996" x2="18.03407417371093" y2="21.74118095489748" class="delaunay-line"/>
<line x1="18.03407417371093" y1="21.74118095489748" x2="18.00855513862619" y2="22.130526192220053" class="delaunay-line"/>
<line x1="18.391238570991277" y1="22.793353340291237" x2="10.842876220561878" y2="22.423939523701527" class="delaunay-line"/>
<line x1="10.842876220561878" y1="22.423939523701527" x2="10.591506350946108" y2="22.52451905283833" class="delaunay-line"/>
<line x1="10.591506350946108" y1="22.52451905283833" x2="18.391238570991277" y2="22.793353340291237" class="delaunay-line"/>
<line x1="0.7411809548974805" y1="21.034074173710934" x2="1.9659258262890669" y2="21.74118095489748" class="delaunay-line"/>
<line x1="1.9659258262890669" y1="21.74118095489748" x2="1.5" y2="21.133974596215563" class="delaunay-line"/>
<line x1="1.5" y1="21.133974596215563" x2="0.7411809548974805" y2="21.034074173710934" class="delaunay-line"/>
<line x1="1.99144486137381" y1="22.130526192220053" x2="1.8660254037844386" y2="22.5" class="delaunay-line"/>
<line x1="1.8660254037844386" y1="22.5" x2="9.058078018896834" y2="21.945704286912857" class="delaunay-line"/>
<line x1="9.058078018896834" y1="21.945704286912857" x2="1.99144486137381" y2="22.130526192220053" class="delaunay-line"/>
<line x1="22.066987298107783" y1="12.250000000000002" x2="18.982962913144533" y2="10.62940952255126" class="delaunay-line"/>
<line x1="18.982962913144533" y1="10.62940952255126" x2="18.896676670145617" y2="10.80438071450436" class="delaunay-line"/>
<line x1="18.896676670145617" y1="10.80438071450436" x2="22.066987298107783" y2="12.250000000000002" class="delaunay-line"/>
<line x1="18.896676670145617" y1="10.80438071450436" x2="18.995722430686904" y2="10.434736903889975" class="delaunay-line"/>
<line x1="18.995722430686904" y1="10.434736903889975" x2="18.004277569313096" y2="10.565263096110025" class="delaunay-line"/>
<line x1="18.004277569313096" y1="10.565263096110025" x2="18.896676670145617" y2="10.80438071450436" class="delaunay-line"/>
<line x1="18.995722430686904" y1="10.434736903889975" x2="18.629409522551263" y2="10.017037086855467" class="delaunay-line"/>
<line x1="18.629409522551263" y1="10.017037086855467" x2="18.103323329854383" y2="10.19561928549564" class="delaunay-line"/>
<line x1="18.103323329854383" y1="10.19561928549564" x2="18.995722430686904" y2="10.434736903889975" class="delaunay-line"/>
<line x1="19.608761429008723" y1="21.206646659708763" x2="19.25881904510252" y2="21.03407417371093" class="delaunay-line"/>
<line x1="19.25881904510252" y1="21.03407417371093" x2="19.866025403784437" y2="21.500000000000004" class="delaunay-line"/>
<line x1="19.866025403784437" y1="21.500000000000004" x2="19.608761429008723" y2="21.206646659708763" class="delaunay-line"/>
<line x1="22.103323329854383" y1="12.804380714504362" x2="22.017037086855467" y2="12.62940952255126" class="delaunay-line"/>
<line x1="22.017037086855467" y1="12.62940952255126" x2="18.565263096110023" y2="10.995722430686905" class="delaunay-line"/>
<line x1="18.565263096110023" y1="10.995722430686905" x2="22.103323329854383" y2="12.804380714504362" class="delaunay-line"/>
<line x1="0.10949582776598454" y1="11.050838778855907" x2="9" y2="16" class="delaunay-line"/>
<line x1="9" y1="16" x2="9.076120467488712" y2="15.617316567634912" class="delaunay-line"/>
<line x1="9.076120467488712" y1="15.617316567634912" x2="0.10949582776598454" y2="11.050838778855907" class="delaunay-line"/>
<line x1="1.1305261922200502" y1="21.00855513862619" x2="0.7411809548974805" y2="21.034074173710934" class="delaunay-line"/>
<line x1="0.7411809548974805" y1="21.034074173710934" x2="1.5" y2="21.133974596215563" class="delaunay-line"/>
<line x1="1.5" y1="21.133974596215563" x2="1.1305261922200502" y2="21.00855513862619" class="delaunay-line"/>
<line x1="22.195619285495642" y1="12.103323329854383" x2="18.995722430686904" y2="10.434736903889975" class="delaunay-line"/>
<line x1="18.995722430686904" y1="10.434736903889975" x2="18.982962913144533" y2="10.62940952255126" class="delaunay-line"/>
<line x1="18.982962913144533" y1="10.62940952255126" x2="22.195619285495642" y2="12.103323329854383" class="delaunay-line"/>
<line x1="18.982962913144533" y1="10.62940952255126" x2="18.995722430686904" y2="10.434736903889975" class="delaunay-line"/>
<line x1="18.995722430686904" y1="10.434736903889975" x2="18.896676670145617" y2="10.80438071450436" class="delaunay-line"/>
<line x1="18.896676670145617" y1="10.80438071450436" x2="18.982962913144533" y2="10.62940952255126" class="delaunay-line"/>
<line x1="18.995722430686904" y1="10.434736903889975" x2="18.80438071450436" y2="10.103323329854382" class="delaunay-line"/>
<line x1="18.80438071450436" y1="10.103323329854382" x2="18.629409522551263" y2="10.017037086855467" class="delaunay-line"/>
<line x1="18.629409522551263" y1="10.017037086855467" x2="18.995722430686904" y2="10.434736903889975" class="delaunay-line"/>
<line x1="18.995722430686904" y1="10.434736903889975" x2="18.93301270189222" y2="10.25" class="delaunay-line"/>
<line x1="18.93301270189222" y1="10.25" x2="18.80438071450436" y2="10.103323329854382" class="delaunay-line"/>
<line x1="18.80438071450436" y1="10.103323329854382" x2="18.995722430686904" y2="10.434736903889975" class="delaunay-line"/>
<line x1="19.866025403784437" y1="21.500000000000004" x2="19.25881904510252" y2="21.03407417371093" class="delaunay-line"/>
<line x1="19.25881904510252" y1="21.03407417371093" x2="18.500000000000004" y2="21.133974596215563" class="delaunay-line"/>
<line x1="18.500000000000004" y1="21.133974596215563" x2="19.866025403784437" y2="21.500000000000004" class="delaunay-line"/>
<line x1="18.74118095489748" y1="22.96592582628907" x2="18.391238570991277" y2="22.793353340291237" class="delaunay-line"/>
<line x1="18.391238570991277" y1="22.793353340291237" x2="10.591506350946108" y2="22.52451905283833" class="delaunay-line"/>
<line x1="10.591506350946108" y1="22.52451905283833" x2="18.74118095489748" y2="22.96592582628907" class="delaunay-line"/>
<line x1="18.74118095489748" y1="22.96592582628907" x2="10.591506350946108" y2="22.52451905283833" class="delaunay-line"/>
<line x1="10.591506350946108" y1="22.52451905283833" x2="10.25008500141722" y2="22.545245310957547" class="delaunay-line"/>
<line x1="10.25008500141722" y1="22.545245310957547" x2="18.74118095489748" y2="22.96592582628907" class="delaunay-line"/>
<line x1="1.2588190451025194" y1="22.965925826289066" x2="1.60876142900872" y2="22.793353340291233" class="delaunay-line"/>
<line x1="1.60876142900872" y1="22.793353340291233" x2="1.9659258262890669" y2="21.74118095489748" class="delaunay-line"/>
<line x1="1.9659258262890669" y1="21.74118095489748" x2="1.2588190451025194" y2="22.965925826289066" class="delaunay-line"/>
<line x1="1.8660254037844386" y1="22.5" x2="1.60876142900872" y2="22.793353340291233" class="delaunay-line"/>
<line x1="1.60876142900872" y1="22.793353340291233" x2="9.225480947161671" y2="22.158493649053888" class="delaunay-line"/>
<line x1="9.225480947161671" y1="22.158493649053888" x2="1.8660254037844386" y2="22.5" class="delaunay-line"/>
<line x1="19.866025403784437" y1="21.500000000000004" x2="18.500000000000004" y2="21.133974596215563" class="delaunay-line"/>
<line x1="18.500000000000004" y1="21.133974596215563" x2="18.133974596215563" y2="22.499999999999996" class="delaunay-line"/>
<line x1="18.133974596215563" y1="22.499999999999996" x2="19.866025403784437" y2="21.500000000000004" class="delaunay-line"/>
<line x1="22.103323329854383" y1="12.804380714504362" x2="18.565263096110023" y2="10.995722430686905" class="delaunay-line"/>
<line x1="18.565263096110023" y1="10.995722430686905" x2="18.869473807779947" y2="21.00855513862619" class="delaunay-line"/>
<line x1="18.869473807779947" y1="21.00855513862619" x2="22.103323329854383" y2="12.804380714504362" class="delaunay-line"/>
<line x1="0.10949582776598454" y1="11.050838778855907" x2="0.3912385709912801" y2="21.206646659708763" class="delaunay-line"/>
<line x1="0.3912385709912801" y1="21.206646659708763" x2="0.7411809548974805" y2="21.034074173710934" class="delaunay-line"/>
<line x1="0.7411809548974805" y1="21.034074173710934" x2="0.10949582776598454" y2="11.050838778855907" class="delaunay-line"/>
<line x1="0.7411809548974805" y1="21.034074173710934" x2="1.2588190451025194" y2="22.965925826289066" class="delaunay-line"/>
<line x1="1.2588190451025194" y1="22.965925826289066" x2="1.9659258262890669" y2="21.74118095489748" class="delaunay-line"/>
<line x1="1.9659258262890669" y1="21.74118095489748" x2="0.7411809548974805" y2="21.034074173710934" class="delaunay-line"/>
<line x1="0.10949582776598454" y1="11.050838778855907" x2="9.076120467488712" y2="15.617316567634912" class="delaunay-line"/>
<line x1="9.076120467488712" y1="15.617316567634912" x2="9.292893218813452" y2="15.292893218813452" class="delaunay-line"/>
<line x1="9.292893218813452" y1="15.292893218813452" x2="0.10949582776598454" y2="11.050838778855907" class="delaunay-line"/>
<line x1="6.109495827765981" y1="0.6585339334426425" x2="18.017037086855467" y2="10.37059047744874" class="delaunay-line"/>
<line x1="18.017037086855467" y1="10.37059047744874" x2="18.103323329854383" y2="10.19561928549564" class="delaunay-line"/>
<line x1="18.103323329854383" y1="10.19561928549564" x2="6.109495827765981" y2="0.6585339334426425" class="delaunay-line"/>
<line x1="9.61731656763491" y1="15.076120467488714" x2="0.10949582776598454" y2="11.050838778855907" class="delaunay-line"/>
<line x1="0.10949582776598454" y1="11.050838778855907" x2="9.292893218813452" y2="15.292893218813452" class="delaunay-line"/>
<line x1="9.292893218813452" y1="15.292893218813452" x2="9.61731656763491" y2="15.076120467488714" class="delaunay-line"/>
<line x1="19.099876884532563" y1="8.158533933442639" x2="18.103323329854383" y2="10.19561928549564" class="delaunay-line"/>
<line x1="18.103323329854383" y1="10.19561928549564" x2="18.25" y2="10.066987298107781" class="delaunay-line"/>
<line x1="18.25" y1="10.066987298107781" x2="19.099876884532563" y2="8.158533933442639" class="delaunay-line"/>
<line x1="24" y1="24" x2="18.74118095489748" y2="22.96592582628907" class="delaunay-line"/>
<line x1="18.74118095489748" y1="22.96592582628907" x2="10.25008500141722" y2="22.545245310957547" class="delaunay-line"/>
<line x1="10.25008500141722" y1="22.545245310957547" x2="24" y2="24" class="delaunay-line"/>
<line x1="18.391238570991277" y1="22.793353340291237" x2="18.74118095489748" y2="22.96592582628907" class="delaunay-line"/>
<line x1="18.74118095489748" y1="22.96592582628907" x2="18.133974596215563" y2="22.499999999999996" class="delaunay-line"/>
<line x1="18.133974596215563" y1="22.499999999999996" x2="18.391238570991277" y2="22.793353340291237" class="delaunay-line"/>
<line x1="0.0340741737109328" y1="22.25881904510252" x2="1.2588190451025194" y2="22.965925826289066" class="delaunay-line"/>
<line x1="1.2588190451025194" y1="22.965925826289066" x2="0.7411809548974805" y2="21.034074173710934" class="delaunay-line"/>
<line x1="0.7411809548974805" y1="21.034074173710934" x2="0.0340741737109328" y2="22.25881904510252" class="delaunay-line"/>
<line x1="1.60876142900872" y1="22.793353340291233" x2="0" y2="24" class="delaunay-line"/>
<line x1="0" y1="24" x2="9.510797380188444" y2="22.347153789874973" class="delaunay-line"/>
<line x1="9.510797380188444" y1="22.347153789874973" x2="1.60876142900872" y2="22.793353340291233" class="delaunay-line"/>
<line x1="19.499999999999996" y1="22.866025403784437" x2="19.866025403784437" y2="21.500000000000004" class="delaunay-line"/>
<line x1="19.866025403784437" y1="21.500000000000004" x2="18.133974596215563" y2="22.499999999999996" class="delaunay-line"/>
<line x1="18.133974596215563" y1="22.499999999999996" x2="19.499999999999996" y2="22.866025403784437" class="delaunay-line"/>
<line x1="22.103323329854383" y1="12.804380714504362" x2="18.869473807779947" y2="21.00855513862619" class="delaunay-line"/>
<line x1="18.869473807779947" y1="21.00855513862619" x2="22.25" y2="12.933012701892219" class="delaunay-line"/>
<line x1="22.25" y1="12.933012701892219" x2="22.103323329854383" y2="12.804380714504362" class="delaunay-line"/>
<line x1="0.10949582776598454" y1="11.050838778855907" x2="0.1339745962155613" y2="21.5" class="delaunay-line"/>
<line x1="0.1339745962155613" y1="21.5" x2="0.3912385709912801" y2="21.206646659708763" class="delaunay-line"/>
<line x1="0.3912385709912801" y1="21.206646659708763" x2="0.10949582776598454" y2="11.050838778855907" class="delaunay-line"/>
<line x1="0.3912385709912801" y1="21.206646659708763" x2="0.1339745962155613" y2="21.5" class="delaunay-line"/>
<line x1="0.1339745962155613" y1="21.5" x2="0.7411809548974805" y2="21.034074173710934" class="delaunay-line"/>
<line x1="0.7411809548974805" y1="21.034074173710934" x2="0.3912385709912801" y2="21.206646659708763" class="delaunay-line"/>
<line x1="24" y1="24" x2="19.130526192220053" y2="22.99144486137381" class="delaunay-line"/>
<line x1="19.130526192220053" y1="22.99144486137381" x2="18.74118095489748" y2="22.96592582628907" class="delaunay-line"/>
<line x1="18.74118095489748" y1="22.96592582628907" x2="24" y2="24" class="delaunay-line"/>
<line x1="18.74118095489748" y1="22.96592582628907" x2="19.499999999999996" y2="22.866025403784437" class="delaunay-line"/>
<line x1="19.499999999999996" y1="22.866025403784437" x2="18.133974596215563" y2="22.499999999999996" class="delaunay-line"/>
<line x1="18.133974596215563" y1="22.499999999999996" x2="18.74118095489748" y2="22.96592582628907" class="delaunay-line"/>
<line x1="0.4999999999999999" y1="22.866025403784437" x2="0.8694738077799498" y2="22.99144486137381" class="delaunay-line"/>
<line x1="0.8694738077799498" y1="22.99144486137381" x2="1.2588190451025194" y2="22.965925826289066" class="delaunay-line"/>
<line x1="1.2588190451025194" y1="22.965925826289066" x2="0.4999999999999999" y2="22.866025403784437" class="delaunay-line"/>
<line x1="1.2588190451025194" y1="22.965925826289066" x2="0" y2="24" class="delaunay-line"/>
<line x1="0" y1="24" x2="1.60876142900872" y2="22.793353340291233" class="delaunay-line"/>
<line x1="1.60876142900872" y1="22.793353340291233" x2="1.2588190451025194" y2="22.965925826289066" class="delaunay-line"/>
<line x1="19.96592582628907" y1="22.25881904510252" x2="19.99144486137381" y2="21.869473807779947" class="delaunay-line"/>
<line x1="19.99144486137381" y1="21.869473807779947" x2="19.866025403784437" y2="21.500000000000004" class="delaunay-line"/>
<line x1="19.866025403784437" y1="21.500000000000004" x2="19.96592582628907" y2="22.25881904510252" class="delaunay-line"/>
<line x1="18.869473807779947" y1="21.00855513862619" x2="19.25881904510252" y2="21.03407417371093" class="delaunay-line"/>
<line x1="19.25881904510252" y1="21.03407417371093" x2="22.25" y2="12.933012701892219" class="delaunay-line"/>
<line x1="22.25" y1="12.933012701892219" x2="18.869473807779947" y2="21.00855513862619" class="delaunay-line"/>
<line x1="0.1339745962155613" y1="21.5" x2="0.00855513862618984" y2="21.86947380777995" class="delaunay-line"/>
<line x1="0.00855513862618984" y1="21.86947380777995" x2="0.7411809548974805" y2="21.034074173710934" class="delaunay-line"/>
<line x1="0.7411809548974805" y1="21.034074173710934" x2="0.1339745962155613" y2="21.5" class="delaunay-line"/>
<line x1="0.10949582776598454" y1="11.050838778855907" x2="0.00855513862618984" y2="21.86947380777995" class="delaunay-line"/>
<line x1="0.00855513862618984" y1="21.86947380777995" x2="0.1339745962155613" y2="21.5" class="delaunay-line"/>
<line x1="0.1339745962155613" y1="21.5" x2="0.10949582776598454" y2="11.050838778855907" class="delaunay-line"/>
<line x1="19.130526192220053" y1="22.99144486137381" x2="19.499999999999996" y2="22.866025403784437" class="delaunay-line"/>
<line x1="19.499999999999996" y1="22.866025403784437" x2="18.74118095489748" y2="22.96592582628907" class="delaunay-line"/>
<line x1="18.74118095489748" y1="22.96592582628907" x2="19.130526192220053" y2="22.99144486137381" class="delaunay-line"/>
<line x1="0.0340741737109328" y1="22.25881904510252" x2="0.4999999999999999" y2="22.866025403784437" class="delaunay-line"/>
<line x1="0.4999999999999999" y1="22.866025403784437" x2="1.2588190451025194" y2="22.965925826289066" class="delaunay-line"/>
<line x1="1.2588190451025194" y1="22.965925826289066" x2="0.0340741737109328" y2="22.25881904510252" class="delaunay-line"/>
<line x1="19.499999999999996" y1="22.866025403784437" x2="19.96592582628907" y2="22.25881904510252" class="delaunay-line"/>
<line x1="19.96592582628907" y1="22.25881904510252" x2="19.866025403784437" y2="21.500000000000004" class="delaunay-line"/>
<line x1="19.866025403784437" y1="21.500000000000004" x2="19.499999999999996" y2="22.866025403784437" class="delaunay-line"/>
<line x1="0.00855513862618984" y1="21.86947380777995" x2="0.0340741737109328" y2="22.25881904510252" class="delaunay-line"/>
<line x1="0.0340741737109328" y1="22.25881904510252" x2="0.7411809548974805" y2="21.034074173710934" class="delaunay-line"/>
<line x1="0.7411809548974805" y1="21.034074173710934" x2="0.00855513862618984" y2="21.86947380777995" class="delaunay-line"/>
<line x1="19.499999999999996" y1="22.866025403784437" x2="19.793353340291237" y2="22.608761429008723" class="delaunay-line"/>
<line x1="19.793353340291237" y1="22.608761429008723" x2="19.96592582628907" y2="22.25881904510252" class="delaunay-line"/>
<line x1="19.96592582628907" y1="22.25881904510252" x2="19.499999999999996" y2="22.866025403784437" class="delaunay-line"/>
<line x1="0.0340741737109328" y1="22.25881904510252" x2="0.20664665970876334" y2="22.60876142900872" class="delaunay-line"/>
<line x1="0.20664665970876334" y1="22.60876142900872" x2="0.4999999999999999" y2="22.866025403784437" class="delaunay-line"/>
<line x1="0.4999999999999999" y1="22.866025403784437" x2="0.0340741737109328" y2="22.25881904510252" class="delaunay-line"/>
<line x1="18.629409522551263" y1="10.017037086855467" x2="19.099876884532563" y2="8.158533933442639" class="delaunay-line"/>
<line x1="19.099876884532563" y1="8.158533933442639" x2="18.434736903889977" y2="10.004277569313095" class="delaunay-line"/>
<line x1="18.434736903889977" y1="10.004277569313095" x2="18.629409522551263" y2="10.017037086855467" class="delaunay-line"/>
<line x1="18.434736903889977" y1="10.004277569313095" x2="19.099876884532563" y2="8.158533933442639" class="delaunay-line"/>
<line x1="19.099876884532563" y1="8.158533933442639" x2="18.25" y2="10.066987298107781" class="delaunay-line"/>
<line x1="18.25" y1="10.066987298107781" x2="18.434736903889977" y2="10.004277569313095" class="delaunay-line"/>
<line x1="18.80438071450436" y1="10.103323329854382" x2="19.099876884532563" y2="8.158533933442639" class="delaunay-line"/>
<line x1="19.099876884532563" y1="8.158533933442639" x2="18.629409522551263" y2="10.017037086855467" class="delaunay-line"/>
<line x1="18.629409522551263" y1="10.017037086855467" x2="18.80438071450436" y2="10.103323329854382" class="delaunay-line"/>
<line x1="18.93301270189222" y1="10.25" x2="19.099876884532563" y2="8.158533933442639" class="delaunay-line"/>
<line x1="19.099876884532563" y1="8.158533933442639" x2="18.80438071450436" y2="10.103323329854382" class="delaunay-line"/>
<line x1="18.80438071450436" y1="10.103323329854382" x2="18.93301270189222" y2="10.25" class="delaunay-line"/>
<line x1="21.133974596215563" y1="7.5" x2="19.099876884532563" y2="8.158533933442639" class="delaunay-line"/>
<line x1="19.099876884532563" y1="8.158533933442639" x2="21.39123857099128" y2="7.793353340291237" class="delaunay-line"/>
<line x1="21.39123857099128" y1="7.793353340291237" x2="21.133974596215563" y2="7.5" class="delaunay-line"/>
<line x1="19.099876884532563" y1="8.158533933442639" x2="18.93301270189222" y2="10.25" class="delaunay-line"/>
<line x1="18.93301270189222" y1="10.25" x2="21.39123857099128" y2="7.793353340291237" class="delaunay-line"/>
<line x1="21.39123857099128" y1="7.793353340291237" x2="19.099876884532563" y2="8.158533933442639" class="delaunay-line"/>
<line x1="19.25881904510252" y1="21.03407417371093" x2="22.434736903889974" y2="12.995722430686904" class="delaunay-line"/>
<line x1="22.434736903889974" y1="12.995722430686904" x2="22.25" y2="12.933012701892219" class="delaunay-line"/>
<line x1="22.25" y1="12.933012701892219" x2="19.25881904510252" y2="21.03407417371093" class="delaunay-line"/>
<line x1="19.608761429008723" y1="21.206646659708763" x2="22.434736903889974" y2="12.995722430686904" class="delaunay-line"/>
<line x1="22.434736903889974" y1="12.995722430686904" x2="19.25881904510252" y2="21.03407417371093" class="delaunay-line"/>
<line x1="19.25881904510252" y1="21.03407417371093" x2="19.608761429008723" y2="21.206646659708763" class="delaunay-line"/>
<line x1="19.608761429008723" y1="21.206646659708763" x2="22.62940952255126" y2="12.982962913144535" class="delaunay-line"/>
<line x1="22.62940952255126" y1="12.982962913144535" x2="22.434736903889974" y2="12.995722430686904" class="delaunay-line"/>
<line x1="22.434736903889974" y1="12.995722430686904" x2="19.608761429008723" y2="21.206646659708763" class="delaunay-line"/>
<line x1="22.066987298107783" y1="12.250000000000002" x2="22.004277569313096" y2="12.434736903889974" class="delaunay-line"/>
<line x1="22.004277569313096" y1="12.434736903889974" x2="22.017037086855467" y2="12.62940952255126" class="delaunay-line"/>
<line x1="22.017037086855467" y1="12.62940952255126" x2="22.066987298107783" y2="12.250000000000002" class="delaunay-line"/>
<line x1="22.017037086855467" y1="12.62940952255126" x2="22.004277569313096" y2="12.434736903889974" class="delaunay-line"/>
<line x1="22.004277569313096" y1="12.434736903889974" x2="18.75" y2="10.933012701892219" class="delaunay-line"/>
<line x1="18.75" y1="10.933012701892219" x2="22.017037086855467" y2="12.62940952255126" class="delaunay-line"/>
<line x1="19.608761429008723" y1="21.206646659708763" x2="19.866025403784437" y2="21.500000000000004" class="delaunay-line"/>
<line x1="19.866025403784437" y1="21.500000000000004" x2="22.62940952255126" y2="12.982962913144535" class="delaunay-line"/>
<line x1="22.62940952255126" y1="12.982962913144535" x2="19.608761429008723" y2="21.206646659708763" class="delaunay-line"/>
<line x1="22.103323329854383" y1="12.804380714504362" x2="22.25" y2="12.933012701892219" class="delaunay-line"/>
<line x1="22.25" y1="12.933012701892219" x2="22.017037086855467" y2="12.62940952255126" class="delaunay-line"/>
<line x1="22.017037086855467" y1="12.62940952255126" x2="22.103323329854383" y2="12.804380714504362" class="delaunay-line"/>
<line x1="22.434736903889974" y1="12.995722430686904" x2="22.066987298107783" y2="12.250000000000002" class="delaunay-line"/>
<line x1="22.066987298107783" y1="12.250000000000002" x2="22.017037086855467" y2="12.62940952255126" class="delaunay-line"/>
<line x1="22.017037086855467" y1="12.62940952255126" x2="22.434736903889974" y2="12.995722430686904" class="delaunay-line"/>
<line x1="22.004277569313096" y1="12.434736903889974" x2="22.066987298107783" y2="12.250000000000002" class="delaunay-line"/>
<line x1="22.066987298107783" y1="12.250000000000002" x2="18.896676670145617" y2="10.80438071450436" class="delaunay-line"/>
<line x1="18.896676670145617" y1="10.80438071450436" x2="22.004277569313096" y2="12.434736903889974" class="delaunay-line"/>
<line x1="22.62940952255126" y1="12.982962913144535" x2="24" y2="24" class="delaunay-line"/>
<line x1="24" y1="24" x2="22.804380714504358" y2="12.896676670145617" class="delaunay-line"/>
<line x1="22.804380714504358" y1="12.896676670145617" x2="22.62940952255126" y2="12.982962913144535" class="delaunay-line"/>
<line x1="22.25" y1="12.933012701892219" x2="22.434736903889974" y2="12.995722430686904" class="delaunay-line"/>
<line x1="22.434736903889974" y1="12.995722430686904" x2="22.017037086855467" y2="12.62940952255126" class="delaunay-line"/>
<line x1="22.017037086855467" y1="12.62940952255126" x2="22.25" y2="12.933012701892219" class="delaunay-line"/>
<line x1="22.565263096110026" y1="12.004277569313096" x2="22.195619285495642" y2="12.103323329854383" class="delaunay-line"/>
<line x1="22.195619285495642" y1="12.103323329854383" x2="22.066987298107783" y2="12.250000000000002" class="delaunay-line"/>
<line x1="22.066987298107783" y1="12.250000000000002" x2="22.565263096110026" y2="12.004277569313096" class="delaunay-line"/>
<line x1="22.066987298107783" y1="12.250000000000002" x2="22.195619285495642" y2="12.103323329854383" class="delaunay-line"/>
<line x1="22.195619285495642" y1="12.103323329854383" x2="18.982962913144533" y2="10.62940952255126" class="delaunay-line"/>
<line x1="18.982962913144533" y1="10.62940952255126" x2="22.066987298107783" y2="12.250000000000002" class="delaunay-line"/>
<line x1="0.00855513862618984" y1="21.86947380777995" x2="0" y2="24" class="delaunay-line"/>
<line x1="0" y1="24" x2="0.0340741737109328" y2="22.25881904510252" class="delaunay-line"/>
<line x1="0.0340741737109328" y1="22.25881904510252" x2="0.00855513862618984" y2="21.86947380777995" class="delaunay-line"/>
<line x1="0.0340741737109328" y1="22.25881904510252" x2="0" y2="24" class="delaunay-line"/>
<line x1="0" y1="24" x2="0.20664665970876334" y2="22.60876142900872" class="delaunay-line"/>
<line x1="0.20664665970876334" y1="22.60876142900872" x2="0.0340741737109328" y2="22.25881904510252" class="delaunay-line"/>
<line x1="0.20664665970876334" y1="22.60876142900872" x2="0" y2="24" class="delaunay-line"/>
<line x1="0" y1="24" x2="0.4999999999999999" y2="22.866025403784437" class="delaunay-line"/>
<line x1="0.4999999999999999" y1="22.866025403784437" x2="0.20664665970876334" y2="22.60876142900872" class="delaunay-line"/>
<line x1="0.4999999999999999" y1="22.866025403784437" x2="0" y2="24" class="delaunay-line"/>
<line x1="0" y1="24" x2="0.8694738077799498" y2="22.99144486137381" class="delaunay-line"/>
<line x1="0.8694738077799498" y1="22.99144486137381" x2="0.4999999999999999" y2="22.866025403784437" class="delaunay-line"/>
<line x1="0.8694738077799498" y1="22.99144486137381" x2="0" y2="24" class="delaunay-line"/>
<line x1="0" y1="24" x2="1.2588190451025194" y2="22.965925826289066" class="delaunay-line"/>
<line x1="1.2588190451025194" y1="22.965925826289066" x2="0.8694738077799498" y2="22.99144486137381" class="delaunay-line"/>
<line x1="22.62940952255126" y1="12.982962913144535" x2="19.866025403784437" y2="21.500000000000004" class="delaunay-line"/>
<line x1="19.866025403784437" y1="21.500000000000004" x2="24" y2="24" class="delaunay-line"/>
<line x1="24" y1="24" x2="22.62940952255126" y2="12.982962913144535" class="delaunay-line"/>
<line x1="22.434736903889974" y1="12.995722430686904" x2="22.933012701892217" y2="12.749999999999998" class="delaunay-line"/>
<line x1="22.933012701892217" y1="12.749999999999998" x2="22.066987298107783" y2="12.250000000000002" class="delaunay-line"/>
<line x1="22.066987298107783" y1="12.250000000000002" x2="22.434736903889974" y2="12.995722430686904" class="delaunay-line"/>
<line x1="22.565263096110026" y1="12.004277569313096" x2="22.37059047744874" y2="12.017037086855465" class="delaunay-line"/>
<line x1="22.37059047744874" y1="12.017037086855465" x2="22.195619285495642" y2="12.103323329854383" class="delaunay-line"/>
<line x1="22.195619285495642" y1="12.103323329854383" x2="22.565263096110026" y2="12.004277569313096" class="delaunay-line"/>
<line x1="21.741180954897477" y1="7.965925826289067" x2="18.93301270189222" y2="10.25" class="delaunay-line"/>
<line x1="18.93301270189222" y1="10.25" x2="18.995722430686904" y2="10.434736903889975" class="delaunay-line"/>
<line x1="18.995722430686904" y1="10.434736903889975" x2="21.741180954897477" y2="7.965925826289067" class="delaunay-line"/>
<line x1="22.933012701892217" y1="12.749999999999998" x2="22.804380714504358" y2="12.896676670145617" class="delaunay-line"/>
<line x1="22.804380714504358" y1="12.896676670145617" x2="24" y2="24" class="delaunay-line"/>
<line x1="24" y1="24" x2="22.933012701892217" y2="12.749999999999998" class="delaunay-line"/>
<line x1="22.62940952255126" y1="12.982962913144535" x2="22.804380714504358" y2="12.896676670145617" class="delaunay-line"/>
<line x1="22.804380714504358" y1="12.896676670145617" x2="22.434736903889974" y2="12.995722430686904" class="delaunay-line"/>
<line x1="22.434736903889974" y1="12.995722430686904" x2="22.62940952255126" y2="12.982962913144535" class="delaunay-line"/>
<line x1="22.933012701892217" y1="12.749999999999998" x2="22.565263096110026" y2="12.004277569313096" class="delaunay-line"/>
<line x1="22.565263096110026" y1="12.004277569313096" x2="22.066987298107783" y2="12.250000000000002" class="delaunay-line"/>
<line x1="22.066987298107783" y1="12.250000000000002" x2="22.933012701892217" y2="12.749999999999998" class="delaunay-line"/>
<line x1="21.39123857099128" y1="7.793353340291237" x2="18.93301270189222" y2="10.25" class="delaunay-line"/>
<line x1="18.93301270189222" y1="10.25" x2="21.741180954897477" y2="7.965925826289067" class="delaunay-line"/>
<line x1="21.741180954897477" y1="7.965925826289067" x2="21.39123857099128" y2="7.793353340291237" class="delaunay-line"/>
<line x1="24" y1="24" x2="19.866025403784437" y2="21.500000000000004" class="delaunay-line"/>
<line x1="19.866025403784437" y1="21.500000000000004" x2="19.99144486137381" y2="21.869473807779947" class="delaunay-line"/>
<line x1="19.99144486137381" y1="21.869473807779947" x2="24" y2="24" class="delaunay-line"/>
<line x1="22.804380714504358" y1="12.896676670145617" x2="22.933012701892217" y2="12.749999999999998" class="delaunay-line"/>
<line x1="22.933012701892217" y1="12.749999999999998" x2="22.434736903889974" y2="12.995722430686904" class="delaunay-line"/>
<line x1="22.434736903889974" y1="12.995722430686904" x2="22.804380714504358" y2="12.896676670145617" class="delaunay-line"/>
<line x1="22.982962913144533" y1="12.37059047744874" x2="22.75" y2="12.066987298107781" class="delaunay-line"/>
<line x1="22.75" y1="12.066987298107781" x2="22.565263096110026" y2="12.004277569313096" class="delaunay-line"/>
<line x1="22.565263096110026" y1="12.004277569313096" x2="22.982962913144533" y2="12.37059047744874" class="delaunay-line"/>
<line x1="18.995722430686904" y1="10.434736903889975" x2="22.195619285495642" y2="12.103323329854383" class="delaunay-line"/>
<line x1="22.195619285495642" y1="12.103323329854383" x2="21.741180954897477" y2="7.965925826289067" class="delaunay-line"/>
<line x1="21.741180954897477" y1="7.965925826289067" x2="18.995722430686904" y2="10.434736903889975" class="delaunay-line"/>
<line x1="24" y1="24" x2="22.995722430686904" y2="12.565263096110026" class="delaunay-line"/>
<line x1="22.995722430686904" y1="12.565263096110026" x2="22.933012701892217" y2="12.749999999999998" class="delaunay-line"/>
<line x1="22.933012701892217" y1="12.749999999999998" x2="24" y2="24" class="delaunay-line"/>
<line x1="22.933012701892217" y1="12.749999999999998" x2="22.982962913144533" y2="12.37059047744874" class="delaunay-line"/>
<line x1="22.982962913144533" y1="12.37059047744874" x2="22.565263096110026" y2="12.004277569313096" class="delaunay-line"/>
<line x1="22.565263096110026" y1="12.004277569313096" x2="22.933012701892217" y2="12.749999999999998" class="delaunay-line"/>
<line x1="22.982962913144533" y1="12.37059047744874" x2="22.896676670145617" y2="12.195619285495638" class="delaunay-line"/>
<line x1="22.896676670145617" y1="12.195619285495638" x2="22.75" y2="12.066987298107781" class="delaunay-line"/>
<line x1="22.75" y1="12.066987298107781" x2="22.982962913144533" y2="12.37059047744874" class="delaunay-line"/>
<line x1="22.195619285495642" y1="12.103323329854383" x2="22.37059047744874" y2="12.017037086855465" class="delaunay-line"/>
<line x1="22.37059047744874" y1="12.017037086855465" x2="21.741180954897477" y2="7.965925826289067" class="delaunay-line"/>
<line x1="21.741180954897477" y1="7.965925826289067" x2="22.195619285495642" y2="12.103323329854383" class="delaunay-line"/>
<line x1="22.995722430686904" y1="12.565263096110026" x2="22.982962913144533" y2="12.37059047744874" class="delaunay-line"/>
<line x1="22.982962913144533" y1="12.37059047744874" x2="22.933012701892217" y2="12.749999999999998" class="delaunay-line"/>
<line x1="22.933012701892217" y1="12.749999999999998" x2="22.995722430686904" y2="12.565263096110026" class="delaunay-line"/>
<line x1="22.565263096110026" y1="12.004277569313096" x2="22.130526192220053" y2="7.99144486137381" class="delaunay-line"/>
<line x1="22.130526192220053" y1="7.99144486137381" x2="22.37059047744874" y2="12.017037086855465" class="delaunay-line"/>
<line x1="22.37059047744874" y1="12.017037086855465" x2="22.565263096110026" y2="12.004277569313096" class="delaunay-line"/>
<line x1="22.37059047744874" y1="12.017037086855465" x2="22.130526192220053" y2="7.99144486137381" class="delaunay-line"/>
<line x1="22.130526192220053" y1="7.99144486137381" x2="21.741180954897477" y2="7.965925826289067" class="delaunay-line"/>
<line x1="21.741180954897477" y1="7.965925826289067" x2="22.37059047744874" y2="12.017037086855465" class="delaunay-line"/>
<line x1="19.099876884532563" y1="8.158533933442639" x2="6.109495827765981" y2="0.6585339334426425" class="delaunay-line"/>
<line x1="6.109495827765981" y1="0.6585339334426425" x2="18.103323329854383" y2="10.19561928549564" class="delaunay-line"/>
<line x1="18.103323329854383" y1="10.19561928549564" x2="19.099876884532563" y2="8.158533933442639" class="delaunay-line"/>
<line x1="22.565263096110026" y1="12.004277569313096" x2="22.5" y2="7.866025403784438" class="delaunay-line"/>
<line x1="22.5" y1="7.866025403784438" x2="22.130526192220053" y2="7.99144486137381" class="delaunay-line"/>
<line x1="22.130526192220053" y1="7.99144486137381" x2="22.565263096110026" y2="12.004277569313096" class="delaunay-line"/>
<line x1="21.03407417371093" y1="6.741180954897481" x2="21.00855513862619" y2="7.130526192220051" class="delaunay-line"/>
<line x1="21.00855513862619" y1="7.130526192220051" x2="21.206646659708767" y2="6.39123857099128" class="delaunay-line"/>
<line x1="21.206646659708767" y1="6.39123857099128" x2="21.03407417371093" y2="6.741180954897481" class="delaunay-line"/>
<line x1="21.133974596215563" y1="7.5" x2="21.00855513862619" y2="7.130526192220051" class="delaunay-line"/>
<line x1="21.00855513862619" y1="7.130526192220051" x2="19.099876884532563" y2="8.158533933442639" class="delaunay-line"/>
<line x1="19.099876884532563" y1="8.158533933442639" x2="21.133974596215563" y2="7.5" class="delaunay-line"/>
<line x1="22.565263096110026" y1="12.004277569313096" x2="22.75" y2="12.066987298107781" class="delaunay-line"/>
<line x1="22.75" y1="12.066987298107781" x2="22.5" y2="7.866025403784438" class="delaunay-line"/>
<line x1="22.5" y1="7.866025403784438" x2="22.565263096110026" y2="12.004277569313096" class="delaunay-line"/>
<line x1="21.39123857099128" y1="7.793353340291237" x2="21.741180954897477" y2="7.965925826289067" class="delaunay-line"/>
<line x1="21.741180954897477" y1="7.965925826289067" x2="21.133974596215563" y2="7.5" class="delaunay-line"/>
<line x1="21.133974596215563" y1="7.5" x2="21.39123857099128" y2="7.793353340291237" class="delaunay-line"/>
<line x1="21.206646659708767" y1="6.39123857099128" x2="21.00855513862619" y2="7.130526192220051" class="delaunay-line"/>
<line x1="21.00855513862619" y1="7.130526192220051" x2="21.133974596215563" y2="7.5" class="delaunay-line"/>
<line x1="21.133974596215563" y1="7.5" x2="21.206646659708767" y2="6.39123857099128" class="delaunay-line"/>
<line x1="21.00855513862619" y1="7.130526192220051" x2="21.03407417371093" y2="6.741180954897481" class="delaunay-line"/>
<line x1="21.03407417371093" y1="6.741180954897481" x2="19.099876884532563" y2="8.158533933442639" class="delaunay-line"/>
<line x1="19.099876884532563" y1="8.158533933442639" x2="21.00855513862619" y2="7.130526192220051" class="delaunay-line"/>
<line x1="22.5" y1="7.866025403784438" x2="22.75" y2="12.066987298107781" class="delaunay-line"/>
<line x1="22.75" y1="12.066987298107781" x2="22.793353340291237" y2="7.6087614290087195" class="delaunay-line"/>
<line x1="22.793353340291237" y1="7.6087614290087195" x2="22.5" y2="7.866025403784438" class="delaunay-line"/>
<line x1="21.741180954897477" y1="7.965925826289067" x2="21.206646659708767" y2="6.39123857099128" class="delaunay-line"/>
<line x1="21.206646659708767" y1="6.39123857099128" x2="21.133974596215563" y2="7.5" class="delaunay-line"/>
<line x1="21.133974596215563" y1="7.5" x2="21.741180954897477" y2="7.965925826289067" class="delaunay-line"/>
<line x1="22.866025403784437" y1="6.5" x2="21.206646659708767" y2="6.39123857099128" class="delaunay-line"/>
<line x1="21.206646659708767" y1="6.39123857099128" x2="21.741180954897477" y2="7.965925826289067" class="delaunay-line"/>
<line x1="21.741180954897477" y1="7.965925826289067" x2="22.866025403784437" y2="6.5" class="delaunay-line"/>
<line x1="21.03407417371093" y1="6.741180954897481" x2="21.206646659708767" y2="6.39123857099128" class="delaunay-line"/>
<line x1="21.206646659708767" y1="6.39123857099128" x2="19.099876884532563" y2="8.158533933442639" class="delaunay-line"/>
<line x1="19.099876884532563" y1="8.158533933442639" x2="21.03407417371093" y2="6.741180954897481" class="delaunay-line"/>
<line x1="22.793353340291237" y1="7.6087614290087195" x2="22.75" y2="12.066987298107781" class="delaunay-line"/>
<line x1="22.75" y1="12.066987298107781" x2="22.896676670145617" y2="12.195619285495638" class="delaunay-line"/>
<line x1="22.896676670145617" y1="12.195619285495638" x2="22.793353340291237" y2="7.6087614290087195" class="delaunay-line"/>
<line x1="22.130526192220053" y1="7.99144486137381" x2="22.5" y2="7.866025403784438" class="delaunay-line"/>
<line x1="22.5" y1="7.866025403784438" x2="21.741180954897477" y2="7.965925826289067" class="delaunay-line"/>
<line x1="21.741180954897477" y1="7.965925826289067" x2="22.130526192220053" y2="7.99144486137381" class="delaunay-line"/>
<line x1="21.869473807779947" y1="6.00855513862619" x2="21.5" y2="6.133974596215562" class="delaunay-line"/>
<line x1="21.5" y1="6.133974596215562" x2="21.206646659708767" y2="6.39123857099128" class="delaunay-line"/>
<line x1="21.206646659708767" y1="6.39123857099128" x2="21.869473807779947" y2="6.00855513862619" class="delaunay-line"/>
<line x1="21.206646659708767" y1="6.39123857099128" x2="6.109495827765981" y2="0.6585339334426425" class="delaunay-line"/>
<line x1="6.109495827765981" y1="0.6585339334426425" x2="19.099876884532563" y2="8.158533933442639" class="delaunay-line"/>
<line x1="19.099876884532563" y1="8.158533933442639" x2="21.206646659708767" y2="6.39123857099128" class="delaunay-line"/>
<line x1="22.96592582628907" y1="7.258819045102519" x2="22.793353340291237" y2="7.6087614290087195" class="delaunay-line"/>
<line x1="22.793353340291237" y1="7.6087614290087195" x2="22.896676670145617" y2="12.195619285495638" class="delaunay-line"/>
<line x1="22.896676670145617" y1="12.195619285495638" x2="22.96592582628907" y2="7.258819045102519" class="delaunay-line"/>
<line x1="22.258819045102523" y1="6.034074173710933" x2="21.869473807779947" y2="6.00855513862619" class="delaunay-line"/>
<line x1="21.869473807779947" y1="6.00855513862619" x2="21.206646659708767" y2="6.39123857099128" class="delaunay-line"/>
<line x1="21.206646659708767" y1="6.39123857099128" x2="22.258819045102523" y2="6.034074173710933" class="delaunay-line"/>
<line x1="22.96592582628907" y1="7.258819045102519" x2="22.896676670145617" y2="12.195619285495638" class="delaunay-line"/>
<line x1="22.896676670145617" y1="12.195619285495638" x2="22.982962913144533" y2="12.37059047744874" class="delaunay-line"/>
<line x1="22.982962913144533" y1="12.37059047744874" x2="22.96592582628907" y2="7.258819045102519" class="delaunay-line"/>
<line x1="22.258819045102523" y1="6.034074173710933" x2="21.206646659708767" y2="6.39123857099128" class="delaunay-line"/>
<line x1="21.206646659708767" y1="6.39123857099128" x2="22.866025403784437" y2="6.5" class="delaunay-line"/>
<line x1="22.866025403784437" y1="6.5" x2="22.258819045102523" y2="6.034074173710933" class="delaunay-line"/>
<line x1="24" y1="0" x2="6.109495827765981" y2="0.6585339334426425" class="delaunay-line"/>
<line x1="6.109495827765981" y1="0.6585339334426425" x2="21.206646659708767" y2="6.39123857099128" class="delaunay-line"/>
<line x1="21.206646659708767" y1="6.39123857099128" x2="24" y2="0" class="delaunay-line"/>
<line x1="22.99144486137381" y1="6.869473807779949" x2="22.96592582628907" y2="7.258819045102519" class="delaunay-line"/>
<line x1="22.96592582628907" y1="7.258819045102519" x2="22.982962913144533" y2="12.37059047744874" class="delaunay-line"/>
<line x1="22.982962913144533" y1="12.37059047744874" x2="22.99144486137381" y2="6.869473807779949" class="delaunay-line"/>
<line x1="22.793353340291237" y1="7.6087614290087195" x2="22.866025403784437" y2="6.5" class="delaunay-line"/>
<line x1="22.866025403784437" y1="6.5" x2="22.5" y2="7.866025403784438" class="delaunay-line"/>
<line x1="22.5" y1="7.866025403784438" x2="22.793353340291237" y2="7.6087614290087195" class="delaunay-line"/>
<line x1="22.866025403784437" y1="6.5" x2="21.741180954897477" y2="7.965925826289067" class="delaunay-line"/>
<line x1="21.741180954897477" y1="7.965925826289067" x2="22.5" y2="7.866025403784438" class="delaunay-line"/>
<line x1="22.5" y1="7.866025403784438" x2="22.866025403784437" y2="6.5" class="delaunay-line"/>
<line x1="24" y1="0" x2="21.5" y2="6.133974596215562" class="delaunay-line"/>
<line x1="21.5" y1="6.133974596215562" x2="21.869473807779947" y2="6.00855513862619" class="delaunay-line"/>
<line x1="21.869473807779947" y1="6.00855513862619" x2="24" y2="0" class="delaunay-line"/>
<line x1="24" y1="0" x2="21.206646659708767" y2="6.39123857099128" class="delaunay-line"/>
<line x1="21.206646659708767" y1="6.39123857099128" x2="21.5" y2="6.133974596215562" class="delaunay-line"/>
<line x1="21.5" y1="6.133974596215562" x2="24" y2="0" class="delaunay-line"/>
<line x1="22.96592582628907" y1="7.258819045102519" x2="22.866025403784437" y2="6.5" class="delaunay-line"/>
<line x1="22.866025403784437" y1="6.5" x2="22.793353340291237" y2="7.6087614290087195" class="delaunay-line"/>
<line x1="22.793353340291237" y1="7.6087614290087195" x2="22.96592582628907" y2="7.258819045102519" class="delaunay-line"/>
<line x1="22.995722430686904" y1="12.565263096110026" x2="22.99144486137381" y2="6.869473807779949" class="delaunay-line"/>
<line x1="22.99144486137381" y1="6.869473807779949" x2="22.982962913144533" y2="12.37059047744874" class="delaunay-line"/>
<line x1="22.982962913144533" y1="12.37059047744874" x2="22.995722430686904" y2="12.565263096110026" class="delaunay-line"/>
<line x1="22.866025403784437" y1="6.5" x2="22.60876142900872" y2="6.206646659708764" class="delaunay-line"/>
<line x1="22.60876142900872" y1="6.206646659708764" x2="22.258819045102523" y2="6.034074173710933" class="delaunay-line"/>
<line x1="22.258819045102523" y1="6.034074173710933" x2="22.866025403784437" y2="6.5" class="delaunay-line"/>
<line x1="22.99144486137381" y1="6.869473807779949" x2="22.866025403784437" y2="6.5" class="delaunay-line"/>
<line x1="22.866025403784437" y1="6.5" x2="22.96592582628907" y2="7.258819045102519" class="delaunay-line"/>
<line x1="22.96592582628907" y1="7.258819045102519" x2="22.99144486137381" y2="6.869473807779949" class="delaunay-line"/>
<line x1="19.793353340291237" y1="22.608761429008723" x2="24" y2="24" class="delaunay-line"/>
<line x1="24" y1="24" x2="19.96592582628907" y2="22.25881904510252" class="delaunay-line"/>
<line x1="19.96592582628907" y1="22.25881904510252" x2="19.793353340291237" y2="22.608761429008723" class="delaunay-line"/>
<line x1="19.96592582628907" y1="22.25881904510252" x2="24" y2="24" class="delaunay-line"/>
<line x1="24" y1="24" x2="19.99144486137381" y2="21.869473807779947" class="delaunay-line"/>
<line x1="19.99144486137381" y1="21.869473807779947" x2="19.96592582628907" y2="22.25881904510252" class="delaunay-line"/>
<line x1="22.995722430686904" y1="12.565263096110026" x2="24" y2="0" class="delaunay-line"/>
<line x1="24" y1="0" x2="22.99144486137381" y2="6.869473807779949" class="delaunay-line"/>
<line x1="22.99144486137381" y1="6.869473807779949" x2="22.995722430686904" y2="12.565263096110026" class="delaunay-line"/>
<line x1="19.499999999999996" y1="22.866025403784437" x2="24" y2="24" class="delaunay-line"/>
<line x1="24" y1="24" x2="19.793353340291237" y2="22.608761429008723" class="delaunay-line"/>
<line x1="19.793353340291237" y1="22.608761429008723" x2="19.499999999999996" y2="22.866025403784437" class="delaunay-line"/>
<line x1="19.130526192220053" y1="22.99144486137381" x2="24" y2="24" class="delaunay-line"/>
<line x1="24" y1="24" x2="19.499999999999996" y2="22.866025403784437" class="delaunay-line"/>
<line x1="19.499999999999996" y1="22.866025403784437" x2="19.130526192220053" y2="22.99144486137381" class="delaunay-line"/>
<line x1="0" y1="24" x2="24" y2="24" class="delaunay-line"/>
<line x1="24" y1="24" x2="10.25008500141722" y2="22.545245310957547" class="delaunay-line"/>
<line x1="10.25008500141722" y1="22.545245310957547" x2="0" y2="24" class="delaunay-line"/>
<line x1="6.109495827765981" y1="0.6585339334426425" x2="0" y2="0" class="delaunay-line"/>
<line x1="0" y1="0" x2="0.10949582776598454" y2="11.050838778855907" class="delaunay-line"/>
<line x1="0.10949582776598454" y1="11.050838778855907" x2="6.109495827765981" y2="0.6585339334426425" class="delaunay-line"/>
<line x1="0.10949582776598454" y1="11.050838778855907" x2="0" y2="0" class="delaunay-line"/>
<line x1="0" y1="0" x2="0.00855513862618984" y2="21.86947380777995" class="delaunay-line"/>
<line x1="0.00855513862618984" y1="21.86947380777995" x2="0.10949582776598454" y2="11.050838778855907" class="delaunay-line"/>
<line x1="0.00855513862618984" y1="21.86947380777995" x2="0" y2="0" class="delaunay-line"/>
<line x1="0" y1="0" x2="0" y2="24" class="delaunay-line"/>
<line x1="0" y1="24" x2="0.00855513862618984" y2="21.86947380777995" class="delaunay-line"/>
<line x1="24" y1="24" x2="24" y2="0" class="delaunay-line"/>
<line x1="24" y1="0" x2="22.995722430686904" y2="12.565263096110026" class="delaunay-line"/>
<line x1="22.995722430686904" y1="12.565263096110026" x2="24" y2="24" class="delaunay-line"/>
<line x1="22.99144486137381" y1="6.869473807779949" x2="24" y2="0" class="delaunay-line"/>
<line x1="24" y1="0" x2="22.866025403784437" y2="6.5" class="delaunay-line"/>
<line x1="22.866025403784437" y1="6.5" x2="22.99144486137381" y2="6.869473807779949" class="delaunay-line"/>
<line x1="22.866025403784437" y1="6.5" x2="24" y2="0" class="delaunay-line"/>
<line x1="24" y1="0" x2="22.60876142900872" y2="6.206646659708764" class="delaunay-line"/>
<line x1="22.60876142900872" y1="6.206646659708764" x2="22.866025403784437" y2="6.5" class="delaunay-line"/>
<line x1="22.60876142900872" y1="6.206646659708764" x2="24" y2="0" class="delaunay-line"/>
<line x1="24" y1="0" x2="22.258819045102523" y2="6.034074173710933" class="delaunay-line"/>
<line x1="22.258819045102523" y1="6.034074173710933" x2="22.60876142900872" y2="6.206646659708764" class="delaunay-line"/>
<line x1="22.258819045102523" y1="6.034074173710933" x2="24" y2="0" class="delaunay-line"/>
<line x1="24" y1="0" x2="21.869473807779947" y2="6.00855513862619" class="delaunay-line"/>
<line x1="21.869473807779947" y1="6.00855513862619" x2="22.258819045102523" y2="6.034074173710933" class="delaunay-line"/>
<line x1="6.109495827765981" y1="0.6585339334426425" x2="24" y2="0" class="delaunay-line"/>
<line x1="24" y1="0" x2="0" y2="0" class="delaunay-line"/>
<line x1="0" y1="0" x2="6.109495827765981" y2="0.6585339334426425" class="delaunay-line"/>
</g>
<g id="layer-area" class="layer ">
<polygon points="19.099876884532563,8.158533933442639 13.099876884532565,18.550838778855905 0.10949582776598454,11.050838778855907 6.109495827765981,0.6585339334426425" class="terrain-area"/>
<text x="9.604686356149273" y="9.604686356149273" class="label">#C49A6C</text>
</g>
<g id="layer-building" class="layer ">
<polygon points="1.2453257067639718,2.60877128639759 8.972732317076519,0.5382189255774241 11.560922768101724,10.197477188468106 3.8335161577891785,12.268029549288272" class="terrain-solid"/>
<text x="6.4031242374328485" y="6.4031242374328485" class="label">#000000</text>
</g>
<g id="layer-wall" class="layer ">
<polygon points="3.5453743234333692,14.089510983347534 4.028337236577903,14.218920505898797 2.4754229659627787,20.014475463633207 1.9924600528182448,19.885065941081944" class="terrain-solid"/>
<text x="3.010398644698074" y="17.05199322349037" class="label">#555555</text>
<polygon points="17.586968902225667,0.047916404555238934 18.0699318153702,0.17732592710649886 16.517017544755074,5.972880884840909 16.03405463161054,5.843471362289649" class="terrain-solid"/>
<text x="17.05199322349037" y="3.010398644698074" class="label">#555555</text>
<polygon points="17.586968902225667,14.089510983347534 18.0699318153702,14.218920505898797 16.517017544755074,20.014475463633207 16.03405463161054,19.885065941081944" class="terrain-solid"/>
<text x="17.05199322349037" y="17.05199322349037" class="label">#555555</text>
</g>
<g id="layer-tree" class="layer ">
<polygon points="1.5,21.133974596215563 1.7933533402912367,21.39123857099128 1.9659258262890669,21.74118095489748 1.99144486137381,22.130526192220053 1.8660254037844386,22.5 1.60876142900872,22.793353340291233 1.2588190451025194,22.965925826289066 0.8694738077799498,22.99144486137381 0.4999999999999999,22.866025403784437 0.20664665970876334,22.60876142900872 0.0340741737109328,22.25881904510252 0.00855513862618984,21.86947380777995 0.1339745962155613,21.5 0.3912385709912801,21.206646659708763 0.7411809548974805,21.034074173710934 1.1305261922200502,21.00855513862619" class="terrain-solid"/>
<text x="0.9999999999999998" y="22.000000000000007" class="label">#90EE90</text>
<polygon points="22.5,7.866025403784438 22.130526192220053,7.99144486137381 21.741180954897477,7.965925826289067 21.39123857099128,7.793353340291237 21.133974596215563,7.5 21.00855513862619,7.130526192220051 21.03407417371093,6.741180954897481 21.206646659708767,6.39123857099128 21.5,6.133974596215562 21.869473807779947,6.00855513862619 22.258819045102523,6.034074173710933 22.60876142900872,6.206646659708764 22.866025403784437,6.5 22.99144486137381,6.869473807779949 22.96592582628907,7.258819045102519 22.793353340291237,7.6087614290087195" class="terrain-solid"/>
<text x="21.999999999999996" y="7.000000000000001" class="label">#90EE90</text>
<polygon points="9.292893218813452,15.292893218813452 9.61731656763491,15.076120467488714 9.999999999999998,15 10.382683432365088,15.076120467488712 10.707106781186548,15.292893218813452 10.923879532511286,15.617316567634909 10.999999999999998,16 10.923879532511288,16.382683432365088 10.707106781186548,16.707106781186546 10.38268343236509,16.923879532511286 10,17 9.617316567634912,16.923879532511286 9.292893218813452,16.707106781186546 9.076120467488714,16.382683432365088 9,16 9.076120467488712,15.617316567634912" class="terrain-solid"/>
<text x="10.000000000000002" y="15.999999999999998" class="label">#90EE90</text>
<polygon points="19.96592582628907,22.25881904510252 19.793353340291237,22.608761429008723 19.499999999999996,22.866025403784437 19.130526192220053,22.99144486137381 18.74118095489748,22.96592582628907 18.391238570991277,22.793353340291237 18.133974596215563,22.499999999999996 18.00855513862619,22.130526192220053 18.03407417371093,21.74118095489748 18.206646659708763,21.391238570991277 18.500000000000004,21.133974596215563 18.869473807779947,21.00855513862619 19.25881904510252,21.03407417371093 19.608761429008723,21.206646659708763 19.866025403784437,21.500000000000004 19.99144486137381,21.869473807779947" class="terrain-solid"/>
<text x="18.999999999999993" y="22" class="label">#90EE90</text>
</g>
<g id="layer-rocks" class="layer ">
<polygon points="10.12940952255126,21.517037086855467 10.489202619811556,21.652846210125027 10.774519052838329,21.841506350946112 10.941921981103166,22.054295713087143 10.965925826289068,22.25881904510252 10.842876220561878,22.423939523701527 10.591506350946108,22.52451905283833 10.25008500141722,22.545245310957547 9.87059047744874,22.482962913144533 9.510797380188444,22.347153789874973 9.225480947161671,22.158493649053888 9.058078018896834,21.945704286912857 9.034074173710932,21.74118095489748 9.157123779438122,21.576060476298473 9.408493649053892,21.47548094716167 9.74991499858278,21.454754689042453" class="terrain-solid"/>
<text x="9.999999999999998" y="21.999999999999996" class="label">#D3D3D3</text>
</g>
<g id="layer-shrub" class="layer ">
<polygon points="18.06698729810778,10.75 18.004277569313096,10.565263096110025 18.017037086855467,10.37059047744874 18.103323329854383,10.19561928549564 18.25,10.066987298107781 18.434736903889977,10.004277569313095 18.629409522551263,10.017037086855467 18.80438071450436,10.103323329854382 18.93301270189222,10.25 18.995722430686904,10.434736903889975 18.982962913144533,10.62940952255126 18.896676670145617,10.80438071450436 18.75,10.933012701892219 18.565263096110023,10.995722430686905 18.370590477448737,10.982962913144533 18.19561928549564,10.896676670145618" class="terrain-solid"/>
<text x="18.5" y="10.5" class="label">#006400</text>
<polygon points="22.017037086855467,12.62940952255126 22.004277569313096,12.434736903889974 22.066987298107783,12.250000000000002 22.195619285495642,12.103323329854383 22.37059047744874,12.017037086855465 22.565263096110026,12.004277569313096 22.75,12.066987298107781 22.896676670145617,12.195619285495638 22.982962913144533,12.37059047744874 22.995722430686904,12.565263096110026 22.933012701892217,12.749999999999998 22.804380714504358,12.896676670145617 22.62940952255126,12.982962913144535 22.434736903889974,12.995722430686904 22.25,12.933012701892219 22.103323329854383,12.804380714504362" class="terrain-solid"/>
<text x="22.5" y="12.499999999999998" class="label">#006400</text>
</g>
<g id="layer-terrain" class="layer ">
</g>
<g id="layer-models" class="layer ">
</g>
<g id="layer-paths" class="layer ">
</g>
<g id="layer-vectors" class="layer ">
</g>
<g id="layer-los" class="layer ">
</g>
<g id="layer-lof" class="layer ">
</g>

<g id="legend">
<g class="toggle" onclick="toggleLayer('grid')"><rect x="0.4" y="0.14999999999999997" width="0.4" height="0.4" fill="#222" stroke="#222" stroke-width="0.05"/><text x="1.0" y="0.5499999999999999" class="label">0.5 MU Grid</text></g>
<g class="toggle" onclick="toggleLayer('delaunay')"><rect x="0.4" y="0.95" width="0.4" height="0.4" fill="#222" stroke="#222" stroke-width="0.05"/><text x="1.0" y="1.3499999999999999" class="label">Delaunay Mesh</text></g>
<g class="toggle" onclick="toggleLayer('area')"><rect x="0.4" y="1.7500000000000002" width="0.4" height="0.4" fill="#222" stroke="#222" stroke-width="0.05"/><text x="1.0" y="2.1500000000000004" class="label">Area Terrain</text></g>
<g class="toggle" onclick="toggleLayer('building')"><rect x="0.4" y="2.55" width="0.4" height="0.4" fill="#222" stroke="#222" stroke-width="0.05"/><text x="1.0" y="2.95" class="label">Buildings</text></g>
<g class="toggle" onclick="toggleLayer('wall')"><rect x="0.4" y="3.3499999999999996" width="0.4" height="0.4" fill="#222" stroke="#222" stroke-width="0.05"/><text x="1.0" y="3.75" class="label">Walls</text></g>
<g class="toggle" onclick="toggleLayer('tree')"><rect x="0.4" y="4.1499999999999995" width="0.4" height="0.4" fill="#222" stroke="#222" stroke-width="0.05"/><text x="1.0" y="4.55" class="label">Trees</text></g>
<g class="toggle" onclick="toggleLayer('rocks')"><rect x="0.4" y="4.949999999999999" width="0.4" height="0.4" fill="#222" stroke="#222" stroke-width="0.05"/><text x="1.0" y="5.35" class="label">Rocks</text></g>
<g class="toggle" onclick="toggleLayer('shrub')"><rect x="0.4" y="5.749999999999999" width="0.4" height="0.4" fill="#222" stroke="#222" stroke-width="0.05"/><text x="1.0" y="6.1499999999999995" class="label">Shrubs</text></g>
<g class="toggle" onclick="toggleLayer('terrain')"><rect x="0.4" y="6.549999999999999" width="0.4" height="0.4" fill="#222" stroke="#222" stroke-width="0.05"/><text x="1.0" y="6.949999999999999" class="label">Other Terrain</text></g>
<g class="toggle" onclick="toggleLayer('models')"><rect x="0.4" y="7.349999999999999" width="0.4" height="0.4" fill="#222" stroke="#222" stroke-width="0.05"/><text x="1.0" y="7.749999999999999" class="label">Models</text></g>
<g class="toggle" onclick="toggleLayer('paths')"><rect x="0.4" y="8.15" width="0.4" height="0.4" fill="#222" stroke="#222" stroke-width="0.05"/><text x="1.0" y="8.549999999999999" class="label">Paths</text></g>
<g class="toggle" onclick="toggleLayer('vectors')"><rect x="0.4" y="8.950000000000001" width="0.4" height="0.4" fill="#222" stroke="#222" stroke-width="0.05"/><text x="1.0" y="9.35" class="label">Vectors</text></g>
<g class="toggle" onclick="toggleLayer('los')"><rect x="0.4" y="9.750000000000002" width="0.4" height="0.4" fill="#222" stroke="#222" stroke-width="0.05"/><text x="1.0" y="10.15" class="label">LOS</text></g>
<g class="toggle" onclick="toggleLayer('lof')"><rect x="0.4" y="10.550000000000002" width="0.4" height="0.4" fill="#222" stroke="#222" stroke-width="0.05"/><text x="1.0" y="10.950000000000001" class="label">LOF</text></g>
</g>
</svg>