<svg xmlns="http://www.w3.org/2000/svg" viewBox="0 0 24 24" width="960" height="960" font-family="Arial" font-size="0.6">
<defs>
  <style><![CDATA[
    .layer { display: inline; }
    .layer.hidden { display: none; }
    .grid-line { stroke: #999; stroke-width: 0.02; opacity: 0.2; }
    .delaunay-line { stroke: #4a6fa5; stroke-width: 0.03; opacity: 0.3; }
    .terrain-area { stroke: #000; stroke-width: 0.05; }
    .terrain-solid { stroke: #000; stroke-width: 0.05; }
    .model { stroke: #000; stroke-width: 0.05; }
    .path { fill: none; stroke-width: 0.12; }
    .vector { stroke-width: 0.1; }
    .los-ray { stroke-width: 0.08; stroke-dasharray: 0.2 0.2; }
    .lof-ray { stroke-width: 0.08; stroke-dasharray: 0.3 0.15; }
    .label { fill: #111; font-size: 0.6px; }
    .toggle { cursor: pointer; }
  ]]></style>
</defs>
<rect x="0" y="0" width="24" height="24" fill="#ffffff" stroke="#111" stroke-width="0.05"/>
<g id="legend">
<g class="toggle" onclick="toggleLayer('grid')"><rect x="0.4" y="0.14999999999999997" width="0.4" height="0.4" fill="#222" stroke="#222" stroke-width="0.05"/><text x="1.0" y="0.5499999999999999" class="label">0.5 MU Grid</text></g>
<g class="toggle" onclick="toggleLayer('delaunay')"><rect x="0.4" y="0.95" width="0.4" height="0.4" fill="#222" stroke="#222" stroke-width="0.05"/><text x="1.0" y="1.3499999999999999" class="label">Delaunay Mesh</text></g>
<g class="toggle" onclick="toggleLayer('area')"><rect x="0.4" y="1.7500000000000002" width="0.4" height="0.4" fill="#222" stroke="#222" stroke-width="0.05"/><text x="1.0" y="2.1500000000000004" class="label">Area Terrain</text></g>
<g class="toggle" onclick="toggleLayer('terrain')"><rect x="0.4" y="2.55" width="0.4" height="0.4" fill="#222" stroke="#222" stroke-width="0.05"/><text x="1.0" y="2.95" class="label">Other Terrain</text></g>
<g class="toggle" onclick="toggleLayer('models')"><rect x="0.4" y="3.3499999999999996" width="0.4" height="0.4" fill="#222" stroke="#222" stroke-width="0.05"/><text x="1.0" y="3.75" class="label">Models</text></g>
<g class="toggle" onclick="toggleLayer('paths')"><rect x="0.4" y="4.1499999999999995" width="0.4" height="0.4" fill="#222" stroke="#222" stroke-width="0.05"/><text x="1.0" y="4.55" class="label">Paths</text></g>
<g class="toggle" onclick="toggleLayer('vectors')"><rect x="0.4" y="4.949999999999999" width="0.4" height="0.4" fill="#222" stroke="#222" stroke-width="0.05"/><text x="1.0" y="5.35" class="label">Vectors</text></g>
<g class="toggle" onclick="toggleLayer('los')"><rect x="0.4" y="5.749999999999999" width="0.4" height="0.4" fill="#222" stroke="#222" stroke-width="0.05"/><text x="1.0" y="6.1499999999999995" class="label">LOS</text></g>
<g class="toggle" onclick="toggleLayer('lof')"><rect x="0.4" y="6.549999999999999" width="0.4" height="0.4" fill="#222" stroke="#222" stroke-width="0.05"/><text x="1.0" y="6.949999999999999" class="label">LOF</text></g>
</g>
<script><![CDATA[
      function toggleLayer(id) {
        var layer = document.getElementById('layer-' + id);
        if (!layer) return;
        if (layer.classList.contains('hidden')) {
          layer.classList.remove('hidden');
        } else {
          layer.classList.add('hidden');
        }
      }
    ]]></script>
<text x="0.4" y="23.6" class="label">Battlefield 24x24 density 50 blockLOS 25</text>
<g id="layer-grid" class="layer ">
<line x1="0" y1="0" x2="0" y2="24" class="grid-line"/>
<line x1="0.5" y1="0" x2="0.5" y2="24" class="grid-line"/>
<line x1="1" y1="0" x2="1" y2="24" class="grid-line"/>
<line x1="1.5" y1="0" x2="1.5" y2="24" class="grid-line"/>
<line x1="2" y1="0" x2="2" y2="24" class="grid-line"/>
<line x1="2.5" y1="0" x2="2.5" y2="24" class="grid-line"/>
<line x1="3" y1="0" x2="3" y2="24" class="grid-line"/>
<line x1="3.5" y1="0" x2="3.5" y2="24" class="grid-line"/>
<line x1="4" y1="0" x2="4" y2="24" class="grid-line"/>
<line x1="4.5" y1="0" x2="4.5" y2="24" class="grid-line"/>
<line x1="5" y1="0" x2="5" y2="24" class="grid-line"/>
<line x1="5.5" y1="0" x2="5.5" y2="24" class="grid-line"/>
<line x1="6" y1="0" x2="6" y2="24" class="grid-line"/>
<line x1="6.5" y1="0" x2="6.5" y2="24" class="grid-line"/>
<line x1="7" y1="0" x2="7" y2="24" class="grid-line"/>
<line x1="7.5" y1="0" x2="7.5" y2="24" class="grid-line"/>
<line x1="8" y1="0" x2="8" y2="24" class="grid-line"/>
<line x1="8.5" y1="0" x2="8.5" y2="24" class="grid-line"/>
<line x1="9" y1="0" x2="9" y2="24" class="grid-line"/>
<line x1="9.5" y1="0" x2="9.5" y2="24" class="grid-line"/>
<line x1="10" y1="0" x2="10" y2="24" class="grid-line"/>
<line x1="10.5" y1="0" x2="10.5" y2="24" class="grid-line"/>
<line x1="11" y1="0" x2="11" y2="24" class="grid-line"/>
<line x1="11.5" y1="0" x2="11.5" y2="24" class="grid-line"/>
<line x1="12" y1="0" x2="12" y2="24" class="grid-line"/>
<line x1="12.5" y1="0" x2="12.5" y2="24" class="grid-line"/>
<line x1="13" y1="0" x2="13" y2="24" class="grid-line"/>
<line x1="13.5" y1="0" x2="13.5" y2="24" class="grid-line"/>
<line x1="14" y1="0" x2="14" y2="24" class="grid-line"/>
<line x1="14.5" y1="0" x2="14.5" y2="24" class="grid-line"/>
<line x1="15" y1="0" x2="15" y2="24" class="grid-line"/>
<line x1="15.5" y1="0" x2="15.5" y2="24" class="grid-line"/>
<line x1="16" y1="0" x2="16" y2="24" class="grid-line"/>
<line x1="16.5" y1="0" x2="16.5" y2="24" class="grid-line"/>
<line x1="17" y1="0" x2="17" y2="24" class="grid-line"/>
<line x1="17.5" y1="0" x2="17.5" y2="24" class="grid-line"/>
<line x1="18" y1="0" x2="18" y2="24" class="grid-line"/>
<line x1="18.5" y1="0" x2="18.5" y2="24" class="grid-line"/>
<line x1="19" y1="0" x2="19" y2="24" class="grid-line"/>
<line x1="19.5" y1="0" x2="19.5" y2="24" class="grid-line"/>
<line x1="20" y1="0" x2="20" y2="24" class="grid-line"/>
<line x1="20.5" y1="0" x2="20.5" y2="24" class="grid-line"/>
<line x1="21" y1="0" x2="21" y2="24" class="grid-line"/>
<line x1="21.5" y1="0" x2="21.5" y2="24" class="grid-line"/>
<line x1="22" y1="0" x2="22" y2="24" class="grid-line"/>
<line x1="22.5" y1="0" x2="22.5" y2="24" class="grid-line"/>
<line x1="23" y1="0" x2="23" y2="24" class="grid-line"/>
<line x1="23.5" y1="0" x2="23.5" y2="24" class="grid-line"/>
<line x1="24" y1="0" x2="24" y2="24" class="grid-line"/>
<line x1="0" y1="0" x2="24" y2="0" class="grid-line"/>
<line x1="0" y1="0.5" x2="24" y2="0.5" class="grid-line"/>
<line x1="0" y1="1" x2="24" y2="1" class="grid-line"/>
<line x1="0" y1="1.5" x2="24" y2="1.5" class="grid-line"/>
<line x1="0" y1="2" x2="24" y2="2" class="grid-line"/>
<line x1="0" y1="2.5" x2="24" y2="2.5" class="grid-line"/>
<line x1="0" y1="3" x2="24" y2="3" class="grid-line"/>
<line x1="0" y1="3.5" x2="24" y2="3.5" class="grid-line"/>
<line x1="0" y1="4" x2="24" y2="4" class="grid-line"/>
<line x1="0" y1="4.5" x2="24" y2="4.5" class="grid-line"/>
<line x1="0" y1="5" x2="24" y2="5" class="grid-line"/>
<line x1="0" y1="5.5" x2="24" y2="5.5" class="grid-line"/>
<line x1="0" y1="6" x2="24" y2="6" class="grid-line"/>
<line x1="0" y1="6.5" x2="24" y2="6.5" class="grid-line"/>
<line x1="0" y1="7" x2="24" y2="7" class="grid-line"/>
<line x1="0" y1="7.5" x2="24" y2="7.5" class="grid-line"/>
<line x1="0" y1="8" x2="24" y2="8" class="grid-line"/>
<line x1="0" y1="8.5" x2="24" y2="8.5" class="grid-line"/>
<line x1="0" y1="9" x2="24" y2="9" class="grid-line"/>
<line x1="0" y1="9.5" x2="24" y2="9.5" class="grid-line"/>
<line x1="0" y1="10" x2="24" y2="10" class="grid-line"/>
<line x1="0" y1="10.5" x2="24" y2="10.5" class="grid-line"/>
<line x1="0" y1="11" x2="24" y2="11" class="grid-line"/>
<line x1="0" y1="11.5" x2="24" y2="11.5" class="grid-line"/>
<line x1="0" y1="12" x2="24" y2="12" class="grid-line"/>
<line x1="0" y1="12.5" x2="24" y2="12.5" class="grid-line"/>
<line x1="0" y1="13" x2="24" y2="13" class="grid-line"/>
<line x1="0" y1="13.5" x2="24" y2="13.5" class="grid-line"/>
<line x1="0" y1="14" x2="24" y2="14" class="grid-line"/>
<line x1="0" y1="14.5" x2="24" y2="14.5" class="grid-line"/>
<line x1="0" y1="15" x2="24" y2="15" class="grid-line"/>
<line x1="0" y1="15.5" x2="24" y2="15.5" class="grid-line"/>
<line x1="0" y1="16" x2="24" y2="16" class="grid-line"/>
<line x1="0" y1="16.5" x2="24" y2="16.5" class="grid-line"/>
<line x1="0" y1="17" x2="24" y2="17" class="grid-line"/>
<line x1="0" y1="17.5" x2="24" y2="17.5" class="grid-line"/>
<line x1="0" y1="18" x2="24" y2="18" class="grid-line"/>
<line x1="0" y1="18.5" x2="24" y2="18.5" class="grid-line"/>
<line x1="0" y1="19" x2="24" y2="19" class="grid-line"/>
<line x1="0" y1="19.5" x2="24" y2="19.5" class="grid-line"/>
<line x1="0" y1="20" x2="24" y2="20" class="grid-line"/>
<line x1="0" y1="20.5" x2="24" y2="20.5" class="grid-line"/>
<line x1="0" y1="21" x2="24" y2="21" class="grid-line"/>
<line x1="0" y1="21.5" x2="24" y2="21.5" class="grid-line"/>
<line x1="0" y1="22" x2="24" y2="22" class="grid-line"/>
<line x1="0" y1="22.5" x2="24" y2="22.5" class="grid-line"/>
<line x1="0" y1="23" x2="24" y2="23" class="grid-line"/>
<line x1="0" y1="23.5" x2="24" y2="23.5" class="grid-line"/>
<line x1="0" y1="24" x2="24" y2="24" class="grid-line"/>
</g>
<g id="layer-delaunay" class="layer ">
<line x1="11.50096152776732" y1="4.116951344669257" x2="11.685698431657292" y2="4.054241615874571" class="delaunay-line"/>
<line x1="11.685698431657292" y1="4.054241615874571" x2="11.306288909106033" y2="4.104191827126885" class="delaunay-line"/>
<line x1="11.306288909106033" y1="4.104191827126885" x2="11.50096152776732" y2="4.116951344669257" class="delaunay-line"/>
<line x1="11.002685729765075" y1="3.871228913982352" x2="11.131317717152932" y2="4.017905584127969" class="delaunay-line"/>
<line x1="11.131317717152932" y1="4.017905584127969" x2="11.306288909106033" y2="4.104191827126885" class="delaunay-line"/>
<line x1="11.306288909106033" y1="4.104191827126885" x2="11.002685729765075" y2="3.871228913982352" class="delaunay-line"/>
<line x1="11.002685729765075" y1="3.871228913982352" x2="11.306288909106033" y2="4.104191827126885" class="delaunay-line"/>
<line x1="11.306288909106033" y1="4.104191827126885" x2="11.185698431657295" y2="3.1882162120901323" class="delaunay-line"/>
<line x1="11.185698431657295" y1="3.1882162120901323" x2="11.002685729765075" y2="3.871228913982352" class="delaunay-line"/>
<line x1="11.185698431657295" y1="3.1882162120901323" x2="11.306288909106033" y2="4.104191827126885" class="delaunay-line"/>
<line x1="11.306288909106033" y1="4.104191827126885" x2="11.685698431657292" y2="4.054241615874571" class="delaunay-line"/>
<line x1="11.685698431657292" y1="4.054241615874571" x2="11.185698431657295" y2="3.1882162120901323" class="delaunay-line"/>
<line x1="11.832375101802912" y1="3.9256096284867117" x2="11.918661344801828" y2="3.750638436533612" class="delaunay-line"/>
<line x1="11.918661344801828" y1="3.750638436533612" x2="11.685698431657292" y2="4.054241615874571" class="delaunay-line"/>
<line x1="11.685698431657292" y1="4.054241615874571" x2="11.832375101802912" y2="3.9256096284867117" class="delaunay-line"/>
<line x1="11.918661344801828" y1="3.750638436533612" x2="11.931420862344199" y2="3.5559658178723255" class="delaunay-line"/>
<line x1="11.931420862344199" y1="3.5559658178723255" x2="11.685698431657292" y2="4.054241615874571" class="delaunay-line"/>
<line x1="11.685698431657292" y1="4.054241615874571" x2="11.918661344801828" y2="3.750638436533612" class="delaunay-line"/>
<line x1="10.952735518512759" y1="3.491819391431091" x2="10.939976000970388" y2="3.686492010092378" class="delaunay-line"/>
<line x1="10.939976000970388" y1="3.686492010092378" x2="11.185698431657295" y2="3.1882162120901323" class="delaunay-line"/>
<line x1="11.185698431657295" y1="3.1882162120901323" x2="10.952735518512759" y2="3.491819391431091" class="delaunay-line"/>
<line x1="11.931420862344199" y1="3.5559658178723255" x2="11.868711133549512" y2="3.371228913982351" class="delaunay-line"/>
<line x1="11.868711133549512" y1="3.371228913982351" x2="11.685698431657292" y2="4.054241615874571" class="delaunay-line"/>
<line x1="11.685698431657292" y1="4.054241615874571" x2="11.931420862344199" y2="3.5559658178723255" class="delaunay-line"/>
<line x1="11.039021761511675" y1="3.3168481994779913" x2="10.952735518512759" y2="3.491819391431091" class="delaunay-line"/>
<line x1="10.952735518512759" y1="3.491819391431091" x2="11.185698431657295" y2="3.1882162120901323" class="delaunay-line"/>
<line x1="11.185698431657295" y1="3.1882162120901323" x2="11.039021761511675" y2="3.3168481994779913" class="delaunay-line"/>
<line x1="11.185698431657295" y1="3.1882162120901323" x2="10.939976000970388" y2="3.686492010092378" class="delaunay-line"/>
<line x1="10.939976000970388" y1="3.686492010092378" x2="11.002685729765075" y2="3.871228913982352" class="delaunay-line"/>
<line x1="11.002685729765075" y1="3.871228913982352" x2="11.185698431657295" y2="3.1882162120901323" class="delaunay-line"/>
<line x1="11.185698431657295" y1="3.1882162120901323" x2="11.685698431657292" y2="4.054241615874571" class="delaunay-line"/>
<line x1="11.685698431657292" y1="4.054241615874571" x2="11.868711133549512" y2="3.371228913982351" class="delaunay-line"/>
<line x1="11.868711133549512" y1="3.371228913982351" x2="11.185698431657295" y2="3.1882162120901323" class="delaunay-line"/>
<line x1="11.565107954208553" y1="3.138266000837817" x2="11.185698431657295" y2="3.1882162120901323" class="delaunay-line"/>
<line x1="11.185698431657295" y1="3.1882162120901323" x2="11.868711133549512" y2="3.371228913982351" class="delaunay-line"/>
<line x1="11.868711133549512" y1="3.371228913982351" x2="11.565107954208553" y2="3.138266000837817" class="delaunay-line"/>
<line x1="11.740079146161655" y1="3.2245522438367344" x2="11.565107954208553" y2="3.138266000837817" class="delaunay-line"/>
<line x1="11.565107954208553" y1="3.138266000837817" x2="11.868711133549512" y2="3.371228913982351" class="delaunay-line"/>
<line x1="11.868711133549512" y1="3.371228913982351" x2="11.740079146161655" y2="3.2245522438367344" class="delaunay-line"/>
<line x1="11.565107954208553" y1="3.138266000837817" x2="11.370435335547267" y2="3.1255064832954464" class="delaunay-line"/>
<line x1="11.370435335547267" y1="3.1255064832954464" x2="11.185698431657295" y2="3.1882162120901323" class="delaunay-line"/>
<line x1="11.185698431657295" y1="3.1882162120901323" x2="11.565107954208553" y2="3.138266000837817" class="delaunay-line"/>
<line x1="11.185698431657295" y1="3.1882162120901323" x2="0" y2="0" class="delaunay-line"/>
<line x1="0" y1="0" x2="11.039021761511675" y2="3.3168481994779913" class="delaunay-line"/>
<line x1="11.039021761511675" y1="3.3168481994779913" x2="11.185698431657295" y2="3.1882162120901323" class="delaunay-line"/>
<line x1="11.039021761511675" y1="3.3168481994779913" x2="0" y2="0" class="delaunay-line"/>
<line x1="0" y1="0" x2="10.952735518512759" y2="3.491819391431091" class="delaunay-line"/>
<line x1="10.952735518512759" y1="3.491819391431091" x2="11.039021761511675" y2="3.3168481994779913" class="delaunay-line"/>
<line x1="10.952735518512759" y1="3.491819391431091" x2="0" y2="0" class="delaunay-line"/>
<line x1="0" y1="0" x2="10.939976000970388" y2="3.686492010092378" class="delaunay-line"/>
<line x1="10.939976000970388" y1="3.686492010092378" x2="10.952735518512759" y2="3.491819391431091" class="delaunay-line"/>
<line x1="10.939976000970388" y1="3.686492010092378" x2="0" y2="0" class="delaunay-line"/>
<line x1="0" y1="0" x2="11.002685729765075" y2="3.871228913982352" class="delaunay-line"/>
<line x1="11.002685729765075" y1="3.871228913982352" x2="10.939976000970388" y2="3.686492010092378" class="delaunay-line"/>
<line x1="6.581570574416553" y1="20.096270556244697" x2="6.77624319307784" y2="20.083511038702326" class="delaunay-line"/>
<line x1="6.77624319307784" y1="20.083511038702326" x2="11.131317717152932" y2="4.017905584127969" class="delaunay-line"/>
<line x1="11.131317717152932" y1="4.017905584127969" x2="6.581570574416553" y2="20.096270556244697" class="delaunay-line"/>
<line x1="22.203359396486217" y1="13.872486652178797" x2="11.50096152776732" y2="4.116951344669257" class="delaunay-line"/>
<line x1="11.50096152776732" y1="4.116951344669257" x2="22.16529916274186" y2="14.063828368361342" class="delaunay-line"/>
<line x1="22.16529916274186" y1="14.063828368361342" x2="22.203359396486217" y2="13.872486652178797" class="delaunay-line"/>
<line x1="11.370435335547267" y1="3.1255064832954464" x2="0" y2="0" class="delaunay-line"/>
<line x1="0" y1="0" x2="11.185698431657295" y2="3.1882162120901323" class="delaunay-line"/>
<line x1="11.185698431657295" y1="3.1882162120901323" x2="11.370435335547267" y2="3.1255064832954464" class="delaunay-line"/>
<line x1="24" y1="0" x2="0" y2="0" class="delaunay-line"/>
<line x1="0" y1="0" x2="11.370435335547267" y2="3.1255064832954464" class="delaunay-line"/>
<line x1="11.370435335547267" y1="3.1255064832954464" x2="24" y2="0" class="delaunay-line"/>
<line x1="11.868711133549512" y1="3.371228913982351" x2="24" y2="0" class="delaunay-line"/>
<line x1="24" y1="0" x2="11.740079146161655" y2="3.2245522438367344" class="delaunay-line"/>
<line x1="11.740079146161655" y1="3.2245522438367344" x2="11.868711133549512" y2="3.371228913982351" class="delaunay-line"/>
<line x1="11.740079146161655" y1="3.2245522438367344" x2="24" y2="0" class="delaunay-line"/>
<line x1="24" y1="0" x2="11.565107954208553" y2="3.138266000837817" class="delaunay-line"/>
<line x1="11.565107954208553" y1="3.138266000837817" x2="11.740079146161655" y2="3.2245522438367344" class="delaunay-line"/>
<line x1="11.565107954208553" y1="3.138266000837817" x2="24" y2="0" class="delaunay-line"/>
<line x1="24" y1="0" x2="11.370435335547267" y2="3.1255064832954464" class="delaunay-line"/>
<line x1="11.370435335547267" y1="3.1255064832954464" x2="11.565107954208553" y2="3.138266000837817" class="delaunay-line"/>
<line x1="11.931420862344199" y1="3.5559658178723255" x2="24" y2="0" class="delaunay-line"/>
<line x1="24" y1="0" x2="11.868711133549512" y2="3.371228913982351" class="delaunay-line"/>
<line x1="11.868711133549512" y1="3.371228913982351" x2="11.931420862344199" y2="3.5559658178723255" class="delaunay-line"/>
<line x1="11.918661344801828" y1="3.750638436533612" x2="24" y2="0" class="delaunay-line"/>
<line x1="24" y1="0" x2="11.931420862344199" y2="3.5559658178723255" class="delaunay-line"/>
<line x1="11.931420862344199" y1="3.5559658178723255" x2="11.918661344801828" y2="3.750638436533612" class="delaunay-line"/>
<line x1="22.473957446559314" y1="13.6018886021057" x2="24" y2="0" class="delaunay-line"/>
<line x1="24" y1="0" x2="11.918661344801828" y2="3.750638436533612" class="delaunay-line"/>
<line x1="11.918661344801828" y1="3.750638436533612" x2="22.473957446559314" y2="13.6018886021057" class="delaunay-line"/>
<line x1="22.473957446559314" y1="13.6018886021057" x2="11.918661344801828" y2="3.750638436533612" class="delaunay-line"/>
<line x1="11.918661344801828" y1="3.750638436533612" x2="11.832375101802912" y2="3.9256096284867117" class="delaunay-line"/>
<line x1="11.832375101802912" y1="3.9256096284867117" x2="22.473957446559314" y2="13.6018886021057" class="delaunay-line"/>
<line x1="22.311745772148587" y1="13.71027497776807" x2="11.832375101802912" y2="3.9256096284867117" class="delaunay-line"/>
<line x1="11.832375101802912" y1="3.9256096284867117" x2="11.685698431657292" y2="4.054241615874571" class="delaunay-line"/>
<line x1="11.685698431657292" y1="4.054241615874571" x2="22.311745772148587" y2="13.71027497776807" class="delaunay-line"/>
<line x1="22.203359396486217" y1="13.872486652178797" x2="11.685698431657292" y2="4.054241615874571" class="delaunay-line"/>
<line x1="11.685698431657292" y1="4.054241615874571" x2="11.50096152776732" y2="4.116951344669257" class="delaunay-line"/>
<line x1="11.50096152776732" y1="4.116951344669257" x2="22.203359396486217" y2="13.872486652178797" class="delaunay-line"/>
<line x1="22.203359396486217" y1="13.872486652178797" x2="22.311745772148587" y2="13.71027497776807" class="delaunay-line"/>
<line x1="22.311745772148587" y1="13.71027497776807" x2="11.685698431657292" y2="4.054241615874571" class="delaunay-line"/>
<line x1="11.685698431657292" y1="4.054241615874571" x2="22.203359396486217" y2="13.872486652178797" class="delaunay-line"/>
<line x1="11.50096152776732" y1="4.116951344669257" x2="6.9609800969678135" y2="20.146220767497013" class="delaunay-line"/>
<line x1="6.9609800969678135" y1="20.146220767497013" x2="22.16529916274186" y2="14.063828368361342" class="delaunay-line"/>
<line x1="22.16529916274186" y1="14.063828368361342" x2="11.50096152776732" y2="4.116951344669257" class="delaunay-line"/>
<line x1="22.16529916274186" y1="14.063828368361342" x2="7.107656767113431" y2="20.274852754884872" class="delaunay-line"/>
<line x1="7.107656767113431" y1="20.274852754884872" x2="22.203359396486217" y2="14.255170084543888" class="delaunay-line"/>
<line x1="22.203359396486217" y1="14.255170084543888" x2="22.16529916274186" y2="14.063828368361342" class="delaunay-line"/>
<line x1="22.66529916274186" y1="13.563828368361342" x2="22.473957446559314" y2="13.6018886021057" class="delaunay-line"/>
<line x1="22.473957446559314" y1="13.6018886021057" x2="22.311745772148587" y2="13.71027497776807" class="delaunay-line"/>
<line x1="22.311745772148587" y1="13.71027497776807" x2="22.66529916274186" y2="13.563828368361342" class="delaunay-line"/>
<line x1="22.311745772148587" y1="13.71027497776807" x2="22.473957446559314" y2="13.6018886021057" class="delaunay-line"/>
<line x1="22.473957446559314" y1="13.6018886021057" x2="11.832375101802912" y2="3.9256096284867117" class="delaunay-line"/>
<line x1="11.832375101802912" y1="3.9256096284867117" x2="22.311745772148587" y2="13.71027497776807" class="delaunay-line"/>
<line x1="11.50096152776732" y1="4.116951344669257" x2="11.306288909106033" y2="4.104191827126885" class="delaunay-line"/>
<line x1="11.306288909106033" y1="4.104191827126885" x2="6.9609800969678135" y2="20.146220767497013" class="delaunay-line"/>
<line x1="6.9609800969678135" y1="20.146220767497013" x2="11.50096152776732" y2="4.116951344669257" class="delaunay-line"/>
<line x1="22.203359396486217" y1="13.872486652178797" x2="22.16529916274186" y2="14.063828368361342" class="delaunay-line"/>
<line x1="22.16529916274186" y1="14.063828368361342" x2="22.311745772148587" y2="13.71027497776807" class="delaunay-line"/>
<line x1="22.311745772148587" y1="13.71027497776807" x2="22.203359396486217" y2="13.872486652178797" class="delaunay-line"/>
<line x1="22.856640878924406" y1="13.6018886021057" x2="22.66529916274186" y2="13.563828368361342" class="delaunay-line"/>
<line x1="22.66529916274186" y1="13.563828368361342" x2="23.018852553335133" y2="13.71027497776807" class="delaunay-line"/>
<line x1="23.018852553335133" y1="13.71027497776807" x2="22.856640878924406" y2="13.6018886021057" class="delaunay-line"/>
<line x1="22.473957446559314" y1="13.6018886021057" x2="22.66529916274186" y2="13.563828368361342" class="delaunay-line"/>
<line x1="22.66529916274186" y1="13.563828368361342" x2="24" y2="0" class="delaunay-line"/>
<line x1="24" y1="0" x2="22.473957446559314" y2="13.6018886021057" class="delaunay-line"/>
<line x1="22.311745772148587" y1="14.417381758954615" x2="22.203359396486217" y2="14.255170084543888" class="delaunay-line"/>
<line x1="22.203359396486217" y1="14.255170084543888" x2="20.286173285702127" y2="21.72023119038128" class="delaunay-line"/>
<line x1="20.286173285702127" y1="21.72023119038128" x2="22.311745772148587" y2="14.417381758954615" class="delaunay-line"/>
<line x1="22.16529916274186" y1="14.063828368361342" x2="22.311745772148587" y2="14.417381758954615" class="delaunay-line"/>
<line x1="22.311745772148587" y1="14.417381758954615" x2="22.311745772148587" y2="13.71027497776807" class="delaunay-line"/>
<line x1="22.311745772148587" y1="13.71027497776807" x2="22.16529916274186" y2="14.063828368361342" class="delaunay-line"/>
<line x1="23.018852553335133" y1="13.71027497776807" x2="22.66529916274186" y2="13.563828368361342" class="delaunay-line"/>
<line x1="22.66529916274186" y1="13.563828368361342" x2="22.311745772148587" y2="13.71027497776807" class="delaunay-line"/>
<line x1="22.311745772148587" y1="13.71027497776807" x2="23.018852553335133" y2="13.71027497776807" class="delaunay-line"/>
<line x1="22.66529916274186" y1="13.563828368361342" x2="22.856640878924406" y2="13.6018886021057" class="delaunay-line"/>
<line x1="22.856640878924406" y1="13.6018886021057" x2="24" y2="0" class="delaunay-line"/>
<line x1="24" y1="0" x2="22.66529916274186" y2="13.563828368361342" class="delaunay-line"/>
<line x1="6.77624319307784" y1="20.083511038702326" x2="11.306288909106033" y2="4.104191827126885" class="delaunay-line"/>
<line x1="11.306288909106033" y1="4.104191827126885" x2="11.131317717152932" y2="4.017905584127969" class="delaunay-line"/>
<line x1="11.131317717152932" y1="4.017905584127969" x2="6.77624319307784" y2="20.083511038702326" class="delaunay-line"/>
<line x1="22.203359396486217" y1="14.255170084543888" x2="22.311745772148587" y2="14.417381758954615" class="delaunay-line"/>
<line x1="22.311745772148587" y1="14.417381758954615" x2="22.16529916274186" y2="14.063828368361342" class="delaunay-line"/>
<line x1="22.16529916274186" y1="14.063828368361342" x2="22.203359396486217" y2="14.255170084543888" class="delaunay-line"/>
<line x1="23.018852553335133" y1="14.417381758954615" x2="23.018852553335133" y2="13.71027497776807" class="delaunay-line"/>
<line x1="23.018852553335133" y1="13.71027497776807" x2="22.311745772148587" y2="13.71027497776807" class="delaunay-line"/>
<line x1="22.311745772148587" y1="13.71027497776807" x2="23.018852553335133" y2="14.417381758954615" class="delaunay-line"/>
<line x1="22.856640878924406" y1="13.6018886021057" x2="23.018852553335133" y2="13.71027497776807" class="delaunay-line"/>
<line x1="23.018852553335133" y1="13.71027497776807" x2="24" y2="0" class="delaunay-line"/>
<line x1="24" y1="0" x2="22.856640878924406" y2="13.6018886021057" class="delaunay-line"/>
<line x1="20.4709101895921" y1="21.657521461586594" x2="22.473957446559314" y2="14.525768134616985" class="delaunay-line"/>
<line x1="22.473957446559314" y1="14.525768134616985" x2="22.311745772148587" y2="14.417381758954615" class="delaunay-line"/>
<line x1="22.311745772148587" y1="14.417381758954615" x2="20.4709101895921" y2="21.657521461586594" class="delaunay-line"/>
<line x1="23.16529916274186" y1="14.063828368361342" x2="23.127238928997503" y2="13.872486652178797" class="delaunay-line"/>
<line x1="23.127238928997503" y1="13.872486652178797" x2="23.018852553335133" y2="13.71027497776807" class="delaunay-line"/>
<line x1="23.018852553335133" y1="13.71027497776807" x2="23.16529916274186" y2="14.063828368361342" class="delaunay-line"/>
<line x1="23.018852553335133" y1="14.417381758954615" x2="22.311745772148587" y2="13.71027497776807" class="delaunay-line"/>
<line x1="22.311745772148587" y1="13.71027497776807" x2="22.311745772148587" y2="14.417381758954615" class="delaunay-line"/>
<line x1="22.311745772148587" y1="14.417381758954615" x2="23.018852553335133" y2="14.417381758954615" class="delaunay-line"/>
<line x1="23.018852553335133" y1="13.71027497776807" x2="23.127238928997503" y2="13.872486652178797" class="delaunay-line"/>
<line x1="23.127238928997503" y1="13.872486652178797" x2="24" y2="0" class="delaunay-line"/>
<line x1="24" y1="0" x2="23.018852553335133" y2="13.71027497776807" class="delaunay-line"/>
<line x1="22.473957446559314" y1="14.525768134616985" x2="22.66529916274186" y2="14.563828368361342" class="delaunay-line"/>
<line x1="22.66529916274186" y1="14.563828368361342" x2="22.311745772148587" y2="14.417381758954615" class="delaunay-line"/>
<line x1="22.311745772148587" y1="14.417381758954615" x2="22.473957446559314" y2="14.525768134616985" class="delaunay-line"/>
<line x1="23.127238928997503" y1="14.255170084543888" x2="23.16529916274186" y2="14.063828368361342" class="delaunay-line"/>
<line x1="23.16529916274186" y1="14.063828368361342" x2="23.018852553335133" y2="14.417381758954615" class="delaunay-line"/>
<line x1="23.018852553335133" y1="14.417381758954615" x2="23.127238928997503" y2="14.255170084543888" class="delaunay-line"/>
<line x1="23.127238928997503" y1="13.872486652178797" x2="23.16529916274186" y2="14.063828368361342" class="delaunay-line"/>
<line x1="23.16529916274186" y1="14.063828368361342" x2="24" y2="0" class="delaunay-line"/>
<line x1="24" y1="0" x2="23.127238928997503" y2="13.872486652178797" class="delaunay-line"/>
<line x1="22.66529916274186" y1="14.563828368361342" x2="23.018852553335133" y2="14.417381758954615" class="delaunay-line"/>
<line x1="23.018852553335133" y1="14.417381758954615" x2="22.311745772148587" y2="14.417381758954615" class="delaunay-line"/>
<line x1="22.311745772148587" y1="14.417381758954615" x2="22.66529916274186" y2="14.563828368361342" class="delaunay-line"/>
<line x1="23.018852553335133" y1="14.417381758954615" x2="23.16529916274186" y2="14.063828368361342" class="delaunay-line"/>
<line x1="23.16529916274186" y1="14.063828368361342" x2="23.018852553335133" y2="13.71027497776807" class="delaunay-line"/>
<line x1="23.018852553335133" y1="13.71027497776807" x2="23.018852553335133" y2="14.417381758954615" class="delaunay-line"/>
<line x1="22.856640878924406" y1="14.525768134616985" x2="23.018852553335133" y2="14.417381758954615" class="delaunay-line"/>
<line x1="23.018852553335133" y1="14.417381758954615" x2="22.66529916274186" y2="14.563828368361342" class="delaunay-line"/>
<line x1="22.66529916274186" y1="14.563828368361342" x2="22.856640878924406" y2="14.525768134616985" class="delaunay-line"/>
<line x1="6.581570574416553" y1="20.096270556244697" x2="11.131317717152932" y2="4.017905584127969" class="delaunay-line"/>
<line x1="11.131317717152932" y1="4.017905584127969" x2="11.002685729765075" y2="3.871228913982352" class="delaunay-line"/>
<line x1="11.002685729765075" y1="3.871228913982352" x2="6.581570574416553" y2="20.096270556244697" class="delaunay-line"/>
<line x1="22.473957446559314" y1="14.525768134616985" x2="20.665582808253387" y2="21.670280979128965" class="delaunay-line"/>
<line x1="20.665582808253387" y1="21.670280979128965" x2="22.66529916274186" y2="14.563828368361342" class="delaunay-line"/>
<line x1="22.66529916274186" y1="14.563828368361342" x2="22.473957446559314" y2="14.525768134616985" class="delaunay-line"/>
<line x1="22.66529916274186" y1="14.563828368361342" x2="20.840554000206485" y2="21.75656722212788" class="delaunay-line"/>
<line x1="20.840554000206485" y1="21.75656722212788" x2="22.856640878924406" y2="14.525768134616985" class="delaunay-line"/>
<line x1="22.856640878924406" y1="14.525768134616985" x2="22.66529916274186" y2="14.563828368361342" class="delaunay-line"/>
<line x1="6.77624319307784" y1="20.083511038702326" x2="6.9609800969678135" y2="20.146220767497013" class="delaunay-line"/>
<line x1="6.9609800969678135" y1="20.146220767497013" x2="11.306288909106033" y2="4.104191827126885" class="delaunay-line"/>
<line x1="11.306288909106033" y1="4.104191827126885" x2="6.77624319307784" y2="20.083511038702326" class="delaunay-line"/>
<line x1="0" y1="0" x2="6.581570574416553" y2="20.096270556244697" class="delaunay-line"/>
<line x1="6.581570574416553" y1="20.096270556244697" x2="11.002685729765075" y2="3.871228913982352" class="delaunay-line"/>
<line x1="11.002685729765075" y1="3.871228913982352" x2="0" y2="0" class="delaunay-line"/>
<line x1="6.77624319307784" y1="20.083511038702326" x2="6.581570574416553" y2="20.096270556244697" class="delaunay-line"/>
<line x1="6.581570574416553" y1="20.096270556244697" x2="6.9609800969678135" y2="20.146220767497013" class="delaunay-line"/>
<line x1="6.9609800969678135" y1="20.146220767497013" x2="6.77624319307784" y2="20.083511038702326" class="delaunay-line"/>
<line x1="7.206702527654718" y1="20.644496565499256" x2="7.107656767113431" y2="20.274852754884872" class="delaunay-line"/>
<line x1="7.107656767113431" y1="20.274852754884872" x2="7.143992798860032" y2="20.82923346938923" class="delaunay-line"/>
<line x1="7.143992798860032" y1="20.82923346938923" x2="7.206702527654718" y2="20.644496565499256" class="delaunay-line"/>
<line x1="6.9609800969678135" y1="20.146220767497013" x2="7.107656767113431" y2="20.274852754884872" class="delaunay-line"/>
<line x1="7.107656767113431" y1="20.274852754884872" x2="22.16529916274186" y2="14.063828368361342" class="delaunay-line"/>
<line x1="22.16529916274186" y1="14.063828368361342" x2="6.9609800969678135" y2="20.146220767497013" class="delaunay-line"/>
<line x1="0" y1="0" x2="6.406599382463452" y2="20.182556799243613" class="delaunay-line"/>
<line x1="6.406599382463452" y1="20.182556799243613" x2="6.581570574416553" y2="20.096270556244697" class="delaunay-line"/>
<line x1="6.581570574416553" y1="20.096270556244697" x2="0" y2="0" class="delaunay-line"/>
<line x1="6.581570574416553" y1="20.096270556244697" x2="6.314303426822196" y2="20.883614183893588" class="delaunay-line"/>
<line x1="6.314303426822196" y1="20.883614183893588" x2="6.9609800969678135" y2="20.146220767497013" class="delaunay-line"/>
<line x1="6.9609800969678135" y1="20.146220767497013" x2="6.581570574416553" y2="20.096270556244697" class="delaunay-line"/>
<line x1="7.206702527654718" y1="20.644496565499256" x2="7.193943010112347" y2="20.44982394683797" class="delaunay-line"/>
<line x1="7.193943010112347" y1="20.44982394683797" x2="7.107656767113431" y2="20.274852754884872" class="delaunay-line"/>
<line x1="7.107656767113431" y1="20.274852754884872" x2="7.206702527654718" y2="20.644496565499256" class="delaunay-line"/>
<line x1="20.13949661555651" y1="21.84886317776914" x2="20.286173285702127" y2="21.72023119038128" class="delaunay-line"/>
<line x1="20.286173285702127" y1="21.72023119038128" x2="22.203359396486217" y2="14.255170084543888" class="delaunay-line"/>
<line x1="22.203359396486217" y1="14.255170084543888" x2="20.13949661555651" y2="21.84886317776914" class="delaunay-line"/>
<line x1="0" y1="24" x2="6.277967395075595" y2="20.32923346938923" class="delaunay-line"/>
<line x1="6.277967395075595" y1="20.32923346938923" x2="6.406599382463452" y2="20.182556799243613" class="delaunay-line"/>
<line x1="6.406599382463452" y1="20.182556799243613" x2="0" y2="24" class="delaunay-line"/>
<line x1="6.406599382463452" y1="20.182556799243613" x2="6.277967395075595" y2="20.32923346938923" class="delaunay-line"/>
<line x1="6.277967395075595" y1="20.32923346938923" x2="6.581570574416553" y2="20.096270556244697" class="delaunay-line"/>
<line x1="6.581570574416553" y1="20.096270556244697" x2="6.406599382463452" y2="20.182556799243613" class="delaunay-line"/>
<line x1="7.143992798860032" y1="20.82923346938923" x2="7.107656767113431" y2="20.274852754884872" class="delaunay-line"/>
<line x1="7.107656767113431" y1="20.274852754884872" x2="6.9609800969678135" y2="20.146220767497013" class="delaunay-line"/>
<line x1="6.9609800969678135" y1="20.146220767497013" x2="7.143992798860032" y2="20.82923346938923" class="delaunay-line"/>
<line x1="20.13949661555651" y1="21.84886317776914" x2="22.203359396486217" y2="14.255170084543888" class="delaunay-line"/>
<line x1="22.203359396486217" y1="14.255170084543888" x2="7.107656767113431" y2="20.274852754884872" class="delaunay-line"/>
<line x1="7.107656767113431" y1="20.274852754884872" x2="20.13949661555651" y2="21.84886317776914" class="delaunay-line"/>
<line x1="0" y1="24" x2="6.215257666280909" y2="20.513970373279204" class="delaunay-line"/>
<line x1="6.215257666280909" y1="20.513970373279204" x2="6.277967395075595" y2="20.32923346938923" class="delaunay-line"/>
<line x1="6.277967395075595" y1="20.32923346938923" x2="0" y2="24" class="delaunay-line"/>
<line x1="6.277967395075595" y1="20.32923346938923" x2="6.314303426822196" y2="20.883614183893588" class="delaunay-line"/>
<line x1="6.314303426822196" y1="20.883614183893588" x2="6.581570574416553" y2="20.096270556244697" class="delaunay-line"/>
<line x1="6.581570574416553" y1="20.096270556244697" x2="6.277967395075595" y2="20.32923346938923" class="delaunay-line"/>
<line x1="6.840389619519074" y1="21.062196382533763" x2="7.143992798860032" y2="20.82923346938923" class="delaunay-line"/>
<line x1="7.143992798860032" y1="20.82923346938923" x2="6.9609800969678135" y2="20.146220767497013" class="delaunay-line"/>
<line x1="6.9609800969678135" y1="20.146220767497013" x2="6.840389619519074" y2="21.062196382533763" class="delaunay-line"/>
<line x1="20.13949661555651" y1="21.84886317776914" x2="7.107656767113431" y2="20.274852754884872" class="delaunay-line"/>
<line x1="7.107656767113431" y1="20.274852754884872" x2="7.193943010112347" y2="20.44982394683797" class="delaunay-line"/>
<line x1="7.193943010112347" y1="20.44982394683797" x2="20.13949661555651" y2="21.84886317776914" class="delaunay-line"/>
<line x1="0" y1="24" x2="6.22801718382328" y2="20.70864299194049" class="delaunay-line"/>
<line x1="6.22801718382328" y1="20.70864299194049" x2="6.215257666280909" y2="20.513970373279204" class="delaunay-line"/>
<line x1="6.215257666280909" y1="20.513970373279204" x2="0" y2="24" class="delaunay-line"/>
<line x1="6.215257666280909" y1="20.513970373279204" x2="6.314303426822196" y2="20.883614183893588" class="delaunay-line"/>
<line x1="6.314303426822196" y1="20.883614183893588" x2="6.277967395075595" y2="20.32923346938923" class="delaunay-line"/>
<line x1="6.277967395075595" y1="20.32923346938923" x2="6.215257666280909" y2="20.513970373279204" class="delaunay-line"/>
<line x1="6.840389619519074" y1="21.062196382533763" x2="7.015360811472175" y2="20.975910139534847" class="delaunay-line"/>
<line x1="7.015360811472175" y1="20.975910139534847" x2="7.143992798860032" y2="20.82923346938923" class="delaunay-line"/>
<line x1="7.143992798860032" y1="20.82923346938923" x2="6.840389619519074" y2="21.062196382533763" class="delaunay-line"/>
<line x1="20.13949661555651" y1="21.84886317776914" x2="7.193943010112347" y2="20.44982394683797" class="delaunay-line"/>
<line x1="7.193943010112347" y1="20.44982394683797" x2="20.053210372557594" y2="22.023834369722238" class="delaunay-line"/>
<line x1="20.053210372557594" y1="22.023834369722238" x2="20.13949661555651" y2="21.84886317776914" class="delaunay-line"/>
<line x1="6.22801718382328" y1="20.70864299194049" x2="6.314303426822196" y2="20.883614183893588" class="delaunay-line"/>
<line x1="6.314303426822196" y1="20.883614183893588" x2="6.215257666280909" y2="20.513970373279204" class="delaunay-line"/>
<line x1="6.215257666280909" y1="20.513970373279204" x2="6.22801718382328" y2="20.70864299194049" class="delaunay-line"/>
<line x1="6.4609800969678135" y1="21.012246171281447" x2="6.840389619519074" y2="21.062196382533763" class="delaunay-line"/>
<line x1="6.840389619519074" y1="21.062196382533763" x2="6.9609800969678135" y2="20.146220767497013" class="delaunay-line"/>
<line x1="6.9609800969678135" y1="20.146220767497013" x2="6.4609800969678135" y2="21.012246171281447" class="delaunay-line"/>
<line x1="7.193943010112347" y1="20.44982394683797" x2="7.206702527654718" y2="20.644496565499256" class="delaunay-line"/>
<line x1="7.206702527654718" y1="20.644496565499256" x2="20.053210372557594" y2="22.023834369722238" class="delaunay-line"/>
<line x1="20.053210372557594" y1="22.023834369722238" x2="7.193943010112347" y2="20.44982394683797" class="delaunay-line"/>
<line x1="6.314303426822196" y1="20.883614183893588" x2="6.4609800969678135" y2="21.012246171281447" class="delaunay-line"/>
<line x1="6.4609800969678135" y1="21.012246171281447" x2="6.9609800969678135" y2="20.146220767497013" class="delaunay-line"/>
<line x1="6.9609800969678135" y1="20.146220767497013" x2="6.314303426822196" y2="20.883614183893588" class="delaunay-line"/>
<line x1="6.4609800969678135" y1="21.012246171281447" x2="6.645717000857787" y2="21.074955900076134" class="delaunay-line"/>
<line x1="6.645717000857787" y1="21.074955900076134" x2="6.840389619519074" y2="21.062196382533763" class="delaunay-line"/>
<line x1="6.840389619519074" y1="21.062196382533763" x2="6.4609800969678135" y2="21.012246171281447" class="delaunay-line"/>
<line x1="7.143992798860032" y1="20.82923346938923" x2="20.040450855015223" y2="22.218506988383524" class="delaunay-line"/>
<line x1="20.040450855015223" y1="22.218506988383524" x2="7.206702527654718" y2="20.644496565499256" class="delaunay-line"/>
<line x1="7.206702527654718" y1="20.644496565499256" x2="7.143992798860032" y2="20.82923346938923" class="delaunay-line"/>
<line x1="7.206702527654718" y1="20.644496565499256" x2="20.040450855015223" y2="22.218506988383524" class="delaunay-line"/>
<line x1="20.040450855015223" y1="22.218506988383524" x2="20.053210372557594" y2="22.023834369722238" class="delaunay-line"/>
<line x1="20.053210372557594" y1="22.023834369722238" x2="7.206702527654718" y2="20.644496565499256" class="delaunay-line"/>
<line x1="22.856640878924406" y1="14.525768134616985" x2="24" y2="24" class="delaunay-line"/>
<line x1="24" y1="24" x2="23.018852553335133" y2="14.417381758954615" class="delaunay-line"/>
<line x1="23.018852553335133" y1="14.417381758954615" x2="22.856640878924406" y2="14.525768134616985" class="delaunay-line"/>
<line x1="23.018852553335133" y1="14.417381758954615" x2="24" y2="24" class="delaunay-line"/>
<line x1="24" y1="24" x2="23.127238928997503" y2="14.255170084543888" class="delaunay-line"/>
<line x1="23.127238928997503" y1="14.255170084543888" x2="23.018852553335133" y2="14.417381758954615" class="delaunay-line"/>
<line x1="20.286173285702127" y1="21.72023119038128" x2="20.4709101895921" y2="21.657521461586594" class="delaunay-line"/>
<line x1="20.4709101895921" y1="21.657521461586594" x2="22.311745772148587" y2="14.417381758954615" class="delaunay-line"/>
<line x1="22.311745772148587" y1="14.417381758954615" x2="20.286173285702127" y2="21.72023119038128" class="delaunay-line"/>
<line x1="7.143992798860032" y1="20.82923346938923" x2="20.10316058380991" y2="22.403243892273498" class="delaunay-line"/>
<line x1="20.10316058380991" y1="22.403243892273498" x2="20.040450855015223" y2="22.218506988383524" class="delaunay-line"/>
<line x1="20.040450855015223" y1="22.218506988383524" x2="7.143992798860032" y2="20.82923346938923" class="delaunay-line"/>
<line x1="20.840554000206485" y1="21.75656722212788" x2="20.665582808253387" y2="21.670280979128965" class="delaunay-line"/>
<line x1="20.665582808253387" y1="21.670280979128965" x2="20.4709101895921" y2="21.657521461586594" class="delaunay-line"/>
<line x1="20.4709101895921" y1="21.657521461586594" x2="20.840554000206485" y2="21.75656722212788" class="delaunay-line"/>
<line x1="20.840554000206485" y1="21.75656722212788" x2="20.4709101895921" y2="21.657521461586594" class="delaunay-line"/>
<line x1="20.4709101895921" y1="21.657521461586594" x2="20.286173285702127" y2="21.72023119038128" class="delaunay-line"/>
<line x1="20.286173285702127" y1="21.72023119038128" x2="20.840554000206485" y2="21.75656722212788" class="delaunay-line"/>
<line x1="20.4709101895921" y1="21.657521461586594" x2="20.665582808253387" y2="21.670280979128965" class="delaunay-line"/>
<line x1="20.665582808253387" y1="21.670280979128965" x2="22.473957446559314" y2="14.525768134616985" class="delaunay-line"/>
<line x1="22.473957446559314" y1="14.525768134616985" x2="20.4709101895921" y2="21.657521461586594" class="delaunay-line"/>
<line x1="7.143992798860032" y1="20.82923346938923" x2="7.015360811472175" y2="20.975910139534847" class="delaunay-line"/>
<line x1="7.015360811472175" y1="20.975910139534847" x2="20.10316058380991" y2="22.403243892273498" class="delaunay-line"/>
<line x1="20.10316058380991" y1="22.403243892273498" x2="7.143992798860032" y2="20.82923346938923" class="delaunay-line"/>
<line x1="20.13949661555651" y1="21.84886317776914" x2="20.840554000206485" y2="21.75656722212788" class="delaunay-line"/>
<line x1="20.840554000206485" y1="21.75656722212788" x2="20.286173285702127" y2="21.72023119038128" class="delaunay-line"/>
<line x1="20.286173285702127" y1="21.72023119038128" x2="20.13949661555651" y2="21.84886317776914" class="delaunay-line"/>
<line x1="20.969185987594344" y1="21.903243892273498" x2="20.840554000206485" y2="21.75656722212788" class="delaunay-line"/>
<line x1="20.840554000206485" y1="21.75656722212788" x2="20.932849955847743" y2="22.457624606777856" class="delaunay-line"/>
<line x1="20.932849955847743" y1="22.457624606777856" x2="20.969185987594344" y2="21.903243892273498" class="delaunay-line"/>
<line x1="20.665582808253387" y1="21.670280979128965" x2="20.840554000206485" y2="21.75656722212788" class="delaunay-line"/>
<line x1="20.840554000206485" y1="21.75656722212788" x2="22.66529916274186" y2="14.563828368361342" class="delaunay-line"/>
<line x1="22.66529916274186" y1="14.563828368361342" x2="20.665582808253387" y2="21.670280979128965" class="delaunay-line"/>
<line x1="20.10316058380991" y1="22.403243892273498" x2="7.015360811472175" y2="20.975910139534847" class="delaunay-line"/>
<line x1="7.015360811472175" y1="20.975910139534847" x2="20.23179257119777" y2="22.549920562419114" class="delaunay-line"/>
<line x1="20.23179257119777" y1="22.549920562419114" x2="20.10316058380991" y2="22.403243892273498" class="delaunay-line"/>
<line x1="20.053210372557594" y1="22.023834369722238" x2="20.040450855015223" y2="22.218506988383524" class="delaunay-line"/>
<line x1="20.040450855015223" y1="22.218506988383524" x2="20.13949661555651" y2="21.84886317776914" class="delaunay-line"/>
<line x1="20.13949661555651" y1="21.84886317776914" x2="20.053210372557594" y2="22.023834369722238" class="delaunay-line"/>
<line x1="20.23179257119777" y1="22.549920562419114" x2="20.840554000206485" y2="21.75656722212788" class="delaunay-line"/>
<line x1="20.840554000206485" y1="21.75656722212788" x2="20.13949661555651" y2="21.84886317776914" class="delaunay-line"/>
<line x1="20.13949661555651" y1="21.84886317776914" x2="20.23179257119777" y2="22.549920562419114" class="delaunay-line"/>
<line x1="20.840554000206485" y1="21.75656722212788" x2="20.969185987594344" y2="21.903243892273498" class="delaunay-line"/>
<line x1="20.969185987594344" y1="21.903243892273498" x2="22.856640878924406" y2="14.525768134616985" class="delaunay-line"/>
<line x1="22.856640878924406" y1="14.525768134616985" x2="20.840554000206485" y2="21.75656722212788" class="delaunay-line"/>
<line x1="20.23179257119777" y1="22.549920562419114" x2="7.015360811472175" y2="20.975910139534847" class="delaunay-line"/>
<line x1="7.015360811472175" y1="20.975910139534847" x2="6.840389619519074" y2="21.062196382533763" class="delaunay-line"/>
<line x1="6.840389619519074" y1="21.062196382533763" x2="20.23179257119777" y2="22.549920562419114" class="delaunay-line"/>
<line x1="20.040450855015223" y1="22.218506988383524" x2="20.10316058380991" y2="22.403243892273498" class="delaunay-line"/>
<line x1="20.10316058380991" y1="22.403243892273498" x2="20.13949661555651" y2="21.84886317776914" class="delaunay-line"/>
<line x1="20.13949661555651" y1="21.84886317776914" x2="20.040450855015223" y2="22.218506988383524" class="delaunay-line"/>
<line x1="21.01913619884666" y1="22.282653414824757" x2="21.03189571638903" y2="22.08798079616347" class="delaunay-line"/>
<line x1="21.03189571638903" y1="22.08798079616347" x2="20.932849955847743" y2="22.457624606777856" class="delaunay-line"/>
<line x1="20.932849955847743" y1="22.457624606777856" x2="21.01913619884666" y2="22.282653414824757" class="delaunay-line"/>
<line x1="20.969185987594344" y1="21.903243892273498" x2="24" y2="24" class="delaunay-line"/>
<line x1="24" y1="24" x2="22.856640878924406" y2="14.525768134616985" class="delaunay-line"/>
<line x1="22.856640878924406" y1="14.525768134616985" x2="20.969185987594344" y2="21.903243892273498" class="delaunay-line"/>
<line x1="20.406763763150867" y1="22.63620680541803" x2="20.23179257119777" y2="22.549920562419114" class="delaunay-line"/>
<line x1="20.23179257119777" y1="22.549920562419114" x2="6.840389619519074" y2="21.062196382533763" class="delaunay-line"/>
<line x1="6.840389619519074" y1="21.062196382533763" x2="20.406763763150867" y2="22.63620680541803" class="delaunay-line"/>
<line x1="20.10316058380991" y1="22.403243892273498" x2="20.23179257119777" y2="22.549920562419114" class="delaunay-line"/>
<line x1="20.23179257119777" y1="22.549920562419114" x2="20.13949661555651" y2="21.84886317776914" class="delaunay-line"/>
<line x1="20.13949661555651" y1="21.84886317776914" x2="20.10316058380991" y2="22.403243892273498" class="delaunay-line"/>
<line x1="20.932849955847743" y1="22.457624606777856" x2="21.03189571638903" y2="22.08798079616347" class="delaunay-line"/>
<line x1="21.03189571638903" y1="22.08798079616347" x2="20.969185987594344" y2="21.903243892273498" class="delaunay-line"/>
<line x1="20.969185987594344" y1="21.903243892273498" x2="20.932849955847743" y2="22.457624606777856" class="delaunay-line"/>
<line x1="21.03189571638903" y1="22.08798079616347" x2="24" y2="24" class="delaunay-line"/>
<line x1="24" y1="24" x2="20.969185987594344" y2="21.903243892273498" class="delaunay-line"/>
<line x1="20.969185987594344" y1="21.903243892273498" x2="21.03189571638903" y2="22.08798079616347" class="delaunay-line"/>
<line x1="0" y1="24" x2="20.406763763150867" y2="22.63620680541803" class="delaunay-line"/>
<line x1="20.406763763150867" y1="22.63620680541803" x2="6.840389619519074" y2="21.062196382533763" class="delaunay-line"/>
<line x1="6.840389619519074" y1="21.062196382533763" x2="0" y2="24" class="delaunay-line"/>
<line x1="20.23179257119777" y1="22.549920562419114" x2="20.932849955847743" y2="22.457624606777856" class="delaunay-line"/>
<line x1="20.932849955847743" y1="22.457624606777856" x2="20.840554000206485" y2="21.75656722212788" class="delaunay-line"/>
<line x1="20.840554000206485" y1="21.75656722212788" x2="20.23179257119777" y2="22.549920562419114" class="delaunay-line"/>
<line x1="20.786173285702127" y1="22.586256594165715" x2="20.932849955847743" y2="22.457624606777856" class="delaunay-line"/>
<line x1="20.932849955847743" y1="22.457624606777856" x2="20.23179257119777" y2="22.549920562419114" class="delaunay-line"/>
<line x1="20.23179257119777" y1="22.549920562419114" x2="20.786173285702127" y2="22.586256594165715" class="delaunay-line"/>
<line x1="20.406763763150867" y1="22.63620680541803" x2="20.601436381812153" y2="22.6489663229604" class="delaunay-line"/>
<line x1="20.601436381812153" y1="22.6489663229604" x2="20.23179257119777" y2="22.549920562419114" class="delaunay-line"/>
<line x1="20.23179257119777" y1="22.549920562419114" x2="20.406763763150867" y2="22.63620680541803" class="delaunay-line"/>
<line x1="20.601436381812153" y1="22.6489663229604" x2="20.786173285702127" y2="22.586256594165715" class="delaunay-line"/>
<line x1="20.786173285702127" y1="22.586256594165715" x2="20.23179257119777" y2="22.549920562419114" class="delaunay-line"/>
<line x1="20.23179257119777" y1="22.549920562419114" x2="20.601436381812153" y2="22.6489663229604" class="delaunay-line"/>
<line x1="6.4609800969678135" y1="21.012246171281447" x2="0" y2="24" class="delaunay-line"/>
<line x1="0" y1="24" x2="6.645717000857787" y2="21.074955900076134" class="delaunay-line"/>
<line x1="6.645717000857787" y1="21.074955900076134" x2="6.4609800969678135" y2="21.012246171281447" class="delaunay-line"/>
<line x1="6.645717000857787" y1="21.074955900076134" x2="0" y2="24" class="delaunay-line"/>
<line x1="0" y1="24" x2="6.840389619519074" y2="21.062196382533763" class="delaunay-line"/>
<line x1="6.840389619519074" y1="21.062196382533763" x2="6.645717000857787" y2="21.074955900076134" class="delaunay-line"/>
<line x1="20.406763763150867" y1="22.63620680541803" x2="24" y2="24" class="delaunay-line"/>
<line x1="24" y1="24" x2="20.601436381812153" y2="22.6489663229604" class="delaunay-line"/>
<line x1="20.601436381812153" y1="22.6489663229604" x2="20.406763763150867" y2="22.63620680541803" class="delaunay-line"/>
<line x1="6.314303426822196" y1="20.883614183893588" x2="0" y2="24" class="delaunay-line"/>
<line x1="0" y1="24" x2="6.4609800969678135" y2="21.012246171281447" class="delaunay-line"/>
<line x1="6.4609800969678135" y1="21.012246171281447" x2="6.314303426822196" y2="20.883614183893588" class="delaunay-line"/>
<line x1="6.22801718382328" y1="20.70864299194049" x2="0" y2="24" class="delaunay-line"/>
<line x1="0" y1="24" x2="6.314303426822196" y2="20.883614183893588" class="delaunay-line"/>
<line x1="6.314303426822196" y1="20.883614183893588" x2="6.22801718382328" y2="20.70864299194049" class="delaunay-line"/>
<line x1="0" y1="0" x2="0" y2="24" class="delaunay-line"/>
<line x1="0" y1="24" x2="6.406599382463452" y2="20.182556799243613" class="delaunay-line"/>
<line x1="6.406599382463452" y1="20.182556799243613" x2="0" y2="0" class="delaunay-line"/>
<line x1="20.786173285702127" y1="22.586256594165715" x2="24" y2="24" class="delaunay-line"/>
<line x1="24" y1="24" x2="20.932849955847743" y2="22.457624606777856" class="delaunay-line"/>
<line x1="20.932849955847743" y1="22.457624606777856" x2="20.786173285702127" y2="22.586256594165715" class="delaunay-line"/>
<line x1="20.932849955847743" y1="22.457624606777856" x2="24" y2="24" class="delaunay-line"/>
<line x1="24" y1="24" x2="21.01913619884666" y2="22.282653414824757" class="delaunay-line"/>
<line x1="21.01913619884666" y1="22.282653414824757" x2="20.932849955847743" y2="22.457624606777856" class="delaunay-line"/>
<line x1="21.01913619884666" y1="22.282653414824757" x2="24" y2="24" class="delaunay-line"/>
<line x1="24" y1="24" x2="21.03189571638903" y2="22.08798079616347" class="delaunay-line"/>
<line x1="21.03189571638903" y1="22.08798079616347" x2="21.01913619884666" y2="22.282653414824757" class="delaunay-line"/>
<line x1="23.127238928997503" y1="14.255170084543888" x2="24" y2="24" class="delaunay-line"/>
<line x1="24" y1="24" x2="23.16529916274186" y2="14.063828368361342" class="delaunay-line"/>
<line x1="23.16529916274186" y1="14.063828368361342" x2="23.127238928997503" y2="14.255170084543888" class="delaunay-line"/>
<line x1="23.16529916274186" y1="14.063828368361342" x2="24" y2="24" class="delaunay-line"/>
<line x1="24" y1="24" x2="24" y2="0" class="delaunay-line"/>
<line x1="24" y1="0" x2="23.16529916274186" y2="14.063828368361342" class="delaunay-line"/>
<line x1="20.601436381812153" y1="22.6489663229604" x2="24" y2="24" class="delaunay-line"/>
<line x1="24" y1="24" x2="20.786173285702127" y2="22.586256594165715" class="delaunay-line"/>
<line x1="20.786173285702127" y1="22.586256594165715" x2="20.601436381812153" y2="22.6489663229604" class="delaunay-line"/>
<line x1="0" y1="24" x2="24" y2="24" class="delaunay-line"/>
<line x1="24" y1="24" x2="20.406763763150867" y2="22.63620680541803" class="delaunay-line"/>
<line x1="20.406763763150867" y1="22.63620680541803" x2="0" y2="24" class="delaunay-line"/>
</g>
<g id="layer-area" class="layer ">
</g>
<g id="layer-terrain" class="layer ">
<polygon points="10.952735518512759,3.491819391431091 11.039021761511675,3.3168481994779913 11.185698431657295,3.1882162120901323 11.370435335547267,3.1255064832954464 11.565107954208553,3.138266000837817 11.740079146161655,3.2245522438367344 11.868711133549512,3.371228913982351 11.931420862344199,3.5559658178723255 11.918661344801828,3.750638436533612 11.832375101802912,3.9256096284867117 11.685698431657292,4.054241615874571 11.50096152776732,4.116951344669257 11.306288909106033,4.104191827126885 11.131317717152932,4.017905584127969 11.002685729765075,3.871228913982352 10.939976000970388,3.686492010092378" fill="Dark Green" class="terrain-solid"/>
<polygon points="6.840389619519074,21.062196382533763 6.645717000857787,21.074955900076134 6.4609800969678135,21.012246171281447 6.314303426822196,20.883614183893588 6.22801718382328,20.70864299194049 6.215257666280909,20.513970373279204 6.277967395075595,20.32923346938923 6.406599382463452,20.182556799243613 6.581570574416553,20.096270556244697 6.77624319307784,20.083511038702326 6.9609800969678135,20.146220767497013 7.107656767113431,20.274852754884872 7.193943010112347,20.44982394683797 7.206702527654718,20.644496565499256 7.143992798860032,20.82923346938923 7.015360811472175,20.975910139534847" fill="Dark Green" class="terrain-solid"/>
<polygon points="22.66529916274186,13.563828368361342 22.856640878924406,13.6018886021057 23.018852553335133,13.71027497776807 23.127238928997503,13.872486652178797 23.16529916274186,14.063828368361342 23.127238928997503,14.255170084543888 23.018852553335133,14.417381758954615 22.856640878924406,14.525768134616985 22.66529916274186,14.563828368361342 22.473957446559314,14.525768134616985 22.311745772148587,14.417381758954615 22.203359396486217,14.255170084543888 22.16529916274186,14.063828368361342 22.203359396486217,13.872486652178797 22.311745772148587,13.71027497776807 22.473957446559314,13.6018886021057" fill="Dark Green" class="terrain-solid"/>
<polygon points="20.053210372557594,22.023834369722238 20.13949661555651,21.84886317776914 20.286173285702127,21.72023119038128 20.4709101895921,21.657521461586594 20.665582808253387,21.670280979128965 20.840554000206485,21.75656722212788 20.969185987594344,21.903243892273498 21.03189571638903,22.08798079616347 21.01913619884666,22.282653414824757 20.932849955847743,22.457624606777856 20.786173285702127,22.586256594165715 20.601436381812153,22.6489663229604 20.406763763150867,22.63620680541803 20.23179257119777,22.549920562419114 20.10316058380991,22.403243892273498 20.040450855015223,22.218506988383524" fill="Dark Green" class="terrain-solid"/>
</g>
<g id="layer-models" class="layer ">
</g>
<g id="layer-paths" class="layer ">
</g>
<g id="layer-vectors" class="layer ">
</g>
<g id="layer-los" class="layer ">
</g>
<g id="layer-lof" class="layer ">
</g>

</svg>