<svg xmlns="http://www.w3.org/2000/svg" viewBox="0 0 24 24" width="960" height="960" font-family="Arial" font-size="0.6">
<defs>
  <style><![CDATA[
    .layer { display: inline; }
    .layer.hidden { display: none; }
    .grid-line { stroke: #999; stroke-width: 0.02; opacity: 0.2; }
    .delaunay-line { stroke: #4a6fa5; stroke-width: 0.03; opacity: 0.3; }
    .terrain-area { stroke: #000; stroke-width: 0.05; }
    .terrain-solid { stroke: #000; stroke-width: 0.05; }
    .model { stroke: #ff0000; stroke-width: 2; vector-effect: non-scaling-stroke; }
    .path { fill: none; stroke-width: 0.12; }
    .vector { stroke-width: 0.1; }
    .los-ray { stroke-width: 0.08; stroke-dasharray: 0.2 0.2; }
    .lof-ray { stroke-width: 0.08; stroke-dasharray: 0.3 0.15; }
    .label { fill: #111 !important; font-size: 0.6px; }
    .toggle { cursor: pointer; }
    .toggle.disabled { cursor: default; }
    .toggle.disabled rect { stroke: #ccc; fill: #fff; }
    .toggle.disabled text { fill: #ccc; }
#layer-area { fill: #C49A6C; }
#layer-building { fill: #000000; }
#layer-wall { fill: #555555; }
#layer-tree { fill: #90EE90; }
#layer-shrub { fill: #006400; }
  ]]></style>
</defs>
<rect x="0" y="0" width="24" height="24" fill="#ffffff" stroke="#111" stroke-width="0.05"/>
<script><![CDATA[
      function toggleLayer(id) {
        var layer = document.getElementById('layer-' + id);
        if (!layer) return;
        if (layer.classList.contains('hidden')) {
          layer.classList.remove('hidden');
        } else {
          layer.classList.add('hidden');
        }
      }
    ]]></script>
<text x="0.4" y="23.6" class="label">Battlefield 24x24 density 75 blockLOS 75</text>
<g id="layer-grid" class="layer ">
<line x1="0" y1="0" x2="0" y2="24" class="grid-line"/>
<line x1="0.5" y1="0" x2="0.5" y2="24" class="grid-line"/>
<line x1="1" y1="0" x2="1" y2="24" class="grid-line"/>
<line x1="1.5" y1="0" x2="1.5" y2="24" class="grid-line"/>
<line x1="2" y1="0" x2="2" y2="24" class="grid-line"/>
<line x1="2.5" y1="0" x2="2.5" y2="24" class="grid-line"/>
<line x1="3" y1="0" x2="3" y2="24" class="grid-line"/>
<line x1="3.5" y1="0" x2="3.5" y2="24" class="grid-line"/>
<line x1="4" y1="0" x2="4" y2="24" class="grid-line"/>
<line x1="4.5" y1="0" x2="4.5" y2="24" class="grid-line"/>
<line x1="5" y1="0" x2="5" y2="24" class="grid-line"/>
<line x1="5.5" y1="0" x2="5.5" y2="24" class="grid-line"/>
<line x1="6" y1="0" x2="6" y2="24" class="grid-line"/>
<line x1="6.5" y1="0" x2="6.5" y2="24" class="grid-line"/>
<line x1="7" y1="0" x2="7" y2="24" class="grid-line"/>
<line x1="7.5" y1="0" x2="7.5" y2="24" class="grid-line"/>
<line x1="8" y1="0" x2="8" y2="24" class="grid-line"/>
<line x1="8.5" y1="0" x2="8.5" y2="24" class="grid-line"/>
<line x1="9" y1="0" x2="9" y2="24" class="grid-line"/>
<line x1="9.5" y1="0" x2="9.5" y2="24" class="grid-line"/>
<line x1="10" y1="0" x2="10" y2="24" class="grid-line"/>
<line x1="10.5" y1="0" x2="10.5" y2="24" class="grid-line"/>
<line x1="11" y1="0" x2="11" y2="24" class="grid-line"/>
<line x1="11.5" y1="0" x2="11.5" y2="24" class="grid-line"/>
<line x1="12" y1="0" x2="12" y2="24" class="grid-line"/>
<line x1="12.5" y1="0" x2="12.5" y2="24" class="grid-line"/>
<line x1="13" y1="0" x2="13" y2="24" class="grid-line"/>
<line x1="13.5" y1="0" x2="13.5" y2="24" class="grid-line"/>
<line x1="14" y1="0" x2="14" y2="24" class="grid-line"/>
<line x1="14.5" y1="0" x2="14.5" y2="24" class="grid-line"/>
<line x1="15" y1="0" x2="15" y2="24" class="grid-line"/>
<line x1="15.5" y1="0" x2="15.5" y2="24" class="grid-line"/>
<line x1="16" y1="0" x2="16" y2="24" class="grid-line"/>
<line x1="16.5" y1="0" x2="16.5" y2="24" class="grid-line"/>
<line x1="17" y1="0" x2="17" y2="24" class="grid-line"/>
<line x1="17.5" y1="0" x2="17.5" y2="24" class="grid-line"/>
<line x1="18" y1="0" x2="18" y2="24" class="grid-line"/>
<line x1="18.5" y1="0" x2="18.5" y2="24" class="grid-line"/>
<line x1="19" y1="0" x2="19" y2="24" class="grid-line"/>
<line x1="19.5" y1="0" x2="19.5" y2="24" class="grid-line"/>
<line x1="20" y1="0" x2="20" y2="24" class="grid-line"/>
<line x1="20.5" y1="0" x2="20.5" y2="24" class="grid-line"/>
<line x1="21" y1="0" x2="21" y2="24" class="grid-line"/>
<line x1="21.5" y1="0" x2="21.5" y2="24" class="grid-line"/>
<line x1="22" y1="0" x2="22" y2="24" class="grid-line"/>
<line x1="22.5" y1="0" x2="22.5" y2="24" class="grid-line"/>
<line x1="23" y1="0" x2="23" y2="24" class="grid-line"/>
<line x1="23.5" y1="0" x2="23.5" y2="24" class="grid-line"/>
<line x1="24" y1="0" x2="24" y2="24" class="grid-line"/>
<line x1="0" y1="0" x2="24" y2="0" class="grid-line"/>
<line x1="0" y1="0.5" x2="24" y2="0.5" class="grid-line"/>
<line x1="0" y1="1" x2="24" y2="1" class="grid-line"/>
<line x1="0" y1="1.5" x2="24" y2="1.5" class="grid-line"/>
<line x1="0" y1="2" x2="24" y2="2" class="grid-line"/>
<line x1="0" y1="2.5" x2="24" y2="2.5" class="grid-line"/>
<line x1="0" y1="3" x2="24" y2="3" class="grid-line"/>
<line x1="0" y1="3.5" x2="24" y2="3.5" class="grid-line"/>
<line x1="0" y1="4" x2="24" y2="4" class="grid-line"/>
<line x1="0" y1="4.5" x2="24" y2="4.5" class="grid-line"/>
<line x1="0" y1="5" x2="24" y2="5" class="grid-line"/>
<line x1="0" y1="5.5" x2="24" y2="5.5" class="grid-line"/>
<line x1="0" y1="6" x2="24" y2="6" class="grid-line"/>
<line x1="0" y1="6.5" x2="24" y2="6.5" class="grid-line"/>
<line x1="0" y1="7" x2="24" y2="7" class="grid-line"/>
<line x1="0" y1="7.5" x2="24" y2="7.5" class="grid-line"/>
<line x1="0" y1="8" x2="24" y2="8" class="grid-line"/>
<line x1="0" y1="8.5" x2="24" y2="8.5" class="grid-line"/>
<line x1="0" y1="9" x2="24" y2="9" class="grid-line"/>
<line x1="0" y1="9.5" x2="24" y2="9.5" class="grid-line"/>
<line x1="0" y1="10" x2="24" y2="10" class="grid-line"/>
<line x1="0" y1="10.5" x2="24" y2="10.5" class="grid-line"/>
<line x1="0" y1="11" x2="24" y2="11" class="grid-line"/>
<line x1="0" y1="11.5" x2="24" y2="11.5" class="grid-line"/>
<line x1="0" y1="12" x2="24" y2="12" class="grid-line"/>
<line x1="0" y1="12.5" x2="24" y2="12.5" class="grid-line"/>
<line x1="0" y1="13" x2="24" y2="13" class="grid-line"/>
<line x1="0" y1="13.5" x2="24" y2="13.5" class="grid-line"/>
<line x1="0" y1="14" x2="24" y2="14" class="grid-line"/>
<line x1="0" y1="14.5" x2="24" y2="14.5" class="grid-line"/>
<line x1="0" y1="15" x2="24" y2="15" class="grid-line"/>
<line x1="0" y1="15.5" x2="24" y2="15.5" class="grid-line"/>
<line x1="0" y1="16" x2="24" y2="16" class="grid-line"/>
<line x1="0" y1="16.5" x2="24" y2="16.5" class="grid-line"/>
<line x1="0" y1="17" x2="24" y2="17" class="grid-line"/>
<line x1="0" y1="17.5" x2="24" y2="17.5" class="grid-line"/>
<line x1="0" y1="18" x2="24" y2="18" class="grid-line"/>
<line x1="0" y1="18.5" x2="24" y2="18.5" class="grid-line"/>
<line x1="0" y1="19" x2="24" y2="19" class="grid-line"/>
<line x1="0" y1="19.5" x2="24" y2="19.5" class="grid-line"/>
<line x1="0" y1="20" x2="24" y2="20" class="grid-line"/>
<line x1="0" y1="20.5" x2="24" y2="20.5" class="grid-line"/>
<line x1="0" y1="21" x2="24" y2="21" class="grid-line"/>
<line x1="0" y1="21.5" x2="24" y2="21.5" class="grid-line"/>
<line x1="0" y1="22" x2="24" y2="22" class="grid-line"/>
<line x1="0" y1="22.5" x2="24" y2="22.5" class="grid-line"/>
<line x1="0" y1="23" x2="24" y2="23" class="grid-line"/>
<line x1="0" y1="23.5" x2="24" y2="23.5" class="grid-line"/>
<line x1="0" y1="24" x2="24" y2="24" class="grid-line"/>
</g>
<g id="layer-delaunay" class="layer ">
<line x1="10.60876142900872" y1="15.206646659708765" x2="9.5" y2="15.133974596215563" class="delaunay-line"/>
<line x1="9.5" y1="15.133974596215563" x2="10.866025403784437" y2="15.5" class="delaunay-line"/>
<line x1="10.866025403784437" y1="15.5" x2="10.60876142900872" y2="15.206646659708765" class="delaunay-line"/>
<line x1="9.5" y1="15.133974596215563" x2="9.741180954897478" y2="16.965925826289066" class="delaunay-line"/>
<line x1="9.741180954897478" y1="16.965925826289066" x2="10.866025403784437" y2="15.5" class="delaunay-line"/>
<line x1="10.866025403784437" y1="15.5" x2="9.5" y2="15.133974596215563" class="delaunay-line"/>
<line x1="9.5" y1="15.133974596215563" x2="9.133974596215563" y2="16.5" class="delaunay-line"/>
<line x1="9.133974596215563" y1="16.5" x2="9.741180954897478" y2="16.965925826289066" class="delaunay-line"/>
<line x1="9.741180954897478" y1="16.965925826289066" x2="9.5" y2="15.133974596215563" class="delaunay-line"/>
<line x1="9.741180954897478" y1="16.965925826289066" x2="10.5" y2="16.866025403784437" class="delaunay-line"/>
<line x1="10.5" y1="16.866025403784437" x2="10.866025403784437" y2="15.5" class="delaunay-line"/>
<line x1="10.866025403784437" y1="15.5" x2="9.741180954897478" y2="16.965925826289066" class="delaunay-line"/>
<line x1="10.5" y1="16.866025403784437" x2="10.793353340291235" y2="16.60876142900872" class="delaunay-line"/>
<line x1="10.793353340291235" y1="16.60876142900872" x2="10.866025403784437" y2="15.5" class="delaunay-line"/>
<line x1="10.866025403784437" y1="15.5" x2="10.5" y2="16.866025403784437" class="delaunay-line"/>
<line x1="9.5" y1="15.133974596215563" x2="9.206646659708765" y2="15.39123857099128" class="delaunay-line"/>
<line x1="9.206646659708765" y1="15.39123857099128" x2="9.133974596215563" y2="16.5" class="delaunay-line"/>
<line x1="9.133974596215563" y1="16.5" x2="9.5" y2="15.133974596215563" class="delaunay-line"/>
<line x1="10.793353340291235" y1="16.60876142900872" x2="10.965925826289068" y2="16.25881904510252" class="delaunay-line"/>
<line x1="10.965925826289068" y1="16.25881904510252" x2="10.866025403784437" y2="15.5" class="delaunay-line"/>
<line x1="10.866025403784437" y1="15.5" x2="10.793353340291235" y2="16.60876142900872" class="delaunay-line"/>
<line x1="10.965925826289068" y1="16.25881904510252" x2="10.991444861373811" y2="15.86947380777995" class="delaunay-line"/>
<line x1="10.991444861373811" y1="15.86947380777995" x2="10.866025403784437" y2="15.5" class="delaunay-line"/>
<line x1="10.866025403784437" y1="15.5" x2="10.965925826289068" y2="16.25881904510252" class="delaunay-line"/>
<line x1="9.741180954897478" y1="16.965925826289066" x2="10.130526192220051" y2="16.99144486137381" class="delaunay-line"/>
<line x1="10.130526192220051" y1="16.99144486137381" x2="10.5" y2="16.866025403784437" class="delaunay-line"/>
<line x1="10.5" y1="16.866025403784437" x2="9.741180954897478" y2="16.965925826289066" class="delaunay-line"/>
<line x1="10.60876142900872" y1="15.206646659708765" x2="9.869473807779949" y2="15.008555138626189" class="delaunay-line"/>
<line x1="9.869473807779949" y1="15.008555138626189" x2="9.5" y2="15.133974596215563" class="delaunay-line"/>
<line x1="9.5" y1="15.133974596215563" x2="10.60876142900872" y2="15.206646659708765" class="delaunay-line"/>
<line x1="9.133974596215563" y1="16.5" x2="9.39123857099128" y2="16.793353340291237" class="delaunay-line"/>
<line x1="9.39123857099128" y1="16.793353340291237" x2="9.741180954897478" y2="16.965925826289066" class="delaunay-line"/>
<line x1="9.741180954897478" y1="16.965925826289066" x2="9.133974596215563" y2="16.5" class="delaunay-line"/>
<line x1="9.206646659708765" y1="15.39123857099128" x2="9.008555138626189" y2="16.130526192220053" class="delaunay-line"/>
<line x1="9.008555138626189" y1="16.130526192220053" x2="9.133974596215563" y2="16.5" class="delaunay-line"/>
<line x1="9.133974596215563" y1="16.5" x2="9.206646659708765" y2="15.39123857099128" class="delaunay-line"/>
<line x1="10.60876142900872" y1="15.206646659708765" x2="10.25881904510252" y2="15.03407417371093" class="delaunay-line"/>
<line x1="10.25881904510252" y1="15.03407417371093" x2="9.869473807779949" y2="15.008555138626189" class="delaunay-line"/>
<line x1="9.869473807779949" y1="15.008555138626189" x2="10.60876142900872" y2="15.206646659708765" class="delaunay-line"/>
<line x1="9.206646659708765" y1="15.39123857099128" x2="9.03407417371093" y2="15.741180954897478" class="delaunay-line"/>
<line x1="9.03407417371093" y1="15.741180954897478" x2="9.008555138626189" y2="16.130526192220053" class="delaunay-line"/>
<line x1="9.008555138626189" y1="16.130526192220053" x2="9.206646659708765" y2="15.39123857099128" class="delaunay-line"/>
<line x1="9.741180954897478" y1="16.965925826289066" x2="11.050838778855905" y2="19.099876884532563" class="delaunay-line"/>
<line x1="11.050838778855905" y1="19.099876884532563" x2="10.130526192220051" y2="16.99144486137381" class="delaunay-line"/>
<line x1="10.130526192220051" y1="16.99144486137381" x2="9.741180954897478" y2="16.965925826289066" class="delaunay-line"/>
<line x1="10.130526192220051" y1="16.99144486137381" x2="11.050838778855905" y2="19.099876884532563" class="delaunay-line"/>
<line x1="11.050838778855905" y1="19.099876884532563" x2="10.5" y2="16.866025403784437" class="delaunay-line"/>
<line x1="10.5" y1="16.866025403784437" x2="10.130526192220051" y2="16.99144486137381" class="delaunay-line"/>
<line x1="10.5" y1="16.866025403784437" x2="11.050838778855905" y2="19.099876884532563" class="delaunay-line"/>
<line x1="11.050838778855905" y1="19.099876884532563" x2="10.793353340291235" y2="16.60876142900872" class="delaunay-line"/>
<line x1="10.793353340291235" y1="16.60876142900872" x2="10.5" y2="16.866025403784437" class="delaunay-line"/>
<line x1="15.13397459621556" y1="16.5" x2="15.008555138626189" y2="16.130526192220053" class="delaunay-line"/>
<line x1="15.008555138626189" y1="16.130526192220053" x2="10.965925826289068" y2="16.25881904510252" class="delaunay-line"/>
<line x1="10.965925826289068" y1="16.25881904510252" x2="15.13397459621556" y2="16.5" class="delaunay-line"/>
<line x1="10.965925826289068" y1="16.25881904510252" x2="15.008555138626189" y2="16.130526192220053" class="delaunay-line"/>
<line x1="15.008555138626189" y1="16.130526192220053" x2="10.991444861373811" y2="15.86947380777995" class="delaunay-line"/>
<line x1="10.991444861373811" y1="15.86947380777995" x2="10.965925826289068" y2="16.25881904510252" class="delaunay-line"/>
<line x1="9.39123857099128" y1="16.793353340291237" x2="11.050838778855905" y2="19.099876884532563" class="delaunay-line"/>
<line x1="11.050838778855905" y1="19.099876884532563" x2="9.741180954897478" y2="16.965925826289066" class="delaunay-line"/>
<line x1="9.741180954897478" y1="16.965925826289066" x2="9.39123857099128" y2="16.793353340291237" class="delaunay-line"/>
<line x1="12.13397459621556" y1="21.500000000000004" x2="11.050838778855905" y2="19.099876884532563" class="delaunay-line"/>
<line x1="11.050838778855905" y1="19.099876884532563" x2="12.008555138626189" y2="21.869473807779947" class="delaunay-line"/>
<line x1="12.008555138626189" y1="21.869473807779947" x2="12.13397459621556" y2="21.500000000000004" class="delaunay-line"/>
<line x1="15.13397459621556" y1="16.5" x2="10.965925826289068" y2="16.25881904510252" class="delaunay-line"/>
<line x1="10.965925826289068" y1="16.25881904510252" x2="10.793353340291235" y2="16.60876142900872" class="delaunay-line"/>
<line x1="10.793353340291235" y1="16.60876142900872" x2="15.13397459621556" y2="16.5" class="delaunay-line"/>
<line x1="10.991444861373811" y1="15.86947380777995" x2="15.034074173710932" y2="15.74118095489748" class="delaunay-line"/>
<line x1="15.034074173710932" y1="15.74118095489748" x2="10.866025403784437" y2="15.5" class="delaunay-line"/>
<line x1="10.866025403784437" y1="15.5" x2="10.991444861373811" y2="15.86947380777995" class="delaunay-line"/>
<line x1="10.866025403784437" y1="15.5" x2="15.206646659708765" y2="15.391238570991279" class="delaunay-line"/>
<line x1="15.206646659708765" y1="15.391238570991279" x2="10.60876142900872" y2="15.206646659708765" class="delaunay-line"/>
<line x1="10.60876142900872" y1="15.206646659708765" x2="10.866025403784437" y2="15.5" class="delaunay-line"/>
<line x1="10.60876142900872" y1="15.206646659708765" x2="15.499999999999998" y2="15.13397459621556" class="delaunay-line"/>
<line x1="15.499999999999998" y1="15.13397459621556" x2="10.25881904510252" y2="15.03407417371093" class="delaunay-line"/>
<line x1="10.25881904510252" y1="15.03407417371093" x2="10.60876142900872" y2="15.206646659708765" class="delaunay-line"/>
<line x1="15.008555138626189" y1="16.130526192220053" x2="15.034074173710932" y2="15.74118095489748" class="delaunay-line"/>
<line x1="15.034074173710932" y1="15.74118095489748" x2="10.991444861373811" y2="15.86947380777995" class="delaunay-line"/>
<line x1="10.991444861373811" y1="15.86947380777995" x2="15.008555138626189" y2="16.130526192220053" class="delaunay-line"/>
<line x1="11.050838778855905" y1="19.099876884532563" x2="15.13397459621556" y2="16.5" class="delaunay-line"/>
<line x1="15.13397459621556" y1="16.5" x2="10.793353340291235" y2="16.60876142900872" class="delaunay-line"/>
<line x1="10.793353340291235" y1="16.60876142900872" x2="11.050838778855905" y2="19.099876884532563" class="delaunay-line"/>
<line x1="15.008555138626189" y1="16.130526192220053" x2="15.13397459621556" y2="16.5" class="delaunay-line"/>
<line x1="15.13397459621556" y1="16.5" x2="15.034074173710932" y2="15.74118095489748" class="delaunay-line"/>
<line x1="15.034074173710932" y1="15.74118095489748" x2="15.008555138626189" y2="16.130526192220053" class="delaunay-line"/>
<line x1="15.499999999999998" y1="15.13397459621556" x2="15.206646659708765" y2="15.391238570991279" class="delaunay-line"/>
<line x1="15.206646659708765" y1="15.391238570991279" x2="15.869473807779949" y2="15.00855513862619" class="delaunay-line"/>
<line x1="15.869473807779949" y1="15.00855513862619" x2="15.499999999999998" y2="15.13397459621556" class="delaunay-line"/>
<line x1="15.034074173710932" y1="15.74118095489748" x2="15.206646659708765" y2="15.391238570991279" class="delaunay-line"/>
<line x1="15.206646659708765" y1="15.391238570991279" x2="10.866025403784437" y2="15.5" class="delaunay-line"/>
<line x1="10.866025403784437" y1="15.5" x2="15.034074173710932" y2="15.74118095489748" class="delaunay-line"/>
<line x1="11.050838778855905" y1="19.099876884532563" x2="15.391238570991279" y2="16.793353340291237" class="delaunay-line"/>
<line x1="15.391238570991279" y1="16.793353340291237" x2="15.13397459621556" y2="16.5" class="delaunay-line"/>
<line x1="15.13397459621556" y1="16.5" x2="11.050838778855905" y2="19.099876884532563" class="delaunay-line"/>
<line x1="15.13397459621556" y1="16.5" x2="16.499999999999996" y2="16.866025403784437" class="delaunay-line"/>
<line x1="16.499999999999996" y1="16.866025403784437" x2="15.034074173710932" y2="15.74118095489748" class="delaunay-line"/>
<line x1="15.034074173710932" y1="15.74118095489748" x2="15.13397459621556" y2="16.5" class="delaunay-line"/>
<line x1="15.869473807779949" y1="15.00855513862619" x2="15.206646659708765" y2="15.391238570991279" class="delaunay-line"/>
<line x1="15.206646659708765" y1="15.391238570991279" x2="15.034074173710932" y2="15.74118095489748" class="delaunay-line"/>
<line x1="15.034074173710932" y1="15.74118095489748" x2="15.869473807779949" y2="15.00855513862619" class="delaunay-line"/>
<line x1="15.206646659708765" y1="15.391238570991279" x2="15.499999999999998" y2="15.13397459621556" class="delaunay-line"/>
<line x1="15.499999999999998" y1="15.13397459621556" x2="10.60876142900872" y2="15.206646659708765" class="delaunay-line"/>
<line x1="10.60876142900872" y1="15.206646659708765" x2="15.206646659708765" y2="15.391238570991279" class="delaunay-line"/>
<line x1="1.9659258262890686" y1="12.741180954897478" x2="9.5" y2="15.133974596215563" class="delaunay-line"/>
<line x1="9.5" y1="15.133974596215563" x2="1.793353340291235" y2="12.391238570991279" class="delaunay-line"/>
<line x1="1.793353340291235" y1="12.391238570991279" x2="1.9659258262890686" y2="12.741180954897478" class="delaunay-line"/>
<line x1="12.13397459621556" y1="21.500000000000004" x2="12.391238570991279" y2="21.206646659708767" class="delaunay-line"/>
<line x1="12.391238570991279" y1="21.206646659708767" x2="11.050838778855905" y2="19.099876884532563" class="delaunay-line"/>
<line x1="11.050838778855905" y1="19.099876884532563" x2="12.13397459621556" y2="21.500000000000004" class="delaunay-line"/>
<line x1="11.050838778855905" y1="19.099876884532563" x2="13.130526192220051" y2="21.008555138626193" class="delaunay-line"/>
<line x1="13.130526192220051" y1="21.008555138626193" x2="15.391238570991279" y2="16.793353340291237" class="delaunay-line"/>
<line x1="15.391238570991279" y1="16.793353340291237" x2="11.050838778855905" y2="19.099876884532563" class="delaunay-line"/>
<line x1="12.391238570991279" y1="21.206646659708767" x2="12.741180954897478" y2="21.03407417371093" class="delaunay-line"/>
<line x1="12.741180954897478" y1="21.03407417371093" x2="11.050838778855905" y2="19.099876884532563" class="delaunay-line"/>
<line x1="11.050838778855905" y1="19.099876884532563" x2="12.391238570991279" y2="21.206646659708767" class="delaunay-line"/>
<line x1="13.500000000000002" y1="21.133974596215563" x2="15.74118095489748" y2="16.96592582628907" class="delaunay-line"/>
<line x1="15.74118095489748" y1="16.96592582628907" x2="15.391238570991279" y2="16.793353340291237" class="delaunay-line"/>
<line x1="15.391238570991279" y1="16.793353340291237" x2="13.500000000000002" y2="21.133974596215563" class="delaunay-line"/>
<line x1="15.391238570991279" y1="16.793353340291237" x2="15.74118095489748" y2="16.96592582628907" class="delaunay-line"/>
<line x1="15.74118095489748" y1="16.96592582628907" x2="15.13397459621556" y2="16.5" class="delaunay-line"/>
<line x1="15.13397459621556" y1="16.5" x2="15.391238570991279" y2="16.793353340291237" class="delaunay-line"/>
<line x1="12.391238570991279" y1="21.206646659708767" x2="13.130526192220051" y2="21.008555138626193" class="delaunay-line"/>
<line x1="13.130526192220051" y1="21.008555138626193" x2="12.741180954897478" y2="21.03407417371093" class="delaunay-line"/>
<line x1="12.741180954897478" y1="21.03407417371093" x2="12.391238570991279" y2="21.206646659708767" class="delaunay-line"/>
<line x1="12.008555138626189" y1="21.869473807779947" x2="0" y2="24" class="delaunay-line"/>
<line x1="0" y1="24" x2="12.034074173710932" y2="22.25881904510252" class="delaunay-line"/>
<line x1="12.034074173710932" y1="22.25881904510252" x2="12.008555138626189" y2="21.869473807779947" class="delaunay-line"/>
<line x1="12.13397459621556" y1="21.500000000000004" x2="13.130526192220051" y2="21.008555138626193" class="delaunay-line"/>
<line x1="13.130526192220051" y1="21.008555138626193" x2="12.391238570991279" y2="21.206646659708767" class="delaunay-line"/>
<line x1="12.391238570991279" y1="21.206646659708767" x2="12.13397459621556" y2="21.500000000000004" class="delaunay-line"/>
<line x1="12.741180954897478" y1="21.03407417371093" x2="13.130526192220051" y2="21.008555138626193" class="delaunay-line"/>
<line x1="13.130526192220051" y1="21.008555138626193" x2="11.050838778855905" y2="19.099876884532563" class="delaunay-line"/>
<line x1="11.050838778855905" y1="19.099876884532563" x2="12.741180954897478" y2="21.03407417371093" class="delaunay-line"/>
<line x1="16.499999999999996" y1="16.866025403784437" x2="15.869473807779949" y2="15.00855513862619" class="delaunay-line"/>
<line x1="15.869473807779949" y1="15.00855513862619" x2="15.034074173710932" y2="15.74118095489748" class="delaunay-line"/>
<line x1="15.034074173710932" y1="15.74118095489748" x2="16.499999999999996" y2="16.866025403784437" class="delaunay-line"/>
<line x1="15.499999999999998" y1="15.13397459621556" x2="18.550838778855905" y2="6.109495827765984" class="delaunay-line"/>
<line x1="18.550838778855905" y1="6.109495827765984" x2="10.25881904510252" y2="15.03407417371093" class="delaunay-line"/>
<line x1="10.25881904510252" y1="15.03407417371093" x2="15.499999999999998" y2="15.13397459621556" class="delaunay-line"/>
<line x1="12.008555138626189" y1="21.869473807779947" x2="11.050838778855905" y2="19.099876884532563" class="delaunay-line"/>
<line x1="11.050838778855905" y1="19.099876884532563" x2="0" y2="24" class="delaunay-line"/>
<line x1="0" y1="24" x2="12.008555138626189" y2="21.869473807779947" class="delaunay-line"/>
<line x1="12.13397459621556" y1="21.500000000000004" x2="12.869473807779949" y2="22.991444861373807" class="delaunay-line"/>
<line x1="12.869473807779949" y1="22.991444861373807" x2="13.130526192220051" y2="21.008555138626193" class="delaunay-line"/>
<line x1="13.130526192220051" y1="21.008555138626193" x2="12.13397459621556" y2="21.500000000000004" class="delaunay-line"/>
<line x1="13.793353340291233" y1="21.391238570991277" x2="16.130526192220053" y2="16.99144486137381" class="delaunay-line"/>
<line x1="16.130526192220053" y1="16.99144486137381" x2="15.74118095489748" y2="16.96592582628907" class="delaunay-line"/>
<line x1="15.74118095489748" y1="16.96592582628907" x2="13.793353340291233" y2="21.391238570991277" class="delaunay-line"/>
<line x1="15.74118095489748" y1="16.96592582628907" x2="16.499999999999996" y2="16.866025403784437" class="delaunay-line"/>
<line x1="16.499999999999996" y1="16.866025403784437" x2="15.13397459621556" y2="16.5" class="delaunay-line"/>
<line x1="15.13397459621556" y1="16.5" x2="15.74118095489748" y2="16.96592582628907" class="delaunay-line"/>
<line x1="13.793353340291233" y1="21.391238570991277" x2="13.500000000000002" y2="21.133974596215563" class="delaunay-line"/>
<line x1="13.500000000000002" y1="21.133974596215563" x2="13.130526192220051" y2="21.008555138626193" class="delaunay-line"/>
<line x1="13.130526192220051" y1="21.008555138626193" x2="13.793353340291233" y2="21.391238570991277" class="delaunay-line"/>
<line x1="13.130526192220051" y1="21.008555138626193" x2="13.500000000000002" y2="21.133974596215563" class="delaunay-line"/>
<line x1="13.500000000000002" y1="21.133974596215563" x2="15.391238570991279" y2="16.793353340291237" class="delaunay-line"/>
<line x1="15.391238570991279" y1="16.793353340291237" x2="13.130526192220051" y2="21.008555138626193" class="delaunay-line"/>
<line x1="16.866025403784437" y1="15.5" x2="16.25881904510252" y2="15.034074173710932" class="delaunay-line"/>
<line x1="16.25881904510252" y1="15.034074173710932" x2="15.869473807779949" y2="15.00855513862619" class="delaunay-line"/>
<line x1="15.869473807779949" y1="15.00855513862619" x2="16.866025403784437" y2="15.5" class="delaunay-line"/>
<line x1="18.37059047744874" y1="22.017037086855467" x2="16.499999999999996" y2="16.866025403784437" class="delaunay-line"/>
<line x1="16.499999999999996" y1="16.866025403784437" x2="16.130526192220053" y2="16.99144486137381" class="delaunay-line"/>
<line x1="16.130526192220053" y1="16.99144486137381" x2="18.37059047744874" y2="22.017037086855467" class="delaunay-line"/>
<line x1="16.130526192220053" y1="16.99144486137381" x2="16.499999999999996" y2="16.866025403784437" class="delaunay-line"/>
<line x1="16.499999999999996" y1="16.866025403784437" x2="15.74118095489748" y2="16.96592582628907" class="delaunay-line"/>
<line x1="15.74118095489748" y1="16.96592582628907" x2="16.130526192220053" y2="16.99144486137381" class="delaunay-line"/>
<line x1="12.008555138626189" y1="21.869473807779947" x2="12.034074173710932" y2="22.25881904510252" class="delaunay-line"/>
<line x1="12.034074173710932" y1="22.25881904510252" x2="12.13397459621556" y2="21.500000000000004" class="delaunay-line"/>
<line x1="12.13397459621556" y1="21.500000000000004" x2="12.008555138626189" y2="21.869473807779947" class="delaunay-line"/>
<line x1="0" y1="24" x2="11.050838778855905" y2="19.099876884532563" class="delaunay-line"/>
<line x1="11.050838778855905" y1="19.099876884532563" x2="9.39123857099128" y2="16.793353340291237" class="delaunay-line"/>
<line x1="9.39123857099128" y1="16.793353340291237" x2="0" y2="24" class="delaunay-line"/>
<line x1="13.965925826289068" y1="21.74118095489748" x2="13.793353340291233" y2="21.391238570991277" class="delaunay-line"/>
<line x1="13.793353340291233" y1="21.391238570991277" x2="13.130526192220051" y2="21.008555138626193" class="delaunay-line"/>
<line x1="13.130526192220051" y1="21.008555138626193" x2="13.965925826289068" y2="21.74118095489748" class="delaunay-line"/>
<line x1="13.500000000000002" y1="21.133974596215563" x2="13.793353340291233" y2="21.391238570991277" class="delaunay-line"/>
<line x1="13.793353340291233" y1="21.391238570991277" x2="15.74118095489748" y2="16.96592582628907" class="delaunay-line"/>
<line x1="15.74118095489748" y1="16.96592582628907" x2="13.500000000000002" y2="21.133974596215563" class="delaunay-line"/>
<line x1="16.866025403784437" y1="15.5" x2="16.608761429008723" y2="15.206646659708765" class="delaunay-line"/>
<line x1="16.608761429008723" y1="15.206646659708765" x2="16.25881904510252" y2="15.034074173710932" class="delaunay-line"/>
<line x1="16.25881904510252" y1="15.034074173710932" x2="16.866025403784437" y2="15.5" class="delaunay-line"/>
<line x1="21.076120467488714" y1="18.61731656763491" x2="16.793353340291237" y2="16.608761429008723" class="delaunay-line"/>
<line x1="16.793353340291237" y1="16.608761429008723" x2="21" y2="19" class="delaunay-line"/>
<line x1="21" y1="19" x2="21.076120467488714" y2="18.61731656763491" class="delaunay-line"/>
<line x1="16.499999999999996" y1="16.866025403784437" x2="16.866025403784437" y2="15.5" class="delaunay-line"/>
<line x1="16.866025403784437" y1="15.5" x2="15.869473807779949" y2="15.00855513862619" class="delaunay-line"/>
<line x1="15.869473807779949" y1="15.00855513862619" x2="16.499999999999996" y2="16.866025403784437" class="delaunay-line"/>
<line x1="16.99144486137381" y1="15.869473807779949" x2="16.866025403784437" y2="15.5" class="delaunay-line"/>
<line x1="16.866025403784437" y1="15.5" x2="16.499999999999996" y2="16.866025403784437" class="delaunay-line"/>
<line x1="16.499999999999996" y1="16.866025403784437" x2="16.99144486137381" y2="15.869473807779949" class="delaunay-line"/>
<line x1="12.034074173710932" y1="22.25881904510252" x2="12.869473807779949" y2="22.991444861373807" class="delaunay-line"/>
<line x1="12.869473807779949" y1="22.991444861373807" x2="12.13397459621556" y2="21.500000000000004" class="delaunay-line"/>
<line x1="12.13397459621556" y1="21.500000000000004" x2="12.034074173710932" y2="22.25881904510252" class="delaunay-line"/>
<line x1="0" y1="24" x2="12.206646659708767" y2="22.608761429008723" class="delaunay-line"/>
<line x1="12.206646659708767" y1="22.608761429008723" x2="12.034074173710932" y2="22.25881904510252" class="delaunay-line"/>
<line x1="12.034074173710932" y1="22.25881904510252" x2="0" y2="24" class="delaunay-line"/>
<line x1="16.793353340291237" y1="16.608761429008723" x2="16.96592582628907" y2="16.25881904510252" class="delaunay-line"/>
<line x1="16.96592582628907" y1="16.25881904510252" x2="16.499999999999996" y2="16.866025403784437" class="delaunay-line"/>
<line x1="16.499999999999996" y1="16.866025403784437" x2="16.793353340291237" y2="16.608761429008723" class="delaunay-line"/>
<line x1="13.86602540378444" y1="22.499999999999996" x2="13.965925826289068" y2="21.74118095489748" class="delaunay-line"/>
<line x1="13.965925826289068" y1="21.74118095489748" x2="13.130526192220051" y2="21.008555138626193" class="delaunay-line"/>
<line x1="13.130526192220051" y1="21.008555138626193" x2="13.86602540378444" y2="22.499999999999996" class="delaunay-line"/>
<line x1="13.793353340291233" y1="21.391238570991277" x2="18.195619285495642" y2="22.103323329854383" class="delaunay-line"/>
<line x1="18.195619285495642" y1="22.103323329854383" x2="16.130526192220053" y2="16.99144486137381" class="delaunay-line"/>
<line x1="16.130526192220053" y1="16.99144486137381" x2="13.793353340291233" y2="21.391238570991277" class="delaunay-line"/>
<line x1="16.96592582628907" y1="16.25881904510252" x2="16.99144486137381" y2="15.869473807779949" class="delaunay-line"/>
<line x1="16.99144486137381" y1="15.869473807779949" x2="16.499999999999996" y2="16.866025403784437" class="delaunay-line"/>
<line x1="16.499999999999996" y1="16.866025403784437" x2="16.96592582628907" y2="16.25881904510252" class="delaunay-line"/>
<line x1="12.206646659708767" y1="22.608761429008723" x2="12.869473807779949" y2="22.991444861373807" class="delaunay-line"/>
<line x1="12.869473807779949" y1="22.991444861373807" x2="12.034074173710932" y2="22.25881904510252" class="delaunay-line"/>
<line x1="12.034074173710932" y1="22.25881904510252" x2="12.206646659708767" y2="22.608761429008723" class="delaunay-line"/>
<line x1="13.86602540378444" y1="22.499999999999996" x2="13.991444861373811" y2="22.130526192220053" class="delaunay-line"/>
<line x1="13.991444861373811" y1="22.130526192220053" x2="13.965925826289068" y2="21.74118095489748" class="delaunay-line"/>
<line x1="13.965925826289068" y1="21.74118095489748" x2="13.86602540378444" y2="22.499999999999996" class="delaunay-line"/>
<line x1="13.965925826289068" y1="21.74118095489748" x2="18.195619285495642" y2="22.103323329854383" class="delaunay-line"/>
<line x1="18.195619285495642" y1="22.103323329854383" x2="13.793353340291233" y2="21.391238570991277" class="delaunay-line"/>
<line x1="13.793353340291233" y1="21.391238570991277" x2="13.965925826289068" y2="21.74118095489748" class="delaunay-line"/>
<line x1="12.499999999999998" y1="22.866025403784437" x2="12.869473807779949" y2="22.991444861373807" class="delaunay-line"/>
<line x1="12.869473807779949" y1="22.991444861373807" x2="12.206646659708767" y2="22.608761429008723" class="delaunay-line"/>
<line x1="12.206646659708767" y1="22.608761429008723" x2="12.499999999999998" y2="22.866025403784437" class="delaunay-line"/>
<line x1="12.869473807779949" y1="22.991444861373807" x2="13.86602540378444" y2="22.499999999999996" class="delaunay-line"/>
<line x1="13.86602540378444" y1="22.499999999999996" x2="13.130526192220051" y2="21.008555138626193" class="delaunay-line"/>
<line x1="13.130526192220051" y1="21.008555138626193" x2="12.869473807779949" y2="22.991444861373807" class="delaunay-line"/>
<line x1="18.004277569313096" y1="22.434736903889974" x2="18.066987298107783" y2="22.25" class="delaunay-line"/>
<line x1="18.066987298107783" y1="22.25" x2="13.965925826289068" y2="21.74118095489748" class="delaunay-line"/>
<line x1="13.965925826289068" y1="21.74118095489748" x2="18.004277569313096" y2="22.434736903889974" class="delaunay-line"/>
<line x1="12.869473807779949" y1="22.991444861373807" x2="13.608761429008721" y2="22.793353340291233" class="delaunay-line"/>
<line x1="13.608761429008721" y1="22.793353340291233" x2="13.86602540378444" y2="22.499999999999996" class="delaunay-line"/>
<line x1="13.86602540378444" y1="22.499999999999996" x2="12.869473807779949" y2="22.991444861373807" class="delaunay-line"/>
<line x1="13.258819045102522" y1="22.96592582628907" x2="13.608761429008721" y2="22.793353340291233" class="delaunay-line"/>
<line x1="13.608761429008721" y1="22.793353340291233" x2="12.869473807779949" y2="22.991444861373807" class="delaunay-line"/>
<line x1="12.869473807779949" y1="22.991444861373807" x2="13.258819045102522" y2="22.96592582628907" class="delaunay-line"/>
<line x1="9.206646659708765" y1="15.39123857099128" x2="1.99144486137381" y2="13.130526192220051" class="delaunay-line"/>
<line x1="1.99144486137381" y1="13.130526192220051" x2="9.03407417371093" y2="15.741180954897478" class="delaunay-line"/>
<line x1="9.03407417371093" y1="15.741180954897478" x2="9.206646659708765" y2="15.39123857099128" class="delaunay-line"/>
<line x1="9.03407417371093" y1="15.741180954897478" x2="1.8660254037844388" y2="13.5" class="delaunay-line"/>
<line x1="1.8660254037844388" y1="13.5" x2="9.008555138626189" y2="16.130526192220053" class="delaunay-line"/>
<line x1="9.008555138626189" y1="16.130526192220053" x2="9.03407417371093" y2="15.741180954897478" class="delaunay-line"/>
<line x1="9.008555138626189" y1="16.130526192220053" x2="1.60876142900872" y2="13.793353340291235" class="delaunay-line"/>
<line x1="1.60876142900872" y1="13.793353340291235" x2="9.133974596215563" y2="16.5" class="delaunay-line"/>
<line x1="9.133974596215563" y1="16.5" x2="9.008555138626189" y2="16.130526192220053" class="delaunay-line"/>
<line x1="9.133974596215563" y1="16.5" x2="0" y2="24" class="delaunay-line"/>
<line x1="0" y1="24" x2="9.39123857099128" y2="16.793353340291237" class="delaunay-line"/>
<line x1="9.39123857099128" y1="16.793353340291237" x2="9.133974596215563" y2="16.5" class="delaunay-line"/>
<line x1="1.9659258262890686" y1="12.741180954897478" x2="1.99144486137381" y2="13.130526192220051" class="delaunay-line"/>
<line x1="1.99144486137381" y1="13.130526192220051" x2="9.206646659708765" y2="15.39123857099128" class="delaunay-line"/>
<line x1="9.206646659708765" y1="15.39123857099128" x2="1.9659258262890686" y2="12.741180954897478" class="delaunay-line"/>
<line x1="1.9659258262890686" y1="12.741180954897478" x2="9.206646659708765" y2="15.39123857099128" class="delaunay-line"/>
<line x1="9.206646659708765" y1="15.39123857099128" x2="9.5" y2="15.133974596215563" class="delaunay-line"/>
<line x1="9.5" y1="15.133974596215563" x2="1.9659258262890686" y2="12.741180954897478" class="delaunay-line"/>
<line x1="9.5" y1="15.133974596215563" x2="9.869473807779949" y2="15.008555138626189" class="delaunay-line"/>
<line x1="9.869473807779949" y1="15.008555138626189" x2="1.793353340291235" y2="12.391238570991279" class="delaunay-line"/>
<line x1="1.793353340291235" y1="12.391238570991279" x2="9.5" y2="15.133974596215563" class="delaunay-line"/>
<line x1="8.15853393344264" y1="0.10949582776598277" x2="1.4999999999999998" y2="12.13397459621556" class="delaunay-line"/>
<line x1="1.4999999999999998" y1="12.13397459621556" x2="1.793353340291235" y2="12.391238570991279" class="delaunay-line"/>
<line x1="1.793353340291235" y1="12.391238570991279" x2="8.15853393344264" y2="0.10949582776598277" class="delaunay-line"/>
<line x1="1.99144486137381" y1="13.130526192220051" x2="1.8660254037844388" y2="13.5" class="delaunay-line"/>
<line x1="1.8660254037844388" y1="13.5" x2="9.03407417371093" y2="15.741180954897478" class="delaunay-line"/>
<line x1="9.03407417371093" y1="15.741180954897478" x2="1.99144486137381" y2="13.130526192220051" class="delaunay-line"/>
<line x1="9.869473807779949" y1="15.008555138626189" x2="8.15853393344264" y2="0.10949582776598277" class="delaunay-line"/>
<line x1="8.15853393344264" y1="0.10949582776598277" x2="1.793353340291235" y2="12.391238570991279" class="delaunay-line"/>
<line x1="1.793353340291235" y1="12.391238570991279" x2="9.869473807779949" y2="15.008555138626189" class="delaunay-line"/>
<line x1="0.6585339334426399" y1="13.099876884532561" x2="1.60876142900872" y2="13.793353340291235" class="delaunay-line"/>
<line x1="1.60876142900872" y1="13.793353340291235" x2="1.8660254037844388" y2="13.5" class="delaunay-line"/>
<line x1="1.8660254037844388" y1="13.5" x2="0.6585339334426399" y2="13.099876884532561" class="delaunay-line"/>
<line x1="1.2588190451025214" y1="13.965925826289068" x2="1.60876142900872" y2="13.793353340291235" class="delaunay-line"/>
<line x1="1.60876142900872" y1="13.793353340291235" x2="0.6585339334426399" y2="13.099876884532561" class="delaunay-line"/>
<line x1="0.6585339334426399" y1="13.099876884532561" x2="1.2588190451025214" y2="13.965925826289068" class="delaunay-line"/>
<line x1="1.8660254037844388" y1="13.5" x2="1.60876142900872" y2="13.793353340291235" class="delaunay-line"/>
<line x1="1.60876142900872" y1="13.793353340291235" x2="9.008555138626189" y2="16.130526192220053" class="delaunay-line"/>
<line x1="9.008555138626189" y1="16.130526192220053" x2="1.8660254037844388" y2="13.5" class="delaunay-line"/>
<line x1="12.206646659708767" y1="22.608761429008723" x2="0" y2="24" class="delaunay-line"/>
<line x1="0" y1="24" x2="12.499999999999998" y2="22.866025403784437" class="delaunay-line"/>
<line x1="12.499999999999998" y1="22.866025403784437" x2="12.206646659708767" y2="22.608761429008723" class="delaunay-line"/>
<line x1="9.869473807779949" y1="15.008555138626189" x2="10.25881904510252" y2="15.03407417371093" class="delaunay-line"/>
<line x1="10.25881904510252" y1="15.03407417371093" x2="8.15853393344264" y2="0.10949582776598277" class="delaunay-line"/>
<line x1="8.15853393344264" y1="0.10949582776598277" x2="9.869473807779949" y2="15.008555138626189" class="delaunay-line"/>
<line x1="1.9659258262890686" y1="12.741180954897478" x2="0.6585339334426399" y2="13.099876884532561" class="delaunay-line"/>
<line x1="0.6585339334426399" y1="13.099876884532561" x2="1.99144486137381" y2="13.130526192220051" class="delaunay-line"/>
<line x1="1.99144486137381" y1="13.130526192220051" x2="1.9659258262890686" y2="12.741180954897478" class="delaunay-line"/>
<line x1="0.8694738077799486" y1="13.99144486137381" x2="1.2588190451025214" y2="13.965925826289068" class="delaunay-line"/>
<line x1="1.2588190451025214" y1="13.965925826289068" x2="0.6585339334426399" y2="13.099876884532561" class="delaunay-line"/>
<line x1="0.6585339334426399" y1="13.099876884532561" x2="0.8694738077799486" y2="13.99144486137381" class="delaunay-line"/>
<line x1="1.60876142900872" y1="13.793353340291235" x2="1.2588190451025214" y2="13.965925826289068" class="delaunay-line"/>
<line x1="1.2588190451025214" y1="13.965925826289068" x2="9.133974596215563" y2="16.5" class="delaunay-line"/>
<line x1="9.133974596215563" y1="16.5" x2="1.60876142900872" y2="13.793353340291235" class="delaunay-line"/>
<line x1="18.550838778855905" y1="6.109495827765984" x2="15.499999999999998" y2="15.13397459621556" class="delaunay-line"/>
<line x1="15.499999999999998" y1="15.13397459621556" x2="15.869473807779949" y2="15.00855513862619" class="delaunay-line"/>
<line x1="15.869473807779949" y1="15.00855513862619" x2="18.550838778855905" y2="6.109495827765984" class="delaunay-line"/>
<line x1="1.793353340291235" y1="12.391238570991279" x2="0.6585339334426399" y2="13.099876884532561" class="delaunay-line"/>
<line x1="0.6585339334426399" y1="13.099876884532561" x2="1.9659258262890686" y2="12.741180954897478" class="delaunay-line"/>
<line x1="1.9659258262890686" y1="12.741180954897478" x2="1.793353340291235" y2="12.391238570991279" class="delaunay-line"/>
<line x1="0.6585339334426399" y1="13.099876884532561" x2="1.8660254037844388" y2="13.5" class="delaunay-line"/>
<line x1="1.8660254037844388" y1="13.5" x2="1.99144486137381" y2="13.130526192220051" class="delaunay-line"/>
<line x1="1.99144486137381" y1="13.130526192220051" x2="0.6585339334426399" y2="13.099876884532561" class="delaunay-line"/>
<line x1="1.2588190451025214" y1="13.965925826289068" x2="0" y2="24" class="delaunay-line"/>
<line x1="0" y1="24" x2="9.133974596215563" y2="16.5" class="delaunay-line"/>
<line x1="9.133974596215563" y1="16.5" x2="1.2588190451025214" y2="13.965925826289068" class="delaunay-line"/>
<line x1="0" y1="0" x2="1.1305261922200514" y2="12.00855513862619" class="delaunay-line"/>
<line x1="1.1305261922200514" y1="12.00855513862619" x2="1.4999999999999998" y2="12.13397459621556" class="delaunay-line"/>
<line x1="1.4999999999999998" y1="12.13397459621556" x2="0" y2="0" class="delaunay-line"/>
<line x1="1.4999999999999998" y1="12.13397459621556" x2="0.6585339334426399" y2="13.099876884532561" class="delaunay-line"/>
<line x1="0.6585339334426399" y1="13.099876884532561" x2="1.793353340291235" y2="12.391238570991279" class="delaunay-line"/>
<line x1="1.793353340291235" y1="12.391238570991279" x2="1.4999999999999998" y2="12.13397459621556" class="delaunay-line"/>
<line x1="0.6585339334426399" y1="13.099876884532561" x2="0.5000000000000002" y2="13.86602540378444" class="delaunay-line"/>
<line x1="0.5000000000000002" y1="13.86602540378444" x2="0.8694738077799486" y2="13.99144486137381" class="delaunay-line"/>
<line x1="0.8694738077799486" y1="13.99144486137381" x2="0.6585339334426399" y2="13.099876884532561" class="delaunay-line"/>
<line x1="0.8694738077799486" y1="13.99144486137381" x2="0" y2="24" class="delaunay-line"/>
<line x1="0" y1="24" x2="1.2588190451025214" y2="13.965925826289068" class="delaunay-line"/>
<line x1="1.2588190451025214" y1="13.965925826289068" x2="0.8694738077799486" y2="13.99144486137381" class="delaunay-line"/>
<line x1="1.1305261922200514" y1="12.00855513862619" x2="0.6585339334426399" y2="13.099876884532561" class="delaunay-line"/>
<line x1="0.6585339334426399" y1="13.099876884532561" x2="1.4999999999999998" y2="12.13397459621556" class="delaunay-line"/>
<line x1="1.4999999999999998" y1="12.13397459621556" x2="1.1305261922200514" y2="12.00855513862619" class="delaunay-line"/>
<line x1="1.1305261922200514" y1="12.00855513862619" x2="0.7411809548974786" y2="12.034074173710932" class="delaunay-line"/>
<line x1="0.7411809548974786" y1="12.034074173710932" x2="0.6585339334426399" y2="13.099876884532561" class="delaunay-line"/>
<line x1="0.6585339334426399" y1="13.099876884532561" x2="1.1305261922200514" y2="12.00855513862619" class="delaunay-line"/>
<line x1="0.6585339334426399" y1="13.099876884532561" x2="0.20664665970876517" y2="13.608761429008721" class="delaunay-line"/>
<line x1="0.20664665970876517" y1="13.608761429008721" x2="0.5000000000000002" y2="13.86602540378444" class="delaunay-line"/>
<line x1="0.5000000000000002" y1="13.86602540378444" x2="0.6585339334426399" y2="13.099876884532561" class="delaunay-line"/>
<line x1="0.03407417371093158" y1="13.258819045102522" x2="0.20664665970876517" y2="13.608761429008721" class="delaunay-line"/>
<line x1="0.20664665970876517" y1="13.608761429008721" x2="0.6585339334426399" y2="13.099876884532561" class="delaunay-line"/>
<line x1="0.6585339334426399" y1="13.099876884532561" x2="0.03407417371093158" y2="13.258819045102522" class="delaunay-line"/>
<line x1="13.991444861373811" y1="22.130526192220053" x2="13.86602540378444" y2="22.499999999999996" class="delaunay-line"/>
<line x1="13.86602540378444" y1="22.499999999999996" x2="18.017037086855467" y2="22.62940952255126" class="delaunay-line"/>
<line x1="18.017037086855467" y1="22.62940952255126" x2="13.991444861373811" y2="22.130526192220053" class="delaunay-line"/>
<line x1="18.004277569313096" y1="22.434736903889974" x2="13.991444861373811" y2="22.130526192220053" class="delaunay-line"/>
<line x1="13.991444861373811" y1="22.130526192220053" x2="18.017037086855467" y2="22.62940952255126" class="delaunay-line"/>
<line x1="18.017037086855467" y1="22.62940952255126" x2="18.004277569313096" y2="22.434736903889974" class="delaunay-line"/>
<line x1="18.004277569313096" y1="22.434736903889974" x2="13.965925826289068" y2="21.74118095489748" class="delaunay-line"/>
<line x1="13.965925826289068" y1="21.74118095489748" x2="13.991444861373811" y2="22.130526192220053" class="delaunay-line"/>
<line x1="13.991444861373811" y1="22.130526192220053" x2="18.004277569313096" y2="22.434736903889974" class="delaunay-line"/>
<line x1="16.793353340291237" y1="16.608761429008723" x2="21.076120467488714" y2="18.61731656763491" class="delaunay-line"/>
<line x1="21.076120467488714" y1="18.61731656763491" x2="16.96592582628907" y2="16.25881904510252" class="delaunay-line"/>
<line x1="16.96592582628907" y1="16.25881904510252" x2="16.793353340291237" y2="16.608761429008723" class="delaunay-line"/>
<line x1="16.96592582628907" y1="16.25881904510252" x2="21.292893218813454" y2="18.292893218813454" class="delaunay-line"/>
<line x1="21.292893218813454" y1="18.292893218813454" x2="16.99144486137381" y2="15.869473807779949" class="delaunay-line"/>
<line x1="16.99144486137381" y1="15.869473807779949" x2="16.96592582628907" y2="16.25881904510252" class="delaunay-line"/>
<line x1="18.066987298107783" y1="22.25" x2="18.195619285495642" y2="22.103323329854383" class="delaunay-line"/>
<line x1="18.195619285495642" y1="22.103323329854383" x2="13.965925826289068" y2="21.74118095489748" class="delaunay-line"/>
<line x1="13.965925826289068" y1="21.74118095489748" x2="18.066987298107783" y2="22.25" class="delaunay-line"/>
<line x1="18.017037086855467" y1="22.62940952255126" x2="13.86602540378444" y2="22.499999999999996" class="delaunay-line"/>
<line x1="13.86602540378444" y1="22.499999999999996" x2="18.103323329854383" y2="22.804380714504358" class="delaunay-line"/>
<line x1="18.103323329854383" y1="22.804380714504358" x2="18.017037086855467" y2="22.62940952255126" class="delaunay-line"/>
<line x1="18.066987298107783" y1="22.25" x2="18.103323329854383" y2="22.804380714504358" class="delaunay-line"/>
<line x1="18.103323329854383" y1="22.804380714504358" x2="18.195619285495642" y2="22.103323329854383" class="delaunay-line"/>
<line x1="18.195619285495642" y1="22.103323329854383" x2="18.066987298107783" y2="22.25" class="delaunay-line"/>
<line x1="18.565263096110026" y1="22.004277569313096" x2="18.37059047744874" y2="22.017037086855467" class="delaunay-line"/>
<line x1="18.37059047744874" y1="22.017037086855467" x2="18.195619285495642" y2="22.103323329854383" class="delaunay-line"/>
<line x1="18.195619285495642" y1="22.103323329854383" x2="18.565263096110026" y2="22.004277569313096" class="delaunay-line"/>
<line x1="18.195619285495642" y1="22.103323329854383" x2="18.37059047744874" y2="22.017037086855467" class="delaunay-line"/>
<line x1="18.37059047744874" y1="22.017037086855467" x2="16.130526192220053" y2="16.99144486137381" class="delaunay-line"/>
<line x1="16.130526192220053" y1="16.99144486137381" x2="18.195619285495642" y2="22.103323329854383" class="delaunay-line"/>
<line x1="0.7411809548974786" y1="12.034074173710932" x2="0.3912385709912798" y2="12.206646659708765" class="delaunay-line"/>
<line x1="0.3912385709912798" y1="12.206646659708765" x2="0.6585339334426399" y2="13.099876884532561" class="delaunay-line"/>
<line x1="0.6585339334426399" y1="13.099876884532561" x2="0.7411809548974786" y2="12.034074173710932" class="delaunay-line"/>
<line x1="0.008555138626190173" y1="12.869473807779949" x2="0.03407417371093158" y2="13.258819045102522" class="delaunay-line"/>
<line x1="0.03407417371093158" y1="13.258819045102522" x2="0.6585339334426399" y2="13.099876884532561" class="delaunay-line"/>
<line x1="0.6585339334426399" y1="13.099876884532561" x2="0.008555138626190173" y2="12.869473807779949" class="delaunay-line"/>
<line x1="18.103323329854383" y1="22.804380714504358" x2="13.86602540378444" y2="22.499999999999996" class="delaunay-line"/>
<line x1="13.86602540378444" y1="22.499999999999996" x2="13.608761429008721" y2="22.793353340291233" class="delaunay-line"/>
<line x1="13.608761429008721" y1="22.793353340291233" x2="18.103323329854383" y2="22.804380714504358" class="delaunay-line"/>
<line x1="18.004277569313096" y1="22.434736903889974" x2="18.103323329854383" y2="22.804380714504358" class="delaunay-line"/>
<line x1="18.103323329854383" y1="22.804380714504358" x2="18.066987298107783" y2="22.25" class="delaunay-line"/>
<line x1="18.066987298107783" y1="22.25" x2="18.004277569313096" y2="22.434736903889974" class="delaunay-line"/>
<line x1="18.75" y1="22.066987298107783" x2="18.565263096110026" y2="22.004277569313096" class="delaunay-line"/>
<line x1="18.565263096110026" y1="22.004277569313096" x2="18.195619285495642" y2="22.103323329854383" class="delaunay-line"/>
<line x1="18.195619285495642" y1="22.103323329854383" x2="18.75" y2="22.066987298107783" class="delaunay-line"/>
<line x1="21" y1="19" x2="16.793353340291237" y2="16.608761429008723" class="delaunay-line"/>
<line x1="16.793353340291237" y1="16.608761429008723" x2="16.499999999999996" y2="16.866025403784437" class="delaunay-line"/>
<line x1="16.499999999999996" y1="16.866025403784437" x2="21" y2="19" class="delaunay-line"/>
<line x1="0.3912385709912798" y1="12.206646659708765" x2="0.1339745962155613" y2="12.5" class="delaunay-line"/>
<line x1="0.1339745962155613" y1="12.5" x2="0.6585339334426399" y2="13.099876884532561" class="delaunay-line"/>
<line x1="0.6585339334426399" y1="13.099876884532561" x2="0.3912385709912798" y2="12.206646659708765" class="delaunay-line"/>
<line x1="0.1339745962155613" y1="12.5" x2="0.008555138626190173" y2="12.869473807779949" class="delaunay-line"/>
<line x1="0.008555138626190173" y1="12.869473807779949" x2="0.6585339334426399" y2="13.099876884532561" class="delaunay-line"/>
<line x1="0.6585339334426399" y1="13.099876884532561" x2="0.1339745962155613" y2="12.5" class="delaunay-line"/>
<line x1="18.25" y1="22.933012701892217" x2="18.103323329854383" y2="22.804380714504358" class="delaunay-line"/>
<line x1="18.103323329854383" y1="22.804380714504358" x2="13.608761429008721" y2="22.793353340291233" class="delaunay-line"/>
<line x1="13.608761429008721" y1="22.793353340291233" x2="18.25" y2="22.933012701892217" class="delaunay-line"/>
<line x1="18.017037086855467" y1="22.62940952255126" x2="18.103323329854383" y2="22.804380714504358" class="delaunay-line"/>
<line x1="18.103323329854383" y1="22.804380714504358" x2="18.004277569313096" y2="22.434736903889974" class="delaunay-line"/>
<line x1="18.004277569313096" y1="22.434736903889974" x2="18.017037086855467" y2="22.62940952255126" class="delaunay-line"/>
<line x1="18.25" y1="22.933012701892217" x2="13.608761429008721" y2="22.793353340291233" class="delaunay-line"/>
<line x1="13.608761429008721" y1="22.793353340291233" x2="13.258819045102522" y2="22.96592582628907" class="delaunay-line"/>
<line x1="13.258819045102522" y1="22.96592582628907" x2="18.25" y2="22.933012701892217" class="delaunay-line"/>
<line x1="18.896676670145617" y1="22.195619285495642" x2="18.75" y2="22.066987298107783" class="delaunay-line"/>
<line x1="18.75" y1="22.066987298107783" x2="18.195619285495642" y2="22.103323329854383" class="delaunay-line"/>
<line x1="18.195619285495642" y1="22.103323329854383" x2="18.896676670145617" y2="22.195619285495642" class="delaunay-line"/>
<line x1="21" y1="19" x2="16.499999999999996" y2="16.866025403784437" class="delaunay-line"/>
<line x1="16.499999999999996" y1="16.866025403784437" x2="18.37059047744874" y2="22.017037086855467" class="delaunay-line"/>
<line x1="18.37059047744874" y1="22.017037086855467" x2="21" y2="19" class="delaunay-line"/>
<line x1="18.434736903889974" y1="22.995722430686904" x2="18.25" y2="22.933012701892217" class="delaunay-line"/>
<line x1="18.25" y1="22.933012701892217" x2="13.258819045102522" y2="22.96592582628907" class="delaunay-line"/>
<line x1="13.258819045102522" y1="22.96592582628907" x2="18.434736903889974" y2="22.995722430686904" class="delaunay-line"/>
<line x1="18.103323329854383" y1="22.804380714504358" x2="18.896676670145617" y2="22.195619285495642" class="delaunay-line"/>
<line x1="18.896676670145617" y1="22.195619285495642" x2="18.195619285495642" y2="22.103323329854383" class="delaunay-line"/>
<line x1="18.195619285495642" y1="22.103323329854383" x2="18.103323329854383" y2="22.804380714504358" class="delaunay-line"/>
<line x1="18.804380714504358" y1="22.896676670145617" x2="18.896676670145617" y2="22.195619285495642" class="delaunay-line"/>
<line x1="18.896676670145617" y1="22.195619285495642" x2="18.103323329854383" y2="22.804380714504358" class="delaunay-line"/>
<line x1="18.103323329854383" y1="22.804380714504358" x2="18.804380714504358" y2="22.896676670145617" class="delaunay-line"/>
<line x1="21" y1="19" x2="18.37059047744874" y2="22.017037086855467" class="delaunay-line"/>
<line x1="18.37059047744874" y1="22.017037086855467" x2="18.565263096110026" y2="22.004277569313096" class="delaunay-line"/>
<line x1="18.565263096110026" y1="22.004277569313096" x2="21" y2="19" class="delaunay-line"/>
<line x1="24" y1="24" x2="18.434736903889974" y2="22.995722430686904" class="delaunay-line"/>
<line x1="18.434736903889974" y1="22.995722430686904" x2="13.258819045102522" y2="22.96592582628907" class="delaunay-line"/>
<line x1="13.258819045102522" y1="22.96592582628907" x2="24" y2="24" class="delaunay-line"/>
<line x1="18.933012701892217" y1="22.75" x2="18.995722430686904" y2="22.565263096110026" class="delaunay-line"/>
<line x1="18.995722430686904" y1="22.565263096110026" x2="18.896676670145617" y2="22.195619285495642" class="delaunay-line"/>
<line x1="18.896676670145617" y1="22.195619285495642" x2="18.933012701892217" y2="22.75" class="delaunay-line"/>
<line x1="18.995722430686904" y1="22.565263096110026" x2="18.982962913144533" y2="22.37059047744874" class="delaunay-line"/>
<line x1="18.982962913144533" y1="22.37059047744874" x2="18.896676670145617" y2="22.195619285495642" class="delaunay-line"/>
<line x1="18.896676670145617" y1="22.195619285495642" x2="18.995722430686904" y2="22.565263096110026" class="delaunay-line"/>
<line x1="21" y1="19" x2="18.565263096110026" y2="22.004277569313096" class="delaunay-line"/>
<line x1="18.565263096110026" y1="22.004277569313096" x2="21.076120467488714" y2="19.38268343236509" class="delaunay-line"/>
<line x1="21.076120467488714" y1="19.38268343236509" x2="21" y2="19" class="delaunay-line"/>
<line x1="18.434736903889974" y1="22.995722430686904" x2="18.804380714504358" y2="22.896676670145617" class="delaunay-line"/>
<line x1="18.804380714504358" y1="22.896676670145617" x2="18.25" y2="22.933012701892217" class="delaunay-line"/>
<line x1="18.25" y1="22.933012701892217" x2="18.434736903889974" y2="22.995722430686904" class="delaunay-line"/>
<line x1="18.804380714504358" y1="22.896676670145617" x2="18.103323329854383" y2="22.804380714504358" class="delaunay-line"/>
<line x1="18.103323329854383" y1="22.804380714504358" x2="18.25" y2="22.933012701892217" class="delaunay-line"/>
<line x1="18.25" y1="22.933012701892217" x2="18.804380714504358" y2="22.896676670145617" class="delaunay-line"/>
<line x1="18.62940952255126" y1="22.982962913144533" x2="18.804380714504358" y2="22.896676670145617" class="delaunay-line"/>
<line x1="18.804380714504358" y1="22.896676670145617" x2="18.434736903889974" y2="22.995722430686904" class="delaunay-line"/>
<line x1="18.434736903889974" y1="22.995722430686904" x2="18.62940952255126" y2="22.982962913144533" class="delaunay-line"/>
<line x1="18.804380714504358" y1="22.896676670145617" x2="18.933012701892217" y2="22.75" class="delaunay-line"/>
<line x1="18.933012701892217" y1="22.75" x2="18.896676670145617" y2="22.195619285495642" class="delaunay-line"/>
<line x1="18.896676670145617" y1="22.195619285495642" x2="18.804380714504358" y2="22.896676670145617" class="delaunay-line"/>
<line x1="18.896676670145617" y1="22.195619285495642" x2="21.292893218813454" y2="19.707106781186546" class="delaunay-line"/>
<line x1="21.292893218813454" y1="19.707106781186546" x2="18.75" y2="22.066987298107783" class="delaunay-line"/>
<line x1="18.75" y1="22.066987298107783" x2="18.896676670145617" y2="22.195619285495642" class="delaunay-line"/>
<line x1="18.75" y1="22.066987298107783" x2="21.292893218813454" y2="19.707106781186546" class="delaunay-line"/>
<line x1="21.292893218813454" y1="19.707106781186546" x2="21.076120467488714" y2="19.38268343236509" class="delaunay-line"/>
<line x1="21.076120467488714" y1="19.38268343236509" x2="18.75" y2="22.066987298107783" class="delaunay-line"/>
<line x1="18.565263096110026" y1="22.004277569313096" x2="18.75" y2="22.066987298107783" class="delaunay-line"/>
<line x1="18.75" y1="22.066987298107783" x2="21.076120467488714" y2="19.38268343236509" class="delaunay-line"/>
<line x1="21.076120467488714" y1="19.38268343236509" x2="18.565263096110026" y2="22.004277569313096" class="delaunay-line"/>
<line x1="16.99144486137381" y1="15.869473807779949" x2="21.61731656763491" y2="18.076120467488714" class="delaunay-line"/>
<line x1="21.61731656763491" y1="18.076120467488714" x2="16.866025403784437" y2="15.5" class="delaunay-line"/>
<line x1="16.866025403784437" y1="15.5" x2="16.99144486137381" y2="15.869473807779949" class="delaunay-line"/>
<line x1="16.866025403784437" y1="15.5" x2="18.550838778855905" y2="6.109495827765984" class="delaunay-line"/>
<line x1="18.550838778855905" y1="6.109495827765984" x2="16.608761429008723" y2="15.206646659708765" class="delaunay-line"/>
<line x1="16.608761429008723" y1="15.206646659708765" x2="16.866025403784437" y2="15.5" class="delaunay-line"/>
<line x1="18.896676670145617" y1="22.195619285495642" x2="21.61731656763491" y2="19.923879532511286" class="delaunay-line"/>
<line x1="21.61731656763491" y1="19.923879532511286" x2="21.292893218813454" y2="19.707106781186546" class="delaunay-line"/>
<line x1="21.292893218813454" y1="19.707106781186546" x2="18.896676670145617" y2="22.195619285495642" class="delaunay-line"/>
<line x1="21" y1="19" x2="21.292893218813454" y2="18.292893218813454" class="delaunay-line"/>
<line x1="21.292893218813454" y1="18.292893218813454" x2="21.076120467488714" y2="18.61731656763491" class="delaunay-line"/>
<line x1="21.076120467488714" y1="18.61731656763491" x2="21" y2="19" class="delaunay-line"/>
<line x1="21.076120467488714" y1="18.61731656763491" x2="21.292893218813454" y2="18.292893218813454" class="delaunay-line"/>
<line x1="21.292893218813454" y1="18.292893218813454" x2="16.96592582628907" y2="16.25881904510252" class="delaunay-line"/>
<line x1="16.96592582628907" y1="16.25881904510252" x2="21.076120467488714" y2="18.61731656763491" class="delaunay-line"/>
<line x1="18.896676670145617" y1="22.195619285495642" x2="18.982962913144533" y2="22.37059047744874" class="delaunay-line"/>
<line x1="18.982962913144533" y1="22.37059047744874" x2="21.61731656763491" y2="19.923879532511286" class="delaunay-line"/>
<line x1="21.61731656763491" y1="19.923879532511286" x2="18.896676670145617" y2="22.195619285495642" class="delaunay-line"/>
<line x1="21" y1="19" x2="21.292893218813454" y2="19.707106781186546" class="delaunay-line"/>
<line x1="21.292893218813454" y1="19.707106781186546" x2="21.292893218813454" y2="18.292893218813454" class="delaunay-line"/>
<line x1="21.292893218813454" y1="18.292893218813454" x2="21" y2="19" class="delaunay-line"/>
<line x1="22" y1="18" x2="21.61731656763491" y2="18.076120467488714" class="delaunay-line"/>
<line x1="21.61731656763491" y1="18.076120467488714" x2="21.292893218813454" y2="18.292893218813454" class="delaunay-line"/>
<line x1="21.292893218813454" y1="18.292893218813454" x2="22" y2="18" class="delaunay-line"/>
<line x1="21.292893218813454" y1="18.292893218813454" x2="21.61731656763491" y2="18.076120467488714" class="delaunay-line"/>
<line x1="21.61731656763491" y1="18.076120467488714" x2="16.99144486137381" y2="15.869473807779949" class="delaunay-line"/>
<line x1="16.99144486137381" y1="15.869473807779949" x2="21.292893218813454" y2="18.292893218813454" class="delaunay-line"/>
<line x1="21.61731656763491" y1="19.923879532511286" x2="18.982962913144533" y2="22.37059047744874" class="delaunay-line"/>
<line x1="18.982962913144533" y1="22.37059047744874" x2="22" y2="20" class="delaunay-line"/>
<line x1="22" y1="20" x2="21.61731656763491" y2="19.923879532511286" class="delaunay-line"/>
<line x1="21.076120467488714" y1="19.38268343236509" x2="21.292893218813454" y2="19.707106781186546" class="delaunay-line"/>
<line x1="21.292893218813454" y1="19.707106781186546" x2="21" y2="19" class="delaunay-line"/>
<line x1="21" y1="19" x2="21.076120467488714" y2="19.38268343236509" class="delaunay-line"/>
<line x1="22.38268343236509" y1="18.076120467488714" x2="22" y2="18" class="delaunay-line"/>
<line x1="22" y1="18" x2="22.707106781186546" y2="18.292893218813454" class="delaunay-line"/>
<line x1="22.707106781186546" y1="18.292893218813454" x2="22.38268343236509" y2="18.076120467488714" class="delaunay-line"/>
<line x1="21.61731656763491" y1="18.076120467488714" x2="22" y2="18" class="delaunay-line"/>
<line x1="22" y1="18" x2="16.866025403784437" y2="15.5" class="delaunay-line"/>
<line x1="16.866025403784437" y1="15.5" x2="21.61731656763491" y2="18.076120467488714" class="delaunay-line"/>
<line x1="22" y1="20" x2="18.982962913144533" y2="22.37059047744874" class="delaunay-line"/>
<line x1="18.982962913144533" y1="22.37059047744874" x2="18.995722430686904" y2="22.565263096110026" class="delaunay-line"/>
<line x1="18.995722430686904" y1="22.565263096110026" x2="22" y2="20" class="delaunay-line"/>
<line x1="22.707106781186546" y1="18.292893218813454" x2="22" y2="18" class="delaunay-line"/>
<line x1="22" y1="18" x2="21.292893218813454" y2="18.292893218813454" class="delaunay-line"/>
<line x1="21.292893218813454" y1="18.292893218813454" x2="22.707106781186546" y2="18.292893218813454" class="delaunay-line"/>
<line x1="22" y1="20" x2="18.995722430686904" y2="22.565263096110026" class="delaunay-line"/>
<line x1="18.995722430686904" y1="22.565263096110026" x2="24" y2="24" class="delaunay-line"/>
<line x1="24" y1="24" x2="22" y2="20" class="delaunay-line"/>
<line x1="22.707106781186546" y1="18.292893218813454" x2="21.292893218813454" y2="18.292893218813454" class="delaunay-line"/>
<line x1="21.292893218813454" y1="18.292893218813454" x2="22.707106781186546" y2="19.707106781186546" class="delaunay-line"/>
<line x1="22.707106781186546" y1="19.707106781186546" x2="22.707106781186546" y2="18.292893218813454" class="delaunay-line"/>
<line x1="22" y1="18" x2="18.550838778855905" y2="6.109495827765984" class="delaunay-line"/>
<line x1="18.550838778855905" y1="6.109495827765984" x2="16.866025403784437" y2="15.5" class="delaunay-line"/>
<line x1="16.866025403784437" y1="15.5" x2="22" y2="18" class="delaunay-line"/>
<line x1="22.38268343236509" y1="19.923879532511286" x2="22" y2="20" class="delaunay-line"/>
<line x1="22" y1="20" x2="24" y2="24" class="delaunay-line"/>
<line x1="24" y1="24" x2="22.38268343236509" y2="19.923879532511286" class="delaunay-line"/>
<line x1="21.61731656763491" y1="19.923879532511286" x2="22" y2="20" class="delaunay-line"/>
<line x1="22" y1="20" x2="21.292893218813454" y2="19.707106781186546" class="delaunay-line"/>
<line x1="21.292893218813454" y1="19.707106781186546" x2="21.61731656763491" y2="19.923879532511286" class="delaunay-line"/>
<line x1="0.008555138626190173" y1="12.869473807779949" x2="0" y2="24" class="delaunay-line"/>
<line x1="0" y1="24" x2="0.03407417371093158" y2="13.258819045102522" class="delaunay-line"/>
<line x1="0.03407417371093158" y1="13.258819045102522" x2="0.008555138626190173" y2="12.869473807779949" class="delaunay-line"/>
<line x1="0.03407417371093158" y1="13.258819045102522" x2="0" y2="24" class="delaunay-line"/>
<line x1="0" y1="24" x2="0.20664665970876517" y2="13.608761429008721" class="delaunay-line"/>
<line x1="0.20664665970876517" y1="13.608761429008721" x2="0.03407417371093158" y2="13.258819045102522" class="delaunay-line"/>
<line x1="0.20664665970876517" y1="13.608761429008721" x2="0" y2="24" class="delaunay-line"/>
<line x1="0" y1="24" x2="0.5000000000000002" y2="13.86602540378444" class="delaunay-line"/>
<line x1="0.5000000000000002" y1="13.86602540378444" x2="0.20664665970876517" y2="13.608761429008721" class="delaunay-line"/>
<line x1="0.5000000000000002" y1="13.86602540378444" x2="0" y2="24" class="delaunay-line"/>
<line x1="0" y1="24" x2="0.8694738077799486" y2="13.99144486137381" class="delaunay-line"/>
<line x1="0.8694738077799486" y1="13.99144486137381" x2="0.5000000000000002" y2="13.86602540378444" class="delaunay-line"/>
<line x1="12.499999999999998" y1="22.866025403784437" x2="0" y2="24" class="delaunay-line"/>
<line x1="0" y1="24" x2="12.869473807779949" y2="22.991444861373807" class="delaunay-line"/>
<line x1="12.869473807779949" y1="22.991444861373807" x2="12.499999999999998" y2="22.866025403784437" class="delaunay-line"/>
<line x1="12.869473807779949" y1="22.991444861373807" x2="24" y2="24" class="delaunay-line"/>
<line x1="24" y1="24" x2="13.258819045102522" y2="22.96592582628907" class="delaunay-line"/>
<line x1="13.258819045102522" y1="22.96592582628907" x2="12.869473807779949" y2="22.991444861373807" class="delaunay-line"/>
<line x1="22.707106781186546" y1="19.707106781186546" x2="21.292893218813454" y2="18.292893218813454" class="delaunay-line"/>
<line x1="21.292893218813454" y1="18.292893218813454" x2="21.292893218813454" y2="19.707106781186546" class="delaunay-line"/>
<line x1="21.292893218813454" y1="19.707106781186546" x2="22.707106781186546" y2="19.707106781186546" class="delaunay-line"/>
<line x1="24" y1="24" x2="18.995722430686904" y2="22.565263096110026" class="delaunay-line"/>
<line x1="18.995722430686904" y1="22.565263096110026" x2="18.933012701892217" y2="22.75" class="delaunay-line"/>
<line x1="18.933012701892217" y1="22.75" x2="24" y2="24" class="delaunay-line"/>
<line x1="22" y1="20" x2="22.707106781186546" y2="19.707106781186546" class="delaunay-line"/>
<line x1="22.707106781186546" y1="19.707106781186546" x2="21.292893218813454" y2="19.707106781186546" class="delaunay-line"/>
<line x1="21.292893218813454" y1="19.707106781186546" x2="22" y2="20" class="delaunay-line"/>
<line x1="21.5" y1="1.866025403784437" x2="18.550838778855905" y2="6.109495827765984" class="delaunay-line"/>
<line x1="18.550838778855905" y1="6.109495827765984" x2="21.86947380777995" y2="1.9914448613738096" class="delaunay-line"/>
<line x1="21.86947380777995" y1="1.9914448613738096" x2="21.5" y2="1.866025403784437" class="delaunay-line"/>
<line x1="22.38268343236509" y1="18.076120467488714" x2="18.550838778855905" y2="6.109495827765984" class="delaunay-line"/>
<line x1="18.550838778855905" y1="6.109495827765984" x2="22" y2="18" class="delaunay-line"/>
<line x1="22" y1="18" x2="22.38268343236509" y2="18.076120467488714" class="delaunay-line"/>
<line x1="16.608761429008723" y1="15.206646659708765" x2="18.550838778855905" y2="6.109495827765984" class="delaunay-line"/>
<line x1="18.550838778855905" y1="6.109495827765984" x2="16.25881904510252" y2="15.034074173710932" class="delaunay-line"/>
<line x1="16.25881904510252" y1="15.034074173710932" x2="16.608761429008723" y2="15.206646659708765" class="delaunay-line"/>
<line x1="16.25881904510252" y1="15.034074173710932" x2="18.550838778855905" y2="6.109495827765984" class="delaunay-line"/>
<line x1="18.550838778855905" y1="6.109495827765984" x2="15.869473807779949" y2="15.00855513862619" class="delaunay-line"/>
<line x1="15.869473807779949" y1="15.00855513862619" x2="16.25881904510252" y2="15.034074173710932" class="delaunay-line"/>
<line x1="1.1305261922200514" y1="12.00855513862619" x2="0" y2="0" class="delaunay-line"/>
<line x1="0" y1="0" x2="0.7411809548974786" y2="12.034074173710932" class="delaunay-line"/>
<line x1="0.7411809548974786" y1="12.034074173710932" x2="1.1305261922200514" y2="12.00855513862619" class="delaunay-line"/>
<line x1="23" y1="19" x2="22.923879532511286" y2="18.61731656763491" class="delaunay-line"/>
<line x1="22.923879532511286" y1="18.61731656763491" x2="22.707106781186546" y2="18.292893218813454" class="delaunay-line"/>
<line x1="22.707106781186546" y1="18.292893218813454" x2="23" y2="19" class="delaunay-line"/>
<line x1="21.86947380777995" y1="1.9914448613738096" x2="18.550838778855905" y2="6.109495827765984" class="delaunay-line"/>
<line x1="18.550838778855905" y1="6.109495827765984" x2="22.25881904510252" y2="1.9659258262890682" class="delaunay-line"/>
<line x1="22.25881904510252" y1="1.9659258262890682" x2="21.86947380777995" y2="1.9914448613738096" class="delaunay-line"/>
<line x1="24" y1="24" x2="22.707106781186546" y2="19.707106781186546" class="delaunay-line"/>
<line x1="22.707106781186546" y1="19.707106781186546" x2="22.38268343236509" y2="19.923879532511286" class="delaunay-line"/>
<line x1="22.38268343236509" y1="19.923879532511286" x2="24" y2="24" class="delaunay-line"/>
<line x1="22.38268343236509" y1="19.923879532511286" x2="22.707106781186546" y2="19.707106781186546" class="delaunay-line"/>
<line x1="22.707106781186546" y1="19.707106781186546" x2="22" y2="20" class="delaunay-line"/>
<line x1="22" y1="20" x2="22.38268343236509" y2="19.923879532511286" class="delaunay-line"/>
<line x1="22.707106781186546" y1="19.707106781186546" x2="23" y2="19" class="delaunay-line"/>
<line x1="23" y1="19" x2="22.707106781186546" y2="18.292893218813454" class="delaunay-line"/>
<line x1="22.707106781186546" y1="18.292893218813454" x2="22.707106781186546" y2="19.707106781186546" class="delaunay-line"/>
<line x1="22.707106781186546" y1="19.707106781186546" x2="22.923879532511286" y2="19.38268343236509" class="delaunay-line"/>
<line x1="22.923879532511286" y1="19.38268343236509" x2="23" y2="19" class="delaunay-line"/>
<line x1="23" y1="19" x2="22.707106781186546" y2="19.707106781186546" class="delaunay-line"/>
<line x1="18.550838778855905" y1="6.109495827765984" x2="8.15853393344264" y2="0.10949582776598277" class="delaunay-line"/>
<line x1="8.15853393344264" y1="0.10949582776598277" x2="10.25881904510252" y2="15.03407417371093" class="delaunay-line"/>
<line x1="10.25881904510252" y1="15.03407417371093" x2="18.550838778855905" y2="6.109495827765984" class="delaunay-line"/>
<line x1="0.7411809548974786" y1="12.034074173710932" x2="0" y2="0" class="delaunay-line"/>
<line x1="0" y1="0" x2="0.3912385709912798" y2="12.206646659708765" class="delaunay-line"/>
<line x1="0.3912385709912798" y1="12.206646659708765" x2="0.7411809548974786" y2="12.034074173710932" class="delaunay-line"/>
<line x1="0.3912385709912798" y1="12.206646659708765" x2="0" y2="0" class="delaunay-line"/>
<line x1="0" y1="0" x2="0.1339745962155613" y2="12.5" class="delaunay-line"/>
<line x1="0.1339745962155613" y1="12.5" x2="0.3912385709912798" y2="12.206646659708765" class="delaunay-line"/>
<line x1="18.804380714504358" y1="22.896676670145617" x2="24" y2="24" class="delaunay-line"/>
<line x1="24" y1="24" x2="18.933012701892217" y2="22.75" class="delaunay-line"/>
<line x1="18.933012701892217" y1="22.75" x2="18.804380714504358" y2="22.896676670145617" class="delaunay-line"/>
<line x1="22.707106781186546" y1="19.707106781186546" x2="24" y2="24" class="delaunay-line"/>
<line x1="24" y1="24" x2="22.923879532511286" y2="19.38268343236509" class="delaunay-line"/>
<line x1="22.923879532511286" y1="19.38268343236509" x2="22.707106781186546" y2="19.707106781186546" class="delaunay-line"/>
<line x1="22.923879532511286" y1="19.38268343236509" x2="24" y2="24" class="delaunay-line"/>
<line x1="24" y1="24" x2="23" y2="19" class="delaunay-line"/>
<line x1="23" y1="19" x2="22.923879532511286" y2="19.38268343236509" class="delaunay-line"/>
<line x1="22.38268343236509" y1="18.076120467488714" x2="22.60876142900872" y2="1.7933533402912345" class="delaunay-line"/>
<line x1="22.60876142900872" y1="1.7933533402912345" x2="18.550838778855905" y2="6.109495827765984" class="delaunay-line"/>
<line x1="18.550838778855905" y1="6.109495827765984" x2="22.38268343236509" y2="18.076120467488714" class="delaunay-line"/>
<line x1="18.62940952255126" y1="22.982962913144533" x2="24" y2="24" class="delaunay-line"/>
<line x1="24" y1="24" x2="18.804380714504358" y2="22.896676670145617" class="delaunay-line"/>
<line x1="18.804380714504358" y1="22.896676670145617" x2="18.62940952255126" y2="22.982962913144533" class="delaunay-line"/>
<line x1="18.434736903889974" y1="22.995722430686904" x2="24" y2="24" class="delaunay-line"/>
<line x1="24" y1="24" x2="18.62940952255126" y2="22.982962913144533" class="delaunay-line"/>
<line x1="18.62940952255126" y1="22.982962913144533" x2="18.434736903889974" y2="22.995722430686904" class="delaunay-line"/>
<line x1="0" y1="24" x2="24" y2="24" class="delaunay-line"/>
<line x1="24" y1="24" x2="12.869473807779949" y2="22.991444861373807" class="delaunay-line"/>
<line x1="12.869473807779949" y1="22.991444861373807" x2="0" y2="24" class="delaunay-line"/>
<line x1="18.550838778855905" y1="6.109495827765984" x2="22.60876142900872" y2="1.7933533402912345" class="delaunay-line"/>
<line x1="22.60876142900872" y1="1.7933533402912345" x2="22.25881904510252" y2="1.9659258262890682" class="delaunay-line"/>
<line x1="22.25881904510252" y1="1.9659258262890682" x2="18.550838778855905" y2="6.109495827765984" class="delaunay-line"/>
<line x1="18.550838778855905" y1="6.109495827765984" x2="21.00855513862619" y2="0.8694738077799467" class="delaunay-line"/>
<line x1="21.00855513862619" y1="0.8694738077799467" x2="8.15853393344264" y2="0.10949582776598277" class="delaunay-line"/>
<line x1="8.15853393344264" y1="0.10949582776598277" x2="18.550838778855905" y2="6.109495827765984" class="delaunay-line"/>
<line x1="22.707106781186546" y1="18.292893218813454" x2="22.60876142900872" y2="1.7933533402912345" class="delaunay-line"/>
<line x1="22.60876142900872" y1="1.7933533402912345" x2="22.38268343236509" y2="18.076120467488714" class="delaunay-line"/>
<line x1="22.38268343236509" y1="18.076120467488714" x2="22.707106781186546" y2="18.292893218813454" class="delaunay-line"/>
<line x1="21.5" y1="1.866025403784437" x2="21.206646659708763" y2="1.608761429008722" class="delaunay-line"/>
<line x1="21.206646659708763" y1="1.608761429008722" x2="18.550838778855905" y2="6.109495827765984" class="delaunay-line"/>
<line x1="18.550838778855905" y1="6.109495827765984" x2="21.5" y2="1.866025403784437" class="delaunay-line"/>
<line x1="22.707106781186546" y1="18.292893218813454" x2="22.86602540378444" y2="1.4999999999999987" class="delaunay-line"/>
<line x1="22.86602540378444" y1="1.4999999999999987" x2="22.60876142900872" y2="1.7933533402912345" class="delaunay-line"/>
<line x1="22.60876142900872" y1="1.7933533402912345" x2="22.707106781186546" y2="18.292893218813454" class="delaunay-line"/>
<line x1="21.5" y1="1.866025403784437" x2="21.03407417371093" y2="1.2588190451025207" class="delaunay-line"/>
<line x1="21.03407417371093" y1="1.2588190451025207" x2="21.206646659708763" y2="1.608761429008722" class="delaunay-line"/>
<line x1="21.206646659708763" y1="1.608761429008722" x2="21.5" y2="1.866025403784437" class="delaunay-line"/>
<line x1="21.00855513862619" y1="0.8694738077799467" x2="21.03407417371093" y2="1.2588190451025207" class="delaunay-line"/>
<line x1="21.03407417371093" y1="1.2588190451025207" x2="21.5" y2="1.866025403784437" class="delaunay-line"/>
<line x1="21.5" y1="1.866025403784437" x2="21.00855513862619" y2="0.8694738077799467" class="delaunay-line"/>
<line x1="21.206646659708763" y1="1.608761429008722" x2="21.03407417371093" y2="1.2588190451025207" class="delaunay-line"/>
<line x1="21.03407417371093" y1="1.2588190451025207" x2="18.550838778855905" y2="6.109495827765984" class="delaunay-line"/>
<line x1="18.550838778855905" y1="6.109495827765984" x2="21.206646659708763" y2="1.608761429008722" class="delaunay-line"/>
<line x1="22.707106781186546" y1="18.292893218813454" x2="22.923879532511286" y2="18.61731656763491" class="delaunay-line"/>
<line x1="22.923879532511286" y1="18.61731656763491" x2="22.86602540378444" y2="1.4999999999999987" class="delaunay-line"/>
<line x1="22.86602540378444" y1="1.4999999999999987" x2="22.707106781186546" y2="18.292893218813454" class="delaunay-line"/>
<line x1="21.86947380777995" y1="1.9914448613738096" x2="22.60876142900872" y2="1.7933533402912345" class="delaunay-line"/>
<line x1="22.60876142900872" y1="1.7933533402912345" x2="21.5" y2="1.866025403784437" class="delaunay-line"/>
<line x1="21.5" y1="1.866025403784437" x2="21.86947380777995" y2="1.9914448613738096" class="delaunay-line"/>
<line x1="21.391238570991277" y1="0.20664665970876556" x2="21.00855513862619" y2="0.8694738077799467" class="delaunay-line"/>
<line x1="21.00855513862619" y1="0.8694738077799467" x2="21.74118095489748" y2="0.03407417371093169" class="delaunay-line"/>
<line x1="21.74118095489748" y1="0.03407417371093169" x2="21.391238570991277" y2="0.20664665970876556" class="delaunay-line"/>
<line x1="21.03407417371093" y1="1.2588190451025207" x2="21.00855513862619" y2="0.8694738077799467" class="delaunay-line"/>
<line x1="21.00855513862619" y1="0.8694738077799467" x2="18.550838778855905" y2="6.109495827765984" class="delaunay-line"/>
<line x1="18.550838778855905" y1="6.109495827765984" x2="21.03407417371093" y2="1.2588190451025207" class="delaunay-line"/>
<line x1="8.15853393344264" y1="0.10949582776598277" x2="0" y2="0" class="delaunay-line"/>
<line x1="0" y1="0" x2="1.4999999999999998" y2="12.13397459621556" class="delaunay-line"/>
<line x1="1.4999999999999998" y1="12.13397459621556" x2="8.15853393344264" y2="0.10949582776598277" class="delaunay-line"/>
<line x1="0.1339745962155613" y1="12.5" x2="0" y2="0" class="delaunay-line"/>
<line x1="0" y1="0" x2="0.008555138626190173" y2="12.869473807779949" class="delaunay-line"/>
<line x1="0.008555138626190173" y1="12.869473807779949" x2="0.1339745962155613" y2="12.5" class="delaunay-line"/>
<line x1="0.008555138626190173" y1="12.869473807779949" x2="0" y2="0" class="delaunay-line"/>
<line x1="0" y1="0" x2="0" y2="24" class="delaunay-line"/>
<line x1="0" y1="24" x2="0.008555138626190173" y2="12.869473807779949" class="delaunay-line"/>
<line x1="22.86602540378444" y1="1.4999999999999987" x2="24" y2="0" class="delaunay-line"/>
<line x1="24" y1="0" x2="22.99144486137381" y2="1.1305261922200531" class="delaunay-line"/>
<line x1="22.99144486137381" y1="1.1305261922200531" x2="22.86602540378444" y2="1.4999999999999987" class="delaunay-line"/>
<line x1="22.25881904510252" y1="1.9659258262890682" x2="22.60876142900872" y2="1.7933533402912345" class="delaunay-line"/>
<line x1="22.60876142900872" y1="1.7933533402912345" x2="21.86947380777995" y2="1.9914448613738096" class="delaunay-line"/>
<line x1="21.86947380777995" y1="1.9914448613738096" x2="22.25881904510252" y2="1.9659258262890682" class="delaunay-line"/>
<line x1="21.391238570991277" y1="0.20664665970876556" x2="21.13397459621556" y2="0.5000000000000013" class="delaunay-line"/>
<line x1="21.13397459621556" y1="0.5000000000000013" x2="21.00855513862619" y2="0.8694738077799467" class="delaunay-line"/>
<line x1="21.00855513862619" y1="0.8694738077799467" x2="21.391238570991277" y2="0.20664665970876556" class="delaunay-line"/>
<line x1="21.00855513862619" y1="0.8694738077799467" x2="21.13397459621556" y2="0.5000000000000013" class="delaunay-line"/>
<line x1="21.13397459621556" y1="0.5000000000000013" x2="8.15853393344264" y2="0.10949582776598277" class="delaunay-line"/>
<line x1="8.15853393344264" y1="0.10949582776598277" x2="21.00855513862619" y2="0.8694738077799467" class="delaunay-line"/>
<line x1="22.86602540378444" y1="1.4999999999999987" x2="22.923879532511286" y2="18.61731656763491" class="delaunay-line"/>
<line x1="22.923879532511286" y1="18.61731656763491" x2="24" y2="0" class="delaunay-line"/>
<line x1="24" y1="0" x2="22.86602540378444" y2="1.4999999999999987" class="delaunay-line"/>
<line x1="21.74118095489748" y1="0.03407417371093169" x2="21.00855513862619" y2="0.8694738077799467" class="delaunay-line"/>
<line x1="21.00855513862619" y1="0.8694738077799467" x2="21.5" y2="1.866025403784437" class="delaunay-line"/>
<line x1="21.5" y1="1.866025403784437" x2="21.74118095489748" y2="0.03407417371093169" class="delaunay-line"/>
<line x1="21.74118095489748" y1="0.03407417371093169" x2="21.5" y2="1.866025403784437" class="delaunay-line"/>
<line x1="21.5" y1="1.866025403784437" x2="22.13052619222005" y2="0.008555138626190242" class="delaunay-line"/>
<line x1="22.13052619222005" y1="0.008555138626190242" x2="21.74118095489748" y2="0.03407417371093169" class="delaunay-line"/>
<line x1="21.13397459621556" y1="0.5000000000000013" x2="21.391238570991277" y2="0.20664665970876556" class="delaunay-line"/>
<line x1="21.391238570991277" y1="0.20664665970876556" x2="8.15853393344264" y2="0.10949582776598277" class="delaunay-line"/>
<line x1="8.15853393344264" y1="0.10949582776598277" x2="21.13397459621556" y2="0.5000000000000013" class="delaunay-line"/>
<line x1="8.15853393344264" y1="0.10949582776598277" x2="22.13052619222005" y2="0.008555138626190242" class="delaunay-line"/>
<line x1="22.13052619222005" y1="0.008555138626190242" x2="0" y2="0" class="delaunay-line"/>
<line x1="0" y1="0" x2="8.15853393344264" y2="0.10949582776598277" class="delaunay-line"/>
<line x1="24" y1="0" x2="22.923879532511286" y2="18.61731656763491" class="delaunay-line"/>
<line x1="22.923879532511286" y1="18.61731656763491" x2="23" y2="19" class="delaunay-line"/>
<line x1="23" y1="19" x2="24" y2="0" class="delaunay-line"/>
<line x1="22.86602540378444" y1="1.4999999999999987" x2="22.99144486137381" y2="1.1305261922200531" class="delaunay-line"/>
<line x1="22.99144486137381" y1="1.1305261922200531" x2="22.60876142900872" y2="1.7933533402912345" class="delaunay-line"/>
<line x1="22.60876142900872" y1="1.7933533402912345" x2="22.86602540378444" y2="1.4999999999999987" class="delaunay-line"/>
<line x1="22.13052619222005" y1="0.008555138626190242" x2="21.5" y2="1.866025403784437" class="delaunay-line"/>
<line x1="21.5" y1="1.866025403784437" x2="22.5" y2="0.13397459621556282" class="delaunay-line"/>
<line x1="22.5" y1="0.13397459621556282" x2="22.13052619222005" y2="0.008555138626190242" class="delaunay-line"/>
<line x1="21.391238570991277" y1="0.20664665970876556" x2="21.74118095489748" y2="0.03407417371093169" class="delaunay-line"/>
<line x1="21.74118095489748" y1="0.03407417371093169" x2="8.15853393344264" y2="0.10949582776598277" class="delaunay-line"/>
<line x1="8.15853393344264" y1="0.10949582776598277" x2="21.391238570991277" y2="0.20664665970876556" class="delaunay-line"/>
<line x1="22.5" y1="0.13397459621556282" x2="21.5" y2="1.866025403784437" class="delaunay-line"/>
<line x1="21.5" y1="1.866025403784437" x2="22.60876142900872" y2="1.7933533402912345" class="delaunay-line"/>
<line x1="22.60876142900872" y1="1.7933533402912345" x2="22.5" y2="0.13397459621556282" class="delaunay-line"/>
<line x1="22.5" y1="0.13397459621556282" x2="22.60876142900872" y2="1.7933533402912345" class="delaunay-line"/>
<line x1="22.60876142900872" y1="1.7933533402912345" x2="22.99144486137381" y2="1.1305261922200531" class="delaunay-line"/>
<line x1="22.99144486137381" y1="1.1305261922200531" x2="22.5" y2="0.13397459621556282" class="delaunay-line"/>
<line x1="21.74118095489748" y1="0.03407417371093169" x2="22.13052619222005" y2="0.008555138626190242" class="delaunay-line"/>
<line x1="22.13052619222005" y1="0.008555138626190242" x2="8.15853393344264" y2="0.10949582776598277" class="delaunay-line"/>
<line x1="8.15853393344264" y1="0.10949582776598277" x2="21.74118095489748" y2="0.03407417371093169" class="delaunay-line"/>
<line x1="22.96592582628907" y1="0.7411809548974794" x2="22.5" y2="0.13397459621556282" class="delaunay-line"/>
<line x1="22.5" y1="0.13397459621556282" x2="22.99144486137381" y2="1.1305261922200531" class="delaunay-line"/>
<line x1="22.99144486137381" y1="1.1305261922200531" x2="22.96592582628907" y2="0.7411809548974794" class="delaunay-line"/>
<line x1="22.793353340291237" y1="0.3912385709912779" x2="22.5" y2="0.13397459621556282" class="delaunay-line"/>
<line x1="22.5" y1="0.13397459621556282" x2="22.96592582628907" y2="0.7411809548974794" class="delaunay-line"/>
<line x1="22.96592582628907" y1="0.7411809548974794" x2="22.793353340291237" y2="0.3912385709912779" class="delaunay-line"/>
<line x1="22.99144486137381" y1="1.1305261922200531" x2="24" y2="0" class="delaunay-line"/>
<line x1="24" y1="0" x2="22.96592582628907" y2="0.7411809548974794" class="delaunay-line"/>
<line x1="22.96592582628907" y1="0.7411809548974794" x2="22.99144486137381" y2="1.1305261922200531" class="delaunay-line"/>
<line x1="22.96592582628907" y1="0.7411809548974794" x2="24" y2="0" class="delaunay-line"/>
<line x1="24" y1="0" x2="22.793353340291237" y2="0.3912385709912779" class="delaunay-line"/>
<line x1="22.793353340291237" y1="0.3912385709912779" x2="22.96592582628907" y2="0.7411809548974794" class="delaunay-line"/>
<line x1="22.793353340291237" y1="0.3912385709912779" x2="24" y2="0" class="delaunay-line"/>
<line x1="24" y1="0" x2="22.5" y2="0.13397459621556282" class="delaunay-line"/>
<line x1="22.5" y1="0.13397459621556282" x2="22.793353340291237" y2="0.3912385709912779" class="delaunay-line"/>
<line x1="22.5" y1="0.13397459621556282" x2="24" y2="0" class="delaunay-line"/>
<line x1="24" y1="0" x2="22.13052619222005" y2="0.008555138626190242" class="delaunay-line"/>
<line x1="22.13052619222005" y1="0.008555138626190242" x2="22.5" y2="0.13397459621556282" class="delaunay-line"/>
<line x1="22.13052619222005" y1="0.008555138626190242" x2="24" y2="0" class="delaunay-line"/>
<line x1="24" y1="0" x2="0" y2="0" class="delaunay-line"/>
<line x1="0" y1="0" x2="22.13052619222005" y2="0.008555138626190242" class="delaunay-line"/>
<line x1="24" y1="24" x2="24" y2="0" class="delaunay-line"/>
<line x1="24" y1="0" x2="23" y2="19" class="delaunay-line"/>
<line x1="23" y1="19" x2="24" y2="24" class="delaunay-line"/>
</g>
<g id="layer-area" class="layer ">
<polygon points="11.050838778855905,19.099876884532563 0.6585339334426399,13.099876884532561 8.15853393344264,0.10949582776598277 18.550838778855905,6.109495827765984" class="terrain-area"/>
<text x="9.604686356149273" y="9.604686356149273" class="label">#C49A6C</text>
</g>
<g id="layer-building" class="layer ">
<polygon points="11.403124237432849,2.403124237432848 11.403124237432849,10.403124237432849 1.4031242374328485,10.403124237432849 1.4031242374328485,2.403124237432849" class="terrain-solid"/>
<text x="6.4031242374328485" y="6.4031242374328485" class="label">#000000</text>
<polygon points="23.625832588673262,11.584603018823092 21.625832588673262,15.048704633960845 16.42968016596663,12.048704633960845 18.42968016596663,8.584603018823092" class="terrain-solid"/>
<text x="20.027756377319946" y="11.816653826391967" class="label">#000000</text>
<polygon points="2.007475064110674,23.259807184888825 0.007475064110672225,19.795705569751068 5.203627486817304,16.795705569751068 7.203627486817306,20.259807184888825" class="terrain-solid"/>
<text x="3.6055512754639887" y="20.027756377319946" class="label">#000000</text>
</g>
<g id="layer-wall" class="layer ">
<polygon points="19.885065941081944,1.9924600528182448 20.014475463633207,2.4754229659627787 14.218920505898797,4.028337236577903 14.089510983347534,3.5453743234333692" class="terrain-solid"/>
<text x="17.05199322349037" y="3.010398644698074" class="label">#555555</text>
</g>
<g id="layer-tree" class="layer ">
<polygon points="12.034074173710932,22.25881904510252 12.008555138626189,21.869473807779947 12.13397459621556,21.500000000000004 12.391238570991279,21.206646659708767 12.741180954897478,21.03407417371093 13.130526192220051,21.008555138626193 13.500000000000002,21.133974596215563 13.793353340291233,21.391238570991277 13.965925826289068,21.74118095489748 13.991444861373811,22.130526192220053 13.86602540378444,22.499999999999996 13.608761429008721,22.793353340291233 13.258819045102522,22.96592582628907 12.869473807779949,22.991444861373807 12.499999999999998,22.866025403784437 12.206646659708767,22.608761429008723" class="terrain-solid"/>
<text x="13" y="22" class="label">#90EE90</text>
<polygon points="21,19 21.076120467488714,18.61731656763491 21.292893218813454,18.292893218813454 21.61731656763491,18.076120467488714 22,18 22.38268343236509,18.076120467488714 22.707106781186546,18.292893218813454 22.923879532511286,18.61731656763491 23,19 22.923879532511286,19.38268343236509 22.707106781186546,19.707106781186546 22.38268343236509,19.923879532511286 22,20 21.61731656763491,19.923879532511286 21.292893218813454,19.707106781186546 21.076120467488714,19.38268343236509" class="terrain-solid"/>
<text x="22" y="19" class="label">#90EE90</text>
<polygon points="21.74118095489748,0.03407417371093169 22.13052619222005,0.008555138626190242 22.5,0.13397459621556282 22.793353340291237,0.3912385709912779 22.96592582628907,0.7411809548974794 22.99144486137381,1.1305261922200531 22.86602540378444,1.4999999999999987 22.60876142900872,1.7933533402912345 22.25881904510252,1.9659258262890682 21.86947380777995,1.9914448613738096 21.5,1.866025403784437 21.206646659708763,1.608761429008722 21.03407417371093,1.2588190451025207 21.00855513862619,0.8694738077799467 21.13397459621556,0.5000000000000013 21.391238570991277,0.20664665970876556" class="terrain-solid"/>
<text x="22" y="1" class="label">#90EE90</text>
<polygon points="16.96592582628907,16.25881904510252 16.793353340291237,16.608761429008723 16.499999999999996,16.866025403784437 16.130526192220053,16.99144486137381 15.74118095489748,16.96592582628907 15.391238570991279,16.793353340291237 15.13397459621556,16.5 15.008555138626189,16.130526192220053 15.034074173710932,15.74118095489748 15.206646659708765,15.391238570991279 15.499999999999998,15.13397459621556 15.869473807779949,15.00855513862619 16.25881904510252,15.034074173710932 16.608761429008723,15.206646659708765 16.866025403784437,15.5 16.99144486137381,15.869473807779949" class="terrain-solid"/>
<text x="16" y="15.999999999999998" class="label">#90EE90</text>
<polygon points="10.866025403784437,15.5 10.991444861373811,15.86947380777995 10.965925826289068,16.25881904510252 10.793353340291235,16.60876142900872 10.5,16.866025403784437 10.130526192220051,16.99144486137381 9.741180954897478,16.965925826289066 9.39123857099128,16.793353340291237 9.133974596215563,16.5 9.008555138626189,16.130526192220053 9.03407417371093,15.741180954897478 9.206646659708765,15.39123857099128 9.5,15.133974596215563 9.869473807779949,15.008555138626189 10.25881904510252,15.03407417371093 10.60876142900872,15.206646659708765" class="terrain-solid"/>
<text x="10" y="15.999999999999998" class="label">#90EE90</text>
<polygon points="0.5000000000000002,13.86602540378444 0.20664665970876517,13.608761429008721 0.03407417371093158,13.258819045102522 0.008555138626190173,12.869473807779949 0.1339745962155613,12.5 0.3912385709912798,12.206646659708765 0.7411809548974786,12.034074173710932 1.1305261922200514,12.00855513862619 1.4999999999999998,12.13397459621556 1.793353340291235,12.391238570991279 1.9659258262890686,12.741180954897478 1.99144486137381,13.130526192220051 1.8660254037844388,13.5 1.60876142900872,13.793353340291235 1.2588190451025214,13.965925826289068 0.8694738077799486,13.99144486137381" class="terrain-solid"/>
<text x="1" y="13.000000000000002" class="label">#90EE90</text>
</g>
<g id="layer-rocks" class="layer ">
</g>
<g id="layer-shrub" class="layer ">
<polygon points="18.982962913144533,22.37059047744874 18.995722430686904,22.565263096110026 18.933012701892217,22.75 18.804380714504358,22.896676670145617 18.62940952255126,22.982962913144533 18.434736903889974,22.995722430686904 18.25,22.933012701892217 18.103323329854383,22.804380714504358 18.017037086855467,22.62940952255126 18.004277569313096,22.434736903889974 18.066987298107783,22.25 18.195619285495642,22.103323329854383 18.37059047744874,22.017037086855467 18.565263096110026,22.004277569313096 18.75,22.066987298107783 18.896676670145617,22.195619285495642" class="terrain-solid"/>
<text x="18.5" y="22.5" class="label">#006400</text>
</g>
<g id="layer-terrain" class="layer ">
</g>
<g id="layer-models" class="layer ">
</g>
<g id="layer-paths" class="layer ">
</g>
<g id="layer-vectors" class="layer ">
</g>
<g id="layer-los" class="layer ">
</g>
<g id="layer-lof" class="layer ">
</g>

<g id="legend">
<g class="toggle" onclick="toggleLayer('grid')"><rect x="0.4" y="0.14999999999999997" width="0.4" height="0.4" fill="#222" stroke="#222" stroke-width="0.05"/><text x="1.0" y="0.5499999999999999" class="label">0.5 MU Grid</text></g>
<g class="toggle" onclick="toggleLayer('delaunay')"><rect x="0.4" y="0.95" width="0.4" height="0.4" fill="#222" stroke="#222" stroke-width="0.05"/><text x="1.0" y="1.3499999999999999" class="label">Delaunay Mesh</text></g>
<g class="toggle" onclick="toggleLayer('area')"><rect x="0.4" y="1.7500000000000002" width="0.4" height="0.4" fill="#222" stroke="#222" stroke-width="0.05"/><text x="1.0" y="2.1500000000000004" class="label">Area Terrain</text></g>
<g class="toggle" onclick="toggleLayer('building')"><rect x="0.4" y="2.55" width="0.4" height="0.4" fill="#222" stroke="#222" stroke-width="0.05"/><text x="1.0" y="2.95" class="label">Buildings</text></g>
<g class="toggle" onclick="toggleLayer('wall')"><rect x="0.4" y="3.3499999999999996" width="0.4" height="0.4" fill="#222" stroke="#222" stroke-width="0.05"/><text x="1.0" y="3.75" class="label">Walls</text></g>
<g class="toggle" onclick="toggleLayer('tree')"><rect x="0.4" y="4.1499999999999995" width="0.4" height="0.4" fill="#222" stroke="#222" stroke-width="0.05"/><text x="1.0" y="4.55" class="label">Trees</text></g>
<g class="toggle disabled"><rect x="0.4" y="4.949999999999999" width="0.4" height="0.4" fill="#222" stroke="#222" stroke-width="0.05"/><text x="1.0" y="5.35" class="label">Rocks</text></g>
<g class="toggle" onclick="toggleLayer('shrub')"><rect x="0.4" y="5.749999999999999" width="0.4" height="0.4" fill="#222" stroke="#222" stroke-width="0.05"/><text x="1.0" y="6.1499999999999995" class="label">Shrubs</text></g>
<g class="toggle" onclick="toggleLayer('terrain')"><rect x="0.4" y="6.549999999999999" width="0.4" height="0.4" fill="#222" stroke="#222" stroke-width="0.05"/><text x="1.0" y="6.949999999999999" class="label">Other Terrain</text></g>
<g class="toggle" onclick="toggleLayer('models')"><rect x="0.4" y="7.349999999999999" width="0.4" height="0.4" fill="#222" stroke="#222" stroke-width="0.05"/><text x="1.0" y="7.749999999999999" class="label">Models</text></g>
<g class="toggle" onclick="toggleLayer('paths')"><rect x="0.4" y="8.15" width="0.4" height="0.4" fill="#222" stroke="#222" stroke-width="0.05"/><text x="1.0" y="8.549999999999999" class="label">Paths</text></g>
<g class="toggle" onclick="toggleLayer('vectors')"><rect x="0.4" y="8.950000000000001" width="0.4" height="0.4" fill="#222" stroke="#222" stroke-width="0.05"/><text x="1.0" y="9.35" class="label">Vectors</text></g>
<g class="toggle" onclick="toggleLayer('los')"><rect x="0.4" y="9.750000000000002" width="0.4" height="0.4" fill="#222" stroke="#222" stroke-width="0.05"/><text x="1.0" y="10.15" class="label">LOS</text></g>
<g class="toggle" onclick="toggleLayer('lof')"><rect x="0.4" y="10.550000000000002" width="0.4" height="0.4" fill="#222" stroke="#222" stroke-width="0.05"/><text x="1.0" y="10.950000000000001" class="label">LOF</text></g>
</g>
</svg>