<svg xmlns="http://www.w3.org/2000/svg" viewBox="0 0 24 24" width="960" height="960" font-family="Arial" font-size="0.6">
<defs>
  <style><![CDATA[
    .layer { display: inline; }
    .layer.hidden { display: none; }
    .grid-line { stroke: #999; stroke-width: 0.02; opacity: 0.2; }
    .delaunay-line { stroke: #4a6fa5; stroke-width: 0.03; opacity: 0.3; }
    .terrain-area { stroke: #000; stroke-width: 0.05; }
    .terrain-solid { stroke: #000; stroke-width: 0.05; }
    .model { stroke: #ff0000; stroke-width: 2; vector-effect: non-scaling-stroke; }
    .path { fill: none; stroke-width: 0.12; }
    .vector { stroke-width: 0.1; }
    .los-ray { stroke-width: 0.08; stroke-dasharray: 0.2 0.2; }
    .lof-ray { stroke-width: 0.08; stroke-dasharray: 0.3 0.15; }
    .label { fill: #111 !important; font-size: 0.6px; }
    .toggle { cursor: pointer; }
    .toggle.disabled { cursor: default; }
    .toggle.disabled rect { stroke: #ccc; fill: #fff; }
    .toggle.disabled text { fill: #ccc; }
#layer-area { fill: #C49A6C; }
#layer-building { fill: #000000; }
#layer-wall { fill: #555555; }
#layer-tree { fill: #90EE90; }
  ]]></style>
</defs>
<rect x="0" y="0" width="24" height="24" fill="#ffffff" stroke="#111" stroke-width="0.05"/>
<script><![CDATA[
      function toggleLayer(id) {
        var layer = document.getElementById('layer-' + id);
        if (!layer) return;
        if (layer.classList.contains('hidden')) {
          layer.classList.remove('hidden');
        } else {
          layer.classList.add('hidden');
        }
      }
    ]]></script>
<text x="0.4" y="23.6" class="label">LOF + Friendly Fire (blockLOS 75)</text>
<g id="layer-grid" class="layer ">
<line x1="0" y1="0" x2="0" y2="24" class="grid-line"/>
<line x1="0.5" y1="0" x2="0.5" y2="24" class="grid-line"/>
<line x1="1" y1="0" x2="1" y2="24" class="grid-line"/>
<line x1="1.5" y1="0" x2="1.5" y2="24" class="grid-line"/>
<line x1="2" y1="0" x2="2" y2="24" class="grid-line"/>
<line x1="2.5" y1="0" x2="2.5" y2="24" class="grid-line"/>
<line x1="3" y1="0" x2="3" y2="24" class="grid-line"/>
<line x1="3.5" y1="0" x2="3.5" y2="24" class="grid-line"/>
<line x1="4" y1="0" x2="4" y2="24" class="grid-line"/>
<line x1="4.5" y1="0" x2="4.5" y2="24" class="grid-line"/>
<line x1="5" y1="0" x2="5" y2="24" class="grid-line"/>
<line x1="5.5" y1="0" x2="5.5" y2="24" class="grid-line"/>
<line x1="6" y1="0" x2="6" y2="24" class="grid-line"/>
<line x1="6.5" y1="0" x2="6.5" y2="24" class="grid-line"/>
<line x1="7" y1="0" x2="7" y2="24" class="grid-line"/>
<line x1="7.5" y1="0" x2="7.5" y2="24" class="grid-line"/>
<line x1="8" y1="0" x2="8" y2="24" class="grid-line"/>
<line x1="8.5" y1="0" x2="8.5" y2="24" class="grid-line"/>
<line x1="9" y1="0" x2="9" y2="24" class="grid-line"/>
<line x1="9.5" y1="0" x2="9.5" y2="24" class="grid-line"/>
<line x1="10" y1="0" x2="10" y2="24" class="grid-line"/>
<line x1="10.5" y1="0" x2="10.5" y2="24" class="grid-line"/>
<line x1="11" y1="0" x2="11" y2="24" class="grid-line"/>
<line x1="11.5" y1="0" x2="11.5" y2="24" class="grid-line"/>
<line x1="12" y1="0" x2="12" y2="24" class="grid-line"/>
<line x1="12.5" y1="0" x2="12.5" y2="24" class="grid-line"/>
<line x1="13" y1="0" x2="13" y2="24" class="grid-line"/>
<line x1="13.5" y1="0" x2="13.5" y2="24" class="grid-line"/>
<line x1="14" y1="0" x2="14" y2="24" class="grid-line"/>
<line x1="14.5" y1="0" x2="14.5" y2="24" class="grid-line"/>
<line x1="15" y1="0" x2="15" y2="24" class="grid-line"/>
<line x1="15.5" y1="0" x2="15.5" y2="24" class="grid-line"/>
<line x1="16" y1="0" x2="16" y2="24" class="grid-line"/>
<line x1="16.5" y1="0" x2="16.5" y2="24" class="grid-line"/>
<line x1="17" y1="0" x2="17" y2="24" class="grid-line"/>
<line x1="17.5" y1="0" x2="17.5" y2="24" class="grid-line"/>
<line x1="18" y1="0" x2="18" y2="24" class="grid-line"/>
<line x1="18.5" y1="0" x2="18.5" y2="24" class="grid-line"/>
<line x1="19" y1="0" x2="19" y2="24" class="grid-line"/>
<line x1="19.5" y1="0" x2="19.5" y2="24" class="grid-line"/>
<line x1="20" y1="0" x2="20" y2="24" class="grid-line"/>
<line x1="20.5" y1="0" x2="20.5" y2="24" class="grid-line"/>
<line x1="21" y1="0" x2="21" y2="24" class="grid-line"/>
<line x1="21.5" y1="0" x2="21.5" y2="24" class="grid-line"/>
<line x1="22" y1="0" x2="22" y2="24" class="grid-line"/>
<line x1="22.5" y1="0" x2="22.5" y2="24" class="grid-line"/>
<line x1="23" y1="0" x2="23" y2="24" class="grid-line"/>
<line x1="23.5" y1="0" x2="23.5" y2="24" class="grid-line"/>
<line x1="24" y1="0" x2="24" y2="24" class="grid-line"/>
<line x1="0" y1="0" x2="24" y2="0" class="grid-line"/>
<line x1="0" y1="0.5" x2="24" y2="0.5" class="grid-line"/>
<line x1="0" y1="1" x2="24" y2="1" class="grid-line"/>
<line x1="0" y1="1.5" x2="24" y2="1.5" class="grid-line"/>
<line x1="0" y1="2" x2="24" y2="2" class="grid-line"/>
<line x1="0" y1="2.5" x2="24" y2="2.5" class="grid-line"/>
<line x1="0" y1="3" x2="24" y2="3" class="grid-line"/>
<line x1="0" y1="3.5" x2="24" y2="3.5" class="grid-line"/>
<line x1="0" y1="4" x2="24" y2="4" class="grid-line"/>
<line x1="0" y1="4.5" x2="24" y2="4.5" class="grid-line"/>
<line x1="0" y1="5" x2="24" y2="5" class="grid-line"/>
<line x1="0" y1="5.5" x2="24" y2="5.5" class="grid-line"/>
<line x1="0" y1="6" x2="24" y2="6" class="grid-line"/>
<line x1="0" y1="6.5" x2="24" y2="6.5" class="grid-line"/>
<line x1="0" y1="7" x2="24" y2="7" class="grid-line"/>
<line x1="0" y1="7.5" x2="24" y2="7.5" class="grid-line"/>
<line x1="0" y1="8" x2="24" y2="8" class="grid-line"/>
<line x1="0" y1="8.5" x2="24" y2="8.5" class="grid-line"/>
<line x1="0" y1="9" x2="24" y2="9" class="grid-line"/>
<line x1="0" y1="9.5" x2="24" y2="9.5" class="grid-line"/>
<line x1="0" y1="10" x2="24" y2="10" class="grid-line"/>
<line x1="0" y1="10.5" x2="24" y2="10.5" class="grid-line"/>
<line x1="0" y1="11" x2="24" y2="11" class="grid-line"/>
<line x1="0" y1="11.5" x2="24" y2="11.5" class="grid-line"/>
<line x1="0" y1="12" x2="24" y2="12" class="grid-line"/>
<line x1="0" y1="12.5" x2="24" y2="12.5" class="grid-line"/>
<line x1="0" y1="13" x2="24" y2="13" class="grid-line"/>
<line x1="0" y1="13.5" x2="24" y2="13.5" class="grid-line"/>
<line x1="0" y1="14" x2="24" y2="14" class="grid-line"/>
<line x1="0" y1="14.5" x2="24" y2="14.5" class="grid-line"/>
<line x1="0" y1="15" x2="24" y2="15" class="grid-line"/>
<line x1="0" y1="15.5" x2="24" y2="15.5" class="grid-line"/>
<line x1="0" y1="16" x2="24" y2="16" class="grid-line"/>
<line x1="0" y1="16.5" x2="24" y2="16.5" class="grid-line"/>
<line x1="0" y1="17" x2="24" y2="17" class="grid-line"/>
<line x1="0" y1="17.5" x2="24" y2="17.5" class="grid-line"/>
<line x1="0" y1="18" x2="24" y2="18" class="grid-line"/>
<line x1="0" y1="18.5" x2="24" y2="18.5" class="grid-line"/>
<line x1="0" y1="19" x2="24" y2="19" class="grid-line"/>
<line x1="0" y1="19.5" x2="24" y2="19.5" class="grid-line"/>
<line x1="0" y1="20" x2="24" y2="20" class="grid-line"/>
<line x1="0" y1="20.5" x2="24" y2="20.5" class="grid-line"/>
<line x1="0" y1="21" x2="24" y2="21" class="grid-line"/>
<line x1="0" y1="21.5" x2="24" y2="21.5" class="grid-line"/>
<line x1="0" y1="22" x2="24" y2="22" class="grid-line"/>
<line x1="0" y1="22.5" x2="24" y2="22.5" class="grid-line"/>
<line x1="0" y1="23" x2="24" y2="23" class="grid-line"/>
<line x1="0" y1="23.5" x2="24" y2="23.5" class="grid-line"/>
<line x1="0" y1="24" x2="24" y2="24" class="grid-line"/>
</g>
<g id="layer-delaunay" class="layer ">
<line x1="12.206646659708765" y1="12.39123857099128" x2="12.03407417371093" y2="12.74118095489748" class="delaunay-line"/>
<line x1="12.03407417371093" y1="12.74118095489748" x2="12.008555138626189" y2="13.130526192220051" class="delaunay-line"/>
<line x1="12.008555138626189" y1="13.130526192220051" x2="12.206646659708765" y2="12.39123857099128" class="delaunay-line"/>
<line x1="12.008555138626189" y1="13.130526192220051" x2="12.39123857099128" y2="13.793353340291235" class="delaunay-line"/>
<line x1="12.39123857099128" y1="13.793353340291235" x2="12.206646659708765" y2="12.39123857099128" class="delaunay-line"/>
<line x1="12.206646659708765" y1="12.39123857099128" x2="12.008555138626189" y2="13.130526192220051" class="delaunay-line"/>
<line x1="12.13397459621556" y1="13.5" x2="12.39123857099128" y2="13.793353340291235" class="delaunay-line"/>
<line x1="12.39123857099128" y1="13.793353340291235" x2="12.008555138626189" y2="13.130526192220051" class="delaunay-line"/>
<line x1="12.008555138626189" y1="13.130526192220051" x2="12.13397459621556" y2="13.5" class="delaunay-line"/>
<line x1="12.869473807779949" y1="12.008555138626189" x2="12.5" y2="12.13397459621556" class="delaunay-line"/>
<line x1="12.5" y1="12.13397459621556" x2="12.206646659708765" y2="12.39123857099128" class="delaunay-line"/>
<line x1="12.206646659708765" y1="12.39123857099128" x2="12.869473807779949" y2="12.008555138626189" class="delaunay-line"/>
<line x1="13.25881904510252" y1="12.03407417371093" x2="12.869473807779949" y2="12.008555138626189" class="delaunay-line"/>
<line x1="12.869473807779949" y1="12.008555138626189" x2="13.60876142900872" y2="12.206646659708765" class="delaunay-line"/>
<line x1="13.60876142900872" y1="12.206646659708765" x2="13.25881904510252" y2="12.03407417371093" class="delaunay-line"/>
<line x1="13.60876142900872" y1="12.206646659708765" x2="12.869473807779949" y2="12.008555138626189" class="delaunay-line"/>
<line x1="12.869473807779949" y1="12.008555138626189" x2="12.206646659708765" y2="12.39123857099128" class="delaunay-line"/>
<line x1="12.206646659708765" y1="12.39123857099128" x2="13.60876142900872" y2="12.206646659708765" class="delaunay-line"/>
<line x1="13.60876142900872" y1="12.206646659708765" x2="12.206646659708765" y2="12.39123857099128" class="delaunay-line"/>
<line x1="12.206646659708765" y1="12.39123857099128" x2="12.39123857099128" y2="13.793353340291235" class="delaunay-line"/>
<line x1="12.39123857099128" y1="13.793353340291235" x2="13.60876142900872" y2="12.206646659708765" class="delaunay-line"/>
<line x1="12.74118095489748" y1="13.96592582628907" x2="13.130526192220051" y2="13.991444861373811" class="delaunay-line"/>
<line x1="13.130526192220051" y1="13.991444861373811" x2="12.39123857099128" y2="13.793353340291235" class="delaunay-line"/>
<line x1="12.39123857099128" y1="13.793353340291235" x2="12.74118095489748" y2="13.96592582628907" class="delaunay-line"/>
<line x1="13.793353340291235" y1="13.60876142900872" x2="13.60876142900872" y2="12.206646659708765" class="delaunay-line"/>
<line x1="13.60876142900872" y1="12.206646659708765" x2="12.39123857099128" y2="13.793353340291235" class="delaunay-line"/>
<line x1="12.39123857099128" y1="13.793353340291235" x2="13.793353340291235" y2="13.60876142900872" class="delaunay-line"/>
<line x1="13.130526192220051" y1="13.991444861373811" x2="13.793353340291235" y2="13.60876142900872" class="delaunay-line"/>
<line x1="13.793353340291235" y1="13.60876142900872" x2="12.39123857099128" y2="13.793353340291235" class="delaunay-line"/>
<line x1="12.39123857099128" y1="13.793353340291235" x2="13.130526192220051" y2="13.991444861373811" class="delaunay-line"/>
<line x1="13.5" y1="13.86602540378444" x2="13.793353340291235" y2="13.60876142900872" class="delaunay-line"/>
<line x1="13.793353340291235" y1="13.60876142900872" x2="13.130526192220051" y2="13.991444861373811" class="delaunay-line"/>
<line x1="13.130526192220051" y1="13.991444861373811" x2="13.5" y2="13.86602540378444" class="delaunay-line"/>
<line x1="13.991444861373811" y1="12.869473807779949" x2="13.86602540378444" y2="12.5" class="delaunay-line"/>
<line x1="13.86602540378444" y1="12.5" x2="13.60876142900872" y2="12.206646659708765" class="delaunay-line"/>
<line x1="13.60876142900872" y1="12.206646659708765" x2="13.991444861373811" y2="12.869473807779949" class="delaunay-line"/>
<line x1="13.793353340291235" y1="13.60876142900872" x2="13.991444861373811" y2="12.869473807779949" class="delaunay-line"/>
<line x1="13.991444861373811" y1="12.869473807779949" x2="13.60876142900872" y2="12.206646659708765" class="delaunay-line"/>
<line x1="13.60876142900872" y1="12.206646659708765" x2="13.793353340291235" y2="13.60876142900872" class="delaunay-line"/>
<line x1="13.793353340291235" y1="13.60876142900872" x2="13.96592582628907" y2="13.25881904510252" class="delaunay-line"/>
<line x1="13.96592582628907" y1="13.25881904510252" x2="13.991444861373811" y2="12.869473807779949" class="delaunay-line"/>
<line x1="13.991444861373811" y1="12.869473807779949" x2="13.793353340291235" y2="13.60876142900872" class="delaunay-line"/>
<line x1="13.130526192220051" y1="13.991444861373811" x2="15.604686356149273" y2="17.104686356149273" class="delaunay-line"/>
<line x1="15.604686356149273" y1="17.104686356149273" x2="13.5" y2="13.86602540378444" class="delaunay-line"/>
<line x1="13.5" y1="13.86602540378444" x2="13.130526192220051" y2="13.991444861373811" class="delaunay-line"/>
<line x1="13.5" y1="13.86602540378444" x2="15.604686356149273" y2="17.104686356149273" class="delaunay-line"/>
<line x1="15.604686356149273" y1="17.104686356149273" x2="13.793353340291235" y2="13.60876142900872" class="delaunay-line"/>
<line x1="13.793353340291235" y1="13.60876142900872" x2="13.5" y2="13.86602540378444" class="delaunay-line"/>
<line x1="13.793353340291235" y1="13.60876142900872" x2="15.604686356149273" y2="17.104686356149273" class="delaunay-line"/>
<line x1="15.604686356149273" y1="17.104686356149273" x2="13.96592582628907" y2="13.25881904510252" class="delaunay-line"/>
<line x1="13.96592582628907" y1="13.25881904510252" x2="13.793353340291235" y2="13.60876142900872" class="delaunay-line"/>
<line x1="21.206646659708763" y1="10.60876142900872" x2="21.034074173710934" y2="10.258819045102522" class="delaunay-line"/>
<line x1="21.034074173710934" y1="10.258819045102522" x2="13.991444861373811" y2="12.869473807779949" class="delaunay-line"/>
<line x1="13.991444861373811" y1="12.869473807779949" x2="21.206646659708763" y2="10.60876142900872" class="delaunay-line"/>
<line x1="13.991444861373811" y1="12.869473807779949" x2="21.034074173710934" y2="10.258819045102522" class="delaunay-line"/>
<line x1="21.034074173710934" y1="10.258819045102522" x2="13.86602540378444" y2="12.5" class="delaunay-line"/>
<line x1="13.86602540378444" y1="12.5" x2="13.991444861373811" y2="12.869473807779949" class="delaunay-line"/>
<line x1="12.74118095489748" y1="13.96592582628907" x2="15.604686356149273" y2="17.104686356149273" class="delaunay-line"/>
<line x1="15.604686356149273" y1="17.104686356149273" x2="13.130526192220051" y2="13.991444861373811" class="delaunay-line"/>
<line x1="13.130526192220051" y1="13.991444861373811" x2="12.74118095489748" y2="13.96592582628907" class="delaunay-line"/>
<line x1="13" y1="21" x2="15.604686356149273" y2="17.104686356149273" class="delaunay-line"/>
<line x1="15.604686356149273" y1="17.104686356149273" x2="12.61731656763491" y2="21.076120467488714" class="delaunay-line"/>
<line x1="12.61731656763491" y1="21.076120467488714" x2="13" y2="21" class="delaunay-line"/>
<line x1="12.61731656763491" y1="21.076120467488714" x2="12.74118095489748" y2="13.96592582628907" class="delaunay-line"/>
<line x1="12.74118095489748" y1="13.96592582628907" x2="12.39123857099128" y2="13.793353340291235" class="delaunay-line"/>
<line x1="12.39123857099128" y1="13.793353340291235" x2="12.61731656763491" y2="21.076120467488714" class="delaunay-line"/>
<line x1="12.61731656763491" y1="21.076120467488714" x2="15.604686356149273" y2="17.104686356149273" class="delaunay-line"/>
<line x1="15.604686356149273" y1="17.104686356149273" x2="12.74118095489748" y2="13.96592582628907" class="delaunay-line"/>
<line x1="12.74118095489748" y1="13.96592582628907" x2="12.61731656763491" y2="21.076120467488714" class="delaunay-line"/>
<line x1="12.61731656763491" y1="21.076120467488714" x2="7.60876142900872" y2="21.206646659708763" class="delaunay-line"/>
<line x1="7.60876142900872" y1="21.206646659708763" x2="12.292893218813452" y2="21.292893218813454" class="delaunay-line"/>
<line x1="12.292893218813452" y1="21.292893218813454" x2="12.61731656763491" y2="21.076120467488714" class="delaunay-line"/>
<line x1="13" y1="21" x2="13.382683432365088" y2="21.07612046748871" class="delaunay-line"/>
<line x1="13.382683432365088" y1="21.07612046748871" x2="15.604686356149273" y2="17.104686356149273" class="delaunay-line"/>
<line x1="15.604686356149273" y1="17.104686356149273" x2="13" y2="21" class="delaunay-line"/>
<line x1="12.61731656763491" y1="21.076120467488714" x2="12.39123857099128" y2="13.793353340291235" class="delaunay-line"/>
<line x1="12.39123857099128" y1="13.793353340291235" x2="7.60876142900872" y2="21.206646659708763" class="delaunay-line"/>
<line x1="7.60876142900872" y1="21.206646659708763" x2="12.61731656763491" y2="21.076120467488714" class="delaunay-line"/>
<line x1="13" y1="21" x2="13.707106781186548" y2="21.292893218813454" class="delaunay-line"/>
<line x1="13.707106781186548" y1="21.292893218813454" x2="13.382683432365088" y2="21.07612046748871" class="delaunay-line"/>
<line x1="13.382683432365088" y1="21.07612046748871" x2="13" y2="21" class="delaunay-line"/>
<line x1="12.076120467488712" y1="21.61731656763491" x2="12.292893218813452" y2="21.292893218813454" class="delaunay-line"/>
<line x1="12.292893218813452" y1="21.292893218813454" x2="7.8660254037844375" y2="21.500000000000004" class="delaunay-line"/>
<line x1="7.8660254037844375" y1="21.500000000000004" x2="12.076120467488712" y2="21.61731656763491" class="delaunay-line"/>
<line x1="12.61731656763491" y1="21.076120467488714" x2="13.707106781186548" y2="21.292893218813454" class="delaunay-line"/>
<line x1="13.707106781186548" y1="21.292893218813454" x2="13" y2="21" class="delaunay-line"/>
<line x1="13" y1="21" x2="12.61731656763491" y2="21.076120467488714" class="delaunay-line"/>
<line x1="13.923879532511286" y1="21.617316567634912" x2="13.707106781186548" y2="21.292893218813454" class="delaunay-line"/>
<line x1="13.707106781186548" y1="21.292893218813454" x2="12.61731656763491" y2="21.076120467488714" class="delaunay-line"/>
<line x1="12.61731656763491" y1="21.076120467488714" x2="13.923879532511286" y2="21.617316567634912" class="delaunay-line"/>
<line x1="13.382683432365088" y1="21.07612046748871" x2="13.707106781186548" y2="21.292893218813454" class="delaunay-line"/>
<line x1="13.707106781186548" y1="21.292893218813454" x2="15.604686356149273" y2="17.104686356149273" class="delaunay-line"/>
<line x1="15.604686356149273" y1="17.104686356149273" x2="13.382683432365088" y2="21.07612046748871" class="delaunay-line"/>
<line x1="21.206646659708763" y1="10.60876142900872" x2="13.991444861373811" y2="12.869473807779949" class="delaunay-line"/>
<line x1="13.991444861373811" y1="12.869473807779949" x2="13.96592582628907" y2="13.25881904510252" class="delaunay-line"/>
<line x1="13.96592582628907" y1="13.25881904510252" x2="21.206646659708763" y2="10.60876142900872" class="delaunay-line"/>
<line x1="13.86602540378444" y1="12.5" x2="21.00855513862619" y2="9.869473807779949" class="delaunay-line"/>
<line x1="21.00855513862619" y1="9.869473807779949" x2="13.60876142900872" y2="12.206646659708765" class="delaunay-line"/>
<line x1="13.60876142900872" y1="12.206646659708765" x2="13.86602540378444" y2="12.5" class="delaunay-line"/>
<line x1="13.60876142900872" y1="12.206646659708765" x2="15.604686356149273" y2="2.104686356149273" class="delaunay-line"/>
<line x1="15.604686356149273" y1="2.104686356149273" x2="13.25881904510252" y2="12.03407417371093" class="delaunay-line"/>
<line x1="13.25881904510252" y1="12.03407417371093" x2="13.60876142900872" y2="12.206646659708765" class="delaunay-line"/>
<line x1="13.25881904510252" y1="12.03407417371093" x2="15.604686356149273" y2="2.104686356149273" class="delaunay-line"/>
<line x1="15.604686356149273" y1="2.104686356149273" x2="12.869473807779949" y2="12.008555138626189" class="delaunay-line"/>
<line x1="12.869473807779949" y1="12.008555138626189" x2="13.25881904510252" y2="12.03407417371093" class="delaunay-line"/>
<line x1="21.206646659708763" y1="10.60876142900872" x2="13.96592582628907" y2="13.25881904510252" class="delaunay-line"/>
<line x1="13.96592582628907" y1="13.25881904510252" x2="15.604686356149273" y2="17.104686356149273" class="delaunay-line"/>
<line x1="15.604686356149273" y1="17.104686356149273" x2="21.206646659708763" y2="10.60876142900872" class="delaunay-line"/>
<line x1="21.5" y1="10.86602540378444" x2="21.206646659708763" y2="10.60876142900872" class="delaunay-line"/>
<line x1="21.206646659708763" y1="10.60876142900872" x2="15.604686356149273" y2="17.104686356149273" class="delaunay-line"/>
<line x1="15.604686356149273" y1="17.104686356149273" x2="21.5" y2="10.86602540378444" class="delaunay-line"/>
<line x1="21.133974596215563" y1="9.5" x2="21.00855513862619" y2="9.869473807779949" class="delaunay-line"/>
<line x1="21.00855513862619" y1="9.869473807779949" x2="21.034074173710934" y2="10.258819045102522" class="delaunay-line"/>
<line x1="21.034074173710934" y1="10.258819045102522" x2="21.133974596215563" y2="9.5" class="delaunay-line"/>
<line x1="21.034074173710934" y1="10.258819045102522" x2="21.00855513862619" y2="9.869473807779949" class="delaunay-line"/>
<line x1="21.00855513862619" y1="9.869473807779949" x2="13.86602540378444" y2="12.5" class="delaunay-line"/>
<line x1="13.86602540378444" y1="12.5" x2="21.034074173710934" y2="10.258819045102522" class="delaunay-line"/>
<line x1="12.076120467488714" y1="22.382683432365088" x2="13.923879532511286" y2="21.617316567634912" class="delaunay-line"/>
<line x1="13.923879532511286" y1="21.617316567634912" x2="12.61731656763491" y2="21.076120467488714" class="delaunay-line"/>
<line x1="12.61731656763491" y1="21.076120467488714" x2="12.076120467488714" y2="22.382683432365088" class="delaunay-line"/>
<line x1="7.60876142900872" y1="21.206646659708763" x2="12.39123857099128" y2="13.793353340291235" class="delaunay-line"/>
<line x1="12.39123857099128" y1="13.793353340291235" x2="7.258819045102521" y2="21.03407417371093" class="delaunay-line"/>
<line x1="7.258819045102521" y1="21.03407417371093" x2="7.60876142900872" y2="21.206646659708763" class="delaunay-line"/>
<line x1="12.076120467488714" y1="22.382683432365088" x2="12.61731656763491" y2="21.076120467488714" class="delaunay-line"/>
<line x1="12.61731656763491" y1="21.076120467488714" x2="12.292893218813452" y2="21.292893218813454" class="delaunay-line"/>
<line x1="12.292893218813452" y1="21.292893218813454" x2="12.076120467488714" y2="22.382683432365088" class="delaunay-line"/>
<line x1="13.707106781186548" y1="21.292893218813454" x2="13.923879532511286" y2="21.617316567634912" class="delaunay-line"/>
<line x1="13.923879532511286" y1="21.617316567634912" x2="15.604686356149273" y2="17.104686356149273" class="delaunay-line"/>
<line x1="15.604686356149273" y1="17.104686356149273" x2="13.707106781186548" y2="21.292893218813454" class="delaunay-line"/>
<line x1="21.86947380777995" y1="10.991444861373811" x2="21.5" y2="10.86602540378444" class="delaunay-line"/>
<line x1="21.5" y1="10.86602540378444" x2="21.74118095489748" y2="18.03407417371093" class="delaunay-line"/>
<line x1="21.74118095489748" y1="18.03407417371093" x2="21.86947380777995" y2="10.991444861373811" class="delaunay-line"/>
<line x1="21.206646659708763" y1="10.60876142900872" x2="21.5" y2="10.86602540378444" class="delaunay-line"/>
<line x1="21.5" y1="10.86602540378444" x2="21.034074173710934" y2="10.258819045102522" class="delaunay-line"/>
<line x1="21.034074173710934" y1="10.258819045102522" x2="21.206646659708763" y2="10.60876142900872" class="delaunay-line"/>
<line x1="21.39123857099128" y1="9.206646659708765" x2="21.133974596215563" y2="9.5" class="delaunay-line"/>
<line x1="21.133974596215563" y1="9.5" x2="21.034074173710934" y2="10.258819045102522" class="delaunay-line"/>
<line x1="21.034074173710934" y1="10.258819045102522" x2="21.39123857099128" y2="9.206646659708765" class="delaunay-line"/>
<line x1="21.00855513862619" y1="9.869473807779949" x2="21.133974596215563" y2="9.5" class="delaunay-line"/>
<line x1="21.133974596215563" y1="9.5" x2="13.60876142900872" y2="12.206646659708765" class="delaunay-line"/>
<line x1="13.60876142900872" y1="12.206646659708765" x2="21.00855513862619" y2="9.869473807779949" class="delaunay-line"/>
<line x1="7.99144486137381" y1="21.869473807779947" x2="12" y2="22" class="delaunay-line"/>
<line x1="12" y1="22" x2="12.076120467488712" y2="21.61731656763491" class="delaunay-line"/>
<line x1="12.076120467488712" y1="21.61731656763491" x2="7.99144486137381" y2="21.869473807779947" class="delaunay-line"/>
<line x1="12.076120467488712" y1="21.61731656763491" x2="12" y2="22" class="delaunay-line"/>
<line x1="12" y1="22" x2="12.292893218813452" y2="21.292893218813454" class="delaunay-line"/>
<line x1="12.292893218813452" y1="21.292893218813454" x2="12.076120467488712" y2="21.61731656763491" class="delaunay-line"/>
<line x1="13.707106781186548" y1="22.707106781186546" x2="14" y2="22" class="delaunay-line"/>
<line x1="14" y1="22" x2="13.923879532511286" y2="21.617316567634912" class="delaunay-line"/>
<line x1="13.923879532511286" y1="21.617316567634912" x2="13.707106781186548" y2="22.707106781186546" class="delaunay-line"/>
<line x1="21.00855513862619" y1="18.869473807779947" x2="21.133974596215563" y2="18.500000000000004" class="delaunay-line"/>
<line x1="21.133974596215563" y1="18.500000000000004" x2="15.604686356149273" y2="17.104686356149273" class="delaunay-line"/>
<line x1="15.604686356149273" y1="17.104686356149273" x2="21.00855513862619" y2="18.869473807779947" class="delaunay-line"/>
<line x1="22.25881904510252" y1="10.965925826289068" x2="21.86947380777995" y2="10.991444861373811" class="delaunay-line"/>
<line x1="21.86947380777995" y1="10.991444861373811" x2="22.130526192220053" y2="18.00855513862619" class="delaunay-line"/>
<line x1="22.130526192220053" y1="18.00855513862619" x2="22.25881904510252" y2="10.965925826289068" class="delaunay-line"/>
<line x1="21.5" y1="10.86602540378444" x2="21.86947380777995" y2="10.991444861373811" class="delaunay-line"/>
<line x1="21.86947380777995" y1="10.991444861373811" x2="21.034074173710934" y2="10.258819045102522" class="delaunay-line"/>
<line x1="21.034074173710934" y1="10.258819045102522" x2="21.5" y2="10.86602540378444" class="delaunay-line"/>
<line x1="21.74118095489748" y1="9.034074173710932" x2="21.39123857099128" y2="9.206646659708765" class="delaunay-line"/>
<line x1="21.39123857099128" y1="9.206646659708765" x2="21.034074173710934" y2="10.258819045102522" class="delaunay-line"/>
<line x1="21.034074173710934" y1="10.258819045102522" x2="21.74118095489748" y2="9.034074173710932" class="delaunay-line"/>
<line x1="21.133974596215563" y1="9.5" x2="15.604686356149273" y2="2.104686356149273" class="delaunay-line"/>
<line x1="15.604686356149273" y1="2.104686356149273" x2="13.60876142900872" y2="12.206646659708765" class="delaunay-line"/>
<line x1="13.60876142900872" y1="12.206646659708765" x2="21.133974596215563" y2="9.5" class="delaunay-line"/>
<line x1="12" y1="22" x2="12.076120467488714" y2="22.382683432365088" class="delaunay-line"/>
<line x1="12.076120467488714" y1="22.382683432365088" x2="12.292893218813452" y2="21.292893218813454" class="delaunay-line"/>
<line x1="12.292893218813452" y1="21.292893218813454" x2="12" y2="22" class="delaunay-line"/>
<line x1="13.707106781186548" y1="22.707106781186546" x2="13.923879532511288" y2="22.38268343236509" class="delaunay-line"/>
<line x1="13.923879532511288" y1="22.38268343236509" x2="14" y2="22" class="delaunay-line"/>
<line x1="14" y1="22" x2="13.707106781186548" y2="22.707106781186546" class="delaunay-line"/>
<line x1="21.391238570991277" y1="18.206646659708763" x2="21.5" y2="10.86602540378444" class="delaunay-line"/>
<line x1="21.5" y1="10.86602540378444" x2="15.604686356149273" y2="17.104686356149273" class="delaunay-line"/>
<line x1="15.604686356149273" y1="17.104686356149273" x2="21.391238570991277" y2="18.206646659708763" class="delaunay-line"/>
<line x1="15.604686356149273" y1="17.104686356149273" x2="21.03407417371093" y2="19.25881904510252" class="delaunay-line"/>
<line x1="21.03407417371093" y1="19.25881904510252" x2="21.00855513862619" y2="18.869473807779947" class="delaunay-line"/>
<line x1="21.00855513862619" y1="18.869473807779947" x2="15.604686356149273" y2="17.104686356149273" class="delaunay-line"/>
<line x1="21.86947380777995" y1="10.991444861373811" x2="22.25881904510252" y2="10.965925826289068" class="delaunay-line"/>
<line x1="22.25881904510252" y1="10.965925826289068" x2="21.034074173710934" y2="10.258819045102522" class="delaunay-line"/>
<line x1="21.034074173710934" y1="10.258819045102522" x2="21.86947380777995" y2="10.991444861373811" class="delaunay-line"/>
<line x1="22.965925826289066" y1="9.741180954897478" x2="21.74118095489748" y2="9.034074173710932" class="delaunay-line"/>
<line x1="21.74118095489748" y1="9.034074173710932" x2="21.034074173710934" y2="10.258819045102522" class="delaunay-line"/>
<line x1="21.034074173710934" y1="10.258819045102522" x2="22.965925826289066" y2="9.741180954897478" class="delaunay-line"/>
<line x1="21.39123857099128" y1="9.206646659708765" x2="15.604686356149273" y2="2.104686356149273" class="delaunay-line"/>
<line x1="15.604686356149273" y1="2.104686356149273" x2="21.133974596215563" y2="9.5" class="delaunay-line"/>
<line x1="21.133974596215563" y1="9.5" x2="21.39123857099128" y2="9.206646659708765" class="delaunay-line"/>
<line x1="12.076120467488714" y1="22.382683432365088" x2="13.707106781186548" y2="22.707106781186546" class="delaunay-line"/>
<line x1="13.707106781186548" y1="22.707106781186546" x2="13.923879532511286" y2="21.617316567634912" class="delaunay-line"/>
<line x1="13.923879532511286" y1="21.617316567634912" x2="12.076120467488714" y2="22.382683432365088" class="delaunay-line"/>
<line x1="13.38268343236509" y1="22.923879532511286" x2="13.707106781186548" y2="22.707106781186546" class="delaunay-line"/>
<line x1="13.707106781186548" y1="22.707106781186546" x2="12.076120467488714" y2="22.382683432365088" class="delaunay-line"/>
<line x1="12.076120467488714" y1="22.382683432365088" x2="13.38268343236509" y2="22.923879532511286" class="delaunay-line"/>
<line x1="15.604686356149273" y1="17.104686356149273" x2="13.923879532511286" y2="21.617316567634912" class="delaunay-line"/>
<line x1="13.923879532511286" y1="21.617316567634912" x2="21.03407417371093" y2="19.25881904510252" class="delaunay-line"/>
<line x1="21.03407417371093" y1="19.25881904510252" x2="15.604686356149273" y2="17.104686356149273" class="delaunay-line"/>
<line x1="13.923879532511286" y1="21.617316567634912" x2="14" y2="22" class="delaunay-line"/>
<line x1="14" y1="22" x2="21.03407417371093" y2="19.25881904510252" class="delaunay-line"/>
<line x1="21.03407417371093" y1="19.25881904510252" x2="13.923879532511286" y2="21.617316567634912" class="delaunay-line"/>
<line x1="7.258819045102521" y1="21.03407417371093" x2="3.604686356149273" y2="17.104686356149273" class="delaunay-line"/>
<line x1="3.604686356149273" y1="17.104686356149273" x2="6.869473807779947" y2="21.00855513862619" class="delaunay-line"/>
<line x1="6.869473807779947" y1="21.00855513862619" x2="7.258819045102521" y2="21.03407417371093" class="delaunay-line"/>
<line x1="7.258819045102521" y1="21.03407417371093" x2="12.39123857099128" y2="13.793353340291235" class="delaunay-line"/>
<line x1="12.39123857099128" y1="13.793353340291235" x2="12.13397459621556" y2="13.5" class="delaunay-line"/>
<line x1="12.13397459621556" y1="13.5" x2="7.258819045102521" y2="21.03407417371093" class="delaunay-line"/>
<line x1="12" y1="22" x2="7.965925826289069" y2="22.25881904510252" class="delaunay-line"/>
<line x1="7.965925826289069" y1="22.25881904510252" x2="12.076120467488714" y2="22.382683432365088" class="delaunay-line"/>
<line x1="12.076120467488714" y1="22.382683432365088" x2="12" y2="22" class="delaunay-line"/>
<line x1="12.076120467488714" y1="22.382683432365088" x2="7.793353340291235" y2="22.608761429008723" class="delaunay-line"/>
<line x1="7.793353340291235" y1="22.608761429008723" x2="12.292893218813452" y2="22.707106781186546" class="delaunay-line"/>
<line x1="12.292893218813452" y1="22.707106781186546" x2="12.076120467488714" y2="22.382683432365088" class="delaunay-line"/>
<line x1="12.13397459621556" y1="13.5" x2="3.604686356149273" y2="17.104686356149273" class="delaunay-line"/>
<line x1="3.604686356149273" y1="17.104686356149273" x2="7.258819045102521" y2="21.03407417371093" class="delaunay-line"/>
<line x1="7.258819045102521" y1="21.03407417371093" x2="12.13397459621556" y2="13.5" class="delaunay-line"/>
<line x1="22.25881904510252" y1="10.965925826289068" x2="22.965925826289066" y2="9.741180954897478" class="delaunay-line"/>
<line x1="22.965925826289066" y1="9.741180954897478" x2="21.034074173710934" y2="10.258819045102522" class="delaunay-line"/>
<line x1="21.034074173710934" y1="10.258819045102522" x2="22.25881904510252" y2="10.965925826289068" class="delaunay-line"/>
<line x1="22.499999999999996" y1="18.133974596215563" x2="22.60876142900872" y2="10.793353340291235" class="delaunay-line"/>
<line x1="22.60876142900872" y1="10.793353340291235" x2="22.25881904510252" y2="10.965925826289068" class="delaunay-line"/>
<line x1="22.25881904510252" y1="10.965925826289068" x2="22.499999999999996" y2="18.133974596215563" class="delaunay-line"/>
<line x1="12.13397459621556" y1="13.5" x2="12.008555138626189" y2="13.130526192220051" class="delaunay-line"/>
<line x1="12.008555138626189" y1="13.130526192220051" x2="3.604686356149273" y2="17.104686356149273" class="delaunay-line"/>
<line x1="3.604686356149273" y1="17.104686356149273" x2="12.13397459621556" y2="13.5" class="delaunay-line"/>
<line x1="21.133974596215563" y1="18.500000000000004" x2="21.391238570991277" y2="18.206646659708763" class="delaunay-line"/>
<line x1="21.391238570991277" y1="18.206646659708763" x2="15.604686356149273" y2="17.104686356149273" class="delaunay-line"/>
<line x1="15.604686356149273" y1="17.104686356149273" x2="21.133974596215563" y2="18.500000000000004" class="delaunay-line"/>
<line x1="21.03407417371093" y1="19.25881904510252" x2="14" y2="22" class="delaunay-line"/>
<line x1="14" y1="22" x2="21.206646659708763" y2="19.608761429008723" class="delaunay-line"/>
<line x1="21.206646659708763" y1="19.608761429008723" x2="21.03407417371093" y2="19.25881904510252" class="delaunay-line"/>
<line x1="21.133974596215563" y1="18.500000000000004" x2="21.74118095489748" y2="18.03407417371093" class="delaunay-line"/>
<line x1="21.74118095489748" y1="18.03407417371093" x2="21.391238570991277" y2="18.206646659708763" class="delaunay-line"/>
<line x1="21.391238570991277" y1="18.206646659708763" x2="21.133974596215563" y2="18.500000000000004" class="delaunay-line"/>
<line x1="7.258819045102521" y1="21.03407417371093" x2="7.8660254037844375" y2="21.500000000000004" class="delaunay-line"/>
<line x1="7.8660254037844375" y1="21.500000000000004" x2="7.60876142900872" y2="21.206646659708763" class="delaunay-line"/>
<line x1="7.60876142900872" y1="21.206646659708763" x2="7.258819045102521" y2="21.03407417371093" class="delaunay-line"/>
<line x1="7.60876142900872" y1="21.206646659708763" x2="7.8660254037844375" y2="21.500000000000004" class="delaunay-line"/>
<line x1="7.8660254037844375" y1="21.500000000000004" x2="12.292893218813452" y2="21.292893218813454" class="delaunay-line"/>
<line x1="12.292893218813452" y1="21.292893218813454" x2="7.60876142900872" y2="21.206646659708763" class="delaunay-line"/>
<line x1="12.292893218813452" y1="22.707106781186546" x2="13.38268343236509" y2="22.923879532511286" class="delaunay-line"/>
<line x1="13.38268343236509" y1="22.923879532511286" x2="12.076120467488714" y2="22.382683432365088" class="delaunay-line"/>
<line x1="12.076120467488714" y1="22.382683432365088" x2="12.292893218813452" y2="22.707106781186546" class="delaunay-line"/>
<line x1="21.206646659708763" y1="19.608761429008723" x2="14" y2="22" class="delaunay-line"/>
<line x1="14" y1="22" x2="13.923879532511288" y2="22.38268343236509" class="delaunay-line"/>
<line x1="13.923879532511288" y1="22.38268343236509" x2="21.206646659708763" y2="19.608761429008723" class="delaunay-line"/>
<line x1="7.500000000000001" y1="22.866025403784437" x2="12.617316567634912" y2="22.92387953251129" class="delaunay-line"/>
<line x1="12.617316567634912" y1="22.92387953251129" x2="12.292893218813452" y2="22.707106781186546" class="delaunay-line"/>
<line x1="12.292893218813452" y1="22.707106781186546" x2="7.500000000000001" y2="22.866025403784437" class="delaunay-line"/>
<line x1="12.292893218813452" y1="22.707106781186546" x2="13" y2="23" class="delaunay-line"/>
<line x1="13" y1="23" x2="13.38268343236509" y2="22.923879532511286" class="delaunay-line"/>
<line x1="13.38268343236509" y1="22.923879532511286" x2="12.292893218813452" y2="22.707106781186546" class="delaunay-line"/>
<line x1="22.5" y1="9.13397459621556" x2="22.13052619222005" y2="9.008555138626189" class="delaunay-line"/>
<line x1="22.13052619222005" y1="9.008555138626189" x2="22.965925826289066" y2="9.741180954897478" class="delaunay-line"/>
<line x1="22.965925826289066" y1="9.741180954897478" x2="22.5" y2="9.13397459621556" class="delaunay-line"/>
<line x1="12.617316567634912" y1="22.92387953251129" x2="13" y2="23" class="delaunay-line"/>
<line x1="13" y1="23" x2="12.292893218813452" y2="22.707106781186546" class="delaunay-line"/>
<line x1="12.292893218813452" y1="22.707106781186546" x2="12.617316567634912" y2="22.92387953251129" class="delaunay-line"/>
<line x1="7.258819045102521" y1="21.03407417371093" x2="6.869473807779947" y2="21.00855513862619" class="delaunay-line"/>
<line x1="6.869473807779947" y1="21.00855513862619" x2="7.8660254037844375" y2="21.500000000000004" class="delaunay-line"/>
<line x1="7.8660254037844375" y1="21.500000000000004" x2="7.258819045102521" y2="21.03407417371093" class="delaunay-line"/>
<line x1="3.604686356149273" y1="17.104686356149273" x2="12.008555138626189" y2="13.130526192220051" class="delaunay-line"/>
<line x1="12.008555138626189" y1="13.130526192220051" x2="12.03407417371093" y2="12.74118095489748" class="delaunay-line"/>
<line x1="12.03407417371093" y1="12.74118095489748" x2="3.604686356149273" y2="17.104686356149273" class="delaunay-line"/>
<line x1="22.130526192220053" y1="18.00855513862619" x2="21.74118095489748" y2="18.03407417371093" class="delaunay-line"/>
<line x1="21.74118095489748" y1="18.03407417371093" x2="22.499999999999996" y2="18.133974596215563" class="delaunay-line"/>
<line x1="22.499999999999996" y1="18.133974596215563" x2="22.130526192220053" y2="18.00855513862619" class="delaunay-line"/>
<line x1="21.391238570991277" y1="18.206646659708763" x2="21.74118095489748" y2="18.03407417371093" class="delaunay-line"/>
<line x1="21.74118095489748" y1="18.03407417371093" x2="21.5" y2="10.86602540378444" class="delaunay-line"/>
<line x1="21.5" y1="10.86602540378444" x2="21.391238570991277" y2="18.206646659708763" class="delaunay-line"/>
<line x1="22.793353340291237" y1="18.391238570991277" x2="22.866025403784437" y2="10.5" class="delaunay-line"/>
<line x1="22.866025403784437" y1="10.5" x2="22.60876142900872" y2="10.793353340291235" class="delaunay-line"/>
<line x1="22.60876142900872" y1="10.793353340291235" x2="22.793353340291237" y2="18.391238570991277" class="delaunay-line"/>
<line x1="22.60876142900872" y1="10.793353340291235" x2="22.965925826289066" y2="9.741180954897478" class="delaunay-line"/>
<line x1="22.965925826289066" y1="9.741180954897478" x2="22.25881904510252" y2="10.965925826289068" class="delaunay-line"/>
<line x1="22.25881904510252" y1="10.965925826289068" x2="22.60876142900872" y2="10.793353340291235" class="delaunay-line"/>
<line x1="21.00855513862619" y1="18.869473807779947" x2="21.03407417371093" y2="19.25881904510252" class="delaunay-line"/>
<line x1="21.03407417371093" y1="19.25881904510252" x2="21.133974596215563" y2="18.500000000000004" class="delaunay-line"/>
<line x1="21.133974596215563" y1="18.500000000000004" x2="21.00855513862619" y2="18.869473807779947" class="delaunay-line"/>
<line x1="21.206646659708763" y1="19.608761429008723" x2="13.923879532511288" y2="22.38268343236509" class="delaunay-line"/>
<line x1="13.923879532511288" y1="22.38268343236509" x2="21.500000000000004" y2="19.866025403784437" class="delaunay-line"/>
<line x1="21.500000000000004" y1="19.866025403784437" x2="21.206646659708763" y2="19.608761429008723" class="delaunay-line"/>
<line x1="7.965925826289069" y1="22.25881904510252" x2="7.99144486137381" y2="21.869473807779947" class="delaunay-line"/>
<line x1="7.99144486137381" y1="21.869473807779947" x2="7.8660254037844375" y2="21.500000000000004" class="delaunay-line"/>
<line x1="7.8660254037844375" y1="21.500000000000004" x2="7.965925826289069" y2="22.25881904510252" class="delaunay-line"/>
<line x1="7.8660254037844375" y1="21.500000000000004" x2="7.99144486137381" y2="21.869473807779947" class="delaunay-line"/>
<line x1="7.99144486137381" y1="21.869473807779947" x2="12.076120467488712" y2="21.61731656763491" class="delaunay-line"/>
<line x1="12.076120467488712" y1="21.61731656763491" x2="7.8660254037844375" y2="21.500000000000004" class="delaunay-line"/>
<line x1="3.604686356149273" y1="2.104686356149273" x2="12.03407417371093" y2="12.74118095489748" class="delaunay-line"/>
<line x1="12.03407417371093" y1="12.74118095489748" x2="12.206646659708765" y2="12.39123857099128" class="delaunay-line"/>
<line x1="12.206646659708765" y1="12.39123857099128" x2="3.604686356149273" y2="2.104686356149273" class="delaunay-line"/>
<line x1="3.604686356149273" y1="2.104686356149273" x2="3.604686356149273" y2="17.104686356149273" class="delaunay-line"/>
<line x1="3.604686356149273" y1="17.104686356149273" x2="12.03407417371093" y2="12.74118095489748" class="delaunay-line"/>
<line x1="12.03407417371093" y1="12.74118095489748" x2="3.604686356149273" y2="2.104686356149273" class="delaunay-line"/>
<line x1="22.793353340291237" y1="9.39123857099128" x2="22.5" y2="9.13397459621556" class="delaunay-line"/>
<line x1="22.5" y1="9.13397459621556" x2="22.965925826289066" y2="9.741180954897478" class="delaunay-line"/>
<line x1="22.965925826289066" y1="9.741180954897478" x2="22.793353340291237" y2="9.39123857099128" class="delaunay-line"/>
<line x1="22.96592582628907" y1="18.74118095489748" x2="22.99144486137381" y2="10.130526192220051" class="delaunay-line"/>
<line x1="22.99144486137381" y1="10.130526192220051" x2="22.866025403784437" y2="10.5" class="delaunay-line"/>
<line x1="22.866025403784437" y1="10.5" x2="22.96592582628907" y2="18.74118095489748" class="delaunay-line"/>
<line x1="22.965925826289066" y1="9.741180954897478" x2="22.13052619222005" y2="9.008555138626189" class="delaunay-line"/>
<line x1="22.13052619222005" y1="9.008555138626189" x2="21.74118095489748" y2="9.034074173710932" class="delaunay-line"/>
<line x1="21.74118095489748" y1="9.034074173710932" x2="22.965925826289066" y2="9.741180954897478" class="delaunay-line"/>
<line x1="3.604686356149273" y1="17.104686356149273" x2="6.499999999999999" y2="21.133974596215563" class="delaunay-line"/>
<line x1="6.499999999999999" y1="21.133974596215563" x2="6.869473807779947" y2="21.00855513862619" class="delaunay-line"/>
<line x1="6.869473807779947" y1="21.00855513862619" x2="3.604686356149273" y2="17.104686356149273" class="delaunay-line"/>
<line x1="6.869473807779947" y1="21.00855513862619" x2="6.499999999999999" y2="21.133974596215563" class="delaunay-line"/>
<line x1="6.499999999999999" y1="21.133974596215563" x2="7.8660254037844375" y2="21.500000000000004" class="delaunay-line"/>
<line x1="7.8660254037844375" y1="21.500000000000004" x2="6.869473807779947" y2="21.00855513862619" class="delaunay-line"/>
<line x1="22.499999999999996" y1="18.133974596215563" x2="21.74118095489748" y2="18.03407417371093" class="delaunay-line"/>
<line x1="21.74118095489748" y1="18.03407417371093" x2="21.133974596215563" y2="18.500000000000004" class="delaunay-line"/>
<line x1="21.133974596215563" y1="18.500000000000004" x2="22.499999999999996" y2="18.133974596215563" class="delaunay-line"/>
<line x1="21.74118095489748" y1="18.03407417371093" x2="22.130526192220053" y2="18.00855513862619" class="delaunay-line"/>
<line x1="22.130526192220053" y1="18.00855513862619" x2="21.86947380777995" y2="10.991444861373811" class="delaunay-line"/>
<line x1="21.86947380777995" y1="10.991444861373811" x2="21.74118095489748" y2="18.03407417371093" class="delaunay-line"/>
<line x1="22.965925826289066" y1="9.741180954897478" x2="22.60876142900872" y2="10.793353340291235" class="delaunay-line"/>
<line x1="22.60876142900872" y1="10.793353340291235" x2="22.866025403784437" y2="10.5" class="delaunay-line"/>
<line x1="22.866025403784437" y1="10.5" x2="22.965925826289066" y2="9.741180954897478" class="delaunay-line"/>
<line x1="22.99144486137381" y1="10.130526192220051" x2="22.965925826289066" y2="9.741180954897478" class="delaunay-line"/>
<line x1="22.965925826289066" y1="9.741180954897478" x2="22.866025403784437" y2="10.5" class="delaunay-line"/>
<line x1="22.866025403784437" y1="10.5" x2="22.99144486137381" y2="10.130526192220051" class="delaunay-line"/>
<line x1="21.500000000000004" y1="19.866025403784437" x2="13.923879532511288" y2="22.38268343236509" class="delaunay-line"/>
<line x1="13.923879532511288" y1="22.38268343236509" x2="24" y2="24" class="delaunay-line"/>
<line x1="24" y1="24" x2="21.500000000000004" y2="19.866025403784437" class="delaunay-line"/>
<line x1="21.03407417371093" y1="19.25881904510252" x2="21.500000000000004" y2="19.866025403784437" class="delaunay-line"/>
<line x1="21.500000000000004" y1="19.866025403784437" x2="21.133974596215563" y2="18.500000000000004" class="delaunay-line"/>
<line x1="21.133974596215563" y1="18.500000000000004" x2="21.03407417371093" y2="19.25881904510252" class="delaunay-line"/>
<line x1="7.793353340291235" y1="22.608761429008723" x2="7.965925826289069" y2="22.25881904510252" class="delaunay-line"/>
<line x1="7.965925826289069" y1="22.25881904510252" x2="7.500000000000001" y2="22.866025403784437" class="delaunay-line"/>
<line x1="7.500000000000001" y1="22.866025403784437" x2="7.793353340291235" y2="22.608761429008723" class="delaunay-line"/>
<line x1="7.99144486137381" y1="21.869473807779947" x2="7.965925826289069" y2="22.25881904510252" class="delaunay-line"/>
<line x1="7.965925826289069" y1="22.25881904510252" x2="12" y2="22" class="delaunay-line"/>
<line x1="12" y1="22" x2="7.99144486137381" y2="21.869473807779947" class="delaunay-line"/>
<line x1="12.617316567634912" y1="22.92387953251129" x2="7.130526192220052" y2="22.99144486137381" class="delaunay-line"/>
<line x1="7.130526192220052" y1="22.99144486137381" x2="13" y2="23" class="delaunay-line"/>
<line x1="13" y1="23" x2="12.617316567634912" y2="22.92387953251129" class="delaunay-line"/>
<line x1="3.604686356149273" y1="17.104686356149273" x2="6.206646659708765" y2="21.391238570991277" class="delaunay-line"/>
<line x1="6.206646659708765" y1="21.391238570991277" x2="6.499999999999999" y2="21.133974596215563" class="delaunay-line"/>
<line x1="6.499999999999999" y1="21.133974596215563" x2="3.604686356149273" y2="17.104686356149273" class="delaunay-line"/>
<line x1="7.500000000000001" y1="22.866025403784437" x2="7.965925826289069" y2="22.25881904510252" class="delaunay-line"/>
<line x1="7.965925826289069" y1="22.25881904510252" x2="7.8660254037844375" y2="21.500000000000004" class="delaunay-line"/>
<line x1="7.8660254037844375" y1="21.500000000000004" x2="7.500000000000001" y2="22.866025403784437" class="delaunay-line"/>
<line x1="21.500000000000004" y1="19.866025403784437" x2="22.499999999999996" y2="18.133974596215563" class="delaunay-line"/>
<line x1="22.499999999999996" y1="18.133974596215563" x2="21.133974596215563" y2="18.500000000000004" class="delaunay-line"/>
<line x1="21.133974596215563" y1="18.500000000000004" x2="21.500000000000004" y2="19.866025403784437" class="delaunay-line"/>
<line x1="22.130526192220053" y1="18.00855513862619" x2="22.499999999999996" y2="18.133974596215563" class="delaunay-line"/>
<line x1="22.499999999999996" y1="18.133974596215563" x2="22.25881904510252" y2="10.965925826289068" class="delaunay-line"/>
<line x1="22.25881904510252" y1="10.965925826289068" x2="22.130526192220053" y2="18.00855513862619" class="delaunay-line"/>
<line x1="21.869473807779947" y1="19.99144486137381" x2="21.500000000000004" y2="19.866025403784437" class="delaunay-line"/>
<line x1="21.500000000000004" y1="19.866025403784437" x2="24" y2="24" class="delaunay-line"/>
<line x1="24" y1="24" x2="21.869473807779947" y2="19.99144486137381" class="delaunay-line"/>
<line x1="21.206646659708763" y1="19.608761429008723" x2="21.500000000000004" y2="19.866025403784437" class="delaunay-line"/>
<line x1="21.500000000000004" y1="19.866025403784437" x2="21.03407417371093" y2="19.25881904510252" class="delaunay-line"/>
<line x1="21.03407417371093" y1="19.25881904510252" x2="21.206646659708763" y2="19.608761429008723" class="delaunay-line"/>
<line x1="6.133974596215562" y1="22.499999999999996" x2="7.8660254037844375" y2="21.500000000000004" class="delaunay-line"/>
<line x1="7.8660254037844375" y1="21.500000000000004" x2="6.499999999999999" y2="21.133974596215563" class="delaunay-line"/>
<line x1="6.499999999999999" y1="21.133974596215563" x2="6.133974596215562" y2="22.499999999999996" class="delaunay-line"/>
<line x1="7.965925826289069" y1="22.25881904510252" x2="7.793353340291235" y2="22.608761429008723" class="delaunay-line"/>
<line x1="7.793353340291235" y1="22.608761429008723" x2="12.076120467488714" y2="22.382683432365088" class="delaunay-line"/>
<line x1="12.076120467488714" y1="22.382683432365088" x2="7.965925826289069" y2="22.25881904510252" class="delaunay-line"/>
<line x1="1.7933533402912367" y1="21.39123857099128" x2="6.034074173710931" y2="21.74118095489748" class="delaunay-line"/>
<line x1="6.034074173710931" y1="21.74118095489748" x2="6.206646659708765" y2="21.391238570991277" class="delaunay-line"/>
<line x1="6.206646659708765" y1="21.391238570991277" x2="1.7933533402912367" y2="21.39123857099128" class="delaunay-line"/>
<line x1="6.206646659708765" y1="21.391238570991277" x2="6.034074173710931" y2="21.74118095489748" class="delaunay-line"/>
<line x1="6.034074173710931" y1="21.74118095489748" x2="6.499999999999999" y2="21.133974596215563" class="delaunay-line"/>
<line x1="6.499999999999999" y1="21.133974596215563" x2="6.206646659708765" y2="21.391238570991277" class="delaunay-line"/>
<line x1="22.96592582628907" y1="18.74118095489748" x2="22.793353340291237" y2="18.391238570991277" class="delaunay-line"/>
<line x1="22.793353340291237" y1="18.391238570991277" x2="22.499999999999996" y2="18.133974596215563" class="delaunay-line"/>
<line x1="22.499999999999996" y1="18.133974596215563" x2="22.96592582628907" y2="18.74118095489748" class="delaunay-line"/>
<line x1="22.499999999999996" y1="18.133974596215563" x2="22.793353340291237" y2="18.391238570991277" class="delaunay-line"/>
<line x1="22.793353340291237" y1="18.391238570991277" x2="22.60876142900872" y2="10.793353340291235" class="delaunay-line"/>
<line x1="22.60876142900872" y1="10.793353340291235" x2="22.499999999999996" y2="18.133974596215563" class="delaunay-line"/>
<line x1="21.74118095489748" y1="9.034074173710932" x2="22.13052619222005" y2="9.008555138626189" class="delaunay-line"/>
<line x1="22.13052619222005" y1="9.008555138626189" x2="21.74118095489748" y2="1.9659258262890673" class="delaunay-line"/>
<line x1="21.74118095489748" y1="1.9659258262890673" x2="21.74118095489748" y2="9.034074173710932" class="delaunay-line"/>
<line x1="21.39123857099128" y1="1.793353340291237" x2="21.74118095489748" y2="9.034074173710932" class="delaunay-line"/>
<line x1="21.74118095489748" y1="9.034074173710932" x2="21.74118095489748" y2="1.9659258262890673" class="delaunay-line"/>
<line x1="21.74118095489748" y1="1.9659258262890673" x2="21.39123857099128" y2="1.793353340291237" class="delaunay-line"/>
<line x1="21.39123857099128" y1="1.793353340291237" x2="21.39123857099128" y2="9.206646659708765" class="delaunay-line"/>
<line x1="21.39123857099128" y1="9.206646659708765" x2="21.74118095489748" y2="9.034074173710932" class="delaunay-line"/>
<line x1="21.74118095489748" y1="9.034074173710932" x2="21.39123857099128" y2="1.793353340291237" class="delaunay-line"/>
<line x1="21.39123857099128" y1="1.793353340291237" x2="15.604686356149273" y2="2.104686356149273" class="delaunay-line"/>
<line x1="15.604686356149273" y1="2.104686356149273" x2="21.39123857099128" y2="9.206646659708765" class="delaunay-line"/>
<line x1="21.39123857099128" y1="9.206646659708765" x2="21.39123857099128" y2="1.793353340291237" class="delaunay-line"/>
<line x1="12.869473807779949" y1="12.008555138626189" x2="15.604686356149273" y2="2.104686356149273" class="delaunay-line"/>
<line x1="15.604686356149273" y1="2.104686356149273" x2="12.5" y2="12.13397459621556" class="delaunay-line"/>
<line x1="12.5" y1="12.13397459621556" x2="12.869473807779949" y2="12.008555138626189" class="delaunay-line"/>
<line x1="12.5" y1="12.13397459621556" x2="3.604686356149273" y2="2.104686356149273" class="delaunay-line"/>
<line x1="3.604686356149273" y1="2.104686356149273" x2="12.206646659708765" y2="12.39123857099128" class="delaunay-line"/>
<line x1="12.206646659708765" y1="12.39123857099128" x2="12.5" y2="12.13397459621556" class="delaunay-line"/>
<line x1="24" y1="24" x2="13.923879532511288" y2="22.38268343236509" class="delaunay-line"/>
<line x1="13.923879532511288" y1="22.38268343236509" x2="13.707106781186548" y2="22.707106781186546" class="delaunay-line"/>
<line x1="13.707106781186548" y1="22.707106781186546" x2="24" y2="24" class="delaunay-line"/>
<line x1="22.99144486137381" y1="19.130526192220053" x2="22.96592582628907" y2="18.74118095489748" class="delaunay-line"/>
<line x1="22.96592582628907" y1="18.74118095489748" x2="22.866025403784437" y2="19.499999999999996" class="delaunay-line"/>
<line x1="22.866025403784437" y1="19.499999999999996" x2="22.99144486137381" y2="19.130526192220053" class="delaunay-line"/>
<line x1="6.133974596215562" y1="22.499999999999996" x2="7.500000000000001" y2="22.866025403784437" class="delaunay-line"/>
<line x1="7.500000000000001" y1="22.866025403784437" x2="7.8660254037844375" y2="21.500000000000004" class="delaunay-line"/>
<line x1="7.8660254037844375" y1="21.500000000000004" x2="6.133974596215562" y2="22.499999999999996" class="delaunay-line"/>
<line x1="7.793353340291235" y1="22.608761429008723" x2="7.500000000000001" y2="22.866025403784437" class="delaunay-line"/>
<line x1="7.500000000000001" y1="22.866025403784437" x2="12.292893218813452" y2="22.707106781186546" class="delaunay-line"/>
<line x1="12.292893218813452" y1="22.707106781186546" x2="7.793353340291235" y2="22.608761429008723" class="delaunay-line"/>
<line x1="1.99144486137381" y1="22.130526192220053" x2="6.008555138626189" y2="22.130526192220053" class="delaunay-line"/>
<line x1="6.008555138626189" y1="22.130526192220053" x2="6.034074173710931" y2="21.74118095489748" class="delaunay-line"/>
<line x1="6.034074173710931" y1="21.74118095489748" x2="1.99144486137381" y2="22.130526192220053" class="delaunay-line"/>
<line x1="6.034074173710931" y1="21.74118095489748" x2="6.133974596215562" y2="22.499999999999996" class="delaunay-line"/>
<line x1="6.133974596215562" y1="22.499999999999996" x2="6.499999999999999" y2="21.133974596215563" class="delaunay-line"/>
<line x1="6.499999999999999" y1="21.133974596215563" x2="6.034074173710931" y2="21.74118095489748" class="delaunay-line"/>
<line x1="22.96592582628907" y1="18.74118095489748" x2="22.499999999999996" y2="18.133974596215563" class="delaunay-line"/>
<line x1="22.499999999999996" y1="18.133974596215563" x2="22.866025403784437" y2="19.499999999999996" class="delaunay-line"/>
<line x1="22.866025403784437" y1="19.499999999999996" x2="22.96592582628907" y2="18.74118095489748" class="delaunay-line"/>
<line x1="22.793353340291237" y1="18.391238570991277" x2="22.96592582628907" y2="18.74118095489748" class="delaunay-line"/>
<line x1="22.96592582628907" y1="18.74118095489748" x2="22.866025403784437" y2="10.5" class="delaunay-line"/>
<line x1="22.866025403784437" y1="10.5" x2="22.793353340291237" y2="18.391238570991277" class="delaunay-line"/>
<line x1="24" y1="24" x2="22.25881904510252" y2="19.96592582628907" class="delaunay-line"/>
<line x1="22.25881904510252" y1="19.96592582628907" x2="21.869473807779947" y2="19.99144486137381" class="delaunay-line"/>
<line x1="21.869473807779947" y1="19.99144486137381" x2="24" y2="24" class="delaunay-line"/>
<line x1="21.869473807779947" y1="19.99144486137381" x2="22.25881904510252" y2="19.96592582628907" class="delaunay-line"/>
<line x1="22.25881904510252" y1="19.96592582628907" x2="21.500000000000004" y2="19.866025403784437" class="delaunay-line"/>
<line x1="21.500000000000004" y1="19.866025403784437" x2="21.869473807779947" y2="19.99144486137381" class="delaunay-line"/>
<line x1="6.133974596215562" y1="22.499999999999996" x2="7.130526192220052" y2="22.99144486137381" class="delaunay-line"/>
<line x1="7.130526192220052" y1="22.99144486137381" x2="7.500000000000001" y2="22.866025403784437" class="delaunay-line"/>
<line x1="7.500000000000001" y1="22.866025403784437" x2="6.133974596215562" y2="22.499999999999996" class="delaunay-line"/>
<line x1="7.500000000000001" y1="22.866025403784437" x2="7.130526192220052" y2="22.99144486137381" class="delaunay-line"/>
<line x1="7.130526192220052" y1="22.99144486137381" x2="12.617316567634912" y2="22.92387953251129" class="delaunay-line"/>
<line x1="12.617316567634912" y1="22.92387953251129" x2="7.500000000000001" y2="22.866025403784437" class="delaunay-line"/>
<line x1="1.8660254037844386" y1="22.5" x2="6.133974596215562" y2="22.499999999999996" class="delaunay-line"/>
<line x1="6.133974596215562" y1="22.499999999999996" x2="6.008555138626189" y2="22.130526192220053" class="delaunay-line"/>
<line x1="6.008555138626189" y1="22.130526192220053" x2="1.8660254037844386" y2="22.5" class="delaunay-line"/>
<line x1="6.008555138626189" y1="22.130526192220053" x2="6.133974596215562" y2="22.499999999999996" class="delaunay-line"/>
<line x1="6.133974596215562" y1="22.499999999999996" x2="6.034074173710931" y2="21.74118095489748" class="delaunay-line"/>
<line x1="6.034074173710931" y1="21.74118095489748" x2="6.008555138626189" y2="22.130526192220053" class="delaunay-line"/>
<line x1="22.866025403784437" y1="19.499999999999996" x2="22.499999999999996" y2="18.133974596215563" class="delaunay-line"/>
<line x1="22.499999999999996" y1="18.133974596215563" x2="21.500000000000004" y2="19.866025403784437" class="delaunay-line"/>
<line x1="21.500000000000004" y1="19.866025403784437" x2="22.866025403784437" y2="19.499999999999996" class="delaunay-line"/>
<line x1="22.96592582628907" y1="18.74118095489748" x2="24" y2="24" class="delaunay-line"/>
<line x1="24" y1="24" x2="22.99144486137381" y2="10.130526192220051" class="delaunay-line"/>
<line x1="22.99144486137381" y1="10.130526192220051" x2="22.96592582628907" y2="18.74118095489748" class="delaunay-line"/>
<line x1="22.25881904510252" y1="19.96592582628907" x2="22.866025403784437" y2="19.499999999999996" class="delaunay-line"/>
<line x1="22.866025403784437" y1="19.499999999999996" x2="21.500000000000004" y2="19.866025403784437" class="delaunay-line"/>
<line x1="21.500000000000004" y1="19.866025403784437" x2="22.25881904510252" y2="19.96592582628907" class="delaunay-line"/>
<line x1="6.133974596215562" y1="22.499999999999996" x2="6.741180954897479" y2="22.96592582628907" class="delaunay-line"/>
<line x1="6.741180954897479" y1="22.96592582628907" x2="7.130526192220052" y2="22.99144486137381" class="delaunay-line"/>
<line x1="7.130526192220052" y1="22.99144486137381" x2="6.133974596215562" y2="22.499999999999996" class="delaunay-line"/>
<line x1="6.133974596215562" y1="22.499999999999996" x2="6.39123857099128" y2="22.793353340291237" class="delaunay-line"/>
<line x1="6.39123857099128" y1="22.793353340291237" x2="6.741180954897479" y2="22.96592582628907" class="delaunay-line"/>
<line x1="6.741180954897479" y1="22.96592582628907" x2="6.133974596215562" y2="22.499999999999996" class="delaunay-line"/>
<line x1="22.608761429008723" y1="19.793353340291237" x2="22.866025403784437" y2="19.499999999999996" class="delaunay-line"/>
<line x1="22.866025403784437" y1="19.499999999999996" x2="22.25881904510252" y2="19.96592582628907" class="delaunay-line"/>
<line x1="22.25881904510252" y1="19.96592582628907" x2="22.608761429008723" y2="19.793353340291237" class="delaunay-line"/>
<line x1="3.604686356149273" y1="17.104686356149273" x2="1.7933533402912367" y2="21.39123857099128" class="delaunay-line"/>
<line x1="1.7933533402912367" y1="21.39123857099128" x2="6.206646659708765" y2="21.391238570991277" class="delaunay-line"/>
<line x1="6.206646659708765" y1="21.391238570991277" x2="3.604686356149273" y2="17.104686356149273" class="delaunay-line"/>
<line x1="6.133974596215562" y1="22.499999999999996" x2="1.8660254037844386" y2="22.5" class="delaunay-line"/>
<line x1="1.8660254037844386" y1="22.5" x2="6.39123857099128" y2="22.793353340291237" class="delaunay-line"/>
<line x1="6.39123857099128" y1="22.793353340291237" x2="6.133974596215562" y2="22.499999999999996" class="delaunay-line"/>
<line x1="6.39123857099128" y1="22.793353340291237" x2="0" y2="24" class="delaunay-line"/>
<line x1="0" y1="24" x2="6.741180954897479" y2="22.96592582628907" class="delaunay-line"/>
<line x1="6.741180954897479" y1="22.96592582628907" x2="6.39123857099128" y2="22.793353340291237" class="delaunay-line"/>
<line x1="21.74118095489748" y1="1.9659258262890673" x2="22.13052619222005" y2="9.008555138626189" class="delaunay-line"/>
<line x1="22.13052619222005" y1="9.008555138626189" x2="22.130526192220053" y2="1.9914448613738098" class="delaunay-line"/>
<line x1="22.130526192220053" y1="1.9914448613738098" x2="21.74118095489748" y2="1.9659258262890673" class="delaunay-line"/>
<line x1="22.13052619222005" y1="9.008555138626189" x2="22.5" y2="9.13397459621556" class="delaunay-line"/>
<line x1="22.5" y1="9.13397459621556" x2="22.130526192220053" y2="1.9914448613738098" class="delaunay-line"/>
<line x1="22.130526192220053" y1="1.9914448613738098" x2="22.13052619222005" y2="9.008555138626189" class="delaunay-line"/>
<line x1="1.7933533402912367" y1="21.39123857099128" x2="1.9659258262890669" y2="21.74118095489748" class="delaunay-line"/>
<line x1="1.9659258262890669" y1="21.74118095489748" x2="6.034074173710931" y2="21.74118095489748" class="delaunay-line"/>
<line x1="6.034074173710931" y1="21.74118095489748" x2="1.7933533402912367" y2="21.39123857099128" class="delaunay-line"/>
<line x1="22.130526192220053" y1="1.9914448613738098" x2="22.5" y2="9.13397459621556" class="delaunay-line"/>
<line x1="22.5" y1="9.13397459621556" x2="22.5" y2="1.8660254037844382" class="delaunay-line"/>
<line x1="22.5" y1="1.8660254037844382" x2="22.130526192220053" y2="1.9914448613738098" class="delaunay-line"/>
<line x1="3.604686356149273" y1="17.104686356149273" x2="1.5" y2="21.133974596215563" class="delaunay-line"/>
<line x1="1.5" y1="21.133974596215563" x2="1.7933533402912367" y2="21.39123857099128" class="delaunay-line"/>
<line x1="1.7933533402912367" y1="21.39123857099128" x2="3.604686356149273" y2="17.104686356149273" class="delaunay-line"/>
<line x1="1.7933533402912367" y1="21.39123857099128" x2="1.5" y2="21.133974596215563" class="delaunay-line"/>
<line x1="1.5" y1="21.133974596215563" x2="1.9659258262890669" y2="21.74118095489748" class="delaunay-line"/>
<line x1="1.9659258262890669" y1="21.74118095489748" x2="1.7933533402912367" y2="21.39123857099128" class="delaunay-line"/>
<line x1="21.74118095489748" y1="1.9659258262890673" x2="21.133974596215563" y2="1.5000000000000004" class="delaunay-line"/>
<line x1="21.133974596215563" y1="1.5000000000000004" x2="21.39123857099128" y2="1.793353340291237" class="delaunay-line"/>
<line x1="21.39123857099128" y1="1.793353340291237" x2="21.74118095489748" y2="1.9659258262890673" class="delaunay-line"/>
<line x1="21.39123857099128" y1="1.793353340291237" x2="21.133974596215563" y2="1.5000000000000004" class="delaunay-line"/>
<line x1="21.133974596215563" y1="1.5000000000000004" x2="15.604686356149273" y2="2.104686356149273" class="delaunay-line"/>
<line x1="15.604686356149273" y1="2.104686356149273" x2="21.39123857099128" y2="1.793353340291237" class="delaunay-line"/>
<line x1="1.8660254037844386" y1="22.5" x2="1.99144486137381" y2="22.130526192220053" class="delaunay-line"/>
<line x1="1.99144486137381" y1="22.130526192220053" x2="1.60876142900872" y2="22.793353340291233" class="delaunay-line"/>
<line x1="1.60876142900872" y1="22.793353340291233" x2="1.8660254037844386" y2="22.5" class="delaunay-line"/>
<line x1="1.9659258262890669" y1="21.74118095489748" x2="1.99144486137381" y2="22.130526192220053" class="delaunay-line"/>
<line x1="1.99144486137381" y1="22.130526192220053" x2="6.034074173710931" y2="21.74118095489748" class="delaunay-line"/>
<line x1="6.034074173710931" y1="21.74118095489748" x2="1.9659258262890669" y2="21.74118095489748" class="delaunay-line"/>
<line x1="22.5" y1="1.8660254037844382" x2="22.5" y2="9.13397459621556" class="delaunay-line"/>
<line x1="22.5" y1="9.13397459621556" x2="22.793353340291237" y2="9.39123857099128" class="delaunay-line"/>
<line x1="22.793353340291237" y1="9.39123857099128" x2="22.5" y2="1.8660254037844382" class="delaunay-line"/>
<line x1="21.74118095489748" y1="1.9659258262890673" x2="21.034074173710934" y2="0.7411809548974809" class="delaunay-line"/>
<line x1="21.034074173710934" y1="0.7411809548974809" x2="21.133974596215563" y2="1.5000000000000004" class="delaunay-line"/>
<line x1="21.133974596215563" y1="1.5000000000000004" x2="21.74118095489748" y2="1.9659258262890673" class="delaunay-line"/>
<line x1="3.604686356149273" y1="17.104686356149273" x2="1.1305261922200502" y2="21.00855513862619" class="delaunay-line"/>
<line x1="1.1305261922200502" y1="21.00855513862619" x2="1.5" y2="21.133974596215563" class="delaunay-line"/>
<line x1="1.5" y1="21.133974596215563" x2="3.604686356149273" y2="17.104686356149273" class="delaunay-line"/>
<line x1="1.60876142900872" y1="22.793353340291233" x2="1.99144486137381" y2="22.130526192220053" class="delaunay-line"/>
<line x1="1.99144486137381" y1="22.130526192220053" x2="1.9659258262890669" y2="21.74118095489748" class="delaunay-line"/>
<line x1="1.9659258262890669" y1="21.74118095489748" x2="1.60876142900872" y2="22.793353340291233" class="delaunay-line"/>
<line x1="21.034074173710934" y1="0.7411809548974809" x2="21.00855513862619" y2="1.1305261922200507" class="delaunay-line"/>
<line x1="21.00855513862619" y1="1.1305261922200507" x2="21.133974596215563" y2="1.5000000000000004" class="delaunay-line"/>
<line x1="21.133974596215563" y1="1.5000000000000004" x2="21.034074173710934" y2="0.7411809548974809" class="delaunay-line"/>
<line x1="21.133974596215563" y1="1.5000000000000004" x2="21.00855513862619" y2="1.1305261922200507" class="delaunay-line"/>
<line x1="21.00855513862619" y1="1.1305261922200507" x2="15.604686356149273" y2="2.104686356149273" class="delaunay-line"/>
<line x1="15.604686356149273" y1="2.104686356149273" x2="21.133974596215563" y2="1.5000000000000004" class="delaunay-line"/>
<line x1="0" y1="0" x2="3.604686356149273" y2="2.104686356149273" class="delaunay-line"/>
<line x1="3.604686356149273" y1="2.104686356149273" x2="15.604686356149273" y2="2.104686356149273" class="delaunay-line"/>
<line x1="15.604686356149273" y1="2.104686356149273" x2="0" y2="0" class="delaunay-line"/>
<line x1="15.604686356149273" y1="2.104686356149273" x2="3.604686356149273" y2="2.104686356149273" class="delaunay-line"/>
<line x1="3.604686356149273" y1="2.104686356149273" x2="12.5" y2="12.13397459621556" class="delaunay-line"/>
<line x1="12.5" y1="12.13397459621556" x2="15.604686356149273" y2="2.104686356149273" class="delaunay-line"/>
<line x1="3.604686356149273" y1="17.104686356149273" x2="0.7411809548974805" y2="21.034074173710934" class="delaunay-line"/>
<line x1="0.7411809548974805" y1="21.034074173710934" x2="1.1305261922200502" y2="21.00855513862619" class="delaunay-line"/>
<line x1="1.1305261922200502" y1="21.00855513862619" x2="3.604686356149273" y2="17.104686356149273" class="delaunay-line"/>
<line x1="0.7411809548974805" y1="21.034074173710934" x2="1.9659258262890669" y2="21.74118095489748" class="delaunay-line"/>
<line x1="1.9659258262890669" y1="21.74118095489748" x2="1.5" y2="21.133974596215563" class="delaunay-line"/>
<line x1="1.5" y1="21.133974596215563" x2="0.7411809548974805" y2="21.034074173710934" class="delaunay-line"/>
<line x1="1.99144486137381" y1="22.130526192220053" x2="1.8660254037844386" y2="22.5" class="delaunay-line"/>
<line x1="1.8660254037844386" y1="22.5" x2="6.008555138626189" y2="22.130526192220053" class="delaunay-line"/>
<line x1="6.008555138626189" y1="22.130526192220053" x2="1.99144486137381" y2="22.130526192220053" class="delaunay-line"/>
<line x1="22.793353340291233" y1="1.6087614290087198" x2="24" y2="0" class="delaunay-line"/>
<line x1="24" y1="0" x2="22.965925826289066" y2="1.2588190451025194" class="delaunay-line"/>
<line x1="22.965925826289066" y1="1.2588190451025194" x2="22.793353340291233" y2="1.6087614290087198" class="delaunay-line"/>
<line x1="22.793353340291233" y1="1.6087614290087198" x2="22.5" y2="1.8660254037844382" class="delaunay-line"/>
<line x1="22.5" y1="1.8660254037844382" x2="22.793353340291237" y2="9.39123857099128" class="delaunay-line"/>
<line x1="22.793353340291237" y1="9.39123857099128" x2="22.793353340291233" y2="1.6087614290087198" class="delaunay-line"/>
<line x1="22.130526192220053" y1="1.9914448613738098" x2="22.793353340291233" y2="1.6087614290087198" class="delaunay-line"/>
<line x1="22.793353340291233" y1="1.6087614290087198" x2="21.74118095489748" y2="1.9659258262890673" class="delaunay-line"/>
<line x1="21.74118095489748" y1="1.9659258262890673" x2="22.130526192220053" y2="1.9914448613738098" class="delaunay-line"/>
<line x1="0.3912385709912801" y1="21.206646659708763" x2="0.7411809548974805" y2="21.034074173710934" class="delaunay-line"/>
<line x1="0.7411809548974805" y1="21.034074173710934" x2="3.604686356149273" y2="17.104686356149273" class="delaunay-line"/>
<line x1="3.604686356149273" y1="17.104686356149273" x2="0.3912385709912801" y2="21.206646659708763" class="delaunay-line"/>
<line x1="1.1305261922200502" y1="21.00855513862619" x2="0.7411809548974805" y2="21.034074173710934" class="delaunay-line"/>
<line x1="0.7411809548974805" y1="21.034074173710934" x2="1.5" y2="21.133974596215563" class="delaunay-line"/>
<line x1="1.5" y1="21.133974596215563" x2="1.1305261922200502" y2="21.00855513862619" class="delaunay-line"/>
<line x1="22.793353340291233" y1="1.6087614290087198" x2="21.034074173710934" y2="0.7411809548974809" class="delaunay-line"/>
<line x1="21.034074173710934" y1="0.7411809548974809" x2="21.74118095489748" y2="1.9659258262890673" class="delaunay-line"/>
<line x1="21.74118095489748" y1="1.9659258262890673" x2="22.793353340291233" y2="1.6087614290087198" class="delaunay-line"/>
<line x1="21.00855513862619" y1="1.1305261922200507" x2="21.034074173710934" y2="0.7411809548974809" class="delaunay-line"/>
<line x1="21.034074173710934" y1="0.7411809548974809" x2="15.604686356149273" y2="2.104686356149273" class="delaunay-line"/>
<line x1="15.604686356149273" y1="2.104686356149273" x2="21.00855513862619" y2="1.1305261922200507" class="delaunay-line"/>
<line x1="1.2588190451025194" y1="22.965925826289066" x2="1.60876142900872" y2="22.793353340291233" class="delaunay-line"/>
<line x1="1.60876142900872" y1="22.793353340291233" x2="1.9659258262890669" y2="21.74118095489748" class="delaunay-line"/>
<line x1="1.9659258262890669" y1="21.74118095489748" x2="1.2588190451025194" y2="22.965925826289066" class="delaunay-line"/>
<line x1="1.8660254037844386" y1="22.5" x2="1.60876142900872" y2="22.793353340291233" class="delaunay-line"/>
<line x1="1.60876142900872" y1="22.793353340291233" x2="6.39123857099128" y2="22.793353340291237" class="delaunay-line"/>
<line x1="6.39123857099128" y1="22.793353340291237" x2="1.8660254037844386" y2="22.5" class="delaunay-line"/>
<line x1="6.741180954897479" y1="22.96592582628907" x2="0" y2="24" class="delaunay-line"/>
<line x1="0" y1="24" x2="7.130526192220052" y2="22.99144486137381" class="delaunay-line"/>
<line x1="7.130526192220052" y1="22.99144486137381" x2="6.741180954897479" y2="22.96592582628907" class="delaunay-line"/>
<line x1="22.793353340291233" y1="1.6087614290087198" x2="22.793353340291237" y2="9.39123857099128" class="delaunay-line"/>
<line x1="22.793353340291237" y1="9.39123857099128" x2="24" y2="0" class="delaunay-line"/>
<line x1="24" y1="0" x2="22.793353340291233" y2="1.6087614290087198" class="delaunay-line"/>
<line x1="22.5" y1="1.8660254037844382" x2="22.793353340291233" y2="1.6087614290087198" class="delaunay-line"/>
<line x1="22.793353340291233" y1="1.6087614290087198" x2="22.130526192220053" y2="1.9914448613738098" class="delaunay-line"/>
<line x1="22.130526192220053" y1="1.9914448613738098" x2="22.5" y2="1.8660254037844382" class="delaunay-line"/>
<line x1="0" y1="0" x2="0.3912385709912801" y2="21.206646659708763" class="delaunay-line"/>
<line x1="0.3912385709912801" y1="21.206646659708763" x2="3.604686356149273" y2="17.104686356149273" class="delaunay-line"/>
<line x1="3.604686356149273" y1="17.104686356149273" x2="0" y2="0" class="delaunay-line"/>
<line x1="0.7411809548974805" y1="21.034074173710934" x2="1.2588190451025194" y2="22.965925826289066" class="delaunay-line"/>
<line x1="1.2588190451025194" y1="22.965925826289066" x2="1.9659258262890669" y2="21.74118095489748" class="delaunay-line"/>
<line x1="1.9659258262890669" y1="21.74118095489748" x2="0.7411809548974805" y2="21.034074173710934" class="delaunay-line"/>
<line x1="21.5" y1="0.13397459621556151" x2="21.206646659708763" y2="0.39123857099128057" class="delaunay-line"/>
<line x1="21.206646659708763" y1="0.39123857099128057" x2="21.034074173710934" y2="0.7411809548974809" class="delaunay-line"/>
<line x1="21.034074173710934" y1="0.7411809548974809" x2="21.5" y2="0.13397459621556151" class="delaunay-line"/>
<line x1="21.034074173710934" y1="0.7411809548974809" x2="21.206646659708763" y2="0.39123857099128057" class="delaunay-line"/>
<line x1="21.206646659708763" y1="0.39123857099128057" x2="15.604686356149273" y2="2.104686356149273" class="delaunay-line"/>
<line x1="15.604686356149273" y1="2.104686356149273" x2="21.034074173710934" y2="0.7411809548974809" class="delaunay-line"/>
<line x1="0.0340741737109328" y1="22.25881904510252" x2="1.2588190451025194" y2="22.965925826289066" class="delaunay-line"/>
<line x1="1.2588190451025194" y1="22.965925826289066" x2="0.7411809548974805" y2="21.034074173710934" class="delaunay-line"/>
<line x1="0.7411809548974805" y1="21.034074173710934" x2="0.0340741737109328" y2="22.25881904510252" class="delaunay-line"/>
<line x1="1.60876142900872" y1="22.793353340291233" x2="0" y2="24" class="delaunay-line"/>
<line x1="0" y1="24" x2="6.39123857099128" y2="22.793353340291237" class="delaunay-line"/>
<line x1="6.39123857099128" y1="22.793353340291237" x2="1.60876142900872" y2="22.793353340291233" class="delaunay-line"/>
<line x1="24" y1="0" x2="22.793353340291237" y2="9.39123857099128" class="delaunay-line"/>
<line x1="22.793353340291237" y1="9.39123857099128" x2="22.965925826289066" y2="9.741180954897478" class="delaunay-line"/>
<line x1="22.965925826289066" y1="9.741180954897478" x2="24" y2="0" class="delaunay-line"/>
<line x1="22.793353340291233" y1="1.6087614290087198" x2="22.965925826289066" y2="1.2588190451025194" class="delaunay-line"/>
<line x1="22.965925826289066" y1="1.2588190451025194" x2="21.034074173710934" y2="0.7411809548974809" class="delaunay-line"/>
<line x1="21.034074173710934" y1="0.7411809548974809" x2="22.793353340291233" y2="1.6087614290087198" class="delaunay-line"/>
<line x1="0" y1="0" x2="0.1339745962155613" y2="21.5" class="delaunay-line"/>
<line x1="0.1339745962155613" y1="21.5" x2="0.3912385709912801" y2="21.206646659708763" class="delaunay-line"/>
<line x1="0.3912385709912801" y1="21.206646659708763" x2="0" y2="0" class="delaunay-line"/>
<line x1="0.3912385709912801" y1="21.206646659708763" x2="0.1339745962155613" y2="21.5" class="delaunay-line"/>
<line x1="0.1339745962155613" y1="21.5" x2="0.7411809548974805" y2="21.034074173710934" class="delaunay-line"/>
<line x1="0.7411809548974805" y1="21.034074173710934" x2="0.3912385709912801" y2="21.206646659708763" class="delaunay-line"/>
<line x1="21.869473807779947" y1="0.008555138626190117" x2="21.5" y2="0.13397459621556151" class="delaunay-line"/>
<line x1="21.5" y1="0.13397459621556151" x2="21.034074173710934" y2="0.7411809548974809" class="delaunay-line"/>
<line x1="21.034074173710934" y1="0.7411809548974809" x2="21.869473807779947" y2="0.008555138626190117" class="delaunay-line"/>
<line x1="21.206646659708763" y1="0.39123857099128057" x2="21.5" y2="0.13397459621556151" class="delaunay-line"/>
<line x1="21.5" y1="0.13397459621556151" x2="15.604686356149273" y2="2.104686356149273" class="delaunay-line"/>
<line x1="15.604686356149273" y1="2.104686356149273" x2="21.206646659708763" y2="0.39123857099128057" class="delaunay-line"/>
<line x1="22.25881904510252" y1="19.96592582628907" x2="24" y2="24" class="delaunay-line"/>
<line x1="24" y1="24" x2="22.608761429008723" y2="19.793353340291237" class="delaunay-line"/>
<line x1="22.608761429008723" y1="19.793353340291237" x2="22.25881904510252" y2="19.96592582628907" class="delaunay-line"/>
<line x1="22.608761429008723" y1="19.793353340291237" x2="24" y2="24" class="delaunay-line"/>
<line x1="24" y1="24" x2="22.866025403784437" y2="19.499999999999996" class="delaunay-line"/>
<line x1="22.866025403784437" y1="19.499999999999996" x2="22.608761429008723" y2="19.793353340291237" class="delaunay-line"/>
<line x1="22.866025403784437" y1="19.499999999999996" x2="24" y2="24" class="delaunay-line"/>
<line x1="24" y1="24" x2="22.99144486137381" y2="19.130526192220053" class="delaunay-line"/>
<line x1="22.99144486137381" y1="19.130526192220053" x2="22.866025403784437" y2="19.499999999999996" class="delaunay-line"/>
<line x1="22.99144486137381" y1="19.130526192220053" x2="24" y2="24" class="delaunay-line"/>
<line x1="24" y1="24" x2="22.96592582628907" y2="18.74118095489748" class="delaunay-line"/>
<line x1="22.96592582628907" y1="18.74118095489748" x2="22.99144486137381" y2="19.130526192220053" class="delaunay-line"/>
<line x1="24" y1="0" x2="22.99144486137381" y2="0.8694738077799495" class="delaunay-line"/>
<line x1="22.99144486137381" y1="0.8694738077799495" x2="22.965925826289066" y2="1.2588190451025194" class="delaunay-line"/>
<line x1="22.965925826289066" y1="1.2588190451025194" x2="24" y2="0" class="delaunay-line"/>
<line x1="13.38268343236509" y1="22.923879532511286" x2="24" y2="24" class="delaunay-line"/>
<line x1="24" y1="24" x2="13.707106781186548" y2="22.707106781186546" class="delaunay-line"/>
<line x1="13.707106781186548" y1="22.707106781186546" x2="13.38268343236509" y2="22.923879532511286" class="delaunay-line"/>
<line x1="13" y1="23" x2="24" y2="24" class="delaunay-line"/>
<line x1="24" y1="24" x2="13.38268343236509" y2="22.923879532511286" class="delaunay-line"/>
<line x1="13.38268343236509" y1="22.923879532511286" x2="13" y2="23" class="delaunay-line"/>
<line x1="0" y1="24" x2="24" y2="24" class="delaunay-line"/>
<line x1="24" y1="24" x2="13" y2="23" class="delaunay-line"/>
<line x1="13" y1="23" x2="0" y2="24" class="delaunay-line"/>
<line x1="0" y1="24" x2="13" y2="23" class="delaunay-line"/>
<line x1="13" y1="23" x2="7.130526192220052" y2="22.99144486137381" class="delaunay-line"/>
<line x1="7.130526192220052" y1="22.99144486137381" x2="0" y2="24" class="delaunay-line"/>
<line x1="0.4999999999999999" y1="22.866025403784437" x2="0.8694738077799498" y2="22.99144486137381" class="delaunay-line"/>
<line x1="0.8694738077799498" y1="22.99144486137381" x2="1.2588190451025194" y2="22.965925826289066" class="delaunay-line"/>
<line x1="1.2588190451025194" y1="22.965925826289066" x2="0.4999999999999999" y2="22.866025403784437" class="delaunay-line"/>
<line x1="1.2588190451025194" y1="22.965925826289066" x2="0" y2="24" class="delaunay-line"/>
<line x1="0" y1="24" x2="1.60876142900872" y2="22.793353340291233" class="delaunay-line"/>
<line x1="1.60876142900872" y1="22.793353340291233" x2="1.2588190451025194" y2="22.965925826289066" class="delaunay-line"/>
<line x1="22.25881904510252" y1="0.03407417371093269" x2="21.869473807779947" y2="0.008555138626190117" class="delaunay-line"/>
<line x1="21.869473807779947" y1="0.008555138626190117" x2="21.034074173710934" y2="0.7411809548974809" class="delaunay-line"/>
<line x1="21.034074173710934" y1="0.7411809548974809" x2="22.25881904510252" y2="0.03407417371093269" class="delaunay-line"/>
<line x1="24" y1="0" x2="22.965925826289066" y2="9.741180954897478" class="delaunay-line"/>
<line x1="22.965925826289066" y1="9.741180954897478" x2="22.99144486137381" y2="10.130526192220051" class="delaunay-line"/>
<line x1="22.99144486137381" y1="10.130526192220051" x2="24" y2="0" class="delaunay-line"/>
<line x1="0" y1="0" x2="0.00855513862618984" y2="21.86947380777995" class="delaunay-line"/>
<line x1="0.00855513862618984" y1="21.86947380777995" x2="0.1339745962155613" y2="21.5" class="delaunay-line"/>
<line x1="0.1339745962155613" y1="21.5" x2="0" y2="0" class="delaunay-line"/>
<line x1="0.1339745962155613" y1="21.5" x2="0.00855513862618984" y2="21.86947380777995" class="delaunay-line"/>
<line x1="0.00855513862618984" y1="21.86947380777995" x2="0.7411809548974805" y2="21.034074173710934" class="delaunay-line"/>
<line x1="0.7411809548974805" y1="21.034074173710934" x2="0.1339745962155613" y2="21.5" class="delaunay-line"/>
<line x1="22.25881904510252" y1="0.03407417371093269" x2="21.034074173710934" y2="0.7411809548974809" class="delaunay-line"/>
<line x1="21.034074173710934" y1="0.7411809548974809" x2="22.965925826289066" y2="1.2588190451025194" class="delaunay-line"/>
<line x1="22.965925826289066" y1="1.2588190451025194" x2="22.25881904510252" y2="0.03407417371093269" class="delaunay-line"/>
<line x1="21.5" y1="0.13397459621556151" x2="0" y2="0" class="delaunay-line"/>
<line x1="0" y1="0" x2="15.604686356149273" y2="2.104686356149273" class="delaunay-line"/>
<line x1="15.604686356149273" y1="2.104686356149273" x2="21.5" y2="0.13397459621556151" class="delaunay-line"/>
<line x1="0.0340741737109328" y1="22.25881904510252" x2="0.4999999999999999" y2="22.866025403784437" class="delaunay-line"/>
<line x1="0.4999999999999999" y1="22.866025403784437" x2="1.2588190451025194" y2="22.965925826289066" class="delaunay-line"/>
<line x1="1.2588190451025194" y1="22.965925826289066" x2="0.0340741737109328" y2="22.25881904510252" class="delaunay-line"/>
<line x1="22.99144486137381" y1="0.8694738077799495" x2="22.866025403784437" y2="0.49999999999999956" class="delaunay-line"/>
<line x1="22.866025403784437" y1="0.49999999999999956" x2="22.965925826289066" y2="1.2588190451025194" class="delaunay-line"/>
<line x1="22.965925826289066" y1="1.2588190451025194" x2="22.99144486137381" y2="0.8694738077799495" class="delaunay-line"/>
<line x1="0.00855513862618984" y1="21.86947380777995" x2="0.0340741737109328" y2="22.25881904510252" class="delaunay-line"/>
<line x1="0.0340741737109328" y1="22.25881904510252" x2="0.7411809548974805" y2="21.034074173710934" class="delaunay-line"/>
<line x1="0.7411809548974805" y1="21.034074173710934" x2="0.00855513862618984" y2="21.86947380777995" class="delaunay-line"/>
<line x1="22.866025403784437" y1="0.49999999999999956" x2="22.25881904510252" y2="0.03407417371093269" class="delaunay-line"/>
<line x1="22.25881904510252" y1="0.03407417371093269" x2="22.965925826289066" y2="1.2588190451025194" class="delaunay-line"/>
<line x1="22.965925826289066" y1="1.2588190451025194" x2="22.866025403784437" y2="0.49999999999999956" class="delaunay-line"/>
<line x1="0.0340741737109328" y1="22.25881904510252" x2="0.20664665970876334" y2="22.60876142900872" class="delaunay-line"/>
<line x1="0.20664665970876334" y1="22.60876142900872" x2="0.4999999999999999" y2="22.866025403784437" class="delaunay-line"/>
<line x1="0.4999999999999999" y1="22.866025403784437" x2="0.0340741737109328" y2="22.25881904510252" class="delaunay-line"/>
<line x1="22.866025403784437" y1="0.49999999999999956" x2="22.60876142900872" y2="0.20664665970876311" class="delaunay-line"/>
<line x1="22.60876142900872" y1="0.20664665970876311" x2="22.25881904510252" y2="0.03407417371093269" class="delaunay-line"/>
<line x1="22.25881904510252" y1="0.03407417371093269" x2="22.866025403784437" y2="0.49999999999999956" class="delaunay-line"/>
<line x1="0.00855513862618984" y1="21.86947380777995" x2="0" y2="24" class="delaunay-line"/>
<line x1="0" y1="24" x2="0.0340741737109328" y2="22.25881904510252" class="delaunay-line"/>
<line x1="0.0340741737109328" y1="22.25881904510252" x2="0.00855513862618984" y2="21.86947380777995" class="delaunay-line"/>
<line x1="0.0340741737109328" y1="22.25881904510252" x2="0" y2="24" class="delaunay-line"/>
<line x1="0" y1="24" x2="0.20664665970876334" y2="22.60876142900872" class="delaunay-line"/>
<line x1="0.20664665970876334" y1="22.60876142900872" x2="0.0340741737109328" y2="22.25881904510252" class="delaunay-line"/>
<line x1="0.20664665970876334" y1="22.60876142900872" x2="0" y2="24" class="delaunay-line"/>
<line x1="0" y1="24" x2="0.4999999999999999" y2="22.866025403784437" class="delaunay-line"/>
<line x1="0.4999999999999999" y1="22.866025403784437" x2="0.20664665970876334" y2="22.60876142900872" class="delaunay-line"/>
<line x1="0.4999999999999999" y1="22.866025403784437" x2="0" y2="24" class="delaunay-line"/>
<line x1="0" y1="24" x2="0.8694738077799498" y2="22.99144486137381" class="delaunay-line"/>
<line x1="0.8694738077799498" y1="22.99144486137381" x2="0.4999999999999999" y2="22.866025403784437" class="delaunay-line"/>
<line x1="0.8694738077799498" y1="22.99144486137381" x2="0" y2="24" class="delaunay-line"/>
<line x1="0" y1="24" x2="1.2588190451025194" y2="22.965925826289066" class="delaunay-line"/>
<line x1="1.2588190451025194" y1="22.965925826289066" x2="0.8694738077799498" y2="22.99144486137381" class="delaunay-line"/>
<line x1="24" y1="24" x2="24" y2="0" class="delaunay-line"/>
<line x1="24" y1="0" x2="22.99144486137381" y2="10.130526192220051" class="delaunay-line"/>
<line x1="22.99144486137381" y1="10.130526192220051" x2="24" y2="24" class="delaunay-line"/>
<line x1="22.99144486137381" y1="0.8694738077799495" x2="24" y2="0" class="delaunay-line"/>
<line x1="24" y1="0" x2="22.866025403784437" y2="0.49999999999999956" class="delaunay-line"/>
<line x1="22.866025403784437" y1="0.49999999999999956" x2="22.99144486137381" y2="0.8694738077799495" class="delaunay-line"/>
<line x1="22.866025403784437" y1="0.49999999999999956" x2="24" y2="0" class="delaunay-line"/>
<line x1="24" y1="0" x2="22.60876142900872" y2="0.20664665970876311" class="delaunay-line"/>
<line x1="22.60876142900872" y1="0.20664665970876311" x2="22.866025403784437" y2="0.49999999999999956" class="delaunay-line"/>
<line x1="22.60876142900872" y1="0.20664665970876311" x2="24" y2="0" class="delaunay-line"/>
<line x1="24" y1="0" x2="22.25881904510252" y2="0.03407417371093269" class="delaunay-line"/>
<line x1="22.25881904510252" y1="0.03407417371093269" x2="22.60876142900872" y2="0.20664665970876311" class="delaunay-line"/>
<line x1="22.25881904510252" y1="0.03407417371093269" x2="24" y2="0" class="delaunay-line"/>
<line x1="24" y1="0" x2="21.869473807779947" y2="0.008555138626190117" class="delaunay-line"/>
<line x1="21.869473807779947" y1="0.008555138626190117" x2="22.25881904510252" y2="0.03407417371093269" class="delaunay-line"/>
<line x1="21.869473807779947" y1="0.008555138626190117" x2="0" y2="0" class="delaunay-line"/>
<line x1="0" y1="0" x2="21.5" y2="0.13397459621556151" class="delaunay-line"/>
<line x1="21.5" y1="0.13397459621556151" x2="21.869473807779947" y2="0.008555138626190117" class="delaunay-line"/>
<line x1="3.604686356149273" y1="2.104686356149273" x2="0" y2="0" class="delaunay-line"/>
<line x1="0" y1="0" x2="3.604686356149273" y2="17.104686356149273" class="delaunay-line"/>
<line x1="3.604686356149273" y1="17.104686356149273" x2="3.604686356149273" y2="2.104686356149273" class="delaunay-line"/>
<line x1="0.00855513862618984" y1="21.86947380777995" x2="0" y2="0" class="delaunay-line"/>
<line x1="0" y1="0" x2="0" y2="24" class="delaunay-line"/>
<line x1="0" y1="24" x2="0.00855513862618984" y2="21.86947380777995" class="delaunay-line"/>
<line x1="24" y1="0" x2="0" y2="0" class="delaunay-line"/>
<line x1="0" y1="0" x2="21.869473807779947" y2="0.008555138626190117" class="delaunay-line"/>
<line x1="21.869473807779947" y1="0.008555138626190117" x2="24" y2="0" class="delaunay-line"/>
</g>
<g id="layer-area" class="layer ">
<polygon points="3.604686356149273,2.104686356149273 15.604686356149273,2.104686356149273 15.604686356149273,17.104686356149273 3.604686356149273,17.104686356149273" class="terrain-area"/>
<text x="9.604686356149273" y="9.604686356149273" class="label">#C49A6C</text>
</g>
<g id="layer-building" class="layer ">
<polygon points="10.403124237432849,11.403124237432849 2.403124237432849,11.403124237432849 2.403124237432848,1.4031242374328494 10.403124237432849,1.4031242374328476" class="terrain-solid"/>
<text x="6.4031242374328485" y="6.4031242374328485" class="label">#000000</text>
</g>
<g id="layer-wall" class="layer ">
<polygon points="14.75389618463409,15.107449575227367 15.107449575227367,14.75389618463409 19.35009026234665,18.996536871753374 18.996536871753374,19.35009026234665" class="terrain-solid"/>
<text x="17.05199322349037" y="17.05199322349037" class="label">#555555</text>
<polygon points="14.75389618463409,1.065854996435069 15.107449575227367,0.712301605841795 19.35009026234665,4.9549422929610785 18.996536871753374,5.308495683554353" class="terrain-solid"/>
<text x="17.05199322349037" y="3.010398644698074" class="label">#555555</text>
<polygon points="7.733098895237942,15.107449575227367 8.086652285831214,14.75389618463409 12.329292972950501,18.996536871753374 11.975739582357228,19.35009026234665" class="terrain-solid"/>
<text x="10.031195934094221" y="17.05199322349037" class="label">#555555</text>
<polygon points="0.7123016058417941,15.107449575227367 1.065854996435068,14.75389618463409 5.308495683554353,18.996536871753374 4.95494229296108,19.35009026234665" class="terrain-solid"/>
<text x="3.010398644698074" y="17.05199322349037" class="label">#555555</text>
</g>
<g id="layer-tree" class="layer ">
<polygon points="22.25881904510252,19.96592582628907 21.869473807779947,19.99144486137381 21.500000000000004,19.866025403784437 21.206646659708763,19.608761429008723 21.03407417371093,19.25881904510252 21.00855513862619,18.869473807779947 21.133974596215563,18.500000000000004 21.391238570991277,18.206646659708763 21.74118095489748,18.03407417371093 22.130526192220053,18.00855513862619 22.499999999999996,18.133974596215563 22.793353340291237,18.391238570991277 22.96592582628907,18.74118095489748 22.99144486137381,19.130526192220053 22.866025403784437,19.499999999999996 22.608761429008723,19.793353340291237" class="terrain-solid"/>
<text x="22" y="18.999999999999996" class="label">#90EE90</text>
<polygon points="13.5,13.86602540378444 13.130526192220051,13.991444861373811 12.74118095489748,13.96592582628907 12.39123857099128,13.793353340291235 12.13397459621556,13.5 12.008555138626189,13.130526192220051 12.03407417371093,12.74118095489748 12.206646659708765,12.39123857099128 12.5,12.13397459621556 12.869473807779949,12.008555138626189 13.25881904510252,12.03407417371093 13.60876142900872,12.206646659708765 13.86602540378444,12.5 13.991444861373811,12.869473807779949 13.96592582628907,13.25881904510252 13.793353340291235,13.60876142900872" class="terrain-solid"/>
<text x="13.000000000000002" y="12.999999999999998" class="label">#90EE90</text>
<polygon points="21.5,0.13397459621556151 21.869473807779947,0.008555138626190117 22.25881904510252,0.03407417371093269 22.60876142900872,0.20664665970876311 22.866025403784437,0.49999999999999956 22.99144486137381,0.8694738077799495 22.965925826289066,1.2588190451025194 22.793353340291233,1.6087614290087198 22.5,1.8660254037844382 22.130526192220053,1.9914448613738098 21.74118095489748,1.9659258262890673 21.39123857099128,1.793353340291237 21.133974596215563,1.5000000000000004 21.00855513862619,1.1305261922200507 21.034074173710934,0.7411809548974809 21.206646659708763,0.39123857099128057" class="terrain-solid"/>
<text x="22.000000000000007" y="1" class="label">#90EE90</text>
<polygon points="13.707106781186548,21.292893218813454 13.923879532511286,21.617316567634912 14,22 13.923879532511288,22.38268343236509 13.707106781186548,22.707106781186546 13.38268343236509,22.923879532511286 13,23 12.617316567634912,22.92387953251129 12.292893218813452,22.707106781186546 12.076120467488714,22.382683432365088 12,22 12.076120467488712,21.61731656763491 12.292893218813452,21.292893218813454 12.61731656763491,21.076120467488714 13,21 13.382683432365088,21.07612046748871" class="terrain-solid"/>
<text x="13" y="21.999999999999996" class="label">#90EE90</text>
<polygon points="21.133974596215563,9.5 21.39123857099128,9.206646659708765 21.74118095489748,9.034074173710932 22.13052619222005,9.008555138626189 22.5,9.13397459621556 22.793353340291237,9.39123857099128 22.965925826289066,9.741180954897478 22.99144486137381,10.130526192220051 22.866025403784437,10.5 22.60876142900872,10.793353340291235 22.25881904510252,10.965925826289068 21.86947380777995,10.991444861373811 21.5,10.86602540378444 21.206646659708763,10.60876142900872 21.034074173710934,10.258819045102522 21.00855513862619,9.869473807779949" class="terrain-solid"/>
<text x="22" y="9.999999999999998" class="label">#90EE90</text>
<polygon points="1.5,21.133974596215563 1.7933533402912367,21.39123857099128 1.9659258262890669,21.74118095489748 1.99144486137381,22.130526192220053 1.8660254037844386,22.5 1.60876142900872,22.793353340291233 1.2588190451025194,22.965925826289066 0.8694738077799498,22.99144486137381 0.4999999999999999,22.866025403784437 0.20664665970876334,22.60876142900872 0.0340741737109328,22.25881904510252 0.00855513862618984,21.86947380777995 0.1339745962155613,21.5 0.3912385709912801,21.206646659708763 0.7411809548974805,21.034074173710934 1.1305261922200502,21.00855513862619" class="terrain-solid"/>
<text x="0.9999999999999998" y="22.000000000000007" class="label">#90EE90</text>
<polygon points="7.965925826289069,22.25881904510252 7.793353340291235,22.608761429008723 7.500000000000001,22.866025403784437 7.130526192220052,22.99144486137381 6.741180954897479,22.96592582628907 6.39123857099128,22.793353340291237 6.133974596215562,22.499999999999996 6.008555138626189,22.130526192220053 6.034074173710931,21.74118095489748 6.206646659708765,21.391238570991277 6.499999999999999,21.133974596215563 6.869473807779947,21.00855513862619 7.258819045102521,21.03407417371093 7.60876142900872,21.206646659708763 7.8660254037844375,21.500000000000004 7.99144486137381,21.869473807779947" class="terrain-solid"/>
<text x="6.999999999999999" y="22" class="label">#90EE90</text>
</g>
<g id="layer-rocks" class="layer ">
</g>
<g id="layer-shrub" class="layer ">
</g>
<g id="layer-terrain" class="layer ">
</g>
<g id="layer-models" class="layer ">
<circle cx="2" cy="12" r="0.5" fill="#2a9d8f" class="model"/>
<text x="2.7" y="12" class="label">Attacker</text>
<circle cx="22" cy="12" r="0.5" fill="#e76f51" class="model"/>
<text x="22.7" y="12" class="label">Target</text>
<circle cx="8" cy="12" r="0.5" fill="#f4a261" class="model"/>
<text x="8.7" y="12" class="label">SIZ 3</text>
<circle cx="12" cy="12" r="0.75" fill="#e9c46a" class="model"/>
<text x="12.95" y="12" class="label">SIZ 4</text>
<circle cx="16" cy="12" r="1" fill="#cdb4db" class="model"/>
<text x="17.2" y="12" class="label">SIZ 5</text>
</g>
<g id="layer-paths" class="layer ">
</g>
<g id="layer-vectors" class="layer ">
</g>
<g id="layer-los" class="layer ">
</g>
<g id="layer-lof" class="layer ">
<line x1="2" y1="12" x2="22" y2="12" class="lof-ray" stroke="#264653"/>
<text x="12.2" y="12.2" class="label">LOF</text>
</g>
<g id="layer-annotations" class="layer">
<text x="3" y="13" class="label" fill="#111">LOF models: attacker, target, s3, s4, s5</text>
<text x="3" y="14" class="label" fill="#111">Friendly fire: target</text>
</g>
<g id="legend">
<g class="toggle" onclick="toggleLayer('grid')"><rect x="0.4" y="0.14999999999999997" width="0.4" height="0.4" fill="#222" stroke="#222" stroke-width="0.05"/><text x="1.0" y="0.5499999999999999" class="label">0.5 MU Grid</text></g>
<g class="toggle" onclick="toggleLayer('delaunay')"><rect x="0.4" y="0.95" width="0.4" height="0.4" fill="#222" stroke="#222" stroke-width="0.05"/><text x="1.0" y="1.3499999999999999" class="label">Delaunay Mesh</text></g>
<g class="toggle" onclick="toggleLayer('area')"><rect x="0.4" y="1.7500000000000002" width="0.4" height="0.4" fill="#222" stroke="#222" stroke-width="0.05"/><text x="1.0" y="2.1500000000000004" class="label">Area Terrain</text></g>
<g class="toggle" onclick="toggleLayer('building')"><rect x="0.4" y="2.55" width="0.4" height="0.4" fill="#222" stroke="#222" stroke-width="0.05"/><text x="1.0" y="2.95" class="label">Buildings</text></g>
<g class="toggle" onclick="toggleLayer('wall')"><rect x="0.4" y="3.3499999999999996" width="0.4" height="0.4" fill="#222" stroke="#222" stroke-width="0.05"/><text x="1.0" y="3.75" class="label">Walls</text></g>
<g class="toggle" onclick="toggleLayer('tree')"><rect x="0.4" y="4.1499999999999995" width="0.4" height="0.4" fill="#222" stroke="#222" stroke-width="0.05"/><text x="1.0" y="4.55" class="label">Trees</text></g>
<g class="toggle disabled"><rect x="0.4" y="4.949999999999999" width="0.4" height="0.4" fill="#222" stroke="#222" stroke-width="0.05"/><text x="1.0" y="5.35" class="label">Rocks</text></g>
<g class="toggle disabled"><rect x="0.4" y="5.749999999999999" width="0.4" height="0.4" fill="#222" stroke="#222" stroke-width="0.05"/><text x="1.0" y="6.1499999999999995" class="label">Shrubs</text></g>
<g class="toggle" onclick="toggleLayer('terrain')"><rect x="0.4" y="6.549999999999999" width="0.4" height="0.4" fill="#222" stroke="#222" stroke-width="0.05"/><text x="1.0" y="6.949999999999999" class="label">Other Terrain</text></g>
<g class="toggle" onclick="toggleLayer('models')"><rect x="0.4" y="7.349999999999999" width="0.4" height="0.4" fill="#222" stroke="#222" stroke-width="0.05"/><text x="1.0" y="7.749999999999999" class="label">Models</text></g>
<g class="toggle" onclick="toggleLayer('paths')"><rect x="0.4" y="8.15" width="0.4" height="0.4" fill="#222" stroke="#222" stroke-width="0.05"/><text x="1.0" y="8.549999999999999" class="label">Paths</text></g>
<g class="toggle" onclick="toggleLayer('vectors')"><rect x="0.4" y="8.950000000000001" width="0.4" height="0.4" fill="#222" stroke="#222" stroke-width="0.05"/><text x="1.0" y="9.35" class="label">Vectors</text></g>
<g class="toggle" onclick="toggleLayer('los')"><rect x="0.4" y="9.750000000000002" width="0.4" height="0.4" fill="#222" stroke="#222" stroke-width="0.05"/><text x="1.0" y="10.15" class="label">LOS</text></g>
<g class="toggle" onclick="toggleLayer('lof')"><rect x="0.4" y="10.550000000000002" width="0.4" height="0.4" fill="#222" stroke="#222" stroke-width="0.05"/><text x="1.0" y="10.950000000000001" class="label">LOF</text></g>
</g>
</svg>