<svg xmlns="http://www.w3.org/2000/svg" viewBox="0 0 24 24" width="960" height="960" font-family="Arial" font-size="0.6">
<defs>
  <style><![CDATA[
    .layer { display: inline; }
    .layer.hidden { display: none; }
    .grid-line { stroke: #999; stroke-width: 0.02; opacity: 0.2; }
    .delaunay-line { stroke: #4a6fa5; stroke-width: 0.03; opacity: 0.3; }
    .terrain-area { stroke: #000; stroke-width: 0.05; }
    .terrain-solid { stroke: #000; stroke-width: 0.05; }
    .model { stroke: #000; stroke-width: 0.05; }
    .path { fill: none; stroke-width: 0.12; }
    .vector { stroke-width: 0.1; }
    .los-ray { stroke-width: 0.08; stroke-dasharray: 0.2 0.2; }
    .lof-ray { stroke-width: 0.08; stroke-dasharray: 0.3 0.15; }
    .label { fill: #111; font-size: 0.6px; }
    .toggle { cursor: pointer; }
  ]]></style>
</defs>
<rect x="0" y="0" width="24" height="24" fill="#ffffff" stroke="#111" stroke-width="0.05"/>
<g id="legend">
<g class="toggle" onclick="toggleLayer('grid')"><rect x="0.4" y="0.14999999999999997" width="0.4" height="0.4" fill="#222" stroke="#222" stroke-width="0.05"/><text x="1.0" y="0.5499999999999999" class="label">0.5 MU Grid</text></g>
<g class="toggle" onclick="toggleLayer('delaunay')"><rect x="0.4" y="0.95" width="0.4" height="0.4" fill="#222" stroke="#222" stroke-width="0.05"/><text x="1.0" y="1.3499999999999999" class="label">Delaunay Mesh</text></g>
<g class="toggle" onclick="toggleLayer('area')"><rect x="0.4" y="1.7500000000000002" width="0.4" height="0.4" fill="#222" stroke="#222" stroke-width="0.05"/><text x="1.0" y="2.1500000000000004" class="label">Area Terrain</text></g>
<g class="toggle" onclick="toggleLayer('terrain')"><rect x="0.4" y="2.55" width="0.4" height="0.4" fill="#222" stroke="#222" stroke-width="0.05"/><text x="1.0" y="2.95" class="label">Other Terrain</text></g>
<g class="toggle" onclick="toggleLayer('models')"><rect x="0.4" y="3.3499999999999996" width="0.4" height="0.4" fill="#222" stroke="#222" stroke-width="0.05"/><text x="1.0" y="3.75" class="label">Models</text></g>
<g class="toggle" onclick="toggleLayer('paths')"><rect x="0.4" y="4.1499999999999995" width="0.4" height="0.4" fill="#222" stroke="#222" stroke-width="0.05"/><text x="1.0" y="4.55" class="label">Paths</text></g>
<g class="toggle" onclick="toggleLayer('vectors')"><rect x="0.4" y="4.949999999999999" width="0.4" height="0.4" fill="#222" stroke="#222" stroke-width="0.05"/><text x="1.0" y="5.35" class="label">Vectors</text></g>
<g class="toggle" onclick="toggleLayer('los')"><rect x="0.4" y="5.749999999999999" width="0.4" height="0.4" fill="#222" stroke="#222" stroke-width="0.05"/><text x="1.0" y="6.1499999999999995" class="label">LOS</text></g>
<g class="toggle" onclick="toggleLayer('lof')"><rect x="0.4" y="6.549999999999999" width="0.4" height="0.4" fill="#222" stroke="#222" stroke-width="0.05"/><text x="1.0" y="6.949999999999999" class="label">LOF</text></g>
</g>
<script><![CDATA[
      function toggleLayer(id) {
        var layer = document.getElementById('layer-' + id);
        if (!layer) return;
        if (layer.classList.contains('hidden')) {
          layer.classList.remove('hidden');
        } else {
          layer.classList.add('hidden');
        }
      }
    ]]></script>
<text x="0.4" y="23.6" class="label">Battlefield 24x24 density 50 blockLOS 0</text>
<g id="layer-grid" class="layer ">
<line x1="0" y1="0" x2="0" y2="24" class="grid-line"/>
<line x1="0.5" y1="0" x2="0.5" y2="24" class="grid-line"/>
<line x1="1" y1="0" x2="1" y2="24" class="grid-line"/>
<line x1="1.5" y1="0" x2="1.5" y2="24" class="grid-line"/>
<line x1="2" y1="0" x2="2" y2="24" class="grid-line"/>
<line x1="2.5" y1="0" x2="2.5" y2="24" class="grid-line"/>
<line x1="3" y1="0" x2="3" y2="24" class="grid-line"/>
<line x1="3.5" y1="0" x2="3.5" y2="24" class="grid-line"/>
<line x1="4" y1="0" x2="4" y2="24" class="grid-line"/>
<line x1="4.5" y1="0" x2="4.5" y2="24" class="grid-line"/>
<line x1="5" y1="0" x2="5" y2="24" class="grid-line"/>
<line x1="5.5" y1="0" x2="5.5" y2="24" class="grid-line"/>
<line x1="6" y1="0" x2="6" y2="24" class="grid-line"/>
<line x1="6.5" y1="0" x2="6.5" y2="24" class="grid-line"/>
<line x1="7" y1="0" x2="7" y2="24" class="grid-line"/>
<line x1="7.5" y1="0" x2="7.5" y2="24" class="grid-line"/>
<line x1="8" y1="0" x2="8" y2="24" class="grid-line"/>
<line x1="8.5" y1="0" x2="8.5" y2="24" class="grid-line"/>
<line x1="9" y1="0" x2="9" y2="24" class="grid-line"/>
<line x1="9.5" y1="0" x2="9.5" y2="24" class="grid-line"/>
<line x1="10" y1="0" x2="10" y2="24" class="grid-line"/>
<line x1="10.5" y1="0" x2="10.5" y2="24" class="grid-line"/>
<line x1="11" y1="0" x2="11" y2="24" class="grid-line"/>
<line x1="11.5" y1="0" x2="11.5" y2="24" class="grid-line"/>
<line x1="12" y1="0" x2="12" y2="24" class="grid-line"/>
<line x1="12.5" y1="0" x2="12.5" y2="24" class="grid-line"/>
<line x1="13" y1="0" x2="13" y2="24" class="grid-line"/>
<line x1="13.5" y1="0" x2="13.5" y2="24" class="grid-line"/>
<line x1="14" y1="0" x2="14" y2="24" class="grid-line"/>
<line x1="14.5" y1="0" x2="14.5" y2="24" class="grid-line"/>
<line x1="15" y1="0" x2="15" y2="24" class="grid-line"/>
<line x1="15.5" y1="0" x2="15.5" y2="24" class="grid-line"/>
<line x1="16" y1="0" x2="16" y2="24" class="grid-line"/>
<line x1="16.5" y1="0" x2="16.5" y2="24" class="grid-line"/>
<line x1="17" y1="0" x2="17" y2="24" class="grid-line"/>
<line x1="17.5" y1="0" x2="17.5" y2="24" class="grid-line"/>
<line x1="18" y1="0" x2="18" y2="24" class="grid-line"/>
<line x1="18.5" y1="0" x2="18.5" y2="24" class="grid-line"/>
<line x1="19" y1="0" x2="19" y2="24" class="grid-line"/>
<line x1="19.5" y1="0" x2="19.5" y2="24" class="grid-line"/>
<line x1="20" y1="0" x2="20" y2="24" class="grid-line"/>
<line x1="20.5" y1="0" x2="20.5" y2="24" class="grid-line"/>
<line x1="21" y1="0" x2="21" y2="24" class="grid-line"/>
<line x1="21.5" y1="0" x2="21.5" y2="24" class="grid-line"/>
<line x1="22" y1="0" x2="22" y2="24" class="grid-line"/>
<line x1="22.5" y1="0" x2="22.5" y2="24" class="grid-line"/>
<line x1="23" y1="0" x2="23" y2="24" class="grid-line"/>
<line x1="23.5" y1="0" x2="23.5" y2="24" class="grid-line"/>
<line x1="24" y1="0" x2="24" y2="24" class="grid-line"/>
<line x1="0" y1="0" x2="24" y2="0" class="grid-line"/>
<line x1="0" y1="0.5" x2="24" y2="0.5" class="grid-line"/>
<line x1="0" y1="1" x2="24" y2="1" class="grid-line"/>
<line x1="0" y1="1.5" x2="24" y2="1.5" class="grid-line"/>
<line x1="0" y1="2" x2="24" y2="2" class="grid-line"/>
<line x1="0" y1="2.5" x2="24" y2="2.5" class="grid-line"/>
<line x1="0" y1="3" x2="24" y2="3" class="grid-line"/>
<line x1="0" y1="3.5" x2="24" y2="3.5" class="grid-line"/>
<line x1="0" y1="4" x2="24" y2="4" class="grid-line"/>
<line x1="0" y1="4.5" x2="24" y2="4.5" class="grid-line"/>
<line x1="0" y1="5" x2="24" y2="5" class="grid-line"/>
<line x1="0" y1="5.5" x2="24" y2="5.5" class="grid-line"/>
<line x1="0" y1="6" x2="24" y2="6" class="grid-line"/>
<line x1="0" y1="6.5" x2="24" y2="6.5" class="grid-line"/>
<line x1="0" y1="7" x2="24" y2="7" class="grid-line"/>
<line x1="0" y1="7.5" x2="24" y2="7.5" class="grid-line"/>
<line x1="0" y1="8" x2="24" y2="8" class="grid-line"/>
<line x1="0" y1="8.5" x2="24" y2="8.5" class="grid-line"/>
<line x1="0" y1="9" x2="24" y2="9" class="grid-line"/>
<line x1="0" y1="9.5" x2="24" y2="9.5" class="grid-line"/>
<line x1="0" y1="10" x2="24" y2="10" class="grid-line"/>
<line x1="0" y1="10.5" x2="24" y2="10.5" class="grid-line"/>
<line x1="0" y1="11" x2="24" y2="11" class="grid-line"/>
<line x1="0" y1="11.5" x2="24" y2="11.5" class="grid-line"/>
<line x1="0" y1="12" x2="24" y2="12" class="grid-line"/>
<line x1="0" y1="12.5" x2="24" y2="12.5" class="grid-line"/>
<line x1="0" y1="13" x2="24" y2="13" class="grid-line"/>
<line x1="0" y1="13.5" x2="24" y2="13.5" class="grid-line"/>
<line x1="0" y1="14" x2="24" y2="14" class="grid-line"/>
<line x1="0" y1="14.5" x2="24" y2="14.5" class="grid-line"/>
<line x1="0" y1="15" x2="24" y2="15" class="grid-line"/>
<line x1="0" y1="15.5" x2="24" y2="15.5" class="grid-line"/>
<line x1="0" y1="16" x2="24" y2="16" class="grid-line"/>
<line x1="0" y1="16.5" x2="24" y2="16.5" class="grid-line"/>
<line x1="0" y1="17" x2="24" y2="17" class="grid-line"/>
<line x1="0" y1="17.5" x2="24" y2="17.5" class="grid-line"/>
<line x1="0" y1="18" x2="24" y2="18" class="grid-line"/>
<line x1="0" y1="18.5" x2="24" y2="18.5" class="grid-line"/>
<line x1="0" y1="19" x2="24" y2="19" class="grid-line"/>
<line x1="0" y1="19.5" x2="24" y2="19.5" class="grid-line"/>
<line x1="0" y1="20" x2="24" y2="20" class="grid-line"/>
<line x1="0" y1="20.5" x2="24" y2="20.5" class="grid-line"/>
<line x1="0" y1="21" x2="24" y2="21" class="grid-line"/>
<line x1="0" y1="21.5" x2="24" y2="21.5" class="grid-line"/>
<line x1="0" y1="22" x2="24" y2="22" class="grid-line"/>
<line x1="0" y1="22.5" x2="24" y2="22.5" class="grid-line"/>
<line x1="0" y1="23" x2="24" y2="23" class="grid-line"/>
<line x1="0" y1="23.5" x2="24" y2="23.5" class="grid-line"/>
<line x1="0" y1="24" x2="24" y2="24" class="grid-line"/>
</g>
<g id="layer-delaunay" class="layer ">
<line x1="13.929930651653878" y1="16.357771173114756" x2="13.62632747231292" y2="16.590734086259292" class="delaunay-line"/>
<line x1="13.62632747231292" y1="16.590734086259292" x2="14.124603270315163" y2="16.345011655572385" class="delaunay-line"/>
<line x1="14.124603270315163" y1="16.345011655572385" x2="13.929930651653878" y2="16.357771173114756" class="delaunay-line"/>
<line x1="13.929930651653878" y1="16.357771173114756" x2="13.754959459700778" y2="16.444057416113672" class="delaunay-line"/>
<line x1="13.754959459700778" y1="16.444057416113672" x2="13.62632747231292" y2="16.590734086259292" class="delaunay-line"/>
<line x1="13.62632747231292" y1="16.590734086259292" x2="13.929930651653878" y2="16.357771173114756" class="delaunay-line"/>
<line x1="14.456016844350756" y1="16.536353371754934" x2="14.309340174205138" y2="16.407721384367072" class="delaunay-line"/>
<line x1="14.309340174205138" y1="16.407721384367072" x2="14.124603270315163" y2="16.345011655572385" class="delaunay-line"/>
<line x1="14.124603270315163" y1="16.345011655572385" x2="14.456016844350756" y2="16.536353371754934" class="delaunay-line"/>
<line x1="13.62632747231292" y1="16.590734086259292" x2="14.456016844350756" y2="16.536353371754934" class="delaunay-line"/>
<line x1="14.456016844350756" y1="16.536353371754934" x2="14.124603270315163" y2="16.345011655572385" class="delaunay-line"/>
<line x1="14.124603270315163" y1="16.345011655572385" x2="13.62632747231292" y2="16.590734086259292" class="delaunay-line"/>
<line x1="13.62632747231292" y1="16.590734086259292" x2="14.542303087349671" y2="16.711324563708033" class="delaunay-line"/>
<line x1="14.542303087349671" y1="16.711324563708033" x2="14.456016844350756" y2="16.536353371754934" class="delaunay-line"/>
<line x1="14.456016844350756" y1="16.536353371754934" x2="13.62632747231292" y2="16.590734086259292" class="delaunay-line"/>
<line x1="13.576377261060605" y1="16.970143608810552" x2="14.542303087349671" y2="16.711324563708033" class="delaunay-line"/>
<line x1="14.542303087349671" y1="16.711324563708033" x2="13.62632747231292" y2="16.590734086259292" class="delaunay-line"/>
<line x1="13.62632747231292" y1="16.590734086259292" x2="13.576377261060605" y2="16.970143608810552" class="delaunay-line"/>
<line x1="13.563617743518233" y1="16.775470990149266" x2="13.576377261060605" y2="16.970143608810552" class="delaunay-line"/>
<line x1="13.576377261060605" y1="16.970143608810552" x2="13.62632747231292" y2="16.590734086259292" class="delaunay-line"/>
<line x1="13.62632747231292" y1="16.590734086259292" x2="13.563617743518233" y2="16.775470990149266" class="delaunay-line"/>
<line x1="13.576377261060605" y1="16.970143608810552" x2="13.66266350405952" y2="17.14511480076365" class="delaunay-line"/>
<line x1="13.66266350405952" y1="17.14511480076365" x2="14.542303087349671" y2="16.711324563708033" class="delaunay-line"/>
<line x1="14.542303087349671" y1="16.711324563708033" x2="13.576377261060605" y2="16.970143608810552" class="delaunay-line"/>
<line x1="14.492352876097357" y1="17.090734086259292" x2="14.555062604892044" y2="16.90599718236932" class="delaunay-line"/>
<line x1="14.555062604892044" y1="16.90599718236932" x2="14.542303087349671" y2="16.711324563708033" class="delaunay-line"/>
<line x1="14.542303087349671" y1="16.711324563708033" x2="14.492352876097357" y2="17.090734086259292" class="delaunay-line"/>
<line x1="13.66266350405952" y1="17.14511480076365" x2="14.492352876097357" y2="17.090734086259292" class="delaunay-line"/>
<line x1="14.492352876097357" y1="17.090734086259292" x2="14.542303087349671" y2="16.711324563708033" class="delaunay-line"/>
<line x1="14.542303087349671" y1="16.711324563708033" x2="13.66266350405952" y2="17.14511480076365" class="delaunay-line"/>
<line x1="13.66266350405952" y1="17.14511480076365" x2="13.994077078095113" y2="17.3364565169462" class="delaunay-line"/>
<line x1="13.994077078095113" y1="17.3364565169462" x2="14.492352876097357" y2="17.090734086259292" class="delaunay-line"/>
<line x1="14.492352876097357" y1="17.090734086259292" x2="13.66266350405952" y2="17.14511480076365" class="delaunay-line"/>
<line x1="14.188749696756398" y1="17.32369699940383" x2="14.363720888709498" y2="17.237410756404913" class="delaunay-line"/>
<line x1="14.363720888709498" y1="17.237410756404913" x2="14.492352876097357" y2="17.090734086259292" class="delaunay-line"/>
<line x1="14.492352876097357" y1="17.090734086259292" x2="14.188749696756398" y2="17.32369699940383" class="delaunay-line"/>
<line x1="13.809340174205138" y1="17.273746788151513" x2="13.994077078095113" y2="17.3364565169462" class="delaunay-line"/>
<line x1="13.994077078095113" y1="17.3364565169462" x2="13.66266350405952" y2="17.14511480076365" class="delaunay-line"/>
<line x1="13.66266350405952" y1="17.14511480076365" x2="13.809340174205138" y2="17.273746788151513" class="delaunay-line"/>
<line x1="13.994077078095113" y1="17.3364565169462" x2="14.188749696756398" y2="17.32369699940383" class="delaunay-line"/>
<line x1="14.188749696756398" y1="17.32369699940383" x2="14.492352876097357" y2="17.090734086259292" class="delaunay-line"/>
<line x1="14.492352876097357" y1="17.090734086259292" x2="13.994077078095113" y2="17.3364565169462" class="delaunay-line"/>
<line x1="15.54952261259611" y1="20.361392311194525" x2="15.69619928274173" y2="20.232760323806666" class="delaunay-line"/>
<line x1="15.69619928274173" y1="20.232760323806666" x2="14.188749696756398" y2="17.32369699940383" class="delaunay-line"/>
<line x1="14.188749696756398" y1="17.32369699940383" x2="15.54952261259611" y2="20.361392311194525" class="delaunay-line"/>
<line x1="14.188749696756398" y1="17.32369699940383" x2="15.69619928274173" y2="20.232760323806666" class="delaunay-line"/>
<line x1="15.69619928274173" y1="20.232760323806666" x2="14.363720888709498" y2="17.237410756404913" class="delaunay-line"/>
<line x1="14.363720888709498" y1="17.237410756404913" x2="14.188749696756398" y2="17.32369699940383" class="delaunay-line"/>
<line x1="14.363720888709498" y1="17.237410756404913" x2="15.880936186631702" y2="20.17005059501198" class="delaunay-line"/>
<line x1="15.880936186631702" y1="20.17005059501198" x2="14.492352876097357" y2="17.090734086259292" class="delaunay-line"/>
<line x1="14.492352876097357" y1="17.090734086259292" x2="14.363720888709498" y2="17.237410756404913" class="delaunay-line"/>
<line x1="14.492352876097357" y1="17.090734086259292" x2="16.07560880529299" y2="20.18281011255435" class="delaunay-line"/>
<line x1="16.07560880529299" y1="20.18281011255435" x2="14.555062604892044" y2="16.90599718236932" class="delaunay-line"/>
<line x1="14.555062604892044" y1="16.90599718236932" x2="14.492352876097357" y2="17.090734086259292" class="delaunay-line"/>
<line x1="14.555062604892044" y1="16.90599718236932" x2="20.10422507645193" y2="18.406663744758376" class="delaunay-line"/>
<line x1="20.10422507645193" y1="18.406663744758376" x2="14.542303087349671" y2="16.711324563708033" class="delaunay-line"/>
<line x1="14.542303087349671" y1="16.711324563708033" x2="14.555062604892044" y2="16.90599718236932" class="delaunay-line"/>
<line x1="15.54952261259611" y1="20.361392311194525" x2="14.188749696756398" y2="17.32369699940383" class="delaunay-line"/>
<line x1="14.188749696756398" y1="17.32369699940383" x2="13.994077078095113" y2="17.3364565169462" class="delaunay-line"/>
<line x1="13.994077078095113" y1="17.3364565169462" x2="15.54952261259611" y2="20.361392311194525" class="delaunay-line"/>
<line x1="15.54952261259611" y1="20.361392311194525" x2="13.994077078095113" y2="17.3364565169462" class="delaunay-line"/>
<line x1="13.994077078095113" y1="17.3364565169462" x2="15.463236369597194" y2="20.536363503147623" class="delaunay-line"/>
<line x1="15.463236369597194" y1="20.536363503147623" x2="15.54952261259611" y2="20.361392311194525" class="delaunay-line"/>
<line x1="15.69619928274173" y1="20.232760323806666" x2="15.880936186631702" y2="20.17005059501198" class="delaunay-line"/>
<line x1="15.880936186631702" y1="20.17005059501198" x2="14.363720888709498" y2="17.237410756404913" class="delaunay-line"/>
<line x1="14.363720888709498" y1="17.237410756404913" x2="15.69619928274173" y2="20.232760323806666" class="delaunay-line"/>
<line x1="15.463236369597194" y1="20.536363503147623" x2="13.994077078095113" y2="17.3364565169462" class="delaunay-line"/>
<line x1="13.994077078095113" y1="17.3364565169462" x2="13.809340174205138" y2="17.273746788151513" class="delaunay-line"/>
<line x1="13.809340174205138" y1="17.273746788151513" x2="15.463236369597194" y2="20.536363503147623" class="delaunay-line"/>
<line x1="16.250579997246085" y1="20.269096355553266" x2="16.07560880529299" y2="20.18281011255435" class="delaunay-line"/>
<line x1="16.07560880529299" y1="20.18281011255435" x2="15.880936186631702" y2="20.17005059501198" class="delaunay-line"/>
<line x1="15.880936186631702" y1="20.17005059501198" x2="16.250579997246085" y2="20.269096355553266" class="delaunay-line"/>
<line x1="16.250579997246085" y1="20.269096355553266" x2="15.880936186631702" y2="20.17005059501198" class="delaunay-line"/>
<line x1="15.880936186631702" y1="20.17005059501198" x2="15.69619928274173" y2="20.232760323806666" class="delaunay-line"/>
<line x1="15.69619928274173" y1="20.232760323806666" x2="16.250579997246085" y2="20.269096355553266" class="delaunay-line"/>
<line x1="15.880936186631702" y1="20.17005059501198" x2="16.07560880529299" y2="20.18281011255435" class="delaunay-line"/>
<line x1="16.07560880529299" y1="20.18281011255435" x2="14.492352876097357" y2="17.090734086259292" class="delaunay-line"/>
<line x1="14.492352876097357" y1="17.090734086259292" x2="15.880936186631702" y2="20.17005059501198" class="delaunay-line"/>
<line x1="15.450476852054823" y1="20.73103612180891" x2="15.463236369597194" y2="20.536363503147623" class="delaunay-line"/>
<line x1="15.463236369597194" y1="20.536363503147623" x2="13.809340174205138" y2="17.273746788151513" class="delaunay-line"/>
<line x1="13.809340174205138" y1="17.273746788151513" x2="15.450476852054823" y2="20.73103612180891" class="delaunay-line"/>
<line x1="15.54952261259611" y1="20.361392311194525" x2="15.450476852054823" y2="20.73103612180891" class="delaunay-line"/>
<line x1="15.450476852054823" y1="20.73103612180891" x2="15.69619928274173" y2="20.232760323806666" class="delaunay-line"/>
<line x1="15.69619928274173" y1="20.232760323806666" x2="15.54952261259611" y2="20.361392311194525" class="delaunay-line"/>
<line x1="16.011462378851753" y1="21.161495456385786" x2="16.250579997246085" y2="20.269096355553266" class="delaunay-line"/>
<line x1="16.250579997246085" y1="20.269096355553266" x2="15.69619928274173" y2="20.232760323806666" class="delaunay-line"/>
<line x1="15.69619928274173" y1="20.232760323806666" x2="16.011462378851753" y2="21.161495456385786" class="delaunay-line"/>
<line x1="16.07560880529299" y1="20.18281011255435" x2="20.017938833453012" y2="18.581634936711474" class="delaunay-line"/>
<line x1="20.017938833453012" y1="18.581634936711474" x2="14.555062604892044" y2="16.90599718236932" class="delaunay-line"/>
<line x1="14.555062604892044" y1="16.90599718236932" x2="16.07560880529299" y2="20.18281011255435" class="delaunay-line"/>
<line x1="13.66266350405952" y1="17.14511480076365" x2="15.450476852054823" y2="20.73103612180891" class="delaunay-line"/>
<line x1="15.450476852054823" y1="20.73103612180891" x2="13.809340174205138" y2="17.273746788151513" class="delaunay-line"/>
<line x1="13.809340174205138" y1="17.273746788151513" x2="13.66266350405952" y2="17.14511480076365" class="delaunay-line"/>
<line x1="15.463236369597194" y1="20.536363503147623" x2="15.450476852054823" y2="20.73103612180891" class="delaunay-line"/>
<line x1="15.450476852054823" y1="20.73103612180891" x2="15.54952261259611" y2="20.361392311194525" class="delaunay-line"/>
<line x1="15.54952261259611" y1="20.361392311194525" x2="15.463236369597194" y2="20.536363503147623" class="delaunay-line"/>
<line x1="16.441921713428634" y1="20.60050992958886" x2="16.379211984633947" y2="20.415773025698883" class="delaunay-line"/>
<line x1="16.379211984633947" y1="20.415773025698883" x2="16.250579997246085" y2="20.269096355553266" class="delaunay-line"/>
<line x1="16.250579997246085" y1="20.269096355553266" x2="16.441921713428634" y2="20.60050992958886" class="delaunay-line"/>
<line x1="16.250579997246085" y1="20.269096355553266" x2="20.017938833453012" y2="18.581634936711474" class="delaunay-line"/>
<line x1="20.017938833453012" y1="18.581634936711474" x2="16.07560880529299" y2="20.18281011255435" class="delaunay-line"/>
<line x1="16.07560880529299" y1="20.18281011255435" x2="16.250579997246085" y2="20.269096355553266" class="delaunay-line"/>
<line x1="14.542303087349671" y1="16.711324563708033" x2="20.25090174659755" y2="18.278031757370513" class="delaunay-line"/>
<line x1="20.25090174659755" y1="18.278031757370513" x2="14.456016844350756" y2="16.536353371754934" class="delaunay-line"/>
<line x1="14.456016844350756" y1="16.536353371754934" x2="14.542303087349671" y2="16.711324563708033" class="delaunay-line"/>
<line x1="0" y1="24" x2="15.51318658084951" y2="20.915773025698883" class="delaunay-line"/>
<line x1="15.51318658084951" y1="20.915773025698883" x2="15.450476852054823" y2="20.73103612180891" class="delaunay-line"/>
<line x1="15.450476852054823" y1="20.73103612180891" x2="0" y2="24" class="delaunay-line"/>
<line x1="15.450476852054823" y1="20.73103612180891" x2="15.51318658084951" y2="20.915773025698883" class="delaunay-line"/>
<line x1="15.51318658084951" y1="20.915773025698883" x2="15.69619928274173" y2="20.232760323806666" class="delaunay-line"/>
<line x1="15.69619928274173" y1="20.232760323806666" x2="15.450476852054823" y2="20.73103612180891" class="delaunay-line"/>
<line x1="7.532983753650782" y1="15.11239925405162" x2="15.450476852054823" y2="20.73103612180891" class="delaunay-line"/>
<line x1="15.450476852054823" y1="20.73103612180891" x2="13.66266350405952" y2="17.14511480076365" class="delaunay-line"/>
<line x1="13.66266350405952" y1="17.14511480076365" x2="7.532983753650782" y2="15.11239925405162" class="delaunay-line"/>
<line x1="16.429162195886263" y1="20.795182548250143" x2="16.441921713428634" y2="20.60050992958886" class="delaunay-line"/>
<line x1="16.441921713428634" y1="20.60050992958886" x2="16.19619928274173" y2="21.0987857275911" class="delaunay-line"/>
<line x1="16.19619928274173" y1="21.0987857275911" x2="16.429162195886263" y2="20.795182548250143" class="delaunay-line"/>
<line x1="15.51318658084951" y1="20.915773025698883" x2="15.816789760190469" y2="21.148735938843416" class="delaunay-line"/>
<line x1="15.816789760190469" y1="21.148735938843416" x2="15.69619928274173" y2="20.232760323806666" class="delaunay-line"/>
<line x1="15.69619928274173" y1="20.232760323806666" x2="15.51318658084951" y2="20.915773025698883" class="delaunay-line"/>
<line x1="16.19619928274173" y1="21.0987857275911" x2="16.441921713428634" y2="20.60050992958886" class="delaunay-line"/>
<line x1="16.441921713428634" y1="20.60050992958886" x2="16.250579997246085" y2="20.269096355553266" class="delaunay-line"/>
<line x1="16.250579997246085" y1="20.269096355553266" x2="16.19619928274173" y2="21.0987857275911" class="delaunay-line"/>
<line x1="15.641818568237367" y1="21.0624496958445" x2="15.816789760190469" y2="21.148735938843416" class="delaunay-line"/>
<line x1="15.816789760190469" y1="21.148735938843416" x2="15.51318658084951" y2="20.915773025698883" class="delaunay-line"/>
<line x1="15.51318658084951" y1="20.915773025698883" x2="15.641818568237367" y2="21.0624496958445" class="delaunay-line"/>
<line x1="16.19619928274173" y1="21.0987857275911" x2="16.342875952887347" y2="20.970153740203244" class="delaunay-line"/>
<line x1="16.342875952887347" y1="20.970153740203244" x2="16.429162195886263" y2="20.795182548250143" class="delaunay-line"/>
<line x1="16.429162195886263" y1="20.795182548250143" x2="16.19619928274173" y2="21.0987857275911" class="delaunay-line"/>
<line x1="15.816789760190469" y1="21.148735938843416" x2="16.011462378851753" y2="21.161495456385786" class="delaunay-line"/>
<line x1="16.011462378851753" y1="21.161495456385786" x2="15.69619928274173" y2="20.232760323806666" class="delaunay-line"/>
<line x1="15.69619928274173" y1="20.232760323806666" x2="15.816789760190469" y2="21.148735938843416" class="delaunay-line"/>
<line x1="16.011462378851753" y1="21.161495456385786" x2="16.19619928274173" y2="21.0987857275911" class="delaunay-line"/>
<line x1="16.19619928274173" y1="21.0987857275911" x2="16.250579997246085" y2="20.269096355553266" class="delaunay-line"/>
<line x1="16.250579997246085" y1="20.269096355553266" x2="16.011462378851753" y2="21.161495456385786" class="delaunay-line"/>
<line x1="16.441921713428634" y1="20.60050992958886" x2="20.19652103209319" y2="19.107721129408354" class="delaunay-line"/>
<line x1="20.19652103209319" y1="19.107721129408354" x2="20.06788904470533" y2="18.961044459262734" class="delaunay-line"/>
<line x1="20.06788904470533" y1="18.961044459262734" x2="16.441921713428634" y2="20.60050992958886" class="delaunay-line"/>
<line x1="16.379211984633947" y1="20.415773025698883" x2="16.441921713428634" y2="20.60050992958886" class="delaunay-line"/>
<line x1="16.441921713428634" y1="20.60050992958886" x2="20.06788904470533" y2="18.961044459262734" class="delaunay-line"/>
<line x1="20.06788904470533" y1="18.961044459262734" x2="16.379211984633947" y2="20.415773025698883" class="delaunay-line"/>
<line x1="20.00517931591064" y1="18.77630755537276" x2="16.379211984633947" y2="20.415773025698883" class="delaunay-line"/>
<line x1="16.379211984633947" y1="20.415773025698883" x2="20.06788904470533" y2="18.961044459262734" class="delaunay-line"/>
<line x1="20.06788904470533" y1="18.961044459262734" x2="20.00517931591064" y2="18.77630755537276" class="delaunay-line"/>
<line x1="20.00517931591064" y1="18.77630755537276" x2="16.250579997246085" y2="20.269096355553266" class="delaunay-line"/>
<line x1="16.250579997246085" y1="20.269096355553266" x2="16.379211984633947" y2="20.415773025698883" class="delaunay-line"/>
<line x1="16.379211984633947" y1="20.415773025698883" x2="20.00517931591064" y2="18.77630755537276" class="delaunay-line"/>
<line x1="20.00517931591064" y1="18.77630755537276" x2="20.017938833453012" y2="18.581634936711474" class="delaunay-line"/>
<line x1="20.017938833453012" y1="18.581634936711474" x2="16.250579997246085" y2="20.269096355553266" class="delaunay-line"/>
<line x1="16.250579997246085" y1="20.269096355553266" x2="20.00517931591064" y2="18.77630755537276" class="delaunay-line"/>
<line x1="14.456016844350756" y1="16.536353371754934" x2="20.435638650487522" y2="18.215322028575827" class="delaunay-line"/>
<line x1="20.435638650487522" y1="18.215322028575827" x2="14.309340174205138" y2="16.407721384367072" class="delaunay-line"/>
<line x1="14.309340174205138" y1="16.407721384367072" x2="14.456016844350756" y2="16.536353371754934" class="delaunay-line"/>
<line x1="20.017938833453012" y1="18.581634936711474" x2="20.10422507645193" y2="18.406663744758376" class="delaunay-line"/>
<line x1="20.10422507645193" y1="18.406663744758376" x2="14.555062604892044" y2="16.90599718236932" class="delaunay-line"/>
<line x1="14.555062604892044" y1="16.90599718236932" x2="20.017938833453012" y2="18.581634936711474" class="delaunay-line"/>
<line x1="16.441921713428634" y1="20.60050992958886" x2="16.429162195886263" y2="20.795182548250143" class="delaunay-line"/>
<line x1="16.429162195886263" y1="20.795182548250143" x2="20.19652103209319" y2="19.107721129408354" class="delaunay-line"/>
<line x1="20.19652103209319" y1="19.107721129408354" x2="16.441921713428634" y2="20.60050992958886" class="delaunay-line"/>
<line x1="20.017938833453012" y1="18.581634936711474" x2="20.00517931591064" y2="18.77630755537276" class="delaunay-line"/>
<line x1="20.00517931591064" y1="18.77630755537276" x2="20.10422507645193" y2="18.406663744758376" class="delaunay-line"/>
<line x1="20.10422507645193" y1="18.406663744758376" x2="20.017938833453012" y2="18.581634936711474" class="delaunay-line"/>
<line x1="20.805282461101907" y1="18.314367789117114" x2="20.25090174659755" y2="18.278031757370513" class="delaunay-line"/>
<line x1="20.25090174659755" y1="18.278031757370513" x2="20.10422507645193" y2="18.406663744758376" class="delaunay-line"/>
<line x1="20.10422507645193" y1="18.406663744758376" x2="20.805282461101907" y2="18.314367789117114" class="delaunay-line"/>
<line x1="20.10422507645193" y1="18.406663744758376" x2="20.25090174659755" y2="18.278031757370513" class="delaunay-line"/>
<line x1="20.25090174659755" y1="18.278031757370513" x2="14.542303087349671" y2="16.711324563708033" class="delaunay-line"/>
<line x1="14.542303087349671" y1="16.711324563708033" x2="20.10422507645193" y2="18.406663744758376" class="delaunay-line"/>
<line x1="14.309340174205138" y1="16.407721384367072" x2="24" y2="0" class="delaunay-line"/>
<line x1="24" y1="0" x2="14.124603270315163" y2="16.345011655572385" class="delaunay-line"/>
<line x1="14.124603270315163" y1="16.345011655572385" x2="14.309340174205138" y2="16.407721384367072" class="delaunay-line"/>
<line x1="20.19652103209319" y1="19.107721129408354" x2="16.429162195886263" y2="20.795182548250143" class="delaunay-line"/>
<line x1="16.429162195886263" y1="20.795182548250143" x2="20.37149222404629" y2="19.19400737240727" class="delaunay-line"/>
<line x1="20.37149222404629" y1="19.19400737240727" x2="20.19652103209319" y2="19.107721129408354" class="delaunay-line"/>
<line x1="20.00517931591064" y1="18.77630755537276" x2="20.06788904470533" y2="18.961044459262734" class="delaunay-line"/>
<line x1="20.06788904470533" y1="18.961044459262734" x2="20.10422507645193" y2="18.406663744758376" class="delaunay-line"/>
<line x1="20.10422507645193" y1="18.406663744758376" x2="20.00517931591064" y2="18.77630755537276" class="delaunay-line"/>
<line x1="20.63031126914881" y1="18.228081546118197" x2="20.435638650487522" y2="18.215322028575827" class="delaunay-line"/>
<line x1="20.435638650487522" y1="18.215322028575827" x2="20.805282461101907" y2="18.314367789117114" class="delaunay-line"/>
<line x1="20.805282461101907" y1="18.314367789117114" x2="20.63031126914881" y2="18.228081546118197" class="delaunay-line"/>
<line x1="20.25090174659755" y1="18.278031757370513" x2="20.435638650487522" y2="18.215322028575827" class="delaunay-line"/>
<line x1="20.435638650487522" y1="18.215322028575827" x2="14.456016844350756" y2="16.536353371754934" class="delaunay-line"/>
<line x1="14.456016844350756" y1="16.536353371754934" x2="20.25090174659755" y2="18.278031757370513" class="delaunay-line"/>
<line x1="13.62632747231292" y1="16.590734086259292" x2="7.899296661786426" y2="14.69469943701711" class="delaunay-line"/>
<line x1="7.899296661786426" y1="14.69469943701711" x2="13.563617743518233" y2="16.775470990149266" class="delaunay-line"/>
<line x1="13.563617743518233" y1="16.775470990149266" x2="13.62632747231292" y2="16.590734086259292" class="delaunay-line"/>
<line x1="13.563617743518233" y1="16.775470990149266" x2="7.83658693299174" y2="14.879436340907086" class="delaunay-line"/>
<line x1="7.83658693299174" y1="14.879436340907086" x2="13.576377261060605" y2="16.970143608810552" class="delaunay-line"/>
<line x1="13.576377261060605" y1="16.970143608810552" x2="13.563617743518233" y2="16.775470990149266" class="delaunay-line"/>
<line x1="13.576377261060605" y1="16.970143608810552" x2="7.707954945603883" y2="15.026113011052704" class="delaunay-line"/>
<line x1="7.707954945603883" y1="15.026113011052704" x2="13.66266350405952" y2="17.14511480076365" class="delaunay-line"/>
<line x1="13.66266350405952" y1="17.14511480076365" x2="13.576377261060605" y2="16.970143608810552" class="delaunay-line"/>
<line x1="15.51318658084951" y1="20.915773025698883" x2="0" y2="24" class="delaunay-line"/>
<line x1="0" y1="24" x2="15.641818568237367" y2="21.0624496958445" class="delaunay-line"/>
<line x1="15.641818568237367" y1="21.0624496958445" x2="15.51318658084951" y2="20.915773025698883" class="delaunay-line"/>
<line x1="7.8865371442440555" y1="14.500026818355826" x2="7.899296661786426" y2="14.69469943701711" class="delaunay-line"/>
<line x1="7.899296661786426" y1="14.69469943701711" x2="13.62632747231292" y2="16.590734086259292" class="delaunay-line"/>
<line x1="13.62632747231292" y1="16.590734086259292" x2="7.8865371442440555" y2="14.500026818355826" class="delaunay-line"/>
<line x1="7.8865371442440555" y1="14.500026818355826" x2="13.62632747231292" y2="16.590734086259292" class="delaunay-line"/>
<line x1="13.62632747231292" y1="16.590734086259292" x2="13.754959459700778" y2="16.444057416113672" class="delaunay-line"/>
<line x1="13.754959459700778" y1="16.444057416113672" x2="7.8865371442440555" y2="14.500026818355826" class="delaunay-line"/>
<line x1="7.8865371442440555" y1="14.500026818355826" x2="13.754959459700778" y2="16.444057416113672" class="delaunay-line"/>
<line x1="13.754959459700778" y1="16.444057416113672" x2="7.800250901245139" y2="14.325055626402726" class="delaunay-line"/>
<line x1="7.800250901245139" y1="14.325055626402726" x2="7.8865371442440555" y2="14.500026818355826" class="delaunay-line"/>
<line x1="7.899296661786426" y1="14.69469943701711" x2="7.83658693299174" y2="14.879436340907086" class="delaunay-line"/>
<line x1="7.83658693299174" y1="14.879436340907086" x2="13.563617743518233" y2="16.775470990149266" class="delaunay-line"/>
<line x1="13.563617743518233" y1="16.775470990149266" x2="7.899296661786426" y2="14.69469943701711" class="delaunay-line"/>
<line x1="20.37149222404629" y1="19.19400737240727" x2="16.429162195886263" y2="20.795182548250143" class="delaunay-line"/>
<line x1="16.429162195886263" y1="20.795182548250143" x2="16.342875952887347" y2="20.970153740203244" class="delaunay-line"/>
<line x1="16.342875952887347" y1="20.970153740203244" x2="20.37149222404629" y2="19.19400737240727" class="delaunay-line"/>
<line x1="20.06788904470533" y1="18.961044459262734" x2="20.19652103209319" y2="19.107721129408354" class="delaunay-line"/>
<line x1="20.19652103209319" y1="19.107721129408354" x2="20.10422507645193" y2="18.406663744758376" class="delaunay-line"/>
<line x1="20.10422507645193" y1="18.406663744758376" x2="20.06788904470533" y2="18.961044459262734" class="delaunay-line"/>
<line x1="7.800250901245139" y1="14.325055626402726" x2="13.754959459700778" y2="16.444057416113672" class="delaunay-line"/>
<line x1="13.754959459700778" y1="16.444057416113672" x2="13.929930651653878" y2="16.357771173114756" class="delaunay-line"/>
<line x1="13.929930651653878" y1="16.357771173114756" x2="7.800250901245139" y2="14.325055626402726" class="delaunay-line"/>
<line x1="7.006897560953904" y1="14.933817055411446" x2="7.338311134989495" y2="15.125158771593991" class="delaunay-line"/>
<line x1="7.338311134989495" y1="15.125158771593991" x2="7.83658693299174" y2="14.879436340907086" class="delaunay-line"/>
<line x1="7.83658693299174" y1="14.879436340907086" x2="7.006897560953904" y2="14.933817055411446" class="delaunay-line"/>
<line x1="7.532983753650782" y1="15.11239925405162" x2="7.707954945603883" y2="15.026113011052704" class="delaunay-line"/>
<line x1="7.707954945603883" y1="15.026113011052704" x2="7.83658693299174" y2="14.879436340907086" class="delaunay-line"/>
<line x1="7.83658693299174" y1="14.879436340907086" x2="7.532983753650782" y2="15.11239925405162" class="delaunay-line"/>
<line x1="7.83658693299174" y1="14.879436340907086" x2="7.707954945603883" y2="15.026113011052704" class="delaunay-line"/>
<line x1="7.707954945603883" y1="15.026113011052704" x2="13.576377261060605" y2="16.970143608810552" class="delaunay-line"/>
<line x1="13.576377261060605" y1="16.970143608810552" x2="7.83658693299174" y2="14.879436340907086" class="delaunay-line"/>
<line x1="20.805282461101907" y1="18.314367789117114" x2="20.435638650487522" y2="18.215322028575827" class="delaunay-line"/>
<line x1="20.435638650487522" y1="18.215322028575827" x2="20.25090174659755" y2="18.278031757370513" class="delaunay-line"/>
<line x1="20.25090174659755" y1="18.278031757370513" x2="20.805282461101907" y2="18.314367789117114" class="delaunay-line"/>
<line x1="20.435638650487522" y1="18.215322028575827" x2="24" y2="0" class="delaunay-line"/>
<line x1="24" y1="0" x2="14.309340174205138" y2="16.407721384367072" class="delaunay-line"/>
<line x1="14.309340174205138" y1="16.407721384367072" x2="20.435638650487522" y2="18.215322028575827" class="delaunay-line"/>
<line x1="7.653574231099522" y1="14.196423639014865" x2="7.800250901245139" y2="14.325055626402726" class="delaunay-line"/>
<line x1="7.800250901245139" y1="14.325055626402726" x2="13.929930651653878" y2="16.357771173114756" class="delaunay-line"/>
<line x1="13.929930651653878" y1="16.357771173114756" x2="7.653574231099522" y2="14.196423639014865" class="delaunay-line"/>
<line x1="20.566164842707575" y1="19.20676688994964" x2="20.37149222404629" y2="19.19400737240727" class="delaunay-line"/>
<line x1="20.37149222404629" y1="19.19400737240727" x2="24" y2="24" class="delaunay-line"/>
<line x1="24" y1="24" x2="20.566164842707575" y2="19.20676688994964" class="delaunay-line"/>
<line x1="20.19652103209319" y1="19.107721129408354" x2="20.805282461101907" y2="18.314367789117114" class="delaunay-line"/>
<line x1="20.805282461101907" y1="18.314367789117114" x2="20.10422507645193" y2="18.406663744758376" class="delaunay-line"/>
<line x1="20.10422507645193" y1="18.406663744758376" x2="20.19652103209319" y2="19.107721129408354" class="delaunay-line"/>
<line x1="7.653574231099522" y1="14.196423639014865" x2="13.929930651653878" y2="16.357771173114756" class="delaunay-line"/>
<line x1="13.929930651653878" y1="16.357771173114756" x2="14.124603270315163" y2="16.345011655572385" class="delaunay-line"/>
<line x1="14.124603270315163" y1="16.345011655572385" x2="7.653574231099522" y2="14.196423639014865" class="delaunay-line"/>
<line x1="7.8865371442440555" y1="14.500026818355826" x2="7.800250901245139" y2="14.325055626402726" class="delaunay-line"/>
<line x1="7.800250901245139" y1="14.325055626402726" x2="7.899296661786426" y2="14.69469943701711" class="delaunay-line"/>
<line x1="7.899296661786426" y1="14.69469943701711" x2="7.8865371442440555" y2="14.500026818355826" class="delaunay-line"/>
<line x1="7.338311134989495" y1="15.125158771593991" x2="7.532983753650782" y2="15.11239925405162" class="delaunay-line"/>
<line x1="7.532983753650782" y1="15.11239925405162" x2="7.83658693299174" y2="14.879436340907086" class="delaunay-line"/>
<line x1="7.83658693299174" y1="14.879436340907086" x2="7.338311134989495" y2="15.125158771593991" class="delaunay-line"/>
<line x1="7.707954945603883" y1="15.026113011052704" x2="7.532983753650782" y2="15.11239925405162" class="delaunay-line"/>
<line x1="7.532983753650782" y1="15.11239925405162" x2="13.66266350405952" y2="17.14511480076365" class="delaunay-line"/>
<line x1="13.66266350405952" y1="17.14511480076365" x2="7.707954945603883" y2="15.026113011052704" class="delaunay-line"/>
<line x1="20.93391444848977" y1="18.461044459262734" x2="20.805282461101907" y2="18.314367789117114" class="delaunay-line"/>
<line x1="20.805282461101907" y1="18.314367789117114" x2="20.89757841674317" y2="19.015425173767092" class="delaunay-line"/>
<line x1="20.89757841674317" y1="19.015425173767092" x2="20.93391444848977" y2="18.461044459262734" class="delaunay-line"/>
<line x1="24" y1="24" x2="20.37149222404629" y2="19.19400737240727" class="delaunay-line"/>
<line x1="20.37149222404629" y1="19.19400737240727" x2="16.342875952887347" y2="20.970153740203244" class="delaunay-line"/>
<line x1="16.342875952887347" y1="20.970153740203244" x2="24" y2="24" class="delaunay-line"/>
<line x1="20.37149222404629" y1="19.19400737240727" x2="20.566164842707575" y2="19.20676688994964" class="delaunay-line"/>
<line x1="20.566164842707575" y1="19.20676688994964" x2="20.19652103209319" y2="19.107721129408354" class="delaunay-line"/>
<line x1="20.19652103209319" y1="19.107721129408354" x2="20.37149222404629" y2="19.19400737240727" class="delaunay-line"/>
<line x1="24" y1="0" x2="7.653574231099522" y2="14.196423639014865" class="delaunay-line"/>
<line x1="7.653574231099522" y1="14.196423639014865" x2="14.124603270315163" y2="16.345011655572385" class="delaunay-line"/>
<line x1="14.124603270315163" y1="16.345011655572385" x2="24" y2="0" class="delaunay-line"/>
<line x1="7.006897560953904" y1="14.933817055411446" x2="7.83658693299174" y2="14.879436340907086" class="delaunay-line"/>
<line x1="7.83658693299174" y1="14.879436340907086" x2="7.899296661786426" y2="14.69469943701711" class="delaunay-line"/>
<line x1="7.899296661786426" y1="14.69469943701711" x2="7.006897560953904" y2="14.933817055411446" class="delaunay-line"/>
<line x1="7.006897560953904" y1="14.933817055411446" x2="7.899296661786426" y2="14.69469943701711" class="delaunay-line"/>
<line x1="7.899296661786426" y1="14.69469943701711" x2="6.907851800412617" y2="14.564173244797061" class="delaunay-line"/>
<line x1="6.907851800412617" y1="14.564173244797061" x2="7.006897560953904" y2="14.933817055411446" class="delaunay-line"/>
<line x1="7.532983753650782" y1="15.11239925405162" x2="7.338311134989495" y2="15.125158771593991" class="delaunay-line"/>
<line x1="7.338311134989495" y1="15.125158771593991" x2="15.450476852054823" y2="20.73103612180891" class="delaunay-line"/>
<line x1="15.450476852054823" y1="20.73103612180891" x2="7.532983753650782" y2="15.11239925405162" class="delaunay-line"/>
<line x1="20.89757841674317" y1="19.015425173767092" x2="20.805282461101907" y2="18.314367789117114" class="delaunay-line"/>
<line x1="20.805282461101907" y1="18.314367789117114" x2="20.19652103209319" y2="19.107721129408354" class="delaunay-line"/>
<line x1="20.19652103209319" y1="19.107721129408354" x2="20.89757841674317" y2="19.015425173767092" class="delaunay-line"/>
<line x1="24" y1="24" x2="20.75090174659755" y2="19.144057161154954" class="delaunay-line"/>
<line x1="20.75090174659755" y1="19.144057161154954" x2="20.566164842707575" y2="19.20676688994964" class="delaunay-line"/>
<line x1="20.566164842707575" y1="19.20676688994964" x2="24" y2="24" class="delaunay-line"/>
<line x1="20.566164842707575" y1="19.20676688994964" x2="20.75090174659755" y2="19.144057161154954" class="delaunay-line"/>
<line x1="20.75090174659755" y1="19.144057161154954" x2="20.19652103209319" y2="19.107721129408354" class="delaunay-line"/>
<line x1="20.19652103209319" y1="19.107721129408354" x2="20.566164842707575" y2="19.20676688994964" class="delaunay-line"/>
<line x1="0" y1="0" x2="7.468837327209548" y2="14.13371391022018" class="delaunay-line"/>
<line x1="7.468837327209548" y1="14.13371391022018" x2="7.653574231099522" y2="14.196423639014865" class="delaunay-line"/>
<line x1="7.653574231099522" y1="14.196423639014865" x2="0" y2="0" class="delaunay-line"/>
<line x1="7.653574231099522" y1="14.196423639014865" x2="7.468837327209548" y2="14.13371391022018" class="delaunay-line"/>
<line x1="7.468837327209548" y1="14.13371391022018" x2="7.800250901245139" y2="14.325055626402726" class="delaunay-line"/>
<line x1="7.800250901245139" y1="14.325055626402726" x2="7.653574231099522" y2="14.196423639014865" class="delaunay-line"/>
<line x1="7.006897560953904" y1="14.933817055411446" x2="7.153574231099522" y2="15.062449042799306" class="delaunay-line"/>
<line x1="7.153574231099522" y1="15.062449042799306" x2="7.338311134989495" y2="15.125158771593991" class="delaunay-line"/>
<line x1="7.338311134989495" y1="15.125158771593991" x2="7.006897560953904" y2="14.933817055411446" class="delaunay-line"/>
<line x1="7.338311134989495" y1="15.125158771593991" x2="0" y2="24" class="delaunay-line"/>
<line x1="0" y1="24" x2="15.450476852054823" y2="20.73103612180891" class="delaunay-line"/>
<line x1="15.450476852054823" y1="20.73103612180891" x2="7.338311134989495" y2="15.125158771593991" class="delaunay-line"/>
<line x1="20.89757841674317" y1="19.015425173767092" x2="20.996624177284456" y2="18.645781363152707" class="delaunay-line"/>
<line x1="20.996624177284456" y1="18.645781363152707" x2="20.93391444848977" y2="18.461044459262734" class="delaunay-line"/>
<line x1="20.93391444848977" y1="18.461044459262734" x2="20.89757841674317" y2="19.015425173767092" class="delaunay-line"/>
<line x1="20.75090174659755" y1="19.144057161154954" x2="20.89757841674317" y2="19.015425173767092" class="delaunay-line"/>
<line x1="20.89757841674317" y1="19.015425173767092" x2="20.19652103209319" y2="19.107721129408354" class="delaunay-line"/>
<line x1="20.19652103209319" y1="19.107721129408354" x2="20.75090174659755" y2="19.144057161154954" class="delaunay-line"/>
<line x1="20.89757841674317" y1="19.015425173767092" x2="20.983864659742085" y2="18.840453981813994" class="delaunay-line"/>
<line x1="20.983864659742085" y1="18.840453981813994" x2="20.996624177284456" y2="18.645781363152707" class="delaunay-line"/>
<line x1="20.996624177284456" y1="18.645781363152707" x2="20.89757841674317" y2="19.015425173767092" class="delaunay-line"/>
<line x1="6.920611317954988" y1="14.758845863458346" x2="7.006897560953904" y2="14.933817055411446" class="delaunay-line"/>
<line x1="7.006897560953904" y1="14.933817055411446" x2="6.907851800412617" y2="14.564173244797061" class="delaunay-line"/>
<line x1="6.907851800412617" y1="14.564173244797061" x2="6.920611317954988" y2="14.758845863458346" class="delaunay-line"/>
<line x1="7.899296661786426" y1="14.69469943701711" x2="7.800250901245139" y2="14.325055626402726" class="delaunay-line"/>
<line x1="7.800250901245139" y1="14.325055626402726" x2="6.970561529207303" y2="14.379436340907086" class="delaunay-line"/>
<line x1="6.970561529207303" y1="14.379436340907086" x2="7.899296661786426" y2="14.69469943701711" class="delaunay-line"/>
<line x1="6.970561529207303" y1="14.379436340907086" x2="7.800250901245139" y2="14.325055626402726" class="delaunay-line"/>
<line x1="7.800250901245139" y1="14.325055626402726" x2="7.468837327209548" y2="14.13371391022018" class="delaunay-line"/>
<line x1="7.468837327209548" y1="14.13371391022018" x2="6.970561529207303" y2="14.379436340907086" class="delaunay-line"/>
<line x1="6.970561529207303" y1="14.379436340907086" x2="7.468837327209548" y2="14.13371391022018" class="delaunay-line"/>
<line x1="7.468837327209548" y1="14.13371391022018" x2="7.274164708548261" y2="14.146473427762551" class="delaunay-line"/>
<line x1="7.274164708548261" y1="14.146473427762551" x2="6.970561529207303" y2="14.379436340907086" class="delaunay-line"/>
<line x1="7.09919351659516" y1="14.232759670761467" x2="6.970561529207303" y2="14.379436340907086" class="delaunay-line"/>
<line x1="6.970561529207303" y1="14.379436340907086" x2="7.274164708548261" y2="14.146473427762551" class="delaunay-line"/>
<line x1="7.274164708548261" y1="14.146473427762551" x2="7.09919351659516" y2="14.232759670761467" class="delaunay-line"/>
<line x1="6.970561529207303" y1="14.379436340907086" x2="6.907851800412617" y2="14.564173244797061" class="delaunay-line"/>
<line x1="6.907851800412617" y1="14.564173244797061" x2="7.899296661786426" y2="14.69469943701711" class="delaunay-line"/>
<line x1="7.899296661786426" y1="14.69469943701711" x2="6.970561529207303" y2="14.379436340907086" class="delaunay-line"/>
<line x1="20.75090174659755" y1="19.144057161154954" x2="24" y2="24" class="delaunay-line"/>
<line x1="24" y1="24" x2="20.89757841674317" y2="19.015425173767092" class="delaunay-line"/>
<line x1="20.89757841674317" y1="19.015425173767092" x2="20.75090174659755" y2="19.144057161154954" class="delaunay-line"/>
<line x1="20.89757841674317" y1="19.015425173767092" x2="24" y2="24" class="delaunay-line"/>
<line x1="24" y1="24" x2="20.983864659742085" y2="18.840453981813994" class="delaunay-line"/>
<line x1="20.983864659742085" y1="18.840453981813994" x2="20.89757841674317" y2="19.015425173767092" class="delaunay-line"/>
<line x1="20.983864659742085" y1="18.840453981813994" x2="24" y2="24" class="delaunay-line"/>
<line x1="24" y1="24" x2="20.996624177284456" y2="18.645781363152707" class="delaunay-line"/>
<line x1="20.996624177284456" y1="18.645781363152707" x2="20.983864659742085" y2="18.840453981813994" class="delaunay-line"/>
<line x1="20.996624177284456" y1="18.645781363152707" x2="24" y2="24" class="delaunay-line"/>
<line x1="24" y1="24" x2="20.93391444848977" y2="18.461044459262734" class="delaunay-line"/>
<line x1="20.93391444848977" y1="18.461044459262734" x2="20.996624177284456" y2="18.645781363152707" class="delaunay-line"/>
<line x1="16.19619928274173" y1="21.0987857275911" x2="24" y2="24" class="delaunay-line"/>
<line x1="24" y1="24" x2="16.342875952887347" y2="20.970153740203244" class="delaunay-line"/>
<line x1="16.342875952887347" y1="20.970153740203244" x2="16.19619928274173" y2="21.0987857275911" class="delaunay-line"/>
<line x1="16.011462378851753" y1="21.161495456385786" x2="24" y2="24" class="delaunay-line"/>
<line x1="24" y1="24" x2="16.19619928274173" y2="21.0987857275911" class="delaunay-line"/>
<line x1="16.19619928274173" y1="21.0987857275911" x2="16.011462378851753" y2="21.161495456385786" class="delaunay-line"/>
<line x1="15.816789760190469" y1="21.148735938843416" x2="24" y2="24" class="delaunay-line"/>
<line x1="24" y1="24" x2="16.011462378851753" y2="21.161495456385786" class="delaunay-line"/>
<line x1="16.011462378851753" y1="21.161495456385786" x2="15.816789760190469" y2="21.148735938843416" class="delaunay-line"/>
<line x1="0" y1="0" x2="0" y2="24" class="delaunay-line"/>
<line x1="0" y1="24" x2="6.907851800412617" y2="14.564173244797061" class="delaunay-line"/>
<line x1="6.907851800412617" y1="14.564173244797061" x2="0" y2="0" class="delaunay-line"/>
<line x1="6.907851800412617" y1="14.564173244797061" x2="0" y2="24" class="delaunay-line"/>
<line x1="0" y1="24" x2="6.920611317954988" y2="14.758845863458346" class="delaunay-line"/>
<line x1="6.920611317954988" y1="14.758845863458346" x2="6.907851800412617" y2="14.564173244797061" class="delaunay-line"/>
<line x1="6.920611317954988" y1="14.758845863458346" x2="0" y2="24" class="delaunay-line"/>
<line x1="0" y1="24" x2="7.006897560953904" y2="14.933817055411446" class="delaunay-line"/>
<line x1="7.006897560953904" y1="14.933817055411446" x2="6.920611317954988" y2="14.758845863458346" class="delaunay-line"/>
<line x1="7.006897560953904" y1="14.933817055411446" x2="0" y2="24" class="delaunay-line"/>
<line x1="0" y1="24" x2="7.153574231099522" y2="15.062449042799306" class="delaunay-line"/>
<line x1="7.153574231099522" y1="15.062449042799306" x2="7.006897560953904" y2="14.933817055411446" class="delaunay-line"/>
<line x1="7.153574231099522" y1="15.062449042799306" x2="0" y2="24" class="delaunay-line"/>
<line x1="0" y1="24" x2="7.338311134989495" y2="15.125158771593991" class="delaunay-line"/>
<line x1="7.338311134989495" y1="15.125158771593991" x2="7.153574231099522" y2="15.062449042799306" class="delaunay-line"/>
<line x1="15.641818568237367" y1="21.0624496958445" x2="0" y2="24" class="delaunay-line"/>
<line x1="0" y1="24" x2="15.816789760190469" y2="21.148735938843416" class="delaunay-line"/>
<line x1="15.816789760190469" y1="21.148735938843416" x2="15.641818568237367" y2="21.0624496958445" class="delaunay-line"/>
<line x1="15.816789760190469" y1="21.148735938843416" x2="0" y2="24" class="delaunay-line"/>
<line x1="0" y1="24" x2="24" y2="24" class="delaunay-line"/>
<line x1="24" y1="24" x2="15.816789760190469" y2="21.148735938843416" class="delaunay-line"/>
<line x1="24" y1="24" x2="24" y2="0" class="delaunay-line"/>
<line x1="24" y1="0" x2="20.93391444848977" y2="18.461044459262734" class="delaunay-line"/>
<line x1="20.93391444848977" y1="18.461044459262734" x2="24" y2="24" class="delaunay-line"/>
<line x1="20.93391444848977" y1="18.461044459262734" x2="24" y2="0" class="delaunay-line"/>
<line x1="24" y1="0" x2="20.805282461101907" y2="18.314367789117114" class="delaunay-line"/>
<line x1="20.805282461101907" y1="18.314367789117114" x2="20.93391444848977" y2="18.461044459262734" class="delaunay-line"/>
<line x1="20.805282461101907" y1="18.314367789117114" x2="24" y2="0" class="delaunay-line"/>
<line x1="24" y1="0" x2="20.63031126914881" y2="18.228081546118197" class="delaunay-line"/>
<line x1="20.63031126914881" y1="18.228081546118197" x2="20.805282461101907" y2="18.314367789117114" class="delaunay-line"/>
<line x1="20.63031126914881" y1="18.228081546118197" x2="24" y2="0" class="delaunay-line"/>
<line x1="24" y1="0" x2="20.435638650487522" y2="18.215322028575827" class="delaunay-line"/>
<line x1="20.435638650487522" y1="18.215322028575827" x2="20.63031126914881" y2="18.228081546118197" class="delaunay-line"/>
<line x1="7.468837327209548" y1="14.13371391022018" x2="0" y2="0" class="delaunay-line"/>
<line x1="0" y1="0" x2="7.274164708548261" y2="14.146473427762551" class="delaunay-line"/>
<line x1="7.274164708548261" y1="14.146473427762551" x2="7.468837327209548" y2="14.13371391022018" class="delaunay-line"/>
<line x1="7.274164708548261" y1="14.146473427762551" x2="0" y2="0" class="delaunay-line"/>
<line x1="0" y1="0" x2="7.09919351659516" y2="14.232759670761467" class="delaunay-line"/>
<line x1="7.09919351659516" y1="14.232759670761467" x2="7.274164708548261" y2="14.146473427762551" class="delaunay-line"/>
<line x1="24" y1="0" x2="0" y2="0" class="delaunay-line"/>
<line x1="0" y1="0" x2="7.653574231099522" y2="14.196423639014865" class="delaunay-line"/>
<line x1="7.653574231099522" y1="14.196423639014865" x2="24" y2="0" class="delaunay-line"/>
<line x1="7.09919351659516" y1="14.232759670761467" x2="0" y2="0" class="delaunay-line"/>
<line x1="0" y1="0" x2="6.970561529207303" y2="14.379436340907086" class="delaunay-line"/>
<line x1="6.970561529207303" y1="14.379436340907086" x2="7.09919351659516" y2="14.232759670761467" class="delaunay-line"/>
<line x1="6.970561529207303" y1="14.379436340907086" x2="0" y2="0" class="delaunay-line"/>
<line x1="0" y1="0" x2="6.907851800412617" y2="14.564173244797061" class="delaunay-line"/>
<line x1="6.907851800412617" y1="14.564173244797061" x2="6.970561529207303" y2="14.379436340907086" class="delaunay-line"/>
</g>
<g id="layer-area" class="layer ">
</g>
<g id="layer-terrain" class="layer ">
<polygon points="16.429162195886263,20.795182548250143 16.342875952887347,20.970153740203244 16.19619928274173,21.0987857275911 16.011462378851753,21.161495456385786 15.816789760190469,21.148735938843416 15.641818568237367,21.0624496958445 15.51318658084951,20.915773025698883 15.450476852054823,20.73103612180891 15.463236369597194,20.536363503147623 15.54952261259611,20.361392311194525 15.69619928274173,20.232760323806666 15.880936186631702,20.17005059501198 16.07560880529299,20.18281011255435 16.250579997246085,20.269096355553266 16.379211984633947,20.415773025698883 16.441921713428634,20.60050992958886" fill="Dark Green" class="terrain-solid"/>
<polygon points="7.532983753650782,15.11239925405162 7.338311134989495,15.125158771593991 7.153574231099522,15.062449042799306 7.006897560953904,14.933817055411446 6.920611317954988,14.758845863458346 6.907851800412617,14.564173244797061 6.970561529207303,14.379436340907086 7.09919351659516,14.232759670761467 7.274164708548261,14.146473427762551 7.468837327209548,14.13371391022018 7.653574231099522,14.196423639014865 7.800250901245139,14.325055626402726 7.8865371442440555,14.500026818355826 7.899296661786426,14.69469943701711 7.83658693299174,14.879436340907086 7.707954945603883,15.026113011052704" fill="Dark Green" class="terrain-solid"/>
<polygon points="20.93391444848977,18.461044459262734 20.996624177284456,18.645781363152707 20.983864659742085,18.840453981813994 20.89757841674317,19.015425173767092 20.75090174659755,19.144057161154954 20.566164842707575,19.20676688994964 20.37149222404629,19.19400737240727 20.19652103209319,19.107721129408354 20.06788904470533,18.961044459262734 20.00517931591064,18.77630755537276 20.017938833453012,18.581634936711474 20.10422507645193,18.406663744758376 20.25090174659755,18.278031757370513 20.435638650487522,18.215322028575827 20.63031126914881,18.228081546118197 20.805282461101907,18.314367789117114" fill="Dark Green" class="terrain-solid"/>
<polygon points="13.62632747231292,16.590734086259292 13.754959459700778,16.444057416113672 13.929930651653878,16.357771173114756 14.124603270315163,16.345011655572385 14.309340174205138,16.407721384367072 14.456016844350756,16.536353371754934 14.542303087349671,16.711324563708033 14.555062604892044,16.90599718236932 14.492352876097357,17.090734086259292 14.363720888709498,17.237410756404913 14.188749696756398,17.32369699940383 13.994077078095113,17.3364565169462 13.809340174205138,17.273746788151513 13.66266350405952,17.14511480076365 13.576377261060605,16.970143608810552 13.563617743518233,16.775470990149266" fill="Dark Green" class="terrain-solid"/>
</g>
<g id="layer-models" class="layer ">
</g>
<g id="layer-paths" class="layer ">
</g>
<g id="layer-vectors" class="layer ">
</g>
<g id="layer-los" class="layer ">
</g>
<g id="layer-lof" class="layer ">
</g>

</svg>