<svg xmlns="http://www.w3.org/2000/svg" viewBox="0 0 24 24" width="960" height="960" font-family="Arial" font-size="0.6">
<defs>
  <style><![CDATA[
    .layer { display: inline; }
    .layer.hidden { display: none; }
    .grid-line { stroke: #999; stroke-width: 0.02; opacity: 0.2; }
    .delaunay-line { stroke: #4a6fa5; stroke-width: 0.03; opacity: 0.3; }
    .terrain-area { stroke: #000; stroke-width: 0.05; }
    .terrain-solid { stroke: #000; stroke-width: 0.05; }
    .model { stroke: #000; stroke-width: 0.05; }
    .path { fill: none; stroke-width: 0.12; }
    .vector { stroke-width: 0.1; }
    .los-ray { stroke-width: 0.08; stroke-dasharray: 0.2 0.2; }
    .lof-ray { stroke-width: 0.08; stroke-dasharray: 0.3 0.15; }
    .label { fill: #111; font-size: 0.6px; }
    .toggle { cursor: pointer; }
  ]]></style>
</defs>
<rect x="0" y="0" width="24" height="24" fill="#ffffff" stroke="#111" stroke-width="0.05"/>
<g id="legend">
<g class="toggle" onclick="toggleLayer('grid')"><rect x="0.4" y="0.14999999999999997" width="0.4" height="0.4" fill="#222" stroke="#222" stroke-width="0.05"/><text x="1.0" y="0.5499999999999999" class="label">0.5 MU Grid</text></g>
<g class="toggle" onclick="toggleLayer('delaunay')"><rect x="0.4" y="0.95" width="0.4" height="0.4" fill="#222" stroke="#222" stroke-width="0.05"/><text x="1.0" y="1.3499999999999999" class="label">Delaunay Mesh</text></g>
<g class="toggle" onclick="toggleLayer('area')"><rect x="0.4" y="1.7500000000000002" width="0.4" height="0.4" fill="#222" stroke="#222" stroke-width="0.05"/><text x="1.0" y="2.1500000000000004" class="label">Area Terrain</text></g>
<g class="toggle" onclick="toggleLayer('terrain')"><rect x="0.4" y="2.55" width="0.4" height="0.4" fill="#222" stroke="#222" stroke-width="0.05"/><text x="1.0" y="2.95" class="label">Other Terrain</text></g>
<g class="toggle" onclick="toggleLayer('models')"><rect x="0.4" y="3.3499999999999996" width="0.4" height="0.4" fill="#222" stroke="#222" stroke-width="0.05"/><text x="1.0" y="3.75" class="label">Models</text></g>
<g class="toggle" onclick="toggleLayer('paths')"><rect x="0.4" y="4.1499999999999995" width="0.4" height="0.4" fill="#222" stroke="#222" stroke-width="0.05"/><text x="1.0" y="4.55" class="label">Paths</text></g>
<g class="toggle" onclick="toggleLayer('vectors')"><rect x="0.4" y="4.949999999999999" width="0.4" height="0.4" fill="#222" stroke="#222" stroke-width="0.05"/><text x="1.0" y="5.35" class="label">Vectors</text></g>
<g class="toggle" onclick="toggleLayer('los')"><rect x="0.4" y="5.749999999999999" width="0.4" height="0.4" fill="#222" stroke="#222" stroke-width="0.05"/><text x="1.0" y="6.1499999999999995" class="label">LOS</text></g>
<g class="toggle" onclick="toggleLayer('lof')"><rect x="0.4" y="6.549999999999999" width="0.4" height="0.4" fill="#222" stroke="#222" stroke-width="0.05"/><text x="1.0" y="6.949999999999999" class="label">LOF</text></g>
</g>
<script><![CDATA[
      function toggleLayer(id) {
        var layer = document.getElementById('layer-' + id);
        if (!layer) return;
        if (layer.classList.contains('hidden')) {
          layer.classList.remove('hidden');
        } else {
          layer.classList.add('hidden');
        }
      }
    ]]></script>
<text x="0.4" y="23.6" class="label">Battlefield 24x24 density 75 blockLOS 75</text>
<g id="layer-grid" class="layer ">
<line x1="0" y1="0" x2="0" y2="24" class="grid-line"/>
<line x1="0.5" y1="0" x2="0.5" y2="24" class="grid-line"/>
<line x1="1" y1="0" x2="1" y2="24" class="grid-line"/>
<line x1="1.5" y1="0" x2="1.5" y2="24" class="grid-line"/>
<line x1="2" y1="0" x2="2" y2="24" class="grid-line"/>
<line x1="2.5" y1="0" x2="2.5" y2="24" class="grid-line"/>
<line x1="3" y1="0" x2="3" y2="24" class="grid-line"/>
<line x1="3.5" y1="0" x2="3.5" y2="24" class="grid-line"/>
<line x1="4" y1="0" x2="4" y2="24" class="grid-line"/>
<line x1="4.5" y1="0" x2="4.5" y2="24" class="grid-line"/>
<line x1="5" y1="0" x2="5" y2="24" class="grid-line"/>
<line x1="5.5" y1="0" x2="5.5" y2="24" class="grid-line"/>
<line x1="6" y1="0" x2="6" y2="24" class="grid-line"/>
<line x1="6.5" y1="0" x2="6.5" y2="24" class="grid-line"/>
<line x1="7" y1="0" x2="7" y2="24" class="grid-line"/>
<line x1="7.5" y1="0" x2="7.5" y2="24" class="grid-line"/>
<line x1="8" y1="0" x2="8" y2="24" class="grid-line"/>
<line x1="8.5" y1="0" x2="8.5" y2="24" class="grid-line"/>
<line x1="9" y1="0" x2="9" y2="24" class="grid-line"/>
<line x1="9.5" y1="0" x2="9.5" y2="24" class="grid-line"/>
<line x1="10" y1="0" x2="10" y2="24" class="grid-line"/>
<line x1="10.5" y1="0" x2="10.5" y2="24" class="grid-line"/>
<line x1="11" y1="0" x2="11" y2="24" class="grid-line"/>
<line x1="11.5" y1="0" x2="11.5" y2="24" class="grid-line"/>
<line x1="12" y1="0" x2="12" y2="24" class="grid-line"/>
<line x1="12.5" y1="0" x2="12.5" y2="24" class="grid-line"/>
<line x1="13" y1="0" x2="13" y2="24" class="grid-line"/>
<line x1="13.5" y1="0" x2="13.5" y2="24" class="grid-line"/>
<line x1="14" y1="0" x2="14" y2="24" class="grid-line"/>
<line x1="14.5" y1="0" x2="14.5" y2="24" class="grid-line"/>
<line x1="15" y1="0" x2="15" y2="24" class="grid-line"/>
<line x1="15.5" y1="0" x2="15.5" y2="24" class="grid-line"/>
<line x1="16" y1="0" x2="16" y2="24" class="grid-line"/>
<line x1="16.5" y1="0" x2="16.5" y2="24" class="grid-line"/>
<line x1="17" y1="0" x2="17" y2="24" class="grid-line"/>
<line x1="17.5" y1="0" x2="17.5" y2="24" class="grid-line"/>
<line x1="18" y1="0" x2="18" y2="24" class="grid-line"/>
<line x1="18.5" y1="0" x2="18.5" y2="24" class="grid-line"/>
<line x1="19" y1="0" x2="19" y2="24" class="grid-line"/>
<line x1="19.5" y1="0" x2="19.5" y2="24" class="grid-line"/>
<line x1="20" y1="0" x2="20" y2="24" class="grid-line"/>
<line x1="20.5" y1="0" x2="20.5" y2="24" class="grid-line"/>
<line x1="21" y1="0" x2="21" y2="24" class="grid-line"/>
<line x1="21.5" y1="0" x2="21.5" y2="24" class="grid-line"/>
<line x1="22" y1="0" x2="22" y2="24" class="grid-line"/>
<line x1="22.5" y1="0" x2="22.5" y2="24" class="grid-line"/>
<line x1="23" y1="0" x2="23" y2="24" class="grid-line"/>
<line x1="23.5" y1="0" x2="23.5" y2="24" class="grid-line"/>
<line x1="24" y1="0" x2="24" y2="24" class="grid-line"/>
<line x1="0" y1="0" x2="24" y2="0" class="grid-line"/>
<line x1="0" y1="0.5" x2="24" y2="0.5" class="grid-line"/>
<line x1="0" y1="1" x2="24" y2="1" class="grid-line"/>
<line x1="0" y1="1.5" x2="24" y2="1.5" class="grid-line"/>
<line x1="0" y1="2" x2="24" y2="2" class="grid-line"/>
<line x1="0" y1="2.5" x2="24" y2="2.5" class="grid-line"/>
<line x1="0" y1="3" x2="24" y2="3" class="grid-line"/>
<line x1="0" y1="3.5" x2="24" y2="3.5" class="grid-line"/>
<line x1="0" y1="4" x2="24" y2="4" class="grid-line"/>
<line x1="0" y1="4.5" x2="24" y2="4.5" class="grid-line"/>
<line x1="0" y1="5" x2="24" y2="5" class="grid-line"/>
<line x1="0" y1="5.5" x2="24" y2="5.5" class="grid-line"/>
<line x1="0" y1="6" x2="24" y2="6" class="grid-line"/>
<line x1="0" y1="6.5" x2="24" y2="6.5" class="grid-line"/>
<line x1="0" y1="7" x2="24" y2="7" class="grid-line"/>
<line x1="0" y1="7.5" x2="24" y2="7.5" class="grid-line"/>
<line x1="0" y1="8" x2="24" y2="8" class="grid-line"/>
<line x1="0" y1="8.5" x2="24" y2="8.5" class="grid-line"/>
<line x1="0" y1="9" x2="24" y2="9" class="grid-line"/>
<line x1="0" y1="9.5" x2="24" y2="9.5" class="grid-line"/>
<line x1="0" y1="10" x2="24" y2="10" class="grid-line"/>
<line x1="0" y1="10.5" x2="24" y2="10.5" class="grid-line"/>
<line x1="0" y1="11" x2="24" y2="11" class="grid-line"/>
<line x1="0" y1="11.5" x2="24" y2="11.5" class="grid-line"/>
<line x1="0" y1="12" x2="24" y2="12" class="grid-line"/>
<line x1="0" y1="12.5" x2="24" y2="12.5" class="grid-line"/>
<line x1="0" y1="13" x2="24" y2="13" class="grid-line"/>
<line x1="0" y1="13.5" x2="24" y2="13.5" class="grid-line"/>
<line x1="0" y1="14" x2="24" y2="14" class="grid-line"/>
<line x1="0" y1="14.5" x2="24" y2="14.5" class="grid-line"/>
<line x1="0" y1="15" x2="24" y2="15" class="grid-line"/>
<line x1="0" y1="15.5" x2="24" y2="15.5" class="grid-line"/>
<line x1="0" y1="16" x2="24" y2="16" class="grid-line"/>
<line x1="0" y1="16.5" x2="24" y2="16.5" class="grid-line"/>
<line x1="0" y1="17" x2="24" y2="17" class="grid-line"/>
<line x1="0" y1="17.5" x2="24" y2="17.5" class="grid-line"/>
<line x1="0" y1="18" x2="24" y2="18" class="grid-line"/>
<line x1="0" y1="18.5" x2="24" y2="18.5" class="grid-line"/>
<line x1="0" y1="19" x2="24" y2="19" class="grid-line"/>
<line x1="0" y1="19.5" x2="24" y2="19.5" class="grid-line"/>
<line x1="0" y1="20" x2="24" y2="20" class="grid-line"/>
<line x1="0" y1="20.5" x2="24" y2="20.5" class="grid-line"/>
<line x1="0" y1="21" x2="24" y2="21" class="grid-line"/>
<line x1="0" y1="21.5" x2="24" y2="21.5" class="grid-line"/>
<line x1="0" y1="22" x2="24" y2="22" class="grid-line"/>
<line x1="0" y1="22.5" x2="24" y2="22.5" class="grid-line"/>
<line x1="0" y1="23" x2="24" y2="23" class="grid-line"/>
<line x1="0" y1="23.5" x2="24" y2="23.5" class="grid-line"/>
<line x1="0" y1="24" x2="24" y2="24" class="grid-line"/>
</g>
<g id="layer-delaunay" class="layer ">
<line x1="16.991315055906192" y1="15.085726740149836" x2="16.905028812907275" y2="15.260697932102936" class="delaunay-line"/>
<line x1="16.905028812907275" y1="15.260697932102936" x2="17.137991726051812" y2="14.957094752761977" class="delaunay-line"/>
<line x1="17.137991726051812" y1="14.957094752761977" x2="16.991315055906192" y2="15.085726740149836" class="delaunay-line"/>
<line x1="16.905028812907275" y1="15.260697932102936" x2="16.892269295364905" y2="15.45537055076422" class="delaunay-line"/>
<line x1="16.892269295364905" y1="15.45537055076422" x2="17.137991726051812" y2="14.957094752761977" class="delaunay-line"/>
<line x1="17.137991726051812" y1="14.957094752761977" x2="16.905028812907275" y2="15.260697932102936" class="delaunay-line"/>
<line x1="16.892269295364905" y1="15.45537055076422" x2="17.083611011547454" y2="15.786784124799814" class="delaunay-line"/>
<line x1="17.083611011547454" y1="15.786784124799814" x2="17.137991726051812" y2="14.957094752761977" class="delaunay-line"/>
<line x1="17.137991726051812" y1="14.957094752761977" x2="16.892269295364905" y2="15.45537055076422" class="delaunay-line"/>
<line x1="17.517401248603072" y1="14.907144541509663" x2="17.322728629941786" y2="14.89438502396729" class="delaunay-line"/>
<line x1="17.322728629941786" y1="14.89438502396729" x2="17.137991726051812" y2="14.957094752761977" class="delaunay-line"/>
<line x1="17.137991726051812" y1="14.957094752761977" x2="17.517401248603072" y2="14.907144541509663" class="delaunay-line"/>
<line x1="16.95497902415959" y1="15.640107454654196" x2="17.083611011547454" y2="15.786784124799814" class="delaunay-line"/>
<line x1="17.083611011547454" y1="15.786784124799814" x2="16.892269295364905" y2="15.45537055076422" class="delaunay-line"/>
<line x1="16.892269295364905" y1="15.45537055076422" x2="16.95497902415959" y2="15.640107454654196" class="delaunay-line"/>
<line x1="17.083611011547454" y1="15.786784124799814" x2="17.517401248603072" y2="14.907144541509663" class="delaunay-line"/>
<line x1="17.517401248603072" y1="14.907144541509663" x2="17.137991726051812" y2="14.957094752761977" class="delaunay-line"/>
<line x1="17.137991726051812" y1="14.957094752761977" x2="17.083611011547454" y2="15.786784124799814" class="delaunay-line"/>
<line x1="17.083611011547454" y1="15.786784124799814" x2="17.258582203500552" y2="15.873070367798729" class="delaunay-line"/>
<line x1="17.258582203500552" y1="15.873070367798729" x2="17.517401248603072" y2="14.907144541509663" class="delaunay-line"/>
<line x1="17.517401248603072" y1="14.907144541509663" x2="17.083611011547454" y2="15.786784124799814" class="delaunay-line"/>
<line x1="17.258582203500552" y1="15.873070367798729" x2="17.69237244055617" y2="14.993430784508577" class="delaunay-line"/>
<line x1="17.69237244055617" y1="14.993430784508577" x2="17.517401248603072" y2="14.907144541509663" class="delaunay-line"/>
<line x1="17.517401248603072" y1="14.907144541509663" x2="17.258582203500552" y2="15.873070367798729" class="delaunay-line"/>
<line x1="17.258582203500552" y1="15.873070367798729" x2="17.637991726051812" y2="15.823120156546414" class="delaunay-line"/>
<line x1="17.637991726051812" y1="15.823120156546414" x2="17.69237244055617" y2="14.993430784508577" class="delaunay-line"/>
<line x1="17.69237244055617" y1="14.993430784508577" x2="17.258582203500552" y2="15.873070367798729" class="delaunay-line"/>
<line x1="17.45325482216184" y1="15.885829885341101" x2="17.637991726051812" y2="15.823120156546414" class="delaunay-line"/>
<line x1="17.637991726051812" y1="15.823120156546414" x2="17.258582203500552" y2="15.873070367798729" class="delaunay-line"/>
<line x1="17.258582203500552" y1="15.873070367798729" x2="17.45325482216184" y2="15.885829885341101" class="delaunay-line"/>
<line x1="17.88371415673872" y1="15.324844358544171" x2="17.821004427944032" y2="15.140107454654196" class="delaunay-line"/>
<line x1="17.821004427944032" y1="15.140107454654196" x2="17.69237244055617" y2="14.993430784508577" class="delaunay-line"/>
<line x1="17.69237244055617" y1="14.993430784508577" x2="17.88371415673872" y2="15.324844358544171" class="delaunay-line"/>
<line x1="17.637991726051812" y1="15.823120156546414" x2="17.88371415673872" y2="15.324844358544171" class="delaunay-line"/>
<line x1="17.88371415673872" y1="15.324844358544171" x2="17.69237244055617" y2="14.993430784508577" class="delaunay-line"/>
<line x1="17.69237244055617" y1="14.993430784508577" x2="17.637991726051812" y2="15.823120156546414" class="delaunay-line"/>
<line x1="17.637991726051812" y1="15.823120156546414" x2="17.87095463919635" y2="15.519516977205456" class="delaunay-line"/>
<line x1="17.87095463919635" y1="15.519516977205456" x2="17.88371415673872" y2="15.324844358544171" class="delaunay-line"/>
<line x1="17.88371415673872" y1="15.324844358544171" x2="17.637991726051812" y2="15.823120156546414" class="delaunay-line"/>
<line x1="17.784668396197432" y1="15.694488169158555" x2="17.87095463919635" y2="15.519516977205456" class="delaunay-line"/>
<line x1="17.87095463919635" y1="15.519516977205456" x2="17.637991726051812" y2="15.823120156546414" class="delaunay-line"/>
<line x1="17.637991726051812" y1="15.823120156546414" x2="17.784668396197432" y2="15.694488169158555" class="delaunay-line"/>
<line x1="17.637991726051812" y1="15.823120156546414" x2="20.240710872583723" y2="17.680010039790744" class="delaunay-line"/>
<line x1="20.240710872583723" y1="17.680010039790744" x2="17.784668396197432" y2="15.694488169158555" class="delaunay-line"/>
<line x1="17.784668396197432" y1="15.694488169158555" x2="17.637991726051812" y2="15.823120156546414" class="delaunay-line"/>
<line x1="17.784668396197432" y1="15.694488169158555" x2="20.38738754272934" y2="17.551378052402885" class="delaunay-line"/>
<line x1="20.38738754272934" y1="17.551378052402885" x2="17.87095463919635" y2="15.519516977205456" class="delaunay-line"/>
<line x1="17.87095463919635" y1="15.519516977205456" x2="17.784668396197432" y2="15.694488169158555" class="delaunay-line"/>
<line x1="17.87095463919635" y1="15.519516977205456" x2="20.572124446619313" y2="17.4886683236082" class="delaunay-line"/>
<line x1="20.572124446619313" y1="17.4886683236082" x2="17.88371415673872" y2="15.324844358544171" class="delaunay-line"/>
<line x1="17.88371415673872" y1="15.324844358544171" x2="17.87095463919635" y2="15.519516977205456" class="delaunay-line"/>
<line x1="17.88371415673872" y1="15.324844358544171" x2="22.712311283333342" y2="14.482581184000633" class="delaunay-line"/>
<line x1="22.712311283333342" y1="14.482581184000633" x2="17.821004427944032" y2="15.140107454654196" class="delaunay-line"/>
<line x1="17.821004427944032" y1="15.140107454654196" x2="17.88371415673872" y2="15.324844358544171" class="delaunay-line"/>
<line x1="17.821004427944032" y1="15.140107454654196" x2="22.7503715170777" y2="14.29123946781809" class="delaunay-line"/>
<line x1="22.7503715170777" y1="14.29123946781809" x2="17.69237244055617" y2="14.993430784508577" class="delaunay-line"/>
<line x1="17.69237244055617" y1="14.993430784508577" x2="17.821004427944032" y2="15.140107454654196" class="delaunay-line"/>
<line x1="20.154424629584806" y1="17.854981231743842" x2="20.240710872583723" y2="17.680010039790744" class="delaunay-line"/>
<line x1="20.240710872583723" y1="17.680010039790744" x2="17.637991726051812" y2="15.823120156546414" class="delaunay-line"/>
<line x1="17.637991726051812" y1="15.823120156546414" x2="20.154424629584806" y2="17.854981231743842" class="delaunay-line"/>
<line x1="20.154424629584806" y1="17.854981231743842" x2="17.637991726051812" y2="15.823120156546414" class="delaunay-line"/>
<line x1="17.637991726051812" y1="15.823120156546414" x2="17.45325482216184" y2="15.885829885341101" class="delaunay-line"/>
<line x1="17.45325482216184" y1="15.885829885341101" x2="20.154424629584806" y2="17.854981231743842" class="delaunay-line"/>
<line x1="20.154424629584806" y1="17.854981231743842" x2="17.45325482216184" y2="15.885829885341101" class="delaunay-line"/>
<line x1="17.45325482216184" y1="15.885829885341101" x2="20.141665112042435" y2="18.04965385040513" class="delaunay-line"/>
<line x1="20.141665112042435" y1="18.04965385040513" x2="20.154424629584806" y2="17.854981231743842" class="delaunay-line"/>
<line x1="20.240710872583723" y1="17.680010039790744" x2="20.38738754272934" y2="17.551378052402885" class="delaunay-line"/>
<line x1="20.38738754272934" y1="17.551378052402885" x2="17.784668396197432" y2="15.694488169158555" class="delaunay-line"/>
<line x1="17.784668396197432" y1="15.694488169158555" x2="20.240710872583723" y2="17.680010039790744" class="delaunay-line"/>
<line x1="20.141665112042435" y1="18.04965385040513" x2="17.45325482216184" y2="15.885829885341101" class="delaunay-line"/>
<line x1="17.45325482216184" y1="15.885829885341101" x2="17.258582203500552" y2="15.873070367798729" class="delaunay-line"/>
<line x1="17.258582203500552" y1="15.873070367798729" x2="20.141665112042435" y2="18.04965385040513" class="delaunay-line"/>
<line x1="20.7667970652806" y1="17.50142784115057" x2="20.572124446619313" y2="17.4886683236082" class="delaunay-line"/>
<line x1="20.572124446619313" y1="17.4886683236082" x2="20.941768257233697" y2="17.587714084149486" class="delaunay-line"/>
<line x1="20.941768257233697" y1="17.587714084149486" x2="20.7667970652806" y2="17.50142784115057" class="delaunay-line"/>
<line x1="20.572124446619313" y1="17.4886683236082" x2="20.38738754272934" y2="17.551378052402885" class="delaunay-line"/>
<line x1="20.38738754272934" y1="17.551378052402885" x2="20.941768257233697" y2="17.587714084149486" class="delaunay-line"/>
<line x1="20.941768257233697" y1="17.587714084149486" x2="20.572124446619313" y2="17.4886683236082" class="delaunay-line"/>
<line x1="20.38738754272934" y1="17.551378052402885" x2="20.572124446619313" y2="17.4886683236082" class="delaunay-line"/>
<line x1="20.572124446619313" y1="17.4886683236082" x2="17.87095463919635" y2="15.519516977205456" class="delaunay-line"/>
<line x1="17.87095463919635" y1="15.519516977205456" x2="20.38738754272934" y2="17.551378052402885" class="delaunay-line"/>
<line x1="20.204374840837122" y1="18.234390754295102" x2="20.141665112042435" y2="18.04965385040513" class="delaunay-line"/>
<line x1="20.141665112042435" y1="18.04965385040513" x2="17.258582203500552" y2="15.873070367798729" class="delaunay-line"/>
<line x1="17.258582203500552" y1="15.873070367798729" x2="20.204374840837122" y2="18.234390754295102" class="delaunay-line"/>
<line x1="20.154424629584806" y1="17.854981231743842" x2="20.141665112042435" y2="18.04965385040513" class="delaunay-line"/>
<line x1="20.141665112042435" y1="18.04965385040513" x2="20.240710872583723" y2="17.680010039790744" class="delaunay-line"/>
<line x1="20.240710872583723" y1="17.680010039790744" x2="20.154424629584806" y2="17.854981231743842" class="delaunay-line"/>
<line x1="20.941768257233697" y1="17.587714084149486" x2="20.38738754272934" y2="17.551378052402885" class="delaunay-line"/>
<line x1="20.38738754272934" y1="17.551378052402885" x2="20.240710872583723" y2="17.680010039790744" class="delaunay-line"/>
<line x1="20.240710872583723" y1="17.680010039790744" x2="20.941768257233697" y2="17.587714084149486" class="delaunay-line"/>
<line x1="20.572124446619313" y1="17.4886683236082" x2="22.712311283333342" y2="14.482581184000633" class="delaunay-line"/>
<line x1="22.712311283333342" y1="14.482581184000633" x2="17.88371415673872" y2="15.324844358544171" class="delaunay-line"/>
<line x1="17.88371415673872" y1="15.324844358544171" x2="20.572124446619313" y2="17.4886683236082" class="delaunay-line"/>
<line x1="17.083611011547454" y1="15.786784124799814" x2="20.204374840837122" y2="18.234390754295102" class="delaunay-line"/>
<line x1="20.204374840837122" y1="18.234390754295102" x2="17.258582203500552" y2="15.873070367798729" class="delaunay-line"/>
<line x1="17.258582203500552" y1="15.873070367798729" x2="17.083611011547454" y2="15.786784124799814" class="delaunay-line"/>
<line x1="20.141665112042435" y1="18.04965385040513" x2="20.204374840837122" y2="18.234390754295102" class="delaunay-line"/>
<line x1="20.204374840837122" y1="18.234390754295102" x2="20.240710872583723" y2="17.680010039790744" class="delaunay-line"/>
<line x1="20.240710872583723" y1="17.680010039790744" x2="20.141665112042435" y2="18.04965385040513" class="delaunay-line"/>
<line x1="20.33300682822498" y1="18.38106742444072" x2="20.941768257233697" y2="17.587714084149486" class="delaunay-line"/>
<line x1="20.941768257233697" y1="17.587714084149486" x2="20.240710872583723" y2="17.680010039790744" class="delaunay-line"/>
<line x1="20.240710872583723" y1="17.680010039790744" x2="20.33300682822498" y2="18.38106742444072" class="delaunay-line"/>
<line x1="22.7503715170777" y1="14.673922900183177" x2="22.712311283333342" y2="14.482581184000633" class="delaunay-line"/>
<line x1="22.712311283333342" y1="14.482581184000633" x2="20.572124446619313" y2="17.4886683236082" class="delaunay-line"/>
<line x1="20.572124446619313" y1="17.4886683236082" x2="22.7503715170777" y2="14.673922900183177" class="delaunay-line"/>
<line x1="17.083611011547454" y1="15.786784124799814" x2="20.33300682822498" y2="18.38106742444072" class="delaunay-line"/>
<line x1="20.33300682822498" y1="18.38106742444072" x2="20.204374840837122" y2="18.234390754295102" class="delaunay-line"/>
<line x1="20.204374840837122" y1="18.234390754295102" x2="17.083611011547454" y2="15.786784124799814" class="delaunay-line"/>
<line x1="20.204374840837122" y1="18.234390754295102" x2="20.33300682822498" y2="18.38106742444072" class="delaunay-line"/>
<line x1="20.33300682822498" y1="18.38106742444072" x2="20.240710872583723" y2="17.680010039790744" class="delaunay-line"/>
<line x1="20.240710872583723" y1="17.680010039790744" x2="20.204374840837122" y2="18.234390754295102" class="delaunay-line"/>
<line x1="21.034064212874956" y1="18.28877146879946" x2="21.070400244621556" y2="17.734390754295102" class="delaunay-line"/>
<line x1="21.070400244621556" y1="17.734390754295102" x2="20.941768257233697" y2="17.587714084149486" class="delaunay-line"/>
<line x1="20.941768257233697" y1="17.587714084149486" x2="21.034064212874956" y2="18.28877146879946" class="delaunay-line"/>
<line x1="21.120350455873872" y1="18.113800276846362" x2="21.133109973416243" y2="17.919127658185076" class="delaunay-line"/>
<line x1="21.133109973416243" y1="17.919127658185076" x2="21.034064212874956" y2="18.28877146879946" class="delaunay-line"/>
<line x1="21.034064212874956" y1="18.28877146879946" x2="21.120350455873872" y2="18.113800276846362" class="delaunay-line"/>
<line x1="21.034064212874956" y1="18.28877146879946" x2="20.941768257233697" y2="17.587714084149486" class="delaunay-line"/>
<line x1="20.941768257233697" y1="17.587714084149486" x2="20.33300682822498" y2="18.38106742444072" class="delaunay-line"/>
<line x1="20.33300682822498" y1="18.38106742444072" x2="21.034064212874956" y2="18.28877146879946" class="delaunay-line"/>
<line x1="20.50797802017808" y1="18.467353667439635" x2="20.702650638839366" y2="18.480113184982006" class="delaunay-line"/>
<line x1="20.702650638839366" y1="18.480113184982006" x2="20.33300682822498" y2="18.38106742444072" class="delaunay-line"/>
<line x1="20.33300682822498" y1="18.38106742444072" x2="20.50797802017808" y2="18.467353667439635" class="delaunay-line"/>
<line x1="21.034064212874956" y1="18.28877146879946" x2="21.133109973416243" y2="17.919127658185076" class="delaunay-line"/>
<line x1="21.133109973416243" y1="17.919127658185076" x2="21.070400244621556" y2="17.734390754295102" class="delaunay-line"/>
<line x1="21.070400244621556" y1="17.734390754295102" x2="21.034064212874956" y2="18.28877146879946" class="delaunay-line"/>
<line x1="20.702650638839366" y1="18.480113184982006" x2="20.88738754272934" y2="18.41740345618732" class="delaunay-line"/>
<line x1="20.88738754272934" y1="18.41740345618732" x2="20.33300682822498" y2="18.38106742444072" class="delaunay-line"/>
<line x1="20.33300682822498" y1="18.38106742444072" x2="20.702650638839366" y2="18.480113184982006" class="delaunay-line"/>
<line x1="20.88738754272934" y1="18.41740345618732" x2="21.034064212874956" y2="18.28877146879946" class="delaunay-line"/>
<line x1="21.034064212874956" y1="18.28877146879946" x2="20.33300682822498" y2="18.38106742444072" class="delaunay-line"/>
<line x1="20.33300682822498" y1="18.38106742444072" x2="20.88738754272934" y2="18.41740345618732" class="delaunay-line"/>
<line x1="20.7667970652806" y1="17.50142784115057" x2="20.941768257233697" y2="17.587714084149486" class="delaunay-line"/>
<line x1="20.941768257233697" y1="17.587714084149486" x2="22.85875789274007" y2="14.836134574593906" class="delaunay-line"/>
<line x1="22.85875789274007" y1="14.836134574593906" x2="20.7667970652806" y2="17.50142784115057" class="delaunay-line"/>
<line x1="22.7503715170777" y1="14.673922900183177" x2="20.7667970652806" y2="17.50142784115057" class="delaunay-line"/>
<line x1="20.7667970652806" y1="17.50142784115057" x2="22.85875789274007" y2="14.836134574593906" class="delaunay-line"/>
<line x1="22.85875789274007" y1="14.836134574593906" x2="22.7503715170777" y2="14.673922900183177" class="delaunay-line"/>
<line x1="22.7503715170777" y1="14.673922900183177" x2="20.572124446619313" y2="17.4886683236082" class="delaunay-line"/>
<line x1="20.572124446619313" y1="17.4886683236082" x2="20.7667970652806" y2="17.50142784115057" class="delaunay-line"/>
<line x1="20.7667970652806" y1="17.50142784115057" x2="22.7503715170777" y2="14.673922900183177" class="delaunay-line"/>
<line x1="17.69237244055617" y1="14.993430784508577" x2="22.85875789274007" y2="14.12902779340736" class="delaunay-line"/>
<line x1="22.85875789274007" y1="14.12902779340736" x2="17.517401248603072" y2="14.907144541509663" class="delaunay-line"/>
<line x1="17.517401248603072" y1="14.907144541509663" x2="17.69237244055617" y2="14.993430784508577" class="delaunay-line"/>
<line x1="15.312865407792868" y1="3.1078215422876574" x2="15.121523691610323" y2="3.145881776032014" class="delaunay-line"/>
<line x1="15.121523691610323" y1="3.145881776032014" x2="17.322728629941786" y2="14.89438502396729" class="delaunay-line"/>
<line x1="17.322728629941786" y1="14.89438502396729" x2="15.312865407792868" y2="3.1078215422876574" class="delaunay-line"/>
<line x1="20.941768257233697" y1="17.587714084149486" x2="23.020969567150797" y2="14.944520950256278" class="delaunay-line"/>
<line x1="23.020969567150797" y1="14.944520950256278" x2="22.85875789274007" y2="14.836134574593906" class="delaunay-line"/>
<line x1="22.85875789274007" y1="14.836134574593906" x2="20.941768257233697" y2="17.587714084149486" class="delaunay-line"/>
<line x1="20.941768257233697" y1="17.587714084149486" x2="21.070400244621556" y2="17.734390754295102" class="delaunay-line"/>
<line x1="21.070400244621556" y1="17.734390754295102" x2="23.020969567150797" y2="14.944520950256278" class="delaunay-line"/>
<line x1="23.020969567150797" y1="14.944520950256278" x2="20.941768257233697" y2="17.587714084149486" class="delaunay-line"/>
<line x1="22.7503715170777" y1="14.673922900183177" x2="22.7503715170777" y2="14.29123946781809" class="delaunay-line"/>
<line x1="22.7503715170777" y1="14.29123946781809" x2="22.712311283333342" y2="14.482581184000633" class="delaunay-line"/>
<line x1="22.712311283333342" y1="14.482581184000633" x2="22.7503715170777" y2="14.673922900183177" class="delaunay-line"/>
<line x1="22.712311283333342" y1="14.482581184000633" x2="22.7503715170777" y2="14.29123946781809" class="delaunay-line"/>
<line x1="22.7503715170777" y1="14.29123946781809" x2="17.821004427944032" y2="15.140107454654196" class="delaunay-line"/>
<line x1="17.821004427944032" y1="15.140107454654196" x2="22.712311283333342" y2="14.482581184000633" class="delaunay-line"/>
<line x1="23.020969567150797" y1="14.944520950256278" x2="21.070400244621556" y2="17.734390754295102" class="delaunay-line"/>
<line x1="21.070400244621556" y1="17.734390754295102" x2="23.212311283333342" y2="14.982581184000633" class="delaunay-line"/>
<line x1="23.212311283333342" y1="14.982581184000633" x2="23.020969567150797" y2="14.944520950256278" class="delaunay-line"/>
<line x1="22.7503715170777" y1="14.673922900183177" x2="22.85875789274007" y2="14.836134574593906" class="delaunay-line"/>
<line x1="22.85875789274007" y1="14.836134574593906" x2="22.7503715170777" y2="14.29123946781809" class="delaunay-line"/>
<line x1="22.7503715170777" y1="14.29123946781809" x2="22.7503715170777" y2="14.673922900183177" class="delaunay-line"/>
<line x1="21.070400244621556" y1="17.734390754295102" x2="21.133109973416243" y2="17.919127658185076" class="delaunay-line"/>
<line x1="21.133109973416243" y1="17.919127658185076" x2="23.212311283333342" y2="14.982581184000633" class="delaunay-line"/>
<line x1="23.212311283333342" y1="14.982581184000633" x2="21.070400244621556" y2="17.734390754295102" class="delaunay-line"/>
<line x1="22.85875789274007" y1="14.836134574593906" x2="22.85875789274007" y2="14.12902779340736" class="delaunay-line"/>
<line x1="22.85875789274007" y1="14.12902779340736" x2="22.7503715170777" y2="14.29123946781809" class="delaunay-line"/>
<line x1="22.7503715170777" y1="14.29123946781809" x2="22.85875789274007" y2="14.836134574593906" class="delaunay-line"/>
<line x1="22.7503715170777" y1="14.29123946781809" x2="22.85875789274007" y2="14.12902779340736" class="delaunay-line"/>
<line x1="22.85875789274007" y1="14.12902779340736" x2="17.69237244055617" y2="14.993430784508577" class="delaunay-line"/>
<line x1="17.69237244055617" y1="14.993430784508577" x2="22.7503715170777" y2="14.29123946781809" class="delaunay-line"/>
<line x1="23.212311283333342" y1="14.982581184000633" x2="21.133109973416243" y2="17.919127658185076" class="delaunay-line"/>
<line x1="21.133109973416243" y1="17.919127658185076" x2="23.403652999515888" y2="14.944520950256278" class="delaunay-line"/>
<line x1="23.403652999515888" y1="14.944520950256278" x2="23.212311283333342" y2="14.982581184000633" class="delaunay-line"/>
<line x1="22.85875789274007" y1="14.836134574593906" x2="23.565864673926615" y2="14.12902779340736" class="delaunay-line"/>
<line x1="23.565864673926615" y1="14.12902779340736" x2="22.85875789274007" y2="14.12902779340736" class="delaunay-line"/>
<line x1="22.85875789274007" y1="14.12902779340736" x2="22.85875789274007" y2="14.836134574593906" class="delaunay-line"/>
<line x1="23.212311283333342" y1="13.982581184000633" x2="23.020969567150797" y2="14.020641417744988" class="delaunay-line"/>
<line x1="23.020969567150797" y1="14.020641417744988" x2="22.85875789274007" y2="14.12902779340736" class="delaunay-line"/>
<line x1="22.85875789274007" y1="14.12902779340736" x2="23.212311283333342" y2="13.982581184000633" class="delaunay-line"/>
<line x1="22.85875789274007" y1="14.12902779340736" x2="23.020969567150797" y2="14.020641417744988" class="delaunay-line"/>
<line x1="23.020969567150797" y1="14.020641417744988" x2="17.517401248603072" y2="14.907144541509663" class="delaunay-line"/>
<line x1="17.517401248603072" y1="14.907144541509663" x2="22.85875789274007" y2="14.12902779340736" class="delaunay-line"/>
<line x1="23.403652999515888" y1="14.944520950256278" x2="21.133109973416243" y2="17.919127658185076" class="delaunay-line"/>
<line x1="21.133109973416243" y1="17.919127658185076" x2="21.120350455873872" y2="18.113800276846362" class="delaunay-line"/>
<line x1="21.120350455873872" y1="18.113800276846362" x2="23.403652999515888" y2="14.944520950256278" class="delaunay-line"/>
<line x1="23.020969567150797" y1="14.944520950256278" x2="23.212311283333342" y2="14.982581184000633" class="delaunay-line"/>
<line x1="23.212311283333342" y1="14.982581184000633" x2="22.85875789274007" y2="14.836134574593906" class="delaunay-line"/>
<line x1="22.85875789274007" y1="14.836134574593906" x2="23.020969567150797" y2="14.944520950256278" class="delaunay-line"/>
<line x1="23.565864673926615" y1="14.12902779340736" x2="23.212311283333342" y2="13.982581184000633" class="delaunay-line"/>
<line x1="23.212311283333342" y1="13.982581184000633" x2="22.85875789274007" y2="14.12902779340736" class="delaunay-line"/>
<line x1="22.85875789274007" y1="14.12902779340736" x2="23.565864673926615" y2="14.12902779340736" class="delaunay-line"/>
<line x1="15.312865407792868" y1="3.1078215422876574" x2="17.322728629941786" y2="14.89438502396729" class="delaunay-line"/>
<line x1="17.322728629941786" y1="14.89438502396729" x2="17.517401248603072" y2="14.907144541509663" class="delaunay-line"/>
<line x1="17.517401248603072" y1="14.907144541509663" x2="15.312865407792868" y2="3.1078215422876574" class="delaunay-line"/>
<line x1="23.565864673926615" y1="14.836134574593906" x2="23.403652999515888" y2="14.944520950256278" class="delaunay-line"/>
<line x1="23.403652999515888" y1="14.944520950256278" x2="24" y2="24" class="delaunay-line"/>
<line x1="24" y1="24" x2="23.565864673926615" y2="14.836134574593906" class="delaunay-line"/>
<line x1="23.212311283333342" y1="14.982581184000633" x2="23.565864673926615" y2="14.836134574593906" class="delaunay-line"/>
<line x1="23.565864673926615" y1="14.836134574593906" x2="22.85875789274007" y2="14.836134574593906" class="delaunay-line"/>
<line x1="22.85875789274007" y1="14.836134574593906" x2="23.212311283333342" y2="14.982581184000633" class="delaunay-line"/>
<line x1="23.565864673926615" y1="14.12902779340736" x2="23.403652999515888" y2="14.020641417744988" class="delaunay-line"/>
<line x1="23.403652999515888" y1="14.020641417744988" x2="23.212311283333342" y2="13.982581184000633" class="delaunay-line"/>
<line x1="23.212311283333342" y1="13.982581184000633" x2="23.565864673926615" y2="14.12902779340736" class="delaunay-line"/>
<line x1="24" y1="24" x2="23.403652999515888" y2="14.944520950256278" class="delaunay-line"/>
<line x1="23.403652999515888" y1="14.944520950256278" x2="21.120350455873872" y2="18.113800276846362" class="delaunay-line"/>
<line x1="21.120350455873872" y1="18.113800276846362" x2="24" y2="24" class="delaunay-line"/>
<line x1="23.403652999515888" y1="14.944520950256278" x2="23.565864673926615" y2="14.836134574593906" class="delaunay-line"/>
<line x1="23.565864673926615" y1="14.836134574593906" x2="23.212311283333342" y2="14.982581184000633" class="delaunay-line"/>
<line x1="23.212311283333342" y1="14.982581184000633" x2="23.403652999515888" y2="14.944520950256278" class="delaunay-line"/>
<line x1="23.565864673926615" y1="14.836134574593906" x2="23.565864673926615" y2="14.12902779340736" class="delaunay-line"/>
<line x1="23.565864673926615" y1="14.12902779340736" x2="22.85875789274007" y2="14.836134574593906" class="delaunay-line"/>
<line x1="22.85875789274007" y1="14.836134574593906" x2="23.565864673926615" y2="14.836134574593906" class="delaunay-line"/>
<line x1="23.565864673926615" y1="14.836134574593906" x2="23.674251049588985" y2="14.673922900183177" class="delaunay-line"/>
<line x1="23.674251049588985" y1="14.673922900183177" x2="23.565864673926615" y2="14.12902779340736" class="delaunay-line"/>
<line x1="23.565864673926615" y1="14.12902779340736" x2="23.565864673926615" y2="14.836134574593906" class="delaunay-line"/>
<line x1="23.674251049588985" y1="14.673922900183177" x2="23.674251049588985" y2="14.29123946781809" class="delaunay-line"/>
<line x1="23.674251049588985" y1="14.29123946781809" x2="23.565864673926615" y2="14.12902779340736" class="delaunay-line"/>
<line x1="23.565864673926615" y1="14.12902779340736" x2="23.674251049588985" y2="14.673922900183177" class="delaunay-line"/>
<line x1="23.674251049588985" y1="14.673922900183177" x2="23.712311283333342" y2="14.482581184000633" class="delaunay-line"/>
<line x1="23.712311283333342" y1="14.482581184000633" x2="23.674251049588985" y2="14.29123946781809" class="delaunay-line"/>
<line x1="23.674251049588985" y1="14.29123946781809" x2="23.674251049588985" y2="14.673922900183177" class="delaunay-line"/>
<line x1="20.88738754272934" y1="18.41740345618732" x2="24" y2="24" class="delaunay-line"/>
<line x1="24" y1="24" x2="21.034064212874956" y2="18.28877146879946" class="delaunay-line"/>
<line x1="21.034064212874956" y1="18.28877146879946" x2="20.88738754272934" y2="18.41740345618732" class="delaunay-line"/>
<line x1="21.034064212874956" y1="18.28877146879946" x2="24" y2="24" class="delaunay-line"/>
<line x1="24" y1="24" x2="21.120350455873872" y2="18.113800276846362" class="delaunay-line"/>
<line x1="21.120350455873872" y1="18.113800276846362" x2="21.034064212874956" y2="18.28877146879946" class="delaunay-line"/>
<line x1="23.565864673926615" y1="14.836134574593906" x2="24" y2="24" class="delaunay-line"/>
<line x1="24" y1="24" x2="23.674251049588985" y2="14.673922900183177" class="delaunay-line"/>
<line x1="23.674251049588985" y1="14.673922900183177" x2="23.565864673926615" y2="14.836134574593906" class="delaunay-line"/>
<line x1="23.674251049588985" y1="14.673922900183177" x2="24" y2="24" class="delaunay-line"/>
<line x1="24" y1="24" x2="23.712311283333342" y2="14.482581184000633" class="delaunay-line"/>
<line x1="23.712311283333342" y1="14.482581184000633" x2="23.674251049588985" y2="14.673922900183177" class="delaunay-line"/>
<line x1="20.702650638839366" y1="18.480113184982006" x2="24" y2="24" class="delaunay-line"/>
<line x1="24" y1="24" x2="20.88738754272934" y2="18.41740345618732" class="delaunay-line"/>
<line x1="20.88738754272934" y1="18.41740345618732" x2="20.702650638839366" y2="18.480113184982006" class="delaunay-line"/>
<line x1="20.50797802017808" y1="18.467353667439635" x2="24" y2="24" class="delaunay-line"/>
<line x1="24" y1="24" x2="20.702650638839366" y2="18.480113184982006" class="delaunay-line"/>
<line x1="20.702650638839366" y1="18.480113184982006" x2="20.50797802017808" y2="18.467353667439635" class="delaunay-line"/>
<line x1="20.33300682822498" y1="18.38106742444072" x2="24" y2="24" class="delaunay-line"/>
<line x1="24" y1="24" x2="20.50797802017808" y2="18.467353667439635" class="delaunay-line"/>
<line x1="20.50797802017808" y1="18.467353667439635" x2="20.33300682822498" y2="18.38106742444072" class="delaunay-line"/>
<line x1="0" y1="24" x2="24" y2="24" class="delaunay-line"/>
<line x1="24" y1="24" x2="20.33300682822498" y2="18.38106742444072" class="delaunay-line"/>
<line x1="20.33300682822498" y1="18.38106742444072" x2="0" y2="24" class="delaunay-line"/>
<line x1="0" y1="24" x2="20.33300682822498" y2="18.38106742444072" class="delaunay-line"/>
<line x1="20.33300682822498" y1="18.38106742444072" x2="17.083611011547454" y2="15.786784124799814" class="delaunay-line"/>
<line x1="17.083611011547454" y1="15.786784124799814" x2="0" y2="24" class="delaunay-line"/>
<line x1="15.312865407792868" y1="3.1078215422876574" x2="17.517401248603072" y2="14.907144541509663" class="delaunay-line"/>
<line x1="17.517401248603072" y1="14.907144541509663" x2="15.475077082203596" y2="2.999435166625288" class="delaunay-line"/>
<line x1="15.475077082203596" y1="2.999435166625288" x2="15.312865407792868" y2="3.1078215422876574" class="delaunay-line"/>
<line x1="17.322728629941786" y1="14.89438502396729" x2="15.121523691610323" y2="3.145881776032014" class="delaunay-line"/>
<line x1="15.121523691610323" y1="3.145881776032014" x2="17.137991726051812" y2="14.957094752761977" class="delaunay-line"/>
<line x1="17.137991726051812" y1="14.957094752761977" x2="17.322728629941786" y2="14.89438502396729" class="delaunay-line"/>
<line x1="17.137991726051812" y1="14.957094752761977" x2="14.930181975427777" y2="3.1078215422876574" class="delaunay-line"/>
<line x1="14.930181975427777" y1="3.1078215422876574" x2="16.991315055906192" y2="15.085726740149836" class="delaunay-line"/>
<line x1="16.991315055906192" y1="15.085726740149836" x2="17.137991726051812" y2="14.957094752761977" class="delaunay-line"/>
<line x1="16.991315055906192" y1="15.085726740149836" x2="10.824179102010731" y2="2.3452171864949793" class="delaunay-line"/>
<line x1="10.824179102010731" y1="2.3452171864949793" x2="16.905028812907275" y2="15.260697932102936" class="delaunay-line"/>
<line x1="16.905028812907275" y1="15.260697932102936" x2="16.991315055906192" y2="15.085726740149836" class="delaunay-line"/>
<line x1="16.905028812907275" y1="15.260697932102936" x2="2.5465850409391457" y2="18.24350573376963" class="delaunay-line"/>
<line x1="2.5465850409391457" y1="18.24350573376963" x2="16.892269295364905" y2="15.45537055076422" class="delaunay-line"/>
<line x1="16.892269295364905" y1="15.45537055076422" x2="16.905028812907275" y2="15.260697932102936" class="delaunay-line"/>
<line x1="17.517401248603072" y1="14.907144541509663" x2="23.020969567150797" y2="14.020641417744988" class="delaunay-line"/>
<line x1="23.020969567150797" y1="14.020641417744988" x2="15.475077082203596" y2="2.999435166625288" class="delaunay-line"/>
<line x1="15.475077082203596" y1="2.999435166625288" x2="17.517401248603072" y2="14.907144541509663" class="delaunay-line"/>
<line x1="23.020969567150797" y1="14.020641417744988" x2="15.583463457865966" y2="2.8372234922145587" class="delaunay-line"/>
<line x1="15.583463457865966" y1="2.8372234922145587" x2="15.475077082203596" y2="2.999435166625288" class="delaunay-line"/>
<line x1="15.475077082203596" y1="2.999435166625288" x2="23.020969567150797" y2="14.020641417744988" class="delaunay-line"/>
<line x1="23.020969567150797" y1="14.020641417744988" x2="24" y2="0" class="delaunay-line"/>
<line x1="24" y1="0" x2="15.583463457865966" y2="2.8372234922145587" class="delaunay-line"/>
<line x1="15.583463457865966" y1="2.8372234922145587" x2="23.020969567150797" y2="14.020641417744988" class="delaunay-line"/>
<line x1="14.76797030101705" y1="2.999435166625288" x2="14.930181975427777" y2="3.1078215422876574" class="delaunay-line"/>
<line x1="14.930181975427777" y1="3.1078215422876574" x2="15.121523691610323" y2="3.145881776032014" class="delaunay-line"/>
<line x1="15.121523691610323" y1="3.145881776032014" x2="14.76797030101705" y2="2.999435166625288" class="delaunay-line"/>
<line x1="15.121523691610323" y1="3.145881776032014" x2="14.930181975427777" y2="3.1078215422876574" class="delaunay-line"/>
<line x1="14.930181975427777" y1="3.1078215422876574" x2="17.137991726051812" y2="14.957094752761977" class="delaunay-line"/>
<line x1="17.137991726051812" y1="14.957094752761977" x2="15.121523691610323" y2="3.145881776032014" class="delaunay-line"/>
<line x1="15.583463457865966" y1="2.8372234922145587" x2="24" y2="0" class="delaunay-line"/>
<line x1="24" y1="0" x2="15.621523691610323" y2="2.645881776032014" class="delaunay-line"/>
<line x1="15.621523691610323" y1="2.645881776032014" x2="15.583463457865966" y2="2.8372234922145587" class="delaunay-line"/>
<line x1="15.312865407792868" y1="3.1078215422876574" x2="15.475077082203596" y2="2.999435166625288" class="delaunay-line"/>
<line x1="15.475077082203596" y1="2.999435166625288" x2="15.121523691610323" y2="3.145881776032014" class="delaunay-line"/>
<line x1="15.121523691610323" y1="3.145881776032014" x2="15.312865407792868" y2="3.1078215422876574" class="delaunay-line"/>
<line x1="15.475077082203596" y1="2.999435166625288" x2="14.76797030101705" y2="2.999435166625288" class="delaunay-line"/>
<line x1="14.76797030101705" y1="2.999435166625288" x2="15.121523691610323" y2="3.145881776032014" class="delaunay-line"/>
<line x1="15.121523691610323" y1="3.145881776032014" x2="15.475077082203596" y2="2.999435166625288" class="delaunay-line"/>
<line x1="14.930181975427777" y1="3.1078215422876574" x2="11.015520818193277" y2="2.3832774202393363" class="delaunay-line"/>
<line x1="11.015520818193277" y1="2.3832774202393363" x2="16.991315055906192" y2="15.085726740149836" class="delaunay-line"/>
<line x1="16.991315055906192" y1="15.085726740149836" x2="14.930181975427777" y2="3.1078215422876574" class="delaunay-line"/>
<line x1="23.020969567150797" y1="14.020641417744988" x2="23.212311283333342" y2="13.982581184000633" class="delaunay-line"/>
<line x1="23.212311283333342" y1="13.982581184000633" x2="24" y2="0" class="delaunay-line"/>
<line x1="24" y1="0" x2="23.020969567150797" y2="14.020641417744988" class="delaunay-line"/>
<line x1="15.475077082203596" y1="2.999435166625288" x2="14.65958392535468" y2="2.454540059849469" class="delaunay-line"/>
<line x1="14.65958392535468" y1="2.454540059849469" x2="14.76797030101705" y2="2.999435166625288" class="delaunay-line"/>
<line x1="14.76797030101705" y1="2.999435166625288" x2="15.475077082203596" y2="2.999435166625288" class="delaunay-line"/>
<line x1="14.65958392535468" y1="2.454540059849469" x2="14.65958392535468" y2="2.8372234922145587" class="delaunay-line"/>
<line x1="14.65958392535468" y1="2.8372234922145587" x2="14.76797030101705" y2="2.999435166625288" class="delaunay-line"/>
<line x1="14.76797030101705" y1="2.999435166625288" x2="14.65958392535468" y2="2.454540059849469" class="delaunay-line"/>
<line x1="14.76797030101705" y1="2.999435166625288" x2="11.206862534375823" y2="2.3452171864949793" class="delaunay-line"/>
<line x1="11.206862534375823" y1="2.3452171864949793" x2="14.930181975427777" y2="3.1078215422876574" class="delaunay-line"/>
<line x1="14.930181975427777" y1="3.1078215422876574" x2="14.76797030101705" y2="2.999435166625288" class="delaunay-line"/>
<line x1="15.583463457865966" y1="2.4545400598494687" x2="15.621523691610323" y2="2.645881776032014" class="delaunay-line"/>
<line x1="15.621523691610323" y1="2.645881776032014" x2="24" y2="0" class="delaunay-line"/>
<line x1="24" y1="0" x2="15.583463457865966" y2="2.4545400598494687" class="delaunay-line"/>
<line x1="14.65958392535468" y1="2.454540059849469" x2="14.621523691610323" y2="2.645881776032014" class="delaunay-line"/>
<line x1="14.621523691610323" y1="2.645881776032014" x2="14.65958392535468" y2="2.8372234922145587" class="delaunay-line"/>
<line x1="14.65958392535468" y1="2.8372234922145587" x2="14.65958392535468" y2="2.454540059849469" class="delaunay-line"/>
<line x1="14.65958392535468" y1="2.454540059849469" x2="15.475077082203596" y2="2.999435166625288" class="delaunay-line"/>
<line x1="15.475077082203596" y1="2.999435166625288" x2="15.583463457865966" y2="2.8372234922145587" class="delaunay-line"/>
<line x1="15.583463457865966" y1="2.8372234922145587" x2="14.65958392535468" y2="2.454540059849469" class="delaunay-line"/>
<line x1="11.36907420878655" y1="2.2368308108326094" x2="11.206862534375823" y2="2.3452171864949793" class="delaunay-line"/>
<line x1="11.206862534375823" y1="2.3452171864949793" x2="14.76797030101705" y2="2.999435166625288" class="delaunay-line"/>
<line x1="14.76797030101705" y1="2.999435166625288" x2="11.36907420878655" y2="2.2368308108326094" class="delaunay-line"/>
<line x1="24" y1="0" x2="23.212311283333342" y2="13.982581184000633" class="delaunay-line"/>
<line x1="23.212311283333342" y1="13.982581184000633" x2="23.403652999515888" y2="14.020641417744988" class="delaunay-line"/>
<line x1="23.403652999515888" y1="14.020641417744988" x2="24" y2="0" class="delaunay-line"/>
<line x1="15.621523691610323" y1="2.645881776032014" x2="15.583463457865966" y2="2.4545400598494687" class="delaunay-line"/>
<line x1="15.583463457865966" y1="2.4545400598494687" x2="15.583463457865966" y2="2.8372234922145587" class="delaunay-line"/>
<line x1="15.583463457865966" y1="2.8372234922145587" x2="15.621523691610323" y2="2.645881776032014" class="delaunay-line"/>
<line x1="15.475077082203596" y1="2.29232838543874" x2="14.65958392535468" y2="2.454540059849469" class="delaunay-line"/>
<line x1="14.65958392535468" y1="2.454540059849469" x2="15.583463457865966" y2="2.8372234922145587" class="delaunay-line"/>
<line x1="15.583463457865966" y1="2.8372234922145587" x2="15.475077082203596" y2="2.29232838543874" class="delaunay-line"/>
<line x1="24" y1="0" x2="15.475077082203596" y2="2.29232838543874" class="delaunay-line"/>
<line x1="15.475077082203596" y1="2.29232838543874" x2="15.583463457865966" y2="2.4545400598494687" class="delaunay-line"/>
<line x1="15.583463457865966" y1="2.4545400598494687" x2="24" y2="0" class="delaunay-line"/>
<line x1="15.583463457865966" y1="2.4545400598494687" x2="15.475077082203596" y2="2.29232838543874" class="delaunay-line"/>
<line x1="15.475077082203596" y1="2.29232838543874" x2="15.583463457865966" y2="2.8372234922145587" class="delaunay-line"/>
<line x1="15.583463457865966" y1="2.8372234922145587" x2="15.583463457865966" y2="2.4545400598494687" class="delaunay-line"/>
<line x1="15.475077082203596" y1="2.29232838543874" x2="14.76797030101705" y2="2.29232838543874" class="delaunay-line"/>
<line x1="14.76797030101705" y1="2.29232838543874" x2="14.65958392535468" y2="2.454540059849469" class="delaunay-line"/>
<line x1="14.65958392535468" y1="2.454540059849469" x2="15.475077082203596" y2="2.29232838543874" class="delaunay-line"/>
<line x1="15.121523691610323" y1="2.145881776032014" x2="14.930181975427777" y2="2.183942009776371" class="delaunay-line"/>
<line x1="14.930181975427777" y1="2.183942009776371" x2="14.76797030101705" y2="2.29232838543874" class="delaunay-line"/>
<line x1="14.76797030101705" y1="2.29232838543874" x2="15.121523691610323" y2="2.145881776032014" class="delaunay-line"/>
<line x1="15.121523691610323" y1="2.145881776032014" x2="14.76797030101705" y2="2.29232838543874" class="delaunay-line"/>
<line x1="14.76797030101705" y1="2.29232838543874" x2="15.475077082203596" y2="2.29232838543874" class="delaunay-line"/>
<line x1="15.475077082203596" y1="2.29232838543874" x2="15.121523691610323" y2="2.145881776032014" class="delaunay-line"/>
<line x1="15.312865407792868" y1="2.1839420097763704" x2="15.121523691610323" y2="2.145881776032014" class="delaunay-line"/>
<line x1="15.121523691610323" y1="2.145881776032014" x2="15.475077082203596" y2="2.29232838543874" class="delaunay-line"/>
<line x1="15.475077082203596" y1="2.29232838543874" x2="15.312865407792868" y2="2.1839420097763704" class="delaunay-line"/>
<line x1="14.65958392535468" y1="2.454540059849469" x2="11.515520818193277" y2="1.8832774202393363" class="delaunay-line"/>
<line x1="11.515520818193277" y1="1.8832774202393363" x2="14.621523691610323" y2="2.645881776032014" class="delaunay-line"/>
<line x1="14.621523691610323" y1="2.645881776032014" x2="14.65958392535468" y2="2.454540059849469" class="delaunay-line"/>
<line x1="14.621523691610323" y1="2.645881776032014" x2="11.515520818193277" y2="1.8832774202393363" class="delaunay-line"/>
<line x1="11.515520818193277" y1="1.8832774202393363" x2="11.47746058444892" y2="2.074619136421882" class="delaunay-line"/>
<line x1="11.47746058444892" y1="2.074619136421882" x2="14.621523691610323" y2="2.645881776032014" class="delaunay-line"/>
<line x1="14.65958392535468" y1="2.8372234922145587" x2="14.621523691610323" y2="2.645881776032014" class="delaunay-line"/>
<line x1="14.621523691610323" y1="2.645881776032014" x2="11.47746058444892" y2="2.074619136421882" class="delaunay-line"/>
<line x1="11.47746058444892" y1="2.074619136421882" x2="14.65958392535468" y2="2.8372234922145587" class="delaunay-line"/>
<line x1="11.36907420878655" y1="2.2368308108326094" x2="14.65958392535468" y2="2.8372234922145587" class="delaunay-line"/>
<line x1="14.65958392535468" y1="2.8372234922145587" x2="11.47746058444892" y2="2.074619136421882" class="delaunay-line"/>
<line x1="11.47746058444892" y1="2.074619136421882" x2="11.36907420878655" y2="2.2368308108326094" class="delaunay-line"/>
<line x1="11.36907420878655" y1="2.2368308108326094" x2="14.76797030101705" y2="2.999435166625288" class="delaunay-line"/>
<line x1="14.76797030101705" y1="2.999435166625288" x2="14.65958392535468" y2="2.8372234922145587" class="delaunay-line"/>
<line x1="14.65958392535468" y1="2.8372234922145587" x2="11.36907420878655" y2="2.2368308108326094" class="delaunay-line"/>
<line x1="16.892269295364905" y1="15.45537055076422" x2="2.5593445584815164" y2="18.438178352430917" class="delaunay-line"/>
<line x1="2.5593445584815164" y1="18.438178352430917" x2="16.95497902415959" y2="15.640107454654196" class="delaunay-line"/>
<line x1="16.95497902415959" y1="15.640107454654196" x2="16.892269295364905" y2="15.45537055076422" class="delaunay-line"/>
<line x1="14.65958392535468" y1="2.454540059849469" x2="11.47746058444892" y2="1.6919357040567906" class="delaunay-line"/>
<line x1="11.47746058444892" y1="1.6919357040567906" x2="11.515520818193277" y2="1.8832774202393363" class="delaunay-line"/>
<line x1="11.515520818193277" y1="1.8832774202393363" x2="14.65958392535468" y2="2.454540059849469" class="delaunay-line"/>
<line x1="11.36907420878655" y1="2.2368308108326094" x2="11.015520818193277" y2="2.3832774202393363" class="delaunay-line"/>
<line x1="11.015520818193277" y1="2.3832774202393363" x2="11.206862534375823" y2="2.3452171864949793" class="delaunay-line"/>
<line x1="11.206862534375823" y1="2.3452171864949793" x2="11.36907420878655" y2="2.2368308108326094" class="delaunay-line"/>
<line x1="11.206862534375823" y1="2.3452171864949793" x2="11.015520818193277" y2="2.3832774202393363" class="delaunay-line"/>
<line x1="11.015520818193277" y1="2.3832774202393363" x2="14.930181975427777" y2="3.1078215422876574" class="delaunay-line"/>
<line x1="14.930181975427777" y1="3.1078215422876574" x2="11.206862534375823" y2="2.3452171864949793" class="delaunay-line"/>
<line x1="14.65958392535468" y1="2.454540059849469" x2="14.76797030101705" y2="2.29232838543874" class="delaunay-line"/>
<line x1="14.76797030101705" y1="2.29232838543874" x2="11.47746058444892" y2="1.6919357040567906" class="delaunay-line"/>
<line x1="11.47746058444892" y1="1.6919357040567906" x2="14.65958392535468" y2="2.454540059849469" class="delaunay-line"/>
<line x1="10.661967427600004" y1="2.2368308108326094" x2="10.824179102010731" y2="2.3452171864949793" class="delaunay-line"/>
<line x1="10.824179102010731" y1="2.3452171864949793" x2="11.015520818193277" y2="2.3832774202393363" class="delaunay-line"/>
<line x1="11.015520818193277" y1="2.3832774202393363" x2="10.661967427600004" y2="2.2368308108326094" class="delaunay-line"/>
<line x1="10.661967427600004" y1="2.2368308108326094" x2="11.015520818193277" y2="2.3832774202393363" class="delaunay-line"/>
<line x1="11.015520818193277" y1="2.3832774202393363" x2="11.36907420878655" y2="2.2368308108326094" class="delaunay-line"/>
<line x1="11.36907420878655" y1="2.2368308108326094" x2="10.661967427600004" y2="2.2368308108326094" class="delaunay-line"/>
<line x1="11.015520818193277" y1="2.3832774202393363" x2="10.824179102010731" y2="2.3452171864949793" class="delaunay-line"/>
<line x1="10.824179102010731" y1="2.3452171864949793" x2="16.991315055906192" y2="15.085726740149836" class="delaunay-line"/>
<line x1="16.991315055906192" y1="15.085726740149836" x2="11.015520818193277" y2="2.3832774202393363" class="delaunay-line"/>
<line x1="11.47746058444892" y1="1.6919357040567906" x2="14.76797030101705" y2="2.29232838543874" class="delaunay-line"/>
<line x1="14.76797030101705" y1="2.29232838543874" x2="11.36907420878655" y2="1.5297240296460632" class="delaunay-line"/>
<line x1="11.36907420878655" y1="1.5297240296460632" x2="11.47746058444892" y2="1.6919357040567906" class="delaunay-line"/>
<line x1="11.47746058444892" y1="2.074619136421882" x2="11.515520818193277" y2="1.8832774202393363" class="delaunay-line"/>
<line x1="11.515520818193277" y1="1.8832774202393363" x2="11.36907420878655" y2="2.2368308108326094" class="delaunay-line"/>
<line x1="11.36907420878655" y1="2.2368308108326094" x2="11.47746058444892" y2="2.074619136421882" class="delaunay-line"/>
<line x1="10.661967427600004" y1="1.5297240296460632" x2="10.661967427600004" y2="2.2368308108326094" class="delaunay-line"/>
<line x1="10.661967427600004" y1="2.2368308108326094" x2="11.36907420878655" y2="2.2368308108326094" class="delaunay-line"/>
<line x1="11.36907420878655" y1="2.2368308108326094" x2="10.661967427600004" y2="1.5297240296460632" class="delaunay-line"/>
<line x1="2.4602987979402284" y1="18.068534541816533" x2="2.5465850409391457" y2="18.24350573376963" class="delaunay-line"/>
<line x1="2.5465850409391457" y1="18.24350573376963" x2="16.905028812907275" y2="15.260697932102936" class="delaunay-line"/>
<line x1="16.905028812907275" y1="15.260697932102936" x2="2.4602987979402284" y2="18.068534541816533" class="delaunay-line"/>
<line x1="11.36907420878655" y1="1.5297240296460632" x2="14.76797030101705" y2="2.29232838543874" class="delaunay-line"/>
<line x1="14.76797030101705" y1="2.29232838543874" x2="14.930181975427777" y2="2.183942009776371" class="delaunay-line"/>
<line x1="14.930181975427777" y1="2.183942009776371" x2="11.36907420878655" y2="1.5297240296460632" class="delaunay-line"/>
<line x1="11.515520818193277" y1="1.8832774202393363" x2="11.36907420878655" y2="1.5297240296460632" class="delaunay-line"/>
<line x1="11.36907420878655" y1="1.5297240296460632" x2="11.36907420878655" y2="2.2368308108326094" class="delaunay-line"/>
<line x1="11.36907420878655" y1="2.2368308108326094" x2="11.515520818193277" y2="1.8832774202393363" class="delaunay-line"/>
<line x1="10.515520818193277" y1="1.8832774202393363" x2="10.553581051937634" y2="2.074619136421882" class="delaunay-line"/>
<line x1="10.553581051937634" y1="2.074619136421882" x2="10.661967427600004" y2="2.2368308108326094" class="delaunay-line"/>
<line x1="10.661967427600004" y1="2.2368308108326094" x2="10.515520818193277" y2="1.8832774202393363" class="delaunay-line"/>
<line x1="2.4602987979402284" y1="18.068534541816533" x2="16.905028812907275" y2="15.260697932102936" class="delaunay-line"/>
<line x1="16.905028812907275" y1="15.260697932102936" x2="10.824179102010731" y2="2.3452171864949793" class="delaunay-line"/>
<line x1="10.824179102010731" y1="2.3452171864949793" x2="2.4602987979402284" y2="18.068534541816533" class="delaunay-line"/>
<line x1="11.206862534375823" y1="1.4213376539836933" x2="11.36907420878655" y2="1.5297240296460632" class="delaunay-line"/>
<line x1="11.36907420878655" y1="1.5297240296460632" x2="14.930181975427777" y2="2.183942009776371" class="delaunay-line"/>
<line x1="14.930181975427777" y1="2.183942009776371" x2="11.206862534375823" y2="1.4213376539836933" class="delaunay-line"/>
<line x1="11.47746058444892" y1="1.6919357040567906" x2="11.36907420878655" y2="1.5297240296460632" class="delaunay-line"/>
<line x1="11.36907420878655" y1="1.5297240296460632" x2="11.515520818193277" y2="1.8832774202393363" class="delaunay-line"/>
<line x1="11.515520818193277" y1="1.8832774202393363" x2="11.47746058444892" y2="1.6919357040567906" class="delaunay-line"/>
<line x1="2.4602987979402284" y1="18.068534541816533" x2="10.824179102010731" y2="2.3452171864949793" class="delaunay-line"/>
<line x1="10.824179102010731" y1="2.3452171864949793" x2="2.3136221277946105" y2="17.939902554428674" class="delaunay-line"/>
<line x1="2.3136221277946105" y1="17.939902554428674" x2="2.4602987979402284" y2="18.068534541816533" class="delaunay-line"/>
<line x1="16.95497902415959" y1="15.640107454654196" x2="2.49663482968683" y2="18.62291525632089" class="delaunay-line"/>
<line x1="2.49663482968683" y1="18.62291525632089" x2="17.083611011547454" y2="15.786784124799814" class="delaunay-line"/>
<line x1="17.083611011547454" y1="15.786784124799814" x2="16.95497902415959" y2="15.640107454654196" class="delaunay-line"/>
<line x1="2.5465850409391457" y1="18.24350573376963" x2="2.5593445584815164" y2="18.438178352430917" class="delaunay-line"/>
<line x1="2.5593445584815164" y1="18.438178352430917" x2="16.892269295364905" y2="15.45537055076422" class="delaunay-line"/>
<line x1="16.892269295364905" y1="15.45537055076422" x2="2.5465850409391457" y2="18.24350573376963" class="delaunay-line"/>
<line x1="10.553581051937634" y1="1.6919357040567906" x2="10.515520818193277" y2="1.8832774202393363" class="delaunay-line"/>
<line x1="10.515520818193277" y1="1.8832774202393363" x2="10.661967427600004" y2="1.5297240296460632" class="delaunay-line"/>
<line x1="10.661967427600004" y1="1.5297240296460632" x2="10.553581051937634" y2="1.6919357040567906" class="delaunay-line"/>
<line x1="2.3136221277946105" y1="17.939902554428674" x2="10.824179102010731" y2="2.3452171864949793" class="delaunay-line"/>
<line x1="10.824179102010731" y1="2.3452171864949793" x2="10.661967427600004" y2="2.2368308108326094" class="delaunay-line"/>
<line x1="10.661967427600004" y1="2.2368308108326094" x2="2.3136221277946105" y2="17.939902554428674" class="delaunay-line"/>
<line x1="2.3136221277946105" y1="17.939902554428674" x2="10.661967427600004" y2="2.2368308108326094" class="delaunay-line"/>
<line x1="10.661967427600004" y1="2.2368308108326094" x2="2.128885223904638" y2="17.877192825633987" class="delaunay-line"/>
<line x1="2.128885223904638" y1="17.877192825633987" x2="2.3136221277946105" y2="17.939902554428674" class="delaunay-line"/>
<line x1="2.5465850409391457" y1="18.24350573376963" x2="2.4602987979402284" y2="18.068534541816533" class="delaunay-line"/>
<line x1="2.4602987979402284" y1="18.068534541816533" x2="2.5593445584815164" y2="18.438178352430917" class="delaunay-line"/>
<line x1="2.5593445584815164" y1="18.438178352430917" x2="2.5465850409391457" y2="18.24350573376963" class="delaunay-line"/>
<line x1="2.4602987979402284" y1="18.068534541816533" x2="2.49663482968683" y2="18.62291525632089" class="delaunay-line"/>
<line x1="2.49663482968683" y1="18.62291525632089" x2="2.5593445584815164" y2="18.438178352430917" class="delaunay-line"/>
<line x1="2.5593445584815164" y1="18.438178352430917" x2="2.4602987979402284" y2="18.068534541816533" class="delaunay-line"/>
<line x1="2.5593445584815164" y1="18.438178352430917" x2="2.49663482968683" y2="18.62291525632089" class="delaunay-line"/>
<line x1="2.49663482968683" y1="18.62291525632089" x2="16.95497902415959" y2="15.640107454654196" class="delaunay-line"/>
<line x1="16.95497902415959" y1="15.640107454654196" x2="2.5593445584815164" y2="18.438178352430917" class="delaunay-line"/>
<line x1="10.661967427600004" y1="1.5297240296460632" x2="10.515520818193277" y2="1.8832774202393363" class="delaunay-line"/>
<line x1="10.515520818193277" y1="1.8832774202393363" x2="10.661967427600004" y2="2.2368308108326094" class="delaunay-line"/>
<line x1="10.661967427600004" y1="2.2368308108326094" x2="10.661967427600004" y2="1.5297240296460632" class="delaunay-line"/>
<line x1="15.121523691610323" y1="2.145881776032014" x2="11.206862534375823" y2="1.4213376539836933" class="delaunay-line"/>
<line x1="11.206862534375823" y1="1.4213376539836933" x2="14.930181975427777" y2="2.183942009776371" class="delaunay-line"/>
<line x1="14.930181975427777" y1="2.183942009776371" x2="15.121523691610323" y2="2.145881776032014" class="delaunay-line"/>
<line x1="2.128885223904638" y1="17.877192825633987" x2="10.661967427600004" y2="2.2368308108326094" class="delaunay-line"/>
<line x1="10.661967427600004" y1="2.2368308108326094" x2="0" y2="0" class="delaunay-line"/>
<line x1="0" y1="0" x2="2.128885223904638" y2="17.877192825633987" class="delaunay-line"/>
<line x1="2.4602987979402284" y1="18.068534541816533" x2="2.1930316503458718" y2="18.855878169465424" class="delaunay-line"/>
<line x1="2.1930316503458718" y1="18.855878169465424" x2="2.49663482968683" y2="18.62291525632089" class="delaunay-line"/>
<line x1="2.49663482968683" y1="18.62291525632089" x2="2.4602987979402284" y2="18.068534541816533" class="delaunay-line"/>
<line x1="10.661967427600004" y1="1.5297240296460632" x2="11.36907420878655" y2="2.2368308108326094" class="delaunay-line"/>
<line x1="11.36907420878655" y1="2.2368308108326094" x2="11.36907420878655" y2="1.5297240296460632" class="delaunay-line"/>
<line x1="11.36907420878655" y1="1.5297240296460632" x2="10.661967427600004" y2="1.5297240296460632" class="delaunay-line"/>
<line x1="1.934212605243351" y1="17.889952343176358" x2="2.128885223904638" y2="17.877192825633987" class="delaunay-line"/>
<line x1="2.128885223904638" y1="17.877192825633987" x2="0" y2="0" class="delaunay-line"/>
<line x1="0" y1="0" x2="1.934212605243351" y2="17.889952343176358" class="delaunay-line"/>
<line x1="24" y1="0" x2="11.015520818193277" y2="1.3832774202393363" class="delaunay-line"/>
<line x1="11.015520818193277" y1="1.3832774202393363" x2="11.206862534375823" y2="1.4213376539836933" class="delaunay-line"/>
<line x1="11.206862534375823" y1="1.4213376539836933" x2="24" y2="0" class="delaunay-line"/>
<line x1="11.206862534375823" y1="1.4213376539836933" x2="11.015520818193277" y2="1.3832774202393363" class="delaunay-line"/>
<line x1="11.015520818193277" y1="1.3832774202393363" x2="11.36907420878655" y2="1.5297240296460632" class="delaunay-line"/>
<line x1="11.36907420878655" y1="1.5297240296460632" x2="11.206862534375823" y2="1.4213376539836933" class="delaunay-line"/>
<line x1="2.1930316503458718" y1="18.855878169465424" x2="2.3680028422989725" y2="18.769591926466507" class="delaunay-line"/>
<line x1="2.3680028422989725" y1="18.769591926466507" x2="2.49663482968683" y2="18.62291525632089" class="delaunay-line"/>
<line x1="2.49663482968683" y1="18.62291525632089" x2="2.1930316503458718" y2="18.855878169465424" class="delaunay-line"/>
<line x1="2.49663482968683" y1="18.62291525632089" x2="0" y2="24" class="delaunay-line"/>
<line x1="0" y1="24" x2="17.083611011547454" y2="15.786784124799814" class="delaunay-line"/>
<line x1="17.083611011547454" y1="15.786784124799814" x2="2.49663482968683" y2="18.62291525632089" class="delaunay-line"/>
<line x1="11.015520818193277" y1="1.3832774202393363" x2="10.661967427600004" y2="1.5297240296460632" class="delaunay-line"/>
<line x1="10.661967427600004" y1="1.5297240296460632" x2="11.36907420878655" y2="1.5297240296460632" class="delaunay-line"/>
<line x1="11.36907420878655" y1="1.5297240296460632" x2="11.015520818193277" y2="1.3832774202393363" class="delaunay-line"/>
<line x1="11.015520818193277" y1="1.3832774202393363" x2="10.824179102010731" y2="1.4213376539836933" class="delaunay-line"/>
<line x1="10.824179102010731" y1="1.4213376539836933" x2="10.661967427600004" y2="1.5297240296460632" class="delaunay-line"/>
<line x1="10.661967427600004" y1="1.5297240296460632" x2="11.015520818193277" y2="1.3832774202393363" class="delaunay-line"/>
<line x1="10.661967427600004" y1="2.2368308108326094" x2="10.553581051937634" y2="2.074619136421882" class="delaunay-line"/>
<line x1="10.553581051937634" y1="2.074619136421882" x2="0" y2="0" class="delaunay-line"/>
<line x1="0" y1="0" x2="10.661967427600004" y2="2.2368308108326094" class="delaunay-line"/>
<line x1="1.8136221277946123" y1="18.805927958213108" x2="2.1930316503458718" y2="18.855878169465424" class="delaunay-line"/>
<line x1="2.1930316503458718" y1="18.855878169465424" x2="2.4602987979402284" y2="18.068534541816533" class="delaunay-line"/>
<line x1="2.4602987979402284" y1="18.068534541816533" x2="1.8136221277946123" y2="18.805927958213108" class="delaunay-line"/>
<line x1="1.9983590316845847" y1="18.868637687007794" x2="2.1930316503458718" y2="18.855878169465424" class="delaunay-line"/>
<line x1="2.1930316503458718" y1="18.855878169465424" x2="1.8136221277946123" y2="18.805927958213108" class="delaunay-line"/>
<line x1="1.8136221277946123" y1="18.805927958213108" x2="1.9983590316845847" y2="18.868637687007794" class="delaunay-line"/>
<line x1="2.3680028422989725" y1="18.769591926466507" x2="0" y2="24" class="delaunay-line"/>
<line x1="0" y1="24" x2="2.49663482968683" y2="18.62291525632089" class="delaunay-line"/>
<line x1="2.49663482968683" y1="18.62291525632089" x2="2.3680028422989725" y2="18.769591926466507" class="delaunay-line"/>
<line x1="1.7592414132902503" y1="17.976238586175274" x2="1.934212605243351" y2="17.889952343176358" class="delaunay-line"/>
<line x1="1.934212605243351" y1="17.889952343176358" x2="0" y2="0" class="delaunay-line"/>
<line x1="0" y1="0" x2="1.7592414132902503" y2="17.976238586175274" class="delaunay-line"/>
<line x1="2.128885223904638" y1="17.877192825633987" x2="1.934212605243351" y2="17.889952343176358" class="delaunay-line"/>
<line x1="1.934212605243351" y1="17.889952343176358" x2="2.3136221277946105" y2="17.939902554428674" class="delaunay-line"/>
<line x1="2.3136221277946105" y1="17.939902554428674" x2="2.128885223904638" y2="17.877192825633987" class="delaunay-line"/>
<line x1="1.8136221277946123" y1="18.805927958213108" x2="2.4602987979402284" y2="18.068534541816533" class="delaunay-line"/>
<line x1="2.4602987979402284" y1="18.068534541816533" x2="2.3136221277946105" y2="17.939902554428674" class="delaunay-line"/>
<line x1="2.3136221277946105" y1="17.939902554428674" x2="1.8136221277946123" y2="18.805927958213108" class="delaunay-line"/>
<line x1="2.1930316503458718" y1="18.855878169465424" x2="0" y2="24" class="delaunay-line"/>
<line x1="0" y1="24" x2="2.3680028422989725" y2="18.769591926466507" class="delaunay-line"/>
<line x1="2.3680028422989725" y1="18.769591926466507" x2="2.1930316503458718" y2="18.855878169465424" class="delaunay-line"/>
<line x1="0" y1="0" x2="10.553581051937634" y2="2.074619136421882" class="delaunay-line"/>
<line x1="10.553581051937634" y1="2.074619136421882" x2="10.515520818193277" y2="1.8832774202393363" class="delaunay-line"/>
<line x1="10.515520818193277" y1="1.8832774202393363" x2="0" y2="0" class="delaunay-line"/>
<line x1="1.6669454576489944" y1="18.67729597082525" x2="1.8136221277946123" y2="18.805927958213108" class="delaunay-line"/>
<line x1="1.8136221277946123" y1="18.805927958213108" x2="2.3136221277946105" y2="17.939902554428674" class="delaunay-line"/>
<line x1="2.3136221277946105" y1="17.939902554428674" x2="1.6669454576489944" y2="18.67729597082525" class="delaunay-line"/>
<line x1="1.6306094259023929" y1="18.12291525632089" x2="2.3136221277946105" y2="17.939902554428674" class="delaunay-line"/>
<line x1="2.3136221277946105" y1="17.939902554428674" x2="1.934212605243351" y2="17.889952343176358" class="delaunay-line"/>
<line x1="1.934212605243351" y1="17.889952343176358" x2="1.6306094259023929" y2="18.12291525632089" class="delaunay-line"/>
<line x1="0" y1="0" x2="1.6306094259023929" y2="18.12291525632089" class="delaunay-line"/>
<line x1="1.6306094259023929" y1="18.12291525632089" x2="1.7592414132902503" y2="17.976238586175274" class="delaunay-line"/>
<line x1="1.7592414132902503" y1="17.976238586175274" x2="0" y2="0" class="delaunay-line"/>
<line x1="1.7592414132902503" y1="17.976238586175274" x2="1.6306094259023929" y2="18.12291525632089" class="delaunay-line"/>
<line x1="1.6306094259023929" y1="18.12291525632089" x2="1.934212605243351" y2="17.889952343176358" class="delaunay-line"/>
<line x1="1.934212605243351" y1="17.889952343176358" x2="1.7592414132902503" y2="17.976238586175274" class="delaunay-line"/>
<line x1="1.6306094259023929" y1="18.12291525632089" x2="1.6669454576489944" y2="18.67729597082525" class="delaunay-line"/>
<line x1="1.6669454576489944" y1="18.67729597082525" x2="2.3136221277946105" y2="17.939902554428674" class="delaunay-line"/>
<line x1="2.3136221277946105" y1="17.939902554428674" x2="1.6306094259023929" y2="18.12291525632089" class="delaunay-line"/>
<line x1="1.6306094259023929" y1="18.12291525632089" x2="1.5678996971077064" y2="18.307652160210864" class="delaunay-line"/>
<line x1="1.5678996971077064" y1="18.307652160210864" x2="1.6669454576489944" y2="18.67729597082525" class="delaunay-line"/>
<line x1="1.6669454576489944" y1="18.67729597082525" x2="1.6306094259023929" y2="18.12291525632089" class="delaunay-line"/>
<line x1="1.5678996971077064" y1="18.307652160210864" x2="1.5806592146500773" y2="18.50232477887215" class="delaunay-line"/>
<line x1="1.5806592146500773" y1="18.50232477887215" x2="1.6669454576489944" y2="18.67729597082525" class="delaunay-line"/>
<line x1="1.6669454576489944" y1="18.67729597082525" x2="1.5678996971077064" y2="18.307652160210864" class="delaunay-line"/>
<line x1="23.674251049588985" y1="14.29123946781809" x2="24" y2="0" class="delaunay-line"/>
<line x1="24" y1="0" x2="23.565864673926615" y2="14.12902779340736" class="delaunay-line"/>
<line x1="23.565864673926615" y1="14.12902779340736" x2="23.674251049588985" y2="14.29123946781809" class="delaunay-line"/>
<line x1="23.565864673926615" y1="14.12902779340736" x2="24" y2="0" class="delaunay-line"/>
<line x1="24" y1="0" x2="23.403652999515888" y2="14.020641417744988" class="delaunay-line"/>
<line x1="23.403652999515888" y1="14.020641417744988" x2="23.565864673926615" y2="14.12902779340736" class="delaunay-line"/>
<line x1="15.475077082203596" y1="2.29232838543874" x2="24" y2="0" class="delaunay-line"/>
<line x1="24" y1="0" x2="15.312865407792868" y2="2.1839420097763704" class="delaunay-line"/>
<line x1="15.312865407792868" y1="2.1839420097763704" x2="15.475077082203596" y2="2.29232838543874" class="delaunay-line"/>
<line x1="15.312865407792868" y1="2.1839420097763704" x2="24" y2="0" class="delaunay-line"/>
<line x1="24" y1="0" x2="15.121523691610323" y2="2.145881776032014" class="delaunay-line"/>
<line x1="15.121523691610323" y1="2.145881776032014" x2="15.312865407792868" y2="2.1839420097763704" class="delaunay-line"/>
<line x1="15.121523691610323" y1="2.145881776032014" x2="24" y2="0" class="delaunay-line"/>
<line x1="24" y1="0" x2="11.206862534375823" y2="1.4213376539836933" class="delaunay-line"/>
<line x1="11.206862534375823" y1="1.4213376539836933" x2="15.121523691610323" y2="2.145881776032014" class="delaunay-line"/>
<line x1="23.712311283333342" y1="14.482581184000633" x2="24" y2="0" class="delaunay-line"/>
<line x1="24" y1="0" x2="23.674251049588985" y2="14.29123946781809" class="delaunay-line"/>
<line x1="23.674251049588985" y1="14.29123946781809" x2="23.712311283333342" y2="14.482581184000633" class="delaunay-line"/>
<line x1="24" y1="24" x2="24" y2="0" class="delaunay-line"/>
<line x1="24" y1="0" x2="23.712311283333342" y2="14.482581184000633" class="delaunay-line"/>
<line x1="23.712311283333342" y1="14.482581184000633" x2="24" y2="24" class="delaunay-line"/>
<line x1="1.5678996971077064" y1="18.307652160210864" x2="0" y2="24" class="delaunay-line"/>
<line x1="0" y1="24" x2="1.5806592146500773" y2="18.50232477887215" class="delaunay-line"/>
<line x1="1.5806592146500773" y1="18.50232477887215" x2="1.5678996971077064" y2="18.307652160210864" class="delaunay-line"/>
<line x1="1.5806592146500773" y1="18.50232477887215" x2="0" y2="24" class="delaunay-line"/>
<line x1="0" y1="24" x2="1.6669454576489944" y2="18.67729597082525" class="delaunay-line"/>
<line x1="1.6669454576489944" y1="18.67729597082525" x2="1.5806592146500773" y2="18.50232477887215" class="delaunay-line"/>
<line x1="1.6669454576489944" y1="18.67729597082525" x2="0" y2="24" class="delaunay-line"/>
<line x1="0" y1="24" x2="1.8136221277946123" y2="18.805927958213108" class="delaunay-line"/>
<line x1="1.8136221277946123" y1="18.805927958213108" x2="1.6669454576489944" y2="18.67729597082525" class="delaunay-line"/>
<line x1="1.8136221277946123" y1="18.805927958213108" x2="0" y2="24" class="delaunay-line"/>
<line x1="0" y1="24" x2="1.9983590316845847" y2="18.868637687007794" class="delaunay-line"/>
<line x1="1.9983590316845847" y1="18.868637687007794" x2="1.8136221277946123" y2="18.805927958213108" class="delaunay-line"/>
<line x1="1.9983590316845847" y1="18.868637687007794" x2="0" y2="24" class="delaunay-line"/>
<line x1="0" y1="24" x2="2.1930316503458718" y2="18.855878169465424" class="delaunay-line"/>
<line x1="2.1930316503458718" y1="18.855878169465424" x2="1.9983590316845847" y2="18.868637687007794" class="delaunay-line"/>
<line x1="10.661967427600004" y1="1.5297240296460632" x2="0" y2="0" class="delaunay-line"/>
<line x1="0" y1="0" x2="10.553581051937634" y2="1.6919357040567906" class="delaunay-line"/>
<line x1="10.553581051937634" y1="1.6919357040567906" x2="10.661967427600004" y2="1.5297240296460632" class="delaunay-line"/>
<line x1="10.553581051937634" y1="1.6919357040567906" x2="0" y2="0" class="delaunay-line"/>
<line x1="0" y1="0" x2="10.515520818193277" y2="1.8832774202393363" class="delaunay-line"/>
<line x1="10.515520818193277" y1="1.8832774202393363" x2="10.553581051937634" y2="1.6919357040567906" class="delaunay-line"/>
<line x1="1.6306094259023929" y1="18.12291525632089" x2="0" y2="0" class="delaunay-line"/>
<line x1="0" y1="0" x2="1.5678996971077064" y2="18.307652160210864" class="delaunay-line"/>
<line x1="1.5678996971077064" y1="18.307652160210864" x2="1.6306094259023929" y2="18.12291525632089" class="delaunay-line"/>
<line x1="1.5678996971077064" y1="18.307652160210864" x2="0" y2="0" class="delaunay-line"/>
<line x1="0" y1="0" x2="0" y2="24" class="delaunay-line"/>
<line x1="0" y1="24" x2="1.5678996971077064" y2="18.307652160210864" class="delaunay-line"/>
<line x1="10.824179102010731" y1="1.4213376539836933" x2="0" y2="0" class="delaunay-line"/>
<line x1="0" y1="0" x2="10.661967427600004" y2="1.5297240296460632" class="delaunay-line"/>
<line x1="10.661967427600004" y1="1.5297240296460632" x2="10.824179102010731" y2="1.4213376539836933" class="delaunay-line"/>
<line x1="11.015520818193277" y1="1.3832774202393363" x2="0" y2="0" class="delaunay-line"/>
<line x1="0" y1="0" x2="10.824179102010731" y2="1.4213376539836933" class="delaunay-line"/>
<line x1="10.824179102010731" y1="1.4213376539836933" x2="11.015520818193277" y2="1.3832774202393363" class="delaunay-line"/>
<line x1="24" y1="0" x2="0" y2="0" class="delaunay-line"/>
<line x1="0" y1="0" x2="11.015520818193277" y2="1.3832774202393363" class="delaunay-line"/>
<line x1="11.015520818193277" y1="1.3832774202393363" x2="24" y2="0" class="delaunay-line"/>
</g>
<g id="layer-area" class="layer ">
</g>
<g id="layer-terrain" class="layer ">
<polygon points="11.015520818193277,2.3832774202393363 10.824179102010731,2.3452171864949793 10.661967427600004,2.2368308108326094 10.553581051937634,2.074619136421882 10.515520818193277,1.8832774202393363 10.553581051937634,1.6919357040567906 10.661967427600004,1.5297240296460632 10.824179102010731,1.4213376539836933 11.015520818193277,1.3832774202393363 11.206862534375823,1.4213376539836933 11.36907420878655,1.5297240296460632 11.47746058444892,1.6919357040567906 11.515520818193277,1.8832774202393363 11.47746058444892,2.074619136421882 11.36907420878655,2.2368308108326094 11.206862534375823,2.3452171864949793" fill="Dark Green" class="terrain-solid"/>
<polygon points="20.50797802017808,18.467353667439635 20.33300682822498,18.38106742444072 20.204374840837122,18.234390754295102 20.141665112042435,18.04965385040513 20.154424629584806,17.854981231743842 20.240710872583723,17.680010039790744 20.38738754272934,17.551378052402885 20.572124446619313,17.4886683236082 20.7667970652806,17.50142784115057 20.941768257233697,17.587714084149486 21.070400244621556,17.734390754295102 21.133109973416243,17.919127658185076 21.120350455873872,18.113800276846362 21.034064212874956,18.28877146879946 20.88738754272934,18.41740345618732 20.702650638839366,18.480113184982006" fill="Dark Green" class="terrain-solid"/>
<polygon points="2.1930316503458718,18.855878169465424 1.9983590316845847,18.868637687007794 1.8136221277946123,18.805927958213108 1.6669454576489944,18.67729597082525 1.5806592146500773,18.50232477887215 1.5678996971077064,18.307652160210864 1.6306094259023929,18.12291525632089 1.7592414132902503,17.976238586175274 1.934212605243351,17.889952343176358 2.128885223904638,17.877192825633987 2.3136221277946105,17.939902554428674 2.4602987979402284,18.068534541816533 2.5465850409391457,18.24350573376963 2.5593445584815164,18.438178352430917 2.49663482968683,18.62291525632089 2.3680028422989725,18.769591926466507" fill="Dark Green" class="terrain-solid"/>
<polygon points="15.621523691610323,2.645881776032014 15.583463457865966,2.8372234922145587 15.475077082203596,2.999435166625288 15.312865407792868,3.1078215422876574 15.121523691610323,3.145881776032014 14.930181975427777,3.1078215422876574 14.76797030101705,2.999435166625288 14.65958392535468,2.8372234922145587 14.621523691610323,2.645881776032014 14.65958392535468,2.454540059849469 14.76797030101705,2.29232838543874 14.930181975427777,2.183942009776371 15.121523691610323,2.145881776032014 15.312865407792868,2.1839420097763704 15.475077082203596,2.29232838543874 15.583463457865966,2.4545400598494687" fill="Dark Green" class="terrain-solid"/>
<polygon points="22.85875789274007,14.12902779340736 23.020969567150797,14.020641417744988 23.212311283333342,13.982581184000633 23.403652999515888,14.020641417744988 23.565864673926615,14.12902779340736 23.674251049588985,14.29123946781809 23.712311283333342,14.482581184000633 23.674251049588985,14.673922900183177 23.565864673926615,14.836134574593906 23.403652999515888,14.944520950256278 23.212311283333342,14.982581184000633 23.020969567150797,14.944520950256278 22.85875789274007,14.836134574593906 22.7503715170777,14.673922900183177 22.712311283333342,14.482581184000633 22.7503715170777,14.29123946781809" fill="Dark Green" class="terrain-solid"/>
<polygon points="17.137991726051812,14.957094752761977 17.322728629941786,14.89438502396729 17.517401248603072,14.907144541509663 17.69237244055617,14.993430784508577 17.821004427944032,15.140107454654196 17.88371415673872,15.324844358544171 17.87095463919635,15.519516977205456 17.784668396197432,15.694488169158555 17.637991726051812,15.823120156546414 17.45325482216184,15.885829885341101 17.258582203500552,15.873070367798729 17.083611011547454,15.786784124799814 16.95497902415959,15.640107454654196 16.892269295364905,15.45537055076422 16.905028812907275,15.260697932102936 16.991315055906192,15.085726740149836" fill="Dark Green" class="terrain-solid"/>
</g>
<g id="layer-models" class="layer ">
</g>
<g id="layer-paths" class="layer ">
</g>
<g id="layer-vectors" class="layer ">
</g>
<g id="layer-los" class="layer ">
</g>
<g id="layer-lof" class="layer ">
</g>

</svg>