<svg xmlns="http://www.w3.org/2000/svg" viewBox="0 0 24 24" width="960" height="960" font-family="Arial" font-size="0.6">
<defs>
  <style><![CDATA[
    .layer { display: inline; }
    .layer.hidden { display: none; }
    .grid-line { stroke: #999; stroke-width: 0.02; opacity: 0.2; }
    .delaunay-line { stroke: #4a6fa5; stroke-width: 0.03; opacity: 0.3; }
    .terrain-area { stroke: #000; stroke-width: 0.05; }
    .terrain-solid { stroke: #000; stroke-width: 0.05; }
    .model { stroke: #ff0000; stroke-width: 2; vector-effect: non-scaling-stroke; }
    .path { fill: none; stroke-width: 0.12; }
    .vector { stroke-width: 0.1; }
    .los-ray { stroke-width: 0.08; stroke-dasharray: 0.2 0.2; }
    .lof-ray { stroke-width: 0.08; stroke-dasharray: 0.3 0.15; }
    .label { fill: #111 !important; font-size: 0.6px; }
    .toggle { cursor: pointer; }
    .toggle.disabled { cursor: default; }
    .toggle.disabled rect { stroke: #ccc; fill: #fff; }
    .toggle.disabled text { fill: #ccc; }
#layer-area { fill: #C49A6C; }
#layer-building { fill: #000000; }
#layer-wall { fill: #555555; }
#layer-tree { fill: #90EE90; }
#layer-shrub { fill: #006400; }
  ]]></style>
</defs>
<rect x="0" y="0" width="24" height="24" fill="#ffffff" stroke="#111" stroke-width="0.05"/>
<script><![CDATA[
      function toggleLayer(id) {
        var layer = document.getElementById('layer-' + id);
        if (!layer) return;
        if (layer.classList.contains('hidden')) {
          layer.classList.remove('hidden');
        } else {
          layer.classList.add('hidden');
        }
      }
    ]]></script>
<text x="0.4" y="23.6" class="label">Battlefield 24x24 density 25 blockLOS 100</text>
<g id="layer-deployment" class="layer ">
<rect x="0" y="22" width="24" height="2" fill="#ff0000" opacity="0.2"/>
<rect x="0" y="0" width="24" height="2" fill="#0000ff" opacity="0.2"/>
</g>
<g id="layer-grid" class="layer ">
<line x1="0" y1="0" x2="0" y2="24" class="grid-line"/>
<line x1="0.5" y1="0" x2="0.5" y2="24" class="grid-line"/>
<line x1="1" y1="0" x2="1" y2="24" class="grid-line"/>
<line x1="1.5" y1="0" x2="1.5" y2="24" class="grid-line"/>
<line x1="2" y1="0" x2="2" y2="24" class="grid-line"/>
<line x1="2.5" y1="0" x2="2.5" y2="24" class="grid-line"/>
<line x1="3" y1="0" x2="3" y2="24" class="grid-line"/>
<line x1="3.5" y1="0" x2="3.5" y2="24" class="grid-line"/>
<line x1="4" y1="0" x2="4" y2="24" class="grid-line"/>
<line x1="4.5" y1="0" x2="4.5" y2="24" class="grid-line"/>
<line x1="5" y1="0" x2="5" y2="24" class="grid-line"/>
<line x1="5.5" y1="0" x2="5.5" y2="24" class="grid-line"/>
<line x1="6" y1="0" x2="6" y2="24" class="grid-line"/>
<line x1="6.5" y1="0" x2="6.5" y2="24" class="grid-line"/>
<line x1="7" y1="0" x2="7" y2="24" class="grid-line"/>
<line x1="7.5" y1="0" x2="7.5" y2="24" class="grid-line"/>
<line x1="8" y1="0" x2="8" y2="24" class="grid-line"/>
<line x1="8.5" y1="0" x2="8.5" y2="24" class="grid-line"/>
<line x1="9" y1="0" x2="9" y2="24" class="grid-line"/>
<line x1="9.5" y1="0" x2="9.5" y2="24" class="grid-line"/>
<line x1="10" y1="0" x2="10" y2="24" class="grid-line"/>
<line x1="10.5" y1="0" x2="10.5" y2="24" class="grid-line"/>
<line x1="11" y1="0" x2="11" y2="24" class="grid-line"/>
<line x1="11.5" y1="0" x2="11.5" y2="24" class="grid-line"/>
<line x1="12" y1="0" x2="12" y2="24" class="grid-line"/>
<line x1="12.5" y1="0" x2="12.5" y2="24" class="grid-line"/>
<line x1="13" y1="0" x2="13" y2="24" class="grid-line"/>
<line x1="13.5" y1="0" x2="13.5" y2="24" class="grid-line"/>
<line x1="14" y1="0" x2="14" y2="24" class="grid-line"/>
<line x1="14.5" y1="0" x2="14.5" y2="24" class="grid-line"/>
<line x1="15" y1="0" x2="15" y2="24" class="grid-line"/>
<line x1="15.5" y1="0" x2="15.5" y2="24" class="grid-line"/>
<line x1="16" y1="0" x2="16" y2="24" class="grid-line"/>
<line x1="16.5" y1="0" x2="16.5" y2="24" class="grid-line"/>
<line x1="17" y1="0" x2="17" y2="24" class="grid-line"/>
<line x1="17.5" y1="0" x2="17.5" y2="24" class="grid-line"/>
<line x1="18" y1="0" x2="18" y2="24" class="grid-line"/>
<line x1="18.5" y1="0" x2="18.5" y2="24" class="grid-line"/>
<line x1="19" y1="0" x2="19" y2="24" class="grid-line"/>
<line x1="19.5" y1="0" x2="19.5" y2="24" class="grid-line"/>
<line x1="20" y1="0" x2="20" y2="24" class="grid-line"/>
<line x1="20.5" y1="0" x2="20.5" y2="24" class="grid-line"/>
<line x1="21" y1="0" x2="21" y2="24" class="grid-line"/>
<line x1="21.5" y1="0" x2="21.5" y2="24" class="grid-line"/>
<line x1="22" y1="0" x2="22" y2="24" class="grid-line"/>
<line x1="22.5" y1="0" x2="22.5" y2="24" class="grid-line"/>
<line x1="23" y1="0" x2="23" y2="24" class="grid-line"/>
<line x1="23.5" y1="0" x2="23.5" y2="24" class="grid-line"/>
<line x1="24" y1="0" x2="24" y2="24" class="grid-line"/>
<line x1="0" y1="0" x2="24" y2="0" class="grid-line"/>
<line x1="0" y1="0.5" x2="24" y2="0.5" class="grid-line"/>
<line x1="0" y1="1" x2="24" y2="1" class="grid-line"/>
<line x1="0" y1="1.5" x2="24" y2="1.5" class="grid-line"/>
<line x1="0" y1="2" x2="24" y2="2" class="grid-line"/>
<line x1="0" y1="2.5" x2="24" y2="2.5" class="grid-line"/>
<line x1="0" y1="3" x2="24" y2="3" class="grid-line"/>
<line x1="0" y1="3.5" x2="24" y2="3.5" class="grid-line"/>
<line x1="0" y1="4" x2="24" y2="4" class="grid-line"/>
<line x1="0" y1="4.5" x2="24" y2="4.5" class="grid-line"/>
<line x1="0" y1="5" x2="24" y2="5" class="grid-line"/>
<line x1="0" y1="5.5" x2="24" y2="5.5" class="grid-line"/>
<line x1="0" y1="6" x2="24" y2="6" class="grid-line"/>
<line x1="0" y1="6.5" x2="24" y2="6.5" class="grid-line"/>
<line x1="0" y1="7" x2="24" y2="7" class="grid-line"/>
<line x1="0" y1="7.5" x2="24" y2="7.5" class="grid-line"/>
<line x1="0" y1="8" x2="24" y2="8" class="grid-line"/>
<line x1="0" y1="8.5" x2="24" y2="8.5" class="grid-line"/>
<line x1="0" y1="9" x2="24" y2="9" class="grid-line"/>
<line x1="0" y1="9.5" x2="24" y2="9.5" class="grid-line"/>
<line x1="0" y1="10" x2="24" y2="10" class="grid-line"/>
<line x1="0" y1="10.5" x2="24" y2="10.5" class="grid-line"/>
<line x1="0" y1="11" x2="24" y2="11" class="grid-line"/>
<line x1="0" y1="11.5" x2="24" y2="11.5" class="grid-line"/>
<line x1="0" y1="12" x2="24" y2="12" class="grid-line"/>
<line x1="0" y1="12.5" x2="24" y2="12.5" class="grid-line"/>
<line x1="0" y1="13" x2="24" y2="13" class="grid-line"/>
<line x1="0" y1="13.5" x2="24" y2="13.5" class="grid-line"/>
<line x1="0" y1="14" x2="24" y2="14" class="grid-line"/>
<line x1="0" y1="14.5" x2="24" y2="14.5" class="grid-line"/>
<line x1="0" y1="15" x2="24" y2="15" class="grid-line"/>
<line x1="0" y1="15.5" x2="24" y2="15.5" class="grid-line"/>
<line x1="0" y1="16" x2="24" y2="16" class="grid-line"/>
<line x1="0" y1="16.5" x2="24" y2="16.5" class="grid-line"/>
<line x1="0" y1="17" x2="24" y2="17" class="grid-line"/>
<line x1="0" y1="17.5" x2="24" y2="17.5" class="grid-line"/>
<line x1="0" y1="18" x2="24" y2="18" class="grid-line"/>
<line x1="0" y1="18.5" x2="24" y2="18.5" class="grid-line"/>
<line x1="0" y1="19" x2="24" y2="19" class="grid-line"/>
<line x1="0" y1="19.5" x2="24" y2="19.5" class="grid-line"/>
<line x1="0" y1="20" x2="24" y2="20" class="grid-line"/>
<line x1="0" y1="20.5" x2="24" y2="20.5" class="grid-line"/>
<line x1="0" y1="21" x2="24" y2="21" class="grid-line"/>
<line x1="0" y1="21.5" x2="24" y2="21.5" class="grid-line"/>
<line x1="0" y1="22" x2="24" y2="22" class="grid-line"/>
<line x1="0" y1="22.5" x2="24" y2="22.5" class="grid-line"/>
<line x1="0" y1="23" x2="24" y2="23" class="grid-line"/>
<line x1="0" y1="23.5" x2="24" y2="23.5" class="grid-line"/>
<line x1="0" y1="24" x2="24" y2="24" class="grid-line"/>
</g>
<g id="layer-delaunay" class="layer ">
<line x1="14.19561928549564" y1="16.103323329854383" x2="14.066987298107781" y2="16.25" class="delaunay-line"/>
<line x1="14.066987298107781" y1="16.25" x2="14.017037086855467" y2="16.629409522551263" class="delaunay-line"/>
<line x1="14.017037086855467" y1="16.629409522551263" x2="14.19561928549564" y2="16.103323329854383" class="delaunay-line"/>
<line x1="14.017037086855467" y1="16.629409522551263" x2="14.434736903889975" y2="16.995722430686904" class="delaunay-line"/>
<line x1="14.434736903889975" y1="16.995722430686904" x2="14.19561928549564" y2="16.103323329854383" class="delaunay-line"/>
<line x1="14.19561928549564" y1="16.103323329854383" x2="14.017037086855467" y2="16.629409522551263" class="delaunay-line"/>
<line x1="14.066987298107781" y1="16.25" x2="14.004277569313095" y2="16.434736903889977" class="delaunay-line"/>
<line x1="14.004277569313095" y1="16.434736903889977" x2="14.017037086855467" y2="16.629409522551263" class="delaunay-line"/>
<line x1="14.017037086855467" y1="16.629409522551263" x2="14.066987298107781" y2="16.25" class="delaunay-line"/>
<line x1="14.565263096110025" y1="16.004277569313096" x2="14.37059047744874" y2="16.017037086855467" class="delaunay-line"/>
<line x1="14.37059047744874" y1="16.017037086855467" x2="14.19561928549564" y2="16.103323329854383" class="delaunay-line"/>
<line x1="14.19561928549564" y1="16.103323329854383" x2="14.565263096110025" y2="16.004277569313096" class="delaunay-line"/>
<line x1="14.434736903889975" y1="16.995722430686904" x2="14.565263096110025" y2="16.004277569313096" class="delaunay-line"/>
<line x1="14.565263096110025" y1="16.004277569313096" x2="14.19561928549564" y2="16.103323329854383" class="delaunay-line"/>
<line x1="14.19561928549564" y1="16.103323329854383" x2="14.434736903889975" y2="16.995722430686904" class="delaunay-line"/>
<line x1="14.434736903889975" y1="16.995722430686904" x2="14.80438071450436" y2="16.896676670145617" class="delaunay-line"/>
<line x1="14.80438071450436" y1="16.896676670145617" x2="14.565263096110025" y2="16.004277569313096" class="delaunay-line"/>
<line x1="14.565263096110025" y1="16.004277569313096" x2="14.434736903889975" y2="16.995722430686904" class="delaunay-line"/>
<line x1="14.62940952255126" y1="16.982962913144533" x2="14.80438071450436" y2="16.896676670145617" class="delaunay-line"/>
<line x1="14.80438071450436" y1="16.896676670145617" x2="14.434736903889975" y2="16.995722430686904" class="delaunay-line"/>
<line x1="14.434736903889975" y1="16.995722430686904" x2="14.62940952255126" y2="16.982962913144533" class="delaunay-line"/>
<line x1="14.017037086855467" y1="16.629409522551263" x2="14.103323329854382" y2="16.80438071450436" class="delaunay-line"/>
<line x1="14.103323329854382" y1="16.80438071450436" x2="14.434736903889975" y2="16.995722430686904" class="delaunay-line"/>
<line x1="14.434736903889975" y1="16.995722430686904" x2="14.017037086855467" y2="16.629409522551263" class="delaunay-line"/>
<line x1="14.103323329854382" y1="16.80438071450436" x2="14.25" y2="16.93301270189222" class="delaunay-line"/>
<line x1="14.25" y1="16.93301270189222" x2="14.434736903889975" y2="16.995722430686904" class="delaunay-line"/>
<line x1="14.434736903889975" y1="16.995722430686904" x2="14.103323329854382" y2="16.80438071450436" class="delaunay-line"/>
<line x1="14.80438071450436" y1="16.896676670145617" x2="14.982962913144533" y2="16.370590477448737" class="delaunay-line"/>
<line x1="14.982962913144533" y1="16.370590477448737" x2="14.565263096110025" y2="16.004277569313096" class="delaunay-line"/>
<line x1="14.565263096110025" y1="16.004277569313096" x2="14.80438071450436" y2="16.896676670145617" class="delaunay-line"/>
<line x1="14.933012701892219" y1="16.75" x2="14.982962913144533" y2="16.370590477448737" class="delaunay-line"/>
<line x1="14.982962913144533" y1="16.370590477448737" x2="14.80438071450436" y2="16.896676670145617" class="delaunay-line"/>
<line x1="14.80438071450436" y1="16.896676670145617" x2="14.933012701892219" y2="16.75" class="delaunay-line"/>
<line x1="14.933012701892219" y1="16.75" x2="14.995722430686905" y2="16.565263096110023" class="delaunay-line"/>
<line x1="14.995722430686905" y1="16.565263096110023" x2="14.982962913144533" y2="16.370590477448737" class="delaunay-line"/>
<line x1="14.982962913144533" y1="16.370590477448737" x2="14.933012701892219" y2="16.75" class="delaunay-line"/>
<line x1="14.896676670145618" y1="16.19561928549564" x2="14.75" y2="16.06698729810778" class="delaunay-line"/>
<line x1="14.75" y1="16.06698729810778" x2="14.565263096110025" y2="16.004277569313096" class="delaunay-line"/>
<line x1="14.565263096110025" y1="16.004277569313096" x2="14.896676670145618" y2="16.19561928549564" class="delaunay-line"/>
<line x1="14.982962913144533" y1="16.370590477448737" x2="14.896676670145618" y2="16.19561928549564" class="delaunay-line"/>
<line x1="14.896676670145618" y1="16.19561928549564" x2="14.565263096110025" y2="16.004277569313096" class="delaunay-line"/>
<line x1="14.565263096110025" y1="16.004277569313096" x2="14.982962913144533" y2="16.370590477448737" class="delaunay-line"/>
<line x1="14.995722430686905" y1="16.565263096110023" x2="17.34138415215259" y2="15.29621578270216" class="delaunay-line"/>
<line x1="17.34138415215259" y1="15.29621578270216" x2="14.982962913144533" y2="16.370590477448737" class="delaunay-line"/>
<line x1="14.982962913144533" y1="16.370590477448737" x2="14.995722430686905" y2="16.565263096110023" class="delaunay-line"/>
<line x1="14.982962913144533" y1="16.370590477448737" x2="17.34138415215259" y2="15.29621578270216" class="delaunay-line"/>
<line x1="17.34138415215259" y1="15.29621578270216" x2="14.896676670145618" y2="16.19561928549564" class="delaunay-line"/>
<line x1="14.896676670145618" y1="16.19561928549564" x2="14.982962913144533" y2="16.370590477448737" class="delaunay-line"/>
<line x1="14.896676670145618" y1="16.19561928549564" x2="17.34138415215259" y2="15.29621578270216" class="delaunay-line"/>
<line x1="17.34138415215259" y1="15.29621578270216" x2="14.75" y2="16.06698729810778" class="delaunay-line"/>
<line x1="14.75" y1="16.06698729810778" x2="14.896676670145618" y2="16.19561928549564" class="delaunay-line"/>
<line x1="14.75" y1="16.06698729810778" x2="17.586968902225667" y2="12.993678174237056" class="delaunay-line"/>
<line x1="17.586968902225667" y1="12.993678174237056" x2="14.565263096110025" y2="16.004277569313096" class="delaunay-line"/>
<line x1="14.565263096110025" y1="16.004277569313096" x2="14.75" y2="16.06698729810778" class="delaunay-line"/>
<line x1="14.565263096110025" y1="16.004277569313096" x2="17.586968902225667" y2="12.993678174237056" class="delaunay-line"/>
<line x1="17.586968902225667" y1="12.993678174237056" x2="14.37059047744874" y2="16.017037086855467" class="delaunay-line"/>
<line x1="14.37059047744874" y1="16.017037086855467" x2="14.565263096110025" y2="16.004277569313096" class="delaunay-line"/>
<line x1="14.933012701892219" y1="16.75" x2="17.34138415215259" y2="15.29621578270216" class="delaunay-line"/>
<line x1="17.34138415215259" y1="15.29621578270216" x2="14.995722430686905" y2="16.565263096110023" class="delaunay-line"/>
<line x1="14.995722430686905" y1="16.565263096110023" x2="14.933012701892219" y2="16.75" class="delaunay-line"/>
<line x1="21.008555138626193" y1="16.130526192220053" x2="17.34138415215259" y2="15.29621578270216" class="delaunay-line"/>
<line x1="17.34138415215259" y1="15.29621578270216" x2="21.13397459621556" y2="16.499999999999996" class="delaunay-line"/>
<line x1="21.13397459621556" y1="16.499999999999996" x2="21.008555138626193" y2="16.130526192220053" class="delaunay-line"/>
<line x1="17.34138415215259" y1="15.29621578270216" x2="17.586968902225667" y2="12.993678174237056" class="delaunay-line"/>
<line x1="17.586968902225667" y1="12.993678174237056" x2="14.75" y2="16.06698729810778" class="delaunay-line"/>
<line x1="14.75" y1="16.06698729810778" x2="17.34138415215259" y2="15.29621578270216" class="delaunay-line"/>
<line x1="14.37059047744874" y1="16.017037086855467" x2="7.020966844536236" y2="12.972048343662543" class="delaunay-line"/>
<line x1="7.020966844536236" y1="12.972048343662543" x2="14.19561928549564" y2="16.103323329854383" class="delaunay-line"/>
<line x1="14.19561928549564" y1="16.103323329854383" x2="14.37059047744874" y2="16.017037086855467" class="delaunay-line"/>
<line x1="17.34138415215259" y1="15.29621578270216" x2="18.0699318153702" y2="12.864268651685796" class="delaunay-line"/>
<line x1="18.0699318153702" y1="12.864268651685796" x2="17.586968902225667" y2="12.993678174237056" class="delaunay-line"/>
<line x1="17.586968902225667" y1="12.993678174237056" x2="17.34138415215259" y2="15.29621578270216" class="delaunay-line"/>
<line x1="21.13397459621556" y1="16.499999999999996" x2="17.34138415215259" y2="15.29621578270216" class="delaunay-line"/>
<line x1="17.34138415215259" y1="15.29621578270216" x2="14.933012701892219" y2="16.75" class="delaunay-line"/>
<line x1="14.933012701892219" y1="16.75" x2="21.13397459621556" y2="16.499999999999996" class="delaunay-line"/>
<line x1="17.34138415215259" y1="15.29621578270216" x2="21.206646659708767" y2="15.391238570991277" class="delaunay-line"/>
<line x1="21.206646659708767" y1="15.391238570991277" x2="18.0699318153702" y2="12.864268651685796" class="delaunay-line"/>
<line x1="18.0699318153702" y1="12.864268651685796" x2="17.34138415215259" y2="15.29621578270216" class="delaunay-line"/>
<line x1="21.13397459621556" y1="16.499999999999996" x2="14.933012701892219" y2="16.75" class="delaunay-line"/>
<line x1="14.933012701892219" y1="16.75" x2="21.39123857099128" y2="16.793353340291233" class="delaunay-line"/>
<line x1="21.39123857099128" y1="16.793353340291233" x2="21.13397459621556" y2="16.499999999999996" class="delaunay-line"/>
<line x1="21.008555138626193" y1="16.130526192220053" x2="21.03407417371093" y2="15.741180954897478" class="delaunay-line"/>
<line x1="21.03407417371093" y1="15.741180954897478" x2="17.34138415215259" y2="15.29621578270216" class="delaunay-line"/>
<line x1="17.34138415215259" y1="15.29621578270216" x2="21.008555138626193" y2="16.130526192220053" class="delaunay-line"/>
<line x1="21.39123857099128" y1="16.793353340291233" x2="14.933012701892219" y2="16.75" class="delaunay-line"/>
<line x1="14.933012701892219" y1="16.75" x2="14.80438071450436" y2="16.896676670145617" class="delaunay-line"/>
<line x1="14.80438071450436" y1="16.896676670145617" x2="21.39123857099128" y2="16.793353340291233" class="delaunay-line"/>
<line x1="21.008555138626193" y1="16.130526192220053" x2="21.206646659708767" y2="15.391238570991277" class="delaunay-line"/>
<line x1="21.206646659708767" y1="15.391238570991277" x2="21.03407417371093" y2="15.741180954897478" class="delaunay-line"/>
<line x1="21.03407417371093" y1="15.741180954897478" x2="21.008555138626193" y2="16.130526192220053" class="delaunay-line"/>
<line x1="21.5" y1="15.13397459621556" x2="21.206646659708767" y2="15.391238570991277" class="delaunay-line"/>
<line x1="21.206646659708767" y1="15.391238570991277" x2="21.86947380777995" y2="15.00855513862619" class="delaunay-line"/>
<line x1="21.86947380777995" y1="15.00855513862619" x2="21.5" y2="15.13397459621556" class="delaunay-line"/>
<line x1="21.03407417371093" y1="15.741180954897478" x2="21.206646659708767" y2="15.391238570991277" class="delaunay-line"/>
<line x1="21.206646659708767" y1="15.391238570991277" x2="17.34138415215259" y2="15.29621578270216" class="delaunay-line"/>
<line x1="17.34138415215259" y1="15.29621578270216" x2="21.03407417371093" y2="15.741180954897478" class="delaunay-line"/>
<line x1="21.39123857099128" y1="16.793353340291233" x2="14.80438071450436" y2="16.896676670145617" class="delaunay-line"/>
<line x1="14.80438071450436" y1="16.896676670145617" x2="24" y2="24" class="delaunay-line"/>
<line x1="24" y1="24" x2="21.39123857099128" y2="16.793353340291233" class="delaunay-line"/>
<line x1="21.74118095489748" y1="16.96592582628907" x2="21.39123857099128" y2="16.793353340291233" class="delaunay-line"/>
<line x1="21.39123857099128" y1="16.793353340291233" x2="24" y2="24" class="delaunay-line"/>
<line x1="24" y1="24" x2="21.74118095489748" y2="16.96592582628907" class="delaunay-line"/>
<line x1="21.13397459621556" y1="16.499999999999996" x2="21.39123857099128" y2="16.793353340291233" class="delaunay-line"/>
<line x1="21.39123857099128" y1="16.793353340291233" x2="21.008555138626193" y2="16.130526192220053" class="delaunay-line"/>
<line x1="21.008555138626193" y1="16.130526192220053" x2="21.13397459621556" y2="16.499999999999996" class="delaunay-line"/>
<line x1="21.86947380777995" y1="15.00855513862619" x2="21.206646659708767" y2="15.391238570991277" class="delaunay-line"/>
<line x1="21.206646659708767" y1="15.391238570991277" x2="21.008555138626193" y2="16.130526192220053" class="delaunay-line"/>
<line x1="21.008555138626193" y1="16.130526192220053" x2="21.86947380777995" y2="15.00855513862619" class="delaunay-line"/>
<line x1="21.206646659708767" y1="15.391238570991277" x2="21.5" y2="15.13397459621556" class="delaunay-line"/>
<line x1="21.5" y1="15.13397459621556" x2="18.0699318153702" y2="12.864268651685796" class="delaunay-line"/>
<line x1="18.0699318153702" y1="12.864268651685796" x2="21.206646659708767" y2="15.391238570991277" class="delaunay-line"/>
<line x1="22.130526192220053" y1="16.991444861373807" x2="21.74118095489748" y2="16.96592582628907" class="delaunay-line"/>
<line x1="21.74118095489748" y1="16.96592582628907" x2="24" y2="24" class="delaunay-line"/>
<line x1="24" y1="24" x2="22.130526192220053" y2="16.991444861373807" class="delaunay-line"/>
<line x1="22.991444861373807" y1="15.869473807779947" x2="21.86947380777995" y2="15.00855513862619" class="delaunay-line"/>
<line x1="21.86947380777995" y1="15.00855513862619" x2="21.008555138626193" y2="16.130526192220053" class="delaunay-line"/>
<line x1="21.008555138626193" y1="16.130526192220053" x2="22.991444861373807" y2="15.869473807779947" class="delaunay-line"/>
<line x1="22.130526192220053" y1="16.991444861373807" x2="21.008555138626193" y2="16.130526192220053" class="delaunay-line"/>
<line x1="21.008555138626193" y1="16.130526192220053" x2="21.39123857099128" y2="16.793353340291233" class="delaunay-line"/>
<line x1="21.39123857099128" y1="16.793353340291233" x2="22.130526192220053" y2="16.991444861373807" class="delaunay-line"/>
<line x1="21.5" y1="15.13397459621556" x2="21.86947380777995" y2="15.00855513862619" class="delaunay-line"/>
<line x1="21.86947380777995" y1="15.00855513862619" x2="18.0699318153702" y2="12.864268651685796" class="delaunay-line"/>
<line x1="18.0699318153702" y1="12.864268651685796" x2="21.5" y2="15.13397459621556" class="delaunay-line"/>
<line x1="24" y1="24" x2="14.80438071450436" y2="16.896676670145617" class="delaunay-line"/>
<line x1="14.80438071450436" y1="16.896676670145617" x2="14.62940952255126" y2="16.982962913144533" class="delaunay-line"/>
<line x1="14.62940952255126" y1="16.982962913144533" x2="24" y2="24" class="delaunay-line"/>
<line x1="21.74118095489748" y1="16.96592582628907" x2="22.130526192220053" y2="16.991444861373807" class="delaunay-line"/>
<line x1="22.130526192220053" y1="16.991444861373807" x2="21.39123857099128" y2="16.793353340291233" class="delaunay-line"/>
<line x1="21.39123857099128" y1="16.793353340291233" x2="21.74118095489748" y2="16.96592582628907" class="delaunay-line"/>
<line x1="22.866025403784437" y1="15.5" x2="22.25881904510252" y2="15.034074173710932" class="delaunay-line"/>
<line x1="22.25881904510252" y1="15.034074173710932" x2="22.991444861373807" y2="15.869473807779947" class="delaunay-line"/>
<line x1="22.991444861373807" y1="15.869473807779947" x2="22.866025403784437" y2="15.5" class="delaunay-line"/>
<line x1="21.86947380777995" y1="15.00855513862619" x2="22.25881904510252" y2="15.034074173710932" class="delaunay-line"/>
<line x1="22.25881904510252" y1="15.034074173710932" x2="18.0699318153702" y2="12.864268651685796" class="delaunay-line"/>
<line x1="18.0699318153702" y1="12.864268651685796" x2="21.86947380777995" y2="15.00855513862619" class="delaunay-line"/>
<line x1="22.130526192220053" y1="16.991444861373807" x2="22.991444861373807" y2="15.869473807779947" class="delaunay-line"/>
<line x1="22.991444861373807" y1="15.869473807779947" x2="21.008555138626193" y2="16.130526192220053" class="delaunay-line"/>
<line x1="21.008555138626193" y1="16.130526192220053" x2="22.130526192220053" y2="16.991444861373807" class="delaunay-line"/>
<line x1="22.866025403784437" y1="15.5" x2="22.608761429008723" y2="15.206646659708767" class="delaunay-line"/>
<line x1="22.608761429008723" y1="15.206646659708767" x2="22.25881904510252" y2="15.034074173710932" class="delaunay-line"/>
<line x1="22.25881904510252" y1="15.034074173710932" x2="22.866025403784437" y2="15.5" class="delaunay-line"/>
<line x1="16.517017544755074" y1="7.068713693951386" x2="17.586968902225667" y2="12.993678174237056" class="delaunay-line"/>
<line x1="17.586968902225667" y1="12.993678174237056" x2="18.0699318153702" y2="12.864268651685796" class="delaunay-line"/>
<line x1="18.0699318153702" y1="12.864268651685796" x2="16.517017544755074" y2="7.068713693951386" class="delaunay-line"/>
<line x1="14.19561928549564" y1="16.103323329854383" x2="7.020966844536236" y2="12.972048343662543" class="delaunay-line"/>
<line x1="7.020966844536236" y1="12.972048343662543" x2="14.066987298107781" y2="16.25" class="delaunay-line"/>
<line x1="14.066987298107781" y1="16.25" x2="14.19561928549564" y2="16.103323329854383" class="delaunay-line"/>
<line x1="14.066987298107781" y1="16.25" x2="7.020966844536236" y2="12.972048343662543" class="delaunay-line"/>
<line x1="7.020966844536236" y1="12.972048343662543" x2="14.004277569313095" y2="16.434736903889977" class="delaunay-line"/>
<line x1="14.004277569313095" y1="16.434736903889977" x2="14.066987298107781" y2="16.25" class="delaunay-line"/>
<line x1="14.004277569313095" y1="16.434736903889977" x2="5.750274236683771" y2="18.40204432393241" class="delaunay-line"/>
<line x1="5.750274236683771" y1="18.40204432393241" x2="14.017037086855467" y2="16.629409522551263" class="delaunay-line"/>
<line x1="14.017037086855467" y1="16.629409522551263" x2="14.004277569313095" y2="16.434736903889977" class="delaunay-line"/>
<line x1="14.017037086855467" y1="16.629409522551263" x2="5.750274236683771" y2="18.40204432393241" class="delaunay-line"/>
<line x1="5.750274236683771" y1="18.40204432393241" x2="14.103323329854382" y2="16.80438071450436" class="delaunay-line"/>
<line x1="14.103323329854382" y1="16.80438071450436" x2="14.017037086855467" y2="16.629409522551263" class="delaunay-line"/>
<line x1="14.103323329854382" y1="16.80438071450436" x2="5.750274236683771" y2="18.40204432393241" class="delaunay-line"/>
<line x1="5.750274236683771" y1="18.40204432393241" x2="14.25" y2="16.93301270189222" class="delaunay-line"/>
<line x1="14.25" y1="16.93301270189222" x2="14.103323329854382" y2="16.80438071450436" class="delaunay-line"/>
<line x1="8.75" y1="6.933012701892219" x2="7.020966844536236" y2="12.972048343662543" class="delaunay-line"/>
<line x1="7.020966844536236" y1="12.972048343662543" x2="14.37059047744874" y2="16.017037086855467" class="delaunay-line"/>
<line x1="14.37059047744874" y1="16.017037086855467" x2="8.75" y2="6.933012701892219" class="delaunay-line"/>
<line x1="16.03405463161054" y1="7.198123216502646" x2="14.37059047744874" y2="16.017037086855467" class="delaunay-line"/>
<line x1="14.37059047744874" y1="16.017037086855467" x2="17.586968902225667" y2="12.993678174237056" class="delaunay-line"/>
<line x1="17.586968902225667" y1="12.993678174237056" x2="16.03405463161054" y2="7.198123216502646" class="delaunay-line"/>
<line x1="22.991444861373807" y1="15.869473807779947" x2="22.25881904510252" y2="15.034074173710932" class="delaunay-line"/>
<line x1="22.25881904510252" y1="15.034074173710932" x2="21.86947380777995" y2="15.00855513862619" class="delaunay-line"/>
<line x1="21.86947380777995" y1="15.00855513862619" x2="22.991444861373807" y2="15.869473807779947" class="delaunay-line"/>
<line x1="22.991444861373807" y1="15.869473807779947" x2="22.130526192220053" y2="16.991444861373807" class="delaunay-line"/>
<line x1="22.130526192220053" y1="16.991444861373807" x2="22.499999999999996" y2="16.866025403784437" class="delaunay-line"/>
<line x1="22.499999999999996" y1="16.866025403784437" x2="22.991444861373807" y2="15.869473807779947" class="delaunay-line"/>
<line x1="22.793353340291233" y1="16.608761429008723" x2="22.991444861373807" y2="15.869473807779947" class="delaunay-line"/>
<line x1="22.991444861373807" y1="15.869473807779947" x2="22.499999999999996" y2="16.866025403784437" class="delaunay-line"/>
<line x1="22.499999999999996" y1="16.866025403784437" x2="22.793353340291233" y2="16.608761429008723" class="delaunay-line"/>
<line x1="22.96592582628907" y1="16.25881904510252" x2="22.991444861373807" y2="15.869473807779947" class="delaunay-line"/>
<line x1="22.991444861373807" y1="15.869473807779947" x2="22.793353340291233" y2="16.608761429008723" class="delaunay-line"/>
<line x1="22.793353340291233" y1="16.608761429008723" x2="22.96592582628907" y2="16.25881904510252" class="delaunay-line"/>
<line x1="7.020966844536236" y1="12.972048343662543" x2="5.750274236683771" y2="18.40204432393241" class="delaunay-line"/>
<line x1="5.750274236683771" y1="18.40204432393241" x2="14.004277569313095" y2="16.434736903889977" class="delaunay-line"/>
<line x1="14.004277569313095" y1="16.434736903889977" x2="7.020966844536236" y2="12.972048343662543" class="delaunay-line"/>
<line x1="14.25" y1="16.93301270189222" x2="5.750274236683771" y2="18.40204432393241" class="delaunay-line"/>
<line x1="5.750274236683771" y1="18.40204432393241" x2="14.434736903889975" y2="16.995722430686904" class="delaunay-line"/>
<line x1="14.434736903889975" y1="16.995722430686904" x2="14.25" y2="16.93301270189222" class="delaunay-line"/>
<line x1="14.434736903889975" y1="16.995722430686904" x2="24" y2="24" class="delaunay-line"/>
<line x1="24" y1="24" x2="14.62940952255126" y2="16.982962913144533" class="delaunay-line"/>
<line x1="14.62940952255126" y1="16.982962913144533" x2="14.434736903889975" y2="16.995722430686904" class="delaunay-line"/>
<line x1="16.517017544755074" y1="7.068713693951386" x2="18.0699318153702" y2="12.864268651685796" class="delaunay-line"/>
<line x1="18.0699318153702" y1="12.864268651685796" x2="22.25881904510252" y2="15.034074173710932" class="delaunay-line"/>
<line x1="22.25881904510252" y1="15.034074173710932" x2="16.517017544755074" y2="7.068713693951386" class="delaunay-line"/>
<line x1="16.517017544755074" y1="7.068713693951386" x2="16.03405463161054" y2="7.198123216502646" class="delaunay-line"/>
<line x1="16.03405463161054" y1="7.198123216502646" x2="17.586968902225667" y2="12.993678174237056" class="delaunay-line"/>
<line x1="17.586968902225667" y1="12.993678174237056" x2="16.517017544755074" y2="7.068713693951386" class="delaunay-line"/>
<line x1="16.517017544755074" y1="7.068713693951386" x2="22.25881904510252" y2="15.034074173710932" class="delaunay-line"/>
<line x1="22.25881904510252" y1="15.034074173710932" x2="24" y2="0" class="delaunay-line"/>
<line x1="24" y1="0" x2="16.517017544755074" y2="7.068713693951386" class="delaunay-line"/>
<line x1="13.459098475614775" y1="0.8073283883661349" x2="16.517017544755074" y2="7.068713693951386" class="delaunay-line"/>
<line x1="16.517017544755074" y1="7.068713693951386" x2="24" y2="0" class="delaunay-line"/>
<line x1="24" y1="0" x2="13.459098475614775" y2="0.8073283883661349" class="delaunay-line"/>
<line x1="8.896676670145618" y1="6.8043807145043615" x2="8.75" y2="6.933012701892219" class="delaunay-line"/>
<line x1="8.75" y1="6.933012701892219" x2="16.03405463161054" y2="7.198123216502646" class="delaunay-line"/>
<line x1="16.03405463161054" y1="7.198123216502646" x2="8.896676670145618" y2="6.8043807145043615" class="delaunay-line"/>
<line x1="16.03405463161054" y1="7.198123216502646" x2="8.75" y2="6.933012701892219" class="delaunay-line"/>
<line x1="8.75" y1="6.933012701892219" x2="14.37059047744874" y2="16.017037086855467" class="delaunay-line"/>
<line x1="14.37059047744874" y1="16.017037086855467" x2="16.03405463161054" y2="7.198123216502646" class="delaunay-line"/>
<line x1="8.982962913144535" y1="6.629409522551261" x2="8.896676670145618" y2="6.8043807145043615" class="delaunay-line"/>
<line x1="8.896676670145618" y1="6.8043807145043615" x2="16.03405463161054" y2="7.198123216502646" class="delaunay-line"/>
<line x1="16.03405463161054" y1="7.198123216502646" x2="8.982962913144535" y2="6.629409522551261" class="delaunay-line"/>
<line x1="8.80438071450436" y1="6.1033233298543825" x2="8.565263096110025" y2="6.995722430686905" class="delaunay-line"/>
<line x1="8.565263096110025" y1="6.995722430686905" x2="8.75" y2="6.933012701892219" class="delaunay-line"/>
<line x1="8.75" y1="6.933012701892219" x2="8.80438071450436" y2="6.1033233298543825" class="delaunay-line"/>
<line x1="8.75" y1="6.933012701892219" x2="8.565263096110025" y2="6.995722430686905" class="delaunay-line"/>
<line x1="8.565263096110025" y1="6.995722430686905" x2="7.020966844536236" y2="12.972048343662543" class="delaunay-line"/>
<line x1="7.020966844536236" y1="12.972048343662543" x2="8.75" y2="6.933012701892219" class="delaunay-line"/>
<line x1="8.565263096110025" y1="6.995722430686905" x2="5.985690664126153" y2="9.108345038506268" class="delaunay-line"/>
<line x1="5.985690664126153" y1="9.108345038506268" x2="7.020966844536236" y2="12.972048343662543" class="delaunay-line"/>
<line x1="7.020966844536236" y1="12.972048343662543" x2="8.565263096110025" y2="6.995722430686905" class="delaunay-line"/>
<line x1="7.020966844536236" y1="12.972048343662543" x2="1.225411886801826" y2="14.524962614277669" class="delaunay-line"/>
<line x1="1.225411886801826" y1="14.524962614277669" x2="5.750274236683771" y2="18.40204432393241" class="delaunay-line"/>
<line x1="5.750274236683771" y1="18.40204432393241" x2="7.020966844536236" y2="12.972048343662543" class="delaunay-line"/>
<line x1="8.896676670145618" y1="6.8043807145043615" x2="8.982962913144535" y2="6.629409522551261" class="delaunay-line"/>
<line x1="8.982962913144535" y1="6.629409522551261" x2="8.75" y2="6.933012701892219" class="delaunay-line"/>
<line x1="8.75" y1="6.933012701892219" x2="8.896676670145618" y2="6.8043807145043615" class="delaunay-line"/>
<line x1="8.565263096110025" y1="6.995722430686905" x2="8.37059047744874" y2="6.982962913144534" class="delaunay-line"/>
<line x1="8.37059047744874" y1="6.982962913144534" x2="5.985690664126153" y2="9.108345038506268" class="delaunay-line"/>
<line x1="5.985690664126153" y1="9.108345038506268" x2="8.565263096110025" y2="6.995722430686905" class="delaunay-line"/>
<line x1="8.995722430686905" y1="6.4347369038899735" x2="8.982962913144535" y2="6.629409522551261" class="delaunay-line"/>
<line x1="8.982962913144535" y1="6.629409522551261" x2="16.03405463161054" y2="7.198123216502646" class="delaunay-line"/>
<line x1="16.03405463161054" y1="7.198123216502646" x2="8.995722430686905" y2="6.4347369038899735" class="delaunay-line"/>
<line x1="8.19561928549564" y1="6.8966766701456175" x2="8.37059047744874" y2="6.982962913144534" class="delaunay-line"/>
<line x1="8.37059047744874" y1="6.982962913144534" x2="8.565263096110025" y2="6.995722430686905" class="delaunay-line"/>
<line x1="8.565263096110025" y1="6.995722430686905" x2="8.19561928549564" y2="6.8966766701456175" class="delaunay-line"/>
<line x1="8.93301270189222" y1="6.25" x2="8.995722430686905" y2="6.4347369038899735" class="delaunay-line"/>
<line x1="8.995722430686905" y1="6.4347369038899735" x2="16.03405463161054" y2="7.198123216502646" class="delaunay-line"/>
<line x1="16.03405463161054" y1="7.198123216502646" x2="8.93301270189222" y2="6.25" class="delaunay-line"/>
<line x1="8.982962913144535" y1="6.629409522551261" x2="8.995722430686905" y2="6.4347369038899735" class="delaunay-line"/>
<line x1="8.995722430686905" y1="6.4347369038899735" x2="8.75" y2="6.933012701892219" class="delaunay-line"/>
<line x1="8.75" y1="6.933012701892219" x2="8.982962913144535" y2="6.629409522551261" class="delaunay-line"/>
<line x1="8.434736903889975" y1="6.004277569313095" x2="8.19561928549564" y2="6.8966766701456175" class="delaunay-line"/>
<line x1="8.19561928549564" y1="6.8966766701456175" x2="8.565263096110025" y2="6.995722430686905" class="delaunay-line"/>
<line x1="8.565263096110025" y1="6.995722430686905" x2="8.434736903889975" y2="6.004277569313095" class="delaunay-line"/>
<line x1="8.37059047744874" y1="6.982962913144534" x2="8.19561928549564" y2="6.8966766701456175" class="delaunay-line"/>
<line x1="8.19561928549564" y1="6.8966766701456175" x2="5.985690664126153" y2="9.108345038506268" class="delaunay-line"/>
<line x1="5.985690664126153" y1="9.108345038506268" x2="8.37059047744874" y2="6.982962913144534" class="delaunay-line"/>
<line x1="8.80438071450436" y1="6.1033233298543825" x2="8.93301270189222" y2="6.25" class="delaunay-line"/>
<line x1="8.93301270189222" y1="6.25" x2="13.459098475614775" y2="0.8073283883661349" class="delaunay-line"/>
<line x1="13.459098475614775" y1="0.8073283883661349" x2="8.80438071450436" y2="6.1033233298543825" class="delaunay-line"/>
<line x1="8.995722430686905" y1="6.4347369038899735" x2="8.80438071450436" y2="6.1033233298543825" class="delaunay-line"/>
<line x1="8.80438071450436" y1="6.1033233298543825" x2="8.75" y2="6.933012701892219" class="delaunay-line"/>
<line x1="8.75" y1="6.933012701892219" x2="8.995722430686905" y2="6.4347369038899735" class="delaunay-line"/>
<line x1="8.004277569313095" y1="6.5652630961100265" x2="8.06698729810778" y2="6.75" class="delaunay-line"/>
<line x1="8.06698729810778" y1="6.75" x2="8.19561928549564" y2="6.8966766701456175" class="delaunay-line"/>
<line x1="8.19561928549564" y1="6.8966766701456175" x2="8.004277569313095" y2="6.5652630961100265" class="delaunay-line"/>
<line x1="8.19561928549564" y1="6.8966766701456175" x2="8.06698729810778" y2="6.75" class="delaunay-line"/>
<line x1="8.06698729810778" y1="6.75" x2="5.985690664126153" y2="9.108345038506268" class="delaunay-line"/>
<line x1="5.985690664126153" y1="9.108345038506268" x2="8.19561928549564" y2="6.8966766701456175" class="delaunay-line"/>
<line x1="13.459098475614775" y1="0.8073283883661349" x2="8.93301270189222" y2="6.25" class="delaunay-line"/>
<line x1="8.93301270189222" y1="6.25" x2="16.03405463161054" y2="7.198123216502646" class="delaunay-line"/>
<line x1="16.03405463161054" y1="7.198123216502646" x2="13.459098475614775" y2="0.8073283883661349" class="delaunay-line"/>
<line x1="8.93301270189222" y1="6.25" x2="8.80438071450436" y2="6.1033233298543825" class="delaunay-line"/>
<line x1="8.80438071450436" y1="6.1033233298543825" x2="8.995722430686905" y2="6.4347369038899735" class="delaunay-line"/>
<line x1="8.995722430686905" y1="6.4347369038899735" x2="8.93301270189222" y2="6.25" class="delaunay-line"/>
<line x1="8.25" y1="6.066987298107781" x2="8.004277569313095" y2="6.5652630961100265" class="delaunay-line"/>
<line x1="8.004277569313095" y1="6.5652630961100265" x2="8.19561928549564" y2="6.8966766701456175" class="delaunay-line"/>
<line x1="8.19561928549564" y1="6.8966766701456175" x2="8.25" y2="6.066987298107781" class="delaunay-line"/>
<line x1="8.06698729810778" y1="6.75" x2="8.004277569313095" y2="6.5652630961100265" class="delaunay-line"/>
<line x1="8.004277569313095" y1="6.5652630961100265" x2="5.985690664126153" y2="9.108345038506268" class="delaunay-line"/>
<line x1="5.985690664126153" y1="9.108345038506268" x2="8.06698729810778" y2="6.75" class="delaunay-line"/>
<line x1="13.459098475614775" y1="0.8073283883661349" x2="8.62940952255126" y2="6.017037086855466" class="delaunay-line"/>
<line x1="8.62940952255126" y1="6.017037086855466" x2="8.80438071450436" y2="6.1033233298543825" class="delaunay-line"/>
<line x1="8.80438071450436" y1="6.1033233298543825" x2="13.459098475614775" y2="0.8073283883661349" class="delaunay-line"/>
<line x1="8.80438071450436" y1="6.1033233298543825" x2="8.434736903889975" y2="6.004277569313095" class="delaunay-line"/>
<line x1="8.434736903889975" y1="6.004277569313095" x2="8.565263096110025" y2="6.995722430686905" class="delaunay-line"/>
<line x1="8.565263096110025" y1="6.995722430686905" x2="8.80438071450436" y2="6.1033233298543825" class="delaunay-line"/>
<line x1="8.25" y1="6.066987298107781" x2="8.017037086855465" y2="6.370590477448739" class="delaunay-line"/>
<line x1="8.017037086855465" y1="6.370590477448739" x2="8.004277569313095" y2="6.5652630961100265" class="delaunay-line"/>
<line x1="8.004277569313095" y1="6.5652630961100265" x2="8.25" y2="6.066987298107781" class="delaunay-line"/>
<line x1="8.004277569313095" y1="6.5652630961100265" x2="8.017037086855465" y2="6.370590477448739" class="delaunay-line"/>
<line x1="8.017037086855465" y1="6.370590477448739" x2="5.985690664126153" y2="9.108345038506268" class="delaunay-line"/>
<line x1="5.985690664126153" y1="9.108345038506268" x2="8.004277569313095" y2="6.5652630961100265" class="delaunay-line"/>
<line x1="22.499999999999996" y1="16.866025403784437" x2="24" y2="24" class="delaunay-line"/>
<line x1="24" y1="24" x2="22.793353340291233" y2="16.608761429008723" class="delaunay-line"/>
<line x1="22.793353340291233" y1="16.608761429008723" x2="22.499999999999996" y2="16.866025403784437" class="delaunay-line"/>
<line x1="22.793353340291233" y1="16.608761429008723" x2="24" y2="24" class="delaunay-line"/>
<line x1="24" y1="24" x2="22.96592582628907" y2="16.25881904510252" class="delaunay-line"/>
<line x1="22.96592582628907" y1="16.25881904510252" x2="22.793353340291233" y2="16.608761429008723" class="delaunay-line"/>
<line x1="22.96592582628907" y1="16.25881904510252" x2="24" y2="24" class="delaunay-line"/>
<line x1="24" y1="24" x2="22.991444861373807" y2="15.869473807779947" class="delaunay-line"/>
<line x1="22.991444861373807" y1="15.869473807779947" x2="22.96592582628907" y2="16.25881904510252" class="delaunay-line"/>
<line x1="22.130526192220053" y1="16.991444861373807" x2="24" y2="24" class="delaunay-line"/>
<line x1="24" y1="24" x2="22.499999999999996" y2="16.866025403784437" class="delaunay-line"/>
<line x1="22.499999999999996" y1="16.866025403784437" x2="22.130526192220053" y2="16.991444861373807" class="delaunay-line"/>
<line x1="5.750274236683771" y1="18.40204432393241" x2="24" y2="24" class="delaunay-line"/>
<line x1="24" y1="24" x2="14.434736903889975" y2="16.995722430686904" class="delaunay-line"/>
<line x1="14.434736903889975" y1="16.995722430686904" x2="5.750274236683771" y2="18.40204432393241" class="delaunay-line"/>
<line x1="8.62940952255126" y1="6.017037086855466" x2="8.434736903889975" y2="6.004277569313095" class="delaunay-line"/>
<line x1="8.434736903889975" y1="6.004277569313095" x2="8.80438071450436" y2="6.1033233298543825" class="delaunay-line"/>
<line x1="8.80438071450436" y1="6.1033233298543825" x2="8.62940952255126" y2="6.017037086855466" class="delaunay-line"/>
<line x1="8.25" y1="6.066987298107781" x2="8.103323329854382" y2="6.1956192854956385" class="delaunay-line"/>
<line x1="8.103323329854382" y1="6.1956192854956385" x2="8.017037086855465" y2="6.370590477448739" class="delaunay-line"/>
<line x1="8.017037086855465" y1="6.370590477448739" x2="8.25" y2="6.066987298107781" class="delaunay-line"/>
<line x1="1.867988560145956" y1="3.9131569295963873" x2="0.1901357063917426" y2="10.661259309121395" class="delaunay-line"/>
<line x1="0.1901357063917426" y1="10.661259309121395" x2="5.985690664126153" y2="9.108345038506268" class="delaunay-line"/>
<line x1="5.985690664126153" y1="9.108345038506268" x2="1.867988560145956" y2="3.9131569295963873" class="delaunay-line"/>
<line x1="8.434736903889975" y1="6.004277569313095" x2="8.25" y2="6.066987298107781" class="delaunay-line"/>
<line x1="8.25" y1="6.066987298107781" x2="8.19561928549564" y2="6.8966766701456175" class="delaunay-line"/>
<line x1="8.19561928549564" y1="6.8966766701456175" x2="8.434736903889975" y2="6.004277569313095" class="delaunay-line"/>
<line x1="0.1901357063917426" y1="10.661259309121395" x2="7.020966844536236" y2="12.972048343662543" class="delaunay-line"/>
<line x1="7.020966844536236" y1="12.972048343662543" x2="5.985690664126153" y2="9.108345038506268" class="delaunay-line"/>
<line x1="5.985690664126153" y1="9.108345038506268" x2="0.1901357063917426" y2="10.661259309121395" class="delaunay-line"/>
<line x1="0.1901357063917426" y1="10.661259309121395" x2="1.225411886801826" y2="14.524962614277669" class="delaunay-line"/>
<line x1="1.225411886801826" y1="14.524962614277669" x2="7.020966844536236" y2="12.972048343662543" class="delaunay-line"/>
<line x1="7.020966844536236" y1="12.972048343662543" x2="0.1901357063917426" y2="10.661259309121395" class="delaunay-line"/>
<line x1="1.867988560145956" y1="3.9131569295963873" x2="5.985690664126153" y2="9.108345038506268" class="delaunay-line"/>
<line x1="5.985690664126153" y1="9.108345038506268" x2="8.017037086855465" y2="6.370590477448739" class="delaunay-line"/>
<line x1="8.017037086855465" y1="6.370590477448739" x2="1.867988560145956" y2="3.9131569295963873" class="delaunay-line"/>
<line x1="1.867988560145956" y1="3.9131569295963873" x2="8.017037086855465" y2="6.370590477448739" class="delaunay-line"/>
<line x1="8.017037086855465" y1="6.370590477448739" x2="8.103323329854382" y2="6.1956192854956385" class="delaunay-line"/>
<line x1="8.103323329854382" y1="6.1956192854956385" x2="1.867988560145956" y2="3.9131569295963873" class="delaunay-line"/>
<line x1="8.434736903889975" y1="6.004277569313095" x2="1.867988560145956" y2="3.9131569295963873" class="delaunay-line"/>
<line x1="1.867988560145956" y1="3.9131569295963873" x2="8.25" y2="6.066987298107781" class="delaunay-line"/>
<line x1="8.25" y1="6.066987298107781" x2="8.434736903889975" y2="6.004277569313095" class="delaunay-line"/>
<line x1="8.25" y1="6.066987298107781" x2="1.867988560145956" y2="3.9131569295963873" class="delaunay-line"/>
<line x1="1.867988560145956" y1="3.9131569295963873" x2="8.103323329854382" y2="6.1956192854956385" class="delaunay-line"/>
<line x1="8.103323329854382" y1="6.1956192854956385" x2="8.25" y2="6.066987298107781" class="delaunay-line"/>
<line x1="8.62940952255126" y1="6.017037086855466" x2="13.459098475614775" y2="0.8073283883661349" class="delaunay-line"/>
<line x1="13.459098475614775" y1="0.8073283883661349" x2="8.434736903889975" y2="6.004277569313095" class="delaunay-line"/>
<line x1="8.434736903889975" y1="6.004277569313095" x2="8.62940952255126" y2="6.017037086855466" class="delaunay-line"/>
<line x1="16.517017544755074" y1="7.068713693951386" x2="13.459098475614775" y2="0.8073283883661349" class="delaunay-line"/>
<line x1="13.459098475614775" y1="0.8073283883661349" x2="16.03405463161054" y2="7.198123216502646" class="delaunay-line"/>
<line x1="16.03405463161054" y1="7.198123216502646" x2="16.517017544755074" y2="7.068713693951386" class="delaunay-line"/>
<line x1="24" y1="0" x2="22.25881904510252" y2="15.034074173710932" class="delaunay-line"/>
<line x1="22.25881904510252" y1="15.034074173710932" x2="22.608761429008723" y2="15.206646659708767" class="delaunay-line"/>
<line x1="22.608761429008723" y1="15.206646659708767" x2="24" y2="0" class="delaunay-line"/>
<line x1="1.225411886801826" y1="14.524962614277669" x2="0" y2="24" class="delaunay-line"/>
<line x1="0" y1="24" x2="5.750274236683771" y2="18.40204432393241" class="delaunay-line"/>
<line x1="5.750274236683771" y1="18.40204432393241" x2="1.225411886801826" y2="14.524962614277669" class="delaunay-line"/>
<line x1="5.750274236683771" y1="18.40204432393241" x2="0" y2="24" class="delaunay-line"/>
<line x1="0" y1="24" x2="24" y2="24" class="delaunay-line"/>
<line x1="24" y1="24" x2="5.750274236683771" y2="18.40204432393241" class="delaunay-line"/>
<line x1="0.1901357063917426" y1="10.661259309121395" x2="0" y2="24" class="delaunay-line"/>
<line x1="0" y1="24" x2="1.225411886801826" y2="14.524962614277669" class="delaunay-line"/>
<line x1="1.225411886801826" y1="14.524962614277669" x2="0.1901357063917426" y2="10.661259309121395" class="delaunay-line"/>
<line x1="13.459098475614775" y1="0.8073283883661349" x2="1.867988560145956" y2="3.9131569295963873" class="delaunay-line"/>
<line x1="1.867988560145956" y1="3.9131569295963873" x2="8.434736903889975" y2="6.004277569313095" class="delaunay-line"/>
<line x1="8.434736903889975" y1="6.004277569313095" x2="13.459098475614775" y2="0.8073283883661349" class="delaunay-line"/>
<line x1="22.991444861373807" y1="15.869473807779947" x2="24" y2="0" class="delaunay-line"/>
<line x1="24" y1="0" x2="22.866025403784437" y2="15.5" class="delaunay-line"/>
<line x1="22.866025403784437" y1="15.5" x2="22.991444861373807" y2="15.869473807779947" class="delaunay-line"/>
<line x1="22.866025403784437" y1="15.5" x2="24" y2="0" class="delaunay-line"/>
<line x1="24" y1="0" x2="22.608761429008723" y2="15.206646659708767" class="delaunay-line"/>
<line x1="22.608761429008723" y1="15.206646659708767" x2="22.866025403784437" y2="15.5" class="delaunay-line"/>
<line x1="24" y1="24" x2="24" y2="0" class="delaunay-line"/>
<line x1="24" y1="0" x2="22.991444861373807" y2="15.869473807779947" class="delaunay-line"/>
<line x1="22.991444861373807" y1="15.869473807779947" x2="24" y2="24" class="delaunay-line"/>
<line x1="24" y1="0" x2="0" y2="0" class="delaunay-line"/>
<line x1="0" y1="0" x2="13.459098475614775" y2="0.8073283883661349" class="delaunay-line"/>
<line x1="13.459098475614775" y1="0.8073283883661349" x2="24" y2="0" class="delaunay-line"/>
<line x1="13.459098475614775" y1="0.8073283883661349" x2="0" y2="0" class="delaunay-line"/>
<line x1="0" y1="0" x2="1.867988560145956" y2="3.9131569295963873" class="delaunay-line"/>
<line x1="1.867988560145956" y1="3.9131569295963873" x2="13.459098475614775" y2="0.8073283883661349" class="delaunay-line"/>
<line x1="1.867988560145956" y1="3.9131569295963873" x2="0" y2="0" class="delaunay-line"/>
<line x1="0" y1="0" x2="0.1901357063917426" y2="10.661259309121395" class="delaunay-line"/>
<line x1="0.1901357063917426" y1="10.661259309121395" x2="1.867988560145956" y2="3.9131569295963873" class="delaunay-line"/>
<line x1="0.1901357063917426" y1="10.661259309121395" x2="0" y2="0" class="delaunay-line"/>
<line x1="0" y1="0" x2="0" y2="24" class="delaunay-line"/>
<line x1="0" y1="24" x2="0.1901357063917426" y2="10.661259309121395" class="delaunay-line"/>
</g>
<g id="layer-area" class="layer ">
<polygon points="17.34138415215259,15.29621578270216 5.750274236683771,18.40204432393241 1.867988560145956,3.9131569295963873 13.459098475614775,0.8073283883661349" class="terrain-area"/>
<text x="9.604686356149273" y="9.604686356149275" class="label">#C49A6C</text>
</g>
<g id="layer-building" class="layer ">
<polygon points="5.985690664126153,9.108345038506268 7.020966844536236,12.972048343662543 1.225411886801826,14.524962614277669 0.1901357063917426,10.661259309121395" class="terrain-solid"/>
<text x="3.6055512754639896" y="11.816653826391967" class="label">#000000</text>
</g>
<g id="layer-wall" class="layer ">
<polygon points="18.0699318153702,12.864268651685796 17.586968902225667,12.993678174237056 16.03405463161054,7.198123216502646 16.517017544755074,7.068713693951386" class="terrain-solid"/>
<text x="17.05199322349037" y="10.031195934094221" class="label">#555555</text>
</g>
<g id="layer-tree" class="layer ">
<polygon points="22.25881904510252,15.034074173710932 22.608761429008723,15.206646659708767 22.866025403784437,15.5 22.991444861373807,15.869473807779947 22.96592582628907,16.25881904510252 22.793353340291233,16.608761429008723 22.499999999999996,16.866025403784437 22.130526192220053,16.991444861373807 21.74118095489748,16.96592582628907 21.39123857099128,16.793353340291233 21.13397459621556,16.499999999999996 21.008555138626193,16.130526192220053 21.03407417371093,15.741180954897478 21.206646659708767,15.391238570991277 21.5,15.13397459621556 21.86947380777995,15.00855513862619" class="terrain-solid"/>
<text x="22" y="16" class="label">#90EE90</text>
</g>
<g id="layer-rocks" class="layer ">
</g>
<g id="layer-shrub" class="layer ">
<polygon points="14.25,16.93301270189222 14.103323329854382,16.80438071450436 14.017037086855467,16.629409522551263 14.004277569313095,16.434736903889977 14.066987298107781,16.25 14.19561928549564,16.103323329854383 14.37059047744874,16.017037086855467 14.565263096110025,16.004277569313096 14.75,16.06698729810778 14.896676670145618,16.19561928549564 14.982962913144533,16.370590477448737 14.995722430686905,16.565263096110023 14.933012701892219,16.75 14.80438071450436,16.896676670145617 14.62940952255126,16.982962913144533 14.434736903889975,16.995722430686904" class="terrain-solid"/>
<text x="14.5" y="16.5" class="label">#006400</text>
<polygon points="8.37059047744874,6.982962913144534 8.19561928549564,6.8966766701456175 8.06698729810778,6.75 8.004277569313095,6.5652630961100265 8.017037086855465,6.370590477448739 8.103323329854382,6.1956192854956385 8.25,6.066987298107781 8.434736903889975,6.004277569313095 8.62940952255126,6.017037086855466 8.80438071450436,6.1033233298543825 8.93301270189222,6.25 8.995722430686905,6.4347369038899735 8.982962913144535,6.629409522551261 8.896676670145618,6.8043807145043615 8.75,6.933012701892219 8.565263096110025,6.995722430686905" class="terrain-solid"/>
<text x="8.5" y="6.5" class="label">#006400</text>
</g>
<g id="layer-terrain" class="layer ">
</g>
<g id="layer-models" class="layer ">
</g>
<g id="layer-paths" class="layer ">
</g>
<g id="layer-vectors" class="layer ">
</g>
<g id="layer-los" class="layer ">
</g>
<g id="layer-lof" class="layer ">
</g>

<g id="legend">
<g class="toggle" onclick="toggleLayer('deployment')"><rect x="0.4" y="0.14999999999999997" width="0.4" height="0.4" fill="#222" stroke="#222" stroke-width="0.05"/><text x="1.0" y="0.5499999999999999" class="label">Deployment Zones</text></g>
<g class="toggle" onclick="toggleLayer('grid')"><rect x="0.4" y="0.95" width="0.4" height="0.4" fill="#222" stroke="#222" stroke-width="0.05"/><text x="1.0" y="1.3499999999999999" class="label">0.5 MU Grid</text></g>
<g class="toggle" onclick="toggleLayer('delaunay')"><rect x="0.4" y="1.7500000000000002" width="0.4" height="0.4" fill="#222" stroke="#222" stroke-width="0.05"/><text x="1.0" y="2.1500000000000004" class="label">Delaunay Mesh</text></g>
<g class="toggle" onclick="toggleLayer('area')"><rect x="0.4" y="2.55" width="0.4" height="0.4" fill="#222" stroke="#222" stroke-width="0.05"/><text x="1.0" y="2.95" class="label">Area Terrain</text></g>
<g class="toggle" onclick="toggleLayer('building')"><rect x="0.4" y="3.3499999999999996" width="0.4" height="0.4" fill="#222" stroke="#222" stroke-width="0.05"/><text x="1.0" y="3.75" class="label">Buildings</text></g>
<g class="toggle" onclick="toggleLayer('wall')"><rect x="0.4" y="4.1499999999999995" width="0.4" height="0.4" fill="#222" stroke="#222" stroke-width="0.05"/><text x="1.0" y="4.55" class="label">Walls</text></g>
<g class="toggle" onclick="toggleLayer('tree')"><rect x="0.4" y="4.949999999999999" width="0.4" height="0.4" fill="#222" stroke="#222" stroke-width="0.05"/><text x="1.0" y="5.35" class="label">Trees</text></g>
<g class="toggle disabled"><rect x="0.4" y="5.749999999999999" width="0.4" height="0.4" fill="#222" stroke="#222" stroke-width="0.05"/><text x="1.0" y="6.1499999999999995" class="label">Rocks</text></g>
<g class="toggle" onclick="toggleLayer('shrub')"><rect x="0.4" y="6.549999999999999" width="0.4" height="0.4" fill="#222" stroke="#222" stroke-width="0.05"/><text x="1.0" y="6.949999999999999" class="label">Shrubs</text></g>
<g class="toggle" onclick="toggleLayer('terrain')"><rect x="0.4" y="7.349999999999999" width="0.4" height="0.4" fill="#222" stroke="#222" stroke-width="0.05"/><text x="1.0" y="7.749999999999999" class="label">Other Terrain</text></g>
<g class="toggle" onclick="toggleLayer('models')"><rect x="0.4" y="8.15" width="0.4" height="0.4" fill="#222" stroke="#222" stroke-width="0.05"/><text x="1.0" y="8.549999999999999" class="label">Models</text></g>
<g class="toggle" onclick="toggleLayer('paths')"><rect x="0.4" y="8.950000000000001" width="0.4" height="0.4" fill="#222" stroke="#222" stroke-width="0.05"/><text x="1.0" y="9.35" class="label">Paths</text></g>
<g class="toggle" onclick="toggleLayer('vectors')"><rect x="0.4" y="9.750000000000002" width="0.4" height="0.4" fill="#222" stroke="#222" stroke-width="0.05"/><text x="1.0" y="10.15" class="label">Vectors</text></g>
<g class="toggle" onclick="toggleLayer('los')"><rect x="0.4" y="10.550000000000002" width="0.4" height="0.4" fill="#222" stroke="#222" stroke-width="0.05"/><text x="1.0" y="10.950000000000001" class="label">LOS</text></g>
<g class="toggle" onclick="toggleLayer('lof')"><rect x="0.4" y="11.350000000000003" width="0.4" height="0.4" fill="#222" stroke="#222" stroke-width="0.05"/><text x="1.0" y="11.750000000000002" class="label">LOF</text></g>
</g>
</svg>