<svg xmlns="http://www.w3.org/2000/svg" viewBox="0 0 24 24" width="960" height="960" font-family="Arial" font-size="0.6">
<defs>
  <style><![CDATA[
    .layer { display: inline; }
    .layer.hidden { display: none; }
    .grid-line { stroke: #999; stroke-width: 0.02; opacity: 0.2; }
    .delaunay-line { stroke: #4a6fa5; stroke-width: 0.03; opacity: 0.3; }
    .terrain-area { stroke: #000; stroke-width: 0.05; }
    .terrain-solid { stroke: #000; stroke-width: 0.05; }
    .model { stroke: #000; stroke-width: 0.05; }
    .path { fill: none; stroke-width: 0.12; }
    .vector { stroke-width: 0.1; }
    .los-ray { stroke-width: 0.08; stroke-dasharray: 0.2 0.2; }
    .lof-ray { stroke-width: 0.08; stroke-dasharray: 0.3 0.15; }
    .label { fill: #111; font-size: 0.6px; }
    .toggle { cursor: pointer; }
  ]]></style>
</defs>
<rect x="0" y="0" width="24" height="24" fill="#ffffff" stroke="#111" stroke-width="0.05"/>
<g id="legend">
<g class="toggle" onclick="toggleLayer('grid')"><rect x="0.4" y="0.14999999999999997" width="0.4" height="0.4" fill="#222" stroke="#222" stroke-width="0.05"/><text x="1.0" y="0.5499999999999999" class="label">0.5 MU Grid</text></g>
<g class="toggle" onclick="toggleLayer('delaunay')"><rect x="0.4" y="0.95" width="0.4" height="0.4" fill="#222" stroke="#222" stroke-width="0.05"/><text x="1.0" y="1.3499999999999999" class="label">Delaunay Mesh</text></g>
<g class="toggle" onclick="toggleLayer('area')"><rect x="0.4" y="1.7500000000000002" width="0.4" height="0.4" fill="#222" stroke="#222" stroke-width="0.05"/><text x="1.0" y="2.1500000000000004" class="label">Area Terrain</text></g>
<g class="toggle" onclick="toggleLayer('terrain')"><rect x="0.4" y="2.55" width="0.4" height="0.4" fill="#222" stroke="#222" stroke-width="0.05"/><text x="1.0" y="2.95" class="label">Other Terrain</text></g>
<g class="toggle" onclick="toggleLayer('models')"><rect x="0.4" y="3.3499999999999996" width="0.4" height="0.4" fill="#222" stroke="#222" stroke-width="0.05"/><text x="1.0" y="3.75" class="label">Models</text></g>
<g class="toggle" onclick="toggleLayer('paths')"><rect x="0.4" y="4.1499999999999995" width="0.4" height="0.4" fill="#222" stroke="#222" stroke-width="0.05"/><text x="1.0" y="4.55" class="label">Paths</text></g>
<g class="toggle" onclick="toggleLayer('vectors')"><rect x="0.4" y="4.949999999999999" width="0.4" height="0.4" fill="#222" stroke="#222" stroke-width="0.05"/><text x="1.0" y="5.35" class="label">Vectors</text></g>
<g class="toggle" onclick="toggleLayer('los')"><rect x="0.4" y="5.749999999999999" width="0.4" height="0.4" fill="#222" stroke="#222" stroke-width="0.05"/><text x="1.0" y="6.1499999999999995" class="label">LOS</text></g>
<g class="toggle" onclick="toggleLayer('lof')"><rect x="0.4" y="6.549999999999999" width="0.4" height="0.4" fill="#222" stroke="#222" stroke-width="0.05"/><text x="1.0" y="6.949999999999999" class="label">LOF</text></g>
</g>
<script><![CDATA[
      function toggleLayer(id) {
        var layer = document.getElementById('layer-' + id);
        if (!layer) return;
        if (layer.classList.contains('hidden')) {
          layer.classList.remove('hidden');
        } else {
          layer.classList.add('hidden');
        }
      }
    ]]></script>
<text x="0.4" y="23.6" class="label">Battlefield 24x24 density 50 blockLOS 50</text>
<g id="layer-grid" class="layer ">
<line x1="0" y1="0" x2="0" y2="24" class="grid-line"/>
<line x1="0.5" y1="0" x2="0.5" y2="24" class="grid-line"/>
<line x1="1" y1="0" x2="1" y2="24" class="grid-line"/>
<line x1="1.5" y1="0" x2="1.5" y2="24" class="grid-line"/>
<line x1="2" y1="0" x2="2" y2="24" class="grid-line"/>
<line x1="2.5" y1="0" x2="2.5" y2="24" class="grid-line"/>
<line x1="3" y1="0" x2="3" y2="24" class="grid-line"/>
<line x1="3.5" y1="0" x2="3.5" y2="24" class="grid-line"/>
<line x1="4" y1="0" x2="4" y2="24" class="grid-line"/>
<line x1="4.5" y1="0" x2="4.5" y2="24" class="grid-line"/>
<line x1="5" y1="0" x2="5" y2="24" class="grid-line"/>
<line x1="5.5" y1="0" x2="5.5" y2="24" class="grid-line"/>
<line x1="6" y1="0" x2="6" y2="24" class="grid-line"/>
<line x1="6.5" y1="0" x2="6.5" y2="24" class="grid-line"/>
<line x1="7" y1="0" x2="7" y2="24" class="grid-line"/>
<line x1="7.5" y1="0" x2="7.5" y2="24" class="grid-line"/>
<line x1="8" y1="0" x2="8" y2="24" class="grid-line"/>
<line x1="8.5" y1="0" x2="8.5" y2="24" class="grid-line"/>
<line x1="9" y1="0" x2="9" y2="24" class="grid-line"/>
<line x1="9.5" y1="0" x2="9.5" y2="24" class="grid-line"/>
<line x1="10" y1="0" x2="10" y2="24" class="grid-line"/>
<line x1="10.5" y1="0" x2="10.5" y2="24" class="grid-line"/>
<line x1="11" y1="0" x2="11" y2="24" class="grid-line"/>
<line x1="11.5" y1="0" x2="11.5" y2="24" class="grid-line"/>
<line x1="12" y1="0" x2="12" y2="24" class="grid-line"/>
<line x1="12.5" y1="0" x2="12.5" y2="24" class="grid-line"/>
<line x1="13" y1="0" x2="13" y2="24" class="grid-line"/>
<line x1="13.5" y1="0" x2="13.5" y2="24" class="grid-line"/>
<line x1="14" y1="0" x2="14" y2="24" class="grid-line"/>
<line x1="14.5" y1="0" x2="14.5" y2="24" class="grid-line"/>
<line x1="15" y1="0" x2="15" y2="24" class="grid-line"/>
<line x1="15.5" y1="0" x2="15.5" y2="24" class="grid-line"/>
<line x1="16" y1="0" x2="16" y2="24" class="grid-line"/>
<line x1="16.5" y1="0" x2="16.5" y2="24" class="grid-line"/>
<line x1="17" y1="0" x2="17" y2="24" class="grid-line"/>
<line x1="17.5" y1="0" x2="17.5" y2="24" class="grid-line"/>
<line x1="18" y1="0" x2="18" y2="24" class="grid-line"/>
<line x1="18.5" y1="0" x2="18.5" y2="24" class="grid-line"/>
<line x1="19" y1="0" x2="19" y2="24" class="grid-line"/>
<line x1="19.5" y1="0" x2="19.5" y2="24" class="grid-line"/>
<line x1="20" y1="0" x2="20" y2="24" class="grid-line"/>
<line x1="20.5" y1="0" x2="20.5" y2="24" class="grid-line"/>
<line x1="21" y1="0" x2="21" y2="24" class="grid-line"/>
<line x1="21.5" y1="0" x2="21.5" y2="24" class="grid-line"/>
<line x1="22" y1="0" x2="22" y2="24" class="grid-line"/>
<line x1="22.5" y1="0" x2="22.5" y2="24" class="grid-line"/>
<line x1="23" y1="0" x2="23" y2="24" class="grid-line"/>
<line x1="23.5" y1="0" x2="23.5" y2="24" class="grid-line"/>
<line x1="24" y1="0" x2="24" y2="24" class="grid-line"/>
<line x1="0" y1="0" x2="24" y2="0" class="grid-line"/>
<line x1="0" y1="0.5" x2="24" y2="0.5" class="grid-line"/>
<line x1="0" y1="1" x2="24" y2="1" class="grid-line"/>
<line x1="0" y1="1.5" x2="24" y2="1.5" class="grid-line"/>
<line x1="0" y1="2" x2="24" y2="2" class="grid-line"/>
<line x1="0" y1="2.5" x2="24" y2="2.5" class="grid-line"/>
<line x1="0" y1="3" x2="24" y2="3" class="grid-line"/>
<line x1="0" y1="3.5" x2="24" y2="3.5" class="grid-line"/>
<line x1="0" y1="4" x2="24" y2="4" class="grid-line"/>
<line x1="0" y1="4.5" x2="24" y2="4.5" class="grid-line"/>
<line x1="0" y1="5" x2="24" y2="5" class="grid-line"/>
<line x1="0" y1="5.5" x2="24" y2="5.5" class="grid-line"/>
<line x1="0" y1="6" x2="24" y2="6" class="grid-line"/>
<line x1="0" y1="6.5" x2="24" y2="6.5" class="grid-line"/>
<line x1="0" y1="7" x2="24" y2="7" class="grid-line"/>
<line x1="0" y1="7.5" x2="24" y2="7.5" class="grid-line"/>
<line x1="0" y1="8" x2="24" y2="8" class="grid-line"/>
<line x1="0" y1="8.5" x2="24" y2="8.5" class="grid-line"/>
<line x1="0" y1="9" x2="24" y2="9" class="grid-line"/>
<line x1="0" y1="9.5" x2="24" y2="9.5" class="grid-line"/>
<line x1="0" y1="10" x2="24" y2="10" class="grid-line"/>
<line x1="0" y1="10.5" x2="24" y2="10.5" class="grid-line"/>
<line x1="0" y1="11" x2="24" y2="11" class="grid-line"/>
<line x1="0" y1="11.5" x2="24" y2="11.5" class="grid-line"/>
<line x1="0" y1="12" x2="24" y2="12" class="grid-line"/>
<line x1="0" y1="12.5" x2="24" y2="12.5" class="grid-line"/>
<line x1="0" y1="13" x2="24" y2="13" class="grid-line"/>
<line x1="0" y1="13.5" x2="24" y2="13.5" class="grid-line"/>
<line x1="0" y1="14" x2="24" y2="14" class="grid-line"/>
<line x1="0" y1="14.5" x2="24" y2="14.5" class="grid-line"/>
<line x1="0" y1="15" x2="24" y2="15" class="grid-line"/>
<line x1="0" y1="15.5" x2="24" y2="15.5" class="grid-line"/>
<line x1="0" y1="16" x2="24" y2="16" class="grid-line"/>
<line x1="0" y1="16.5" x2="24" y2="16.5" class="grid-line"/>
<line x1="0" y1="17" x2="24" y2="17" class="grid-line"/>
<line x1="0" y1="17.5" x2="24" y2="17.5" class="grid-line"/>
<line x1="0" y1="18" x2="24" y2="18" class="grid-line"/>
<line x1="0" y1="18.5" x2="24" y2="18.5" class="grid-line"/>
<line x1="0" y1="19" x2="24" y2="19" class="grid-line"/>
<line x1="0" y1="19.5" x2="24" y2="19.5" class="grid-line"/>
<line x1="0" y1="20" x2="24" y2="20" class="grid-line"/>
<line x1="0" y1="20.5" x2="24" y2="20.5" class="grid-line"/>
<line x1="0" y1="21" x2="24" y2="21" class="grid-line"/>
<line x1="0" y1="21.5" x2="24" y2="21.5" class="grid-line"/>
<line x1="0" y1="22" x2="24" y2="22" class="grid-line"/>
<line x1="0" y1="22.5" x2="24" y2="22.5" class="grid-line"/>
<line x1="0" y1="23" x2="24" y2="23" class="grid-line"/>
<line x1="0" y1="23.5" x2="24" y2="23.5" class="grid-line"/>
<line x1="0" y1="24" x2="24" y2="24" class="grid-line"/>
</g>
<g id="layer-delaunay" class="layer ">
<line x1="10.9897516367206" y1="10.735631066465938" x2="11.118383624108459" y2="10.58895439632032" class="delaunay-line"/>
<line x1="11.118383624108459" y1="10.58895439632032" x2="10.8147804447675" y2="10.821917309464853" class="delaunay-line"/>
<line x1="10.8147804447675" y1="10.821917309464853" x2="10.9897516367206" y2="10.735631066465938" class="delaunay-line"/>
<line x1="11.118383624108459" y1="10.58895439632032" x2="11.168333835360773" y2="10.20954487376906" class="delaunay-line"/>
<line x1="11.168333835360773" y1="10.20954487376906" x2="10.8147804447675" y2="10.821917309464853" class="delaunay-line"/>
<line x1="10.8147804447675" y1="10.821917309464853" x2="11.118383624108459" y2="10.58895439632032" class="delaunay-line"/>
<line x1="10.43537092221624" y1="10.771967098212539" x2="10.620107826106215" y2="10.834676827007225" class="delaunay-line"/>
<line x1="10.620107826106215" y1="10.834676827007225" x2="10.8147804447675" y2="10.821917309464853" class="delaunay-line"/>
<line x1="10.8147804447675" y1="10.821917309464853" x2="10.43537092221624" y2="10.771967098212539" class="delaunay-line"/>
<line x1="11.181093352903146" y1="10.404217492430345" x2="11.168333835360773" y2="10.20954487376906" class="delaunay-line"/>
<line x1="11.168333835360773" y1="10.20954487376906" x2="11.118383624108459" y2="10.58895439632032" class="delaunay-line"/>
<line x1="11.118383624108459" y1="10.58895439632032" x2="11.181093352903146" y2="10.404217492430345" class="delaunay-line"/>
<line x1="10.202408009071707" y1="10.46836391887158" x2="10.43537092221624" y2="10.771967098212539" class="delaunay-line"/>
<line x1="10.43537092221624" y1="10.771967098212539" x2="10.8147804447675" y2="10.821917309464853" class="delaunay-line"/>
<line x1="10.8147804447675" y1="10.821917309464853" x2="10.202408009071707" y2="10.46836391887158" class="delaunay-line"/>
<line x1="10.202408009071707" y1="10.46836391887158" x2="10.288694252070622" y2="10.64333511082468" class="delaunay-line"/>
<line x1="10.288694252070622" y1="10.64333511082468" x2="10.43537092221624" y2="10.771967098212539" class="delaunay-line"/>
<line x1="10.43537092221624" y1="10.771967098212539" x2="10.202408009071707" y2="10.46836391887158" class="delaunay-line"/>
<line x1="10.202408009071707" y1="10.46836391887158" x2="10.8147804447675" y2="10.821917309464853" class="delaunay-line"/>
<line x1="10.8147804447675" y1="10.821917309464853" x2="11.168333835360773" y2="10.20954487376906" class="delaunay-line"/>
<line x1="11.168333835360773" y1="10.20954487376906" x2="10.202408009071707" y2="10.46836391887158" class="delaunay-line"/>
<line x1="11.082047592361858" y1="10.03457368181596" x2="10.93537092221624" y2="9.905941694428101" class="delaunay-line"/>
<line x1="10.93537092221624" y1="9.905941694428101" x2="11.168333835360773" y2="10.20954487376906" class="delaunay-line"/>
<line x1="11.168333835360773" y1="10.20954487376906" x2="11.082047592361858" y2="10.03457368181596" class="delaunay-line"/>
<line x1="10.55596139966498" y1="9.855991483175787" x2="10.202408009071707" y2="10.46836391887158" class="delaunay-line"/>
<line x1="10.202408009071707" y1="10.46836391887158" x2="11.168333835360773" y2="10.20954487376906" class="delaunay-line"/>
<line x1="11.168333835360773" y1="10.20954487376906" x2="10.55596139966498" y2="9.855991483175787" class="delaunay-line"/>
<line x1="10.93537092221624" y1="9.905941694428101" x2="10.55596139966498" y2="9.855991483175787" class="delaunay-line"/>
<line x1="10.55596139966498" y1="9.855991483175787" x2="11.168333835360773" y2="10.20954487376906" class="delaunay-line"/>
<line x1="11.168333835360773" y1="10.20954487376906" x2="10.93537092221624" y2="9.905941694428101" class="delaunay-line"/>
<line x1="10.252358220324021" y1="10.08895439632032" x2="10.189648491529335" y2="10.273691300210295" class="delaunay-line"/>
<line x1="10.189648491529335" y1="10.273691300210295" x2="10.202408009071707" y2="10.46836391887158" class="delaunay-line"/>
<line x1="10.202408009071707" y1="10.46836391887158" x2="10.252358220324021" y2="10.08895439632032" class="delaunay-line"/>
<line x1="10.750634018326265" y1="9.843231965633414" x2="10.55596139966498" y2="9.855991483175787" class="delaunay-line"/>
<line x1="10.55596139966498" y1="9.855991483175787" x2="10.93537092221624" y2="9.905941694428101" class="delaunay-line"/>
<line x1="10.93537092221624" y1="9.905941694428101" x2="10.750634018326265" y2="9.843231965633414" class="delaunay-line"/>
<line x1="10.55596139966498" y1="9.855991483175787" x2="10.252358220324021" y2="10.08895439632032" class="delaunay-line"/>
<line x1="10.252358220324021" y1="10.08895439632032" x2="10.202408009071707" y2="10.46836391887158" class="delaunay-line"/>
<line x1="10.202408009071707" y1="10.46836391887158" x2="10.55596139966498" y2="9.855991483175787" class="delaunay-line"/>
<line x1="10.55596139966498" y1="9.855991483175787" x2="10.38099020771188" y2="9.942277726174702" class="delaunay-line"/>
<line x1="10.38099020771188" y1="9.942277726174702" x2="10.252358220324021" y2="10.08895439632032" class="delaunay-line"/>
<line x1="10.252358220324021" y1="10.08895439632032" x2="10.55596139966498" y2="9.855991483175787" class="delaunay-line"/>
<line x1="11.181093352903146" y1="10.404217492430345" x2="19.892052614511275" y2="11.52698812662939" class="delaunay-line"/>
<line x1="19.892052614511275" y1="11.52698812662939" x2="11.168333835360773" y2="10.20954487376906" class="delaunay-line"/>
<line x1="11.168333835360773" y1="10.20954487376906" x2="11.181093352903146" y2="10.404217492430345" class="delaunay-line"/>
<line x1="11.168333835360773" y1="10.20954487376906" x2="19.954762343305962" y2="11.342251222739415" class="delaunay-line"/>
<line x1="19.954762343305962" y1="11.342251222739415" x2="11.082047592361858" y2="10.03457368181596" class="delaunay-line"/>
<line x1="11.082047592361858" y1="10.03457368181596" x2="11.168333835360773" y2="10.20954487376906" class="delaunay-line"/>
<line x1="11.082047592361858" y1="10.03457368181596" x2="20.083394330693825" y2="11.195574552593797" class="delaunay-line"/>
<line x1="20.083394330693825" y1="11.195574552593797" x2="10.93537092221624" y2="9.905941694428101" class="delaunay-line"/>
<line x1="10.93537092221624" y1="9.905941694428101" x2="11.082047592361858" y2="10.03457368181596" class="delaunay-line"/>
<line x1="24" y1="0" x2="0" y2="0" class="delaunay-line"/>
<line x1="0" y1="0" x2="10.750634018326265" y2="9.843231965633414" class="delaunay-line"/>
<line x1="10.750634018326265" y1="9.843231965633414" x2="24" y2="0" class="delaunay-line"/>
<line x1="19.904812132053646" y1="11.721660745290675" x2="19.892052614511275" y2="11.52698812662939" class="delaunay-line"/>
<line x1="19.892052614511275" y1="11.52698812662939" x2="11.181093352903146" y2="10.404217492430345" class="delaunay-line"/>
<line x1="11.181093352903146" y1="10.404217492430345" x2="19.904812132053646" y2="11.721660745290675" class="delaunay-line"/>
<line x1="19.904812132053646" y1="11.721660745290675" x2="11.181093352903146" y2="10.404217492430345" class="delaunay-line"/>
<line x1="11.181093352903146" y1="10.404217492430345" x2="11.118383624108459" y2="10.58895439632032" class="delaunay-line"/>
<line x1="11.118383624108459" y1="10.58895439632032" x2="19.904812132053646" y2="11.721660745290675" class="delaunay-line"/>
<line x1="19.904812132053646" y1="11.721660745290675" x2="18.88497154095886" y2="15.595210095658944" class="delaunay-line"/>
<line x1="18.88497154095886" y1="15.595210095658944" x2="19.991098375052562" y2="11.896631937243775" class="delaunay-line"/>
<line x1="19.991098375052562" y1="11.896631937243775" x2="19.904812132053646" y2="11.721660745290675" class="delaunay-line"/>
<line x1="11.118383624108459" y1="10.58895439632032" x2="18.72275986654813" y2="15.703596471321315" class="delaunay-line"/>
<line x1="18.72275986654813" y1="15.703596471321315" x2="19.904812132053646" y2="11.721660745290675" class="delaunay-line"/>
<line x1="19.904812132053646" y1="11.721660745290675" x2="11.118383624108459" y2="10.58895439632032" class="delaunay-line"/>
<line x1="19.991098375052562" y1="11.896631937243775" x2="19.076313257141404" y2="15.557149861914588" class="delaunay-line"/>
<line x1="19.076313257141404" y1="15.557149861914588" x2="20.137775045198183" y2="12.025263924631634" class="delaunay-line"/>
<line x1="20.137775045198183" y1="12.025263924631634" x2="19.991098375052562" y2="11.896631937243775" class="delaunay-line"/>
<line x1="20.083394330693825" y1="11.195574552593797" x2="19.954762343305962" y2="11.342251222739415" class="delaunay-line"/>
<line x1="19.954762343305962" y1="11.342251222739415" x2="19.892052614511275" y2="11.52698812662939" class="delaunay-line"/>
<line x1="19.892052614511275" y1="11.52698812662939" x2="20.083394330693825" y2="11.195574552593797" class="delaunay-line"/>
<line x1="19.892052614511275" y1="11.52698812662939" x2="19.954762343305962" y2="11.342251222739415" class="delaunay-line"/>
<line x1="19.954762343305962" y1="11.342251222739415" x2="11.168333835360773" y2="10.20954487376906" class="delaunay-line"/>
<line x1="11.168333835360773" y1="10.20954487376906" x2="19.892052614511275" y2="11.52698812662939" class="delaunay-line"/>
<line x1="11.118383624108459" y1="10.58895439632032" x2="18.61437349088576" y2="15.865808145732045" class="delaunay-line"/>
<line x1="18.61437349088576" y1="15.865808145732045" x2="18.72275986654813" y2="15.703596471321315" class="delaunay-line"/>
<line x1="18.72275986654813" y1="15.703596471321315" x2="11.118383624108459" y2="10.58895439632032" class="delaunay-line"/>
<line x1="19.904812132053646" y1="11.721660745290675" x2="20.137775045198183" y2="12.025263924631634" class="delaunay-line"/>
<line x1="20.137775045198183" y1="12.025263924631634" x2="19.892052614511275" y2="11.52698812662939" class="delaunay-line"/>
<line x1="19.892052614511275" y1="11.52698812662939" x2="19.904812132053646" y2="11.721660745290675" class="delaunay-line"/>
<line x1="20.137775045198183" y1="12.025263924631634" x2="20.083394330693825" y2="11.195574552593797" class="delaunay-line"/>
<line x1="20.083394330693825" y1="11.195574552593797" x2="19.892052614511275" y2="11.52698812662939" class="delaunay-line"/>
<line x1="19.892052614511275" y1="11.52698812662939" x2="20.137775045198183" y2="12.025263924631634" class="delaunay-line"/>
<line x1="19.954762343305962" y1="11.342251222739415" x2="20.083394330693825" y2="11.195574552593797" class="delaunay-line"/>
<line x1="20.083394330693825" y1="11.195574552593797" x2="11.082047592361858" y2="10.03457368181596" class="delaunay-line"/>
<line x1="11.082047592361858" y1="10.03457368181596" x2="19.954762343305962" y2="11.342251222739415" class="delaunay-line"/>
<line x1="11.118383624108459" y1="10.58895439632032" x2="10.9897516367206" y2="10.735631066465938" class="delaunay-line"/>
<line x1="10.9897516367206" y1="10.735631066465938" x2="18.61437349088576" y2="15.865808145732045" class="delaunay-line"/>
<line x1="18.61437349088576" y1="15.865808145732045" x2="11.118383624108459" y2="10.58895439632032" class="delaunay-line"/>
<line x1="19.991098375052562" y1="11.896631937243775" x2="20.137775045198183" y2="12.025263924631634" class="delaunay-line"/>
<line x1="20.137775045198183" y1="12.025263924631634" x2="19.904812132053646" y2="11.721660745290675" class="delaunay-line"/>
<line x1="19.904812132053646" y1="11.721660745290675" x2="19.991098375052562" y2="11.896631937243775" class="delaunay-line"/>
<line x1="20.137775045198183" y1="12.025263924631634" x2="20.258365522646923" y2="11.109288309594882" class="delaunay-line"/>
<line x1="20.258365522646923" y1="11.109288309594882" x2="20.083394330693825" y2="11.195574552593797" class="delaunay-line"/>
<line x1="20.083394330693825" y1="11.195574552593797" x2="20.137775045198183" y2="12.025263924631634" class="delaunay-line"/>
<line x1="20.083394330693825" y1="11.195574552593797" x2="20.258365522646923" y2="11.109288309594882" class="delaunay-line"/>
<line x1="20.258365522646923" y1="11.109288309594882" x2="10.93537092221624" y2="9.905941694428101" class="delaunay-line"/>
<line x1="10.93537092221624" y1="9.905941694428101" x2="20.083394330693825" y2="11.195574552593797" class="delaunay-line"/>
<line x1="10.9897516367206" y1="10.735631066465938" x2="10.8147804447675" y2="10.821917309464853" class="delaunay-line"/>
<line x1="10.8147804447675" y1="10.821917309464853" x2="18.576313257141404" y2="16.05714986191459" class="delaunay-line"/>
<line x1="18.576313257141404" y1="16.05714986191459" x2="10.9897516367206" y2="10.735631066465938" class="delaunay-line"/>
<line x1="18.61437349088576" y1="15.865808145732045" x2="10.9897516367206" y2="10.735631066465938" class="delaunay-line"/>
<line x1="10.9897516367206" y1="10.735631066465938" x2="18.576313257141404" y2="16.05714986191459" class="delaunay-line"/>
<line x1="18.576313257141404" y1="16.05714986191459" x2="18.61437349088576" y2="15.865808145732045" class="delaunay-line"/>
<line x1="18.576313257141404" y1="16.05714986191459" x2="10.8147804447675" y2="10.821917309464853" class="delaunay-line"/>
<line x1="10.8147804447675" y1="10.821917309464853" x2="18.61437349088576" y2="16.24849157809713" class="delaunay-line"/>
<line x1="18.61437349088576" y1="16.24849157809713" x2="18.576313257141404" y2="16.05714986191459" class="delaunay-line"/>
<line x1="19.076313257141404" y1="15.557149861914588" x2="18.88497154095886" y2="15.595210095658944" class="delaunay-line"/>
<line x1="18.88497154095886" y1="15.595210095658944" x2="18.72275986654813" y2="15.703596471321315" class="delaunay-line"/>
<line x1="18.72275986654813" y1="15.703596471321315" x2="19.076313257141404" y2="15.557149861914588" class="delaunay-line"/>
<line x1="18.72275986654813" y1="15.703596471321315" x2="18.88497154095886" y2="15.595210095658944" class="delaunay-line"/>
<line x1="18.88497154095886" y1="15.595210095658944" x2="19.904812132053646" y2="11.721660745290675" class="delaunay-line"/>
<line x1="19.904812132053646" y1="11.721660745290675" x2="18.72275986654813" y2="15.703596471321315" class="delaunay-line"/>
<line x1="18.61437349088576" y1="16.24849157809713" x2="10.8147804447675" y2="10.821917309464853" class="delaunay-line"/>
<line x1="10.8147804447675" y1="10.821917309464853" x2="10.620107826106215" y2="10.834676827007225" class="delaunay-line"/>
<line x1="10.620107826106215" y1="10.834676827007225" x2="18.61437349088576" y2="16.24849157809713" class="delaunay-line"/>
<line x1="18.61437349088576" y1="15.865808145732045" x2="18.61437349088576" y2="16.24849157809713" class="delaunay-line"/>
<line x1="18.61437349088576" y1="16.24849157809713" x2="18.72275986654813" y2="15.703596471321315" class="delaunay-line"/>
<line x1="18.72275986654813" y1="15.703596471321315" x2="18.61437349088576" y2="15.865808145732045" class="delaunay-line"/>
<line x1="19.26765497332395" y1="15.595210095658944" x2="20.322511949088156" y2="12.087973653426321" class="delaunay-line"/>
<line x1="20.322511949088156" y1="12.087973653426321" x2="20.137775045198183" y2="12.025263924631634" class="delaunay-line"/>
<line x1="20.137775045198183" y1="12.025263924631634" x2="19.26765497332395" y2="15.595210095658944" class="delaunay-line"/>
<line x1="20.137775045198183" y1="12.025263924631634" x2="20.517184567749442" y2="12.075214135883948" class="delaunay-line"/>
<line x1="20.517184567749442" y1="12.075214135883948" x2="20.258365522646923" y2="11.109288309594882" class="delaunay-line"/>
<line x1="20.258365522646923" y1="11.109288309594882" x2="20.137775045198183" y2="12.025263924631634" class="delaunay-line"/>
<line x1="20.637775045198183" y1="11.159238520847197" x2="20.45303814130821" y2="11.09652879205251" class="delaunay-line"/>
<line x1="20.45303814130821" y1="11.09652879205251" x2="20.258365522646923" y2="11.109288309594882" class="delaunay-line"/>
<line x1="20.258365522646923" y1="11.109288309594882" x2="20.637775045198183" y2="11.159238520847197" class="delaunay-line"/>
<line x1="24" y1="0" x2="10.750634018326265" y2="9.843231965633414" class="delaunay-line"/>
<line x1="10.750634018326265" y1="9.843231965633414" x2="10.93537092221624" y2="9.905941694428101" class="delaunay-line"/>
<line x1="10.93537092221624" y1="9.905941694428101" x2="24" y2="0" class="delaunay-line"/>
<line x1="19.429866647734677" y1="15.703596471321315" x2="19.076313257141404" y2="15.557149861914588" class="delaunay-line"/>
<line x1="19.076313257141404" y1="15.557149861914588" x2="18.72275986654813" y2="15.703596471321315" class="delaunay-line"/>
<line x1="18.72275986654813" y1="15.703596471321315" x2="19.429866647734677" y2="15.703596471321315" class="delaunay-line"/>
<line x1="18.88497154095886" y1="15.595210095658944" x2="19.076313257141404" y2="15.557149861914588" class="delaunay-line"/>
<line x1="19.076313257141404" y1="15.557149861914588" x2="19.991098375052562" y2="11.896631937243775" class="delaunay-line"/>
<line x1="19.991098375052562" y1="11.896631937243775" x2="18.88497154095886" y2="15.595210095658944" class="delaunay-line"/>
<line x1="20.490497079569977" y1="22.15747962428405" x2="20.576783322568893" y2="21.982508432330953" class="delaunay-line"/>
<line x1="20.576783322568893" y1="21.982508432330953" x2="18.88497154095886" y2="16.51908962817023" class="delaunay-line"/>
<line x1="18.88497154095886" y1="16.51908962817023" x2="20.490497079569977" y2="22.15747962428405" class="delaunay-line"/>
<line x1="18.576313257141404" y1="16.05714986191459" x2="18.61437349088576" y2="16.24849157809713" class="delaunay-line"/>
<line x1="18.61437349088576" y1="16.24849157809713" x2="18.61437349088576" y2="15.865808145732045" class="delaunay-line"/>
<line x1="18.61437349088576" y1="15.865808145732045" x2="18.576313257141404" y2="16.05714986191459" class="delaunay-line"/>
<line x1="19.429866647734677" y1="15.703596471321315" x2="20.517184567749442" y2="12.075214135883948" class="delaunay-line"/>
<line x1="20.517184567749442" y1="12.075214135883948" x2="20.322511949088156" y2="12.087973653426321" class="delaunay-line"/>
<line x1="20.322511949088156" y1="12.087973653426321" x2="19.429866647734677" y2="15.703596471321315" class="delaunay-line"/>
<line x1="20.322511949088156" y1="12.087973653426321" x2="20.517184567749442" y2="12.075214135883948" class="delaunay-line"/>
<line x1="20.517184567749442" y1="12.075214135883948" x2="20.137775045198183" y2="12.025263924631634" class="delaunay-line"/>
<line x1="20.137775045198183" y1="12.025263924631634" x2="20.322511949088156" y2="12.087973653426321" class="delaunay-line"/>
<line x1="20.69215575970254" y1="11.988927892885034" x2="20.637775045198183" y2="11.159238520847197" class="delaunay-line"/>
<line x1="20.637775045198183" y1="11.159238520847197" x2="20.258365522646923" y2="11.109288309594882" class="delaunay-line"/>
<line x1="20.258365522646923" y1="11.109288309594882" x2="20.69215575970254" y2="11.988927892885034" class="delaunay-line"/>
<line x1="19.429866647734677" y1="15.703596471321315" x2="19.26765497332395" y2="15.595210095658944" class="delaunay-line"/>
<line x1="19.26765497332395" y1="15.595210095658944" x2="19.076313257141404" y2="15.557149861914588" class="delaunay-line"/>
<line x1="19.076313257141404" y1="15.557149861914588" x2="19.429866647734677" y2="15.703596471321315" class="delaunay-line"/>
<line x1="19.076313257141404" y1="15.557149861914588" x2="19.26765497332395" y2="15.595210095658944" class="delaunay-line"/>
<line x1="19.26765497332395" y1="15.595210095658944" x2="20.137775045198183" y2="12.025263924631634" class="delaunay-line"/>
<line x1="20.137775045198183" y1="12.025263924631634" x2="19.076313257141404" y2="15.557149861914588" class="delaunay-line"/>
<line x1="18.72275986654813" y1="16.41070325250786" x2="20.490497079569977" y2="22.15747962428405" class="delaunay-line"/>
<line x1="20.490497079569977" y1="22.15747962428405" x2="18.88497154095886" y2="16.51908962817023" class="delaunay-line"/>
<line x1="18.88497154095886" y1="16.51908962817023" x2="18.72275986654813" y2="16.41070325250786" class="delaunay-line"/>
<line x1="18.61437349088576" y1="16.24849157809713" x2="19.429866647734677" y2="15.703596471321315" class="delaunay-line"/>
<line x1="19.429866647734677" y1="15.703596471321315" x2="18.72275986654813" y2="15.703596471321315" class="delaunay-line"/>
<line x1="18.72275986654813" y1="15.703596471321315" x2="18.61437349088576" y2="16.24849157809713" class="delaunay-line"/>
<line x1="19.538253023397047" y1="15.865808145732043" x2="20.69215575970254" y2="11.988927892885034" class="delaunay-line"/>
<line x1="20.69215575970254" y1="11.988927892885034" x2="20.517184567749442" y2="12.075214135883948" class="delaunay-line"/>
<line x1="20.517184567749442" y1="12.075214135883948" x2="19.538253023397047" y2="15.865808145732043" class="delaunay-line"/>
<line x1="20.517184567749442" y1="12.075214135883948" x2="20.69215575970254" y2="11.988927892885034" class="delaunay-line"/>
<line x1="20.69215575970254" y1="11.988927892885034" x2="20.258365522646923" y2="11.109288309594882" class="delaunay-line"/>
<line x1="20.258365522646923" y1="11.109288309594882" x2="20.517184567749442" y2="12.075214135883948" class="delaunay-line"/>
<line x1="20.87073795834272" y1="11.462841700188156" x2="20.784451715343803" y2="11.287870508235056" class="delaunay-line"/>
<line x1="20.784451715343803" y1="11.287870508235056" x2="20.637775045198183" y2="11.159238520847197" class="delaunay-line"/>
<line x1="20.637775045198183" y1="11.159238520847197" x2="20.87073795834272" y2="11.462841700188156" class="delaunay-line"/>
<line x1="19.576313257141404" y1="16.05714986191459" x2="20.820787747090403" y2="11.842251222739415" class="delaunay-line"/>
<line x1="20.820787747090403" y1="11.842251222739415" x2="20.69215575970254" y2="11.988927892885034" class="delaunay-line"/>
<line x1="20.69215575970254" y1="11.988927892885034" x2="19.576313257141404" y2="16.05714986191459" class="delaunay-line"/>
<line x1="20.69215575970254" y1="11.988927892885034" x2="20.88349747588509" y2="11.65751431884944" class="delaunay-line"/>
<line x1="20.88349747588509" y1="11.65751431884944" x2="20.637775045198183" y2="11.159238520847197" class="delaunay-line"/>
<line x1="20.637775045198183" y1="11.159238520847197" x2="20.69215575970254" y2="11.988927892885034" class="delaunay-line"/>
<line x1="20.88349747588509" y1="11.65751431884944" x2="20.87073795834272" y2="11.462841700188156" class="delaunay-line"/>
<line x1="20.87073795834272" y1="11.462841700188156" x2="20.637775045198183" y2="11.159238520847197" class="delaunay-line"/>
<line x1="20.637775045198183" y1="11.159238520847197" x2="20.88349747588509" y2="11.65751431884944" class="delaunay-line"/>
<line x1="19.429866647734677" y1="16.41070325250786" x2="19.429866647734677" y2="15.703596471321315" class="delaunay-line"/>
<line x1="19.429866647734677" y1="15.703596471321315" x2="18.61437349088576" y2="16.24849157809713" class="delaunay-line"/>
<line x1="18.61437349088576" y1="16.24849157809713" x2="19.429866647734677" y2="16.41070325250786" class="delaunay-line"/>
<line x1="19.26765497332395" y1="15.595210095658944" x2="19.429866647734677" y2="15.703596471321315" class="delaunay-line"/>
<line x1="19.429866647734677" y1="15.703596471321315" x2="20.322511949088156" y2="12.087973653426321" class="delaunay-line"/>
<line x1="20.322511949088156" y1="12.087973653426321" x2="19.26765497332395" y2="15.595210095658944" class="delaunay-line"/>
<line x1="19.576313257141404" y1="16.05714986191459" x2="19.538253023397047" y2="15.865808145732043" class="delaunay-line"/>
<line x1="19.538253023397047" y1="15.865808145732043" x2="19.429866647734677" y2="15.703596471321315" class="delaunay-line"/>
<line x1="19.429866647734677" y1="15.703596471321315" x2="19.576313257141404" y2="16.05714986191459" class="delaunay-line"/>
<line x1="20.820787747090403" y1="11.842251222739415" x2="20.88349747588509" y2="11.65751431884944" class="delaunay-line"/>
<line x1="20.88349747588509" y1="11.65751431884944" x2="20.69215575970254" y2="11.988927892885034" class="delaunay-line"/>
<line x1="20.69215575970254" y1="11.988927892885034" x2="20.820787747090403" y2="11.842251222739415" class="delaunay-line"/>
<line x1="19.429866647734677" y1="16.41070325250786" x2="18.61437349088576" y2="16.24849157809713" class="delaunay-line"/>
<line x1="18.61437349088576" y1="16.24849157809713" x2="18.72275986654813" y2="16.41070325250786" class="delaunay-line"/>
<line x1="18.72275986654813" y1="16.41070325250786" x2="19.429866647734677" y2="16.41070325250786" class="delaunay-line"/>
<line x1="19.429866647734677" y1="15.703596471321315" x2="19.538253023397047" y2="15.865808145732043" class="delaunay-line"/>
<line x1="19.538253023397047" y1="15.865808145732043" x2="20.517184567749442" y2="12.075214135883948" class="delaunay-line"/>
<line x1="20.517184567749442" y1="12.075214135883948" x2="19.429866647734677" y2="15.703596471321315" class="delaunay-line"/>
<line x1="20.820787747090403" y1="11.842251222739415" x2="24" y2="24" class="delaunay-line"/>
<line x1="24" y1="24" x2="20.88349747588509" y2="11.65751431884944" class="delaunay-line"/>
<line x1="20.88349747588509" y1="11.65751431884944" x2="20.820787747090403" y2="11.842251222739415" class="delaunay-line"/>
<line x1="18.88497154095886" y1="16.51908962817023" x2="19.076313257141404" y2="16.55714986191459" class="delaunay-line"/>
<line x1="19.076313257141404" y1="16.55714986191459" x2="18.72275986654813" y2="16.41070325250786" class="delaunay-line"/>
<line x1="18.72275986654813" y1="16.41070325250786" x2="18.88497154095886" y2="16.51908962817023" class="delaunay-line"/>
<line x1="19.538253023397047" y1="16.248491578097134" x2="19.576313257141404" y2="16.05714986191459" class="delaunay-line"/>
<line x1="19.576313257141404" y1="16.05714986191459" x2="19.429866647734677" y2="16.41070325250786" class="delaunay-line"/>
<line x1="19.429866647734677" y1="16.41070325250786" x2="19.538253023397047" y2="16.248491578097134" class="delaunay-line"/>
<line x1="19.538253023397047" y1="15.865808145732043" x2="19.576313257141404" y2="16.05714986191459" class="delaunay-line"/>
<line x1="19.576313257141404" y1="16.05714986191459" x2="20.69215575970254" y2="11.988927892885034" class="delaunay-line"/>
<line x1="20.69215575970254" y1="11.988927892885034" x2="19.538253023397047" y2="15.865808145732043" class="delaunay-line"/>
<line x1="19.076313257141404" y1="16.55714986191459" x2="19.429866647734677" y2="16.41070325250786" class="delaunay-line"/>
<line x1="19.429866647734677" y1="16.41070325250786" x2="18.72275986654813" y2="16.41070325250786" class="delaunay-line"/>
<line x1="18.72275986654813" y1="16.41070325250786" x2="19.076313257141404" y2="16.55714986191459" class="delaunay-line"/>
<line x1="19.429866647734677" y1="16.41070325250786" x2="19.576313257141404" y2="16.05714986191459" class="delaunay-line"/>
<line x1="19.576313257141404" y1="16.05714986191459" x2="19.429866647734677" y2="15.703596471321315" class="delaunay-line"/>
<line x1="19.429866647734677" y1="15.703596471321315" x2="19.429866647734677" y2="16.41070325250786" class="delaunay-line"/>
<line x1="19.576313257141404" y1="16.05714986191459" x2="24" y2="24" class="delaunay-line"/>
<line x1="24" y1="24" x2="20.820787747090403" y2="11.842251222739415" class="delaunay-line"/>
<line x1="20.820787747090403" y1="11.842251222739415" x2="19.576313257141404" y2="16.05714986191459" class="delaunay-line"/>
<line x1="19.26765497332395" y1="16.51908962817023" x2="19.429866647734677" y2="16.41070325250786" class="delaunay-line"/>
<line x1="19.429866647734677" y1="16.41070325250786" x2="19.076313257141404" y2="16.55714986191459" class="delaunay-line"/>
<line x1="19.076313257141404" y1="16.55714986191459" x2="19.26765497332395" y2="16.51908962817023" class="delaunay-line"/>
<line x1="10.750634018326265" y1="9.843231965633414" x2="0" y2="0" class="delaunay-line"/>
<line x1="0" y1="0" x2="10.55596139966498" y2="9.855991483175787" class="delaunay-line"/>
<line x1="10.55596139966498" y1="9.855991483175787" x2="10.750634018326265" y2="9.843231965633414" class="delaunay-line"/>
<line x1="10.55596139966498" y1="9.855991483175787" x2="0" y2="0" class="delaunay-line"/>
<line x1="0" y1="0" x2="10.38099020771188" y2="9.942277726174702" class="delaunay-line"/>
<line x1="10.38099020771188" y1="9.942277726174702" x2="10.55596139966498" y2="9.855991483175787" class="delaunay-line"/>
<line x1="10.38099020771188" y1="9.942277726174702" x2="0" y2="0" class="delaunay-line"/>
<line x1="0" y1="0" x2="10.252358220324021" y2="10.08895439632032" class="delaunay-line"/>
<line x1="10.252358220324021" y1="10.08895439632032" x2="10.38099020771188" y2="9.942277726174702" class="delaunay-line"/>
<line x1="10.252358220324021" y1="10.08895439632032" x2="0" y2="0" class="delaunay-line"/>
<line x1="0" y1="0" x2="10.189648491529335" y2="10.273691300210295" class="delaunay-line"/>
<line x1="10.189648491529335" y1="10.273691300210295" x2="10.252358220324021" y2="10.08895439632032" class="delaunay-line"/>
<line x1="10.189648491529335" y1="10.273691300210295" x2="0" y2="0" class="delaunay-line"/>
<line x1="0" y1="0" x2="10.202408009071707" y2="10.46836391887158" class="delaunay-line"/>
<line x1="10.202408009071707" y1="10.46836391887158" x2="10.189648491529335" y2="10.273691300210295" class="delaunay-line"/>
<line x1="10.202408009071707" y1="10.46836391887158" x2="0" y2="24" class="delaunay-line"/>
<line x1="0" y1="24" x2="10.288694252070622" y2="10.64333511082468" class="delaunay-line"/>
<line x1="10.288694252070622" y1="10.64333511082468" x2="10.202408009071707" y2="10.46836391887158" class="delaunay-line"/>
<line x1="24" y1="0" x2="10.93537092221624" y2="9.905941694428101" class="delaunay-line"/>
<line x1="10.93537092221624" y1="9.905941694428101" x2="20.258365522646923" y2="11.109288309594882" class="delaunay-line"/>
<line x1="20.258365522646923" y1="11.109288309594882" x2="24" y2="0" class="delaunay-line"/>
<line x1="24" y1="0" x2="20.258365522646923" y2="11.109288309594882" class="delaunay-line"/>
<line x1="20.258365522646923" y1="11.109288309594882" x2="20.45303814130821" y2="11.09652879205251" class="delaunay-line"/>
<line x1="20.45303814130821" y1="11.09652879205251" x2="24" y2="0" class="delaunay-line"/>
<line x1="19.076313257141404" y1="16.55714986191459" x2="20.723459992714513" y2="21.85387644494309" class="delaunay-line"/>
<line x1="20.723459992714513" y1="21.85387644494309" x2="19.26765497332395" y2="16.51908962817023" class="delaunay-line"/>
<line x1="19.26765497332395" y1="16.51908962817023" x2="19.076313257141404" y2="16.55714986191459" class="delaunay-line"/>
<line x1="19.26765497332395" y1="16.51908962817023" x2="20.908196896604487" y2="21.791166716148403" class="delaunay-line"/>
<line x1="20.908196896604487" y1="21.791166716148403" x2="19.429866647734677" y2="16.41070325250786" class="delaunay-line"/>
<line x1="19.429866647734677" y1="16.41070325250786" x2="19.26765497332395" y2="16.51908962817023" class="delaunay-line"/>
<line x1="19.429866647734677" y1="16.41070325250786" x2="21.102869515265773" y2="21.803926233690774" class="delaunay-line"/>
<line x1="21.102869515265773" y1="21.803926233690774" x2="19.538253023397047" y2="16.248491578097134" class="delaunay-line"/>
<line x1="19.538253023397047" y1="16.248491578097134" x2="19.429866647734677" y2="16.41070325250786" class="delaunay-line"/>
<line x1="19.538253023397047" y1="16.248491578097134" x2="21.27784070721887" y2="21.89021247668969" class="delaunay-line"/>
<line x1="21.27784070721887" y1="21.89021247668969" x2="19.576313257141404" y2="16.05714986191459" class="delaunay-line"/>
<line x1="19.576313257141404" y1="16.05714986191459" x2="19.538253023397047" y2="16.248491578097134" class="delaunay-line"/>
<line x1="20.576783322568893" y1="21.982508432330953" x2="20.723459992714513" y2="21.85387644494309" class="delaunay-line"/>
<line x1="20.723459992714513" y1="21.85387644494309" x2="19.076313257141404" y2="16.55714986191459" class="delaunay-line"/>
<line x1="19.076313257141404" y1="16.55714986191459" x2="20.576783322568893" y2="21.982508432330953" class="delaunay-line"/>
<line x1="20.576783322568893" y1="21.982508432330953" x2="19.076313257141404" y2="16.55714986191459" class="delaunay-line"/>
<line x1="19.076313257141404" y1="16.55714986191459" x2="18.88497154095886" y2="16.51908962817023" class="delaunay-line"/>
<line x1="18.88497154095886" y1="16.51908962817023" x2="20.576783322568893" y2="21.982508432330953" class="delaunay-line"/>
<line x1="18.72275986654813" y1="16.41070325250786" x2="20.477737562027606" y2="22.352152242945337" class="delaunay-line"/>
<line x1="20.477737562027606" y1="22.352152242945337" x2="20.490497079569977" y2="22.15747962428405" class="delaunay-line"/>
<line x1="20.490497079569977" y1="22.15747962428405" x2="18.72275986654813" y2="16.41070325250786" class="delaunay-line"/>
<line x1="0" y1="24" x2="20.477737562027606" y2="22.352152242945337" class="delaunay-line"/>
<line x1="20.477737562027606" y1="22.352152242945337" x2="18.72275986654813" y2="16.41070325250786" class="delaunay-line"/>
<line x1="18.72275986654813" y1="16.41070325250786" x2="0" y2="24" class="delaunay-line"/>
<line x1="0" y1="24" x2="18.72275986654813" y2="16.41070325250786" class="delaunay-line"/>
<line x1="18.72275986654813" y1="16.41070325250786" x2="18.61437349088576" y2="16.24849157809713" class="delaunay-line"/>
<line x1="18.61437349088576" y1="16.24849157809713" x2="0" y2="24" class="delaunay-line"/>
<line x1="10.620107826106215" y1="10.834676827007225" x2="0" y2="24" class="delaunay-line"/>
<line x1="0" y1="24" x2="18.61437349088576" y2="16.24849157809713" class="delaunay-line"/>
<line x1="18.61437349088576" y1="16.24849157809713" x2="10.620107826106215" y2="10.834676827007225" class="delaunay-line"/>
<line x1="21.102869515265773" y1="21.803926233690774" x2="20.908196896604487" y2="21.791166716148403" class="delaunay-line"/>
<line x1="20.908196896604487" y1="21.791166716148403" x2="21.27784070721887" y2="21.89021247668969" class="delaunay-line"/>
<line x1="21.27784070721887" y1="21.89021247668969" x2="21.102869515265773" y2="21.803926233690774" class="delaunay-line"/>
<line x1="20.723459992714513" y1="21.85387644494309" x2="20.908196896604487" y2="21.791166716148403" class="delaunay-line"/>
<line x1="20.908196896604487" y1="21.791166716148403" x2="19.26765497332395" y2="16.51908962817023" class="delaunay-line"/>
<line x1="19.26765497332395" y1="16.51908962817023" x2="20.723459992714513" y2="21.85387644494309" class="delaunay-line"/>
<line x1="20.477737562027606" y1="22.352152242945337" x2="0" y2="24" class="delaunay-line"/>
<line x1="0" y1="24" x2="20.540447290822293" y2="22.53688914683531" class="delaunay-line"/>
<line x1="20.540447290822293" y1="22.53688914683531" x2="20.477737562027606" y2="22.352152242945337" class="delaunay-line"/>
<line x1="21.27784070721887" y1="21.89021247668969" x2="20.908196896604487" y2="21.791166716148403" class="delaunay-line"/>
<line x1="20.908196896604487" y1="21.791166716148403" x2="20.723459992714513" y2="21.85387644494309" class="delaunay-line"/>
<line x1="20.723459992714513" y1="21.85387644494309" x2="21.27784070721887" y2="21.89021247668969" class="delaunay-line"/>
<line x1="21.27784070721887" y1="21.89021247668969" x2="20.723459992714513" y2="21.85387644494309" class="delaunay-line"/>
<line x1="20.723459992714513" y1="21.85387644494309" x2="20.576783322568893" y2="21.982508432330953" class="delaunay-line"/>
<line x1="20.576783322568893" y1="21.982508432330953" x2="21.27784070721887" y2="21.89021247668969" class="delaunay-line"/>
<line x1="20.908196896604487" y1="21.791166716148403" x2="21.102869515265773" y2="21.803926233690774" class="delaunay-line"/>
<line x1="21.102869515265773" y1="21.803926233690774" x2="19.429866647734677" y2="16.41070325250786" class="delaunay-line"/>
<line x1="19.429866647734677" y1="16.41070325250786" x2="20.908196896604487" y2="21.791166716148403" class="delaunay-line"/>
<line x1="10.620107826106215" y1="10.834676827007225" x2="10.43537092221624" y2="10.771967098212539" class="delaunay-line"/>
<line x1="10.43537092221624" y1="10.771967098212539" x2="0" y2="24" class="delaunay-line"/>
<line x1="0" y1="24" x2="10.620107826106215" y2="10.834676827007225" class="delaunay-line"/>
<line x1="20.490497079569977" y1="22.15747962428405" x2="20.477737562027606" y2="22.352152242945337" class="delaunay-line"/>
<line x1="20.477737562027606" y1="22.352152242945337" x2="20.576783322568893" y2="21.982508432330953" class="delaunay-line"/>
<line x1="20.576783322568893" y1="21.982508432330953" x2="20.490497079569977" y2="22.15747962428405" class="delaunay-line"/>
<line x1="20.669079278210155" y1="22.68356581698093" x2="21.27784070721887" y2="21.89021247668969" class="delaunay-line"/>
<line x1="21.27784070721887" y1="21.89021247668969" x2="20.576783322568893" y2="21.982508432330953" class="delaunay-line"/>
<line x1="20.576783322568893" y1="21.982508432330953" x2="20.669079278210155" y2="22.68356581698093" class="delaunay-line"/>
<line x1="21.102869515265773" y1="21.803926233690774" x2="21.27784070721887" y2="21.89021247668969" class="delaunay-line"/>
<line x1="21.27784070721887" y1="21.89021247668969" x2="19.538253023397047" y2="16.248491578097134" class="delaunay-line"/>
<line x1="19.538253023397047" y1="16.248491578097134" x2="21.102869515265773" y2="21.803926233690774" class="delaunay-line"/>
<line x1="0" y1="24" x2="10.43537092221624" y2="10.771967098212539" class="delaunay-line"/>
<line x1="10.43537092221624" y1="10.771967098212539" x2="10.288694252070622" y2="10.64333511082468" class="delaunay-line"/>
<line x1="10.288694252070622" y1="10.64333511082468" x2="0" y2="24" class="delaunay-line"/>
<line x1="20.477737562027606" y1="22.352152242945337" x2="20.540447290822293" y2="22.53688914683531" class="delaunay-line"/>
<line x1="20.540447290822293" y1="22.53688914683531" x2="20.576783322568893" y2="21.982508432330953" class="delaunay-line"/>
<line x1="20.576783322568893" y1="21.982508432330953" x2="20.477737562027606" y2="22.352152242945337" class="delaunay-line"/>
<line x1="21.370136662860133" y1="22.59126986133967" x2="21.406472694606734" y2="22.03688914683531" class="delaunay-line"/>
<line x1="21.406472694606734" y1="22.03688914683531" x2="21.27784070721887" y2="21.89021247668969" class="delaunay-line"/>
<line x1="21.27784070721887" y1="21.89021247668969" x2="21.370136662860133" y2="22.59126986133967" class="delaunay-line"/>
<line x1="21.27784070721887" y1="21.89021247668969" x2="21.406472694606734" y2="22.03688914683531" class="delaunay-line"/>
<line x1="21.406472694606734" y1="22.03688914683531" x2="19.576313257141404" y2="16.05714986191459" class="delaunay-line"/>
<line x1="19.576313257141404" y1="16.05714986191459" x2="21.27784070721887" y2="21.89021247668969" class="delaunay-line"/>
<line x1="0" y1="24" x2="20.669079278210155" y2="22.68356581698093" class="delaunay-line"/>
<line x1="20.669079278210155" y1="22.68356581698093" x2="20.540447290822293" y2="22.53688914683531" class="delaunay-line"/>
<line x1="20.540447290822293" y1="22.53688914683531" x2="0" y2="24" class="delaunay-line"/>
<line x1="20.540447290822293" y1="22.53688914683531" x2="20.669079278210155" y2="22.68356581698093" class="delaunay-line"/>
<line x1="20.669079278210155" y1="22.68356581698093" x2="20.576783322568893" y2="21.982508432330953" class="delaunay-line"/>
<line x1="20.576783322568893" y1="21.982508432330953" x2="20.540447290822293" y2="22.53688914683531" class="delaunay-line"/>
<line x1="21.45642290585905" y1="22.41629866938657" x2="21.46918242340142" y2="22.221626050725284" class="delaunay-line"/>
<line x1="21.46918242340142" y1="22.221626050725284" x2="21.370136662860133" y2="22.59126986133967" class="delaunay-line"/>
<line x1="21.370136662860133" y1="22.59126986133967" x2="21.45642290585905" y2="22.41629866938657" class="delaunay-line"/>
<line x1="21.406472694606734" y1="22.03688914683531" x2="24" y2="24" class="delaunay-line"/>
<line x1="24" y1="24" x2="19.576313257141404" y2="16.05714986191459" class="delaunay-line"/>
<line x1="19.576313257141404" y1="16.05714986191459" x2="21.406472694606734" y2="22.03688914683531" class="delaunay-line"/>
<line x1="21.370136662860133" y1="22.59126986133967" x2="21.46918242340142" y2="22.221626050725284" class="delaunay-line"/>
<line x1="21.46918242340142" y1="22.221626050725284" x2="21.406472694606734" y2="22.03688914683531" class="delaunay-line"/>
<line x1="21.406472694606734" y1="22.03688914683531" x2="21.370136662860133" y2="22.59126986133967" class="delaunay-line"/>
<line x1="21.370136662860133" y1="22.59126986133967" x2="21.27784070721887" y2="21.89021247668969" class="delaunay-line"/>
<line x1="21.27784070721887" y1="21.89021247668969" x2="20.669079278210155" y2="22.68356581698093" class="delaunay-line"/>
<line x1="20.669079278210155" y1="22.68356581698093" x2="21.370136662860133" y2="22.59126986133967" class="delaunay-line"/>
<line x1="20.844050470163253" y1="22.769852059979847" x2="21.03872308882454" y2="22.782611577522218" class="delaunay-line"/>
<line x1="21.03872308882454" y1="22.782611577522218" x2="20.669079278210155" y2="22.68356581698093" class="delaunay-line"/>
<line x1="20.669079278210155" y1="22.68356581698093" x2="20.844050470163253" y2="22.769852059979847" class="delaunay-line"/>
<line x1="21.223459992714513" y1="22.71990184872753" x2="21.370136662860133" y2="22.59126986133967" class="delaunay-line"/>
<line x1="21.370136662860133" y1="22.59126986133967" x2="20.669079278210155" y2="22.68356581698093" class="delaunay-line"/>
<line x1="20.669079278210155" y1="22.68356581698093" x2="21.223459992714513" y2="22.71990184872753" class="delaunay-line"/>
<line x1="21.03872308882454" y1="22.782611577522218" x2="21.223459992714513" y2="22.71990184872753" class="delaunay-line"/>
<line x1="21.223459992714513" y1="22.71990184872753" x2="20.669079278210155" y2="22.68356581698093" class="delaunay-line"/>
<line x1="20.669079278210155" y1="22.68356581698093" x2="21.03872308882454" y2="22.782611577522218" class="delaunay-line"/>
<line x1="20.784451715343803" y1="11.287870508235056" x2="24" y2="0" class="delaunay-line"/>
<line x1="24" y1="0" x2="20.637775045198183" y2="11.159238520847197" class="delaunay-line"/>
<line x1="20.637775045198183" y1="11.159238520847197" x2="20.784451715343803" y2="11.287870508235056" class="delaunay-line"/>
<line x1="20.637775045198183" y1="11.159238520847197" x2="24" y2="0" class="delaunay-line"/>
<line x1="24" y1="0" x2="20.45303814130821" y2="11.09652879205251" class="delaunay-line"/>
<line x1="20.45303814130821" y1="11.09652879205251" x2="20.637775045198183" y2="11.159238520847197" class="delaunay-line"/>
<line x1="20.87073795834272" y1="11.462841700188156" x2="24" y2="0" class="delaunay-line"/>
<line x1="24" y1="0" x2="20.784451715343803" y2="11.287870508235056" class="delaunay-line"/>
<line x1="20.784451715343803" y1="11.287870508235056" x2="20.87073795834272" y2="11.462841700188156" class="delaunay-line"/>
<line x1="20.88349747588509" y1="11.65751431884944" x2="24" y2="0" class="delaunay-line"/>
<line x1="24" y1="0" x2="20.87073795834272" y2="11.462841700188156" class="delaunay-line"/>
<line x1="20.87073795834272" y1="11.462841700188156" x2="20.88349747588509" y2="11.65751431884944" class="delaunay-line"/>
<line x1="24" y1="24" x2="24" y2="0" class="delaunay-line"/>
<line x1="24" y1="0" x2="20.88349747588509" y2="11.65751431884944" class="delaunay-line"/>
<line x1="20.88349747588509" y1="11.65751431884944" x2="24" y2="24" class="delaunay-line"/>
<line x1="24" y1="24" x2="21.406472694606734" y2="22.03688914683531" class="delaunay-line"/>
<line x1="21.406472694606734" y1="22.03688914683531" x2="21.46918242340142" y2="22.221626050725284" class="delaunay-line"/>
<line x1="21.46918242340142" y1="22.221626050725284" x2="24" y2="24" class="delaunay-line"/>
<line x1="0" y1="0" x2="0" y2="24" class="delaunay-line"/>
<line x1="0" y1="24" x2="10.202408009071707" y2="10.46836391887158" class="delaunay-line"/>
<line x1="10.202408009071707" y1="10.46836391887158" x2="0" y2="0" class="delaunay-line"/>
<line x1="20.669079278210155" y1="22.68356581698093" x2="0" y2="24" class="delaunay-line"/>
<line x1="0" y1="24" x2="20.844050470163253" y2="22.769852059979847" class="delaunay-line"/>
<line x1="20.844050470163253" y1="22.769852059979847" x2="20.669079278210155" y2="22.68356581698093" class="delaunay-line"/>
<line x1="20.844050470163253" y1="22.769852059979847" x2="24" y2="24" class="delaunay-line"/>
<line x1="24" y1="24" x2="21.03872308882454" y2="22.782611577522218" class="delaunay-line"/>
<line x1="21.03872308882454" y1="22.782611577522218" x2="20.844050470163253" y2="22.769852059979847" class="delaunay-line"/>
<line x1="21.370136662860133" y1="22.59126986133967" x2="24" y2="24" class="delaunay-line"/>
<line x1="24" y1="24" x2="21.45642290585905" y2="22.41629866938657" class="delaunay-line"/>
<line x1="21.45642290585905" y1="22.41629866938657" x2="21.370136662860133" y2="22.59126986133967" class="delaunay-line"/>
<line x1="21.45642290585905" y1="22.41629866938657" x2="24" y2="24" class="delaunay-line"/>
<line x1="24" y1="24" x2="21.46918242340142" y2="22.221626050725284" class="delaunay-line"/>
<line x1="21.46918242340142" y1="22.221626050725284" x2="21.45642290585905" y2="22.41629866938657" class="delaunay-line"/>
<line x1="21.223459992714513" y1="22.71990184872753" x2="24" y2="24" class="delaunay-line"/>
<line x1="24" y1="24" x2="21.370136662860133" y2="22.59126986133967" class="delaunay-line"/>
<line x1="21.370136662860133" y1="22.59126986133967" x2="21.223459992714513" y2="22.71990184872753" class="delaunay-line"/>
<line x1="21.03872308882454" y1="22.782611577522218" x2="24" y2="24" class="delaunay-line"/>
<line x1="24" y1="24" x2="21.223459992714513" y2="22.71990184872753" class="delaunay-line"/>
<line x1="21.223459992714513" y1="22.71990184872753" x2="21.03872308882454" y2="22.782611577522218" class="delaunay-line"/>
<line x1="0" y1="24" x2="24" y2="24" class="delaunay-line"/>
<line x1="24" y1="24" x2="20.844050470163253" y2="22.769852059979847" class="delaunay-line"/>
<line x1="20.844050470163253" y1="22.769852059979847" x2="0" y2="24" class="delaunay-line"/>
</g>
<g id="layer-area" class="layer ">
</g>
<g id="layer-terrain" class="layer ">
<polygon points="19.429866647734677,16.41070325250786 19.26765497332395,16.51908962817023 19.076313257141404,16.55714986191459 18.88497154095886,16.51908962817023 18.72275986654813,16.41070325250786 18.61437349088576,16.24849157809713 18.576313257141404,16.05714986191459 18.61437349088576,15.865808145732045 18.72275986654813,15.703596471321315 18.88497154095886,15.595210095658944 19.076313257141404,15.557149861914588 19.26765497332395,15.595210095658944 19.429866647734677,15.703596471321315 19.538253023397047,15.865808145732043 19.576313257141404,16.05714986191459 19.538253023397047,16.248491578097134" fill="Dark Green" class="terrain-solid"/>
<polygon points="21.223459992714513,22.71990184872753 21.03872308882454,22.782611577522218 20.844050470163253,22.769852059979847 20.669079278210155,22.68356581698093 20.540447290822293,22.53688914683531 20.477737562027606,22.352152242945337 20.490497079569977,22.15747962428405 20.576783322568893,21.982508432330953 20.723459992714513,21.85387644494309 20.908196896604487,21.791166716148403 21.102869515265773,21.803926233690774 21.27784070721887,21.89021247668969 21.406472694606734,22.03688914683531 21.46918242340142,22.221626050725284 21.45642290585905,22.41629866938657 21.370136662860133,22.59126986133967" fill="Dark Green" class="terrain-solid"/>
<polygon points="20.637775045198183,11.159238520847197 20.784451715343803,11.287870508235056 20.87073795834272,11.462841700188156 20.88349747588509,11.65751431884944 20.820787747090403,11.842251222739415 20.69215575970254,11.988927892885034 20.517184567749442,12.075214135883948 20.322511949088156,12.087973653426321 20.137775045198183,12.025263924631634 19.991098375052562,11.896631937243775 19.904812132053646,11.721660745290675 19.892052614511275,11.52698812662939 19.954762343305962,11.342251222739415 20.083394330693825,11.195574552593797 20.258365522646923,11.109288309594882 20.45303814130821,11.09652879205251" fill="Dark Green" class="terrain-solid"/>
<polygon points="10.93537092221624,9.905941694428101 11.082047592361858,10.03457368181596 11.168333835360773,10.20954487376906 11.181093352903146,10.404217492430345 11.118383624108459,10.58895439632032 10.9897516367206,10.735631066465938 10.8147804447675,10.821917309464853 10.620107826106215,10.834676827007225 10.43537092221624,10.771967098212539 10.288694252070622,10.64333511082468 10.202408009071707,10.46836391887158 10.189648491529335,10.273691300210295 10.252358220324021,10.08895439632032 10.38099020771188,9.942277726174702 10.55596139966498,9.855991483175787 10.750634018326265,9.843231965633414" fill="Dark Green" class="terrain-solid"/>
</g>
<g id="layer-models" class="layer ">
</g>
<g id="layer-paths" class="layer ">
</g>
<g id="layer-vectors" class="layer ">
</g>
<g id="layer-los" class="layer ">
</g>
<g id="layer-lof" class="layer ">
</g>

</svg>