<svg xmlns="http://www.w3.org/2000/svg" viewBox="0 0 24 24" width="960" height="960" font-family="Arial" font-size="0.6">
<defs>
  <style><![CDATA[
    .layer { display: inline; }
    .layer.hidden { display: none; }
    .grid-line { stroke: #999; stroke-width: 0.02; opacity: 0.2; }
    .delaunay-line { stroke: #4a6fa5; stroke-width: 0.03; opacity: 0.3; }
    .terrain-area { stroke: #000; stroke-width: 0.05; }
    .terrain-solid { stroke: #000; stroke-width: 0.05; }
    .model { stroke: #ff0000; stroke-width: 2; vector-effect: non-scaling-stroke; }
    .path { fill: none; stroke-width: 0.12; }
    .vector { stroke-width: 0.1; }
    .los-ray { stroke-width: 0.08; stroke-dasharray: 0.2 0.2; }
    .lof-ray { stroke-width: 0.08; stroke-dasharray: 0.3 0.15; }
    .label { fill: #111 !important; font-size: 0.6px; }
    .toggle { cursor: pointer; }
    .toggle.disabled { cursor: default; }
    .toggle.disabled rect { stroke: #ccc; fill: #fff; }
    .toggle.disabled text { fill: #ccc; }
#layer-area { fill: #C49A6C; }
#layer-building { fill: #000000; }
#layer-wall { fill: #555555; }
#layer-shrub { fill: #006400; }
  ]]></style>
</defs>
<rect x="0" y="0" width="24" height="24" fill="#ffffff" stroke="#111" stroke-width="0.05"/>
<script><![CDATA[
      function toggleLayer(id) {
        var layer = document.getElementById('layer-' + id);
        if (!layer) return;
        if (layer.classList.contains('hidden')) {
          layer.classList.remove('hidden');
        } else {
          layer.classList.add('hidden');
        }
      }
    ]]></script>
<text x="0.4" y="23.6" class="label">LOF + Friendly Fire (blockLOS 50)</text>
<g id="layer-deployment" class="layer ">
<rect x="0" y="22" width="24" height="2" fill="#ff0000" opacity="0.2"/>
<rect x="0" y="0" width="24" height="2" fill="#0000ff" opacity="0.2"/>
</g>
<g id="layer-grid" class="layer ">
<line x1="0" y1="0" x2="0" y2="24" class="grid-line"/>
<line x1="0.5" y1="0" x2="0.5" y2="24" class="grid-line"/>
<line x1="1" y1="0" x2="1" y2="24" class="grid-line"/>
<line x1="1.5" y1="0" x2="1.5" y2="24" class="grid-line"/>
<line x1="2" y1="0" x2="2" y2="24" class="grid-line"/>
<line x1="2.5" y1="0" x2="2.5" y2="24" class="grid-line"/>
<line x1="3" y1="0" x2="3" y2="24" class="grid-line"/>
<line x1="3.5" y1="0" x2="3.5" y2="24" class="grid-line"/>
<line x1="4" y1="0" x2="4" y2="24" class="grid-line"/>
<line x1="4.5" y1="0" x2="4.5" y2="24" class="grid-line"/>
<line x1="5" y1="0" x2="5" y2="24" class="grid-line"/>
<line x1="5.5" y1="0" x2="5.5" y2="24" class="grid-line"/>
<line x1="6" y1="0" x2="6" y2="24" class="grid-line"/>
<line x1="6.5" y1="0" x2="6.5" y2="24" class="grid-line"/>
<line x1="7" y1="0" x2="7" y2="24" class="grid-line"/>
<line x1="7.5" y1="0" x2="7.5" y2="24" class="grid-line"/>
<line x1="8" y1="0" x2="8" y2="24" class="grid-line"/>
<line x1="8.5" y1="0" x2="8.5" y2="24" class="grid-line"/>
<line x1="9" y1="0" x2="9" y2="24" class="grid-line"/>
<line x1="9.5" y1="0" x2="9.5" y2="24" class="grid-line"/>
<line x1="10" y1="0" x2="10" y2="24" class="grid-line"/>
<line x1="10.5" y1="0" x2="10.5" y2="24" class="grid-line"/>
<line x1="11" y1="0" x2="11" y2="24" class="grid-line"/>
<line x1="11.5" y1="0" x2="11.5" y2="24" class="grid-line"/>
<line x1="12" y1="0" x2="12" y2="24" class="grid-line"/>
<line x1="12.5" y1="0" x2="12.5" y2="24" class="grid-line"/>
<line x1="13" y1="0" x2="13" y2="24" class="grid-line"/>
<line x1="13.5" y1="0" x2="13.5" y2="24" class="grid-line"/>
<line x1="14" y1="0" x2="14" y2="24" class="grid-line"/>
<line x1="14.5" y1="0" x2="14.5" y2="24" class="grid-line"/>
<line x1="15" y1="0" x2="15" y2="24" class="grid-line"/>
<line x1="15.5" y1="0" x2="15.5" y2="24" class="grid-line"/>
<line x1="16" y1="0" x2="16" y2="24" class="grid-line"/>
<line x1="16.5" y1="0" x2="16.5" y2="24" class="grid-line"/>
<line x1="17" y1="0" x2="17" y2="24" class="grid-line"/>
<line x1="17.5" y1="0" x2="17.5" y2="24" class="grid-line"/>
<line x1="18" y1="0" x2="18" y2="24" class="grid-line"/>
<line x1="18.5" y1="0" x2="18.5" y2="24" class="grid-line"/>
<line x1="19" y1="0" x2="19" y2="24" class="grid-line"/>
<line x1="19.5" y1="0" x2="19.5" y2="24" class="grid-line"/>
<line x1="20" y1="0" x2="20" y2="24" class="grid-line"/>
<line x1="20.5" y1="0" x2="20.5" y2="24" class="grid-line"/>
<line x1="21" y1="0" x2="21" y2="24" class="grid-line"/>
<line x1="21.5" y1="0" x2="21.5" y2="24" class="grid-line"/>
<line x1="22" y1="0" x2="22" y2="24" class="grid-line"/>
<line x1="22.5" y1="0" x2="22.5" y2="24" class="grid-line"/>
<line x1="23" y1="0" x2="23" y2="24" class="grid-line"/>
<line x1="23.5" y1="0" x2="23.5" y2="24" class="grid-line"/>
<line x1="24" y1="0" x2="24" y2="24" class="grid-line"/>
<line x1="0" y1="0" x2="24" y2="0" class="grid-line"/>
<line x1="0" y1="0.5" x2="24" y2="0.5" class="grid-line"/>
<line x1="0" y1="1" x2="24" y2="1" class="grid-line"/>
<line x1="0" y1="1.5" x2="24" y2="1.5" class="grid-line"/>
<line x1="0" y1="2" x2="24" y2="2" class="grid-line"/>
<line x1="0" y1="2.5" x2="24" y2="2.5" class="grid-line"/>
<line x1="0" y1="3" x2="24" y2="3" class="grid-line"/>
<line x1="0" y1="3.5" x2="24" y2="3.5" class="grid-line"/>
<line x1="0" y1="4" x2="24" y2="4" class="grid-line"/>
<line x1="0" y1="4.5" x2="24" y2="4.5" class="grid-line"/>
<line x1="0" y1="5" x2="24" y2="5" class="grid-line"/>
<line x1="0" y1="5.5" x2="24" y2="5.5" class="grid-line"/>
<line x1="0" y1="6" x2="24" y2="6" class="grid-line"/>
<line x1="0" y1="6.5" x2="24" y2="6.5" class="grid-line"/>
<line x1="0" y1="7" x2="24" y2="7" class="grid-line"/>
<line x1="0" y1="7.5" x2="24" y2="7.5" class="grid-line"/>
<line x1="0" y1="8" x2="24" y2="8" class="grid-line"/>
<line x1="0" y1="8.5" x2="24" y2="8.5" class="grid-line"/>
<line x1="0" y1="9" x2="24" y2="9" class="grid-line"/>
<line x1="0" y1="9.5" x2="24" y2="9.5" class="grid-line"/>
<line x1="0" y1="10" x2="24" y2="10" class="grid-line"/>
<line x1="0" y1="10.5" x2="24" y2="10.5" class="grid-line"/>
<line x1="0" y1="11" x2="24" y2="11" class="grid-line"/>
<line x1="0" y1="11.5" x2="24" y2="11.5" class="grid-line"/>
<line x1="0" y1="12" x2="24" y2="12" class="grid-line"/>
<line x1="0" y1="12.5" x2="24" y2="12.5" class="grid-line"/>
<line x1="0" y1="13" x2="24" y2="13" class="grid-line"/>
<line x1="0" y1="13.5" x2="24" y2="13.5" class="grid-line"/>
<line x1="0" y1="14" x2="24" y2="14" class="grid-line"/>
<line x1="0" y1="14.5" x2="24" y2="14.5" class="grid-line"/>
<line x1="0" y1="15" x2="24" y2="15" class="grid-line"/>
<line x1="0" y1="15.5" x2="24" y2="15.5" class="grid-line"/>
<line x1="0" y1="16" x2="24" y2="16" class="grid-line"/>
<line x1="0" y1="16.5" x2="24" y2="16.5" class="grid-line"/>
<line x1="0" y1="17" x2="24" y2="17" class="grid-line"/>
<line x1="0" y1="17.5" x2="24" y2="17.5" class="grid-line"/>
<line x1="0" y1="18" x2="24" y2="18" class="grid-line"/>
<line x1="0" y1="18.5" x2="24" y2="18.5" class="grid-line"/>
<line x1="0" y1="19" x2="24" y2="19" class="grid-line"/>
<line x1="0" y1="19.5" x2="24" y2="19.5" class="grid-line"/>
<line x1="0" y1="20" x2="24" y2="20" class="grid-line"/>
<line x1="0" y1="20.5" x2="24" y2="20.5" class="grid-line"/>
<line x1="0" y1="21" x2="24" y2="21" class="grid-line"/>
<line x1="0" y1="21.5" x2="24" y2="21.5" class="grid-line"/>
<line x1="0" y1="22" x2="24" y2="22" class="grid-line"/>
<line x1="0" y1="22.5" x2="24" y2="22.5" class="grid-line"/>
<line x1="0" y1="23" x2="24" y2="23" class="grid-line"/>
<line x1="0" y1="23.5" x2="24" y2="23.5" class="grid-line"/>
<line x1="0" y1="24" x2="24" y2="24" class="grid-line"/>
</g>
<g id="layer-delaunay" class="layer ">
<line x1="14.308658283817456" y1="16.038060233744357" x2="14.691341716182544" y2="16.038060233744357" class="delaunay-line"/>
<line x1="14.691341716182544" y1="16.038060233744357" x2="14.5" y2="16" class="delaunay-line"/>
<line x1="14.5" y1="16" x2="14.308658283817456" y2="16.038060233744357" class="delaunay-line"/>
<line x1="14.308658283817456" y1="16.038060233744357" x2="14.853553390593273" y2="16.146446609406727" class="delaunay-line"/>
<line x1="14.853553390593273" y1="16.146446609406727" x2="14.691341716182544" y2="16.038060233744357" class="delaunay-line"/>
<line x1="14.691341716182544" y1="16.038060233744357" x2="14.308658283817456" y2="16.038060233744357" class="delaunay-line"/>
<line x1="14.308658283817456" y1="16.038060233744357" x2="14.146446609406727" y2="16.146446609406727" class="delaunay-line"/>
<line x1="14.146446609406727" y1="16.146446609406727" x2="14.853553390593273" y2="16.146446609406727" class="delaunay-line"/>
<line x1="14.853553390593273" y1="16.146446609406727" x2="14.308658283817456" y2="16.038060233744357" class="delaunay-line"/>
<line x1="14.853553390593273" y1="16.853553390593273" x2="15" y2="16.5" class="delaunay-line"/>
<line x1="15" y1="16.5" x2="14.853553390593273" y2="16.146446609406727" class="delaunay-line"/>
<line x1="14.853553390593273" y1="16.146446609406727" x2="14.853553390593273" y2="16.853553390593273" class="delaunay-line"/>
<line x1="15" y1="16.5" x2="14.961939766255645" y2="16.308658283817454" class="delaunay-line"/>
<line x1="14.961939766255645" y1="16.308658283817454" x2="14.853553390593273" y2="16.146446609406727" class="delaunay-line"/>
<line x1="14.853553390593273" y1="16.146446609406727" x2="15" y2="16.5" class="delaunay-line"/>
<line x1="14.853553390593273" y1="16.853553390593273" x2="14.853553390593273" y2="16.146446609406727" class="delaunay-line"/>
<line x1="14.853553390593273" y1="16.146446609406727" x2="14.146446609406727" y2="16.146446609406727" class="delaunay-line"/>
<line x1="14.146446609406727" y1="16.146446609406727" x2="14.853553390593273" y2="16.853553390593273" class="delaunay-line"/>
<line x1="14.038060233744355" y1="16.308658283817454" x2="14" y2="16.5" class="delaunay-line"/>
<line x1="14" y1="16.5" x2="14.146446609406727" y2="16.146446609406727" class="delaunay-line"/>
<line x1="14.146446609406727" y1="16.146446609406727" x2="14.038060233744355" y2="16.308658283817454" class="delaunay-line"/>
<line x1="14.853553390593273" y1="16.853553390593273" x2="14.961939766255645" y2="16.691341716182546" class="delaunay-line"/>
<line x1="14.961939766255645" y1="16.691341716182546" x2="15" y2="16.5" class="delaunay-line"/>
<line x1="15" y1="16.5" x2="14.853553390593273" y2="16.853553390593273" class="delaunay-line"/>
<line x1="14" y1="16.5" x2="14.146446609406727" y2="16.853553390593273" class="delaunay-line"/>
<line x1="14.146446609406727" y1="16.853553390593273" x2="14.146446609406727" y2="16.146446609406727" class="delaunay-line"/>
<line x1="14.146446609406727" y1="16.146446609406727" x2="14" y2="16.5" class="delaunay-line"/>
<line x1="14.038060233744355" y1="16.691341716182546" x2="14.146446609406727" y2="16.853553390593273" class="delaunay-line"/>
<line x1="14.146446609406727" y1="16.853553390593273" x2="14" y2="16.5" class="delaunay-line"/>
<line x1="14" y1="16.5" x2="14.038060233744355" y2="16.691341716182546" class="delaunay-line"/>
<line x1="14.146446609406727" y1="16.853553390593273" x2="14.853553390593273" y2="16.853553390593273" class="delaunay-line"/>
<line x1="14.853553390593273" y1="16.853553390593273" x2="14.146446609406727" y2="16.146446609406727" class="delaunay-line"/>
<line x1="14.146446609406727" y1="16.146446609406727" x2="14.146446609406727" y2="16.853553390593273" class="delaunay-line"/>
<line x1="14.146446609406727" y1="16.853553390593273" x2="14.308658283817456" y2="16.961939766255643" class="delaunay-line"/>
<line x1="14.308658283817456" y1="16.961939766255643" x2="14.853553390593273" y2="16.853553390593273" class="delaunay-line"/>
<line x1="14.853553390593273" y1="16.853553390593273" x2="14.146446609406727" y2="16.853553390593273" class="delaunay-line"/>
<line x1="14.308658283817456" y1="16.961939766255643" x2="14.691341716182544" y2="16.961939766255643" class="delaunay-line"/>
<line x1="14.691341716182544" y1="16.961939766255643" x2="14.853553390593273" y2="16.853553390593273" class="delaunay-line"/>
<line x1="14.853553390593273" y1="16.853553390593273" x2="14.308658283817456" y2="16.961939766255643" class="delaunay-line"/>
<line x1="14.308658283817456" y1="16.961939766255643" x2="14.5" y2="17" class="delaunay-line"/>
<line x1="14.5" y1="17" x2="14.691341716182544" y2="16.961939766255643" class="delaunay-line"/>
<line x1="14.691341716182544" y1="16.961939766255643" x2="14.308658283817456" y2="16.961939766255643" class="delaunay-line"/>
<line x1="15" y1="16.5" x2="18.550838778855905" y2="13.09987688453256" class="delaunay-line"/>
<line x1="18.550838778855905" y1="13.09987688453256" x2="14.961939766255645" y2="16.308658283817454" class="delaunay-line"/>
<line x1="14.961939766255645" y1="16.308658283817454" x2="15" y2="16.5" class="delaunay-line"/>
<line x1="14.961939766255645" y1="16.308658283817454" x2="18.550838778855905" y2="13.09987688453256" class="delaunay-line"/>
<line x1="18.550838778855905" y1="13.09987688453256" x2="14.853553390593273" y2="16.146446609406727" class="delaunay-line"/>
<line x1="14.853553390593273" y1="16.146446609406727" x2="14.961939766255645" y2="16.308658283817454" class="delaunay-line"/>
<line x1="14.853553390593273" y1="16.146446609406727" x2="18.550838778855905" y2="13.09987688453256" class="delaunay-line"/>
<line x1="18.550838778855905" y1="13.09987688453256" x2="14.691341716182544" y2="16.038060233744357" class="delaunay-line"/>
<line x1="14.691341716182544" y1="16.038060233744357" x2="14.853553390593273" y2="16.146446609406727" class="delaunay-line"/>
<line x1="14.691341716182544" y1="16.038060233744357" x2="18.550838778855905" y2="13.09987688453256" class="delaunay-line"/>
<line x1="18.550838778855905" y1="13.09987688453256" x2="14.5" y2="16" class="delaunay-line"/>
<line x1="14.5" y1="16" x2="14.691341716182544" y2="16.038060233744357" class="delaunay-line"/>
<line x1="14.5" y1="16" x2="14.5" y2="7" class="delaunay-line"/>
<line x1="14.5" y1="7" x2="14.308658283817456" y2="16.038060233744357" class="delaunay-line"/>
<line x1="14.308658283817456" y1="16.038060233744357" x2="14.5" y2="16" class="delaunay-line"/>
<line x1="8.565263096110025" y1="6.995722430686905" x2="14.038060233744355" y2="16.308658283817454" class="delaunay-line"/>
<line x1="14.038060233744355" y1="16.308658283817454" x2="14.146446609406727" y2="16.146446609406727" class="delaunay-line"/>
<line x1="14.146446609406727" y1="16.146446609406727" x2="8.565263096110025" y2="6.995722430686905" class="delaunay-line"/>
<line x1="14.961939766255645" y1="16.691341716182546" x2="18.550838778855905" y2="13.09987688453256" class="delaunay-line"/>
<line x1="18.550838778855905" y1="13.09987688453256" x2="15" y2="16.5" class="delaunay-line"/>
<line x1="15" y1="16.5" x2="14.961939766255645" y2="16.691341716182546" class="delaunay-line"/>
<line x1="24" y1="24" x2="18.550838778855905" y2="13.09987688453256" class="delaunay-line"/>
<line x1="18.550838778855905" y1="13.09987688453256" x2="14.961939766255645" y2="16.691341716182546" class="delaunay-line"/>
<line x1="14.961939766255645" y1="16.691341716182546" x2="24" y2="24" class="delaunay-line"/>
<line x1="14" y1="16.5" x2="8.158533933442646" y2="19.099876884532563" class="delaunay-line"/>
<line x1="8.158533933442646" y1="19.099876884532563" x2="14.038060233744355" y2="16.691341716182546" class="delaunay-line"/>
<line x1="14.038060233744355" y1="16.691341716182546" x2="14" y2="16.5" class="delaunay-line"/>
<line x1="14.038060233744355" y1="16.691341716182546" x2="8.158533933442646" y2="19.099876884532563" class="delaunay-line"/>
<line x1="8.158533933442646" y1="19.099876884532563" x2="14.146446609406727" y2="16.853553390593273" class="delaunay-line"/>
<line x1="14.146446609406727" y1="16.853553390593273" x2="14.038060233744355" y2="16.691341716182546" class="delaunay-line"/>
<line x1="14.146446609406727" y1="16.853553390593273" x2="8.158533933442646" y2="19.099876884532563" class="delaunay-line"/>
<line x1="8.158533933442646" y1="19.099876884532563" x2="14.308658283817456" y2="16.961939766255643" class="delaunay-line"/>
<line x1="14.308658283817456" y1="16.961939766255643" x2="14.146446609406727" y2="16.853553390593273" class="delaunay-line"/>
<line x1="14.308658283817456" y1="16.961939766255643" x2="8.158533933442646" y2="19.099876884532563" class="delaunay-line"/>
<line x1="8.158533933442646" y1="19.099876884532563" x2="14.5" y2="17" class="delaunay-line"/>
<line x1="14.5" y1="17" x2="14.308658283817456" y2="16.961939766255643" class="delaunay-line"/>
<line x1="14.5" y1="17" x2="24" y2="24" class="delaunay-line"/>
<line x1="24" y1="24" x2="14.691341716182544" y2="16.961939766255643" class="delaunay-line"/>
<line x1="14.691341716182544" y1="16.961939766255643" x2="14.5" y2="17" class="delaunay-line"/>
<line x1="14.038060233744355" y1="16.308658283817454" x2="8.158533933442646" y2="19.099876884532563" class="delaunay-line"/>
<line x1="8.158533933442646" y1="19.099876884532563" x2="14" y2="16.5" class="delaunay-line"/>
<line x1="14" y1="16.5" x2="14.038060233744355" y2="16.308658283817454" class="delaunay-line"/>
<line x1="8.565263096110025" y1="6.995722430686905" x2="8.158533933442646" y2="19.099876884532563" class="delaunay-line"/>
<line x1="8.158533933442646" y1="19.099876884532563" x2="14.038060233744355" y2="16.308658283817454" class="delaunay-line"/>
<line x1="14.038060233744355" y1="16.308658283817454" x2="8.565263096110025" y2="6.995722430686905" class="delaunay-line"/>
<line x1="8.75" y1="6.93301270189222" x2="14.146446609406727" y2="16.146446609406727" class="delaunay-line"/>
<line x1="14.146446609406727" y1="16.146446609406727" x2="14.308658283817456" y2="16.038060233744357" class="delaunay-line"/>
<line x1="14.308658283817456" y1="16.038060233744357" x2="8.75" y2="6.93301270189222" class="delaunay-line"/>
<line x1="18.550838778855905" y1="13.09987688453256" x2="14.5" y2="7" class="delaunay-line"/>
<line x1="14.5" y1="7" x2="14.5" y2="16" class="delaunay-line"/>
<line x1="14.5" y1="16" x2="18.550838778855905" y2="13.09987688453256" class="delaunay-line"/>
<line x1="14.5" y1="7" x2="14.308658283817454" y2="6.961939766255643" class="delaunay-line"/>
<line x1="14.308658283817454" y1="6.961939766255643" x2="14.308658283817456" y2="16.038060233744357" class="delaunay-line"/>
<line x1="14.308658283817456" y1="16.038060233744357" x2="14.5" y2="7" class="delaunay-line"/>
<line x1="18.550838778855905" y1="13.09987688453256" x2="14.691341716182546" y2="6.961939766255643" class="delaunay-line"/>
<line x1="14.691341716182546" y1="6.961939766255643" x2="14.5" y2="7" class="delaunay-line"/>
<line x1="14.5" y1="7" x2="18.550838778855905" y2="13.09987688453256" class="delaunay-line"/>
<line x1="14.5" y1="7" x2="14.146446609406727" y2="6.853553390593273" class="delaunay-line"/>
<line x1="14.146446609406727" y1="6.853553390593273" x2="14.308658283817454" y2="6.961939766255643" class="delaunay-line"/>
<line x1="14.308658283817454" y1="6.961939766255643" x2="14.5" y2="7" class="delaunay-line"/>
<line x1="14.853553390593273" y1="6.853553390593273" x2="14.146446609406727" y2="6.853553390593273" class="delaunay-line"/>
<line x1="14.146446609406727" y1="6.853553390593273" x2="14.5" y2="7" class="delaunay-line"/>
<line x1="14.5" y1="7" x2="14.853553390593273" y2="6.853553390593273" class="delaunay-line"/>
<line x1="14.308658283817454" y1="6.961939766255643" x2="8.75" y2="6.93301270189222" class="delaunay-line"/>
<line x1="8.75" y1="6.93301270189222" x2="14.308658283817456" y2="16.038060233744357" class="delaunay-line"/>
<line x1="14.308658283817456" y1="16.038060233744357" x2="14.308658283817454" y2="6.961939766255643" class="delaunay-line"/>
<line x1="18.550838778855905" y1="13.09987688453256" x2="14.853553390593273" y2="6.853553390593273" class="delaunay-line"/>
<line x1="14.853553390593273" y1="6.853553390593273" x2="14.691341716182546" y2="6.961939766255643" class="delaunay-line"/>
<line x1="14.691341716182546" y1="6.961939766255643" x2="18.550838778855905" y2="13.09987688453256" class="delaunay-line"/>
<line x1="14.691341716182546" y1="6.961939766255643" x2="14.853553390593273" y2="6.853553390593273" class="delaunay-line"/>
<line x1="14.853553390593273" y1="6.853553390593273" x2="14.5" y2="7" class="delaunay-line"/>
<line x1="14.5" y1="7" x2="14.691341716182546" y2="6.961939766255643" class="delaunay-line"/>
<line x1="14" y1="6.5" x2="14.038060233744357" y2="6.691341716182546" class="delaunay-line"/>
<line x1="14.038060233744357" y1="6.691341716182546" x2="14.146446609406727" y2="6.853553390593273" class="delaunay-line"/>
<line x1="14.146446609406727" y1="6.853553390593273" x2="14" y2="6.5" class="delaunay-line"/>
<line x1="14.146446609406727" y1="6.853553390593273" x2="8.75" y2="6.93301270189222" class="delaunay-line"/>
<line x1="8.75" y1="6.93301270189222" x2="14.308658283817454" y2="6.961939766255643" class="delaunay-line"/>
<line x1="14.308658283817454" y1="6.961939766255643" x2="14.146446609406727" y2="6.853553390593273" class="delaunay-line"/>
<line x1="18.550838778855905" y1="13.09987688453256" x2="14.961939766255643" y2="6.691341716182546" class="delaunay-line"/>
<line x1="14.961939766255643" y1="6.691341716182546" x2="14.853553390593273" y2="6.853553390593273" class="delaunay-line"/>
<line x1="14.853553390593273" y1="6.853553390593273" x2="18.550838778855905" y2="13.09987688453256" class="delaunay-line"/>
<line x1="14.038060233744357" y1="6.308658283817454" x2="14" y2="6.5" class="delaunay-line"/>
<line x1="14" y1="6.5" x2="14.146446609406727" y2="6.146446609406727" class="delaunay-line"/>
<line x1="14.146446609406727" y1="6.146446609406727" x2="14.038060233744357" y2="6.308658283817454" class="delaunay-line"/>
<line x1="14" y1="6.5" x2="14.146446609406727" y2="6.853553390593273" class="delaunay-line"/>
<line x1="14.146446609406727" y1="6.853553390593273" x2="14.146446609406727" y2="6.146446609406727" class="delaunay-line"/>
<line x1="14.146446609406727" y1="6.146446609406727" x2="14" y2="6.5" class="delaunay-line"/>
<line x1="8.896676670145617" y1="6.8043807145043615" x2="8.75" y2="6.93301270189222" class="delaunay-line"/>
<line x1="8.75" y1="6.93301270189222" x2="14.146446609406727" y2="6.853553390593273" class="delaunay-line"/>
<line x1="14.146446609406727" y1="6.853553390593273" x2="8.896676670145617" y2="6.8043807145043615" class="delaunay-line"/>
<line x1="18.550838778855905" y1="13.09987688453256" x2="15" y2="6.5" class="delaunay-line"/>
<line x1="15" y1="6.5" x2="14.961939766255643" y2="6.691341716182546" class="delaunay-line"/>
<line x1="14.961939766255643" y1="6.691341716182546" x2="18.550838778855905" y2="13.09987688453256" class="delaunay-line"/>
<line x1="14.961939766255643" y1="6.691341716182546" x2="15" y2="6.5" class="delaunay-line"/>
<line x1="15" y1="6.5" x2="14.853553390593273" y2="6.853553390593273" class="delaunay-line"/>
<line x1="14.853553390593273" y1="6.853553390593273" x2="14.961939766255643" y2="6.691341716182546" class="delaunay-line"/>
<line x1="14.146446609406727" y1="6.146446609406727" x2="14.146446609406727" y2="6.853553390593273" class="delaunay-line"/>
<line x1="14.146446609406727" y1="6.853553390593273" x2="14.853553390593273" y2="6.146446609406727" class="delaunay-line"/>
<line x1="14.853553390593273" y1="6.146446609406727" x2="14.146446609406727" y2="6.146446609406727" class="delaunay-line"/>
<line x1="8.896676670145617" y1="6.8043807145043615" x2="14.146446609406727" y2="6.853553390593273" class="delaunay-line"/>
<line x1="14.146446609406727" y1="6.853553390593273" x2="14.038060233744357" y2="6.691341716182546" class="delaunay-line"/>
<line x1="14.038060233744357" y1="6.691341716182546" x2="8.896676670145617" y2="6.8043807145043615" class="delaunay-line"/>
<line x1="24" y1="0" x2="14.961939766255643" y2="6.308658283817454" class="delaunay-line"/>
<line x1="14.961939766255643" y1="6.308658283817454" x2="15" y2="6.5" class="delaunay-line"/>
<line x1="15" y1="6.5" x2="24" y2="0" class="delaunay-line"/>
<line x1="15" y1="6.5" x2="14.853553390593273" y2="6.146446609406727" class="delaunay-line"/>
<line x1="14.853553390593273" y1="6.146446609406727" x2="14.853553390593273" y2="6.853553390593273" class="delaunay-line"/>
<line x1="14.853553390593273" y1="6.853553390593273" x2="15" y2="6.5" class="delaunay-line"/>
<line x1="14.853553390593273" y1="6.146446609406727" x2="14.146446609406727" y2="6.853553390593273" class="delaunay-line"/>
<line x1="14.146446609406727" y1="6.853553390593273" x2="14.853553390593273" y2="6.853553390593273" class="delaunay-line"/>
<line x1="14.853553390593273" y1="6.853553390593273" x2="14.853553390593273" y2="6.146446609406727" class="delaunay-line"/>
<line x1="14.961939766255643" y1="6.308658283817454" x2="14.853553390593273" y2="6.146446609406727" class="delaunay-line"/>
<line x1="14.853553390593273" y1="6.146446609406727" x2="15" y2="6.5" class="delaunay-line"/>
<line x1="15" y1="6.5" x2="14.961939766255643" y2="6.308658283817454" class="delaunay-line"/>
<line x1="14.5" y1="6" x2="14.308658283817454" y2="6.038060233744357" class="delaunay-line"/>
<line x1="14.308658283817454" y1="6.038060233744357" x2="14.146446609406727" y2="6.146446609406727" class="delaunay-line"/>
<line x1="14.146446609406727" y1="6.146446609406727" x2="14.5" y2="6" class="delaunay-line"/>
<line x1="14.853553390593273" y1="6.146446609406727" x2="14.5" y2="6" class="delaunay-line"/>
<line x1="14.5" y1="6" x2="14.146446609406727" y2="6.146446609406727" class="delaunay-line"/>
<line x1="14.146446609406727" y1="6.146446609406727" x2="14.853553390593273" y2="6.146446609406727" class="delaunay-line"/>
<line x1="14.691341716182546" y1="6.038060233744357" x2="14.5" y2="6" class="delaunay-line"/>
<line x1="14.5" y1="6" x2="14.853553390593273" y2="6.146446609406727" class="delaunay-line"/>
<line x1="14.853553390593273" y1="6.146446609406727" x2="14.691341716182546" y2="6.038060233744357" class="delaunay-line"/>
<line x1="14.038060233744357" y1="6.308658283817454" x2="8.995722430686904" y2="6.4347369038899735" class="delaunay-line"/>
<line x1="8.995722430686904" y1="6.4347369038899735" x2="14" y2="6.5" class="delaunay-line"/>
<line x1="14" y1="6.5" x2="14.038060233744357" y2="6.308658283817454" class="delaunay-line"/>
<line x1="14" y1="6.5" x2="8.995722430686904" y2="6.4347369038899735" class="delaunay-line"/>
<line x1="8.995722430686904" y1="6.4347369038899735" x2="8.982962913144535" y2="6.629409522551261" class="delaunay-line"/>
<line x1="8.982962913144535" y1="6.629409522551261" x2="14" y2="6.5" class="delaunay-line"/>
<line x1="14.038060233744357" y1="6.691341716182546" x2="14" y2="6.5" class="delaunay-line"/>
<line x1="14" y1="6.5" x2="8.982962913144535" y2="6.629409522551261" class="delaunay-line"/>
<line x1="8.982962913144535" y1="6.629409522551261" x2="14.038060233744357" y2="6.691341716182546" class="delaunay-line"/>
<line x1="8.896676670145617" y1="6.8043807145043615" x2="14.038060233744357" y2="6.691341716182546" class="delaunay-line"/>
<line x1="14.038060233744357" y1="6.691341716182546" x2="8.982962913144535" y2="6.629409522551261" class="delaunay-line"/>
<line x1="8.982962913144535" y1="6.629409522551261" x2="8.896676670145617" y2="6.8043807145043615" class="delaunay-line"/>
<line x1="14.038060233744357" y1="6.308658283817454" x2="8.93301270189222" y2="6.250000000000001" class="delaunay-line"/>
<line x1="8.93301270189222" y1="6.250000000000001" x2="8.995722430686904" y2="6.4347369038899735" class="delaunay-line"/>
<line x1="8.995722430686904" y1="6.4347369038899735" x2="14.038060233744357" y2="6.308658283817454" class="delaunay-line"/>
<line x1="8.896676670145617" y1="6.8043807145043615" x2="8.565263096110025" y2="6.995722430686905" class="delaunay-line"/>
<line x1="8.565263096110025" y1="6.995722430686905" x2="8.75" y2="6.93301270189222" class="delaunay-line"/>
<line x1="8.75" y1="6.93301270189222" x2="8.896676670145617" y2="6.8043807145043615" class="delaunay-line"/>
<line x1="8.75" y1="6.93301270189222" x2="8.565263096110025" y2="6.995722430686905" class="delaunay-line"/>
<line x1="8.565263096110025" y1="6.995722430686905" x2="14.146446609406727" y2="16.146446609406727" class="delaunay-line"/>
<line x1="14.146446609406727" y1="16.146446609406727" x2="8.75" y2="6.93301270189222" class="delaunay-line"/>
<line x1="14.038060233744357" y1="6.308658283817454" x2="14.146446609406727" y2="6.146446609406727" class="delaunay-line"/>
<line x1="14.146446609406727" y1="6.146446609406727" x2="8.93301270189222" y2="6.250000000000001" class="delaunay-line"/>
<line x1="8.93301270189222" y1="6.250000000000001" x2="14.038060233744357" y2="6.308658283817454" class="delaunay-line"/>
<line x1="8.896676670145617" y1="6.8043807145043615" x2="8.995722430686904" y2="6.4347369038899735" class="delaunay-line"/>
<line x1="8.995722430686904" y1="6.4347369038899735" x2="8.565263096110025" y2="6.995722430686905" class="delaunay-line"/>
<line x1="8.565263096110025" y1="6.995722430686905" x2="8.896676670145617" y2="6.8043807145043615" class="delaunay-line"/>
<line x1="8.19561928549564" y1="6.8966766701456175" x2="8.37059047744874" y2="6.982962913144534" class="delaunay-line"/>
<line x1="8.37059047744874" y1="6.982962913144534" x2="8.565263096110025" y2="6.995722430686905" class="delaunay-line"/>
<line x1="8.565263096110025" y1="6.995722430686905" x2="8.19561928549564" y2="6.8966766701456175" class="delaunay-line"/>
<line x1="8.565263096110025" y1="6.995722430686905" x2="8.37059047744874" y2="6.982962913144534" class="delaunay-line"/>
<line x1="8.37059047744874" y1="6.982962913144534" x2="8.158533933442646" y2="19.099876884532563" class="delaunay-line"/>
<line x1="8.158533933442646" y1="19.099876884532563" x2="8.565263096110025" y2="6.995722430686905" class="delaunay-line"/>
<line x1="8.93301270189222" y1="6.250000000000001" x2="14.146446609406727" y2="6.146446609406727" class="delaunay-line"/>
<line x1="14.146446609406727" y1="6.146446609406727" x2="8.80438071450436" y2="6.1033233298543825" class="delaunay-line"/>
<line x1="8.80438071450436" y1="6.1033233298543825" x2="8.93301270189222" y2="6.250000000000001" class="delaunay-line"/>
<line x1="8.982962913144535" y1="6.629409522551261" x2="8.995722430686904" y2="6.4347369038899735" class="delaunay-line"/>
<line x1="8.995722430686904" y1="6.4347369038899735" x2="8.896676670145617" y2="6.8043807145043615" class="delaunay-line"/>
<line x1="8.896676670145617" y1="6.8043807145043615" x2="8.982962913144535" y2="6.629409522551261" class="delaunay-line"/>
<line x1="8.004277569313096" y1="6.5652630961100265" x2="8.19561928549564" y2="6.8966766701456175" class="delaunay-line"/>
<line x1="8.19561928549564" y1="6.8966766701456175" x2="8.565263096110025" y2="6.995722430686905" class="delaunay-line"/>
<line x1="8.565263096110025" y1="6.995722430686905" x2="8.004277569313096" y2="6.5652630961100265" class="delaunay-line"/>
<line x1="8.37059047744874" y1="6.982962913144534" x2="8.19561928549564" y2="6.8966766701456175" class="delaunay-line"/>
<line x1="8.19561928549564" y1="6.8966766701456175" x2="8.158533933442646" y2="19.099876884532563" class="delaunay-line"/>
<line x1="8.158533933442646" y1="19.099876884532563" x2="8.37059047744874" y2="6.982962913144534" class="delaunay-line"/>
<line x1="8.80438071450436" y1="6.1033233298543825" x2="14.146446609406727" y2="6.146446609406727" class="delaunay-line"/>
<line x1="14.146446609406727" y1="6.146446609406727" x2="11.0508387788559" y2="0.10949582776598188" class="delaunay-line"/>
<line x1="11.0508387788559" y1="0.10949582776598188" x2="8.80438071450436" y2="6.1033233298543825" class="delaunay-line"/>
<line x1="8.004277569313096" y1="6.5652630961100265" x2="8.06698729810778" y2="6.749999999999999" class="delaunay-line"/>
<line x1="8.06698729810778" y1="6.749999999999999" x2="8.19561928549564" y2="6.8966766701456175" class="delaunay-line"/>
<line x1="8.19561928549564" y1="6.8966766701456175" x2="8.004277569313096" y2="6.5652630961100265" class="delaunay-line"/>
<line x1="8.004277569313096" y1="6.5652630961100265" x2="8.565263096110025" y2="6.995722430686905" class="delaunay-line"/>
<line x1="8.565263096110025" y1="6.995722430686905" x2="8.995722430686904" y2="6.4347369038899735" class="delaunay-line"/>
<line x1="8.995722430686904" y1="6.4347369038899735" x2="8.004277569313096" y2="6.5652630961100265" class="delaunay-line"/>
<line x1="8.19561928549564" y1="6.8966766701456175" x2="0.658533933442639" y2="6.109495827765988" class="delaunay-line"/>
<line x1="0.658533933442639" y1="6.109495827765988" x2="8.158533933442646" y2="19.099876884532563" class="delaunay-line"/>
<line x1="8.158533933442646" y1="19.099876884532563" x2="8.19561928549564" y2="6.8966766701456175" class="delaunay-line"/>
<line x1="8.62940952255126" y1="6.017037086855466" x2="8.80438071450436" y2="6.1033233298543825" class="delaunay-line"/>
<line x1="8.80438071450436" y1="6.1033233298543825" x2="11.0508387788559" y2="0.10949582776598188" class="delaunay-line"/>
<line x1="11.0508387788559" y1="0.10949582776598188" x2="8.62940952255126" y2="6.017037086855466" class="delaunay-line"/>
<line x1="8.93301270189222" y1="6.250000000000001" x2="8.80438071450436" y2="6.1033233298543825" class="delaunay-line"/>
<line x1="8.80438071450436" y1="6.1033233298543825" x2="8.995722430686904" y2="6.4347369038899735" class="delaunay-line"/>
<line x1="8.995722430686904" y1="6.4347369038899735" x2="8.93301270189222" y2="6.250000000000001" class="delaunay-line"/>
<line x1="8.434736903889975" y1="6.004277569313095" x2="8.004277569313096" y2="6.5652630961100265" class="delaunay-line"/>
<line x1="8.004277569313096" y1="6.5652630961100265" x2="8.995722430686904" y2="6.4347369038899735" class="delaunay-line"/>
<line x1="8.995722430686904" y1="6.4347369038899735" x2="8.434736903889975" y2="6.004277569313095" class="delaunay-line"/>
<line x1="0.658533933442639" y1="6.109495827765988" x2="0" y2="24" class="delaunay-line"/>
<line x1="0" y1="24" x2="8.158533933442646" y2="19.099876884532563" class="delaunay-line"/>
<line x1="8.158533933442646" y1="19.099876884532563" x2="0.658533933442639" y2="6.109495827765988" class="delaunay-line"/>
<line x1="11.0508387788559" y1="0.10949582776598188" x2="14.146446609406727" y2="6.146446609406727" class="delaunay-line"/>
<line x1="14.146446609406727" y1="6.146446609406727" x2="14.308658283817454" y2="6.038060233744357" class="delaunay-line"/>
<line x1="14.308658283817454" y1="6.038060233744357" x2="11.0508387788559" y2="0.10949582776598188" class="delaunay-line"/>
<line x1="8.80438071450436" y1="6.1033233298543825" x2="8.434736903889975" y2="6.004277569313095" class="delaunay-line"/>
<line x1="8.434736903889975" y1="6.004277569313095" x2="8.995722430686904" y2="6.4347369038899735" class="delaunay-line"/>
<line x1="8.995722430686904" y1="6.4347369038899735" x2="8.80438071450436" y2="6.1033233298543825" class="delaunay-line"/>
<line x1="8.103323329854383" y1="6.1956192854956385" x2="8.017037086855465" y2="6.370590477448739" class="delaunay-line"/>
<line x1="8.017037086855465" y1="6.370590477448739" x2="8.004277569313096" y2="6.5652630961100265" class="delaunay-line"/>
<line x1="8.004277569313096" y1="6.5652630961100265" x2="8.103323329854383" y2="6.1956192854956385" class="delaunay-line"/>
<line x1="14.691341716182544" y1="16.961939766255643" x2="24" y2="24" class="delaunay-line"/>
<line x1="24" y1="24" x2="14.853553390593273" y2="16.853553390593273" class="delaunay-line"/>
<line x1="14.853553390593273" y1="16.853553390593273" x2="14.691341716182544" y2="16.961939766255643" class="delaunay-line"/>
<line x1="14.853553390593273" y1="16.853553390593273" x2="24" y2="24" class="delaunay-line"/>
<line x1="24" y1="24" x2="14.961939766255645" y2="16.691341716182546" class="delaunay-line"/>
<line x1="14.961939766255645" y1="16.691341716182546" x2="14.853553390593273" y2="16.853553390593273" class="delaunay-line"/>
<line x1="8.158533933442646" y1="19.099876884532563" x2="24" y2="24" class="delaunay-line"/>
<line x1="24" y1="24" x2="14.5" y2="17" class="delaunay-line"/>
<line x1="14.5" y1="17" x2="8.158533933442646" y2="19.099876884532563" class="delaunay-line"/>
<line x1="11.0508387788559" y1="0.10949582776598188" x2="8.434736903889975" y2="6.004277569313095" class="delaunay-line"/>
<line x1="8.434736903889975" y1="6.004277569313095" x2="8.62940952255126" y2="6.017037086855466" class="delaunay-line"/>
<line x1="8.62940952255126" y1="6.017037086855466" x2="11.0508387788559" y2="0.10949582776598188" class="delaunay-line"/>
<line x1="8.62940952255126" y1="6.017037086855466" x2="8.434736903889975" y2="6.004277569313095" class="delaunay-line"/>
<line x1="8.434736903889975" y1="6.004277569313095" x2="8.80438071450436" y2="6.1033233298543825" class="delaunay-line"/>
<line x1="8.80438071450436" y1="6.1033233298543825" x2="8.62940952255126" y2="6.017037086855466" class="delaunay-line"/>
<line x1="8.434736903889975" y1="6.004277569313095" x2="8.103323329854383" y2="6.1956192854956385" class="delaunay-line"/>
<line x1="8.103323329854383" y1="6.1956192854956385" x2="8.004277569313096" y2="6.5652630961100265" class="delaunay-line"/>
<line x1="8.004277569313096" y1="6.5652630961100265" x2="8.434736903889975" y2="6.004277569313095" class="delaunay-line"/>
<line x1="8.434736903889975" y1="6.004277569313095" x2="8.25" y2="6.06698729810778" class="delaunay-line"/>
<line x1="8.25" y1="6.06698729810778" x2="8.103323329854383" y2="6.1956192854956385" class="delaunay-line"/>
<line x1="8.103323329854383" y1="6.1956192854956385" x2="8.434736903889975" y2="6.004277569313095" class="delaunay-line"/>
<line x1="0.658533933442639" y1="6.109495827765988" x2="8.19561928549564" y2="6.8966766701456175" class="delaunay-line"/>
<line x1="8.19561928549564" y1="6.8966766701456175" x2="8.06698729810778" y2="6.749999999999999" class="delaunay-line"/>
<line x1="8.06698729810778" y1="6.749999999999999" x2="0.658533933442639" y2="6.109495827765988" class="delaunay-line"/>
<line x1="8.158533933442646" y1="19.099876884532563" x2="0" y2="24" class="delaunay-line"/>
<line x1="0" y1="24" x2="24" y2="24" class="delaunay-line"/>
<line x1="24" y1="24" x2="8.158533933442646" y2="19.099876884532563" class="delaunay-line"/>
<line x1="0.658533933442639" y1="6.109495827765988" x2="8.06698729810778" y2="6.749999999999999" class="delaunay-line"/>
<line x1="8.06698729810778" y1="6.749999999999999" x2="8.004277569313096" y2="6.5652630961100265" class="delaunay-line"/>
<line x1="8.004277569313096" y1="6.5652630961100265" x2="0.658533933442639" y2="6.109495827765988" class="delaunay-line"/>
<line x1="8.103323329854383" y1="6.1956192854956385" x2="0.658533933442639" y2="6.109495827765988" class="delaunay-line"/>
<line x1="0.658533933442639" y1="6.109495827765988" x2="8.017037086855465" y2="6.370590477448739" class="delaunay-line"/>
<line x1="8.017037086855465" y1="6.370590477448739" x2="8.103323329854383" y2="6.1956192854956385" class="delaunay-line"/>
<line x1="0" y1="0" x2="0.658533933442639" y2="6.109495827765988" class="delaunay-line"/>
<line x1="0.658533933442639" y1="6.109495827765988" x2="8.103323329854383" y2="6.1956192854956385" class="delaunay-line"/>
<line x1="8.103323329854383" y1="6.1956192854956385" x2="0" y2="0" class="delaunay-line"/>
<line x1="8.434736903889975" y1="6.004277569313095" x2="11.0508387788559" y2="0.10949582776598188" class="delaunay-line"/>
<line x1="11.0508387788559" y1="0.10949582776598188" x2="8.25" y2="6.06698729810778" class="delaunay-line"/>
<line x1="8.25" y1="6.06698729810778" x2="8.434736903889975" y2="6.004277569313095" class="delaunay-line"/>
<line x1="14.5" y1="6" x2="11.0508387788559" y2="0.10949582776598188" class="delaunay-line"/>
<line x1="11.0508387788559" y1="0.10949582776598188" x2="14.308658283817454" y2="6.038060233744357" class="delaunay-line"/>
<line x1="14.308658283817454" y1="6.038060233744357" x2="14.5" y2="6" class="delaunay-line"/>
<line x1="14.691341716182546" y1="6.038060233744357" x2="11.0508387788559" y2="0.10949582776598188" class="delaunay-line"/>
<line x1="11.0508387788559" y1="0.10949582776598188" x2="14.5" y2="6" class="delaunay-line"/>
<line x1="14.5" y1="6" x2="14.691341716182546" y2="6.038060233744357" class="delaunay-line"/>
<line x1="24" y1="0" x2="11.0508387788559" y2="0.10949582776598188" class="delaunay-line"/>
<line x1="11.0508387788559" y1="0.10949582776598188" x2="14.691341716182546" y2="6.038060233744357" class="delaunay-line"/>
<line x1="14.691341716182546" y1="6.038060233744357" x2="24" y2="0" class="delaunay-line"/>
<line x1="24" y1="0" x2="14.691341716182546" y2="6.038060233744357" class="delaunay-line"/>
<line x1="14.691341716182546" y1="6.038060233744357" x2="14.853553390593273" y2="6.146446609406727" class="delaunay-line"/>
<line x1="14.853553390593273" y1="6.146446609406727" x2="24" y2="0" class="delaunay-line"/>
<line x1="0" y1="0" x2="8.103323329854383" y2="6.1956192854956385" class="delaunay-line"/>
<line x1="8.103323329854383" y1="6.1956192854956385" x2="8.25" y2="6.06698729810778" class="delaunay-line"/>
<line x1="8.25" y1="6.06698729810778" x2="0" y2="0" class="delaunay-line"/>
<line x1="8.017037086855465" y1="6.370590477448739" x2="0.658533933442639" y2="6.109495827765988" class="delaunay-line"/>
<line x1="0.658533933442639" y1="6.109495827765988" x2="8.004277569313096" y2="6.5652630961100265" class="delaunay-line"/>
<line x1="8.004277569313096" y1="6.5652630961100265" x2="8.017037086855465" y2="6.370590477448739" class="delaunay-line"/>
<line x1="18.550838778855905" y1="13.09987688453256" x2="24" y2="0" class="delaunay-line"/>
<line x1="24" y1="0" x2="15" y2="6.5" class="delaunay-line"/>
<line x1="15" y1="6.5" x2="18.550838778855905" y2="13.09987688453256" class="delaunay-line"/>
<line x1="14.961939766255643" y1="6.308658283817454" x2="24" y2="0" class="delaunay-line"/>
<line x1="24" y1="0" x2="14.853553390593273" y2="6.146446609406727" class="delaunay-line"/>
<line x1="14.853553390593273" y1="6.146446609406727" x2="14.961939766255643" y2="6.308658283817454" class="delaunay-line"/>
<line x1="24" y1="24" x2="24" y2="0" class="delaunay-line"/>
<line x1="24" y1="0" x2="18.550838778855905" y2="13.09987688453256" class="delaunay-line"/>
<line x1="18.550838778855905" y1="13.09987688453256" x2="24" y2="24" class="delaunay-line"/>
<line x1="24" y1="0" x2="0" y2="0" class="delaunay-line"/>
<line x1="0" y1="0" x2="11.0508387788559" y2="0.10949582776598188" class="delaunay-line"/>
<line x1="11.0508387788559" y1="0.10949582776598188" x2="24" y2="0" class="delaunay-line"/>
<line x1="11.0508387788559" y1="0.10949582776598188" x2="0" y2="0" class="delaunay-line"/>
<line x1="0" y1="0" x2="8.25" y2="6.06698729810778" class="delaunay-line"/>
<line x1="8.25" y1="6.06698729810778" x2="11.0508387788559" y2="0.10949582776598188" class="delaunay-line"/>
<line x1="0.658533933442639" y1="6.109495827765988" x2="0" y2="0" class="delaunay-line"/>
<line x1="0" y1="0" x2="0" y2="24" class="delaunay-line"/>
<line x1="0" y1="24" x2="0.658533933442639" y2="6.109495827765988" class="delaunay-line"/>
</g>
<g id="layer-area" class="layer ">
<polygon points="0.658533933442639,6.109495827765988 11.0508387788559,0.10949582776598188 18.550838778855905,13.09987688453256 8.158533933442646,19.099876884532563" class="terrain-area"/>
<text x="9.604686356149273" y="9.604686356149273" class="label">#C49A6C</text>
</g>
<g id="layer-building" class="layer ">
<polygon points="23.443171946392194,10.661259309121395 22.407895765982108,14.524962614277669 16.612340808247698,12.972048343662543 17.647616988657784,9.108345038506268" class="terrain-solid"/>
<text x="20.027756377319946" y="11.81665382639197" class="label">#000000</text>
</g>
<g id="layer-wall" class="layer ">
<polygon points="8.031128874149275,12.593386622447824 8.031128874149275,13.593386622447824 0.031128874149274566,13.593386622447824 0.031128874149274566,12.593386622447824" class="terrain-solid"/>
<text x="4.031128874149275" y="13.093386622447824" class="label">#555555</text>
</g>
<g id="layer-tree" class="layer ">
</g>
<g id="layer-rocks" class="layer ">
</g>
<g id="layer-shrub" class="layer ">
<polygon points="8.62940952255126,6.017037086855466 8.80438071450436,6.1033233298543825 8.93301270189222,6.250000000000001 8.995722430686904,6.4347369038899735 8.982962913144535,6.629409522551261 8.896676670145617,6.8043807145043615 8.75,6.93301270189222 8.565263096110025,6.995722430686905 8.37059047744874,6.982962913144534 8.19561928549564,6.8966766701456175 8.06698729810778,6.749999999999999 8.004277569313096,6.5652630961100265 8.017037086855465,6.370590477448739 8.103323329854383,6.1956192854956385 8.25,6.06698729810778 8.434736903889975,6.004277569313095" class="terrain-solid"/>
<text x="8.5" y="6.5" class="label">#006400</text>
<polygon points="14.146446609406727,16.853553390593273 14.038060233744355,16.691341716182546 14,16.5 14.038060233744355,16.308658283817454 14.146446609406727,16.146446609406727 14.308658283817456,16.038060233744357 14.5,16 14.691341716182544,16.038060233744357 14.853553390593273,16.146446609406727 14.961939766255645,16.308658283817454 15,16.5 14.961939766255645,16.691341716182546 14.853553390593273,16.853553390593273 14.691341716182544,16.961939766255643 14.5,17 14.308658283817456,16.961939766255643" class="terrain-solid"/>
<text x="14.500000000000002" y="16.5" class="label">#006400</text>
<polygon points="14.5,7 14.308658283817454,6.961939766255643 14.146446609406727,6.853553390593273 14.038060233744357,6.691341716182546 14,6.5 14.038060233744357,6.308658283817454 14.146446609406727,6.146446609406727 14.308658283817454,6.038060233744357 14.5,6 14.691341716182546,6.038060233744357 14.853553390593273,6.146446609406727 14.961939766255643,6.308658283817454 15,6.5 14.961939766255643,6.691341716182546 14.853553390593273,6.853553390593273 14.691341716182546,6.961939766255643" class="terrain-solid"/>
<text x="14.5" y="6.5" class="label">#006400</text>
</g>
<g id="layer-terrain" class="layer ">
</g>
<g id="layer-models" class="layer ">
<circle cx="2" cy="19.525110317941426" r="0.5" fill="#2a9d8f" class="model"/>
<text x="2.7" y="19.525110317941426" class="label">Attacker</text>
<circle cx="22" cy="19.525110317941426" r="0.5" fill="#e76f51" class="model"/>
<text x="22.7" y="19.525110317941426" class="label">Target</text>
<circle cx="8" cy="19.525110317941426" r="0.5" fill="#f4a261" class="model"/>
<text x="8.7" y="19.525110317941426" class="label">SIZ 3</text>
<circle cx="12" cy="19.525110317941426" r="0.75" fill="#e9c46a" class="model"/>
<text x="12.95" y="19.525110317941426" class="label">SIZ 4</text>
<circle cx="16" cy="19.525110317941426" r="1" fill="#cdb4db" class="model"/>
<text x="17.2" y="19.525110317941426" class="label">SIZ 5</text>
</g>
<g id="layer-paths" class="layer ">
</g>
<g id="layer-vectors" class="layer ">
</g>
<g id="layer-los" class="layer ">
</g>
<g id="layer-lof" class="layer ">
<line x1="2" y1="19.525110317941426" x2="22" y2="19.525110317941426" class="lof-ray" stroke="#264653"/>
<text x="12.2" y="19.725110317941425" class="label">LOF</text>
</g>
<g id="layer-annotations" class="layer">
<text x="3" y="13" class="label" fill="#111">LOF models: attacker, target, s3, s4, s5</text>
<text x="3" y="14" class="label" fill="#111">Friendly fire: target</text>
</g>
<g id="legend">
<g class="toggle" onclick="toggleLayer('deployment')"><rect x="0.4" y="0.14999999999999997" width="0.4" height="0.4" fill="#222" stroke="#222" stroke-width="0.05"/><text x="1.0" y="0.5499999999999999" class="label">Deployment Zones</text></g>
<g class="toggle" onclick="toggleLayer('grid')"><rect x="0.4" y="0.95" width="0.4" height="0.4" fill="#222" stroke="#222" stroke-width="0.05"/><text x="1.0" y="1.3499999999999999" class="label">0.5 MU Grid</text></g>
<g class="toggle" onclick="toggleLayer('delaunay')"><rect x="0.4" y="1.7500000000000002" width="0.4" height="0.4" fill="#222" stroke="#222" stroke-width="0.05"/><text x="1.0" y="2.1500000000000004" class="label">Delaunay Mesh</text></g>
<g class="toggle" onclick="toggleLayer('area')"><rect x="0.4" y="2.55" width="0.4" height="0.4" fill="#222" stroke="#222" stroke-width="0.05"/><text x="1.0" y="2.95" class="label">Area Terrain</text></g>
<g class="toggle" onclick="toggleLayer('building')"><rect x="0.4" y="3.3499999999999996" width="0.4" height="0.4" fill="#222" stroke="#222" stroke-width="0.05"/><text x="1.0" y="3.75" class="label">Buildings</text></g>
<g class="toggle" onclick="toggleLayer('wall')"><rect x="0.4" y="4.1499999999999995" width="0.4" height="0.4" fill="#222" stroke="#222" stroke-width="0.05"/><text x="1.0" y="4.55" class="label">Walls</text></g>
<g class="toggle disabled"><rect x="0.4" y="4.949999999999999" width="0.4" height="0.4" fill="#222" stroke="#222" stroke-width="0.05"/><text x="1.0" y="5.35" class="label">Trees</text></g>
<g class="toggle disabled"><rect x="0.4" y="5.749999999999999" width="0.4" height="0.4" fill="#222" stroke="#222" stroke-width="0.05"/><text x="1.0" y="6.1499999999999995" class="label">Rocks</text></g>
<g class="toggle" onclick="toggleLayer('shrub')"><rect x="0.4" y="6.549999999999999" width="0.4" height="0.4" fill="#222" stroke="#222" stroke-width="0.05"/><text x="1.0" y="6.949999999999999" class="label">Shrubs</text></g>
<g class="toggle" onclick="toggleLayer('terrain')"><rect x="0.4" y="7.349999999999999" width="0.4" height="0.4" fill="#222" stroke="#222" stroke-width="0.05"/><text x="1.0" y="7.749999999999999" class="label">Other Terrain</text></g>
<g class="toggle" onclick="toggleLayer('models')"><rect x="0.4" y="8.15" width="0.4" height="0.4" fill="#222" stroke="#222" stroke-width="0.05"/><text x="1.0" y="8.549999999999999" class="label">Models</text></g>
<g class="toggle" onclick="toggleLayer('paths')"><rect x="0.4" y="8.950000000000001" width="0.4" height="0.4" fill="#222" stroke="#222" stroke-width="0.05"/><text x="1.0" y="9.35" class="label">Paths</text></g>
<g class="toggle" onclick="toggleLayer('vectors')"><rect x="0.4" y="9.750000000000002" width="0.4" height="0.4" fill="#222" stroke="#222" stroke-width="0.05"/><text x="1.0" y="10.15" class="label">Vectors</text></g>
<g class="toggle" onclick="toggleLayer('los')"><rect x="0.4" y="10.550000000000002" width="0.4" height="0.4" fill="#222" stroke="#222" stroke-width="0.05"/><text x="1.0" y="10.950000000000001" class="label">LOS</text></g>
<g class="toggle" onclick="toggleLayer('lof')"><rect x="0.4" y="11.350000000000003" width="0.4" height="0.4" fill="#222" stroke="#222" stroke-width="0.05"/><text x="1.0" y="11.750000000000002" class="label">LOF</text></g>
</g>
</svg>