<svg xmlns="http://www.w3.org/2000/svg" viewBox="0 0 24 24" width="960" height="960" font-family="Arial" font-size="0.6">
<defs>
  <style><![CDATA[
    .layer { display: inline; }
    .layer.hidden { display: none; }
    .grid-line { stroke: #999; stroke-width: 0.02; opacity: 0.2; }
    .delaunay-line { stroke: #4a6fa5; stroke-width: 0.03; opacity: 0.3; }
    .terrain-area { stroke: #000; stroke-width: 0.05; }
    .terrain-solid { stroke: #000; stroke-width: 0.05; }
    .model { stroke: #000; stroke-width: 0.05; }
    .path { fill: none; stroke-width: 0.12; }
    .vector { stroke-width: 0.1; }
    .los-ray { stroke-width: 0.08; stroke-dasharray: 0.2 0.2; }
    .lof-ray { stroke-width: 0.08; stroke-dasharray: 0.3 0.15; }
    .label { fill: #111; font-size: 0.6px; }
    .toggle { cursor: pointer; }
  ]]></style>
</defs>
<rect x="0" y="0" width="24" height="24" fill="#ffffff" stroke="#111" stroke-width="0.05"/>
<g id="legend">
<g class="toggle" onclick="toggleLayer('grid')"><rect x="0.4" y="0.14999999999999997" width="0.4" height="0.4" fill="#222" stroke="#222" stroke-width="0.05"/><text x="1.0" y="0.5499999999999999" class="label">0.5 MU Grid</text></g>
<g class="toggle" onclick="toggleLayer('delaunay')"><rect x="0.4" y="0.95" width="0.4" height="0.4" fill="#222" stroke="#222" stroke-width="0.05"/><text x="1.0" y="1.3499999999999999" class="label">Delaunay Mesh</text></g>
<g class="toggle" onclick="toggleLayer('area')"><rect x="0.4" y="1.7500000000000002" width="0.4" height="0.4" fill="#222" stroke="#222" stroke-width="0.05"/><text x="1.0" y="2.1500000000000004" class="label">Area Terrain</text></g>
<g class="toggle" onclick="toggleLayer('terrain')"><rect x="0.4" y="2.55" width="0.4" height="0.4" fill="#222" stroke="#222" stroke-width="0.05"/><text x="1.0" y="2.95" class="label">Other Terrain</text></g>
<g class="toggle" onclick="toggleLayer('models')"><rect x="0.4" y="3.3499999999999996" width="0.4" height="0.4" fill="#222" stroke="#222" stroke-width="0.05"/><text x="1.0" y="3.75" class="label">Models</text></g>
<g class="toggle" onclick="toggleLayer('paths')"><rect x="0.4" y="4.1499999999999995" width="0.4" height="0.4" fill="#222" stroke="#222" stroke-width="0.05"/><text x="1.0" y="4.55" class="label">Paths</text></g>
<g class="toggle" onclick="toggleLayer('vectors')"><rect x="0.4" y="4.949999999999999" width="0.4" height="0.4" fill="#222" stroke="#222" stroke-width="0.05"/><text x="1.0" y="5.35" class="label">Vectors</text></g>
<g class="toggle" onclick="toggleLayer('los')"><rect x="0.4" y="5.749999999999999" width="0.4" height="0.4" fill="#222" stroke="#222" stroke-width="0.05"/><text x="1.0" y="6.1499999999999995" class="label">LOS</text></g>
<g class="toggle" onclick="toggleLayer('lof')"><rect x="0.4" y="6.549999999999999" width="0.4" height="0.4" fill="#222" stroke="#222" stroke-width="0.05"/><text x="1.0" y="6.949999999999999" class="label">LOF</text></g>
</g>
<script><![CDATA[
      function toggleLayer(id) {
        var layer = document.getElementById('layer-' + id);
        if (!layer) return;
        if (layer.classList.contains('hidden')) {
          layer.classList.remove('hidden');
        } else {
          layer.classList.add('hidden');
        }
      }
    ]]></script>
<text x="0.4" y="23.6" class="label">Battlefield 24x24 density 50 blockLOS 75</text>
<g id="layer-grid" class="layer ">
<line x1="0" y1="0" x2="0" y2="24" class="grid-line"/>
<line x1="0.5" y1="0" x2="0.5" y2="24" class="grid-line"/>
<line x1="1" y1="0" x2="1" y2="24" class="grid-line"/>
<line x1="1.5" y1="0" x2="1.5" y2="24" class="grid-line"/>
<line x1="2" y1="0" x2="2" y2="24" class="grid-line"/>
<line x1="2.5" y1="0" x2="2.5" y2="24" class="grid-line"/>
<line x1="3" y1="0" x2="3" y2="24" class="grid-line"/>
<line x1="3.5" y1="0" x2="3.5" y2="24" class="grid-line"/>
<line x1="4" y1="0" x2="4" y2="24" class="grid-line"/>
<line x1="4.5" y1="0" x2="4.5" y2="24" class="grid-line"/>
<line x1="5" y1="0" x2="5" y2="24" class="grid-line"/>
<line x1="5.5" y1="0" x2="5.5" y2="24" class="grid-line"/>
<line x1="6" y1="0" x2="6" y2="24" class="grid-line"/>
<line x1="6.5" y1="0" x2="6.5" y2="24" class="grid-line"/>
<line x1="7" y1="0" x2="7" y2="24" class="grid-line"/>
<line x1="7.5" y1="0" x2="7.5" y2="24" class="grid-line"/>
<line x1="8" y1="0" x2="8" y2="24" class="grid-line"/>
<line x1="8.5" y1="0" x2="8.5" y2="24" class="grid-line"/>
<line x1="9" y1="0" x2="9" y2="24" class="grid-line"/>
<line x1="9.5" y1="0" x2="9.5" y2="24" class="grid-line"/>
<line x1="10" y1="0" x2="10" y2="24" class="grid-line"/>
<line x1="10.5" y1="0" x2="10.5" y2="24" class="grid-line"/>
<line x1="11" y1="0" x2="11" y2="24" class="grid-line"/>
<line x1="11.5" y1="0" x2="11.5" y2="24" class="grid-line"/>
<line x1="12" y1="0" x2="12" y2="24" class="grid-line"/>
<line x1="12.5" y1="0" x2="12.5" y2="24" class="grid-line"/>
<line x1="13" y1="0" x2="13" y2="24" class="grid-line"/>
<line x1="13.5" y1="0" x2="13.5" y2="24" class="grid-line"/>
<line x1="14" y1="0" x2="14" y2="24" class="grid-line"/>
<line x1="14.5" y1="0" x2="14.5" y2="24" class="grid-line"/>
<line x1="15" y1="0" x2="15" y2="24" class="grid-line"/>
<line x1="15.5" y1="0" x2="15.5" y2="24" class="grid-line"/>
<line x1="16" y1="0" x2="16" y2="24" class="grid-line"/>
<line x1="16.5" y1="0" x2="16.5" y2="24" class="grid-line"/>
<line x1="17" y1="0" x2="17" y2="24" class="grid-line"/>
<line x1="17.5" y1="0" x2="17.5" y2="24" class="grid-line"/>
<line x1="18" y1="0" x2="18" y2="24" class="grid-line"/>
<line x1="18.5" y1="0" x2="18.5" y2="24" class="grid-line"/>
<line x1="19" y1="0" x2="19" y2="24" class="grid-line"/>
<line x1="19.5" y1="0" x2="19.5" y2="24" class="grid-line"/>
<line x1="20" y1="0" x2="20" y2="24" class="grid-line"/>
<line x1="20.5" y1="0" x2="20.5" y2="24" class="grid-line"/>
<line x1="21" y1="0" x2="21" y2="24" class="grid-line"/>
<line x1="21.5" y1="0" x2="21.5" y2="24" class="grid-line"/>
<line x1="22" y1="0" x2="22" y2="24" class="grid-line"/>
<line x1="22.5" y1="0" x2="22.5" y2="24" class="grid-line"/>
<line x1="23" y1="0" x2="23" y2="24" class="grid-line"/>
<line x1="23.5" y1="0" x2="23.5" y2="24" class="grid-line"/>
<line x1="24" y1="0" x2="24" y2="24" class="grid-line"/>
<line x1="0" y1="0" x2="24" y2="0" class="grid-line"/>
<line x1="0" y1="0.5" x2="24" y2="0.5" class="grid-line"/>
<line x1="0" y1="1" x2="24" y2="1" class="grid-line"/>
<line x1="0" y1="1.5" x2="24" y2="1.5" class="grid-line"/>
<line x1="0" y1="2" x2="24" y2="2" class="grid-line"/>
<line x1="0" y1="2.5" x2="24" y2="2.5" class="grid-line"/>
<line x1="0" y1="3" x2="24" y2="3" class="grid-line"/>
<line x1="0" y1="3.5" x2="24" y2="3.5" class="grid-line"/>
<line x1="0" y1="4" x2="24" y2="4" class="grid-line"/>
<line x1="0" y1="4.5" x2="24" y2="4.5" class="grid-line"/>
<line x1="0" y1="5" x2="24" y2="5" class="grid-line"/>
<line x1="0" y1="5.5" x2="24" y2="5.5" class="grid-line"/>
<line x1="0" y1="6" x2="24" y2="6" class="grid-line"/>
<line x1="0" y1="6.5" x2="24" y2="6.5" class="grid-line"/>
<line x1="0" y1="7" x2="24" y2="7" class="grid-line"/>
<line x1="0" y1="7.5" x2="24" y2="7.5" class="grid-line"/>
<line x1="0" y1="8" x2="24" y2="8" class="grid-line"/>
<line x1="0" y1="8.5" x2="24" y2="8.5" class="grid-line"/>
<line x1="0" y1="9" x2="24" y2="9" class="grid-line"/>
<line x1="0" y1="9.5" x2="24" y2="9.5" class="grid-line"/>
<line x1="0" y1="10" x2="24" y2="10" class="grid-line"/>
<line x1="0" y1="10.5" x2="24" y2="10.5" class="grid-line"/>
<line x1="0" y1="11" x2="24" y2="11" class="grid-line"/>
<line x1="0" y1="11.5" x2="24" y2="11.5" class="grid-line"/>
<line x1="0" y1="12" x2="24" y2="12" class="grid-line"/>
<line x1="0" y1="12.5" x2="24" y2="12.5" class="grid-line"/>
<line x1="0" y1="13" x2="24" y2="13" class="grid-line"/>
<line x1="0" y1="13.5" x2="24" y2="13.5" class="grid-line"/>
<line x1="0" y1="14" x2="24" y2="14" class="grid-line"/>
<line x1="0" y1="14.5" x2="24" y2="14.5" class="grid-line"/>
<line x1="0" y1="15" x2="24" y2="15" class="grid-line"/>
<line x1="0" y1="15.5" x2="24" y2="15.5" class="grid-line"/>
<line x1="0" y1="16" x2="24" y2="16" class="grid-line"/>
<line x1="0" y1="16.5" x2="24" y2="16.5" class="grid-line"/>
<line x1="0" y1="17" x2="24" y2="17" class="grid-line"/>
<line x1="0" y1="17.5" x2="24" y2="17.5" class="grid-line"/>
<line x1="0" y1="18" x2="24" y2="18" class="grid-line"/>
<line x1="0" y1="18.5" x2="24" y2="18.5" class="grid-line"/>
<line x1="0" y1="19" x2="24" y2="19" class="grid-line"/>
<line x1="0" y1="19.5" x2="24" y2="19.5" class="grid-line"/>
<line x1="0" y1="20" x2="24" y2="20" class="grid-line"/>
<line x1="0" y1="20.5" x2="24" y2="20.5" class="grid-line"/>
<line x1="0" y1="21" x2="24" y2="21" class="grid-line"/>
<line x1="0" y1="21.5" x2="24" y2="21.5" class="grid-line"/>
<line x1="0" y1="22" x2="24" y2="22" class="grid-line"/>
<line x1="0" y1="22.5" x2="24" y2="22.5" class="grid-line"/>
<line x1="0" y1="23" x2="24" y2="23" class="grid-line"/>
<line x1="0" y1="23.5" x2="24" y2="23.5" class="grid-line"/>
<line x1="0" y1="24" x2="24" y2="24" class="grid-line"/>
</g>
<g id="layer-delaunay" class="layer ">
<line x1="16.868139093813838" y1="16.217442978010155" x2="16.78185285081492" y2="16.392414169963253" class="delaunay-line"/>
<line x1="16.78185285081492" y1="16.392414169963253" x2="16.76909333327255" y2="16.58708678862454" class="delaunay-line"/>
<line x1="16.76909333327255" y1="16.58708678862454" x2="16.868139093813838" y2="16.217442978010155" class="delaunay-line"/>
<line x1="16.76909333327255" y1="16.58708678862454" x2="16.831803062067237" y2="16.771823692514513" class="delaunay-line"/>
<line x1="16.831803062067237" y1="16.771823692514513" x2="16.868139093813838" y2="16.217442978010155" class="delaunay-line"/>
<line x1="16.868139093813838" y1="16.217442978010155" x2="16.76909333327255" y2="16.58708678862454" class="delaunay-line"/>
<line x1="16.831803062067237" y1="16.771823692514513" x2="16.9604350494551" y2="16.918500362660133" class="delaunay-line"/>
<line x1="16.9604350494551" y1="16.918500362660133" x2="16.868139093813838" y2="16.217442978010155" class="delaunay-line"/>
<line x1="16.868139093813838" y1="16.217442978010155" x2="16.831803062067237" y2="16.771823692514513" class="delaunay-line"/>
<line x1="17.569196478463816" y1="16.125147022368893" x2="17.014815763959458" y2="16.088810990622292" class="delaunay-line"/>
<line x1="17.014815763959458" y1="16.088810990622292" x2="16.868139093813838" y2="16.217442978010155" class="delaunay-line"/>
<line x1="16.868139093813838" y1="16.217442978010155" x2="17.569196478463816" y2="16.125147022368893" class="delaunay-line"/>
<line x1="17.394225286510718" y1="16.038860779369976" x2="17.19955266784943" y2="16.026101261827606" class="delaunay-line"/>
<line x1="17.19955266784943" y1="16.026101261827606" x2="17.569196478463816" y2="16.125147022368893" class="delaunay-line"/>
<line x1="17.569196478463816" y1="16.125147022368893" x2="17.394225286510718" y2="16.038860779369976" class="delaunay-line"/>
<line x1="17.19955266784943" y1="16.026101261827606" x2="17.014815763959458" y2="16.088810990622292" class="delaunay-line"/>
<line x1="17.014815763959458" y1="16.088810990622292" x2="17.569196478463816" y2="16.125147022368893" class="delaunay-line"/>
<line x1="17.569196478463816" y1="16.125147022368893" x2="17.19955266784943" y2="16.026101261827606" class="delaunay-line"/>
<line x1="17.135406241408198" y1="17.00478660565905" x2="17.330078860069484" y2="17.01754612320142" class="delaunay-line"/>
<line x1="17.330078860069484" y1="17.01754612320142" x2="16.9604350494551" y2="16.918500362660133" class="delaunay-line"/>
<line x1="16.9604350494551" y1="16.918500362660133" x2="17.135406241408198" y2="17.00478660565905" class="delaunay-line"/>
<line x1="17.569196478463816" y1="16.125147022368893" x2="16.868139093813838" y2="16.217442978010155" class="delaunay-line"/>
<line x1="16.868139093813838" y1="16.217442978010155" x2="16.9604350494551" y2="16.918500362660133" class="delaunay-line"/>
<line x1="16.9604350494551" y1="16.918500362660133" x2="17.569196478463816" y2="16.125147022368893" class="delaunay-line"/>
<line x1="17.330078860069484" y1="17.01754612320142" x2="17.514815763959458" y2="16.954836394406733" class="delaunay-line"/>
<line x1="17.514815763959458" y1="16.954836394406733" x2="16.9604350494551" y2="16.918500362660133" class="delaunay-line"/>
<line x1="16.9604350494551" y1="16.918500362660133" x2="17.330078860069484" y2="17.01754612320142" class="delaunay-line"/>
<line x1="17.661492434105078" y1="16.82620440701887" x2="17.569196478463816" y2="16.125147022368893" class="delaunay-line"/>
<line x1="17.569196478463816" y1="16.125147022368893" x2="16.9604350494551" y2="16.918500362660133" class="delaunay-line"/>
<line x1="16.9604350494551" y1="16.918500362660133" x2="17.661492434105078" y2="16.82620440701887" class="delaunay-line"/>
<line x1="17.514815763959458" y1="16.954836394406733" x2="17.661492434105078" y2="16.82620440701887" class="delaunay-line"/>
<line x1="17.661492434105078" y1="16.82620440701887" x2="16.9604350494551" y2="16.918500362660133" class="delaunay-line"/>
<line x1="16.9604350494551" y1="16.918500362660133" x2="17.514815763959458" y2="16.954836394406733" class="delaunay-line"/>
<line x1="17.661492434105078" y1="16.82620440701887" x2="17.69782846585168" y2="16.271823692514513" class="delaunay-line"/>
<line x1="17.69782846585168" y1="16.271823692514513" x2="17.569196478463816" y2="16.125147022368893" class="delaunay-line"/>
<line x1="17.569196478463816" y1="16.125147022368893" x2="17.661492434105078" y2="16.82620440701887" class="delaunay-line"/>
<line x1="17.661492434105078" y1="16.82620440701887" x2="17.760538194646365" y2="16.456560596404486" class="delaunay-line"/>
<line x1="17.760538194646365" y1="16.456560596404486" x2="17.69782846585168" y2="16.271823692514513" class="delaunay-line"/>
<line x1="17.69782846585168" y1="16.271823692514513" x2="17.661492434105078" y2="16.82620440701887" class="delaunay-line"/>
<line x1="17.747778677103994" y1="16.651233215065773" x2="17.760538194646365" y2="16.456560596404486" class="delaunay-line"/>
<line x1="17.760538194646365" y1="16.456560596404486" x2="17.661492434105078" y2="16.82620440701887" class="delaunay-line"/>
<line x1="17.661492434105078" y1="16.82620440701887" x2="17.747778677103994" y2="16.651233215065773" class="delaunay-line"/>
<line x1="16.76909333327255" y1="16.58708678862454" x2="8.930449264568447" y2="19.509263602052727" class="delaunay-line"/>
<line x1="8.930449264568447" y1="19.509263602052727" x2="16.831803062067237" y2="16.771823692514513" class="delaunay-line"/>
<line x1="16.831803062067237" y1="16.771823692514513" x2="16.76909333327255" y2="16.58708678862454" class="delaunay-line"/>
<line x1="16.831803062067237" y1="16.771823692514513" x2="8.943208782110819" y2="19.703936220714013" class="delaunay-line"/>
<line x1="8.943208782110819" y1="19.703936220714013" x2="16.9604350494551" y2="16.918500362660133" class="delaunay-line"/>
<line x1="16.9604350494551" y1="16.918500362660133" x2="16.831803062067237" y2="16.771823692514513" class="delaunay-line"/>
<line x1="16.9604350494551" y1="16.918500362660133" x2="8.880499053316132" y2="19.888673124603987" class="delaunay-line"/>
<line x1="8.880499053316132" y1="19.888673124603987" x2="17.135406241408198" y2="17.00478660565905" class="delaunay-line"/>
<line x1="17.135406241408198" y1="17.00478660565905" x2="16.9604350494551" y2="16.918500362660133" class="delaunay-line"/>
<line x1="17.135406241408198" y1="17.00478660565905" x2="24" y2="24" class="delaunay-line"/>
<line x1="24" y1="24" x2="17.330078860069484" y2="17.01754612320142" class="delaunay-line"/>
<line x1="17.330078860069484" y1="17.01754612320142" x2="17.135406241408198" y2="17.00478660565905" class="delaunay-line"/>
<line x1="8.844163021569532" y1="19.33429241009963" x2="8.930449264568447" y2="19.509263602052727" class="delaunay-line"/>
<line x1="8.930449264568447" y1="19.509263602052727" x2="16.76909333327255" y2="16.58708678862454" class="delaunay-line"/>
<line x1="16.76909333327255" y1="16.58708678862454" x2="8.844163021569532" y2="19.33429241009963" class="delaunay-line"/>
<line x1="8.844163021569532" y1="19.33429241009963" x2="16.76909333327255" y2="16.58708678862454" class="delaunay-line"/>
<line x1="16.76909333327255" y1="16.58708678862454" x2="16.78185285081492" y2="16.392414169963253" class="delaunay-line"/>
<line x1="16.78185285081492" y1="16.392414169963253" x2="8.844163021569532" y2="19.33429241009963" class="delaunay-line"/>
<line x1="8.844163021569532" y1="19.33429241009963" x2="16.78185285081492" y2="16.392414169963253" class="delaunay-line"/>
<line x1="16.78185285081492" y1="16.392414169963253" x2="8.697486351423914" y2="19.205660422711766" class="delaunay-line"/>
<line x1="8.697486351423914" y1="19.205660422711766" x2="8.844163021569532" y2="19.33429241009963" class="delaunay-line"/>
<line x1="8.697486351423914" y1="19.205660422711766" x2="16.78185285081492" y2="16.392414169963253" class="delaunay-line"/>
<line x1="16.78185285081492" y1="16.392414169963253" x2="16.868139093813838" y2="16.217442978010155" class="delaunay-line"/>
<line x1="16.868139093813838" y1="16.217442978010155" x2="8.697486351423914" y2="19.205660422711766" class="delaunay-line"/>
<line x1="8.880499053316132" y1="19.888673124603987" x2="8.943208782110819" y2="19.703936220714013" class="delaunay-line"/>
<line x1="8.943208782110819" y1="19.703936220714013" x2="8.930449264568447" y2="19.509263602052727" class="delaunay-line"/>
<line x1="8.930449264568447" y1="19.509263602052727" x2="8.880499053316132" y2="19.888673124603987" class="delaunay-line"/>
<line x1="8.930449264568447" y1="19.509263602052727" x2="8.943208782110819" y2="19.703936220714013" class="delaunay-line"/>
<line x1="8.943208782110819" y1="19.703936220714013" x2="16.831803062067237" y2="16.771823692514513" class="delaunay-line"/>
<line x1="16.831803062067237" y1="16.771823692514513" x2="8.930449264568447" y2="19.509263602052727" class="delaunay-line"/>
<line x1="8.512749447533938" y1="19.14295069391708" x2="8.697486351423914" y2="19.205660422711766" class="delaunay-line"/>
<line x1="8.697486351423914" y1="19.205660422711766" x2="16.868139093813838" y2="16.217442978010155" class="delaunay-line"/>
<line x1="16.868139093813838" y1="16.217442978010155" x2="8.512749447533938" y2="19.14295069391708" class="delaunay-line"/>
<line x1="8.382223255313889" y1="20.134395555290894" x2="8.050809681278295" y2="19.943053839108345" class="delaunay-line"/>
<line x1="8.050809681278295" y1="19.943053839108345" x2="8.197486351423914" y2="20.071685826496207" class="delaunay-line"/>
<line x1="8.197486351423914" y1="20.071685826496207" x2="8.382223255313889" y2="20.134395555290894" class="delaunay-line"/>
<line x1="8.014473649531695" y1="19.388673124603987" x2="8.930449264568447" y2="19.509263602052727" class="delaunay-line"/>
<line x1="8.930449264568447" y1="19.509263602052727" x2="8.844163021569532" y2="19.33429241009963" class="delaunay-line"/>
<line x1="8.844163021569532" y1="19.33429241009963" x2="8.014473649531695" y2="19.388673124603987" class="delaunay-line"/>
<line x1="8.943208782110819" y1="19.703936220714013" x2="8.880499053316132" y2="19.888673124603987" class="delaunay-line"/>
<line x1="8.880499053316132" y1="19.888673124603987" x2="16.9604350494551" y2="16.918500362660133" class="delaunay-line"/>
<line x1="16.9604350494551" y1="16.918500362660133" x2="8.943208782110819" y2="19.703936220714013" class="delaunay-line"/>
<line x1="17.330078860069484" y1="17.01754612320142" x2="24" y2="24" class="delaunay-line"/>
<line x1="24" y1="24" x2="17.514815763959458" y2="16.954836394406733" class="delaunay-line"/>
<line x1="17.514815763959458" y1="16.954836394406733" x2="17.330078860069484" y2="17.01754612320142" class="delaunay-line"/>
<line x1="9.638284855141123" y1="2.254810965168711" x2="8.512749447533938" y2="19.14295069391708" class="delaunay-line"/>
<line x1="8.512749447533938" y1="19.14295069391708" x2="16.868139093813838" y2="16.217442978010155" class="delaunay-line"/>
<line x1="16.868139093813838" y1="16.217442978010155" x2="9.638284855141123" y2="2.254810965168711" class="delaunay-line"/>
<line x1="8.697486351423914" y1="19.205660422711766" x2="8.512749447533938" y2="19.14295069391708" class="delaunay-line"/>
<line x1="8.512749447533938" y1="19.14295069391708" x2="8.844163021569532" y2="19.33429241009963" class="delaunay-line"/>
<line x1="8.844163021569532" y1="19.33429241009963" x2="8.697486351423914" y2="19.205660422711766" class="delaunay-line"/>
<line x1="8.576895873975174" y1="20.121636037748523" x2="8.751867065928273" y2="20.035349794749607" class="delaunay-line"/>
<line x1="8.751867065928273" y1="20.035349794749607" x2="8.880499053316132" y2="19.888673124603987" class="delaunay-line"/>
<line x1="8.880499053316132" y1="19.888673124603987" x2="8.576895873975174" y2="20.121636037748523" class="delaunay-line"/>
<line x1="8.880499053316132" y1="19.888673124603987" x2="24" y2="24" class="delaunay-line"/>
<line x1="24" y1="24" x2="17.135406241408198" y2="17.00478660565905" class="delaunay-line"/>
<line x1="17.135406241408198" y1="17.00478660565905" x2="8.880499053316132" y2="19.888673124603987" class="delaunay-line"/>
<line x1="9.446943138958577" y1="2.216750731424354" x2="8.318076828872654" y2="19.15571021145945" class="delaunay-line"/>
<line x1="8.318076828872654" y1="19.15571021145945" x2="8.512749447533938" y2="19.14295069391708" class="delaunay-line"/>
<line x1="8.512749447533938" y1="19.14295069391708" x2="9.446943138958577" y2="2.216750731424354" class="delaunay-line"/>
<line x1="8.512749447533938" y1="19.14295069391708" x2="8.014473649531695" y2="19.388673124603987" class="delaunay-line"/>
<line x1="8.014473649531695" y1="19.388673124603987" x2="8.844163021569532" y2="19.33429241009963" class="delaunay-line"/>
<line x1="8.844163021569532" y1="19.33429241009963" x2="8.512749447533938" y2="19.14295069391708" class="delaunay-line"/>
<line x1="8.382223255313889" y1="20.134395555290894" x2="8.576895873975174" y2="20.121636037748523" class="delaunay-line"/>
<line x1="8.576895873975174" y1="20.121636037748523" x2="8.880499053316132" y2="19.888673124603987" class="delaunay-line"/>
<line x1="8.880499053316132" y1="19.888673124603987" x2="8.382223255313889" y2="20.134395555290894" class="delaunay-line"/>
<line x1="8.751867065928273" y1="20.035349794749607" x2="24" y2="24" class="delaunay-line"/>
<line x1="24" y1="24" x2="8.880499053316132" y2="19.888673124603987" class="delaunay-line"/>
<line x1="8.880499053316132" y1="19.888673124603987" x2="8.751867065928273" y2="20.035349794749607" class="delaunay-line"/>
<line x1="8.318076828872654" y1="19.15571021145945" x2="8.014473649531695" y2="19.388673124603987" class="delaunay-line"/>
<line x1="8.014473649531695" y1="19.388673124603987" x2="8.512749447533938" y2="19.14295069391708" class="delaunay-line"/>
<line x1="8.512749447533938" y1="19.14295069391708" x2="8.318076828872654" y2="19.15571021145945" class="delaunay-line"/>
<line x1="8.050809681278295" y1="19.943053839108345" x2="8.880499053316132" y2="19.888673124603987" class="delaunay-line"/>
<line x1="8.880499053316132" y1="19.888673124603987" x2="8.930449264568447" y2="19.509263602052727" class="delaunay-line"/>
<line x1="8.930449264568447" y1="19.509263602052727" x2="8.050809681278295" y2="19.943053839108345" class="delaunay-line"/>
<line x1="8.143105636919554" y1="19.241996454458366" x2="8.014473649531695" y2="19.388673124603987" class="delaunay-line"/>
<line x1="8.014473649531695" y1="19.388673124603987" x2="8.318076828872654" y2="19.15571021145945" class="delaunay-line"/>
<line x1="8.318076828872654" y1="19.15571021145945" x2="8.143105636919554" y2="19.241996454458366" class="delaunay-line"/>
<line x1="8.050809681278295" y1="19.943053839108345" x2="8.382223255313889" y2="20.134395555290894" class="delaunay-line"/>
<line x1="8.382223255313889" y1="20.134395555290894" x2="8.880499053316132" y2="19.888673124603987" class="delaunay-line"/>
<line x1="8.880499053316132" y1="19.888673124603987" x2="8.050809681278295" y2="19.943053839108345" class="delaunay-line"/>
<line x1="7.964523438279381" y1="19.768082647155246" x2="8.050809681278295" y2="19.943053839108345" class="delaunay-line"/>
<line x1="8.050809681278295" y1="19.943053839108345" x2="8.930449264568447" y2="19.509263602052727" class="delaunay-line"/>
<line x1="8.930449264568447" y1="19.509263602052727" x2="7.964523438279381" y2="19.768082647155246" class="delaunay-line"/>
<line x1="7.964523438279381" y1="19.768082647155246" x2="8.930449264568447" y2="19.509263602052727" class="delaunay-line"/>
<line x1="8.930449264568447" y1="19.509263602052727" x2="8.014473649531695" y2="19.388673124603987" class="delaunay-line"/>
<line x1="8.014473649531695" y1="19.388673124603987" x2="7.964523438279381" y2="19.768082647155246" class="delaunay-line"/>
<line x1="7.951763920737008" y1="19.57341002849396" x2="7.964523438279381" y2="19.768082647155246" class="delaunay-line"/>
<line x1="7.964523438279381" y1="19.768082647155246" x2="8.014473649531695" y2="19.388673124603987" class="delaunay-line"/>
<line x1="8.014473649531695" y1="19.388673124603987" x2="7.951763920737008" y2="19.57341002849396" class="delaunay-line"/>
<line x1="17.514815763959458" y1="16.954836394406733" x2="24" y2="24" class="delaunay-line"/>
<line x1="24" y1="24" x2="17.661492434105078" y2="16.82620440701887" class="delaunay-line"/>
<line x1="17.661492434105078" y1="16.82620440701887" x2="17.514815763959458" y2="16.954836394406733" class="delaunay-line"/>
<line x1="17.661492434105078" y1="16.82620440701887" x2="24" y2="24" class="delaunay-line"/>
<line x1="24" y1="24" x2="17.747778677103994" y2="16.651233215065773" class="delaunay-line"/>
<line x1="17.747778677103994" y1="16.651233215065773" x2="17.661492434105078" y2="16.82620440701887" class="delaunay-line"/>
<line x1="17.747778677103994" y1="16.651233215065773" x2="24" y2="24" class="delaunay-line"/>
<line x1="24" y1="24" x2="17.760538194646365" y2="16.456560596404486" class="delaunay-line"/>
<line x1="17.760538194646365" y1="16.456560596404486" x2="17.747778677103994" y2="16.651233215065773" class="delaunay-line"/>
<line x1="17.760538194646365" y1="16.456560596404486" x2="24" y2="0" class="delaunay-line"/>
<line x1="24" y1="0" x2="17.69782846585168" y2="16.271823692514513" class="delaunay-line"/>
<line x1="17.69782846585168" y1="16.271823692514513" x2="17.760538194646365" y2="16.456560596404486" class="delaunay-line"/>
<line x1="8.576895873975174" y1="20.121636037748523" x2="24" y2="24" class="delaunay-line"/>
<line x1="24" y1="24" x2="8.751867065928273" y2="20.035349794749607" class="delaunay-line"/>
<line x1="8.751867065928273" y1="20.035349794749607" x2="8.576895873975174" y2="20.121636037748523" class="delaunay-line"/>
<line x1="0" y1="24" x2="24" y2="24" class="delaunay-line"/>
<line x1="24" y1="24" x2="8.576895873975174" y2="20.121636037748523" class="delaunay-line"/>
<line x1="8.576895873975174" y1="20.121636037748523" x2="0" y2="24" class="delaunay-line"/>
<line x1="17.19955266784943" y1="16.026101261827606" x2="15.284279364891708" y2="1.7329902317093522" class="delaunay-line"/>
<line x1="15.284279364891708" y1="1.7329902317093522" x2="17.014815763959458" y2="16.088810990622292" class="delaunay-line"/>
<line x1="17.014815763959458" y1="16.088810990622292" x2="17.19955266784943" y2="16.026101261827606" class="delaunay-line"/>
<line x1="17.014815763959458" y1="16.088810990622292" x2="9.829626571323669" y2="2.216750731424354" class="delaunay-line"/>
<line x1="9.829626571323669" y1="2.216750731424354" x2="16.868139093813838" y2="16.217442978010155" class="delaunay-line"/>
<line x1="16.868139093813838" y1="16.217442978010155" x2="17.014815763959458" y2="16.088810990622292" class="delaunay-line"/>
<line x1="8.318076828872654" y1="19.15571021145945" x2="9.28473146454785" y2="2.108364355761984" class="delaunay-line"/>
<line x1="9.28473146454785" y1="2.108364355761984" x2="8.143105636919554" y2="19.241996454458366" class="delaunay-line"/>
<line x1="8.143105636919554" y1="19.241996454458366" x2="8.318076828872654" y2="19.15571021145945" class="delaunay-line"/>
<line x1="8.143105636919554" y1="19.241996454458366" x2="0" y2="0" class="delaunay-line"/>
<line x1="0" y1="0" x2="8.014473649531695" y2="19.388673124603987" class="delaunay-line"/>
<line x1="8.014473649531695" y1="19.388673124603987" x2="8.143105636919554" y2="19.241996454458366" class="delaunay-line"/>
<line x1="15.475621081074253" y1="1.6949299979649957" x2="15.284279364891708" y2="1.7329902317093522" class="delaunay-line"/>
<line x1="15.284279364891708" y1="1.7329902317093522" x2="17.19955266784943" y2="16.026101261827606" class="delaunay-line"/>
<line x1="17.19955266784943" y1="16.026101261827606" x2="15.475621081074253" y2="1.6949299979649957" class="delaunay-line"/>
<line x1="15.475621081074253" y1="1.6949299979649957" x2="17.19955266784943" y2="16.026101261827606" class="delaunay-line"/>
<line x1="17.19955266784943" y1="16.026101261827606" x2="17.394225286510718" y2="16.038860779369976" class="delaunay-line"/>
<line x1="17.394225286510718" y1="16.038860779369976" x2="15.475621081074253" y2="1.6949299979649957" class="delaunay-line"/>
<line x1="15.475621081074253" y1="1.6949299979649957" x2="17.394225286510718" y2="16.038860779369976" class="delaunay-line"/>
<line x1="17.394225286510718" y1="16.038860779369976" x2="15.63783275548498" y2="1.586543622302626" class="delaunay-line"/>
<line x1="15.63783275548498" y1="1.586543622302626" x2="15.475621081074253" y2="1.6949299979649957" class="delaunay-line"/>
<line x1="17.394225286510718" y1="16.038860779369976" x2="24" y2="0" class="delaunay-line"/>
<line x1="24" y1="0" x2="15.63783275548498" y2="1.586543622302626" class="delaunay-line"/>
<line x1="15.63783275548498" y1="1.586543622302626" x2="17.394225286510718" y2="16.038860779369976" class="delaunay-line"/>
<line x1="15.63783275548498" y1="1.586543622302626" x2="24" y2="0" class="delaunay-line"/>
<line x1="24" y1="0" x2="15.74621913114735" y2="1.424331947891897" class="delaunay-line"/>
<line x1="15.74621913114735" y1="1.424331947891897" x2="15.63783275548498" y2="1.586543622302626" class="delaunay-line"/>
<line x1="14.930725974298435" y1="1.586543622302626" x2="15.092937648709162" y2="1.6949299979649957" class="delaunay-line"/>
<line x1="15.092937648709162" y1="1.6949299979649957" x2="15.284279364891708" y2="1.7329902317093522" class="delaunay-line"/>
<line x1="15.284279364891708" y1="1.7329902317093522" x2="14.930725974298435" y2="1.586543622302626" class="delaunay-line"/>
<line x1="15.284279364891708" y1="1.7329902317093522" x2="15.092937648709162" y2="1.6949299979649957" class="delaunay-line"/>
<line x1="15.092937648709162" y1="1.6949299979649957" x2="17.014815763959458" y2="16.088810990622292" class="delaunay-line"/>
<line x1="17.014815763959458" y1="16.088810990622292" x2="15.284279364891708" y2="1.7329902317093522" class="delaunay-line"/>
<line x1="17.394225286510718" y1="16.038860779369976" x2="17.569196478463816" y2="16.125147022368893" class="delaunay-line"/>
<line x1="17.569196478463816" y1="16.125147022368893" x2="24" y2="0" class="delaunay-line"/>
<line x1="24" y1="0" x2="17.394225286510718" y2="16.038860779369976" class="delaunay-line"/>
<line x1="15.475621081074253" y1="1.6949299979649957" x2="15.63783275548498" y2="1.586543622302626" class="delaunay-line"/>
<line x1="15.63783275548498" y1="1.586543622302626" x2="15.284279364891708" y2="1.7329902317093522" class="delaunay-line"/>
<line x1="15.284279364891708" y1="1.7329902317093522" x2="15.475621081074253" y2="1.6949299979649957" class="delaunay-line"/>
<line x1="15.63783275548498" y1="1.586543622302626" x2="14.930725974298435" y2="1.586543622302626" class="delaunay-line"/>
<line x1="14.930725974298435" y1="1.586543622302626" x2="15.284279364891708" y2="1.7329902317093522" class="delaunay-line"/>
<line x1="15.284279364891708" y1="1.7329902317093522" x2="15.63783275548498" y2="1.586543622302626" class="delaunay-line"/>
<line x1="15.092937648709162" y1="1.6949299979649957" x2="9.829626571323669" y2="2.216750731424354" class="delaunay-line"/>
<line x1="9.829626571323669" y1="2.216750731424354" x2="17.014815763959458" y2="16.088810990622292" class="delaunay-line"/>
<line x1="17.014815763959458" y1="16.088810990622292" x2="15.092937648709162" y2="1.6949299979649957" class="delaunay-line"/>
<line x1="24" y1="0" x2="17.569196478463816" y2="16.125147022368893" class="delaunay-line"/>
<line x1="17.569196478463816" y1="16.125147022368893" x2="17.69782846585168" y2="16.271823692514513" class="delaunay-line"/>
<line x1="17.69782846585168" y1="16.271823692514513" x2="24" y2="0" class="delaunay-line"/>
<line x1="14.930725974298435" y1="0.8794368411160784" x2="14.822339598636065" y2="1.0416485155268074" class="delaunay-line"/>
<line x1="14.822339598636065" y1="1.0416485155268074" x2="14.930725974298435" y2="1.586543622302626" class="delaunay-line"/>
<line x1="14.930725974298435" y1="1.586543622302626" x2="14.930725974298435" y2="0.8794368411160784" class="delaunay-line"/>
<line x1="14.784279364891708" y1="1.2329902317093522" x2="14.822339598636065" y2="1.4243319478918972" class="delaunay-line"/>
<line x1="14.822339598636065" y1="1.4243319478918972" x2="14.822339598636065" y2="1.0416485155268074" class="delaunay-line"/>
<line x1="14.822339598636065" y1="1.0416485155268074" x2="14.784279364891708" y2="1.2329902317093522" class="delaunay-line"/>
<line x1="9.991838245734396" y1="2.108364355761984" x2="9.829626571323669" y2="2.216750731424354" class="delaunay-line"/>
<line x1="9.829626571323669" y1="2.216750731424354" x2="15.092937648709162" y2="1.6949299979649957" class="delaunay-line"/>
<line x1="15.092937648709162" y1="1.6949299979649957" x2="9.991838245734396" y2="2.108364355761984" class="delaunay-line"/>
<line x1="24" y1="0" x2="15.784279364891708" y2="1.2329902317093522" class="delaunay-line"/>
<line x1="15.784279364891708" y1="1.2329902317093522" x2="15.74621913114735" y2="1.424331947891897" class="delaunay-line"/>
<line x1="15.74621913114735" y1="1.424331947891897" x2="24" y2="0" class="delaunay-line"/>
<line x1="14.822339598636065" y1="1.0416485155268074" x2="14.822339598636065" y2="1.4243319478918972" class="delaunay-line"/>
<line x1="14.822339598636065" y1="1.4243319478918972" x2="14.930725974298435" y2="1.586543622302626" class="delaunay-line"/>
<line x1="14.930725974298435" y1="1.586543622302626" x2="14.822339598636065" y2="1.0416485155268074" class="delaunay-line"/>
<line x1="15.63783275548498" y1="0.8794368411160783" x2="15.63783275548498" y2="1.586543622302626" class="delaunay-line"/>
<line x1="15.63783275548498" y1="1.586543622302626" x2="15.74621913114735" y2="1.424331947891897" class="delaunay-line"/>
<line x1="15.74621913114735" y1="1.424331947891897" x2="15.63783275548498" y2="0.8794368411160783" class="delaunay-line"/>
<line x1="9.991838245734396" y1="2.108364355761984" x2="15.092937648709162" y2="1.6949299979649957" class="delaunay-line"/>
<line x1="15.092937648709162" y1="1.6949299979649957" x2="14.930725974298435" y2="1.586543622302626" class="delaunay-line"/>
<line x1="14.930725974298435" y1="1.586543622302626" x2="9.991838245734396" y2="2.108364355761984" class="delaunay-line"/>
<line x1="24" y1="0" x2="15.74621913114735" y2="1.041648515526807" class="delaunay-line"/>
<line x1="15.74621913114735" y1="1.041648515526807" x2="15.784279364891708" y2="1.2329902317093522" class="delaunay-line"/>
<line x1="15.784279364891708" y1="1.2329902317093522" x2="24" y2="0" class="delaunay-line"/>
<line x1="15.784279364891708" y1="1.2329902317093522" x2="15.74621913114735" y2="1.041648515526807" class="delaunay-line"/>
<line x1="15.74621913114735" y1="1.041648515526807" x2="15.74621913114735" y2="1.424331947891897" class="delaunay-line"/>
<line x1="15.74621913114735" y1="1.424331947891897" x2="15.784279364891708" y2="1.2329902317093522" class="delaunay-line"/>
<line x1="14.930725974298435" y1="0.8794368411160784" x2="14.930725974298435" y2="1.586543622302626" class="delaunay-line"/>
<line x1="14.930725974298435" y1="1.586543622302626" x2="15.63783275548498" y2="1.586543622302626" class="delaunay-line"/>
<line x1="15.63783275548498" y1="1.586543622302626" x2="14.930725974298435" y2="0.8794368411160784" class="delaunay-line"/>
<line x1="9.991838245734396" y1="2.108364355761984" x2="14.930725974298435" y2="1.586543622302626" class="delaunay-line"/>
<line x1="14.930725974298435" y1="1.586543622302626" x2="10.100224621396766" y2="1.9461526813512569" class="delaunay-line"/>
<line x1="10.100224621396766" y1="1.9461526813512569" x2="9.991838245734396" y2="2.108364355761984" class="delaunay-line"/>
<line x1="15.74621913114735" y1="1.041648515526807" x2="15.63783275548498" y2="0.8794368411160783" class="delaunay-line"/>
<line x1="15.63783275548498" y1="0.8794368411160783" x2="15.74621913114735" y2="1.424331947891897" class="delaunay-line"/>
<line x1="15.74621913114735" y1="1.424331947891897" x2="15.74621913114735" y2="1.041648515526807" class="delaunay-line"/>
<line x1="15.63783275548498" y1="0.8794368411160783" x2="14.930725974298435" y2="0.8794368411160784" class="delaunay-line"/>
<line x1="14.930725974298435" y1="0.8794368411160784" x2="15.63783275548498" y2="1.586543622302626" class="delaunay-line"/>
<line x1="15.63783275548498" y1="1.586543622302626" x2="15.63783275548498" y2="0.8794368411160783" class="delaunay-line"/>
<line x1="15.63783275548498" y1="0.8794368411160783" x2="15.284279364891708" y2="0.7329902317093522" class="delaunay-line"/>
<line x1="15.284279364891708" y1="0.7329902317093522" x2="14.930725974298435" y2="0.8794368411160784" class="delaunay-line"/>
<line x1="14.930725974298435" y1="0.8794368411160784" x2="15.63783275548498" y2="0.8794368411160783" class="delaunay-line"/>
<line x1="15.284279364891708" y1="0.7329902317093522" x2="15.092937648709162" y2="0.7710504654537089" class="delaunay-line"/>
<line x1="15.092937648709162" y1="0.7710504654537089" x2="14.930725974298435" y2="0.8794368411160784" class="delaunay-line"/>
<line x1="14.930725974298435" y1="0.8794368411160784" x2="15.284279364891708" y2="0.7329902317093522" class="delaunay-line"/>
<line x1="15.475621081074253" y1="0.7710504654537089" x2="15.284279364891708" y2="0.7329902317093522" class="delaunay-line"/>
<line x1="15.284279364891708" y1="0.7329902317093522" x2="15.63783275548498" y2="0.8794368411160783" class="delaunay-line"/>
<line x1="15.63783275548498" y1="0.8794368411160783" x2="15.475621081074253" y2="0.7710504654537089" class="delaunay-line"/>
<line x1="14.784279364891708" y1="1.2329902317093522" x2="10.138284855141123" y2="1.7548109651687112" class="delaunay-line"/>
<line x1="10.138284855141123" y1="1.7548109651687112" x2="14.822339598636065" y2="1.4243319478918972" class="delaunay-line"/>
<line x1="14.822339598636065" y1="1.4243319478918972" x2="14.784279364891708" y2="1.2329902317093522" class="delaunay-line"/>
<line x1="14.822339598636065" y1="1.4243319478918972" x2="10.138284855141123" y2="1.7548109651687112" class="delaunay-line"/>
<line x1="10.138284855141123" y1="1.7548109651687112" x2="10.100224621396766" y2="1.9461526813512569" class="delaunay-line"/>
<line x1="10.100224621396766" y1="1.9461526813512569" x2="14.822339598636065" y2="1.4243319478918972" class="delaunay-line"/>
<line x1="14.930725974298435" y1="1.586543622302626" x2="14.822339598636065" y2="1.4243319478918972" class="delaunay-line"/>
<line x1="14.822339598636065" y1="1.4243319478918972" x2="10.100224621396766" y2="1.9461526813512569" class="delaunay-line"/>
<line x1="10.100224621396766" y1="1.9461526813512569" x2="14.930725974298435" y2="1.586543622302626" class="delaunay-line"/>
<line x1="8.014473649531695" y1="19.388673124603987" x2="0" y2="24" class="delaunay-line"/>
<line x1="0" y1="24" x2="7.951763920737008" y2="19.57341002849396" class="delaunay-line"/>
<line x1="7.951763920737008" y1="19.57341002849396" x2="8.014473649531695" y2="19.388673124603987" class="delaunay-line"/>
<line x1="14.784279364891708" y1="1.2329902317093522" x2="10.100224621396766" y2="1.5634692489861655" class="delaunay-line"/>
<line x1="10.100224621396766" y1="1.5634692489861655" x2="10.138284855141123" y2="1.7548109651687112" class="delaunay-line"/>
<line x1="10.138284855141123" y1="1.7548109651687112" x2="14.784279364891708" y2="1.2329902317093522" class="delaunay-line"/>
<line x1="9.991838245734396" y1="2.108364355761984" x2="9.638284855141123" y2="2.254810965168711" class="delaunay-line"/>
<line x1="9.638284855141123" y1="2.254810965168711" x2="9.829626571323669" y2="2.216750731424354" class="delaunay-line"/>
<line x1="9.829626571323669" y1="2.216750731424354" x2="9.991838245734396" y2="2.108364355761984" class="delaunay-line"/>
<line x1="9.829626571323669" y1="2.216750731424354" x2="9.638284855141123" y2="2.254810965168711" class="delaunay-line"/>
<line x1="9.638284855141123" y1="2.254810965168711" x2="16.868139093813838" y2="16.217442978010155" class="delaunay-line"/>
<line x1="16.868139093813838" y1="16.217442978010155" x2="9.829626571323669" y2="2.216750731424354" class="delaunay-line"/>
<line x1="14.784279364891708" y1="1.2329902317093522" x2="14.822339598636065" y2="1.0416485155268074" class="delaunay-line"/>
<line x1="14.822339598636065" y1="1.0416485155268074" x2="10.100224621396766" y2="1.5634692489861655" class="delaunay-line"/>
<line x1="10.100224621396766" y1="1.5634692489861655" x2="14.784279364891708" y2="1.2329902317093522" class="delaunay-line"/>
<line x1="9.28473146454785" y1="2.108364355761984" x2="9.446943138958577" y2="2.216750731424354" class="delaunay-line"/>
<line x1="9.446943138958577" y1="2.216750731424354" x2="9.638284855141123" y2="2.254810965168711" class="delaunay-line"/>
<line x1="9.638284855141123" y1="2.254810965168711" x2="9.28473146454785" y2="2.108364355761984" class="delaunay-line"/>
<line x1="9.28473146454785" y1="2.108364355761984" x2="9.638284855141123" y2="2.254810965168711" class="delaunay-line"/>
<line x1="9.638284855141123" y1="2.254810965168711" x2="9.991838245734396" y2="2.108364355761984" class="delaunay-line"/>
<line x1="9.991838245734396" y1="2.108364355761984" x2="9.28473146454785" y2="2.108364355761984" class="delaunay-line"/>
<line x1="9.638284855141123" y1="2.254810965168711" x2="9.446943138958577" y2="2.216750731424354" class="delaunay-line"/>
<line x1="9.446943138958577" y1="2.216750731424354" x2="8.512749447533938" y2="19.14295069391708" class="delaunay-line"/>
<line x1="8.512749447533938" y1="19.14295069391708" x2="9.638284855141123" y2="2.254810965168711" class="delaunay-line"/>
<line x1="10.100224621396766" y1="1.5634692489861655" x2="14.822339598636065" y2="1.0416485155268074" class="delaunay-line"/>
<line x1="14.822339598636065" y1="1.0416485155268074" x2="9.991838245734396" y2="1.401257574575438" class="delaunay-line"/>
<line x1="9.991838245734396" y1="1.401257574575438" x2="10.100224621396766" y2="1.5634692489861655" class="delaunay-line"/>
<line x1="10.100224621396766" y1="1.9461526813512569" x2="10.138284855141123" y2="1.7548109651687112" class="delaunay-line"/>
<line x1="10.138284855141123" y1="1.7548109651687112" x2="9.991838245734396" y2="2.108364355761984" class="delaunay-line"/>
<line x1="9.991838245734396" y1="2.108364355761984" x2="10.100224621396766" y2="1.9461526813512569" class="delaunay-line"/>
<line x1="14.822339598636065" y1="1.0416485155268074" x2="14.930725974298435" y2="0.8794368411160784" class="delaunay-line"/>
<line x1="14.930725974298435" y1="0.8794368411160784" x2="9.991838245734396" y2="1.401257574575438" class="delaunay-line"/>
<line x1="9.991838245734396" y1="1.401257574575438" x2="14.822339598636065" y2="1.0416485155268074" class="delaunay-line"/>
<line x1="9.28473146454785" y1="1.401257574575438" x2="9.28473146454785" y2="2.108364355761984" class="delaunay-line"/>
<line x1="9.28473146454785" y1="2.108364355761984" x2="9.991838245734396" y2="2.108364355761984" class="delaunay-line"/>
<line x1="9.991838245734396" y1="2.108364355761984" x2="9.28473146454785" y2="1.401257574575438" class="delaunay-line"/>
<line x1="9.446943138958577" y1="2.216750731424354" x2="9.28473146454785" y2="2.108364355761984" class="delaunay-line"/>
<line x1="9.28473146454785" y1="2.108364355761984" x2="8.318076828872654" y2="19.15571021145945" class="delaunay-line"/>
<line x1="8.318076828872654" y1="19.15571021145945" x2="9.446943138958577" y2="2.216750731424354" class="delaunay-line"/>
<line x1="9.991838245734396" y1="1.401257574575438" x2="14.930725974298435" y2="0.8794368411160784" class="delaunay-line"/>
<line x1="14.930725974298435" y1="0.8794368411160784" x2="9.829626571323669" y2="1.2928711989130681" class="delaunay-line"/>
<line x1="9.829626571323669" y1="1.2928711989130681" x2="9.991838245734396" y2="1.401257574575438" class="delaunay-line"/>
<line x1="10.138284855141123" y1="1.7548109651687112" x2="9.991838245734396" y2="1.401257574575438" class="delaunay-line"/>
<line x1="9.991838245734396" y1="1.401257574575438" x2="9.991838245734396" y2="2.108364355761984" class="delaunay-line"/>
<line x1="9.991838245734396" y1="2.108364355761984" x2="10.138284855141123" y2="1.7548109651687112" class="delaunay-line"/>
<line x1="9.138284855141123" y1="1.7548109651687112" x2="9.17634508888548" y2="1.9461526813512569" class="delaunay-line"/>
<line x1="9.17634508888548" y1="1.9461526813512569" x2="9.28473146454785" y2="2.108364355761984" class="delaunay-line"/>
<line x1="9.28473146454785" y1="2.108364355761984" x2="9.138284855141123" y2="1.7548109651687112" class="delaunay-line"/>
<line x1="9.28473146454785" y1="2.108364355761984" x2="0" y2="0" class="delaunay-line"/>
<line x1="0" y1="0" x2="8.143105636919554" y2="19.241996454458366" class="delaunay-line"/>
<line x1="8.143105636919554" y1="19.241996454458366" x2="9.28473146454785" y2="2.108364355761984" class="delaunay-line"/>
<line x1="9.829626571323669" y1="1.2928711989130681" x2="14.930725974298435" y2="0.8794368411160784" class="delaunay-line"/>
<line x1="14.930725974298435" y1="0.8794368411160784" x2="15.092937648709162" y2="0.7710504654537089" class="delaunay-line"/>
<line x1="15.092937648709162" y1="0.7710504654537089" x2="9.829626571323669" y2="1.2928711989130681" class="delaunay-line"/>
<line x1="10.100224621396766" y1="1.5634692489861655" x2="9.991838245734396" y2="1.401257574575438" class="delaunay-line"/>
<line x1="9.991838245734396" y1="1.401257574575438" x2="10.138284855141123" y2="1.7548109651687112" class="delaunay-line"/>
<line x1="10.138284855141123" y1="1.7548109651687112" x2="10.100224621396766" y2="1.5634692489861655" class="delaunay-line"/>
<line x1="9.17634508888548" y1="1.5634692489861655" x2="9.138284855141123" y2="1.7548109651687112" class="delaunay-line"/>
<line x1="9.138284855141123" y1="1.7548109651687112" x2="9.28473146454785" y2="1.401257574575438" class="delaunay-line"/>
<line x1="9.28473146454785" y1="1.401257574575438" x2="9.17634508888548" y2="1.5634692489861655" class="delaunay-line"/>
<line x1="0" y1="0" x2="0" y2="24" class="delaunay-line"/>
<line x1="0" y1="24" x2="8.014473649531695" y2="19.388673124603987" class="delaunay-line"/>
<line x1="8.014473649531695" y1="19.388673124603987" x2="0" y2="0" class="delaunay-line"/>
<line x1="9.638284855141123" y1="1.2548109651687112" x2="9.829626571323669" y2="1.2928711989130681" class="delaunay-line"/>
<line x1="9.829626571323669" y1="1.2928711989130681" x2="15.092937648709162" y2="0.7710504654537089" class="delaunay-line"/>
<line x1="15.092937648709162" y1="0.7710504654537089" x2="9.638284855141123" y2="1.2548109651687112" class="delaunay-line"/>
<line x1="9.28473146454785" y1="1.401257574575438" x2="9.138284855141123" y2="1.7548109651687112" class="delaunay-line"/>
<line x1="9.138284855141123" y1="1.7548109651687112" x2="9.28473146454785" y2="2.108364355761984" class="delaunay-line"/>
<line x1="9.28473146454785" y1="2.108364355761984" x2="9.28473146454785" y2="1.401257574575438" class="delaunay-line"/>
<line x1="9.28473146454785" y1="1.401257574575438" x2="9.991838245734396" y2="2.108364355761984" class="delaunay-line"/>
<line x1="9.991838245734396" y1="2.108364355761984" x2="9.991838245734396" y2="1.401257574575438" class="delaunay-line"/>
<line x1="9.991838245734396" y1="1.401257574575438" x2="9.28473146454785" y2="1.401257574575438" class="delaunay-line"/>
<line x1="15.284279364891708" y1="0.7329902317093522" x2="9.638284855141123" y2="1.2548109651687112" class="delaunay-line"/>
<line x1="9.638284855141123" y1="1.2548109651687112" x2="15.092937648709162" y2="0.7710504654537089" class="delaunay-line"/>
<line x1="15.092937648709162" y1="0.7710504654537089" x2="15.284279364891708" y2="0.7329902317093522" class="delaunay-line"/>
<line x1="9.829626571323669" y1="1.2928711989130681" x2="9.638284855141123" y2="1.2548109651687112" class="delaunay-line"/>
<line x1="9.638284855141123" y1="1.2548109651687112" x2="9.991838245734396" y2="1.401257574575438" class="delaunay-line"/>
<line x1="9.991838245734396" y1="1.401257574575438" x2="9.829626571323669" y2="1.2928711989130681" class="delaunay-line"/>
<line x1="9.638284855141123" y1="1.2548109651687112" x2="9.28473146454785" y2="1.401257574575438" class="delaunay-line"/>
<line x1="9.28473146454785" y1="1.401257574575438" x2="9.991838245734396" y2="1.401257574575438" class="delaunay-line"/>
<line x1="9.991838245734396" y1="1.401257574575438" x2="9.638284855141123" y2="1.2548109651687112" class="delaunay-line"/>
<line x1="9.638284855141123" y1="1.2548109651687112" x2="9.446943138958577" y2="1.2928711989130681" class="delaunay-line"/>
<line x1="9.446943138958577" y1="1.2928711989130681" x2="9.28473146454785" y2="1.401257574575438" class="delaunay-line"/>
<line x1="9.28473146454785" y1="1.401257574575438" x2="9.638284855141123" y2="1.2548109651687112" class="delaunay-line"/>
<line x1="15.63783275548498" y1="0.8794368411160783" x2="24" y2="0" class="delaunay-line"/>
<line x1="24" y1="0" x2="15.475621081074253" y2="0.7710504654537089" class="delaunay-line"/>
<line x1="15.475621081074253" y1="0.7710504654537089" x2="15.63783275548498" y2="0.8794368411160783" class="delaunay-line"/>
<line x1="15.475621081074253" y1="0.7710504654537089" x2="24" y2="0" class="delaunay-line"/>
<line x1="24" y1="0" x2="15.284279364891708" y2="0.7329902317093522" class="delaunay-line"/>
<line x1="15.284279364891708" y1="0.7329902317093522" x2="15.475621081074253" y2="0.7710504654537089" class="delaunay-line"/>
<line x1="15.74621913114735" y1="1.041648515526807" x2="24" y2="0" class="delaunay-line"/>
<line x1="24" y1="0" x2="15.63783275548498" y2="0.8794368411160783" class="delaunay-line"/>
<line x1="15.63783275548498" y1="0.8794368411160783" x2="15.74621913114735" y2="1.041648515526807" class="delaunay-line"/>
<line x1="24" y1="24" x2="24" y2="0" class="delaunay-line"/>
<line x1="24" y1="0" x2="17.760538194646365" y2="16.456560596404486" class="delaunay-line"/>
<line x1="17.760538194646365" y1="16.456560596404486" x2="24" y2="24" class="delaunay-line"/>
<line x1="8.197486351423914" y1="20.071685826496207" x2="0" y2="24" class="delaunay-line"/>
<line x1="0" y1="24" x2="8.382223255313889" y2="20.134395555290894" class="delaunay-line"/>
<line x1="8.382223255313889" y1="20.134395555290894" x2="8.197486351423914" y2="20.071685826496207" class="delaunay-line"/>
<line x1="8.382223255313889" y1="20.134395555290894" x2="0" y2="24" class="delaunay-line"/>
<line x1="0" y1="24" x2="8.576895873975174" y2="20.121636037748523" class="delaunay-line"/>
<line x1="8.576895873975174" y1="20.121636037748523" x2="8.382223255313889" y2="20.134395555290894" class="delaunay-line"/>
<line x1="8.050809681278295" y1="19.943053839108345" x2="0" y2="24" class="delaunay-line"/>
<line x1="0" y1="24" x2="8.197486351423914" y2="20.071685826496207" class="delaunay-line"/>
<line x1="8.197486351423914" y1="20.071685826496207" x2="8.050809681278295" y2="19.943053839108345" class="delaunay-line"/>
<line x1="7.964523438279381" y1="19.768082647155246" x2="0" y2="24" class="delaunay-line"/>
<line x1="0" y1="24" x2="8.050809681278295" y2="19.943053839108345" class="delaunay-line"/>
<line x1="8.050809681278295" y1="19.943053839108345" x2="7.964523438279381" y2="19.768082647155246" class="delaunay-line"/>
<line x1="7.951763920737008" y1="19.57341002849396" x2="0" y2="24" class="delaunay-line"/>
<line x1="0" y1="24" x2="7.964523438279381" y2="19.768082647155246" class="delaunay-line"/>
<line x1="7.964523438279381" y1="19.768082647155246" x2="7.951763920737008" y2="19.57341002849396" class="delaunay-line"/>
<line x1="0" y1="0" x2="9.28473146454785" y2="2.108364355761984" class="delaunay-line"/>
<line x1="9.28473146454785" y1="2.108364355761984" x2="9.17634508888548" y2="1.9461526813512569" class="delaunay-line"/>
<line x1="9.17634508888548" y1="1.9461526813512569" x2="0" y2="0" class="delaunay-line"/>
<line x1="0" y1="0" x2="9.17634508888548" y2="1.9461526813512569" class="delaunay-line"/>
<line x1="9.17634508888548" y1="1.9461526813512569" x2="9.138284855141123" y2="1.7548109651687112" class="delaunay-line"/>
<line x1="9.138284855141123" y1="1.7548109651687112" x2="0" y2="0" class="delaunay-line"/>
<line x1="9.28473146454785" y1="1.401257574575438" x2="0" y2="0" class="delaunay-line"/>
<line x1="0" y1="0" x2="9.17634508888548" y2="1.5634692489861655" class="delaunay-line"/>
<line x1="9.17634508888548" y1="1.5634692489861655" x2="9.28473146454785" y2="1.401257574575438" class="delaunay-line"/>
<line x1="9.17634508888548" y1="1.5634692489861655" x2="0" y2="0" class="delaunay-line"/>
<line x1="0" y1="0" x2="9.138284855141123" y2="1.7548109651687112" class="delaunay-line"/>
<line x1="9.138284855141123" y1="1.7548109651687112" x2="9.17634508888548" y2="1.5634692489861655" class="delaunay-line"/>
<line x1="9.446943138958577" y1="1.2928711989130681" x2="0" y2="0" class="delaunay-line"/>
<line x1="0" y1="0" x2="9.28473146454785" y2="1.401257574575438" class="delaunay-line"/>
<line x1="9.28473146454785" y1="1.401257574575438" x2="9.446943138958577" y2="1.2928711989130681" class="delaunay-line"/>
<line x1="9.638284855141123" y1="1.2548109651687112" x2="0" y2="0" class="delaunay-line"/>
<line x1="0" y1="0" x2="9.446943138958577" y2="1.2928711989130681" class="delaunay-line"/>
<line x1="9.446943138958577" y1="1.2928711989130681" x2="9.638284855141123" y2="1.2548109651687112" class="delaunay-line"/>
<line x1="15.284279364891708" y1="0.7329902317093522" x2="0" y2="0" class="delaunay-line"/>
<line x1="0" y1="0" x2="9.638284855141123" y2="1.2548109651687112" class="delaunay-line"/>
<line x1="9.638284855141123" y1="1.2548109651687112" x2="15.284279364891708" y2="0.7329902317093522" class="delaunay-line"/>
<line x1="24" y1="0" x2="0" y2="0" class="delaunay-line"/>
<line x1="0" y1="0" x2="15.284279364891708" y2="0.7329902317093522" class="delaunay-line"/>
<line x1="15.284279364891708" y1="0.7329902317093522" x2="24" y2="0" class="delaunay-line"/>
</g>
<g id="layer-area" class="layer ">
</g>
<g id="layer-terrain" class="layer ">
<polygon points="17.014815763959458,16.088810990622292 17.19955266784943,16.026101261827606 17.394225286510718,16.038860779369976 17.569196478463816,16.125147022368893 17.69782846585168,16.271823692514513 17.760538194646365,16.456560596404486 17.747778677103994,16.651233215065773 17.661492434105078,16.82620440701887 17.514815763959458,16.954836394406733 17.330078860069484,17.01754612320142 17.135406241408198,17.00478660565905 16.9604350494551,16.918500362660133 16.831803062067237,16.771823692514513 16.76909333327255,16.58708678862454 16.78185285081492,16.392414169963253 16.868139093813838,16.217442978010155" fill="Dark Green" class="terrain-solid"/>
<polygon points="8.697486351423914,19.205660422711766 8.844163021569532,19.33429241009963 8.930449264568447,19.509263602052727 8.943208782110819,19.703936220714013 8.880499053316132,19.888673124603987 8.751867065928273,20.035349794749607 8.576895873975174,20.121636037748523 8.382223255313889,20.134395555290894 8.197486351423914,20.071685826496207 8.050809681278295,19.943053839108345 7.964523438279381,19.768082647155246 7.951763920737008,19.57341002849396 8.014473649531695,19.388673124603987 8.143105636919554,19.241996454458366 8.318076828872654,19.15571021145945 8.512749447533938,19.14295069391708" fill="Dark Green" class="terrain-solid"/>
<polygon points="9.638284855141123,1.2548109651687112 9.829626571323669,1.2928711989130681 9.991838245734396,1.401257574575438 10.100224621396766,1.5634692489861655 10.138284855141123,1.7548109651687112 10.100224621396766,1.9461526813512569 9.991838245734396,2.108364355761984 9.829626571323669,2.216750731424354 9.638284855141123,2.254810965168711 9.446943138958577,2.216750731424354 9.28473146454785,2.108364355761984 9.17634508888548,1.9461526813512569 9.138284855141123,1.7548109651687112 9.17634508888548,1.5634692489861655 9.28473146454785,1.401257574575438 9.446943138958577,1.2928711989130681" fill="Dark Green" class="terrain-solid"/>
<polygon points="15.784279364891708,1.2329902317093522 15.74621913114735,1.424331947891897 15.63783275548498,1.586543622302626 15.475621081074253,1.6949299979649957 15.284279364891708,1.7329902317093522 15.092937648709162,1.6949299979649957 14.930725974298435,1.586543622302626 14.822339598636065,1.4243319478918972 14.784279364891708,1.2329902317093522 14.822339598636065,1.0416485155268074 14.930725974298435,0.8794368411160784 15.092937648709162,0.7710504654537089 15.284279364891708,0.7329902317093522 15.475621081074253,0.7710504654537089 15.63783275548498,0.8794368411160783 15.74621913114735,1.041648515526807" fill="Dark Green" class="terrain-solid"/>
</g>
<g id="layer-models" class="layer ">
</g>
<g id="layer-paths" class="layer ">
</g>
<g id="layer-vectors" class="layer ">
</g>
<g id="layer-los" class="layer ">
</g>
<g id="layer-lof" class="layer ">
</g>

</svg>