<svg xmlns="http://www.w3.org/2000/svg" viewBox="0 0 24 24" width="960" height="960" font-family="Arial" font-size="0.6">
<defs>
  <style><![CDATA[
    .layer { display: inline; }
    .layer.hidden { display: none; }
    .grid-line { stroke: #999; stroke-width: 0.02; opacity: 0.2; }
    .delaunay-line { stroke: #4a6fa5; stroke-width: 0.03; opacity: 0.3; }
    .terrain-area { stroke: #000; stroke-width: 0.05; }
    .terrain-solid { stroke: #000; stroke-width: 0.05; }
    .model { stroke: #ff0000; stroke-width: 2; vector-effect: non-scaling-stroke; }
    .path { fill: none; stroke-width: 0.12; }
    .vector { stroke-width: 0.1; }
    .los-ray { stroke-width: 0.08; stroke-dasharray: 0.2 0.2; }
    .lof-ray { stroke-width: 0.08; stroke-dasharray: 0.3 0.15; }
    .label { fill: #111 !important; font-size: 0.6px; }
    .toggle { cursor: pointer; }
    .toggle.disabled { cursor: default; }
    .toggle.disabled rect { stroke: #ccc; fill: #fff; }
    .toggle.disabled text { fill: #ccc; }
#layer-area { fill: #C49A6C; }
#layer-building { fill: #000000; }
#layer-wall { fill: #555555; }
#layer-tree { fill: #90EE90; }
#layer-shrub { fill: #006400; }
  ]]></style>
</defs>
<rect x="0" y="0" width="24" height="24" fill="#ffffff" stroke="#111" stroke-width="0.05"/>
<script><![CDATA[
      function toggleLayer(id) {
        var layer = document.getElementById('layer-' + id);
        if (!layer) return;
        if (layer.classList.contains('hidden')) {
          layer.classList.remove('hidden');
        } else {
          layer.classList.add('hidden');
        }
      }
    ]]></script>
<text x="0.4" y="23.6" class="label">Battlefield 24x24 density 75 blockLOS 50</text>
<g id="layer-deployment" class="layer ">
<rect x="0" y="22" width="24" height="2" fill="#ff0000" opacity="0.2"/>
<rect x="0" y="0" width="24" height="2" fill="#0000ff" opacity="0.2"/>
</g>
<g id="layer-grid" class="layer ">
<line x1="0" y1="0" x2="0" y2="24" class="grid-line"/>
<line x1="0.5" y1="0" x2="0.5" y2="24" class="grid-line"/>
<line x1="1" y1="0" x2="1" y2="24" class="grid-line"/>
<line x1="1.5" y1="0" x2="1.5" y2="24" class="grid-line"/>
<line x1="2" y1="0" x2="2" y2="24" class="grid-line"/>
<line x1="2.5" y1="0" x2="2.5" y2="24" class="grid-line"/>
<line x1="3" y1="0" x2="3" y2="24" class="grid-line"/>
<line x1="3.5" y1="0" x2="3.5" y2="24" class="grid-line"/>
<line x1="4" y1="0" x2="4" y2="24" class="grid-line"/>
<line x1="4.5" y1="0" x2="4.5" y2="24" class="grid-line"/>
<line x1="5" y1="0" x2="5" y2="24" class="grid-line"/>
<line x1="5.5" y1="0" x2="5.5" y2="24" class="grid-line"/>
<line x1="6" y1="0" x2="6" y2="24" class="grid-line"/>
<line x1="6.5" y1="0" x2="6.5" y2="24" class="grid-line"/>
<line x1="7" y1="0" x2="7" y2="24" class="grid-line"/>
<line x1="7.5" y1="0" x2="7.5" y2="24" class="grid-line"/>
<line x1="8" y1="0" x2="8" y2="24" class="grid-line"/>
<line x1="8.5" y1="0" x2="8.5" y2="24" class="grid-line"/>
<line x1="9" y1="0" x2="9" y2="24" class="grid-line"/>
<line x1="9.5" y1="0" x2="9.5" y2="24" class="grid-line"/>
<line x1="10" y1="0" x2="10" y2="24" class="grid-line"/>
<line x1="10.5" y1="0" x2="10.5" y2="24" class="grid-line"/>
<line x1="11" y1="0" x2="11" y2="24" class="grid-line"/>
<line x1="11.5" y1="0" x2="11.5" y2="24" class="grid-line"/>
<line x1="12" y1="0" x2="12" y2="24" class="grid-line"/>
<line x1="12.5" y1="0" x2="12.5" y2="24" class="grid-line"/>
<line x1="13" y1="0" x2="13" y2="24" class="grid-line"/>
<line x1="13.5" y1="0" x2="13.5" y2="24" class="grid-line"/>
<line x1="14" y1="0" x2="14" y2="24" class="grid-line"/>
<line x1="14.5" y1="0" x2="14.5" y2="24" class="grid-line"/>
<line x1="15" y1="0" x2="15" y2="24" class="grid-line"/>
<line x1="15.5" y1="0" x2="15.5" y2="24" class="grid-line"/>
<line x1="16" y1="0" x2="16" y2="24" class="grid-line"/>
<line x1="16.5" y1="0" x2="16.5" y2="24" class="grid-line"/>
<line x1="17" y1="0" x2="17" y2="24" class="grid-line"/>
<line x1="17.5" y1="0" x2="17.5" y2="24" class="grid-line"/>
<line x1="18" y1="0" x2="18" y2="24" class="grid-line"/>
<line x1="18.5" y1="0" x2="18.5" y2="24" class="grid-line"/>
<line x1="19" y1="0" x2="19" y2="24" class="grid-line"/>
<line x1="19.5" y1="0" x2="19.5" y2="24" class="grid-line"/>
<line x1="20" y1="0" x2="20" y2="24" class="grid-line"/>
<line x1="20.5" y1="0" x2="20.5" y2="24" class="grid-line"/>
<line x1="21" y1="0" x2="21" y2="24" class="grid-line"/>
<line x1="21.5" y1="0" x2="21.5" y2="24" class="grid-line"/>
<line x1="22" y1="0" x2="22" y2="24" class="grid-line"/>
<line x1="22.5" y1="0" x2="22.5" y2="24" class="grid-line"/>
<line x1="23" y1="0" x2="23" y2="24" class="grid-line"/>
<line x1="23.5" y1="0" x2="23.5" y2="24" class="grid-line"/>
<line x1="24" y1="0" x2="24" y2="24" class="grid-line"/>
<line x1="0" y1="0" x2="24" y2="0" class="grid-line"/>
<line x1="0" y1="0.5" x2="24" y2="0.5" class="grid-line"/>
<line x1="0" y1="1" x2="24" y2="1" class="grid-line"/>
<line x1="0" y1="1.5" x2="24" y2="1.5" class="grid-line"/>
<line x1="0" y1="2" x2="24" y2="2" class="grid-line"/>
<line x1="0" y1="2.5" x2="24" y2="2.5" class="grid-line"/>
<line x1="0" y1="3" x2="24" y2="3" class="grid-line"/>
<line x1="0" y1="3.5" x2="24" y2="3.5" class="grid-line"/>
<line x1="0" y1="4" x2="24" y2="4" class="grid-line"/>
<line x1="0" y1="4.5" x2="24" y2="4.5" class="grid-line"/>
<line x1="0" y1="5" x2="24" y2="5" class="grid-line"/>
<line x1="0" y1="5.5" x2="24" y2="5.5" class="grid-line"/>
<line x1="0" y1="6" x2="24" y2="6" class="grid-line"/>
<line x1="0" y1="6.5" x2="24" y2="6.5" class="grid-line"/>
<line x1="0" y1="7" x2="24" y2="7" class="grid-line"/>
<line x1="0" y1="7.5" x2="24" y2="7.5" class="grid-line"/>
<line x1="0" y1="8" x2="24" y2="8" class="grid-line"/>
<line x1="0" y1="8.5" x2="24" y2="8.5" class="grid-line"/>
<line x1="0" y1="9" x2="24" y2="9" class="grid-line"/>
<line x1="0" y1="9.5" x2="24" y2="9.5" class="grid-line"/>
<line x1="0" y1="10" x2="24" y2="10" class="grid-line"/>
<line x1="0" y1="10.5" x2="24" y2="10.5" class="grid-line"/>
<line x1="0" y1="11" x2="24" y2="11" class="grid-line"/>
<line x1="0" y1="11.5" x2="24" y2="11.5" class="grid-line"/>
<line x1="0" y1="12" x2="24" y2="12" class="grid-line"/>
<line x1="0" y1="12.5" x2="24" y2="12.5" class="grid-line"/>
<line x1="0" y1="13" x2="24" y2="13" class="grid-line"/>
<line x1="0" y1="13.5" x2="24" y2="13.5" class="grid-line"/>
<line x1="0" y1="14" x2="24" y2="14" class="grid-line"/>
<line x1="0" y1="14.5" x2="24" y2="14.5" class="grid-line"/>
<line x1="0" y1="15" x2="24" y2="15" class="grid-line"/>
<line x1="0" y1="15.5" x2="24" y2="15.5" class="grid-line"/>
<line x1="0" y1="16" x2="24" y2="16" class="grid-line"/>
<line x1="0" y1="16.5" x2="24" y2="16.5" class="grid-line"/>
<line x1="0" y1="17" x2="24" y2="17" class="grid-line"/>
<line x1="0" y1="17.5" x2="24" y2="17.5" class="grid-line"/>
<line x1="0" y1="18" x2="24" y2="18" class="grid-line"/>
<line x1="0" y1="18.5" x2="24" y2="18.5" class="grid-line"/>
<line x1="0" y1="19" x2="24" y2="19" class="grid-line"/>
<line x1="0" y1="19.5" x2="24" y2="19.5" class="grid-line"/>
<line x1="0" y1="20" x2="24" y2="20" class="grid-line"/>
<line x1="0" y1="20.5" x2="24" y2="20.5" class="grid-line"/>
<line x1="0" y1="21" x2="24" y2="21" class="grid-line"/>
<line x1="0" y1="21.5" x2="24" y2="21.5" class="grid-line"/>
<line x1="0" y1="22" x2="24" y2="22" class="grid-line"/>
<line x1="0" y1="22.5" x2="24" y2="22.5" class="grid-line"/>
<line x1="0" y1="23" x2="24" y2="23" class="grid-line"/>
<line x1="0" y1="23.5" x2="24" y2="23.5" class="grid-line"/>
<line x1="0" y1="24" x2="24" y2="24" class="grid-line"/>
</g>
<g id="layer-delaunay" class="layer ">
<line x1="14.218920505898797" y1="11.049134525974049" x2="19.099876884532563" y2="8.158533933442639" class="delaunay-line"/>
<line x1="19.099876884532563" y1="8.158533933442639" x2="14.089510983347534" y2="10.566171612829516" class="delaunay-line"/>
<line x1="14.089510983347534" y1="10.566171612829516" x2="14.218920505898797" y2="11.049134525974049" class="delaunay-line"/>
<line x1="20.014475463633207" y1="9.496220255358926" x2="19.885065941081944" y2="9.013257342214393" class="delaunay-line"/>
<line x1="19.885065941081944" y1="9.013257342214393" x2="19.099876884532563" y2="8.158533933442639" class="delaunay-line"/>
<line x1="19.099876884532563" y1="8.158533933442639" x2="20.014475463633207" y2="9.496220255358926" class="delaunay-line"/>
<line x1="14.218920505898797" y1="11.049134525974049" x2="20.014475463633207" y2="9.496220255358926" class="delaunay-line"/>
<line x1="20.014475463633207" y1="9.496220255358926" x2="19.099876884532563" y2="8.158533933442639" class="delaunay-line"/>
<line x1="19.099876884532563" y1="8.158533933442639" x2="14.218920505898797" y2="11.049134525974049" class="delaunay-line"/>
<line x1="14.565263096110026" y1="16.004277569313096" x2="14.749999999999998" y2="16.066987298107783" class="delaunay-line"/>
<line x1="14.749999999999998" y1="16.066987298107783" x2="14.218920505898797" y2="11.049134525974049" class="delaunay-line"/>
<line x1="14.218920505898797" y1="11.049134525974049" x2="14.565263096110026" y2="16.004277569313096" class="delaunay-line"/>
<line x1="21.206646659708767" y1="15.39123857099128" x2="21.5" y2="15.13397459621556" class="delaunay-line"/>
<line x1="21.5" y1="15.13397459621556" x2="20.014475463633207" y2="9.496220255358926" class="delaunay-line"/>
<line x1="20.014475463633207" y1="9.496220255358926" x2="21.206646659708767" y2="15.39123857099128" class="delaunay-line"/>
<line x1="14.37059047744874" y1="16.017037086855467" x2="14.565263096110026" y2="16.004277569313096" class="delaunay-line"/>
<line x1="14.565263096110026" y1="16.004277569313096" x2="14.218920505898797" y2="11.049134525974049" class="delaunay-line"/>
<line x1="14.218920505898797" y1="11.049134525974049" x2="14.37059047744874" y2="16.017037086855467" class="delaunay-line"/>
<line x1="14.982962913144535" y1="16.37059047744874" x2="14.896676670145618" y2="16.195619285495642" class="delaunay-line"/>
<line x1="14.896676670145618" y1="16.195619285495642" x2="14.995722430686905" y2="16.565263096110026" class="delaunay-line"/>
<line x1="14.995722430686905" y1="16.565263096110026" x2="14.982962913144535" y2="16.37059047744874" class="delaunay-line"/>
<line x1="14.749999999999998" y1="16.066987298107783" x2="14.896676670145618" y2="16.195619285495642" class="delaunay-line"/>
<line x1="14.896676670145618" y1="16.195619285495642" x2="14.218920505898797" y2="11.049134525974049" class="delaunay-line"/>
<line x1="14.218920505898797" y1="11.049134525974049" x2="14.749999999999998" y2="16.066987298107783" class="delaunay-line"/>
<line x1="14.195619285495638" y1="16.103323329854383" x2="14.37059047744874" y2="16.017037086855467" class="delaunay-line"/>
<line x1="14.37059047744874" y1="16.017037086855467" x2="14.218920505898797" y2="11.049134525974049" class="delaunay-line"/>
<line x1="14.218920505898797" y1="11.049134525974049" x2="14.195619285495638" y2="16.103323329854383" class="delaunay-line"/>
<line x1="14.565263096110026" y1="16.004277569313096" x2="14.37059047744874" y2="16.017037086855467" class="delaunay-line"/>
<line x1="14.37059047744874" y1="16.017037086855467" x2="14.749999999999998" y2="16.066987298107783" class="delaunay-line"/>
<line x1="14.749999999999998" y1="16.066987298107783" x2="14.565263096110026" y2="16.004277569313096" class="delaunay-line"/>
<line x1="14.995722430686905" y1="16.565263096110026" x2="14.896676670145618" y2="16.195619285495642" class="delaunay-line"/>
<line x1="14.896676670145618" y1="16.195619285495642" x2="14.749999999999998" y2="16.066987298107783" class="delaunay-line"/>
<line x1="14.749999999999998" y1="16.066987298107783" x2="14.995722430686905" y2="16.565263096110026" class="delaunay-line"/>
<line x1="21.206646659708767" y1="15.39123857099128" x2="20.014475463633207" y2="9.496220255358926" class="delaunay-line"/>
<line x1="20.014475463633207" y1="9.496220255358926" x2="14.218920505898797" y2="11.049134525974049" class="delaunay-line"/>
<line x1="14.218920505898797" y1="11.049134525974049" x2="21.206646659708767" y2="15.39123857099128" class="delaunay-line"/>
<line x1="14.066987298107781" y1="16.25" x2="14.195619285495638" y2="16.103323329854383" class="delaunay-line"/>
<line x1="14.195619285495638" y1="16.103323329854383" x2="14.218920505898797" y2="11.049134525974049" class="delaunay-line"/>
<line x1="14.218920505898797" y1="11.049134525974049" x2="14.066987298107781" y2="16.25" class="delaunay-line"/>
<line x1="14.37059047744874" y1="16.017037086855467" x2="14.066987298107781" y2="16.25" class="delaunay-line"/>
<line x1="14.066987298107781" y1="16.25" x2="14.749999999999998" y2="16.066987298107783" class="delaunay-line"/>
<line x1="14.749999999999998" y1="16.066987298107783" x2="14.37059047744874" y2="16.017037086855467" class="delaunay-line"/>
<line x1="14.933012701892219" y1="16.75" x2="14.995722430686905" y2="16.565263096110026" class="delaunay-line"/>
<line x1="14.995722430686905" y1="16.565263096110026" x2="14.749999999999998" y2="16.066987298107783" class="delaunay-line"/>
<line x1="14.749999999999998" y1="16.066987298107783" x2="14.933012701892219" y2="16.75" class="delaunay-line"/>
<line x1="21.206646659708767" y1="15.39123857099128" x2="14.218920505898797" y2="11.049134525974049" class="delaunay-line"/>
<line x1="14.218920505898797" y1="11.049134525974049" x2="14.896676670145618" y2="16.195619285495642" class="delaunay-line"/>
<line x1="14.896676670145618" y1="16.195619285495642" x2="21.206646659708767" y2="15.39123857099128" class="delaunay-line"/>
<line x1="14.004277569313095" y1="16.434736903889974" x2="14.066987298107781" y2="16.25" class="delaunay-line"/>
<line x1="14.066987298107781" y1="16.25" x2="6.837602083032866" y2="10.218577615038653" class="delaunay-line"/>
<line x1="6.837602083032866" y1="10.218577615038653" x2="14.004277569313095" y2="16.434736903889974" class="delaunay-line"/>
<line x1="14.195619285495638" y1="16.103323329854383" x2="14.066987298107781" y2="16.25" class="delaunay-line"/>
<line x1="14.066987298107781" y1="16.25" x2="14.37059047744874" y2="16.017037086855467" class="delaunay-line"/>
<line x1="14.37059047744874" y1="16.017037086855467" x2="14.195619285495638" y2="16.103323329854383" class="delaunay-line"/>
<line x1="21.206646659708767" y1="15.39123857099128" x2="14.896676670145618" y2="16.195619285495642" class="delaunay-line"/>
<line x1="14.896676670145618" y1="16.195619285495642" x2="21.034074173710934" y2="15.741180954897482" class="delaunay-line"/>
<line x1="21.034074173710934" y1="15.741180954897482" x2="21.206646659708767" y2="15.39123857099128" class="delaunay-line"/>
<line x1="21.034074173710934" y1="15.741180954897482" x2="14.896676670145618" y2="16.195619285495642" class="delaunay-line"/>
<line x1="14.896676670145618" y1="16.195619285495642" x2="14.982962913144535" y2="16.37059047744874" class="delaunay-line"/>
<line x1="14.982962913144535" y1="16.37059047744874" x2="21.034074173710934" y2="15.741180954897482" class="delaunay-line"/>
<line x1="14.804380714504362" y1="16.896676670145617" x2="14.933012701892219" y2="16.75" class="delaunay-line"/>
<line x1="14.933012701892219" y1="16.75" x2="14.62940952255126" y2="16.982962913144533" class="delaunay-line"/>
<line x1="14.62940952255126" y1="16.982962913144533" x2="14.804380714504362" y2="16.896676670145617" class="delaunay-line"/>
<line x1="21.00855513862619" y1="16.13052619222005" x2="21.034074173710934" y2="15.741180954897482" class="delaunay-line"/>
<line x1="21.034074173710934" y1="15.741180954897482" x2="14.982962913144535" y2="16.37059047744874" class="delaunay-line"/>
<line x1="14.982962913144535" y1="16.37059047744874" x2="21.00855513862619" y2="16.13052619222005" class="delaunay-line"/>
<line x1="21.206646659708767" y1="15.39123857099128" x2="21.86947380777995" y2="15.008555138626189" class="delaunay-line"/>
<line x1="21.86947380777995" y1="15.008555138626189" x2="21.5" y2="15.13397459621556" class="delaunay-line"/>
<line x1="21.5" y1="15.13397459621556" x2="21.206646659708767" y2="15.39123857099128" class="delaunay-line"/>
<line x1="21.5" y1="15.13397459621556" x2="21.86947380777995" y2="15.008555138626189" class="delaunay-line"/>
<line x1="21.86947380777995" y1="15.008555138626189" x2="20.014475463633207" y2="9.496220255358926" class="delaunay-line"/>
<line x1="20.014475463633207" y1="9.496220255358926" x2="21.5" y2="15.13397459621556" class="delaunay-line"/>
<line x1="20.014475463633207" y1="9.496220255358926" x2="24" y2="0" class="delaunay-line"/>
<line x1="24" y1="0" x2="19.885065941081944" y2="9.013257342214393" class="delaunay-line"/>
<line x1="19.885065941081944" y1="9.013257342214393" x2="20.014475463633207" y2="9.496220255358926" class="delaunay-line"/>
<line x1="21.00855513862619" y1="16.13052619222005" x2="14.982962913144535" y2="16.37059047744874" class="delaunay-line"/>
<line x1="14.982962913144535" y1="16.37059047744874" x2="14.995722430686905" y2="16.565263096110026" class="delaunay-line"/>
<line x1="14.995722430686905" y1="16.565263096110026" x2="21.00855513862619" y2="16.13052619222005" class="delaunay-line"/>
<line x1="21.206646659708767" y1="15.39123857099128" x2="22.25881904510252" y2="15.034074173710934" class="delaunay-line"/>
<line x1="22.25881904510252" y1="15.034074173710934" x2="21.86947380777995" y2="15.008555138626189" class="delaunay-line"/>
<line x1="21.86947380777995" y1="15.008555138626189" x2="21.206646659708767" y2="15.39123857099128" class="delaunay-line"/>
<line x1="14.434736903889974" y1="16.995722430686904" x2="14.62940952255126" y2="16.982962913144533" class="delaunay-line"/>
<line x1="14.62940952255126" y1="16.982962913144533" x2="14.250000000000002" y2="16.933012701892217" class="delaunay-line"/>
<line x1="14.250000000000002" y1="16.933012701892217" x2="14.434736903889974" y2="16.995722430686904" class="delaunay-line"/>
<line x1="6.837602083032866" y1="10.218577615038653" x2="14.066987298107781" y2="16.25" class="delaunay-line"/>
<line x1="14.066987298107781" y1="16.25" x2="14.218920505898797" y2="11.049134525974049" class="delaunay-line"/>
<line x1="14.218920505898797" y1="11.049134525974049" x2="6.837602083032866" y2="10.218577615038653" class="delaunay-line"/>
<line x1="14.62940952255126" y1="16.982962913144533" x2="14.933012701892219" y2="16.75" class="delaunay-line"/>
<line x1="14.933012701892219" y1="16.75" x2="14.749999999999998" y2="16.066987298107783" class="delaunay-line"/>
<line x1="14.749999999999998" y1="16.066987298107783" x2="14.62940952255126" y2="16.982962913144533" class="delaunay-line"/>
<line x1="21.133974596215563" y1="16.5" x2="21.00855513862619" y2="16.13052619222005" class="delaunay-line"/>
<line x1="21.00855513862619" y1="16.13052619222005" x2="14.995722430686905" y2="16.565263096110026" class="delaunay-line"/>
<line x1="14.995722430686905" y1="16.565263096110026" x2="21.133974596215563" y2="16.5" class="delaunay-line"/>
<line x1="14.004277569313095" y1="16.434736903889974" x2="14.250000000000002" y2="16.933012701892217" class="delaunay-line"/>
<line x1="14.250000000000002" y1="16.933012701892217" x2="14.066987298107781" y2="16.25" class="delaunay-line"/>
<line x1="14.066987298107781" y1="16.25" x2="14.004277569313095" y2="16.434736903889974" class="delaunay-line"/>
<line x1="21.034074173710934" y1="15.741180954897482" x2="22.25881904510252" y2="15.034074173710934" class="delaunay-line"/>
<line x1="22.25881904510252" y1="15.034074173710934" x2="21.206646659708767" y2="15.39123857099128" class="delaunay-line"/>
<line x1="21.206646659708767" y1="15.39123857099128" x2="21.034074173710934" y2="15.741180954897482" class="delaunay-line"/>
<line x1="21.86947380777995" y1="15.008555138626189" x2="22.25881904510252" y2="15.034074173710934" class="delaunay-line"/>
<line x1="22.25881904510252" y1="15.034074173710934" x2="20.014475463633207" y2="9.496220255358926" class="delaunay-line"/>
<line x1="20.014475463633207" y1="9.496220255358926" x2="21.86947380777995" y2="15.008555138626189" class="delaunay-line"/>
<line x1="14.250000000000002" y1="16.933012701892217" x2="14.749999999999998" y2="16.066987298107783" class="delaunay-line"/>
<line x1="14.749999999999998" y1="16.066987298107783" x2="14.066987298107781" y2="16.25" class="delaunay-line"/>
<line x1="14.066987298107781" y1="16.25" x2="14.250000000000002" y2="16.933012701892217" class="delaunay-line"/>
<line x1="21.133974596215563" y1="16.5" x2="14.995722430686905" y2="16.565263096110026" class="delaunay-line"/>
<line x1="14.995722430686905" y1="16.565263096110026" x2="14.933012701892219" y2="16.75" class="delaunay-line"/>
<line x1="14.933012701892219" y1="16.75" x2="21.133974596215563" y2="16.5" class="delaunay-line"/>
<line x1="21.133974596215563" y1="16.5" x2="14.933012701892219" y2="16.75" class="delaunay-line"/>
<line x1="14.933012701892219" y1="16.75" x2="21.39123857099128" y2="16.793353340291237" class="delaunay-line"/>
<line x1="21.39123857099128" y1="16.793353340291237" x2="21.133974596215563" y2="16.5" class="delaunay-line"/>
<line x1="22.866025403784437" y1="15.5" x2="22.60876142900872" y2="15.206646659708763" class="delaunay-line"/>
<line x1="22.60876142900872" y1="15.206646659708763" x2="22.25881904510252" y2="15.034074173710934" class="delaunay-line"/>
<line x1="22.25881904510252" y1="15.034074173710934" x2="22.866025403784437" y2="15.5" class="delaunay-line"/>
<line x1="14.017037086855465" y1="16.62940952255126" x2="14.103323329854382" y2="16.804380714504358" class="delaunay-line"/>
<line x1="14.103323329854382" y1="16.804380714504358" x2="14.004277569313095" y2="16.434736903889974" class="delaunay-line"/>
<line x1="14.004277569313095" y1="16.434736903889974" x2="14.017037086855465" y2="16.62940952255126" class="delaunay-line"/>
<line x1="14.250000000000002" y1="16.933012701892217" x2="14.62940952255126" y2="16.982962913144533" class="delaunay-line"/>
<line x1="14.62940952255126" y1="16.982962913144533" x2="14.749999999999998" y2="16.066987298107783" class="delaunay-line"/>
<line x1="14.749999999999998" y1="16.066987298107783" x2="14.250000000000002" y2="16.933012701892217" class="delaunay-line"/>
<line x1="14.103323329854382" y1="16.804380714504358" x2="14.250000000000002" y2="16.933012701892217" class="delaunay-line"/>
<line x1="14.250000000000002" y1="16.933012701892217" x2="14.004277569313095" y2="16.434736903889974" class="delaunay-line"/>
<line x1="14.004277569313095" y1="16.434736903889974" x2="14.103323329854382" y2="16.804380714504358" class="delaunay-line"/>
<line x1="22.866025403784437" y1="15.5" x2="22.25881904510252" y2="15.034074173710934" class="delaunay-line"/>
<line x1="22.25881904510252" y1="15.034074173710934" x2="22.965925826289066" y2="16.25881904510252" class="delaunay-line"/>
<line x1="22.965925826289066" y1="16.25881904510252" x2="22.866025403784437" y2="15.5" class="delaunay-line"/>
<line x1="22.25881904510252" y1="15.034074173710934" x2="22.60876142900872" y2="15.206646659708763" class="delaunay-line"/>
<line x1="22.60876142900872" y1="15.206646659708763" x2="20.014475463633207" y2="9.496220255358926" class="delaunay-line"/>
<line x1="20.014475463633207" y1="9.496220255358926" x2="22.25881904510252" y2="15.034074173710934" class="delaunay-line"/>
<line x1="21.39123857099128" y1="16.793353340291237" x2="14.933012701892219" y2="16.75" class="delaunay-line"/>
<line x1="14.933012701892219" y1="16.75" x2="14.804380714504362" y2="16.896676670145617" class="delaunay-line"/>
<line x1="14.804380714504362" y1="16.896676670145617" x2="21.39123857099128" y2="16.793353340291237" class="delaunay-line"/>
<line x1="21.00855513862619" y1="16.13052619222005" x2="21.133974596215563" y2="16.5" class="delaunay-line"/>
<line x1="21.133974596215563" y1="16.5" x2="21.034074173710934" y2="15.741180954897482" class="delaunay-line"/>
<line x1="21.034074173710934" y1="15.741180954897482" x2="21.00855513862619" y2="16.13052619222005" class="delaunay-line"/>
<line x1="22.965925826289066" y1="16.25881904510252" x2="22.25881904510252" y2="15.034074173710934" class="delaunay-line"/>
<line x1="22.25881904510252" y1="15.034074173710934" x2="21.034074173710934" y2="15.741180954897482" class="delaunay-line"/>
<line x1="21.034074173710934" y1="15.741180954897482" x2="22.965925826289066" y2="16.25881904510252" class="delaunay-line"/>
<line x1="22.60876142900872" y1="15.206646659708763" x2="24" y2="0" class="delaunay-line"/>
<line x1="24" y1="0" x2="20.014475463633207" y2="9.496220255358926" class="delaunay-line"/>
<line x1="20.014475463633207" y1="9.496220255358926" x2="22.60876142900872" y2="15.206646659708763" class="delaunay-line"/>
<line x1="21.74118095489748" y1="16.965925826289066" x2="21.39123857099128" y2="16.793353340291237" class="delaunay-line"/>
<line x1="21.39123857099128" y1="16.793353340291237" x2="24" y2="24" class="delaunay-line"/>
<line x1="24" y1="24" x2="21.74118095489748" y2="16.965925826289066" class="delaunay-line"/>
<line x1="22.965925826289066" y1="16.25881904510252" x2="22.99144486137381" y2="15.86947380777995" class="delaunay-line"/>
<line x1="22.99144486137381" y1="15.86947380777995" x2="22.866025403784437" y2="15.5" class="delaunay-line"/>
<line x1="22.866025403784437" y1="15.5" x2="22.965925826289066" y2="16.25881904510252" class="delaunay-line"/>
<line x1="21.39123857099128" y1="16.793353340291237" x2="14.804380714504362" y2="16.896676670145617" class="delaunay-line"/>
<line x1="14.804380714504362" y1="16.896676670145617" x2="24" y2="24" class="delaunay-line"/>
<line x1="24" y1="24" x2="21.39123857099128" y2="16.793353340291237" class="delaunay-line"/>
<line x1="21.74118095489748" y1="16.965925826289066" x2="21.034074173710934" y2="15.741180954897482" class="delaunay-line"/>
<line x1="21.034074173710934" y1="15.741180954897482" x2="21.133974596215563" y2="16.5" class="delaunay-line"/>
<line x1="21.133974596215563" y1="16.5" x2="21.74118095489748" y2="16.965925826289066" class="delaunay-line"/>
<line x1="22.130526192220053" y1="16.99144486137381" x2="21.74118095489748" y2="16.965925826289066" class="delaunay-line"/>
<line x1="21.74118095489748" y1="16.965925826289066" x2="24" y2="24" class="delaunay-line"/>
<line x1="24" y1="24" x2="22.130526192220053" y2="16.99144486137381" class="delaunay-line"/>
<line x1="21.39123857099128" y1="16.793353340291237" x2="21.74118095489748" y2="16.965925826289066" class="delaunay-line"/>
<line x1="21.74118095489748" y1="16.965925826289066" x2="21.133974596215563" y2="16.5" class="delaunay-line"/>
<line x1="21.133974596215563" y1="16.5" x2="21.39123857099128" y2="16.793353340291237" class="delaunay-line"/>
<line x1="21.74118095489748" y1="16.965925826289066" x2="22.965925826289066" y2="16.25881904510252" class="delaunay-line"/>
<line x1="22.965925826289066" y1="16.25881904510252" x2="21.034074173710934" y2="15.741180954897482" class="delaunay-line"/>
<line x1="21.034074173710934" y1="15.741180954897482" x2="21.74118095489748" y2="16.965925826289066" class="delaunay-line"/>
<line x1="9" y1="6.5" x2="8.961939766255643" y2="6.691341716182545" class="delaunay-line"/>
<line x1="8.961939766255643" y1="6.691341716182545" x2="14.089510983347534" y2="10.566171612829516" class="delaunay-line"/>
<line x1="14.089510983347534" y1="10.566171612829516" x2="9" y2="6.5" class="delaunay-line"/>
<line x1="14.089510983347534" y1="10.566171612829516" x2="6.837602083032866" y2="10.218577615038653" class="delaunay-line"/>
<line x1="6.837602083032866" y1="10.218577615038653" x2="14.218920505898797" y2="11.049134525974049" class="delaunay-line"/>
<line x1="14.218920505898797" y1="11.049134525974049" x2="14.089510983347534" y2="10.566171612829516" class="delaunay-line"/>
<line x1="14.004277569313095" y1="16.434736903889974" x2="13.099876884532565" y2="18.550838778855905" class="delaunay-line"/>
<line x1="13.099876884532565" y1="18.550838778855905" x2="14.017037086855465" y2="16.62940952255126" class="delaunay-line"/>
<line x1="14.017037086855465" y1="16.62940952255126" x2="14.004277569313095" y2="16.434736903889974" class="delaunay-line"/>
<line x1="14.017037086855465" y1="16.62940952255126" x2="13.099876884532565" y2="18.550838778855905" class="delaunay-line"/>
<line x1="13.099876884532565" y1="18.550838778855905" x2="14.103323329854382" y2="16.804380714504358" class="delaunay-line"/>
<line x1="14.103323329854382" y1="16.804380714504358" x2="14.017037086855465" y2="16.62940952255126" class="delaunay-line"/>
<line x1="13.099876884532565" y1="18.550838778855905" x2="14.804380714504362" y2="16.896676670145617" class="delaunay-line"/>
<line x1="14.804380714504362" y1="16.896676670145617" x2="14.62940952255126" y2="16.982962913144533" class="delaunay-line"/>
<line x1="14.62940952255126" y1="16.982962913144533" x2="13.099876884532565" y2="18.550838778855905" class="delaunay-line"/>
<line x1="22.5" y1="16.866025403784437" x2="22.793353340291237" y2="16.60876142900872" class="delaunay-line"/>
<line x1="22.793353340291237" y1="16.60876142900872" x2="22.965925826289066" y2="16.25881904510252" class="delaunay-line"/>
<line x1="22.965925826289066" y1="16.25881904510252" x2="22.5" y2="16.866025403784437" class="delaunay-line"/>
<line x1="8.961939766255643" y1="6.691341716182545" x2="8.853553390593273" y2="6.853553390593274" class="delaunay-line"/>
<line x1="8.853553390593273" y1="6.853553390593274" x2="14.089510983347534" y2="10.566171612829516" class="delaunay-line"/>
<line x1="14.089510983347534" y1="10.566171612829516" x2="8.961939766255643" y2="6.691341716182545" class="delaunay-line"/>
<line x1="8.961939766255643" y1="6.308658283817455" x2="9" y2="6.5" class="delaunay-line"/>
<line x1="9" y1="6.5" x2="14.089510983347534" y2="10.566171612829516" class="delaunay-line"/>
<line x1="14.089510983347534" y1="10.566171612829516" x2="8.961939766255643" y2="6.308658283817455" class="delaunay-line"/>
<line x1="8.961939766255643" y1="6.691341716182545" x2="8.853553390593273" y2="6.146446609406726" class="delaunay-line"/>
<line x1="8.853553390593273" y1="6.146446609406726" x2="8.853553390593273" y2="6.853553390593274" class="delaunay-line"/>
<line x1="8.853553390593273" y1="6.853553390593274" x2="8.961939766255643" y2="6.691341716182545" class="delaunay-line"/>
<line x1="22.5" y1="16.866025403784437" x2="22.965925826289066" y2="16.25881904510252" class="delaunay-line"/>
<line x1="22.965925826289066" y1="16.25881904510252" x2="21.74118095489748" y2="16.965925826289066" class="delaunay-line"/>
<line x1="21.74118095489748" y1="16.965925826289066" x2="22.5" y2="16.866025403784437" class="delaunay-line"/>
<line x1="22.130526192220053" y1="16.99144486137381" x2="22.5" y2="16.866025403784437" class="delaunay-line"/>
<line x1="22.5" y1="16.866025403784437" x2="21.74118095489748" y2="16.965925826289066" class="delaunay-line"/>
<line x1="21.74118095489748" y1="16.965925826289066" x2="22.130526192220053" y2="16.99144486137381" class="delaunay-line"/>
<line x1="8.5" y1="7" x2="8.691341716182546" y2="6.961939766255643" class="delaunay-line"/>
<line x1="8.691341716182546" y1="6.961939766255643" x2="8.853553390593273" y2="6.853553390593274" class="delaunay-line"/>
<line x1="8.853553390593273" y1="6.853553390593274" x2="8.5" y2="7" class="delaunay-line"/>
<line x1="8.853553390593273" y1="6.853553390593274" x2="8.691341716182546" y2="6.961939766255643" class="delaunay-line"/>
<line x1="8.691341716182546" y1="6.961939766255643" x2="14.089510983347534" y2="10.566171612829516" class="delaunay-line"/>
<line x1="14.089510983347534" y1="10.566171612829516" x2="8.853553390593273" y2="6.853553390593274" class="delaunay-line"/>
<line x1="19.099876884532563" y1="8.158533933442639" x2="8.961939766255643" y2="6.308658283817455" class="delaunay-line"/>
<line x1="8.961939766255643" y1="6.308658283817455" x2="14.089510983347534" y2="10.566171612829516" class="delaunay-line"/>
<line x1="14.089510983347534" y1="10.566171612829516" x2="19.099876884532563" y2="8.158533933442639" class="delaunay-line"/>
<line x1="9" y1="6.5" x2="8.961939766255643" y2="6.308658283817455" class="delaunay-line"/>
<line x1="8.961939766255643" y1="6.308658283817455" x2="8.961939766255643" y2="6.691341716182545" class="delaunay-line"/>
<line x1="8.961939766255643" y1="6.691341716182545" x2="9" y2="6.5" class="delaunay-line"/>
<line x1="8.308658283817454" y1="6.961939766255643" x2="8.5" y2="7" class="delaunay-line"/>
<line x1="8.5" y1="7" x2="8.146446609406727" y2="6.853553390593274" class="delaunay-line"/>
<line x1="8.146446609406727" y1="6.853553390593274" x2="8.308658283817454" y2="6.961939766255643" class="delaunay-line"/>
<line x1="8.691341716182546" y1="6.961939766255643" x2="6.837602083032866" y2="10.218577615038653" class="delaunay-line"/>
<line x1="6.837602083032866" y1="10.218577615038653" x2="14.089510983347534" y2="10.566171612829516" class="delaunay-line"/>
<line x1="14.089510983347534" y1="10.566171612829516" x2="8.691341716182546" y2="6.961939766255643" class="delaunay-line"/>
<line x1="19.099876884532563" y1="8.158533933442639" x2="8.853553390593273" y2="6.146446609406726" class="delaunay-line"/>
<line x1="8.853553390593273" y1="6.146446609406726" x2="8.961939766255643" y2="6.308658283817455" class="delaunay-line"/>
<line x1="8.961939766255643" y1="6.308658283817455" x2="19.099876884532563" y2="8.158533933442639" class="delaunay-line"/>
<line x1="8.961939766255643" y1="6.308658283817455" x2="8.853553390593273" y2="6.146446609406726" class="delaunay-line"/>
<line x1="8.853553390593273" y1="6.146446609406726" x2="8.961939766255643" y2="6.691341716182545" class="delaunay-line"/>
<line x1="8.961939766255643" y1="6.691341716182545" x2="8.961939766255643" y2="6.308658283817455" class="delaunay-line"/>
<line x1="8.146446609406727" y1="6.853553390593274" x2="8.5" y2="7" class="delaunay-line"/>
<line x1="8.5" y1="7" x2="8.853553390593273" y2="6.853553390593274" class="delaunay-line"/>
<line x1="8.853553390593273" y1="6.853553390593274" x2="8.146446609406727" y2="6.853553390593274" class="delaunay-line"/>
<line x1="8.5" y1="7" x2="6.837602083032866" y2="10.218577615038653" class="delaunay-line"/>
<line x1="6.837602083032866" y1="10.218577615038653" x2="8.691341716182546" y2="6.961939766255643" class="delaunay-line"/>
<line x1="8.691341716182546" y1="6.961939766255643" x2="8.5" y2="7" class="delaunay-line"/>
<line x1="6.109495827765981" y1="0.6585339334426425" x2="8.691341716182546" y2="6.038060233744357" class="delaunay-line"/>
<line x1="8.691341716182546" y1="6.038060233744357" x2="8.853553390593273" y2="6.146446609406726" class="delaunay-line"/>
<line x1="8.853553390593273" y1="6.146446609406726" x2="6.109495827765981" y2="0.6585339334426425" class="delaunay-line"/>
<line x1="8.038060233744357" y1="6.691341716182545" x2="8.146446609406727" y2="6.853553390593274" class="delaunay-line"/>
<line x1="8.146446609406727" y1="6.853553390593274" x2="8.853553390593273" y2="6.853553390593274" class="delaunay-line"/>
<line x1="8.853553390593273" y1="6.853553390593274" x2="8.038060233744357" y2="6.691341716182545" class="delaunay-line"/>
<line x1="14.250000000000002" y1="16.933012701892217" x2="13.099876884532565" y2="18.550838778855905" class="delaunay-line"/>
<line x1="13.099876884532565" y1="18.550838778855905" x2="14.434736903889974" y2="16.995722430686904" class="delaunay-line"/>
<line x1="14.434736903889974" y1="16.995722430686904" x2="14.250000000000002" y2="16.933012701892217" class="delaunay-line"/>
<line x1="14.434736903889974" y1="16.995722430686904" x2="13.099876884532565" y2="18.550838778855905" class="delaunay-line"/>
<line x1="13.099876884532565" y1="18.550838778855905" x2="14.62940952255126" y2="16.982962913144533" class="delaunay-line"/>
<line x1="14.62940952255126" y1="16.982962913144533" x2="14.434736903889974" y2="16.995722430686904" class="delaunay-line"/>
<line x1="14.103323329854382" y1="16.804380714504358" x2="13.099876884532565" y2="18.550838778855905" class="delaunay-line"/>
<line x1="13.099876884532565" y1="18.550838778855905" x2="14.250000000000002" y2="16.933012701892217" class="delaunay-line"/>
<line x1="14.250000000000002" y1="16.933012701892217" x2="14.103323329854382" y2="16.804380714504358" class="delaunay-line"/>
<line x1="3.837602083032866" y1="15.414730037745285" x2="13.099876884532565" y2="18.550838778855905" class="delaunay-line"/>
<line x1="13.099876884532565" y1="18.550838778855905" x2="14.004277569313095" y2="16.434736903889974" class="delaunay-line"/>
<line x1="14.004277569313095" y1="16.434736903889974" x2="3.837602083032866" y2="15.414730037745285" class="delaunay-line"/>
<line x1="8.038060233744357" y1="6.691341716182545" x2="8.853553390593273" y2="6.853553390593274" class="delaunay-line"/>
<line x1="8.853553390593273" y1="6.853553390593274" x2="8.853553390593273" y2="6.146446609406726" class="delaunay-line"/>
<line x1="8.853553390593273" y1="6.146446609406726" x2="8.038060233744357" y2="6.691341716182545" class="delaunay-line"/>
<line x1="8.308658283817454" y1="6.961939766255643" x2="6.837602083032866" y2="10.218577615038653" class="delaunay-line"/>
<line x1="6.837602083032866" y1="10.218577615038653" x2="8.5" y2="7" class="delaunay-line"/>
<line x1="8.5" y1="7" x2="8.308658283817454" y2="6.961939766255643" class="delaunay-line"/>
<line x1="8.691341716182546" y1="6.038060233744357" x2="8.5" y2="6" class="delaunay-line"/>
<line x1="8.5" y1="6" x2="8.853553390593273" y2="6.146446609406726" class="delaunay-line"/>
<line x1="8.853553390593273" y1="6.146446609406726" x2="8.691341716182546" y2="6.038060233744357" class="delaunay-line"/>
<line x1="8.146446609406727" y1="6.146446609406726" x2="8.038060233744357" y2="6.691341716182545" class="delaunay-line"/>
<line x1="8.038060233744357" y1="6.691341716182545" x2="8.853553390593273" y2="6.146446609406726" class="delaunay-line"/>
<line x1="8.853553390593273" y1="6.146446609406726" x2="8.146446609406727" y2="6.146446609406726" class="delaunay-line"/>
<line x1="8.146446609406727" y1="6.853553390593274" x2="6.837602083032866" y2="10.218577615038653" class="delaunay-line"/>
<line x1="6.837602083032866" y1="10.218577615038653" x2="8.308658283817454" y2="6.961939766255643" class="delaunay-line"/>
<line x1="8.308658283817454" y1="6.961939766255643" x2="8.146446609406727" y2="6.853553390593274" class="delaunay-line"/>
<line x1="8.5" y1="6" x2="8.146446609406727" y2="6.146446609406726" class="delaunay-line"/>
<line x1="8.146446609406727" y1="6.146446609406726" x2="8.853553390593273" y2="6.146446609406726" class="delaunay-line"/>
<line x1="8.853553390593273" y1="6.146446609406726" x2="8.5" y2="6" class="delaunay-line"/>
<line x1="8.038060233744357" y1="6.308658283817455" x2="8" y2="6.5" class="delaunay-line"/>
<line x1="8" y1="6.5" x2="8.038060233744357" y2="6.691341716182545" class="delaunay-line"/>
<line x1="8.038060233744357" y1="6.691341716182545" x2="8.038060233744357" y2="6.308658283817455" class="delaunay-line"/>
<line x1="8.308658283817454" y1="6.038060233744357" x2="8.146446609406727" y2="6.146446609406726" class="delaunay-line"/>
<line x1="8.146446609406727" y1="6.146446609406726" x2="8.5" y2="6" class="delaunay-line"/>
<line x1="8.5" y1="6" x2="8.308658283817454" y2="6.038060233744357" class="delaunay-line"/>
<line x1="8.146446609406727" y1="6.146446609406726" x2="8.038060233744357" y2="6.308658283817455" class="delaunay-line"/>
<line x1="8.038060233744357" y1="6.308658283817455" x2="8.038060233744357" y2="6.691341716182545" class="delaunay-line"/>
<line x1="8.038060233744357" y1="6.691341716182545" x2="8.146446609406727" y2="6.146446609406726" class="delaunay-line"/>
<line x1="3.373500467895112" y1="8.218577615038653" x2="8.038060233744357" y2="6.691341716182545" class="delaunay-line"/>
<line x1="8.038060233744357" y1="6.691341716182545" x2="8" y2="6.5" class="delaunay-line"/>
<line x1="8" y1="6.5" x2="3.373500467895112" y2="8.218577615038653" class="delaunay-line"/>
<line x1="3.373500467895112" y1="8.218577615038653" x2="6.837602083032866" y2="10.218577615038653" class="delaunay-line"/>
<line x1="6.837602083032866" y1="10.218577615038653" x2="8.038060233744357" y2="6.691341716182545" class="delaunay-line"/>
<line x1="8.038060233744357" y1="6.691341716182545" x2="3.373500467895112" y2="8.218577615038653" class="delaunay-line"/>
<line x1="8.038060233744357" y1="6.691341716182545" x2="6.837602083032866" y2="10.218577615038653" class="delaunay-line"/>
<line x1="6.837602083032866" y1="10.218577615038653" x2="8.146446609406727" y2="6.853553390593274" class="delaunay-line"/>
<line x1="8.146446609406727" y1="6.853553390593274" x2="8.038060233744357" y2="6.691341716182545" class="delaunay-line"/>
<line x1="19.885065941081944" y1="9.013257342214393" x2="24" y2="0" class="delaunay-line"/>
<line x1="24" y1="0" x2="19.099876884532563" y2="8.158533933442639" class="delaunay-line"/>
<line x1="19.099876884532563" y1="8.158533933442639" x2="19.885065941081944" y2="9.013257342214393" class="delaunay-line"/>
<line x1="19.099876884532563" y1="8.158533933442639" x2="24" y2="0" class="delaunay-line"/>
<line x1="24" y1="0" x2="8.853553390593273" y2="6.146446609406726" class="delaunay-line"/>
<line x1="8.853553390593273" y1="6.146446609406726" x2="19.099876884532563" y2="8.158533933442639" class="delaunay-line"/>
<line x1="8.691341716182546" y1="6.038060233744357" x2="6.109495827765981" y2="0.6585339334426425" class="delaunay-line"/>
<line x1="6.109495827765981" y1="0.6585339334426425" x2="8.5" y2="6" class="delaunay-line"/>
<line x1="8.5" y1="6" x2="8.691341716182546" y2="6.038060233744357" class="delaunay-line"/>
<line x1="8.5" y1="6" x2="6.109495827765981" y2="0.6585339334426425" class="delaunay-line"/>
<line x1="6.109495827765981" y1="0.6585339334426425" x2="8.308658283817454" y2="6.038060233744357" class="delaunay-line"/>
<line x1="8.308658283817454" y1="6.038060233744357" x2="8.5" y2="6" class="delaunay-line"/>
<line x1="22.866025403784437" y1="15.5" x2="24" y2="0" class="delaunay-line"/>
<line x1="24" y1="0" x2="22.60876142900872" y2="15.206646659708763" class="delaunay-line"/>
<line x1="22.60876142900872" y1="15.206646659708763" x2="22.866025403784437" y2="15.5" class="delaunay-line"/>
<line x1="22.99144486137381" y1="15.86947380777995" x2="24" y2="0" class="delaunay-line"/>
<line x1="24" y1="0" x2="22.866025403784437" y2="15.5" class="delaunay-line"/>
<line x1="22.866025403784437" y1="15.5" x2="22.99144486137381" y2="15.86947380777995" class="delaunay-line"/>
<line x1="6.109495827765981" y1="0.6585339334426425" x2="3.373500467895112" y2="8.218577615038653" class="delaunay-line"/>
<line x1="3.373500467895112" y1="8.218577615038653" x2="8.038060233744357" y2="6.308658283817455" class="delaunay-line"/>
<line x1="8.038060233744357" y1="6.308658283817455" x2="6.109495827765981" y2="0.6585339334426425" class="delaunay-line"/>
<line x1="8.038060233744357" y1="6.308658283817455" x2="3.373500467895112" y2="8.218577615038653" class="delaunay-line"/>
<line x1="3.373500467895112" y1="8.218577615038653" x2="8" y2="6.5" class="delaunay-line"/>
<line x1="8" y1="6.5" x2="8.038060233744357" y2="6.308658283817455" class="delaunay-line"/>
<line x1="6.837602083032866" y1="10.218577615038653" x2="3.837602083032866" y2="15.414730037745285" class="delaunay-line"/>
<line x1="3.837602083032866" y1="15.414730037745285" x2="14.004277569313095" y2="16.434736903889974" class="delaunay-line"/>
<line x1="14.004277569313095" y1="16.434736903889974" x2="6.837602083032866" y2="10.218577615038653" class="delaunay-line"/>
<line x1="6.109495827765981" y1="0.6585339334426425" x2="8.038060233744357" y2="6.308658283817455" class="delaunay-line"/>
<line x1="8.038060233744357" y1="6.308658283817455" x2="8.146446609406727" y2="6.146446609406726" class="delaunay-line"/>
<line x1="8.146446609406727" y1="6.146446609406726" x2="6.109495827765981" y2="0.6585339334426425" class="delaunay-line"/>
<line x1="0.10949582776598454" y1="11.050838778855907" x2="3.837602083032866" y2="15.414730037745285" class="delaunay-line"/>
<line x1="3.837602083032866" y1="15.414730037745285" x2="6.837602083032866" y2="10.218577615038653" class="delaunay-line"/>
<line x1="6.837602083032866" y1="10.218577615038653" x2="0.10949582776598454" y2="11.050838778855907" class="delaunay-line"/>
<line x1="8.308658283817454" y1="6.038060233744357" x2="6.109495827765981" y2="0.6585339334426425" class="delaunay-line"/>
<line x1="6.109495827765981" y1="0.6585339334426425" x2="8.146446609406727" y2="6.146446609406726" class="delaunay-line"/>
<line x1="8.146446609406727" y1="6.146446609406726" x2="8.308658283817454" y2="6.038060233744357" class="delaunay-line"/>
<line x1="24" y1="0" x2="6.109495827765981" y2="0.6585339334426425" class="delaunay-line"/>
<line x1="6.109495827765981" y1="0.6585339334426425" x2="8.853553390593273" y2="6.146446609406726" class="delaunay-line"/>
<line x1="8.853553390593273" y1="6.146446609406726" x2="24" y2="0" class="delaunay-line"/>
<line x1="13.099876884532565" y1="18.550838778855905" x2="24" y2="24" class="delaunay-line"/>
<line x1="24" y1="24" x2="14.804380714504362" y2="16.896676670145617" class="delaunay-line"/>
<line x1="14.804380714504362" y1="16.896676670145617" x2="13.099876884532565" y2="18.550838778855905" class="delaunay-line"/>
<line x1="22.130526192220053" y1="16.99144486137381" x2="24" y2="24" class="delaunay-line"/>
<line x1="24" y1="24" x2="22.5" y2="16.866025403784437" class="delaunay-line"/>
<line x1="22.5" y1="16.866025403784437" x2="22.130526192220053" y2="16.99144486137381" class="delaunay-line"/>
<line x1="22.5" y1="16.866025403784437" x2="24" y2="24" class="delaunay-line"/>
<line x1="24" y1="24" x2="22.793353340291237" y2="16.60876142900872" class="delaunay-line"/>
<line x1="22.793353340291237" y1="16.60876142900872" x2="22.5" y2="16.866025403784437" class="delaunay-line"/>
<line x1="22.793353340291237" y1="16.60876142900872" x2="24" y2="24" class="delaunay-line"/>
<line x1="24" y1="24" x2="22.965925826289066" y2="16.25881904510252" class="delaunay-line"/>
<line x1="22.965925826289066" y1="16.25881904510252" x2="22.793353340291237" y2="16.60876142900872" class="delaunay-line"/>
<line x1="22.965925826289066" y1="16.25881904510252" x2="24" y2="24" class="delaunay-line"/>
<line x1="24" y1="24" x2="22.99144486137381" y2="15.86947380777995" class="delaunay-line"/>
<line x1="22.99144486137381" y1="15.86947380777995" x2="22.965925826289066" y2="16.25881904510252" class="delaunay-line"/>
<line x1="22.99144486137381" y1="15.86947380777995" x2="24" y2="24" class="delaunay-line"/>
<line x1="24" y1="24" x2="24" y2="0" class="delaunay-line"/>
<line x1="24" y1="0" x2="22.99144486137381" y2="15.86947380777995" class="delaunay-line"/>
<line x1="0" y1="24" x2="24" y2="24" class="delaunay-line"/>
<line x1="24" y1="24" x2="13.099876884532565" y2="18.550838778855905" class="delaunay-line"/>
<line x1="13.099876884532565" y1="18.550838778855905" x2="0" y2="24" class="delaunay-line"/>
<line x1="3.373500467895112" y1="8.218577615038653" x2="0.10949582776598454" y2="11.050838778855907" class="delaunay-line"/>
<line x1="0.10949582776598454" y1="11.050838778855907" x2="6.837602083032866" y2="10.218577615038653" class="delaunay-line"/>
<line x1="6.837602083032866" y1="10.218577615038653" x2="3.373500467895112" y2="8.218577615038653" class="delaunay-line"/>
<line x1="0" y1="0" x2="0.10949582776598454" y2="11.050838778855907" class="delaunay-line"/>
<line x1="0.10949582776598454" y1="11.050838778855907" x2="3.373500467895112" y2="8.218577615038653" class="delaunay-line"/>
<line x1="3.373500467895112" y1="8.218577615038653" x2="0" y2="0" class="delaunay-line"/>
<line x1="0.10949582776598454" y1="11.050838778855907" x2="0.37350046789511104" y2="13.414730037745285" class="delaunay-line"/>
<line x1="0.37350046789511104" y1="13.414730037745285" x2="3.837602083032866" y2="15.414730037745285" class="delaunay-line"/>
<line x1="3.837602083032866" y1="15.414730037745285" x2="0.10949582776598454" y2="11.050838778855907" class="delaunay-line"/>
<line x1="24" y1="0" x2="0" y2="0" class="delaunay-line"/>
<line x1="0" y1="0" x2="6.109495827765981" y2="0.6585339334426425" class="delaunay-line"/>
<line x1="6.109495827765981" y1="0.6585339334426425" x2="24" y2="0" class="delaunay-line"/>
<line x1="6.109495827765981" y1="0.6585339334426425" x2="0" y2="0" class="delaunay-line"/>
<line x1="0" y1="0" x2="3.373500467895112" y2="8.218577615038653" class="delaunay-line"/>
<line x1="3.373500467895112" y1="8.218577615038653" x2="6.109495827765981" y2="0.6585339334426425" class="delaunay-line"/>
<line x1="0" y1="0" x2="0" y2="24" class="delaunay-line"/>
<line x1="0" y1="24" x2="0.10949582776598454" y2="11.050838778855907" class="delaunay-line"/>
<line x1="0.10949582776598454" y1="11.050838778855907" x2="0" y2="0" class="delaunay-line"/>
<line x1="0.10949582776598454" y1="11.050838778855907" x2="0" y2="24" class="delaunay-line"/>
<line x1="0" y1="24" x2="0.37350046789511104" y2="13.414730037745285" class="delaunay-line"/>
<line x1="0.37350046789511104" y1="13.414730037745285" x2="0.10949582776598454" y2="11.050838778855907" class="delaunay-line"/>
<line x1="0.37350046789511104" y1="13.414730037745285" x2="0" y2="24" class="delaunay-line"/>
<line x1="0" y1="24" x2="3.837602083032866" y2="15.414730037745285" class="delaunay-line"/>
<line x1="3.837602083032866" y1="15.414730037745285" x2="0.37350046789511104" y2="13.414730037745285" class="delaunay-line"/>
<line x1="3.837602083032866" y1="15.414730037745285" x2="0" y2="24" class="delaunay-line"/>
<line x1="0" y1="24" x2="13.099876884532565" y2="18.550838778855905" class="delaunay-line"/>
<line x1="13.099876884532565" y1="18.550838778855905" x2="3.837602083032866" y2="15.414730037745285" class="delaunay-line"/>
</g>
<g id="layer-area" class="layer ">
<polygon points="19.099876884532563,8.158533933442639 13.099876884532565,18.550838778855905 0.10949582776598454,11.050838778855907 6.109495827765981,0.6585339334426425" class="terrain-area"/>
<text x="9.604686356149273" y="9.604686356149273" class="label">#C49A6C</text>
</g>
<g id="layer-building" class="layer ">
<polygon points="3.837602083032866,15.414730037745285 0.37350046789511104,13.414730037745285 3.373500467895112,8.218577615038653 6.837602083032866,10.218577615038653" class="terrain-solid"/>
<text x="3.6055512754639887" y="11.816653826391969" class="label">#000000</text>
</g>
<g id="layer-wall" class="layer ">
<polygon points="14.218920505898797,11.049134525974049 14.089510983347534,10.566171612829516 19.885065941081944,9.013257342214393 20.014475463633207,9.496220255358926" class="terrain-solid"/>
<text x="17.05199322349037" y="10.031195934094221" class="label">#555555</text>
</g>
<g id="layer-tree" class="layer ">
<polygon points="21.5,15.13397459621556 21.86947380777995,15.008555138626189 22.25881904510252,15.034074173710934 22.60876142900872,15.206646659708763 22.866025403784437,15.5 22.99144486137381,15.86947380777995 22.965925826289066,16.25881904510252 22.793353340291237,16.60876142900872 22.5,16.866025403784437 22.130526192220053,16.99144486137381 21.74118095489748,16.965925826289066 21.39123857099128,16.793353340291237 21.133974596215563,16.5 21.00855513862619,16.13052619222005 21.034074173710934,15.741180954897482 21.206646659708767,15.39123857099128" class="terrain-solid"/>
<text x="22.000000000000007" y="16.000000000000004" class="label">#90EE90</text>
</g>
<g id="layer-rocks" class="layer ">
</g>
<g id="layer-shrub" class="layer ">
<polygon points="14.982962913144535,16.37059047744874 14.995722430686905,16.565263096110026 14.933012701892219,16.75 14.804380714504362,16.896676670145617 14.62940952255126,16.982962913144533 14.434736903889974,16.995722430686904 14.250000000000002,16.933012701892217 14.103323329854382,16.804380714504358 14.017037086855465,16.62940952255126 14.004277569313095,16.434736903889974 14.066987298107781,16.25 14.195619285495638,16.103323329854383 14.37059047744874,16.017037086855467 14.565263096110026,16.004277569313096 14.749999999999998,16.066987298107783 14.896676670145618,16.195619285495642" class="terrain-solid"/>
<text x="14.499999999999998" y="16.500000000000004" class="label">#006400</text>
<polygon points="8,6.5 8.038060233744357,6.308658283817455 8.146446609406727,6.146446609406726 8.308658283817454,6.038060233744357 8.5,6 8.691341716182546,6.038060233744357 8.853553390593273,6.146446609406726 8.961939766255643,6.308658283817455 9,6.5 8.961939766255643,6.691341716182545 8.853553390593273,6.853553390593274 8.691341716182546,6.961939766255643 8.5,7 8.308658283817454,6.961939766255643 8.146446609406727,6.853553390593274 8.038060233744357,6.691341716182545" class="terrain-solid"/>
<text x="8.5" y="6.5" class="label">#006400</text>
</g>
<g id="layer-terrain" class="layer ">
</g>
<g id="layer-models" class="layer ">
</g>
<g id="layer-paths" class="layer ">
</g>
<g id="layer-vectors" class="layer ">
</g>
<g id="layer-los" class="layer ">
</g>
<g id="layer-lof" class="layer ">
</g>

<g id="legend">
<g class="toggle" onclick="toggleLayer('deployment')"><rect x="0.4" y="0.14999999999999997" width="0.4" height="0.4" fill="#222" stroke="#222" stroke-width="0.05"/><text x="1.0" y="0.5499999999999999" class="label">Deployment Zones</text></g>
<g class="toggle" onclick="toggleLayer('grid')"><rect x="0.4" y="0.95" width="0.4" height="0.4" fill="#222" stroke="#222" stroke-width="0.05"/><text x="1.0" y="1.3499999999999999" class="label">0.5 MU Grid</text></g>
<g class="toggle" onclick="toggleLayer('delaunay')"><rect x="0.4" y="1.7500000000000002" width="0.4" height="0.4" fill="#222" stroke="#222" stroke-width="0.05"/><text x="1.0" y="2.1500000000000004" class="label">Delaunay Mesh</text></g>
<g class="toggle" onclick="toggleLayer('area')"><rect x="0.4" y="2.55" width="0.4" height="0.4" fill="#222" stroke="#222" stroke-width="0.05"/><text x="1.0" y="2.95" class="label">Area Terrain</text></g>
<g class="toggle" onclick="toggleLayer('building')"><rect x="0.4" y="3.3499999999999996" width="0.4" height="0.4" fill="#222" stroke="#222" stroke-width="0.05"/><text x="1.0" y="3.75" class="label">Buildings</text></g>
<g class="toggle" onclick="toggleLayer('wall')"><rect x="0.4" y="4.1499999999999995" width="0.4" height="0.4" fill="#222" stroke="#222" stroke-width="0.05"/><text x="1.0" y="4.55" class="label">Walls</text></g>
<g class="toggle" onclick="toggleLayer('tree')"><rect x="0.4" y="4.949999999999999" width="0.4" height="0.4" fill="#222" stroke="#222" stroke-width="0.05"/><text x="1.0" y="5.35" class="label">Trees</text></g>
<g class="toggle disabled"><rect x="0.4" y="5.749999999999999" width="0.4" height="0.4" fill="#222" stroke="#222" stroke-width="0.05"/><text x="1.0" y="6.1499999999999995" class="label">Rocks</text></g>
<g class="toggle" onclick="toggleLayer('shrub')"><rect x="0.4" y="6.549999999999999" width="0.4" height="0.4" fill="#222" stroke="#222" stroke-width="0.05"/><text x="1.0" y="6.949999999999999" class="label">Shrubs</text></g>
<g class="toggle" onclick="toggleLayer('terrain')"><rect x="0.4" y="7.349999999999999" width="0.4" height="0.4" fill="#222" stroke="#222" stroke-width="0.05"/><text x="1.0" y="7.749999999999999" class="label">Other Terrain</text></g>
<g class="toggle" onclick="toggleLayer('models')"><rect x="0.4" y="8.15" width="0.4" height="0.4" fill="#222" stroke="#222" stroke-width="0.05"/><text x="1.0" y="8.549999999999999" class="label">Models</text></g>
<g class="toggle" onclick="toggleLayer('paths')"><rect x="0.4" y="8.950000000000001" width="0.4" height="0.4" fill="#222" stroke="#222" stroke-width="0.05"/><text x="1.0" y="9.35" class="label">Paths</text></g>
<g class="toggle" onclick="toggleLayer('vectors')"><rect x="0.4" y="9.750000000000002" width="0.4" height="0.4" fill="#222" stroke="#222" stroke-width="0.05"/><text x="1.0" y="10.15" class="label">Vectors</text></g>
<g class="toggle" onclick="toggleLayer('los')"><rect x="0.4" y="10.550000000000002" width="0.4" height="0.4" fill="#222" stroke="#222" stroke-width="0.05"/><text x="1.0" y="10.950000000000001" class="label">LOS</text></g>
<g class="toggle" onclick="toggleLayer('lof')"><rect x="0.4" y="11.350000000000003" width="0.4" height="0.4" fill="#222" stroke="#222" stroke-width="0.05"/><text x="1.0" y="11.750000000000002" class="label">LOF</text></g>
</g>
</svg>