<svg xmlns="http://www.w3.org/2000/svg" viewBox="0 0 24 24" width="960" height="960" font-family="Arial" font-size="0.6">
<defs>
  <style><![CDATA[
    .layer { display: inline; }
    .layer.hidden { display: none; }
    .grid-line { stroke: #999; stroke-width: 0.02; opacity: 0.2; }
    .delaunay-line { stroke: #4a6fa5; stroke-width: 0.03; opacity: 0.3; }
    .terrain-area { stroke: #000; stroke-width: 0.05; }
    .terrain-solid { stroke: #000; stroke-width: 0.05; }
    .model { stroke: #000; stroke-width: 0.05; }
    .path { fill: none; stroke-width: 0.12; }
    .vector { stroke-width: 0.1; }
    .los-ray { stroke-width: 0.08; stroke-dasharray: 0.2 0.2; }
    .lof-ray { stroke-width: 0.08; stroke-dasharray: 0.3 0.15; }
    .label { fill: #111; font-size: 0.6px; }
    .toggle { cursor: pointer; }
  ]]></style>
</defs>
<rect x="0" y="0" width="24" height="24" fill="#ffffff" stroke="#111" stroke-width="0.05"/>
<g id="legend">
<g class="toggle" onclick="toggleLayer('grid')"><rect x="0.4" y="0.14999999999999997" width="0.4" height="0.4" fill="#222" stroke="#222" stroke-width="0.05"/><text x="1.0" y="0.5499999999999999" class="label">0.5 MU Grid</text></g>
<g class="toggle" onclick="toggleLayer('delaunay')"><rect x="0.4" y="0.95" width="0.4" height="0.4" fill="#222" stroke="#222" stroke-width="0.05"/><text x="1.0" y="1.3499999999999999" class="label">Delaunay Mesh</text></g>
<g class="toggle" onclick="toggleLayer('area')"><rect x="0.4" y="1.7500000000000002" width="0.4" height="0.4" fill="#222" stroke="#222" stroke-width="0.05"/><text x="1.0" y="2.1500000000000004" class="label">Area Terrain</text></g>
<g class="toggle" onclick="toggleLayer('terrain')"><rect x="0.4" y="2.55" width="0.4" height="0.4" fill="#222" stroke="#222" stroke-width="0.05"/><text x="1.0" y="2.95" class="label">Other Terrain</text></g>
<g class="toggle" onclick="toggleLayer('models')"><rect x="0.4" y="3.3499999999999996" width="0.4" height="0.4" fill="#222" stroke="#222" stroke-width="0.05"/><text x="1.0" y="3.75" class="label">Models</text></g>
<g class="toggle" onclick="toggleLayer('paths')"><rect x="0.4" y="4.1499999999999995" width="0.4" height="0.4" fill="#222" stroke="#222" stroke-width="0.05"/><text x="1.0" y="4.55" class="label">Paths</text></g>
<g class="toggle" onclick="toggleLayer('vectors')"><rect x="0.4" y="4.949999999999999" width="0.4" height="0.4" fill="#222" stroke="#222" stroke-width="0.05"/><text x="1.0" y="5.35" class="label">Vectors</text></g>
<g class="toggle" onclick="toggleLayer('los')"><rect x="0.4" y="5.749999999999999" width="0.4" height="0.4" fill="#222" stroke="#222" stroke-width="0.05"/><text x="1.0" y="6.1499999999999995" class="label">LOS</text></g>
<g class="toggle" onclick="toggleLayer('lof')"><rect x="0.4" y="6.549999999999999" width="0.4" height="0.4" fill="#222" stroke="#222" stroke-width="0.05"/><text x="1.0" y="6.949999999999999" class="label">LOF</text></g>
</g>
<script><![CDATA[
      function toggleLayer(id) {
        var layer = document.getElementById('layer-' + id);
        if (!layer) return;
        if (layer.classList.contains('hidden')) {
          layer.classList.remove('hidden');
        } else {
          layer.classList.add('hidden');
        }
      }
    ]]></script>
<text x="0.4" y="23.6" class="label">Pathfinding SIZ 3 (len 28.3 MU)</text>
<g id="layer-grid" class="layer ">
<line x1="0" y1="0" x2="0" y2="24" class="grid-line"/>
<line x1="0.5" y1="0" x2="0.5" y2="24" class="grid-line"/>
<line x1="1" y1="0" x2="1" y2="24" class="grid-line"/>
<line x1="1.5" y1="0" x2="1.5" y2="24" class="grid-line"/>
<line x1="2" y1="0" x2="2" y2="24" class="grid-line"/>
<line x1="2.5" y1="0" x2="2.5" y2="24" class="grid-line"/>
<line x1="3" y1="0" x2="3" y2="24" class="grid-line"/>
<line x1="3.5" y1="0" x2="3.5" y2="24" class="grid-line"/>
<line x1="4" y1="0" x2="4" y2="24" class="grid-line"/>
<line x1="4.5" y1="0" x2="4.5" y2="24" class="grid-line"/>
<line x1="5" y1="0" x2="5" y2="24" class="grid-line"/>
<line x1="5.5" y1="0" x2="5.5" y2="24" class="grid-line"/>
<line x1="6" y1="0" x2="6" y2="24" class="grid-line"/>
<line x1="6.5" y1="0" x2="6.5" y2="24" class="grid-line"/>
<line x1="7" y1="0" x2="7" y2="24" class="grid-line"/>
<line x1="7.5" y1="0" x2="7.5" y2="24" class="grid-line"/>
<line x1="8" y1="0" x2="8" y2="24" class="grid-line"/>
<line x1="8.5" y1="0" x2="8.5" y2="24" class="grid-line"/>
<line x1="9" y1="0" x2="9" y2="24" class="grid-line"/>
<line x1="9.5" y1="0" x2="9.5" y2="24" class="grid-line"/>
<line x1="10" y1="0" x2="10" y2="24" class="grid-line"/>
<line x1="10.5" y1="0" x2="10.5" y2="24" class="grid-line"/>
<line x1="11" y1="0" x2="11" y2="24" class="grid-line"/>
<line x1="11.5" y1="0" x2="11.5" y2="24" class="grid-line"/>
<line x1="12" y1="0" x2="12" y2="24" class="grid-line"/>
<line x1="12.5" y1="0" x2="12.5" y2="24" class="grid-line"/>
<line x1="13" y1="0" x2="13" y2="24" class="grid-line"/>
<line x1="13.5" y1="0" x2="13.5" y2="24" class="grid-line"/>
<line x1="14" y1="0" x2="14" y2="24" class="grid-line"/>
<line x1="14.5" y1="0" x2="14.5" y2="24" class="grid-line"/>
<line x1="15" y1="0" x2="15" y2="24" class="grid-line"/>
<line x1="15.5" y1="0" x2="15.5" y2="24" class="grid-line"/>
<line x1="16" y1="0" x2="16" y2="24" class="grid-line"/>
<line x1="16.5" y1="0" x2="16.5" y2="24" class="grid-line"/>
<line x1="17" y1="0" x2="17" y2="24" class="grid-line"/>
<line x1="17.5" y1="0" x2="17.5" y2="24" class="grid-line"/>
<line x1="18" y1="0" x2="18" y2="24" class="grid-line"/>
<line x1="18.5" y1="0" x2="18.5" y2="24" class="grid-line"/>
<line x1="19" y1="0" x2="19" y2="24" class="grid-line"/>
<line x1="19.5" y1="0" x2="19.5" y2="24" class="grid-line"/>
<line x1="20" y1="0" x2="20" y2="24" class="grid-line"/>
<line x1="20.5" y1="0" x2="20.5" y2="24" class="grid-line"/>
<line x1="21" y1="0" x2="21" y2="24" class="grid-line"/>
<line x1="21.5" y1="0" x2="21.5" y2="24" class="grid-line"/>
<line x1="22" y1="0" x2="22" y2="24" class="grid-line"/>
<line x1="22.5" y1="0" x2="22.5" y2="24" class="grid-line"/>
<line x1="23" y1="0" x2="23" y2="24" class="grid-line"/>
<line x1="23.5" y1="0" x2="23.5" y2="24" class="grid-line"/>
<line x1="24" y1="0" x2="24" y2="24" class="grid-line"/>
<line x1="0" y1="0" x2="24" y2="0" class="grid-line"/>
<line x1="0" y1="0.5" x2="24" y2="0.5" class="grid-line"/>
<line x1="0" y1="1" x2="24" y2="1" class="grid-line"/>
<line x1="0" y1="1.5" x2="24" y2="1.5" class="grid-line"/>
<line x1="0" y1="2" x2="24" y2="2" class="grid-line"/>
<line x1="0" y1="2.5" x2="24" y2="2.5" class="grid-line"/>
<line x1="0" y1="3" x2="24" y2="3" class="grid-line"/>
<line x1="0" y1="3.5" x2="24" y2="3.5" class="grid-line"/>
<line x1="0" y1="4" x2="24" y2="4" class="grid-line"/>
<line x1="0" y1="4.5" x2="24" y2="4.5" class="grid-line"/>
<line x1="0" y1="5" x2="24" y2="5" class="grid-line"/>
<line x1="0" y1="5.5" x2="24" y2="5.5" class="grid-line"/>
<line x1="0" y1="6" x2="24" y2="6" class="grid-line"/>
<line x1="0" y1="6.5" x2="24" y2="6.5" class="grid-line"/>
<line x1="0" y1="7" x2="24" y2="7" class="grid-line"/>
<line x1="0" y1="7.5" x2="24" y2="7.5" class="grid-line"/>
<line x1="0" y1="8" x2="24" y2="8" class="grid-line"/>
<line x1="0" y1="8.5" x2="24" y2="8.5" class="grid-line"/>
<line x1="0" y1="9" x2="24" y2="9" class="grid-line"/>
<line x1="0" y1="9.5" x2="24" y2="9.5" class="grid-line"/>
<line x1="0" y1="10" x2="24" y2="10" class="grid-line"/>
<line x1="0" y1="10.5" x2="24" y2="10.5" class="grid-line"/>
<line x1="0" y1="11" x2="24" y2="11" class="grid-line"/>
<line x1="0" y1="11.5" x2="24" y2="11.5" class="grid-line"/>
<line x1="0" y1="12" x2="24" y2="12" class="grid-line"/>
<line x1="0" y1="12.5" x2="24" y2="12.5" class="grid-line"/>
<line x1="0" y1="13" x2="24" y2="13" class="grid-line"/>
<line x1="0" y1="13.5" x2="24" y2="13.5" class="grid-line"/>
<line x1="0" y1="14" x2="24" y2="14" class="grid-line"/>
<line x1="0" y1="14.5" x2="24" y2="14.5" class="grid-line"/>
<line x1="0" y1="15" x2="24" y2="15" class="grid-line"/>
<line x1="0" y1="15.5" x2="24" y2="15.5" class="grid-line"/>
<line x1="0" y1="16" x2="24" y2="16" class="grid-line"/>
<line x1="0" y1="16.5" x2="24" y2="16.5" class="grid-line"/>
<line x1="0" y1="17" x2="24" y2="17" class="grid-line"/>
<line x1="0" y1="17.5" x2="24" y2="17.5" class="grid-line"/>
<line x1="0" y1="18" x2="24" y2="18" class="grid-line"/>
<line x1="0" y1="18.5" x2="24" y2="18.5" class="grid-line"/>
<line x1="0" y1="19" x2="24" y2="19" class="grid-line"/>
<line x1="0" y1="19.5" x2="24" y2="19.5" class="grid-line"/>
<line x1="0" y1="20" x2="24" y2="20" class="grid-line"/>
<line x1="0" y1="20.5" x2="24" y2="20.5" class="grid-line"/>
<line x1="0" y1="21" x2="24" y2="21" class="grid-line"/>
<line x1="0" y1="21.5" x2="24" y2="21.5" class="grid-line"/>
<line x1="0" y1="22" x2="24" y2="22" class="grid-line"/>
<line x1="0" y1="22.5" x2="24" y2="22.5" class="grid-line"/>
<line x1="0" y1="23" x2="24" y2="23" class="grid-line"/>
<line x1="0" y1="23.5" x2="24" y2="23.5" class="grid-line"/>
<line x1="0" y1="24" x2="24" y2="24" class="grid-line"/>
</g>
<g id="layer-delaunay" class="layer ">
<line x1="14.899832953352798" y1="9.705595316654737" x2="15.046509623498418" y2="9.834227304042594" class="delaunay-line"/>
<line x1="15.046509623498418" y1="9.834227304042594" x2="14.813546710353881" y2="9.530624124701635" class="delaunay-line"/>
<line x1="14.813546710353881" y1="9.530624124701635" x2="14.899832953352798" y2="9.705595316654737" class="delaunay-line"/>
<line x1="14.863496921606197" y1="9.151214602150377" x2="14.80078719281151" y2="9.335951506040349" class="delaunay-line"/>
<line x1="14.80078719281151" y1="9.335951506040349" x2="14.813546710353881" y2="9.530624124701635" class="delaunay-line"/>
<line x1="14.813546710353881" y1="9.530624124701635" x2="14.863496921606197" y2="9.151214602150377" class="delaunay-line"/>
<line x1="15.046509623498418" y1="9.834227304042594" x2="14.863496921606197" y2="9.151214602150377" class="delaunay-line"/>
<line x1="14.863496921606197" y1="9.151214602150377" x2="14.813546710353881" y2="9.530624124701635" class="delaunay-line"/>
<line x1="14.813546710353881" y1="9.530624124701635" x2="15.046509623498418" y2="9.834227304042594" class="delaunay-line"/>
<line x1="15.729522325390635" y1="9.651214602150374" x2="14.863496921606197" y2="9.151214602150377" class="delaunay-line"/>
<line x1="14.863496921606197" y1="9.151214602150377" x2="15.046509623498418" y2="9.834227304042594" class="delaunay-line"/>
<line x1="15.046509623498418" y1="9.834227304042594" x2="15.729522325390635" y2="9.651214602150374" class="delaunay-line"/>
<line x1="15.23124652738839" y1="9.89693703283728" x2="15.425919146049676" y2="9.88417751529491" class="delaunay-line"/>
<line x1="15.425919146049676" y1="9.88417751529491" x2="15.046509623498418" y2="9.834227304042594" class="delaunay-line"/>
<line x1="15.046509623498418" y1="9.834227304042594" x2="15.23124652738839" y2="9.89693703283728" class="delaunay-line"/>
<line x1="15.167100100947156" y1="8.91825168900584" x2="14.992128908994054" y2="9.004537932004757" class="delaunay-line"/>
<line x1="14.992128908994054" y1="9.004537932004757" x2="14.863496921606197" y2="9.151214602150377" class="delaunay-line"/>
<line x1="14.863496921606197" y1="9.151214602150377" x2="15.167100100947156" y2="8.91825168900584" class="delaunay-line"/>
<line x1="15.425919146049676" y1="9.88417751529491" x2="15.729522325390635" y2="9.651214602150374" class="delaunay-line"/>
<line x1="15.729522325390635" y1="9.651214602150374" x2="15.046509623498418" y2="9.834227304042594" class="delaunay-line"/>
<line x1="15.046509623498418" y1="9.834227304042594" x2="15.425919146049676" y2="9.88417751529491" class="delaunay-line"/>
<line x1="15.361772719608442" y1="8.90549217146347" x2="15.167100100947156" y2="8.91825168900584" class="delaunay-line"/>
<line x1="15.167100100947156" y1="8.91825168900584" x2="15.546509623498414" y2="8.968201900258157" class="delaunay-line"/>
<line x1="15.546509623498414" y1="8.968201900258157" x2="15.361772719608442" y2="8.90549217146347" class="delaunay-line"/>
<line x1="15.600890338002777" y1="9.797891272295994" x2="15.729522325390635" y2="9.651214602150374" class="delaunay-line"/>
<line x1="15.729522325390635" y1="9.651214602150374" x2="15.425919146049676" y2="9.88417751529491" class="delaunay-line"/>
<line x1="15.425919146049676" y1="9.88417751529491" x2="15.600890338002777" y2="9.797891272295994" class="delaunay-line"/>
<line x1="15.546509623498414" y1="8.968201900258157" x2="15.167100100947156" y2="8.91825168900584" class="delaunay-line"/>
<line x1="15.167100100947156" y1="8.91825168900584" x2="14.863496921606197" y2="9.151214602150377" class="delaunay-line"/>
<line x1="14.863496921606197" y1="9.151214602150377" x2="15.546509623498414" y2="8.968201900258157" class="delaunay-line"/>
<line x1="15.729522325390635" y1="9.651214602150374" x2="15.546509623498414" y2="8.968201900258157" class="delaunay-line"/>
<line x1="15.546509623498414" y1="8.968201900258157" x2="14.863496921606197" y2="9.151214602150377" class="delaunay-line"/>
<line x1="14.863496921606197" y1="9.151214602150377" x2="15.729522325390635" y2="9.651214602150374" class="delaunay-line"/>
<line x1="15.77947253664295" y1="9.271805079599115" x2="15.546509623498414" y2="8.968201900258157" class="delaunay-line"/>
<line x1="15.546509623498414" y1="8.968201900258157" x2="15.729522325390635" y2="9.651214602150374" class="delaunay-line"/>
<line x1="15.729522325390635" y1="9.651214602150374" x2="15.77947253664295" y2="9.271805079599115" class="delaunay-line"/>
<line x1="15.792232054185321" y1="9.466477698260402" x2="15.77947253664295" y2="9.271805079599115" class="delaunay-line"/>
<line x1="15.77947253664295" y1="9.271805079599115" x2="15.729522325390635" y2="9.651214602150374" class="delaunay-line"/>
<line x1="15.729522325390635" y1="9.651214602150374" x2="15.792232054185321" y2="9.466477698260402" class="delaunay-line"/>
<line x1="15.77947253664295" y1="9.271805079599115" x2="15.693186293644034" y2="9.096833887646014" class="delaunay-line"/>
<line x1="15.693186293644034" y1="9.096833887646014" x2="15.546509623498414" y2="8.968201900258157" class="delaunay-line"/>
<line x1="15.546509623498414" y1="8.968201900258157" x2="15.77947253664295" y2="9.271805079599115" class="delaunay-line"/>
<line x1="15.046509623498418" y1="9.834227304042594" x2="10.986074930137306" y2="18.2803300550271" class="delaunay-line"/>
<line x1="10.986074930137306" y1="18.2803300550271" x2="15.23124652738839" y2="9.89693703283728" class="delaunay-line"/>
<line x1="15.23124652738839" y1="9.89693703283728" x2="15.046509623498418" y2="9.834227304042594" class="delaunay-line"/>
<line x1="15.23124652738839" y1="9.89693703283728" x2="11.114706917525163" y2="18.427006725172717" class="delaunay-line"/>
<line x1="11.114706917525163" y1="18.427006725172717" x2="15.425919146049676" y2="9.88417751529491" class="delaunay-line"/>
<line x1="15.425919146049676" y1="9.88417751529491" x2="15.23124652738839" y2="9.89693703283728" class="delaunay-line"/>
<line x1="15.425919146049676" y1="9.88417751529491" x2="15.697596749666612" y2="21.30473060696798" class="delaunay-line"/>
<line x1="15.697596749666612" y1="21.30473060696798" x2="15.600890338002777" y2="9.797891272295994" class="delaunay-line"/>
<line x1="15.600890338002777" y1="9.797891272295994" x2="15.425919146049676" y2="9.88417751529491" class="delaunay-line"/>
<line x1="15.600890338002777" y1="9.797891272295994" x2="15.872567941619714" y2="21.391016849966896" class="delaunay-line"/>
<line x1="15.872567941619714" y1="21.391016849966896" x2="15.729522325390635" y2="9.651214602150374" class="delaunay-line"/>
<line x1="15.729522325390635" y1="9.651214602150374" x2="15.600890338002777" y2="9.797891272295994" class="delaunay-line"/>
<line x1="10.811103738184205" y1="18.194043812028184" x2="10.986074930137306" y2="18.2803300550271" class="delaunay-line"/>
<line x1="10.986074930137306" y1="18.2803300550271" x2="15.046509623498418" y2="9.834227304042594" class="delaunay-line"/>
<line x1="15.046509623498418" y1="9.834227304042594" x2="10.811103738184205" y2="18.194043812028184" class="delaunay-line"/>
<line x1="10.811103738184205" y1="18.194043812028184" x2="15.046509623498418" y2="9.834227304042594" class="delaunay-line"/>
<line x1="15.046509623498418" y1="9.834227304042594" x2="14.899832953352798" y2="9.705595316654737" class="delaunay-line"/>
<line x1="14.899832953352798" y1="9.705595316654737" x2="10.811103738184205" y2="18.194043812028184" class="delaunay-line"/>
<line x1="10.811103738184205" y1="18.194043812028184" x2="14.899832953352798" y2="9.705595316654737" class="delaunay-line"/>
<line x1="14.899832953352798" y1="9.705595316654737" x2="10.616431119522918" y2="18.181284294485813" class="delaunay-line"/>
<line x1="10.616431119522918" y1="18.181284294485813" x2="10.811103738184205" y2="18.194043812028184" class="delaunay-line"/>
<line x1="14.899832953352798" y1="9.705595316654737" x2="14.813546710353881" y2="9.530624124701635" class="delaunay-line"/>
<line x1="14.813546710353881" y1="9.530624124701635" x2="10.616431119522918" y2="18.181284294485813" class="delaunay-line"/>
<line x1="10.616431119522918" y1="18.181284294485813" x2="14.899832953352798" y2="9.705595316654737" class="delaunay-line"/>
<line x1="10.616431119522918" y1="18.181284294485813" x2="14.813546710353881" y2="9.530624124701635" class="delaunay-line"/>
<line x1="14.813546710353881" y1="9.530624124701635" x2="10.431694215632946" y2="18.2439940232805" class="delaunay-line"/>
<line x1="10.431694215632946" y1="18.2439940232805" x2="10.616431119522918" y2="18.181284294485813" class="delaunay-line"/>
<line x1="10.811103738184205" y1="18.194043812028184" x2="11.114706917525163" y2="18.427006725172717" class="delaunay-line"/>
<line x1="11.114706917525163" y1="18.427006725172717" x2="10.986074930137306" y2="18.2803300550271" class="delaunay-line"/>
<line x1="10.986074930137306" y1="18.2803300550271" x2="10.811103738184205" y2="18.194043812028184" class="delaunay-line"/>
<line x1="10.986074930137306" y1="18.2803300550271" x2="11.114706917525163" y2="18.427006725172717" class="delaunay-line"/>
<line x1="11.114706917525163" y1="18.427006725172717" x2="15.23124652738839" y2="9.89693703283728" class="delaunay-line"/>
<line x1="15.23124652738839" y1="9.89693703283728" x2="10.986074930137306" y2="18.2803300550271" class="delaunay-line"/>
<line x1="10.431694215632946" y1="18.2439940232805" x2="14.813546710353881" y2="9.530624124701635" class="delaunay-line"/>
<line x1="14.813546710353881" y1="9.530624124701635" x2="3.7829012145820036" y2="4.887553067804266" class="delaunay-line"/>
<line x1="3.7829012145820036" y1="4.887553067804266" x2="10.431694215632946" y2="18.2439940232805" class="delaunay-line"/>
<line x1="10.811103738184205" y1="18.194043812028184" x2="10.431694215632946" y2="18.2439940232805" class="delaunay-line"/>
<line x1="10.431694215632946" y1="18.2439940232805" x2="11.114706917525163" y2="18.427006725172717" class="delaunay-line"/>
<line x1="11.114706917525163" y1="18.427006725172717" x2="10.811103738184205" y2="18.194043812028184" class="delaunay-line"/>
<line x1="11.16465712877748" y1="18.806416247723977" x2="11.17741664631985" y2="18.61174362906269" class="delaunay-line"/>
<line x1="11.17741664631985" y1="18.61174362906269" x2="11.078370885778563" y2="18.981387439677075" class="delaunay-line"/>
<line x1="11.078370885778563" y1="18.981387439677075" x2="11.16465712877748" y2="18.806416247723977" class="delaunay-line"/>
<line x1="11.114706917525163" y1="18.427006725172717" x2="15.697596749666612" y2="21.30473060696798" class="delaunay-line"/>
<line x1="15.697596749666612" y1="21.30473060696798" x2="15.425919146049676" y2="9.88417751529491" class="delaunay-line"/>
<line x1="15.425919146049676" y1="9.88417751529491" x2="11.114706917525163" y2="18.427006725172717" class="delaunay-line"/>
<line x1="10.285017545487326" y1="18.37262601066836" x2="10.431694215632946" y2="18.2439940232805" class="delaunay-line"/>
<line x1="10.431694215632946" y1="18.2439940232805" x2="3.7829012145820036" y2="4.887553067804266" class="delaunay-line"/>
<line x1="3.7829012145820036" y1="4.887553067804266" x2="10.285017545487326" y2="18.37262601066836" class="delaunay-line"/>
<line x1="10.616431119522918" y1="18.181284294485813" x2="10.431694215632946" y2="18.2439940232805" class="delaunay-line"/>
<line x1="10.431694215632946" y1="18.2439940232805" x2="10.811103738184205" y2="18.194043812028184" class="delaunay-line"/>
<line x1="10.811103738184205" y1="18.194043812028184" x2="10.616431119522918" y2="18.181284294485813" class="delaunay-line"/>
<line x1="11.078370885778563" y1="18.981387439677075" x2="11.17741664631985" y2="18.61174362906269" class="delaunay-line"/>
<line x1="11.17741664631985" y1="18.61174362906269" x2="10.931694215632943" y2="19.110019427064934" class="delaunay-line"/>
<line x1="10.931694215632943" y1="19.110019427064934" x2="11.078370885778563" y2="18.981387439677075" class="delaunay-line"/>
<line x1="11.17741664631985" y1="18.61174362906269" x2="15.502924131005326" y2="21.29197108942561" class="delaunay-line"/>
<line x1="15.502924131005326" y1="21.29197108942561" x2="11.114706917525163" y2="18.427006725172717" class="delaunay-line"/>
<line x1="11.114706917525163" y1="18.427006725172717" x2="11.17741664631985" y2="18.61174362906269" class="delaunay-line"/>
<line x1="3.9451128889927327" y1="4.779166692141897" x2="14.813546710353881" y2="9.530624124701635" class="delaunay-line"/>
<line x1="14.813546710353881" y1="9.530624124701635" x2="14.80078719281151" y2="9.335951506040349" class="delaunay-line"/>
<line x1="14.80078719281151" y1="9.335951506040349" x2="3.9451128889927327" y2="4.779166692141897" class="delaunay-line"/>
<line x1="10.931694215632943" y1="19.110019427064934" x2="11.17741664631985" y2="18.61174362906269" class="delaunay-line"/>
<line x1="11.17741664631985" y1="18.61174362906269" x2="11.114706917525163" y2="18.427006725172717" class="delaunay-line"/>
<line x1="11.114706917525163" y1="18.427006725172717" x2="10.931694215632943" y2="19.110019427064934" class="delaunay-line"/>
<line x1="10.931694215632943" y1="19.110019427064934" x2="11.114706917525163" y2="18.427006725172717" class="delaunay-line"/>
<line x1="11.114706917525163" y1="18.427006725172717" x2="10.431694215632946" y2="18.2439940232805" class="delaunay-line"/>
<line x1="10.431694215632946" y1="18.2439940232805" x2="10.931694215632943" y2="19.110019427064934" class="delaunay-line"/>
<line x1="15.318187227115354" y1="21.354680818220295" x2="15.502924131005326" y2="21.29197108942561" class="delaunay-line"/>
<line x1="15.502924131005326" y1="21.29197108942561" x2="11.17741664631985" y2="18.61174362906269" class="delaunay-line"/>
<line x1="11.17741664631985" y1="18.61174362906269" x2="15.318187227115354" y2="21.354680818220295" class="delaunay-line"/>
<line x1="10.285017545487326" y1="18.37262601066836" x2="10.18597178494604" y2="18.742269821282743" class="delaunay-line"/>
<line x1="10.18597178494604" y1="18.742269821282743" x2="10.431694215632946" y2="18.2439940232805" class="delaunay-line"/>
<line x1="10.431694215632946" y1="18.2439940232805" x2="10.285017545487326" y2="18.37262601066836" class="delaunay-line"/>
<line x1="10.248681513740726" y1="18.927006725172717" x2="10.931694215632943" y2="19.110019427064934" class="delaunay-line"/>
<line x1="10.931694215632943" y1="19.110019427064934" x2="10.431694215632946" y2="18.2439940232805" class="delaunay-line"/>
<line x1="10.431694215632946" y1="18.2439940232805" x2="10.248681513740726" y2="18.927006725172717" class="delaunay-line"/>
<line x1="10.19873130248841" y1="18.547597202621457" x2="10.18597178494604" y2="18.742269821282743" class="delaunay-line"/>
<line x1="10.18597178494604" y1="18.742269821282743" x2="10.285017545487326" y2="18.37262601066836" class="delaunay-line"/>
<line x1="10.285017545487326" y1="18.37262601066836" x2="10.19873130248841" y2="18.547597202621457" class="delaunay-line"/>
<line x1="10.552284693081685" y1="19.15996963831725" x2="10.746957311742971" y2="19.17272915585962" class="delaunay-line"/>
<line x1="10.746957311742971" y1="19.17272915585962" x2="10.931694215632943" y2="19.110019427064934" class="delaunay-line"/>
<line x1="10.931694215632943" y1="19.110019427064934" x2="10.552284693081685" y2="19.15996963831725" class="delaunay-line"/>
<line x1="10.18597178494604" y1="18.742269821282743" x2="10.248681513740726" y2="18.927006725172717" class="delaunay-line"/>
<line x1="10.248681513740726" y1="18.927006725172717" x2="10.431694215632946" y2="18.2439940232805" class="delaunay-line"/>
<line x1="10.431694215632946" y1="18.2439940232805" x2="10.18597178494604" y2="18.742269821282743" class="delaunay-line"/>
<line x1="10.248681513740726" y1="18.927006725172717" x2="10.552284693081685" y2="19.15996963831725" class="delaunay-line"/>
<line x1="10.552284693081685" y1="19.15996963831725" x2="10.931694215632943" y2="19.110019427064934" class="delaunay-line"/>
<line x1="10.931694215632943" y1="19.110019427064934" x2="10.248681513740726" y2="18.927006725172717" class="delaunay-line"/>
<line x1="10.248681513740726" y1="18.927006725172717" x2="10.377313501128583" y2="19.073683395318334" class="delaunay-line"/>
<line x1="10.377313501128583" y1="19.073683395318334" x2="10.552284693081685" y2="19.15996963831725" class="delaunay-line"/>
<line x1="10.552284693081685" y1="19.15996963831725" x2="10.248681513740726" y2="18.927006725172717" class="delaunay-line"/>
<line x1="11.078370885778563" y1="18.981387439677075" x2="15.085224313970818" y2="21.658283997561252" class="delaunay-line"/>
<line x1="15.085224313970818" y1="21.658283997561252" x2="15.171510556969734" y2="21.483312805608154" class="delaunay-line"/>
<line x1="15.171510556969734" y1="21.483312805608154" x2="11.078370885778563" y2="18.981387439677075" class="delaunay-line"/>
<line x1="11.16465712877748" y1="18.806416247723977" x2="11.078370885778563" y2="18.981387439677075" class="delaunay-line"/>
<line x1="11.078370885778563" y1="18.981387439677075" x2="15.171510556969734" y2="21.483312805608154" class="delaunay-line"/>
<line x1="15.171510556969734" y1="21.483312805608154" x2="11.16465712877748" y2="18.806416247723977" class="delaunay-line"/>
<line x1="15.318187227115354" y1="21.354680818220295" x2="11.16465712877748" y2="18.806416247723977" class="delaunay-line"/>
<line x1="11.16465712877748" y1="18.806416247723977" x2="15.171510556969734" y2="21.483312805608154" class="delaunay-line"/>
<line x1="15.171510556969734" y1="21.483312805608154" x2="15.318187227115354" y2="21.354680818220295" class="delaunay-line"/>
<line x1="15.318187227115354" y1="21.354680818220295" x2="11.17741664631985" y2="18.61174362906269" class="delaunay-line"/>
<line x1="11.17741664631985" y1="18.61174362906269" x2="11.16465712877748" y2="18.806416247723977" class="delaunay-line"/>
<line x1="11.16465712877748" y1="18.806416247723977" x2="15.318187227115354" y2="21.354680818220295" class="delaunay-line"/>
<line x1="24" y1="24" x2="24" y2="0" class="delaunay-line"/>
<line x1="24" y1="0" x2="15.792232054185321" y2="9.466477698260402" class="delaunay-line"/>
<line x1="15.792232054185321" y1="9.466477698260402" x2="24" y2="24" class="delaunay-line"/>
<line x1="15.502924131005326" y1="21.29197108942561" x2="15.697596749666612" y2="21.30473060696798" class="delaunay-line"/>
<line x1="15.697596749666612" y1="21.30473060696798" x2="11.114706917525163" y2="18.427006725172717" class="delaunay-line"/>
<line x1="11.114706917525163" y1="18.427006725172717" x2="15.502924131005326" y2="21.29197108942561" class="delaunay-line"/>
<line x1="11.078370885778563" y1="18.981387439677075" x2="10.931694215632943" y2="19.110019427064934" class="delaunay-line"/>
<line x1="10.931694215632943" y1="19.110019427064934" x2="15.085224313970818" y2="21.658283997561252" class="delaunay-line"/>
<line x1="15.085224313970818" y1="21.658283997561252" x2="11.078370885778563" y2="18.981387439677075" class="delaunay-line"/>
<line x1="15.502924131005326" y1="21.29197108942561" x2="15.318187227115354" y2="21.354680818220295" class="delaunay-line"/>
<line x1="15.318187227115354" y1="21.354680818220295" x2="15.697596749666612" y2="21.30473060696798" class="delaunay-line"/>
<line x1="15.697596749666612" y1="21.30473060696798" x2="15.502924131005326" y2="21.29197108942561" class="delaunay-line"/>
<line x1="16.00119992900757" y1="21.537693520112512" x2="15.872567941619714" y2="21.391016849966896" class="delaunay-line"/>
<line x1="15.872567941619714" y1="21.391016849966896" x2="15.697596749666612" y2="21.30473060696798" class="delaunay-line"/>
<line x1="15.697596749666612" y1="21.30473060696798" x2="16.00119992900757" y2="21.537693520112512" class="delaunay-line"/>
<line x1="15.697596749666612" y1="21.30473060696798" x2="15.872567941619714" y2="21.391016849966896" class="delaunay-line"/>
<line x1="15.872567941619714" y1="21.391016849966896" x2="15.600890338002777" y2="9.797891272295994" class="delaunay-line"/>
<line x1="15.600890338002777" y1="9.797891272295994" x2="15.697596749666612" y2="21.30473060696798" class="delaunay-line"/>
<line x1="15.085224313970818" y1="21.658283997561252" x2="10.931694215632943" y2="19.110019427064934" class="delaunay-line"/>
<line x1="10.931694215632943" y1="19.110019427064934" x2="15.072464796428447" y2="21.85295661622254" class="delaunay-line"/>
<line x1="15.072464796428447" y1="21.85295661622254" x2="15.085224313970818" y2="21.658283997561252" class="delaunay-line"/>
<line x1="15.318187227115354" y1="21.354680818220295" x2="16.00119992900757" y2="21.537693520112512" class="delaunay-line"/>
<line x1="16.00119992900757" y1="21.537693520112512" x2="15.697596749666612" y2="21.30473060696798" class="delaunay-line"/>
<line x1="15.697596749666612" y1="21.30473060696798" x2="15.318187227115354" y2="21.354680818220295" class="delaunay-line"/>
<line x1="10.931694215632943" y1="19.110019427064934" x2="10.746957311742971" y2="19.17272915585962" class="delaunay-line"/>
<line x1="10.746957311742971" y1="19.17272915585962" x2="15.072464796428447" y2="21.85295661622254" class="delaunay-line"/>
<line x1="15.072464796428447" y1="21.85295661622254" x2="10.931694215632943" y2="19.110019427064934" class="delaunay-line"/>
<line x1="16.063909657802256" y1="21.722430424002486" x2="15.964863897260969" y2="22.09207423461687" class="delaunay-line"/>
<line x1="15.964863897260969" y1="22.09207423461687" x2="16.051150140259885" y2="21.917103042663772" class="delaunay-line"/>
<line x1="16.051150140259885" y1="21.917103042663772" x2="16.063909657802256" y2="21.722430424002486" class="delaunay-line"/>
<line x1="15.872567941619714" y1="21.391016849966896" x2="24" y2="24" class="delaunay-line"/>
<line x1="24" y1="24" x2="15.729522325390635" y2="9.651214602150374" class="delaunay-line"/>
<line x1="15.729522325390635" y1="9.651214602150374" x2="15.872567941619714" y2="21.391016849966896" class="delaunay-line"/>
<line x1="4.091559498399459" y1="4.425613301548623" x2="4.053499264655102" y2="4.616955017731168" class="delaunay-line"/>
<line x1="4.053499264655102" y1="4.616955017731168" x2="14.863496921606197" y2="9.151214602150377" class="delaunay-line"/>
<line x1="14.863496921606197" y1="9.151214602150377" x2="4.091559498399459" y2="4.425613301548623" class="delaunay-line"/>
<line x1="14.863496921606197" y1="9.151214602150377" x2="4.053499264655102" y2="4.616955017731168" class="delaunay-line"/>
<line x1="4.053499264655102" y1="4.616955017731168" x2="14.80078719281151" y2="9.335951506040349" class="delaunay-line"/>
<line x1="14.80078719281151" y1="9.335951506040349" x2="14.863496921606197" y2="9.151214602150377" class="delaunay-line"/>
<line x1="10.285017545487326" y1="18.37262601066836" x2="3.5915594983994588" y2="4.925613301548623" class="delaunay-line"/>
<line x1="3.5915594983994588" y1="4.925613301548623" x2="10.19873130248841" y2="18.547597202621457" class="delaunay-line"/>
<line x1="10.19873130248841" y1="18.547597202621457" x2="10.285017545487326" y2="18.37262601066836" class="delaunay-line"/>
<line x1="10.19873130248841" y1="18.547597202621457" x2="0" y2="24" class="delaunay-line"/>
<line x1="0" y1="24" x2="10.18597178494604" y2="18.742269821282743" class="delaunay-line"/>
<line x1="10.18597178494604" y1="18.742269821282743" x2="10.19873130248841" y2="18.547597202621457" class="delaunay-line"/>
<line x1="10.18597178494604" y1="18.742269821282743" x2="0" y2="24" class="delaunay-line"/>
<line x1="0" y1="24" x2="10.248681513740726" y2="18.927006725172717" class="delaunay-line"/>
<line x1="10.248681513740726" y1="18.927006725172717" x2="10.18597178494604" y2="18.742269821282743" class="delaunay-line"/>
<line x1="4.091559498399459" y1="4.425613301548623" x2="14.863496921606197" y2="9.151214602150377" class="delaunay-line"/>
<line x1="14.863496921606197" y1="9.151214602150377" x2="14.992128908994054" y2="9.004537932004757" class="delaunay-line"/>
<line x1="14.992128908994054" y1="9.004537932004757" x2="4.091559498399459" y2="4.425613301548623" class="delaunay-line"/>
<line x1="4.091559498399459" y1="4.425613301548623" x2="14.992128908994054" y2="9.004537932004757" class="delaunay-line"/>
<line x1="14.992128908994054" y1="9.004537932004757" x2="4.053499264655102" y2="4.234271585366078" class="delaunay-line"/>
<line x1="4.053499264655102" y1="4.234271585366078" x2="4.091559498399459" y2="4.425613301548623" class="delaunay-line"/>
<line x1="14.992128908994054" y1="9.004537932004757" x2="15.167100100947156" y2="8.91825168900584" class="delaunay-line"/>
<line x1="15.167100100947156" y1="8.91825168900584" x2="4.053499264655102" y2="4.234271585366078" class="delaunay-line"/>
<line x1="4.053499264655102" y1="4.234271585366078" x2="14.992128908994054" y2="9.004537932004757" class="delaunay-line"/>
<line x1="4.053499264655102" y1="4.616955017731168" x2="3.9451128889927327" y2="4.779166692141897" class="delaunay-line"/>
<line x1="3.9451128889927327" y1="4.779166692141897" x2="14.80078719281151" y2="9.335951506040349" class="delaunay-line"/>
<line x1="14.80078719281151" y1="9.335951506040349" x2="4.053499264655102" y2="4.616955017731168" class="delaunay-line"/>
<line x1="15.072464796428447" y1="21.85295661622254" x2="10.746957311742971" y2="19.17272915585962" class="delaunay-line"/>
<line x1="10.746957311742971" y1="19.17272915585962" x2="15.135174525223134" y2="22.037693520112512" class="delaunay-line"/>
<line x1="15.135174525223134" y1="22.037693520112512" x2="15.072464796428447" y2="21.85295661622254" class="delaunay-line"/>
<line x1="15.171510556969734" y1="21.483312805608154" x2="15.072464796428447" y2="21.85295661622254" class="delaunay-line"/>
<line x1="15.072464796428447" y1="21.85295661622254" x2="15.318187227115354" y2="21.354680818220295" class="delaunay-line"/>
<line x1="15.318187227115354" y1="21.354680818220295" x2="15.171510556969734" y2="21.483312805608154" class="delaunay-line"/>
<line x1="4.053499264655102" y1="4.234271585366078" x2="24" y2="0" class="delaunay-line"/>
<line x1="24" y1="0" x2="3.9451128889927323" y2="4.072059910955349" class="delaunay-line"/>
<line x1="3.9451128889927323" y1="4.072059910955349" x2="4.053499264655102" y2="4.234271585366078" class="delaunay-line"/>
<line x1="4.053499264655102" y1="4.616955017731168" x2="3.7829012145820036" y2="4.887553067804266" class="delaunay-line"/>
<line x1="3.7829012145820036" y1="4.887553067804266" x2="3.9451128889927327" y2="4.779166692141897" class="delaunay-line"/>
<line x1="3.9451128889927327" y1="4.779166692141897" x2="4.053499264655102" y2="4.616955017731168" class="delaunay-line"/>
<line x1="16.063909657802256" y1="21.722430424002486" x2="16.00119992900757" y2="21.537693520112512" class="delaunay-line"/>
<line x1="16.00119992900757" y1="21.537693520112512" x2="15.964863897260969" y2="22.09207423461687" class="delaunay-line"/>
<line x1="15.964863897260969" y1="22.09207423461687" x2="16.063909657802256" y2="21.722430424002486" class="delaunay-line"/>
<line x1="24" y1="24" x2="15.792232054185321" y2="9.466477698260402" class="delaunay-line"/>
<line x1="15.792232054185321" y1="9.466477698260402" x2="15.729522325390635" y2="9.651214602150374" class="delaunay-line"/>
<line x1="15.729522325390635" y1="9.651214602150374" x2="24" y2="24" class="delaunay-line"/>
<line x1="3.400217782216914" y1="4.887553067804266" x2="3.7829012145820036" y2="4.887553067804266" class="delaunay-line"/>
<line x1="3.7829012145820036" y1="4.887553067804266" x2="4.053499264655102" y2="4.616955017731168" class="delaunay-line"/>
<line x1="4.053499264655102" y1="4.616955017731168" x2="3.400217782216914" y2="4.887553067804266" class="delaunay-line"/>
<line x1="3.9451128889927327" y1="4.779166692141897" x2="3.7829012145820036" y2="4.887553067804266" class="delaunay-line"/>
<line x1="3.7829012145820036" y1="4.887553067804266" x2="14.813546710353881" y2="9.530624124701635" class="delaunay-line"/>
<line x1="14.813546710353881" y1="9.530624124701635" x2="3.9451128889927327" y2="4.779166692141897" class="delaunay-line"/>
<line x1="4.053499264655102" y1="4.234271585366078" x2="15.167100100947156" y2="8.91825168900584" class="delaunay-line"/>
<line x1="15.167100100947156" y1="8.91825168900584" x2="24" y2="0" class="delaunay-line"/>
<line x1="24" y1="0" x2="4.053499264655102" y2="4.234271585366078" class="delaunay-line"/>
<line x1="4.091559498399459" y1="4.425613301548623" x2="4.053499264655102" y2="4.234271585366078" class="delaunay-line"/>
<line x1="4.053499264655102" y1="4.234271585366078" x2="4.053499264655102" y2="4.616955017731168" class="delaunay-line"/>
<line x1="4.053499264655102" y1="4.616955017731168" x2="4.091559498399459" y2="4.425613301548623" class="delaunay-line"/>
<line x1="15.135174525223134" y1="22.037693520112512" x2="10.746957311742971" y2="19.17272915585962" class="delaunay-line"/>
<line x1="10.746957311742971" y1="19.17272915585962" x2="10.552284693081685" y2="19.15996963831725" class="delaunay-line"/>
<line x1="10.552284693081685" y1="19.15996963831725" x2="15.135174525223134" y2="22.037693520112512" class="delaunay-line"/>
<line x1="15.085224313970818" y1="21.658283997561252" x2="15.072464796428447" y2="21.85295661622254" class="delaunay-line"/>
<line x1="15.072464796428447" y1="21.85295661622254" x2="15.171510556969734" y2="21.483312805608154" class="delaunay-line"/>
<line x1="15.171510556969734" y1="21.483312805608154" x2="15.085224313970818" y2="21.658283997561252" class="delaunay-line"/>
<line x1="3.400217782216914" y1="4.887553067804266" x2="3.5915594983994588" y2="4.925613301548623" class="delaunay-line"/>
<line x1="3.5915594983994588" y1="4.925613301548623" x2="3.7829012145820036" y2="4.887553067804266" class="delaunay-line"/>
<line x1="3.7829012145820036" y1="4.887553067804266" x2="3.400217782216914" y2="4.887553067804266" class="delaunay-line"/>
<line x1="3.7829012145820036" y1="4.887553067804266" x2="3.5915594983994588" y2="4.925613301548623" class="delaunay-line"/>
<line x1="3.5915594983994588" y1="4.925613301548623" x2="10.285017545487326" y2="18.37262601066836" class="delaunay-line"/>
<line x1="10.285017545487326" y1="18.37262601066836" x2="3.7829012145820036" y2="4.887553067804266" class="delaunay-line"/>
<line x1="15.964863897260969" y1="22.09207423461687" x2="16.00119992900757" y2="21.537693520112512" class="delaunay-line"/>
<line x1="16.00119992900757" y1="21.537693520112512" x2="15.81818722711535" y2="22.22070622200473" class="delaunay-line"/>
<line x1="15.81818722711535" y1="22.22070622200473" x2="15.964863897260969" y2="22.09207423461687" class="delaunay-line"/>
<line x1="3.7829012145820036" y1="3.9636735352929793" x2="3.9451128889927323" y2="4.072059910955349" class="delaunay-line"/>
<line x1="3.9451128889927323" y1="4.072059910955349" x2="0" y2="0" class="delaunay-line"/>
<line x1="0" y1="0" x2="3.7829012145820036" y2="3.9636735352929793" class="delaunay-line"/>
<line x1="4.053499264655102" y1="4.234271585366078" x2="3.400217782216914" y2="4.887553067804266" class="delaunay-line"/>
<line x1="3.400217782216914" y1="4.887553067804266" x2="4.053499264655102" y2="4.616955017731168" class="delaunay-line"/>
<line x1="4.053499264655102" y1="4.616955017731168" x2="4.053499264655102" y2="4.234271585366078" class="delaunay-line"/>
<line x1="15.26380651261099" y1="22.18437019025813" x2="15.135174525223134" y2="22.037693520112512" class="delaunay-line"/>
<line x1="15.135174525223134" y1="22.037693520112512" x2="0" y2="24" class="delaunay-line"/>
<line x1="0" y1="24" x2="15.26380651261099" y2="22.18437019025813" class="delaunay-line"/>
<line x1="15.072464796428447" y1="21.85295661622254" x2="15.135174525223134" y2="22.037693520112512" class="delaunay-line"/>
<line x1="15.135174525223134" y1="22.037693520112512" x2="15.318187227115354" y2="21.354680818220295" class="delaunay-line"/>
<line x1="15.318187227115354" y1="21.354680818220295" x2="15.072464796428447" y2="21.85295661622254" class="delaunay-line"/>
<line x1="15.81818722711535" y1="22.22070622200473" x2="16.00119992900757" y2="21.537693520112512" class="delaunay-line"/>
<line x1="16.00119992900757" y1="21.537693520112512" x2="15.318187227115354" y2="21.354680818220295" class="delaunay-line"/>
<line x1="15.318187227115354" y1="21.354680818220295" x2="15.81818722711535" y2="22.22070622200473" class="delaunay-line"/>
<line x1="3.4002177822169135" y1="3.9636735352929797" x2="3.400217782216914" y2="4.887553067804266" class="delaunay-line"/>
<line x1="3.400217782216914" y1="4.887553067804266" x2="4.053499264655102" y2="4.234271585366078" class="delaunay-line"/>
<line x1="4.053499264655102" y1="4.234271585366078" x2="3.4002177822169135" y2="3.9636735352929797" class="delaunay-line"/>
<line x1="3.5915594983994588" y1="4.925613301548623" x2="3.400217782216914" y2="4.887553067804266" class="delaunay-line"/>
<line x1="3.400217782216914" y1="4.887553067804266" x2="10.19873130248841" y2="18.547597202621457" class="delaunay-line"/>
<line x1="10.19873130248841" y1="18.547597202621457" x2="3.5915594983994588" y2="4.925613301548623" class="delaunay-line"/>
<line x1="24" y1="0" x2="15.167100100947156" y2="8.91825168900584" class="delaunay-line"/>
<line x1="15.167100100947156" y1="8.91825168900584" x2="15.361772719608442" y2="8.90549217146347" class="delaunay-line"/>
<line x1="15.361772719608442" y1="8.90549217146347" x2="24" y2="0" class="delaunay-line"/>
<line x1="3.9451128889927323" y1="4.072059910955349" x2="3.7829012145820036" y2="3.9636735352929793" class="delaunay-line"/>
<line x1="3.7829012145820036" y1="3.9636735352929793" x2="4.053499264655102" y2="4.234271585366078" class="delaunay-line"/>
<line x1="4.053499264655102" y1="4.234271585366078" x2="3.9451128889927323" y2="4.072059910955349" class="delaunay-line"/>
<line x1="0" y1="24" x2="15.135174525223134" y2="22.037693520112512" class="delaunay-line"/>
<line x1="15.135174525223134" y1="22.037693520112512" x2="10.552284693081685" y2="19.15996963831725" class="delaunay-line"/>
<line x1="10.552284693081685" y1="19.15996963831725" x2="0" y2="24" class="delaunay-line"/>
<line x1="15.135174525223134" y1="22.037693520112512" x2="15.81818722711535" y2="22.22070622200473" class="delaunay-line"/>
<line x1="15.81818722711535" y1="22.22070622200473" x2="15.318187227115354" y2="21.354680818220295" class="delaunay-line"/>
<line x1="15.318187227115354" y1="21.354680818220295" x2="15.135174525223134" y2="22.037693520112512" class="delaunay-line"/>
<line x1="15.693186293644034" y1="9.096833887646014" x2="24" y2="0" class="delaunay-line"/>
<line x1="24" y1="0" x2="15.546509623498414" y2="8.968201900258157" class="delaunay-line"/>
<line x1="15.546509623498414" y1="8.968201900258157" x2="15.693186293644034" y2="9.096833887646014" class="delaunay-line"/>
<line x1="15.546509623498414" y1="8.968201900258157" x2="24" y2="0" class="delaunay-line"/>
<line x1="24" y1="0" x2="15.361772719608442" y2="8.90549217146347" class="delaunay-line"/>
<line x1="15.361772719608442" y1="8.90549217146347" x2="15.546509623498414" y2="8.968201900258157" class="delaunay-line"/>
<line x1="15.77947253664295" y1="9.271805079599115" x2="24" y2="0" class="delaunay-line"/>
<line x1="24" y1="0" x2="15.693186293644034" y2="9.096833887646014" class="delaunay-line"/>
<line x1="15.693186293644034" y1="9.096833887646014" x2="15.77947253664295" y2="9.271805079599115" class="delaunay-line"/>
<line x1="15.792232054185321" y1="9.466477698260402" x2="24" y2="0" class="delaunay-line"/>
<line x1="24" y1="0" x2="15.77947253664295" y2="9.271805079599115" class="delaunay-line"/>
<line x1="15.77947253664295" y1="9.271805079599115" x2="15.792232054185321" y2="9.466477698260402" class="delaunay-line"/>
<line x1="24" y1="24" x2="15.872567941619714" y2="21.391016849966896" class="delaunay-line"/>
<line x1="15.872567941619714" y1="21.391016849966896" x2="16.00119992900757" y2="21.537693520112512" class="delaunay-line"/>
<line x1="16.00119992900757" y1="21.537693520112512" x2="24" y2="24" class="delaunay-line"/>
<line x1="24" y1="24" x2="16.00119992900757" y2="21.537693520112512" class="delaunay-line"/>
<line x1="16.00119992900757" y1="21.537693520112512" x2="16.063909657802256" y2="21.722430424002486" class="delaunay-line"/>
<line x1="16.063909657802256" y1="21.722430424002486" x2="24" y2="24" class="delaunay-line"/>
<line x1="15.438777704564092" y1="22.270656433257045" x2="15.81818722711535" y2="22.22070622200473" class="delaunay-line"/>
<line x1="15.81818722711535" y1="22.22070622200473" x2="15.135174525223134" y2="22.037693520112512" class="delaunay-line"/>
<line x1="15.135174525223134" y1="22.037693520112512" x2="15.438777704564092" y2="22.270656433257045" class="delaunay-line"/>
<line x1="15.26380651261099" y1="22.18437019025813" x2="15.438777704564092" y2="22.270656433257045" class="delaunay-line"/>
<line x1="15.438777704564092" y1="22.270656433257045" x2="15.135174525223134" y2="22.037693520112512" class="delaunay-line"/>
<line x1="15.135174525223134" y1="22.037693520112512" x2="15.26380651261099" y2="22.18437019025813" class="delaunay-line"/>
<line x1="15.438777704564092" y1="22.270656433257045" x2="15.633450323225379" y2="22.283415950799416" class="delaunay-line"/>
<line x1="15.633450323225379" y1="22.283415950799416" x2="15.81818722711535" y2="22.22070622200473" class="delaunay-line"/>
<line x1="15.81818722711535" y1="22.22070622200473" x2="15.438777704564092" y2="22.270656433257045" class="delaunay-line"/>
<line x1="3.1296197321438153" y1="4.616955017731168" x2="3.238006107806185" y2="4.779166692141897" class="delaunay-line"/>
<line x1="3.238006107806185" y1="4.779166692141897" x2="3.400217782216914" y2="4.887553067804266" class="delaunay-line"/>
<line x1="3.400217782216914" y1="4.887553067804266" x2="3.1296197321438153" y2="4.616955017731168" class="delaunay-line"/>
<line x1="3.400217782216914" y1="4.887553067804266" x2="0" y2="24" class="delaunay-line"/>
<line x1="0" y1="24" x2="10.19873130248841" y2="18.547597202621457" class="delaunay-line"/>
<line x1="10.19873130248841" y1="18.547597202621457" x2="3.400217782216914" y2="4.887553067804266" class="delaunay-line"/>
<line x1="0" y1="0" x2="3.5915594983994588" y2="3.9256133015486228" class="delaunay-line"/>
<line x1="3.5915594983994588" y1="3.9256133015486228" x2="3.7829012145820036" y2="3.9636735352929793" class="delaunay-line"/>
<line x1="3.7829012145820036" y1="3.9636735352929793" x2="0" y2="0" class="delaunay-line"/>
<line x1="3.7829012145820036" y1="3.9636735352929793" x2="3.5915594983994588" y2="3.9256133015486228" class="delaunay-line"/>
<line x1="3.5915594983994588" y1="3.9256133015486228" x2="4.053499264655102" y2="4.234271585366078" class="delaunay-line"/>
<line x1="4.053499264655102" y1="4.234271585366078" x2="3.7829012145820036" y2="3.9636735352929793" class="delaunay-line"/>
<line x1="3.0915594983994588" y1="4.425613301548623" x2="3.1296197321438153" y2="4.616955017731168" class="delaunay-line"/>
<line x1="3.1296197321438153" y1="4.616955017731168" x2="3.400217782216914" y2="4.887553067804266" class="delaunay-line"/>
<line x1="3.400217782216914" y1="4.887553067804266" x2="3.0915594983994588" y2="4.425613301548623" class="delaunay-line"/>
<line x1="3.238006107806185" y1="4.779166692141897" x2="0" y2="24" class="delaunay-line"/>
<line x1="0" y1="24" x2="3.400217782216914" y2="4.887553067804266" class="delaunay-line"/>
<line x1="3.400217782216914" y1="4.887553067804266" x2="3.238006107806185" y2="4.779166692141897" class="delaunay-line"/>
<line x1="3.5915594983994588" y1="3.9256133015486228" x2="3.4002177822169135" y2="3.9636735352929797" class="delaunay-line"/>
<line x1="3.4002177822169135" y1="3.9636735352929797" x2="4.053499264655102" y2="4.234271585366078" class="delaunay-line"/>
<line x1="4.053499264655102" y1="4.234271585366078" x2="3.5915594983994588" y2="3.9256133015486228" class="delaunay-line"/>
<line x1="3.1296197321438153" y1="4.234271585366078" x2="3.0915594983994588" y2="4.425613301548623" class="delaunay-line"/>
<line x1="3.0915594983994588" y1="4.425613301548623" x2="3.400217782216914" y2="4.887553067804266" class="delaunay-line"/>
<line x1="3.400217782216914" y1="4.887553067804266" x2="3.1296197321438153" y2="4.234271585366078" class="delaunay-line"/>
<line x1="3.4002177822169135" y1="3.9636735352929797" x2="3.1296197321438153" y2="4.234271585366078" class="delaunay-line"/>
<line x1="3.1296197321438153" y1="4.234271585366078" x2="3.400217782216914" y2="4.887553067804266" class="delaunay-line"/>
<line x1="3.400217782216914" y1="4.887553067804266" x2="3.4002177822169135" y2="3.9636735352929797" class="delaunay-line"/>
<line x1="3.238006107806185" y1="4.072059910955349" x2="3.1296197321438153" y2="4.234271585366078" class="delaunay-line"/>
<line x1="3.1296197321438153" y1="4.234271585366078" x2="3.4002177822169135" y2="3.9636735352929797" class="delaunay-line"/>
<line x1="3.4002177822169135" y1="3.9636735352929797" x2="3.238006107806185" y2="4.072059910955349" class="delaunay-line"/>
<line x1="15.438777704564092" y1="22.270656433257045" x2="24" y2="24" class="delaunay-line"/>
<line x1="24" y1="24" x2="15.633450323225379" y2="22.283415950799416" class="delaunay-line"/>
<line x1="15.633450323225379" y1="22.283415950799416" x2="15.438777704564092" y2="22.270656433257045" class="delaunay-line"/>
<line x1="15.633450323225379" y1="22.283415950799416" x2="24" y2="24" class="delaunay-line"/>
<line x1="24" y1="24" x2="15.81818722711535" y2="22.22070622200473" class="delaunay-line"/>
<line x1="15.81818722711535" y1="22.22070622200473" x2="15.633450323225379" y2="22.283415950799416" class="delaunay-line"/>
<line x1="15.81818722711535" y1="22.22070622200473" x2="24" y2="24" class="delaunay-line"/>
<line x1="24" y1="24" x2="15.964863897260969" y2="22.09207423461687" class="delaunay-line"/>
<line x1="15.964863897260969" y1="22.09207423461687" x2="15.81818722711535" y2="22.22070622200473" class="delaunay-line"/>
<line x1="15.964863897260969" y1="22.09207423461687" x2="24" y2="24" class="delaunay-line"/>
<line x1="24" y1="24" x2="16.051150140259885" y2="21.917103042663772" class="delaunay-line"/>
<line x1="16.051150140259885" y1="21.917103042663772" x2="15.964863897260969" y2="22.09207423461687" class="delaunay-line"/>
<line x1="16.051150140259885" y1="21.917103042663772" x2="24" y2="24" class="delaunay-line"/>
<line x1="24" y1="24" x2="16.063909657802256" y2="21.722430424002486" class="delaunay-line"/>
<line x1="16.063909657802256" y1="21.722430424002486" x2="16.051150140259885" y2="21.917103042663772" class="delaunay-line"/>
<line x1="3.4002177822169135" y1="3.9636735352929797" x2="0" y2="0" class="delaunay-line"/>
<line x1="0" y1="0" x2="3.238006107806185" y2="4.072059910955349" class="delaunay-line"/>
<line x1="3.238006107806185" y1="4.072059910955349" x2="3.4002177822169135" y2="3.9636735352929797" class="delaunay-line"/>
<line x1="3.238006107806185" y1="4.072059910955349" x2="0" y2="0" class="delaunay-line"/>
<line x1="0" y1="0" x2="3.1296197321438153" y2="4.234271585366078" class="delaunay-line"/>
<line x1="3.1296197321438153" y1="4.234271585366078" x2="3.238006107806185" y2="4.072059910955349" class="delaunay-line"/>
<line x1="3.1296197321438153" y1="4.234271585366078" x2="0" y2="0" class="delaunay-line"/>
<line x1="0" y1="0" x2="3.0915594983994588" y2="4.425613301548623" class="delaunay-line"/>
<line x1="3.0915594983994588" y1="4.425613301548623" x2="3.1296197321438153" y2="4.234271585366078" class="delaunay-line"/>
<line x1="3.0915594983994588" y1="4.425613301548623" x2="0" y2="0" class="delaunay-line"/>
<line x1="0" y1="0" x2="3.1296197321438153" y2="4.616955017731168" class="delaunay-line"/>
<line x1="3.1296197321438153" y1="4.616955017731168" x2="3.0915594983994588" y2="4.425613301548623" class="delaunay-line"/>
<line x1="3.1296197321438153" y1="4.616955017731168" x2="0" y2="24" class="delaunay-line"/>
<line x1="0" y1="24" x2="3.238006107806185" y2="4.779166692141897" class="delaunay-line"/>
<line x1="3.238006107806185" y1="4.779166692141897" x2="3.1296197321438153" y2="4.616955017731168" class="delaunay-line"/>
<line x1="3.5915594983994588" y1="3.9256133015486228" x2="0" y2="0" class="delaunay-line"/>
<line x1="0" y1="0" x2="3.4002177822169135" y2="3.9636735352929797" class="delaunay-line"/>
<line x1="3.4002177822169135" y1="3.9636735352929797" x2="3.5915594983994588" y2="3.9256133015486228" class="delaunay-line"/>
<line x1="24" y1="0" x2="0" y2="0" class="delaunay-line"/>
<line x1="0" y1="0" x2="3.9451128889927323" y2="4.072059910955349" class="delaunay-line"/>
<line x1="3.9451128889927323" y1="4.072059910955349" x2="24" y2="0" class="delaunay-line"/>
<line x1="10.248681513740726" y1="18.927006725172717" x2="0" y2="24" class="delaunay-line"/>
<line x1="0" y1="24" x2="10.377313501128583" y2="19.073683395318334" class="delaunay-line"/>
<line x1="10.377313501128583" y1="19.073683395318334" x2="10.248681513740726" y2="18.927006725172717" class="delaunay-line"/>
<line x1="10.377313501128583" y1="19.073683395318334" x2="0" y2="24" class="delaunay-line"/>
<line x1="0" y1="24" x2="10.552284693081685" y2="19.15996963831725" class="delaunay-line"/>
<line x1="10.552284693081685" y1="19.15996963831725" x2="10.377313501128583" y2="19.073683395318334" class="delaunay-line"/>
<line x1="15.26380651261099" y1="22.18437019025813" x2="0" y2="24" class="delaunay-line"/>
<line x1="0" y1="24" x2="15.438777704564092" y2="22.270656433257045" class="delaunay-line"/>
<line x1="15.438777704564092" y1="22.270656433257045" x2="15.26380651261099" y2="22.18437019025813" class="delaunay-line"/>
<line x1="15.438777704564092" y1="22.270656433257045" x2="0" y2="24" class="delaunay-line"/>
<line x1="0" y1="24" x2="24" y2="24" class="delaunay-line"/>
<line x1="24" y1="24" x2="15.438777704564092" y2="22.270656433257045" class="delaunay-line"/>
<line x1="0" y1="0" x2="0" y2="24" class="delaunay-line"/>
<line x1="0" y1="24" x2="3.1296197321438153" y2="4.616955017731168" class="delaunay-line"/>
<line x1="3.1296197321438153" y1="4.616955017731168" x2="0" y2="0" class="delaunay-line"/>
</g>
<g id="layer-area" class="layer ">
</g>
<g id="layer-terrain" class="layer ">
<polygon points="11.16465712877748,18.806416247723977 11.078370885778563,18.981387439677075 10.931694215632943,19.110019427064934 10.746957311742971,19.17272915585962 10.552284693081685,19.15996963831725 10.377313501128583,19.073683395318334 10.248681513740726,18.927006725172717 10.18597178494604,18.742269821282743 10.19873130248841,18.547597202621457 10.285017545487326,18.37262601066836 10.431694215632946,18.2439940232805 10.616431119522918,18.181284294485813 10.811103738184205,18.194043812028184 10.986074930137306,18.2803300550271 11.114706917525163,18.427006725172717 11.17741664631985,18.61174362906269" fill="Dark Green" class="terrain-solid"/>
<polygon points="16.051150140259885,21.917103042663772 15.964863897260969,22.09207423461687 15.81818722711535,22.22070622200473 15.633450323225379,22.283415950799416 15.438777704564092,22.270656433257045 15.26380651261099,22.18437019025813 15.135174525223134,22.037693520112512 15.072464796428447,21.85295661622254 15.085224313970818,21.658283997561252 15.171510556969734,21.483312805608154 15.318187227115354,21.354680818220295 15.502924131005326,21.29197108942561 15.697596749666612,21.30473060696798 15.872567941619714,21.391016849966896 16.00119992900757,21.537693520112512 16.063909657802256,21.722430424002486" fill="Dark Green" class="terrain-solid"/>
<polygon points="4.091559498399459,4.425613301548623 4.053499264655102,4.616955017731168 3.9451128889927327,4.779166692141897 3.7829012145820036,4.887553067804266 3.5915594983994588,4.925613301548623 3.400217782216914,4.887553067804266 3.238006107806185,4.779166692141897 3.1296197321438153,4.616955017731168 3.0915594983994588,4.425613301548623 3.1296197321438153,4.234271585366078 3.238006107806185,4.072059910955349 3.4002177822169135,3.9636735352929797 3.5915594983994588,3.9256133015486228 3.7829012145820036,3.9636735352929793 3.9451128889927323,4.072059910955349 4.053499264655102,4.234271585366078" fill="Dark Green" class="terrain-solid"/>
<polygon points="15.77947253664295,9.271805079599115 15.792232054185321,9.466477698260402 15.729522325390635,9.651214602150374 15.600890338002777,9.797891272295994 15.425919146049676,9.88417751529491 15.23124652738839,9.89693703283728 15.046509623498418,9.834227304042594 14.899832953352798,9.705595316654737 14.813546710353881,9.530624124701635 14.80078719281151,9.335951506040349 14.863496921606197,9.151214602150377 14.992128908994054,9.004537932004757 15.167100100947156,8.91825168900584 15.361772719608442,8.90549217146347 15.546509623498414,8.968201900258157 15.693186293644034,9.096833887646014" fill="Dark Green" class="terrain-solid"/>
</g>
<g id="layer-models" class="layer ">
<circle cx="2" cy="2" r="0.5" fill="#5aa469" class="model"/>
<text x="2.7" y="2" class="label">Start</text>
<circle cx="22" cy="22" r="0.5" fill="#d35d6e" class="model"/>
<text x="22.7" y="22" class="label">End</text>
</g>
<g id="layer-paths" class="layer ">
<polyline points="2,2 22,22" class="path" stroke="#1144aa"/>
<text x="22.2" y="22.2" class="label">Path</text>
</g>
<g id="layer-vectors" class="layer ">
<line x1="2" y1="2" x2="22" y2="22" class="vector" stroke="#2d6a4f"/>
<text x="12.2" y="12.2" class="label">Clear</text>
</g>
<g id="layer-los" class="layer ">
</g>
<g id="layer-lof" class="layer ">
</g>

</svg>