<svg xmlns="http://www.w3.org/2000/svg" viewBox="0 0 24 24" width="960" height="960" font-family="Arial" font-size="0.6">
<defs>
  <style><![CDATA[
    .layer { display: inline; }
    .layer.hidden { display: none; }
    .grid-line { stroke: #999; stroke-width: 0.02; opacity: 0.2; }
    .delaunay-line { stroke: #4a6fa5; stroke-width: 0.03; opacity: 0.3; }
    .terrain-area { stroke: #000; stroke-width: 0.05; }
    .terrain-solid { stroke: #000; stroke-width: 0.05; }
    .model { stroke: #ff0000; stroke-width: 2; vector-effect: non-scaling-stroke; }
    .path { fill: none; stroke-width: 0.12; }
    .vector { stroke-width: 0.1; }
    .los-ray { stroke-width: 0.08; stroke-dasharray: 0.2 0.2; }
    .lof-ray { stroke-width: 0.08; stroke-dasharray: 0.3 0.15; }
    .label { fill: #111 !important; font-size: 0.6px; }
    .toggle { cursor: pointer; }
    .toggle.disabled { cursor: default; }
    .toggle.disabled rect { stroke: #ccc; fill: #fff; }
    .toggle.disabled text { fill: #ccc; }
#layer-area { fill: #C49A6C; }
#layer-building { fill: #000000; }
#layer-wall { fill: #555555; }
#layer-tree { fill: #90EE90; }
#layer-shrub { fill: #006400; }
  ]]></style>
</defs>
<rect x="0" y="0" width="24" height="24" fill="#ffffff" stroke="#111" stroke-width="0.05"/>
<script><![CDATA[
      function toggleLayer(id) {
        var layer = document.getElementById('layer-' + id);
        if (!layer) return;
        if (layer.classList.contains('hidden')) {
          layer.classList.remove('hidden');
        } else {
          layer.classList.add('hidden');
        }
      }
    ]]></script>
<text x="0.4" y="23.6" class="label">LOF + Friendly Fire (blockLOS 50)</text>
<g id="layer-deployment" class="layer ">
<rect x="0" y="22" width="24" height="2" fill="#ff0000" opacity="0.2"/>
<rect x="0" y="0" width="24" height="2" fill="#0000ff" opacity="0.2"/>
</g>
<g id="layer-grid" class="layer ">
<line x1="0" y1="0" x2="0" y2="24" class="grid-line"/>
<line x1="0.5" y1="0" x2="0.5" y2="24" class="grid-line"/>
<line x1="1" y1="0" x2="1" y2="24" class="grid-line"/>
<line x1="1.5" y1="0" x2="1.5" y2="24" class="grid-line"/>
<line x1="2" y1="0" x2="2" y2="24" class="grid-line"/>
<line x1="2.5" y1="0" x2="2.5" y2="24" class="grid-line"/>
<line x1="3" y1="0" x2="3" y2="24" class="grid-line"/>
<line x1="3.5" y1="0" x2="3.5" y2="24" class="grid-line"/>
<line x1="4" y1="0" x2="4" y2="24" class="grid-line"/>
<line x1="4.5" y1="0" x2="4.5" y2="24" class="grid-line"/>
<line x1="5" y1="0" x2="5" y2="24" class="grid-line"/>
<line x1="5.5" y1="0" x2="5.5" y2="24" class="grid-line"/>
<line x1="6" y1="0" x2="6" y2="24" class="grid-line"/>
<line x1="6.5" y1="0" x2="6.5" y2="24" class="grid-line"/>
<line x1="7" y1="0" x2="7" y2="24" class="grid-line"/>
<line x1="7.5" y1="0" x2="7.5" y2="24" class="grid-line"/>
<line x1="8" y1="0" x2="8" y2="24" class="grid-line"/>
<line x1="8.5" y1="0" x2="8.5" y2="24" class="grid-line"/>
<line x1="9" y1="0" x2="9" y2="24" class="grid-line"/>
<line x1="9.5" y1="0" x2="9.5" y2="24" class="grid-line"/>
<line x1="10" y1="0" x2="10" y2="24" class="grid-line"/>
<line x1="10.5" y1="0" x2="10.5" y2="24" class="grid-line"/>
<line x1="11" y1="0" x2="11" y2="24" class="grid-line"/>
<line x1="11.5" y1="0" x2="11.5" y2="24" class="grid-line"/>
<line x1="12" y1="0" x2="12" y2="24" class="grid-line"/>
<line x1="12.5" y1="0" x2="12.5" y2="24" class="grid-line"/>
<line x1="13" y1="0" x2="13" y2="24" class="grid-line"/>
<line x1="13.5" y1="0" x2="13.5" y2="24" class="grid-line"/>
<line x1="14" y1="0" x2="14" y2="24" class="grid-line"/>
<line x1="14.5" y1="0" x2="14.5" y2="24" class="grid-line"/>
<line x1="15" y1="0" x2="15" y2="24" class="grid-line"/>
<line x1="15.5" y1="0" x2="15.5" y2="24" class="grid-line"/>
<line x1="16" y1="0" x2="16" y2="24" class="grid-line"/>
<line x1="16.5" y1="0" x2="16.5" y2="24" class="grid-line"/>
<line x1="17" y1="0" x2="17" y2="24" class="grid-line"/>
<line x1="17.5" y1="0" x2="17.5" y2="24" class="grid-line"/>
<line x1="18" y1="0" x2="18" y2="24" class="grid-line"/>
<line x1="18.5" y1="0" x2="18.5" y2="24" class="grid-line"/>
<line x1="19" y1="0" x2="19" y2="24" class="grid-line"/>
<line x1="19.5" y1="0" x2="19.5" y2="24" class="grid-line"/>
<line x1="20" y1="0" x2="20" y2="24" class="grid-line"/>
<line x1="20.5" y1="0" x2="20.5" y2="24" class="grid-line"/>
<line x1="21" y1="0" x2="21" y2="24" class="grid-line"/>
<line x1="21.5" y1="0" x2="21.5" y2="24" class="grid-line"/>
<line x1="22" y1="0" x2="22" y2="24" class="grid-line"/>
<line x1="22.5" y1="0" x2="22.5" y2="24" class="grid-line"/>
<line x1="23" y1="0" x2="23" y2="24" class="grid-line"/>
<line x1="23.5" y1="0" x2="23.5" y2="24" class="grid-line"/>
<line x1="24" y1="0" x2="24" y2="24" class="grid-line"/>
<line x1="0" y1="0" x2="24" y2="0" class="grid-line"/>
<line x1="0" y1="0.5" x2="24" y2="0.5" class="grid-line"/>
<line x1="0" y1="1" x2="24" y2="1" class="grid-line"/>
<line x1="0" y1="1.5" x2="24" y2="1.5" class="grid-line"/>
<line x1="0" y1="2" x2="24" y2="2" class="grid-line"/>
<line x1="0" y1="2.5" x2="24" y2="2.5" class="grid-line"/>
<line x1="0" y1="3" x2="24" y2="3" class="grid-line"/>
<line x1="0" y1="3.5" x2="24" y2="3.5" class="grid-line"/>
<line x1="0" y1="4" x2="24" y2="4" class="grid-line"/>
<line x1="0" y1="4.5" x2="24" y2="4.5" class="grid-line"/>
<line x1="0" y1="5" x2="24" y2="5" class="grid-line"/>
<line x1="0" y1="5.5" x2="24" y2="5.5" class="grid-line"/>
<line x1="0" y1="6" x2="24" y2="6" class="grid-line"/>
<line x1="0" y1="6.5" x2="24" y2="6.5" class="grid-line"/>
<line x1="0" y1="7" x2="24" y2="7" class="grid-line"/>
<line x1="0" y1="7.5" x2="24" y2="7.5" class="grid-line"/>
<line x1="0" y1="8" x2="24" y2="8" class="grid-line"/>
<line x1="0" y1="8.5" x2="24" y2="8.5" class="grid-line"/>
<line x1="0" y1="9" x2="24" y2="9" class="grid-line"/>
<line x1="0" y1="9.5" x2="24" y2="9.5" class="grid-line"/>
<line x1="0" y1="10" x2="24" y2="10" class="grid-line"/>
<line x1="0" y1="10.5" x2="24" y2="10.5" class="grid-line"/>
<line x1="0" y1="11" x2="24" y2="11" class="grid-line"/>
<line x1="0" y1="11.5" x2="24" y2="11.5" class="grid-line"/>
<line x1="0" y1="12" x2="24" y2="12" class="grid-line"/>
<line x1="0" y1="12.5" x2="24" y2="12.5" class="grid-line"/>
<line x1="0" y1="13" x2="24" y2="13" class="grid-line"/>
<line x1="0" y1="13.5" x2="24" y2="13.5" class="grid-line"/>
<line x1="0" y1="14" x2="24" y2="14" class="grid-line"/>
<line x1="0" y1="14.5" x2="24" y2="14.5" class="grid-line"/>
<line x1="0" y1="15" x2="24" y2="15" class="grid-line"/>
<line x1="0" y1="15.5" x2="24" y2="15.5" class="grid-line"/>
<line x1="0" y1="16" x2="24" y2="16" class="grid-line"/>
<line x1="0" y1="16.5" x2="24" y2="16.5" class="grid-line"/>
<line x1="0" y1="17" x2="24" y2="17" class="grid-line"/>
<line x1="0" y1="17.5" x2="24" y2="17.5" class="grid-line"/>
<line x1="0" y1="18" x2="24" y2="18" class="grid-line"/>
<line x1="0" y1="18.5" x2="24" y2="18.5" class="grid-line"/>
<line x1="0" y1="19" x2="24" y2="19" class="grid-line"/>
<line x1="0" y1="19.5" x2="24" y2="19.5" class="grid-line"/>
<line x1="0" y1="20" x2="24" y2="20" class="grid-line"/>
<line x1="0" y1="20.5" x2="24" y2="20.5" class="grid-line"/>
<line x1="0" y1="21" x2="24" y2="21" class="grid-line"/>
<line x1="0" y1="21.5" x2="24" y2="21.5" class="grid-line"/>
<line x1="0" y1="22" x2="24" y2="22" class="grid-line"/>
<line x1="0" y1="22.5" x2="24" y2="22.5" class="grid-line"/>
<line x1="0" y1="23" x2="24" y2="23" class="grid-line"/>
<line x1="0" y1="23.5" x2="24" y2="23.5" class="grid-line"/>
<line x1="0" y1="24" x2="24" y2="24" class="grid-line"/>
</g>
<g id="layer-delaunay" class="layer ">
<line x1="14.250000000000002" y1="16.066987298107783" x2="14.62940952255126" y2="16.017037086855467" class="delaunay-line"/>
<line x1="14.62940952255126" y1="16.017037086855467" x2="14.434736903889974" y2="16.004277569313096" class="delaunay-line"/>
<line x1="14.434736903889974" y1="16.004277569313096" x2="14.250000000000002" y2="16.066987298107783" class="delaunay-line"/>
<line x1="14.933012701892219" y1="16.25" x2="14.804380714504362" y2="16.103323329854383" class="delaunay-line"/>
<line x1="14.804380714504362" y1="16.103323329854383" x2="14.62940952255126" y2="16.017037086855467" class="delaunay-line"/>
<line x1="14.62940952255126" y1="16.017037086855467" x2="14.933012701892219" y2="16.25" class="delaunay-line"/>
<line x1="14.250000000000002" y1="16.066987298107783" x2="14.933012701892219" y2="16.25" class="delaunay-line"/>
<line x1="14.933012701892219" y1="16.25" x2="14.62940952255126" y2="16.017037086855467" class="delaunay-line"/>
<line x1="14.62940952255126" y1="16.017037086855467" x2="14.250000000000002" y2="16.066987298107783" class="delaunay-line"/>
<line x1="14.982962913144535" y1="16.62940952255126" x2="14.995722430686905" y2="16.434736903889974" class="delaunay-line"/>
<line x1="14.995722430686905" y1="16.434736903889974" x2="14.896676670145618" y2="16.804380714504358" class="delaunay-line"/>
<line x1="14.896676670145618" y1="16.804380714504358" x2="14.982962913144535" y2="16.62940952255126" class="delaunay-line"/>
<line x1="14.995722430686905" y1="16.434736903889974" x2="14.749999999999998" y2="16.933012701892217" class="delaunay-line"/>
<line x1="14.749999999999998" y1="16.933012701892217" x2="14.896676670145618" y2="16.804380714504358" class="delaunay-line"/>
<line x1="14.896676670145618" y1="16.804380714504358" x2="14.995722430686905" y2="16.434736903889974" class="delaunay-line"/>
<line x1="14.103323329854382" y1="16.195619285495642" x2="14.004277569313095" y2="16.565263096110026" class="delaunay-line"/>
<line x1="14.004277569313095" y1="16.565263096110026" x2="14.250000000000002" y2="16.066987298107783" class="delaunay-line"/>
<line x1="14.250000000000002" y1="16.066987298107783" x2="14.103323329854382" y2="16.195619285495642" class="delaunay-line"/>
<line x1="14.995722430686905" y1="16.434736903889974" x2="14.933012701892219" y2="16.25" class="delaunay-line"/>
<line x1="14.933012701892219" y1="16.25" x2="14.749999999999998" y2="16.933012701892217" class="delaunay-line"/>
<line x1="14.749999999999998" y1="16.933012701892217" x2="14.995722430686905" y2="16.434736903889974" class="delaunay-line"/>
<line x1="14.017037086855465" y1="16.37059047744874" x2="14.004277569313095" y2="16.565263096110026" class="delaunay-line"/>
<line x1="14.004277569313095" y1="16.565263096110026" x2="14.103323329854382" y2="16.195619285495642" class="delaunay-line"/>
<line x1="14.103323329854382" y1="16.195619285495642" x2="14.017037086855465" y2="16.37059047744874" class="delaunay-line"/>
<line x1="14.749999999999998" y1="16.933012701892217" x2="14.933012701892219" y2="16.25" class="delaunay-line"/>
<line x1="14.933012701892219" y1="16.25" x2="14.250000000000002" y2="16.066987298107783" class="delaunay-line"/>
<line x1="14.250000000000002" y1="16.066987298107783" x2="14.749999999999998" y2="16.933012701892217" class="delaunay-line"/>
<line x1="14.066987298107781" y1="16.75" x2="14.749999999999998" y2="16.933012701892217" class="delaunay-line"/>
<line x1="14.749999999999998" y1="16.933012701892217" x2="14.250000000000002" y2="16.066987298107783" class="delaunay-line"/>
<line x1="14.250000000000002" y1="16.066987298107783" x2="14.066987298107781" y2="16.75" class="delaunay-line"/>
<line x1="14.004277569313095" y1="16.565263096110026" x2="14.066987298107781" y2="16.75" class="delaunay-line"/>
<line x1="14.066987298107781" y1="16.75" x2="14.250000000000002" y2="16.066987298107783" class="delaunay-line"/>
<line x1="14.250000000000002" y1="16.066987298107783" x2="14.004277569313095" y2="16.565263096110026" class="delaunay-line"/>
<line x1="14.37059047744874" y1="16.982962913144533" x2="14.565263096110026" y2="16.995722430686904" class="delaunay-line"/>
<line x1="14.565263096110026" y1="16.995722430686904" x2="14.749999999999998" y2="16.933012701892217" class="delaunay-line"/>
<line x1="14.749999999999998" y1="16.933012701892217" x2="14.37059047744874" y2="16.982962913144533" class="delaunay-line"/>
<line x1="14.066987298107781" y1="16.75" x2="14.37059047744874" y2="16.982962913144533" class="delaunay-line"/>
<line x1="14.37059047744874" y1="16.982962913144533" x2="14.749999999999998" y2="16.933012701892217" class="delaunay-line"/>
<line x1="14.749999999999998" y1="16.933012701892217" x2="14.066987298107781" y2="16.75" class="delaunay-line"/>
<line x1="14.195619285495638" y1="16.896676670145617" x2="14.37059047744874" y2="16.982962913144533" class="delaunay-line"/>
<line x1="14.37059047744874" y1="16.982962913144533" x2="14.066987298107781" y2="16.75" class="delaunay-line"/>
<line x1="14.066987298107781" y1="16.75" x2="14.195619285495638" y2="16.896676670145617" class="delaunay-line"/>
<line x1="14.982962913144535" y1="16.62940952255126" x2="17.64761698865778" y2="14.524962614277667" class="delaunay-line"/>
<line x1="17.64761698865778" y1="14.524962614277667" x2="14.995722430686905" y2="16.434736903889974" class="delaunay-line"/>
<line x1="14.995722430686905" y1="16.434736903889974" x2="14.982962913144535" y2="16.62940952255126" class="delaunay-line"/>
<line x1="14.995722430686905" y1="16.434736903889974" x2="17.64761698865778" y2="14.524962614277667" class="delaunay-line"/>
<line x1="17.64761698865778" y1="14.524962614277667" x2="14.933012701892219" y2="16.25" class="delaunay-line"/>
<line x1="14.933012701892219" y1="16.25" x2="14.995722430686905" y2="16.434736903889974" class="delaunay-line"/>
<line x1="14.933012701892219" y1="16.25" x2="17.64761698865778" y2="14.524962614277667" class="delaunay-line"/>
<line x1="17.64761698865778" y1="14.524962614277667" x2="14.804380714504362" y2="16.103323329854383" class="delaunay-line"/>
<line x1="14.804380714504362" y1="16.103323329854383" x2="14.933012701892219" y2="16.25" class="delaunay-line"/>
<line x1="14.804380714504362" y1="16.103323329854383" x2="17.64761698865778" y2="14.524962614277667" class="delaunay-line"/>
<line x1="17.64761698865778" y1="14.524962614277667" x2="14.62940952255126" y2="16.017037086855467" class="delaunay-line"/>
<line x1="14.62940952255126" y1="16.017037086855467" x2="14.804380714504362" y2="16.103323329854383" class="delaunay-line"/>
<line x1="14.62940952255126" y1="16.017037086855467" x2="16.6123408082477" y2="10.661259309121393" class="delaunay-line"/>
<line x1="16.6123408082477" y1="10.661259309121393" x2="14.434736903889974" y2="16.004277569313096" class="delaunay-line"/>
<line x1="14.434736903889974" y1="16.004277569313096" x2="14.62940952255126" y2="16.017037086855467" class="delaunay-line"/>
<line x1="14.434736903889974" y1="16.004277569313096" x2="16.6123408082477" y2="10.661259309121393" class="delaunay-line"/>
<line x1="16.6123408082477" y1="10.661259309121393" x2="14.250000000000002" y2="16.066987298107783" class="delaunay-line"/>
<line x1="14.250000000000002" y1="16.066987298107783" x2="14.434736903889974" y2="16.004277569313096" class="delaunay-line"/>
<line x1="14.896676670145618" y1="16.804380714504358" x2="17.64761698865778" y2="14.524962614277667" class="delaunay-line"/>
<line x1="17.64761698865778" y1="14.524962614277667" x2="14.982962913144535" y2="16.62940952255126" class="delaunay-line"/>
<line x1="14.982962913144535" y1="16.62940952255126" x2="14.896676670145618" y2="16.804380714504358" class="delaunay-line"/>
<line x1="23.44317194639219" y1="12.972048343662545" x2="17.64761698865778" y2="14.524962614277667" class="delaunay-line"/>
<line x1="17.64761698865778" y1="14.524962614277667" x2="24" y2="24" class="delaunay-line"/>
<line x1="24" y1="24" x2="23.44317194639219" y2="12.972048343662545" class="delaunay-line"/>
<line x1="17.64761698865778" y1="14.524962614277667" x2="16.6123408082477" y2="10.661259309121393" class="delaunay-line"/>
<line x1="16.6123408082477" y1="10.661259309121393" x2="14.62940952255126" y2="16.017037086855467" class="delaunay-line"/>
<line x1="14.62940952255126" y1="16.017037086855467" x2="17.64761698865778" y2="14.524962614277667" class="delaunay-line"/>
<line x1="7.965925826289068" y1="15.741180954897478" x2="14.017037086855465" y2="16.37059047744874" class="delaunay-line"/>
<line x1="14.017037086855465" y1="16.37059047744874" x2="14.103323329854382" y2="16.195619285495642" class="delaunay-line"/>
<line x1="14.103323329854382" y1="16.195619285495642" x2="7.965925826289068" y2="15.741180954897478" class="delaunay-line"/>
<line x1="7.965925826289068" y1="15.741180954897478" x2="7.991444861373811" y2="16.13052619222005" class="delaunay-line"/>
<line x1="7.991444861373811" y1="16.13052619222005" x2="14.017037086855465" y2="16.37059047744874" class="delaunay-line"/>
<line x1="14.017037086855465" y1="16.37059047744874" x2="7.965925826289068" y2="15.741180954897478" class="delaunay-line"/>
<line x1="7.965925826289068" y1="15.741180954897478" x2="14.103323329854382" y2="16.195619285495642" class="delaunay-line"/>
<line x1="14.103323329854382" y1="16.195619285495642" x2="7.793353340291235" y2="15.391238570991277" class="delaunay-line"/>
<line x1="7.793353340291235" y1="15.391238570991277" x2="7.965925826289068" y2="15.741180954897478" class="delaunay-line"/>
<line x1="14.017037086855465" y1="16.37059047744874" x2="7.991444861373811" y2="16.13052619222005" class="delaunay-line"/>
<line x1="7.991444861373811" y1="16.13052619222005" x2="14.004277569313095" y2="16.565263096110026" class="delaunay-line"/>
<line x1="14.004277569313095" y1="16.565263096110026" x2="14.017037086855465" y2="16.37059047744874" class="delaunay-line"/>
<line x1="14.004277569313095" y1="16.565263096110026" x2="7.866025403784439" y2="16.5" class="delaunay-line"/>
<line x1="7.866025403784439" y1="16.5" x2="14.066987298107781" y2="16.75" class="delaunay-line"/>
<line x1="14.066987298107781" y1="16.75" x2="14.004277569313095" y2="16.565263096110026" class="delaunay-line"/>
<line x1="14.066987298107781" y1="16.75" x2="7.608761429008721" y2="16.793353340291233" class="delaunay-line"/>
<line x1="7.608761429008721" y1="16.793353340291233" x2="14.195619285495638" y2="16.896676670145617" class="delaunay-line"/>
<line x1="14.195619285495638" y1="16.896676670145617" x2="14.066987298107781" y2="16.75" class="delaunay-line"/>
<line x1="14.195619285495638" y1="16.896676670145617" x2="6.109495827765984" y2="18.550838778855905" class="delaunay-line"/>
<line x1="6.109495827765984" y1="18.550838778855905" x2="14.37059047744874" y2="16.982962913144533" class="delaunay-line"/>
<line x1="14.37059047744874" y1="16.982962913144533" x2="14.195619285495638" y2="16.896676670145617" class="delaunay-line"/>
<line x1="7.793353340291235" y1="15.391238570991277" x2="14.103323329854382" y2="16.195619285495642" class="delaunay-line"/>
<line x1="14.103323329854382" y1="16.195619285495642" x2="14.250000000000002" y2="16.066987298107783" class="delaunay-line"/>
<line x1="14.250000000000002" y1="16.066987298107783" x2="7.793353340291235" y2="15.391238570991277" class="delaunay-line"/>
<line x1="7.608761429008721" y1="16.793353340291233" x2="7.866025403784439" y2="16.5" class="delaunay-line"/>
<line x1="7.866025403784439" y1="16.5" x2="7.991444861373811" y2="16.13052619222005" class="delaunay-line"/>
<line x1="7.991444861373811" y1="16.13052619222005" x2="7.608761429008721" y2="16.793353340291233" class="delaunay-line"/>
<line x1="7.991444861373811" y1="16.13052619222005" x2="7.866025403784439" y2="16.5" class="delaunay-line"/>
<line x1="7.866025403784439" y1="16.5" x2="14.004277569313095" y2="16.565263096110026" class="delaunay-line"/>
<line x1="14.004277569313095" y1="16.565263096110026" x2="7.991444861373811" y2="16.13052619222005" class="delaunay-line"/>
<line x1="16.6123408082477" y1="10.661259309121393" x2="7.793353340291235" y2="15.391238570991277" class="delaunay-line"/>
<line x1="7.793353340291235" y1="15.391238570991277" x2="14.250000000000002" y2="16.066987298107783" class="delaunay-line"/>
<line x1="14.250000000000002" y1="16.066987298107783" x2="16.6123408082477" y2="10.661259309121393" class="delaunay-line"/>
<line x1="7.965925826289068" y1="15.741180954897478" x2="7.608761429008721" y2="16.793353340291233" class="delaunay-line"/>
<line x1="7.608761429008721" y1="16.793353340291233" x2="7.991444861373811" y2="16.13052619222005" class="delaunay-line"/>
<line x1="7.991444861373811" y1="16.13052619222005" x2="7.965925826289068" y2="15.741180954897478" class="delaunay-line"/>
<line x1="6.869473807779948" y1="16.991444861373807" x2="7.608761429008721" y2="16.793353340291233" class="delaunay-line"/>
<line x1="7.608761429008721" y1="16.793353340291233" x2="7.965925826289068" y2="15.741180954897478" class="delaunay-line"/>
<line x1="7.965925826289068" y1="15.741180954897478" x2="6.869473807779948" y2="16.991444861373807" class="delaunay-line"/>
<line x1="7.866025403784439" y1="16.5" x2="7.608761429008721" y2="16.793353340291233" class="delaunay-line"/>
<line x1="7.608761429008721" y1="16.793353340291233" x2="14.066987298107781" y2="16.75" class="delaunay-line"/>
<line x1="14.066987298107781" y1="16.75" x2="7.866025403784439" y2="16.5" class="delaunay-line"/>
<line x1="14.37059047744874" y1="16.982962913144533" x2="24" y2="24" class="delaunay-line"/>
<line x1="24" y1="24" x2="14.565263096110026" y2="16.995722430686904" class="delaunay-line"/>
<line x1="14.565263096110026" y1="16.995722430686904" x2="14.37059047744874" y2="16.982962913144533" class="delaunay-line"/>
<line x1="17.64761698865778" y1="14.524962614277667" x2="19.099876884532563" y2="11.050838778855905" class="delaunay-line"/>
<line x1="19.099876884532563" y1="11.050838778855905" x2="16.6123408082477" y2="10.661259309121393" class="delaunay-line"/>
<line x1="16.6123408082477" y1="10.661259309121393" x2="17.64761698865778" y2="14.524962614277667" class="delaunay-line"/>
<line x1="8.75" y1="6.93301270189222" x2="7.500000000000001" y2="15.133974596215563" class="delaunay-line"/>
<line x1="7.500000000000001" y1="15.133974596215563" x2="7.793353340291235" y2="15.391238570991277" class="delaunay-line"/>
<line x1="7.793353340291235" y1="15.391238570991277" x2="8.75" y2="6.93301270189222" class="delaunay-line"/>
<line x1="7.793353340291235" y1="15.391238570991277" x2="7.500000000000001" y2="15.133974596215563" class="delaunay-line"/>
<line x1="7.500000000000001" y1="15.133974596215563" x2="7.965925826289068" y2="15.741180954897478" class="delaunay-line"/>
<line x1="7.965925826289068" y1="15.741180954897478" x2="7.793353340291235" y2="15.391238570991277" class="delaunay-line"/>
<line x1="6.869473807779948" y1="16.991444861373807" x2="7.258819045102521" y2="16.96592582628907" class="delaunay-line"/>
<line x1="7.258819045102521" y1="16.96592582628907" x2="7.608761429008721" y2="16.793353340291233" class="delaunay-line"/>
<line x1="7.608761429008721" y1="16.793353340291233" x2="6.869473807779948" y2="16.991444861373807" class="delaunay-line"/>
<line x1="7.608761429008721" y1="16.793353340291233" x2="6.109495827765984" y2="18.550838778855905" class="delaunay-line"/>
<line x1="6.109495827765984" y1="18.550838778855905" x2="14.195619285495638" y2="16.896676670145617" class="delaunay-line"/>
<line x1="14.195619285495638" y1="16.896676670145617" x2="7.608761429008721" y2="16.793353340291233" class="delaunay-line"/>
<line x1="8.565263096110025" y1="6.9957224306869055" x2="7.130526192220052" y2="15.00855513862619" class="delaunay-line"/>
<line x1="7.130526192220052" y1="15.00855513862619" x2="7.500000000000001" y2="15.133974596215563" class="delaunay-line"/>
<line x1="7.500000000000001" y1="15.133974596215563" x2="8.565263096110025" y2="6.9957224306869055" class="delaunay-line"/>
<line x1="7.500000000000001" y1="15.133974596215563" x2="7.130526192220052" y2="15.00855513862619" class="delaunay-line"/>
<line x1="7.130526192220052" y1="15.00855513862619" x2="7.965925826289068" y2="15.741180954897478" class="delaunay-line"/>
<line x1="7.965925826289068" y1="15.741180954897478" x2="7.500000000000001" y2="15.133974596215563" class="delaunay-line"/>
<line x1="7.130526192220052" y1="15.00855513862619" x2="6.869473807779948" y2="16.991444861373807" class="delaunay-line"/>
<line x1="6.869473807779948" y1="16.991444861373807" x2="7.965925826289068" y2="15.741180954897478" class="delaunay-line"/>
<line x1="7.965925826289068" y1="15.741180954897478" x2="7.130526192220052" y2="15.00855513862619" class="delaunay-line"/>
<line x1="7.258819045102521" y1="16.96592582628907" x2="6.109495827765984" y2="18.550838778855905" class="delaunay-line"/>
<line x1="6.109495827765984" y1="18.550838778855905" x2="7.608761429008721" y2="16.793353340291233" class="delaunay-line"/>
<line x1="7.608761429008721" y1="16.793353340291233" x2="7.258819045102521" y2="16.96592582628907" class="delaunay-line"/>
<line x1="3.260398644698074" y1="13.031195934094221" x2="6.741180954897479" y2="15.034074173710932" class="delaunay-line"/>
<line x1="6.741180954897479" y1="15.034074173710932" x2="7.130526192220052" y2="15.00855513862619" class="delaunay-line"/>
<line x1="7.130526192220052" y1="15.00855513862619" x2="3.260398644698074" y2="13.031195934094221" class="delaunay-line"/>
<line x1="7.130526192220052" y1="15.00855513862619" x2="6.133974596215562" y2="15.500000000000002" class="delaunay-line"/>
<line x1="6.133974596215562" y1="15.500000000000002" x2="6.869473807779948" y2="16.991444861373807" class="delaunay-line"/>
<line x1="6.869473807779948" y1="16.991444861373807" x2="7.130526192220052" y2="15.00855513862619" class="delaunay-line"/>
<line x1="6.206646659708766" y1="16.60876142900872" x2="6.500000000000001" y2="16.86602540378444" class="delaunay-line"/>
<line x1="6.500000000000001" y1="16.86602540378444" x2="6.869473807779948" y2="16.991444861373807" class="delaunay-line"/>
<line x1="6.869473807779948" y1="16.991444861373807" x2="6.206646659708766" y2="16.60876142900872" class="delaunay-line"/>
<line x1="6.741180954897479" y1="15.034074173710932" x2="6.133974596215562" y2="15.500000000000002" class="delaunay-line"/>
<line x1="6.133974596215562" y1="15.500000000000002" x2="7.130526192220052" y2="15.00855513862619" class="delaunay-line"/>
<line x1="7.130526192220052" y1="15.00855513862619" x2="6.741180954897479" y2="15.034074173710932" class="delaunay-line"/>
<line x1="6.133974596215562" y1="15.500000000000002" x2="6.206646659708766" y2="16.60876142900872" class="delaunay-line"/>
<line x1="6.206646659708766" y1="16.60876142900872" x2="6.869473807779948" y2="16.991444861373807" class="delaunay-line"/>
<line x1="6.869473807779948" y1="16.991444861373807" x2="6.133974596215562" y2="15.500000000000002" class="delaunay-line"/>
<line x1="6.39123857099128" y1="15.206646659708765" x2="6.133974596215562" y2="15.500000000000002" class="delaunay-line"/>
<line x1="6.133974596215562" y1="15.500000000000002" x2="6.741180954897479" y2="15.034074173710932" class="delaunay-line"/>
<line x1="6.741180954897479" y1="15.034074173710932" x2="6.39123857099128" y2="15.206646659708765" class="delaunay-line"/>
<line x1="6.133974596215562" y1="15.500000000000002" x2="6.034074173710932" y2="16.25881904510252" class="delaunay-line"/>
<line x1="6.034074173710932" y1="16.25881904510252" x2="6.206646659708766" y2="16.60876142900872" class="delaunay-line"/>
<line x1="6.206646659708766" y1="16.60876142900872" x2="6.133974596215562" y2="15.500000000000002" class="delaunay-line"/>
<line x1="6.133974596215562" y1="15.500000000000002" x2="6.008555138626189" y2="15.869473807779947" class="delaunay-line"/>
<line x1="6.008555138626189" y1="15.869473807779947" x2="6.034074173710932" y2="16.25881904510252" class="delaunay-line"/>
<line x1="6.034074173710932" y1="16.25881904510252" x2="6.133974596215562" y2="15.500000000000002" class="delaunay-line"/>
<line x1="6.034074173710932" y1="16.25881904510252" x2="6.109495827765984" y2="18.550838778855905" class="delaunay-line"/>
<line x1="6.109495827765984" y1="18.550838778855905" x2="6.206646659708766" y2="16.60876142900872" class="delaunay-line"/>
<line x1="6.206646659708766" y1="16.60876142900872" x2="6.034074173710932" y2="16.25881904510252" class="delaunay-line"/>
<line x1="6.206646659708766" y1="16.60876142900872" x2="6.109495827765984" y2="18.550838778855905" class="delaunay-line"/>
<line x1="6.109495827765984" y1="18.550838778855905" x2="6.500000000000001" y2="16.86602540378444" class="delaunay-line"/>
<line x1="6.500000000000001" y1="16.86602540378444" x2="6.206646659708766" y2="16.60876142900872" class="delaunay-line"/>
<line x1="6.500000000000001" y1="16.86602540378444" x2="6.109495827765984" y2="18.550838778855905" class="delaunay-line"/>
<line x1="6.109495827765984" y1="18.550838778855905" x2="6.869473807779948" y2="16.991444861373807" class="delaunay-line"/>
<line x1="6.869473807779948" y1="16.991444861373807" x2="6.500000000000001" y2="16.86602540378444" class="delaunay-line"/>
<line x1="6.869473807779948" y1="16.991444861373807" x2="6.109495827765984" y2="18.550838778855905" class="delaunay-line"/>
<line x1="6.109495827765984" y1="18.550838778855905" x2="7.258819045102521" y2="16.96592582628907" class="delaunay-line"/>
<line x1="7.258819045102521" y1="16.96592582628907" x2="6.869473807779948" y2="16.991444861373807" class="delaunay-line"/>
<line x1="0.9829629131445337" y1="16.62940952255126" x2="6.109495827765984" y2="18.550838778855905" class="delaunay-line"/>
<line x1="6.109495827765984" y1="18.550838778855905" x2="6.034074173710932" y2="16.25881904510252" class="delaunay-line"/>
<line x1="6.034074173710932" y1="16.25881904510252" x2="0.9829629131445337" y2="16.62940952255126" class="delaunay-line"/>
<line x1="14.75" y1="6.93301270189222" x2="14.565263096110025" y2="6.995722430686905" class="delaunay-line"/>
<line x1="14.565263096110025" y1="6.995722430686905" x2="16.6123408082477" y2="10.661259309121393" class="delaunay-line"/>
<line x1="16.6123408082477" y1="10.661259309121393" x2="14.75" y2="6.93301270189222" class="delaunay-line"/>
<line x1="16.6123408082477" y1="10.661259309121393" x2="8.75" y2="6.93301270189222" class="delaunay-line"/>
<line x1="8.75" y1="6.93301270189222" x2="7.793353340291235" y2="15.391238570991277" class="delaunay-line"/>
<line x1="7.793353340291235" y1="15.391238570991277" x2="16.6123408082477" y2="10.661259309121393" class="delaunay-line"/>
<line x1="6.741180954897479" y1="15.034074173710932" x2="3.260398644698074" y2="13.031195934094221" class="delaunay-line"/>
<line x1="3.260398644698074" y1="13.031195934094221" x2="6.39123857099128" y2="15.206646659708765" class="delaunay-line"/>
<line x1="6.39123857099128" y1="15.206646659708765" x2="6.741180954897479" y2="15.034074173710932" class="delaunay-line"/>
<line x1="14.565263096110025" y1="6.995722430686905" x2="14.37059047744874" y2="6.982962913144534" class="delaunay-line"/>
<line x1="14.37059047744874" y1="6.982962913144534" x2="16.6123408082477" y2="10.661259309121393" class="delaunay-line"/>
<line x1="16.6123408082477" y1="10.661259309121393" x2="14.565263096110025" y2="6.995722430686905" class="delaunay-line"/>
<line x1="14.896676670145617" y1="6.8043807145043615" x2="14.75" y2="6.93301270189222" class="delaunay-line"/>
<line x1="14.75" y1="6.93301270189222" x2="16.6123408082477" y2="10.661259309121393" class="delaunay-line"/>
<line x1="16.6123408082477" y1="10.661259309121393" x2="14.896676670145617" y2="6.8043807145043615" class="delaunay-line"/>
<line x1="14.565263096110025" y1="6.995722430686905" x2="14.19561928549564" y2="6.8966766701456175" class="delaunay-line"/>
<line x1="14.19561928549564" y1="6.8966766701456175" x2="14.37059047744874" y2="6.982962913144534" class="delaunay-line"/>
<line x1="14.37059047744874" y1="6.982962913144534" x2="14.565263096110025" y2="6.995722430686905" class="delaunay-line"/>
<line x1="14.004277569313096" y1="6.5652630961100265" x2="14.19561928549564" y2="6.8966766701456175" class="delaunay-line"/>
<line x1="14.19561928549564" y1="6.8966766701456175" x2="14.565263096110025" y2="6.995722430686905" class="delaunay-line"/>
<line x1="14.565263096110025" y1="6.995722430686905" x2="14.004277569313096" y2="6.5652630961100265" class="delaunay-line"/>
<line x1="14.37059047744874" y1="6.982962913144534" x2="14.19561928549564" y2="6.8966766701456175" class="delaunay-line"/>
<line x1="14.19561928549564" y1="6.8966766701456175" x2="16.6123408082477" y2="10.661259309121393" class="delaunay-line"/>
<line x1="16.6123408082477" y1="10.661259309121393" x2="14.37059047744874" y2="6.982962913144534" class="delaunay-line"/>
<line x1="24" y1="24" x2="17.64761698865778" y2="14.524962614277667" class="delaunay-line"/>
<line x1="17.64761698865778" y1="14.524962614277667" x2="14.896676670145618" y2="16.804380714504358" class="delaunay-line"/>
<line x1="14.896676670145618" y1="16.804380714504358" x2="24" y2="24" class="delaunay-line"/>
<line x1="17.64761698865778" y1="14.524962614277667" x2="23.44317194639219" y2="12.972048343662545" class="delaunay-line"/>
<line x1="23.44317194639219" y1="12.972048343662545" x2="19.099876884532563" y2="11.050838778855905" class="delaunay-line"/>
<line x1="19.099876884532563" y1="11.050838778855905" x2="17.64761698865778" y2="14.524962614277667" class="delaunay-line"/>
<line x1="14.982962913144535" y1="6.629409522551261" x2="14.896676670145617" y2="6.8043807145043615" class="delaunay-line"/>
<line x1="14.896676670145617" y1="6.8043807145043615" x2="16.6123408082477" y2="10.661259309121393" class="delaunay-line"/>
<line x1="16.6123408082477" y1="10.661259309121393" x2="14.982962913144535" y2="6.629409522551261" class="delaunay-line"/>
<line x1="14.982962913144535" y1="6.629409522551261" x2="16.6123408082477" y2="10.661259309121393" class="delaunay-line"/>
<line x1="16.6123408082477" y1="10.661259309121393" x2="19.099876884532563" y2="11.050838778855905" class="delaunay-line"/>
<line x1="19.099876884532563" y1="11.050838778855905" x2="14.982962913144535" y2="6.629409522551261" class="delaunay-line"/>
<line x1="14.75" y1="6.93301270189222" x2="14.896676670145617" y2="6.8043807145043615" class="delaunay-line"/>
<line x1="14.896676670145617" y1="6.8043807145043615" x2="14.565263096110025" y2="6.995722430686905" class="delaunay-line"/>
<line x1="14.565263096110025" y1="6.995722430686905" x2="14.75" y2="6.93301270189222" class="delaunay-line"/>
<line x1="14.004277569313096" y1="6.5652630961100265" x2="14.06698729810778" y2="6.749999999999999" class="delaunay-line"/>
<line x1="14.06698729810778" y1="6.749999999999999" x2="14.19561928549564" y2="6.8966766701456175" class="delaunay-line"/>
<line x1="14.19561928549564" y1="6.8966766701456175" x2="14.004277569313096" y2="6.5652630961100265" class="delaunay-line"/>
<line x1="14.19561928549564" y1="6.8966766701456175" x2="8.75" y2="6.93301270189222" class="delaunay-line"/>
<line x1="8.75" y1="6.93301270189222" x2="16.6123408082477" y2="10.661259309121393" class="delaunay-line"/>
<line x1="16.6123408082477" y1="10.661259309121393" x2="14.19561928549564" y2="6.8966766701456175" class="delaunay-line"/>
<line x1="14.995722430686904" y1="6.4347369038899735" x2="14.982962913144535" y2="6.629409522551261" class="delaunay-line"/>
<line x1="14.982962913144535" y1="6.629409522551261" x2="22.40789576598211" y2="9.10834503850627" class="delaunay-line"/>
<line x1="22.40789576598211" y1="9.10834503850627" x2="14.995722430686904" y2="6.4347369038899735" class="delaunay-line"/>
<line x1="14.995722430686904" y1="6.4347369038899735" x2="14.004277569313096" y2="6.5652630961100265" class="delaunay-line"/>
<line x1="14.004277569313096" y1="6.5652630961100265" x2="14.565263096110025" y2="6.995722430686905" class="delaunay-line"/>
<line x1="14.565263096110025" y1="6.995722430686905" x2="14.995722430686904" y2="6.4347369038899735" class="delaunay-line"/>
<line x1="14.995722430686904" y1="6.4347369038899735" x2="14.565263096110025" y2="6.995722430686905" class="delaunay-line"/>
<line x1="14.565263096110025" y1="6.995722430686905" x2="14.896676670145617" y2="6.8043807145043615" class="delaunay-line"/>
<line x1="14.896676670145617" y1="6.8043807145043615" x2="14.995722430686904" y2="6.4347369038899735" class="delaunay-line"/>
<line x1="8.896676670145618" y1="6.80438071450436" x2="8.75" y2="6.93301270189222" class="delaunay-line"/>
<line x1="8.75" y1="6.93301270189222" x2="14.19561928549564" y2="6.8966766701456175" class="delaunay-line"/>
<line x1="14.19561928549564" y1="6.8966766701456175" x2="8.896676670145618" y2="6.80438071450436" class="delaunay-line"/>
<line x1="14.93301270189222" y1="6.250000000000001" x2="14.995722430686904" y2="6.4347369038899735" class="delaunay-line"/>
<line x1="14.995722430686904" y1="6.4347369038899735" x2="22.40789576598211" y2="9.10834503850627" class="delaunay-line"/>
<line x1="22.40789576598211" y1="9.10834503850627" x2="14.93301270189222" y2="6.250000000000001" class="delaunay-line"/>
<line x1="14.982962913144535" y1="6.629409522551261" x2="14.995722430686904" y2="6.4347369038899735" class="delaunay-line"/>
<line x1="14.995722430686904" y1="6.4347369038899735" x2="14.896676670145617" y2="6.8043807145043615" class="delaunay-line"/>
<line x1="14.896676670145617" y1="6.8043807145043615" x2="14.982962913144535" y2="6.629409522551261" class="delaunay-line"/>
<line x1="14.103323329854383" y1="6.1956192854956385" x2="14.017037086855465" y2="6.370590477448739" class="delaunay-line"/>
<line x1="14.017037086855465" y1="6.370590477448739" x2="14.004277569313096" y2="6.5652630961100265" class="delaunay-line"/>
<line x1="14.004277569313096" y1="6.5652630961100265" x2="14.103323329854383" y2="6.1956192854956385" class="delaunay-line"/>
<line x1="8.896676670145618" y1="6.80438071450436" x2="14.19561928549564" y2="6.8966766701456175" class="delaunay-line"/>
<line x1="14.19561928549564" y1="6.8966766701456175" x2="14.06698729810778" y2="6.749999999999999" class="delaunay-line"/>
<line x1="14.06698729810778" y1="6.749999999999999" x2="8.896676670145618" y2="6.80438071450436" class="delaunay-line"/>
<line x1="6.39123857099128" y1="15.206646659708765" x2="3.260398644698074" y2="13.031195934094221" class="delaunay-line"/>
<line x1="3.260398644698074" y1="13.031195934094221" x2="6.133974596215562" y2="15.500000000000002" class="delaunay-line"/>
<line x1="6.133974596215562" y1="15.500000000000002" x2="6.39123857099128" y2="15.206646659708765" class="delaunay-line"/>
<line x1="22.40789576598211" y1="9.10834503850627" x2="14.982962913144535" y2="6.629409522551261" class="delaunay-line"/>
<line x1="14.982962913144535" y1="6.629409522551261" x2="19.099876884532563" y2="11.050838778855905" class="delaunay-line"/>
<line x1="19.099876884532563" y1="11.050838778855905" x2="22.40789576598211" y2="9.10834503850627" class="delaunay-line"/>
<line x1="14.434736903889975" y1="6.004277569313095" x2="14.103323329854383" y2="6.1956192854956385" class="delaunay-line"/>
<line x1="14.103323329854383" y1="6.1956192854956385" x2="14.004277569313096" y2="6.5652630961100265" class="delaunay-line"/>
<line x1="14.004277569313096" y1="6.5652630961100265" x2="14.434736903889975" y2="6.004277569313095" class="delaunay-line"/>
<line x1="14.434736903889975" y1="6.004277569313095" x2="14.004277569313096" y2="6.5652630961100265" class="delaunay-line"/>
<line x1="14.004277569313096" y1="6.5652630961100265" x2="14.995722430686904" y2="6.4347369038899735" class="delaunay-line"/>
<line x1="14.995722430686904" y1="6.4347369038899735" x2="14.434736903889975" y2="6.004277569313095" class="delaunay-line"/>
<line x1="8.896676670145618" y1="6.80438071450436" x2="14.06698729810778" y2="6.749999999999999" class="delaunay-line"/>
<line x1="14.06698729810778" y1="6.749999999999999" x2="8.982962913144533" y2="6.629409522551261" class="delaunay-line"/>
<line x1="8.982962913144533" y1="6.629409522551261" x2="8.896676670145618" y2="6.80438071450436" class="delaunay-line"/>
<line x1="13.099876884532561" y1="0.6585339334426399" x2="14.80438071450436" y2="6.1033233298543825" class="delaunay-line"/>
<line x1="14.80438071450436" y1="6.1033233298543825" x2="24" y2="0" class="delaunay-line"/>
<line x1="24" y1="0" x2="13.099876884532561" y2="0.6585339334426399" class="delaunay-line"/>
<line x1="14.93301270189222" y1="6.250000000000001" x2="14.80438071450436" y2="6.1033233298543825" class="delaunay-line"/>
<line x1="14.80438071450436" y1="6.1033233298543825" x2="14.995722430686904" y2="6.4347369038899735" class="delaunay-line"/>
<line x1="14.995722430686904" y1="6.4347369038899735" x2="14.93301270189222" y2="6.250000000000001" class="delaunay-line"/>
<line x1="14.434736903889975" y1="6.004277569313095" x2="14.25" y2="6.06698729810778" class="delaunay-line"/>
<line x1="14.25" y1="6.06698729810778" x2="14.103323329854383" y2="6.1956192854956385" class="delaunay-line"/>
<line x1="14.103323329854383" y1="6.1956192854956385" x2="14.434736903889975" y2="6.004277569313095" class="delaunay-line"/>
<line x1="14.80438071450436" y1="6.1033233298543825" x2="14.434736903889975" y2="6.004277569313095" class="delaunay-line"/>
<line x1="14.434736903889975" y1="6.004277569313095" x2="14.995722430686904" y2="6.4347369038899735" class="delaunay-line"/>
<line x1="14.995722430686904" y1="6.4347369038899735" x2="14.80438071450436" y2="6.1033233298543825" class="delaunay-line"/>
<line x1="14.62940952255126" y1="6.017037086855466" x2="14.434736903889975" y2="6.004277569313095" class="delaunay-line"/>
<line x1="14.434736903889975" y1="6.004277569313095" x2="14.80438071450436" y2="6.1033233298543825" class="delaunay-line"/>
<line x1="14.80438071450436" y1="6.1033233298543825" x2="14.62940952255126" y2="6.017037086855466" class="delaunay-line"/>
<line x1="23.44317194639219" y1="12.972048343662545" x2="22.40789576598211" y2="9.10834503850627" class="delaunay-line"/>
<line x1="22.40789576598211" y1="9.10834503850627" x2="19.099876884532563" y2="11.050838778855905" class="delaunay-line"/>
<line x1="19.099876884532563" y1="11.050838778855905" x2="23.44317194639219" y2="12.972048343662545" class="delaunay-line"/>
<line x1="14.80438071450436" y1="6.1033233298543825" x2="13.099876884532561" y2="0.6585339334426399" class="delaunay-line"/>
<line x1="13.099876884532561" y1="0.6585339334426399" x2="14.62940952255126" y2="6.017037086855466" class="delaunay-line"/>
<line x1="14.62940952255126" y1="6.017037086855466" x2="14.80438071450436" y2="6.1033233298543825" class="delaunay-line"/>
<line x1="14.017037086855465" y1="6.370590477448739" x2="8.995722430686905" y2="6.434736903889974" class="delaunay-line"/>
<line x1="8.995722430686905" y1="6.434736903889974" x2="14.004277569313096" y2="6.5652630961100265" class="delaunay-line"/>
<line x1="14.004277569313096" y1="6.5652630961100265" x2="14.017037086855465" y2="6.370590477448739" class="delaunay-line"/>
<line x1="14.004277569313096" y1="6.5652630961100265" x2="8.995722430686905" y2="6.434736903889974" class="delaunay-line"/>
<line x1="8.995722430686905" y1="6.434736903889974" x2="8.982962913144533" y2="6.629409522551261" class="delaunay-line"/>
<line x1="8.982962913144533" y1="6.629409522551261" x2="14.004277569313096" y2="6.5652630961100265" class="delaunay-line"/>
<line x1="14.06698729810778" y1="6.749999999999999" x2="14.004277569313096" y2="6.5652630961100265" class="delaunay-line"/>
<line x1="14.004277569313096" y1="6.5652630961100265" x2="8.982962913144533" y2="6.629409522551261" class="delaunay-line"/>
<line x1="8.982962913144533" y1="6.629409522551261" x2="14.06698729810778" y2="6.749999999999999" class="delaunay-line"/>
<line x1="6.133974596215562" y1="15.500000000000002" x2="3.260398644698074" y2="13.031195934094221" class="delaunay-line"/>
<line x1="3.260398644698074" y1="13.031195934094221" x2="6.008555138626189" y2="15.869473807779947" class="delaunay-line"/>
<line x1="6.008555138626189" y1="15.869473807779947" x2="6.133974596215562" y2="15.500000000000002" class="delaunay-line"/>
<line x1="14.017037086855465" y1="6.370590477448739" x2="8.933012701892219" y2="6.25" class="delaunay-line"/>
<line x1="8.933012701892219" y1="6.25" x2="8.995722430686905" y2="6.434736903889974" class="delaunay-line"/>
<line x1="8.995722430686905" y1="6.434736903889974" x2="14.017037086855465" y2="6.370590477448739" class="delaunay-line"/>
<line x1="8.982962913144533" y1="6.629409522551261" x2="8.565263096110025" y2="6.9957224306869055" class="delaunay-line"/>
<line x1="8.565263096110025" y1="6.9957224306869055" x2="8.75" y2="6.93301270189222" class="delaunay-line"/>
<line x1="8.75" y1="6.93301270189222" x2="8.982962913144533" y2="6.629409522551261" class="delaunay-line"/>
<line x1="8.75" y1="6.93301270189222" x2="8.565263096110025" y2="6.9957224306869055" class="delaunay-line"/>
<line x1="8.565263096110025" y1="6.9957224306869055" x2="7.500000000000001" y2="15.133974596215563" class="delaunay-line"/>
<line x1="7.500000000000001" y1="15.133974596215563" x2="8.75" y2="6.93301270189222" class="delaunay-line"/>
<line x1="14.017037086855465" y1="6.370590477448739" x2="14.103323329854383" y2="6.1956192854956385" class="delaunay-line"/>
<line x1="14.103323329854383" y1="6.1956192854956385" x2="8.933012701892219" y2="6.25" class="delaunay-line"/>
<line x1="8.933012701892219" y1="6.25" x2="14.017037086855465" y2="6.370590477448739" class="delaunay-line"/>
<line x1="8.896676670145618" y1="6.80438071450436" x2="8.982962913144533" y2="6.629409522551261" class="delaunay-line"/>
<line x1="8.982962913144533" y1="6.629409522551261" x2="8.75" y2="6.93301270189222" class="delaunay-line"/>
<line x1="8.75" y1="6.93301270189222" x2="8.896676670145618" y2="6.80438071450436" class="delaunay-line"/>
<line x1="8.982962913144533" y1="6.629409522551261" x2="8.37059047744874" y2="6.982962913144534" class="delaunay-line"/>
<line x1="8.37059047744874" y1="6.982962913144534" x2="8.565263096110025" y2="6.9957224306869055" class="delaunay-line"/>
<line x1="8.565263096110025" y1="6.9957224306869055" x2="8.982962913144533" y2="6.629409522551261" class="delaunay-line"/>
<line x1="8.565263096110025" y1="6.9957224306869055" x2="8.37059047744874" y2="6.982962913144534" class="delaunay-line"/>
<line x1="8.37059047744874" y1="6.982962913144534" x2="7.130526192220052" y2="15.00855513862619" class="delaunay-line"/>
<line x1="7.130526192220052" y1="15.00855513862619" x2="8.565263096110025" y2="6.9957224306869055" class="delaunay-line"/>
<line x1="8.933012701892219" y1="6.25" x2="14.103323329854383" y2="6.1956192854956385" class="delaunay-line"/>
<line x1="14.103323329854383" y1="6.1956192854956385" x2="8.80438071450436" y2="6.1033233298543825" class="delaunay-line"/>
<line x1="8.80438071450436" y1="6.1033233298543825" x2="8.933012701892219" y2="6.25" class="delaunay-line"/>
<line x1="8.017037086855467" y1="6.370590477448739" x2="8.19561928549564" y2="6.8966766701456175" class="delaunay-line"/>
<line x1="8.19561928549564" y1="6.8966766701456175" x2="8.37059047744874" y2="6.982962913144534" class="delaunay-line"/>
<line x1="8.37059047744874" y1="6.982962913144534" x2="8.017037086855467" y2="6.370590477448739" class="delaunay-line"/>
<line x1="8.066987298107781" y1="6.75" x2="8.19561928549564" y2="6.8966766701456175" class="delaunay-line"/>
<line x1="8.19561928549564" y1="6.8966766701456175" x2="8.017037086855467" y2="6.370590477448739" class="delaunay-line"/>
<line x1="8.017037086855467" y1="6.370590477448739" x2="8.066987298107781" y2="6.75" class="delaunay-line"/>
<line x1="8.37059047744874" y1="6.982962913144534" x2="3.260398644698074" y2="13.031195934094221" class="delaunay-line"/>
<line x1="3.260398644698074" y1="13.031195934094221" x2="7.130526192220052" y2="15.00855513862619" class="delaunay-line"/>
<line x1="7.130526192220052" y1="15.00855513862619" x2="8.37059047744874" y2="6.982962913144534" class="delaunay-line"/>
<line x1="8.80438071450436" y1="6.1033233298543825" x2="14.103323329854383" y2="6.1956192854956385" class="delaunay-line"/>
<line x1="14.103323329854383" y1="6.1956192854956385" x2="13.099876884532561" y2="0.6585339334426399" class="delaunay-line"/>
<line x1="13.099876884532561" y1="0.6585339334426399" x2="8.80438071450436" y2="6.1033233298543825" class="delaunay-line"/>
<line x1="8.995722430686905" y1="6.434736903889974" x2="8.933012701892219" y2="6.25" class="delaunay-line"/>
<line x1="8.933012701892219" y1="6.25" x2="8.982962913144533" y2="6.629409522551261" class="delaunay-line"/>
<line x1="8.982962913144533" y1="6.629409522551261" x2="8.995722430686905" y2="6.434736903889974" class="delaunay-line"/>
<line x1="8.017037086855467" y1="6.370590477448739" x2="8.37059047744874" y2="6.982962913144534" class="delaunay-line"/>
<line x1="8.37059047744874" y1="6.982962913144534" x2="8.982962913144533" y2="6.629409522551261" class="delaunay-line"/>
<line x1="8.982962913144533" y1="6.629409522551261" x2="8.017037086855467" y2="6.370590477448739" class="delaunay-line"/>
<line x1="8.19561928549564" y1="6.8966766701456175" x2="3.260398644698074" y2="13.031195934094221" class="delaunay-line"/>
<line x1="3.260398644698074" y1="13.031195934094221" x2="8.37059047744874" y2="6.982962913144534" class="delaunay-line"/>
<line x1="8.37059047744874" y1="6.982962913144534" x2="8.19561928549564" y2="6.8966766701456175" class="delaunay-line"/>
<line x1="3.260398644698074" y1="7.031195934094221" x2="3.260398644698074" y2="13.031195934094221" class="delaunay-line"/>
<line x1="3.260398644698074" y1="13.031195934094221" x2="8.19561928549564" y2="6.8966766701456175" class="delaunay-line"/>
<line x1="8.19561928549564" y1="6.8966766701456175" x2="3.260398644698074" y2="7.031195934094221" class="delaunay-line"/>
<line x1="6.008555138626189" y1="15.869473807779947" x2="0.9957224306869049" y2="16.434736903889974" class="delaunay-line"/>
<line x1="0.9957224306869049" y1="16.434736903889974" x2="6.034074173710932" y2="16.25881904510252" class="delaunay-line"/>
<line x1="6.034074173710932" y1="16.25881904510252" x2="6.008555138626189" y2="15.869473807779947" class="delaunay-line"/>
<line x1="8.933012701892219" y1="6.25" x2="8.80438071450436" y2="6.1033233298543825" class="delaunay-line"/>
<line x1="8.80438071450436" y1="6.1033233298543825" x2="8.982962913144533" y2="6.629409522551261" class="delaunay-line"/>
<line x1="8.982962913144533" y1="6.629409522551261" x2="8.933012701892219" y2="6.25" class="delaunay-line"/>
<line x1="8.62940952255126" y1="6.017037086855466" x2="8.80438071450436" y2="6.1033233298543825" class="delaunay-line"/>
<line x1="8.80438071450436" y1="6.1033233298543825" x2="13.099876884532561" y2="0.6585339334426399" class="delaunay-line"/>
<line x1="13.099876884532561" y1="0.6585339334426399" x2="8.62940952255126" y2="6.017037086855466" class="delaunay-line"/>
<line x1="8.017037086855467" y1="6.370590477448739" x2="8.004277569313095" y2="6.565263096110026" class="delaunay-line"/>
<line x1="8.004277569313095" y1="6.565263096110026" x2="8.066987298107781" y2="6.75" class="delaunay-line"/>
<line x1="8.066987298107781" y1="6.75" x2="8.017037086855467" y2="6.370590477448739" class="delaunay-line"/>
<line x1="8.066987298107781" y1="6.75" x2="3.260398644698074" y2="7.031195934094221" class="delaunay-line"/>
<line x1="3.260398644698074" y1="7.031195934094221" x2="8.19561928549564" y2="6.8966766701456175" class="delaunay-line"/>
<line x1="8.19561928549564" y1="6.8966766701456175" x2="8.066987298107781" y2="6.75" class="delaunay-line"/>
<line x1="13.099876884532561" y1="0.6585339334426399" x2="14.103323329854383" y2="6.1956192854956385" class="delaunay-line"/>
<line x1="14.103323329854383" y1="6.1956192854956385" x2="14.25" y2="6.06698729810778" class="delaunay-line"/>
<line x1="14.25" y1="6.06698729810778" x2="13.099876884532561" y2="0.6585339334426399" class="delaunay-line"/>
<line x1="8.80438071450436" y1="6.1033233298543825" x2="8.62940952255126" y2="6.017037086855466" class="delaunay-line"/>
<line x1="8.62940952255126" y1="6.017037086855466" x2="8.982962913144533" y2="6.629409522551261" class="delaunay-line"/>
<line x1="8.982962913144533" y1="6.629409522551261" x2="8.80438071450436" y2="6.1033233298543825" class="delaunay-line"/>
<line x1="8.62940952255126" y1="6.017037086855466" x2="8.017037086855467" y2="6.370590477448739" class="delaunay-line"/>
<line x1="8.017037086855467" y1="6.370590477448739" x2="8.982962913144533" y2="6.629409522551261" class="delaunay-line"/>
<line x1="8.982962913144533" y1="6.629409522551261" x2="8.62940952255126" y2="6.017037086855466" class="delaunay-line"/>
<line x1="3.260398644698074" y1="7.031195934094221" x2="2.760398644698074" y2="13.031195934094221" class="delaunay-line"/>
<line x1="2.760398644698074" y1="13.031195934094221" x2="3.260398644698074" y2="13.031195934094221" class="delaunay-line"/>
<line x1="3.260398644698074" y1="13.031195934094221" x2="3.260398644698074" y2="7.031195934094221" class="delaunay-line"/>
<line x1="14.565263096110026" y1="16.995722430686904" x2="24" y2="24" class="delaunay-line"/>
<line x1="24" y1="24" x2="14.749999999999998" y2="16.933012701892217" class="delaunay-line"/>
<line x1="14.749999999999998" y1="16.933012701892217" x2="14.565263096110026" y2="16.995722430686904" class="delaunay-line"/>
<line x1="14.749999999999998" y1="16.933012701892217" x2="24" y2="24" class="delaunay-line"/>
<line x1="24" y1="24" x2="14.896676670145618" y2="16.804380714504358" class="delaunay-line"/>
<line x1="14.896676670145618" y1="16.804380714504358" x2="14.749999999999998" y2="16.933012701892217" class="delaunay-line"/>
<line x1="6.109495827765984" y1="18.550838778855905" x2="24" y2="24" class="delaunay-line"/>
<line x1="24" y1="24" x2="14.37059047744874" y2="16.982962913144533" class="delaunay-line"/>
<line x1="14.37059047744874" y1="16.982962913144533" x2="6.109495827765984" y2="18.550838778855905" class="delaunay-line"/>
<line x1="13.099876884532561" y1="0.6585339334426399" x2="8.434736903889975" y2="6.0042775693130945" class="delaunay-line"/>
<line x1="8.434736903889975" y1="6.0042775693130945" x2="8.62940952255126" y2="6.017037086855466" class="delaunay-line"/>
<line x1="8.62940952255126" y1="6.017037086855466" x2="13.099876884532561" y2="0.6585339334426399" class="delaunay-line"/>
<line x1="8.62940952255126" y1="6.017037086855466" x2="8.434736903889975" y2="6.0042775693130945" class="delaunay-line"/>
<line x1="8.434736903889975" y1="6.0042775693130945" x2="8.017037086855467" y2="6.370590477448739" class="delaunay-line"/>
<line x1="8.017037086855467" y1="6.370590477448739" x2="8.62940952255126" y2="6.017037086855466" class="delaunay-line"/>
<line x1="8.25" y1="6.06698729810778" x2="8.103323329854382" y2="6.19561928549564" class="delaunay-line"/>
<line x1="8.103323329854382" y1="6.19561928549564" x2="8.017037086855467" y2="6.370590477448739" class="delaunay-line"/>
<line x1="8.017037086855467" y1="6.370590477448739" x2="8.25" y2="6.06698729810778" class="delaunay-line"/>
<line x1="3.260398644698074" y1="7.031195934094221" x2="8.066987298107781" y2="6.75" class="delaunay-line"/>
<line x1="8.066987298107781" y1="6.75" x2="8.004277569313095" y2="6.565263096110026" class="delaunay-line"/>
<line x1="8.004277569313095" y1="6.565263096110026" x2="3.260398644698074" y2="7.031195934094221" class="delaunay-line"/>
<line x1="8.434736903889975" y1="6.0042775693130945" x2="8.25" y2="6.06698729810778" class="delaunay-line"/>
<line x1="8.25" y1="6.06698729810778" x2="8.017037086855467" y2="6.370590477448739" class="delaunay-line"/>
<line x1="8.017037086855467" y1="6.370590477448739" x2="8.434736903889975" y2="6.0042775693130945" class="delaunay-line"/>
<line x1="3.260398644698074" y1="7.031195934094221" x2="8.004277569313095" y2="6.565263096110026" class="delaunay-line"/>
<line x1="8.004277569313095" y1="6.565263096110026" x2="8.017037086855467" y2="6.370590477448739" class="delaunay-line"/>
<line x1="8.017037086855467" y1="6.370590477448739" x2="3.260398644698074" y2="7.031195934094221" class="delaunay-line"/>
<line x1="3.260398644698074" y1="13.031195934094221" x2="0.9957224306869049" y2="16.434736903889974" class="delaunay-line"/>
<line x1="0.9957224306869049" y1="16.434736903889974" x2="6.008555138626189" y2="15.869473807779947" class="delaunay-line"/>
<line x1="6.008555138626189" y1="15.869473807779947" x2="3.260398644698074" y2="13.031195934094221" class="delaunay-line"/>
<line x1="0.9330127018922192" y1="16.25" x2="0.9957224306869049" y2="16.434736903889974" class="delaunay-line"/>
<line x1="0.9957224306869049" y1="16.434736903889974" x2="3.260398644698074" y2="13.031195934094221" class="delaunay-line"/>
<line x1="3.260398644698074" y1="13.031195934094221" x2="0.9330127018922192" y2="16.25" class="delaunay-line"/>
<line x1="0.9957224306869049" y1="16.434736903889974" x2="0.9829629131445337" y2="16.62940952255126" class="delaunay-line"/>
<line x1="0.9829629131445337" y1="16.62940952255126" x2="6.034074173710932" y2="16.25881904510252" class="delaunay-line"/>
<line x1="6.034074173710932" y1="16.25881904510252" x2="0.9957224306869049" y2="16.434736903889974" class="delaunay-line"/>
<line x1="2.760398644698074" y1="13.031195934094221" x2="0.9330127018922192" y2="16.25" class="delaunay-line"/>
<line x1="0.9330127018922192" y1="16.25" x2="3.260398644698074" y2="13.031195934094221" class="delaunay-line"/>
<line x1="3.260398644698074" y1="13.031195934094221" x2="2.760398644698074" y2="13.031195934094221" class="delaunay-line"/>
<line x1="0.9957224306869049" y1="16.434736903889974" x2="0.9330127018922192" y2="16.25" class="delaunay-line"/>
<line x1="0.9330127018922192" y1="16.25" x2="0.9829629131445337" y2="16.62940952255126" class="delaunay-line"/>
<line x1="0.9829629131445337" y1="16.62940952255126" x2="0.9957224306869049" y2="16.434736903889974" class="delaunay-line"/>
<line x1="0.10332332985438158" y1="16.195619285495642" x2="0.8966766701456184" y2="16.804380714504358" class="delaunay-line"/>
<line x1="0.8966766701456184" y1="16.804380714504358" x2="0.9829629131445337" y2="16.62940952255126" class="delaunay-line"/>
<line x1="0.9829629131445337" y1="16.62940952255126" x2="0.10332332985438158" y2="16.195619285495642" class="delaunay-line"/>
<line x1="0.9829629131445337" y1="16.62940952255126" x2="0.8966766701456184" y2="16.804380714504358" class="delaunay-line"/>
<line x1="0.8966766701456184" y1="16.804380714504358" x2="6.109495827765984" y2="18.550838778855905" class="delaunay-line"/>
<line x1="6.109495827765984" y1="18.550838778855905" x2="0.9829629131445337" y2="16.62940952255126" class="delaunay-line"/>
<line x1="2.760398644698074" y1="13.031195934094221" x2="0.8043807145043599" y2="16.10332332985438" class="delaunay-line"/>
<line x1="0.8043807145043599" y1="16.10332332985438" x2="0.9330127018922192" y2="16.25" class="delaunay-line"/>
<line x1="0.9330127018922192" y1="16.25" x2="2.760398644698074" y2="13.031195934094221" class="delaunay-line"/>
<line x1="0.9330127018922192" y1="16.25" x2="0.10332332985438158" y2="16.195619285495642" class="delaunay-line"/>
<line x1="0.10332332985438158" y1="16.195619285495642" x2="0.9829629131445337" y2="16.62940952255126" class="delaunay-line"/>
<line x1="0.9829629131445337" y1="16.62940952255126" x2="0.9330127018922192" y2="16.25" class="delaunay-line"/>
<line x1="0.5652630961100253" y1="16.995722430686907" x2="0.7500000000000002" y2="16.93301270189222" class="delaunay-line"/>
<line x1="0.7500000000000002" y1="16.93301270189222" x2="0.8966766701456184" y2="16.804380714504358" class="delaunay-line"/>
<line x1="0.8966766701456184" y1="16.804380714504358" x2="0.5652630961100253" y2="16.995722430686907" class="delaunay-line"/>
<line x1="0.8966766701456184" y1="16.804380714504358" x2="0.7500000000000002" y2="16.93301270189222" class="delaunay-line"/>
<line x1="0.7500000000000002" y1="16.93301270189222" x2="6.109495827765984" y2="18.550838778855905" class="delaunay-line"/>
<line x1="6.109495827765984" y1="18.550838778855905" x2="0.8966766701456184" y2="16.804380714504358" class="delaunay-line"/>
<line x1="6.109495827765984" y1="18.550838778855905" x2="0" y2="24" class="delaunay-line"/>
<line x1="0" y1="24" x2="24" y2="24" class="delaunay-line"/>
<line x1="24" y1="24" x2="6.109495827765984" y2="18.550838778855905" class="delaunay-line"/>
<line x1="2.760398644698074" y1="13.031195934094221" x2="0.6294095225512596" y2="16.017037086855463" class="delaunay-line"/>
<line x1="0.6294095225512596" y1="16.017037086855463" x2="0.8043807145043599" y2="16.10332332985438" class="delaunay-line"/>
<line x1="0.8043807145043599" y1="16.10332332985438" x2="2.760398644698074" y2="13.031195934094221" class="delaunay-line"/>
<line x1="0.8043807145043599" y1="16.10332332985438" x2="0.6294095225512596" y2="16.017037086855463" class="delaunay-line"/>
<line x1="0.6294095225512596" y1="16.017037086855463" x2="0.9330127018922192" y2="16.25" class="delaunay-line"/>
<line x1="0.9330127018922192" y1="16.25" x2="0.8043807145043599" y2="16.10332332985438" class="delaunay-line"/>
<line x1="0.37059047744874046" y1="16.982962913144537" x2="0.5652630961100253" y2="16.995722430686907" class="delaunay-line"/>
<line x1="0.5652630961100253" y1="16.995722430686907" x2="0.8966766701456184" y2="16.804380714504358" class="delaunay-line"/>
<line x1="0.8966766701456184" y1="16.804380714504358" x2="0.37059047744874046" y2="16.982962913144537" class="delaunay-line"/>
<line x1="0.7500000000000002" y1="16.93301270189222" x2="0" y2="24" class="delaunay-line"/>
<line x1="0" y1="24" x2="6.109495827765984" y2="18.550838778855905" class="delaunay-line"/>
<line x1="6.109495827765984" y1="18.550838778855905" x2="0.7500000000000002" y2="16.93301270189222" class="delaunay-line"/>
<line x1="2.760398644698074" y1="13.031195934094221" x2="0.4347369038899747" y2="16.004277569313093" class="delaunay-line"/>
<line x1="0.4347369038899747" y1="16.004277569313093" x2="0.6294095225512596" y2="16.017037086855463" class="delaunay-line"/>
<line x1="0.6294095225512596" y1="16.017037086855463" x2="2.760398644698074" y2="13.031195934094221" class="delaunay-line"/>
<line x1="0.6294095225512596" y1="16.017037086855463" x2="0.4347369038899747" y2="16.004277569313093" class="delaunay-line"/>
<line x1="0.4347369038899747" y1="16.004277569313093" x2="0.9330127018922192" y2="16.25" class="delaunay-line"/>
<line x1="0.9330127018922192" y1="16.25" x2="0.6294095225512596" y2="16.017037086855463" class="delaunay-line"/>
<line x1="0.24999999999999978" y1="16.06698729810778" x2="0.4347369038899747" y2="16.004277569313093" class="delaunay-line"/>
<line x1="0.4347369038899747" y1="16.004277569313093" x2="2.760398644698074" y2="13.031195934094221" class="delaunay-line"/>
<line x1="2.760398644698074" y1="13.031195934094221" x2="0.24999999999999978" y2="16.06698729810778" class="delaunay-line"/>
<line x1="0.19561928549564023" y1="16.89667667014562" x2="0.37059047744874046" y2="16.982962913144537" class="delaunay-line"/>
<line x1="0.37059047744874046" y1="16.982962913144537" x2="0.06698729810778087" y2="16.75" class="delaunay-line"/>
<line x1="0.06698729810778087" y1="16.75" x2="0.19561928549564023" y2="16.89667667014562" class="delaunay-line"/>
<line x1="0.5652630961100253" y1="16.995722430686907" x2="0" y2="24" class="delaunay-line"/>
<line x1="0" y1="24" x2="0.7500000000000002" y2="16.93301270189222" class="delaunay-line"/>
<line x1="0.7500000000000002" y1="16.93301270189222" x2="0.5652630961100253" y2="16.995722430686907" class="delaunay-line"/>
<line x1="0.10332332985438158" y1="16.195619285495642" x2="0.24999999999999978" y2="16.06698729810778" class="delaunay-line"/>
<line x1="0.24999999999999978" y1="16.06698729810778" x2="0.10949582776598277" y2="8.15853393344264" class="delaunay-line"/>
<line x1="0.10949582776598277" y1="8.15853393344264" x2="0.10332332985438158" y2="16.195619285495642" class="delaunay-line"/>
<line x1="0.4347369038899747" y1="16.004277569313093" x2="0.10332332985438158" y2="16.195619285495642" class="delaunay-line"/>
<line x1="0.10332332985438158" y1="16.195619285495642" x2="0.9330127018922192" y2="16.25" class="delaunay-line"/>
<line x1="0.9330127018922192" y1="16.25" x2="0.4347369038899747" y2="16.004277569313093" class="delaunay-line"/>
<line x1="0.06698729810778087" y1="16.75" x2="0.37059047744874046" y2="16.982962913144537" class="delaunay-line"/>
<line x1="0.37059047744874046" y1="16.982962913144537" x2="0.8966766701456184" y2="16.804380714504358" class="delaunay-line"/>
<line x1="0.8966766701456184" y1="16.804380714504358" x2="0.06698729810778087" y2="16.75" class="delaunay-line"/>
<line x1="0.10949582776598277" y1="8.15853393344264" x2="0.24999999999999978" y2="16.06698729810778" class="delaunay-line"/>
<line x1="0.24999999999999978" y1="16.06698729810778" x2="2.760398644698074" y2="13.031195934094221" class="delaunay-line"/>
<line x1="2.760398644698074" y1="13.031195934094221" x2="0.10949582776598277" y2="8.15853393344264" class="delaunay-line"/>
<line x1="0.24999999999999978" y1="16.06698729810778" x2="0.10332332985438158" y2="16.195619285495642" class="delaunay-line"/>
<line x1="0.10332332985438158" y1="16.195619285495642" x2="0.4347369038899747" y2="16.004277569313093" class="delaunay-line"/>
<line x1="0.4347369038899747" y1="16.004277569313093" x2="0.24999999999999978" y2="16.06698729810778" class="delaunay-line"/>
<line x1="0.10332332985438158" y1="16.195619285495642" x2="0.06698729810778087" y2="16.75" class="delaunay-line"/>
<line x1="0.06698729810778087" y1="16.75" x2="0.8966766701456184" y2="16.804380714504358" class="delaunay-line"/>
<line x1="0.8966766701456184" y1="16.804380714504358" x2="0.10332332985438158" y2="16.195619285495642" class="delaunay-line"/>
<line x1="0.10332332985438158" y1="16.195619285495642" x2="0.017037086855466343" y2="16.37059047744874" class="delaunay-line"/>
<line x1="0.017037086855466343" y1="16.37059047744874" x2="0.06698729810778087" y2="16.75" class="delaunay-line"/>
<line x1="0.06698729810778087" y1="16.75" x2="0.10332332985438158" y2="16.195619285495642" class="delaunay-line"/>
<line x1="0.017037086855466343" y1="16.37059047744874" x2="0.0042775693130949755" y2="16.565263096110026" class="delaunay-line"/>
<line x1="0.0042775693130949755" y1="16.565263096110026" x2="0.06698729810778087" y2="16.75" class="delaunay-line"/>
<line x1="0.06698729810778087" y1="16.75" x2="0.017037086855466343" y2="16.37059047744874" class="delaunay-line"/>
<line x1="8.25" y1="6.06698729810778" x2="3.260398644698074" y2="7.031195934094221" class="delaunay-line"/>
<line x1="3.260398644698074" y1="7.031195934094221" x2="8.103323329854382" y2="6.19561928549564" class="delaunay-line"/>
<line x1="8.103323329854382" y1="6.19561928549564" x2="8.25" y2="6.06698729810778" class="delaunay-line"/>
<line x1="8.103323329854382" y1="6.19561928549564" x2="3.260398644698074" y2="7.031195934094221" class="delaunay-line"/>
<line x1="3.260398644698074" y1="7.031195934094221" x2="8.017037086855467" y2="6.370590477448739" class="delaunay-line"/>
<line x1="8.017037086855467" y1="6.370590477448739" x2="8.103323329854382" y2="6.19561928549564" class="delaunay-line"/>
<line x1="0.10332332985438158" y1="16.195619285495642" x2="0.10949582776598277" y2="8.15853393344264" class="delaunay-line"/>
<line x1="0.10949582776598277" y1="8.15853393344264" x2="0.017037086855466343" y2="16.37059047744874" class="delaunay-line"/>
<line x1="0.017037086855466343" y1="16.37059047744874" x2="0.10332332985438158" y2="16.195619285495642" class="delaunay-line"/>
<line x1="2.760398644698074" y1="7.031195934094221" x2="3.260398644698074" y2="7.031195934094221" class="delaunay-line"/>
<line x1="3.260398644698074" y1="7.031195934094221" x2="0" y2="0" class="delaunay-line"/>
<line x1="0" y1="0" x2="2.760398644698074" y2="7.031195934094221" class="delaunay-line"/>
<line x1="0" y1="0" x2="3.260398644698074" y2="7.031195934094221" class="delaunay-line"/>
<line x1="3.260398644698074" y1="7.031195934094221" x2="8.25" y2="6.06698729810778" class="delaunay-line"/>
<line x1="8.25" y1="6.06698729810778" x2="0" y2="0" class="delaunay-line"/>
<line x1="3.260398644698074" y1="7.031195934094221" x2="2.760398644698074" y2="7.031195934094221" class="delaunay-line"/>
<line x1="2.760398644698074" y1="7.031195934094221" x2="2.760398644698074" y2="13.031195934094221" class="delaunay-line"/>
<line x1="2.760398644698074" y1="13.031195934094221" x2="3.260398644698074" y2="7.031195934094221" class="delaunay-line"/>
<line x1="14.62940952255126" y1="6.017037086855466" x2="13.099876884532561" y2="0.6585339334426399" class="delaunay-line"/>
<line x1="13.099876884532561" y1="0.6585339334426399" x2="14.434736903889975" y2="6.004277569313095" class="delaunay-line"/>
<line x1="14.434736903889975" y1="6.004277569313095" x2="14.62940952255126" y2="6.017037086855466" class="delaunay-line"/>
<line x1="14.434736903889975" y1="6.004277569313095" x2="13.099876884532561" y2="0.6585339334426399" class="delaunay-line"/>
<line x1="13.099876884532561" y1="0.6585339334426399" x2="14.25" y2="6.06698729810778" class="delaunay-line"/>
<line x1="14.25" y1="6.06698729810778" x2="14.434736903889975" y2="6.004277569313095" class="delaunay-line"/>
<line x1="8.434736903889975" y1="6.0042775693130945" x2="0" y2="0" class="delaunay-line"/>
<line x1="0" y1="0" x2="8.25" y2="6.06698729810778" class="delaunay-line"/>
<line x1="8.25" y1="6.06698729810778" x2="8.434736903889975" y2="6.0042775693130945" class="delaunay-line"/>
<line x1="24" y1="0" x2="14.80438071450436" y2="6.1033233298543825" class="delaunay-line"/>
<line x1="14.80438071450436" y1="6.1033233298543825" x2="14.93301270189222" y2="6.250000000000001" class="delaunay-line"/>
<line x1="14.93301270189222" y1="6.250000000000001" x2="24" y2="0" class="delaunay-line"/>
<line x1="0.0042775693130949755" y1="16.565263096110026" x2="0" y2="24" class="delaunay-line"/>
<line x1="0" y1="24" x2="0.06698729810778087" y2="16.75" class="delaunay-line"/>
<line x1="0.06698729810778087" y1="16.75" x2="0.0042775693130949755" y2="16.565263096110026" class="delaunay-line"/>
<line x1="0.06698729810778087" y1="16.75" x2="0" y2="24" class="delaunay-line"/>
<line x1="0" y1="24" x2="0.19561928549564023" y2="16.89667667014562" class="delaunay-line"/>
<line x1="0.19561928549564023" y1="16.89667667014562" x2="0.06698729810778087" y2="16.75" class="delaunay-line"/>
<line x1="0.19561928549564023" y1="16.89667667014562" x2="0" y2="24" class="delaunay-line"/>
<line x1="0" y1="24" x2="0.37059047744874046" y2="16.982962913144537" class="delaunay-line"/>
<line x1="0.37059047744874046" y1="16.982962913144537" x2="0.19561928549564023" y2="16.89667667014562" class="delaunay-line"/>
<line x1="0.37059047744874046" y1="16.982962913144537" x2="0" y2="24" class="delaunay-line"/>
<line x1="0" y1="24" x2="0.5652630961100253" y2="16.995722430686907" class="delaunay-line"/>
<line x1="0.5652630961100253" y1="16.995722430686907" x2="0.37059047744874046" y2="16.982962913144537" class="delaunay-line"/>
<line x1="2.760398644698074" y1="7.031195934094221" x2="0.10949582776598277" y2="8.15853393344264" class="delaunay-line"/>
<line x1="0.10949582776598277" y1="8.15853393344264" x2="2.760398644698074" y2="13.031195934094221" class="delaunay-line"/>
<line x1="2.760398644698074" y1="13.031195934094221" x2="2.760398644698074" y2="7.031195934094221" class="delaunay-line"/>
<line x1="0.017037086855466343" y1="16.37059047744874" x2="0.10949582776598277" y2="8.15853393344264" class="delaunay-line"/>
<line x1="0.10949582776598277" y1="8.15853393344264" x2="0.0042775693130949755" y2="16.565263096110026" class="delaunay-line"/>
<line x1="0.0042775693130949755" y1="16.565263096110026" x2="0.017037086855466343" y2="16.37059047744874" class="delaunay-line"/>
<line x1="0" y1="0" x2="0.10949582776598277" y2="8.15853393344264" class="delaunay-line"/>
<line x1="0.10949582776598277" y1="8.15853393344264" x2="2.760398644698074" y2="7.031195934094221" class="delaunay-line"/>
<line x1="2.760398644698074" y1="7.031195934094221" x2="0" y2="0" class="delaunay-line"/>
<line x1="23.44317194639219" y1="12.972048343662545" x2="24" y2="0" class="delaunay-line"/>
<line x1="24" y1="0" x2="22.40789576598211" y2="9.10834503850627" class="delaunay-line"/>
<line x1="22.40789576598211" y1="9.10834503850627" x2="23.44317194639219" y2="12.972048343662545" class="delaunay-line"/>
<line x1="22.40789576598211" y1="9.10834503850627" x2="24" y2="0" class="delaunay-line"/>
<line x1="24" y1="0" x2="14.93301270189222" y2="6.250000000000001" class="delaunay-line"/>
<line x1="14.93301270189222" y1="6.250000000000001" x2="22.40789576598211" y2="9.10834503850627" class="delaunay-line"/>
<line x1="24" y1="24" x2="24" y2="0" class="delaunay-line"/>
<line x1="24" y1="0" x2="23.44317194639219" y2="12.972048343662545" class="delaunay-line"/>
<line x1="23.44317194639219" y1="12.972048343662545" x2="24" y2="24" class="delaunay-line"/>
<line x1="24" y1="0" x2="0" y2="0" class="delaunay-line"/>
<line x1="0" y1="0" x2="13.099876884532561" y2="0.6585339334426399" class="delaunay-line"/>
<line x1="13.099876884532561" y1="0.6585339334426399" x2="24" y2="0" class="delaunay-line"/>
<line x1="13.099876884532561" y1="0.6585339334426399" x2="0" y2="0" class="delaunay-line"/>
<line x1="0" y1="0" x2="8.434736903889975" y2="6.0042775693130945" class="delaunay-line"/>
<line x1="8.434736903889975" y1="6.0042775693130945" x2="13.099876884532561" y2="0.6585339334426399" class="delaunay-line"/>
<line x1="0.10949582776598277" y1="8.15853393344264" x2="0" y2="0" class="delaunay-line"/>
<line x1="0" y1="0" x2="0.0042775693130949755" y2="16.565263096110026" class="delaunay-line"/>
<line x1="0.0042775693130949755" y1="16.565263096110026" x2="0.10949582776598277" y2="8.15853393344264" class="delaunay-line"/>
<line x1="0.0042775693130949755" y1="16.565263096110026" x2="0" y2="0" class="delaunay-line"/>
<line x1="0" y1="0" x2="0" y2="24" class="delaunay-line"/>
<line x1="0" y1="24" x2="0.0042775693130949755" y2="16.565263096110026" class="delaunay-line"/>
</g>
<g id="layer-area" class="layer ">
<polygon points="13.099876884532561,0.6585339334426399 19.099876884532563,11.050838778855905 6.109495827765984,18.550838778855905 0.10949582776598277,8.15853393344264" class="terrain-area"/>
<text x="9.604686356149273" y="9.604686356149273" class="label">#C49A6C</text>
</g>
<g id="layer-building" class="layer ">
<polygon points="17.64761698865778,14.524962614277667 16.6123408082477,10.661259309121393 22.40789576598211,9.10834503850627 23.44317194639219,12.972048343662545" class="terrain-solid"/>
<text x="20.027756377319946" y="11.816653826391969" class="label">#000000</text>
</g>
<g id="layer-wall" class="layer ">
<polygon points="2.760398644698074,7.031195934094221 3.260398644698074,7.031195934094221 3.260398644698074,13.031195934094221 2.760398644698074,13.031195934094221" class="terrain-solid"/>
<text x="3.010398644698074" y="10.031195934094221" class="label">#555555</text>
</g>
<g id="layer-tree" class="layer ">
<polygon points="6.034074173710932,16.25881904510252 6.008555138626189,15.869473807779947 6.133974596215562,15.500000000000002 6.39123857099128,15.206646659708765 6.741180954897479,15.034074173710932 7.130526192220052,15.00855513862619 7.500000000000001,15.133974596215563 7.793353340291235,15.391238570991277 7.965925826289068,15.741180954897478 7.991444861373811,16.13052619222005 7.866025403784439,16.5 7.608761429008721,16.793353340291233 7.258819045102521,16.96592582628907 6.869473807779948,16.991444861373807 6.500000000000001,16.86602540378444 6.206646659708766,16.60876142900872" class="terrain-solid"/>
<text x="7.000000000000001" y="16" class="label">#90EE90</text>
</g>
<g id="layer-rocks" class="layer ">
</g>
<g id="layer-shrub" class="layer ">
<polygon points="14.982962913144535,16.62940952255126 14.896676670145618,16.804380714504358 14.749999999999998,16.933012701892217 14.565263096110026,16.995722430686904 14.37059047744874,16.982962913144533 14.195619285495638,16.896676670145617 14.066987298107781,16.75 14.004277569313095,16.565263096110026 14.017037086855465,16.37059047744874 14.103323329854382,16.195619285495642 14.250000000000002,16.066987298107783 14.434736903889974,16.004277569313096 14.62940952255126,16.017037086855467 14.804380714504362,16.103323329854383 14.933012701892219,16.25 14.995722430686905,16.434736903889974" class="terrain-solid"/>
<text x="14.5" y="16.5" class="label">#006400</text>
<polygon points="14.62940952255126,6.017037086855466 14.80438071450436,6.1033233298543825 14.93301270189222,6.250000000000001 14.995722430686904,6.4347369038899735 14.982962913144535,6.629409522551261 14.896676670145617,6.8043807145043615 14.75,6.93301270189222 14.565263096110025,6.995722430686905 14.37059047744874,6.982962913144534 14.19561928549564,6.8966766701456175 14.06698729810778,6.749999999999999 14.004277569313096,6.5652630961100265 14.017037086855465,6.370590477448739 14.103323329854383,6.1956192854956385 14.25,6.06698729810778 14.434736903889975,6.004277569313095" class="terrain-solid"/>
<text x="14.500000000000002" y="6.5" class="label">#006400</text>
<polygon points="0.24999999999999978,16.06698729810778 0.4347369038899747,16.004277569313093 0.6294095225512596,16.017037086855463 0.8043807145043599,16.10332332985438 0.9330127018922192,16.25 0.9957224306869049,16.434736903889974 0.9829629131445337,16.62940952255126 0.8966766701456184,16.804380714504358 0.7500000000000002,16.93301270189222 0.5652630961100253,16.995722430686907 0.37059047744874046,16.982962913144537 0.19561928549564023,16.89667667014562 0.06698729810778087,16.75 0.0042775693130949755,16.565263096110026 0.017037086855466343,16.37059047744874 0.10332332985438158,16.195619285495642" class="terrain-solid"/>
<text x="0.49999999999999994" y="16.499999999999996" class="label">#006400</text>
<polygon points="8.066987298107781,6.75 8.004277569313095,6.565263096110026 8.017037086855467,6.370590477448739 8.103323329854382,6.19561928549564 8.25,6.06698729810778 8.434736903889975,6.0042775693130945 8.62940952255126,6.017037086855466 8.80438071450436,6.1033233298543825 8.933012701892219,6.25 8.995722430686905,6.434736903889974 8.982962913144533,6.629409522551261 8.896676670145618,6.80438071450436 8.75,6.93301270189222 8.565263096110025,6.9957224306869055 8.37059047744874,6.982962913144534 8.19561928549564,6.8966766701456175" class="terrain-solid"/>
<text x="8.500000000000002" y="6.500000000000001" class="label">#006400</text>
</g>
<g id="layer-terrain" class="layer ">
</g>
<g id="layer-models" class="layer ">
<circle cx="2" cy="5.170975303612996" r="0.5" fill="#2a9d8f" class="model"/>
<text x="2.7" y="5.170975303612996" class="label">Attacker</text>
<circle cx="22" cy="5.170975303612996" r="0.5" fill="#e76f51" class="model"/>
<text x="22.7" y="5.170975303612996" class="label">Target</text>
<circle cx="8" cy="5.170975303612996" r="0.5" fill="#f4a261" class="model"/>
<text x="8.7" y="5.170975303612996" class="label">SIZ 3</text>
<circle cx="12" cy="5.170975303612996" r="0.75" fill="#e9c46a" class="model"/>
<text x="12.95" y="5.170975303612996" class="label">SIZ 4</text>
<circle cx="16" cy="5.170975303612996" r="1" fill="#cdb4db" class="model"/>
<text x="17.2" y="5.170975303612996" class="label">SIZ 5</text>
</g>
<g id="layer-paths" class="layer ">
</g>
<g id="layer-vectors" class="layer ">
</g>
<g id="layer-los" class="layer ">
</g>
<g id="layer-lof" class="layer ">
<line x1="2" y1="5.170975303612996" x2="22" y2="5.170975303612996" class="lof-ray" stroke="#264653"/>
<text x="12.2" y="5.370975303612997" class="label">LOF</text>
</g>
<g id="layer-annotations" class="layer">
<text x="3" y="13" class="label" fill="#111">LOF models: attacker, target, s3, s4, s5</text>
<text x="3" y="14" class="label" fill="#111">Friendly fire: target</text>
</g>
<g id="legend">
<g class="toggle" onclick="toggleLayer('deployment')"><rect x="0.4" y="0.14999999999999997" width="0.4" height="0.4" fill="#222" stroke="#222" stroke-width="0.05"/><text x="1.0" y="0.5499999999999999" class="label">Deployment Zones</text></g>
<g class="toggle" onclick="toggleLayer('grid')"><rect x="0.4" y="0.95" width="0.4" height="0.4" fill="#222" stroke="#222" stroke-width="0.05"/><text x="1.0" y="1.3499999999999999" class="label">0.5 MU Grid</text></g>
<g class="toggle" onclick="toggleLayer('delaunay')"><rect x="0.4" y="1.7500000000000002" width="0.4" height="0.4" fill="#222" stroke="#222" stroke-width="0.05"/><text x="1.0" y="2.1500000000000004" class="label">Delaunay Mesh</text></g>
<g class="toggle" onclick="toggleLayer('area')"><rect x="0.4" y="2.55" width="0.4" height="0.4" fill="#222" stroke="#222" stroke-width="0.05"/><text x="1.0" y="2.95" class="label">Area Terrain</text></g>
<g class="toggle" onclick="toggleLayer('building')"><rect x="0.4" y="3.3499999999999996" width="0.4" height="0.4" fill="#222" stroke="#222" stroke-width="0.05"/><text x="1.0" y="3.75" class="label">Buildings</text></g>
<g class="toggle" onclick="toggleLayer('wall')"><rect x="0.4" y="4.1499999999999995" width="0.4" height="0.4" fill="#222" stroke="#222" stroke-width="0.05"/><text x="1.0" y="4.55" class="label">Walls</text></g>
<g class="toggle" onclick="toggleLayer('tree')"><rect x="0.4" y="4.949999999999999" width="0.4" height="0.4" fill="#222" stroke="#222" stroke-width="0.05"/><text x="1.0" y="5.35" class="label">Trees</text></g>
<g class="toggle disabled"><rect x="0.4" y="5.749999999999999" width="0.4" height="0.4" fill="#222" stroke="#222" stroke-width="0.05"/><text x="1.0" y="6.1499999999999995" class="label">Rocks</text></g>
<g class="toggle" onclick="toggleLayer('shrub')"><rect x="0.4" y="6.549999999999999" width="0.4" height="0.4" fill="#222" stroke="#222" stroke-width="0.05"/><text x="1.0" y="6.949999999999999" class="label">Shrubs</text></g>
<g class="toggle" onclick="toggleLayer('terrain')"><rect x="0.4" y="7.349999999999999" width="0.4" height="0.4" fill="#222" stroke="#222" stroke-width="0.05"/><text x="1.0" y="7.749999999999999" class="label">Other Terrain</text></g>
<g class="toggle" onclick="toggleLayer('models')"><rect x="0.4" y="8.15" width="0.4" height="0.4" fill="#222" stroke="#222" stroke-width="0.05"/><text x="1.0" y="8.549999999999999" class="label">Models</text></g>
<g class="toggle" onclick="toggleLayer('paths')"><rect x="0.4" y="8.950000000000001" width="0.4" height="0.4" fill="#222" stroke="#222" stroke-width="0.05"/><text x="1.0" y="9.35" class="label">Paths</text></g>
<g class="toggle" onclick="toggleLayer('vectors')"><rect x="0.4" y="9.750000000000002" width="0.4" height="0.4" fill="#222" stroke="#222" stroke-width="0.05"/><text x="1.0" y="10.15" class="label">Vectors</text></g>
<g class="toggle" onclick="toggleLayer('los')"><rect x="0.4" y="10.550000000000002" width="0.4" height="0.4" fill="#222" stroke="#222" stroke-width="0.05"/><text x="1.0" y="10.950000000000001" class="label">LOS</text></g>
<g class="toggle" onclick="toggleLayer('lof')"><rect x="0.4" y="11.350000000000003" width="0.4" height="0.4" fill="#222" stroke="#222" stroke-width="0.05"/><text x="1.0" y="11.750000000000002" class="label">LOF</text></g>
</g>
</svg>