<svg xmlns="http://www.w3.org/2000/svg" viewBox="0 0 24 24" width="960" height="960" font-family="Arial" font-size="0.6">
<defs>
  <style><![CDATA[
    .layer { display: inline; }
    .layer.hidden { display: none; }
    .grid-line { stroke: #999; stroke-width: 0.02; opacity: 0.2; }
    .delaunay-line { stroke: #4a6fa5; stroke-width: 0.03; opacity: 0.3; }
    .terrain-area { stroke: #000; stroke-width: 0.05; }
    .terrain-solid { stroke: #000; stroke-width: 0.05; }
    .model { stroke: #000; stroke-width: 0.05; }
    .path { fill: none; stroke-width: 0.12; }
    .vector { stroke-width: 0.1; }
    .los-ray { stroke-width: 0.08; stroke-dasharray: 0.2 0.2; }
    .lof-ray { stroke-width: 0.08; stroke-dasharray: 0.3 0.15; }
    .label { fill: #111; font-size: 0.6px; }
    .toggle { cursor: pointer; }
  ]]></style>
</defs>
<rect x="0" y="0" width="24" height="24" fill="#ffffff" stroke="#111" stroke-width="0.05"/>
<g id="legend">
<g class="toggle" onclick="toggleLayer('grid')"><rect x="0.4" y="0.14999999999999997" width="0.4" height="0.4" fill="#222" stroke="#222" stroke-width="0.05"/><text x="1.0" y="0.5499999999999999" class="label">0.5 MU Grid</text></g>
<g class="toggle" onclick="toggleLayer('delaunay')"><rect x="0.4" y="0.95" width="0.4" height="0.4" fill="#222" stroke="#222" stroke-width="0.05"/><text x="1.0" y="1.3499999999999999" class="label">Delaunay Mesh</text></g>
<g class="toggle" onclick="toggleLayer('area')"><rect x="0.4" y="1.7500000000000002" width="0.4" height="0.4" fill="#222" stroke="#222" stroke-width="0.05"/><text x="1.0" y="2.1500000000000004" class="label">Area Terrain</text></g>
<g class="toggle" onclick="toggleLayer('terrain')"><rect x="0.4" y="2.55" width="0.4" height="0.4" fill="#222" stroke="#222" stroke-width="0.05"/><text x="1.0" y="2.95" class="label">Other Terrain</text></g>
<g class="toggle" onclick="toggleLayer('models')"><rect x="0.4" y="3.3499999999999996" width="0.4" height="0.4" fill="#222" stroke="#222" stroke-width="0.05"/><text x="1.0" y="3.75" class="label">Models</text></g>
<g class="toggle" onclick="toggleLayer('paths')"><rect x="0.4" y="4.1499999999999995" width="0.4" height="0.4" fill="#222" stroke="#222" stroke-width="0.05"/><text x="1.0" y="4.55" class="label">Paths</text></g>
<g class="toggle" onclick="toggleLayer('vectors')"><rect x="0.4" y="4.949999999999999" width="0.4" height="0.4" fill="#222" stroke="#222" stroke-width="0.05"/><text x="1.0" y="5.35" class="label">Vectors</text></g>
<g class="toggle" onclick="toggleLayer('los')"><rect x="0.4" y="5.749999999999999" width="0.4" height="0.4" fill="#222" stroke="#222" stroke-width="0.05"/><text x="1.0" y="6.1499999999999995" class="label">LOS</text></g>
<g class="toggle" onclick="toggleLayer('lof')"><rect x="0.4" y="6.549999999999999" width="0.4" height="0.4" fill="#222" stroke="#222" stroke-width="0.05"/><text x="1.0" y="6.949999999999999" class="label">LOF</text></g>
</g>
<script><![CDATA[
      function toggleLayer(id) {
        var layer = document.getElementById('layer-' + id);
        if (!layer) return;
        if (layer.classList.contains('hidden')) {
          layer.classList.remove('hidden');
        } else {
          layer.classList.add('hidden');
        }
      }
    ]]></script>
<text x="0.4" y="23.6" class="label">Battlefield 24x24 density 50 blockLOS 100</text>
<g id="layer-grid" class="layer ">
<line x1="0" y1="0" x2="0" y2="24" class="grid-line"/>
<line x1="0.5" y1="0" x2="0.5" y2="24" class="grid-line"/>
<line x1="1" y1="0" x2="1" y2="24" class="grid-line"/>
<line x1="1.5" y1="0" x2="1.5" y2="24" class="grid-line"/>
<line x1="2" y1="0" x2="2" y2="24" class="grid-line"/>
<line x1="2.5" y1="0" x2="2.5" y2="24" class="grid-line"/>
<line x1="3" y1="0" x2="3" y2="24" class="grid-line"/>
<line x1="3.5" y1="0" x2="3.5" y2="24" class="grid-line"/>
<line x1="4" y1="0" x2="4" y2="24" class="grid-line"/>
<line x1="4.5" y1="0" x2="4.5" y2="24" class="grid-line"/>
<line x1="5" y1="0" x2="5" y2="24" class="grid-line"/>
<line x1="5.5" y1="0" x2="5.5" y2="24" class="grid-line"/>
<line x1="6" y1="0" x2="6" y2="24" class="grid-line"/>
<line x1="6.5" y1="0" x2="6.5" y2="24" class="grid-line"/>
<line x1="7" y1="0" x2="7" y2="24" class="grid-line"/>
<line x1="7.5" y1="0" x2="7.5" y2="24" class="grid-line"/>
<line x1="8" y1="0" x2="8" y2="24" class="grid-line"/>
<line x1="8.5" y1="0" x2="8.5" y2="24" class="grid-line"/>
<line x1="9" y1="0" x2="9" y2="24" class="grid-line"/>
<line x1="9.5" y1="0" x2="9.5" y2="24" class="grid-line"/>
<line x1="10" y1="0" x2="10" y2="24" class="grid-line"/>
<line x1="10.5" y1="0" x2="10.5" y2="24" class="grid-line"/>
<line x1="11" y1="0" x2="11" y2="24" class="grid-line"/>
<line x1="11.5" y1="0" x2="11.5" y2="24" class="grid-line"/>
<line x1="12" y1="0" x2="12" y2="24" class="grid-line"/>
<line x1="12.5" y1="0" x2="12.5" y2="24" class="grid-line"/>
<line x1="13" y1="0" x2="13" y2="24" class="grid-line"/>
<line x1="13.5" y1="0" x2="13.5" y2="24" class="grid-line"/>
<line x1="14" y1="0" x2="14" y2="24" class="grid-line"/>
<line x1="14.5" y1="0" x2="14.5" y2="24" class="grid-line"/>
<line x1="15" y1="0" x2="15" y2="24" class="grid-line"/>
<line x1="15.5" y1="0" x2="15.5" y2="24" class="grid-line"/>
<line x1="16" y1="0" x2="16" y2="24" class="grid-line"/>
<line x1="16.5" y1="0" x2="16.5" y2="24" class="grid-line"/>
<line x1="17" y1="0" x2="17" y2="24" class="grid-line"/>
<line x1="17.5" y1="0" x2="17.5" y2="24" class="grid-line"/>
<line x1="18" y1="0" x2="18" y2="24" class="grid-line"/>
<line x1="18.5" y1="0" x2="18.5" y2="24" class="grid-line"/>
<line x1="19" y1="0" x2="19" y2="24" class="grid-line"/>
<line x1="19.5" y1="0" x2="19.5" y2="24" class="grid-line"/>
<line x1="20" y1="0" x2="20" y2="24" class="grid-line"/>
<line x1="20.5" y1="0" x2="20.5" y2="24" class="grid-line"/>
<line x1="21" y1="0" x2="21" y2="24" class="grid-line"/>
<line x1="21.5" y1="0" x2="21.5" y2="24" class="grid-line"/>
<line x1="22" y1="0" x2="22" y2="24" class="grid-line"/>
<line x1="22.5" y1="0" x2="22.5" y2="24" class="grid-line"/>
<line x1="23" y1="0" x2="23" y2="24" class="grid-line"/>
<line x1="23.5" y1="0" x2="23.5" y2="24" class="grid-line"/>
<line x1="24" y1="0" x2="24" y2="24" class="grid-line"/>
<line x1="0" y1="0" x2="24" y2="0" class="grid-line"/>
<line x1="0" y1="0.5" x2="24" y2="0.5" class="grid-line"/>
<line x1="0" y1="1" x2="24" y2="1" class="grid-line"/>
<line x1="0" y1="1.5" x2="24" y2="1.5" class="grid-line"/>
<line x1="0" y1="2" x2="24" y2="2" class="grid-line"/>
<line x1="0" y1="2.5" x2="24" y2="2.5" class="grid-line"/>
<line x1="0" y1="3" x2="24" y2="3" class="grid-line"/>
<line x1="0" y1="3.5" x2="24" y2="3.5" class="grid-line"/>
<line x1="0" y1="4" x2="24" y2="4" class="grid-line"/>
<line x1="0" y1="4.5" x2="24" y2="4.5" class="grid-line"/>
<line x1="0" y1="5" x2="24" y2="5" class="grid-line"/>
<line x1="0" y1="5.5" x2="24" y2="5.5" class="grid-line"/>
<line x1="0" y1="6" x2="24" y2="6" class="grid-line"/>
<line x1="0" y1="6.5" x2="24" y2="6.5" class="grid-line"/>
<line x1="0" y1="7" x2="24" y2="7" class="grid-line"/>
<line x1="0" y1="7.5" x2="24" y2="7.5" class="grid-line"/>
<line x1="0" y1="8" x2="24" y2="8" class="grid-line"/>
<line x1="0" y1="8.5" x2="24" y2="8.5" class="grid-line"/>
<line x1="0" y1="9" x2="24" y2="9" class="grid-line"/>
<line x1="0" y1="9.5" x2="24" y2="9.5" class="grid-line"/>
<line x1="0" y1="10" x2="24" y2="10" class="grid-line"/>
<line x1="0" y1="10.5" x2="24" y2="10.5" class="grid-line"/>
<line x1="0" y1="11" x2="24" y2="11" class="grid-line"/>
<line x1="0" y1="11.5" x2="24" y2="11.5" class="grid-line"/>
<line x1="0" y1="12" x2="24" y2="12" class="grid-line"/>
<line x1="0" y1="12.5" x2="24" y2="12.5" class="grid-line"/>
<line x1="0" y1="13" x2="24" y2="13" class="grid-line"/>
<line x1="0" y1="13.5" x2="24" y2="13.5" class="grid-line"/>
<line x1="0" y1="14" x2="24" y2="14" class="grid-line"/>
<line x1="0" y1="14.5" x2="24" y2="14.5" class="grid-line"/>
<line x1="0" y1="15" x2="24" y2="15" class="grid-line"/>
<line x1="0" y1="15.5" x2="24" y2="15.5" class="grid-line"/>
<line x1="0" y1="16" x2="24" y2="16" class="grid-line"/>
<line x1="0" y1="16.5" x2="24" y2="16.5" class="grid-line"/>
<line x1="0" y1="17" x2="24" y2="17" class="grid-line"/>
<line x1="0" y1="17.5" x2="24" y2="17.5" class="grid-line"/>
<line x1="0" y1="18" x2="24" y2="18" class="grid-line"/>
<line x1="0" y1="18.5" x2="24" y2="18.5" class="grid-line"/>
<line x1="0" y1="19" x2="24" y2="19" class="grid-line"/>
<line x1="0" y1="19.5" x2="24" y2="19.5" class="grid-line"/>
<line x1="0" y1="20" x2="24" y2="20" class="grid-line"/>
<line x1="0" y1="20.5" x2="24" y2="20.5" class="grid-line"/>
<line x1="0" y1="21" x2="24" y2="21" class="grid-line"/>
<line x1="0" y1="21.5" x2="24" y2="21.5" class="grid-line"/>
<line x1="0" y1="22" x2="24" y2="22" class="grid-line"/>
<line x1="0" y1="22.5" x2="24" y2="22.5" class="grid-line"/>
<line x1="0" y1="23" x2="24" y2="23" class="grid-line"/>
<line x1="0" y1="23.5" x2="24" y2="23.5" class="grid-line"/>
<line x1="0" y1="24" x2="24" y2="24" class="grid-line"/>
</g>
<g id="layer-delaunay" class="layer ">
<line x1="10.352781100909448" y1="14.301773558327579" x2="10.177809908956348" y2="14.215487315328664" class="delaunay-line"/>
<line x1="10.177809908956348" y1="14.215487315328664" x2="10.481413088297307" y2="14.448450228473197" class="delaunay-line"/>
<line x1="10.481413088297307" y1="14.448450228473197" x2="10.352781100909448" y2="14.301773558327579" class="delaunay-line"/>
<line x1="10.531363299549621" y1="14.827859751024457" x2="10.544122817091994" y2="14.633187132363172" class="delaunay-line"/>
<line x1="10.544122817091994" y1="14.633187132363172" x2="10.481413088297307" y2="14.448450228473197" class="delaunay-line"/>
<line x1="10.481413088297307" y1="14.448450228473197" x2="10.531363299549621" y2="14.827859751024457" class="delaunay-line"/>
<line x1="10.177809908956348" y1="14.215487315328664" x2="10.531363299549621" y2="14.827859751024457" class="delaunay-line"/>
<line x1="10.531363299549621" y1="14.827859751024457" x2="10.481413088297307" y2="14.448450228473197" class="delaunay-line"/>
<line x1="10.481413088297307" y1="14.448450228473197" x2="10.177809908956348" y2="14.215487315328664" class="delaunay-line"/>
<line x1="10.298400386405088" y1="15.131462930365416" x2="10.531363299549621" y2="14.827859751024457" class="delaunay-line"/>
<line x1="10.531363299549621" y1="14.827859751024457" x2="9.918990863853828" y2="15.18141314161773" class="delaunay-line"/>
<line x1="9.918990863853828" y1="15.18141314161773" x2="10.298400386405088" y2="15.131462930365416" class="delaunay-line"/>
<line x1="9.983137290295064" y1="14.202727797786292" x2="9.798400386405088" y2="14.265437526580978" class="delaunay-line"/>
<line x1="9.798400386405088" y1="14.265437526580978" x2="10.177809908956348" y2="14.215487315328664" class="delaunay-line"/>
<line x1="10.177809908956348" y1="14.215487315328664" x2="9.983137290295064" y2="14.202727797786292" class="delaunay-line"/>
<line x1="10.298400386405088" y1="15.131462930365416" x2="10.445077056550707" y2="15.002830942977557" class="delaunay-line"/>
<line x1="10.445077056550707" y1="15.002830942977557" x2="10.531363299549621" y2="14.827859751024457" class="delaunay-line"/>
<line x1="10.531363299549621" y1="14.827859751024457" x2="10.298400386405088" y2="15.131462930365416" class="delaunay-line"/>
<line x1="9.565437473260555" y1="14.569040705921937" x2="10.531363299549621" y2="14.827859751024457" class="delaunay-line"/>
<line x1="10.531363299549621" y1="14.827859751024457" x2="10.177809908956348" y2="14.215487315328664" class="delaunay-line"/>
<line x1="10.177809908956348" y1="14.215487315328664" x2="9.565437473260555" y2="14.569040705921937" class="delaunay-line"/>
<line x1="9.565437473260555" y1="14.569040705921937" x2="10.177809908956348" y2="14.215487315328664" class="delaunay-line"/>
<line x1="10.177809908956348" y1="14.215487315328664" x2="9.798400386405088" y2="14.265437526580978" class="delaunay-line"/>
<line x1="9.798400386405088" y1="14.265437526580978" x2="9.565437473260555" y2="14.569040705921937" class="delaunay-line"/>
<line x1="9.65172371625947" y1="14.394069513968837" x2="9.565437473260555" y2="14.569040705921937" class="delaunay-line"/>
<line x1="9.565437473260555" y1="14.569040705921937" x2="9.798400386405088" y2="14.265437526580978" class="delaunay-line"/>
<line x1="9.798400386405088" y1="14.265437526580978" x2="9.65172371625947" y2="14.394069513968837" class="delaunay-line"/>
<line x1="9.918990863853828" y1="15.18141314161773" x2="10.113663482515113" y2="15.194172659160103" class="delaunay-line"/>
<line x1="10.113663482515113" y1="15.194172659160103" x2="10.298400386405088" y2="15.131462930365416" class="delaunay-line"/>
<line x1="10.298400386405088" y1="15.131462930365416" x2="9.918990863853828" y2="15.18141314161773" class="delaunay-line"/>
<line x1="9.565437473260555" y1="14.569040705921937" x2="9.918990863853828" y2="15.18141314161773" class="delaunay-line"/>
<line x1="9.918990863853828" y1="15.18141314161773" x2="10.531363299549621" y2="14.827859751024457" class="delaunay-line"/>
<line x1="10.531363299549621" y1="14.827859751024457" x2="9.565437473260555" y2="14.569040705921937" class="delaunay-line"/>
<line x1="9.61538768451287" y1="14.948450228473197" x2="9.918990863853828" y2="15.18141314161773" class="delaunay-line"/>
<line x1="9.918990863853828" y1="15.18141314161773" x2="9.565437473260555" y2="14.569040705921937" class="delaunay-line"/>
<line x1="9.565437473260555" y1="14.569040705921937" x2="9.61538768451287" y2="14.948450228473197" class="delaunay-line"/>
<line x1="9.552677955718183" y1="14.763713324583222" x2="9.61538768451287" y2="14.948450228473197" class="delaunay-line"/>
<line x1="9.61538768451287" y1="14.948450228473197" x2="9.565437473260555" y2="14.569040705921937" class="delaunay-line"/>
<line x1="9.565437473260555" y1="14.569040705921937" x2="9.552677955718183" y2="14.763713324583222" class="delaunay-line"/>
<line x1="9.61538768451287" y1="14.948450228473197" x2="9.744019671900729" y2="15.095126898618815" class="delaunay-line"/>
<line x1="9.744019671900729" y1="15.095126898618815" x2="9.918990863853828" y2="15.18141314161773" class="delaunay-line"/>
<line x1="9.918990863853828" y1="15.18141314161773" x2="9.61538768451287" y2="14.948450228473197" class="delaunay-line"/>
<line x1="7.013009593736855" y1="20.22596016187396" x2="7.197746497626829" y2="20.288669890668643" class="delaunay-line"/>
<line x1="7.197746497626829" y1="20.288669890668643" x2="9.744019671900729" y2="15.095126898618815" class="delaunay-line"/>
<line x1="9.744019671900729" y1="15.095126898618815" x2="7.013009593736855" y2="20.22596016187396" class="delaunay-line"/>
<line x1="9.744019671900729" y1="15.095126898618815" x2="7.197746497626829" y2="20.288669890668643" class="delaunay-line"/>
<line x1="7.197746497626829" y1="20.288669890668643" x2="9.918990863853828" y2="15.18141314161773" class="delaunay-line"/>
<line x1="9.918990863853828" y1="15.18141314161773" x2="9.744019671900729" y2="15.095126898618815" class="delaunay-line"/>
<line x1="9.918990863853828" y1="15.18141314161773" x2="7.3444231677724465" y2="20.417301878056502" class="delaunay-line"/>
<line x1="7.3444231677724465" y1="20.417301878056502" x2="10.113663482515113" y2="15.194172659160103" class="delaunay-line"/>
<line x1="10.113663482515113" y1="15.194172659160103" x2="9.918990863853828" y2="15.18141314161773" class="delaunay-line"/>
<line x1="10.113663482515113" y1="15.194172659160103" x2="7.430709410771363" y2="20.592273070009604" class="delaunay-line"/>
<line x1="7.430709410771363" y1="20.592273070009604" x2="10.298400386405088" y2="15.131462930365416" class="delaunay-line"/>
<line x1="10.298400386405088" y1="15.131462930365416" x2="10.113663482515113" y2="15.194172659160103" class="delaunay-line"/>
<line x1="10.298400386405088" y1="15.131462930365416" x2="24" y2="24" class="delaunay-line"/>
<line x1="24" y1="24" x2="10.445077056550707" y2="15.002830942977557" class="delaunay-line"/>
<line x1="10.445077056550707" y1="15.002830942977557" x2="10.298400386405088" y2="15.131462930365416" class="delaunay-line"/>
<line x1="7.013009593736855" y1="20.22596016187396" x2="9.744019671900729" y2="15.095126898618815" class="delaunay-line"/>
<line x1="9.744019671900729" y1="15.095126898618815" x2="9.61538768451287" y2="14.948450228473197" class="delaunay-line"/>
<line x1="9.61538768451287" y1="14.948450228473197" x2="7.013009593736855" y2="20.22596016187396" class="delaunay-line"/>
<line x1="7.013009593736855" y1="20.22596016187396" x2="9.61538768451287" y2="14.948450228473197" class="delaunay-line"/>
<line x1="9.61538768451287" y1="14.948450228473197" x2="6.818336975075568" y2="20.238719679416327" class="delaunay-line"/>
<line x1="6.818336975075568" y1="20.238719679416327" x2="7.013009593736855" y2="20.22596016187396" class="delaunay-line"/>
<line x1="6.818336975075568" y1="20.238719679416327" x2="9.61538768451287" y2="14.948450228473197" class="delaunay-line"/>
<line x1="9.61538768451287" y1="14.948450228473197" x2="9.552677955718183" y2="14.763713324583222" class="delaunay-line"/>
<line x1="9.552677955718183" y1="14.763713324583222" x2="6.818336975075568" y2="20.238719679416327" class="delaunay-line"/>
<line x1="7.013009593736855" y1="20.22596016187396" x2="7.3444231677724465" y2="20.417301878056502" class="delaunay-line"/>
<line x1="7.3444231677724465" y1="20.417301878056502" x2="7.197746497626829" y2="20.288669890668643" class="delaunay-line"/>
<line x1="7.197746497626829" y1="20.288669890668643" x2="7.013009593736855" y2="20.22596016187396" class="delaunay-line"/>
<line x1="7.197746497626829" y1="20.288669890668643" x2="7.3444231677724465" y2="20.417301878056502" class="delaunay-line"/>
<line x1="7.3444231677724465" y1="20.417301878056502" x2="9.918990863853828" y2="15.18141314161773" class="delaunay-line"/>
<line x1="9.918990863853828" y1="15.18141314161773" x2="7.197746497626829" y2="20.288669890668643" class="delaunay-line"/>
<line x1="6.643365783122469" y1="20.325005922415247" x2="6.818336975075568" y2="20.238719679416327" class="delaunay-line"/>
<line x1="6.818336975075568" y1="20.238719679416327" x2="1.4736490766123862" y2="17.304313974531954" class="delaunay-line"/>
<line x1="1.4736490766123862" y1="17.304313974531954" x2="6.643365783122469" y2="20.325005922415247" class="delaunay-line"/>
<line x1="7.013009593736855" y1="20.22596016187396" x2="7.430709410771363" y2="20.592273070009604" class="delaunay-line"/>
<line x1="7.430709410771363" y1="20.592273070009604" x2="7.3444231677724465" y2="20.417301878056502" class="delaunay-line"/>
<line x1="7.3444231677724465" y1="20.417301878056502" x2="7.013009593736855" y2="20.22596016187396" class="delaunay-line"/>
<line x1="7.4434689283137345" y1="20.786945688670887" x2="7.430709410771363" y2="20.592273070009604" class="delaunay-line"/>
<line x1="7.430709410771363" y1="20.592273070009604" x2="7.252127212131189" y2="21.11835926270648" class="delaunay-line"/>
<line x1="7.252127212131189" y1="21.11835926270648" x2="7.4434689283137345" y2="20.786945688670887" class="delaunay-line"/>
<line x1="7.3444231677724465" y1="20.417301878056502" x2="7.430709410771363" y2="20.592273070009604" class="delaunay-line"/>
<line x1="7.430709410771363" y1="20.592273070009604" x2="10.113663482515113" y2="15.194172659160103" class="delaunay-line"/>
<line x1="10.113663482515113" y1="15.194172659160103" x2="7.3444231677724465" y2="20.417301878056502" class="delaunay-line"/>
<line x1="1.4736490766123862" y1="17.304313974531954" x2="6.818336975075568" y2="20.238719679416327" class="delaunay-line"/>
<line x1="6.818336975075568" y1="20.238719679416327" x2="9.552677955718183" y2="14.763713324583222" class="delaunay-line"/>
<line x1="9.552677955718183" y1="14.763713324583222" x2="1.4736490766123862" y2="17.304313974531954" class="delaunay-line"/>
<line x1="6.818336975075568" y1="20.238719679416327" x2="6.643365783122469" y2="20.325005922415247" class="delaunay-line"/>
<line x1="6.643365783122469" y1="20.325005922415247" x2="7.013009593736855" y2="20.22596016187396" class="delaunay-line"/>
<line x1="7.013009593736855" y1="20.22596016187396" x2="6.818336975075568" y2="20.238719679416327" class="delaunay-line"/>
<line x1="6.514733795734609" y1="20.471682592560864" x2="6.643365783122469" y2="20.325005922415247" class="delaunay-line"/>
<line x1="6.643365783122469" y1="20.325005922415247" x2="1.4864085941547582" y2="17.49898659319324" class="delaunay-line"/>
<line x1="1.4864085941547582" y1="17.49898659319324" x2="6.514733795734609" y2="20.471682592560864" class="delaunay-line"/>
<line x1="7.252127212131189" y1="21.11835926270648" x2="7.430709410771363" y2="20.592273070009604" class="delaunay-line"/>
<line x1="7.430709410771363" y1="20.592273070009604" x2="7.013009593736855" y2="20.22596016187396" class="delaunay-line"/>
<line x1="7.013009593736855" y1="20.22596016187396" x2="7.252127212131189" y2="21.11835926270648" class="delaunay-line"/>
<line x1="7.430709410771363" y1="20.592273070009604" x2="7.4434689283137345" y2="20.786945688670887" class="delaunay-line"/>
<line x1="7.4434689283137345" y1="20.786945688670887" x2="10.298400386405088" y2="15.131462930365416" class="delaunay-line"/>
<line x1="10.298400386405088" y1="15.131462930365416" x2="7.430709410771363" y2="20.592273070009604" class="delaunay-line"/>
<line x1="1.4736490766123862" y1="17.304313974531954" x2="9.552677955718183" y2="14.763713324583222" class="delaunay-line"/>
<line x1="9.552677955718183" y1="14.763713324583222" x2="1.3873628336134698" y2="17.129342782578853" class="delaunay-line"/>
<line x1="1.3873628336134698" y1="17.129342782578853" x2="1.4736490766123862" y2="17.304313974531954" class="delaunay-line"/>
<line x1="7.252127212131189" y1="21.11835926270648" x2="7.380759199519049" y2="20.971682592560864" class="delaunay-line"/>
<line x1="7.380759199519049" y1="20.971682592560864" x2="7.4434689283137345" y2="20.786945688670887" class="delaunay-line"/>
<line x1="7.4434689283137345" y1="20.786945688670887" x2="7.252127212131189" y2="21.11835926270648" class="delaunay-line"/>
<line x1="7.252127212131189" y1="21.11835926270648" x2="7.013009593736855" y2="20.22596016187396" class="delaunay-line"/>
<line x1="7.013009593736855" y1="20.22596016187396" x2="6.8824834015168035" y2="21.217405023247768" class="delaunay-line"/>
<line x1="6.8824834015168035" y1="21.217405023247768" x2="7.252127212131189" y2="21.11835926270648" class="delaunay-line"/>
<line x1="7.4434689283137345" y1="20.786945688670887" x2="24" y2="24" class="delaunay-line"/>
<line x1="24" y1="24" x2="10.298400386405088" y2="15.131462930365416" class="delaunay-line"/>
<line x1="10.298400386405088" y1="15.131462930365416" x2="7.4434689283137345" y2="20.786945688670887" class="delaunay-line"/>
<line x1="6.514733795734609" y1="20.471682592560864" x2="6.452024066939924" y2="20.65641949645084" class="delaunay-line"/>
<line x1="6.452024066939924" y1="20.65641949645084" x2="6.643365783122469" y2="20.325005922415247" class="delaunay-line"/>
<line x1="6.643365783122469" y1="20.325005922415247" x2="6.514733795734609" y2="20.471682592560864" class="delaunay-line"/>
<line x1="6.8824834015168035" y1="21.217405023247768" x2="7.013009593736855" y2="20.22596016187396" class="delaunay-line"/>
<line x1="7.013009593736855" y1="20.22596016187396" x2="6.643365783122469" y2="20.325005922415247" class="delaunay-line"/>
<line x1="6.643365783122469" y1="20.325005922415247" x2="6.8824834015168035" y2="21.217405023247768" class="delaunay-line"/>
<line x1="6.452024066939924" y1="20.65641949645084" x2="6.464783584482295" y2="20.851092115112124" class="delaunay-line"/>
<line x1="6.464783584482295" y1="20.851092115112124" x2="6.643365783122469" y2="20.325005922415247" class="delaunay-line"/>
<line x1="6.643365783122469" y1="20.325005922415247" x2="6.452024066939924" y2="20.65641949645084" class="delaunay-line"/>
<line x1="6.8824834015168035" y1="21.217405023247768" x2="7.07715602017809" y2="21.2046455057054" class="delaunay-line"/>
<line x1="7.07715602017809" y1="21.2046455057054" x2="7.252127212131189" y2="21.11835926270648" class="delaunay-line"/>
<line x1="7.252127212131189" y1="21.11835926270648" x2="6.8824834015168035" y2="21.217405023247768" class="delaunay-line"/>
<line x1="6.464783584482295" y1="20.851092115112124" x2="6.8824834015168035" y2="21.217405023247768" class="delaunay-line"/>
<line x1="6.8824834015168035" y1="21.217405023247768" x2="6.643365783122469" y2="20.325005922415247" class="delaunay-line"/>
<line x1="6.643365783122469" y1="20.325005922415247" x2="6.464783584482295" y2="20.851092115112124" class="delaunay-line"/>
<line x1="6.551069827481212" y1="21.026063307065225" x2="6.8824834015168035" y2="21.217405023247768" class="delaunay-line"/>
<line x1="6.8824834015168035" y1="21.217405023247768" x2="6.464783584482295" y2="20.851092115112124" class="delaunay-line"/>
<line x1="6.464783584482295" y1="20.851092115112124" x2="6.551069827481212" y2="21.026063307065225" class="delaunay-line"/>
<line x1="6.551069827481212" y1="21.026063307065225" x2="6.697746497626829" y2="21.154695294453084" class="delaunay-line"/>
<line x1="6.697746497626829" y1="21.154695294453084" x2="6.8824834015168035" y2="21.217405023247768" class="delaunay-line"/>
<line x1="6.8824834015168035" y1="21.217405023247768" x2="6.551069827481212" y2="21.026063307065225" class="delaunay-line"/>
<line x1="4.3926301542575334" y1="9.059496405936033" x2="4.2842437785951635" y2="9.22170808034676" class="delaunay-line"/>
<line x1="4.2842437785951635" y1="9.22170808034676" x2="9.798400386405088" y2="14.265437526580978" class="delaunay-line"/>
<line x1="9.798400386405088" y1="14.265437526580978" x2="4.3926301542575334" y2="9.059496405936033" class="delaunay-line"/>
<line x1="9.798400386405088" y1="14.265437526580978" x2="4.2842437785951635" y2="9.22170808034676" class="delaunay-line"/>
<line x1="4.2842437785951635" y1="9.22170808034676" x2="9.65172371625947" y2="14.394069513968837" class="delaunay-line"/>
<line x1="9.65172371625947" y1="14.394069513968837" x2="9.798400386405088" y2="14.265437526580978" class="delaunay-line"/>
<line x1="9.65172371625947" y1="14.394069513968837" x2="4.122032104184434" y2="9.33009445600913" class="delaunay-line"/>
<line x1="4.122032104184434" y1="9.33009445600913" x2="9.565437473260555" y2="14.569040705921937" class="delaunay-line"/>
<line x1="9.565437473260555" y1="14.569040705921937" x2="9.65172371625947" y2="14.394069513968837" class="delaunay-line"/>
<line x1="6.514733795734609" y1="20.471682592560864" x2="1.423698865360072" y2="17.683723497083214" class="delaunay-line"/>
<line x1="1.423698865360072" y1="17.683723497083214" x2="6.452024066939924" y2="20.65641949645084" class="delaunay-line"/>
<line x1="6.452024066939924" y1="20.65641949645084" x2="6.514733795734609" y2="20.471682592560864" class="delaunay-line"/>
<line x1="6.452024066939924" y1="20.65641949645084" x2="1.2950668779722125" y2="17.830400167228834" class="delaunay-line"/>
<line x1="1.2950668779722125" y1="17.830400167228834" x2="6.464783584482295" y2="20.851092115112124" class="delaunay-line"/>
<line x1="6.464783584482295" y1="20.851092115112124" x2="6.452024066939924" y2="20.65641949645084" class="delaunay-line"/>
<line x1="4.3926301542575334" y1="9.059496405936033" x2="9.798400386405088" y2="14.265437526580978" class="delaunay-line"/>
<line x1="9.798400386405088" y1="14.265437526580978" x2="9.983137290295064" y2="14.202727797786292" class="delaunay-line"/>
<line x1="9.983137290295064" y1="14.202727797786292" x2="4.3926301542575334" y2="9.059496405936033" class="delaunay-line"/>
<line x1="4.3926301542575334" y1="9.059496405936033" x2="9.983137290295064" y2="14.202727797786292" class="delaunay-line"/>
<line x1="9.983137290295064" y1="14.202727797786292" x2="4.4306903880018895" y2="8.868154689753487" class="delaunay-line"/>
<line x1="4.4306903880018895" y1="8.868154689753487" x2="4.3926301542575334" y2="9.059496405936033" class="delaunay-line"/>
<line x1="4.4306903880018895" y1="8.868154689753487" x2="9.983137290295064" y2="14.202727797786292" class="delaunay-line"/>
<line x1="9.983137290295064" y1="14.202727797786292" x2="10.177809908956348" y2="14.215487315328664" class="delaunay-line"/>
<line x1="10.177809908956348" y1="14.215487315328664" x2="4.4306903880018895" y2="8.868154689753487" class="delaunay-line"/>
<line x1="3.4306903880018904" y1="8.868154689753487" x2="4.122032104184434" y2="9.33009445600913" class="delaunay-line"/>
<line x1="4.122032104184434" y1="9.33009445600913" x2="4.2842437785951635" y2="9.22170808034676" class="delaunay-line"/>
<line x1="4.2842437785951635" y1="9.22170808034676" x2="3.4306903880018904" y2="8.868154689753487" class="delaunay-line"/>
<line x1="4.2842437785951635" y1="9.22170808034676" x2="4.122032104184434" y2="9.33009445600913" class="delaunay-line"/>
<line x1="4.122032104184434" y1="9.33009445600913" x2="9.65172371625947" y2="14.394069513968837" class="delaunay-line"/>
<line x1="9.65172371625947" y1="14.394069513968837" x2="4.2842437785951635" y2="9.22170808034676" class="delaunay-line"/>
<line x1="4.3926301542575334" y1="8.676812973570943" x2="4.4306903880018895" y2="8.868154689753487" class="delaunay-line"/>
<line x1="4.4306903880018895" y1="8.868154689753487" x2="10.177809908956348" y2="14.215487315328664" class="delaunay-line"/>
<line x1="10.177809908956348" y1="14.215487315328664" x2="4.3926301542575334" y2="8.676812973570943" class="delaunay-line"/>
<line x1="4.3926301542575334" y1="9.059496405936033" x2="4.4306903880018895" y2="8.868154689753487" class="delaunay-line"/>
<line x1="4.4306903880018895" y1="8.868154689753487" x2="4.2842437785951635" y2="9.22170808034676" class="delaunay-line"/>
<line x1="4.2842437785951635" y1="9.22170808034676" x2="4.3926301542575334" y2="9.059496405936033" class="delaunay-line"/>
<line x1="3.577136997408616" y1="9.221708080346762" x2="3.4306903880018904" y2="8.868154689753487" class="delaunay-line"/>
<line x1="3.4306903880018904" y1="8.868154689753487" x2="3.4687506217462456" y2="9.05949640593603" class="delaunay-line"/>
<line x1="3.4687506217462456" y1="9.05949640593603" x2="3.577136997408616" y2="9.221708080346762" class="delaunay-line"/>
<line x1="4.122032104184434" y1="9.33009445600913" x2="3.9306903880018895" y2="9.368154689753487" class="delaunay-line"/>
<line x1="3.9306903880018895" y1="9.368154689753487" x2="9.565437473260555" y2="14.569040705921937" class="delaunay-line"/>
<line x1="9.565437473260555" y1="14.569040705921937" x2="4.122032104184434" y2="9.33009445600913" class="delaunay-line"/>
<line x1="24" y1="0" x2="4.3926301542575334" y2="8.676812973570943" class="delaunay-line"/>
<line x1="4.3926301542575334" y1="8.676812973570943" x2="10.177809908956348" y2="14.215487315328664" class="delaunay-line"/>
<line x1="10.177809908956348" y1="14.215487315328664" x2="24" y2="0" class="delaunay-line"/>
<line x1="4.4306903880018895" y1="8.868154689753487" x2="4.2842437785951635" y2="8.514601299160214" class="delaunay-line"/>
<line x1="4.2842437785951635" y1="8.514601299160214" x2="4.2842437785951635" y2="9.22170808034676" class="delaunay-line"/>
<line x1="4.2842437785951635" y1="9.22170808034676" x2="4.4306903880018895" y2="8.868154689753487" class="delaunay-line"/>
<line x1="3.577136997408616" y1="9.221708080346762" x2="3.7393486718193456" y2="9.330094456009132" class="delaunay-line"/>
<line x1="3.7393486718193456" y1="9.330094456009132" x2="3.9306903880018895" y2="9.368154689753487" class="delaunay-line"/>
<line x1="3.9306903880018895" y1="9.368154689753487" x2="3.577136997408616" y2="9.221708080346762" class="delaunay-line"/>
<line x1="1.3873628336134698" y1="17.129342782578853" x2="9.552677955718183" y2="14.763713324583222" class="delaunay-line"/>
<line x1="9.552677955718183" y1="14.763713324583222" x2="9.565437473260555" y2="14.569040705921937" class="delaunay-line"/>
<line x1="9.565437473260555" y1="14.569040705921937" x2="1.3873628336134698" y2="17.129342782578853" class="delaunay-line"/>
<line x1="24" y1="0" x2="4.2842437785951635" y2="8.514601299160214" class="delaunay-line"/>
<line x1="4.2842437785951635" y1="8.514601299160214" x2="4.3926301542575334" y2="8.676812973570943" class="delaunay-line"/>
<line x1="4.3926301542575334" y1="8.676812973570943" x2="24" y2="0" class="delaunay-line"/>
<line x1="4.3926301542575334" y1="8.676812973570943" x2="4.2842437785951635" y2="8.514601299160214" class="delaunay-line"/>
<line x1="4.2842437785951635" y1="8.514601299160214" x2="4.4306903880018895" y2="8.868154689753487" class="delaunay-line"/>
<line x1="4.4306903880018895" y1="8.868154689753487" x2="4.3926301542575334" y2="8.676812973570943" class="delaunay-line"/>
<line x1="3.577136997408616" y1="9.221708080346762" x2="3.9306903880018895" y2="9.368154689753487" class="delaunay-line"/>
<line x1="3.9306903880018895" y1="9.368154689753487" x2="3.4306903880018904" y2="8.868154689753487" class="delaunay-line"/>
<line x1="3.4306903880018904" y1="8.868154689753487" x2="3.577136997408616" y2="9.221708080346762" class="delaunay-line"/>
<line x1="1.3873628336134698" y1="17.129342782578853" x2="9.565437473260555" y2="14.569040705921937" class="delaunay-line"/>
<line x1="9.565437473260555" y1="14.569040705921937" x2="3.9306903880018895" y2="9.368154689753487" class="delaunay-line"/>
<line x1="3.9306903880018895" y1="9.368154689753487" x2="1.3873628336134698" y2="17.129342782578853" class="delaunay-line"/>
<line x1="3.4306903880018904" y1="8.868154689753487" x2="3.9306903880018895" y2="9.368154689753487" class="delaunay-line"/>
<line x1="3.9306903880018895" y1="9.368154689753487" x2="4.122032104184434" y2="9.33009445600913" class="delaunay-line"/>
<line x1="4.122032104184434" y1="9.33009445600913" x2="3.4306903880018904" y2="8.868154689753487" class="delaunay-line"/>
<line x1="3.4306903880018904" y1="8.868154689753487" x2="4.2842437785951635" y2="9.22170808034676" class="delaunay-line"/>
<line x1="4.2842437785951635" y1="9.22170808034676" x2="4.2842437785951635" y2="8.514601299160214" class="delaunay-line"/>
<line x1="4.2842437785951635" y1="8.514601299160214" x2="3.4306903880018904" y2="8.868154689753487" class="delaunay-line"/>
<line x1="1.3873628336134698" y1="17.129342782578853" x2="3.9306903880018895" y2="9.368154689753487" class="delaunay-line"/>
<line x1="3.9306903880018895" y1="9.368154689753487" x2="1.2406861634678525" y2="17.000710795190994" class="delaunay-line"/>
<line x1="1.2406861634678525" y1="17.000710795190994" x2="1.3873628336134698" y2="17.129342782578853" class="delaunay-line"/>
<line x1="4.122032104184434" y1="8.406214923497842" x2="3.93069038800189" y2="8.368154689753487" class="delaunay-line"/>
<line x1="3.93069038800189" y1="8.368154689753487" x2="4.2842437785951635" y2="8.514601299160214" class="delaunay-line"/>
<line x1="4.2842437785951635" y1="8.514601299160214" x2="4.122032104184434" y2="8.406214923497842" class="delaunay-line"/>
<line x1="3.577136997408616" y1="8.514601299160214" x2="3.4306903880018904" y2="8.868154689753487" class="delaunay-line"/>
<line x1="3.4306903880018904" y1="8.868154689753487" x2="4.2842437785951635" y2="8.514601299160214" class="delaunay-line"/>
<line x1="4.2842437785951635" y1="8.514601299160214" x2="3.577136997408616" y2="8.514601299160214" class="delaunay-line"/>
<line x1="3.93069038800189" y1="8.368154689753487" x2="3.739348671819345" y2="8.406214923497844" class="delaunay-line"/>
<line x1="3.739348671819345" y1="8.406214923497844" x2="4.2842437785951635" y2="8.514601299160214" class="delaunay-line"/>
<line x1="4.2842437785951635" y1="8.514601299160214" x2="3.93069038800189" y2="8.368154689753487" class="delaunay-line"/>
<line x1="3.577136997408616" y1="8.514601299160214" x2="3.4687506217462465" y2="8.676812973570941" class="delaunay-line"/>
<line x1="3.4687506217462465" y1="8.676812973570941" x2="3.4306903880018904" y2="8.868154689753487" class="delaunay-line"/>
<line x1="3.4306903880018904" y1="8.868154689753487" x2="3.577136997408616" y2="8.514601299160214" class="delaunay-line"/>
<line x1="3.739348671819345" y1="8.406214923497844" x2="3.577136997408616" y2="8.514601299160214" class="delaunay-line"/>
<line x1="3.577136997408616" y1="8.514601299160214" x2="4.2842437785951635" y2="8.514601299160214" class="delaunay-line"/>
<line x1="4.2842437785951635" y1="8.514601299160214" x2="3.739348671819345" y2="8.406214923497844" class="delaunay-line"/>
<line x1="3.577136997408616" y1="9.221708080346762" x2="1.055949259577878" y2="16.93800106639631" class="delaunay-line"/>
<line x1="1.055949259577878" y1="16.93800106639631" x2="3.7393486718193456" y2="9.330094456009132" class="delaunay-line"/>
<line x1="3.7393486718193456" y1="9.330094456009132" x2="3.577136997408616" y2="9.221708080346762" class="delaunay-line"/>
<line x1="3.7393486718193456" y1="9.330094456009132" x2="1.055949259577878" y2="16.93800106639631" class="delaunay-line"/>
<line x1="1.055949259577878" y1="16.93800106639631" x2="1.2406861634678525" y2="17.000710795190994" class="delaunay-line"/>
<line x1="1.2406861634678525" y1="17.000710795190994" x2="3.7393486718193456" y2="9.330094456009132" class="delaunay-line"/>
<line x1="3.9306903880018895" y1="9.368154689753487" x2="3.7393486718193456" y2="9.330094456009132" class="delaunay-line"/>
<line x1="3.7393486718193456" y1="9.330094456009132" x2="1.2406861634678525" y2="17.000710795190994" class="delaunay-line"/>
<line x1="1.2406861634678525" y1="17.000710795190994" x2="3.9306903880018895" y2="9.368154689753487" class="delaunay-line"/>
<line x1="6.464783584482295" y1="20.851092115112124" x2="0" y2="24" class="delaunay-line"/>
<line x1="0" y1="24" x2="6.551069827481212" y2="21.026063307065225" class="delaunay-line"/>
<line x1="6.551069827481212" y1="21.026063307065225" x2="6.464783584482295" y2="20.851092115112124" class="delaunay-line"/>
<line x1="6.551069827481212" y1="21.026063307065225" x2="0" y2="24" class="delaunay-line"/>
<line x1="0" y1="24" x2="6.697746497626829" y2="21.154695294453084" class="delaunay-line"/>
<line x1="6.697746497626829" y1="21.154695294453084" x2="6.551069827481212" y2="21.026063307065225" class="delaunay-line"/>
<line x1="3.577136997408616" y1="9.221708080346762" x2="0.8612766409165918" y2="16.950760583938678" class="delaunay-line"/>
<line x1="0.8612766409165918" y1="16.950760583938678" x2="1.055949259577878" y2="16.93800106639631" class="delaunay-line"/>
<line x1="1.055949259577878" y1="16.93800106639631" x2="3.577136997408616" y2="9.221708080346762" class="delaunay-line"/>
<line x1="1.423698865360072" y1="17.683723497083214" x2="1.4864085941547582" y2="17.49898659319324" class="delaunay-line"/>
<line x1="1.4864085941547582" y1="17.49898659319324" x2="1.4736490766123862" y2="17.304313974531954" class="delaunay-line"/>
<line x1="1.4736490766123862" y1="17.304313974531954" x2="1.423698865360072" y2="17.683723497083214" class="delaunay-line"/>
<line x1="1.4736490766123862" y1="17.304313974531954" x2="1.4864085941547582" y2="17.49898659319324" class="delaunay-line"/>
<line x1="1.4864085941547582" y1="17.49898659319324" x2="6.643365783122469" y2="20.325005922415247" class="delaunay-line"/>
<line x1="6.643365783122469" y1="20.325005922415247" x2="1.4736490766123862" y2="17.304313974531954" class="delaunay-line"/>
<line x1="3.577136997408616" y1="9.221708080346762" x2="3.4687506217462456" y2="9.05949640593603" class="delaunay-line"/>
<line x1="3.4687506217462456" y1="9.05949640593603" x2="0.8612766409165918" y2="16.950760583938678" class="delaunay-line"/>
<line x1="0.8612766409165918" y1="16.950760583938678" x2="3.577136997408616" y2="9.221708080346762" class="delaunay-line"/>
<line x1="1.3873628336134698" y1="17.129342782578853" x2="1.055949259577878" y2="16.93800106639631" class="delaunay-line"/>
<line x1="1.055949259577878" y1="16.93800106639631" x2="1.4736490766123862" y2="17.304313974531954" class="delaunay-line"/>
<line x1="1.4736490766123862" y1="17.304313974531954" x2="1.3873628336134698" y2="17.129342782578853" class="delaunay-line"/>
<line x1="0.9254230673578272" y1="17.929445927770118" x2="1.423698865360072" y2="17.683723497083214" class="delaunay-line"/>
<line x1="1.423698865360072" y1="17.683723497083214" x2="1.4736490766123862" y2="17.304313974531954" class="delaunay-line"/>
<line x1="1.4736490766123862" y1="17.304313974531954" x2="0.9254230673578272" y2="17.929445927770118" class="delaunay-line"/>
<line x1="1.4864085941547582" y1="17.49898659319324" x2="1.423698865360072" y2="17.683723497083214" class="delaunay-line"/>
<line x1="1.423698865360072" y1="17.683723497083214" x2="6.514733795734609" y2="20.471682592560864" class="delaunay-line"/>
<line x1="6.514733795734609" y1="20.471682592560864" x2="1.4864085941547582" y2="17.49898659319324" class="delaunay-line"/>
<line x1="0.8612766409165918" y1="16.950760583938678" x2="3.4687506217462456" y2="9.05949640593603" class="delaunay-line"/>
<line x1="3.4687506217462456" y1="9.05949640593603" x2="0.6863054489634928" y2="17.037046826937594" class="delaunay-line"/>
<line x1="0.6863054489634928" y1="17.037046826937594" x2="0.8612766409165918" y2="16.950760583938678" class="delaunay-line"/>
<line x1="1.2406861634678525" y1="17.000710795190994" x2="1.055949259577878" y2="16.93800106639631" class="delaunay-line"/>
<line x1="1.055949259577878" y1="16.93800106639631" x2="1.3873628336134698" y2="17.129342782578853" class="delaunay-line"/>
<line x1="1.3873628336134698" y1="17.129342782578853" x2="1.2406861634678525" y2="17.000710795190994" class="delaunay-line"/>
<line x1="1.1200956860191134" y1="17.91668641022775" x2="1.2950668779722125" y2="17.830400167228834" class="delaunay-line"/>
<line x1="1.2950668779722125" y1="17.830400167228834" x2="0.9254230673578272" y2="17.929445927770118" class="delaunay-line"/>
<line x1="0.9254230673578272" y1="17.929445927770118" x2="1.1200956860191134" y2="17.91668641022775" class="delaunay-line"/>
<line x1="1.423698865360072" y1="17.683723497083214" x2="1.2950668779722125" y2="17.830400167228834" class="delaunay-line"/>
<line x1="1.2950668779722125" y1="17.830400167228834" x2="6.452024066939924" y2="20.65641949645084" class="delaunay-line"/>
<line x1="6.452024066939924" y1="20.65641949645084" x2="1.423698865360072" y2="17.683723497083214" class="delaunay-line"/>
<line x1="0.6863054489634928" y1="17.037046826937594" x2="3.4687506217462456" y2="9.05949640593603" class="delaunay-line"/>
<line x1="3.4687506217462456" y1="9.05949640593603" x2="3.4306903880018904" y2="8.868154689753487" class="delaunay-line"/>
<line x1="3.4306903880018904" y1="8.868154689753487" x2="0.6863054489634928" y2="17.037046826937594" class="delaunay-line"/>
<line x1="0.9254230673578272" y1="17.929445927770118" x2="1.2950668779722125" y2="17.830400167228834" class="delaunay-line"/>
<line x1="1.2950668779722125" y1="17.830400167228834" x2="1.423698865360072" y2="17.683723497083214" class="delaunay-line"/>
<line x1="1.423698865360072" y1="17.683723497083214" x2="0.9254230673578272" y2="17.929445927770118" class="delaunay-line"/>
<line x1="0.9254230673578272" y1="17.929445927770118" x2="1.4736490766123862" y2="17.304313974531954" class="delaunay-line"/>
<line x1="1.4736490766123862" y1="17.304313974531954" x2="1.055949259577878" y2="16.93800106639631" class="delaunay-line"/>
<line x1="1.055949259577878" y1="16.93800106639631" x2="0.9254230673578272" y2="17.929445927770118" class="delaunay-line"/>
<line x1="1.2950668779722125" y1="17.830400167228834" x2="1.1200956860191134" y2="17.91668641022775" class="delaunay-line"/>
<line x1="1.1200956860191134" y1="17.91668641022775" x2="6.464783584482295" y2="20.851092115112124" class="delaunay-line"/>
<line x1="6.464783584482295" y1="20.851092115112124" x2="1.2950668779722125" y2="17.830400167228834" class="delaunay-line"/>
<line x1="0.5576734615756332" y1="17.183723497083214" x2="0.6863054489634928" y2="17.037046826937594" class="delaunay-line"/>
<line x1="0.6863054489634928" y1="17.037046826937594" x2="3.4306903880018904" y2="8.868154689753487" class="delaunay-line"/>
<line x1="3.4306903880018904" y1="8.868154689753487" x2="0.5576734615756332" y2="17.183723497083214" class="delaunay-line"/>
<line x1="0.8612766409165918" y1="16.950760583938678" x2="0.6863054489634928" y2="17.037046826937594" class="delaunay-line"/>
<line x1="0.6863054489634928" y1="17.037046826937594" x2="1.055949259577878" y2="16.93800106639631" class="delaunay-line"/>
<line x1="1.055949259577878" y1="16.93800106639631" x2="0.8612766409165918" y2="16.950760583938678" class="delaunay-line"/>
<line x1="0.5077232503233188" y1="17.563133019634474" x2="0.9254230673578272" y2="17.929445927770118" class="delaunay-line"/>
<line x1="0.9254230673578272" y1="17.929445927770118" x2="1.055949259577878" y2="16.93800106639631" class="delaunay-line"/>
<line x1="1.055949259577878" y1="16.93800106639631" x2="0.5077232503233188" y2="17.563133019634474" class="delaunay-line"/>
<line x1="1.1200956860191134" y1="17.91668641022775" x2="0" y2="24" class="delaunay-line"/>
<line x1="0" y1="24" x2="6.464783584482295" y2="20.851092115112124" class="delaunay-line"/>
<line x1="6.464783584482295" y1="20.851092115112124" x2="1.1200956860191134" y2="17.91668641022775" class="delaunay-line"/>
<line x1="0" y1="0" x2="0.5576734615756332" y2="17.183723497083214" class="delaunay-line"/>
<line x1="0.5576734615756332" y1="17.183723497083214" x2="3.4306903880018904" y2="8.868154689753487" class="delaunay-line"/>
<line x1="3.4306903880018904" y1="8.868154689753487" x2="0" y2="0" class="delaunay-line"/>
<line x1="0.6863054489634928" y1="17.037046826937594" x2="0.5576734615756332" y2="17.183723497083214" class="delaunay-line"/>
<line x1="0.5576734615756332" y1="17.183723497083214" x2="1.055949259577878" y2="16.93800106639631" class="delaunay-line"/>
<line x1="1.055949259577878" y1="16.93800106639631" x2="0.6863054489634928" y2="17.037046826937594" class="delaunay-line"/>
<line x1="0.5940094933222351" y1="17.738104211587576" x2="0.7406861634678525" y2="17.866736198975435" class="delaunay-line"/>
<line x1="0.7406861634678525" y1="17.866736198975435" x2="0.9254230673578272" y2="17.929445927770118" class="delaunay-line"/>
<line x1="0.9254230673578272" y1="17.929445927770118" x2="0.5940094933222351" y2="17.738104211587576" class="delaunay-line"/>
<line x1="0.9254230673578272" y1="17.929445927770118" x2="0" y2="24" class="delaunay-line"/>
<line x1="0" y1="24" x2="1.1200956860191134" y2="17.91668641022775" class="delaunay-line"/>
<line x1="1.1200956860191134" y1="17.91668641022775" x2="0.9254230673578272" y2="17.929445927770118" class="delaunay-line"/>
<line x1="0.5576734615756332" y1="17.183723497083214" x2="0.5077232503233188" y2="17.563133019634474" class="delaunay-line"/>
<line x1="0.5077232503233188" y1="17.563133019634474" x2="1.055949259577878" y2="16.93800106639631" class="delaunay-line"/>
<line x1="1.055949259577878" y1="16.93800106639631" x2="0.5576734615756332" y2="17.183723497083214" class="delaunay-line"/>
<line x1="0.5077232503233188" y1="17.563133019634474" x2="0.5940094933222351" y2="17.738104211587576" class="delaunay-line"/>
<line x1="0.5940094933222351" y1="17.738104211587576" x2="0.9254230673578272" y2="17.929445927770118" class="delaunay-line"/>
<line x1="0.9254230673578272" y1="17.929445927770118" x2="0.5077232503233188" y2="17.563133019634474" class="delaunay-line"/>
<line x1="0.4949637327809471" y1="17.368460400973188" x2="0.5077232503233188" y2="17.563133019634474" class="delaunay-line"/>
<line x1="0.5077232503233188" y1="17.563133019634474" x2="0.5576734615756332" y2="17.183723497083214" class="delaunay-line"/>
<line x1="0.5576734615756332" y1="17.183723497083214" x2="0.4949637327809471" y2="17.368460400973188" class="delaunay-line"/>
<line x1="0.4949637327809471" y1="17.368460400973188" x2="0" y2="24" class="delaunay-line"/>
<line x1="0" y1="24" x2="0.5077232503233188" y2="17.563133019634474" class="delaunay-line"/>
<line x1="0.5077232503233188" y1="17.563133019634474" x2="0.4949637327809471" y2="17.368460400973188" class="delaunay-line"/>
<line x1="0.5077232503233188" y1="17.563133019634474" x2="0" y2="24" class="delaunay-line"/>
<line x1="0" y1="24" x2="0.5940094933222351" y2="17.738104211587576" class="delaunay-line"/>
<line x1="0.5940094933222351" y1="17.738104211587576" x2="0.5077232503233188" y2="17.563133019634474" class="delaunay-line"/>
<line x1="0.5940094933222351" y1="17.738104211587576" x2="0" y2="24" class="delaunay-line"/>
<line x1="0" y1="24" x2="0.7406861634678525" y2="17.866736198975435" class="delaunay-line"/>
<line x1="0.7406861634678525" y1="17.866736198975435" x2="0.5940094933222351" y2="17.738104211587576" class="delaunay-line"/>
<line x1="0.7406861634678525" y1="17.866736198975435" x2="0" y2="24" class="delaunay-line"/>
<line x1="0" y1="24" x2="0.9254230673578272" y2="17.929445927770118" class="delaunay-line"/>
<line x1="0.9254230673578272" y1="17.929445927770118" x2="0.7406861634678525" y2="17.866736198975435" class="delaunay-line"/>
<line x1="6.697746497626829" y1="21.154695294453084" x2="0" y2="24" class="delaunay-line"/>
<line x1="0" y1="24" x2="6.8824834015168035" y2="21.217405023247768" class="delaunay-line"/>
<line x1="6.8824834015168035" y1="21.217405023247768" x2="6.697746497626829" y2="21.154695294453084" class="delaunay-line"/>
<line x1="6.8824834015168035" y1="21.217405023247768" x2="0" y2="24" class="delaunay-line"/>
<line x1="0" y1="24" x2="7.07715602017809" y2="21.2046455057054" class="delaunay-line"/>
<line x1="7.07715602017809" y1="21.2046455057054" x2="6.8824834015168035" y2="21.217405023247768" class="delaunay-line"/>
<line x1="0" y1="24" x2="24" y2="24" class="delaunay-line"/>
<line x1="24" y1="24" x2="7.07715602017809" y2="21.2046455057054" class="delaunay-line"/>
<line x1="7.07715602017809" y1="21.2046455057054" x2="0" y2="24" class="delaunay-line"/>
<line x1="7.07715602017809" y1="21.2046455057054" x2="24" y2="24" class="delaunay-line"/>
<line x1="24" y1="24" x2="7.252127212131189" y2="21.11835926270648" class="delaunay-line"/>
<line x1="7.252127212131189" y1="21.11835926270648" x2="7.07715602017809" y2="21.2046455057054" class="delaunay-line"/>
<line x1="7.252127212131189" y1="21.11835926270648" x2="24" y2="24" class="delaunay-line"/>
<line x1="24" y1="24" x2="7.380759199519049" y2="20.971682592560864" class="delaunay-line"/>
<line x1="7.380759199519049" y1="20.971682592560864" x2="7.252127212131189" y2="21.11835926270648" class="delaunay-line"/>
<line x1="7.380759199519049" y1="20.971682592560864" x2="24" y2="24" class="delaunay-line"/>
<line x1="24" y1="24" x2="7.4434689283137345" y2="20.786945688670887" class="delaunay-line"/>
<line x1="7.4434689283137345" y1="20.786945688670887" x2="7.380759199519049" y2="20.971682592560864" class="delaunay-line"/>
<line x1="10.445077056550707" y1="15.002830942977557" x2="24" y2="24" class="delaunay-line"/>
<line x1="24" y1="24" x2="10.531363299549621" y2="14.827859751024457" class="delaunay-line"/>
<line x1="10.531363299549621" y1="14.827859751024457" x2="10.445077056550707" y2="15.002830942977557" class="delaunay-line"/>
<line x1="10.531363299549621" y1="14.827859751024457" x2="24" y2="24" class="delaunay-line"/>
<line x1="24" y1="24" x2="10.544122817091994" y2="14.633187132363172" class="delaunay-line"/>
<line x1="10.544122817091994" y1="14.633187132363172" x2="10.531363299549621" y2="14.827859751024457" class="delaunay-line"/>
<line x1="10.544122817091994" y1="14.633187132363172" x2="24" y2="0" class="delaunay-line"/>
<line x1="24" y1="0" x2="10.481413088297307" y2="14.448450228473197" class="delaunay-line"/>
<line x1="10.481413088297307" y1="14.448450228473197" x2="10.544122817091994" y2="14.633187132363172" class="delaunay-line"/>
<line x1="10.481413088297307" y1="14.448450228473197" x2="24" y2="0" class="delaunay-line"/>
<line x1="24" y1="0" x2="10.352781100909448" y2="14.301773558327579" class="delaunay-line"/>
<line x1="10.352781100909448" y1="14.301773558327579" x2="10.481413088297307" y2="14.448450228473197" class="delaunay-line"/>
<line x1="24" y1="0" x2="0" y2="0" class="delaunay-line"/>
<line x1="0" y1="0" x2="4.2842437785951635" y2="8.514601299160214" class="delaunay-line"/>
<line x1="4.2842437785951635" y1="8.514601299160214" x2="24" y2="0" class="delaunay-line"/>
<line x1="3.577136997408616" y1="8.514601299160214" x2="0" y2="0" class="delaunay-line"/>
<line x1="0" y1="0" x2="3.4687506217462465" y2="8.676812973570941" class="delaunay-line"/>
<line x1="3.4687506217462465" y1="8.676812973570941" x2="3.577136997408616" y2="8.514601299160214" class="delaunay-line"/>
<line x1="3.4687506217462465" y1="8.676812973570941" x2="0" y2="0" class="delaunay-line"/>
<line x1="0" y1="0" x2="3.4306903880018904" y2="8.868154689753487" class="delaunay-line"/>
<line x1="3.4306903880018904" y1="8.868154689753487" x2="3.4687506217462465" y2="8.676812973570941" class="delaunay-line"/>
<line x1="0.5576734615756332" y1="17.183723497083214" x2="0" y2="0" class="delaunay-line"/>
<line x1="0" y1="0" x2="0.4949637327809471" y2="17.368460400973188" class="delaunay-line"/>
<line x1="0.4949637327809471" y1="17.368460400973188" x2="0.5576734615756332" y2="17.183723497083214" class="delaunay-line"/>
<line x1="0.4949637327809471" y1="17.368460400973188" x2="0" y2="0" class="delaunay-line"/>
<line x1="0" y1="0" x2="0" y2="24" class="delaunay-line"/>
<line x1="0" y1="24" x2="0.4949637327809471" y2="17.368460400973188" class="delaunay-line"/>
<line x1="3.739348671819345" y1="8.406214923497844" x2="0" y2="0" class="delaunay-line"/>
<line x1="0" y1="0" x2="3.577136997408616" y2="8.514601299160214" class="delaunay-line"/>
<line x1="3.577136997408616" y1="8.514601299160214" x2="3.739348671819345" y2="8.406214923497844" class="delaunay-line"/>
<line x1="3.93069038800189" y1="8.368154689753487" x2="0" y2="0" class="delaunay-line"/>
<line x1="0" y1="0" x2="3.739348671819345" y2="8.406214923497844" class="delaunay-line"/>
<line x1="3.739348671819345" y1="8.406214923497844" x2="3.93069038800189" y2="8.368154689753487" class="delaunay-line"/>
<line x1="4.122032104184434" y1="8.406214923497842" x2="0" y2="0" class="delaunay-line"/>
<line x1="0" y1="0" x2="3.93069038800189" y2="8.368154689753487" class="delaunay-line"/>
<line x1="3.93069038800189" y1="8.368154689753487" x2="4.122032104184434" y2="8.406214923497842" class="delaunay-line"/>
<line x1="4.2842437785951635" y1="8.514601299160214" x2="0" y2="0" class="delaunay-line"/>
<line x1="0" y1="0" x2="4.122032104184434" y2="8.406214923497842" class="delaunay-line"/>
<line x1="4.122032104184434" y1="8.406214923497842" x2="4.2842437785951635" y2="8.514601299160214" class="delaunay-line"/>
<line x1="24" y1="0" x2="10.177809908956348" y2="14.215487315328664" class="delaunay-line"/>
<line x1="10.177809908956348" y1="14.215487315328664" x2="10.352781100909448" y2="14.301773558327579" class="delaunay-line"/>
<line x1="10.352781100909448" y1="14.301773558327579" x2="24" y2="0" class="delaunay-line"/>
<line x1="24" y1="24" x2="24" y2="0" class="delaunay-line"/>
<line x1="24" y1="0" x2="10.544122817091994" y2="14.633187132363172" class="delaunay-line"/>
<line x1="10.544122817091994" y1="14.633187132363172" x2="24" y2="24" class="delaunay-line"/>
</g>
<g id="layer-area" class="layer ">
</g>
<g id="layer-terrain" class="layer ">
<polygon points="3.577136997408616,9.221708080346762 3.4687506217462456,9.05949640593603 3.4306903880018904,8.868154689753487 3.4687506217462465,8.676812973570941 3.577136997408616,8.514601299160214 3.739348671819345,8.406214923497844 3.93069038800189,8.368154689753487 4.122032104184434,8.406214923497842 4.2842437785951635,8.514601299160214 4.3926301542575334,8.676812973570943 4.4306903880018895,8.868154689753487 4.3926301542575334,9.059496405936033 4.2842437785951635,9.22170808034676 4.122032104184434,9.33009445600913 3.9306903880018895,9.368154689753487 3.7393486718193456,9.330094456009132" fill="Dark Green" class="terrain-solid"/>
<polygon points="0.5576734615756332,17.183723497083214 0.6863054489634928,17.037046826937594 0.8612766409165918,16.950760583938678 1.055949259577878,16.93800106639631 1.2406861634678525,17.000710795190994 1.3873628336134698,17.129342782578853 1.4736490766123862,17.304313974531954 1.4864085941547582,17.49898659319324 1.423698865360072,17.683723497083214 1.2950668779722125,17.830400167228834 1.1200956860191134,17.91668641022775 0.9254230673578272,17.929445927770118 0.7406861634678525,17.866736198975435 0.5940094933222351,17.738104211587576 0.5077232503233188,17.563133019634474 0.4949637327809471,17.368460400973188" fill="Dark Green" class="terrain-solid"/>
<polygon points="9.61538768451287,14.948450228473197 9.552677955718183,14.763713324583222 9.565437473260555,14.569040705921937 9.65172371625947,14.394069513968837 9.798400386405088,14.265437526580978 9.983137290295064,14.202727797786292 10.177809908956348,14.215487315328664 10.352781100909448,14.301773558327579 10.481413088297307,14.448450228473197 10.544122817091994,14.633187132363172 10.531363299549621,14.827859751024457 10.445077056550707,15.002830942977557 10.298400386405088,15.131462930365416 10.113663482515113,15.194172659160103 9.918990863853828,15.18141314161773 9.744019671900729,15.095126898618815" fill="Dark Green" class="terrain-solid"/>
<polygon points="7.380759199519049,20.971682592560864 7.252127212131189,21.11835926270648 7.07715602017809,21.2046455057054 6.8824834015168035,21.217405023247768 6.697746497626829,21.154695294453084 6.551069827481212,21.026063307065225 6.464783584482295,20.851092115112124 6.452024066939924,20.65641949645084 6.514733795734609,20.471682592560864 6.643365783122469,20.325005922415247 6.818336975075568,20.238719679416327 7.013009593736855,20.22596016187396 7.197746497626829,20.288669890668643 7.3444231677724465,20.417301878056502 7.430709410771363,20.592273070009604 7.4434689283137345,20.786945688670887" fill="Dark Green" class="terrain-solid"/>
</g>
<g id="layer-models" class="layer ">
</g>
<g id="layer-paths" class="layer ">
</g>
<g id="layer-vectors" class="layer ">
</g>
<g id="layer-los" class="layer ">
</g>
<g id="layer-lof" class="layer ">
</g>

</svg>