<svg xmlns="http://www.w3.org/2000/svg" viewBox="0 0 24 24" width="960" height="960" font-family="Arial" font-size="0.6">
<defs>
  <style><![CDATA[
    .layer { display: inline; }
    .layer.hidden { display: none; }
    .grid-line { stroke: #999; stroke-width: 0.02; opacity: 0.2; }
    .delaunay-line { stroke: #4a6fa5; stroke-width: 0.03; opacity: 0.3; }
    .terrain-area { stroke: #000; stroke-width: 0.05; }
    .terrain-solid { stroke: #000; stroke-width: 0.05; }
    .model { stroke: #ff0000; stroke-width: 2; vector-effect: non-scaling-stroke; }
    .path { fill: none; stroke-width: 0.12; }
    .vector { stroke-width: 0.1; }
    .los-ray { stroke-width: 0.08; stroke-dasharray: 0.2 0.2; }
    .lof-ray { stroke-width: 0.08; stroke-dasharray: 0.3 0.15; }
    .label { fill: #111 !important; font-size: 0.6px; }
    .toggle { cursor: pointer; }
    .toggle.disabled { cursor: default; }
    .toggle.disabled rect { stroke: #ccc; fill: #fff; }
    .toggle.disabled text { fill: #ccc; }
#layer-area { fill: #C49A6C; }
#layer-building { fill: #000000; }
#layer-wall { fill: #555555; }
#layer-tree { fill: #90EE90; }
#layer-shrub { fill: #006400; }
  ]]></style>
</defs>
<rect x="0" y="0" width="24" height="24" fill="#ffffff" stroke="#111" stroke-width="0.05"/>
<script><![CDATA[
      function toggleLayer(id) {
        var layer = document.getElementById('layer-' + id);
        if (!layer) return;
        if (layer.classList.contains('hidden')) {
          layer.classList.remove('hidden');
        } else {
          layer.classList.add('hidden');
        }
      }
    ]]></script>
<text x="0.4" y="23.6" class="label">Battlefield 24x24 density 0 blockLOS 75</text>
<g id="layer-grid" class="layer ">
<line x1="0" y1="0" x2="0" y2="24" class="grid-line"/>
<line x1="0.5" y1="0" x2="0.5" y2="24" class="grid-line"/>
<line x1="1" y1="0" x2="1" y2="24" class="grid-line"/>
<line x1="1.5" y1="0" x2="1.5" y2="24" class="grid-line"/>
<line x1="2" y1="0" x2="2" y2="24" class="grid-line"/>
<line x1="2.5" y1="0" x2="2.5" y2="24" class="grid-line"/>
<line x1="3" y1="0" x2="3" y2="24" class="grid-line"/>
<line x1="3.5" y1="0" x2="3.5" y2="24" class="grid-line"/>
<line x1="4" y1="0" x2="4" y2="24" class="grid-line"/>
<line x1="4.5" y1="0" x2="4.5" y2="24" class="grid-line"/>
<line x1="5" y1="0" x2="5" y2="24" class="grid-line"/>
<line x1="5.5" y1="0" x2="5.5" y2="24" class="grid-line"/>
<line x1="6" y1="0" x2="6" y2="24" class="grid-line"/>
<line x1="6.5" y1="0" x2="6.5" y2="24" class="grid-line"/>
<line x1="7" y1="0" x2="7" y2="24" class="grid-line"/>
<line x1="7.5" y1="0" x2="7.5" y2="24" class="grid-line"/>
<line x1="8" y1="0" x2="8" y2="24" class="grid-line"/>
<line x1="8.5" y1="0" x2="8.5" y2="24" class="grid-line"/>
<line x1="9" y1="0" x2="9" y2="24" class="grid-line"/>
<line x1="9.5" y1="0" x2="9.5" y2="24" class="grid-line"/>
<line x1="10" y1="0" x2="10" y2="24" class="grid-line"/>
<line x1="10.5" y1="0" x2="10.5" y2="24" class="grid-line"/>
<line x1="11" y1="0" x2="11" y2="24" class="grid-line"/>
<line x1="11.5" y1="0" x2="11.5" y2="24" class="grid-line"/>
<line x1="12" y1="0" x2="12" y2="24" class="grid-line"/>
<line x1="12.5" y1="0" x2="12.5" y2="24" class="grid-line"/>
<line x1="13" y1="0" x2="13" y2="24" class="grid-line"/>
<line x1="13.5" y1="0" x2="13.5" y2="24" class="grid-line"/>
<line x1="14" y1="0" x2="14" y2="24" class="grid-line"/>
<line x1="14.5" y1="0" x2="14.5" y2="24" class="grid-line"/>
<line x1="15" y1="0" x2="15" y2="24" class="grid-line"/>
<line x1="15.5" y1="0" x2="15.5" y2="24" class="grid-line"/>
<line x1="16" y1="0" x2="16" y2="24" class="grid-line"/>
<line x1="16.5" y1="0" x2="16.5" y2="24" class="grid-line"/>
<line x1="17" y1="0" x2="17" y2="24" class="grid-line"/>
<line x1="17.5" y1="0" x2="17.5" y2="24" class="grid-line"/>
<line x1="18" y1="0" x2="18" y2="24" class="grid-line"/>
<line x1="18.5" y1="0" x2="18.5" y2="24" class="grid-line"/>
<line x1="19" y1="0" x2="19" y2="24" class="grid-line"/>
<line x1="19.5" y1="0" x2="19.5" y2="24" class="grid-line"/>
<line x1="20" y1="0" x2="20" y2="24" class="grid-line"/>
<line x1="20.5" y1="0" x2="20.5" y2="24" class="grid-line"/>
<line x1="21" y1="0" x2="21" y2="24" class="grid-line"/>
<line x1="21.5" y1="0" x2="21.5" y2="24" class="grid-line"/>
<line x1="22" y1="0" x2="22" y2="24" class="grid-line"/>
<line x1="22.5" y1="0" x2="22.5" y2="24" class="grid-line"/>
<line x1="23" y1="0" x2="23" y2="24" class="grid-line"/>
<line x1="23.5" y1="0" x2="23.5" y2="24" class="grid-line"/>
<line x1="24" y1="0" x2="24" y2="24" class="grid-line"/>
<line x1="0" y1="0" x2="24" y2="0" class="grid-line"/>
<line x1="0" y1="0.5" x2="24" y2="0.5" class="grid-line"/>
<line x1="0" y1="1" x2="24" y2="1" class="grid-line"/>
<line x1="0" y1="1.5" x2="24" y2="1.5" class="grid-line"/>
<line x1="0" y1="2" x2="24" y2="2" class="grid-line"/>
<line x1="0" y1="2.5" x2="24" y2="2.5" class="grid-line"/>
<line x1="0" y1="3" x2="24" y2="3" class="grid-line"/>
<line x1="0" y1="3.5" x2="24" y2="3.5" class="grid-line"/>
<line x1="0" y1="4" x2="24" y2="4" class="grid-line"/>
<line x1="0" y1="4.5" x2="24" y2="4.5" class="grid-line"/>
<line x1="0" y1="5" x2="24" y2="5" class="grid-line"/>
<line x1="0" y1="5.5" x2="24" y2="5.5" class="grid-line"/>
<line x1="0" y1="6" x2="24" y2="6" class="grid-line"/>
<line x1="0" y1="6.5" x2="24" y2="6.5" class="grid-line"/>
<line x1="0" y1="7" x2="24" y2="7" class="grid-line"/>
<line x1="0" y1="7.5" x2="24" y2="7.5" class="grid-line"/>
<line x1="0" y1="8" x2="24" y2="8" class="grid-line"/>
<line x1="0" y1="8.5" x2="24" y2="8.5" class="grid-line"/>
<line x1="0" y1="9" x2="24" y2="9" class="grid-line"/>
<line x1="0" y1="9.5" x2="24" y2="9.5" class="grid-line"/>
<line x1="0" y1="10" x2="24" y2="10" class="grid-line"/>
<line x1="0" y1="10.5" x2="24" y2="10.5" class="grid-line"/>
<line x1="0" y1="11" x2="24" y2="11" class="grid-line"/>
<line x1="0" y1="11.5" x2="24" y2="11.5" class="grid-line"/>
<line x1="0" y1="12" x2="24" y2="12" class="grid-line"/>
<line x1="0" y1="12.5" x2="24" y2="12.5" class="grid-line"/>
<line x1="0" y1="13" x2="24" y2="13" class="grid-line"/>
<line x1="0" y1="13.5" x2="24" y2="13.5" class="grid-line"/>
<line x1="0" y1="14" x2="24" y2="14" class="grid-line"/>
<line x1="0" y1="14.5" x2="24" y2="14.5" class="grid-line"/>
<line x1="0" y1="15" x2="24" y2="15" class="grid-line"/>
<line x1="0" y1="15.5" x2="24" y2="15.5" class="grid-line"/>
<line x1="0" y1="16" x2="24" y2="16" class="grid-line"/>
<line x1="0" y1="16.5" x2="24" y2="16.5" class="grid-line"/>
<line x1="0" y1="17" x2="24" y2="17" class="grid-line"/>
<line x1="0" y1="17.5" x2="24" y2="17.5" class="grid-line"/>
<line x1="0" y1="18" x2="24" y2="18" class="grid-line"/>
<line x1="0" y1="18.5" x2="24" y2="18.5" class="grid-line"/>
<line x1="0" y1="19" x2="24" y2="19" class="grid-line"/>
<line x1="0" y1="19.5" x2="24" y2="19.5" class="grid-line"/>
<line x1="0" y1="20" x2="24" y2="20" class="grid-line"/>
<line x1="0" y1="20.5" x2="24" y2="20.5" class="grid-line"/>
<line x1="0" y1="21" x2="24" y2="21" class="grid-line"/>
<line x1="0" y1="21.5" x2="24" y2="21.5" class="grid-line"/>
<line x1="0" y1="22" x2="24" y2="22" class="grid-line"/>
<line x1="0" y1="22.5" x2="24" y2="22.5" class="grid-line"/>
<line x1="0" y1="23" x2="24" y2="23" class="grid-line"/>
<line x1="0" y1="23.5" x2="24" y2="23.5" class="grid-line"/>
<line x1="0" y1="24" x2="24" y2="24" class="grid-line"/>
</g>
<g id="layer-delaunay" class="layer ">
<line x1="12.292893218813452" y1="12.292893218813452" x2="12.076120467488712" y2="12.617316567634912" class="delaunay-line"/>
<line x1="12.076120467488712" y1="12.617316567634912" x2="12.61731656763491" y2="12.076120467488714" class="delaunay-line"/>
<line x1="12.61731656763491" y1="12.076120467488714" x2="12.292893218813452" y2="12.292893218813452" class="delaunay-line"/>
<line x1="12.076120467488712" y1="12.617316567634912" x2="12" y2="13" class="delaunay-line"/>
<line x1="12" y1="13" x2="12.61731656763491" y2="12.076120467488714" class="delaunay-line"/>
<line x1="12.61731656763491" y1="12.076120467488714" x2="12.076120467488712" y2="12.617316567634912" class="delaunay-line"/>
<line x1="13.382683432365088" y1="12.076120467488712" x2="13" y2="12" class="delaunay-line"/>
<line x1="13" y1="12" x2="13.923879532511286" y2="12.61731656763491" class="delaunay-line"/>
<line x1="13.923879532511286" y1="12.61731656763491" x2="13.382683432365088" y2="12.076120467488712" class="delaunay-line"/>
<line x1="12" y1="13" x2="12.076120467488714" y2="13.38268343236509" class="delaunay-line"/>
<line x1="12.076120467488714" y1="13.38268343236509" x2="12.61731656763491" y2="12.076120467488714" class="delaunay-line"/>
<line x1="12.61731656763491" y1="12.076120467488714" x2="12" y2="13" class="delaunay-line"/>
<line x1="13.707106781186548" y1="12.292893218813452" x2="13.382683432365088" y2="12.076120467488712" class="delaunay-line"/>
<line x1="13.382683432365088" y1="12.076120467488712" x2="13.923879532511286" y2="12.61731656763491" class="delaunay-line"/>
<line x1="13.923879532511286" y1="12.61731656763491" x2="13.707106781186548" y2="12.292893218813452" class="delaunay-line"/>
<line x1="13.923879532511286" y1="12.61731656763491" x2="13" y2="12" class="delaunay-line"/>
<line x1="13" y1="12" x2="12.61731656763491" y2="12.076120467488714" class="delaunay-line"/>
<line x1="12.61731656763491" y1="12.076120467488714" x2="13.923879532511286" y2="12.61731656763491" class="delaunay-line"/>
<line x1="13.923879532511286" y1="12.61731656763491" x2="12.61731656763491" y2="12.076120467488714" class="delaunay-line"/>
<line x1="12.61731656763491" y1="12.076120467488714" x2="12.076120467488714" y2="13.38268343236509" class="delaunay-line"/>
<line x1="12.076120467488714" y1="13.38268343236509" x2="13.923879532511286" y2="12.61731656763491" class="delaunay-line"/>
<line x1="12.292893218813452" y1="13.707106781186548" x2="12.617316567634912" y2="13.923879532511288" class="delaunay-line"/>
<line x1="12.617316567634912" y1="13.923879532511288" x2="12.076120467488714" y2="13.38268343236509" class="delaunay-line"/>
<line x1="12.076120467488714" y1="13.38268343236509" x2="12.292893218813452" y2="13.707106781186548" class="delaunay-line"/>
<line x1="13.38268343236509" y1="13.923879532511286" x2="13.923879532511286" y2="12.61731656763491" class="delaunay-line"/>
<line x1="13.923879532511286" y1="12.61731656763491" x2="12.076120467488714" y2="13.38268343236509" class="delaunay-line"/>
<line x1="12.076120467488714" y1="13.38268343236509" x2="13.38268343236509" y2="13.923879532511286" class="delaunay-line"/>
<line x1="12.617316567634912" y1="13.923879532511288" x2="13" y2="14" class="delaunay-line"/>
<line x1="13" y1="14" x2="12.076120467488714" y2="13.38268343236509" class="delaunay-line"/>
<line x1="12.076120467488714" y1="13.38268343236509" x2="12.617316567634912" y2="13.923879532511288" class="delaunay-line"/>
<line x1="13" y1="14" x2="13.38268343236509" y2="13.923879532511286" class="delaunay-line"/>
<line x1="13.38268343236509" y1="13.923879532511286" x2="12.076120467488714" y2="13.38268343236509" class="delaunay-line"/>
<line x1="12.076120467488714" y1="13.38268343236509" x2="13" y2="14" class="delaunay-line"/>
<line x1="13.38268343236509" y1="13.923879532511286" x2="14" y2="13" class="delaunay-line"/>
<line x1="14" y1="13" x2="13.923879532511286" y2="12.61731656763491" class="delaunay-line"/>
<line x1="13.923879532511286" y1="12.61731656763491" x2="13.38268343236509" y2="13.923879532511286" class="delaunay-line"/>
<line x1="13.38268343236509" y1="13.923879532511286" x2="13.923879532511288" y2="13.382683432365088" class="delaunay-line"/>
<line x1="13.923879532511288" y1="13.382683432365088" x2="14" y2="13" class="delaunay-line"/>
<line x1="14" y1="13" x2="13.38268343236509" y2="13.923879532511286" class="delaunay-line"/>
<line x1="13.38268343236509" y1="13.923879532511286" x2="13.707106781186548" y2="13.707106781186548" class="delaunay-line"/>
<line x1="13.707106781186548" y1="13.707106781186548" x2="13.923879532511288" y2="13.382683432365088" class="delaunay-line"/>
<line x1="13.923879532511288" y1="13.382683432365088" x2="13.38268343236509" y2="13.923879532511286" class="delaunay-line"/>
<line x1="13.38268343236509" y1="13.923879532511286" x2="17.34138415215259" y2="15.29621578270216" class="delaunay-line"/>
<line x1="17.34138415215259" y1="15.29621578270216" x2="13.707106781186548" y2="13.707106781186548" class="delaunay-line"/>
<line x1="13.707106781186548" y1="13.707106781186548" x2="13.38268343236509" y2="13.923879532511286" class="delaunay-line"/>
<line x1="13.707106781186548" y1="13.707106781186548" x2="17.34138415215259" y2="15.29621578270216" class="delaunay-line"/>
<line x1="17.34138415215259" y1="15.29621578270216" x2="13.923879532511288" y2="13.382683432365088" class="delaunay-line"/>
<line x1="13.923879532511288" y1="13.382683432365088" x2="13.707106781186548" y2="13.707106781186548" class="delaunay-line"/>
<line x1="13.923879532511288" y1="13.382683432365088" x2="17.34138415215259" y2="15.29621578270216" class="delaunay-line"/>
<line x1="17.34138415215259" y1="15.29621578270216" x2="14" y2="13" class="delaunay-line"/>
<line x1="14" y1="13" x2="13.923879532511288" y2="13.382683432365088" class="delaunay-line"/>
<line x1="14" y1="13" x2="17.34138415215259" y2="15.29621578270216" class="delaunay-line"/>
<line x1="17.34138415215259" y1="15.29621578270216" x2="13.923879532511286" y2="12.61731656763491" class="delaunay-line"/>
<line x1="13.923879532511286" y1="12.61731656763491" x2="14" y2="13" class="delaunay-line"/>
<line x1="22.25" y1="4.93301270189222" x2="22.103323329854383" y2="4.80438071450436" class="delaunay-line"/>
<line x1="22.103323329854383" y1="4.80438071450436" x2="13.707106781186548" y2="12.292893218813452" class="delaunay-line"/>
<line x1="13.707106781186548" y1="12.292893218813452" x2="22.25" y2="4.93301270189222" class="delaunay-line"/>
<line x1="13" y1="14" x2="17.34138415215259" y2="15.29621578270216" class="delaunay-line"/>
<line x1="17.34138415215259" y1="15.29621578270216" x2="13.38268343236509" y2="13.923879532511286" class="delaunay-line"/>
<line x1="13.38268343236509" y1="13.923879532511286" x2="13" y2="14" class="delaunay-line"/>
<line x1="18.617316567634912" y1="21.07612046748871" x2="17.34138415215259" y2="15.29621578270216" class="delaunay-line"/>
<line x1="17.34138415215259" y1="15.29621578270216" x2="18.292893218813454" y2="21.292893218813454" class="delaunay-line"/>
<line x1="18.292893218813454" y1="21.292893218813454" x2="18.617316567634912" y2="21.07612046748871" class="delaunay-line"/>
<line x1="12.292893218813452" y1="13.707106781186548" x2="5.750274236683771" y2="18.40204432393241" class="delaunay-line"/>
<line x1="5.750274236683771" y1="18.40204432393241" x2="12.617316567634912" y2="13.923879532511288" class="delaunay-line"/>
<line x1="12.617316567634912" y1="13.923879532511288" x2="12.292893218813452" y2="13.707106781186548" class="delaunay-line"/>
<line x1="12.617316567634912" y1="13.923879532511288" x2="5.750274236683771" y2="18.40204432393241" class="delaunay-line"/>
<line x1="5.750274236683771" y1="18.40204432393241" x2="13" y2="14" class="delaunay-line"/>
<line x1="13" y1="14" x2="12.617316567634912" y2="13.923879532511288" class="delaunay-line"/>
<line x1="12.076120467488714" y1="13.38268343236509" x2="5.750274236683771" y2="18.40204432393241" class="delaunay-line"/>
<line x1="5.750274236683771" y1="18.40204432393241" x2="12.292893218813452" y2="13.707106781186548" class="delaunay-line"/>
<line x1="12.292893218813452" y1="13.707106781186548" x2="12.076120467488714" y2="13.38268343236509" class="delaunay-line"/>
<line x1="12" y1="13" x2="5.750274236683771" y2="18.40204432393241" class="delaunay-line"/>
<line x1="5.750274236683771" y1="18.40204432393241" x2="12.076120467488714" y2="13.38268343236509" class="delaunay-line"/>
<line x1="12.076120467488714" y1="13.38268343236509" x2="12" y2="13" class="delaunay-line"/>
<line x1="12.076120467488712" y1="12.617316567634912" x2="5.750274236683771" y2="18.40204432393241" class="delaunay-line"/>
<line x1="5.750274236683771" y1="18.40204432393241" x2="12" y2="13" class="delaunay-line"/>
<line x1="12" y1="13" x2="12.076120467488712" y2="12.617316567634912" class="delaunay-line"/>
<line x1="1.867988560145956" y1="3.9131569295963873" x2="5.750274236683771" y2="18.40204432393241" class="delaunay-line"/>
<line x1="5.750274236683771" y1="18.40204432393241" x2="12.076120467488712" y2="12.617316567634912" class="delaunay-line"/>
<line x1="12.076120467488712" y1="12.617316567634912" x2="1.867988560145956" y2="3.9131569295963873" class="delaunay-line"/>
<line x1="18.292893218813454" y1="21.292893218813454" x2="17.34138415215259" y2="15.29621578270216" class="delaunay-line"/>
<line x1="17.34138415215259" y1="15.29621578270216" x2="18.07612046748871" y2="21.617316567634912" class="delaunay-line"/>
<line x1="18.07612046748871" y1="21.617316567634912" x2="18.292893218813454" y2="21.292893218813454" class="delaunay-line"/>
<line x1="18.07612046748871" y1="21.617316567634912" x2="17.34138415215259" y2="15.29621578270216" class="delaunay-line"/>
<line x1="17.34138415215259" y1="15.29621578270216" x2="13" y2="14" class="delaunay-line"/>
<line x1="13" y1="14" x2="18.07612046748871" y2="21.617316567634912" class="delaunay-line"/>
<line x1="18.292893218813454" y1="21.292893218813454" x2="19" y2="21" class="delaunay-line"/>
<line x1="19" y1="21" x2="18.617316567634912" y2="21.07612046748871" class="delaunay-line"/>
<line x1="18.617316567634912" y1="21.07612046748871" x2="18.292893218813454" y2="21.292893218813454" class="delaunay-line"/>
<line x1="18.617316567634912" y1="21.07612046748871" x2="19" y2="21" class="delaunay-line"/>
<line x1="19" y1="21" x2="17.34138415215259" y2="15.29621578270216" class="delaunay-line"/>
<line x1="17.34138415215259" y1="15.29621578270216" x2="18.617316567634912" y2="21.07612046748871" class="delaunay-line"/>
<line x1="5.750274236683771" y1="18.40204432393241" x2="18.07612046748871" y2="21.617316567634912" class="delaunay-line"/>
<line x1="18.07612046748871" y1="21.617316567634912" x2="13" y2="14" class="delaunay-line"/>
<line x1="13" y1="14" x2="5.750274236683771" y2="18.40204432393241" class="delaunay-line"/>
<line x1="19.707106781186546" y1="21.292893218813454" x2="19.382683432365088" y2="21.07612046748871" class="delaunay-line"/>
<line x1="19.382683432365088" y1="21.07612046748871" x2="19" y2="21" class="delaunay-line"/>
<line x1="19" y1="21" x2="19.707106781186546" y2="21.292893218813454" class="delaunay-line"/>
<line x1="19.707106781186546" y1="21.292893218813454" x2="19" y2="21" class="delaunay-line"/>
<line x1="19" y1="21" x2="18.292893218813454" y2="21.292893218813454" class="delaunay-line"/>
<line x1="18.292893218813454" y1="21.292893218813454" x2="19.707106781186546" y2="21.292893218813454" class="delaunay-line"/>
<line x1="19" y1="21" x2="19.382683432365088" y2="21.07612046748871" class="delaunay-line"/>
<line x1="19.382683432365088" y1="21.07612046748871" x2="17.34138415215259" y2="15.29621578270216" class="delaunay-line"/>
<line x1="17.34138415215259" y1="15.29621578270216" x2="19" y2="21" class="delaunay-line"/>
<line x1="5.750274236683771" y1="18.40204432393241" x2="18" y2="22" class="delaunay-line"/>
<line x1="18" y1="22" x2="18.07612046748871" y2="21.617316567634912" class="delaunay-line"/>
<line x1="18.07612046748871" y1="21.617316567634912" x2="5.750274236683771" y2="18.40204432393241" class="delaunay-line"/>
<line x1="18.07612046748871" y1="21.617316567634912" x2="18" y2="22" class="delaunay-line"/>
<line x1="18" y1="22" x2="18.292893218813454" y2="21.292893218813454" class="delaunay-line"/>
<line x1="18.292893218813454" y1="21.292893218813454" x2="18.07612046748871" y2="21.617316567634912" class="delaunay-line"/>
<line x1="19.707106781186546" y1="22.707106781186546" x2="19.707106781186546" y2="21.292893218813454" class="delaunay-line"/>
<line x1="19.707106781186546" y1="21.292893218813454" x2="18.292893218813454" y2="21.292893218813454" class="delaunay-line"/>
<line x1="18.292893218813454" y1="21.292893218813454" x2="19.707106781186546" y2="22.707106781186546" class="delaunay-line"/>
<line x1="19.382683432365088" y1="21.07612046748871" x2="19.707106781186546" y2="21.292893218813454" class="delaunay-line"/>
<line x1="19.707106781186546" y1="21.292893218813454" x2="17.34138415215259" y2="15.29621578270216" class="delaunay-line"/>
<line x1="17.34138415215259" y1="15.29621578270216" x2="19.382683432365088" y2="21.07612046748871" class="delaunay-line"/>
<line x1="5.750274236683771" y1="18.40204432393241" x2="18.07612046748871" y2="22.382683432365088" class="delaunay-line"/>
<line x1="18.07612046748871" y1="22.382683432365088" x2="18" y2="22" class="delaunay-line"/>
<line x1="18" y1="22" x2="5.750274236683771" y2="18.40204432393241" class="delaunay-line"/>
<line x1="18" y1="22" x2="18.292893218813454" y2="22.707106781186546" class="delaunay-line"/>
<line x1="18.292893218813454" y1="22.707106781186546" x2="18.292893218813454" y2="21.292893218813454" class="delaunay-line"/>
<line x1="18.292893218813454" y1="21.292893218813454" x2="18" y2="22" class="delaunay-line"/>
<line x1="20" y1="22" x2="19.92387953251129" y2="21.617316567634912" class="delaunay-line"/>
<line x1="19.92387953251129" y1="21.617316567634912" x2="19.707106781186546" y2="21.292893218813454" class="delaunay-line"/>
<line x1="19.707106781186546" y1="21.292893218813454" x2="20" y2="22" class="delaunay-line"/>
<line x1="22.25" y1="4.93301270189222" x2="13.923879532511286" y2="12.61731656763491" class="delaunay-line"/>
<line x1="13.923879532511286" y1="12.61731656763491" x2="17.34138415215259" y2="15.29621578270216" class="delaunay-line"/>
<line x1="17.34138415215259" y1="15.29621578270216" x2="22.25" y2="4.93301270189222" class="delaunay-line"/>
<line x1="1.9238795325112878" y1="22.382683432365088" x2="18.292893218813454" y2="22.707106781186546" class="delaunay-line"/>
<line x1="18.292893218813454" y1="22.707106781186546" x2="18.07612046748871" y2="22.382683432365088" class="delaunay-line"/>
<line x1="18.07612046748871" y1="22.382683432365088" x2="1.9238795325112878" y2="22.382683432365088" class="delaunay-line"/>
<line x1="18.07612046748871" y1="22.382683432365088" x2="18.292893218813454" y2="22.707106781186546" class="delaunay-line"/>
<line x1="18.292893218813454" y1="22.707106781186546" x2="18" y2="22" class="delaunay-line"/>
<line x1="18" y1="22" x2="18.07612046748871" y2="22.382683432365088" class="delaunay-line"/>
<line x1="19.707106781186546" y1="22.707106781186546" x2="20" y2="22" class="delaunay-line"/>
<line x1="20" y1="22" x2="19.707106781186546" y2="21.292893218813454" class="delaunay-line"/>
<line x1="19.707106781186546" y1="21.292893218813454" x2="19.707106781186546" y2="22.707106781186546" class="delaunay-line"/>
<line x1="0" y1="24" x2="18.617316567634912" y2="22.92387953251129" class="delaunay-line"/>
<line x1="18.617316567634912" y1="22.92387953251129" x2="18.292893218813454" y2="22.707106781186546" class="delaunay-line"/>
<line x1="18.292893218813454" y1="22.707106781186546" x2="0" y2="24" class="delaunay-line"/>
<line x1="19.707106781186546" y1="22.707106781186546" x2="19.92387953251129" y2="22.382683432365088" class="delaunay-line"/>
<line x1="19.92387953251129" y1="22.382683432365088" x2="20" y2="22" class="delaunay-line"/>
<line x1="20" y1="22" x2="19.707106781186546" y2="22.707106781186546" class="delaunay-line"/>
<line x1="19.707106781186546" y1="22.707106781186546" x2="18.292893218813454" y2="21.292893218813454" class="delaunay-line"/>
<line x1="18.292893218813454" y1="21.292893218813454" x2="18.292893218813454" y2="22.707106781186546" class="delaunay-line"/>
<line x1="18.292893218813454" y1="22.707106781186546" x2="19.707106781186546" y2="22.707106781186546" class="delaunay-line"/>
<line x1="18.617316567634912" y1="22.92387953251129" x2="19" y2="23" class="delaunay-line"/>
<line x1="19" y1="23" x2="18.292893218813454" y2="22.707106781186546" class="delaunay-line"/>
<line x1="18.292893218813454" y1="22.707106781186546" x2="18.617316567634912" y2="22.92387953251129" class="delaunay-line"/>
<line x1="19" y1="23" x2="19.707106781186546" y2="22.707106781186546" class="delaunay-line"/>
<line x1="19.707106781186546" y1="22.707106781186546" x2="18.292893218813454" y2="22.707106781186546" class="delaunay-line"/>
<line x1="18.292893218813454" y1="22.707106781186546" x2="19" y2="23" class="delaunay-line"/>
<line x1="19" y1="23" x2="19.382683432365088" y2="22.92387953251129" class="delaunay-line"/>
<line x1="19.382683432365088" y1="22.92387953251129" x2="19.707106781186546" y2="22.707106781186546" class="delaunay-line"/>
<line x1="19.707106781186546" y1="22.707106781186546" x2="19" y2="23" class="delaunay-line"/>
<line x1="14.62940952255126" y1="0.9829629131445335" x2="14.434736903889975" y2="0.995722430686905" class="delaunay-line"/>
<line x1="14.434736903889975" y1="0.995722430686905" x2="13.382683432365088" y2="12.076120467488712" class="delaunay-line"/>
<line x1="13.382683432365088" y1="12.076120467488712" x2="14.62940952255126" y2="0.9829629131445335" class="delaunay-line"/>
<line x1="13.382683432365088" y1="12.076120467488712" x2="14.434736903889975" y2="0.995722430686905" class="delaunay-line"/>
<line x1="14.434736903889975" y1="0.995722430686905" x2="13" y2="12" class="delaunay-line"/>
<line x1="13" y1="12" x2="13.382683432365088" y2="12.076120467488712" class="delaunay-line"/>
<line x1="13" y1="12" x2="13.459098475614775" y2="0.8073283883661349" class="delaunay-line"/>
<line x1="13.459098475614775" y1="0.8073283883661349" x2="12.61731656763491" y2="12.076120467488714" class="delaunay-line"/>
<line x1="12.61731656763491" y1="12.076120467488714" x2="13" y2="12" class="delaunay-line"/>
<line x1="12.61731656763491" y1="12.076120467488714" x2="1.867988560145956" y2="3.9131569295963873" class="delaunay-line"/>
<line x1="1.867988560145956" y1="3.9131569295963873" x2="12.292893218813452" y2="12.292893218813452" class="delaunay-line"/>
<line x1="12.292893218813452" y1="12.292893218813452" x2="12.61731656763491" y2="12.076120467488714" class="delaunay-line"/>
<line x1="12.292893218813452" y1="12.292893218813452" x2="1.867988560145956" y2="3.9131569295963873" class="delaunay-line"/>
<line x1="1.867988560145956" y1="3.9131569295963873" x2="12.076120467488712" y2="12.617316567634912" class="delaunay-line"/>
<line x1="12.076120467488712" y1="12.617316567634912" x2="12.292893218813452" y2="12.292893218813452" class="delaunay-line"/>
<line x1="14.62940952255126" y1="0.9829629131445335" x2="13.382683432365088" y2="12.076120467488712" class="delaunay-line"/>
<line x1="13.382683432365088" y1="12.076120467488712" x2="18.39123857099128" y2="1.793353340291237" class="delaunay-line"/>
<line x1="18.39123857099128" y1="1.793353340291237" x2="14.62940952255126" y2="0.9829629131445335" class="delaunay-line"/>
<line x1="14.62940952255126" y1="0.9829629131445335" x2="18.39123857099128" y2="1.793353340291237" class="delaunay-line"/>
<line x1="18.39123857099128" y1="1.793353340291237" x2="14.80438071450436" y2="0.8966766701456181" class="delaunay-line"/>
<line x1="14.80438071450436" y1="0.8966766701456181" x2="14.62940952255126" y2="0.9829629131445335" class="delaunay-line"/>
<line x1="13.382683432365088" y1="12.076120467488712" x2="18.74118095489748" y2="1.9659258262890673" class="delaunay-line"/>
<line x1="18.74118095489748" y1="1.9659258262890673" x2="18.39123857099128" y2="1.793353340291237" class="delaunay-line"/>
<line x1="18.39123857099128" y1="1.793353340291237" x2="13.382683432365088" y2="12.076120467488712" class="delaunay-line"/>
<line x1="14.103323329854383" y1="0.8043807145043601" x2="14.25" y2="0.9330127018922194" class="delaunay-line"/>
<line x1="14.25" y1="0.9330127018922194" x2="14.434736903889975" y2="0.995722430686905" class="delaunay-line"/>
<line x1="14.434736903889975" y1="0.995722430686905" x2="14.103323329854383" y2="0.8043807145043601" class="delaunay-line"/>
<line x1="14.434736903889975" y1="0.995722430686905" x2="13.459098475614775" y2="0.8073283883661349" class="delaunay-line"/>
<line x1="13.459098475614775" y1="0.8073283883661349" x2="13" y2="12" class="delaunay-line"/>
<line x1="13" y1="12" x2="14.434736903889975" y2="0.995722430686905" class="delaunay-line"/>
<line x1="14.103323329854383" y1="0.8043807145043601" x2="13.459098475614775" y2="0.8073283883661349" class="delaunay-line"/>
<line x1="13.459098475614775" y1="0.8073283883661349" x2="14.25" y2="0.9330127018922194" class="delaunay-line"/>
<line x1="14.25" y1="0.9330127018922194" x2="14.103323329854383" y2="0.8043807145043601" class="delaunay-line"/>
<line x1="14.25" y1="0.9330127018922194" x2="13.459098475614775" y2="0.8073283883661349" class="delaunay-line"/>
<line x1="13.459098475614775" y1="0.8073283883661349" x2="14.434736903889975" y2="0.995722430686905" class="delaunay-line"/>
<line x1="14.434736903889975" y1="0.995722430686905" x2="14.25" y2="0.9330127018922194" class="delaunay-line"/>
<line x1="13.707106781186548" y1="12.292893218813452" x2="13.923879532511286" y2="12.61731656763491" class="delaunay-line"/>
<line x1="13.923879532511286" y1="12.61731656763491" x2="22.25" y2="4.93301270189222" class="delaunay-line"/>
<line x1="22.25" y1="4.93301270189222" x2="13.707106781186548" y2="12.292893218813452" class="delaunay-line"/>
<line x1="14.62940952255126" y1="0.9829629131445335" x2="14.103323329854383" y2="0.8043807145043601" class="delaunay-line"/>
<line x1="14.103323329854383" y1="0.8043807145043601" x2="14.434736903889975" y2="0.995722430686905" class="delaunay-line"/>
<line x1="14.434736903889975" y1="0.995722430686905" x2="14.62940952255126" y2="0.9829629131445335" class="delaunay-line"/>
<line x1="14.017037086855467" y1="0.6294095225512599" x2="14.103323329854383" y2="0.8043807145043601" class="delaunay-line"/>
<line x1="14.103323329854383" y1="0.8043807145043601" x2="14.62940952255126" y2="0.9829629131445335" class="delaunay-line"/>
<line x1="14.62940952255126" y1="0.9829629131445335" x2="14.017037086855467" y2="0.6294095225512599" class="delaunay-line"/>
<line x1="17.34138415215259" y1="15.29621578270216" x2="22.62940952255126" y2="4.982962913144534" class="delaunay-line"/>
<line x1="22.62940952255126" y1="4.982962913144534" x2="22.434736903889977" y2="4.9957224306869055" class="delaunay-line"/>
<line x1="22.434736903889977" y1="4.9957224306869055" x2="17.34138415215259" y2="15.29621578270216" class="delaunay-line"/>
<line x1="22.25" y1="4.93301270189222" x2="17.34138415215259" y2="15.29621578270216" class="delaunay-line"/>
<line x1="17.34138415215259" y1="15.29621578270216" x2="22.434736903889977" y2="4.9957224306869055" class="delaunay-line"/>
<line x1="22.434736903889977" y1="4.9957224306869055" x2="22.25" y2="4.93301270189222" class="delaunay-line"/>
<line x1="17.34138415215259" y1="15.29621578270216" x2="22.80438071450436" y2="4.8966766701456175" class="delaunay-line"/>
<line x1="22.80438071450436" y1="4.8966766701456175" x2="22.62940952255126" y2="4.982962913144534" class="delaunay-line"/>
<line x1="22.62940952255126" y1="4.982962913144534" x2="17.34138415215259" y2="15.29621578270216" class="delaunay-line"/>
<line x1="22.004277569313096" y1="4.434736903889974" x2="22.017037086855463" y2="4.629409522551261" class="delaunay-line"/>
<line x1="22.017037086855463" y1="4.629409522551261" x2="22.103323329854383" y2="4.80438071450436" class="delaunay-line"/>
<line x1="22.103323329854383" y1="4.80438071450436" x2="22.004277569313096" y2="4.434736903889974" class="delaunay-line"/>
<line x1="18.74118095489748" y1="1.9659258262890673" x2="13.382683432365088" y2="12.076120467488712" class="delaunay-line"/>
<line x1="13.382683432365088" y1="12.076120467488712" x2="13.707106781186548" y2="12.292893218813452" class="delaunay-line"/>
<line x1="13.707106781186548" y1="12.292893218813452" x2="18.74118095489748" y2="1.9659258262890673" class="delaunay-line"/>
<line x1="17.34138415215259" y1="15.29621578270216" x2="24" y2="24" class="delaunay-line"/>
<line x1="24" y1="24" x2="22.80438071450436" y2="4.8966766701456175" class="delaunay-line"/>
<line x1="22.80438071450436" y1="4.8966766701456175" x2="17.34138415215259" y2="15.29621578270216" class="delaunay-line"/>
<line x1="22.25" y1="4.93301270189222" x2="22.434736903889977" y2="4.9957224306869055" class="delaunay-line"/>
<line x1="22.434736903889977" y1="4.9957224306869055" x2="22.103323329854383" y2="4.80438071450436" class="delaunay-line"/>
<line x1="22.103323329854383" y1="4.80438071450436" x2="22.25" y2="4.93301270189222" class="delaunay-line"/>
<line x1="18.133974596215563" y1="1.5000000000000004" x2="14.933012701892219" y2="0.7499999999999999" class="delaunay-line"/>
<line x1="14.933012701892219" y1="0.7499999999999999" x2="14.80438071450436" y2="0.8966766701456181" class="delaunay-line"/>
<line x1="14.80438071450436" y1="0.8966766701456181" x2="18.133974596215563" y2="1.5000000000000004" class="delaunay-line"/>
<line x1="14.80438071450436" y1="0.8966766701456181" x2="14.933012701892219" y2="0.7499999999999999" class="delaunay-line"/>
<line x1="14.933012701892219" y1="0.7499999999999999" x2="14.62940952255126" y2="0.9829629131445335" class="delaunay-line"/>
<line x1="14.62940952255126" y1="0.9829629131445335" x2="14.80438071450436" y2="0.8966766701456181" class="delaunay-line"/>
<line x1="14.103323329854383" y1="0.8043807145043601" x2="14.017037086855467" y2="0.6294095225512599" class="delaunay-line"/>
<line x1="14.017037086855467" y1="0.6294095225512599" x2="13.459098475614775" y2="0.8073283883661349" class="delaunay-line"/>
<line x1="13.459098475614775" y1="0.8073283883661349" x2="14.103323329854383" y2="0.8043807145043601" class="delaunay-line"/>
<line x1="14.982962913144533" y1="0.3705904774487401" x2="14.017037086855467" y2="0.6294095225512599" class="delaunay-line"/>
<line x1="14.017037086855467" y1="0.6294095225512599" x2="14.62940952255126" y2="0.9829629131445335" class="delaunay-line"/>
<line x1="14.62940952255126" y1="0.9829629131445335" x2="14.982962913144533" y2="0.3705904774487401" class="delaunay-line"/>
<line x1="22.995722430686904" y1="4.565263096110026" x2="22.004277569313096" y2="4.434736903889974" class="delaunay-line"/>
<line x1="22.004277569313096" y1="4.434736903889974" x2="22.103323329854383" y2="4.80438071450436" class="delaunay-line"/>
<line x1="22.103323329854383" y1="4.80438071450436" x2="22.995722430686904" y2="4.565263096110026" class="delaunay-line"/>
<line x1="18.74118095489748" y1="1.9659258262890673" x2="13.707106781186548" y2="12.292893218813452" class="delaunay-line"/>
<line x1="13.707106781186548" y1="12.292893218813452" x2="22.103323329854383" y2="4.80438071450436" class="delaunay-line"/>
<line x1="22.103323329854383" y1="4.80438071450436" x2="18.74118095489748" y2="1.9659258262890673" class="delaunay-line"/>
<line x1="18.74118095489748" y1="1.9659258262890673" x2="22.103323329854383" y2="4.80438071450436" class="delaunay-line"/>
<line x1="22.103323329854383" y1="4.80438071450436" x2="22.017037086855463" y2="4.629409522551261" class="delaunay-line"/>
<line x1="22.017037086855463" y1="4.629409522551261" x2="18.74118095489748" y2="1.9659258262890673" class="delaunay-line"/>
<line x1="19.130526192220053" y1="1.9914448613738098" x2="18.74118095489748" y2="1.9659258262890673" class="delaunay-line"/>
<line x1="18.74118095489748" y1="1.9659258262890673" x2="22.017037086855463" y2="4.629409522551261" class="delaunay-line"/>
<line x1="22.017037086855463" y1="4.629409522551261" x2="19.130526192220053" y2="1.9914448613738098" class="delaunay-line"/>
<line x1="22.434736903889977" y1="4.9957224306869055" x2="22.62940952255126" y2="4.982962913144534" class="delaunay-line"/>
<line x1="22.62940952255126" y1="4.982962913144534" x2="22.103323329854383" y2="4.80438071450436" class="delaunay-line"/>
<line x1="22.103323329854383" y1="4.80438071450436" x2="22.434736903889977" y2="4.9957224306869055" class="delaunay-line"/>
<line x1="17.34138415215259" y1="15.29621578270216" x2="19.707106781186546" y2="21.292893218813454" class="delaunay-line"/>
<line x1="19.707106781186546" y1="21.292893218813454" x2="24" y2="24" class="delaunay-line"/>
<line x1="24" y1="24" x2="17.34138415215259" y2="15.29621578270216" class="delaunay-line"/>
<line x1="18.00855513862619" y1="1.1305261922200507" x2="14.995722430686905" y2="0.5652630961100249" class="delaunay-line"/>
<line x1="14.995722430686905" y1="0.5652630961100249" x2="14.933012701892219" y2="0.7499999999999999" class="delaunay-line"/>
<line x1="14.933012701892219" y1="0.7499999999999999" x2="18.00855513862619" y2="1.1305261922200507" class="delaunay-line"/>
<line x1="14.933012701892219" y1="0.7499999999999999" x2="14.982962913144533" y2="0.3705904774487401" class="delaunay-line"/>
<line x1="14.982962913144533" y1="0.3705904774487401" x2="14.62940952255126" y2="0.9829629131445335" class="delaunay-line"/>
<line x1="14.62940952255126" y1="0.9829629131445335" x2="14.933012701892219" y2="0.7499999999999999" class="delaunay-line"/>
<line x1="18.74118095489748" y1="1.9659258262890673" x2="18.133974596215563" y2="1.5000000000000004" class="delaunay-line"/>
<line x1="18.133974596215563" y1="1.5000000000000004" x2="18.39123857099128" y2="1.793353340291237" class="delaunay-line"/>
<line x1="18.39123857099128" y1="1.793353340291237" x2="18.74118095489748" y2="1.9659258262890673" class="delaunay-line"/>
<line x1="18.39123857099128" y1="1.793353340291237" x2="18.133974596215563" y2="1.5000000000000004" class="delaunay-line"/>
<line x1="18.133974596215563" y1="1.5000000000000004" x2="14.80438071450436" y2="0.8966766701456181" class="delaunay-line"/>
<line x1="14.80438071450436" y1="0.8966766701456181" x2="18.39123857099128" y2="1.793353340291237" class="delaunay-line"/>
<line x1="18.034074173710934" y1="0.7411809548974809" x2="18.133974596215563" y2="1.5000000000000004" class="delaunay-line"/>
<line x1="18.133974596215563" y1="1.5000000000000004" x2="18.74118095489748" y2="1.9659258262890673" class="delaunay-line"/>
<line x1="18.74118095489748" y1="1.9659258262890673" x2="18.034074173710934" y2="0.7411809548974809" class="delaunay-line"/>
<line x1="22.004277569313096" y1="4.434736903889974" x2="19.130526192220053" y2="1.9914448613738098" class="delaunay-line"/>
<line x1="19.130526192220053" y1="1.9914448613738098" x2="22.017037086855463" y2="4.629409522551261" class="delaunay-line"/>
<line x1="22.017037086855463" y1="4.629409522551261" x2="22.004277569313096" y2="4.434736903889974" class="delaunay-line"/>
<line x1="22.19561928549564" y1="4.1033233298543825" x2="22.06698729810778" y2="4.25" class="delaunay-line"/>
<line x1="22.06698729810778" y1="4.25" x2="22.004277569313096" y2="4.434736903889974" class="delaunay-line"/>
<line x1="22.004277569313096" y1="4.434736903889974" x2="22.19561928549564" y2="4.1033233298543825" class="delaunay-line"/>
<line x1="22.004277569313096" y1="4.434736903889974" x2="19.5" y2="1.8660254037844382" class="delaunay-line"/>
<line x1="19.5" y1="1.8660254037844382" x2="19.130526192220053" y2="1.9914448613738098" class="delaunay-line"/>
<line x1="19.130526192220053" y1="1.9914448613738098" x2="22.004277569313096" y2="4.434736903889974" class="delaunay-line"/>
<line x1="14.066987298107781" y1="0.2500000000000001" x2="14.004277569313095" y2="0.43473690388997505" class="delaunay-line"/>
<line x1="14.004277569313095" y1="0.43473690388997505" x2="14.017037086855467" y2="0.6294095225512599" class="delaunay-line"/>
<line x1="14.017037086855467" y1="0.6294095225512599" x2="14.066987298107781" y2="0.2500000000000001" class="delaunay-line"/>
<line x1="14.017037086855467" y1="0.6294095225512599" x2="14.004277569313095" y2="0.43473690388997505" class="delaunay-line"/>
<line x1="14.004277569313095" y1="0.43473690388997505" x2="13.459098475614775" y2="0.8073283883661349" class="delaunay-line"/>
<line x1="13.459098475614775" y1="0.8073283883661349" x2="14.017037086855467" y2="0.6294095225512599" class="delaunay-line"/>
<line x1="22.93301270189222" y1="4.75" x2="22.80438071450436" y2="4.8966766701456175" class="delaunay-line"/>
<line x1="22.80438071450436" y1="4.8966766701456175" x2="24" y2="24" class="delaunay-line"/>
<line x1="24" y1="24" x2="22.93301270189222" y2="4.75" class="delaunay-line"/>
<line x1="22.896676670145617" y1="4.19561928549564" x2="22.37059047744874" y2="4.017037086855466" class="delaunay-line"/>
<line x1="22.37059047744874" y1="4.017037086855466" x2="22.004277569313096" y2="4.434736903889974" class="delaunay-line"/>
<line x1="22.004277569313096" y1="4.434736903889974" x2="22.896676670145617" y2="4.19561928549564" class="delaunay-line"/>
<line x1="18.034074173710934" y1="0.7411809548974809" x2="14.982962913144533" y2="0.3705904774487401" class="delaunay-line"/>
<line x1="14.982962913144533" y1="0.3705904774487401" x2="14.995722430686905" y2="0.5652630961100249" class="delaunay-line"/>
<line x1="14.995722430686905" y1="0.5652630961100249" x2="18.034074173710934" y2="0.7411809548974809" class="delaunay-line"/>
<line x1="14.995722430686905" y1="0.5652630961100249" x2="14.982962913144533" y2="0.3705904774487401" class="delaunay-line"/>
<line x1="14.982962913144533" y1="0.3705904774487401" x2="14.933012701892219" y2="0.7499999999999999" class="delaunay-line"/>
<line x1="14.933012701892219" y1="0.7499999999999999" x2="14.995722430686905" y2="0.5652630961100249" class="delaunay-line"/>
<line x1="14.37059047744874" y1="0.017037086855466538" x2="14.066987298107781" y2="0.2500000000000001" class="delaunay-line"/>
<line x1="14.066987298107781" y1="0.2500000000000001" x2="14.017037086855467" y2="0.6294095225512599" class="delaunay-line"/>
<line x1="14.017037086855467" y1="0.6294095225512599" x2="14.37059047744874" y2="0.017037086855466538" class="delaunay-line"/>
<line x1="14.004277569313095" y1="0.43473690388997505" x2="14.066987298107781" y2="0.2500000000000001" class="delaunay-line"/>
<line x1="14.066987298107781" y1="0.2500000000000001" x2="13.459098475614775" y2="0.8073283883661349" class="delaunay-line"/>
<line x1="13.459098475614775" y1="0.8073283883661349" x2="14.004277569313095" y2="0.43473690388997505" class="delaunay-line"/>
<line x1="22.37059047744874" y1="4.017037086855466" x2="22.19561928549564" y2="4.1033233298543825" class="delaunay-line"/>
<line x1="22.19561928549564" y1="4.1033233298543825" x2="22.004277569313096" y2="4.434736903889974" class="delaunay-line"/>
<line x1="22.004277569313096" y1="4.434736903889974" x2="22.37059047744874" y2="4.017037086855466" class="delaunay-line"/>
<line x1="22.06698729810778" y1="4.25" x2="19.5" y2="1.8660254037844382" class="delaunay-line"/>
<line x1="19.5" y1="1.8660254037844382" x2="22.004277569313096" y2="4.434736903889974" class="delaunay-line"/>
<line x1="22.004277569313096" y1="4.434736903889974" x2="22.06698729810778" y2="4.25" class="delaunay-line"/>
<line x1="18.133974596215563" y1="1.5000000000000004" x2="18.00855513862619" y2="1.1305261922200507" class="delaunay-line"/>
<line x1="18.00855513862619" y1="1.1305261922200507" x2="14.933012701892219" y2="0.7499999999999999" class="delaunay-line"/>
<line x1="14.933012701892219" y1="0.7499999999999999" x2="18.133974596215563" y2="1.5000000000000004" class="delaunay-line"/>
<line x1="18.034074173710934" y1="0.7411809548974809" x2="18.00855513862619" y2="1.1305261922200507" class="delaunay-line"/>
<line x1="18.00855513862619" y1="1.1305261922200507" x2="18.133974596215563" y2="1.5000000000000004" class="delaunay-line"/>
<line x1="18.133974596215563" y1="1.5000000000000004" x2="18.034074173710934" y2="0.7411809548974809" class="delaunay-line"/>
<line x1="19.793353340291233" y1="1.6087614290087198" x2="18.74118095489748" y2="1.9659258262890673" class="delaunay-line"/>
<line x1="18.74118095489748" y1="1.9659258262890673" x2="19.130526192220053" y2="1.9914448613738098" class="delaunay-line"/>
<line x1="19.130526192220053" y1="1.9914448613738098" x2="19.793353340291233" y2="1.6087614290087198" class="delaunay-line"/>
<line x1="19.793353340291233" y1="1.6087614290087198" x2="19.5" y2="1.8660254037844382" class="delaunay-line"/>
<line x1="19.5" y1="1.8660254037844382" x2="22.06698729810778" y2="4.25" class="delaunay-line"/>
<line x1="22.06698729810778" y1="4.25" x2="19.793353340291233" y2="1.6087614290087198" class="delaunay-line"/>
<line x1="22.80438071450436" y1="4.8966766701456175" x2="22.995722430686904" y2="4.565263096110026" class="delaunay-line"/>
<line x1="22.995722430686904" y1="4.565263096110026" x2="22.62940952255126" y2="4.982962913144534" class="delaunay-line"/>
<line x1="22.62940952255126" y1="4.982962913144534" x2="22.80438071450436" y2="4.8966766701456175" class="delaunay-line"/>
<line x1="24" y1="24" x2="19.707106781186546" y2="21.292893218813454" class="delaunay-line"/>
<line x1="19.707106781186546" y1="21.292893218813454" x2="19.92387953251129" y2="21.617316567634912" class="delaunay-line"/>
<line x1="19.92387953251129" y1="21.617316567634912" x2="24" y2="24" class="delaunay-line"/>
<line x1="18.206646659708763" y1="0.39123857099128057" x2="14.896676670145617" y2="0.19561928549563984" class="delaunay-line"/>
<line x1="14.896676670145617" y1="0.19561928549563984" x2="14.982962913144533" y2="0.3705904774487401" class="delaunay-line"/>
<line x1="14.982962913144533" y1="0.3705904774487401" x2="18.206646659708763" y2="0.39123857099128057" class="delaunay-line"/>
<line x1="14.982962913144533" y1="0.3705904774487401" x2="14.37059047744874" y2="0.017037086855466538" class="delaunay-line"/>
<line x1="14.37059047744874" y1="0.017037086855466538" x2="14.017037086855467" y2="0.6294095225512599" class="delaunay-line"/>
<line x1="14.017037086855467" y1="0.6294095225512599" x2="14.982962913144533" y2="0.3705904774487401" class="delaunay-line"/>
<line x1="14.37059047744874" y1="0.017037086855466538" x2="14.19561928549564" y2="0.1033233298543818" class="delaunay-line"/>
<line x1="14.19561928549564" y1="0.1033233298543818" x2="14.066987298107781" y2="0.2500000000000001" class="delaunay-line"/>
<line x1="14.066987298107781" y1="0.2500000000000001" x2="14.37059047744874" y2="0.017037086855466538" class="delaunay-line"/>
<line x1="14.066987298107781" y1="0.2500000000000001" x2="14.19561928549564" y2="0.1033233298543818" class="delaunay-line"/>
<line x1="14.19561928549564" y1="0.1033233298543818" x2="13.459098475614775" y2="0.8073283883661349" class="delaunay-line"/>
<line x1="13.459098475614775" y1="0.8073283883661349" x2="14.066987298107781" y2="0.2500000000000001" class="delaunay-line"/>
<line x1="22.995722430686904" y1="4.565263096110026" x2="22.103323329854383" y2="4.80438071450436" class="delaunay-line"/>
<line x1="22.103323329854383" y1="4.80438071450436" x2="22.62940952255126" y2="4.982962913144534" class="delaunay-line"/>
<line x1="22.62940952255126" y1="4.982962913144534" x2="22.995722430686904" y2="4.565263096110026" class="delaunay-line"/>
<line x1="22.19561928549564" y1="4.1033233298543825" x2="19.793353340291233" y2="1.6087614290087198" class="delaunay-line"/>
<line x1="19.793353340291233" y1="1.6087614290087198" x2="22.06698729810778" y2="4.25" class="delaunay-line"/>
<line x1="22.06698729810778" y1="4.25" x2="22.19561928549564" y2="4.1033233298543825" class="delaunay-line"/>
<line x1="18.5" y1="0.13397459621556151" x2="14.75" y2="0.06698729810778059" class="delaunay-line"/>
<line x1="14.75" y1="0.06698729810778059" x2="14.896676670145617" y2="0.19561928549563984" class="delaunay-line"/>
<line x1="14.896676670145617" y1="0.19561928549563984" x2="18.5" y2="0.13397459621556151" class="delaunay-line"/>
<line x1="14.896676670145617" y1="0.19561928549563984" x2="14.37059047744874" y2="0.017037086855466538" class="delaunay-line"/>
<line x1="14.37059047744874" y1="0.017037086855466538" x2="14.982962913144533" y2="0.3705904774487401" class="delaunay-line"/>
<line x1="14.982962913144533" y1="0.3705904774487401" x2="14.896676670145617" y2="0.19561928549563984" class="delaunay-line"/>
<line x1="14.565263096110026" y1="0.004277569313095073" x2="14.37059047744874" y2="0.017037086855466538" class="delaunay-line"/>
<line x1="14.37059047744874" y1="0.017037086855466538" x2="14.896676670145617" y2="0.19561928549563984" class="delaunay-line"/>
<line x1="14.896676670145617" y1="0.19561928549563984" x2="14.565263096110026" y2="0.004277569313095073" class="delaunay-line"/>
<line x1="24" y1="24" x2="22.995722430686904" y2="4.565263096110026" class="delaunay-line"/>
<line x1="22.995722430686904" y1="4.565263096110026" x2="22.93301270189222" y2="4.75" class="delaunay-line"/>
<line x1="22.93301270189222" y1="4.75" x2="24" y2="24" class="delaunay-line"/>
<line x1="22.93301270189222" y1="4.75" x2="22.995722430686904" y2="4.565263096110026" class="delaunay-line"/>
<line x1="22.995722430686904" y1="4.565263096110026" x2="22.80438071450436" y2="4.8966766701456175" class="delaunay-line"/>
<line x1="22.80438071450436" y1="4.8966766701456175" x2="22.93301270189222" y2="4.75" class="delaunay-line"/>
<line x1="18.869473807779947" y1="0.008555138626190117" x2="14.565263096110026" y2="0.004277569313095073" class="delaunay-line"/>
<line x1="14.565263096110026" y1="0.004277569313095073" x2="14.75" y2="0.06698729810778059" class="delaunay-line"/>
<line x1="14.75" y1="0.06698729810778059" x2="18.869473807779947" y2="0.008555138626190117" class="delaunay-line"/>
<line x1="14.75" y1="0.06698729810778059" x2="14.565263096110026" y2="0.004277569313095073" class="delaunay-line"/>
<line x1="14.565263096110026" y1="0.004277569313095073" x2="14.896676670145617" y2="0.19561928549563984" class="delaunay-line"/>
<line x1="14.896676670145617" y1="0.19561928549563984" x2="14.75" y2="0.06698729810778059" class="delaunay-line"/>
<line x1="22.896676670145617" y1="4.19561928549564" x2="22.565263096110023" y2="4.0042775693130945" class="delaunay-line"/>
<line x1="22.565263096110023" y1="4.0042775693130945" x2="22.37059047744874" y2="4.017037086855466" class="delaunay-line"/>
<line x1="22.37059047744874" y1="4.017037086855466" x2="22.896676670145617" y2="4.19561928549564" class="delaunay-line"/>
<line x1="22.37059047744874" y1="4.017037086855466" x2="19.793353340291233" y2="1.6087614290087198" class="delaunay-line"/>
<line x1="19.793353340291233" y1="1.6087614290087198" x2="22.19561928549564" y2="4.1033233298543825" class="delaunay-line"/>
<line x1="22.19561928549564" y1="4.1033233298543825" x2="22.37059047744874" y2="4.017037086855466" class="delaunay-line"/>
<line x1="22.896676670145617" y1="4.19561928549564" x2="22.75" y2="4.06698729810778" class="delaunay-line"/>
<line x1="22.75" y1="4.06698729810778" x2="22.565263096110023" y2="4.0042775693130945" class="delaunay-line"/>
<line x1="22.565263096110023" y1="4.0042775693130945" x2="22.896676670145617" y2="4.19561928549564" class="delaunay-line"/>
<line x1="22.896676670145617" y1="4.19561928549564" x2="22.004277569313096" y2="4.434736903889974" class="delaunay-line"/>
<line x1="22.004277569313096" y1="4.434736903889974" x2="22.995722430686904" y2="4.565263096110026" class="delaunay-line"/>
<line x1="22.995722430686904" y1="4.565263096110026" x2="22.896676670145617" y2="4.19561928549564" class="delaunay-line"/>
<line x1="19.965925826289066" y1="1.2588190451025194" x2="19.793353340291233" y2="1.6087614290087198" class="delaunay-line"/>
<line x1="19.793353340291233" y1="1.6087614290087198" x2="22.37059047744874" y2="4.017037086855466" class="delaunay-line"/>
<line x1="22.37059047744874" y1="4.017037086855466" x2="19.965925826289066" y2="1.2588190451025194" class="delaunay-line"/>
<line x1="22.982962913144537" y1="4.370590477448739" x2="22.896676670145617" y2="4.19561928549564" class="delaunay-line"/>
<line x1="22.896676670145617" y1="4.19561928549564" x2="22.995722430686904" y2="4.565263096110026" class="delaunay-line"/>
<line x1="22.995722430686904" y1="4.565263096110026" x2="22.982962913144537" y2="4.370590477448739" class="delaunay-line"/>
<line x1="19.793353340291233" y1="1.6087614290087198" x2="18.034074173710934" y2="0.7411809548974809" class="delaunay-line"/>
<line x1="18.034074173710934" y1="0.7411809548974809" x2="18.74118095489748" y2="1.9659258262890673" class="delaunay-line"/>
<line x1="18.74118095489748" y1="1.9659258262890673" x2="19.793353340291233" y2="1.6087614290087198" class="delaunay-line"/>
<line x1="18.00855513862619" y1="1.1305261922200507" x2="18.034074173710934" y2="0.7411809548974809" class="delaunay-line"/>
<line x1="18.034074173710934" y1="0.7411809548974809" x2="14.995722430686905" y2="0.5652630961100249" class="delaunay-line"/>
<line x1="14.995722430686905" y1="0.5652630961100249" x2="18.00855513862619" y2="1.1305261922200507" class="delaunay-line"/>
<line x1="19.793353340291233" y1="1.6087614290087198" x2="19.130526192220053" y2="1.9914448613738098" class="delaunay-line"/>
<line x1="19.130526192220053" y1="1.9914448613738098" x2="19.5" y2="1.8660254037844382" class="delaunay-line"/>
<line x1="19.5" y1="1.8660254037844382" x2="19.793353340291233" y2="1.6087614290087198" class="delaunay-line"/>
<line x1="19.965925826289066" y1="1.2588190451025194" x2="22.37059047744874" y2="4.017037086855466" class="delaunay-line"/>
<line x1="22.37059047744874" y1="4.017037086855466" x2="24" y2="0" class="delaunay-line"/>
<line x1="24" y1="0" x2="19.965925826289066" y2="1.2588190451025194" class="delaunay-line"/>
<line x1="18.5" y1="0.13397459621556151" x2="18.206646659708763" y2="0.39123857099128057" class="delaunay-line"/>
<line x1="18.206646659708763" y1="0.39123857099128057" x2="18.034074173710934" y2="0.7411809548974809" class="delaunay-line"/>
<line x1="18.034074173710934" y1="0.7411809548974809" x2="18.5" y2="0.13397459621556151" class="delaunay-line"/>
<line x1="18.034074173710934" y1="0.7411809548974809" x2="18.206646659708763" y2="0.39123857099128057" class="delaunay-line"/>
<line x1="18.206646659708763" y1="0.39123857099128057" x2="14.982962913144533" y2="0.3705904774487401" class="delaunay-line"/>
<line x1="14.982962913144533" y1="0.3705904774487401" x2="18.034074173710934" y2="0.7411809548974809" class="delaunay-line"/>
<line x1="19.99144486137381" y1="0.8694738077799495" x2="19.965925826289066" y2="1.2588190451025194" class="delaunay-line"/>
<line x1="19.965925826289066" y1="1.2588190451025194" x2="24" y2="0" class="delaunay-line"/>
<line x1="24" y1="0" x2="19.99144486137381" y2="0.8694738077799495" class="delaunay-line"/>
<line x1="19.793353340291233" y1="1.6087614290087198" x2="19.965925826289066" y2="1.2588190451025194" class="delaunay-line"/>
<line x1="19.965925826289066" y1="1.2588190451025194" x2="18.034074173710934" y2="0.7411809548974809" class="delaunay-line"/>
<line x1="18.034074173710934" y1="0.7411809548974809" x2="19.793353340291233" y2="1.6087614290087198" class="delaunay-line"/>
<line x1="22.37059047744874" y1="4.017037086855466" x2="22.565263096110023" y2="4.0042775693130945" class="delaunay-line"/>
<line x1="22.565263096110023" y1="4.0042775693130945" x2="24" y2="0" class="delaunay-line"/>
<line x1="24" y1="0" x2="22.37059047744874" y2="4.017037086855466" class="delaunay-line"/>
<line x1="18.869473807779947" y1="0.008555138626190117" x2="18.5" y2="0.13397459621556151" class="delaunay-line"/>
<line x1="18.5" y1="0.13397459621556151" x2="18.034074173710934" y2="0.7411809548974809" class="delaunay-line"/>
<line x1="18.034074173710934" y1="0.7411809548974809" x2="18.869473807779947" y2="0.008555138626190117" class="delaunay-line"/>
<line x1="18.206646659708763" y1="0.39123857099128057" x2="18.5" y2="0.13397459621556151" class="delaunay-line"/>
<line x1="18.5" y1="0.13397459621556151" x2="14.896676670145617" y2="0.19561928549563984" class="delaunay-line"/>
<line x1="14.896676670145617" y1="0.19561928549563984" x2="18.206646659708763" y2="0.39123857099128057" class="delaunay-line"/>
<line x1="19.866025403784437" y1="0.49999999999999956" x2="19.99144486137381" y2="0.8694738077799495" class="delaunay-line"/>
<line x1="19.99144486137381" y1="0.8694738077799495" x2="24" y2="0" class="delaunay-line"/>
<line x1="24" y1="0" x2="19.866025403784437" y2="0.49999999999999956" class="delaunay-line"/>
<line x1="19.25881904510252" y1="0.03407417371093269" x2="18.869473807779947" y2="0.008555138626190117" class="delaunay-line"/>
<line x1="18.869473807779947" y1="0.008555138626190117" x2="18.034074173710934" y2="0.7411809548974809" class="delaunay-line"/>
<line x1="18.034074173710934" y1="0.7411809548974809" x2="19.25881904510252" y2="0.03407417371093269" class="delaunay-line"/>
<line x1="1.3826834323650892" y1="21.076120467488714" x2="1.7071067811865475" y2="21.292893218813454" class="delaunay-line"/>
<line x1="1.7071067811865475" y1="21.292893218813454" x2="5.750274236683771" y2="18.40204432393241" class="delaunay-line"/>
<line x1="5.750274236683771" y1="18.40204432393241" x2="1.3826834323650892" y2="21.076120467488714" class="delaunay-line"/>
<line x1="5.750274236683771" y1="18.40204432393241" x2="1.9238795325112878" y2="22.382683432365088" class="delaunay-line"/>
<line x1="1.9238795325112878" y1="22.382683432365088" x2="18.07612046748871" y2="22.382683432365088" class="delaunay-line"/>
<line x1="18.07612046748871" y1="22.382683432365088" x2="5.750274236683771" y2="18.40204432393241" class="delaunay-line"/>
<line x1="18.617316567634912" y1="22.92387953251129" x2="0" y2="24" class="delaunay-line"/>
<line x1="0" y1="24" x2="19" y2="23" class="delaunay-line"/>
<line x1="19" y1="23" x2="18.617316567634912" y2="22.92387953251129" class="delaunay-line"/>
<line x1="1.7071067811865475" y1="21.292893218813454" x2="1.923879532511286" y2="21.61731656763491" class="delaunay-line"/>
<line x1="1.923879532511286" y1="21.61731656763491" x2="5.750274236683771" y2="18.40204432393241" class="delaunay-line"/>
<line x1="5.750274236683771" y1="18.40204432393241" x2="1.7071067811865475" y2="21.292893218813454" class="delaunay-line"/>
<line x1="0.9999999999999989" y1="21" x2="1.3826834323650892" y2="21.076120467488714" class="delaunay-line"/>
<line x1="1.3826834323650892" y1="21.076120467488714" x2="5.750274236683771" y2="18.40204432393241" class="delaunay-line"/>
<line x1="5.750274236683771" y1="18.40204432393241" x2="0.9999999999999989" y2="21" class="delaunay-line"/>
<line x1="1.7071067811865475" y1="21.292893218813454" x2="1.999999999999999" y2="22" class="delaunay-line"/>
<line x1="1.999999999999999" y1="22" x2="1.923879532511286" y2="21.61731656763491" class="delaunay-line"/>
<line x1="1.923879532511286" y1="21.61731656763491" x2="1.7071067811865475" y2="21.292893218813454" class="delaunay-line"/>
<line x1="9.43689570931383e-16" y1="22" x2="1.999999999999999" y2="22" class="delaunay-line"/>
<line x1="1.999999999999999" y1="22" x2="1.7071067811865475" y2="21.292893218813454" class="delaunay-line"/>
<line x1="1.7071067811865475" y1="21.292893218813454" x2="9.43689570931383e-16" y2="22" class="delaunay-line"/>
<line x1="1.923879532511286" y1="21.61731656763491" x2="1.999999999999999" y2="22" class="delaunay-line"/>
<line x1="1.999999999999999" y1="22" x2="5.750274236683771" y2="18.40204432393241" class="delaunay-line"/>
<line x1="5.750274236683771" y1="18.40204432393241" x2="1.923879532511286" y2="21.61731656763491" class="delaunay-line"/>
<line x1="19.25881904510252" y1="0.03407417371093269" x2="18.034074173710934" y2="0.7411809548974809" class="delaunay-line"/>
<line x1="18.034074173710934" y1="0.7411809548974809" x2="19.965925826289066" y2="1.2588190451025194" class="delaunay-line"/>
<line x1="19.965925826289066" y1="1.2588190451025194" x2="19.25881904510252" y2="0.03407417371093269" class="delaunay-line"/>
<line x1="18.5" y1="0.13397459621556151" x2="18.869473807779947" y2="0.008555138626190117" class="delaunay-line"/>
<line x1="18.869473807779947" y1="0.008555138626190117" x2="14.75" y2="0.06698729810778059" class="delaunay-line"/>
<line x1="14.75" y1="0.06698729810778059" x2="18.5" y2="0.13397459621556151" class="delaunay-line"/>
<line x1="24" y1="0" x2="22.565263096110023" y2="4.0042775693130945" class="delaunay-line"/>
<line x1="22.565263096110023" y1="4.0042775693130945" x2="22.75" y2="4.06698729810778" class="delaunay-line"/>
<line x1="22.75" y1="4.06698729810778" x2="24" y2="0" class="delaunay-line"/>
<line x1="19.99144486137381" y1="0.8694738077799495" x2="19.866025403784437" y2="0.49999999999999956" class="delaunay-line"/>
<line x1="19.866025403784437" y1="0.49999999999999956" x2="19.965925826289066" y2="1.2588190451025194" class="delaunay-line"/>
<line x1="19.965925826289066" y1="1.2588190451025194" x2="19.99144486137381" y2="0.8694738077799495" class="delaunay-line"/>
<line x1="0" y1="0" x2="1.867988560145956" y2="3.9131569295963873" class="delaunay-line"/>
<line x1="1.867988560145956" y1="3.9131569295963873" x2="13.459098475614775" y2="0.8073283883661349" class="delaunay-line"/>
<line x1="13.459098475614775" y1="0.8073283883661349" x2="0" y2="0" class="delaunay-line"/>
<line x1="13.459098475614775" y1="0.8073283883661349" x2="1.867988560145956" y2="3.9131569295963873" class="delaunay-line"/>
<line x1="1.867988560145956" y1="3.9131569295963873" x2="12.61731656763491" y2="12.076120467488714" class="delaunay-line"/>
<line x1="12.61731656763491" y1="12.076120467488714" x2="13.459098475614775" y2="0.8073283883661349" class="delaunay-line"/>
<line x1="0" y1="0" x2="13.459098475614775" y2="0.8073283883661349" class="delaunay-line"/>
<line x1="13.459098475614775" y1="0.8073283883661349" x2="14.19561928549564" y2="0.1033233298543818" class="delaunay-line"/>
<line x1="14.19561928549564" y1="0.1033233298543818" x2="0" y2="0" class="delaunay-line"/>
<line x1="19.866025403784437" y1="0.49999999999999956" x2="19.25881904510252" y2="0.03407417371093269" class="delaunay-line"/>
<line x1="19.25881904510252" y1="0.03407417371093269" x2="19.965925826289066" y2="1.2588190451025194" class="delaunay-line"/>
<line x1="19.965925826289066" y1="1.2588190451025194" x2="19.866025403784437" y2="0.49999999999999956" class="delaunay-line"/>
<line x1="19.866025403784437" y1="0.49999999999999956" x2="19.60876142900872" y2="0.20664665970876311" class="delaunay-line"/>
<line x1="19.60876142900872" y1="0.20664665970876311" x2="19.25881904510252" y2="0.03407417371093269" class="delaunay-line"/>
<line x1="19.25881904510252" y1="0.03407417371093269" x2="19.866025403784437" y2="0.49999999999999956" class="delaunay-line"/>
<line x1="1.867988560145956" y1="3.9131569295963873" x2="0.9999999999999989" y2="21" class="delaunay-line"/>
<line x1="0.9999999999999989" y1="21" x2="5.750274236683771" y2="18.40204432393241" class="delaunay-line"/>
<line x1="5.750274236683771" y1="18.40204432393241" x2="1.867988560145956" y2="3.9131569295963873" class="delaunay-line"/>
<line x1="0.6173165676349112" y1="22.923879532511286" x2="1.7071067811865477" y2="22.707106781186546" class="delaunay-line"/>
<line x1="1.7071067811865477" y1="22.707106781186546" x2="1.999999999999999" y2="22" class="delaunay-line"/>
<line x1="1.999999999999999" y1="22" x2="0.6173165676349112" y2="22.923879532511286" class="delaunay-line"/>
<line x1="1.7071067811865477" y1="22.707106781186546" x2="1.9238795325112878" y2="22.382683432365088" class="delaunay-line"/>
<line x1="1.9238795325112878" y1="22.382683432365088" x2="1.999999999999999" y2="22" class="delaunay-line"/>
<line x1="1.999999999999999" y1="22" x2="1.7071067811865477" y2="22.707106781186546" class="delaunay-line"/>
<line x1="1.999999999999999" y1="22" x2="1.9238795325112878" y2="22.382683432365088" class="delaunay-line"/>
<line x1="1.9238795325112878" y1="22.382683432365088" x2="5.750274236683771" y2="18.40204432393241" class="delaunay-line"/>
<line x1="5.750274236683771" y1="18.40204432393241" x2="1.999999999999999" y2="22" class="delaunay-line"/>
<line x1="1.867988560145956" y1="3.9131569295963873" x2="0.6173165676349113" y2="21.07612046748871" class="delaunay-line"/>
<line x1="0.6173165676349113" y1="21.07612046748871" x2="0.9999999999999989" y2="21" class="delaunay-line"/>
<line x1="0.9999999999999989" y1="21" x2="1.867988560145956" y2="3.9131569295963873" class="delaunay-line"/>
<line x1="0.2928932188134523" y1="21.292893218813454" x2="1.7071067811865475" y2="21.292893218813454" class="delaunay-line"/>
<line x1="1.7071067811865475" y1="21.292893218813454" x2="1.3826834323650892" y2="21.076120467488714" class="delaunay-line"/>
<line x1="1.3826834323650892" y1="21.076120467488714" x2="0.2928932188134523" y2="21.292893218813454" class="delaunay-line"/>
<line x1="0.2928932188134523" y1="21.292893218813454" x2="1.3826834323650892" y2="21.076120467488714" class="delaunay-line"/>
<line x1="1.3826834323650892" y1="21.076120467488714" x2="0.9999999999999989" y2="21" class="delaunay-line"/>
<line x1="0.9999999999999989" y1="21" x2="0.2928932188134523" y2="21.292893218813454" class="delaunay-line"/>
<line x1="1.9238795325112878" y1="22.382683432365088" x2="1.7071067811865477" y2="22.707106781186546" class="delaunay-line"/>
<line x1="1.7071067811865477" y1="22.707106781186546" x2="18.292893218813454" y2="22.707106781186546" class="delaunay-line"/>
<line x1="18.292893218813454" y1="22.707106781186546" x2="1.9238795325112878" y2="22.382683432365088" class="delaunay-line"/>
<line x1="1.867988560145956" y1="3.9131569295963873" x2="0.2928932188134523" y2="21.292893218813454" class="delaunay-line"/>
<line x1="0.2928932188134523" y1="21.292893218813454" x2="0.6173165676349113" y2="21.07612046748871" class="delaunay-line"/>
<line x1="0.6173165676349113" y1="21.07612046748871" x2="1.867988560145956" y2="3.9131569295963873" class="delaunay-line"/>
<line x1="0.6173165676349113" y1="21.07612046748871" x2="0.2928932188134523" y2="21.292893218813454" class="delaunay-line"/>
<line x1="0.2928932188134523" y1="21.292893218813454" x2="0.9999999999999989" y2="21" class="delaunay-line"/>
<line x1="0.9999999999999989" y1="21" x2="0.6173165676349113" y2="21.07612046748871" class="delaunay-line"/>
<line x1="1.0000000000000013" y1="23" x2="1.382683432365089" y2="22.92387953251129" class="delaunay-line"/>
<line x1="1.382683432365089" y1="22.92387953251129" x2="1.7071067811865477" y2="22.707106781186546" class="delaunay-line"/>
<line x1="1.7071067811865477" y1="22.707106781186546" x2="1.0000000000000013" y2="23" class="delaunay-line"/>
<line x1="1.7071067811865477" y1="22.707106781186546" x2="0" y2="24" class="delaunay-line"/>
<line x1="0" y1="24" x2="18.292893218813454" y2="22.707106781186546" class="delaunay-line"/>
<line x1="18.292893218813454" y1="22.707106781186546" x2="1.7071067811865477" y2="22.707106781186546" class="delaunay-line"/>
<line x1="1.867988560145956" y1="3.9131569295963873" x2="0.0761204674887121" y2="21.617316567634912" class="delaunay-line"/>
<line x1="0.0761204674887121" y1="21.617316567634912" x2="0.2928932188134523" y2="21.292893218813454" class="delaunay-line"/>
<line x1="0.2928932188134523" y1="21.292893218813454" x2="1.867988560145956" y2="3.9131569295963873" class="delaunay-line"/>
<line x1="0.6173165676349112" y1="22.923879532511286" x2="1.0000000000000013" y2="23" class="delaunay-line"/>
<line x1="1.0000000000000013" y1="23" x2="1.7071067811865477" y2="22.707106781186546" class="delaunay-line"/>
<line x1="1.7071067811865477" y1="22.707106781186546" x2="0.6173165676349112" y2="22.923879532511286" class="delaunay-line"/>
<line x1="19.92387953251129" y1="22.382683432365088" x2="24" y2="24" class="delaunay-line"/>
<line x1="24" y1="24" x2="20" y2="22" class="delaunay-line"/>
<line x1="20" y1="22" x2="19.92387953251129" y2="22.382683432365088" class="delaunay-line"/>
<line x1="20" y1="22" x2="24" y2="24" class="delaunay-line"/>
<line x1="24" y1="24" x2="19.92387953251129" y2="21.617316567634912" class="delaunay-line"/>
<line x1="19.92387953251129" y1="21.617316567634912" x2="20" y2="22" class="delaunay-line"/>
<line x1="19.707106781186546" y1="22.707106781186546" x2="24" y2="24" class="delaunay-line"/>
<line x1="24" y1="24" x2="19.92387953251129" y2="22.382683432365088" class="delaunay-line"/>
<line x1="19.92387953251129" y1="22.382683432365088" x2="19.707106781186546" y2="22.707106781186546" class="delaunay-line"/>
<line x1="19.382683432365088" y1="22.92387953251129" x2="24" y2="24" class="delaunay-line"/>
<line x1="24" y1="24" x2="19.707106781186546" y2="22.707106781186546" class="delaunay-line"/>
<line x1="19.707106781186546" y1="22.707106781186546" x2="19.382683432365088" y2="22.92387953251129" class="delaunay-line"/>
<line x1="19" y1="23" x2="24" y2="24" class="delaunay-line"/>
<line x1="24" y1="24" x2="19.382683432365088" y2="22.92387953251129" class="delaunay-line"/>
<line x1="19.382683432365088" y1="22.92387953251129" x2="19" y2="23" class="delaunay-line"/>
<line x1="0" y1="24" x2="24" y2="24" class="delaunay-line"/>
<line x1="24" y1="24" x2="19" y2="23" class="delaunay-line"/>
<line x1="19" y1="23" x2="0" y2="24" class="delaunay-line"/>
<line x1="9.43689570931383e-16" y1="22" x2="1.7071067811865475" y2="21.292893218813454" class="delaunay-line"/>
<line x1="1.7071067811865475" y1="21.292893218813454" x2="0.2928932188134523" y2="21.292893218813454" class="delaunay-line"/>
<line x1="0.2928932188134523" y1="21.292893218813454" x2="9.43689570931383e-16" y2="22" class="delaunay-line"/>
<line x1="1.382683432365089" y1="22.92387953251129" x2="0" y2="24" class="delaunay-line"/>
<line x1="0" y1="24" x2="1.7071067811865477" y2="22.707106781186546" class="delaunay-line"/>
<line x1="1.7071067811865477" y1="22.707106781186546" x2="1.382683432365089" y2="22.92387953251129" class="delaunay-line"/>
<line x1="0" y1="0" x2="9.43689570931383e-16" y2="22" class="delaunay-line"/>
<line x1="9.43689570931383e-16" y1="22" x2="0.0761204674887121" y2="21.617316567634912" class="delaunay-line"/>
<line x1="0.0761204674887121" y1="21.617316567634912" x2="0" y2="0" class="delaunay-line"/>
<line x1="0.0761204674887121" y1="21.617316567634912" x2="9.43689570931383e-16" y2="22" class="delaunay-line"/>
<line x1="9.43689570931383e-16" y1="22" x2="0.2928932188134523" y2="21.292893218813454" class="delaunay-line"/>
<line x1="0.2928932188134523" y1="21.292893218813454" x2="0.0761204674887121" y2="21.617316567634912" class="delaunay-line"/>
<line x1="9.43689570931383e-16" y1="22" x2="0.6173165676349112" y2="22.923879532511286" class="delaunay-line"/>
<line x1="0.6173165676349112" y1="22.923879532511286" x2="1.999999999999999" y2="22" class="delaunay-line"/>
<line x1="1.999999999999999" y1="22" x2="9.43689570931383e-16" y2="22" class="delaunay-line"/>
<line x1="9.43689570931383e-16" y1="22" x2="0.29289321881345276" y2="22.707106781186546" class="delaunay-line"/>
<line x1="0.29289321881345276" y1="22.707106781186546" x2="0.6173165676349112" y2="22.923879532511286" class="delaunay-line"/>
<line x1="0.6173165676349112" y1="22.923879532511286" x2="9.43689570931383e-16" y2="22" class="delaunay-line"/>
<line x1="0.07612046748871348" y1="22.38268343236509" x2="0.29289321881345276" y2="22.707106781186546" class="delaunay-line"/>
<line x1="0.29289321881345276" y1="22.707106781186546" x2="9.43689570931383e-16" y2="22" class="delaunay-line"/>
<line x1="9.43689570931383e-16" y1="22" x2="0.07612046748871348" y2="22.38268343236509" class="delaunay-line"/>
<line x1="9.43689570931383e-16" y1="22" x2="0" y2="24" class="delaunay-line"/>
<line x1="0" y1="24" x2="0.07612046748871348" y2="22.38268343236509" class="delaunay-line"/>
<line x1="0.07612046748871348" y1="22.38268343236509" x2="9.43689570931383e-16" y2="22" class="delaunay-line"/>
<line x1="0.07612046748871348" y1="22.38268343236509" x2="0" y2="24" class="delaunay-line"/>
<line x1="0" y1="24" x2="0.29289321881345276" y2="22.707106781186546" class="delaunay-line"/>
<line x1="0.29289321881345276" y1="22.707106781186546" x2="0.07612046748871348" y2="22.38268343236509" class="delaunay-line"/>
<line x1="0.29289321881345276" y1="22.707106781186546" x2="0" y2="24" class="delaunay-line"/>
<line x1="0" y1="24" x2="0.6173165676349112" y2="22.923879532511286" class="delaunay-line"/>
<line x1="0.6173165676349112" y1="22.923879532511286" x2="0.29289321881345276" y2="22.707106781186546" class="delaunay-line"/>
<line x1="0.6173165676349112" y1="22.923879532511286" x2="0" y2="24" class="delaunay-line"/>
<line x1="0" y1="24" x2="1.0000000000000013" y2="23" class="delaunay-line"/>
<line x1="1.0000000000000013" y1="23" x2="0.6173165676349112" y2="22.923879532511286" class="delaunay-line"/>
<line x1="1.0000000000000013" y1="23" x2="0" y2="24" class="delaunay-line"/>
<line x1="0" y1="24" x2="1.382683432365089" y2="22.92387953251129" class="delaunay-line"/>
<line x1="1.382683432365089" y1="22.92387953251129" x2="1.0000000000000013" y2="23" class="delaunay-line"/>
<line x1="22.982962913144537" y1="4.370590477448739" x2="24" y2="0" class="delaunay-line"/>
<line x1="24" y1="0" x2="22.896676670145617" y2="4.19561928549564" class="delaunay-line"/>
<line x1="22.896676670145617" y1="4.19561928549564" x2="22.982962913144537" y2="4.370590477448739" class="delaunay-line"/>
<line x1="22.896676670145617" y1="4.19561928549564" x2="24" y2="0" class="delaunay-line"/>
<line x1="24" y1="0" x2="22.75" y2="4.06698729810778" class="delaunay-line"/>
<line x1="22.75" y1="4.06698729810778" x2="22.896676670145617" y2="4.19561928549564" class="delaunay-line"/>
<line x1="19.866025403784437" y1="0.49999999999999956" x2="24" y2="0" class="delaunay-line"/>
<line x1="24" y1="0" x2="19.60876142900872" y2="0.20664665970876311" class="delaunay-line"/>
<line x1="19.60876142900872" y1="0.20664665970876311" x2="19.866025403784437" y2="0.49999999999999956" class="delaunay-line"/>
<line x1="19.60876142900872" y1="0.20664665970876311" x2="24" y2="0" class="delaunay-line"/>
<line x1="24" y1="0" x2="19.25881904510252" y2="0.03407417371093269" class="delaunay-line"/>
<line x1="19.25881904510252" y1="0.03407417371093269" x2="19.60876142900872" y2="0.20664665970876311" class="delaunay-line"/>
<line x1="19.25881904510252" y1="0.03407417371093269" x2="24" y2="0" class="delaunay-line"/>
<line x1="24" y1="0" x2="18.869473807779947" y2="0.008555138626190117" class="delaunay-line"/>
<line x1="18.869473807779947" y1="0.008555138626190117" x2="19.25881904510252" y2="0.03407417371093269" class="delaunay-line"/>
<line x1="18.869473807779947" y1="0.008555138626190117" x2="24" y2="0" class="delaunay-line"/>
<line x1="24" y1="0" x2="14.565263096110026" y2="0.004277569313095073" class="delaunay-line"/>
<line x1="14.565263096110026" y1="0.004277569313095073" x2="18.869473807779947" y2="0.008555138626190117" class="delaunay-line"/>
<line x1="22.995722430686904" y1="4.565263096110026" x2="24" y2="0" class="delaunay-line"/>
<line x1="24" y1="0" x2="22.982962913144537" y2="4.370590477448739" class="delaunay-line"/>
<line x1="22.982962913144537" y1="4.370590477448739" x2="22.995722430686904" y2="4.565263096110026" class="delaunay-line"/>
<line x1="24" y1="24" x2="24" y2="0" class="delaunay-line"/>
<line x1="24" y1="0" x2="22.995722430686904" y2="4.565263096110026" class="delaunay-line"/>
<line x1="22.995722430686904" y1="4.565263096110026" x2="24" y2="24" class="delaunay-line"/>
<line x1="14.37059047744874" y1="0.017037086855466538" x2="0" y2="0" class="delaunay-line"/>
<line x1="0" y1="0" x2="14.19561928549564" y2="0.1033233298543818" class="delaunay-line"/>
<line x1="14.19561928549564" y1="0.1033233298543818" x2="14.37059047744874" y2="0.017037086855466538" class="delaunay-line"/>
<line x1="1.867988560145956" y1="3.9131569295963873" x2="0" y2="0" class="delaunay-line"/>
<line x1="0" y1="0" x2="0.0761204674887121" y2="21.617316567634912" class="delaunay-line"/>
<line x1="0.0761204674887121" y1="21.617316567634912" x2="1.867988560145956" y2="3.9131569295963873" class="delaunay-line"/>
<line x1="9.43689570931383e-16" y1="22" x2="0" y2="0" class="delaunay-line"/>
<line x1="0" y1="0" x2="0" y2="24" class="delaunay-line"/>
<line x1="0" y1="24" x2="9.43689570931383e-16" y2="22" class="delaunay-line"/>
<line x1="14.565263096110026" y1="0.004277569313095073" x2="0" y2="0" class="delaunay-line"/>
<line x1="0" y1="0" x2="14.37059047744874" y2="0.017037086855466538" class="delaunay-line"/>
<line x1="14.37059047744874" y1="0.017037086855466538" x2="14.565263096110026" y2="0.004277569313095073" class="delaunay-line"/>
<line x1="24" y1="0" x2="0" y2="0" class="delaunay-line"/>
<line x1="0" y1="0" x2="14.565263096110026" y2="0.004277569313095073" class="delaunay-line"/>
<line x1="14.565263096110026" y1="0.004277569313095073" x2="24" y2="0" class="delaunay-line"/>
</g>
<g id="layer-area" class="layer ">
<polygon points="17.34138415215259,15.29621578270216 5.750274236683771,18.40204432393241 1.867988560145956,3.9131569295963873 13.459098475614775,0.8073283883661349" class="terrain-area"/>
<text x="9.604686356149273" y="9.604686356149275" class="label">#C49A6C</text>
</g>
<g id="layer-building" class="layer ">
<polygon points="12.268029549288272,3.8335161577891794 10.197477188468106,11.560922768101726 0.5382189255774241,8.972732317076517 2.60877128639759,1.2453257067639711" class="terrain-solid"/>
<text x="6.4031242374328485" y="6.4031242374328485" class="label">#000000</text>
</g>
<g id="layer-wall" class="layer ">
<polygon points="9.013257342214393,14.218920505898797 9.496220255358926,14.089510983347534 11.049134525974049,19.885065941081944 10.566171612829516,20.014475463633207" class="terrain-solid"/>
<text x="10.031195934094221" y="17.05199322349037" class="label">#555555</text>
<polygon points="16.03405463161054,14.218920505898797 16.517017544755074,14.089510983347534 18.0699318153702,19.885065941081944 17.586968902225667,20.014475463633207" class="terrain-solid"/>
<text x="17.05199322349037" y="17.05199322349037" class="label">#555555</text>
<polygon points="16.03405463161054,7.198123216502646 16.517017544755074,7.068713693951386 18.0699318153702,12.864268651685796 17.586968902225667,12.993678174237056" class="terrain-solid"/>
<text x="17.05199322349037" y="10.031195934094221" class="label">#555555</text>
<polygon points="1.992460052818245,14.218920505898797 2.475422965962779,14.089510983347534 4.028337236577903,19.885065941081944 3.545374323433369,20.014475463633207" class="terrain-solid"/>
<text x="3.010398644698074" y="17.05199322349037" class="label">#555555</text>
</g>
<g id="layer-tree" class="layer ">
<polygon points="18.5,0.13397459621556151 18.869473807779947,0.008555138626190117 19.25881904510252,0.03407417371093269 19.60876142900872,0.20664665970876311 19.866025403784437,0.49999999999999956 19.99144486137381,0.8694738077799495 19.965925826289066,1.2588190451025194 19.793353340291233,1.6087614290087198 19.5,1.8660254037844382 19.130526192220053,1.9914448613738098 18.74118095489748,1.9659258262890673 18.39123857099128,1.793353340291237 18.133974596215563,1.5000000000000004 18.00855513862619,1.1305261922200507 18.034074173710934,0.7411809548974809 18.206646659708763,0.39123857099128057" class="terrain-solid"/>
<text x="19" y="1" class="label">#90EE90</text>
<polygon points="19.707106781186546,22.707106781186546 19.382683432365088,22.92387953251129 19,23 18.617316567634912,22.92387953251129 18.292893218813454,22.707106781186546 18.07612046748871,22.382683432365088 18,22 18.07612046748871,21.617316567634912 18.292893218813454,21.292893218813454 18.617316567634912,21.07612046748871 19,21 19.382683432365088,21.07612046748871 19.707106781186546,21.292893218813454 19.92387953251129,21.617316567634912 20,22 19.92387953251129,22.382683432365088" class="terrain-solid"/>
<text x="19" y="22" class="label">#90EE90</text>
<polygon points="0.2928932188134523,21.292893218813454 0.6173165676349113,21.07612046748871 0.9999999999999989,21 1.3826834323650892,21.076120467488714 1.7071067811865475,21.292893218813454 1.923879532511286,21.61731656763491 1.999999999999999,22 1.9238795325112878,22.382683432365088 1.7071067811865477,22.707106781186546 1.382683432365089,22.92387953251129 1.0000000000000013,23 0.6173165676349112,22.923879532511286 0.29289321881345276,22.707106781186546 0.07612046748871348,22.38268343236509 9.43689570931383e-16,22 0.0761204674887121,21.617316567634912" class="terrain-solid"/>
<text x="1" y="22" class="label">#90EE90</text>
<polygon points="12.292893218813452,12.292893218813452 12.61731656763491,12.076120467488714 13,12 13.382683432365088,12.076120467488712 13.707106781186548,12.292893218813452 13.923879532511286,12.61731656763491 14,13 13.923879532511288,13.382683432365088 13.707106781186548,13.707106781186548 13.38268343236509,13.923879532511286 13,14 12.617316567634912,13.923879532511288 12.292893218813452,13.707106781186548 12.076120467488714,13.38268343236509 12,13 12.076120467488712,12.617316567634912" class="terrain-solid"/>
<text x="13" y="13" class="label">#90EE90</text>
</g>
<g id="layer-rocks" class="layer ">
</g>
<g id="layer-shrub" class="layer ">
<polygon points="14.25,0.9330127018922194 14.103323329854383,0.8043807145043601 14.017037086855467,0.6294095225512599 14.004277569313095,0.43473690388997505 14.066987298107781,0.2500000000000001 14.19561928549564,0.1033233298543818 14.37059047744874,0.017037086855466538 14.565263096110026,0.004277569313095073 14.75,0.06698729810778059 14.896676670145617,0.19561928549563984 14.982962913144533,0.3705904774487401 14.995722430686905,0.5652630961100249 14.933012701892219,0.7499999999999999 14.80438071450436,0.8966766701456181 14.62940952255126,0.9829629131445335 14.434736903889975,0.995722430686905" class="terrain-solid"/>
<text x="14.5" y="0.5" class="label">#006400</text>
<polygon points="22.93301270189222,4.75 22.80438071450436,4.8966766701456175 22.62940952255126,4.982962913144534 22.434736903889977,4.9957224306869055 22.25,4.93301270189222 22.103323329854383,4.80438071450436 22.017037086855463,4.629409522551261 22.004277569313096,4.434736903889974 22.06698729810778,4.25 22.19561928549564,4.1033233298543825 22.37059047744874,4.017037086855466 22.565263096110023,4.0042775693130945 22.75,4.06698729810778 22.896676670145617,4.19561928549564 22.982962913144537,4.370590477448739 22.995722430686904,4.565263096110026" class="terrain-solid"/>
<text x="22.5" y="4.500000000000001" class="label">#006400</text>
</g>
<g id="layer-terrain" class="layer ">
</g>
<g id="layer-models" class="layer ">
</g>
<g id="layer-paths" class="layer ">
</g>
<g id="layer-vectors" class="layer ">
</g>
<g id="layer-los" class="layer ">
</g>
<g id="layer-lof" class="layer ">
</g>

<g id="legend">
<g class="toggle" onclick="toggleLayer('grid')"><rect x="0.4" y="0.14999999999999997" width="0.4" height="0.4" fill="#222" stroke="#222" stroke-width="0.05"/><text x="1.0" y="0.5499999999999999" class="label">0.5 MU Grid</text></g>
<g class="toggle" onclick="toggleLayer('delaunay')"><rect x="0.4" y="0.95" width="0.4" height="0.4" fill="#222" stroke="#222" stroke-width="0.05"/><text x="1.0" y="1.3499999999999999" class="label">Delaunay Mesh</text></g>
<g class="toggle" onclick="toggleLayer('area')"><rect x="0.4" y="1.7500000000000002" width="0.4" height="0.4" fill="#222" stroke="#222" stroke-width="0.05"/><text x="1.0" y="2.1500000000000004" class="label">Area Terrain</text></g>
<g class="toggle" onclick="toggleLayer('building')"><rect x="0.4" y="2.55" width="0.4" height="0.4" fill="#222" stroke="#222" stroke-width="0.05"/><text x="1.0" y="2.95" class="label">Buildings</text></g>
<g class="toggle" onclick="toggleLayer('wall')"><rect x="0.4" y="3.3499999999999996" width="0.4" height="0.4" fill="#222" stroke="#222" stroke-width="0.05"/><text x="1.0" y="3.75" class="label">Walls</text></g>
<g class="toggle" onclick="toggleLayer('tree')"><rect x="0.4" y="4.1499999999999995" width="0.4" height="0.4" fill="#222" stroke="#222" stroke-width="0.05"/><text x="1.0" y="4.55" class="label">Trees</text></g>
<g class="toggle disabled"><rect x="0.4" y="4.949999999999999" width="0.4" height="0.4" fill="#222" stroke="#222" stroke-width="0.05"/><text x="1.0" y="5.35" class="label">Rocks</text></g>
<g class="toggle" onclick="toggleLayer('shrub')"><rect x="0.4" y="5.749999999999999" width="0.4" height="0.4" fill="#222" stroke="#222" stroke-width="0.05"/><text x="1.0" y="6.1499999999999995" class="label">Shrubs</text></g>
<g class="toggle" onclick="toggleLayer('terrain')"><rect x="0.4" y="6.549999999999999" width="0.4" height="0.4" fill="#222" stroke="#222" stroke-width="0.05"/><text x="1.0" y="6.949999999999999" class="label">Other Terrain</text></g>
<g class="toggle" onclick="toggleLayer('models')"><rect x="0.4" y="7.349999999999999" width="0.4" height="0.4" fill="#222" stroke="#222" stroke-width="0.05"/><text x="1.0" y="7.749999999999999" class="label">Models</text></g>
<g class="toggle" onclick="toggleLayer('paths')"><rect x="0.4" y="8.15" width="0.4" height="0.4" fill="#222" stroke="#222" stroke-width="0.05"/><text x="1.0" y="8.549999999999999" class="label">Paths</text></g>
<g class="toggle" onclick="toggleLayer('vectors')"><rect x="0.4" y="8.950000000000001" width="0.4" height="0.4" fill="#222" stroke="#222" stroke-width="0.05"/><text x="1.0" y="9.35" class="label">Vectors</text></g>
<g class="toggle" onclick="toggleLayer('los')"><rect x="0.4" y="9.750000000000002" width="0.4" height="0.4" fill="#222" stroke="#222" stroke-width="0.05"/><text x="1.0" y="10.15" class="label">LOS</text></g>
<g class="toggle" onclick="toggleLayer('lof')"><rect x="0.4" y="10.550000000000002" width="0.4" height="0.4" fill="#222" stroke="#222" stroke-width="0.05"/><text x="1.0" y="10.950000000000001" class="label">LOF</text></g>
</g>
</svg>