<svg xmlns="http://www.w3.org/2000/svg" viewBox="0 0 24 24" width="960" height="960" font-family="Arial" font-size="0.6">
<defs>
  <style><![CDATA[
    .layer { display: inline; }
    .layer.hidden { display: none; }
    .grid-line { stroke: #999; stroke-width: 0.02; opacity: 0.2; }
    .delaunay-line { stroke: #4a6fa5; stroke-width: 0.03; opacity: 0.3; }
    .terrain-area { stroke: #000; stroke-width: 0.05; }
    .terrain-solid { stroke: #000; stroke-width: 0.05; }
    .model { stroke: #000; stroke-width: 0.05; }
    .path { fill: none; stroke-width: 0.12; }
    .vector { stroke-width: 0.1; }
    .los-ray { stroke-width: 0.08; stroke-dasharray: 0.2 0.2; }
    .lof-ray { stroke-width: 0.08; stroke-dasharray: 0.3 0.15; }
    .label { fill: #111; font-size: 0.6px; }
    .toggle { cursor: pointer; }
  ]]></style>
</defs>
<rect x="0" y="0" width="24" height="24" fill="#ffffff" stroke="#111" stroke-width="0.05"/>
<g id="legend">
<g class="toggle" onclick="toggleLayer('grid')"><rect x="0.4" y="0.14999999999999997" width="0.4" height="0.4" fill="#222" stroke="#222" stroke-width="0.05"/><text x="1.0" y="0.5499999999999999" class="label">0.5 MU Grid</text></g>
<g class="toggle" onclick="toggleLayer('delaunay')"><rect x="0.4" y="0.95" width="0.4" height="0.4" fill="#222" stroke="#222" stroke-width="0.05"/><text x="1.0" y="1.3499999999999999" class="label">Delaunay Mesh</text></g>
<g class="toggle" onclick="toggleLayer('area')"><rect x="0.4" y="1.7500000000000002" width="0.4" height="0.4" fill="#222" stroke="#222" stroke-width="0.05"/><text x="1.0" y="2.1500000000000004" class="label">Area Terrain</text></g>
<g class="toggle" onclick="toggleLayer('terrain')"><rect x="0.4" y="2.55" width="0.4" height="0.4" fill="#222" stroke="#222" stroke-width="0.05"/><text x="1.0" y="2.95" class="label">Other Terrain</text></g>
<g class="toggle" onclick="toggleLayer('models')"><rect x="0.4" y="3.3499999999999996" width="0.4" height="0.4" fill="#222" stroke="#222" stroke-width="0.05"/><text x="1.0" y="3.75" class="label">Models</text></g>
<g class="toggle" onclick="toggleLayer('paths')"><rect x="0.4" y="4.1499999999999995" width="0.4" height="0.4" fill="#222" stroke="#222" stroke-width="0.05"/><text x="1.0" y="4.55" class="label">Paths</text></g>
<g class="toggle" onclick="toggleLayer('vectors')"><rect x="0.4" y="4.949999999999999" width="0.4" height="0.4" fill="#222" stroke="#222" stroke-width="0.05"/><text x="1.0" y="5.35" class="label">Vectors</text></g>
<g class="toggle" onclick="toggleLayer('los')"><rect x="0.4" y="5.749999999999999" width="0.4" height="0.4" fill="#222" stroke="#222" stroke-width="0.05"/><text x="1.0" y="6.1499999999999995" class="label">LOS</text></g>
<g class="toggle" onclick="toggleLayer('lof')"><rect x="0.4" y="6.549999999999999" width="0.4" height="0.4" fill="#222" stroke="#222" stroke-width="0.05"/><text x="1.0" y="6.949999999999999" class="label">LOF</text></g>
</g>
<script><![CDATA[
      function toggleLayer(id) {
        var layer = document.getElementById('layer-' + id);
        if (!layer) return;
        if (layer.classList.contains('hidden')) {
          layer.classList.remove('hidden');
        } else {
          layer.classList.add('hidden');
        }
      }
    ]]></script>
<text x="0.4" y="23.6" class="label">LOS Checks (SIZ 3) blockLOS 50</text>
<g id="layer-grid" class="layer ">
<line x1="0" y1="0" x2="0" y2="24" class="grid-line"/>
<line x1="0.5" y1="0" x2="0.5" y2="24" class="grid-line"/>
<line x1="1" y1="0" x2="1" y2="24" class="grid-line"/>
<line x1="1.5" y1="0" x2="1.5" y2="24" class="grid-line"/>
<line x1="2" y1="0" x2="2" y2="24" class="grid-line"/>
<line x1="2.5" y1="0" x2="2.5" y2="24" class="grid-line"/>
<line x1="3" y1="0" x2="3" y2="24" class="grid-line"/>
<line x1="3.5" y1="0" x2="3.5" y2="24" class="grid-line"/>
<line x1="4" y1="0" x2="4" y2="24" class="grid-line"/>
<line x1="4.5" y1="0" x2="4.5" y2="24" class="grid-line"/>
<line x1="5" y1="0" x2="5" y2="24" class="grid-line"/>
<line x1="5.5" y1="0" x2="5.5" y2="24" class="grid-line"/>
<line x1="6" y1="0" x2="6" y2="24" class="grid-line"/>
<line x1="6.5" y1="0" x2="6.5" y2="24" class="grid-line"/>
<line x1="7" y1="0" x2="7" y2="24" class="grid-line"/>
<line x1="7.5" y1="0" x2="7.5" y2="24" class="grid-line"/>
<line x1="8" y1="0" x2="8" y2="24" class="grid-line"/>
<line x1="8.5" y1="0" x2="8.5" y2="24" class="grid-line"/>
<line x1="9" y1="0" x2="9" y2="24" class="grid-line"/>
<line x1="9.5" y1="0" x2="9.5" y2="24" class="grid-line"/>
<line x1="10" y1="0" x2="10" y2="24" class="grid-line"/>
<line x1="10.5" y1="0" x2="10.5" y2="24" class="grid-line"/>
<line x1="11" y1="0" x2="11" y2="24" class="grid-line"/>
<line x1="11.5" y1="0" x2="11.5" y2="24" class="grid-line"/>
<line x1="12" y1="0" x2="12" y2="24" class="grid-line"/>
<line x1="12.5" y1="0" x2="12.5" y2="24" class="grid-line"/>
<line x1="13" y1="0" x2="13" y2="24" class="grid-line"/>
<line x1="13.5" y1="0" x2="13.5" y2="24" class="grid-line"/>
<line x1="14" y1="0" x2="14" y2="24" class="grid-line"/>
<line x1="14.5" y1="0" x2="14.5" y2="24" class="grid-line"/>
<line x1="15" y1="0" x2="15" y2="24" class="grid-line"/>
<line x1="15.5" y1="0" x2="15.5" y2="24" class="grid-line"/>
<line x1="16" y1="0" x2="16" y2="24" class="grid-line"/>
<line x1="16.5" y1="0" x2="16.5" y2="24" class="grid-line"/>
<line x1="17" y1="0" x2="17" y2="24" class="grid-line"/>
<line x1="17.5" y1="0" x2="17.5" y2="24" class="grid-line"/>
<line x1="18" y1="0" x2="18" y2="24" class="grid-line"/>
<line x1="18.5" y1="0" x2="18.5" y2="24" class="grid-line"/>
<line x1="19" y1="0" x2="19" y2="24" class="grid-line"/>
<line x1="19.5" y1="0" x2="19.5" y2="24" class="grid-line"/>
<line x1="20" y1="0" x2="20" y2="24" class="grid-line"/>
<line x1="20.5" y1="0" x2="20.5" y2="24" class="grid-line"/>
<line x1="21" y1="0" x2="21" y2="24" class="grid-line"/>
<line x1="21.5" y1="0" x2="21.5" y2="24" class="grid-line"/>
<line x1="22" y1="0" x2="22" y2="24" class="grid-line"/>
<line x1="22.5" y1="0" x2="22.5" y2="24" class="grid-line"/>
<line x1="23" y1="0" x2="23" y2="24" class="grid-line"/>
<line x1="23.5" y1="0" x2="23.5" y2="24" class="grid-line"/>
<line x1="24" y1="0" x2="24" y2="24" class="grid-line"/>
<line x1="0" y1="0" x2="24" y2="0" class="grid-line"/>
<line x1="0" y1="0.5" x2="24" y2="0.5" class="grid-line"/>
<line x1="0" y1="1" x2="24" y2="1" class="grid-line"/>
<line x1="0" y1="1.5" x2="24" y2="1.5" class="grid-line"/>
<line x1="0" y1="2" x2="24" y2="2" class="grid-line"/>
<line x1="0" y1="2.5" x2="24" y2="2.5" class="grid-line"/>
<line x1="0" y1="3" x2="24" y2="3" class="grid-line"/>
<line x1="0" y1="3.5" x2="24" y2="3.5" class="grid-line"/>
<line x1="0" y1="4" x2="24" y2="4" class="grid-line"/>
<line x1="0" y1="4.5" x2="24" y2="4.5" class="grid-line"/>
<line x1="0" y1="5" x2="24" y2="5" class="grid-line"/>
<line x1="0" y1="5.5" x2="24" y2="5.5" class="grid-line"/>
<line x1="0" y1="6" x2="24" y2="6" class="grid-line"/>
<line x1="0" y1="6.5" x2="24" y2="6.5" class="grid-line"/>
<line x1="0" y1="7" x2="24" y2="7" class="grid-line"/>
<line x1="0" y1="7.5" x2="24" y2="7.5" class="grid-line"/>
<line x1="0" y1="8" x2="24" y2="8" class="grid-line"/>
<line x1="0" y1="8.5" x2="24" y2="8.5" class="grid-line"/>
<line x1="0" y1="9" x2="24" y2="9" class="grid-line"/>
<line x1="0" y1="9.5" x2="24" y2="9.5" class="grid-line"/>
<line x1="0" y1="10" x2="24" y2="10" class="grid-line"/>
<line x1="0" y1="10.5" x2="24" y2="10.5" class="grid-line"/>
<line x1="0" y1="11" x2="24" y2="11" class="grid-line"/>
<line x1="0" y1="11.5" x2="24" y2="11.5" class="grid-line"/>
<line x1="0" y1="12" x2="24" y2="12" class="grid-line"/>
<line x1="0" y1="12.5" x2="24" y2="12.5" class="grid-line"/>
<line x1="0" y1="13" x2="24" y2="13" class="grid-line"/>
<line x1="0" y1="13.5" x2="24" y2="13.5" class="grid-line"/>
<line x1="0" y1="14" x2="24" y2="14" class="grid-line"/>
<line x1="0" y1="14.5" x2="24" y2="14.5" class="grid-line"/>
<line x1="0" y1="15" x2="24" y2="15" class="grid-line"/>
<line x1="0" y1="15.5" x2="24" y2="15.5" class="grid-line"/>
<line x1="0" y1="16" x2="24" y2="16" class="grid-line"/>
<line x1="0" y1="16.5" x2="24" y2="16.5" class="grid-line"/>
<line x1="0" y1="17" x2="24" y2="17" class="grid-line"/>
<line x1="0" y1="17.5" x2="24" y2="17.5" class="grid-line"/>
<line x1="0" y1="18" x2="24" y2="18" class="grid-line"/>
<line x1="0" y1="18.5" x2="24" y2="18.5" class="grid-line"/>
<line x1="0" y1="19" x2="24" y2="19" class="grid-line"/>
<line x1="0" y1="19.5" x2="24" y2="19.5" class="grid-line"/>
<line x1="0" y1="20" x2="24" y2="20" class="grid-line"/>
<line x1="0" y1="20.5" x2="24" y2="20.5" class="grid-line"/>
<line x1="0" y1="21" x2="24" y2="21" class="grid-line"/>
<line x1="0" y1="21.5" x2="24" y2="21.5" class="grid-line"/>
<line x1="0" y1="22" x2="24" y2="22" class="grid-line"/>
<line x1="0" y1="22.5" x2="24" y2="22.5" class="grid-line"/>
<line x1="0" y1="23" x2="24" y2="23" class="grid-line"/>
<line x1="0" y1="23.5" x2="24" y2="23.5" class="grid-line"/>
<line x1="0" y1="24" x2="24" y2="24" class="grid-line"/>
</g>
<g id="layer-delaunay" class="layer ">
<line x1="18.42475798880398" y1="11.847092935268975" x2="18.43751750634635" y2="12.04176555393026" class="delaunay-line"/>
<line x1="18.43751750634635" y1="12.04176555393026" x2="18.523803749345266" y2="12.21673674588336" class="delaunay-line"/>
<line x1="18.523803749345266" y1="12.21673674588336" x2="18.42475798880398" y2="11.847092935268975" class="delaunay-line"/>
<line x1="18.523803749345266" y1="12.21673674588336" x2="19.416202850177786" y2="11.977619127489024" class="delaunay-line"/>
<line x1="19.416202850177786" y1="11.977619127489024" x2="18.42475798880398" y2="11.847092935268975" class="delaunay-line"/>
<line x1="18.42475798880398" y1="11.847092935268975" x2="18.523803749345266" y2="12.21673674588336" class="delaunay-line"/>
<line x1="18.670480419490882" y1="12.345368733271219" x2="19.049889942042146" y2="12.395318944523533" class="delaunay-line"/>
<line x1="19.049889942042146" y1="12.395318944523533" x2="18.523803749345266" y2="12.21673674588336" class="delaunay-line"/>
<line x1="18.523803749345266" y1="12.21673674588336" x2="18.670480419490882" y2="12.345368733271219" class="delaunay-line"/>
<line x1="18.61609970498652" y1="11.515679361233381" x2="18.487467717598662" y2="11.662356031379" class="delaunay-line"/>
<line x1="18.487467717598662" y1="11.662356031379" x2="18.42475798880398" y2="11.847092935268975" class="delaunay-line"/>
<line x1="18.42475798880398" y1="11.847092935268975" x2="18.61609970498652" y2="11.515679361233381" class="delaunay-line"/>
<line x1="18.85521732338086" y1="12.408078462065905" x2="19.049889942042146" y2="12.395318944523533" class="delaunay-line"/>
<line x1="19.049889942042146" y1="12.395318944523533" x2="18.670480419490882" y2="12.345368733271219" class="delaunay-line"/>
<line x1="18.670480419490882" y1="12.345368733271219" x2="18.85521732338086" y2="12.408078462065905" class="delaunay-line"/>
<line x1="19.3171570896365" y1="11.60797531687464" x2="18.79107089693962" y2="11.429393118234467" class="delaunay-line"/>
<line x1="18.79107089693962" y1="11.429393118234467" x2="18.42475798880398" y2="11.847092935268975" class="delaunay-line"/>
<line x1="18.42475798880398" y1="11.847092935268975" x2="19.3171570896365" y2="11.60797531687464" class="delaunay-line"/>
<line x1="18.79107089693962" y1="11.429393118234467" x2="18.61609970498652" y2="11.515679361233381" class="delaunay-line"/>
<line x1="18.61609970498652" y1="11.515679361233381" x2="18.42475798880398" y2="11.847092935268975" class="delaunay-line"/>
<line x1="18.42475798880398" y1="11.847092935268975" x2="18.79107089693962" y2="11.429393118234467" class="delaunay-line"/>
<line x1="19.049889942042146" y1="12.395318944523533" x2="19.416202850177786" y2="11.977619127489024" class="delaunay-line"/>
<line x1="19.416202850177786" y1="11.977619127489024" x2="18.523803749345266" y2="12.21673674588336" class="delaunay-line"/>
<line x1="18.523803749345266" y1="12.21673674588336" x2="19.049889942042146" y2="12.395318944523533" class="delaunay-line"/>
<line x1="19.049889942042146" y1="12.395318944523533" x2="19.224861133995244" y2="12.309032701524618" class="delaunay-line"/>
<line x1="19.224861133995244" y1="12.309032701524618" x2="19.416202850177786" y2="11.977619127489024" class="delaunay-line"/>
<line x1="19.416202850177786" y1="11.977619127489024" x2="19.049889942042146" y2="12.395318944523533" class="delaunay-line"/>
<line x1="19.170480419490882" y1="11.479343329486781" x2="18.985743515600905" y2="11.416633600692094" class="delaunay-line"/>
<line x1="18.985743515600905" y1="11.416633600692094" x2="18.79107089693962" y2="11.429393118234467" class="delaunay-line"/>
<line x1="18.79107089693962" y1="11.429393118234467" x2="19.170480419490882" y2="11.479343329486781" class="delaunay-line"/>
<line x1="19.416202850177786" y1="11.977619127489024" x2="19.3171570896365" y2="11.60797531687464" class="delaunay-line"/>
<line x1="19.3171570896365" y1="11.60797531687464" x2="18.42475798880398" y2="11.847092935268975" class="delaunay-line"/>
<line x1="18.42475798880398" y1="11.847092935268975" x2="19.416202850177786" y2="11.977619127489024" class="delaunay-line"/>
<line x1="19.403443332635415" y1="11.78294650882774" x2="19.3171570896365" y2="11.60797531687464" class="delaunay-line"/>
<line x1="19.3171570896365" y1="11.60797531687464" x2="19.416202850177786" y2="11.977619127489024" class="delaunay-line"/>
<line x1="19.416202850177786" y1="11.977619127489024" x2="19.403443332635415" y2="11.78294650882774" class="delaunay-line"/>
<line x1="19.3171570896365" y1="11.60797531687464" x2="19.170480419490882" y2="11.479343329486781" class="delaunay-line"/>
<line x1="19.170480419490882" y1="11.479343329486781" x2="18.79107089693962" y2="11.429393118234467" class="delaunay-line"/>
<line x1="18.79107089693962" y1="11.429393118234467" x2="19.3171570896365" y2="11.60797531687464" class="delaunay-line"/>
<line x1="19.224861133995244" y1="12.309032701524618" x2="19.353493121383103" y2="12.162356031379" class="delaunay-line"/>
<line x1="19.353493121383103" y1="12.162356031379" x2="19.416202850177786" y2="11.977619127489024" class="delaunay-line"/>
<line x1="19.416202850177786" y1="11.977619127489024" x2="19.224861133995244" y2="12.309032701524618" class="delaunay-line"/>
<line x1="19.170480419490882" y1="11.479343329486781" x2="24" y2="0" class="delaunay-line"/>
<line x1="24" y1="0" x2="18.985743515600905" y2="11.416633600692094" class="delaunay-line"/>
<line x1="18.985743515600905" y1="11.416633600692094" x2="19.170480419490882" y2="11.479343329486781" class="delaunay-line"/>
<line x1="18.985743515600905" y1="11.416633600692094" x2="24" y2="0" class="delaunay-line"/>
<line x1="24" y1="0" x2="18.79107089693962" y2="11.429393118234467" class="delaunay-line"/>
<line x1="18.79107089693962" y1="11.429393118234467" x2="18.985743515600905" y2="11.416633600692094" class="delaunay-line"/>
<line x1="6.260941213619119" y1="7.04669191452215" x2="18.487467717598662" y2="11.662356031379" class="delaunay-line"/>
<line x1="18.487467717598662" y1="11.662356031379" x2="18.61609970498652" y2="11.515679361233381" class="delaunay-line"/>
<line x1="18.61609970498652" y1="11.515679361233381" x2="6.260941213619119" y2="7.04669191452215" class="delaunay-line"/>
<line x1="6.260941213619119" y1="7.04669191452215" x2="6.248181696076748" y2="7.241364533183436" class="delaunay-line"/>
<line x1="6.248181696076748" y1="7.241364533183436" x2="18.487467717598662" y2="11.662356031379" class="delaunay-line"/>
<line x1="18.487467717598662" y1="11.662356031379" x2="6.260941213619119" y2="7.04669191452215" class="delaunay-line"/>
<line x1="19.3171570896365" y1="11.60797531687464" x2="24" y2="0" class="delaunay-line"/>
<line x1="24" y1="0" x2="19.170480419490882" y2="11.479343329486781" class="delaunay-line"/>
<line x1="19.170480419490882" y1="11.479343329486781" x2="19.3171570896365" y2="11.60797531687464" class="delaunay-line"/>
<line x1="19.403443332635415" y1="11.78294650882774" x2="24" y2="0" class="delaunay-line"/>
<line x1="24" y1="0" x2="19.3171570896365" y2="11.60797531687464" class="delaunay-line"/>
<line x1="19.3171570896365" y1="11.60797531687464" x2="19.403443332635415" y2="11.78294650882774" class="delaunay-line"/>
<line x1="19.416202850177786" y1="11.977619127489024" x2="24" y2="0" class="delaunay-line"/>
<line x1="24" y1="0" x2="19.403443332635415" y2="11.78294650882774" class="delaunay-line"/>
<line x1="19.403443332635415" y1="11.78294650882774" x2="19.416202850177786" y2="11.977619127489024" class="delaunay-line"/>
<line x1="24" y1="24" x2="24" y2="0" class="delaunay-line"/>
<line x1="24" y1="0" x2="19.416202850177786" y2="11.977619127489024" class="delaunay-line"/>
<line x1="19.416202850177786" y1="11.977619127489024" x2="24" y2="24" class="delaunay-line"/>
<line x1="18.85521732338086" y1="12.408078462065905" x2="24" y2="24" class="delaunay-line"/>
<line x1="24" y1="24" x2="19.049889942042146" y2="12.395318944523533" class="delaunay-line"/>
<line x1="19.049889942042146" y1="12.395318944523533" x2="18.85521732338086" y2="12.408078462065905" class="delaunay-line"/>
<line x1="19.049889942042146" y1="12.395318944523533" x2="24" y2="24" class="delaunay-line"/>
<line x1="24" y1="24" x2="19.224861133995244" y2="12.309032701524618" class="delaunay-line"/>
<line x1="19.224861133995244" y1="12.309032701524618" x2="19.049889942042146" y2="12.395318944523533" class="delaunay-line"/>
<line x1="19.224861133995244" y1="12.309032701524618" x2="24" y2="24" class="delaunay-line"/>
<line x1="24" y1="24" x2="19.353493121383103" y2="12.162356031379" class="delaunay-line"/>
<line x1="19.353493121383103" y1="12.162356031379" x2="19.224861133995244" y2="12.309032701524618" class="delaunay-line"/>
<line x1="19.353493121383103" y1="12.162356031379" x2="24" y2="24" class="delaunay-line"/>
<line x1="24" y1="24" x2="19.416202850177786" y2="11.977619127489024" class="delaunay-line"/>
<line x1="19.416202850177786" y1="11.977619127489024" x2="19.353493121383103" y2="12.162356031379" class="delaunay-line"/>
<line x1="18.670480419490882" y1="12.345368733271219" x2="24" y2="24" class="delaunay-line"/>
<line x1="24" y1="24" x2="18.85521732338086" y2="12.408078462065905" class="delaunay-line"/>
<line x1="18.85521732338086" y1="12.408078462065905" x2="18.670480419490882" y2="12.345368733271219" class="delaunay-line"/>
<line x1="0" y1="24" x2="24" y2="24" class="delaunay-line"/>
<line x1="24" y1="24" x2="18.670480419490882" y2="12.345368733271219" class="delaunay-line"/>
<line x1="18.670480419490882" y1="12.345368733271219" x2="0" y2="24" class="delaunay-line"/>
<line x1="0" y1="24" x2="18.670480419490882" y2="12.345368733271219" class="delaunay-line"/>
<line x1="18.670480419490882" y1="12.345368733271219" x2="18.523803749345266" y2="12.21673674588336" class="delaunay-line"/>
<line x1="18.523803749345266" y1="12.21673674588336" x2="0" y2="24" class="delaunay-line"/>
<line x1="6.260941213619119" y1="7.04669191452215" x2="18.61609970498652" y2="11.515679361233381" class="delaunay-line"/>
<line x1="18.61609970498652" y1="11.515679361233381" x2="6.198231484824435" y2="6.861955010632176" class="delaunay-line"/>
<line x1="6.198231484824435" y1="6.861955010632176" x2="6.260941213619119" y2="7.04669191452215" class="delaunay-line"/>
<line x1="18.487467717598662" y1="11.662356031379" x2="6.248181696076748" y2="7.241364533183436" class="delaunay-line"/>
<line x1="6.248181696076748" y1="7.241364533183436" x2="18.42475798880398" y2="11.847092935268975" class="delaunay-line"/>
<line x1="18.42475798880398" y1="11.847092935268975" x2="18.487467717598662" y2="11.662356031379" class="delaunay-line"/>
<line x1="18.42475798880398" y1="11.847092935268975" x2="6.161895453077832" y2="7.416335725136536" class="delaunay-line"/>
<line x1="6.161895453077832" y1="7.416335725136536" x2="18.43751750634635" y2="12.04176555393026" class="delaunay-line"/>
<line x1="18.43751750634635" y1="12.04176555393026" x2="18.42475798880398" y2="11.847092935268975" class="delaunay-line"/>
<line x1="18.43751750634635" y1="12.04176555393026" x2="6.015218782932214" y2="7.544967712524395" class="delaunay-line"/>
<line x1="6.015218782932214" y1="7.544967712524395" x2="18.523803749345266" y2="12.21673674588336" class="delaunay-line"/>
<line x1="18.523803749345266" y1="12.21673674588336" x2="18.43751750634635" y2="12.04176555393026" class="delaunay-line"/>
<line x1="6.248181696076748" y1="7.241364533183436" x2="6.161895453077832" y2="7.416335725136536" class="delaunay-line"/>
<line x1="6.161895453077832" y1="7.416335725136536" x2="18.42475798880398" y2="11.847092935268975" class="delaunay-line"/>
<line x1="18.42475798880398" y1="11.847092935268975" x2="6.248181696076748" y2="7.241364533183436" class="delaunay-line"/>
<line x1="6.198231484824435" y1="6.861955010632176" x2="18.61609970498652" y2="11.515679361233381" class="delaunay-line"/>
<line x1="18.61609970498652" y1="11.515679361233381" x2="18.79107089693962" y2="11.429393118234467" class="delaunay-line"/>
<line x1="18.79107089693962" y1="11.429393118234467" x2="6.198231484824435" y2="6.861955010632176" class="delaunay-line"/>
<line x1="6.248181696076748" y1="7.241364533183436" x2="5.83048187904224" y2="7.60767744131908" class="delaunay-line"/>
<line x1="5.83048187904224" y1="7.60767744131908" x2="6.161895453077832" y2="7.416335725136536" class="delaunay-line"/>
<line x1="6.161895453077832" y1="7.416335725136536" x2="6.248181696076748" y2="7.241364533183436" class="delaunay-line"/>
<line x1="5.83048187904224" y1="7.60767744131908" x2="6.015218782932214" y2="7.544967712524395" class="delaunay-line"/>
<line x1="6.015218782932214" y1="7.544967712524395" x2="6.161895453077832" y2="7.416335725136536" class="delaunay-line"/>
<line x1="6.161895453077832" y1="7.416335725136536" x2="5.83048187904224" y2="7.60767744131908" class="delaunay-line"/>
<line x1="6.161895453077832" y1="7.416335725136536" x2="6.015218782932214" y2="7.544967712524395" class="delaunay-line"/>
<line x1="6.015218782932214" y1="7.544967712524395" x2="18.43751750634635" y2="12.04176555393026" class="delaunay-line"/>
<line x1="18.43751750634635" y1="12.04176555393026" x2="6.161895453077832" y2="7.416335725136536" class="delaunay-line"/>
<line x1="24" y1="0" x2="6.198231484824435" y2="6.861955010632176" class="delaunay-line"/>
<line x1="6.198231484824435" y1="6.861955010632176" x2="18.79107089693962" y2="11.429393118234467" class="delaunay-line"/>
<line x1="18.79107089693962" y1="11.429393118234467" x2="24" y2="0" class="delaunay-line"/>
<line x1="6.260941213619119" y1="7.04669191452215" x2="5.83048187904224" y2="7.60767744131908" class="delaunay-line"/>
<line x1="5.83048187904224" y1="7.60767744131908" x2="6.248181696076748" y2="7.241364533183436" class="delaunay-line"/>
<line x1="6.248181696076748" y1="7.241364533183436" x2="6.260941213619119" y2="7.04669191452215" class="delaunay-line"/>
<line x1="5.699955686822189" y1="6.616232579945271" x2="5.83048187904224" y2="7.60767744131908" class="delaunay-line"/>
<line x1="5.83048187904224" y1="7.60767744131908" x2="6.260941213619119" y2="7.04669191452215" class="delaunay-line"/>
<line x1="6.260941213619119" y1="7.04669191452215" x2="5.699955686822189" y2="6.616232579945271" class="delaunay-line"/>
<line x1="6.015218782932214" y1="7.544967712524395" x2="5.83048187904224" y2="7.60767744131908" class="delaunay-line"/>
<line x1="5.83048187904224" y1="7.60767744131908" x2="18.523803749345266" y2="12.21673674588336" class="delaunay-line"/>
<line x1="18.523803749345266" y1="12.21673674588336" x2="6.015218782932214" y2="7.544967712524395" class="delaunay-line"/>
<line x1="24" y1="0" x2="6.069599497436575" y2="6.715278340486558" class="delaunay-line"/>
<line x1="6.069599497436575" y1="6.715278340486558" x2="6.198231484824435" y2="6.861955010632176" class="delaunay-line"/>
<line x1="6.198231484824435" y1="6.861955010632176" x2="24" y2="0" class="delaunay-line"/>
<line x1="6.198231484824435" y1="6.861955010632176" x2="6.069599497436575" y2="6.715278340486558" class="delaunay-line"/>
<line x1="6.069599497436575" y1="6.715278340486558" x2="6.260941213619119" y2="7.04669191452215" class="delaunay-line"/>
<line x1="6.260941213619119" y1="7.04669191452215" x2="6.198231484824435" y2="6.861955010632176" class="delaunay-line"/>
<line x1="5.4608380684278535" y1="7.508631680777793" x2="5.635809260380953" y2="7.594917923776709" class="delaunay-line"/>
<line x1="5.635809260380953" y1="7.594917923776709" x2="5.2694963522453095" y2="7.177218106742201" class="delaunay-line"/>
<line x1="5.2694963522453095" y1="7.177218106742201" x2="5.4608380684278535" y2="7.508631680777793" class="delaunay-line"/>
<line x1="5.83048187904224" y1="7.60767744131908" x2="0" y2="24" class="delaunay-line"/>
<line x1="0" y1="24" x2="18.523803749345266" y2="12.21673674588336" class="delaunay-line"/>
<line x1="18.523803749345266" y1="12.21673674588336" x2="5.83048187904224" y2="7.60767744131908" class="delaunay-line"/>
<line x1="0" y1="0" x2="5.894628305483475" y2="6.628992097487641" class="delaunay-line"/>
<line x1="5.894628305483475" y1="6.628992097487641" x2="6.069599497436575" y2="6.715278340486558" class="delaunay-line"/>
<line x1="6.069599497436575" y1="6.715278340486558" x2="0" y2="0" class="delaunay-line"/>
<line x1="6.069599497436575" y1="6.715278340486558" x2="5.894628305483475" y2="6.628992097487641" class="delaunay-line"/>
<line x1="5.894628305483475" y1="6.628992097487641" x2="6.260941213619119" y2="7.04669191452215" class="delaunay-line"/>
<line x1="6.260941213619119" y1="7.04669191452215" x2="6.069599497436575" y2="6.715278340486558" class="delaunay-line"/>
<line x1="5.2694963522453095" y1="7.177218106742201" x2="5.635809260380953" y2="7.594917923776709" class="delaunay-line"/>
<line x1="5.635809260380953" y1="7.594917923776709" x2="5.83048187904224" y2="7.60767744131908" class="delaunay-line"/>
<line x1="5.83048187904224" y1="7.60767744131908" x2="5.2694963522453095" y2="7.177218106742201" class="delaunay-line"/>
<line x1="5.635809260380953" y1="7.594917923776709" x2="0" y2="24" class="delaunay-line"/>
<line x1="0" y1="24" x2="5.83048187904224" y2="7.60767744131908" class="delaunay-line"/>
<line x1="5.83048187904224" y1="7.60767744131908" x2="5.635809260380953" y2="7.594917923776709" class="delaunay-line"/>
<line x1="0" y1="0" x2="5.699955686822189" y2="6.616232579945271" class="delaunay-line"/>
<line x1="5.699955686822189" y1="6.616232579945271" x2="5.894628305483475" y2="6.628992097487641" class="delaunay-line"/>
<line x1="5.894628305483475" y1="6.628992097487641" x2="0" y2="0" class="delaunay-line"/>
<line x1="5.894628305483475" y1="6.628992097487641" x2="5.699955686822189" y2="6.616232579945271" class="delaunay-line"/>
<line x1="5.699955686822189" y1="6.616232579945271" x2="6.260941213619119" y2="7.04669191452215" class="delaunay-line"/>
<line x1="6.260941213619119" y1="7.04669191452215" x2="5.894628305483475" y2="6.628992097487641" class="delaunay-line"/>
<line x1="5.2694963522453095" y1="7.177218106742201" x2="5.332206081039994" y2="7.361955010632174" class="delaunay-line"/>
<line x1="5.332206081039994" y1="7.361955010632174" x2="5.4608380684278535" y2="7.508631680777793" class="delaunay-line"/>
<line x1="5.4608380684278535" y1="7.508631680777793" x2="5.2694963522453095" y2="7.177218106742201" class="delaunay-line"/>
<line x1="0" y1="0" x2="5.515218782932214" y2="6.6789423087399555" class="delaunay-line"/>
<line x1="5.515218782932214" y1="6.6789423087399555" x2="5.699955686822189" y2="6.616232579945271" class="delaunay-line"/>
<line x1="5.699955686822189" y1="6.616232579945271" x2="0" y2="0" class="delaunay-line"/>
<line x1="5.699955686822189" y1="6.616232579945271" x2="5.2694963522453095" y2="7.177218106742201" class="delaunay-line"/>
<line x1="5.2694963522453095" y1="7.177218106742201" x2="5.83048187904224" y2="7.60767744131908" class="delaunay-line"/>
<line x1="5.83048187904224" y1="7.60767744131908" x2="5.699955686822189" y2="6.616232579945271" class="delaunay-line"/>
<line x1="5.28225586978768" y1="6.982545488080914" x2="5.2694963522453095" y2="7.177218106742201" class="delaunay-line"/>
<line x1="5.2694963522453095" y1="7.177218106742201" x2="5.699955686822189" y2="6.616232579945271" class="delaunay-line"/>
<line x1="5.699955686822189" y1="6.616232579945271" x2="5.28225586978768" y2="6.982545488080914" class="delaunay-line"/>
<line x1="5.515218782932214" y1="6.6789423087399555" x2="5.368542112786597" y2="6.8075742961278145" class="delaunay-line"/>
<line x1="5.368542112786597" y1="6.8075742961278145" x2="5.699955686822189" y2="6.616232579945271" class="delaunay-line"/>
<line x1="5.699955686822189" y1="6.616232579945271" x2="5.515218782932214" y2="6.6789423087399555" class="delaunay-line"/>
<line x1="5.368542112786597" y1="6.8075742961278145" x2="5.28225586978768" y2="6.982545488080914" class="delaunay-line"/>
<line x1="5.28225586978768" y1="6.982545488080914" x2="5.699955686822189" y2="6.616232579945271" class="delaunay-line"/>
<line x1="5.699955686822189" y1="6.616232579945271" x2="5.368542112786597" y2="6.8075742961278145" class="delaunay-line"/>
<line x1="5.515218782932214" y1="6.6789423087399555" x2="0" y2="0" class="delaunay-line"/>
<line x1="0" y1="0" x2="5.368542112786597" y2="6.8075742961278145" class="delaunay-line"/>
<line x1="5.368542112786597" y1="6.8075742961278145" x2="5.515218782932214" y2="6.6789423087399555" class="delaunay-line"/>
<line x1="5.368542112786597" y1="6.8075742961278145" x2="0" y2="0" class="delaunay-line"/>
<line x1="0" y1="0" x2="5.28225586978768" y2="6.982545488080914" class="delaunay-line"/>
<line x1="5.28225586978768" y1="6.982545488080914" x2="5.368542112786597" y2="6.8075742961278145" class="delaunay-line"/>
<line x1="5.28225586978768" y1="6.982545488080914" x2="0" y2="0" class="delaunay-line"/>
<line x1="0" y1="0" x2="5.2694963522453095" y2="7.177218106742201" class="delaunay-line"/>
<line x1="5.2694963522453095" y1="7.177218106742201" x2="5.28225586978768" y2="6.982545488080914" class="delaunay-line"/>
<line x1="5.2694963522453095" y1="7.177218106742201" x2="0" y2="24" class="delaunay-line"/>
<line x1="0" y1="24" x2="5.332206081039994" y2="7.361955010632174" class="delaunay-line"/>
<line x1="5.332206081039994" y1="7.361955010632174" x2="5.2694963522453095" y2="7.177218106742201" class="delaunay-line"/>
<line x1="24" y1="0" x2="0" y2="0" class="delaunay-line"/>
<line x1="0" y1="0" x2="6.069599497436575" y2="6.715278340486558" class="delaunay-line"/>
<line x1="6.069599497436575" y1="6.715278340486558" x2="24" y2="0" class="delaunay-line"/>
<line x1="0" y1="0" x2="0" y2="24" class="delaunay-line"/>
<line x1="0" y1="24" x2="5.2694963522453095" y2="7.177218106742201" class="delaunay-line"/>
<line x1="5.2694963522453095" y1="7.177218106742201" x2="0" y2="0" class="delaunay-line"/>
<line x1="5.332206081039994" y1="7.361955010632174" x2="0" y2="24" class="delaunay-line"/>
<line x1="0" y1="24" x2="5.4608380684278535" y2="7.508631680777793" class="delaunay-line"/>
<line x1="5.4608380684278535" y1="7.508631680777793" x2="5.332206081039994" y2="7.361955010632174" class="delaunay-line"/>
<line x1="5.4608380684278535" y1="7.508631680777793" x2="0" y2="24" class="delaunay-line"/>
<line x1="0" y1="24" x2="5.635809260380953" y2="7.594917923776709" class="delaunay-line"/>
<line x1="5.635809260380953" y1="7.594917923776709" x2="5.4608380684278535" y2="7.508631680777793" class="delaunay-line"/>
</g>
<g id="layer-area" class="layer ">
</g>
<g id="layer-terrain" class="layer ">
<polygon points="5.894628305483475,6.628992097487641 6.069599497436575,6.715278340486558 6.198231484824435,6.861955010632176 6.260941213619119,7.04669191452215 6.248181696076748,7.241364533183436 6.161895453077832,7.416335725136536 6.015218782932214,7.544967712524395 5.83048187904224,7.60767744131908 5.635809260380953,7.594917923776709 5.4608380684278535,7.508631680777793 5.332206081039994,7.361955010632174 5.2694963522453095,7.177218106742201 5.28225586978768,6.982545488080914 5.368542112786597,6.8075742961278145 5.515218782932214,6.6789423087399555 5.699955686822189,6.616232579945271" fill="Dark Green" class="terrain-solid"/>
<polygon points="18.670480419490882,12.345368733271219 18.523803749345266,12.21673674588336 18.43751750634635,12.04176555393026 18.42475798880398,11.847092935268975 18.487467717598662,11.662356031379 18.61609970498652,11.515679361233381 18.79107089693962,11.429393118234467 18.985743515600905,11.416633600692094 19.170480419490882,11.479343329486781 19.3171570896365,11.60797531687464 19.403443332635415,11.78294650882774 19.416202850177786,11.977619127489024 19.353493121383103,12.162356031379 19.224861133995244,12.309032701524618 19.049889942042146,12.395318944523533 18.85521732338086,12.408078462065905" fill="Dark Green" class="terrain-solid"/>
<polygon points="5.75,5 6.25,5 6.25,11 5.75,11" fill="Dark Gray" class="terrain-solid"/>
<polygon points="17.5,14 18.5,14 18.5,22 17.5,22" fill="Dark Gray" class="terrain-solid"/>
</g>
<g id="layer-models" class="layer ">
<circle cx="3" cy="3" r="0.5" fill="#f4a261" class="model"/>
<text x="3.7" y="3" class="label">Model</text>
</g>
<g id="layer-paths" class="layer ">
</g>
<g id="layer-vectors" class="layer ">
</g>
<g id="layer-los" class="layer ">
<line x1="3" y1="3" x2="12" y2="3" class="los-ray" stroke="#2d6a4f"/>
<text x="7.7" y="3.2" class="label">Unblocked</text>
<line x1="2" y1="8" x2="10" y2="8" class="los-ray" stroke="#b02a37"/>
<text x="6.2" y="8.2" class="label">Blocked ~4 MU</text>
<line x1="2" y1="18" x2="22" y2="18" class="los-ray" stroke="#b02a37"/>
<text x="12.2" y="18.2" class="label">Blocked ~16 MU</text>
</g>
<g id="layer-lof" class="layer ">
</g>

</svg>