<svg xmlns="http://www.w3.org/2000/svg" viewBox="0 0 24 24" width="960" height="960" font-family="Arial" font-size="0.6">
<defs>
  <style><![CDATA[
    .layer { display: inline; }
    .layer.hidden { display: none; }
    .grid-line { stroke: #999; stroke-width: 0.02; opacity: 0.2; }
    .delaunay-line { stroke: #4a6fa5; stroke-width: 0.03; opacity: 0.3; }
    .terrain-area { stroke: #000; stroke-width: 0.05; }
    .terrain-solid { stroke: #000; stroke-width: 0.05; }
    .model { stroke: #000; stroke-width: 0.05; }
    .path { fill: none; stroke-width: 0.12; }
    .vector { stroke-width: 0.1; }
    .los-ray { stroke-width: 0.08; stroke-dasharray: 0.2 0.2; }
    .lof-ray { stroke-width: 0.08; stroke-dasharray: 0.3 0.15; }
    .label { fill: #111; font-size: 0.6px; }
    .toggle { cursor: pointer; }
  ]]></style>
</defs>
<rect x="0" y="0" width="24" height="24" fill="#ffffff" stroke="#111" stroke-width="0.05"/>
<g id="legend">
<g class="toggle" onclick="toggleLayer('grid')"><rect x="0.4" y="0.14999999999999997" width="0.4" height="0.4" fill="#222" stroke="#222" stroke-width="0.05"/><text x="1.0" y="0.5499999999999999" class="label">0.5 MU Grid</text></g>
<g class="toggle" onclick="toggleLayer('delaunay')"><rect x="0.4" y="0.95" width="0.4" height="0.4" fill="#222" stroke="#222" stroke-width="0.05"/><text x="1.0" y="1.3499999999999999" class="label">Delaunay Mesh</text></g>
<g class="toggle" onclick="toggleLayer('area')"><rect x="0.4" y="1.7500000000000002" width="0.4" height="0.4" fill="#222" stroke="#222" stroke-width="0.05"/><text x="1.0" y="2.1500000000000004" class="label">Area Terrain</text></g>
<g class="toggle" onclick="toggleLayer('terrain')"><rect x="0.4" y="2.55" width="0.4" height="0.4" fill="#222" stroke="#222" stroke-width="0.05"/><text x="1.0" y="2.95" class="label">Other Terrain</text></g>
<g class="toggle" onclick="toggleLayer('models')"><rect x="0.4" y="3.3499999999999996" width="0.4" height="0.4" fill="#222" stroke="#222" stroke-width="0.05"/><text x="1.0" y="3.75" class="label">Models</text></g>
<g class="toggle" onclick="toggleLayer('paths')"><rect x="0.4" y="4.1499999999999995" width="0.4" height="0.4" fill="#222" stroke="#222" stroke-width="0.05"/><text x="1.0" y="4.55" class="label">Paths</text></g>
<g class="toggle" onclick="toggleLayer('vectors')"><rect x="0.4" y="4.949999999999999" width="0.4" height="0.4" fill="#222" stroke="#222" stroke-width="0.05"/><text x="1.0" y="5.35" class="label">Vectors</text></g>
<g class="toggle" onclick="toggleLayer('los')"><rect x="0.4" y="5.749999999999999" width="0.4" height="0.4" fill="#222" stroke="#222" stroke-width="0.05"/><text x="1.0" y="6.1499999999999995" class="label">LOS</text></g>
<g class="toggle" onclick="toggleLayer('lof')"><rect x="0.4" y="6.549999999999999" width="0.4" height="0.4" fill="#222" stroke="#222" stroke-width="0.05"/><text x="1.0" y="6.949999999999999" class="label">LOF</text></g>
</g>
<script><![CDATA[
      function toggleLayer(id) {
        var layer = document.getElementById('layer-' + id);
        if (!layer) return;
        if (layer.classList.contains('hidden')) {
          layer.classList.remove('hidden');
        } else {
          layer.classList.add('hidden');
        }
      }
    ]]></script>
<text x="0.4" y="23.6" class="label">Battlefield 24x24 density 25 blockLOS 25</text>
<g id="layer-grid" class="layer ">
<line x1="0" y1="0" x2="0" y2="24" class="grid-line"/>
<line x1="0.5" y1="0" x2="0.5" y2="24" class="grid-line"/>
<line x1="1" y1="0" x2="1" y2="24" class="grid-line"/>
<line x1="1.5" y1="0" x2="1.5" y2="24" class="grid-line"/>
<line x1="2" y1="0" x2="2" y2="24" class="grid-line"/>
<line x1="2.5" y1="0" x2="2.5" y2="24" class="grid-line"/>
<line x1="3" y1="0" x2="3" y2="24" class="grid-line"/>
<line x1="3.5" y1="0" x2="3.5" y2="24" class="grid-line"/>
<line x1="4" y1="0" x2="4" y2="24" class="grid-line"/>
<line x1="4.5" y1="0" x2="4.5" y2="24" class="grid-line"/>
<line x1="5" y1="0" x2="5" y2="24" class="grid-line"/>
<line x1="5.5" y1="0" x2="5.5" y2="24" class="grid-line"/>
<line x1="6" y1="0" x2="6" y2="24" class="grid-line"/>
<line x1="6.5" y1="0" x2="6.5" y2="24" class="grid-line"/>
<line x1="7" y1="0" x2="7" y2="24" class="grid-line"/>
<line x1="7.5" y1="0" x2="7.5" y2="24" class="grid-line"/>
<line x1="8" y1="0" x2="8" y2="24" class="grid-line"/>
<line x1="8.5" y1="0" x2="8.5" y2="24" class="grid-line"/>
<line x1="9" y1="0" x2="9" y2="24" class="grid-line"/>
<line x1="9.5" y1="0" x2="9.5" y2="24" class="grid-line"/>
<line x1="10" y1="0" x2="10" y2="24" class="grid-line"/>
<line x1="10.5" y1="0" x2="10.5" y2="24" class="grid-line"/>
<line x1="11" y1="0" x2="11" y2="24" class="grid-line"/>
<line x1="11.5" y1="0" x2="11.5" y2="24" class="grid-line"/>
<line x1="12" y1="0" x2="12" y2="24" class="grid-line"/>
<line x1="12.5" y1="0" x2="12.5" y2="24" class="grid-line"/>
<line x1="13" y1="0" x2="13" y2="24" class="grid-line"/>
<line x1="13.5" y1="0" x2="13.5" y2="24" class="grid-line"/>
<line x1="14" y1="0" x2="14" y2="24" class="grid-line"/>
<line x1="14.5" y1="0" x2="14.5" y2="24" class="grid-line"/>
<line x1="15" y1="0" x2="15" y2="24" class="grid-line"/>
<line x1="15.5" y1="0" x2="15.5" y2="24" class="grid-line"/>
<line x1="16" y1="0" x2="16" y2="24" class="grid-line"/>
<line x1="16.5" y1="0" x2="16.5" y2="24" class="grid-line"/>
<line x1="17" y1="0" x2="17" y2="24" class="grid-line"/>
<line x1="17.5" y1="0" x2="17.5" y2="24" class="grid-line"/>
<line x1="18" y1="0" x2="18" y2="24" class="grid-line"/>
<line x1="18.5" y1="0" x2="18.5" y2="24" class="grid-line"/>
<line x1="19" y1="0" x2="19" y2="24" class="grid-line"/>
<line x1="19.5" y1="0" x2="19.5" y2="24" class="grid-line"/>
<line x1="20" y1="0" x2="20" y2="24" class="grid-line"/>
<line x1="20.5" y1="0" x2="20.5" y2="24" class="grid-line"/>
<line x1="21" y1="0" x2="21" y2="24" class="grid-line"/>
<line x1="21.5" y1="0" x2="21.5" y2="24" class="grid-line"/>
<line x1="22" y1="0" x2="22" y2="24" class="grid-line"/>
<line x1="22.5" y1="0" x2="22.5" y2="24" class="grid-line"/>
<line x1="23" y1="0" x2="23" y2="24" class="grid-line"/>
<line x1="23.5" y1="0" x2="23.5" y2="24" class="grid-line"/>
<line x1="24" y1="0" x2="24" y2="24" class="grid-line"/>
<line x1="0" y1="0" x2="24" y2="0" class="grid-line"/>
<line x1="0" y1="0.5" x2="24" y2="0.5" class="grid-line"/>
<line x1="0" y1="1" x2="24" y2="1" class="grid-line"/>
<line x1="0" y1="1.5" x2="24" y2="1.5" class="grid-line"/>
<line x1="0" y1="2" x2="24" y2="2" class="grid-line"/>
<line x1="0" y1="2.5" x2="24" y2="2.5" class="grid-line"/>
<line x1="0" y1="3" x2="24" y2="3" class="grid-line"/>
<line x1="0" y1="3.5" x2="24" y2="3.5" class="grid-line"/>
<line x1="0" y1="4" x2="24" y2="4" class="grid-line"/>
<line x1="0" y1="4.5" x2="24" y2="4.5" class="grid-line"/>
<line x1="0" y1="5" x2="24" y2="5" class="grid-line"/>
<line x1="0" y1="5.5" x2="24" y2="5.5" class="grid-line"/>
<line x1="0" y1="6" x2="24" y2="6" class="grid-line"/>
<line x1="0" y1="6.5" x2="24" y2="6.5" class="grid-line"/>
<line x1="0" y1="7" x2="24" y2="7" class="grid-line"/>
<line x1="0" y1="7.5" x2="24" y2="7.5" class="grid-line"/>
<line x1="0" y1="8" x2="24" y2="8" class="grid-line"/>
<line x1="0" y1="8.5" x2="24" y2="8.5" class="grid-line"/>
<line x1="0" y1="9" x2="24" y2="9" class="grid-line"/>
<line x1="0" y1="9.5" x2="24" y2="9.5" class="grid-line"/>
<line x1="0" y1="10" x2="24" y2="10" class="grid-line"/>
<line x1="0" y1="10.5" x2="24" y2="10.5" class="grid-line"/>
<line x1="0" y1="11" x2="24" y2="11" class="grid-line"/>
<line x1="0" y1="11.5" x2="24" y2="11.5" class="grid-line"/>
<line x1="0" y1="12" x2="24" y2="12" class="grid-line"/>
<line x1="0" y1="12.5" x2="24" y2="12.5" class="grid-line"/>
<line x1="0" y1="13" x2="24" y2="13" class="grid-line"/>
<line x1="0" y1="13.5" x2="24" y2="13.5" class="grid-line"/>
<line x1="0" y1="14" x2="24" y2="14" class="grid-line"/>
<line x1="0" y1="14.5" x2="24" y2="14.5" class="grid-line"/>
<line x1="0" y1="15" x2="24" y2="15" class="grid-line"/>
<line x1="0" y1="15.5" x2="24" y2="15.5" class="grid-line"/>
<line x1="0" y1="16" x2="24" y2="16" class="grid-line"/>
<line x1="0" y1="16.5" x2="24" y2="16.5" class="grid-line"/>
<line x1="0" y1="17" x2="24" y2="17" class="grid-line"/>
<line x1="0" y1="17.5" x2="24" y2="17.5" class="grid-line"/>
<line x1="0" y1="18" x2="24" y2="18" class="grid-line"/>
<line x1="0" y1="18.5" x2="24" y2="18.5" class="grid-line"/>
<line x1="0" y1="19" x2="24" y2="19" class="grid-line"/>
<line x1="0" y1="19.5" x2="24" y2="19.5" class="grid-line"/>
<line x1="0" y1="20" x2="24" y2="20" class="grid-line"/>
<line x1="0" y1="20.5" x2="24" y2="20.5" class="grid-line"/>
<line x1="0" y1="21" x2="24" y2="21" class="grid-line"/>
<line x1="0" y1="21.5" x2="24" y2="21.5" class="grid-line"/>
<line x1="0" y1="22" x2="24" y2="22" class="grid-line"/>
<line x1="0" y1="22.5" x2="24" y2="22.5" class="grid-line"/>
<line x1="0" y1="23" x2="24" y2="23" class="grid-line"/>
<line x1="0" y1="23.5" x2="24" y2="23.5" class="grid-line"/>
<line x1="0" y1="24" x2="24" y2="24" class="grid-line"/>
</g>
<g id="layer-delaunay" class="layer ">
<line x1="9.602441386843315" y1="3.411750066751602" x2="9.777412578796413" y2="3.325463823752687" class="delaunay-line"/>
<line x1="9.777412578796413" y1="3.325463823752687" x2="9.906044566184272" y2="3.1787871536070686" class="delaunay-line"/>
<line x1="9.906044566184272" y1="3.1787871536070686" x2="9.602441386843315" y2="3.411750066751602" class="delaunay-line"/>
<line x1="9.223031864292054" y1="3.361799855499288" x2="9.407768768182027" y2="3.4245095842939737" class="delaunay-line"/>
<line x1="9.407768768182027" y1="3.4245095842939737" x2="9.076355194146437" y2="3.233167868111429" class="delaunay-line"/>
<line x1="9.076355194146437" y1="3.233167868111429" x2="9.223031864292054" y2="3.361799855499288" class="delaunay-line"/>
<line x1="9.906044566184272" y1="3.1787871536070686" x2="9.955994777436587" y2="2.799377631055809" class="delaunay-line"/>
<line x1="9.955994777436587" y1="2.799377631055809" x2="9.602441386843315" y2="3.411750066751602" class="delaunay-line"/>
<line x1="9.602441386843315" y1="3.411750066751602" x2="9.906044566184272" y2="3.1787871536070686" class="delaunay-line"/>
<line x1="9.96875429497896" y1="2.994050249717094" x2="9.955994777436587" y2="2.799377631055809" class="delaunay-line"/>
<line x1="9.955994777436587" y1="2.799377631055809" x2="9.906044566184272" y2="3.1787871536070686" class="delaunay-line"/>
<line x1="9.906044566184272" y1="3.1787871536070686" x2="9.96875429497896" y2="2.994050249717094" class="delaunay-line"/>
<line x1="9.076355194146437" y1="3.233167868111429" x2="9.407768768182027" y2="3.4245095842939737" class="delaunay-line"/>
<line x1="9.407768768182027" y1="3.4245095842939737" x2="9.602441386843315" y2="3.411750066751602" class="delaunay-line"/>
<line x1="9.602441386843315" y1="3.411750066751602" x2="9.076355194146437" y2="3.233167868111429" class="delaunay-line"/>
<line x1="8.99006895114752" y1="3.058196676158328" x2="9.076355194146437" y2="3.233167868111429" class="delaunay-line"/>
<line x1="9.076355194146437" y1="3.233167868111429" x2="9.602441386843315" y2="3.411750066751602" class="delaunay-line"/>
<line x1="9.602441386843315" y1="3.411750066751602" x2="8.99006895114752" y2="3.058196676158328" class="delaunay-line"/>
<line x1="9.955994777436587" y1="2.799377631055809" x2="8.99006895114752" y2="3.058196676158328" class="delaunay-line"/>
<line x1="8.99006895114752" y1="3.058196676158328" x2="9.602441386843315" y2="3.411750066751602" class="delaunay-line"/>
<line x1="9.602441386843315" y1="3.411750066751602" x2="9.955994777436587" y2="2.799377631055809" class="delaunay-line"/>
<line x1="9.040019162399835" y1="2.6787871536070686" x2="8.99006895114752" y2="3.058196676158328" class="delaunay-line"/>
<line x1="8.99006895114752" y1="3.058196676158328" x2="9.343622341740792" y2="2.445824240462535" class="delaunay-line"/>
<line x1="9.343622341740792" y1="2.445824240462535" x2="9.040019162399835" y2="2.6787871536070686" class="delaunay-line"/>
<line x1="9.343622341740792" y1="2.445824240462535" x2="8.99006895114752" y2="3.058196676158328" class="delaunay-line"/>
<line x1="8.99006895114752" y1="3.058196676158328" x2="9.955994777436587" y2="2.799377631055809" class="delaunay-line"/>
<line x1="9.955994777436587" y1="2.799377631055809" x2="9.343622341740792" y2="2.445824240462535" class="delaunay-line"/>
<line x1="9.040019162399835" y1="2.6787871536070686" x2="8.977309433605148" y2="2.863524057497043" class="delaunay-line"/>
<line x1="8.977309433605148" y1="2.863524057497043" x2="8.99006895114752" y2="3.058196676158328" class="delaunay-line"/>
<line x1="8.99006895114752" y1="3.058196676158328" x2="9.040019162399835" y2="2.6787871536070686" class="delaunay-line"/>
<line x1="9.723031864292054" y1="2.4957744517148495" x2="9.343622341740792" y2="2.445824240462535" class="delaunay-line"/>
<line x1="9.343622341740792" y1="2.445824240462535" x2="9.86970853443767" y2="2.6244064391027084" class="delaunay-line"/>
<line x1="9.86970853443767" y1="2.6244064391027084" x2="9.723031864292054" y2="2.4957744517148495" class="delaunay-line"/>
<line x1="9.343622341740792" y1="2.445824240462535" x2="9.955994777436587" y2="2.799377631055809" class="delaunay-line"/>
<line x1="9.955994777436587" y1="2.799377631055809" x2="9.86970853443767" y2="2.6244064391027084" class="delaunay-line"/>
<line x1="9.86970853443767" y1="2.6244064391027084" x2="9.343622341740792" y2="2.445824240462535" class="delaunay-line"/>
<line x1="9.538294960402078" y1="2.433064722920163" x2="9.343622341740792" y2="2.445824240462535" class="delaunay-line"/>
<line x1="9.343622341740792" y1="2.445824240462535" x2="9.723031864292054" y2="2.4957744517148495" class="delaunay-line"/>
<line x1="9.723031864292054" y1="2.4957744517148495" x2="9.538294960402078" y2="2.433064722920163" class="delaunay-line"/>
<line x1="9.343622341740792" y1="2.445824240462535" x2="9.168651149787694" y2="2.5321104834614503" class="delaunay-line"/>
<line x1="9.168651149787694" y1="2.5321104834614503" x2="9.040019162399835" y2="2.6787871536070686" class="delaunay-line"/>
<line x1="9.040019162399835" y1="2.6787871536070686" x2="9.343622341740792" y2="2.445824240462535" class="delaunay-line"/>
<line x1="9.343622341740792" y1="2.445824240462535" x2="0" y2="0" class="delaunay-line"/>
<line x1="0" y1="0" x2="9.168651149787694" y2="2.5321104834614503" class="delaunay-line"/>
<line x1="9.168651149787694" y1="2.5321104834614503" x2="9.343622341740792" y2="2.445824240462535" class="delaunay-line"/>
<line x1="9.168651149787694" y1="2.5321104834614503" x2="0" y2="0" class="delaunay-line"/>
<line x1="0" y1="0" x2="9.040019162399835" y2="2.6787871536070686" class="delaunay-line"/>
<line x1="9.040019162399835" y1="2.6787871536070686" x2="9.168651149787694" y2="2.5321104834614503" class="delaunay-line"/>
<line x1="9.040019162399835" y1="2.6787871536070686" x2="0" y2="0" class="delaunay-line"/>
<line x1="0" y1="0" x2="8.977309433605148" y2="2.863524057497043" class="delaunay-line"/>
<line x1="8.977309433605148" y1="2.863524057497043" x2="9.040019162399835" y2="2.6787871536070686" class="delaunay-line"/>
<line x1="8.977309433605148" y1="2.863524057497043" x2="0" y2="0" class="delaunay-line"/>
<line x1="0" y1="0" x2="8.99006895114752" y2="3.058196676158328" class="delaunay-line"/>
<line x1="8.99006895114752" y1="3.058196676158328" x2="8.977309433605148" y2="2.863524057497043" class="delaunay-line"/>
<line x1="8.99006895114752" y1="3.058196676158328" x2="0" y2="0" class="delaunay-line"/>
<line x1="0" y1="0" x2="9.076355194146437" y2="3.233167868111429" class="delaunay-line"/>
<line x1="9.076355194146437" y1="3.233167868111429" x2="8.99006895114752" y2="3.058196676158328" class="delaunay-line"/>
<line x1="9.076355194146437" y1="3.233167868111429" x2="0" y2="24" class="delaunay-line"/>
<line x1="0" y1="24" x2="9.223031864292054" y2="3.361799855499288" class="delaunay-line"/>
<line x1="9.223031864292054" y1="3.361799855499288" x2="9.076355194146437" y2="3.233167868111429" class="delaunay-line"/>
<line x1="9.538294960402078" y1="2.433064722920163" x2="0" y2="0" class="delaunay-line"/>
<line x1="0" y1="0" x2="9.343622341740792" y2="2.445824240462535" class="delaunay-line"/>
<line x1="9.343622341740792" y1="2.445824240462535" x2="9.538294960402078" y2="2.433064722920163" class="delaunay-line"/>
<line x1="9.86970853443767" y1="2.6244064391027084" x2="24" y2="0" class="delaunay-line"/>
<line x1="24" y1="0" x2="9.723031864292054" y2="2.4957744517148495" class="delaunay-line"/>
<line x1="9.723031864292054" y1="2.4957744517148495" x2="9.86970853443767" y2="2.6244064391027084" class="delaunay-line"/>
<line x1="9.723031864292054" y1="2.4957744517148495" x2="24" y2="0" class="delaunay-line"/>
<line x1="24" y1="0" x2="9.538294960402078" y2="2.433064722920163" class="delaunay-line"/>
<line x1="9.538294960402078" y1="2.433064722920163" x2="9.723031864292054" y2="2.4957744517148495" class="delaunay-line"/>
<line x1="9.538294960402078" y1="2.433064722920163" x2="24" y2="0" class="delaunay-line"/>
<line x1="24" y1="0" x2="0" y2="0" class="delaunay-line"/>
<line x1="0" y1="0" x2="9.538294960402078" y2="2.433064722920163" class="delaunay-line"/>
<line x1="9.955994777436587" y1="2.799377631055809" x2="24" y2="0" class="delaunay-line"/>
<line x1="24" y1="0" x2="9.86970853443767" y2="2.6244064391027084" class="delaunay-line"/>
<line x1="9.86970853443767" y1="2.6244064391027084" x2="9.955994777436587" y2="2.799377631055809" class="delaunay-line"/>
<line x1="9.96875429497896" y1="2.994050249717094" x2="24" y2="0" class="delaunay-line"/>
<line x1="24" y1="0" x2="9.955994777436587" y2="2.799377631055809" class="delaunay-line"/>
<line x1="9.955994777436587" y1="2.799377631055809" x2="9.96875429497896" y2="2.994050249717094" class="delaunay-line"/>
<line x1="9.906044566184272" y1="3.1787871536070686" x2="24" y2="0" class="delaunay-line"/>
<line x1="24" y1="0" x2="9.96875429497896" y2="2.994050249717094" class="delaunay-line"/>
<line x1="9.96875429497896" y1="2.994050249717094" x2="9.906044566184272" y2="3.1787871536070686" class="delaunay-line"/>
<line x1="23.087763643658956" y1="20.72281463826648" x2="24" y2="0" class="delaunay-line"/>
<line x1="24" y1="0" x2="9.906044566184272" y2="3.1787871536070686" class="delaunay-line"/>
<line x1="9.906044566184272" y1="3.1787871536070686" x2="23.087763643658956" y2="20.72281463826648" class="delaunay-line"/>
<line x1="23.087763643658956" y1="20.72281463826648" x2="9.906044566184272" y2="3.1787871536070686" class="delaunay-line"/>
<line x1="9.906044566184272" y1="3.1787871536070686" x2="9.777412578796413" y2="3.325463823752687" class="delaunay-line"/>
<line x1="9.777412578796413" y1="3.325463823752687" x2="23.087763643658956" y2="20.72281463826648" class="delaunay-line"/>
<line x1="22.81716559358586" y1="20.99341268833958" x2="22.92555196924823" y2="20.83120101392885" class="delaunay-line"/>
<line x1="22.92555196924823" y1="20.83120101392885" x2="9.602441386843315" y2="3.411750066751602" class="delaunay-line"/>
<line x1="9.602441386843315" y1="3.411750066751602" x2="22.81716559358586" y2="20.99341268833958" class="delaunay-line"/>
<line x1="9.602441386843315" y1="3.411750066751602" x2="22.92555196924823" y2="20.83120101392885" class="delaunay-line"/>
<line x1="22.92555196924823" y1="20.83120101392885" x2="9.777412578796413" y2="3.325463823752687" class="delaunay-line"/>
<line x1="9.777412578796413" y1="3.325463823752687" x2="9.602441386843315" y2="3.411750066751602" class="delaunay-line"/>
<line x1="22.81716559358586" y1="20.99341268833958" x2="9.602441386843315" y2="3.411750066751602" class="delaunay-line"/>
<line x1="9.602441386843315" y1="3.411750066751602" x2="0" y2="24" class="delaunay-line"/>
<line x1="0" y1="24" x2="22.81716559358586" y2="20.99341268833958" class="delaunay-line"/>
<line x1="22.81716559358586" y1="20.99341268833958" x2="0" y2="24" class="delaunay-line"/>
<line x1="0" y1="24" x2="22.779105359841502" y2="21.184754404522124" class="delaunay-line"/>
<line x1="22.779105359841502" y1="21.184754404522124" x2="22.81716559358586" y2="20.99341268833958" class="delaunay-line"/>
<line x1="22.92555196924823" y1="20.83120101392885" x2="23.087763643658956" y2="20.72281463826648" class="delaunay-line"/>
<line x1="23.087763643658956" y1="20.72281463826648" x2="9.777412578796413" y2="3.325463823752687" class="delaunay-line"/>
<line x1="9.777412578796413" y1="3.325463823752687" x2="22.92555196924823" y2="20.83120101392885" class="delaunay-line"/>
<line x1="9.602441386843315" y1="3.411750066751602" x2="9.407768768182027" y2="3.4245095842939737" class="delaunay-line"/>
<line x1="9.407768768182027" y1="3.4245095842939737" x2="0" y2="24" class="delaunay-line"/>
<line x1="0" y1="24" x2="9.602441386843315" y2="3.411750066751602" class="delaunay-line"/>
<line x1="22.92555196924823" y1="20.83120101392885" x2="23.279105359841502" y2="20.684754404522124" class="delaunay-line"/>
<line x1="23.279105359841502" y1="20.684754404522124" x2="23.087763643658956" y2="20.72281463826648" class="delaunay-line"/>
<line x1="23.087763643658956" y1="20.72281463826648" x2="22.92555196924823" y2="20.83120101392885" class="delaunay-line"/>
<line x1="23.470447076024048" y1="20.72281463826648" x2="23.279105359841502" y2="20.684754404522124" class="delaunay-line"/>
<line x1="23.279105359841502" y1="20.684754404522124" x2="23.632658750434775" y2="20.83120101392885" class="delaunay-line"/>
<line x1="23.632658750434775" y1="20.83120101392885" x2="23.470447076024048" y2="20.72281463826648" class="delaunay-line"/>
<line x1="23.087763643658956" y1="20.72281463826648" x2="23.279105359841502" y2="20.684754404522124" class="delaunay-line"/>
<line x1="23.279105359841502" y1="20.684754404522124" x2="24" y2="0" class="delaunay-line"/>
<line x1="24" y1="0" x2="23.087763643658956" y2="20.72281463826648" class="delaunay-line"/>
<line x1="22.81716559358586" y1="21.37609612070467" x2="22.779105359841502" y2="21.184754404522124" class="delaunay-line"/>
<line x1="22.779105359841502" y1="21.184754404522124" x2="0" y2="24" class="delaunay-line"/>
<line x1="0" y1="24" x2="22.81716559358586" y2="21.37609612070467" class="delaunay-line"/>
<line x1="22.81716559358586" y1="20.99341268833958" x2="22.779105359841502" y2="21.184754404522124" class="delaunay-line"/>
<line x1="22.779105359841502" y1="21.184754404522124" x2="22.92555196924823" y2="20.83120101392885" class="delaunay-line"/>
<line x1="22.92555196924823" y1="20.83120101392885" x2="22.81716559358586" y2="20.99341268833958" class="delaunay-line"/>
<line x1="23.632658750434775" y1="20.83120101392885" x2="23.279105359841502" y2="20.684754404522124" class="delaunay-line"/>
<line x1="23.279105359841502" y1="20.684754404522124" x2="22.92555196924823" y2="20.83120101392885" class="delaunay-line"/>
<line x1="22.92555196924823" y1="20.83120101392885" x2="23.632658750434775" y2="20.83120101392885" class="delaunay-line"/>
<line x1="23.279105359841502" y1="20.684754404522124" x2="23.470447076024048" y2="20.72281463826648" class="delaunay-line"/>
<line x1="23.470447076024048" y1="20.72281463826648" x2="24" y2="0" class="delaunay-line"/>
<line x1="24" y1="0" x2="23.279105359841502" y2="20.684754404522124" class="delaunay-line"/>
<line x1="0" y1="24" x2="9.407768768182027" y2="3.4245095842939737" class="delaunay-line"/>
<line x1="9.407768768182027" y1="3.4245095842939737" x2="9.223031864292054" y2="3.361799855499288" class="delaunay-line"/>
<line x1="9.223031864292054" y1="3.361799855499288" x2="0" y2="24" class="delaunay-line"/>
<line x1="22.779105359841502" y1="21.184754404522124" x2="22.92555196924823" y2="21.538307795115397" class="delaunay-line"/>
<line x1="22.92555196924823" y1="21.538307795115397" x2="22.92555196924823" y2="20.83120101392885" class="delaunay-line"/>
<line x1="22.92555196924823" y1="20.83120101392885" x2="22.779105359841502" y2="21.184754404522124" class="delaunay-line"/>
<line x1="23.632658750434775" y1="21.538307795115397" x2="23.632658750434775" y2="20.83120101392885" class="delaunay-line"/>
<line x1="23.632658750434775" y1="20.83120101392885" x2="22.92555196924823" y2="20.83120101392885" class="delaunay-line"/>
<line x1="22.92555196924823" y1="20.83120101392885" x2="23.632658750434775" y2="21.538307795115397" class="delaunay-line"/>
<line x1="23.470447076024048" y1="20.72281463826648" x2="23.632658750434775" y2="20.83120101392885" class="delaunay-line"/>
<line x1="23.632658750434775" y1="20.83120101392885" x2="24" y2="0" class="delaunay-line"/>
<line x1="24" y1="0" x2="23.470447076024048" y2="20.72281463826648" class="delaunay-line"/>
<line x1="24" y1="24" x2="22.92555196924823" y2="21.538307795115397" class="delaunay-line"/>
<line x1="22.92555196924823" y1="21.538307795115397" x2="22.81716559358586" y2="21.37609612070467" class="delaunay-line"/>
<line x1="22.81716559358586" y1="21.37609612070467" x2="24" y2="24" class="delaunay-line"/>
<line x1="22.81716559358586" y1="21.37609612070467" x2="22.92555196924823" y2="21.538307795115397" class="delaunay-line"/>
<line x1="22.92555196924823" y1="21.538307795115397" x2="22.779105359841502" y2="21.184754404522124" class="delaunay-line"/>
<line x1="22.779105359841502" y1="21.184754404522124" x2="22.81716559358586" y2="21.37609612070467" class="delaunay-line"/>
<line x1="23.779105359841502" y1="21.184754404522124" x2="23.741045126097145" y2="20.99341268833958" class="delaunay-line"/>
<line x1="23.741045126097145" y1="20.99341268833958" x2="23.632658750434775" y2="20.83120101392885" class="delaunay-line"/>
<line x1="23.632658750434775" y1="20.83120101392885" x2="23.779105359841502" y2="21.184754404522124" class="delaunay-line"/>
<line x1="23.632658750434775" y1="20.83120101392885" x2="23.741045126097145" y2="20.99341268833958" class="delaunay-line"/>
<line x1="23.741045126097145" y1="20.99341268833958" x2="24" y2="0" class="delaunay-line"/>
<line x1="24" y1="0" x2="23.632658750434775" y2="20.83120101392885" class="delaunay-line"/>
<line x1="0" y1="0" x2="0" y2="24" class="delaunay-line"/>
<line x1="0" y1="24" x2="9.076355194146437" y2="3.233167868111429" class="delaunay-line"/>
<line x1="9.076355194146437" y1="3.233167868111429" x2="0" y2="0" class="delaunay-line"/>
<line x1="24" y1="24" x2="23.087763643658956" y2="21.646694170777767" class="delaunay-line"/>
<line x1="23.087763643658956" y1="21.646694170777767" x2="22.92555196924823" y2="21.538307795115397" class="delaunay-line"/>
<line x1="22.92555196924823" y1="21.538307795115397" x2="24" y2="24" class="delaunay-line"/>
<line x1="23.741045126097145" y1="21.37609612070467" x2="23.779105359841502" y2="21.184754404522124" class="delaunay-line"/>
<line x1="23.779105359841502" y1="21.184754404522124" x2="23.632658750434775" y2="21.538307795115397" class="delaunay-line"/>
<line x1="23.632658750434775" y1="21.538307795115397" x2="23.741045126097145" y2="21.37609612070467" class="delaunay-line"/>
<line x1="23.779105359841502" y1="21.184754404522124" x2="23.632658750434775" y2="20.83120101392885" class="delaunay-line"/>
<line x1="23.632658750434775" y1="20.83120101392885" x2="23.632658750434775" y2="21.538307795115397" class="delaunay-line"/>
<line x1="23.632658750434775" y1="21.538307795115397" x2="23.779105359841502" y2="21.184754404522124" class="delaunay-line"/>
<line x1="23.741045126097145" y1="20.99341268833958" x2="23.779105359841502" y2="21.184754404522124" class="delaunay-line"/>
<line x1="23.779105359841502" y1="21.184754404522124" x2="24" y2="0" class="delaunay-line"/>
<line x1="24" y1="0" x2="23.741045126097145" y2="20.99341268833958" class="delaunay-line"/>
<line x1="24" y1="24" x2="23.279105359841502" y2="21.684754404522124" class="delaunay-line"/>
<line x1="23.279105359841502" y1="21.684754404522124" x2="23.087763643658956" y2="21.646694170777767" class="delaunay-line"/>
<line x1="23.087763643658956" y1="21.646694170777767" x2="24" y2="24" class="delaunay-line"/>
<line x1="23.087763643658956" y1="21.646694170777767" x2="23.279105359841502" y2="21.684754404522124" class="delaunay-line"/>
<line x1="23.279105359841502" y1="21.684754404522124" x2="22.92555196924823" y2="21.538307795115397" class="delaunay-line"/>
<line x1="22.92555196924823" y1="21.538307795115397" x2="23.087763643658956" y2="21.646694170777767" class="delaunay-line"/>
<line x1="23.632658750434775" y1="21.538307795115397" x2="22.92555196924823" y2="20.83120101392885" class="delaunay-line"/>
<line x1="22.92555196924823" y1="20.83120101392885" x2="22.92555196924823" y2="21.538307795115397" class="delaunay-line"/>
<line x1="22.92555196924823" y1="21.538307795115397" x2="23.632658750434775" y2="21.538307795115397" class="delaunay-line"/>
<line x1="23.279105359841502" y1="21.684754404522124" x2="23.632658750434775" y2="21.538307795115397" class="delaunay-line"/>
<line x1="23.632658750434775" y1="21.538307795115397" x2="22.92555196924823" y2="21.538307795115397" class="delaunay-line"/>
<line x1="22.92555196924823" y1="21.538307795115397" x2="23.279105359841502" y2="21.684754404522124" class="delaunay-line"/>
<line x1="23.470447076024048" y1="21.646694170777767" x2="23.632658750434775" y2="21.538307795115397" class="delaunay-line"/>
<line x1="23.632658750434775" y1="21.538307795115397" x2="23.279105359841502" y2="21.684754404522124" class="delaunay-line"/>
<line x1="23.279105359841502" y1="21.684754404522124" x2="23.470447076024048" y2="21.646694170777767" class="delaunay-line"/>
<line x1="23.279105359841502" y1="21.684754404522124" x2="24" y2="24" class="delaunay-line"/>
<line x1="24" y1="24" x2="23.470447076024048" y2="21.646694170777767" class="delaunay-line"/>
<line x1="23.470447076024048" y1="21.646694170777767" x2="23.279105359841502" y2="21.684754404522124" class="delaunay-line"/>
<line x1="23.470447076024048" y1="21.646694170777767" x2="24" y2="24" class="delaunay-line"/>
<line x1="24" y1="24" x2="23.632658750434775" y2="21.538307795115397" class="delaunay-line"/>
<line x1="23.632658750434775" y1="21.538307795115397" x2="23.470447076024048" y2="21.646694170777767" class="delaunay-line"/>
<line x1="23.632658750434775" y1="21.538307795115397" x2="24" y2="24" class="delaunay-line"/>
<line x1="24" y1="24" x2="23.741045126097145" y2="21.37609612070467" class="delaunay-line"/>
<line x1="23.741045126097145" y1="21.37609612070467" x2="23.632658750434775" y2="21.538307795115397" class="delaunay-line"/>
<line x1="23.741045126097145" y1="21.37609612070467" x2="24" y2="24" class="delaunay-line"/>
<line x1="24" y1="24" x2="23.779105359841502" y2="21.184754404522124" class="delaunay-line"/>
<line x1="23.779105359841502" y1="21.184754404522124" x2="23.741045126097145" y2="21.37609612070467" class="delaunay-line"/>
<line x1="23.779105359841502" y1="21.184754404522124" x2="24" y2="24" class="delaunay-line"/>
<line x1="24" y1="24" x2="24" y2="0" class="delaunay-line"/>
<line x1="24" y1="0" x2="23.779105359841502" y2="21.184754404522124" class="delaunay-line"/>
<line x1="0" y1="24" x2="24" y2="24" class="delaunay-line"/>
<line x1="24" y1="24" x2="22.81716559358586" y2="21.37609612070467" class="delaunay-line"/>
<line x1="22.81716559358586" y1="21.37609612070467" x2="0" y2="24" class="delaunay-line"/>
</g>
<g id="layer-area" class="layer ">
</g>
<g id="layer-terrain" class="layer ">
<polygon points="9.723031864292054,2.4957744517148495 9.86970853443767,2.6244064391027084 9.955994777436587,2.799377631055809 9.96875429497896,2.994050249717094 9.906044566184272,3.1787871536070686 9.777412578796413,3.325463823752687 9.602441386843315,3.411750066751602 9.407768768182027,3.4245095842939737 9.223031864292054,3.361799855499288 9.076355194146437,3.233167868111429 8.99006895114752,3.058196676158328 8.977309433605148,2.863524057497043 9.040019162399835,2.6787871536070686 9.168651149787694,2.5321104834614503 9.343622341740792,2.445824240462535 9.538294960402078,2.433064722920163" fill="Dark Green" class="terrain-solid"/>
<polygon points="22.92555196924823,20.83120101392885 23.087763643658956,20.72281463826648 23.279105359841502,20.684754404522124 23.470447076024048,20.72281463826648 23.632658750434775,20.83120101392885 23.741045126097145,20.99341268833958 23.779105359841502,21.184754404522124 23.741045126097145,21.37609612070467 23.632658750434775,21.538307795115397 23.470447076024048,21.646694170777767 23.279105359841502,21.684754404522124 23.087763643658956,21.646694170777767 22.92555196924823,21.538307795115397 22.81716559358586,21.37609612070467 22.779105359841502,21.184754404522124 22.81716559358586,20.99341268833958" fill="Dark Green" class="terrain-solid"/>
</g>
<g id="layer-models" class="layer ">
</g>
<g id="layer-paths" class="layer ">
</g>
<g id="layer-vectors" class="layer ">
</g>
<g id="layer-los" class="layer ">
</g>
<g id="layer-lof" class="layer ">
</g>

</svg>