<svg xmlns="http://www.w3.org/2000/svg" viewBox="0 0 36 36" width="1440" height="1440" font-family="Arial" font-size="0.6">
<defs>
  <style><![CDATA[
    .layer { display: inline; }
    .layer.hidden { display: none; }
    .grid-line { stroke: #999; stroke-width: 0.02; opacity: 0.2; }
    .grid-line-2mu { stroke: #666; stroke-width: 0.04; opacity: 0.4; }
    .grid-line-6mu { stroke: #333; stroke-width: 0.08; opacity: 0.6; }
    .delaunay-line { stroke: #4a6fa5; stroke-width: 0.03; opacity: 0.3; }
    #layer-area { opacity: 0.8; }
    #layer-building, #layer-wall, #layer-tree, #layer-rocks, #layer-shrub, #layer-terrain { opacity: 0.8; }
    .terrain-area { stroke: none; }
    .terrain-solid { stroke: #000; stroke-width: 0.05; }
    .model { stroke: #ff0000; stroke-width: 2; vector-effect: non-scaling-stroke; }
    .path { fill: none; stroke-width: 0.12; }
    .vector { stroke-width: 0.1; }
    .los-ray { stroke-width: 0.08; stroke-dasharray: 0.2 0.2; }
    .lof-ray { stroke-width: 0.08; stroke-dasharray: 0.3 0.15; }
    .label { fill: #111 !important; font-size: 0.6px; }
    .toggle { cursor: pointer; }
    .toggle.disabled { cursor: default; }
    .toggle.disabled rect { stroke: #ccc; fill: #fff; }
    .toggle.disabled text { fill: #ccc; }
#layer-building { fill: #000000; }
#layer-wall { fill: #555555; }
  ]]></style>
</defs>
<rect x="0" y="0" width="36" height="36" fill="#ffffff" stroke="#111" stroke-width="0.05"/>
<script><![CDATA[
      function toggleLayer(id) {
        var layer = document.getElementById('layer-' + id);
        if (!layer) return;
        if (layer.classList.contains('hidden')) {
          layer.classList.remove('hidden');
        } else {
          layer.classList.add('hidden');
        }
      }
    ]]></script>
<text x="0.4" y="35.6" class="label">CLEARANCE-DEMO: 36×36 MU with 1 MU clearance</text>
<g id="layer-deployment" class="layer ">
</g>
<g id="layer-grid" class="layer hidden">
<line x1="0" y1="0" x2="0" y2="36" class="grid-line-6mu"/>
<line x1="0.5" y1="0" x2="0.5" y2="36" class="grid-line"/>
<line x1="1" y1="0" x2="1" y2="36" class="grid-line"/>
<line x1="1.5" y1="0" x2="1.5" y2="36" class="grid-line"/>
<line x1="2" y1="0" x2="2" y2="36" class="grid-line-2mu"/>
<line x1="2.5" y1="0" x2="2.5" y2="36" class="grid-line"/>
<line x1="3" y1="0" x2="3" y2="36" class="grid-line"/>
<line x1="3.5" y1="0" x2="3.5" y2="36" class="grid-line"/>
<line x1="4" y1="0" x2="4" y2="36" class="grid-line-2mu"/>
<line x1="4.5" y1="0" x2="4.5" y2="36" class="grid-line"/>
<line x1="5" y1="0" x2="5" y2="36" class="grid-line"/>
<line x1="5.5" y1="0" x2="5.5" y2="36" class="grid-line"/>
<line x1="6" y1="0" x2="6" y2="36" class="grid-line-6mu"/>
<line x1="6.5" y1="0" x2="6.5" y2="36" class="grid-line"/>
<line x1="7" y1="0" x2="7" y2="36" class="grid-line"/>
<line x1="7.5" y1="0" x2="7.5" y2="36" class="grid-line"/>
<line x1="8" y1="0" x2="8" y2="36" class="grid-line-2mu"/>
<line x1="8.5" y1="0" x2="8.5" y2="36" class="grid-line"/>
<line x1="9" y1="0" x2="9" y2="36" class="grid-line"/>
<line x1="9.5" y1="0" x2="9.5" y2="36" class="grid-line"/>
<line x1="10" y1="0" x2="10" y2="36" class="grid-line-2mu"/>
<line x1="10.5" y1="0" x2="10.5" y2="36" class="grid-line"/>
<line x1="11" y1="0" x2="11" y2="36" class="grid-line"/>
<line x1="11.5" y1="0" x2="11.5" y2="36" class="grid-line"/>
<line x1="12" y1="0" x2="12" y2="36" class="grid-line-6mu"/>
<line x1="12.5" y1="0" x2="12.5" y2="36" class="grid-line"/>
<line x1="13" y1="0" x2="13" y2="36" class="grid-line"/>
<line x1="13.5" y1="0" x2="13.5" y2="36" class="grid-line"/>
<line x1="14" y1="0" x2="14" y2="36" class="grid-line-2mu"/>
<line x1="14.5" y1="0" x2="14.5" y2="36" class="grid-line"/>
<line x1="15" y1="0" x2="15" y2="36" class="grid-line"/>
<line x1="15.5" y1="0" x2="15.5" y2="36" class="grid-line"/>
<line x1="16" y1="0" x2="16" y2="36" class="grid-line-2mu"/>
<line x1="16.5" y1="0" x2="16.5" y2="36" class="grid-line"/>
<line x1="17" y1="0" x2="17" y2="36" class="grid-line"/>
<line x1="17.5" y1="0" x2="17.5" y2="36" class="grid-line"/>
<line x1="18" y1="0" x2="18" y2="36" class="grid-line-6mu"/>
<line x1="18.5" y1="0" x2="18.5" y2="36" class="grid-line"/>
<line x1="19" y1="0" x2="19" y2="36" class="grid-line"/>
<line x1="19.5" y1="0" x2="19.5" y2="36" class="grid-line"/>
<line x1="20" y1="0" x2="20" y2="36" class="grid-line-2mu"/>
<line x1="20.5" y1="0" x2="20.5" y2="36" class="grid-line"/>
<line x1="21" y1="0" x2="21" y2="36" class="grid-line"/>
<line x1="21.5" y1="0" x2="21.5" y2="36" class="grid-line"/>
<line x1="22" y1="0" x2="22" y2="36" class="grid-line-2mu"/>
<line x1="22.5" y1="0" x2="22.5" y2="36" class="grid-line"/>
<line x1="23" y1="0" x2="23" y2="36" class="grid-line"/>
<line x1="23.5" y1="0" x2="23.5" y2="36" class="grid-line"/>
<line x1="24" y1="0" x2="24" y2="36" class="grid-line-6mu"/>
<line x1="24.5" y1="0" x2="24.5" y2="36" class="grid-line"/>
<line x1="25" y1="0" x2="25" y2="36" class="grid-line"/>
<line x1="25.5" y1="0" x2="25.5" y2="36" class="grid-line"/>
<line x1="26" y1="0" x2="26" y2="36" class="grid-line-2mu"/>
<line x1="26.5" y1="0" x2="26.5" y2="36" class="grid-line"/>
<line x1="27" y1="0" x2="27" y2="36" class="grid-line"/>
<line x1="27.5" y1="0" x2="27.5" y2="36" class="grid-line"/>
<line x1="28" y1="0" x2="28" y2="36" class="grid-line-2mu"/>
<line x1="28.5" y1="0" x2="28.5" y2="36" class="grid-line"/>
<line x1="29" y1="0" x2="29" y2="36" class="grid-line"/>
<line x1="29.5" y1="0" x2="29.5" y2="36" class="grid-line"/>
<line x1="30" y1="0" x2="30" y2="36" class="grid-line-6mu"/>
<line x1="30.5" y1="0" x2="30.5" y2="36" class="grid-line"/>
<line x1="31" y1="0" x2="31" y2="36" class="grid-line"/>
<line x1="31.5" y1="0" x2="31.5" y2="36" class="grid-line"/>
<line x1="32" y1="0" x2="32" y2="36" class="grid-line-2mu"/>
<line x1="32.5" y1="0" x2="32.5" y2="36" class="grid-line"/>
<line x1="33" y1="0" x2="33" y2="36" class="grid-line"/>
<line x1="33.5" y1="0" x2="33.5" y2="36" class="grid-line"/>
<line x1="34" y1="0" x2="34" y2="36" class="grid-line-2mu"/>
<line x1="34.5" y1="0" x2="34.5" y2="36" class="grid-line"/>
<line x1="35" y1="0" x2="35" y2="36" class="grid-line"/>
<line x1="35.5" y1="0" x2="35.5" y2="36" class="grid-line"/>
<line x1="36" y1="0" x2="36" y2="36" class="grid-line-6mu"/>
<line x1="0" y1="0" x2="36" y2="0" class="grid-line-6mu"/>
<line x1="0" y1="0.5" x2="36" y2="0.5" class="grid-line"/>
<line x1="0" y1="1" x2="36" y2="1" class="grid-line"/>
<line x1="0" y1="1.5" x2="36" y2="1.5" class="grid-line"/>
<line x1="0" y1="2" x2="36" y2="2" class="grid-line-2mu"/>
<line x1="0" y1="2.5" x2="36" y2="2.5" class="grid-line"/>
<line x1="0" y1="3" x2="36" y2="3" class="grid-line"/>
<line x1="0" y1="3.5" x2="36" y2="3.5" class="grid-line"/>
<line x1="0" y1="4" x2="36" y2="4" class="grid-line-2mu"/>
<line x1="0" y1="4.5" x2="36" y2="4.5" class="grid-line"/>
<line x1="0" y1="5" x2="36" y2="5" class="grid-line"/>
<line x1="0" y1="5.5" x2="36" y2="5.5" class="grid-line"/>
<line x1="0" y1="6" x2="36" y2="6" class="grid-line-6mu"/>
<line x1="0" y1="6.5" x2="36" y2="6.5" class="grid-line"/>
<line x1="0" y1="7" x2="36" y2="7" class="grid-line"/>
<line x1="0" y1="7.5" x2="36" y2="7.5" class="grid-line"/>
<line x1="0" y1="8" x2="36" y2="8" class="grid-line-2mu"/>
<line x1="0" y1="8.5" x2="36" y2="8.5" class="grid-line"/>
<line x1="0" y1="9" x2="36" y2="9" class="grid-line"/>
<line x1="0" y1="9.5" x2="36" y2="9.5" class="grid-line"/>
<line x1="0" y1="10" x2="36" y2="10" class="grid-line-2mu"/>
<line x1="0" y1="10.5" x2="36" y2="10.5" class="grid-line"/>
<line x1="0" y1="11" x2="36" y2="11" class="grid-line"/>
<line x1="0" y1="11.5" x2="36" y2="11.5" class="grid-line"/>
<line x1="0" y1="12" x2="36" y2="12" class="grid-line-6mu"/>
<line x1="0" y1="12.5" x2="36" y2="12.5" class="grid-line"/>
<line x1="0" y1="13" x2="36" y2="13" class="grid-line"/>
<line x1="0" y1="13.5" x2="36" y2="13.5" class="grid-line"/>
<line x1="0" y1="14" x2="36" y2="14" class="grid-line-2mu"/>
<line x1="0" y1="14.5" x2="36" y2="14.5" class="grid-line"/>
<line x1="0" y1="15" x2="36" y2="15" class="grid-line"/>
<line x1="0" y1="15.5" x2="36" y2="15.5" class="grid-line"/>
<line x1="0" y1="16" x2="36" y2="16" class="grid-line-2mu"/>
<line x1="0" y1="16.5" x2="36" y2="16.5" class="grid-line"/>
<line x1="0" y1="17" x2="36" y2="17" class="grid-line"/>
<line x1="0" y1="17.5" x2="36" y2="17.5" class="grid-line"/>
<line x1="0" y1="18" x2="36" y2="18" class="grid-line-6mu"/>
<line x1="0" y1="18.5" x2="36" y2="18.5" class="grid-line"/>
<line x1="0" y1="19" x2="36" y2="19" class="grid-line"/>
<line x1="0" y1="19.5" x2="36" y2="19.5" class="grid-line"/>
<line x1="0" y1="20" x2="36" y2="20" class="grid-line-2mu"/>
<line x1="0" y1="20.5" x2="36" y2="20.5" class="grid-line"/>
<line x1="0" y1="21" x2="36" y2="21" class="grid-line"/>
<line x1="0" y1="21.5" x2="36" y2="21.5" class="grid-line"/>
<line x1="0" y1="22" x2="36" y2="22" class="grid-line-2mu"/>
<line x1="0" y1="22.5" x2="36" y2="22.5" class="grid-line"/>
<line x1="0" y1="23" x2="36" y2="23" class="grid-line"/>
<line x1="0" y1="23.5" x2="36" y2="23.5" class="grid-line"/>
<line x1="0" y1="24" x2="36" y2="24" class="grid-line-6mu"/>
<line x1="0" y1="24.5" x2="36" y2="24.5" class="grid-line"/>
<line x1="0" y1="25" x2="36" y2="25" class="grid-line"/>
<line x1="0" y1="25.5" x2="36" y2="25.5" class="grid-line"/>
<line x1="0" y1="26" x2="36" y2="26" class="grid-line-2mu"/>
<line x1="0" y1="26.5" x2="36" y2="26.5" class="grid-line"/>
<line x1="0" y1="27" x2="36" y2="27" class="grid-line"/>
<line x1="0" y1="27.5" x2="36" y2="27.5" class="grid-line"/>
<line x1="0" y1="28" x2="36" y2="28" class="grid-line-2mu"/>
<line x1="0" y1="28.5" x2="36" y2="28.5" class="grid-line"/>
<line x1="0" y1="29" x2="36" y2="29" class="grid-line"/>
<line x1="0" y1="29.5" x2="36" y2="29.5" class="grid-line"/>
<line x1="0" y1="30" x2="36" y2="30" class="grid-line-6mu"/>
<line x1="0" y1="30.5" x2="36" y2="30.5" class="grid-line"/>
<line x1="0" y1="31" x2="36" y2="31" class="grid-line"/>
<line x1="0" y1="31.5" x2="36" y2="31.5" class="grid-line"/>
<line x1="0" y1="32" x2="36" y2="32" class="grid-line-2mu"/>
<line x1="0" y1="32.5" x2="36" y2="32.5" class="grid-line"/>
<line x1="0" y1="33" x2="36" y2="33" class="grid-line"/>
<line x1="0" y1="33.5" x2="36" y2="33.5" class="grid-line"/>
<line x1="0" y1="34" x2="36" y2="34" class="grid-line-2mu"/>
<line x1="0" y1="34.5" x2="36" y2="34.5" class="grid-line"/>
<line x1="0" y1="35" x2="36" y2="35" class="grid-line"/>
<line x1="0" y1="35.5" x2="36" y2="35.5" class="grid-line"/>
<line x1="0" y1="36" x2="36" y2="36" class="grid-line-6mu"/>
</g>
<g id="layer-delaunay" class="layer hidden">
<line x1="18.092237055324404" y1="20.584401961295953" x2="17.592237055324404" y2="20.584401961295953" class="delaunay-line"/>
<line x1="17.592237055324404" y1="20.584401961295953" x2="18.092237055324404" y2="26.584401961295953" class="delaunay-line"/>
<line x1="18.092237055324404" y1="26.584401961295953" x2="18.092237055324404" y2="20.584401961295953" class="delaunay-line"/>
<line x1="17.592237055324404" y1="20.584401961295953" x2="17.592237055324404" y2="26.584401961295953" class="delaunay-line"/>
<line x1="17.592237055324404" y1="26.584401961295953" x2="18.092237055324404" y2="26.584401961295953" class="delaunay-line"/>
<line x1="18.092237055324404" y1="26.584401961295953" x2="17.592237055324404" y2="20.584401961295953" class="delaunay-line"/>
<line x1="18.092237055324404" y1="26.584401961295953" x2="20.869014338144574" y2="24.75612640124347" class="delaunay-line"/>
<line x1="20.869014338144574" y1="24.75612640124347" x2="18.092237055324404" y2="20.584401961295953" class="delaunay-line"/>
<line x1="18.092237055324404" y1="20.584401961295953" x2="18.092237055324404" y2="26.584401961295953" class="delaunay-line"/>
<line x1="18.092237055324404" y1="26.584401961295953" x2="21.203579641324005" y2="25.12769881398217" class="delaunay-line"/>
<line x1="21.203579641324005" y1="25.12769881398217" x2="20.869014338144574" y2="24.75612640124347" class="delaunay-line"/>
<line x1="20.869014338144574" y1="24.75612640124347" x2="18.092237055324404" y2="26.584401961295953" class="delaunay-line"/>
<line x1="20.869014338144574" y1="24.75612640124347" x2="25.327883291008938" y2="20.741342763090323" class="delaunay-line"/>
<line x1="25.327883291008938" y1="20.741342763090323" x2="18.092237055324404" y2="20.584401961295953" class="delaunay-line"/>
<line x1="18.092237055324404" y1="20.584401961295953" x2="20.869014338144574" y2="24.75612640124347" class="delaunay-line"/>
<line x1="18.092237055324404" y1="26.584401961295953" x2="22.075027914074706" y2="26.715916251010416" class="delaunay-line"/>
<line x1="22.075027914074706" y1="26.715916251010416" x2="21.203579641324005" y2="25.12769881398217" class="delaunay-line"/>
<line x1="21.203579641324005" y1="25.12769881398217" x2="18.092237055324404" y2="26.584401961295953" class="delaunay-line"/>
<line x1="19.47048267841745" y1="34.28006485580495" x2="22.075027914074706" y2="26.715916251010416" class="delaunay-line"/>
<line x1="22.075027914074706" y1="26.715916251010416" x2="18.092237055324404" y2="26.584401961295953" class="delaunay-line"/>
<line x1="18.092237055324404" y1="26.584401961295953" x2="19.47048267841745" y2="34.28006485580495" class="delaunay-line"/>
<line x1="11.248080753428187" y1="16.559196047039904" x2="13.44179822013757" y2="20.026302944104827" class="delaunay-line"/>
<line x1="13.44179822013757" y1="20.026302944104827" x2="16.391084557640863" y2="13.468967597579576" class="delaunay-line"/>
<line x1="16.391084557640863" y1="13.468967597579576" x2="11.248080753428187" y2="16.559196047039904" class="delaunay-line"/>
<line x1="17.592237055324404" y1="20.584401961295953" x2="13.44179822013757" y2="20.026302944104827" class="delaunay-line"/>
<line x1="13.44179822013757" y1="20.026302944104827" x2="17.592237055324404" y2="26.584401961295953" class="delaunay-line"/>
<line x1="17.592237055324404" y1="26.584401961295953" x2="17.592237055324404" y2="20.584401961295953" class="delaunay-line"/>
<line x1="11.018327259297857" y1="25.008273561415194" x2="13.44179822013757" y2="28.026302944104827" class="delaunay-line"/>
<line x1="13.44179822013757" y1="28.026302944104827" x2="17.592237055324404" y2="26.584401961295953" class="delaunay-line"/>
<line x1="17.592237055324404" y1="26.584401961295953" x2="11.018327259297857" y2="25.008273561415194" class="delaunay-line"/>
<line x1="17.592237055324404" y1="26.584401961295953" x2="15.286079176451695" y2="31.86088250122528" class="delaunay-line"/>
<line x1="15.286079176451695" y1="31.86088250122528" x2="18.092237055324404" y2="26.584401961295953" class="delaunay-line"/>
<line x1="18.092237055324404" y1="26.584401961295953" x2="17.592237055324404" y2="26.584401961295953" class="delaunay-line"/>
<line x1="13.44179822013757" y1="20.026302944104827" x2="11.018327259297857" y2="25.008273561415194" class="delaunay-line"/>
<line x1="11.018327259297857" y1="25.008273561415194" x2="17.592237055324404" y2="26.584401961295953" class="delaunay-line"/>
<line x1="17.592237055324404" y1="26.584401961295953" x2="13.44179822013757" y2="20.026302944104827" class="delaunay-line"/>
<line x1="12.44179822013757" y1="20.026302944104827" x2="11.018327259297857" y2="25.008273561415194" class="delaunay-line"/>
<line x1="11.018327259297857" y1="25.008273561415194" x2="13.44179822013757" y2="20.026302944104827" class="delaunay-line"/>
<line x1="13.44179822013757" y1="20.026302944104827" x2="12.44179822013757" y2="20.026302944104827" class="delaunay-line"/>
<line x1="11.018327259297857" y1="25.008273561415194" x2="12.44179822013757" y2="28.026302944104827" class="delaunay-line"/>
<line x1="12.44179822013757" y1="28.026302944104827" x2="13.44179822013757" y2="28.026302944104827" class="delaunay-line"/>
<line x1="13.44179822013757" y1="28.026302944104827" x2="11.018327259297857" y2="25.008273561415194" class="delaunay-line"/>
<line x1="25.66244859418837" y1="21.112915175829023" x2="20.869014338144574" y2="24.75612640124347" class="delaunay-line"/>
<line x1="20.869014338144574" y1="24.75612640124347" x2="21.203579641324005" y2="25.12769881398217" class="delaunay-line"/>
<line x1="21.203579641324005" y1="25.12769881398217" x2="25.66244859418837" y2="21.112915175829023" class="delaunay-line"/>
<line x1="25.66244859418837" y1="21.112915175829023" x2="25.327883291008938" y2="20.741342763090323" class="delaunay-line"/>
<line x1="25.327883291008938" y1="20.741342763090323" x2="20.869014338144574" y2="24.75612640124347" class="delaunay-line"/>
<line x1="20.869014338144574" y1="24.75612640124347" x2="25.66244859418837" y2="21.112915175829023" class="delaunay-line"/>
<line x1="16.391084557640863" y1="13.468967597579576" x2="13.44179822013757" y2="20.026302944104827" class="delaunay-line"/>
<line x1="13.44179822013757" y1="20.026302944104827" x2="17.592237055324404" y2="20.584401961295953" class="delaunay-line"/>
<line x1="17.592237055324404" y1="20.584401961295953" x2="16.391084557640863" y2="13.468967597579576" class="delaunay-line"/>
<line x1="22.075027914074706" y1="26.715916251010416" x2="25.66244859418837" y2="21.112915175829023" class="delaunay-line"/>
<line x1="25.66244859418837" y1="21.112915175829023" x2="21.203579641324005" y2="25.12769881398217" class="delaunay-line"/>
<line x1="21.203579641324005" y1="25.12769881398217" x2="22.075027914074706" y2="26.715916251010416" class="delaunay-line"/>
<line x1="12.44179822013757" y1="28.026302944104827" x2="15.286079176451695" y2="31.86088250122528" class="delaunay-line"/>
<line x1="15.286079176451695" y1="31.86088250122528" x2="13.44179822013757" y2="28.026302944104827" class="delaunay-line"/>
<line x1="13.44179822013757" y1="28.026302944104827" x2="12.44179822013757" y2="28.026302944104827" class="delaunay-line"/>
<line x1="13.44179822013757" y1="28.026302944104827" x2="15.286079176451695" y2="31.86088250122528" class="delaunay-line"/>
<line x1="15.286079176451695" y1="31.86088250122528" x2="17.592237055324404" y2="26.584401961295953" class="delaunay-line"/>
<line x1="17.592237055324404" y1="26.584401961295953" x2="13.44179822013757" y2="28.026302944104827" class="delaunay-line"/>
<line x1="9.41719357204886" y1="30.613412356318722" x2="15.182123331042815" y2="32.34995630159218" class="delaunay-line"/>
<line x1="15.182123331042815" y1="32.34995630159218" x2="15.286079176451695" y2="31.86088250122528" class="delaunay-line"/>
<line x1="15.286079176451695" y1="31.86088250122528" x2="9.41719357204886" y2="30.613412356318722" class="delaunay-line"/>
<line x1="15.286079176451695" y1="31.86088250122528" x2="19.47048267841745" y2="34.28006485580495" class="delaunay-line"/>
<line x1="19.47048267841745" y1="34.28006485580495" x2="18.092237055324404" y2="26.584401961295953" class="delaunay-line"/>
<line x1="18.092237055324404" y1="26.584401961295953" x2="15.286079176451695" y2="31.86088250122528" class="delaunay-line"/>
<line x1="11.018327259297857" y1="25.008273561415194" x2="9.782259281798067" y2="28.81249962659581" class="delaunay-line"/>
<line x1="9.782259281798067" y1="28.81249962659581" x2="12.44179822013757" y2="28.026302944104827" class="delaunay-line"/>
<line x1="12.44179822013757" y1="28.026302944104827" x2="11.018327259297857" y2="25.008273561415194" class="delaunay-line"/>
<line x1="12.44179822013757" y1="28.026302944104827" x2="9.41719357204886" y2="30.613412356318722" class="delaunay-line"/>
<line x1="9.41719357204886" y1="30.613412356318722" x2="15.286079176451695" y2="31.86088250122528" class="delaunay-line"/>
<line x1="15.286079176451695" y1="31.86088250122528" x2="12.44179822013757" y2="28.026302944104827" class="delaunay-line"/>
<line x1="4.0759201840271455" y1="26.958397660346122" x2="9.782259281798067" y2="28.81249962659581" class="delaunay-line"/>
<line x1="9.782259281798067" y1="28.81249962659581" x2="11.018327259297857" y2="25.008273561415194" class="delaunay-line"/>
<line x1="11.018327259297857" y1="25.008273561415194" x2="4.0759201840271455" y2="26.958397660346122" class="delaunay-line"/>
<line x1="10.990561715973161" y1="16.130612396688846" x2="11.248080753428187" y2="16.559196047039904" class="delaunay-line"/>
<line x1="11.248080753428187" y1="16.559196047039904" x2="16.391084557640863" y2="13.468967597579576" class="delaunay-line"/>
<line x1="16.391084557640863" y1="13.468967597579576" x2="10.990561715973161" y2="16.130612396688846" class="delaunay-line"/>
<line x1="13.44179822013757" y1="20.026302944104827" x2="11.248080753428187" y2="16.559196047039904" class="delaunay-line"/>
<line x1="11.248080753428187" y1="16.559196047039904" x2="12.44179822013757" y2="20.026302944104827" class="delaunay-line"/>
<line x1="12.44179822013757" y1="20.026302944104827" x2="13.44179822013757" y2="20.026302944104827" class="delaunay-line"/>
<line x1="12.44179822013757" y1="20.026302944104827" x2="5.311988161526935" y2="23.154171595165508" class="delaunay-line"/>
<line x1="5.311988161526935" y1="23.154171595165508" x2="11.018327259297857" y2="25.008273561415194" class="delaunay-line"/>
<line x1="11.018327259297857" y1="25.008273561415194" x2="12.44179822013757" y2="20.026302944104827" class="delaunay-line"/>
<line x1="16.391084557640863" y1="13.468967597579576" x2="17.592237055324404" y2="20.584401961295953" class="delaunay-line"/>
<line x1="17.592237055324404" y1="20.584401961295953" x2="18.092237055324404" y2="20.584401961295953" class="delaunay-line"/>
<line x1="18.092237055324404" y1="20.584401961295953" x2="16.391084557640863" y2="13.468967597579576" class="delaunay-line"/>
<line x1="11.248080753428187" y1="16.559196047039904" x2="5.311988161526935" y2="23.154171595165508" class="delaunay-line"/>
<line x1="5.311988161526935" y1="23.154171595165508" x2="12.44179822013757" y2="20.026302944104827" class="delaunay-line"/>
<line x1="12.44179822013757" y1="20.026302944104827" x2="11.248080753428187" y2="16.559196047039904" class="delaunay-line"/>
<line x1="21.19062573955233" y1="11.57496349324373" x2="16.391084557640863" y2="13.468967597579576" class="delaunay-line"/>
<line x1="16.391084557640863" y1="13.468967597579576" x2="18.092237055324404" y2="20.584401961295953" class="delaunay-line"/>
<line x1="18.092237055324404" y1="20.584401961295953" x2="21.19062573955233" y2="11.57496349324373" class="delaunay-line"/>
<line x1="25.66244859418837" y1="21.112915175829023" x2="30.458447027192204" y2="17.925054935734764" class="delaunay-line"/>
<line x1="30.458447027192204" y1="17.925054935734764" x2="25.327883291008938" y2="20.741342763090323" class="delaunay-line"/>
<line x1="25.327883291008938" y1="20.741342763090323" x2="25.66244859418837" y2="21.112915175829023" class="delaunay-line"/>
<line x1="22.075027914074706" y1="26.715916251010416" x2="28.225382838190853" y2="23.40342147391766" class="delaunay-line"/>
<line x1="28.225382838190853" y1="23.40342147391766" x2="25.66244859418837" y2="21.112915175829023" class="delaunay-line"/>
<line x1="25.66244859418837" y1="21.112915175829023" x2="22.075027914074706" y2="26.715916251010416" class="delaunay-line"/>
<line x1="27.748139367670607" y1="28.669325177753354" x2="28.225382838190853" y2="23.40342147391766" class="delaunay-line"/>
<line x1="28.225382838190853" y1="23.40342147391766" x2="22.075027914074706" y2="26.715916251010416" class="delaunay-line"/>
<line x1="22.075027914074706" y1="26.715916251010416" x2="27.748139367670607" y2="28.669325177753354" class="delaunay-line"/>
<line x1="28.225382838190853" y1="23.40342147391766" x2="28.225382838190853" y2="22.90342147391766" class="delaunay-line"/>
<line x1="28.225382838190853" y1="22.90342147391766" x2="25.66244859418837" y2="21.112915175829023" class="delaunay-line"/>
<line x1="25.66244859418837" y1="21.112915175829023" x2="28.225382838190853" y2="23.40342147391766" class="delaunay-line"/>
<line x1="17.874475449332166" y1="9.338191879360743" x2="16.133565520185837" y2="13.040383947228522" class="delaunay-line"/>
<line x1="16.133565520185837" y1="13.040383947228522" x2="16.391084557640863" y2="13.468967597579576" class="delaunay-line"/>
<line x1="16.391084557640863" y1="13.468967597579576" x2="17.874475449332166" y2="9.338191879360743" class="delaunay-line"/>
<line x1="21.19062573955233" y1="11.57496349324373" x2="18.092237055324404" y2="20.584401961295953" class="delaunay-line"/>
<line x1="18.092237055324404" y1="20.584401961295953" x2="25.327883291008938" y2="20.741342763090323" class="delaunay-line"/>
<line x1="25.327883291008938" y1="20.741342763090323" x2="21.19062573955233" y2="11.57496349324373" class="delaunay-line"/>
<line x1="16.391084557640863" y1="13.468967597579576" x2="16.133565520185837" y2="13.040383947228522" class="delaunay-line"/>
<line x1="16.133565520185837" y1="13.040383947228522" x2="10.990561715973161" y2="16.130612396688846" class="delaunay-line"/>
<line x1="10.990561715973161" y1="16.130612396688846" x2="16.391084557640863" y2="13.468967597579576" class="delaunay-line"/>
<line x1="15.182123331042815" y1="32.34995630159218" x2="19.47048267841745" y2="34.28006485580495" class="delaunay-line"/>
<line x1="19.47048267841745" y1="34.28006485580495" x2="15.286079176451695" y2="31.86088250122528" class="delaunay-line"/>
<line x1="15.286079176451695" y1="31.86088250122528" x2="15.182123331042815" y2="32.34995630159218" class="delaunay-line"/>
<line x1="4.0759201840271455" y1="26.958397660346122" x2="9.41719357204886" y2="30.613412356318722" class="delaunay-line"/>
<line x1="9.41719357204886" y1="30.613412356318722" x2="9.782259281798067" y2="28.81249962659581" class="delaunay-line"/>
<line x1="9.782259281798067" y1="28.81249962659581" x2="4.0759201840271455" y2="26.958397660346122" class="delaunay-line"/>
<line x1="9.782259281798067" y1="28.81249962659581" x2="9.41719357204886" y2="30.613412356318722" class="delaunay-line"/>
<line x1="9.41719357204886" y1="30.613412356318722" x2="12.44179822013757" y2="28.026302944104827" class="delaunay-line"/>
<line x1="12.44179822013757" y1="28.026302944104827" x2="9.782259281798067" y2="28.81249962659581" class="delaunay-line"/>
<line x1="15.182123331042815" y1="32.34995630159218" x2="0" y2="36" class="delaunay-line"/>
<line x1="0" y1="36" x2="19.47048267841745" y2="34.28006485580495" class="delaunay-line"/>
<line x1="19.47048267841745" y1="34.28006485580495" x2="15.182123331042815" y2="32.34995630159218" class="delaunay-line"/>
<line x1="25.14359413201335" y1="36.23347378254789" x2="27.748139367670607" y2="28.669325177753354" class="delaunay-line"/>
<line x1="27.748139367670607" y1="28.669325177753354" x2="22.075027914074706" y2="26.715916251010416" class="delaunay-line"/>
<line x1="22.075027914074706" y1="26.715916251010416" x2="25.14359413201335" y2="36.23347378254789" class="delaunay-line"/>
<line x1="4.0759201840271455" y1="26.958397660346122" x2="9.313237726639981" y2="31.102486156685625" class="delaunay-line"/>
<line x1="9.313237726639981" y1="31.102486156685625" x2="9.41719357204886" y2="30.613412356318722" class="delaunay-line"/>
<line x1="9.41719357204886" y1="30.613412356318722" x2="4.0759201840271455" y2="26.958397660346122" class="delaunay-line"/>
<line x1="9.41719357204886" y1="30.613412356318722" x2="9.313237726639981" y2="31.102486156685625" class="delaunay-line"/>
<line x1="9.313237726639981" y1="31.102486156685625" x2="15.182123331042815" y2="32.34995630159218" class="delaunay-line"/>
<line x1="15.182123331042815" y1="32.34995630159218" x2="9.41719357204886" y2="30.613412356318722" class="delaunay-line"/>
<line x1="30.458447027192204" y1="17.925054935734764" x2="21.19062573955233" y2="11.57496349324373" class="delaunay-line"/>
<line x1="21.19062573955233" y1="11.57496349324373" x2="25.327883291008938" y2="20.741342763090323" class="delaunay-line"/>
<line x1="25.327883291008938" y1="20.741342763090323" x2="30.458447027192204" y2="17.925054935734764" class="delaunay-line"/>
<line x1="10.990561715973161" y1="16.130612396688846" x2="5.311988161526935" y2="23.154171595165508" class="delaunay-line"/>
<line x1="5.311988161526935" y1="23.154171595165508" x2="11.248080753428187" y2="16.559196047039904" class="delaunay-line"/>
<line x1="11.248080753428187" y1="16.559196047039904" x2="10.990561715973161" y2="16.130612396688846" class="delaunay-line"/>
<line x1="30.85776478221585" y1="18.22596244731079" x2="30.458447027192204" y2="17.925054935734764" class="delaunay-line"/>
<line x1="30.458447027192204" y1="17.925054935734764" x2="28.225382838190853" y2="22.90342147391766" class="delaunay-line"/>
<line x1="28.225382838190853" y1="22.90342147391766" x2="30.85776478221585" y2="18.22596244731079" class="delaunay-line"/>
<line x1="28.225382838190853" y1="22.90342147391766" x2="30.458447027192204" y2="17.925054935734764" class="delaunay-line"/>
<line x1="30.458447027192204" y1="17.925054935734764" x2="25.66244859418837" y2="21.112915175829023" class="delaunay-line"/>
<line x1="25.66244859418837" y1="21.112915175829023" x2="28.225382838190853" y2="22.90342147391766" class="delaunay-line"/>
<line x1="30.85776478221585" y1="18.22596244731079" x2="28.225382838190853" y2="22.90342147391766" class="delaunay-line"/>
<line x1="28.225382838190853" y1="22.90342147391766" x2="34.22538283819085" y2="22.90342147391766" class="delaunay-line"/>
<line x1="34.22538283819085" y1="22.90342147391766" x2="30.85776478221585" y2="18.22596244731079" class="delaunay-line"/>
<line x1="34.22538283819085" y1="23.40342147391766" x2="28.225382838190853" y2="22.90342147391766" class="delaunay-line"/>
<line x1="28.225382838190853" y1="22.90342147391766" x2="28.225382838190853" y2="23.40342147391766" class="delaunay-line"/>
<line x1="28.225382838190853" y1="23.40342147391766" x2="34.22538283819085" y2="23.40342147391766" class="delaunay-line"/>
<line x1="5.311988161526935" y1="23.154171595165508" x2="4.0759201840271455" y2="26.958397660346122" class="delaunay-line"/>
<line x1="4.0759201840271455" y1="26.958397660346122" x2="11.018327259297857" y2="25.008273561415194" class="delaunay-line"/>
<line x1="11.018327259297857" y1="25.008273561415194" x2="5.311988161526935" y2="23.154171595165508" class="delaunay-line"/>
<line x1="21.19062573955233" y1="11.57496349324373" x2="17.874475449332166" y2="9.338191879360743" class="delaunay-line"/>
<line x1="17.874475449332166" y1="9.338191879360743" x2="16.391084557640863" y2="13.468967597579576" class="delaunay-line"/>
<line x1="16.391084557640863" y1="13.468967597579576" x2="21.19062573955233" y2="11.57496349324373" class="delaunay-line"/>
<line x1="16.133565520185837" y1="13.040383947228522" x2="10.263665073571474" y2="7.128177936778807" class="delaunay-line"/>
<line x1="10.263665073571474" y1="7.128177936778807" x2="10.990561715973161" y2="16.130612396688846" class="delaunay-line"/>
<line x1="10.990561715973161" y1="16.130612396688846" x2="16.133565520185837" y2="13.040383947228522" class="delaunay-line"/>
<line x1="0" y1="36" x2="25.14359413201335" y2="36.23347378254789" class="delaunay-line"/>
<line x1="25.14359413201335" y1="36.23347378254789" x2="19.47048267841745" y2="34.28006485580495" class="delaunay-line"/>
<line x1="19.47048267841745" y1="34.28006485580495" x2="0" y2="36" class="delaunay-line"/>
<line x1="19.47048267841745" y1="34.28006485580495" x2="25.14359413201335" y2="36.23347378254789" class="delaunay-line"/>
<line x1="25.14359413201335" y1="36.23347378254789" x2="22.075027914074706" y2="26.715916251010416" class="delaunay-line"/>
<line x1="22.075027914074706" y1="26.715916251010416" x2="19.47048267841745" y2="34.28006485580495" class="delaunay-line"/>
<line x1="27.748139367670607" y1="28.669325177753354" x2="34.22538283819085" y2="23.40342147391766" class="delaunay-line"/>
<line x1="34.22538283819085" y1="23.40342147391766" x2="28.225382838190853" y2="23.40342147391766" class="delaunay-line"/>
<line x1="28.225382838190853" y1="23.40342147391766" x2="27.748139367670607" y2="28.669325177753354" class="delaunay-line"/>
<line x1="36" y1="36" x2="34.22538283819085" y2="23.40342147391766" class="delaunay-line"/>
<line x1="34.22538283819085" y1="23.40342147391766" x2="27.748139367670607" y2="28.669325177753354" class="delaunay-line"/>
<line x1="27.748139367670607" y1="28.669325177753354" x2="36" y2="36" class="delaunay-line"/>
<line x1="34.22538283819085" y1="23.40342147391766" x2="34.22538283819085" y2="22.90342147391766" class="delaunay-line"/>
<line x1="34.22538283819085" y1="22.90342147391766" x2="28.225382838190853" y2="22.90342147391766" class="delaunay-line"/>
<line x1="28.225382838190853" y1="22.90342147391766" x2="34.22538283819085" y2="23.40342147391766" class="delaunay-line"/>
<line x1="17.874475449332166" y1="9.338191879360743" x2="14.23384968013676" y2="6.640700563158217" class="delaunay-line"/>
<line x1="14.23384968013676" y1="6.640700563158217" x2="16.133565520185837" y2="13.040383947228522" class="delaunay-line"/>
<line x1="16.133565520185837" y1="13.040383947228522" x2="17.874475449332166" y2="9.338191879360743" class="delaunay-line"/>
<line x1="10.990561715973161" y1="16.130612396688846" x2="4.773873807817943" y2="7.132861914661971" class="delaunay-line"/>
<line x1="4.773873807817943" y1="7.132861914661971" x2="5.311988161526935" y2="23.154171595165508" class="delaunay-line"/>
<line x1="5.311988161526935" y1="23.154171595165508" x2="10.990561715973161" y2="16.130612396688846" class="delaunay-line"/>
<line x1="21.22963287015665" y1="4.363966444030494" x2="14.23384968013676" y2="6.640700563158217" class="delaunay-line"/>
<line x1="14.23384968013676" y1="6.640700563158217" x2="17.874475449332166" y2="9.338191879360743" class="delaunay-line"/>
<line x1="17.874475449332166" y1="9.338191879360743" x2="21.22963287015665" y2="4.363966444030494" class="delaunay-line"/>
<line x1="24.545783160376814" y1="6.60073805791348" x2="17.874475449332166" y2="9.338191879360743" class="delaunay-line"/>
<line x1="17.874475449332166" y1="9.338191879360743" x2="21.19062573955233" y2="11.57496349324373" class="delaunay-line"/>
<line x1="21.19062573955233" y1="11.57496349324373" x2="24.545783160376814" y2="6.60073805791348" class="delaunay-line"/>
<line x1="14.23384968013676" y1="6.640700563158217" x2="10.263665073571474" y2="7.128177936778807" class="delaunay-line"/>
<line x1="10.263665073571474" y1="7.128177936778807" x2="16.133565520185837" y2="13.040383947228522" class="delaunay-line"/>
<line x1="16.133565520185837" y1="13.040383947228522" x2="14.23384968013676" y2="6.640700563158217" class="delaunay-line"/>
<line x1="5.311988161526935" y1="23.154171595165508" x2="0.8473650740272877" y2="6.369625933155792" class="delaunay-line"/>
<line x1="0.8473650740272877" y1="6.369625933155792" x2="4.0759201840271455" y2="26.958397660346122" class="delaunay-line"/>
<line x1="4.0759201840271455" y1="26.958397660346122" x2="5.311988161526935" y2="23.154171595165508" class="delaunay-line"/>
<line x1="34.069337166104496" y1="13.133241875451008" x2="24.545783160376814" y2="6.60073805791348" class="delaunay-line"/>
<line x1="24.545783160376814" y1="6.60073805791348" x2="30.458447027192204" y2="17.925054935734764" class="delaunay-line"/>
<line x1="30.458447027192204" y1="17.925054935734764" x2="34.069337166104496" y2="13.133241875451008" class="delaunay-line"/>
<line x1="30.458447027192204" y1="17.925054935734764" x2="24.545783160376814" y2="6.60073805791348" class="delaunay-line"/>
<line x1="24.545783160376814" y1="6.60073805791348" x2="21.19062573955233" y2="11.57496349324373" class="delaunay-line"/>
<line x1="21.19062573955233" y1="11.57496349324373" x2="30.458447027192204" y2="17.925054935734764" class="delaunay-line"/>
<line x1="34.069337166104496" y1="13.133241875451008" x2="30.458447027192204" y2="17.925054935734764" class="delaunay-line"/>
<line x1="30.458447027192204" y1="17.925054935734764" x2="34.46865492112814" y2="13.434149387027032" class="delaunay-line"/>
<line x1="34.46865492112814" y1="13.434149387027032" x2="34.069337166104496" y2="13.133241875451008" class="delaunay-line"/>
<line x1="34.46865492112814" y1="13.434149387027032" x2="30.458447027192204" y2="17.925054935734764" class="delaunay-line"/>
<line x1="30.458447027192204" y1="17.925054935734764" x2="30.85776478221585" y2="18.22596244731079" class="delaunay-line"/>
<line x1="30.85776478221585" y1="18.22596244731079" x2="34.46865492112814" y2="13.434149387027032" class="delaunay-line"/>
<line x1="36" y1="36" x2="34.46865492112814" y2="13.434149387027032" class="delaunay-line"/>
<line x1="34.46865492112814" y1="13.434149387027032" x2="34.22538283819085" y2="22.90342147391766" class="delaunay-line"/>
<line x1="34.22538283819085" y1="22.90342147391766" x2="36" y2="36" class="delaunay-line"/>
<line x1="34.22538283819085" y1="22.90342147391766" x2="34.46865492112814" y2="13.434149387027032" class="delaunay-line"/>
<line x1="34.46865492112814" y1="13.434149387027032" x2="30.85776478221585" y2="18.22596244731079" class="delaunay-line"/>
<line x1="30.85776478221585" y1="18.22596244731079" x2="34.22538283819085" y2="22.90342147391766" class="delaunay-line"/>
<line x1="24.545783160376814" y1="6.60073805791348" x2="21.22963287015665" y2="4.363966444030494" class="delaunay-line"/>
<line x1="21.22963287015665" y1="4.363966444030494" x2="17.874475449332166" y2="9.338191879360743" class="delaunay-line"/>
<line x1="17.874475449332166" y1="9.338191879360743" x2="24.545783160376814" y2="6.60073805791348" class="delaunay-line"/>
<line x1="14.23384968013676" y1="6.640700563158217" x2="9.532449013140589" y2="1.1729010269308757" class="delaunay-line"/>
<line x1="9.532449013140589" y1="1.1729010269308757" x2="10.263665073571474" y2="7.128177936778807" class="delaunay-line"/>
<line x1="10.263665073571474" y1="7.128177936778807" x2="14.23384968013676" y2="6.640700563158217" class="delaunay-line"/>
<line x1="5.918727780077211" y1="1.2430988139759869" x2="4.773873807817943" y2="7.132861914661971" class="delaunay-line"/>
<line x1="4.773873807817943" y1="7.132861914661971" x2="10.263665073571474" y2="7.128177936778807" class="delaunay-line"/>
<line x1="10.263665073571474" y1="7.128177936778807" x2="5.918727780077211" y2="1.2430988139759869" class="delaunay-line"/>
<line x1="10.263665073571474" y1="7.128177936778807" x2="4.773873807817943" y2="7.132861914661971" class="delaunay-line"/>
<line x1="4.773873807817943" y1="7.132861914661971" x2="10.990561715973161" y2="16.130612396688846" class="delaunay-line"/>
<line x1="10.990561715973161" y1="16.130612396688846" x2="10.263665073571474" y2="7.128177936778807" class="delaunay-line"/>
<line x1="4.0759201840271455" y1="26.958397660346122" x2="0" y2="36" class="delaunay-line"/>
<line x1="0" y1="36" x2="9.313237726639981" y2="31.102486156685625" class="delaunay-line"/>
<line x1="9.313237726639981" y1="31.102486156685625" x2="4.0759201840271455" y2="26.958397660346122" class="delaunay-line"/>
<line x1="9.313237726639981" y1="31.102486156685625" x2="0" y2="36" class="delaunay-line"/>
<line x1="0" y1="36" x2="15.182123331042815" y2="32.34995630159218" class="delaunay-line"/>
<line x1="15.182123331042815" y1="32.34995630159218" x2="9.313237726639981" y2="31.102486156685625" class="delaunay-line"/>
<line x1="0.8473650740272877" y1="6.369625933155792" x2="0" y2="36" class="delaunay-line"/>
<line x1="0" y1="36" x2="4.0759201840271455" y2="26.958397660346122" class="delaunay-line"/>
<line x1="4.0759201840271455" y1="26.958397660346122" x2="0.8473650740272877" y2="6.369625933155792" class="delaunay-line"/>
<line x1="25.14359413201335" y1="36.23347378254789" x2="36" y2="36" class="delaunay-line"/>
<line x1="36" y1="36" x2="27.748139367670607" y2="28.669325177753354" class="delaunay-line"/>
<line x1="27.748139367670607" y1="28.669325177753354" x2="25.14359413201335" y2="36.23347378254789" class="delaunay-line"/>
<line x1="34.22538283819085" y1="23.40342147391766" x2="36" y2="36" class="delaunay-line"/>
<line x1="36" y1="36" x2="34.22538283819085" y2="22.90342147391766" class="delaunay-line"/>
<line x1="34.22538283819085" y1="22.90342147391766" x2="34.22538283819085" y2="23.40342147391766" class="delaunay-line"/>
<line x1="21.22963287015665" y1="4.363966444030494" x2="13.502633619705875" y2="0.6854236533102851" class="delaunay-line"/>
<line x1="13.502633619705875" y1="0.6854236533102851" x2="14.23384968013676" y2="6.640700563158217" class="delaunay-line"/>
<line x1="14.23384968013676" y1="6.640700563158217" x2="21.22963287015665" y2="4.363966444030494" class="delaunay-line"/>
<line x1="13.502633619705875" y1="0.6854236533102851" x2="9.532449013140589" y2="1.1729010269308757" class="delaunay-line"/>
<line x1="9.532449013140589" y1="1.1729010269308757" x2="14.23384968013676" y2="6.640700563158217" class="delaunay-line"/>
<line x1="14.23384968013676" y1="6.640700563158217" x2="13.502633619705875" y2="0.6854236533102851" class="delaunay-line"/>
<line x1="5.918727780077211" y1="1.2430988139759869" x2="0.8473650740272877" y2="6.369625933155792" class="delaunay-line"/>
<line x1="0.8473650740272877" y1="6.369625933155792" x2="4.773873807817943" y2="7.132861914661971" class="delaunay-line"/>
<line x1="4.773873807817943" y1="7.132861914661971" x2="5.918727780077211" y2="1.2430988139759869" class="delaunay-line"/>
<line x1="4.773873807817943" y1="7.132861914661971" x2="0.8473650740272877" y2="6.369625933155792" class="delaunay-line"/>
<line x1="0.8473650740272877" y1="6.369625933155792" x2="5.311988161526935" y2="23.154171595165508" class="delaunay-line"/>
<line x1="5.311988161526935" y1="23.154171595165508" x2="4.773873807817943" y2="7.132861914661971" class="delaunay-line"/>
<line x1="1.9922190462865559" y1="0.47986283246980754" x2="5.918727780077211" y2="1.2430988139759869" class="delaunay-line"/>
<line x1="5.918727780077211" y1="1.2430988139759869" x2="9.532449013140589" y2="1.1729010269308757" class="delaunay-line"/>
<line x1="9.532449013140589" y1="1.1729010269308757" x2="1.9922190462865559" y2="0.47986283246980754" class="delaunay-line"/>
<line x1="9.532449013140589" y1="1.1729010269308757" x2="5.918727780077211" y2="1.2430988139759869" class="delaunay-line"/>
<line x1="5.918727780077211" y1="1.2430988139759869" x2="10.263665073571474" y2="7.128177936778807" class="delaunay-line"/>
<line x1="10.263665073571474" y1="7.128177936778807" x2="9.532449013140589" y2="1.1729010269308757" class="delaunay-line"/>
<line x1="13.502633619705875" y1="0.6854236533102851" x2="1.9922190462865559" y2="0.47986283246980754" class="delaunay-line"/>
<line x1="1.9922190462865559" y1="0.47986283246980754" x2="9.532449013140589" y2="1.1729010269308757" class="delaunay-line"/>
<line x1="9.532449013140589" y1="1.1729010269308757" x2="13.502633619705875" y2="0.6854236533102851" class="delaunay-line"/>
<line x1="5.918727780077211" y1="1.2430988139759869" x2="1.9922190462865559" y2="0.47986283246980754" class="delaunay-line"/>
<line x1="1.9922190462865559" y1="0.47986283246980754" x2="0.8473650740272877" y2="6.369625933155792" class="delaunay-line"/>
<line x1="0.8473650740272877" y1="6.369625933155792" x2="5.918727780077211" y2="1.2430988139759869" class="delaunay-line"/>
<line x1="13.502633619705875" y1="0.6854236533102851" x2="0" y2="0" class="delaunay-line"/>
<line x1="0" y1="0" x2="1.9922190462865559" y2="0.47986283246980754" class="delaunay-line"/>
<line x1="1.9922190462865559" y1="0.47986283246980754" x2="13.502633619705875" y2="0.6854236533102851" class="delaunay-line"/>
<line x1="1.9922190462865559" y1="0.47986283246980754" x2="0" y2="0" class="delaunay-line"/>
<line x1="0" y1="0" x2="0.8473650740272877" y2="6.369625933155792" class="delaunay-line"/>
<line x1="0.8473650740272877" y1="6.369625933155792" x2="1.9922190462865559" y2="0.47986283246980754" class="delaunay-line"/>
<line x1="0.8473650740272877" y1="6.369625933155792" x2="0" y2="0" class="delaunay-line"/>
<line x1="0" y1="0" x2="0" y2="36" class="delaunay-line"/>
<line x1="0" y1="36" x2="0.8473650740272877" y2="6.369625933155792" class="delaunay-line"/>
<line x1="24.545783160376814" y1="6.60073805791348" x2="36" y2="0" class="delaunay-line"/>
<line x1="36" y1="0" x2="21.22963287015665" y2="4.363966444030494" class="delaunay-line"/>
<line x1="21.22963287015665" y1="4.363966444030494" x2="24.545783160376814" y2="6.60073805791348" class="delaunay-line"/>
<line x1="21.22963287015665" y1="4.363966444030494" x2="36" y2="0" class="delaunay-line"/>
<line x1="36" y1="0" x2="13.502633619705875" y2="0.6854236533102851" class="delaunay-line"/>
<line x1="13.502633619705875" y1="0.6854236533102851" x2="21.22963287015665" y2="4.363966444030494" class="delaunay-line"/>
<line x1="13.502633619705875" y1="0.6854236533102851" x2="36" y2="0" class="delaunay-line"/>
<line x1="36" y1="0" x2="0" y2="0" class="delaunay-line"/>
<line x1="0" y1="0" x2="13.502633619705875" y2="0.6854236533102851" class="delaunay-line"/>
<line x1="34.069337166104496" y1="13.133241875451008" x2="36" y2="0" class="delaunay-line"/>
<line x1="36" y1="0" x2="24.545783160376814" y2="6.60073805791348" class="delaunay-line"/>
<line x1="24.545783160376814" y1="6.60073805791348" x2="34.069337166104496" y2="13.133241875451008" class="delaunay-line"/>
<line x1="34.46865492112814" y1="13.434149387027032" x2="36" y2="0" class="delaunay-line"/>
<line x1="36" y1="0" x2="34.069337166104496" y2="13.133241875451008" class="delaunay-line"/>
<line x1="34.069337166104496" y1="13.133241875451008" x2="34.46865492112814" y2="13.434149387027032" class="delaunay-line"/>
<line x1="36" y1="36" x2="36" y2="0" class="delaunay-line"/>
<line x1="36" y1="0" x2="34.46865492112814" y2="13.434149387027032" class="delaunay-line"/>
<line x1="34.46865492112814" y1="13.434149387027032" x2="36" y2="36" class="delaunay-line"/>
</g>
<g id="layer-area" class="layer hidden">
</g>
<g id="layer-building" class="layer ">
<polygon points="11.018327259297857,25.008273561415194 9.782259281798067,28.81249962659581 4.0759201840271455,26.958397660346122 5.311988161526935,23.154171595165508" class="terrain-solid"/>
<text x="7.547123721662501" y="25.98333561088066" class="label">#000000</text>
<polygon points="22.075027914074706,26.715916251010416 27.748139367670607,28.669325177753354 25.14359413201335,36.23347378254789 19.47048267841745,34.28006485580495" class="terrain-solid"/>
<text x="23.60931102304403" y="31.474695016779155" class="label">#000000</text>
<polygon points="21.22963287015665,4.363966444030494 24.545783160376814,6.60073805791348 21.19062573955233,11.57496349324373 17.874475449332166,9.338191879360743" class="terrain-solid"/>
<text x="21.21012930485449" y="7.969464968637112" class="label">#000000</text>
<polygon points="4.773873807817943,7.132861914661971 0.8473650740272877,6.369625933155792 1.9922190462865559,0.47986283246980754 5.918727780077211,1.2430988139759869" class="terrain-solid"/>
<text x="3.38304642705225" y="3.8063623735658894" class="label">#000000</text>
<polygon points="14.23384968013676,6.640700563158217 10.263665073571474,7.128177936778807 9.532449013140589,1.1729010269308757 13.502633619705875,0.6854236533102851" class="terrain-solid"/>
<text x="11.883149346638675" y="3.9068007950445462" class="label">#000000</text>
</g>
<g id="layer-wall" class="layer ">
<polygon points="12.44179822013757,20.026302944104827 13.44179822013757,20.026302944104827 13.44179822013757,28.026302944104827 12.44179822013757,28.026302944104827" class="terrain-solid"/>
<text x="12.94179822013757" y="24.026302944104827" class="label">#555555</text>
<polygon points="21.203579641324005,25.12769881398217 20.869014338144574,24.75612640124347 25.327883291008938,20.741342763090323 25.66244859418837,21.112915175829023" class="terrain-solid"/>
<text x="23.26573146616647" y="22.934520788536247" class="label">#555555</text>
<polygon points="34.069337166104496,13.133241875451008 34.46865492112814,13.434149387027032 30.85776478221585,18.22596244731079 30.458447027192204,17.925054935734764" class="terrain-solid"/>
<text x="32.46355097416017" y="15.679602161380899" class="label">#555555</text>
<polygon points="16.133565520185837,13.040383947228522 16.391084557640863,13.468967597579576 11.248080753428187,16.559196047039904 10.990561715973161,16.130612396688846" class="terrain-solid"/>
<text x="13.690823136807012" y="14.799789997134212" class="label">#555555</text>
<polygon points="34.22538283819085,22.90342147391766 34.22538283819085,23.40342147391766 28.225382838190853,23.40342147391766 28.225382838190853,22.90342147391766" class="terrain-solid"/>
<text x="31.225382838190853" y="23.15342147391766" class="label">#555555</text>
<polygon points="15.286079176451695,31.86088250122528 15.182123331042815,32.34995630159218 9.313237726639981,31.102486156685625 9.41719357204886,30.613412356318722" class="terrain-solid"/>
<text x="12.299658451545838" y="31.481684328955453" class="label">#555555</text>
<polygon points="17.592237055324404,20.584401961295953 18.092237055324404,20.584401961295953 18.092237055324404,26.584401961295953 17.592237055324404,26.584401961295953" class="terrain-solid"/>
<text x="17.842237055324404" y="23.584401961295953" class="label">#555555</text>
</g>
<g id="layer-tree" class="layer hidden">
</g>
<g id="layer-rocks" class="layer hidden">
</g>
<g id="layer-shrub" class="layer hidden">
</g>
<g id="layer-terrain" class="layer hidden">
</g>
<g id="layer-models" class="layer ">
</g>
<g id="layer-paths" class="layer ">
</g>
<g id="layer-vectors" class="layer ">
</g>
<g id="layer-los" class="layer ">
</g>
<g id="layer-lof" class="layer ">
</g>

<g id="legend">
<g class="toggle" onclick="toggleLayer('building')"><rect x="0.4" y="0.14999999999999997" width="0.4" height="0.4" fill="#222" stroke="#222" stroke-width="0.05"/><text x="1.0" y="0.5499999999999999" class="label">Buildings</text></g>
<g class="toggle" onclick="toggleLayer('wall')"><rect x="0.4" y="0.95" width="0.4" height="0.4" fill="#222" stroke="#222" stroke-width="0.05"/><text x="1.0" y="1.3499999999999999" class="label">Walls</text></g>
<g class="toggle" onclick="toggleLayer('grid')"><rect x="0.4" y="1.7500000000000002" width="0.4" height="0.4" fill="#fff" stroke="#222" stroke-width="0.05"/><text x="1.0" y="2.1500000000000004" class="label">0.5 MU Grid</text></g>
<g class="toggle disabled"><rect x="0.4" y="2.55" width="0.4" height="0.4" fill="#fff" stroke="#222" stroke-width="0.05"/><text x="1.0" y="2.95" class="label">Area Terrain</text></g>
<g class="toggle disabled"><rect x="0.4" y="3.3499999999999996" width="0.4" height="0.4" fill="#fff" stroke="#222" stroke-width="0.05"/><text x="1.0" y="3.75" class="label">Trees</text></g>
<g class="toggle disabled"><rect x="0.4" y="4.1499999999999995" width="0.4" height="0.4" fill="#fff" stroke="#222" stroke-width="0.05"/><text x="1.0" y="4.55" class="label">Rocks</text></g>
<g class="toggle disabled"><rect x="0.4" y="4.949999999999999" width="0.4" height="0.4" fill="#fff" stroke="#222" stroke-width="0.05"/><text x="1.0" y="5.35" class="label">Shrubs</text></g>
<g class="toggle" onclick="toggleLayer('delaunay')"><rect x="0.4" y="5.749999999999999" width="0.4" height="0.4" fill="#fff" stroke="#222" stroke-width="0.05"/><text x="1.0" y="6.1499999999999995" class="label">Delaunay Mesh</text></g>
<g class="toggle" onclick="toggleLayer('terrain')"><rect x="0.4" y="6.549999999999999" width="0.4" height="0.4" fill="#fff" stroke="#222" stroke-width="0.05"/><text x="1.0" y="6.949999999999999" class="label">Other Terrain</text></g>
</g>
</svg>