<svg xmlns="http://www.w3.org/2000/svg" viewBox="0 0 24 24" width="960" height="960" font-family="Arial" font-size="0.6">
<defs>
  <style><![CDATA[
    .layer { display: inline; }
    .layer.hidden { display: none; }
    .grid-line { stroke: #999; stroke-width: 0.02; opacity: 0.2; }
    .grid-line-2mu { stroke: #666; stroke-width: 0.04; opacity: 0.4; }
    .grid-line-6mu { stroke: #333; stroke-width: 0.08; opacity: 0.6; }
    .delaunay-line { stroke: #4a6fa5; stroke-width: 0.03; opacity: 0.3; }
    #layer-area { opacity: 0.8; }
    #layer-building, #layer-wall, #layer-tree, #layer-rocks, #layer-shrub, #layer-terrain { opacity: 0.8; }
    .terrain-area { stroke: none; }
    .terrain-solid { stroke: #000; stroke-width: 0.05; }
    .model { stroke: #ff0000; stroke-width: 2; vector-effect: non-scaling-stroke; }
    .path { fill: none; stroke-width: 0.12; }
    .vector { stroke-width: 0.1; }
    .los-ray { stroke-width: 0.08; stroke-dasharray: 0.2 0.2; }
    .lof-ray { stroke-width: 0.08; stroke-dasharray: 0.3 0.15; }
    .label { fill: #111 !important; font-size: 0.6px; }
    .toggle { cursor: pointer; }
    .toggle.disabled { cursor: default; }
    .toggle.disabled rect { stroke: #ccc; fill: #fff; }
    .toggle.disabled text { fill: #ccc; }
#layer-wall { fill: #555555; }
#layer-building { fill: #000000; }
  ]]></style>
</defs>
<rect x="0" y="0" width="24" height="24" fill="#ffffff" stroke="#111" stroke-width="0.05"/>
<script><![CDATA[
      function toggleLayer(id) {
        var layer = document.getElementById('layer-' + id);
        if (!layer) return;
        if (layer.classList.contains('hidden')) {
          layer.classList.remove('hidden');
        } else {
          layer.classList.add('hidden');
        }
      }
    ]]></script>
<text x="0.4" y="23.6" class="label">HIGH-DENSITY: 80% density - heavy structures</text>
<g id="layer-deployment" class="layer ">
</g>
<g id="layer-grid" class="layer hidden">
<line x1="0" y1="0" x2="0" y2="24" class="grid-line-6mu"/>
<line x1="0.5" y1="0" x2="0.5" y2="24" class="grid-line"/>
<line x1="1" y1="0" x2="1" y2="24" class="grid-line"/>
<line x1="1.5" y1="0" x2="1.5" y2="24" class="grid-line"/>
<line x1="2" y1="0" x2="2" y2="24" class="grid-line-2mu"/>
<line x1="2.5" y1="0" x2="2.5" y2="24" class="grid-line"/>
<line x1="3" y1="0" x2="3" y2="24" class="grid-line"/>
<line x1="3.5" y1="0" x2="3.5" y2="24" class="grid-line"/>
<line x1="4" y1="0" x2="4" y2="24" class="grid-line-2mu"/>
<line x1="4.5" y1="0" x2="4.5" y2="24" class="grid-line"/>
<line x1="5" y1="0" x2="5" y2="24" class="grid-line"/>
<line x1="5.5" y1="0" x2="5.5" y2="24" class="grid-line"/>
<line x1="6" y1="0" x2="6" y2="24" class="grid-line-6mu"/>
<line x1="6.5" y1="0" x2="6.5" y2="24" class="grid-line"/>
<line x1="7" y1="0" x2="7" y2="24" class="grid-line"/>
<line x1="7.5" y1="0" x2="7.5" y2="24" class="grid-line"/>
<line x1="8" y1="0" x2="8" y2="24" class="grid-line-2mu"/>
<line x1="8.5" y1="0" x2="8.5" y2="24" class="grid-line"/>
<line x1="9" y1="0" x2="9" y2="24" class="grid-line"/>
<line x1="9.5" y1="0" x2="9.5" y2="24" class="grid-line"/>
<line x1="10" y1="0" x2="10" y2="24" class="grid-line-2mu"/>
<line x1="10.5" y1="0" x2="10.5" y2="24" class="grid-line"/>
<line x1="11" y1="0" x2="11" y2="24" class="grid-line"/>
<line x1="11.5" y1="0" x2="11.5" y2="24" class="grid-line"/>
<line x1="12" y1="0" x2="12" y2="24" class="grid-line-6mu"/>
<line x1="12.5" y1="0" x2="12.5" y2="24" class="grid-line"/>
<line x1="13" y1="0" x2="13" y2="24" class="grid-line"/>
<line x1="13.5" y1="0" x2="13.5" y2="24" class="grid-line"/>
<line x1="14" y1="0" x2="14" y2="24" class="grid-line-2mu"/>
<line x1="14.5" y1="0" x2="14.5" y2="24" class="grid-line"/>
<line x1="15" y1="0" x2="15" y2="24" class="grid-line"/>
<line x1="15.5" y1="0" x2="15.5" y2="24" class="grid-line"/>
<line x1="16" y1="0" x2="16" y2="24" class="grid-line-2mu"/>
<line x1="16.5" y1="0" x2="16.5" y2="24" class="grid-line"/>
<line x1="17" y1="0" x2="17" y2="24" class="grid-line"/>
<line x1="17.5" y1="0" x2="17.5" y2="24" class="grid-line"/>
<line x1="18" y1="0" x2="18" y2="24" class="grid-line-6mu"/>
<line x1="18.5" y1="0" x2="18.5" y2="24" class="grid-line"/>
<line x1="19" y1="0" x2="19" y2="24" class="grid-line"/>
<line x1="19.5" y1="0" x2="19.5" y2="24" class="grid-line"/>
<line x1="20" y1="0" x2="20" y2="24" class="grid-line-2mu"/>
<line x1="20.5" y1="0" x2="20.5" y2="24" class="grid-line"/>
<line x1="21" y1="0" x2="21" y2="24" class="grid-line"/>
<line x1="21.5" y1="0" x2="21.5" y2="24" class="grid-line"/>
<line x1="22" y1="0" x2="22" y2="24" class="grid-line-2mu"/>
<line x1="22.5" y1="0" x2="22.5" y2="24" class="grid-line"/>
<line x1="23" y1="0" x2="23" y2="24" class="grid-line"/>
<line x1="23.5" y1="0" x2="23.5" y2="24" class="grid-line"/>
<line x1="24" y1="0" x2="24" y2="24" class="grid-line-6mu"/>
<line x1="0" y1="0" x2="24" y2="0" class="grid-line-6mu"/>
<line x1="0" y1="0.5" x2="24" y2="0.5" class="grid-line"/>
<line x1="0" y1="1" x2="24" y2="1" class="grid-line"/>
<line x1="0" y1="1.5" x2="24" y2="1.5" class="grid-line"/>
<line x1="0" y1="2" x2="24" y2="2" class="grid-line-2mu"/>
<line x1="0" y1="2.5" x2="24" y2="2.5" class="grid-line"/>
<line x1="0" y1="3" x2="24" y2="3" class="grid-line"/>
<line x1="0" y1="3.5" x2="24" y2="3.5" class="grid-line"/>
<line x1="0" y1="4" x2="24" y2="4" class="grid-line-2mu"/>
<line x1="0" y1="4.5" x2="24" y2="4.5" class="grid-line"/>
<line x1="0" y1="5" x2="24" y2="5" class="grid-line"/>
<line x1="0" y1="5.5" x2="24" y2="5.5" class="grid-line"/>
<line x1="0" y1="6" x2="24" y2="6" class="grid-line-6mu"/>
<line x1="0" y1="6.5" x2="24" y2="6.5" class="grid-line"/>
<line x1="0" y1="7" x2="24" y2="7" class="grid-line"/>
<line x1="0" y1="7.5" x2="24" y2="7.5" class="grid-line"/>
<line x1="0" y1="8" x2="24" y2="8" class="grid-line-2mu"/>
<line x1="0" y1="8.5" x2="24" y2="8.5" class="grid-line"/>
<line x1="0" y1="9" x2="24" y2="9" class="grid-line"/>
<line x1="0" y1="9.5" x2="24" y2="9.5" class="grid-line"/>
<line x1="0" y1="10" x2="24" y2="10" class="grid-line-2mu"/>
<line x1="0" y1="10.5" x2="24" y2="10.5" class="grid-line"/>
<line x1="0" y1="11" x2="24" y2="11" class="grid-line"/>
<line x1="0" y1="11.5" x2="24" y2="11.5" class="grid-line"/>
<line x1="0" y1="12" x2="24" y2="12" class="grid-line-6mu"/>
<line x1="0" y1="12.5" x2="24" y2="12.5" class="grid-line"/>
<line x1="0" y1="13" x2="24" y2="13" class="grid-line"/>
<line x1="0" y1="13.5" x2="24" y2="13.5" class="grid-line"/>
<line x1="0" y1="14" x2="24" y2="14" class="grid-line-2mu"/>
<line x1="0" y1="14.5" x2="24" y2="14.5" class="grid-line"/>
<line x1="0" y1="15" x2="24" y2="15" class="grid-line"/>
<line x1="0" y1="15.5" x2="24" y2="15.5" class="grid-line"/>
<line x1="0" y1="16" x2="24" y2="16" class="grid-line-2mu"/>
<line x1="0" y1="16.5" x2="24" y2="16.5" class="grid-line"/>
<line x1="0" y1="17" x2="24" y2="17" class="grid-line"/>
<line x1="0" y1="17.5" x2="24" y2="17.5" class="grid-line"/>
<line x1="0" y1="18" x2="24" y2="18" class="grid-line-6mu"/>
<line x1="0" y1="18.5" x2="24" y2="18.5" class="grid-line"/>
<line x1="0" y1="19" x2="24" y2="19" class="grid-line"/>
<line x1="0" y1="19.5" x2="24" y2="19.5" class="grid-line"/>
<line x1="0" y1="20" x2="24" y2="20" class="grid-line-2mu"/>
<line x1="0" y1="20.5" x2="24" y2="20.5" class="grid-line"/>
<line x1="0" y1="21" x2="24" y2="21" class="grid-line"/>
<line x1="0" y1="21.5" x2="24" y2="21.5" class="grid-line"/>
<line x1="0" y1="22" x2="24" y2="22" class="grid-line-2mu"/>
<line x1="0" y1="22.5" x2="24" y2="22.5" class="grid-line"/>
<line x1="0" y1="23" x2="24" y2="23" class="grid-line"/>
<line x1="0" y1="23.5" x2="24" y2="23.5" class="grid-line"/>
<line x1="0" y1="24" x2="24" y2="24" class="grid-line-6mu"/>
</g>
<g id="layer-delaunay" class="layer hidden">
<line x1="12.26865846472054" y1="10.85449504759399" x2="14.134847050853583" y2="6.618119980417002" class="delaunay-line"/>
<line x1="14.134847050853583" y1="6.618119980417002" x2="11.770561115674665" y2="10.810917176220158" class="delaunay-line"/>
<line x1="11.770561115674665" y1="10.810917176220158" x2="12.26865846472054" y2="10.85449504759399" class="delaunay-line"/>
<line x1="6.1458107728169935" y1="6.19943233047345" x2="7.538741468535591" y2="11.565198600004805" class="delaunay-line"/>
<line x1="7.538741468535591" y1="11.565198600004805" x2="11.770561115674665" y2="10.810917176220158" class="delaunay-line"/>
<line x1="11.770561115674665" y1="10.810917176220158" x2="6.1458107728169935" y2="6.19943233047345" class="delaunay-line"/>
<line x1="12.26865846472054" y1="10.85449504759399" x2="15.925146344179883" y2="10.443236938718918" class="delaunay-line"/>
<line x1="15.925146344179883" y1="10.443236938718918" x2="14.134847050853583" y2="6.618119980417002" class="delaunay-line"/>
<line x1="14.134847050853583" y1="6.618119980417002" x2="12.26865846472054" y2="10.85449504759399" class="delaunay-line"/>
<line x1="19.451857857934723" y1="5.589134972469233" x2="18.008209250009333" y2="3.3428446661791456" class="delaunay-line"/>
<line x1="18.008209250009333" y1="3.3428446661791456" x2="14.187183007096529" y2="5.619490445662428" class="delaunay-line"/>
<line x1="14.187183007096529" y1="5.619490445662428" x2="19.451857857934723" y2="5.589134972469233" class="delaunay-line"/>
<line x1="11.74572400823459" y1="16.831663236144465" x2="19.16121432167967" y2="12.794377947888812" class="delaunay-line"/>
<line x1="19.16121432167967" y1="12.794377947888812" x2="15.925146344179883" y2="10.443236938718918" class="delaunay-line"/>
<line x1="15.925146344179883" y1="10.443236938718918" x2="11.74572400823459" y2="16.831663236144465" class="delaunay-line"/>
<line x1="11.770561115674665" y1="10.810917176220158" x2="11.247626659188716" y2="16.788085364770634" class="delaunay-line"/>
<line x1="11.247626659188716" y1="16.788085364770634" x2="12.26865846472054" y2="10.85449504759399" class="delaunay-line"/>
<line x1="12.26865846472054" y1="10.85449504759399" x2="11.770561115674665" y2="10.810917176220158" class="delaunay-line"/>
<line x1="6.1458107728169935" y1="6.19943233047345" x2="11.770561115674665" y2="10.810917176220158" class="delaunay-line"/>
<line x1="11.770561115674665" y1="10.810917176220158" x2="14.134847050853583" y2="6.618119980417002" class="delaunay-line"/>
<line x1="14.134847050853583" y1="6.618119980417002" x2="6.1458107728169935" y2="6.19943233047345" class="delaunay-line"/>
<line x1="7.538741468535591" y1="11.565198600004805" x2="7.538741468535591" y2="12.065198600004805" class="delaunay-line"/>
<line x1="7.538741468535591" y1="12.065198600004805" x2="11.770561115674665" y2="10.810917176220158" class="delaunay-line"/>
<line x1="11.770561115674665" y1="10.810917176220158" x2="7.538741468535591" y2="11.565198600004805" class="delaunay-line"/>
<line x1="6.198146729059939" y1="5.200802795718876" x2="6.1458107728169935" y2="6.19943233047345" class="delaunay-line"/>
<line x1="6.1458107728169935" y1="6.19943233047345" x2="14.134847050853583" y2="6.618119980417002" class="delaunay-line"/>
<line x1="14.134847050853583" y1="6.618119980417002" x2="6.198146729059939" y2="5.200802795718876" class="delaunay-line"/>
<line x1="7.538741468535591" y1="11.565198600004805" x2="2.6899470587157945" y2="13.162908545673659" class="delaunay-line"/>
<line x1="2.6899470587157945" y1="13.162908545673659" x2="7.538741468535591" y2="12.065198600004805" class="delaunay-line"/>
<line x1="7.538741468535591" y1="12.065198600004805" x2="7.538741468535591" y2="11.565198600004805" class="delaunay-line"/>
<line x1="14.187183007096529" y1="5.619490445662428" x2="6.198146729059939" y2="5.200802795718876" class="delaunay-line"/>
<line x1="6.198146729059939" y1="5.200802795718876" x2="14.134847050853583" y2="6.618119980417002" class="delaunay-line"/>
<line x1="14.134847050853583" y1="6.618119980417002" x2="14.187183007096529" y2="5.619490445662428" class="delaunay-line"/>
<line x1="19.451857857934723" y1="5.589134972469233" x2="14.187183007096529" y2="5.619490445662428" class="delaunay-line"/>
<line x1="14.187183007096529" y1="5.619490445662428" x2="14.134847050853583" y2="6.618119980417002" class="delaunay-line"/>
<line x1="14.134847050853583" y1="6.618119980417002" x2="19.451857857934723" y2="5.589134972469233" class="delaunay-line"/>
<line x1="14.187183007096529" y1="5.619490445662428" x2="17.973331013137273" y2="2.844062641049234" class="delaunay-line"/>
<line x1="17.973331013137273" y1="2.844062641049234" x2="6.198146729059939" y2="5.200802795718876" class="delaunay-line"/>
<line x1="6.198146729059939" y1="5.200802795718876" x2="14.187183007096529" y2="5.619490445662428" class="delaunay-line"/>
<line x1="15.925146344179883" y1="10.443236938718918" x2="19.451857857934723" y2="5.589134972469233" class="delaunay-line"/>
<line x1="19.451857857934723" y1="5.589134972469233" x2="14.134847050853583" y2="6.618119980417002" class="delaunay-line"/>
<line x1="14.134847050853583" y1="6.618119980417002" x2="15.925146344179883" y2="10.443236938718918" class="delaunay-line"/>
<line x1="23.993593551568278" y1="2.9243058237143917" x2="17.973331013137273" y2="2.844062641049234" class="delaunay-line"/>
<line x1="17.973331013137273" y1="2.844062641049234" x2="18.008209250009333" y2="3.3428446661791456" class="delaunay-line"/>
<line x1="18.008209250009333" y1="3.3428446661791456" x2="23.993593551568278" y2="2.9243058237143917" class="delaunay-line"/>
<line x1="18.008209250009333" y1="3.3428446661791456" x2="17.973331013137273" y2="2.844062641049234" class="delaunay-line"/>
<line x1="17.973331013137273" y1="2.844062641049234" x2="14.187183007096529" y2="5.619490445662428" class="delaunay-line"/>
<line x1="14.187183007096529" y1="5.619490445662428" x2="18.008209250009333" y2="3.3428446661791456" class="delaunay-line"/>
<line x1="11.74572400823459" y1="16.831663236144465" x2="15.925146344179883" y2="10.443236938718918" class="delaunay-line"/>
<line x1="15.925146344179883" y1="10.443236938718918" x2="12.26865846472054" y2="10.85449504759399" class="delaunay-line"/>
<line x1="12.26865846472054" y1="10.85449504759399" x2="11.74572400823459" y2="16.831663236144465" class="delaunay-line"/>
<line x1="15.925146344179883" y1="10.443236938718918" x2="22.68792583543451" y2="7.940275981639126" class="delaunay-line"/>
<line x1="22.68792583543451" y1="7.940275981639126" x2="19.451857857934723" y2="5.589134972469233" class="delaunay-line"/>
<line x1="19.451857857934723" y1="5.589134972469233" x2="15.925146344179883" y2="10.443236938718918" class="delaunay-line"/>
<line x1="7.538741468535591" y1="12.065198600004805" x2="11.247626659188716" y2="16.788085364770634" class="delaunay-line"/>
<line x1="11.247626659188716" y1="16.788085364770634" x2="11.770561115674665" y2="10.810917176220158" class="delaunay-line"/>
<line x1="11.770561115674665" y1="10.810917176220158" x2="7.538741468535591" y2="12.065198600004805" class="delaunay-line"/>
<line x1="11.247626659188716" y1="16.788085364770634" x2="11.74572400823459" y2="16.831663236144465" class="delaunay-line"/>
<line x1="11.74572400823459" y1="16.831663236144465" x2="12.26865846472054" y2="10.85449504759399" class="delaunay-line"/>
<line x1="12.26865846472054" y1="10.85449504759399" x2="11.247626659188716" y2="16.788085364770634" class="delaunay-line"/>
<line x1="2.6899470587157945" y1="13.162908545673659" x2="7.07806926843082" y2="17.254898706048646" class="delaunay-line"/>
<line x1="7.07806926843082" y1="17.254898706048646" x2="7.538741468535591" y2="12.065198600004805" class="delaunay-line"/>
<line x1="7.538741468535591" y1="12.065198600004805" x2="2.6899470587157945" y2="13.162908545673659" class="delaunay-line"/>
<line x1="7.538741468535591" y1="12.065198600004805" x2="7.07806926843082" y2="17.254898706048646" class="delaunay-line"/>
<line x1="7.07806926843082" y1="17.254898706048646" x2="11.247626659188716" y2="16.788085364770634" class="delaunay-line"/>
<line x1="11.247626659188716" y1="16.788085364770634" x2="7.538741468535591" y2="12.065198600004805" class="delaunay-line"/>
<line x1="11.247626659188716" y1="16.788085364770634" x2="4.350075828180828" y2="20.18031351252533" class="delaunay-line"/>
<line x1="4.350075828180828" y1="20.18031351252533" x2="11.74572400823459" y2="16.831663236144465" class="delaunay-line"/>
<line x1="11.74572400823459" y1="16.831663236144465" x2="11.247626659188716" y2="16.788085364770634" class="delaunay-line"/>
<line x1="19.16121432167967" y1="12.794377947888812" x2="22.68792583543451" y2="7.940275981639126" class="delaunay-line"/>
<line x1="22.68792583543451" y1="7.940275981639126" x2="15.925146344179883" y2="10.443236938718918" class="delaunay-line"/>
<line x1="15.925146344179883" y1="10.443236938718918" x2="19.16121432167967" y2="12.794377947888812" class="delaunay-line"/>
<line x1="19.451857857934723" y1="5.589134972469233" x2="23.993593551568278" y2="2.9243058237143917" class="delaunay-line"/>
<line x1="23.993593551568278" y1="2.9243058237143917" x2="18.008209250009333" y2="3.3428446661791456" class="delaunay-line"/>
<line x1="18.008209250009333" y1="3.3428446661791456" x2="19.451857857934723" y2="5.589134972469233" class="delaunay-line"/>
<line x1="1.5387414685355907" y1="11.565198600004805" x2="2.6899470587157945" y2="13.162908545673659" class="delaunay-line"/>
<line x1="2.6899470587157945" y1="13.162908545673659" x2="7.538741468535591" y2="11.565198600004805" class="delaunay-line"/>
<line x1="7.538741468535591" y1="11.565198600004805" x2="1.5387414685355907" y2="11.565198600004805" class="delaunay-line"/>
<line x1="1.5387414685355907" y1="11.565198600004805" x2="7.538741468535591" y2="11.565198600004805" class="delaunay-line"/>
<line x1="7.538741468535591" y1="11.565198600004805" x2="6.1458107728169935" y2="6.19943233047345" class="delaunay-line"/>
<line x1="6.1458107728169935" y1="6.19943233047345" x2="1.5387414685355907" y2="11.565198600004805" class="delaunay-line"/>
<line x1="0" y1="0" x2="1.5387414685355907" y2="11.565198600004805" class="delaunay-line"/>
<line x1="1.5387414685355907" y1="11.565198600004805" x2="6.1458107728169935" y2="6.19943233047345" class="delaunay-line"/>
<line x1="6.1458107728169935" y1="6.19943233047345" x2="0" y2="0" class="delaunay-line"/>
<line x1="1.5387414685355907" y1="11.565198600004805" x2="1.5387414685355907" y2="12.065198600004805" class="delaunay-line"/>
<line x1="1.5387414685355907" y1="12.065198600004805" x2="2.6899470587157945" y2="13.162908545673659" class="delaunay-line"/>
<line x1="2.6899470587157945" y1="13.162908545673659" x2="1.5387414685355907" y2="11.565198600004805" class="delaunay-line"/>
<line x1="22.68792583543451" y1="7.940275981639126" x2="23.993593551568278" y2="2.9243058237143917" class="delaunay-line"/>
<line x1="23.993593551568278" y1="2.9243058237143917" x2="19.451857857934723" y2="5.589134972469233" class="delaunay-line"/>
<line x1="19.451857857934723" y1="5.589134972469233" x2="22.68792583543451" y2="7.940275981639126" class="delaunay-line"/>
<line x1="23.993593551568278" y1="2.9243058237143917" x2="23.958715314696217" y2="2.42552379858448" class="delaunay-line"/>
<line x1="23.958715314696217" y1="2.42552379858448" x2="17.973331013137273" y2="2.844062641049234" class="delaunay-line"/>
<line x1="17.973331013137273" y1="2.844062641049234" x2="23.993593551568278" y2="2.9243058237143917" class="delaunay-line"/>
<line x1="-0.03804638153419759" y1="16.08832335215034" x2="4.350075828180828" y2="20.18031351252533" class="delaunay-line"/>
<line x1="4.350075828180828" y1="20.18031351252533" x2="2.6899470587157945" y2="13.162908545673659" class="delaunay-line"/>
<line x1="2.6899470587157945" y1="13.162908545673659" x2="-0.03804638153419759" y2="16.08832335215034" class="delaunay-line"/>
<line x1="2.6899470587157945" y1="13.162908545673659" x2="4.350075828180828" y2="20.18031351252533" class="delaunay-line"/>
<line x1="4.350075828180828" y1="20.18031351252533" x2="7.07806926843082" y2="17.254898706048646" class="delaunay-line"/>
<line x1="7.07806926843082" y1="17.254898706048646" x2="2.6899470587157945" y2="13.162908545673659" class="delaunay-line"/>
<line x1="7.07806926843082" y1="17.254898706048646" x2="4.350075828180828" y2="20.18031351252533" class="delaunay-line"/>
<line x1="4.350075828180828" y1="20.18031351252533" x2="11.247626659188716" y2="16.788085364770634" class="delaunay-line"/>
<line x1="11.247626659188716" y1="16.788085364770634" x2="7.07806926843082" y2="17.254898706048646" class="delaunay-line"/>
<line x1="23.993593551568278" y1="2.9243058237143917" x2="24" y2="0" class="delaunay-line"/>
<line x1="24" y1="0" x2="23.958715314696217" y2="2.42552379858448" class="delaunay-line"/>
<line x1="23.958715314696217" y1="2.42552379858448" x2="23.993593551568278" y2="2.9243058237143917" class="delaunay-line"/>
<line x1="23.958715314696217" y1="2.42552379858448" x2="24" y2="0" class="delaunay-line"/>
<line x1="24" y1="0" x2="17.973331013137273" y2="2.844062641049234" class="delaunay-line"/>
<line x1="17.973331013137273" y1="2.844062641049234" x2="23.958715314696217" y2="2.42552379858448" class="delaunay-line"/>
<line x1="17.973331013137273" y1="2.844062641049234" x2="0" y2="0" class="delaunay-line"/>
<line x1="0" y1="0" x2="6.198146729059939" y2="5.200802795718876" class="delaunay-line"/>
<line x1="6.198146729059939" y1="5.200802795718876" x2="17.973331013137273" y2="2.844062641049234" class="delaunay-line"/>
<line x1="1.5387414685355907" y1="11.565198600004805" x2="-0.03804638153419759" y2="16.08832335215034" class="delaunay-line"/>
<line x1="-0.03804638153419759" y1="16.08832335215034" x2="1.5387414685355907" y2="12.065198600004805" class="delaunay-line"/>
<line x1="1.5387414685355907" y1="12.065198600004805" x2="1.5387414685355907" y2="11.565198600004805" class="delaunay-line"/>
<line x1="1.5387414685355907" y1="12.065198600004805" x2="-0.03804638153419759" y2="16.08832335215034" class="delaunay-line"/>
<line x1="-0.03804638153419759" y1="16.08832335215034" x2="2.6899470587157945" y2="13.162908545673659" class="delaunay-line"/>
<line x1="2.6899470587157945" y1="13.162908545673659" x2="1.5387414685355907" y2="12.065198600004805" class="delaunay-line"/>
<line x1="24" y1="0" x2="0" y2="0" class="delaunay-line"/>
<line x1="0" y1="0" x2="17.973331013137273" y2="2.844062641049234" class="delaunay-line"/>
<line x1="17.973331013137273" y1="2.844062641049234" x2="24" y2="0" class="delaunay-line"/>
<line x1="6.198146729059939" y1="5.200802795718876" x2="0" y2="0" class="delaunay-line"/>
<line x1="0" y1="0" x2="6.1458107728169935" y2="6.19943233047345" class="delaunay-line"/>
<line x1="6.1458107728169935" y1="6.19943233047345" x2="6.198146729059939" y2="5.200802795718876" class="delaunay-line"/>
<line x1="1.5387414685355907" y1="11.565198600004805" x2="0" y2="0" class="delaunay-line"/>
<line x1="0" y1="0" x2="-0.03804638153419759" y2="16.08832335215034" class="delaunay-line"/>
<line x1="-0.03804638153419759" y1="16.08832335215034" x2="1.5387414685355907" y2="11.565198600004805" class="delaunay-line"/>
<line x1="11.74572400823459" y1="16.831663236144465" x2="24" y2="24" class="delaunay-line"/>
<line x1="24" y1="24" x2="19.16121432167967" y2="12.794377947888812" class="delaunay-line"/>
<line x1="19.16121432167967" y1="12.794377947888812" x2="11.74572400823459" y2="16.831663236144465" class="delaunay-line"/>
<line x1="19.16121432167967" y1="12.794377947888812" x2="24" y2="24" class="delaunay-line"/>
<line x1="24" y1="24" x2="22.68792583543451" y2="7.940275981639126" class="delaunay-line"/>
<line x1="22.68792583543451" y1="7.940275981639126" x2="19.16121432167967" y2="12.794377947888812" class="delaunay-line"/>
<line x1="22.68792583543451" y1="7.940275981639126" x2="24" y2="24" class="delaunay-line"/>
<line x1="24" y1="24" x2="23.993593551568278" y2="2.9243058237143917" class="delaunay-line"/>
<line x1="23.993593551568278" y1="2.9243058237143917" x2="22.68792583543451" y2="7.940275981639126" class="delaunay-line"/>
<line x1="23.993593551568278" y1="2.9243058237143917" x2="24" y2="24" class="delaunay-line"/>
<line x1="24" y1="24" x2="24" y2="0" class="delaunay-line"/>
<line x1="24" y1="0" x2="23.993593551568278" y2="2.9243058237143917" class="delaunay-line"/>
<line x1="4.350075828180828" y1="20.18031351252533" x2="24" y2="24" class="delaunay-line"/>
<line x1="24" y1="24" x2="11.74572400823459" y2="16.831663236144465" class="delaunay-line"/>
<line x1="11.74572400823459" y1="16.831663236144465" x2="4.350075828180828" y2="20.18031351252533" class="delaunay-line"/>
<line x1="-0.03804638153419759" y1="16.08832335215034" x2="0" y2="24" class="delaunay-line"/>
<line x1="0" y1="24" x2="4.350075828180828" y2="20.18031351252533" class="delaunay-line"/>
<line x1="4.350075828180828" y1="20.18031351252533" x2="-0.03804638153419759" y2="16.08832335215034" class="delaunay-line"/>
<line x1="4.350075828180828" y1="20.18031351252533" x2="0" y2="24" class="delaunay-line"/>
<line x1="0" y1="24" x2="24" y2="24" class="delaunay-line"/>
<line x1="24" y1="24" x2="4.350075828180828" y2="20.18031351252533" class="delaunay-line"/>
</g>
<g id="layer-area" class="layer hidden">
</g>
<g id="layer-building" class="layer ">
<polygon points="19.16121432167967,12.794377947888812 15.925146344179883,10.443236938718918 19.451857857934723,5.589134972469233 22.68792583543451,7.940275981639126" class="terrain-solid"/>
<text x="19.306536089807196" y="9.191756460179022" class="label">#000000</text>
<polygon points="-0.03804638153419759,16.08832335215034 2.6899470587157945,13.162908545673659 7.07806926843082,17.254898706048646 4.350075828180828,20.18031351252533" class="terrain-solid"/>
<text x="3.520011443448311" y="16.671611029099495" class="label">#000000</text>
</g>
<g id="layer-wall" class="layer ">
<polygon points="11.770561115674665,10.810917176220158 12.26865846472054,10.85449504759399 11.74572400823459,16.831663236144465 11.247626659188716,16.788085364770634" class="terrain-solid"/>
<text x="11.758142561954628" y="13.821290206182312" class="label">#555555</text>
<polygon points="7.538741468535591,11.565198600004805 7.538741468535591,12.065198600004805 1.5387414685355907,12.065198600004805 1.5387414685355907,11.565198600004805" class="terrain-solid"/>
<text x="4.538741468535591" y="11.815198600004805" class="label">#555555</text>
<polygon points="18.008209250009333,3.3428446661791456 17.973331013137273,2.844062641049234 23.958715314696217,2.42552379858448 23.993593551568278,2.9243058237143917" class="terrain-solid"/>
<text x="20.983462282352775" y="2.8841842323818128" class="label">#555555</text>
<polygon points="6.1458107728169935,6.19943233047345 6.198146729059939,5.200802795718876 14.187183007096529,5.619490445662428 14.134847050853583,6.618119980417002" class="terrain-solid"/>
<text x="10.166496889956761" y="5.909461388067939" class="label">#555555</text>
</g>
<g id="layer-tree" class="layer hidden">
</g>
<g id="layer-rocks" class="layer hidden">
</g>
<g id="layer-shrub" class="layer hidden">
</g>
<g id="layer-terrain" class="layer hidden">
</g>
<g id="layer-models" class="layer ">
</g>
<g id="layer-paths" class="layer ">
</g>
<g id="layer-vectors" class="layer ">
</g>
<g id="layer-los" class="layer ">
</g>
<g id="layer-lof" class="layer ">
</g>

<g id="legend">
<g class="toggle" onclick="toggleLayer('building')"><rect x="0.4" y="0.14999999999999997" width="0.4" height="0.4" fill="#222" stroke="#222" stroke-width="0.05"/><text x="1.0" y="0.5499999999999999" class="label">Buildings</text></g>
<g class="toggle" onclick="toggleLayer('wall')"><rect x="0.4" y="0.95" width="0.4" height="0.4" fill="#222" stroke="#222" stroke-width="0.05"/><text x="1.0" y="1.3499999999999999" class="label">Walls</text></g>
<g class="toggle" onclick="toggleLayer('grid')"><rect x="0.4" y="1.7500000000000002" width="0.4" height="0.4" fill="#fff" stroke="#222" stroke-width="0.05"/><text x="1.0" y="2.1500000000000004" class="label">0.5 MU Grid</text></g>
<g class="toggle disabled"><rect x="0.4" y="2.55" width="0.4" height="0.4" fill="#fff" stroke="#222" stroke-width="0.05"/><text x="1.0" y="2.95" class="label">Area Terrain</text></g>
<g class="toggle disabled"><rect x="0.4" y="3.3499999999999996" width="0.4" height="0.4" fill="#fff" stroke="#222" stroke-width="0.05"/><text x="1.0" y="3.75" class="label">Trees</text></g>
<g class="toggle disabled"><rect x="0.4" y="4.1499999999999995" width="0.4" height="0.4" fill="#fff" stroke="#222" stroke-width="0.05"/><text x="1.0" y="4.55" class="label">Rocks</text></g>
<g class="toggle disabled"><rect x="0.4" y="4.949999999999999" width="0.4" height="0.4" fill="#fff" stroke="#222" stroke-width="0.05"/><text x="1.0" y="5.35" class="label">Shrubs</text></g>
<g class="toggle" onclick="toggleLayer('delaunay')"><rect x="0.4" y="5.749999999999999" width="0.4" height="0.4" fill="#fff" stroke="#222" stroke-width="0.05"/><text x="1.0" y="6.1499999999999995" class="label">Delaunay Mesh</text></g>
<g class="toggle" onclick="toggleLayer('terrain')"><rect x="0.4" y="6.549999999999999" width="0.4" height="0.4" fill="#fff" stroke="#222" stroke-width="0.05"/><text x="1.0" y="6.949999999999999" class="label">Other Terrain</text></g>
</g>
</svg>