<svg xmlns="http://www.w3.org/2000/svg" width="22.224998mm" height="84" viewBox="0 0 22.224999 22.225">
  <defs>
    <clipPath id="a" clipPathUnits="userSpaceOnUse">
      <path stroke-width="1.17536" d="M-75.896942-375.62024H643.42606v930.88855H-75.896942Z"/>
    </clipPath>
  </defs>
  <path fill="#08a" d="M21.43126 21.431251H.79376V.7937519h20.6375z"/>
  <path fill="#fff" d="m0 0 21.736-21.735c4.23 6.087 3.638 14.532-1.783 19.953C14.531 3.639 6.086 4.23 0 0m-2.138-23.873c5.421-5.422 13.866-6.014 19.952-1.783L-3.921-3.922c-4.23-6.086-3.639-14.531 1.783-19.951m26.013-3.922c-8.253-8.253-21.682-8.253-29.935 0-8.252 8.252-8.252 21.682 0 29.934 8.253 8.253 21.682 8.253 29.935 0 8.252-8.252 8.252-21.682 0-29.934" clip-path="url(#a)" transform="translate(8.43898 14.96274) scale(.30014333)"/>
</svg>