<svg xmlns="http://www.w3.org/2000/svg" width="57.6" height="57.6" viewBox="0 0 15.24 15.24">
  <defs>
    <clipPath id="a" clipPathUnits="userSpaceOnUse">
      <path d="M-542.656 371.99h612v-792h-612Z"/>
    </clipPath>
  </defs>
  <path fill="#be1e2d" d="m1.035 13.335 6.543-11.43 6.627 11.382Z"/>
  <path fill="#fff" d="M0 0a3.974 3.974 0 0 0-4.154-2.943L-2.16 4.61A3.975 3.975 0 0 0 0 0m-3.522 4.97-1.995-7.553a3.975 3.975 0 0 0-2.16 4.61A3.975 3.975 0 0 0-3.522 4.97M1.362-.36a5.384 5.384 0 0 1-3.827 6.574 5.384 5.384 0 0 1-6.574-3.827 5.384 5.384 0 0 1 3.827-6.574A5.384 5.384 0 0 1 1.362-.36" clip-path="url(#a)" transform="matrix(.35278 0 0 -.35278 8.787 9.969)"/>
</svg>