<svg xmlns="http://www.w3.org/2000/svg" width="72" height="72" viewBox="0 0 19.05 19.05">
  <defs>
    <clipPath id="a" clipPathUnits="userSpaceOnUse">
      <path d="M-71.627-366.862h612v792h-612Z"/>
    </clipPath>
    <clipPath id="b" clipPathUnits="userSpaceOnUse">
      <path d="M-71.627-366.862h612v792h-612Z"/>
    </clipPath>
  </defs>
  <path fill="#fff" d="M29.25 29.25h-58.5v-58.5h58.5z" clip-path="url(#a)" transform="translate(9.525 9.525) scale(.35278)"/>
  <path d="M15.25-1.615h1.88V.263h-1.88zm-2.455-7.518 1.566-.93.916 1.607-1.565.923zm-.054 16.869.917-1.599 1.592.921-.917 1.591ZM6.88 12.938l1.571-.922.918 1.6-1.565.914zm0-27.346.924-1.583 1.592.932-.917 1.599zM-.939 14.503H.94v1.879H-.939ZM0-18.132l2.376 4.662H1.012v11.782h6.36v-1.356l4.667 2.368-4.667 2.357V.336h-6.36V2.36h-2.024V.336h-2.024v-2.024h2.024V-13.47H-2.34Zm-8.402 30.148 1.599.922-.921 1.592-1.6-.914zm-.027-25.503-.922-1.572 1.599-.932.921 1.583zm-5.198 19.624.919 1.599-1.595.913-.921-1.591zm-.027-13.67-1.597-.923.921-1.607 1.595.93zM-15.251.263h-1.88v-1.878h1.88zM0 18.116c5.186 0 9.613-1.832 13.285-5.5 3.671-3.679 5.507-8.106 5.507-13.292s-1.836-9.613-5.507-13.282C9.613-17.635 5.186-19.468 0-19.468s-9.613 1.833-13.286 5.51c-3.673 3.669-5.507 8.096-5.507 13.282s1.834 9.613 5.507 13.292c3.673 3.668 8.1 5.5 13.286 5.5m0 1.301c-5.556 0-10.296-1.959-14.217-5.871-3.916-3.922-5.877-8.665-5.877-14.222 0-5.556 1.961-10.291 5.877-14.212C-10.296-18.809-5.556-20.77 0-20.77c5.556 0 10.295 1.961 14.214 5.882 3.919 3.921 5.879 8.656 5.879 14.212 0 5.537-1.96 10.272-5.879 14.202C10.295 17.458 5.556 19.417 0 19.417" clip-path="url(#b)" transform="translate(9.525 9.764) scale(.35278)"/>
</svg>