<svg xmlns="http://www.w3.org/2000/svg" viewBox="0 0 36 36" width="1440" height="1440" font-family="Arial" font-size="0.6">
<defs>
  <style><![CDATA[
    .layer { display: inline; }
    .layer.hidden { display: none; }
    .grid-line { stroke: #999; stroke-width: 0.02; opacity: 0.2; }
    .grid-line-2mu { stroke: #666; stroke-width: 0.04; opacity: 0.4; }
    .grid-line-6mu { stroke: #333; stroke-width: 0.08; opacity: 0.6; }
    .delaunay-line { stroke: #4a6fa5; stroke-width: 0.03; opacity: 0.3; }
    #layer-area { opacity: 0.8; }
    #layer-building, #layer-wall, #layer-tree, #layer-rocks, #layer-shrub, #layer-terrain { opacity: 0.8; }
    .terrain-area { stroke: none; }
    .terrain-solid { stroke: #000; stroke-width: 0.05; }
    .model { stroke: #ff0000; stroke-width: 2; vector-effect: non-scaling-stroke; }
    .path { fill: none; stroke-width: 0.12; }
    .vector { stroke-width: 0.1; }
    .los-ray { stroke-width: 0.08; stroke-dasharray: 0.2 0.2; }
    .lof-ray { stroke-width: 0.08; stroke-dasharray: 0.3 0.15; }
    .label { fill: #111 !important; font-size: 0.6px; }
    .toggle { cursor: pointer; }
    .toggle.disabled { cursor: default; }
    .toggle.disabled rect { stroke: #ccc; fill: #fff; }
    .toggle.disabled text { fill: #ccc; }
#layer-wall { fill: #555555; }
  ]]></style>
</defs>
<rect x="0" y="0" width="36" height="36" fill="#ffffff" stroke="#111" stroke-width="0.05"/>
<script><![CDATA[
      function toggleLayer(id) {
        var layer = document.getElementById('layer-' + id);
        if (!layer) return;
        if (layer.classList.contains('hidden')) {
          layer.classList.remove('hidden');
        } else {
          layer.classList.add('hidden');
        }
      }
    ]]></script>
<text x="0.4" y="35.6" class="label">MEDIUM battlefield_A0-B0-W100-R0-S0-T0</text>
<g id="layer-deployment" class="layer ">
</g>
<g id="layer-grid" class="layer ">
<line x1="0" y1="0" x2="0" y2="36" class="grid-line-6mu"/>
<line x1="0.5" y1="0" x2="0.5" y2="36" class="grid-line"/>
<line x1="1" y1="0" x2="1" y2="36" class="grid-line"/>
<line x1="1.5" y1="0" x2="1.5" y2="36" class="grid-line"/>
<line x1="2" y1="0" x2="2" y2="36" class="grid-line-2mu"/>
<line x1="2.5" y1="0" x2="2.5" y2="36" class="grid-line"/>
<line x1="3" y1="0" x2="3" y2="36" class="grid-line"/>
<line x1="3.5" y1="0" x2="3.5" y2="36" class="grid-line"/>
<line x1="4" y1="0" x2="4" y2="36" class="grid-line-2mu"/>
<line x1="4.5" y1="0" x2="4.5" y2="36" class="grid-line"/>
<line x1="5" y1="0" x2="5" y2="36" class="grid-line"/>
<line x1="5.5" y1="0" x2="5.5" y2="36" class="grid-line"/>
<line x1="6" y1="0" x2="6" y2="36" class="grid-line-6mu"/>
<line x1="6.5" y1="0" x2="6.5" y2="36" class="grid-line"/>
<line x1="7" y1="0" x2="7" y2="36" class="grid-line"/>
<line x1="7.5" y1="0" x2="7.5" y2="36" class="grid-line"/>
<line x1="8" y1="0" x2="8" y2="36" class="grid-line-2mu"/>
<line x1="8.5" y1="0" x2="8.5" y2="36" class="grid-line"/>
<line x1="9" y1="0" x2="9" y2="36" class="grid-line"/>
<line x1="9.5" y1="0" x2="9.5" y2="36" class="grid-line"/>
<line x1="10" y1="0" x2="10" y2="36" class="grid-line-2mu"/>
<line x1="10.5" y1="0" x2="10.5" y2="36" class="grid-line"/>
<line x1="11" y1="0" x2="11" y2="36" class="grid-line"/>
<line x1="11.5" y1="0" x2="11.5" y2="36" class="grid-line"/>
<line x1="12" y1="0" x2="12" y2="36" class="grid-line-6mu"/>
<line x1="12.5" y1="0" x2="12.5" y2="36" class="grid-line"/>
<line x1="13" y1="0" x2="13" y2="36" class="grid-line"/>
<line x1="13.5" y1="0" x2="13.5" y2="36" class="grid-line"/>
<line x1="14" y1="0" x2="14" y2="36" class="grid-line-2mu"/>
<line x1="14.5" y1="0" x2="14.5" y2="36" class="grid-line"/>
<line x1="15" y1="0" x2="15" y2="36" class="grid-line"/>
<line x1="15.5" y1="0" x2="15.5" y2="36" class="grid-line"/>
<line x1="16" y1="0" x2="16" y2="36" class="grid-line-2mu"/>
<line x1="16.5" y1="0" x2="16.5" y2="36" class="grid-line"/>
<line x1="17" y1="0" x2="17" y2="36" class="grid-line"/>
<line x1="17.5" y1="0" x2="17.5" y2="36" class="grid-line"/>
<line x1="18" y1="0" x2="18" y2="36" class="grid-line-6mu"/>
<line x1="18.5" y1="0" x2="18.5" y2="36" class="grid-line"/>
<line x1="19" y1="0" x2="19" y2="36" class="grid-line"/>
<line x1="19.5" y1="0" x2="19.5" y2="36" class="grid-line"/>
<line x1="20" y1="0" x2="20" y2="36" class="grid-line-2mu"/>
<line x1="20.5" y1="0" x2="20.5" y2="36" class="grid-line"/>
<line x1="21" y1="0" x2="21" y2="36" class="grid-line"/>
<line x1="21.5" y1="0" x2="21.5" y2="36" class="grid-line"/>
<line x1="22" y1="0" x2="22" y2="36" class="grid-line-2mu"/>
<line x1="22.5" y1="0" x2="22.5" y2="36" class="grid-line"/>
<line x1="23" y1="0" x2="23" y2="36" class="grid-line"/>
<line x1="23.5" y1="0" x2="23.5" y2="36" class="grid-line"/>
<line x1="24" y1="0" x2="24" y2="36" class="grid-line-6mu"/>
<line x1="24.5" y1="0" x2="24.5" y2="36" class="grid-line"/>
<line x1="25" y1="0" x2="25" y2="36" class="grid-line"/>
<line x1="25.5" y1="0" x2="25.5" y2="36" class="grid-line"/>
<line x1="26" y1="0" x2="26" y2="36" class="grid-line-2mu"/>
<line x1="26.5" y1="0" x2="26.5" y2="36" class="grid-line"/>
<line x1="27" y1="0" x2="27" y2="36" class="grid-line"/>
<line x1="27.5" y1="0" x2="27.5" y2="36" class="grid-line"/>
<line x1="28" y1="0" x2="28" y2="36" class="grid-line-2mu"/>
<line x1="28.5" y1="0" x2="28.5" y2="36" class="grid-line"/>
<line x1="29" y1="0" x2="29" y2="36" class="grid-line"/>
<line x1="29.5" y1="0" x2="29.5" y2="36" class="grid-line"/>
<line x1="30" y1="0" x2="30" y2="36" class="grid-line-6mu"/>
<line x1="30.5" y1="0" x2="30.5" y2="36" class="grid-line"/>
<line x1="31" y1="0" x2="31" y2="36" class="grid-line"/>
<line x1="31.5" y1="0" x2="31.5" y2="36" class="grid-line"/>
<line x1="32" y1="0" x2="32" y2="36" class="grid-line-2mu"/>
<line x1="32.5" y1="0" x2="32.5" y2="36" class="grid-line"/>
<line x1="33" y1="0" x2="33" y2="36" class="grid-line"/>
<line x1="33.5" y1="0" x2="33.5" y2="36" class="grid-line"/>
<line x1="34" y1="0" x2="34" y2="36" class="grid-line-2mu"/>
<line x1="34.5" y1="0" x2="34.5" y2="36" class="grid-line"/>
<line x1="35" y1="0" x2="35" y2="36" class="grid-line"/>
<line x1="35.5" y1="0" x2="35.5" y2="36" class="grid-line"/>
<line x1="36" y1="0" x2="36" y2="36" class="grid-line-6mu"/>
<line x1="0" y1="0" x2="36" y2="0" class="grid-line-6mu"/>
<line x1="0" y1="0.5" x2="36" y2="0.5" class="grid-line"/>
<line x1="0" y1="1" x2="36" y2="1" class="grid-line"/>
<line x1="0" y1="1.5" x2="36" y2="1.5" class="grid-line"/>
<line x1="0" y1="2" x2="36" y2="2" class="grid-line-2mu"/>
<line x1="0" y1="2.5" x2="36" y2="2.5" class="grid-line"/>
<line x1="0" y1="3" x2="36" y2="3" class="grid-line"/>
<line x1="0" y1="3.5" x2="36" y2="3.5" class="grid-line"/>
<line x1="0" y1="4" x2="36" y2="4" class="grid-line-2mu"/>
<line x1="0" y1="4.5" x2="36" y2="4.5" class="grid-line"/>
<line x1="0" y1="5" x2="36" y2="5" class="grid-line"/>
<line x1="0" y1="5.5" x2="36" y2="5.5" class="grid-line"/>
<line x1="0" y1="6" x2="36" y2="6" class="grid-line-6mu"/>
<line x1="0" y1="6.5" x2="36" y2="6.5" class="grid-line"/>
<line x1="0" y1="7" x2="36" y2="7" class="grid-line"/>
<line x1="0" y1="7.5" x2="36" y2="7.5" class="grid-line"/>
<line x1="0" y1="8" x2="36" y2="8" class="grid-line-2mu"/>
<line x1="0" y1="8.5" x2="36" y2="8.5" class="grid-line"/>
<line x1="0" y1="9" x2="36" y2="9" class="grid-line"/>
<line x1="0" y1="9.5" x2="36" y2="9.5" class="grid-line"/>
<line x1="0" y1="10" x2="36" y2="10" class="grid-line-2mu"/>
<line x1="0" y1="10.5" x2="36" y2="10.5" class="grid-line"/>
<line x1="0" y1="11" x2="36" y2="11" class="grid-line"/>
<line x1="0" y1="11.5" x2="36" y2="11.5" class="grid-line"/>
<line x1="0" y1="12" x2="36" y2="12" class="grid-line-6mu"/>
<line x1="0" y1="12.5" x2="36" y2="12.5" class="grid-line"/>
<line x1="0" y1="13" x2="36" y2="13" class="grid-line"/>
<line x1="0" y1="13.5" x2="36" y2="13.5" class="grid-line"/>
<line x1="0" y1="14" x2="36" y2="14" class="grid-line-2mu"/>
<line x1="0" y1="14.5" x2="36" y2="14.5" class="grid-line"/>
<line x1="0" y1="15" x2="36" y2="15" class="grid-line"/>
<line x1="0" y1="15.5" x2="36" y2="15.5" class="grid-line"/>
<line x1="0" y1="16" x2="36" y2="16" class="grid-line-2mu"/>
<line x1="0" y1="16.5" x2="36" y2="16.5" class="grid-line"/>
<line x1="0" y1="17" x2="36" y2="17" class="grid-line"/>
<line x1="0" y1="17.5" x2="36" y2="17.5" class="grid-line"/>
<line x1="0" y1="18" x2="36" y2="18" class="grid-line-6mu"/>
<line x1="0" y1="18.5" x2="36" y2="18.5" class="grid-line"/>
<line x1="0" y1="19" x2="36" y2="19" class="grid-line"/>
<line x1="0" y1="19.5" x2="36" y2="19.5" class="grid-line"/>
<line x1="0" y1="20" x2="36" y2="20" class="grid-line-2mu"/>
<line x1="0" y1="20.5" x2="36" y2="20.5" class="grid-line"/>
<line x1="0" y1="21" x2="36" y2="21" class="grid-line"/>
<line x1="0" y1="21.5" x2="36" y2="21.5" class="grid-line"/>
<line x1="0" y1="22" x2="36" y2="22" class="grid-line-2mu"/>
<line x1="0" y1="22.5" x2="36" y2="22.5" class="grid-line"/>
<line x1="0" y1="23" x2="36" y2="23" class="grid-line"/>
<line x1="0" y1="23.5" x2="36" y2="23.5" class="grid-line"/>
<line x1="0" y1="24" x2="36" y2="24" class="grid-line-6mu"/>
<line x1="0" y1="24.5" x2="36" y2="24.5" class="grid-line"/>
<line x1="0" y1="25" x2="36" y2="25" class="grid-line"/>
<line x1="0" y1="25.5" x2="36" y2="25.5" class="grid-line"/>
<line x1="0" y1="26" x2="36" y2="26" class="grid-line-2mu"/>
<line x1="0" y1="26.5" x2="36" y2="26.5" class="grid-line"/>
<line x1="0" y1="27" x2="36" y2="27" class="grid-line"/>
<line x1="0" y1="27.5" x2="36" y2="27.5" class="grid-line"/>
<line x1="0" y1="28" x2="36" y2="28" class="grid-line-2mu"/>
<line x1="0" y1="28.5" x2="36" y2="28.5" class="grid-line"/>
<line x1="0" y1="29" x2="36" y2="29" class="grid-line"/>
<line x1="0" y1="29.5" x2="36" y2="29.5" class="grid-line"/>
<line x1="0" y1="30" x2="36" y2="30" class="grid-line-6mu"/>
<line x1="0" y1="30.5" x2="36" y2="30.5" class="grid-line"/>
<line x1="0" y1="31" x2="36" y2="31" class="grid-line"/>
<line x1="0" y1="31.5" x2="36" y2="31.5" class="grid-line"/>
<line x1="0" y1="32" x2="36" y2="32" class="grid-line-2mu"/>
<line x1="0" y1="32.5" x2="36" y2="32.5" class="grid-line"/>
<line x1="0" y1="33" x2="36" y2="33" class="grid-line"/>
<line x1="0" y1="33.5" x2="36" y2="33.5" class="grid-line"/>
<line x1="0" y1="34" x2="36" y2="34" class="grid-line-2mu"/>
<line x1="0" y1="34.5" x2="36" y2="34.5" class="grid-line"/>
<line x1="0" y1="35" x2="36" y2="35" class="grid-line"/>
<line x1="0" y1="35.5" x2="36" y2="35.5" class="grid-line"/>
<line x1="0" y1="36" x2="36" y2="36" class="grid-line-6mu"/>
</g>
<g id="layer-delaunay" class="layer ">
<line x1="20.809030772412104" y1="19.47673245796274" x2="23.89925922187243" y2="24.619736262175415" class="delaunay-line"/>
<line x1="23.89925922187243" y1="24.619736262175415" x2="21.237614422763162" y2="19.219213420507714" class="delaunay-line"/>
<line x1="21.237614422763162" y1="19.219213420507714" x2="20.809030772412104" y2="19.47673245796274" class="delaunay-line"/>
<line x1="23.89925922187243" y1="24.619736262175415" x2="24.32784287222349" y2="24.36221722472039" class="delaunay-line"/>
<line x1="24.32784287222349" y1="24.36221722472039" x2="21.237614422763162" y2="19.219213420507714" class="delaunay-line"/>
<line x1="21.237614422763162" y1="19.219213420507714" x2="23.89925922187243" y2="24.619736262175415" class="delaunay-line"/>
<line x1="20.809030772412104" y1="19.47673245796274" x2="16.208272169775423" y2="23.913794304880557" class="delaunay-line"/>
<line x1="16.208272169775423" y1="23.913794304880557" x2="23.89925922187243" y2="24.619736262175415" class="delaunay-line"/>
<line x1="23.89925922187243" y1="24.619736262175415" x2="20.809030772412104" y2="19.47673245796274" class="delaunay-line"/>
<line x1="19.6647940481319" y1="29.12518909947229" x2="25.573640566205146" y2="28.08330003347071" class="delaunay-line"/>
<line x1="25.573640566205146" y1="28.08330003347071" x2="23.89925922187243" y2="24.619736262175415" class="delaunay-line"/>
<line x1="23.89925922187243" y1="24.619736262175415" x2="19.6647940481319" y2="29.12518909947229" class="delaunay-line"/>
<line x1="23.89925922187243" y1="24.619736262175415" x2="25.573640566205146" y2="28.08330003347071" class="delaunay-line"/>
<line x1="25.573640566205146" y1="28.08330003347071" x2="24.32784287222349" y2="24.36221722472039" class="delaunay-line"/>
<line x1="24.32784287222349" y1="24.36221722472039" x2="23.89925922187243" y2="24.619736262175415" class="delaunay-line"/>
<line x1="16.208272169775423" y1="23.913794304880557" x2="17.886801167846002" y2="27.2649348576758" class="delaunay-line"/>
<line x1="17.886801167846002" y1="27.2649348576758" x2="23.89925922187243" y2="24.619736262175415" class="delaunay-line"/>
<line x1="23.89925922187243" y1="24.619736262175415" x2="16.208272169775423" y2="23.913794304880557" class="delaunay-line"/>
<line x1="16.208272169775423" y1="23.913794304880557" x2="15.85471877918215" y2="24.267347695473834" class="delaunay-line"/>
<line x1="15.85471877918215" y1="24.267347695473834" x2="17.886801167846002" y2="27.2649348576758" class="delaunay-line"/>
<line x1="17.886801167846002" y1="27.2649348576758" x2="16.208272169775423" y2="23.913794304880557" class="delaunay-line"/>
<line x1="19.751618136965366" y1="29.617592975978393" x2="25.660464655038613" y2="28.575703909976813" class="delaunay-line"/>
<line x1="25.660464655038613" y1="28.575703909976813" x2="25.573640566205146" y2="28.08330003347071" class="delaunay-line"/>
<line x1="25.573640566205146" y1="28.08330003347071" x2="19.751618136965366" y2="29.617592975978393" class="delaunay-line"/>
<line x1="15.85471877918215" y1="24.267347695473834" x2="17.724017090617423" y2="27.737694145475462" class="delaunay-line"/>
<line x1="17.724017090617423" y1="27.737694145475462" x2="17.886801167846002" y2="27.2649348576758" class="delaunay-line"/>
<line x1="17.886801167846002" y1="27.2649348576758" x2="15.85471877918215" y2="24.267347695473834" class="delaunay-line"/>
<line x1="17.886801167846002" y1="27.2649348576758" x2="19.6647940481319" y2="29.12518909947229" class="delaunay-line"/>
<line x1="19.6647940481319" y1="29.12518909947229" x2="23.89925922187243" y2="24.619736262175415" class="delaunay-line"/>
<line x1="23.89925922187243" y1="24.619736262175415" x2="17.886801167846002" y2="27.2649348576758" class="delaunay-line"/>
<line x1="17.724017090617423" y1="27.737694145475462" x2="19.6647940481319" y2="29.12518909947229" class="delaunay-line"/>
<line x1="19.6647940481319" y1="29.12518909947229" x2="17.886801167846002" y2="27.2649348576758" class="delaunay-line"/>
<line x1="17.886801167846002" y1="27.2649348576758" x2="17.724017090617423" y2="27.737694145475462" class="delaunay-line"/>
<line x1="17.724017090617423" y1="27.737694145475462" x2="19.751618136965366" y2="29.617592975978393" class="delaunay-line"/>
<line x1="19.751618136965366" y1="29.617592975978393" x2="19.6647940481319" y2="29.12518909947229" class="delaunay-line"/>
<line x1="19.6647940481319" y1="29.12518909947229" x2="17.724017090617423" y2="27.737694145475462" class="delaunay-line"/>
<line x1="19.6647940481319" y1="29.12518909947229" x2="19.751618136965366" y2="29.617592975978393" class="delaunay-line"/>
<line x1="19.751618136965366" y1="29.617592975978393" x2="25.573640566205146" y2="28.08330003347071" class="delaunay-line"/>
<line x1="25.573640566205146" y1="28.08330003347071" x2="19.6647940481319" y2="29.12518909947229" class="delaunay-line"/>
<line x1="21.237614422763162" y1="19.219213420507714" x2="15.518651450251774" y2="15.733533011518826" class="delaunay-line"/>
<line x1="15.518651450251774" y1="15.733533011518826" x2="20.809030772412104" y2="19.47673245796274" class="delaunay-line"/>
<line x1="20.809030772412104" y1="19.47673245796274" x2="21.237614422763162" y2="19.219213420507714" class="delaunay-line"/>
<line x1="20.809030772412104" y1="19.47673245796274" x2="15.518651450251774" y2="15.733533011518826" class="delaunay-line"/>
<line x1="15.518651450251774" y1="15.733533011518826" x2="16.208272169775423" y2="23.913794304880557" class="delaunay-line"/>
<line x1="16.208272169775423" y1="23.913794304880557" x2="20.809030772412104" y2="19.47673245796274" class="delaunay-line"/>
<line x1="16.208272169775423" y1="23.913794304880557" x2="11.612078092062866" y2="20.02470700835455" class="delaunay-line"/>
<line x1="11.612078092062866" y1="20.02470700835455" x2="15.85471877918215" y2="24.267347695473834" class="delaunay-line"/>
<line x1="15.85471877918215" y1="24.267347695473834" x2="16.208272169775423" y2="23.913794304880557" class="delaunay-line"/>
<line x1="15.518651450251774" y1="15.733533011518826" x2="13.752799582184982" y2="16.508873523367246" class="delaunay-line"/>
<line x1="13.752799582184982" y1="16.508873523367246" x2="16.208272169775423" y2="23.913794304880557" class="delaunay-line"/>
<line x1="16.208272169775423" y1="23.913794304880557" x2="15.518651450251774" y2="15.733533011518826" class="delaunay-line"/>
<line x1="28.729827715581063" y1="30.16889265473315" x2="28.583641863219693" y2="29.690740276751633" class="delaunay-line"/>
<line x1="28.583641863219693" y1="29.690740276751633" x2="25.660464655038613" y2="28.575703909976813" class="delaunay-line"/>
<line x1="25.660464655038613" y1="28.575703909976813" x2="28.729827715581063" y2="30.16889265473315" class="delaunay-line"/>
<line x1="25.660464655038613" y1="28.575703909976813" x2="28.583641863219693" y2="29.690740276751633" class="delaunay-line"/>
<line x1="28.583641863219693" y1="29.690740276751633" x2="25.573640566205146" y2="28.08330003347071" class="delaunay-line"/>
<line x1="25.573640566205146" y1="28.08330003347071" x2="25.660464655038613" y2="28.575703909976813" class="delaunay-line"/>
<line x1="25.573640566205146" y1="28.08330003347071" x2="28.583641863219693" y2="29.690740276751633" class="delaunay-line"/>
<line x1="28.583641863219693" y1="29.690740276751633" x2="24.32784287222349" y2="24.36221722472039" class="delaunay-line"/>
<line x1="24.32784287222349" y1="24.36221722472039" x2="25.573640566205146" y2="28.08330003347071" class="delaunay-line"/>
<line x1="24.32784287222349" y1="24.36221722472039" x2="28.4952202131479" y2="13.411651791266307" class="delaunay-line"/>
<line x1="28.4952202131479" y1="13.411651791266307" x2="21.237614422763162" y2="19.219213420507714" class="delaunay-line"/>
<line x1="21.237614422763162" y1="19.219213420507714" x2="24.32784287222349" y2="24.36221722472039" class="delaunay-line"/>
<line x1="22.158047368372493" y1="32.47735425151413" x2="22.253451866060765" y2="31.986540659790297" class="delaunay-line"/>
<line x1="22.253451866060765" y1="31.986540659790297" x2="18.372536834891328" y2="32.44848396610889" class="delaunay-line"/>
<line x1="18.372536834891328" y1="32.44848396610889" x2="22.158047368372493" y2="32.47735425151413" class="delaunay-line"/>
<line x1="19.751618136965366" y1="29.617592975978393" x2="22.253451866060765" y2="31.986540659790297" class="delaunay-line"/>
<line x1="22.253451866060765" y1="31.986540659790297" x2="25.660464655038613" y2="28.575703909976813" class="delaunay-line"/>
<line x1="25.660464655038613" y1="28.575703909976813" x2="19.751618136965366" y2="29.617592975978393" class="delaunay-line"/>
<line x1="28.143214966746747" y1="33.13139463204956" x2="28.729827715581063" y2="30.16889265473315" class="delaunay-line"/>
<line x1="28.729827715581063" y1="30.16889265473315" x2="25.660464655038613" y2="28.575703909976813" class="delaunay-line"/>
<line x1="25.660464655038613" y1="28.575703909976813" x2="28.143214966746747" y2="33.13139463204956" class="delaunay-line"/>
<line x1="15.018651450251774" y1="15.733533011518826" x2="13.752799582184982" y2="16.508873523367246" class="delaunay-line"/>
<line x1="13.752799582184982" y1="16.508873523367246" x2="15.518651450251774" y2="15.733533011518826" class="delaunay-line"/>
<line x1="15.518651450251774" y1="15.733533011518826" x2="15.018651450251774" y2="15.733533011518826" class="delaunay-line"/>
<line x1="34.3214703989979" y1="27.936510048415208" x2="24.32784287222349" y2="24.36221722472039" class="delaunay-line"/>
<line x1="24.32784287222349" y1="24.36221722472039" x2="28.583641863219693" y2="29.690740276751633" class="delaunay-line"/>
<line x1="28.583641863219693" y1="29.690740276751633" x2="34.3214703989979" y2="27.936510048415208" class="delaunay-line"/>
<line x1="34.3214703989979" y1="27.936510048415208" x2="28.4952202131479" y2="13.411651791266307" class="delaunay-line"/>
<line x1="28.4952202131479" y1="13.411651791266307" x2="24.32784287222349" y2="24.36221722472039" class="delaunay-line"/>
<line x1="24.32784287222349" y1="24.36221722472039" x2="34.3214703989979" y2="27.936510048415208" class="delaunay-line"/>
<line x1="21.237614422763162" y1="19.219213420507714" x2="20.590885050585047" y2="11.417430814045284" class="delaunay-line"/>
<line x1="20.590885050585047" y1="11.417430814045284" x2="15.518651450251774" y2="15.733533011518826" class="delaunay-line"/>
<line x1="15.518651450251774" y1="15.733533011518826" x2="21.237614422763162" y2="19.219213420507714" class="delaunay-line"/>
<line x1="11.81116115314584" y1="13.602770675886651" x2="13.252799582184982" y2="16.508873523367246" class="delaunay-line"/>
<line x1="13.252799582184982" y1="16.508873523367246" x2="15.018651450251774" y2="15.733533011518826" class="delaunay-line"/>
<line x1="15.018651450251774" y1="15.733533011518826" x2="11.81116115314584" y2="13.602770675886651" class="delaunay-line"/>
<line x1="18.372536834891328" y1="32.44848396610889" x2="22.253451866060765" y2="31.986540659790297" class="delaunay-line"/>
<line x1="22.253451866060765" y1="31.986540659790297" x2="19.751618136965366" y2="29.617592975978393" class="delaunay-line"/>
<line x1="19.751618136965366" y1="29.617592975978393" x2="18.372536834891328" y2="32.44848396610889" class="delaunay-line"/>
<line x1="22.253451866060765" y1="31.986540659790297" x2="28.143214966746747" y2="33.13139463204956" class="delaunay-line"/>
<line x1="28.143214966746747" y1="33.13139463204956" x2="25.660464655038613" y2="28.575703909976813" class="delaunay-line"/>
<line x1="25.660464655038613" y1="28.575703909976813" x2="22.253451866060765" y2="31.986540659790297" class="delaunay-line"/>
<line x1="21.07384796372958" y1="11.288021291494024" x2="20.590885050585047" y2="11.417430814045284" class="delaunay-line"/>
<line x1="20.590885050585047" y1="11.417430814045284" x2="21.237614422763162" y2="19.219213420507714" class="delaunay-line"/>
<line x1="21.237614422763162" y1="19.219213420507714" x2="21.07384796372958" y2="11.288021291494024" class="delaunay-line"/>
<line x1="21.07384796372958" y1="11.288021291494024" x2="21.237614422763162" y2="19.219213420507714" class="delaunay-line"/>
<line x1="21.237614422763162" y1="19.219213420507714" x2="28.4952202131479" y2="13.411651791266307" class="delaunay-line"/>
<line x1="28.4952202131479" y1="13.411651791266307" x2="21.07384796372958" y2="11.288021291494024" class="delaunay-line"/>
<line x1="15.018651450251774" y1="15.733533011518826" x2="13.252799582184982" y2="16.508873523367246" class="delaunay-line"/>
<line x1="13.252799582184982" y1="16.508873523367246" x2="13.752799582184982" y2="16.508873523367246" class="delaunay-line"/>
<line x1="13.752799582184982" y1="16.508873523367246" x2="15.018651450251774" y2="15.733533011518826" class="delaunay-line"/>
<line x1="28.340711715960428" y1="12.93612353311873" x2="21.07384796372958" y2="11.288021291494024" class="delaunay-line"/>
<line x1="21.07384796372958" y1="11.288021291494024" x2="28.4952202131479" y2="13.411651791266307" class="delaunay-line"/>
<line x1="28.4952202131479" y1="13.411651791266307" x2="28.340711715960428" y2="12.93612353311873" class="delaunay-line"/>
<line x1="11.524372934970316" y1="14.012346698031147" x2="13.252799582184982" y2="16.508873523367246" class="delaunay-line"/>
<line x1="13.252799582184982" y1="16.508873523367246" x2="11.81116115314584" y2="13.602770675886651" class="delaunay-line"/>
<line x1="11.81116115314584" y1="13.602770675886651" x2="11.524372934970316" y2="14.012346698031147" class="delaunay-line"/>
<line x1="13.752799582184982" y1="16.508873523367246" x2="11.96563148265614" y2="19.671153617761274" class="delaunay-line"/>
<line x1="11.96563148265614" y1="19.671153617761274" x2="16.208272169775423" y2="23.913794304880557" class="delaunay-line"/>
<line x1="16.208272169775423" y1="23.913794304880557" x2="13.752799582184982" y2="16.508873523367246" class="delaunay-line"/>
<line x1="13.252799582184982" y1="16.508873523367246" x2="11.96563148265614" y2="19.671153617761274" class="delaunay-line"/>
<line x1="11.96563148265614" y1="19.671153617761274" x2="13.752799582184982" y2="16.508873523367246" class="delaunay-line"/>
<line x1="13.752799582184982" y1="16.508873523367246" x2="13.252799582184982" y2="16.508873523367246" class="delaunay-line"/>
<line x1="15.85471877918215" y1="24.267347695473834" x2="12.050905637021524" y2="25.784285218732524" class="delaunay-line"/>
<line x1="12.050905637021524" y1="25.784285218732524" x2="17.724017090617423" y2="27.737694145475462" class="delaunay-line"/>
<line x1="17.724017090617423" y1="27.737694145475462" x2="15.85471877918215" y2="24.267347695473834" class="delaunay-line"/>
<line x1="11.612078092062866" y1="20.02470700835455" x2="12.213689714250103" y2="25.311525930932863" class="delaunay-line"/>
<line x1="12.213689714250103" y1="25.311525930932863" x2="15.85471877918215" y2="24.267347695473834" class="delaunay-line"/>
<line x1="15.85471877918215" y1="24.267347695473834" x2="11.612078092062866" y2="20.02470700835455" class="delaunay-line"/>
<line x1="17.724017090617423" y1="27.737694145475462" x2="18.372536834891328" y2="32.44848396610889" class="delaunay-line"/>
<line x1="18.372536834891328" y1="32.44848396610889" x2="19.751618136965366" y2="29.617592975978393" class="delaunay-line"/>
<line x1="19.751618136965366" y1="29.617592975978393" x2="17.724017090617423" y2="27.737694145475462" class="delaunay-line"/>
<line x1="10.453243237115695" y1="20.695033950532668" x2="11.612078092062866" y2="20.02470700835455" class="delaunay-line"/>
<line x1="11.612078092062866" y1="20.02470700835455" x2="9.865457984823221" y2="19.886016956157718" class="delaunay-line"/>
<line x1="9.865457984823221" y1="19.886016956157718" x2="10.453243237115695" y2="20.695033950532668" class="delaunay-line"/>
<line x1="11.96563148265614" y1="19.671153617761274" x2="11.612078092062866" y2="20.02470700835455" class="delaunay-line"/>
<line x1="11.612078092062866" y1="20.02470700835455" x2="16.208272169775423" y2="23.913794304880557" class="delaunay-line"/>
<line x1="16.208272169775423" y1="23.913794304880557" x2="11.96563148265614" y2="19.671153617761274" class="delaunay-line"/>
<line x1="10.453243237115695" y1="20.695033950532668" x2="12.050905637021524" y2="25.784285218732524" class="delaunay-line"/>
<line x1="12.050905637021524" y1="25.784285218732524" x2="12.213689714250103" y2="25.311525930932863" class="delaunay-line"/>
<line x1="12.213689714250103" y1="25.311525930932863" x2="10.453243237115695" y2="20.695033950532668" class="delaunay-line"/>
<line x1="12.213689714250103" y1="25.311525930932863" x2="12.050905637021524" y2="25.784285218732524" class="delaunay-line"/>
<line x1="12.050905637021524" y1="25.784285218732524" x2="15.85471877918215" y2="24.267347695473834" class="delaunay-line"/>
<line x1="15.85471877918215" y1="24.267347695473834" x2="12.213689714250103" y2="25.311525930932863" class="delaunay-line"/>
<line x1="12.771054275908115" y1="30.29827626883709" x2="18.372536834891328" y2="32.44848396610889" class="delaunay-line"/>
<line x1="18.372536834891328" y1="32.44848396610889" x2="17.724017090617423" y2="27.737694145475462" class="delaunay-line"/>
<line x1="17.724017090617423" y1="27.737694145475462" x2="12.771054275908115" y2="30.29827626883709" class="delaunay-line"/>
<line x1="12.591870301135467" y1="30.76506648208569" x2="18.19335286011868" y2="32.91527417935749" class="delaunay-line"/>
<line x1="18.19335286011868" y1="32.91527417935749" x2="18.372536834891328" y2="32.44848396610889" class="delaunay-line"/>
<line x1="18.372536834891328" y1="32.44848396610889" x2="12.591870301135467" y2="30.76506648208569" class="delaunay-line"/>
<line x1="18.372536834891328" y1="32.44848396610889" x2="18.19335286011868" y2="32.91527417935749" class="delaunay-line"/>
<line x1="18.19335286011868" y1="32.91527417935749" x2="22.158047368372493" y2="32.47735425151413" class="delaunay-line"/>
<line x1="22.158047368372493" y1="32.47735425151413" x2="18.372536834891328" y2="32.44848396610889" class="delaunay-line"/>
<line x1="9.865457984823221" y1="19.886016956157718" x2="11.612078092062866" y2="20.02470700835455" class="delaunay-line"/>
<line x1="11.612078092062866" y1="20.02470700835455" x2="11.96563148265614" y2="19.671153617761274" class="delaunay-line"/>
<line x1="11.96563148265614" y1="19.671153617761274" x2="9.865457984823221" y2="19.886016956157718" class="delaunay-line"/>
<line x1="11.612078092062866" y1="20.02470700835455" x2="10.453243237115695" y2="20.695033950532668" class="delaunay-line"/>
<line x1="10.453243237115695" y1="20.695033950532668" x2="12.213689714250103" y2="25.311525930932863" class="delaunay-line"/>
<line x1="12.213689714250103" y1="25.311525930932863" x2="11.612078092062866" y2="20.02470700835455" class="delaunay-line"/>
<line x1="22.158047368372493" y1="32.47735425151413" x2="28.143214966746747" y2="33.13139463204956" class="delaunay-line"/>
<line x1="28.143214966746747" y1="33.13139463204956" x2="22.253451866060765" y2="31.986540659790297" class="delaunay-line"/>
<line x1="22.253451866060765" y1="31.986540659790297" x2="22.158047368372493" y2="32.47735425151413" class="delaunay-line"/>
<line x1="28.047810469058476" y1="33.6222082237734" x2="28.143214966746747" y2="33.13139463204956" class="delaunay-line"/>
<line x1="28.143214966746747" y1="33.13139463204956" x2="22.158047368372493" y2="32.47735425151413" class="delaunay-line"/>
<line x1="22.158047368372493" y1="32.47735425151413" x2="28.047810469058476" y2="33.6222082237734" class="delaunay-line"/>
<line x1="13.252799582184982" y1="16.508873523367246" x2="9.865457984823221" y2="19.886016956157718" class="delaunay-line"/>
<line x1="9.865457984823221" y1="19.886016956157718" x2="11.96563148265614" y2="19.671153617761274" class="delaunay-line"/>
<line x1="11.96563148265614" y1="19.671153617761274" x2="13.252799582184982" y2="16.508873523367246" class="delaunay-line"/>
<line x1="3.9811072821161155" y1="25.397315968872455" x2="5.7387099162995465" y2="30.244627355640908" class="delaunay-line"/>
<line x1="5.7387099162995465" y1="30.244627355640908" x2="12.050905637021524" y2="25.784285218732524" class="delaunay-line"/>
<line x1="12.050905637021524" y1="25.784285218732524" x2="3.9811072821161155" y2="25.397315968872455" class="delaunay-line"/>
<line x1="12.050905637021524" y1="25.784285218732524" x2="12.771054275908115" y2="30.29827626883709" class="delaunay-line"/>
<line x1="12.771054275908115" y1="30.29827626883709" x2="17.724017090617423" y2="27.737694145475462" class="delaunay-line"/>
<line x1="17.724017090617423" y1="27.737694145475462" x2="12.050905637021524" y2="25.784285218732524" class="delaunay-line"/>
<line x1="12.591870301135467" y1="30.76506648208569" x2="12.771054275908115" y2="30.29827626883709" class="delaunay-line"/>
<line x1="12.771054275908115" y1="30.29827626883709" x2="5.7387099162995465" y2="30.244627355640908" class="delaunay-line"/>
<line x1="5.7387099162995465" y1="30.244627355640908" x2="12.591870301135467" y2="30.76506648208569" class="delaunay-line"/>
<line x1="18.19335286011868" y1="32.91527417935749" x2="28.047810469058476" y2="33.6222082237734" class="delaunay-line"/>
<line x1="28.047810469058476" y1="33.6222082237734" x2="22.158047368372493" y2="32.47735425151413" class="delaunay-line"/>
<line x1="22.158047368372493" y1="32.47735425151413" x2="18.19335286011868" y2="32.91527417935749" class="delaunay-line"/>
<line x1="34.46765625135927" y1="28.414662426396724" x2="34.3214703989979" y2="27.936510048415208" class="delaunay-line"/>
<line x1="34.3214703989979" y1="27.936510048415208" x2="28.729827715581063" y2="30.16889265473315" class="delaunay-line"/>
<line x1="28.729827715581063" y1="30.16889265473315" x2="34.46765625135927" y2="28.414662426396724" class="delaunay-line"/>
<line x1="34.047050813731346" y1="11.082021566869043" x2="27.63819638631058" y2="9.879647133287229" class="delaunay-line"/>
<line x1="27.63819638631058" y1="9.879647133287229" x2="28.340711715960428" y2="12.93612353311873" class="delaunay-line"/>
<line x1="28.340711715960428" y1="12.93612353311873" x2="34.047050813731346" y2="11.082021566869043" class="delaunay-line"/>
<line x1="28.340711715960428" y1="12.93612353311873" x2="27.63819638631058" y2="9.879647133287229" class="delaunay-line"/>
<line x1="27.63819638631058" y1="9.879647133287229" x2="21.07384796372958" y2="11.288021291494024" class="delaunay-line"/>
<line x1="21.07384796372958" y1="11.288021291494024" x2="28.340711715960428" y2="12.93612353311873" class="delaunay-line"/>
<line x1="34.46765625135927" y1="28.414662426396724" x2="28.729827715581063" y2="30.16889265473315" class="delaunay-line"/>
<line x1="28.729827715581063" y1="30.16889265473315" x2="28.143214966746747" y2="33.13139463204956" class="delaunay-line"/>
<line x1="28.143214966746747" y1="33.13139463204956" x2="34.46765625135927" y2="28.414662426396724" class="delaunay-line"/>
<line x1="28.729827715581063" y1="30.16889265473315" x2="34.3214703989979" y2="27.936510048415208" class="delaunay-line"/>
<line x1="34.3214703989979" y1="27.936510048415208" x2="28.583641863219693" y2="29.690740276751633" class="delaunay-line"/>
<line x1="28.583641863219693" y1="29.690740276751633" x2="28.729827715581063" y2="30.16889265473315" class="delaunay-line"/>
<line x1="28.4952202131479" y1="13.411651791266307" x2="34.20155931091882" y2="11.55754982501662" class="delaunay-line"/>
<line x1="34.20155931091882" y1="11.55754982501662" x2="28.340711715960428" y2="12.93612353311873" class="delaunay-line"/>
<line x1="28.340711715960428" y1="12.93612353311873" x2="28.4952202131479" y2="13.411651791266307" class="delaunay-line"/>
<line x1="27.63819638631058" y1="9.879647133287229" x2="27.323536190785664" y2="9.491074152558744" class="delaunay-line"/>
<line x1="27.323536190785664" y1="9.491074152558744" x2="21.07384796372958" y2="11.288021291494024" class="delaunay-line"/>
<line x1="21.07384796372958" y1="11.288021291494024" x2="27.63819638631058" y2="9.879647133287229" class="delaunay-line"/>
<line x1="16.83272232742295" y1="8.455661215091894" x2="15.518651450251774" y2="9.733533011518826" class="delaunay-line"/>
<line x1="15.518651450251774" y1="9.733533011518826" x2="20.590885050585047" y2="11.417430814045284" class="delaunay-line"/>
<line x1="20.590885050585047" y1="11.417430814045284" x2="16.83272232742295" y2="8.455661215091894" class="delaunay-line"/>
<line x1="12.771054275908115" y1="30.29827626883709" x2="12.591870301135467" y2="30.76506648208569" class="delaunay-line"/>
<line x1="12.591870301135467" y1="30.76506648208569" x2="18.372536834891328" y2="32.44848396610889" class="delaunay-line"/>
<line x1="18.372536834891328" y1="32.44848396610889" x2="12.771054275908115" y2="30.29827626883709" class="delaunay-line"/>
<line x1="11.036395473453107" y1="33.06145673235625" x2="12.591870301135467" y2="30.76506648208569" class="delaunay-line"/>
<line x1="12.591870301135467" y1="30.76506648208569" x2="5.7387099162995465" y2="30.244627355640908" class="delaunay-line"/>
<line x1="5.7387099162995465" y1="30.244627355640908" x2="11.036395473453107" y2="33.06145673235625" class="delaunay-line"/>
<line x1="36" y1="36" x2="34.46765625135927" y2="28.414662426396724" class="delaunay-line"/>
<line x1="34.46765625135927" y1="28.414662426396724" x2="28.143214966746747" y2="33.13139463204956" class="delaunay-line"/>
<line x1="28.143214966746747" y1="33.13139463204956" x2="36" y2="36" class="delaunay-line"/>
<line x1="11.81116115314584" y1="13.602770675886651" x2="15.018651450251774" y2="15.733533011518826" class="delaunay-line"/>
<line x1="15.018651450251774" y1="15.733533011518826" x2="13.752799582184982" y2="10.508873523367246" class="delaunay-line"/>
<line x1="13.752799582184982" y1="10.508873523367246" x2="11.81116115314584" y2="13.602770675886651" class="delaunay-line"/>
<line x1="13.252799582184982" y1="16.508873523367246" x2="11.524372934970316" y2="14.012346698031147" class="delaunay-line"/>
<line x1="11.524372934970316" y1="14.012346698031147" x2="9.865457984823221" y2="19.886016956157718" class="delaunay-line"/>
<line x1="9.865457984823221" y1="19.886016956157718" x2="13.252799582184982" y2="16.508873523367246" class="delaunay-line"/>
<line x1="13.752799582184982" y1="10.508873523367246" x2="15.018651450251774" y2="15.733533011518826" class="delaunay-line"/>
<line x1="15.018651450251774" y1="15.733533011518826" x2="15.518651450251774" y2="15.733533011518826" class="delaunay-line"/>
<line x1="15.518651450251774" y1="15.733533011518826" x2="13.752799582184982" y2="10.508873523367246" class="delaunay-line"/>
<line x1="15.518651450251774" y1="9.733533011518826" x2="15.518651450251774" y2="15.733533011518826" class="delaunay-line"/>
<line x1="15.518651450251774" y1="15.733533011518826" x2="20.590885050585047" y2="11.417430814045284" class="delaunay-line"/>
<line x1="20.590885050585047" y1="11.417430814045284" x2="15.518651450251774" y2="9.733533011518826" class="delaunay-line"/>
<line x1="16.83272232742295" y1="8.455661215091894" x2="20.590885050585047" y2="11.417430814045284" class="delaunay-line"/>
<line x1="20.590885050585047" y1="11.417430814045284" x2="19.03797077996992" y2="5.621875856310874" class="delaunay-line"/>
<line x1="19.03797077996992" y1="5.621875856310874" x2="16.83272232742295" y2="8.455661215091894" class="delaunay-line"/>
<line x1="15.83272232742295" y1="8.455661215091894" x2="15.018651450251774" y2="9.733533011518826" class="delaunay-line"/>
<line x1="15.018651450251774" y1="9.733533011518826" x2="15.518651450251774" y2="9.733533011518826" class="delaunay-line"/>
<line x1="15.518651450251774" y1="9.733533011518826" x2="15.83272232742295" y2="8.455661215091894" class="delaunay-line"/>
<line x1="15.518651450251774" y1="9.733533011518826" x2="13.752799582184982" y2="10.508873523367246" class="delaunay-line"/>
<line x1="13.752799582184982" y1="10.508873523367246" x2="15.518651450251774" y2="15.733533011518826" class="delaunay-line"/>
<line x1="15.518651450251774" y1="15.733533011518826" x2="15.518651450251774" y2="9.733533011518826" class="delaunay-line"/>
<line x1="15.018651450251774" y1="9.733533011518826" x2="13.752799582184982" y2="10.508873523367246" class="delaunay-line"/>
<line x1="13.752799582184982" y1="10.508873523367246" x2="15.518651450251774" y2="9.733533011518826" class="delaunay-line"/>
<line x1="15.518651450251774" y1="9.733533011518826" x2="15.018651450251774" y2="9.733533011518826" class="delaunay-line"/>
<line x1="6.896248887411886" y1="10.161312057780377" x2="6.609460669236363" y2="10.570888079924872" class="delaunay-line"/>
<line x1="6.609460669236363" y1="10.570888079924872" x2="11.524372934970316" y2="14.012346698031147" class="delaunay-line"/>
<line x1="11.524372934970316" y1="14.012346698031147" x2="6.896248887411886" y2="10.161312057780377" class="delaunay-line"/>
<line x1="19.03797077996992" y1="5.621875856310874" x2="20.590885050585047" y2="11.417430814045284" class="delaunay-line"/>
<line x1="20.590885050585047" y1="11.417430814045284" x2="19.520933693114454" y2="5.492466333759614" class="delaunay-line"/>
<line x1="19.520933693114454" y1="5.492466333759614" x2="19.03797077996992" y2="5.621875856310874" class="delaunay-line"/>
<line x1="15.018651450251774" y1="9.733533011518826" x2="13.252799582184982" y2="10.508873523367246" class="delaunay-line"/>
<line x1="13.252799582184982" y1="10.508873523367246" x2="13.752799582184982" y2="10.508873523367246" class="delaunay-line"/>
<line x1="13.752799582184982" y1="10.508873523367246" x2="15.018651450251774" y2="9.733533011518826" class="delaunay-line"/>
<line x1="10.378611860575454" y1="8.581278749737114" x2="13.252799582184982" y2="10.508873523367246" class="delaunay-line"/>
<line x1="13.252799582184982" y1="10.508873523367246" x2="15.018651450251774" y2="9.733533011518826" class="delaunay-line"/>
<line x1="15.018651450251774" y1="9.733533011518826" x2="10.378611860575454" y2="8.581278749737114" class="delaunay-line"/>
<line x1="13.752799582184982" y1="10.508873523367246" x2="13.252799582184982" y2="10.508873523367246" class="delaunay-line"/>
<line x1="13.252799582184982" y1="10.508873523367246" x2="11.81116115314584" y2="13.602770675886651" class="delaunay-line"/>
<line x1="11.81116115314584" y1="13.602770675886651" x2="13.752799582184982" y2="10.508873523367246" class="delaunay-line"/>
<line x1="16.83272232742295" y1="8.455661215091894" x2="15.83272232742295" y2="8.455661215091894" class="delaunay-line"/>
<line x1="15.83272232742295" y1="8.455661215091894" x2="15.518651450251774" y2="9.733533011518826" class="delaunay-line"/>
<line x1="15.518651450251774" y1="9.733533011518826" x2="16.83272232742295" y2="8.455661215091894" class="delaunay-line"/>
<line x1="27.63819638631058" y1="9.879647133287229" x2="32.3010721550524" y2="6.103724786988207" class="delaunay-line"/>
<line x1="32.3010721550524" y1="6.103724786988207" x2="27.323536190785664" y2="9.491074152558744" class="delaunay-line"/>
<line x1="27.323536190785664" y1="9.491074152558744" x2="27.63819638631058" y2="9.879647133287229" class="delaunay-line"/>
<line x1="34.3214703989979" y1="27.936510048415208" x2="34.20155931091882" y2="11.55754982501662" class="delaunay-line"/>
<line x1="34.20155931091882" y1="11.55754982501662" x2="28.4952202131479" y2="13.411651791266307" class="delaunay-line"/>
<line x1="28.4952202131479" y1="13.411651791266307" x2="34.3214703989979" y2="27.936510048415208" class="delaunay-line"/>
<line x1="34.46765625135927" y1="28.414662426396724" x2="34.20155931091882" y2="11.55754982501662" class="delaunay-line"/>
<line x1="34.20155931091882" y1="11.55754982501662" x2="34.3214703989979" y2="27.936510048415208" class="delaunay-line"/>
<line x1="34.3214703989979" y1="27.936510048415208" x2="34.46765625135927" y2="28.414662426396724" class="delaunay-line"/>
<line x1="34.20155931091882" y1="11.55754982501662" x2="34.047050813731346" y2="11.082021566869043" class="delaunay-line"/>
<line x1="34.047050813731346" y1="11.082021566869043" x2="28.340711715960428" y2="12.93612353311873" class="delaunay-line"/>
<line x1="28.340711715960428" y1="12.93612353311873" x2="34.20155931091882" y2="11.55754982501662" class="delaunay-line"/>
<line x1="5.7387099162995465" y1="30.244627355640908" x2="12.771054275908115" y2="30.29827626883709" class="delaunay-line"/>
<line x1="12.771054275908115" y1="30.29827626883709" x2="12.050905637021524" y2="25.784285218732524" class="delaunay-line"/>
<line x1="12.050905637021524" y1="25.784285218732524" x2="5.7387099162995465" y2="30.244627355640908" class="delaunay-line"/>
<line x1="12.591870301135467" y1="30.76506648208569" x2="11.036395473453107" y2="33.06145673235625" class="delaunay-line"/>
<line x1="11.036395473453107" y1="33.06145673235625" x2="18.19335286011868" y2="32.91527417935749" class="delaunay-line"/>
<line x1="18.19335286011868" y1="32.91527417935749" x2="12.591870301135467" y2="30.76506648208569" class="delaunay-line"/>
<line x1="18.19335286011868" y1="32.91527417935749" x2="36" y2="36" class="delaunay-line"/>
<line x1="36" y1="36" x2="28.047810469058476" y2="33.6222082237734" class="delaunay-line"/>
<line x1="28.047810469058476" y1="33.6222082237734" x2="18.19335286011868" y2="32.91527417935749" class="delaunay-line"/>
<line x1="6.4658952509916325" y1="17.98316714316927" x2="6.4658952509916325" y2="18.48316714316927" class="delaunay-line"/>
<line x1="6.4658952509916325" y1="18.48316714316927" x2="9.865457984823221" y2="19.886016956157718" class="delaunay-line"/>
<line x1="9.865457984823221" y1="19.886016956157718" x2="6.4658952509916325" y2="17.98316714316927" class="delaunay-line"/>
<line x1="3.393322029823642" y1="24.588298974497505" x2="3.9811072821161155" y2="25.397315968872455" class="delaunay-line"/>
<line x1="3.9811072821161155" y1="25.397315968872455" x2="10.453243237115695" y2="20.695033950532668" class="delaunay-line"/>
<line x1="10.453243237115695" y1="20.695033950532668" x2="3.393322029823642" y2="24.588298974497505" class="delaunay-line"/>
<line x1="6.4658952509916325" y1="17.98316714316927" x2="9.865457984823221" y2="19.886016956157718" class="delaunay-line"/>
<line x1="9.865457984823221" y1="19.886016956157718" x2="11.524372934970316" y2="14.012346698031147" class="delaunay-line"/>
<line x1="11.524372934970316" y1="14.012346698031147" x2="6.4658952509916325" y2="17.98316714316927" class="delaunay-line"/>
<line x1="5.503974134906601" y1="30.686101152070375" x2="10.801659692060161" y2="33.50293052878572" class="delaunay-line"/>
<line x1="10.801659692060161" y1="33.50293052878572" x2="11.036395473453107" y2="33.06145673235625" class="delaunay-line"/>
<line x1="11.036395473453107" y1="33.06145673235625" x2="5.503974134906601" y2="30.686101152070375" class="delaunay-line"/>
<line x1="11.036395473453107" y1="33.06145673235625" x2="10.801659692060161" y2="33.50293052878572" class="delaunay-line"/>
<line x1="10.801659692060161" y1="33.50293052878572" x2="18.19335286011868" y2="32.91527417935749" class="delaunay-line"/>
<line x1="18.19335286011868" y1="32.91527417935749" x2="11.036395473453107" y2="33.06145673235625" class="delaunay-line"/>
<line x1="6.609460669236363" y1="10.570888079924872" x2="6.4658952509916325" y2="17.98316714316927" class="delaunay-line"/>
<line x1="6.4658952509916325" y1="17.98316714316927" x2="11.524372934970316" y2="14.012346698031147" class="delaunay-line"/>
<line x1="11.524372934970316" y1="14.012346698031147" x2="6.609460669236363" y2="10.570888079924872" class="delaunay-line"/>
<line x1="19.520933693114454" y1="5.492466333759614" x2="21.07384796372958" y2="11.288021291494024" class="delaunay-line"/>
<line x1="21.07384796372958" y1="11.288021291494024" x2="26.045924105069126" y2="4.2148040795875295" class="delaunay-line"/>
<line x1="26.045924105069126" y1="4.2148040795875295" x2="19.520933693114454" y2="5.492466333759614" class="delaunay-line"/>
<line x1="19.520933693114454" y1="5.492466333759614" x2="20.590885050585047" y2="11.417430814045284" class="delaunay-line"/>
<line x1="20.590885050585047" y1="11.417430814045284" x2="21.07384796372958" y2="11.288021291494024" class="delaunay-line"/>
<line x1="21.07384796372958" y1="11.288021291494024" x2="19.520933693114454" y2="5.492466333759614" class="delaunay-line"/>
<line x1="16.83272232742295" y1="8.455661215091894" x2="19.03797077996992" y2="5.621875856310874" class="delaunay-line"/>
<line x1="19.03797077996992" y1="5.621875856310874" x2="15.83272232742295" y2="8.455661215091894" class="delaunay-line"/>
<line x1="15.83272232742295" y1="8.455661215091894" x2="16.83272232742295" y2="8.455661215091894" class="delaunay-line"/>
<line x1="10.378611860575454" y1="8.581278749737114" x2="10.352443882453983" y2="9.0805935171144" class="delaunay-line"/>
<line x1="10.352443882453983" y1="9.0805935171144" x2="13.252799582184982" y2="10.508873523367246" class="delaunay-line"/>
<line x1="13.252799582184982" y1="10.508873523367246" x2="10.378611860575454" y2="8.581278749737114" class="delaunay-line"/>
<line x1="26.045924105069126" y1="4.2148040795875295" x2="21.07384796372958" y2="11.288021291494024" class="delaunay-line"/>
<line x1="21.07384796372958" y1="11.288021291494024" x2="27.323536190785664" y2="9.491074152558744" class="delaunay-line"/>
<line x1="27.323536190785664" y1="9.491074152558744" x2="26.045924105069126" y2="4.2148040795875295" class="delaunay-line"/>
<line x1="10.378611860575454" y1="8.581278749737114" x2="15.018651450251774" y2="9.733533011518826" class="delaunay-line"/>
<line x1="15.018651450251774" y1="9.733533011518826" x2="15.83272232742295" y2="8.455661215091894" class="delaunay-line"/>
<line x1="15.83272232742295" y1="8.455661215091894" x2="10.378611860575454" y2="8.581278749737114" class="delaunay-line"/>
<line x1="13.252799582184982" y1="10.508873523367246" x2="10.352443882453983" y2="9.0805935171144" class="delaunay-line"/>
<line x1="10.352443882453983" y1="9.0805935171144" x2="11.81116115314584" y2="13.602770675886651" class="delaunay-line"/>
<line x1="11.81116115314584" y1="13.602770675886651" x2="13.252799582184982" y2="10.508873523367246" class="delaunay-line"/>
<line x1="26.200432602256598" y1="3.7392758214399526" x2="26.045924105069126" y2="4.2148040795875295" class="delaunay-line"/>
<line x1="26.045924105069126" y1="4.2148040795875295" x2="31.98641195952749" y2="5.715151806259722" class="delaunay-line"/>
<line x1="31.98641195952749" y1="5.715151806259722" x2="26.200432602256598" y2="3.7392758214399526" class="delaunay-line"/>
<line x1="13.6683117551629" y1="3.603777212319416" x2="10.378611860575454" y2="8.581278749737114" class="delaunay-line"/>
<line x1="10.378611860575454" y1="8.581278749737114" x2="15.83272232742295" y2="8.455661215091894" class="delaunay-line"/>
<line x1="15.83272232742295" y1="8.455661215091894" x2="13.6683117551629" y2="3.603777212319416" class="delaunay-line"/>
<line x1="6.896248887411886" y1="10.161312057780377" x2="11.524372934970316" y2="14.012346698031147" class="delaunay-line"/>
<line x1="11.524372934970316" y1="14.012346698031147" x2="11.81116115314584" y2="13.602770675886651" class="delaunay-line"/>
<line x1="11.81116115314584" y1="13.602770675886651" x2="6.896248887411886" y2="10.161312057780377" class="delaunay-line"/>
<line x1="31.98641195952749" y1="5.715151806259722" x2="26.045924105069126" y2="4.2148040795875295" class="delaunay-line"/>
<line x1="26.045924105069126" y1="4.2148040795875295" x2="27.323536190785664" y2="9.491074152558744" class="delaunay-line"/>
<line x1="27.323536190785664" y1="9.491074152558744" x2="31.98641195952749" y2="5.715151806259722" class="delaunay-line"/>
<line x1="26.045924105069126" y1="4.2148040795875295" x2="20.339585007298204" y2="2.3607021133378456" class="delaunay-line"/>
<line x1="20.339585007298204" y1="2.3607021133378456" x2="19.520933693114454" y2="5.492466333759614" class="delaunay-line"/>
<line x1="19.520933693114454" y1="5.492466333759614" x2="26.045924105069126" y2="4.2148040795875295" class="delaunay-line"/>
<line x1="34.047050813731346" y1="11.082021566869043" x2="32.3010721550524" y2="6.103724786988207" class="delaunay-line"/>
<line x1="32.3010721550524" y1="6.103724786988207" x2="27.63819638631058" y2="9.879647133287229" class="delaunay-line"/>
<line x1="27.63819638631058" y1="9.879647133287229" x2="34.047050813731346" y2="11.082021566869043" class="delaunay-line"/>
<line x1="32.3010721550524" y1="6.103724786988207" x2="31.98641195952749" y2="5.715151806259722" class="delaunay-line"/>
<line x1="31.98641195952749" y1="5.715151806259722" x2="27.323536190785664" y2="9.491074152558744" class="delaunay-line"/>
<line x1="27.323536190785664" y1="9.491074152558744" x2="32.3010721550524" y2="6.103724786988207" class="delaunay-line"/>
<line x1="10.453243237115695" y1="20.695033950532668" x2="9.865457984823221" y2="19.886016956157718" class="delaunay-line"/>
<line x1="9.865457984823221" y1="19.886016956157718" x2="3.393322029823642" y2="24.588298974497505" class="delaunay-line"/>
<line x1="3.393322029823642" y1="24.588298974497505" x2="10.453243237115695" y2="20.695033950532668" class="delaunay-line"/>
<line x1="3.9811072821161155" y1="25.397315968872455" x2="12.050905637021524" y2="25.784285218732524" class="delaunay-line"/>
<line x1="12.050905637021524" y1="25.784285218732524" x2="10.453243237115695" y2="20.695033950532668" class="delaunay-line"/>
<line x1="10.453243237115695" y1="20.695033950532668" x2="3.9811072821161155" y2="25.397315968872455" class="delaunay-line"/>
<line x1="3.393322029823642" y1="24.588298974497505" x2="9.865457984823221" y2="19.886016956157718" class="delaunay-line"/>
<line x1="9.865457984823221" y1="19.886016956157718" x2="6.4658952509916325" y2="18.48316714316927" class="delaunay-line"/>
<line x1="6.4658952509916325" y1="18.48316714316927" x2="3.393322029823642" y2="24.588298974497505" class="delaunay-line"/>
<line x1="3.9811072821161155" y1="25.397315968872455" x2="5.503974134906601" y2="30.686101152070375" class="delaunay-line"/>
<line x1="5.503974134906601" y1="30.686101152070375" x2="5.7387099162995465" y2="30.244627355640908" class="delaunay-line"/>
<line x1="5.7387099162995465" y1="30.244627355640908" x2="3.9811072821161155" y2="25.397315968872455" class="delaunay-line"/>
<line x1="5.7387099162995465" y1="30.244627355640908" x2="5.503974134906601" y2="30.686101152070375" class="delaunay-line"/>
<line x1="5.503974134906601" y1="30.686101152070375" x2="11.036395473453107" y2="33.06145673235625" class="delaunay-line"/>
<line x1="11.036395473453107" y1="33.06145673235625" x2="5.7387099162995465" y2="30.244627355640908" class="delaunay-line"/>
<line x1="0.46589525099163254" y1="18.48316714316927" x2="3.393322029823642" y2="24.588298974497505" class="delaunay-line"/>
<line x1="3.393322029823642" y1="24.588298974497505" x2="6.4658952509916325" y2="18.48316714316927" class="delaunay-line"/>
<line x1="6.4658952509916325" y1="18.48316714316927" x2="0.46589525099163254" y2="18.48316714316927" class="delaunay-line"/>
<line x1="3.9811072821161155" y1="25.397315968872455" x2="0" y2="36" class="delaunay-line"/>
<line x1="0" y1="36" x2="5.503974134906601" y2="30.686101152070375" class="delaunay-line"/>
<line x1="5.503974134906601" y1="30.686101152070375" x2="3.9811072821161155" y2="25.397315968872455" class="delaunay-line"/>
<line x1="0.46589525099163254" y1="18.48316714316927" x2="6.4658952509916325" y2="18.48316714316927" class="delaunay-line"/>
<line x1="6.4658952509916325" y1="18.48316714316927" x2="6.4658952509916325" y2="17.98316714316927" class="delaunay-line"/>
<line x1="6.4658952509916325" y1="17.98316714316927" x2="0.46589525099163254" y2="18.48316714316927" class="delaunay-line"/>
<line x1="10.801659692060161" y1="33.50293052878572" x2="36" y2="36" class="delaunay-line"/>
<line x1="36" y1="36" x2="18.19335286011868" y2="32.91527417935749" class="delaunay-line"/>
<line x1="18.19335286011868" y1="32.91527417935749" x2="10.801659692060161" y2="33.50293052878572" class="delaunay-line"/>
<line x1="28.047810469058476" y1="33.6222082237734" x2="36" y2="36" class="delaunay-line"/>
<line x1="36" y1="36" x2="28.143214966746747" y2="33.13139463204956" class="delaunay-line"/>
<line x1="28.143214966746747" y1="33.13139463204956" x2="28.047810469058476" y2="33.6222082237734" class="delaunay-line"/>
<line x1="34.46765625135927" y1="28.414662426396724" x2="36" y2="36" class="delaunay-line"/>
<line x1="36" y1="36" x2="34.20155931091882" y2="11.55754982501662" class="delaunay-line"/>
<line x1="34.20155931091882" y1="11.55754982501662" x2="34.46765625135927" y2="28.414662426396724" class="delaunay-line"/>
<line x1="6.896248887411886" y1="10.161312057780377" x2="11.81116115314584" y2="13.602770675886651" class="delaunay-line"/>
<line x1="11.81116115314584" y1="13.602770675886651" x2="10.352443882453983" y2="9.0805935171144" class="delaunay-line"/>
<line x1="10.352443882453983" y1="9.0805935171144" x2="6.896248887411886" y2="10.161312057780377" class="delaunay-line"/>
<line x1="10.378611860575454" y1="8.581278749737114" x2="6.896248887411886" y2="10.161312057780377" class="delaunay-line"/>
<line x1="6.896248887411886" y1="10.161312057780377" x2="10.352443882453983" y2="9.0805935171144" class="delaunay-line"/>
<line x1="10.352443882453983" y1="9.0805935171144" x2="10.378611860575454" y2="8.581278749737114" class="delaunay-line"/>
<line x1="26.200432602256598" y1="3.7392758214399526" x2="20.339585007298204" y2="2.3607021133378456" class="delaunay-line"/>
<line x1="20.339585007298204" y1="2.3607021133378456" x2="26.045924105069126" y2="4.2148040795875295" class="delaunay-line"/>
<line x1="26.045924105069126" y1="4.2148040795875295" x2="26.200432602256598" y2="3.7392758214399526" class="delaunay-line"/>
<line x1="19.520933693114454" y1="5.492466333759614" x2="20.339585007298204" y2="2.3607021133378456" class="delaunay-line"/>
<line x1="20.339585007298204" y1="2.3607021133378456" x2="19.03797077996992" y2="5.621875856310874" class="delaunay-line"/>
<line x1="19.03797077996992" y1="5.621875856310874" x2="19.520933693114454" y2="5.492466333759614" class="delaunay-line"/>
<line x1="19.03797077996992" y1="5.621875856310874" x2="13.6683117551629" y2="3.603777212319416" class="delaunay-line"/>
<line x1="13.6683117551629" y1="3.603777212319416" x2="15.83272232742295" y2="8.455661215091894" class="delaunay-line"/>
<line x1="15.83272232742295" y1="8.455661215091894" x2="19.03797077996992" y2="5.621875856310874" class="delaunay-line"/>
<line x1="4.3868346520480115" y1="8.267263012279452" x2="4.3606666739265405" y2="8.766577779656737" class="delaunay-line"/>
<line x1="4.3606666739265405" y1="8.766577779656737" x2="6.896248887411886" y2="10.161312057780377" class="delaunay-line"/>
<line x1="6.896248887411886" y1="10.161312057780377" x2="4.3868346520480115" y2="8.267263012279452" class="delaunay-line"/>
<line x1="26.200432602256598" y1="3.7392758214399526" x2="20.494093504485676" y2="1.8851738551902688" class="delaunay-line"/>
<line x1="20.494093504485676" y1="1.8851738551902688" x2="20.339585007298204" y2="2.3607021133378456" class="delaunay-line"/>
<line x1="20.339585007298204" y1="2.3607021133378456" x2="26.200432602256598" y2="3.7392758214399526" class="delaunay-line"/>
<line x1="16.83272232742295" y1="0.45566121509189284" x2="13.6683117551629" y2="3.603777212319416" class="delaunay-line"/>
<line x1="13.6683117551629" y1="3.603777212319416" x2="19.03797077996992" y2="5.621875856310874" class="delaunay-line"/>
<line x1="19.03797077996992" y1="5.621875856310874" x2="16.83272232742295" y2="0.45566121509189284" class="delaunay-line"/>
<line x1="13.572907257474629" y1="3.1129636205955835" x2="13.6683117551629" y2="3.603777212319416" class="delaunay-line"/>
<line x1="13.6683117551629" y1="3.603777212319416" x2="15.83272232742295" y2="0.45566121509189284" class="delaunay-line"/>
<line x1="15.83272232742295" y1="0.45566121509189284" x2="13.572907257474629" y2="3.1129636205955835" class="delaunay-line"/>
<line x1="16.83272232742295" y1="0.45566121509189284" x2="19.03797077996992" y2="5.621875856310874" class="delaunay-line"/>
<line x1="19.03797077996992" y1="5.621875856310874" x2="20.339585007298204" y2="2.3607021133378456" class="delaunay-line"/>
<line x1="20.339585007298204" y1="2.3607021133378456" x2="16.83272232742295" y2="0.45566121509189284" class="delaunay-line"/>
<line x1="13.6683117551629" y1="3.603777212319416" x2="7.778548654476918" y2="4.748631184578689" class="delaunay-line"/>
<line x1="7.778548654476918" y1="4.748631184578689" x2="10.378611860575454" y2="8.581278749737114" class="delaunay-line"/>
<line x1="10.378611860575454" y1="8.581278749737114" x2="13.6683117551629" y2="3.603777212319416" class="delaunay-line"/>
<line x1="20.494093504485676" y1="1.8851738551902688" x2="16.83272232742295" y2="0.45566121509189284" class="delaunay-line"/>
<line x1="16.83272232742295" y1="0.45566121509189284" x2="20.339585007298204" y2="2.3607021133378456" class="delaunay-line"/>
<line x1="20.339585007298204" y1="2.3607021133378456" x2="20.494093504485676" y2="1.8851738551902688" class="delaunay-line"/>
<line x1="36" y1="0" x2="16.83272232742295" y2="0.45566121509189284" class="delaunay-line"/>
<line x1="16.83272232742295" y1="0.45566121509189284" x2="20.494093504485676" y2="1.8851738551902688" class="delaunay-line"/>
<line x1="20.494093504485676" y1="1.8851738551902688" x2="36" y2="0" class="delaunay-line"/>
<line x1="36" y1="0" x2="20.494093504485676" y2="1.8851738551902688" class="delaunay-line"/>
<line x1="20.494093504485676" y1="1.8851738551902688" x2="26.200432602256598" y2="3.7392758214399526" class="delaunay-line"/>
<line x1="26.200432602256598" y1="3.7392758214399526" x2="36" y2="0" class="delaunay-line"/>
<line x1="0.46589525099163254" y1="17.98316714316927" x2="6.4658952509916325" y2="17.98316714316927" class="delaunay-line"/>
<line x1="6.4658952509916325" y1="17.98316714316927" x2="6.609460669236363" y2="10.570888079924872" class="delaunay-line"/>
<line x1="6.609460669236363" y1="10.570888079924872" x2="0.46589525099163254" y2="17.98316714316927" class="delaunay-line"/>
<line x1="0.46589525099163254" y1="17.98316714316927" x2="0.46589525099163254" y2="18.48316714316927" class="delaunay-line"/>
<line x1="0.46589525099163254" y1="18.48316714316927" x2="6.4658952509916325" y2="17.98316714316927" class="delaunay-line"/>
<line x1="6.4658952509916325" y1="17.98316714316927" x2="0.46589525099163254" y2="17.98316714316927" class="delaunay-line"/>
<line x1="3.393322029823642" y1="24.588298974497505" x2="0" y2="36" class="delaunay-line"/>
<line x1="0" y1="36" x2="3.9811072821161155" y2="25.397315968872455" class="delaunay-line"/>
<line x1="3.9811072821161155" y1="25.397315968872455" x2="3.393322029823642" y2="24.588298974497505" class="delaunay-line"/>
<line x1="4.3606666739265405" y1="8.766577779656737" x2="0.46589525099163254" y2="17.98316714316927" class="delaunay-line"/>
<line x1="0.46589525099163254" y1="17.98316714316927" x2="6.609460669236363" y2="10.570888079924872" class="delaunay-line"/>
<line x1="6.609460669236363" y1="10.570888079924872" x2="4.3606666739265405" y2="8.766577779656737" class="delaunay-line"/>
<line x1="6.364823925568448" y1="5.750391394967838" x2="6.896248887411886" y2="10.161312057780377" class="delaunay-line"/>
<line x1="6.896248887411886" y1="10.161312057780377" x2="10.378611860575454" y2="8.581278749737114" class="delaunay-line"/>
<line x1="10.378611860575454" y1="8.581278749737114" x2="6.364823925568448" y2="5.750391394967838" class="delaunay-line"/>
<line x1="6.896248887411886" y1="10.161312057780377" x2="4.3606666739265405" y2="8.766577779656737" class="delaunay-line"/>
<line x1="4.3606666739265405" y1="8.766577779656737" x2="6.609460669236363" y2="10.570888079924872" class="delaunay-line"/>
<line x1="6.609460669236363" y1="10.570888079924872" x2="6.896248887411886" y2="10.161312057780377" class="delaunay-line"/>
<line x1="7.778548654476918" y1="4.748631184578689" x2="13.6683117551629" y2="3.603777212319416" class="delaunay-line"/>
<line x1="13.6683117551629" y1="3.603777212319416" x2="7.6831441567886465" y2="4.257817592854856" class="delaunay-line"/>
<line x1="7.6831441567886465" y1="4.257817592854856" x2="7.778548654476918" y2="4.748631184578689" class="delaunay-line"/>
<line x1="16.83272232742295" y1="0.45566121509189284" x2="15.83272232742295" y2="0.45566121509189284" class="delaunay-line"/>
<line x1="15.83272232742295" y1="0.45566121509189284" x2="13.6683117551629" y2="3.603777212319416" class="delaunay-line"/>
<line x1="13.6683117551629" y1="3.603777212319416" x2="16.83272232742295" y2="0.45566121509189284" class="delaunay-line"/>
<line x1="7.6831441567886465" y1="4.257817592854856" x2="13.6683117551629" y2="3.603777212319416" class="delaunay-line"/>
<line x1="13.6683117551629" y1="3.603777212319416" x2="13.572907257474629" y2="3.1129636205955835" class="delaunay-line"/>
<line x1="13.572907257474629" y1="3.1129636205955835" x2="7.6831441567886465" y2="4.257817592854856" class="delaunay-line"/>
<line x1="6.364823925568448" y1="5.750391394967838" x2="4.3868346520480115" y2="8.267263012279452" class="delaunay-line"/>
<line x1="4.3868346520480115" y1="8.267263012279452" x2="6.896248887411886" y2="10.161312057780377" class="delaunay-line"/>
<line x1="6.896248887411886" y1="10.161312057780377" x2="6.364823925568448" y2="5.750391394967838" class="delaunay-line"/>
<line x1="4.3606666739265405" y1="8.766577779656737" x2="0.5430495679124694" y2="4.2988600213698325" class="delaunay-line"/>
<line x1="0.5430495679124694" y1="4.2988600213698325" x2="0.46589525099163254" y2="17.98316714316927" class="delaunay-line"/>
<line x1="0.46589525099163254" y1="17.98316714316927" x2="4.3606666739265405" y2="8.766577779656737" class="delaunay-line"/>
<line x1="7.778548654476918" y1="4.748631184578689" x2="6.364823925568448" y2="5.750391394967838" class="delaunay-line"/>
<line x1="6.364823925568448" y1="5.750391394967838" x2="10.378611860575454" y2="8.581278749737114" class="delaunay-line"/>
<line x1="10.378611860575454" y1="8.581278749737114" x2="7.778548654476918" y2="4.748631184578689" class="delaunay-line"/>
<line x1="15.83272232742295" y1="0.45566121509189284" x2="7.6831441567886465" y2="4.257817592854856" class="delaunay-line"/>
<line x1="7.6831441567886465" y1="4.257817592854856" x2="13.572907257474629" y2="3.1129636205955835" class="delaunay-line"/>
<line x1="13.572907257474629" y1="3.1129636205955835" x2="15.83272232742295" y2="0.45566121509189284" class="delaunay-line"/>
<line x1="7.778548654476918" y1="4.748631184578689" x2="6.4857848733682815" y2="5.26524353182984" class="delaunay-line"/>
<line x1="6.4857848733682815" y1="5.26524353182984" x2="6.364823925568448" y2="5.750391394967838" class="delaunay-line"/>
<line x1="6.364823925568448" y1="5.750391394967838" x2="7.778548654476918" y2="4.748631184578689" class="delaunay-line"/>
<line x1="7.6831441567886465" y1="4.257817592854856" x2="6.4857848733682815" y2="5.26524353182984" class="delaunay-line"/>
<line x1="6.4857848733682815" y1="5.26524353182984" x2="7.778548654476918" y2="4.748631184578689" class="delaunay-line"/>
<line x1="7.778548654476918" y1="4.748631184578689" x2="7.6831441567886465" y2="4.257817592854856" class="delaunay-line"/>
<line x1="6.364823925568448" y1="5.750391394967838" x2="0.5430495679124694" y2="4.2988600213698325" class="delaunay-line"/>
<line x1="0.5430495679124694" y1="4.2988600213698325" x2="4.3868346520480115" y2="8.267263012279452" class="delaunay-line"/>
<line x1="4.3868346520480115" y1="8.267263012279452" x2="6.364823925568448" y2="5.750391394967838" class="delaunay-line"/>
<line x1="32.3010721550524" y1="6.103724786988207" x2="36" y2="0" class="delaunay-line"/>
<line x1="36" y1="0" x2="31.98641195952749" y2="5.715151806259722" class="delaunay-line"/>
<line x1="31.98641195952749" y1="5.715151806259722" x2="32.3010721550524" y2="6.103724786988207" class="delaunay-line"/>
<line x1="31.98641195952749" y1="5.715151806259722" x2="36" y2="0" class="delaunay-line"/>
<line x1="36" y1="0" x2="26.200432602256598" y2="3.7392758214399526" class="delaunay-line"/>
<line x1="26.200432602256598" y1="3.7392758214399526" x2="31.98641195952749" y2="5.715151806259722" class="delaunay-line"/>
<line x1="16.83272232742295" y1="0.45566121509189284" x2="0" y2="0" class="delaunay-line"/>
<line x1="0" y1="0" x2="15.83272232742295" y2="0.45566121509189284" class="delaunay-line"/>
<line x1="15.83272232742295" y1="0.45566121509189284" x2="16.83272232742295" y2="0.45566121509189284" class="delaunay-line"/>
<line x1="34.047050813731346" y1="11.082021566869043" x2="36" y2="0" class="delaunay-line"/>
<line x1="36" y1="0" x2="32.3010721550524" y2="6.103724786988207" class="delaunay-line"/>
<line x1="32.3010721550524" y1="6.103724786988207" x2="34.047050813731346" y2="11.082021566869043" class="delaunay-line"/>
<line x1="34.20155931091882" y1="11.55754982501662" x2="36" y2="0" class="delaunay-line"/>
<line x1="36" y1="0" x2="34.047050813731346" y2="11.082021566869043" class="delaunay-line"/>
<line x1="34.047050813731346" y1="11.082021566869043" x2="34.20155931091882" y2="11.55754982501662" class="delaunay-line"/>
<line x1="36" y1="36" x2="36" y2="0" class="delaunay-line"/>
<line x1="36" y1="0" x2="34.20155931091882" y2="11.55754982501662" class="delaunay-line"/>
<line x1="34.20155931091882" y1="11.55754982501662" x2="36" y2="36" class="delaunay-line"/>
<line x1="0.46589525099163254" y1="17.98316714316927" x2="0" y2="36" class="delaunay-line"/>
<line x1="0" y1="36" x2="0.46589525099163254" y2="18.48316714316927" class="delaunay-line"/>
<line x1="0.46589525099163254" y1="18.48316714316927" x2="0.46589525099163254" y2="17.98316714316927" class="delaunay-line"/>
<line x1="0.46589525099163254" y1="18.48316714316927" x2="0" y2="36" class="delaunay-line"/>
<line x1="0" y1="36" x2="3.393322029823642" y2="24.588298974497505" class="delaunay-line"/>
<line x1="3.393322029823642" y1="24.588298974497505" x2="0.46589525099163254" y2="18.48316714316927" class="delaunay-line"/>
<line x1="5.503974134906601" y1="30.686101152070375" x2="0" y2="36" class="delaunay-line"/>
<line x1="0" y1="36" x2="10.801659692060161" y2="33.50293052878572" class="delaunay-line"/>
<line x1="10.801659692060161" y1="33.50293052878572" x2="5.503974134906601" y2="30.686101152070375" class="delaunay-line"/>
<line x1="10.801659692060161" y1="33.50293052878572" x2="0" y2="36" class="delaunay-line"/>
<line x1="0" y1="36" x2="36" y2="36" class="delaunay-line"/>
<line x1="36" y1="36" x2="10.801659692060161" y2="33.50293052878572" class="delaunay-line"/>
<line x1="0.6640105157123029" y1="3.8137121582318345" x2="6.4857848733682815" y2="5.26524353182984" class="delaunay-line"/>
<line x1="6.4857848733682815" y1="5.26524353182984" x2="7.6831441567886465" y2="4.257817592854856" class="delaunay-line"/>
<line x1="7.6831441567886465" y1="4.257817592854856" x2="0.6640105157123029" y2="3.8137121582318345" class="delaunay-line"/>
<line x1="0.6640105157123029" y1="3.8137121582318345" x2="6.364823925568448" y2="5.750391394967838" class="delaunay-line"/>
<line x1="6.364823925568448" y1="5.750391394967838" x2="6.4857848733682815" y2="5.26524353182984" class="delaunay-line"/>
<line x1="6.4857848733682815" y1="5.26524353182984" x2="0.6640105157123029" y2="3.8137121582318345" class="delaunay-line"/>
<line x1="0.6640105157123029" y1="3.8137121582318345" x2="0.5430495679124694" y2="4.2988600213698325" class="delaunay-line"/>
<line x1="0.5430495679124694" y1="4.2988600213698325" x2="6.364823925568448" y2="5.750391394967838" class="delaunay-line"/>
<line x1="6.364823925568448" y1="5.750391394967838" x2="0.6640105157123029" y2="3.8137121582318345" class="delaunay-line"/>
<line x1="4.3868346520480115" y1="8.267263012279452" x2="0.5430495679124694" y2="4.2988600213698325" class="delaunay-line"/>
<line x1="0.5430495679124694" y1="4.2988600213698325" x2="4.3606666739265405" y2="8.766577779656737" class="delaunay-line"/>
<line x1="4.3606666739265405" y1="8.766577779656737" x2="4.3868346520480115" y2="8.267263012279452" class="delaunay-line"/>
<line x1="0.46589525099163254" y1="17.98316714316927" x2="0" y2="0" class="delaunay-line"/>
<line x1="0" y1="0" x2="0" y2="36" class="delaunay-line"/>
<line x1="0" y1="36" x2="0.46589525099163254" y2="17.98316714316927" class="delaunay-line"/>
<line x1="0" y1="0" x2="0.6640105157123029" y2="3.8137121582318345" class="delaunay-line"/>
<line x1="0.6640105157123029" y1="3.8137121582318345" x2="7.6831441567886465" y2="4.257817592854856" class="delaunay-line"/>
<line x1="7.6831441567886465" y1="4.257817592854856" x2="0" y2="0" class="delaunay-line"/>
<line x1="36" y1="0" x2="0" y2="0" class="delaunay-line"/>
<line x1="0" y1="0" x2="16.83272232742295" y2="0.45566121509189284" class="delaunay-line"/>
<line x1="16.83272232742295" y1="0.45566121509189284" x2="36" y2="0" class="delaunay-line"/>
<line x1="15.83272232742295" y1="0.45566121509189284" x2="0" y2="0" class="delaunay-line"/>
<line x1="0" y1="0" x2="7.6831441567886465" y2="4.257817592854856" class="delaunay-line"/>
<line x1="7.6831441567886465" y1="4.257817592854856" x2="15.83272232742295" y2="0.45566121509189284" class="delaunay-line"/>
<line x1="0.6640105157123029" y1="3.8137121582318345" x2="0" y2="0" class="delaunay-line"/>
<line x1="0" y1="0" x2="0.5430495679124694" y2="4.2988600213698325" class="delaunay-line"/>
<line x1="0.5430495679124694" y1="4.2988600213698325" x2="0.6640105157123029" y2="3.8137121582318345" class="delaunay-line"/>
<line x1="0.5430495679124694" y1="4.2988600213698325" x2="0" y2="0" class="delaunay-line"/>
<line x1="0" y1="0" x2="0.46589525099163254" y2="17.98316714316927" class="delaunay-line"/>
<line x1="0.46589525099163254" y1="17.98316714316927" x2="0.5430495679124694" y2="4.2988600213698325" class="delaunay-line"/>
</g>
<g id="layer-area" class="layer ">
</g>
<g id="layer-building" class="layer ">
</g>
<g id="layer-wall" class="layer ">
<polygon points="24.32784287222349,24.36221722472039 23.89925922187243,24.619736262175415 20.809030772412104,19.47673245796274 21.237614422763162,19.219213420507714" class="terrain-solid"/>
<text x="22.568436822317796" y="21.919474841341565" class="label">#555555</text>
<polygon points="0.5430495679124694,4.2988600213698325 0.6640105157123029,3.8137121582318345 6.4857848733682815,5.26524353182984 6.364823925568448,5.750391394967838" class="terrain-solid"/>
<text x="3.514417220640375" y="4.782051776599836" class="label">#555555</text>
<polygon points="11.81116115314584,13.602770675886651 11.524372934970316,14.012346698031147 6.609460669236363,10.570888079924872 6.896248887411886,10.161312057780377" class="terrain-solid"/>
<text x="9.210310911191101" y="12.086829377905762" class="label">#555555</text>
<polygon points="3.9811072821161155,25.397315968872455 3.393322029823642,24.588298974497505 9.865457984823221,19.886016956157718 10.453243237115695,20.695033950532668" class="terrain-solid"/>
<text x="6.923282633469668" y="22.641666462515083" class="label">#555555</text>
<polygon points="28.729827715581063,30.16889265473315 28.583641863219693,29.690740276751633 34.3214703989979,27.936510048415208 34.46765625135927,28.414662426396724" class="terrain-solid"/>
<text x="31.525649057289485" y="29.05270135157418" class="label">#555555</text>
<polygon points="22.158047368372493,32.47735425151413 22.253451866060765,31.986540659790297 28.143214966746747,33.13139463204956 28.047810469058476,33.6222082237734" class="terrain-solid"/>
<text x="25.15063116755962" y="32.804374441781846" class="label">#555555</text>
<polygon points="13.252799582184982,10.508873523367246 13.752799582184982,10.508873523367246 13.752799582184982,16.508873523367246 13.252799582184982,16.508873523367246" class="terrain-solid"/>
<text x="13.502799582184982" y="13.508873523367246" class="label">#555555</text>
<polygon points="18.372536834891328,32.44848396610889 18.19335286011868,32.91527417935749 12.591870301135467,30.76506648208569 12.771054275908115,30.29827626883709" class="terrain-solid"/>
<text x="15.482203568013396" y="31.606775224097287" class="label">#555555</text>
<polygon points="7.778548654476918,4.748631184578689 7.6831441567886465,4.257817592854856 13.572907257474629,3.1129636205955835 13.6683117551629,3.603777212319416" class="terrain-solid"/>
<text x="10.675727955975773" y="3.9307974025871357" class="label">#555555</text>
<polygon points="15.018651450251774,9.733533011518826 15.518651450251774,9.733533011518826 15.518651450251774,15.733533011518826 15.018651450251774,15.733533011518826" class="terrain-solid"/>
<text x="15.268651450251774" y="12.733533011518826" class="label">#555555</text>
<polygon points="19.03797077996992,5.621875856310874 19.520933693114454,5.492466333759614 21.07384796372958,11.288021291494024 20.590885050585047,11.417430814045284" class="terrain-solid"/>
<text x="20.05590937184975" y="8.454948573902449" class="label">#555555</text>
<polygon points="15.83272232742295,0.45566121509189284 16.83272232742295,0.45566121509189284 16.83272232742295,8.455661215091894 15.83272232742295,8.455661215091894" class="terrain-solid"/>
<text x="16.33272232742295" y="4.455661215091894" class="label">#555555</text>
<polygon points="17.886801167846002,27.2649348576758 17.724017090617423,27.737694145475462 12.050905637021524,25.784285218732524 12.213689714250103,25.311525930932863" class="terrain-solid"/>
<text x="14.968853402433762" y="26.524610038204163" class="label">#555555</text>
<polygon points="11.036395473453107,33.06145673235625 10.801659692060161,33.50293052878572 5.503974134906601,30.686101152070375 5.7387099162995465,30.244627355640908" class="terrain-solid"/>
<text x="8.270184804179854" y="31.873778942213313" class="label">#555555</text>
<polygon points="27.63819638631058,9.879647133287229 27.323536190785664,9.491074152558744 31.98641195952749,5.715151806259722 32.3010721550524,6.103724786988207" class="terrain-solid"/>
<text x="29.812304172919035" y="7.797399469773476" class="label">#555555</text>
<polygon points="19.751618136965366,29.617592975978393 19.6647940481319,29.12518909947229 25.573640566205146,28.08330003347071 25.660464655038613,28.575703909976813" class="terrain-solid"/>
<text x="22.662629351585256" y="28.85044650472455" class="label">#555555</text>
<polygon points="10.378611860575454,8.581278749737114 10.352443882453983,9.0805935171144 4.3606666739265405,8.766577779656737 4.3868346520480115,8.267263012279452" class="terrain-solid"/>
<text x="7.369639267250998" y="8.673928264696926" class="label">#555555</text>
<polygon points="26.200432602256598,3.7392758214399526 26.045924105069126,4.2148040795875295 20.339585007298204,2.3607021133378456 20.494093504485676,1.8851738551902688" class="terrain-solid"/>
<text x="23.2700088047774" y="3.049988967388899" class="label">#555555</text>
<polygon points="16.208272169775423,23.913794304880557 15.85471877918215,24.267347695473834 11.612078092062866,20.02470700835455 11.96563148265614,19.671153617761274" class="terrain-solid"/>
<text x="13.910175130919146" y="21.969250656617554" class="label">#555555</text>
<polygon points="6.4658952509916325,17.98316714316927 6.4658952509916325,18.48316714316927 0.46589525099163254,18.48316714316927 0.46589525099163254,17.98316714316927" class="terrain-solid"/>
<text x="3.4658952509916325" y="18.23316714316927" class="label">#555555</text>
<polygon points="28.4952202131479,13.411651791266307 28.340711715960428,12.93612353311873 34.047050813731346,11.082021566869043 34.20155931091882,11.55754982501662" class="terrain-solid"/>
<text x="31.271135513439624" y="12.246836679067675" class="label">#555555</text>
</g>
<g id="layer-tree" class="layer ">
</g>
<g id="layer-rocks" class="layer ">
</g>
<g id="layer-shrub" class="layer ">
</g>
<g id="layer-terrain" class="layer ">
</g>
<g id="layer-clearance" class="layer hidden">
</g>
<g id="layer-models" class="layer ">
</g>
<g id="layer-paths" class="layer ">
</g>
<g id="layer-vectors" class="layer ">
</g>
<g id="layer-los" class="layer ">
</g>
<g id="layer-lof" class="layer ">
</g>

<g id="legend">
<g class="toggle" onclick="toggleLayer('deployment')"><rect x="0.4" y="0.14999999999999997" width="0.4" height="0.4" fill="#222" stroke="#222" stroke-width="0.05"/><text x="1.0" y="0.5499999999999999" class="label">Deployment Zones</text></g>
<g class="toggle" onclick="toggleLayer('grid')"><rect x="0.4" y="0.95" width="0.4" height="0.4" fill="#222" stroke="#222" stroke-width="0.05"/><text x="1.0" y="1.3499999999999999" class="label">0.5 MU Grid</text></g>
<g class="toggle" onclick="toggleLayer('delaunay')"><rect x="0.4" y="1.7500000000000002" width="0.4" height="0.4" fill="#222" stroke="#222" stroke-width="0.05"/><text x="1.0" y="2.1500000000000004" class="label">Delaunay Mesh</text></g>
<g class="toggle disabled"><rect x="0.4" y="2.55" width="0.4" height="0.4" fill="#222" stroke="#222" stroke-width="0.05"/><text x="1.0" y="2.95" class="label">Area Terrain</text></g>
<g class="toggle disabled"><rect x="0.4" y="3.3499999999999996" width="0.4" height="0.4" fill="#222" stroke="#222" stroke-width="0.05"/><text x="1.0" y="3.75" class="label">Buildings</text></g>
<g class="toggle" onclick="toggleLayer('wall')"><rect x="0.4" y="4.1499999999999995" width="0.4" height="0.4" fill="#222" stroke="#222" stroke-width="0.05"/><text x="1.0" y="4.55" class="label">Walls</text></g>
<g class="toggle disabled"><rect x="0.4" y="4.949999999999999" width="0.4" height="0.4" fill="#222" stroke="#222" stroke-width="0.05"/><text x="1.0" y="5.35" class="label">Trees</text></g>
<g class="toggle disabled"><rect x="0.4" y="5.749999999999999" width="0.4" height="0.4" fill="#222" stroke="#222" stroke-width="0.05"/><text x="1.0" y="6.1499999999999995" class="label">Rocks</text></g>
<g class="toggle disabled"><rect x="0.4" y="6.549999999999999" width="0.4" height="0.4" fill="#222" stroke="#222" stroke-width="0.05"/><text x="1.0" y="6.949999999999999" class="label">Shrubs</text></g>
<g class="toggle" onclick="toggleLayer('terrain')"><rect x="0.4" y="7.349999999999999" width="0.4" height="0.4" fill="#222" stroke="#222" stroke-width="0.05"/><text x="1.0" y="7.749999999999999" class="label">Other Terrain</text></g>
<g class="toggle" onclick="toggleLayer('clearance')"><rect x="0.4" y="8.15" width="0.4" height="0.4" fill="#fff" stroke="#222" stroke-width="0.05"/><text x="1.0" y="8.549999999999999" class="label">Clearance Zones</text></g>
<g class="toggle" onclick="toggleLayer('models')"><rect x="0.4" y="8.950000000000001" width="0.4" height="0.4" fill="#222" stroke="#222" stroke-width="0.05"/><text x="1.0" y="9.35" class="label">Models</text></g>
<g class="toggle" onclick="toggleLayer('paths')"><rect x="0.4" y="9.750000000000002" width="0.4" height="0.4" fill="#222" stroke="#222" stroke-width="0.05"/><text x="1.0" y="10.15" class="label">Paths</text></g>
<g class="toggle" onclick="toggleLayer('vectors')"><rect x="0.4" y="10.550000000000002" width="0.4" height="0.4" fill="#222" stroke="#222" stroke-width="0.05"/><text x="1.0" y="10.950000000000001" class="label">Vectors</text></g>
<g class="toggle" onclick="toggleLayer('los')"><rect x="0.4" y="11.350000000000003" width="0.4" height="0.4" fill="#222" stroke="#222" stroke-width="0.05"/><text x="1.0" y="11.750000000000002" class="label">LOS</text></g>
<g class="toggle" onclick="toggleLayer('lof')"><rect x="0.4" y="12.150000000000004" width="0.4" height="0.4" fill="#222" stroke="#222" stroke-width="0.05"/><text x="1.0" y="12.550000000000002" class="label">LOF</text></g>
</g>
</svg>