<svg xmlns="http://www.w3.org/2000/svg" viewBox="0 0 36 36" width="1440" height="1440" font-family="Arial" font-size="0.6">
<defs>
  <style><![CDATA[
    .layer { display: inline; }
    .layer.hidden { display: none; }
    .grid-line { stroke: #999; stroke-width: 0.02; opacity: 0.2; }
    .grid-line-2mu { stroke: #666; stroke-width: 0.04; opacity: 0.4; }
    .grid-line-6mu { stroke: #333; stroke-width: 0.08; opacity: 0.6; }
    .delaunay-line { stroke: #4a6fa5; stroke-width: 0.03; opacity: 0.3; }
    #layer-area { opacity: 0.8; }
    #layer-building, #layer-wall, #layer-tree, #layer-rocks, #layer-shrub, #layer-terrain { opacity: 0.8; }
    .terrain-area { stroke: none; }
    .terrain-solid { stroke: #000; stroke-width: 0.05; }
    .model { stroke: #ff0000; stroke-width: 2; vector-effect: non-scaling-stroke; }
    .path { fill: none; stroke-width: 0.12; }
    .vector { stroke-width: 0.1; }
    .los-ray { stroke-width: 0.08; stroke-dasharray: 0.2 0.2; }
    .lof-ray { stroke-width: 0.08; stroke-dasharray: 0.3 0.15; }
    .label { fill: #111 !important; font-size: 0.6px; }
    .toggle { cursor: pointer; }
    .toggle.disabled { cursor: default; }
    .toggle.disabled rect { stroke: #ccc; fill: #fff; }
    .toggle.disabled text { fill: #ccc; }
#layer-wall { fill: #555555; }
  ]]></style>
</defs>
<rect x="0" y="0" width="36" height="36" fill="#ffffff" stroke="#111" stroke-width="0.05"/>
<script><![CDATA[
      function toggleLayer(id) {
        var layer = document.getElementById('layer-' + id);
        if (!layer) return;
        if (layer.classList.contains('hidden')) {
          layer.classList.remove('hidden');
        } else {
          layer.classList.add('hidden');
        }
      }
    ]]></script>
<text x="0.4" y="35.6" class="label">MEDIUM battlefield_A0-B0-W40-R0-S0-T0</text>
<g id="layer-deployment" class="layer ">
</g>
<g id="layer-grid" class="layer ">
<line x1="0" y1="0" x2="0" y2="36" class="grid-line-6mu"/>
<line x1="0.5" y1="0" x2="0.5" y2="36" class="grid-line"/>
<line x1="1" y1="0" x2="1" y2="36" class="grid-line"/>
<line x1="1.5" y1="0" x2="1.5" y2="36" class="grid-line"/>
<line x1="2" y1="0" x2="2" y2="36" class="grid-line-2mu"/>
<line x1="2.5" y1="0" x2="2.5" y2="36" class="grid-line"/>
<line x1="3" y1="0" x2="3" y2="36" class="grid-line"/>
<line x1="3.5" y1="0" x2="3.5" y2="36" class="grid-line"/>
<line x1="4" y1="0" x2="4" y2="36" class="grid-line-2mu"/>
<line x1="4.5" y1="0" x2="4.5" y2="36" class="grid-line"/>
<line x1="5" y1="0" x2="5" y2="36" class="grid-line"/>
<line x1="5.5" y1="0" x2="5.5" y2="36" class="grid-line"/>
<line x1="6" y1="0" x2="6" y2="36" class="grid-line-6mu"/>
<line x1="6.5" y1="0" x2="6.5" y2="36" class="grid-line"/>
<line x1="7" y1="0" x2="7" y2="36" class="grid-line"/>
<line x1="7.5" y1="0" x2="7.5" y2="36" class="grid-line"/>
<line x1="8" y1="0" x2="8" y2="36" class="grid-line-2mu"/>
<line x1="8.5" y1="0" x2="8.5" y2="36" class="grid-line"/>
<line x1="9" y1="0" x2="9" y2="36" class="grid-line"/>
<line x1="9.5" y1="0" x2="9.5" y2="36" class="grid-line"/>
<line x1="10" y1="0" x2="10" y2="36" class="grid-line-2mu"/>
<line x1="10.5" y1="0" x2="10.5" y2="36" class="grid-line"/>
<line x1="11" y1="0" x2="11" y2="36" class="grid-line"/>
<line x1="11.5" y1="0" x2="11.5" y2="36" class="grid-line"/>
<line x1="12" y1="0" x2="12" y2="36" class="grid-line-6mu"/>
<line x1="12.5" y1="0" x2="12.5" y2="36" class="grid-line"/>
<line x1="13" y1="0" x2="13" y2="36" class="grid-line"/>
<line x1="13.5" y1="0" x2="13.5" y2="36" class="grid-line"/>
<line x1="14" y1="0" x2="14" y2="36" class="grid-line-2mu"/>
<line x1="14.5" y1="0" x2="14.5" y2="36" class="grid-line"/>
<line x1="15" y1="0" x2="15" y2="36" class="grid-line"/>
<line x1="15.5" y1="0" x2="15.5" y2="36" class="grid-line"/>
<line x1="16" y1="0" x2="16" y2="36" class="grid-line-2mu"/>
<line x1="16.5" y1="0" x2="16.5" y2="36" class="grid-line"/>
<line x1="17" y1="0" x2="17" y2="36" class="grid-line"/>
<line x1="17.5" y1="0" x2="17.5" y2="36" class="grid-line"/>
<line x1="18" y1="0" x2="18" y2="36" class="grid-line-6mu"/>
<line x1="18.5" y1="0" x2="18.5" y2="36" class="grid-line"/>
<line x1="19" y1="0" x2="19" y2="36" class="grid-line"/>
<line x1="19.5" y1="0" x2="19.5" y2="36" class="grid-line"/>
<line x1="20" y1="0" x2="20" y2="36" class="grid-line-2mu"/>
<line x1="20.5" y1="0" x2="20.5" y2="36" class="grid-line"/>
<line x1="21" y1="0" x2="21" y2="36" class="grid-line"/>
<line x1="21.5" y1="0" x2="21.5" y2="36" class="grid-line"/>
<line x1="22" y1="0" x2="22" y2="36" class="grid-line-2mu"/>
<line x1="22.5" y1="0" x2="22.5" y2="36" class="grid-line"/>
<line x1="23" y1="0" x2="23" y2="36" class="grid-line"/>
<line x1="23.5" y1="0" x2="23.5" y2="36" class="grid-line"/>
<line x1="24" y1="0" x2="24" y2="36" class="grid-line-6mu"/>
<line x1="24.5" y1="0" x2="24.5" y2="36" class="grid-line"/>
<line x1="25" y1="0" x2="25" y2="36" class="grid-line"/>
<line x1="25.5" y1="0" x2="25.5" y2="36" class="grid-line"/>
<line x1="26" y1="0" x2="26" y2="36" class="grid-line-2mu"/>
<line x1="26.5" y1="0" x2="26.5" y2="36" class="grid-line"/>
<line x1="27" y1="0" x2="27" y2="36" class="grid-line"/>
<line x1="27.5" y1="0" x2="27.5" y2="36" class="grid-line"/>
<line x1="28" y1="0" x2="28" y2="36" class="grid-line-2mu"/>
<line x1="28.5" y1="0" x2="28.5" y2="36" class="grid-line"/>
<line x1="29" y1="0" x2="29" y2="36" class="grid-line"/>
<line x1="29.5" y1="0" x2="29.5" y2="36" class="grid-line"/>
<line x1="30" y1="0" x2="30" y2="36" class="grid-line-6mu"/>
<line x1="30.5" y1="0" x2="30.5" y2="36" class="grid-line"/>
<line x1="31" y1="0" x2="31" y2="36" class="grid-line"/>
<line x1="31.5" y1="0" x2="31.5" y2="36" class="grid-line"/>
<line x1="32" y1="0" x2="32" y2="36" class="grid-line-2mu"/>
<line x1="32.5" y1="0" x2="32.5" y2="36" class="grid-line"/>
<line x1="33" y1="0" x2="33" y2="36" class="grid-line"/>
<line x1="33.5" y1="0" x2="33.5" y2="36" class="grid-line"/>
<line x1="34" y1="0" x2="34" y2="36" class="grid-line-2mu"/>
<line x1="34.5" y1="0" x2="34.5" y2="36" class="grid-line"/>
<line x1="35" y1="0" x2="35" y2="36" class="grid-line"/>
<line x1="35.5" y1="0" x2="35.5" y2="36" class="grid-line"/>
<line x1="36" y1="0" x2="36" y2="36" class="grid-line-6mu"/>
<line x1="0" y1="0" x2="36" y2="0" class="grid-line-6mu"/>
<line x1="0" y1="0.5" x2="36" y2="0.5" class="grid-line"/>
<line x1="0" y1="1" x2="36" y2="1" class="grid-line"/>
<line x1="0" y1="1.5" x2="36" y2="1.5" class="grid-line"/>
<line x1="0" y1="2" x2="36" y2="2" class="grid-line-2mu"/>
<line x1="0" y1="2.5" x2="36" y2="2.5" class="grid-line"/>
<line x1="0" y1="3" x2="36" y2="3" class="grid-line"/>
<line x1="0" y1="3.5" x2="36" y2="3.5" class="grid-line"/>
<line x1="0" y1="4" x2="36" y2="4" class="grid-line-2mu"/>
<line x1="0" y1="4.5" x2="36" y2="4.5" class="grid-line"/>
<line x1="0" y1="5" x2="36" y2="5" class="grid-line"/>
<line x1="0" y1="5.5" x2="36" y2="5.5" class="grid-line"/>
<line x1="0" y1="6" x2="36" y2="6" class="grid-line-6mu"/>
<line x1="0" y1="6.5" x2="36" y2="6.5" class="grid-line"/>
<line x1="0" y1="7" x2="36" y2="7" class="grid-line"/>
<line x1="0" y1="7.5" x2="36" y2="7.5" class="grid-line"/>
<line x1="0" y1="8" x2="36" y2="8" class="grid-line-2mu"/>
<line x1="0" y1="8.5" x2="36" y2="8.5" class="grid-line"/>
<line x1="0" y1="9" x2="36" y2="9" class="grid-line"/>
<line x1="0" y1="9.5" x2="36" y2="9.5" class="grid-line"/>
<line x1="0" y1="10" x2="36" y2="10" class="grid-line-2mu"/>
<line x1="0" y1="10.5" x2="36" y2="10.5" class="grid-line"/>
<line x1="0" y1="11" x2="36" y2="11" class="grid-line"/>
<line x1="0" y1="11.5" x2="36" y2="11.5" class="grid-line"/>
<line x1="0" y1="12" x2="36" y2="12" class="grid-line-6mu"/>
<line x1="0" y1="12.5" x2="36" y2="12.5" class="grid-line"/>
<line x1="0" y1="13" x2="36" y2="13" class="grid-line"/>
<line x1="0" y1="13.5" x2="36" y2="13.5" class="grid-line"/>
<line x1="0" y1="14" x2="36" y2="14" class="grid-line-2mu"/>
<line x1="0" y1="14.5" x2="36" y2="14.5" class="grid-line"/>
<line x1="0" y1="15" x2="36" y2="15" class="grid-line"/>
<line x1="0" y1="15.5" x2="36" y2="15.5" class="grid-line"/>
<line x1="0" y1="16" x2="36" y2="16" class="grid-line-2mu"/>
<line x1="0" y1="16.5" x2="36" y2="16.5" class="grid-line"/>
<line x1="0" y1="17" x2="36" y2="17" class="grid-line"/>
<line x1="0" y1="17.5" x2="36" y2="17.5" class="grid-line"/>
<line x1="0" y1="18" x2="36" y2="18" class="grid-line-6mu"/>
<line x1="0" y1="18.5" x2="36" y2="18.5" class="grid-line"/>
<line x1="0" y1="19" x2="36" y2="19" class="grid-line"/>
<line x1="0" y1="19.5" x2="36" y2="19.5" class="grid-line"/>
<line x1="0" y1="20" x2="36" y2="20" class="grid-line-2mu"/>
<line x1="0" y1="20.5" x2="36" y2="20.5" class="grid-line"/>
<line x1="0" y1="21" x2="36" y2="21" class="grid-line"/>
<line x1="0" y1="21.5" x2="36" y2="21.5" class="grid-line"/>
<line x1="0" y1="22" x2="36" y2="22" class="grid-line-2mu"/>
<line x1="0" y1="22.5" x2="36" y2="22.5" class="grid-line"/>
<line x1="0" y1="23" x2="36" y2="23" class="grid-line"/>
<line x1="0" y1="23.5" x2="36" y2="23.5" class="grid-line"/>
<line x1="0" y1="24" x2="36" y2="24" class="grid-line-6mu"/>
<line x1="0" y1="24.5" x2="36" y2="24.5" class="grid-line"/>
<line x1="0" y1="25" x2="36" y2="25" class="grid-line"/>
<line x1="0" y1="25.5" x2="36" y2="25.5" class="grid-line"/>
<line x1="0" y1="26" x2="36" y2="26" class="grid-line-2mu"/>
<line x1="0" y1="26.5" x2="36" y2="26.5" class="grid-line"/>
<line x1="0" y1="27" x2="36" y2="27" class="grid-line"/>
<line x1="0" y1="27.5" x2="36" y2="27.5" class="grid-line"/>
<line x1="0" y1="28" x2="36" y2="28" class="grid-line-2mu"/>
<line x1="0" y1="28.5" x2="36" y2="28.5" class="grid-line"/>
<line x1="0" y1="29" x2="36" y2="29" class="grid-line"/>
<line x1="0" y1="29.5" x2="36" y2="29.5" class="grid-line"/>
<line x1="0" y1="30" x2="36" y2="30" class="grid-line-6mu"/>
<line x1="0" y1="30.5" x2="36" y2="30.5" class="grid-line"/>
<line x1="0" y1="31" x2="36" y2="31" class="grid-line"/>
<line x1="0" y1="31.5" x2="36" y2="31.5" class="grid-line"/>
<line x1="0" y1="32" x2="36" y2="32" class="grid-line-2mu"/>
<line x1="0" y1="32.5" x2="36" y2="32.5" class="grid-line"/>
<line x1="0" y1="33" x2="36" y2="33" class="grid-line"/>
<line x1="0" y1="33.5" x2="36" y2="33.5" class="grid-line"/>
<line x1="0" y1="34" x2="36" y2="34" class="grid-line-2mu"/>
<line x1="0" y1="34.5" x2="36" y2="34.5" class="grid-line"/>
<line x1="0" y1="35" x2="36" y2="35" class="grid-line"/>
<line x1="0" y1="35.5" x2="36" y2="35.5" class="grid-line"/>
<line x1="0" y1="36" x2="36" y2="36" class="grid-line-6mu"/>
</g>
<g id="layer-delaunay" class="layer ">
<line x1="15.66302465408715" y1="15.746311879841334" x2="15.628146417215087" y2="15.247529854711422" class="delaunay-line"/>
<line x1="15.628146417215087" y1="15.247529854711422" x2="9.677640352528206" y2="16.164850722306088" class="delaunay-line"/>
<line x1="9.677640352528206" y1="16.164850722306088" x2="15.66302465408715" y2="15.746311879841334" class="delaunay-line"/>
<line x1="15.628146417215087" y1="15.247529854711422" x2="9.642762115656142" y2="15.666068697176174" class="delaunay-line"/>
<line x1="9.642762115656142" y1="15.666068697176174" x2="9.677640352528206" y2="16.164850722306088" class="delaunay-line"/>
<line x1="9.677640352528206" y1="16.164850722306088" x2="15.628146417215087" y2="15.247529854711422" class="delaunay-line"/>
<line x1="9.677640352528206" y1="16.164850722306088" x2="14.595583354688532" y2="21.377379402474475" class="delaunay-line"/>
<line x1="14.595583354688532" y1="21.377379402474475" x2="15.66302465408715" y2="15.746311879841334" class="delaunay-line"/>
<line x1="15.66302465408715" y1="15.746311879841334" x2="9.677640352528206" y2="16.164850722306088" class="delaunay-line"/>
<line x1="9.642762115656142" y1="15.666068697176174" x2="6.945145306984248" y2="19.038405764692584" class="delaunay-line"/>
<line x1="6.945145306984248" y1="19.038405764692584" x2="9.677640352528206" y2="16.164850722306088" class="delaunay-line"/>
<line x1="9.677640352528206" y1="16.164850722306088" x2="9.642762115656142" y2="15.666068697176174" class="delaunay-line"/>
<line x1="9.677640352528206" y1="16.164850722306088" x2="12.076861678040766" y2="23.543518727972355" class="delaunay-line"/>
<line x1="12.076861678040766" y1="23.543518727972355" x2="14.595583354688532" y2="21.377379402474475" class="delaunay-line"/>
<line x1="14.595583354688532" y1="21.377379402474475" x2="9.677640352528206" y2="16.164850722306088" class="delaunay-line"/>
<line x1="12.076861678040766" y1="23.543518727972355" x2="14.303211649965796" y2="22.333684158437507" class="delaunay-line"/>
<line x1="14.303211649965796" y1="22.333684158437507" x2="14.595583354688532" y2="21.377379402474475" class="delaunay-line"/>
<line x1="14.595583354688532" y1="21.377379402474475" x2="12.076861678040766" y2="23.543518727972355" class="delaunay-line"/>
<line x1="6.945145306984248" y1="19.038405764692584" x2="12.076861678040766" y2="23.543518727972355" class="delaunay-line"/>
<line x1="12.076861678040766" y1="23.543518727972355" x2="9.677640352528206" y2="16.164850722306088" class="delaunay-line"/>
<line x1="9.677640352528206" y1="16.164850722306088" x2="6.945145306984248" y2="19.038405764692584" class="delaunay-line"/>
<line x1="15.628146417215087" y1="15.247529854711422" x2="9.047080810780908" y2="9.21174002436103" class="delaunay-line"/>
<line x1="9.047080810780908" y1="9.21174002436103" x2="9.642762115656142" y2="15.666068697176174" class="delaunay-line"/>
<line x1="9.642762115656142" y1="15.666068697176174" x2="15.628146417215087" y2="15.247529854711422" class="delaunay-line"/>
<line x1="9.642762115656142" y1="15.666068697176174" x2="4.3071082056580385" y2="11.315668884159184" class="delaunay-line"/>
<line x1="4.3071082056580385" y1="11.315668884159184" x2="6.945145306984248" y2="19.038405764692584" class="delaunay-line"/>
<line x1="6.945145306984248" y1="19.038405764692584" x2="9.642762115656142" y2="15.666068697176174" class="delaunay-line"/>
<line x1="6.945145306984248" y1="19.038405764692584" x2="3.810835129837378" y2="11.254734212456611" class="delaunay-line"/>
<line x1="3.810835129837378" y1="11.254734212456611" x2="6.652773602261512" y2="19.994710520655616" class="delaunay-line"/>
<line x1="6.652773602261512" y1="19.994710520655616" x2="6.945145306984248" y2="19.038405764692584" class="delaunay-line"/>
<line x1="6.652773602261512" y1="19.994710520655616" x2="12.076861678040766" y2="23.543518727972355" class="delaunay-line"/>
<line x1="12.076861678040766" y1="23.543518727972355" x2="6.945145306984248" y2="19.038405764692584" class="delaunay-line"/>
<line x1="6.945145306984248" y1="19.038405764692584" x2="6.652773602261512" y2="19.994710520655616" class="delaunay-line"/>
<line x1="9.047080810780908" y1="9.21174002436103" x2="8.047689983761813" y2="9.24663952106353" class="delaunay-line"/>
<line x1="8.047689983761813" y1="9.24663952106353" x2="9.642762115656142" y2="15.666068697176174" class="delaunay-line"/>
<line x1="9.642762115656142" y1="15.666068697176174" x2="9.047080810780908" y2="9.21174002436103" class="delaunay-line"/>
<line x1="6.652773602261512" y1="19.994710520655616" x2="12.076861678040766" y2="24.043518727972355" class="delaunay-line"/>
<line x1="12.076861678040766" y1="24.043518727972355" x2="12.076861678040766" y2="23.543518727972355" class="delaunay-line"/>
<line x1="12.076861678040766" y1="23.543518727972355" x2="6.652773602261512" y2="19.994710520655616" class="delaunay-line"/>
<line x1="12.076861678040766" y1="23.543518727972355" x2="12.076861678040766" y2="24.043518727972355" class="delaunay-line"/>
<line x1="12.076861678040766" y1="24.043518727972355" x2="14.303211649965796" y2="22.333684158437507" class="delaunay-line"/>
<line x1="14.303211649965796" y1="22.333684158437507" x2="12.076861678040766" y2="23.543518727972355" class="delaunay-line"/>
<line x1="15.586734796133738" y1="6.990871745677105" x2="15.321775164017138" y2="7.414895793755318" class="delaunay-line"/>
<line x1="15.321775164017138" y1="7.414895793755318" x2="20.675023373072293" y2="10.170387331076334" class="delaunay-line"/>
<line x1="20.675023373072293" y1="10.170387331076334" x2="15.586734796133738" y2="6.990871745677105" class="delaunay-line"/>
<line x1="15.628146417215087" y1="15.247529854711422" x2="15.321775164017138" y2="7.414895793755318" class="delaunay-line"/>
<line x1="15.321775164017138" y1="7.414895793755318" x2="9.047080810780908" y2="9.21174002436103" class="delaunay-line"/>
<line x1="9.047080810780908" y1="9.21174002436103" x2="15.628146417215087" y2="15.247529854711422" class="delaunay-line"/>
<line x1="9.047080810780908" y1="9.21174002436103" x2="5.038324266088925" y2="5.360391974311252" class="delaunay-line"/>
<line x1="5.038324266088925" y1="5.360391974311252" x2="8.047689983761813" y2="9.24663952106353" class="delaunay-line"/>
<line x1="8.047689983761813" y1="9.24663952106353" x2="9.047080810780908" y2="9.21174002436103" class="delaunay-line"/>
<line x1="20.410063740955692" y1="10.594411379154547" x2="15.321775164017138" y2="7.414895793755318" class="delaunay-line"/>
<line x1="15.321775164017138" y1="7.414895793755318" x2="15.628146417215087" y2="15.247529854711422" class="delaunay-line"/>
<line x1="15.628146417215087" y1="15.247529854711422" x2="20.410063740955692" y2="10.594411379154547" class="delaunay-line"/>
<line x1="15.321775164017138" y1="7.414895793755318" x2="8.767884837160903" y2="1.216613408208263" class="delaunay-line"/>
<line x1="8.767884837160903" y1="1.216613408208263" x2="9.047080810780908" y2="9.21174002436103" class="delaunay-line"/>
<line x1="9.047080810780908" y1="9.21174002436103" x2="15.321775164017138" y2="7.414895793755318" class="delaunay-line"/>
<line x1="15.66302465408715" y1="15.746311879841334" x2="20.410063740955692" y2="10.594411379154547" class="delaunay-line"/>
<line x1="20.410063740955692" y1="10.594411379154547" x2="15.628146417215087" y2="15.247529854711422" class="delaunay-line"/>
<line x1="15.628146417215087" y1="15.247529854711422" x2="15.66302465408715" y2="15.746311879841334" class="delaunay-line"/>
<line x1="29.27234622131705" y1="14.561435958514446" x2="20.410063740955692" y2="10.594411379154547" class="delaunay-line"/>
<line x1="20.410063740955692" y1="10.594411379154547" x2="15.66302465408715" y2="15.746311879841334" class="delaunay-line"/>
<line x1="15.66302465408715" y1="15.746311879841334" x2="29.27234622131705" y2="14.561435958514446" class="delaunay-line"/>
<line x1="18.076861678040764" y1="23.543518727972355" x2="15.66302465408715" y2="15.746311879841334" class="delaunay-line"/>
<line x1="15.66302465408715" y1="15.746311879841334" x2="14.595583354688532" y2="21.377379402474475" class="delaunay-line"/>
<line x1="14.595583354688532" y1="21.377379402474475" x2="18.076861678040764" y2="23.543518727972355" class="delaunay-line"/>
<line x1="8.047689983761813" y1="9.24663952106353" x2="4.3071082056580385" y2="11.315668884159184" class="delaunay-line"/>
<line x1="4.3071082056580385" y1="11.315668884159184" x2="9.642762115656142" y2="15.666068697176174" class="delaunay-line"/>
<line x1="9.642762115656142" y1="15.666068697176174" x2="8.047689983761813" y2="9.24663952106353" class="delaunay-line"/>
<line x1="18.076861678040764" y1="24.043518727972355" x2="18.076861678040764" y2="23.543518727972355" class="delaunay-line"/>
<line x1="18.076861678040764" y1="23.543518727972355" x2="14.303211649965796" y2="22.333684158437507" class="delaunay-line"/>
<line x1="14.303211649965796" y1="22.333684158437507" x2="18.076861678040764" y2="24.043518727972355" class="delaunay-line"/>
<line x1="14.303211649965796" y1="22.333684158437507" x2="18.076861678040764" y2="23.543518727972355" class="delaunay-line"/>
<line x1="18.076861678040764" y1="23.543518727972355" x2="14.595583354688532" y2="21.377379402474475" class="delaunay-line"/>
<line x1="14.595583354688532" y1="21.377379402474475" x2="14.303211649965796" y2="22.333684158437507" class="delaunay-line"/>
<line x1="29.27234622131705" y1="14.561435958514446" x2="20.675023373072293" y2="10.170387331076334" class="delaunay-line"/>
<line x1="20.675023373072293" y1="10.170387331076334" x2="20.410063740955692" y2="10.594411379154547" class="delaunay-line"/>
<line x1="20.410063740955692" y1="10.594411379154547" x2="29.27234622131705" y2="14.561435958514446" class="delaunay-line"/>
<line x1="20.410063740955692" y1="10.594411379154547" x2="20.675023373072293" y2="10.170387331076334" class="delaunay-line"/>
<line x1="20.675023373072293" y1="10.170387331076334" x2="15.321775164017138" y2="7.414895793755318" class="delaunay-line"/>
<line x1="15.321775164017138" y1="7.414895793755318" x2="20.410063740955692" y2="10.594411379154547" class="delaunay-line"/>
<line x1="4.542051190268265" y1="5.29945730260868" x2="3.810835129837378" y2="11.254734212456611" class="delaunay-line"/>
<line x1="3.810835129837378" y1="11.254734212456611" x2="4.3071082056580385" y2="11.315668884159184" class="delaunay-line"/>
<line x1="4.3071082056580385" y1="11.315668884159184" x2="4.542051190268265" y2="5.29945730260868" class="delaunay-line"/>
<line x1="4.3071082056580385" y1="11.315668884159184" x2="3.810835129837378" y2="11.254734212456611" class="delaunay-line"/>
<line x1="3.810835129837378" y1="11.254734212456611" x2="6.945145306984248" y2="19.038405764692584" class="delaunay-line"/>
<line x1="6.945145306984248" y1="19.038405764692584" x2="4.3071082056580385" y2="11.315668884159184" class="delaunay-line"/>
<line x1="12.076861678040766" y1="24.043518727972355" x2="18.076861678040764" y2="24.043518727972355" class="delaunay-line"/>
<line x1="18.076861678040764" y1="24.043518727972355" x2="14.303211649965796" y2="22.333684158437507" class="delaunay-line"/>
<line x1="14.303211649965796" y1="22.333684158437507" x2="12.076861678040766" y2="24.043518727972355" class="delaunay-line"/>
<line x1="18.076861678040764" y1="23.543518727972355" x2="29.27234622131705" y2="14.561435958514446" class="delaunay-line"/>
<line x1="29.27234622131705" y1="14.561435958514446" x2="15.66302465408715" y2="15.746311879841334" class="delaunay-line"/>
<line x1="15.66302465408715" y1="15.746311879841334" x2="18.076861678040764" y2="23.543518727972355" class="delaunay-line"/>
<line x1="8.767884837160903" y1="1.216613408208263" x2="5.038324266088925" y2="5.360391974311252" class="delaunay-line"/>
<line x1="5.038324266088925" y1="5.360391974311252" x2="9.047080810780908" y2="9.21174002436103" class="delaunay-line"/>
<line x1="9.047080810780908" y1="9.21174002436103" x2="8.767884837160903" y2="1.216613408208263" class="delaunay-line"/>
<line x1="8.047689983761813" y1="9.24663952106353" x2="5.038324266088925" y2="5.360391974311252" class="delaunay-line"/>
<line x1="5.038324266088925" y1="5.360391974311252" x2="4.3071082056580385" y2="11.315668884159184" class="delaunay-line"/>
<line x1="4.3071082056580385" y1="11.315668884159184" x2="8.047689983761813" y2="9.24663952106353" class="delaunay-line"/>
<line x1="5.038324266088925" y1="5.360391974311252" x2="4.542051190268265" y2="5.29945730260868" class="delaunay-line"/>
<line x1="4.542051190268265" y1="5.29945730260868" x2="4.3071082056580385" y2="11.315668884159184" class="delaunay-line"/>
<line x1="4.3071082056580385" y1="11.315668884159184" x2="5.038324266088925" y2="5.360391974311252" class="delaunay-line"/>
<line x1="12.076861678040766" y1="24.043518727972355" x2="15.04429233565615" y2="29.32262733693543" class="delaunay-line"/>
<line x1="15.04429233565615" y1="29.32262733693543" x2="18.076861678040764" y2="24.043518727972355" class="delaunay-line"/>
<line x1="18.076861678040764" y1="24.043518727972355" x2="12.076861678040766" y2="24.043518727972355" class="delaunay-line"/>
<line x1="14.625753493191398" y1="35.30801163849438" x2="15.04429233565615" y2="29.32262733693543" class="delaunay-line"/>
<line x1="15.04429233565615" y1="29.32262733693543" x2="0" y2="36" class="delaunay-line"/>
<line x1="0" y1="36" x2="14.625753493191398" y2="35.30801163849438" class="delaunay-line"/>
<line x1="15.04429233565615" y1="29.32262733693543" x2="15.543074360786063" y2="29.35750557380749" class="delaunay-line"/>
<line x1="15.543074360786063" y1="29.35750557380749" x2="18.076861678040764" y2="24.043518727972355" class="delaunay-line"/>
<line x1="18.076861678040764" y1="24.043518727972355" x2="15.04429233565615" y2="29.32262733693543" class="delaunay-line"/>
<line x1="15.586734796133738" y1="6.990871745677105" x2="8.767884837160903" y2="1.216613408208263" class="delaunay-line"/>
<line x1="8.767884837160903" y1="1.216613408208263" x2="15.321775164017138" y2="7.414895793755318" class="delaunay-line"/>
<line x1="15.321775164017138" y1="7.414895793755318" x2="15.586734796133738" y2="6.990871745677105" class="delaunay-line"/>
<line x1="5.038324266088925" y1="5.360391974311252" x2="7.768494010141808" y2="1.2515129049107636" class="delaunay-line"/>
<line x1="7.768494010141808" y1="1.2515129049107636" x2="4.542051190268265" y2="5.29945730260868" class="delaunay-line"/>
<line x1="4.542051190268265" y1="5.29945730260868" x2="5.038324266088925" y2="5.360391974311252" class="delaunay-line"/>
<line x1="20.679475558573465" y1="2.157677862812161" x2="8.767884837160903" y2="1.216613408208263" class="delaunay-line"/>
<line x1="8.767884837160903" y1="1.216613408208263" x2="15.586734796133738" y2="6.990871745677105" class="delaunay-line"/>
<line x1="15.586734796133738" y1="6.990871745677105" x2="20.679475558573465" y2="2.157677862812161" class="delaunay-line"/>
<line x1="8.767884837160903" y1="1.216613408208263" x2="7.768494010141808" y2="1.2515129049107636" class="delaunay-line"/>
<line x1="7.768494010141808" y1="1.2515129049107636" x2="5.038324266088925" y2="5.360391974311252" class="delaunay-line"/>
<line x1="5.038324266088925" y1="5.360391974311252" x2="8.767884837160903" y2="1.216613408208263" class="delaunay-line"/>
<line x1="18.345769080503423" y1="30.459515460146957" x2="18.39803331213725" y2="29.962254512462817" class="delaunay-line"/>
<line x1="18.39803331213725" y1="29.962254512462817" x2="15.543074360786063" y2="29.35750557380749" class="delaunay-line"/>
<line x1="15.543074360786063" y1="29.35750557380749" x2="18.345769080503423" y2="30.459515460146957" class="delaunay-line"/>
<line x1="15.543074360786063" y1="29.35750557380749" x2="18.39803331213725" y2="29.962254512462817" class="delaunay-line"/>
<line x1="18.39803331213725" y1="29.962254512462817" x2="18.076861678040764" y2="24.043518727972355" class="delaunay-line"/>
<line x1="18.076861678040764" y1="24.043518727972355" x2="15.543074360786063" y2="29.35750557380749" class="delaunay-line"/>
<line x1="30.782447888451568" y1="28.301414032627548" x2="29.27234622131705" y2="14.561435958514446" class="delaunay-line"/>
<line x1="29.27234622131705" y1="14.561435958514446" x2="18.076861678040764" y2="23.543518727972355" class="delaunay-line"/>
<line x1="18.076861678040764" y1="23.543518727972355" x2="30.782447888451568" y2="28.301414032627548" class="delaunay-line"/>
<line x1="20.675023373072293" y1="10.170387331076334" x2="20.679475558573465" y2="2.157677862812161" class="delaunay-line"/>
<line x1="20.679475558573465" y1="2.157677862812161" x2="15.586734796133738" y2="6.990871745677105" class="delaunay-line"/>
<line x1="15.586734796133738" y1="6.990871745677105" x2="20.675023373072293" y2="10.170387331076334" class="delaunay-line"/>
<line x1="15.124535518321311" y1="35.34288987536644" x2="18.345769080503423" y2="30.459515460146957" class="delaunay-line"/>
<line x1="18.345769080503423" y1="30.459515460146957" x2="15.543074360786063" y2="29.35750557380749" class="delaunay-line"/>
<line x1="15.543074360786063" y1="29.35750557380749" x2="15.124535518321311" y2="35.34288987536644" class="delaunay-line"/>
<line x1="24.36516468434689" y1="30.589425292068736" x2="18.076861678040764" y2="23.543518727972355" class="delaunay-line"/>
<line x1="18.076861678040764" y1="23.543518727972355" x2="18.076861678040764" y2="24.043518727972355" class="delaunay-line"/>
<line x1="18.076861678040764" y1="24.043518727972355" x2="24.36516468434689" y2="30.589425292068736" class="delaunay-line"/>
<line x1="24.36516468434689" y1="30.589425292068736" x2="18.076861678040764" y2="24.043518727972355" class="delaunay-line"/>
<line x1="18.076861678040764" y1="24.043518727972355" x2="18.39803331213725" y2="29.962254512462817" class="delaunay-line"/>
<line x1="18.39803331213725" y1="29.962254512462817" x2="24.36516468434689" y2="30.589425292068736" class="delaunay-line"/>
<line x1="20.675023373072293" y1="10.170387331076334" x2="28.197016524860736" y2="4.893839009417507" class="delaunay-line"/>
<line x1="28.197016524860736" y1="4.893839009417507" x2="20.679475558573465" y2="2.157677862812161" class="delaunay-line"/>
<line x1="20.679475558573465" y1="2.157677862812161" x2="20.675023373072293" y2="10.170387331076334" class="delaunay-line"/>
<line x1="28.197016524860736" y1="4.893839009417507" x2="21.021495701899134" y2="1.2179852420262522" class="delaunay-line"/>
<line x1="21.021495701899134" y1="1.2179852420262522" x2="20.679475558573465" y2="2.157677862812161" class="delaunay-line"/>
<line x1="20.679475558573465" y1="2.157677862812161" x2="28.197016524860736" y2="4.893839009417507" class="delaunay-line"/>
<line x1="20.679475558573465" y1="2.157677862812161" x2="21.021495701899134" y2="1.2179852420262522" class="delaunay-line"/>
<line x1="21.021495701899134" y1="1.2179852420262522" x2="8.767884837160903" y2="1.216613408208263" class="delaunay-line"/>
<line x1="8.767884837160903" y1="1.216613408208263" x2="20.679475558573465" y2="2.157677862812161" class="delaunay-line"/>
<line x1="29.27234622131705" y1="14.561435958514446" x2="29.787384296227103" y2="13.704268657812335" class="delaunay-line"/>
<line x1="29.787384296227103" y1="13.704268657812335" x2="20.675023373072293" y2="10.170387331076334" class="delaunay-line"/>
<line x1="20.675023373072293" y1="10.170387331076334" x2="29.27234622131705" y2="14.561435958514446" class="delaunay-line"/>
<line x1="29.787384296227103" y1="13.704268657812335" x2="28.197016524860736" y2="4.893839009417507" class="delaunay-line"/>
<line x1="28.197016524860736" y1="4.893839009417507" x2="20.675023373072293" y2="10.170387331076334" class="delaunay-line"/>
<line x1="20.675023373072293" y1="10.170387331076334" x2="29.787384296227103" y2="13.704268657812335" class="delaunay-line"/>
<line x1="24.312900452713063" y1="31.086686239752876" x2="24.36516468434689" y2="30.589425292068736" class="delaunay-line"/>
<line x1="24.36516468434689" y1="30.589425292068736" x2="18.39803331213725" y2="29.962254512462817" class="delaunay-line"/>
<line x1="18.39803331213725" y1="29.962254512462817" x2="24.312900452713063" y2="31.086686239752876" class="delaunay-line"/>
<line x1="29.27234622131705" y1="14.561435958514446" x2="36.644722701844" y2="17.82457325709277" class="delaunay-line"/>
<line x1="36.644722701844" y1="17.82457325709277" x2="29.787384296227103" y2="13.704268657812335" class="delaunay-line"/>
<line x1="29.787384296227103" y1="13.704268657812335" x2="29.27234622131705" y2="14.561435958514446" class="delaunay-line"/>
<line x1="18.345769080503423" y1="30.459515460146957" x2="24.312900452713063" y2="31.086686239752876" class="delaunay-line"/>
<line x1="24.312900452713063" y1="31.086686239752876" x2="18.39803331213725" y2="29.962254512462817" class="delaunay-line"/>
<line x1="18.39803331213725" y1="29.962254512462817" x2="18.345769080503423" y2="30.459515460146957" class="delaunay-line"/>
<line x1="24.36516468434689" y1="30.589425292068736" x2="29.95341031589653" y2="28.860606936098293" class="delaunay-line"/>
<line x1="29.95341031589653" y1="28.860606936098293" x2="18.076861678040764" y2="23.543518727972355" class="delaunay-line"/>
<line x1="18.076861678040764" y1="23.543518727972355" x2="24.36516468434689" y2="30.589425292068736" class="delaunay-line"/>
<line x1="0" y1="36" x2="15.04429233565615" y2="29.32262733693543" class="delaunay-line"/>
<line x1="15.04429233565615" y1="29.32262733693543" x2="12.076861678040766" y2="24.043518727972355" class="delaunay-line"/>
<line x1="12.076861678040766" y1="24.043518727972355" x2="0" y2="36" class="delaunay-line"/>
<line x1="15.04429233565615" y1="29.32262733693543" x2="15.124535518321311" y2="35.34288987536644" class="delaunay-line"/>
<line x1="15.124535518321311" y1="35.34288987536644" x2="15.543074360786063" y2="29.35750557380749" class="delaunay-line"/>
<line x1="15.543074360786063" y1="29.35750557380749" x2="15.04429233565615" y2="29.32262733693543" class="delaunay-line"/>
<line x1="18.345769080503423" y1="30.459515460146957" x2="15.124535518321311" y2="35.34288987536644" class="delaunay-line"/>
<line x1="15.124535518321311" y1="35.34288987536644" x2="24.312900452713063" y2="31.086686239752876" class="delaunay-line"/>
<line x1="24.312900452713063" y1="31.086686239752876" x2="18.345769080503423" y2="30.459515460146957" class="delaunay-line"/>
<line x1="36" y1="0" x2="28.539036668186405" y2="3.9541463886315977" class="delaunay-line"/>
<line x1="28.539036668186405" y1="3.9541463886315977" x2="28.197016524860736" y2="4.893839009417507" class="delaunay-line"/>
<line x1="28.197016524860736" y1="4.893839009417507" x2="36" y2="0" class="delaunay-line"/>
<line x1="28.197016524860736" y1="4.893839009417507" x2="28.539036668186405" y2="3.9541463886315977" class="delaunay-line"/>
<line x1="28.539036668186405" y1="3.9541463886315977" x2="21.021495701899134" y2="1.2179852420262522" class="delaunay-line"/>
<line x1="21.021495701899134" y1="1.2179852420262522" x2="28.197016524860736" y2="4.893839009417507" class="delaunay-line"/>
<line x1="14.625753493191398" y1="35.30801163849438" x2="15.124535518321311" y2="35.34288987536644" class="delaunay-line"/>
<line x1="15.124535518321311" y1="35.34288987536644" x2="15.04429233565615" y2="29.32262733693543" class="delaunay-line"/>
<line x1="15.04429233565615" y1="29.32262733693543" x2="14.625753493191398" y2="35.30801163849438" class="delaunay-line"/>
<line x1="7.768494010141808" y1="1.2515129049107636" x2="0" y2="0" class="delaunay-line"/>
<line x1="0" y1="0" x2="4.542051190268265" y2="5.29945730260868" class="delaunay-line"/>
<line x1="4.542051190268265" y1="5.29945730260868" x2="7.768494010141808" y2="1.2515129049107636" class="delaunay-line"/>
<line x1="4.542051190268265" y1="5.29945730260868" x2="0" y2="0" class="delaunay-line"/>
<line x1="0" y1="0" x2="3.810835129837378" y2="11.254734212456611" class="delaunay-line"/>
<line x1="3.810835129837378" y1="11.254734212456611" x2="4.542051190268265" y2="5.29945730260868" class="delaunay-line"/>
<line x1="3.810835129837378" y1="11.254734212456611" x2="0" y2="36" class="delaunay-line"/>
<line x1="0" y1="36" x2="6.652773602261512" y2="19.994710520655616" class="delaunay-line"/>
<line x1="6.652773602261512" y1="19.994710520655616" x2="3.810835129837378" y2="11.254734212456611" class="delaunay-line"/>
<line x1="8.767884837160903" y1="1.216613408208263" x2="0" y2="0" class="delaunay-line"/>
<line x1="0" y1="0" x2="7.768494010141808" y2="1.2515129049107636" class="delaunay-line"/>
<line x1="7.768494010141808" y1="1.2515129049107636" x2="8.767884837160903" y2="1.216613408208263" class="delaunay-line"/>
<line x1="21.021495701899134" y1="1.2179852420262522" x2="0" y2="0" class="delaunay-line"/>
<line x1="0" y1="0" x2="8.767884837160903" y2="1.216613408208263" class="delaunay-line"/>
<line x1="8.767884837160903" y1="1.216613408208263" x2="21.021495701899134" y2="1.2179852420262522" class="delaunay-line"/>
<line x1="34.426953543662506" y1="35.49290751653862" x2="29.95341031589653" y2="28.860606936098293" class="delaunay-line"/>
<line x1="29.95341031589653" y1="28.860606936098293" x2="24.312900452713063" y2="31.086686239752876" class="delaunay-line"/>
<line x1="24.312900452713063" y1="31.086686239752876" x2="34.426953543662506" y2="35.49290751653862" class="delaunay-line"/>
<line x1="24.312900452713063" y1="31.086686239752876" x2="29.95341031589653" y2="28.860606936098293" class="delaunay-line"/>
<line x1="29.95341031589653" y1="28.860606936098293" x2="24.36516468434689" y2="30.589425292068736" class="delaunay-line"/>
<line x1="24.36516468434689" y1="30.589425292068736" x2="24.312900452713063" y2="31.086686239752876" class="delaunay-line"/>
<line x1="29.95341031589653" y1="28.860606936098293" x2="30.782447888451568" y2="28.301414032627548" class="delaunay-line"/>
<line x1="30.782447888451568" y1="28.301414032627548" x2="18.076861678040764" y2="23.543518727972355" class="delaunay-line"/>
<line x1="18.076861678040764" y1="23.543518727972355" x2="29.95341031589653" y2="28.860606936098293" class="delaunay-line"/>
<line x1="30.782447888451568" y1="28.301414032627548" x2="36.12968462693395" y2="18.681740557794882" class="delaunay-line"/>
<line x1="36.12968462693395" y1="18.681740557794882" x2="29.27234622131705" y2="14.561435958514446" class="delaunay-line"/>
<line x1="29.27234622131705" y1="14.561435958514446" x2="30.782447888451568" y2="28.301414032627548" class="delaunay-line"/>
<line x1="29.787384296227103" y1="13.704268657812335" x2="36" y2="0" class="delaunay-line"/>
<line x1="36" y1="0" x2="28.197016524860736" y2="4.893839009417507" class="delaunay-line"/>
<line x1="28.197016524860736" y1="4.893839009417507" x2="29.787384296227103" y2="13.704268657812335" class="delaunay-line"/>
<line x1="14.625753493191398" y1="35.30801163849438" x2="0" y2="36" class="delaunay-line"/>
<line x1="0" y1="36" x2="15.124535518321311" y2="35.34288987536644" class="delaunay-line"/>
<line x1="15.124535518321311" y1="35.34288987536644" x2="14.625753493191398" y2="35.30801163849438" class="delaunay-line"/>
<line x1="6.652773602261512" y1="19.994710520655616" x2="0" y2="36" class="delaunay-line"/>
<line x1="0" y1="36" x2="12.076861678040766" y2="24.043518727972355" class="delaunay-line"/>
<line x1="12.076861678040766" y1="24.043518727972355" x2="6.652773602261512" y2="19.994710520655616" class="delaunay-line"/>
<line x1="0" y1="0" x2="0" y2="36" class="delaunay-line"/>
<line x1="0" y1="36" x2="3.810835129837378" y2="11.254734212456611" class="delaunay-line"/>
<line x1="3.810835129837378" y1="11.254734212456611" x2="0" y2="0" class="delaunay-line"/>
<line x1="36" y1="36" x2="36.644722701844" y2="17.82457325709277" class="delaunay-line"/>
<line x1="36.644722701844" y1="17.82457325709277" x2="36.12968462693395" y2="18.681740557794882" class="delaunay-line"/>
<line x1="36.12968462693395" y1="18.681740557794882" x2="36" y2="36" class="delaunay-line"/>
<line x1="36.12968462693395" y1="18.681740557794882" x2="36.644722701844" y2="17.82457325709277" class="delaunay-line"/>
<line x1="36.644722701844" y1="17.82457325709277" x2="29.27234622131705" y2="14.561435958514446" class="delaunay-line"/>
<line x1="29.27234622131705" y1="14.561435958514446" x2="36.12968462693395" y2="18.681740557794882" class="delaunay-line"/>
<line x1="28.539036668186405" y1="3.9541463886315977" x2="36" y2="0" class="delaunay-line"/>
<line x1="36" y1="0" x2="21.021495701899134" y2="1.2179852420262522" class="delaunay-line"/>
<line x1="21.021495701899134" y1="1.2179852420262522" x2="28.539036668186405" y2="3.9541463886315977" class="delaunay-line"/>
<line x1="21.021495701899134" y1="1.2179852420262522" x2="36" y2="0" class="delaunay-line"/>
<line x1="36" y1="0" x2="0" y2="0" class="delaunay-line"/>
<line x1="0" y1="0" x2="21.021495701899134" y2="1.2179852420262522" class="delaunay-line"/>
<line x1="36.644722701844" y1="17.82457325709277" x2="36" y2="0" class="delaunay-line"/>
<line x1="36" y1="0" x2="29.787384296227103" y2="13.704268657812335" class="delaunay-line"/>
<line x1="29.787384296227103" y1="13.704268657812335" x2="36.644722701844" y2="17.82457325709277" class="delaunay-line"/>
<line x1="29.95341031589653" y1="28.860606936098293" x2="35.255991116217544" y2="34.93371461306788" class="delaunay-line"/>
<line x1="35.255991116217544" y1="34.93371461306788" x2="30.782447888451568" y2="28.301414032627548" class="delaunay-line"/>
<line x1="30.782447888451568" y1="28.301414032627548" x2="29.95341031589653" y2="28.860606936098293" class="delaunay-line"/>
<line x1="30.782447888451568" y1="28.301414032627548" x2="35.255991116217544" y2="34.93371461306788" class="delaunay-line"/>
<line x1="35.255991116217544" y1="34.93371461306788" x2="36.12968462693395" y2="18.681740557794882" class="delaunay-line"/>
<line x1="36.12968462693395" y1="18.681740557794882" x2="30.782447888451568" y2="28.301414032627548" class="delaunay-line"/>
<line x1="15.124535518321311" y1="35.34288987536644" x2="34.426953543662506" y2="35.49290751653862" class="delaunay-line"/>
<line x1="34.426953543662506" y1="35.49290751653862" x2="24.312900452713063" y2="31.086686239752876" class="delaunay-line"/>
<line x1="24.312900452713063" y1="31.086686239752876" x2="15.124535518321311" y2="35.34288987536644" class="delaunay-line"/>
<line x1="36" y1="36" x2="34.426953543662506" y2="35.49290751653862" class="delaunay-line"/>
<line x1="34.426953543662506" y1="35.49290751653862" x2="15.124535518321311" y2="35.34288987536644" class="delaunay-line"/>
<line x1="15.124535518321311" y1="35.34288987536644" x2="36" y2="36" class="delaunay-line"/>
<line x1="34.426953543662506" y1="35.49290751653862" x2="35.255991116217544" y2="34.93371461306788" class="delaunay-line"/>
<line x1="35.255991116217544" y1="34.93371461306788" x2="29.95341031589653" y2="28.860606936098293" class="delaunay-line"/>
<line x1="29.95341031589653" y1="28.860606936098293" x2="34.426953543662506" y2="35.49290751653862" class="delaunay-line"/>
<line x1="0" y1="36" x2="36" y2="36" class="delaunay-line"/>
<line x1="36" y1="36" x2="15.124535518321311" y2="35.34288987536644" class="delaunay-line"/>
<line x1="15.124535518321311" y1="35.34288987536644" x2="0" y2="36" class="delaunay-line"/>
<line x1="34.426953543662506" y1="35.49290751653862" x2="36" y2="36" class="delaunay-line"/>
<line x1="36" y1="36" x2="35.255991116217544" y2="34.93371461306788" class="delaunay-line"/>
<line x1="35.255991116217544" y1="34.93371461306788" x2="34.426953543662506" y2="35.49290751653862" class="delaunay-line"/>
<line x1="35.255991116217544" y1="34.93371461306788" x2="36" y2="36" class="delaunay-line"/>
<line x1="36" y1="36" x2="36.12968462693395" y2="18.681740557794882" class="delaunay-line"/>
<line x1="36.12968462693395" y1="18.681740557794882" x2="35.255991116217544" y2="34.93371461306788" class="delaunay-line"/>
</g>
<g id="layer-area" class="layer ">
</g>
<g id="layer-building" class="layer ">
</g>
<g id="layer-wall" class="layer ">
<polygon points="9.047080810780908,9.21174002436103 8.047689983761813,9.24663952106353 7.768494010141808,1.2515129049107636 8.767884837160903,1.216613408208263" class="terrain-solid"/>
<text x="8.407787410461358" y="5.231626464635897" class="label">#555555</text>
<polygon points="4.3071082056580385,11.315668884159184 3.810835129837378,11.254734212456611 4.542051190268265,5.29945730260868 5.038324266088925,5.360391974311252" class="terrain-solid"/>
<text x="4.424579697963152" y="8.307563093383932" class="label">#555555</text>
<polygon points="29.95341031589653,28.860606936098293 30.782447888451568,28.301414032627548 35.255991116217544,34.93371461306788 34.426953543662506,35.49290751653862" class="terrain-solid"/>
<text x="32.60470071605704" y="31.897160774583085" class="label">#555555</text>
<polygon points="15.321775164017138,7.414895793755318 15.586734796133738,6.990871745677105 20.675023373072293,10.170387331076334 20.410063740955692,10.594411379154547" class="terrain-solid"/>
<text x="17.998399268544716" y="8.792641562415827" class="label">#555555</text>
<polygon points="36.644722701844,17.82457325709277 36.12968462693395,18.681740557794882 29.27234622131705,14.561435958514446 29.787384296227103,13.704268657812335" class="terrain-solid"/>
<text x="32.95853446158053" y="16.19300460780361" class="label">#555555</text>
<polygon points="14.595583354688532,21.377379402474475 14.303211649965796,22.333684158437507 6.652773602261512,19.994710520655616 6.945145306984248,19.038405764692584" class="terrain-solid"/>
<text x="10.62417847847502" y="20.686044961565045" class="label">#555555</text>
<polygon points="20.679475558573465,2.157677862812161 21.021495701899134,1.2179852420262522 28.539036668186405,3.9541463886315977 28.197016524860736,4.893839009417507" class="terrain-solid"/>
<text x="24.609256113379935" y="3.0559121257218793" class="label">#555555</text>
<polygon points="18.345769080503423,30.459515460146957 18.39803331213725,29.962254512462817 24.36516468434689,30.589425292068736 24.312900452713063,31.086686239752876" class="terrain-solid"/>
<text x="21.35546688242516" y="30.524470376107846" class="label">#555555</text>
<polygon points="18.076861678040764,23.543518727972355 18.076861678040764,24.043518727972355 12.076861678040766,24.043518727972355 12.076861678040766,23.543518727972355" class="terrain-solid"/>
<text x="15.076861678040764" y="23.793518727972355" class="label">#555555</text>
<polygon points="15.628146417215087,15.247529854711422 15.66302465408715,15.746311879841334 9.677640352528206,16.164850722306088 9.642762115656142,15.666068697176174" class="terrain-solid"/>
<text x="12.652893384871646" y="15.706190288508754" class="label">#555555</text>
<polygon points="15.04429233565615,29.32262733693543 15.543074360786063,29.35750557380749 15.124535518321311,35.34288987536644 14.625753493191398,35.30801163849438" class="terrain-solid"/>
<text x="15.08441392698873" y="32.33275860615093" class="label">#555555</text>
</g>
<g id="layer-tree" class="layer ">
</g>
<g id="layer-rocks" class="layer ">
</g>
<g id="layer-shrub" class="layer ">
</g>
<g id="layer-terrain" class="layer ">
</g>
<g id="layer-clearance" class="layer hidden">
</g>
<g id="layer-models" class="layer ">
</g>
<g id="layer-paths" class="layer ">
</g>
<g id="layer-vectors" class="layer ">
</g>
<g id="layer-los" class="layer ">
</g>
<g id="layer-lof" class="layer ">
</g>

<g id="legend">
<g class="toggle" onclick="toggleLayer('deployment')"><rect x="0.4" y="0.14999999999999997" width="0.4" height="0.4" fill="#222" stroke="#222" stroke-width="0.05"/><text x="1.0" y="0.5499999999999999" class="label">Deployment Zones</text></g>
<g class="toggle" onclick="toggleLayer('grid')"><rect x="0.4" y="0.95" width="0.4" height="0.4" fill="#222" stroke="#222" stroke-width="0.05"/><text x="1.0" y="1.3499999999999999" class="label">0.5 MU Grid</text></g>
<g class="toggle" onclick="toggleLayer('delaunay')"><rect x="0.4" y="1.7500000000000002" width="0.4" height="0.4" fill="#222" stroke="#222" stroke-width="0.05"/><text x="1.0" y="2.1500000000000004" class="label">Delaunay Mesh</text></g>
<g class="toggle disabled"><rect x="0.4" y="2.55" width="0.4" height="0.4" fill="#222" stroke="#222" stroke-width="0.05"/><text x="1.0" y="2.95" class="label">Area Terrain</text></g>
<g class="toggle disabled"><rect x="0.4" y="3.3499999999999996" width="0.4" height="0.4" fill="#222" stroke="#222" stroke-width="0.05"/><text x="1.0" y="3.75" class="label">Buildings</text></g>
<g class="toggle" onclick="toggleLayer('wall')"><rect x="0.4" y="4.1499999999999995" width="0.4" height="0.4" fill="#222" stroke="#222" stroke-width="0.05"/><text x="1.0" y="4.55" class="label">Walls</text></g>
<g class="toggle disabled"><rect x="0.4" y="4.949999999999999" width="0.4" height="0.4" fill="#222" stroke="#222" stroke-width="0.05"/><text x="1.0" y="5.35" class="label">Trees</text></g>
<g class="toggle disabled"><rect x="0.4" y="5.749999999999999" width="0.4" height="0.4" fill="#222" stroke="#222" stroke-width="0.05"/><text x="1.0" y="6.1499999999999995" class="label">Rocks</text></g>
<g class="toggle disabled"><rect x="0.4" y="6.549999999999999" width="0.4" height="0.4" fill="#222" stroke="#222" stroke-width="0.05"/><text x="1.0" y="6.949999999999999" class="label">Shrubs</text></g>
<g class="toggle" onclick="toggleLayer('terrain')"><rect x="0.4" y="7.349999999999999" width="0.4" height="0.4" fill="#222" stroke="#222" stroke-width="0.05"/><text x="1.0" y="7.749999999999999" class="label">Other Terrain</text></g>
<g class="toggle" onclick="toggleLayer('clearance')"><rect x="0.4" y="8.15" width="0.4" height="0.4" fill="#fff" stroke="#222" stroke-width="0.05"/><text x="1.0" y="8.549999999999999" class="label">Clearance Zones</text></g>
<g class="toggle" onclick="toggleLayer('models')"><rect x="0.4" y="8.950000000000001" width="0.4" height="0.4" fill="#222" stroke="#222" stroke-width="0.05"/><text x="1.0" y="9.35" class="label">Models</text></g>
<g class="toggle" onclick="toggleLayer('paths')"><rect x="0.4" y="9.750000000000002" width="0.4" height="0.4" fill="#222" stroke="#222" stroke-width="0.05"/><text x="1.0" y="10.15" class="label">Paths</text></g>
<g class="toggle" onclick="toggleLayer('vectors')"><rect x="0.4" y="10.550000000000002" width="0.4" height="0.4" fill="#222" stroke="#222" stroke-width="0.05"/><text x="1.0" y="10.950000000000001" class="label">Vectors</text></g>
<g class="toggle" onclick="toggleLayer('los')"><rect x="0.4" y="11.350000000000003" width="0.4" height="0.4" fill="#222" stroke="#222" stroke-width="0.05"/><text x="1.0" y="11.750000000000002" class="label">LOS</text></g>
<g class="toggle" onclick="toggleLayer('lof')"><rect x="0.4" y="12.150000000000004" width="0.4" height="0.4" fill="#222" stroke="#222" stroke-width="0.05"/><text x="1.0" y="12.550000000000002" class="label">LOF</text></g>
</g>
</svg>