<svg xmlns="http://www.w3.org/2000/svg" viewBox="0 0 36 36" width="1440" height="1440" font-family="Arial" font-size="0.6">
<defs>
  <style><![CDATA[
    .layer { display: inline; }
    .layer.hidden { display: none; }
    .grid-line { stroke: #999; stroke-width: 0.02; opacity: 0.2; }
    .grid-line-2mu { stroke: #666; stroke-width: 0.04; opacity: 0.4; }
    .grid-line-6mu { stroke: #333; stroke-width: 0.08; opacity: 0.6; }
    .delaunay-line { stroke: #4a6fa5; stroke-width: 0.03; opacity: 0.3; }
    #layer-area { opacity: 0.8; }
    #layer-building, #layer-wall, #layer-tree, #layer-rocks, #layer-shrub, #layer-terrain { opacity: 0.8; }
    .terrain-area { stroke: none; }
    .terrain-solid { stroke: #000; stroke-width: 0.05; }
    .model { stroke: #ff0000; stroke-width: 2; vector-effect: non-scaling-stroke; }
    .path { fill: none; stroke-width: 0.12; }
    .vector { stroke-width: 0.1; }
    .los-ray { stroke-width: 0.08; stroke-dasharray: 0.2 0.2; }
    .lof-ray { stroke-width: 0.08; stroke-dasharray: 0.3 0.15; }
    .label { fill: #111 !important; font-size: 0.6px; }
    .toggle { cursor: pointer; }
    .toggle.disabled { cursor: default; }
    .toggle.disabled rect { stroke: #ccc; fill: #fff; }
    .toggle.disabled text { fill: #ccc; }
#layer-wall { fill: #555555; }
  ]]></style>
</defs>
<rect x="0" y="0" width="36" height="36" fill="#ffffff" stroke="#111" stroke-width="0.05"/>
<script><![CDATA[
      function toggleLayer(id) {
        var layer = document.getElementById('layer-' + id);
        if (!layer) return;
        if (layer.classList.contains('hidden')) {
          layer.classList.remove('hidden');
        } else {
          layer.classList.add('hidden');
        }
      }
    ]]></script>
<text x="0.4" y="35.6" class="label">MEDIUM battlefield_A0-B0-W60-R0-S0-T0</text>
<g id="layer-deployment" class="layer ">
</g>
<g id="layer-grid" class="layer ">
<line x1="0" y1="0" x2="0" y2="36" class="grid-line-6mu"/>
<line x1="0.5" y1="0" x2="0.5" y2="36" class="grid-line"/>
<line x1="1" y1="0" x2="1" y2="36" class="grid-line"/>
<line x1="1.5" y1="0" x2="1.5" y2="36" class="grid-line"/>
<line x1="2" y1="0" x2="2" y2="36" class="grid-line-2mu"/>
<line x1="2.5" y1="0" x2="2.5" y2="36" class="grid-line"/>
<line x1="3" y1="0" x2="3" y2="36" class="grid-line"/>
<line x1="3.5" y1="0" x2="3.5" y2="36" class="grid-line"/>
<line x1="4" y1="0" x2="4" y2="36" class="grid-line-2mu"/>
<line x1="4.5" y1="0" x2="4.5" y2="36" class="grid-line"/>
<line x1="5" y1="0" x2="5" y2="36" class="grid-line"/>
<line x1="5.5" y1="0" x2="5.5" y2="36" class="grid-line"/>
<line x1="6" y1="0" x2="6" y2="36" class="grid-line-6mu"/>
<line x1="6.5" y1="0" x2="6.5" y2="36" class="grid-line"/>
<line x1="7" y1="0" x2="7" y2="36" class="grid-line"/>
<line x1="7.5" y1="0" x2="7.5" y2="36" class="grid-line"/>
<line x1="8" y1="0" x2="8" y2="36" class="grid-line-2mu"/>
<line x1="8.5" y1="0" x2="8.5" y2="36" class="grid-line"/>
<line x1="9" y1="0" x2="9" y2="36" class="grid-line"/>
<line x1="9.5" y1="0" x2="9.5" y2="36" class="grid-line"/>
<line x1="10" y1="0" x2="10" y2="36" class="grid-line-2mu"/>
<line x1="10.5" y1="0" x2="10.5" y2="36" class="grid-line"/>
<line x1="11" y1="0" x2="11" y2="36" class="grid-line"/>
<line x1="11.5" y1="0" x2="11.5" y2="36" class="grid-line"/>
<line x1="12" y1="0" x2="12" y2="36" class="grid-line-6mu"/>
<line x1="12.5" y1="0" x2="12.5" y2="36" class="grid-line"/>
<line x1="13" y1="0" x2="13" y2="36" class="grid-line"/>
<line x1="13.5" y1="0" x2="13.5" y2="36" class="grid-line"/>
<line x1="14" y1="0" x2="14" y2="36" class="grid-line-2mu"/>
<line x1="14.5" y1="0" x2="14.5" y2="36" class="grid-line"/>
<line x1="15" y1="0" x2="15" y2="36" class="grid-line"/>
<line x1="15.5" y1="0" x2="15.5" y2="36" class="grid-line"/>
<line x1="16" y1="0" x2="16" y2="36" class="grid-line-2mu"/>
<line x1="16.5" y1="0" x2="16.5" y2="36" class="grid-line"/>
<line x1="17" y1="0" x2="17" y2="36" class="grid-line"/>
<line x1="17.5" y1="0" x2="17.5" y2="36" class="grid-line"/>
<line x1="18" y1="0" x2="18" y2="36" class="grid-line-6mu"/>
<line x1="18.5" y1="0" x2="18.5" y2="36" class="grid-line"/>
<line x1="19" y1="0" x2="19" y2="36" class="grid-line"/>
<line x1="19.5" y1="0" x2="19.5" y2="36" class="grid-line"/>
<line x1="20" y1="0" x2="20" y2="36" class="grid-line-2mu"/>
<line x1="20.5" y1="0" x2="20.5" y2="36" class="grid-line"/>
<line x1="21" y1="0" x2="21" y2="36" class="grid-line"/>
<line x1="21.5" y1="0" x2="21.5" y2="36" class="grid-line"/>
<line x1="22" y1="0" x2="22" y2="36" class="grid-line-2mu"/>
<line x1="22.5" y1="0" x2="22.5" y2="36" class="grid-line"/>
<line x1="23" y1="0" x2="23" y2="36" class="grid-line"/>
<line x1="23.5" y1="0" x2="23.5" y2="36" class="grid-line"/>
<line x1="24" y1="0" x2="24" y2="36" class="grid-line-6mu"/>
<line x1="24.5" y1="0" x2="24.5" y2="36" class="grid-line"/>
<line x1="25" y1="0" x2="25" y2="36" class="grid-line"/>
<line x1="25.5" y1="0" x2="25.5" y2="36" class="grid-line"/>
<line x1="26" y1="0" x2="26" y2="36" class="grid-line-2mu"/>
<line x1="26.5" y1="0" x2="26.5" y2="36" class="grid-line"/>
<line x1="27" y1="0" x2="27" y2="36" class="grid-line"/>
<line x1="27.5" y1="0" x2="27.5" y2="36" class="grid-line"/>
<line x1="28" y1="0" x2="28" y2="36" class="grid-line-2mu"/>
<line x1="28.5" y1="0" x2="28.5" y2="36" class="grid-line"/>
<line x1="29" y1="0" x2="29" y2="36" class="grid-line"/>
<line x1="29.5" y1="0" x2="29.5" y2="36" class="grid-line"/>
<line x1="30" y1="0" x2="30" y2="36" class="grid-line-6mu"/>
<line x1="30.5" y1="0" x2="30.5" y2="36" class="grid-line"/>
<line x1="31" y1="0" x2="31" y2="36" class="grid-line"/>
<line x1="31.5" y1="0" x2="31.5" y2="36" class="grid-line"/>
<line x1="32" y1="0" x2="32" y2="36" class="grid-line-2mu"/>
<line x1="32.5" y1="0" x2="32.5" y2="36" class="grid-line"/>
<line x1="33" y1="0" x2="33" y2="36" class="grid-line"/>
<line x1="33.5" y1="0" x2="33.5" y2="36" class="grid-line"/>
<line x1="34" y1="0" x2="34" y2="36" class="grid-line-2mu"/>
<line x1="34.5" y1="0" x2="34.5" y2="36" class="grid-line"/>
<line x1="35" y1="0" x2="35" y2="36" class="grid-line"/>
<line x1="35.5" y1="0" x2="35.5" y2="36" class="grid-line"/>
<line x1="36" y1="0" x2="36" y2="36" class="grid-line-6mu"/>
<line x1="0" y1="0" x2="36" y2="0" class="grid-line-6mu"/>
<line x1="0" y1="0.5" x2="36" y2="0.5" class="grid-line"/>
<line x1="0" y1="1" x2="36" y2="1" class="grid-line"/>
<line x1="0" y1="1.5" x2="36" y2="1.5" class="grid-line"/>
<line x1="0" y1="2" x2="36" y2="2" class="grid-line-2mu"/>
<line x1="0" y1="2.5" x2="36" y2="2.5" class="grid-line"/>
<line x1="0" y1="3" x2="36" y2="3" class="grid-line"/>
<line x1="0" y1="3.5" x2="36" y2="3.5" class="grid-line"/>
<line x1="0" y1="4" x2="36" y2="4" class="grid-line-2mu"/>
<line x1="0" y1="4.5" x2="36" y2="4.5" class="grid-line"/>
<line x1="0" y1="5" x2="36" y2="5" class="grid-line"/>
<line x1="0" y1="5.5" x2="36" y2="5.5" class="grid-line"/>
<line x1="0" y1="6" x2="36" y2="6" class="grid-line-6mu"/>
<line x1="0" y1="6.5" x2="36" y2="6.5" class="grid-line"/>
<line x1="0" y1="7" x2="36" y2="7" class="grid-line"/>
<line x1="0" y1="7.5" x2="36" y2="7.5" class="grid-line"/>
<line x1="0" y1="8" x2="36" y2="8" class="grid-line-2mu"/>
<line x1="0" y1="8.5" x2="36" y2="8.5" class="grid-line"/>
<line x1="0" y1="9" x2="36" y2="9" class="grid-line"/>
<line x1="0" y1="9.5" x2="36" y2="9.5" class="grid-line"/>
<line x1="0" y1="10" x2="36" y2="10" class="grid-line-2mu"/>
<line x1="0" y1="10.5" x2="36" y2="10.5" class="grid-line"/>
<line x1="0" y1="11" x2="36" y2="11" class="grid-line"/>
<line x1="0" y1="11.5" x2="36" y2="11.5" class="grid-line"/>
<line x1="0" y1="12" x2="36" y2="12" class="grid-line-6mu"/>
<line x1="0" y1="12.5" x2="36" y2="12.5" class="grid-line"/>
<line x1="0" y1="13" x2="36" y2="13" class="grid-line"/>
<line x1="0" y1="13.5" x2="36" y2="13.5" class="grid-line"/>
<line x1="0" y1="14" x2="36" y2="14" class="grid-line-2mu"/>
<line x1="0" y1="14.5" x2="36" y2="14.5" class="grid-line"/>
<line x1="0" y1="15" x2="36" y2="15" class="grid-line"/>
<line x1="0" y1="15.5" x2="36" y2="15.5" class="grid-line"/>
<line x1="0" y1="16" x2="36" y2="16" class="grid-line-2mu"/>
<line x1="0" y1="16.5" x2="36" y2="16.5" class="grid-line"/>
<line x1="0" y1="17" x2="36" y2="17" class="grid-line"/>
<line x1="0" y1="17.5" x2="36" y2="17.5" class="grid-line"/>
<line x1="0" y1="18" x2="36" y2="18" class="grid-line-6mu"/>
<line x1="0" y1="18.5" x2="36" y2="18.5" class="grid-line"/>
<line x1="0" y1="19" x2="36" y2="19" class="grid-line"/>
<line x1="0" y1="19.5" x2="36" y2="19.5" class="grid-line"/>
<line x1="0" y1="20" x2="36" y2="20" class="grid-line-2mu"/>
<line x1="0" y1="20.5" x2="36" y2="20.5" class="grid-line"/>
<line x1="0" y1="21" x2="36" y2="21" class="grid-line"/>
<line x1="0" y1="21.5" x2="36" y2="21.5" class="grid-line"/>
<line x1="0" y1="22" x2="36" y2="22" class="grid-line-2mu"/>
<line x1="0" y1="22.5" x2="36" y2="22.5" class="grid-line"/>
<line x1="0" y1="23" x2="36" y2="23" class="grid-line"/>
<line x1="0" y1="23.5" x2="36" y2="23.5" class="grid-line"/>
<line x1="0" y1="24" x2="36" y2="24" class="grid-line-6mu"/>
<line x1="0" y1="24.5" x2="36" y2="24.5" class="grid-line"/>
<line x1="0" y1="25" x2="36" y2="25" class="grid-line"/>
<line x1="0" y1="25.5" x2="36" y2="25.5" class="grid-line"/>
<line x1="0" y1="26" x2="36" y2="26" class="grid-line-2mu"/>
<line x1="0" y1="26.5" x2="36" y2="26.5" class="grid-line"/>
<line x1="0" y1="27" x2="36" y2="27" class="grid-line"/>
<line x1="0" y1="27.5" x2="36" y2="27.5" class="grid-line"/>
<line x1="0" y1="28" x2="36" y2="28" class="grid-line-2mu"/>
<line x1="0" y1="28.5" x2="36" y2="28.5" class="grid-line"/>
<line x1="0" y1="29" x2="36" y2="29" class="grid-line"/>
<line x1="0" y1="29.5" x2="36" y2="29.5" class="grid-line"/>
<line x1="0" y1="30" x2="36" y2="30" class="grid-line-6mu"/>
<line x1="0" y1="30.5" x2="36" y2="30.5" class="grid-line"/>
<line x1="0" y1="31" x2="36" y2="31" class="grid-line"/>
<line x1="0" y1="31.5" x2="36" y2="31.5" class="grid-line"/>
<line x1="0" y1="32" x2="36" y2="32" class="grid-line-2mu"/>
<line x1="0" y1="32.5" x2="36" y2="32.5" class="grid-line"/>
<line x1="0" y1="33" x2="36" y2="33" class="grid-line"/>
<line x1="0" y1="33.5" x2="36" y2="33.5" class="grid-line"/>
<line x1="0" y1="34" x2="36" y2="34" class="grid-line-2mu"/>
<line x1="0" y1="34.5" x2="36" y2="34.5" class="grid-line"/>
<line x1="0" y1="35" x2="36" y2="35" class="grid-line"/>
<line x1="0" y1="35.5" x2="36" y2="35.5" class="grid-line"/>
<line x1="0" y1="36" x2="36" y2="36" class="grid-line-6mu"/>
</g>
<g id="layer-delaunay" class="layer ">
<line x1="13.757960171716253" y1="15.279754310861797" x2="13.26888637134935" y2="15.175798465452921" class="delaunay-line"/>
<line x1="13.26888637134935" y1="15.175798465452921" x2="10.545217408966625" y2="17.598716449821037" class="delaunay-line"/>
<line x1="10.545217408966625" y1="17.598716449821037" x2="13.757960171716253" y2="15.279754310861797" class="delaunay-line"/>
<line x1="6.8580479149037545" y1="12.839012559656005" x2="10.125882124993915" y2="17.87103596732855" class="delaunay-line"/>
<line x1="10.125882124993915" y1="17.87103596732855" x2="10.545217408966625" y2="17.598716449821037" class="delaunay-line"/>
<line x1="10.545217408966625" y1="17.598716449821037" x2="6.8580479149037545" y2="12.839012559656005" class="delaunay-line"/>
<line x1="12.021416226442796" y1="21.044684069855755" x2="12.510490026809698" y2="21.14863991526463" class="delaunay-line"/>
<line x1="12.510490026809698" y1="21.14863991526463" x2="10.545217408966625" y2="17.598716449821037" class="delaunay-line"/>
<line x1="10.545217408966625" y1="17.598716449821037" x2="12.021416226442796" y2="21.044684069855755" class="delaunay-line"/>
<line x1="10.545217408966625" y1="17.598716449821037" x2="12.510490026809698" y2="21.14863991526463" class="delaunay-line"/>
<line x1="12.510490026809698" y1="21.14863991526463" x2="13.757960171716253" y2="15.279754310861797" class="delaunay-line"/>
<line x1="13.757960171716253" y1="15.279754310861797" x2="10.545217408966625" y2="17.598716449821037" class="delaunay-line"/>
<line x1="10.125882124993915" y1="17.87103596732855" x2="12.021416226442796" y2="21.044684069855755" class="delaunay-line"/>
<line x1="12.021416226442796" y1="21.044684069855755" x2="10.545217408966625" y2="17.598716449821037" class="delaunay-line"/>
<line x1="10.545217408966625" y1="17.598716449821037" x2="10.125882124993915" y2="17.87103596732855" class="delaunay-line"/>
<line x1="10.886641362259269" y1="23.7156851663435" x2="11.369604275403802" y2="23.845094688894765" class="delaunay-line"/>
<line x1="11.369604275403802" y1="23.845094688894765" x2="12.021416226442796" y2="21.044684069855755" class="delaunay-line"/>
<line x1="12.021416226442796" y1="21.044684069855755" x2="10.886641362259269" y2="23.7156851663435" class="delaunay-line"/>
<line x1="12.021416226442796" y1="21.044684069855755" x2="11.369604275403802" y2="23.845094688894765" class="delaunay-line"/>
<line x1="11.369604275403802" y1="23.845094688894765" x2="12.510490026809698" y2="21.14863991526463" class="delaunay-line"/>
<line x1="12.510490026809698" y1="21.14863991526463" x2="12.021416226442796" y2="21.044684069855755" class="delaunay-line"/>
<line x1="7.997184033787317" y1="24.313614018674564" x2="10.886641362259269" y2="23.7156851663435" class="delaunay-line"/>
<line x1="10.886641362259269" y1="23.7156851663435" x2="7.573159985709104" y2="24.048654386557963" class="delaunay-line"/>
<line x1="7.573159985709104" y1="24.048654386557963" x2="7.997184033787317" y2="24.313614018674564" class="delaunay-line"/>
<line x1="9.375966457856471" y1="10.143378561880171" x2="7.277383198876465" y2="12.566693042148493" class="delaunay-line"/>
<line x1="7.277383198876465" y1="12.566693042148493" x2="13.26888637134935" y2="15.175798465452921" class="delaunay-line"/>
<line x1="13.26888637134935" y1="15.175798465452921" x2="9.375966457856471" y2="10.143378561880171" class="delaunay-line"/>
<line x1="13.26888637134935" y1="15.175798465452921" x2="7.277383198876465" y2="12.566693042148493" class="delaunay-line"/>
<line x1="7.277383198876465" y1="12.566693042148493" x2="10.545217408966625" y2="17.598716449821037" class="delaunay-line"/>
<line x1="10.545217408966625" y1="17.598716449821037" x2="13.26888637134935" y2="15.175798465452921" class="delaunay-line"/>
<line x1="7.573159985709104" y1="24.048654386557963" x2="10.886641362259269" y2="23.7156851663435" class="delaunay-line"/>
<line x1="10.886641362259269" y1="23.7156851663435" x2="12.021416226442796" y2="21.044684069855755" class="delaunay-line"/>
<line x1="12.021416226442796" y1="21.044684069855755" x2="7.573159985709104" y2="24.048654386557963" class="delaunay-line"/>
<line x1="7.277383198876465" y1="12.566693042148493" x2="6.8580479149037545" y2="12.839012559656005" class="delaunay-line"/>
<line x1="6.8580479149037545" y1="12.839012559656005" x2="10.545217408966625" y2="17.598716449821037" class="delaunay-line"/>
<line x1="10.545217408966625" y1="17.598716449821037" x2="7.277383198876465" y2="12.566693042148493" class="delaunay-line"/>
<line x1="19.09920834956561" y1="8.714595775044202" x2="9.375966457856471" y2="10.143378561880171" class="delaunay-line"/>
<line x1="9.375966457856471" y1="10.143378561880171" x2="13.26888637134935" y2="15.175798465452921" class="delaunay-line"/>
<line x1="13.26888637134935" y1="15.175798465452921" x2="19.09920834956561" y2="8.714595775044202" class="delaunay-line"/>
<line x1="7.277383198876465" y1="12.566693042148493" x2="3.4671199397832226" y2="11.185267627881755" class="delaunay-line"/>
<line x1="3.4671199397832226" y1="11.185267627881755" x2="6.8580479149037545" y2="12.839012559656005" class="delaunay-line"/>
<line x1="6.8580479149037545" y1="12.839012559656005" x2="7.277383198876465" y2="12.566693042148493" class="delaunay-line"/>
<line x1="7.573159985709104" y1="24.048654386557963" x2="12.021416226442796" y2="21.044684069855755" class="delaunay-line"/>
<line x1="12.021416226442796" y1="21.044684069855755" x2="10.125882124993915" y2="17.87103596732855" class="delaunay-line"/>
<line x1="10.125882124993915" y1="17.87103596732855" x2="7.573159985709104" y2="24.048654386557963" class="delaunay-line"/>
<line x1="13.396246316704042" y1="27.452647720288425" x2="13.790251693507402" y2="27.1448169826256" class="delaunay-line"/>
<line x1="13.790251693507402" y1="27.1448169826256" x2="11.369604275403802" y2="23.845094688894765" class="delaunay-line"/>
<line x1="11.369604275403802" y1="23.845094688894765" x2="13.396246316704042" y2="27.452647720288425" class="delaunay-line"/>
<line x1="4.953246306825308" y1="20.686663326424927" x2="7.573159985709104" y2="24.048654386557963" class="delaunay-line"/>
<line x1="7.573159985709104" y1="24.048654386557963" x2="10.125882124993915" y2="17.87103596732855" class="delaunay-line"/>
<line x1="10.125882124993915" y1="17.87103596732855" x2="4.953246306825308" y2="20.686663326424927" class="delaunay-line"/>
<line x1="6.8580479149037545" y1="12.839012559656005" x2="4.953246306825308" y2="20.686663326424927" class="delaunay-line"/>
<line x1="4.953246306825308" y1="20.686663326424927" x2="10.125882124993915" y2="17.87103596732855" class="delaunay-line"/>
<line x1="10.125882124993915" y1="17.87103596732855" x2="6.8580479149037545" y2="12.839012559656005" class="delaunay-line"/>
<line x1="19.09920834956561" y1="8.714595775044202" x2="9.289142369023006" y2="9.650974685374068" class="delaunay-line"/>
<line x1="9.289142369023006" y1="9.650974685374068" x2="9.375966457856471" y2="10.143378561880171" class="delaunay-line"/>
<line x1="9.375966457856471" y1="10.143378561880171" x2="19.09920834956561" y2="8.714595775044202" class="delaunay-line"/>
<line x1="9.375966457856471" y1="10.143378561880171" x2="9.289142369023006" y2="9.650974685374068" class="delaunay-line"/>
<line x1="9.289142369023006" y1="9.650974685374068" x2="7.277383198876465" y2="12.566693042148493" class="delaunay-line"/>
<line x1="7.277383198876465" y1="12.566693042148493" x2="9.375966457856471" y2="10.143378561880171" class="delaunay-line"/>
<line x1="0.5668902559334614" y1="16.562359676739995" x2="4.581673894086611" y2="21.02122862960436" class="delaunay-line"/>
<line x1="4.581673894086611" y1="21.02122862960436" x2="4.953246306825308" y2="20.686663326424927" class="delaunay-line"/>
<line x1="4.953246306825308" y1="20.686663326424927" x2="0.5668902559334614" y2="16.562359676739995" class="delaunay-line"/>
<line x1="4.953246306825308" y1="20.686663326424927" x2="4.581673894086611" y2="21.02122862960436" class="delaunay-line"/>
<line x1="4.581673894086611" y1="21.02122862960436" x2="7.573159985709104" y2="24.048654386557963" class="delaunay-line"/>
<line x1="7.573159985709104" y1="24.048654386557963" x2="4.953246306825308" y2="20.686663326424927" class="delaunay-line"/>
<line x1="13.790251693507402" y1="27.1448169826256" x2="20.706809638536306" y2="22.476321371507222" class="delaunay-line"/>
<line x1="20.706809638536306" y1="22.476321371507222" x2="12.510490026809698" y2="21.14863991526463" class="delaunay-line"/>
<line x1="12.510490026809698" y1="21.14863991526463" x2="13.790251693507402" y2="27.1448169826256" class="delaunay-line"/>
<line x1="12.510490026809698" y1="21.14863991526463" x2="20.706809638536306" y2="22.476321371507222" class="delaunay-line"/>
<line x1="20.706809638536306" y1="22.476321371507222" x2="13.757960171716253" y2="15.279754310861797" class="delaunay-line"/>
<line x1="13.757960171716253" y1="15.279754310861797" x2="12.510490026809698" y2="21.14863991526463" class="delaunay-line"/>
<line x1="13.757960171716253" y1="15.279754310861797" x2="19.09920834956561" y2="8.714595775044202" class="delaunay-line"/>
<line x1="19.09920834956561" y1="8.714595775044202" x2="13.26888637134935" y2="15.175798465452921" class="delaunay-line"/>
<line x1="13.26888637134935" y1="15.175798465452921" x2="13.757960171716253" y2="15.279754310861797" class="delaunay-line"/>
<line x1="13.396246316704042" y1="27.452647720288425" x2="11.369604275403802" y2="23.845094688894765" class="delaunay-line"/>
<line x1="11.369604275403802" y1="23.845094688894765" x2="9.81669000478868" y2="29.640649646629175" class="delaunay-line"/>
<line x1="9.81669000478868" y1="29.640649646629175" x2="13.396246316704042" y2="27.452647720288425" class="delaunay-line"/>
<line x1="11.369604275403802" y1="23.845094688894765" x2="13.790251693507402" y2="27.1448169826256" class="delaunay-line"/>
<line x1="13.790251693507402" y1="27.1448169826256" x2="12.510490026809698" y2="21.14863991526463" class="delaunay-line"/>
<line x1="12.510490026809698" y1="21.14863991526463" x2="11.369604275403802" y2="23.845094688894765" class="delaunay-line"/>
<line x1="24.002088032281236" y1="29.834387714488766" x2="21.66311439449934" y2="22.183949666784482" class="delaunay-line"/>
<line x1="21.66311439449934" y1="22.183949666784482" x2="20.706809638536306" y2="22.476321371507222" class="delaunay-line"/>
<line x1="20.706809638536306" y1="22.476321371507222" x2="24.002088032281236" y2="29.834387714488766" class="delaunay-line"/>
<line x1="20.706809638536306" y1="22.476321371507222" x2="21.66311439449934" y2="22.183949666784482" class="delaunay-line"/>
<line x1="21.66311439449934" y1="22.183949666784482" x2="13.757960171716253" y2="15.279754310861797" class="delaunay-line"/>
<line x1="13.757960171716253" y1="15.279754310861797" x2="20.706809638536306" y2="22.476321371507222" class="delaunay-line"/>
<line x1="9.81669000478868" y1="29.640649646629175" x2="11.369604275403802" y2="23.845094688894765" class="delaunay-line"/>
<line x1="11.369604275403802" y1="23.845094688894765" x2="9.333727091644146" y2="29.51124012407791" class="delaunay-line"/>
<line x1="9.333727091644146" y1="29.51124012407791" x2="9.81669000478868" y2="29.640649646629175" class="delaunay-line"/>
<line x1="13.790251693507402" y1="27.1448169826256" x2="17.48422054546135" y2="31.872881504265933" class="delaunay-line"/>
<line x1="17.48422054546135" y1="31.872881504265933" x2="20.706809638536306" y2="22.476321371507222" class="delaunay-line"/>
<line x1="20.706809638536306" y1="22.476321371507222" x2="13.790251693507402" y2="27.1448169826256" class="delaunay-line"/>
<line x1="21.66311439449934" y1="22.183949666784482" x2="19.09920834956561" y2="8.714595775044202" class="delaunay-line"/>
<line x1="19.09920834956561" y1="8.714595775044202" x2="13.757960171716253" y2="15.279754310861797" class="delaunay-line"/>
<line x1="13.757960171716253" y1="15.279754310861797" x2="21.66311439449934" y2="22.183949666784482" class="delaunay-line"/>
<line x1="3.3802958509497576" y1="10.692863751375652" x2="3.4671199397832226" y2="11.185267627881755" class="delaunay-line"/>
<line x1="3.4671199397832226" y1="11.185267627881755" x2="7.277383198876465" y2="12.566693042148493" class="delaunay-line"/>
<line x1="7.277383198876465" y1="12.566693042148493" x2="3.3802958509497576" y2="10.692863751375652" class="delaunay-line"/>
<line x1="6.8580479149037545" y1="12.839012559656005" x2="0.9384626686721584" y2="16.227794373560563" class="delaunay-line"/>
<line x1="0.9384626686721584" y1="16.227794373560563" x2="4.953246306825308" y2="20.686663326424927" class="delaunay-line"/>
<line x1="4.953246306825308" y1="20.686663326424927" x2="6.8580479149037545" y2="12.839012559656005" class="delaunay-line"/>
<line x1="27.06493927288916" y1="9.95843292564188" x2="19.374845705382608" y2="7.753334079105884" class="delaunay-line"/>
<line x1="19.374845705382608" y1="7.753334079105884" x2="19.09920834956561" y2="8.714595775044202" class="delaunay-line"/>
<line x1="19.09920834956561" y1="8.714595775044202" x2="27.06493927288916" y2="9.95843292564188" class="delaunay-line"/>
<line x1="19.09920834956561" y1="8.714595775044202" x2="19.374845705382608" y2="7.753334079105884" class="delaunay-line"/>
<line x1="19.374845705382608" y1="7.753334079105884" x2="9.289142369023006" y2="9.650974685374068" class="delaunay-line"/>
<line x1="9.289142369023006" y1="9.650974685374068" x2="19.09920834956561" y2="8.714595775044202" class="delaunay-line"/>
<line x1="9.289142369023006" y1="9.650974685374068" x2="3.3802958509497576" y2="10.692863751375652" class="delaunay-line"/>
<line x1="3.3802958509497576" y1="10.692863751375652" x2="7.277383198876465" y2="12.566693042148493" class="delaunay-line"/>
<line x1="7.277383198876465" y1="12.566693042148493" x2="9.289142369023006" y2="9.650974685374068" class="delaunay-line"/>
<line x1="3.4671199397832226" y1="11.185267627881755" x2="0.9384626686721584" y2="16.227794373560563" class="delaunay-line"/>
<line x1="0.9384626686721584" y1="16.227794373560563" x2="6.8580479149037545" y2="12.839012559656005" class="delaunay-line"/>
<line x1="6.8580479149037545" y1="12.839012559656005" x2="3.4671199397832226" y2="11.185267627881755" class="delaunay-line"/>
<line x1="0" y1="0" x2="3.3802958509497576" y2="10.692863751375652" class="delaunay-line"/>
<line x1="3.3802958509497576" y1="10.692863751375652" x2="9.289142369023006" y2="9.650974685374068" class="delaunay-line"/>
<line x1="9.289142369023006" y1="9.650974685374068" x2="0" y2="0" class="delaunay-line"/>
<line x1="3.3802958509497576" y1="10.692863751375652" x2="0.9384626686721584" y2="16.227794373560563" class="delaunay-line"/>
<line x1="0.9384626686721584" y1="16.227794373560563" x2="3.4671199397832226" y2="11.185267627881755" class="delaunay-line"/>
<line x1="3.4671199397832226" y1="11.185267627881755" x2="3.3802958509497576" y2="10.692863751375652" class="delaunay-line"/>
<line x1="9.333727091644146" y1="29.51124012407791" x2="10.886641362259269" y2="23.7156851663435" class="delaunay-line"/>
<line x1="10.886641362259269" y1="23.7156851663435" x2="7.997184033787317" y2="24.313614018674564" class="delaunay-line"/>
<line x1="7.997184033787317" y1="24.313614018674564" x2="9.333727091644146" y2="29.51124012407791" class="delaunay-line"/>
<line x1="9.333727091644146" y1="29.51124012407791" x2="11.369604275403802" y2="23.845094688894765" class="delaunay-line"/>
<line x1="11.369604275403802" y1="23.845094688894765" x2="10.886641362259269" y2="23.7156851663435" class="delaunay-line"/>
<line x1="10.886641362259269" y1="23.7156851663435" x2="9.333727091644146" y2="29.51124012407791" class="delaunay-line"/>
<line x1="9.333727091644146" y1="29.51124012407791" x2="7.997184033787317" y2="24.313614018674564" class="delaunay-line"/>
<line x1="7.997184033787317" y1="24.313614018674564" x2="4.817668448388087" y2="29.401902595613123" class="delaunay-line"/>
<line x1="4.817668448388087" y1="29.401902595613123" x2="9.333727091644146" y2="29.51124012407791" class="delaunay-line"/>
<line x1="7.997184033787317" y1="24.313614018674564" x2="7.573159985709104" y2="24.048654386557963" class="delaunay-line"/>
<line x1="7.573159985709104" y1="24.048654386557963" x2="4.817668448388087" y2="29.401902595613123" class="delaunay-line"/>
<line x1="4.817668448388087" y1="29.401902595613123" x2="7.997184033787317" y2="24.313614018674564" class="delaunay-line"/>
<line x1="4.817668448388087" y1="29.401902595613123" x2="7.573159985709104" y2="24.048654386557963" class="delaunay-line"/>
<line x1="7.573159985709104" y1="24.048654386557963" x2="4.393644400309874" y2="29.136942963496523" class="delaunay-line"/>
<line x1="4.393644400309874" y1="29.136942963496523" x2="4.817668448388087" y2="29.401902595613123" class="delaunay-line"/>
<line x1="3.3802958509497576" y1="10.692863751375652" x2="0.5668902559334614" y2="16.562359676739995" class="delaunay-line"/>
<line x1="0.5668902559334614" y1="16.562359676739995" x2="0.9384626686721584" y2="16.227794373560563" class="delaunay-line"/>
<line x1="0.9384626686721584" y1="16.227794373560563" x2="3.3802958509497576" y2="10.692863751375652" class="delaunay-line"/>
<line x1="0.9384626686721584" y1="16.227794373560563" x2="0.5668902559334614" y2="16.562359676739995" class="delaunay-line"/>
<line x1="0.5668902559334614" y1="16.562359676739995" x2="4.953246306825308" y2="20.686663326424927" class="delaunay-line"/>
<line x1="4.953246306825308" y1="20.686663326424927" x2="0.9384626686721584" y2="16.227794373560563" class="delaunay-line"/>
<line x1="4.393644400309874" y1="29.136942963496523" x2="7.573159985709104" y2="24.048654386557963" class="delaunay-line"/>
<line x1="7.573159985709104" y1="24.048654386557963" x2="4.581673894086611" y2="21.02122862960436" class="delaunay-line"/>
<line x1="4.581673894086611" y1="21.02122862960436" x2="4.393644400309874" y2="29.136942963496523" class="delaunay-line"/>
<line x1="9.333727091644146" y1="29.51124012407791" x2="0" y2="36" class="delaunay-line"/>
<line x1="0" y1="36" x2="9.81669000478868" y2="29.640649646629175" class="delaunay-line"/>
<line x1="9.81669000478868" y1="29.640649646629175" x2="9.333727091644146" y2="29.51124012407791" class="delaunay-line"/>
<line x1="0.5668902559334614" y1="16.562359676739995" x2="4.393644400309874" y2="29.136942963496523" class="delaunay-line"/>
<line x1="4.393644400309874" y1="29.136942963496523" x2="4.581673894086611" y2="21.02122862960436" class="delaunay-line"/>
<line x1="4.581673894086611" y1="21.02122862960436" x2="0.5668902559334614" y2="16.562359676739995" class="delaunay-line"/>
<line x1="17.09021516865799" y1="32.18071224192876" x2="17.48422054546135" y2="31.872881504265933" class="delaunay-line"/>
<line x1="17.48422054546135" y1="31.872881504265933" x2="13.790251693507402" y2="27.1448169826256" class="delaunay-line"/>
<line x1="13.790251693507402" y1="27.1448169826256" x2="17.09021516865799" y2="32.18071224192876" class="delaunay-line"/>
<line x1="17.09021516865799" y1="32.18071224192876" x2="13.790251693507402" y2="27.1448169826256" class="delaunay-line"/>
<line x1="13.790251693507402" y1="27.1448169826256" x2="13.396246316704042" y2="27.452647720288425" class="delaunay-line"/>
<line x1="13.396246316704042" y1="27.452647720288425" x2="17.09021516865799" y2="32.18071224192876" class="delaunay-line"/>
<line x1="17.09021516865799" y1="32.18071224192876" x2="13.396246316704042" y2="27.452647720288425" class="delaunay-line"/>
<line x1="13.396246316704042" y1="27.452647720288425" x2="9.81669000478868" y2="29.640649646629175" class="delaunay-line"/>
<line x1="9.81669000478868" y1="29.640649646629175" x2="17.09021516865799" y2="32.18071224192876" class="delaunay-line"/>
<line x1="0" y1="36" x2="17.09021516865799" y2="32.18071224192876" class="delaunay-line"/>
<line x1="17.09021516865799" y1="32.18071224192876" x2="9.81669000478868" y2="29.640649646629175" class="delaunay-line"/>
<line x1="9.81669000478868" y1="29.640649646629175" x2="0" y2="36" class="delaunay-line"/>
<line x1="21.66311439449934" y1="22.183949666784482" x2="26.789301917072162" y2="10.919694621580199" class="delaunay-line"/>
<line x1="26.789301917072162" y1="10.919694621580199" x2="19.09920834956561" y2="8.714595775044202" class="delaunay-line"/>
<line x1="19.09920834956561" y1="8.714595775044202" x2="21.66311439449934" y2="22.183949666784482" class="delaunay-line"/>
<line x1="32.94794825062574" y1="30.468851724052183" x2="26.789301917072162" y2="10.919694621580199" class="delaunay-line"/>
<line x1="26.789301917072162" y1="10.919694621580199" x2="21.66311439449934" y2="22.183949666784482" class="delaunay-line"/>
<line x1="21.66311439449934" y1="22.183949666784482" x2="32.94794825062574" y2="30.468851724052183" class="delaunay-line"/>
<line x1="26.789301917072162" y1="10.919694621580199" x2="27.06493927288916" y2="9.95843292564188" class="delaunay-line"/>
<line x1="27.06493927288916" y1="9.95843292564188" x2="19.09920834956561" y2="8.714595775044202" class="delaunay-line"/>
<line x1="19.09920834956561" y1="8.714595775044202" x2="26.789301917072162" y2="10.919694621580199" class="delaunay-line"/>
<line x1="28.21988372898541" y1="34.16282057600613" x2="23.045783276318204" y2="30.126759419211506" class="delaunay-line"/>
<line x1="23.045783276318204" y1="30.126759419211506" x2="17.48422054546135" y2="31.872881504265933" class="delaunay-line"/>
<line x1="17.48422054546135" y1="31.872881504265933" x2="28.21988372898541" y2="34.16282057600613" class="delaunay-line"/>
<line x1="17.48422054546135" y1="31.872881504265933" x2="23.045783276318204" y2="30.126759419211506" class="delaunay-line"/>
<line x1="23.045783276318204" y1="30.126759419211506" x2="20.706809638536306" y2="22.476321371507222" class="delaunay-line"/>
<line x1="20.706809638536306" y1="22.476321371507222" x2="17.48422054546135" y2="31.872881504265933" class="delaunay-line"/>
<line x1="26.789301917072162" y1="10.919694621580199" x2="34.15963958540135" y2="4.072886603123499" class="delaunay-line"/>
<line x1="34.15963958540135" y1="4.072886603123499" x2="27.06493927288916" y2="9.95843292564188" class="delaunay-line"/>
<line x1="27.06493927288916" y1="9.95843292564188" x2="26.789301917072162" y2="10.919694621580199" class="delaunay-line"/>
<line x1="28.21988372898541" y1="34.16282057600613" x2="24.002088032281236" y2="29.834387714488766" class="delaunay-line"/>
<line x1="24.002088032281236" y1="29.834387714488766" x2="23.045783276318204" y2="30.126759419211506" class="delaunay-line"/>
<line x1="23.045783276318204" y1="30.126759419211506" x2="28.21988372898541" y2="34.16282057600613" class="delaunay-line"/>
<line x1="23.045783276318204" y1="30.126759419211506" x2="24.002088032281236" y2="29.834387714488766" class="delaunay-line"/>
<line x1="24.002088032281236" y1="29.834387714488766" x2="20.706809638536306" y2="22.476321371507222" class="delaunay-line"/>
<line x1="20.706809638536306" y1="22.476321371507222" x2="23.045783276318204" y2="30.126759419211506" class="delaunay-line"/>
<line x1="27.06493927288916" y1="9.95843292564188" x2="26.25813286064025" y2="5.324362323445347" class="delaunay-line"/>
<line x1="26.25813286064025" y1="5.324362323445347" x2="19.374845705382608" y2="7.753334079105884" class="delaunay-line"/>
<line x1="19.374845705382608" y1="7.753334079105884" x2="27.06493927288916" y2="9.95843292564188" class="delaunay-line"/>
<line x1="19.374845705382608" y1="7.753334079105884" x2="0" y2="0" class="delaunay-line"/>
<line x1="0" y1="0" x2="9.289142369023006" y2="9.650974685374068" class="delaunay-line"/>
<line x1="9.289142369023006" y1="9.650974685374068" x2="19.374845705382608" y2="7.753334079105884" class="delaunay-line"/>
<line x1="34.15963958540135" y1="4.072886603123499" x2="26.10169839560002" y2="4.336673982850209" class="delaunay-line"/>
<line x1="26.10169839560002" y1="4.336673982850209" x2="26.25813286064025" y2="5.324362323445347" class="delaunay-line"/>
<line x1="26.25813286064025" y1="5.324362323445347" x2="34.15963958540135" y2="4.072886603123499" class="delaunay-line"/>
<line x1="26.25813286064025" y1="5.324362323445347" x2="26.10169839560002" y2="4.336673982850209" class="delaunay-line"/>
<line x1="26.10169839560002" y1="4.336673982850209" x2="19.374845705382608" y2="7.753334079105884" class="delaunay-line"/>
<line x1="19.374845705382608" y1="7.753334079105884" x2="26.25813286064025" y2="5.324362323445347" class="delaunay-line"/>
<line x1="26.10169839560002" y1="4.336673982850209" x2="0" y2="0" class="delaunay-line"/>
<line x1="0" y1="0" x2="19.374845705382608" y2="7.753334079105884" class="delaunay-line"/>
<line x1="19.374845705382608" y1="7.753334079105884" x2="26.10169839560002" y2="4.336673982850209" class="delaunay-line"/>
<line x1="3.3802958509497576" y1="10.692863751375652" x2="0" y2="0" class="delaunay-line"/>
<line x1="0" y1="0" x2="0.5668902559334614" y2="16.562359676739995" class="delaunay-line"/>
<line x1="0.5668902559334614" y1="16.562359676739995" x2="3.3802958509497576" y2="10.692863751375652" class="delaunay-line"/>
<line x1="17.09021516865799" y1="32.18071224192876" x2="28.21988372898541" y2="34.16282057600613" class="delaunay-line"/>
<line x1="28.21988372898541" y1="34.16282057600613" x2="17.48422054546135" y2="31.872881504265933" class="delaunay-line"/>
<line x1="17.48422054546135" y1="31.872881504265933" x2="17.09021516865799" y2="32.18071224192876" class="delaunay-line"/>
<line x1="24.002088032281236" y1="29.834387714488766" x2="32.94794825062574" y2="30.468851724052183" class="delaunay-line"/>
<line x1="32.94794825062574" y1="30.468851724052183" x2="21.66311439449934" y2="22.183949666784482" class="delaunay-line"/>
<line x1="21.66311439449934" y1="22.183949666784482" x2="24.002088032281236" y2="29.834387714488766" class="delaunay-line"/>
<line x1="4.393644400309874" y1="29.136942963496523" x2="0" y2="36" class="delaunay-line"/>
<line x1="0" y1="36" x2="4.817668448388087" y2="29.401902595613123" class="delaunay-line"/>
<line x1="4.817668448388087" y1="29.401902595613123" x2="4.393644400309874" y2="29.136942963496523" class="delaunay-line"/>
<line x1="4.817668448388087" y1="29.401902595613123" x2="0" y2="36" class="delaunay-line"/>
<line x1="0" y1="36" x2="9.333727091644146" y2="29.51124012407791" class="delaunay-line"/>
<line x1="9.333727091644146" y1="29.51124012407791" x2="4.817668448388087" y2="29.401902595613123" class="delaunay-line"/>
<line x1="17.09021516865799" y1="32.18071224192876" x2="28.527714466648234" y2="34.5568259528095" class="delaunay-line"/>
<line x1="28.527714466648234" y1="34.5568259528095" x2="28.21988372898541" y2="34.16282057600613" class="delaunay-line"/>
<line x1="28.21988372898541" y1="34.16282057600613" x2="17.09021516865799" y2="32.18071224192876" class="delaunay-line"/>
<line x1="0.5668902559334614" y1="16.562359676739995" x2="0" y2="36" class="delaunay-line"/>
<line x1="0" y1="36" x2="4.393644400309874" y2="29.136942963496523" class="delaunay-line"/>
<line x1="4.393644400309874" y1="29.136942963496523" x2="0.5668902559334614" y2="16.562359676739995" class="delaunay-line"/>
<line x1="0" y1="0" x2="0" y2="36" class="delaunay-line"/>
<line x1="0" y1="36" x2="0.5668902559334614" y2="16.562359676739995" class="delaunay-line"/>
<line x1="0.5668902559334614" y1="16.562359676739995" x2="0" y2="0" class="delaunay-line"/>
<line x1="0" y1="36" x2="28.527714466648234" y2="34.5568259528095" class="delaunay-line"/>
<line x1="28.527714466648234" y1="34.5568259528095" x2="17.09021516865799" y2="32.18071224192876" class="delaunay-line"/>
<line x1="17.09021516865799" y1="32.18071224192876" x2="0" y2="36" class="delaunay-line"/>
<line x1="28.21988372898541" y1="34.16282057600613" x2="32.94794825062574" y2="30.468851724052183" class="delaunay-line"/>
<line x1="32.94794825062574" y1="30.468851724052183" x2="24.002088032281236" y2="29.834387714488766" class="delaunay-line"/>
<line x1="24.002088032281236" y1="29.834387714488766" x2="28.21988372898541" y2="34.16282057600613" class="delaunay-line"/>
<line x1="33.25577898828857" y1="30.862857100855546" x2="32.94794825062574" y2="30.468851724052183" class="delaunay-line"/>
<line x1="32.94794825062574" y1="30.468851724052183" x2="28.21988372898541" y2="34.16282057600613" class="delaunay-line"/>
<line x1="28.21988372898541" y1="34.16282057600613" x2="33.25577898828857" y2="30.862857100855546" class="delaunay-line"/>
<line x1="27.06493927288916" y1="9.95843292564188" x2="34.15963958540135" y2="4.072886603123499" class="delaunay-line"/>
<line x1="34.15963958540135" y1="4.072886603123499" x2="26.25813286064025" y2="5.324362323445347" class="delaunay-line"/>
<line x1="26.25813286064025" y1="5.324362323445347" x2="27.06493927288916" y2="9.95843292564188" class="delaunay-line"/>
<line x1="28.527714466648234" y1="34.5568259528095" x2="33.25577898828857" y2="30.862857100855546" class="delaunay-line"/>
<line x1="33.25577898828857" y1="30.862857100855546" x2="28.21988372898541" y2="34.16282057600613" class="delaunay-line"/>
<line x1="28.21988372898541" y1="34.16282057600613" x2="28.527714466648234" y2="34.5568259528095" class="delaunay-line"/>
<line x1="32.94794825062574" y1="30.468851724052183" x2="34.15963958540135" y2="4.072886603123499" class="delaunay-line"/>
<line x1="34.15963958540135" y1="4.072886603123499" x2="26.789301917072162" y2="10.919694621580199" class="delaunay-line"/>
<line x1="26.789301917072162" y1="10.919694621580199" x2="32.94794825062574" y2="30.468851724052183" class="delaunay-line"/>
<line x1="33.25577898828857" y1="30.862857100855546" x2="34.15963958540135" y2="4.072886603123499" class="delaunay-line"/>
<line x1="34.15963958540135" y1="4.072886603123499" x2="32.94794825062574" y2="30.468851724052183" class="delaunay-line"/>
<line x1="32.94794825062574" y1="30.468851724052183" x2="33.25577898828857" y2="30.862857100855546" class="delaunay-line"/>
<line x1="26.10169839560002" y1="4.336673982850209" x2="36" y2="0" class="delaunay-line"/>
<line x1="36" y1="0" x2="0" y2="0" class="delaunay-line"/>
<line x1="0" y1="0" x2="26.10169839560002" y2="4.336673982850209" class="delaunay-line"/>
<line x1="34.15963958540135" y1="4.072886603123499" x2="34.00320512036112" y2="3.085198262528361" class="delaunay-line"/>
<line x1="34.00320512036112" y1="3.085198262528361" x2="26.10169839560002" y2="4.336673982850209" class="delaunay-line"/>
<line x1="26.10169839560002" y1="4.336673982850209" x2="34.15963958540135" y2="4.072886603123499" class="delaunay-line"/>
<line x1="36" y1="36" x2="36" y2="0" class="delaunay-line"/>
<line x1="36" y1="0" x2="34.15963958540135" y2="4.072886603123499" class="delaunay-line"/>
<line x1="34.15963958540135" y1="4.072886603123499" x2="36" y2="36" class="delaunay-line"/>
<line x1="34.15963958540135" y1="4.072886603123499" x2="36" y2="0" class="delaunay-line"/>
<line x1="36" y1="0" x2="34.00320512036112" y2="3.085198262528361" class="delaunay-line"/>
<line x1="34.00320512036112" y1="3.085198262528361" x2="34.15963958540135" y2="4.072886603123499" class="delaunay-line"/>
<line x1="34.00320512036112" y1="3.085198262528361" x2="36" y2="0" class="delaunay-line"/>
<line x1="36" y1="0" x2="26.10169839560002" y2="4.336673982850209" class="delaunay-line"/>
<line x1="26.10169839560002" y1="4.336673982850209" x2="34.00320512036112" y2="3.085198262528361" class="delaunay-line"/>
<line x1="28.527714466648234" y1="34.5568259528095" x2="36" y2="36" class="delaunay-line"/>
<line x1="36" y1="36" x2="33.25577898828857" y2="30.862857100855546" class="delaunay-line"/>
<line x1="33.25577898828857" y1="30.862857100855546" x2="28.527714466648234" y2="34.5568259528095" class="delaunay-line"/>
<line x1="33.25577898828857" y1="30.862857100855546" x2="36" y2="36" class="delaunay-line"/>
<line x1="36" y1="36" x2="34.15963958540135" y2="4.072886603123499" class="delaunay-line"/>
<line x1="34.15963958540135" y1="4.072886603123499" x2="33.25577898828857" y2="30.862857100855546" class="delaunay-line"/>
<line x1="0" y1="36" x2="36" y2="36" class="delaunay-line"/>
<line x1="36" y1="36" x2="28.527714466648234" y2="34.5568259528095" class="delaunay-line"/>
<line x1="28.527714466648234" y1="34.5568259528095" x2="0" y2="36" class="delaunay-line"/>
</g>
<g id="layer-area" class="layer ">
</g>
<g id="layer-building" class="layer ">
</g>
<g id="layer-wall" class="layer ">
<polygon points="26.25813286064025,5.324362323445347 26.10169839560002,4.336673982850209 34.00320512036112,3.085198262528361 34.15963958540135,4.072886603123499" class="terrain-solid"/>
<text x="30.130668990500688" y="4.204780292986855" class="label">#555555</text>
<polygon points="4.953246306825308,20.686663326424927 4.581673894086611,21.02122862960436 0.5668902559334614,16.562359676739995 0.9384626686721584,16.227794373560563" class="terrain-solid"/>
<text x="2.760068281379385" y="18.62451150158246" class="label">#555555</text>
<polygon points="10.545217408966625,17.598716449821037 10.125882124993915,17.87103596732855 6.8580479149037545,12.839012559656005 7.277383198876465,12.566693042148493" class="terrain-solid"/>
<text x="8.70163266193519" y="15.218864504738521" class="label">#555555</text>
<polygon points="4.817668448388087,29.401902595613123 4.393644400309874,29.136942963496523 7.573159985709104,24.048654386557963 7.997184033787317,24.313614018674564" class="terrain-solid"/>
<text x="6.1954142170485955" y="26.725278491085547" class="label">#555555</text>
<polygon points="12.510490026809698,21.14863991526463 12.021416226442796,21.044684069855755 13.26888637134935,15.175798465452921 13.757960171716253,15.279754310861797" class="terrain-solid"/>
<text x="12.889688199079522" y="18.162219190358776" class="label">#555555</text>
<polygon points="19.09920834956561,8.714595775044202 19.374845705382608,7.753334079105884 27.06493927288916,9.95843292564188 26.789301917072162,10.919694621580199" class="terrain-solid"/>
<text x="23.082073811227385" y="9.336514350343041" class="label">#555555</text>
<polygon points="9.289142369023006,9.650974685374068 9.375966457856471,10.143378561880171 3.4671199397832226,11.185267627881755 3.3802958509497576,10.692863751375652" class="terrain-solid"/>
<text x="6.378131154403114" y="10.418121156627912" class="label">#555555</text>
<polygon points="17.48422054546135,31.872881504265933 17.09021516865799,32.18071224192876 13.396246316704042,27.452647720288425 13.790251693507402,27.1448169826256" class="terrain-solid"/>
<text x="15.440233431082698" y="29.66276461227718" class="label">#555555</text>
<polygon points="32.94794825062574,30.468851724052183 33.25577898828857,30.862857100855546 28.527714466648234,34.5568259528095 28.21988372898541,34.16282057600613" class="terrain-solid"/>
<text x="30.73783135863699" y="32.51283883843084" class="label">#555555</text>
<polygon points="24.002088032281236,29.834387714488766 23.045783276318204,30.126759419211506 20.706809638536306,22.476321371507222 21.66311439449934,22.183949666784482" class="terrain-solid"/>
<text x="22.354448835408768" y="26.155354542997994" class="label">#555555</text>
<polygon points="9.81669000478868,29.640649646629175 9.333727091644146,29.51124012407791 10.886641362259269,23.7156851663435 11.369604275403802,23.845094688894765" class="terrain-solid"/>
<text x="10.351665683523974" y="26.678167406486338" class="label">#555555</text>
</g>
<g id="layer-tree" class="layer ">
</g>
<g id="layer-rocks" class="layer ">
</g>
<g id="layer-shrub" class="layer ">
</g>
<g id="layer-terrain" class="layer ">
</g>
<g id="layer-clearance" class="layer hidden">
</g>
<g id="layer-models" class="layer ">
</g>
<g id="layer-paths" class="layer ">
</g>
<g id="layer-vectors" class="layer ">
</g>
<g id="layer-los" class="layer ">
</g>
<g id="layer-lof" class="layer ">
</g>

<g id="legend">
<g class="toggle" onclick="toggleLayer('deployment')"><rect x="0.4" y="0.14999999999999997" width="0.4" height="0.4" fill="#222" stroke="#222" stroke-width="0.05"/><text x="1.0" y="0.5499999999999999" class="label">Deployment Zones</text></g>
<g class="toggle" onclick="toggleLayer('grid')"><rect x="0.4" y="0.95" width="0.4" height="0.4" fill="#222" stroke="#222" stroke-width="0.05"/><text x="1.0" y="1.3499999999999999" class="label">0.5 MU Grid</text></g>
<g class="toggle" onclick="toggleLayer('delaunay')"><rect x="0.4" y="1.7500000000000002" width="0.4" height="0.4" fill="#222" stroke="#222" stroke-width="0.05"/><text x="1.0" y="2.1500000000000004" class="label">Delaunay Mesh</text></g>
<g class="toggle disabled"><rect x="0.4" y="2.55" width="0.4" height="0.4" fill="#222" stroke="#222" stroke-width="0.05"/><text x="1.0" y="2.95" class="label">Area Terrain</text></g>
<g class="toggle disabled"><rect x="0.4" y="3.3499999999999996" width="0.4" height="0.4" fill="#222" stroke="#222" stroke-width="0.05"/><text x="1.0" y="3.75" class="label">Buildings</text></g>
<g class="toggle" onclick="toggleLayer('wall')"><rect x="0.4" y="4.1499999999999995" width="0.4" height="0.4" fill="#222" stroke="#222" stroke-width="0.05"/><text x="1.0" y="4.55" class="label">Walls</text></g>
<g class="toggle disabled"><rect x="0.4" y="4.949999999999999" width="0.4" height="0.4" fill="#222" stroke="#222" stroke-width="0.05"/><text x="1.0" y="5.35" class="label">Trees</text></g>
<g class="toggle disabled"><rect x="0.4" y="5.749999999999999" width="0.4" height="0.4" fill="#222" stroke="#222" stroke-width="0.05"/><text x="1.0" y="6.1499999999999995" class="label">Rocks</text></g>
<g class="toggle disabled"><rect x="0.4" y="6.549999999999999" width="0.4" height="0.4" fill="#222" stroke="#222" stroke-width="0.05"/><text x="1.0" y="6.949999999999999" class="label">Shrubs</text></g>
<g class="toggle" onclick="toggleLayer('terrain')"><rect x="0.4" y="7.349999999999999" width="0.4" height="0.4" fill="#222" stroke="#222" stroke-width="0.05"/><text x="1.0" y="7.749999999999999" class="label">Other Terrain</text></g>
<g class="toggle" onclick="toggleLayer('clearance')"><rect x="0.4" y="8.15" width="0.4" height="0.4" fill="#fff" stroke="#222" stroke-width="0.05"/><text x="1.0" y="8.549999999999999" class="label">Clearance Zones</text></g>
<g class="toggle" onclick="toggleLayer('models')"><rect x="0.4" y="8.950000000000001" width="0.4" height="0.4" fill="#222" stroke="#222" stroke-width="0.05"/><text x="1.0" y="9.35" class="label">Models</text></g>
<g class="toggle" onclick="toggleLayer('paths')"><rect x="0.4" y="9.750000000000002" width="0.4" height="0.4" fill="#222" stroke="#222" stroke-width="0.05"/><text x="1.0" y="10.15" class="label">Paths</text></g>
<g class="toggle" onclick="toggleLayer('vectors')"><rect x="0.4" y="10.550000000000002" width="0.4" height="0.4" fill="#222" stroke="#222" stroke-width="0.05"/><text x="1.0" y="10.950000000000001" class="label">Vectors</text></g>
<g class="toggle" onclick="toggleLayer('los')"><rect x="0.4" y="11.350000000000003" width="0.4" height="0.4" fill="#222" stroke="#222" stroke-width="0.05"/><text x="1.0" y="11.750000000000002" class="label">LOS</text></g>
<g class="toggle" onclick="toggleLayer('lof')"><rect x="0.4" y="12.150000000000004" width="0.4" height="0.4" fill="#222" stroke="#222" stroke-width="0.05"/><text x="1.0" y="12.550000000000002" class="label">LOF</text></g>
</g>
</svg>