<svg xmlns="http://www.w3.org/2000/svg" viewBox="0 0 36 36" width="1440" height="1440" font-family="Arial" font-size="0.6">
<defs>
  <style><![CDATA[
    .layer { display: inline; }
    .layer.hidden { display: none; }
    .grid-line { stroke: #999; stroke-width: 0.02; opacity: 0.2; }
    .grid-line-2mu { stroke: #666; stroke-width: 0.04; opacity: 0.4; }
    .grid-line-6mu { stroke: #333; stroke-width: 0.08; opacity: 0.6; }
    .delaunay-line { stroke: #4a6fa5; stroke-width: 0.03; opacity: 0.3; }
    #layer-area { opacity: 0.8; }
    #layer-building, #layer-wall, #layer-tree, #layer-rocks, #layer-shrub, #layer-terrain { opacity: 0.8; }
    .terrain-area { stroke: none; }
    .terrain-solid { stroke: #000; stroke-width: 0.05; }
    .model { stroke: #ff0000; stroke-width: 2; vector-effect: non-scaling-stroke; }
    .path { fill: none; stroke-width: 0.12; }
    .vector { stroke-width: 0.1; }
    .los-ray { stroke-width: 0.08; stroke-dasharray: 0.2 0.2; }
    .lof-ray { stroke-width: 0.08; stroke-dasharray: 0.3 0.15; }
    .label { fill: #111 !important; font-size: 0.6px; }
    .toggle { cursor: pointer; }
    .toggle.disabled { cursor: default; }
    .toggle.disabled rect { stroke: #ccc; fill: #fff; }
    .toggle.disabled text { fill: #ccc; }
#layer-wall { fill: #555555; }
  ]]></style>
</defs>
<rect x="0" y="0" width="36" height="36" fill="#ffffff" stroke="#111" stroke-width="0.05"/>
<script><![CDATA[
      function toggleLayer(id) {
        var layer = document.getElementById('layer-' + id);
        if (!layer) return;
        if (layer.classList.contains('hidden')) {
          layer.classList.remove('hidden');
        } else {
          layer.classList.add('hidden');
        }
      }
    ]]></script>
<text x="0.4" y="35.6" class="label">MEDIUM battlefield_A0-B0-W80-R0-S0-T0</text>
<g id="layer-deployment" class="layer ">
</g>
<g id="layer-grid" class="layer ">
<line x1="0" y1="0" x2="0" y2="36" class="grid-line-6mu"/>
<line x1="0.5" y1="0" x2="0.5" y2="36" class="grid-line"/>
<line x1="1" y1="0" x2="1" y2="36" class="grid-line"/>
<line x1="1.5" y1="0" x2="1.5" y2="36" class="grid-line"/>
<line x1="2" y1="0" x2="2" y2="36" class="grid-line-2mu"/>
<line x1="2.5" y1="0" x2="2.5" y2="36" class="grid-line"/>
<line x1="3" y1="0" x2="3" y2="36" class="grid-line"/>
<line x1="3.5" y1="0" x2="3.5" y2="36" class="grid-line"/>
<line x1="4" y1="0" x2="4" y2="36" class="grid-line-2mu"/>
<line x1="4.5" y1="0" x2="4.5" y2="36" class="grid-line"/>
<line x1="5" y1="0" x2="5" y2="36" class="grid-line"/>
<line x1="5.5" y1="0" x2="5.5" y2="36" class="grid-line"/>
<line x1="6" y1="0" x2="6" y2="36" class="grid-line-6mu"/>
<line x1="6.5" y1="0" x2="6.5" y2="36" class="grid-line"/>
<line x1="7" y1="0" x2="7" y2="36" class="grid-line"/>
<line x1="7.5" y1="0" x2="7.5" y2="36" class="grid-line"/>
<line x1="8" y1="0" x2="8" y2="36" class="grid-line-2mu"/>
<line x1="8.5" y1="0" x2="8.5" y2="36" class="grid-line"/>
<line x1="9" y1="0" x2="9" y2="36" class="grid-line"/>
<line x1="9.5" y1="0" x2="9.5" y2="36" class="grid-line"/>
<line x1="10" y1="0" x2="10" y2="36" class="grid-line-2mu"/>
<line x1="10.5" y1="0" x2="10.5" y2="36" class="grid-line"/>
<line x1="11" y1="0" x2="11" y2="36" class="grid-line"/>
<line x1="11.5" y1="0" x2="11.5" y2="36" class="grid-line"/>
<line x1="12" y1="0" x2="12" y2="36" class="grid-line-6mu"/>
<line x1="12.5" y1="0" x2="12.5" y2="36" class="grid-line"/>
<line x1="13" y1="0" x2="13" y2="36" class="grid-line"/>
<line x1="13.5" y1="0" x2="13.5" y2="36" class="grid-line"/>
<line x1="14" y1="0" x2="14" y2="36" class="grid-line-2mu"/>
<line x1="14.5" y1="0" x2="14.5" y2="36" class="grid-line"/>
<line x1="15" y1="0" x2="15" y2="36" class="grid-line"/>
<line x1="15.5" y1="0" x2="15.5" y2="36" class="grid-line"/>
<line x1="16" y1="0" x2="16" y2="36" class="grid-line-2mu"/>
<line x1="16.5" y1="0" x2="16.5" y2="36" class="grid-line"/>
<line x1="17" y1="0" x2="17" y2="36" class="grid-line"/>
<line x1="17.5" y1="0" x2="17.5" y2="36" class="grid-line"/>
<line x1="18" y1="0" x2="18" y2="36" class="grid-line-6mu"/>
<line x1="18.5" y1="0" x2="18.5" y2="36" class="grid-line"/>
<line x1="19" y1="0" x2="19" y2="36" class="grid-line"/>
<line x1="19.5" y1="0" x2="19.5" y2="36" class="grid-line"/>
<line x1="20" y1="0" x2="20" y2="36" class="grid-line-2mu"/>
<line x1="20.5" y1="0" x2="20.5" y2="36" class="grid-line"/>
<line x1="21" y1="0" x2="21" y2="36" class="grid-line"/>
<line x1="21.5" y1="0" x2="21.5" y2="36" class="grid-line"/>
<line x1="22" y1="0" x2="22" y2="36" class="grid-line-2mu"/>
<line x1="22.5" y1="0" x2="22.5" y2="36" class="grid-line"/>
<line x1="23" y1="0" x2="23" y2="36" class="grid-line"/>
<line x1="23.5" y1="0" x2="23.5" y2="36" class="grid-line"/>
<line x1="24" y1="0" x2="24" y2="36" class="grid-line-6mu"/>
<line x1="24.5" y1="0" x2="24.5" y2="36" class="grid-line"/>
<line x1="25" y1="0" x2="25" y2="36" class="grid-line"/>
<line x1="25.5" y1="0" x2="25.5" y2="36" class="grid-line"/>
<line x1="26" y1="0" x2="26" y2="36" class="grid-line-2mu"/>
<line x1="26.5" y1="0" x2="26.5" y2="36" class="grid-line"/>
<line x1="27" y1="0" x2="27" y2="36" class="grid-line"/>
<line x1="27.5" y1="0" x2="27.5" y2="36" class="grid-line"/>
<line x1="28" y1="0" x2="28" y2="36" class="grid-line-2mu"/>
<line x1="28.5" y1="0" x2="28.5" y2="36" class="grid-line"/>
<line x1="29" y1="0" x2="29" y2="36" class="grid-line"/>
<line x1="29.5" y1="0" x2="29.5" y2="36" class="grid-line"/>
<line x1="30" y1="0" x2="30" y2="36" class="grid-line-6mu"/>
<line x1="30.5" y1="0" x2="30.5" y2="36" class="grid-line"/>
<line x1="31" y1="0" x2="31" y2="36" class="grid-line"/>
<line x1="31.5" y1="0" x2="31.5" y2="36" class="grid-line"/>
<line x1="32" y1="0" x2="32" y2="36" class="grid-line-2mu"/>
<line x1="32.5" y1="0" x2="32.5" y2="36" class="grid-line"/>
<line x1="33" y1="0" x2="33" y2="36" class="grid-line"/>
<line x1="33.5" y1="0" x2="33.5" y2="36" class="grid-line"/>
<line x1="34" y1="0" x2="34" y2="36" class="grid-line-2mu"/>
<line x1="34.5" y1="0" x2="34.5" y2="36" class="grid-line"/>
<line x1="35" y1="0" x2="35" y2="36" class="grid-line"/>
<line x1="35.5" y1="0" x2="35.5" y2="36" class="grid-line"/>
<line x1="36" y1="0" x2="36" y2="36" class="grid-line-6mu"/>
<line x1="0" y1="0" x2="36" y2="0" class="grid-line-6mu"/>
<line x1="0" y1="0.5" x2="36" y2="0.5" class="grid-line"/>
<line x1="0" y1="1" x2="36" y2="1" class="grid-line"/>
<line x1="0" y1="1.5" x2="36" y2="1.5" class="grid-line"/>
<line x1="0" y1="2" x2="36" y2="2" class="grid-line-2mu"/>
<line x1="0" y1="2.5" x2="36" y2="2.5" class="grid-line"/>
<line x1="0" y1="3" x2="36" y2="3" class="grid-line"/>
<line x1="0" y1="3.5" x2="36" y2="3.5" class="grid-line"/>
<line x1="0" y1="4" x2="36" y2="4" class="grid-line-2mu"/>
<line x1="0" y1="4.5" x2="36" y2="4.5" class="grid-line"/>
<line x1="0" y1="5" x2="36" y2="5" class="grid-line"/>
<line x1="0" y1="5.5" x2="36" y2="5.5" class="grid-line"/>
<line x1="0" y1="6" x2="36" y2="6" class="grid-line-6mu"/>
<line x1="0" y1="6.5" x2="36" y2="6.5" class="grid-line"/>
<line x1="0" y1="7" x2="36" y2="7" class="grid-line"/>
<line x1="0" y1="7.5" x2="36" y2="7.5" class="grid-line"/>
<line x1="0" y1="8" x2="36" y2="8" class="grid-line-2mu"/>
<line x1="0" y1="8.5" x2="36" y2="8.5" class="grid-line"/>
<line x1="0" y1="9" x2="36" y2="9" class="grid-line"/>
<line x1="0" y1="9.5" x2="36" y2="9.5" class="grid-line"/>
<line x1="0" y1="10" x2="36" y2="10" class="grid-line-2mu"/>
<line x1="0" y1="10.5" x2="36" y2="10.5" class="grid-line"/>
<line x1="0" y1="11" x2="36" y2="11" class="grid-line"/>
<line x1="0" y1="11.5" x2="36" y2="11.5" class="grid-line"/>
<line x1="0" y1="12" x2="36" y2="12" class="grid-line-6mu"/>
<line x1="0" y1="12.5" x2="36" y2="12.5" class="grid-line"/>
<line x1="0" y1="13" x2="36" y2="13" class="grid-line"/>
<line x1="0" y1="13.5" x2="36" y2="13.5" class="grid-line"/>
<line x1="0" y1="14" x2="36" y2="14" class="grid-line-2mu"/>
<line x1="0" y1="14.5" x2="36" y2="14.5" class="grid-line"/>
<line x1="0" y1="15" x2="36" y2="15" class="grid-line"/>
<line x1="0" y1="15.5" x2="36" y2="15.5" class="grid-line"/>
<line x1="0" y1="16" x2="36" y2="16" class="grid-line-2mu"/>
<line x1="0" y1="16.5" x2="36" y2="16.5" class="grid-line"/>
<line x1="0" y1="17" x2="36" y2="17" class="grid-line"/>
<line x1="0" y1="17.5" x2="36" y2="17.5" class="grid-line"/>
<line x1="0" y1="18" x2="36" y2="18" class="grid-line-6mu"/>
<line x1="0" y1="18.5" x2="36" y2="18.5" class="grid-line"/>
<line x1="0" y1="19" x2="36" y2="19" class="grid-line"/>
<line x1="0" y1="19.5" x2="36" y2="19.5" class="grid-line"/>
<line x1="0" y1="20" x2="36" y2="20" class="grid-line-2mu"/>
<line x1="0" y1="20.5" x2="36" y2="20.5" class="grid-line"/>
<line x1="0" y1="21" x2="36" y2="21" class="grid-line"/>
<line x1="0" y1="21.5" x2="36" y2="21.5" class="grid-line"/>
<line x1="0" y1="22" x2="36" y2="22" class="grid-line-2mu"/>
<line x1="0" y1="22.5" x2="36" y2="22.5" class="grid-line"/>
<line x1="0" y1="23" x2="36" y2="23" class="grid-line"/>
<line x1="0" y1="23.5" x2="36" y2="23.5" class="grid-line"/>
<line x1="0" y1="24" x2="36" y2="24" class="grid-line-6mu"/>
<line x1="0" y1="24.5" x2="36" y2="24.5" class="grid-line"/>
<line x1="0" y1="25" x2="36" y2="25" class="grid-line"/>
<line x1="0" y1="25.5" x2="36" y2="25.5" class="grid-line"/>
<line x1="0" y1="26" x2="36" y2="26" class="grid-line-2mu"/>
<line x1="0" y1="26.5" x2="36" y2="26.5" class="grid-line"/>
<line x1="0" y1="27" x2="36" y2="27" class="grid-line"/>
<line x1="0" y1="27.5" x2="36" y2="27.5" class="grid-line"/>
<line x1="0" y1="28" x2="36" y2="28" class="grid-line-2mu"/>
<line x1="0" y1="28.5" x2="36" y2="28.5" class="grid-line"/>
<line x1="0" y1="29" x2="36" y2="29" class="grid-line"/>
<line x1="0" y1="29.5" x2="36" y2="29.5" class="grid-line"/>
<line x1="0" y1="30" x2="36" y2="30" class="grid-line-6mu"/>
<line x1="0" y1="30.5" x2="36" y2="30.5" class="grid-line"/>
<line x1="0" y1="31" x2="36" y2="31" class="grid-line"/>
<line x1="0" y1="31.5" x2="36" y2="31.5" class="grid-line"/>
<line x1="0" y1="32" x2="36" y2="32" class="grid-line-2mu"/>
<line x1="0" y1="32.5" x2="36" y2="32.5" class="grid-line"/>
<line x1="0" y1="33" x2="36" y2="33" class="grid-line"/>
<line x1="0" y1="33.5" x2="36" y2="33.5" class="grid-line"/>
<line x1="0" y1="34" x2="36" y2="34" class="grid-line-2mu"/>
<line x1="0" y1="34.5" x2="36" y2="34.5" class="grid-line"/>
<line x1="0" y1="35" x2="36" y2="35" class="grid-line"/>
<line x1="0" y1="35.5" x2="36" y2="35.5" class="grid-line"/>
<line x1="0" y1="36" x2="36" y2="36" class="grid-line-6mu"/>
</g>
<g id="layer-delaunay" class="layer ">
<line x1="19.45808270913798" y1="21.20627412290664" x2="17.48434324518439" y2="24.213513764423613" class="delaunay-line"/>
<line x1="17.48434324518439" y1="24.213513764423613" x2="19.501660580511807" y2="21.70437147195251" class="delaunay-line"/>
<line x1="19.501660580511807" y1="21.70437147195251" x2="19.45808270913798" y2="21.20627412290664" class="delaunay-line"/>
<line x1="19.45808270913798" y1="21.20627412290664" x2="13.480914520587508" y2="21.729208579392587" class="delaunay-line"/>
<line x1="13.480914520587508" y1="21.729208579392587" x2="17.48434324518439" y2="24.213513764423613" class="delaunay-line"/>
<line x1="17.48434324518439" y1="24.213513764423613" x2="19.45808270913798" y2="21.20627412290664" class="delaunay-line"/>
<line x1="13.480914520587508" y1="21.729208579392587" x2="13.524492391961335" y2="22.227305928438458" class="delaunay-line"/>
<line x1="13.524492391961335" y1="22.227305928438458" x2="17.48434324518439" y2="24.213513764423613" class="delaunay-line"/>
<line x1="17.48434324518439" y1="24.213513764423613" x2="13.480914520587508" y2="21.729208579392587" class="delaunay-line"/>
<line x1="13.524492391961335" y1="22.227305928438458" x2="17.623516346144456" y2="25.203781833165184" class="delaunay-line"/>
<line x1="17.623516346144456" y1="25.203781833165184" x2="17.48434324518439" y2="24.213513764423613" class="delaunay-line"/>
<line x1="17.48434324518439" y1="24.213513764423613" x2="13.524492391961335" y2="22.227305928438458" class="delaunay-line"/>
<line x1="17.48434324518439" y1="24.213513764423613" x2="17.623516346144456" y2="25.203781833165184" class="delaunay-line"/>
<line x1="17.623516346144456" y1="25.203781833165184" x2="19.501660580511807" y2="21.70437147195251" class="delaunay-line"/>
<line x1="19.501660580511807" y1="21.70437147195251" x2="17.48434324518439" y2="24.213513764423613" class="delaunay-line"/>
<line x1="14.877971005638978" y1="13.673700954866305" x2="10.160964033970956" y2="21.183783271863433" class="delaunay-line"/>
<line x1="10.160964033970956" y1="21.183783271863433" x2="13.480914520587508" y2="21.729208579392587" class="delaunay-line"/>
<line x1="13.480914520587508" y1="21.729208579392587" x2="14.877971005638978" y2="13.673700954866305" class="delaunay-line"/>
<line x1="13.480914520587508" y1="21.729208579392587" x2="10.160964033970956" y2="21.183783271863433" class="delaunay-line"/>
<line x1="10.160964033970956" y1="21.183783271863433" x2="13.524492391961335" y2="22.227305928438458" class="delaunay-line"/>
<line x1="13.524492391961335" y1="22.227305928438458" x2="13.480914520587508" y2="21.729208579392587" class="delaunay-line"/>
<line x1="10.856424469618457" y1="28.818709980715152" x2="18.855206030869585" y2="28.679090729216885" class="delaunay-line"/>
<line x1="18.855206030869585" y1="28.679090729216885" x2="17.623516346144456" y2="25.203781833165184" class="delaunay-line"/>
<line x1="17.623516346144456" y1="25.203781833165184" x2="10.856424469618457" y2="28.818709980715152" class="delaunay-line"/>
<line x1="10.856424469618457" y1="28.818709980715152" x2="17.623516346144456" y2="25.203781833165184" class="delaunay-line"/>
<line x1="17.623516346144456" y1="25.203781833165184" x2="13.524492391961335" y2="22.227305928438458" class="delaunay-line"/>
<line x1="13.524492391961335" y1="22.227305928438458" x2="10.856424469618457" y2="28.818709980715152" class="delaunay-line"/>
<line x1="17.623516346144456" y1="25.203781833165184" x2="24.313791929710078" y2="27.353448301206775" class="delaunay-line"/>
<line x1="24.313791929710078" y1="27.353448301206775" x2="19.501660580511807" y2="21.70437147195251" class="delaunay-line"/>
<line x1="19.501660580511807" y1="21.70437147195251" x2="17.623516346144456" y2="25.203781833165184" class="delaunay-line"/>
<line x1="10.160964033970956" y1="21.183783271863433" x2="9.616324998955928" y2="22.022453839808854" class="delaunay-line"/>
<line x1="9.616324998955928" y1="22.022453839808854" x2="13.524492391961335" y2="22.227305928438458" class="delaunay-line"/>
<line x1="13.524492391961335" y1="22.227305928438458" x2="10.160964033970956" y2="21.183783271863433" class="delaunay-line"/>
<line x1="9.616324998955928" y1="22.022453839808854" x2="9.56219869525183" y2="25.32689857210413" class="delaunay-line"/>
<line x1="9.56219869525183" y1="25.32689857210413" x2="13.524492391961335" y2="22.227305928438458" class="delaunay-line"/>
<line x1="13.524492391961335" y1="22.227305928438458" x2="9.616324998955928" y2="22.022453839808854" class="delaunay-line"/>
<line x1="11.677108657881918" y1="31.60842381200024" x2="18.872658437306868" y2="29.678938424373275" class="delaunay-line"/>
<line x1="18.872658437306868" y1="29.678938424373275" x2="18.855206030869585" y2="28.679090729216885" class="delaunay-line"/>
<line x1="18.855206030869585" y1="28.679090729216885" x2="11.677108657881918" y2="31.60842381200024" class="delaunay-line"/>
<line x1="18.855206030869585" y1="28.679090729216885" x2="24.313791929710078" y2="27.353448301206775" class="delaunay-line"/>
<line x1="24.313791929710078" y1="27.353448301206775" x2="17.623516346144456" y2="25.203781833165184" class="delaunay-line"/>
<line x1="17.623516346144456" y1="25.203781833165184" x2="18.855206030869585" y2="28.679090729216885" class="delaunay-line"/>
<line x1="19.45808270913798" y1="21.20627412290664" x2="14.877971005638978" y2="13.673700954866305" class="delaunay-line"/>
<line x1="14.877971005638978" y1="13.673700954866305" x2="13.480914520587508" y2="21.729208579392587" class="delaunay-line"/>
<line x1="13.480914520587508" y1="21.729208579392587" x2="19.45808270913798" y2="21.20627412290664" class="delaunay-line"/>
<line x1="10.160964033970956" y1="21.183783271863433" x2="3.4515994904075633" y2="16.826670991743214" class="delaunay-line"/>
<line x1="3.4515994904075633" y1="16.826670991743214" x2="9.616324998955928" y2="22.022453839808854" class="delaunay-line"/>
<line x1="9.616324998955928" y1="22.022453839808854" x2="10.160964033970956" y2="21.183783271863433" class="delaunay-line"/>
<line x1="9.56219869525183" y1="25.32689857210413" x2="9.701371796211895" y2="26.317166640845702" class="delaunay-line"/>
<line x1="9.701371796211895" y1="26.317166640845702" x2="13.524492391961335" y2="22.227305928438458" class="delaunay-line"/>
<line x1="13.524492391961335" y1="22.227305928438458" x2="9.56219869525183" y2="25.32689857210413" class="delaunay-line"/>
<line x1="21.18126939884623" y1="11.773212309056397" x2="14.82570677400515" y2="13.176440007182169" class="delaunay-line"/>
<line x1="14.82570677400515" y1="13.176440007182169" x2="14.877971005638978" y2="13.673700954866305" class="delaunay-line"/>
<line x1="14.877971005638978" y1="13.673700954866305" x2="21.18126939884623" y2="11.773212309056397" class="delaunay-line"/>
<line x1="14.877971005638978" y1="13.673700954866305" x2="8.91083963342934" y2="14.300871734472224" class="delaunay-line"/>
<line x1="8.91083963342934" y1="14.300871734472224" x2="10.160964033970956" y2="21.183783271863433" class="delaunay-line"/>
<line x1="10.160964033970956" y1="21.183783271863433" x2="14.877971005638978" y2="13.673700954866305" class="delaunay-line"/>
<line x1="18.872658437306868" y1="29.678938424373275" x2="24.313791929710078" y2="27.353448301206775" class="delaunay-line"/>
<line x1="24.313791929710078" y1="27.353448301206775" x2="18.855206030869585" y2="28.679090729216885" class="delaunay-line"/>
<line x1="18.855206030869585" y1="28.679090729216885" x2="18.872658437306868" y2="29.678938424373275" class="delaunay-line"/>
<line x1="19.501660580511807" y1="21.70437147195251" x2="26.856197211458063" y2="17.81513547160618" class="delaunay-line"/>
<line x1="26.856197211458063" y1="17.81513547160618" x2="19.45808270913798" y2="21.20627412290664" class="delaunay-line"/>
<line x1="19.45808270913798" y1="21.20627412290664" x2="19.501660580511807" y2="21.70437147195251" class="delaunay-line"/>
<line x1="19.45808270913798" y1="21.20627412290664" x2="22.613673759690215" y2="13.086372631641012" class="delaunay-line"/>
<line x1="22.613673759690215" y1="13.086372631641012" x2="14.877971005638978" y2="13.673700954866305" class="delaunay-line"/>
<line x1="14.877971005638978" y1="13.673700954866305" x2="19.45808270913798" y2="21.20627412290664" class="delaunay-line"/>
<line x1="9.701371796211895" y1="26.317166640845702" x2="10.856424469618457" y2="28.818709980715152" class="delaunay-line"/>
<line x1="10.856424469618457" y1="28.818709980715152" x2="13.524492391961335" y2="22.227305928438458" class="delaunay-line"/>
<line x1="13.524492391961335" y1="22.227305928438458" x2="9.701371796211895" y2="26.317166640845702" class="delaunay-line"/>
<line x1="26.34278919462468" y1="31.26521727410088" x2="24.813791929710078" y2="27.353448301206775" class="delaunay-line"/>
<line x1="24.813791929710078" y1="27.353448301206775" x2="24.313791929710078" y2="27.353448301206775" class="delaunay-line"/>
<line x1="24.313791929710078" y1="27.353448301206775" x2="26.34278919462468" y2="31.26521727410088" class="delaunay-line"/>
<line x1="24.313791929710078" y1="27.353448301206775" x2="26.856197211458063" y2="17.81513547160618" class="delaunay-line"/>
<line x1="26.856197211458063" y1="17.81513547160618" x2="19.501660580511807" y2="21.70437147195251" class="delaunay-line"/>
<line x1="19.501660580511807" y1="21.70437147195251" x2="24.313791929710078" y2="27.353448301206775" class="delaunay-line"/>
<line x1="9.063270747882" y1="29.42771215584712" x2="10.87387687605574" y2="29.818557675871542" class="delaunay-line"/>
<line x1="10.87387687605574" y1="29.818557675871542" x2="10.856424469618457" y2="28.818709980715152" class="delaunay-line"/>
<line x1="10.856424469618457" y1="28.818709980715152" x2="9.063270747882" y2="29.42771215584712" class="delaunay-line"/>
<line x1="10.856424469618457" y1="28.818709980715152" x2="11.677108657881918" y2="31.60842381200024" class="delaunay-line"/>
<line x1="11.677108657881918" y1="31.60842381200024" x2="18.855206030869585" y2="28.679090729216885" class="delaunay-line"/>
<line x1="18.855206030869585" y1="28.679090729216885" x2="10.856424469618457" y2="28.818709980715152" class="delaunay-line"/>
<line x1="26.856197211458063" y1="17.81513547160618" x2="22.613673759690215" y2="13.086372631641012" class="delaunay-line"/>
<line x1="22.613673759690215" y1="13.086372631641012" x2="19.45808270913798" y2="21.20627412290664" class="delaunay-line"/>
<line x1="19.45808270913798" y1="21.20627412290664" x2="26.856197211458063" y2="17.81513547160618" class="delaunay-line"/>
<line x1="24.813791929710078" y1="27.353448301206775" x2="26.856197211458063" y2="17.81513547160618" class="delaunay-line"/>
<line x1="26.856197211458063" y1="17.81513547160618" x2="24.313791929710078" y2="27.353448301206775" class="delaunay-line"/>
<line x1="24.313791929710078" y1="27.353448301206775" x2="24.813791929710078" y2="27.353448301206775" class="delaunay-line"/>
<line x1="28.586515209501925" y1="13.844768976180664" x2="22.71762960509909" y2="12.59729883127411" class="delaunay-line"/>
<line x1="22.71762960509909" y1="12.59729883127411" x2="22.613673759690215" y2="13.086372631641012" class="delaunay-line"/>
<line x1="22.613673759690215" y1="13.086372631641012" x2="28.586515209501925" y2="13.844768976180664" class="delaunay-line"/>
<line x1="22.613673759690215" y1="13.086372631641012" x2="21.18126939884623" y2="11.773212309056397" class="delaunay-line"/>
<line x1="21.18126939884623" y1="11.773212309056397" x2="14.877971005638978" y2="13.673700954866305" class="delaunay-line"/>
<line x1="14.877971005638978" y1="13.673700954866305" x2="22.613673759690215" y2="13.086372631641012" class="delaunay-line"/>
<line x1="22.71762960509909" y1="12.59729883127411" x2="21.18126939884623" y2="11.773212309056397" class="delaunay-line"/>
<line x1="21.18126939884623" y1="11.773212309056397" x2="22.613673759690215" y2="13.086372631641012" class="delaunay-line"/>
<line x1="22.613673759690215" y1="13.086372631641012" x2="22.71762960509909" y2="12.59729883127411" class="delaunay-line"/>
<line x1="8.858575401795513" y1="13.803610786788088" x2="8.91083963342934" y2="14.300871734472224" class="delaunay-line"/>
<line x1="8.91083963342934" y1="14.300871734472224" x2="14.82570677400515" y2="13.176440007182169" class="delaunay-line"/>
<line x1="14.82570677400515" y1="13.176440007182169" x2="8.858575401795513" y2="13.803610786788088" class="delaunay-line"/>
<line x1="14.82570677400515" y1="13.176440007182169" x2="8.91083963342934" y2="14.300871734472224" class="delaunay-line"/>
<line x1="8.91083963342934" y1="14.300871734472224" x2="14.877971005638978" y2="13.673700954866305" class="delaunay-line"/>
<line x1="14.877971005638978" y1="13.673700954866305" x2="14.82570677400515" y2="13.176440007182169" class="delaunay-line"/>
<line x1="8.917084895520631" y1="29.905864533828638" x2="9.063270747882" y2="29.42771215584712" class="delaunay-line"/>
<line x1="9.063270747882" y1="29.42771215584712" x2="3.325442212103787" y2="27.673481927510704" class="delaunay-line"/>
<line x1="3.325442212103787" y1="27.673481927510704" x2="8.917084895520631" y2="29.905864533828638" class="delaunay-line"/>
<line x1="9.701371796211895" y1="26.317166640845702" x2="9.063270747882" y2="29.42771215584712" class="delaunay-line"/>
<line x1="9.063270747882" y1="29.42771215584712" x2="10.856424469618457" y2="28.818709980715152" class="delaunay-line"/>
<line x1="10.856424469618457" y1="28.818709980715152" x2="9.701371796211895" y2="26.317166640845702" class="delaunay-line"/>
<line x1="3.325442212103787" y1="27.673481927510704" x2="9.063270747882" y2="29.42771215584712" class="delaunay-line"/>
<line x1="9.063270747882" y1="29.42771215584712" x2="9.701371796211895" y2="26.317166640845702" class="delaunay-line"/>
<line x1="9.701371796211895" y1="26.317166640845702" x2="3.325442212103787" y2="27.673481927510704" class="delaunay-line"/>
<line x1="9.701371796211895" y1="26.317166640845702" x2="9.56219869525183" y2="25.32689857210413" class="delaunay-line"/>
<line x1="9.56219869525183" y1="25.32689857210413" x2="3.325442212103787" y2="27.673481927510704" class="delaunay-line"/>
<line x1="3.325442212103787" y1="27.673481927510704" x2="9.701371796211895" y2="26.317166640845702" class="delaunay-line"/>
<line x1="8.917084895520631" y1="29.905864533828638" x2="11.677108657881918" y2="31.60842381200024" class="delaunay-line"/>
<line x1="11.677108657881918" y1="31.60842381200024" x2="10.87387687605574" y2="29.818557675871542" class="delaunay-line"/>
<line x1="10.87387687605574" y1="29.818557675871542" x2="8.917084895520631" y2="29.905864533828638" class="delaunay-line"/>
<line x1="10.87387687605574" y1="29.818557675871542" x2="11.677108657881918" y2="31.60842381200024" class="delaunay-line"/>
<line x1="11.677108657881918" y1="31.60842381200024" x2="10.856424469618457" y2="28.818709980715152" class="delaunay-line"/>
<line x1="10.856424469618457" y1="28.818709980715152" x2="10.87387687605574" y2="29.818557675871542" class="delaunay-line"/>
<line x1="13.259124848913668" y1="10.659827501375872" x2="8.858575401795513" y2="13.803610786788088" class="delaunay-line"/>
<line x1="8.858575401795513" y1="13.803610786788088" x2="14.82570677400515" y2="13.176440007182169" class="delaunay-line"/>
<line x1="14.82570677400515" y1="13.176440007182169" x2="13.259124848913668" y2="10.659827501375872" class="delaunay-line"/>
<line x1="3.325442212103787" y1="27.673481927510704" x2="9.56219869525183" y2="25.32689857210413" class="delaunay-line"/>
<line x1="9.56219869525183" y1="25.32689857210413" x2="9.616324998955928" y2="22.022453839808854" class="delaunay-line"/>
<line x1="9.616324998955928" y1="22.022453839808854" x2="3.325442212103787" y2="27.673481927510704" class="delaunay-line"/>
<line x1="3.4515994904075633" y1="16.826670991743214" x2="10.160964033970956" y2="21.183783271863433" class="delaunay-line"/>
<line x1="10.160964033970956" y1="21.183783271863433" x2="8.91083963342934" y2="14.300871734472224" class="delaunay-line"/>
<line x1="8.91083963342934" y1="14.300871734472224" x2="3.4515994904075633" y2="16.826670991743214" class="delaunay-line"/>
<line x1="9.063270747882" y1="29.42771215584712" x2="8.917084895520631" y2="29.905864533828638" class="delaunay-line"/>
<line x1="8.917084895520631" y1="29.905864533828638" x2="10.87387687605574" y2="29.818557675871542" class="delaunay-line"/>
<line x1="10.87387687605574" y1="29.818557675871542" x2="9.063270747882" y2="29.42771215584712" class="delaunay-line"/>
<line x1="13.398297949873733" y1="9.669559432634301" x2="13.259124848913668" y2="10.659827501375872" class="delaunay-line"/>
<line x1="13.259124848913668" y1="10.659827501375872" x2="14.82570677400515" y2="13.176440007182169" class="delaunay-line"/>
<line x1="14.82570677400515" y1="13.176440007182169" x2="13.398297949873733" y2="9.669559432634301" class="delaunay-line"/>
<line x1="26.856197211458063" y1="17.81513547160618" x2="27.622241654577042" y2="17.172347861919643" class="delaunay-line"/>
<line x1="27.622241654577042" y1="17.172347861919643" x2="22.613673759690215" y2="13.086372631641012" class="delaunay-line"/>
<line x1="22.613673759690215" y1="13.086372631641012" x2="26.856197211458063" y2="17.81513547160618" class="delaunay-line"/>
<line x1="31.99849808895038" y1="23.943491016558003" x2="27.622241654577042" y2="17.172347861919643" class="delaunay-line"/>
<line x1="27.622241654577042" y1="17.172347861919643" x2="26.856197211458063" y2="17.81513547160618" class="delaunay-line"/>
<line x1="26.856197211458063" y1="17.81513547160618" x2="31.99849808895038" y2="23.943491016558003" class="delaunay-line"/>
<line x1="8.917084895520631" y1="29.905864533828638" x2="11.711986894753982" y2="32.10720583713015" class="delaunay-line"/>
<line x1="11.711986894753982" y1="32.10720583713015" x2="11.677108657881918" y2="31.60842381200024" class="delaunay-line"/>
<line x1="11.677108657881918" y1="31.60842381200024" x2="8.917084895520631" y2="29.905864533828638" class="delaunay-line"/>
<line x1="11.677108657881918" y1="31.60842381200024" x2="11.711986894753982" y2="32.10720583713015" class="delaunay-line"/>
<line x1="11.711986894753982" y1="32.10720583713015" x2="18.872658437306868" y2="29.678938424373275" class="delaunay-line"/>
<line x1="18.872658437306868" y1="29.678938424373275" x2="11.677108657881918" y2="31.60842381200024" class="delaunay-line"/>
<line x1="22.71762960509909" y1="12.59729883127411" x2="21.320442499806294" y2="10.782944240314826" class="delaunay-line"/>
<line x1="21.320442499806294" y1="10.782944240314826" x2="21.18126939884623" y2="11.773212309056397" class="delaunay-line"/>
<line x1="21.18126939884623" y1="11.773212309056397" x2="22.71762960509909" y2="12.59729883127411" class="delaunay-line"/>
<line x1="21.18126939884623" y1="11.773212309056397" x2="21.320442499806294" y2="10.782944240314826" class="delaunay-line"/>
<line x1="21.320442499806294" y1="10.782944240314826" x2="14.82570677400515" y2="13.176440007182169" class="delaunay-line"/>
<line x1="14.82570677400515" y1="13.176440007182169" x2="21.18126939884623" y2="11.773212309056397" class="delaunay-line"/>
<line x1="22.937508800596227" y1="8.333261826633208" x2="21.320442499806294" y2="10.782944240314826" class="delaunay-line"/>
<line x1="21.320442499806294" y1="10.782944240314826" x2="22.71762960509909" y2="12.59729883127411" class="delaunay-line"/>
<line x1="22.71762960509909" y1="12.59729883127411" x2="22.937508800596227" y2="8.333261826633208" class="delaunay-line"/>
<line x1="14.735013800808572" y1="7.315566377392123" x2="13.398297949873733" y2="9.669559432634301" class="delaunay-line"/>
<line x1="13.398297949873733" y1="9.669559432634301" x2="14.82570677400515" y2="13.176440007182169" class="delaunay-line"/>
<line x1="14.82570677400515" y1="13.176440007182169" x2="14.735013800808572" y2="7.315566377392123" class="delaunay-line"/>
<line x1="13.259124848913668" y1="10.659827501375872" x2="8.930593581359204" y2="11.289843964239424" class="delaunay-line"/>
<line x1="8.930593581359204" y1="11.289843964239424" x2="8.858575401795513" y2="13.803610786788088" class="delaunay-line"/>
<line x1="8.858575401795513" y1="13.803610786788088" x2="13.259124848913668" y2="10.659827501375872" class="delaunay-line"/>
<line x1="13.398297949873733" y1="9.669559432634301" x2="8.930593581359204" y2="11.289843964239424" class="delaunay-line"/>
<line x1="8.930593581359204" y1="11.289843964239424" x2="13.259124848913668" y2="10.659827501375872" class="delaunay-line"/>
<line x1="13.259124848913668" y1="10.659827501375872" x2="13.398297949873733" y2="9.669559432634301" class="delaunay-line"/>
<line x1="8.930593581359204" y1="11.289843964239424" x2="8.463803368110604" y2="11.469027939012072" class="delaunay-line"/>
<line x1="8.463803368110604" y1="11.469027939012072" x2="8.858575401795513" y2="13.803610786788088" class="delaunay-line"/>
<line x1="8.858575401795513" y1="13.803610786788088" x2="8.930593581359204" y2="11.289843964239424" class="delaunay-line"/>
<line x1="8.858575401795513" y1="13.803610786788088" x2="3.4515994904075633" y2="16.826670991743214" class="delaunay-line"/>
<line x1="3.4515994904075633" y1="16.826670991743214" x2="8.91083963342934" y2="14.300871734472224" class="delaunay-line"/>
<line x1="8.91083963342934" y1="14.300871734472224" x2="8.858575401795513" y2="13.803610786788088" class="delaunay-line"/>
<line x1="26.238833349215803" y1="31.75429107446778" x2="26.34278919462468" y2="31.26521727410088" class="delaunay-line"/>
<line x1="26.34278919462468" y1="31.26521727410088" x2="24.313791929710078" y2="33.353448301206775" class="delaunay-line"/>
<line x1="24.313791929710078" y1="33.353448301206775" x2="26.238833349215803" y2="31.75429107446778" class="delaunay-line"/>
<line x1="24.813791929710078" y1="27.353448301206775" x2="31.99849808895038" y2="23.943491016558003" class="delaunay-line"/>
<line x1="31.99849808895038" y1="23.943491016558003" x2="26.856197211458063" y2="17.81513547160618" class="delaunay-line"/>
<line x1="26.856197211458063" y1="17.81513547160618" x2="24.813791929710078" y2="27.353448301206775" class="delaunay-line"/>
<line x1="26.34278919462468" y1="31.26521727410088" x2="24.313791929710078" y2="27.353448301206775" class="delaunay-line"/>
<line x1="24.313791929710078" y1="27.353448301206775" x2="24.313791929710078" y2="33.353448301206775" class="delaunay-line"/>
<line x1="24.313791929710078" y1="33.353448301206775" x2="26.34278919462468" y2="31.26521727410088" class="delaunay-line"/>
<line x1="32.764542532069356" y1="23.300703406871467" x2="28.48255936409305" y2="14.333842776547566" class="delaunay-line"/>
<line x1="28.48255936409305" y1="14.333842776547566" x2="27.622241654577042" y2="17.172347861919643" class="delaunay-line"/>
<line x1="27.622241654577042" y1="17.172347861919643" x2="32.764542532069356" y2="23.300703406871467" class="delaunay-line"/>
<line x1="27.622241654577042" y1="17.172347861919643" x2="28.48255936409305" y2="14.333842776547566" class="delaunay-line"/>
<line x1="28.48255936409305" y1="14.333842776547566" x2="22.613673759690215" y2="13.086372631641012" class="delaunay-line"/>
<line x1="22.613673759690215" y1="13.086372631641012" x2="27.622241654577042" y2="17.172347861919643" class="delaunay-line"/>
<line x1="24.313791929710078" y1="33.353448301206775" x2="24.313791929710078" y2="27.353448301206775" class="delaunay-line"/>
<line x1="24.313791929710078" y1="27.353448301206775" x2="18.872658437306868" y2="29.678938424373275" class="delaunay-line"/>
<line x1="18.872658437306868" y1="29.678938424373275" x2="24.313791929710078" y2="33.353448301206775" class="delaunay-line"/>
<line x1="11.711986894753982" y1="32.10720583713015" x2="24.313791929710078" y2="33.353448301206775" class="delaunay-line"/>
<line x1="24.313791929710078" y1="33.353448301206775" x2="18.872658437306868" y2="29.678938424373275" class="delaunay-line"/>
<line x1="18.872658437306868" y1="29.678938424373275" x2="11.711986894753982" y2="32.10720583713015" class="delaunay-line"/>
<line x1="30.72665155189647" y1="11.018049858343161" x2="28.586515209501925" y2="13.844768976180664" class="delaunay-line"/>
<line x1="28.586515209501925" y1="13.844768976180664" x2="28.48255936409305" y2="14.333842776547566" class="delaunay-line"/>
<line x1="28.48255936409305" y1="14.333842776547566" x2="30.72665155189647" y2="11.018049858343161" class="delaunay-line"/>
<line x1="28.48255936409305" y1="14.333842776547566" x2="28.586515209501925" y2="13.844768976180664" class="delaunay-line"/>
<line x1="28.586515209501925" y1="13.844768976180664" x2="22.613673759690215" y2="13.086372631641012" class="delaunay-line"/>
<line x1="22.613673759690215" y1="13.086372631641012" x2="28.48255936409305" y2="14.333842776547566" class="delaunay-line"/>
<line x1="24.313791929710078" y1="33.353448301206775" x2="24.813791929710078" y2="33.353448301206775" class="delaunay-line"/>
<line x1="24.813791929710078" y1="33.353448301206775" x2="26.238833349215803" y2="31.75429107446778" class="delaunay-line"/>
<line x1="26.238833349215803" y1="31.75429107446778" x2="24.313791929710078" y2="33.353448301206775" class="delaunay-line"/>
<line x1="8.463803368110604" y1="11.469027939012072" x2="3.4515994904075633" y2="16.826670991743214" class="delaunay-line"/>
<line x1="3.4515994904075633" y1="16.826670991743214" x2="8.858575401795513" y2="13.803610786788088" class="delaunay-line"/>
<line x1="8.858575401795513" y1="13.803610786788088" x2="8.463803368110604" y2="11.469027939012072" class="delaunay-line"/>
<line x1="8.930593581359204" y1="11.289843964239424" x2="6.780385884087402" y2="5.688361405256213" class="delaunay-line"/>
<line x1="6.780385884087402" y1="5.688361405256213" x2="8.463803368110604" y2="11.469027939012072" class="delaunay-line"/>
<line x1="8.463803368110604" y1="11.469027939012072" x2="8.930593581359204" y2="11.289843964239424" class="delaunay-line"/>
<line x1="13.398297949873733" y1="9.669559432634301" x2="6.780385884087402" y2="5.688361405256213" class="delaunay-line"/>
<line x1="6.780385884087402" y1="5.688361405256213" x2="8.930593581359204" y2="11.289843964239424" class="delaunay-line"/>
<line x1="8.930593581359204" y1="11.289843964239424" x2="13.398297949873733" y2="9.669559432634301" class="delaunay-line"/>
<line x1="21.320442499806294" y1="10.782944240314826" x2="14.735013800808572" y2="7.315566377392123" class="delaunay-line"/>
<line x1="14.735013800808572" y1="7.315566377392123" x2="14.82570677400515" y2="13.176440007182169" class="delaunay-line"/>
<line x1="14.82570677400515" y1="13.176440007182169" x2="21.320442499806294" y2="10.782944240314826" class="delaunay-line"/>
<line x1="19.878017605021242" y1="4.225337927931797" x2="14.735013800808572" y2="7.315566377392123" class="delaunay-line"/>
<line x1="14.735013800808572" y1="7.315566377392123" x2="21.320442499806294" y2="10.782944240314826" class="delaunay-line"/>
<line x1="21.320442499806294" y1="10.782944240314826" x2="19.878017605021242" y2="4.225337927931797" class="delaunay-line"/>
<line x1="3.4515994904075633" y1="16.826670991743214" x2="2.906960455392536" y2="17.665341559688635" class="delaunay-line"/>
<line x1="2.906960455392536" y1="17.665341559688635" x2="9.616324998955928" y2="22.022453839808854" class="delaunay-line"/>
<line x1="9.616324998955928" y1="22.022453839808854" x2="3.4515994904075633" y2="16.826670991743214" class="delaunay-line"/>
<line x1="23.415661178577743" y1="8.18707597427184" x2="22.937508800596227" y2="8.333261826633208" class="delaunay-line"/>
<line x1="22.937508800596227" y1="8.333261826633208" x2="22.71762960509909" y2="12.59729883127411" class="delaunay-line"/>
<line x1="22.71762960509909" y1="12.59729883127411" x2="23.415661178577743" y2="8.18707597427184" class="delaunay-line"/>
<line x1="2.906960455392536" y1="17.665341559688635" x2="3.325442212103787" y2="27.673481927510704" class="delaunay-line"/>
<line x1="3.325442212103787" y1="27.673481927510704" x2="9.616324998955928" y2="22.022453839808854" class="delaunay-line"/>
<line x1="9.616324998955928" y1="22.022453839808854" x2="2.906960455392536" y2="17.665341559688635" class="delaunay-line"/>
<line x1="8.917084895520631" y1="29.905864533828638" x2="5.726602593195038" y2="32.52574467959491" class="delaunay-line"/>
<line x1="5.726602593195038" y1="32.52574467959491" x2="11.711986894753982" y2="32.10720583713015" class="delaunay-line"/>
<line x1="11.711986894753982" y1="32.10720583713015" x2="8.917084895520631" y2="29.905864533828638" class="delaunay-line"/>
<line x1="28.586515209501925" y1="13.844768976180664" x2="23.415661178577743" y2="8.18707597427184" class="delaunay-line"/>
<line x1="23.415661178577743" y1="8.18707597427184" x2="22.71762960509909" y2="12.59729883127411" class="delaunay-line"/>
<line x1="22.71762960509909" y1="12.59729883127411" x2="28.586515209501925" y2="13.844768976180664" class="delaunay-line"/>
<line x1="19.878017605021242" y1="4.225337927931797" x2="14.477494763353546" y2="6.886982727041067" class="delaunay-line"/>
<line x1="14.477494763353546" y1="6.886982727041067" x2="14.735013800808572" y2="7.315566377392123" class="delaunay-line"/>
<line x1="14.735013800808572" y1="7.315566377392123" x2="19.878017605021242" y2="4.225337927931797" class="delaunay-line"/>
<line x1="19.878017605021242" y1="4.225337927931797" x2="21.320442499806294" y2="10.782944240314826" class="delaunay-line"/>
<line x1="21.320442499806294" y1="10.782944240314826" x2="22.937508800596227" y2="8.333261826633208" class="delaunay-line"/>
<line x1="22.937508800596227" y1="8.333261826633208" x2="19.878017605021242" y2="4.225337927931797" class="delaunay-line"/>
<line x1="14.735013800808572" y1="7.315566377392123" x2="14.477494763353546" y2="6.886982727041067" class="delaunay-line"/>
<line x1="14.477494763353546" y1="6.886982727041067" x2="13.398297949873733" y2="9.669559432634301" class="delaunay-line"/>
<line x1="13.398297949873733" y1="9.669559432634301" x2="14.735013800808572" y2="7.315566377392123" class="delaunay-line"/>
<line x1="2.906960455392536" y1="17.665341559688635" x2="3.179256359742419" y2="28.15163430549222" class="delaunay-line"/>
<line x1="3.179256359742419" y1="28.15163430549222" x2="3.325442212103787" y2="27.673481927510704" class="delaunay-line"/>
<line x1="3.325442212103787" y1="27.673481927510704" x2="2.906960455392536" y2="17.665341559688635" class="delaunay-line"/>
<line x1="3.325442212103787" y1="27.673481927510704" x2="3.179256359742419" y2="28.15163430549222" class="delaunay-line"/>
<line x1="3.179256359742419" y1="28.15163430549222" x2="8.917084895520631" y2="29.905864533828638" class="delaunay-line"/>
<line x1="8.917084895520631" y1="29.905864533828638" x2="3.325442212103787" y2="27.673481927510704" class="delaunay-line"/>
<line x1="3.179256359742419" y1="28.15163430549222" x2="5.691724356322974" y2="32.026962654464995" class="delaunay-line"/>
<line x1="5.691724356322974" y1="32.026962654464995" x2="8.917084895520631" y2="29.905864533828638" class="delaunay-line"/>
<line x1="8.917084895520631" y1="29.905864533828638" x2="3.179256359742419" y2="28.15163430549222" class="delaunay-line"/>
<line x1="11.711986894753982" y1="32.10720583713015" x2="0" y2="36" class="delaunay-line"/>
<line x1="0" y1="36" x2="24.313791929710078" y2="33.353448301206775" class="delaunay-line"/>
<line x1="24.313791929710078" y1="33.353448301206775" x2="11.711986894753982" y2="32.10720583713015" class="delaunay-line"/>
<line x1="32.21167479902751" y1="32.512687419007435" x2="31.99849808895038" y2="23.943491016558003" class="delaunay-line"/>
<line x1="31.99849808895038" y1="23.943491016558003" x2="26.34278919462468" y2="31.26521727410088" class="delaunay-line"/>
<line x1="26.34278919462468" y1="31.26521727410088" x2="32.21167479902751" y2="32.512687419007435" class="delaunay-line"/>
<line x1="26.34278919462468" y1="31.26521727410088" x2="31.99849808895038" y2="23.943491016558003" class="delaunay-line"/>
<line x1="31.99849808895038" y1="23.943491016558003" x2="24.813791929710078" y2="27.353448301206775" class="delaunay-line"/>
<line x1="24.813791929710078" y1="27.353448301206775" x2="26.34278919462468" y2="31.26521727410088" class="delaunay-line"/>
<line x1="0" y1="36" x2="5.726602593195038" y2="32.52574467959491" class="delaunay-line"/>
<line x1="5.726602593195038" y1="32.52574467959491" x2="5.691724356322974" y2="32.026962654464995" class="delaunay-line"/>
<line x1="5.691724356322974" y1="32.026962654464995" x2="0" y2="36" class="delaunay-line"/>
<line x1="5.691724356322974" y1="32.026962654464995" x2="5.726602593195038" y2="32.52574467959491" class="delaunay-line"/>
<line x1="5.726602593195038" y1="32.52574467959491" x2="8.917084895520631" y2="29.905864533828638" class="delaunay-line"/>
<line x1="8.917084895520631" y1="29.905864533828638" x2="5.691724356322974" y2="32.026962654464995" class="delaunay-line"/>
<line x1="32.21167479902751" y1="32.512687419007435" x2="32.764542532069356" y2="23.300703406871467" class="delaunay-line"/>
<line x1="32.764542532069356" y1="23.300703406871467" x2="31.99849808895038" y2="23.943491016558003" class="delaunay-line"/>
<line x1="31.99849808895038" y1="23.943491016558003" x2="32.21167479902751" y2="32.512687419007435" class="delaunay-line"/>
<line x1="31.99849808895038" y1="23.943491016558003" x2="32.764542532069356" y2="23.300703406871467" class="delaunay-line"/>
<line x1="32.764542532069356" y1="23.300703406871467" x2="27.622241654577042" y2="17.172347861919643" class="delaunay-line"/>
<line x1="27.622241654577042" y1="17.172347861919643" x2="31.99849808895038" y2="23.943491016558003" class="delaunay-line"/>
<line x1="32.764542532069356" y1="23.300703406871467" x2="30.72665155189647" y2="11.018049858343161" class="delaunay-line"/>
<line x1="30.72665155189647" y1="11.018049858343161" x2="28.48255936409305" y2="14.333842776547566" class="delaunay-line"/>
<line x1="28.48255936409305" y1="14.333842776547566" x2="32.764542532069356" y2="23.300703406871467" class="delaunay-line"/>
<line x1="28.586515209501925" y1="13.844768976180664" x2="26.33852934218145" y2="6.926059697968171" class="delaunay-line"/>
<line x1="26.33852934218145" y1="6.926059697968171" x2="23.415661178577743" y2="8.18707597427184" class="delaunay-line"/>
<line x1="23.415661178577743" y1="8.18707597427184" x2="28.586515209501925" y2="13.844768976180664" class="delaunay-line"/>
<line x1="30.72665155189647" y1="11.018049858343161" x2="26.33852934218145" y2="6.926059697968171" class="delaunay-line"/>
<line x1="26.33852934218145" y1="6.926059697968171" x2="28.586515209501925" y2="13.844768976180664" class="delaunay-line"/>
<line x1="28.586515209501925" y1="13.844768976180664" x2="30.72665155189647" y2="11.018049858343161" class="delaunay-line"/>
<line x1="23.415661178577743" y1="8.18707597427184" x2="19.878017605021242" y2="4.225337927931797" class="delaunay-line"/>
<line x1="19.878017605021242" y1="4.225337927931797" x2="22.937508800596227" y2="8.333261826633208" class="delaunay-line"/>
<line x1="22.937508800596227" y1="8.333261826633208" x2="23.415661178577743" y2="8.18707597427184" class="delaunay-line"/>
<line x1="21.183278572259802" y1="2.5954332908549964" x2="19.878017605021242" y2="4.225337927931797" class="delaunay-line"/>
<line x1="19.878017605021242" y1="4.225337927931797" x2="21.661430950241318" y2="2.4492474384936282" class="delaunay-line"/>
<line x1="21.661430950241318" y1="2.4492474384936282" x2="21.183278572259802" y2="2.5954332908549964" class="delaunay-line"/>
<line x1="30.72665155189647" y1="11.018049858343161" x2="31.067650731927717" y2="10.652373007533576" class="delaunay-line"/>
<line x1="31.067650731927717" y1="10.652373007533576" x2="26.33852934218145" y2="6.926059697968171" class="delaunay-line"/>
<line x1="26.33852934218145" y1="6.926059697968171" x2="30.72665155189647" y2="11.018049858343161" class="delaunay-line"/>
<line x1="32.764542532069356" y1="23.300703406871467" x2="31.067650731927717" y2="10.652373007533576" class="delaunay-line"/>
<line x1="31.067650731927717" y1="10.652373007533576" x2="30.72665155189647" y2="11.018049858343161" class="delaunay-line"/>
<line x1="30.72665155189647" y1="11.018049858343161" x2="32.764542532069356" y2="23.300703406871467" class="delaunay-line"/>
<line x1="31.067650731927717" y1="10.652373007533576" x2="26.679528522212696" y2="6.560382847158586" class="delaunay-line"/>
<line x1="26.679528522212696" y1="6.560382847158586" x2="26.33852934218145" y2="6.926059697968171" class="delaunay-line"/>
<line x1="26.33852934218145" y1="6.926059697968171" x2="31.067650731927717" y2="10.652373007533576" class="delaunay-line"/>
<line x1="21.661430950241318" y1="2.4492474384936282" x2="19.878017605021242" y2="4.225337927931797" class="delaunay-line"/>
<line x1="19.878017605021242" y1="4.225337927931797" x2="23.415661178577743" y2="8.18707597427184" class="delaunay-line"/>
<line x1="23.415661178577743" y1="8.18707597427184" x2="21.661430950241318" y2="2.4492474384936282" class="delaunay-line"/>
<line x1="21.183278572259802" y1="2.5954332908549964" x2="19.620498567566216" y2="3.7967542775807406" class="delaunay-line"/>
<line x1="19.620498567566216" y1="3.7967542775807406" x2="19.878017605021242" y2="4.225337927931797" class="delaunay-line"/>
<line x1="19.878017605021242" y1="4.225337927931797" x2="21.183278572259802" y2="2.5954332908549964" class="delaunay-line"/>
<line x1="19.878017605021242" y1="4.225337927931797" x2="19.620498567566216" y2="3.7967542775807406" class="delaunay-line"/>
<line x1="19.620498567566216" y1="3.7967542775807406" x2="14.477494763353546" y2="6.886982727041067" class="delaunay-line"/>
<line x1="14.477494763353546" y1="6.886982727041067" x2="19.878017605021242" y2="4.225337927931797" class="delaunay-line"/>
<line x1="19.620498567566216" y1="3.7967542775807406" x2="12.749487559462741" y2="3.8753958482825546" class="delaunay-line"/>
<line x1="12.749487559462741" y1="3.8753958482825546" x2="14.477494763353546" y2="6.886982727041067" class="delaunay-line"/>
<line x1="14.477494763353546" y1="6.886982727041067" x2="19.620498567566216" y2="3.7967542775807406" class="delaunay-line"/>
<line x1="14.477494763353546" y1="6.886982727041067" x2="12.749487559462741" y2="3.8753958482825546" class="delaunay-line"/>
<line x1="12.749487559462741" y1="3.8753958482825546" x2="13.398297949873733" y2="9.669559432634301" class="delaunay-line"/>
<line x1="13.398297949873733" y1="9.669559432634301" x2="14.477494763353546" y2="6.886982727041067" class="delaunay-line"/>
<line x1="8.463803368110604" y1="11.469027939012072" x2="6.313595670838802" y2="5.8675453800288615" class="delaunay-line"/>
<line x1="6.313595670838802" y1="5.8675453800288615" x2="3.4515994904075633" y2="16.826670991743214" class="delaunay-line"/>
<line x1="3.4515994904075633" y1="16.826670991743214" x2="8.463803368110604" y2="11.469027939012072" class="delaunay-line"/>
<line x1="32.10771895361864" y1="33.00176121937434" x2="32.21167479902751" y2="32.512687419007435" class="delaunay-line"/>
<line x1="32.21167479902751" y1="32.512687419007435" x2="26.238833349215803" y2="31.75429107446778" class="delaunay-line"/>
<line x1="26.238833349215803" y1="31.75429107446778" x2="32.10771895361864" y2="33.00176121937434" class="delaunay-line"/>
<line x1="26.238833349215803" y1="31.75429107446778" x2="32.21167479902751" y2="32.512687419007435" class="delaunay-line"/>
<line x1="32.21167479902751" y1="32.512687419007435" x2="26.34278919462468" y2="31.26521727410088" class="delaunay-line"/>
<line x1="26.34278919462468" y1="31.26521727410088" x2="26.238833349215803" y2="31.75429107446778" class="delaunay-line"/>
<line x1="19.620498567566216" y1="3.7967542775807406" x2="12.697223327828913" y2="3.378134900598418" class="delaunay-line"/>
<line x1="12.697223327828913" y1="3.378134900598418" x2="12.749487559462741" y2="3.8753958482825546" class="delaunay-line"/>
<line x1="12.749487559462741" y1="3.8753958482825546" x2="19.620498567566216" y2="3.7967542775807406" class="delaunay-line"/>
<line x1="12.749487559462741" y1="3.8753958482825546" x2="6.780385884087402" y2="5.688361405256213" class="delaunay-line"/>
<line x1="6.780385884087402" y1="5.688361405256213" x2="13.398297949873733" y2="9.669559432634301" class="delaunay-line"/>
<line x1="13.398297949873733" y1="9.669559432634301" x2="12.749487559462741" y2="3.8753958482825546" class="delaunay-line"/>
<line x1="6.782356187253102" y1="4.502566627888475" x2="6.780385884087402" y2="5.688361405256213" class="delaunay-line"/>
<line x1="6.780385884087402" y1="5.688361405256213" x2="12.749487559462741" y2="3.8753958482825546" class="delaunay-line"/>
<line x1="12.749487559462741" y1="3.8753958482825546" x2="6.782356187253102" y2="4.502566627888475" class="delaunay-line"/>
<line x1="3.4515994904075633" y1="16.826670991743214" x2="0" y2="0" class="delaunay-line"/>
<line x1="0" y1="0" x2="2.906960455392536" y2="17.665341559688635" class="delaunay-line"/>
<line x1="2.906960455392536" y1="17.665341559688635" x2="3.4515994904075633" y2="16.826670991743214" class="delaunay-line"/>
<line x1="24.813791929710078" y1="33.353448301206775" x2="32.10771895361864" y2="33.00176121937434" class="delaunay-line"/>
<line x1="32.10771895361864" y1="33.00176121937434" x2="26.238833349215803" y2="31.75429107446778" class="delaunay-line"/>
<line x1="26.238833349215803" y1="31.75429107446778" x2="24.813791929710078" y2="33.353448301206775" class="delaunay-line"/>
<line x1="6.782356187253102" y1="4.502566627888475" x2="6.313595670838802" y2="5.8675453800288615" class="delaunay-line"/>
<line x1="6.313595670838802" y1="5.8675453800288615" x2="6.780385884087402" y2="5.688361405256213" class="delaunay-line"/>
<line x1="6.780385884087402" y1="5.688361405256213" x2="6.782356187253102" y2="4.502566627888475" class="delaunay-line"/>
<line x1="6.780385884087402" y1="5.688361405256213" x2="6.313595670838802" y2="5.8675453800288615" class="delaunay-line"/>
<line x1="6.313595670838802" y1="5.8675453800288615" x2="8.463803368110604" y2="11.469027939012072" class="delaunay-line"/>
<line x1="8.463803368110604" y1="11.469027939012072" x2="6.780385884087402" y2="5.688361405256213" class="delaunay-line"/>
<line x1="21.661430950241318" y1="2.4492474384936282" x2="23.415661178577743" y2="8.18707597427184" class="delaunay-line"/>
<line x1="23.415661178577743" y1="8.18707597427184" x2="26.33852934218145" y2="6.926059697968171" class="delaunay-line"/>
<line x1="26.33852934218145" y1="6.926059697968171" x2="21.661430950241318" y2="2.4492474384936282" class="delaunay-line"/>
<line x1="19.620498567566216" y1="3.7967542775807406" x2="21.183278572259802" y2="2.5954332908549964" class="delaunay-line"/>
<line x1="21.183278572259802" y1="2.5954332908549964" x2="12.697223327828913" y2="3.378134900598418" class="delaunay-line"/>
<line x1="12.697223327828913" y1="3.378134900598418" x2="19.620498567566216" y2="3.7967542775807406" class="delaunay-line"/>
<line x1="26.679528522212696" y1="6.560382847158586" x2="21.661430950241318" y2="2.4492474384936282" class="delaunay-line"/>
<line x1="21.661430950241318" y1="2.4492474384936282" x2="26.33852934218145" y2="6.926059697968171" class="delaunay-line"/>
<line x1="26.33852934218145" y1="6.926059697968171" x2="26.679528522212696" y2="6.560382847158586" class="delaunay-line"/>
<line x1="21.183278572259802" y1="2.5954332908549964" x2="21.661430950241318" y2="2.4492474384936282" class="delaunay-line"/>
<line x1="21.661430950241318" y1="2.4492474384936282" x2="12.697223327828913" y2="3.378134900598418" class="delaunay-line"/>
<line x1="12.697223327828913" y1="3.378134900598418" x2="21.183278572259802" y2="2.5954332908549964" class="delaunay-line"/>
<line x1="12.697223327828913" y1="3.378134900598418" x2="6.782356187253102" y2="4.502566627888475" class="delaunay-line"/>
<line x1="6.782356187253102" y1="4.502566627888475" x2="12.749487559462741" y2="3.8753958482825546" class="delaunay-line"/>
<line x1="12.749487559462741" y1="3.8753958482825546" x2="12.697223327828913" y2="3.378134900598418" class="delaunay-line"/>
<line x1="31.067650731927717" y1="10.652373007533576" x2="29.059564727987297" y2="5.529593279633389" class="delaunay-line"/>
<line x1="29.059564727987297" y1="5.529593279633389" x2="26.679528522212696" y2="6.560382847158586" class="delaunay-line"/>
<line x1="26.679528522212696" y1="6.560382847158586" x2="31.067650731927717" y2="10.652373007533576" class="delaunay-line"/>
<line x1="26.679528522212696" y1="6.560382847158586" x2="28.885916550320363" y2="4.544785526621181" class="delaunay-line"/>
<line x1="28.885916550320363" y1="4.544785526621181" x2="21.661430950241318" y2="2.4492474384936282" class="delaunay-line"/>
<line x1="21.661430950241318" y1="2.4492474384936282" x2="26.679528522212696" y2="6.560382847158586" class="delaunay-line"/>
<line x1="12.697223327828913" y1="3.378134900598418" x2="6.730091955619274" y2="4.005305680204338" class="delaunay-line"/>
<line x1="6.730091955619274" y1="4.005305680204338" x2="6.782356187253102" y2="4.502566627888475" class="delaunay-line"/>
<line x1="6.782356187253102" y1="4.502566627888475" x2="12.697223327828913" y2="3.378134900598418" class="delaunay-line"/>
<line x1="6.782356187253102" y1="4.502566627888475" x2="6.730091955619274" y2="4.005305680204338" class="delaunay-line"/>
<line x1="6.730091955619274" y1="4.005305680204338" x2="6.313595670838802" y2="5.8675453800288615" class="delaunay-line"/>
<line x1="6.313595670838802" y1="5.8675453800288615" x2="6.782356187253102" y2="4.502566627888475" class="delaunay-line"/>
<line x1="6.313595670838802" y1="5.8675453800288615" x2="0" y2="0" class="delaunay-line"/>
<line x1="0" y1="0" x2="3.4515994904075633" y2="16.826670991743214" class="delaunay-line"/>
<line x1="3.4515994904075633" y1="16.826670991743214" x2="6.313595670838802" y2="5.8675453800288615" class="delaunay-line"/>
<line x1="36.764378574418025" y1="3.155600105285738" x2="28.885916550320363" y2="4.544785526621181" class="delaunay-line"/>
<line x1="28.885916550320363" y1="4.544785526621181" x2="29.059564727987297" y2="5.529593279633389" class="delaunay-line"/>
<line x1="29.059564727987297" y1="5.529593279633389" x2="36.764378574418025" y2="3.155600105285738" class="delaunay-line"/>
<line x1="29.059564727987297" y1="5.529593279633389" x2="28.885916550320363" y2="4.544785526621181" class="delaunay-line"/>
<line x1="28.885916550320363" y1="4.544785526621181" x2="26.679528522212696" y2="6.560382847158586" class="delaunay-line"/>
<line x1="26.679528522212696" y1="6.560382847158586" x2="29.059564727987297" y2="5.529593279633389" class="delaunay-line"/>
<line x1="3.179256359742419" y1="28.15163430549222" x2="0" y2="36" class="delaunay-line"/>
<line x1="0" y1="36" x2="5.691724356322974" y2="32.026962654464995" class="delaunay-line"/>
<line x1="5.691724356322974" y1="32.026962654464995" x2="3.179256359742419" y2="28.15163430549222" class="delaunay-line"/>
<line x1="5.726602593195038" y1="32.52574467959491" x2="0" y2="36" class="delaunay-line"/>
<line x1="0" y1="36" x2="11.711986894753982" y2="32.10720583713015" class="delaunay-line"/>
<line x1="11.711986894753982" y1="32.10720583713015" x2="5.726602593195038" y2="32.52574467959491" class="delaunay-line"/>
<line x1="24.313791929710078" y1="33.353448301206775" x2="36" y2="36" class="delaunay-line"/>
<line x1="36" y1="36" x2="24.813791929710078" y2="33.353448301206775" class="delaunay-line"/>
<line x1="24.813791929710078" y1="33.353448301206775" x2="24.313791929710078" y2="33.353448301206775" class="delaunay-line"/>
<line x1="24.813791929710078" y1="33.353448301206775" x2="36" y2="36" class="delaunay-line"/>
<line x1="36" y1="36" x2="32.10771895361864" y2="33.00176121937434" class="delaunay-line"/>
<line x1="32.10771895361864" y1="33.00176121937434" x2="24.813791929710078" y2="33.353448301206775" class="delaunay-line"/>
<line x1="2.906960455392536" y1="17.665341559688635" x2="0" y2="36" class="delaunay-line"/>
<line x1="0" y1="36" x2="3.179256359742419" y2="28.15163430549222" class="delaunay-line"/>
<line x1="3.179256359742419" y1="28.15163430549222" x2="2.906960455392536" y2="17.665341559688635" class="delaunay-line"/>
<line x1="0" y1="36" x2="36" y2="36" class="delaunay-line"/>
<line x1="36" y1="36" x2="24.313791929710078" y2="33.353448301206775" class="delaunay-line"/>
<line x1="24.313791929710078" y1="33.353448301206775" x2="0" y2="36" class="delaunay-line"/>
<line x1="32.10771895361864" y1="33.00176121937434" x2="36" y2="36" class="delaunay-line"/>
<line x1="36" y1="36" x2="32.21167479902751" y2="32.512687419007435" class="delaunay-line"/>
<line x1="32.21167479902751" y1="32.512687419007435" x2="32.10771895361864" y2="33.00176121937434" class="delaunay-line"/>
<line x1="32.21167479902751" y1="32.512687419007435" x2="36" y2="36" class="delaunay-line"/>
<line x1="36" y1="36" x2="32.764542532069356" y2="23.300703406871467" class="delaunay-line"/>
<line x1="32.764542532069356" y1="23.300703406871467" x2="32.21167479902751" y2="32.512687419007435" class="delaunay-line"/>
<line x1="32.764542532069356" y1="23.300703406871467" x2="36.93802675208496" y2="4.140407858297946" class="delaunay-line"/>
<line x1="36.93802675208496" y1="4.140407858297946" x2="31.067650731927717" y2="10.652373007533576" class="delaunay-line"/>
<line x1="31.067650731927717" y1="10.652373007533576" x2="32.764542532069356" y2="23.300703406871467" class="delaunay-line"/>
<line x1="36" y1="36" x2="36.93802675208496" y2="4.140407858297946" class="delaunay-line"/>
<line x1="36.93802675208496" y1="4.140407858297946" x2="32.764542532069356" y2="23.300703406871467" class="delaunay-line"/>
<line x1="32.764542532069356" y1="23.300703406871467" x2="36" y2="36" class="delaunay-line"/>
<line x1="31.067650731927717" y1="10.652373007533576" x2="36.93802675208496" y2="4.140407858297946" class="delaunay-line"/>
<line x1="36.93802675208496" y1="4.140407858297946" x2="29.059564727987297" y2="5.529593279633389" class="delaunay-line"/>
<line x1="29.059564727987297" y1="5.529593279633389" x2="31.067650731927717" y2="10.652373007533576" class="delaunay-line"/>
<line x1="28.885916550320363" y1="4.544785526621181" x2="36" y2="0" class="delaunay-line"/>
<line x1="36" y1="0" x2="21.661430950241318" y2="2.4492474384936282" class="delaunay-line"/>
<line x1="21.661430950241318" y1="2.4492474384936282" x2="28.885916550320363" y2="4.544785526621181" class="delaunay-line"/>
<line x1="36.93802675208496" y1="4.140407858297946" x2="36.764378574418025" y2="3.155600105285738" class="delaunay-line"/>
<line x1="36.764378574418025" y1="3.155600105285738" x2="29.059564727987297" y2="5.529593279633389" class="delaunay-line"/>
<line x1="29.059564727987297" y1="5.529593279633389" x2="36.93802675208496" y2="4.140407858297946" class="delaunay-line"/>
<line x1="21.661430950241318" y1="2.4492474384936282" x2="0" y2="0" class="delaunay-line"/>
<line x1="0" y1="0" x2="12.697223327828913" y2="3.378134900598418" class="delaunay-line"/>
<line x1="12.697223327828913" y1="3.378134900598418" x2="21.661430950241318" y2="2.4492474384936282" class="delaunay-line"/>
<line x1="12.697223327828913" y1="3.378134900598418" x2="0" y2="0" class="delaunay-line"/>
<line x1="0" y1="0" x2="6.730091955619274" y2="4.005305680204338" class="delaunay-line"/>
<line x1="6.730091955619274" y1="4.005305680204338" x2="12.697223327828913" y2="3.378134900598418" class="delaunay-line"/>
<line x1="6.730091955619274" y1="4.005305680204338" x2="0" y2="0" class="delaunay-line"/>
<line x1="0" y1="0" x2="6.313595670838802" y2="5.8675453800288615" class="delaunay-line"/>
<line x1="6.313595670838802" y1="5.8675453800288615" x2="6.730091955619274" y2="4.005305680204338" class="delaunay-line"/>
<line x1="2.906960455392536" y1="17.665341559688635" x2="0" y2="0" class="delaunay-line"/>
<line x1="0" y1="0" x2="0" y2="36" class="delaunay-line"/>
<line x1="0" y1="36" x2="2.906960455392536" y2="17.665341559688635" class="delaunay-line"/>
<line x1="36" y1="0" x2="0" y2="0" class="delaunay-line"/>
<line x1="0" y1="0" x2="21.661430950241318" y2="2.4492474384936282" class="delaunay-line"/>
<line x1="21.661430950241318" y1="2.4492474384936282" x2="36" y2="0" class="delaunay-line"/>
<line x1="36.764378574418025" y1="3.155600105285738" x2="36" y2="0" class="delaunay-line"/>
<line x1="36" y1="0" x2="28.885916550320363" y2="4.544785526621181" class="delaunay-line"/>
<line x1="28.885916550320363" y1="4.544785526621181" x2="36.764378574418025" y2="3.155600105285738" class="delaunay-line"/>
</g>
<g id="layer-area" class="layer ">
</g>
<g id="layer-building" class="layer ">
</g>
<g id="layer-wall" class="layer ">
<polygon points="10.160964033970956,21.183783271863433 9.616324998955928,22.022453839808854 2.906960455392536,17.665341559688635 3.4515994904075633,16.826670991743214" class="terrain-solid"/>
<text x="6.533962244681746" y="19.424562415776034" class="label">#555555</text>
<polygon points="31.067650731927717,10.652373007533576 30.72665155189647,11.018049858343161 26.33852934218145,6.926059697968171 26.679528522212696,6.560382847158586" class="terrain-solid"/>
<text x="28.703090037054583" y="8.789216352750874" class="label">#555555</text>
<polygon points="32.764542532069356,23.300703406871467 31.99849808895038,23.943491016558003 26.856197211458063,17.81513547160618 27.622241654577042,17.172347861919643" class="terrain-solid"/>
<text x="29.81036987176371" y="20.557919439238823" class="label">#555555</text>
<polygon points="13.259124848913668,10.659827501375872 13.398297949873733,9.669559432634301 21.320442499806294,10.782944240314826 21.18126939884623,11.773212309056397" class="terrain-solid"/>
<text x="17.28978367435998" y="10.72138587084535" class="label">#555555</text>
<polygon points="8.930593581359204,11.289843964239424 8.463803368110604,11.469027939012072 6.313595670838802,5.8675453800288615 6.780385884087402,5.688361405256213" class="terrain-solid"/>
<text x="7.622094626099003" y="8.578694672134143" class="label">#555555</text>
<polygon points="3.179256359742419,28.15163430549222 3.325442212103787,27.673481927510704 9.063270747882,29.42771215584712 8.917084895520631,29.905864533828638" class="terrain-solid"/>
<text x="6.121263553812209" y="28.78967323066967" class="label">#555555</text>
<polygon points="14.735013800808572,7.315566377392123 14.477494763353546,6.886982727041067 19.620498567566216,3.7967542775807406 19.878017605021242,4.225337927931797" class="terrain-solid"/>
<text x="17.177756184187395" y="5.556160327486432" class="label">#555555</text>
<polygon points="12.697223327828913,3.378134900598418 12.749487559462741,3.8753958482825546 6.782356187253102,4.502566627888475 6.730091955619274,4.005305680204338" class="terrain-solid"/>
<text x="9.739789757541008" y="3.9403507642434468" class="label">#555555</text>
<polygon points="36.764378574418025,3.155600105285738 36.93802675208496,4.140407858297946 29.059564727987297,5.529593279633389 28.885916550320363,4.544785526621181" class="terrain-solid"/>
<text x="32.91197165120266" y="4.342596692459564" class="label">#555555</text>
<polygon points="32.21167479902751,32.512687419007435 32.10771895361864,33.00176121937434 26.238833349215803,31.75429107446778 26.34278919462468,31.26521727410088" class="terrain-solid"/>
<text x="29.225254074121658" y="32.133489246737604" class="label">#555555</text>
<polygon points="14.82570677400515,13.176440007182169 14.877971005638978,13.673700954866305 8.91083963342934,14.300871734472224 8.858575401795513,13.803610786788088" class="terrain-solid"/>
<text x="11.868273203717246" y="13.738655870827195" class="label">#555555</text>
<polygon points="9.701371796211895,26.317166640845702 9.56219869525183,25.32689857210413 17.48434324518439,24.213513764423613 17.623516346144456,25.203781833165184" class="terrain-solid"/>
<text x="13.592857520698143" y="25.265340202634658" class="label">#555555</text>
<polygon points="18.855206030869585,28.679090729216885 18.872658437306868,29.678938424373275 10.87387687605574,29.818557675871542 10.856424469618457,28.818709980715152" class="terrain-solid"/>
<text x="14.86454145346266" y="29.248824202544213" class="label">#555555</text>
<polygon points="28.586515209501925,13.844768976180664 28.48255936409305,14.333842776547566 22.613673759690215,13.086372631641012 22.71762960509909,12.59729883127411" class="terrain-solid"/>
<text x="25.60009448459607" y="13.465570803910838" class="label">#555555</text>
<polygon points="5.726602593195038,32.52574467959491 5.691724356322974,32.026962654464995 11.677108657881918,31.60842381200024 11.711986894753982,32.10720583713015" class="terrain-solid"/>
<text x="8.701855625538478" y="32.067084245797574" class="label">#555555</text>
<polygon points="13.524492391961335,22.227305928438458 13.480914520587508,21.729208579392587 19.45808270913798,21.20627412290664 19.501660580511807,21.70437147195251" class="terrain-solid"/>
<text x="16.491287550549657" y="21.716790025672548" class="label">#555555</text>
<polygon points="23.415661178577743,8.18707597427184 22.937508800596227,8.333261826633208 21.183278572259802,2.5954332908549964 21.661430950241318,2.4492474384936282" class="terrain-solid"/>
<text x="22.299469875418772" y="5.391254632563418" class="label">#555555</text>
<polygon points="24.313791929710078,27.353448301206775 24.813791929710078,27.353448301206775 24.813791929710078,33.353448301206775 24.313791929710078,33.353448301206775" class="terrain-solid"/>
<text x="24.563791929710078" y="30.353448301206775" class="label">#555555</text>
</g>
<g id="layer-tree" class="layer ">
</g>
<g id="layer-rocks" class="layer ">
</g>
<g id="layer-shrub" class="layer ">
</g>
<g id="layer-terrain" class="layer ">
</g>
<g id="layer-clearance" class="layer hidden">
</g>
<g id="layer-models" class="layer ">
</g>
<g id="layer-paths" class="layer ">
</g>
<g id="layer-vectors" class="layer ">
</g>
<g id="layer-los" class="layer ">
</g>
<g id="layer-lof" class="layer ">
</g>

<g id="legend">
<g class="toggle" onclick="toggleLayer('deployment')"><rect x="0.4" y="0.14999999999999997" width="0.4" height="0.4" fill="#222" stroke="#222" stroke-width="0.05"/><text x="1.0" y="0.5499999999999999" class="label">Deployment Zones</text></g>
<g class="toggle" onclick="toggleLayer('grid')"><rect x="0.4" y="0.95" width="0.4" height="0.4" fill="#222" stroke="#222" stroke-width="0.05"/><text x="1.0" y="1.3499999999999999" class="label">0.5 MU Grid</text></g>
<g class="toggle" onclick="toggleLayer('delaunay')"><rect x="0.4" y="1.7500000000000002" width="0.4" height="0.4" fill="#222" stroke="#222" stroke-width="0.05"/><text x="1.0" y="2.1500000000000004" class="label">Delaunay Mesh</text></g>
<g class="toggle disabled"><rect x="0.4" y="2.55" width="0.4" height="0.4" fill="#222" stroke="#222" stroke-width="0.05"/><text x="1.0" y="2.95" class="label">Area Terrain</text></g>
<g class="toggle disabled"><rect x="0.4" y="3.3499999999999996" width="0.4" height="0.4" fill="#222" stroke="#222" stroke-width="0.05"/><text x="1.0" y="3.75" class="label">Buildings</text></g>
<g class="toggle" onclick="toggleLayer('wall')"><rect x="0.4" y="4.1499999999999995" width="0.4" height="0.4" fill="#222" stroke="#222" stroke-width="0.05"/><text x="1.0" y="4.55" class="label">Walls</text></g>
<g class="toggle disabled"><rect x="0.4" y="4.949999999999999" width="0.4" height="0.4" fill="#222" stroke="#222" stroke-width="0.05"/><text x="1.0" y="5.35" class="label">Trees</text></g>
<g class="toggle disabled"><rect x="0.4" y="5.749999999999999" width="0.4" height="0.4" fill="#222" stroke="#222" stroke-width="0.05"/><text x="1.0" y="6.1499999999999995" class="label">Rocks</text></g>
<g class="toggle disabled"><rect x="0.4" y="6.549999999999999" width="0.4" height="0.4" fill="#222" stroke="#222" stroke-width="0.05"/><text x="1.0" y="6.949999999999999" class="label">Shrubs</text></g>
<g class="toggle" onclick="toggleLayer('terrain')"><rect x="0.4" y="7.349999999999999" width="0.4" height="0.4" fill="#222" stroke="#222" stroke-width="0.05"/><text x="1.0" y="7.749999999999999" class="label">Other Terrain</text></g>
<g class="toggle" onclick="toggleLayer('clearance')"><rect x="0.4" y="8.15" width="0.4" height="0.4" fill="#fff" stroke="#222" stroke-width="0.05"/><text x="1.0" y="8.549999999999999" class="label">Clearance Zones</text></g>
<g class="toggle" onclick="toggleLayer('models')"><rect x="0.4" y="8.950000000000001" width="0.4" height="0.4" fill="#222" stroke="#222" stroke-width="0.05"/><text x="1.0" y="9.35" class="label">Models</text></g>
<g class="toggle" onclick="toggleLayer('paths')"><rect x="0.4" y="9.750000000000002" width="0.4" height="0.4" fill="#222" stroke="#222" stroke-width="0.05"/><text x="1.0" y="10.15" class="label">Paths</text></g>
<g class="toggle" onclick="toggleLayer('vectors')"><rect x="0.4" y="10.550000000000002" width="0.4" height="0.4" fill="#222" stroke="#222" stroke-width="0.05"/><text x="1.0" y="10.950000000000001" class="label">Vectors</text></g>
<g class="toggle" onclick="toggleLayer('los')"><rect x="0.4" y="11.350000000000003" width="0.4" height="0.4" fill="#222" stroke="#222" stroke-width="0.05"/><text x="1.0" y="11.750000000000002" class="label">LOS</text></g>
<g class="toggle" onclick="toggleLayer('lof')"><rect x="0.4" y="12.150000000000004" width="0.4" height="0.4" fill="#222" stroke="#222" stroke-width="0.05"/><text x="1.0" y="12.550000000000002" class="label">LOF</text></g>
</g>
</svg>