<svg xmlns="http://www.w3.org/2000/svg" viewBox="0 0 36 36" width="1440" height="1440" font-family="Arial" font-size="0.6">
<defs>
  <style><![CDATA[
    .layer { display: inline; }
    .layer.hidden { display: none; }
    .grid-line { stroke: #999; stroke-width: 0.02; opacity: 0.2; }
    .grid-line-2mu { stroke: #666; stroke-width: 0.04; opacity: 0.4; }
    .grid-line-6mu { stroke: #333; stroke-width: 0.08; opacity: 0.6; }
    .delaunay-line { stroke: #4a6fa5; stroke-width: 0.03; opacity: 0.3; }
    #layer-area { opacity: 0.8; }
    #layer-building, #layer-wall, #layer-tree, #layer-rocks, #layer-shrub, #layer-terrain { opacity: 0.8; }
    .terrain-area { stroke: none; }
    .terrain-solid { stroke: #000; stroke-width: 0.05; }
    .model { stroke: #ff0000; stroke-width: 2; vector-effect: non-scaling-stroke; }
    .path { fill: none; stroke-width: 0.12; }
    .vector { stroke-width: 0.1; }
    .los-ray { stroke-width: 0.08; stroke-dasharray: 0.2 0.2; }
    .lof-ray { stroke-width: 0.08; stroke-dasharray: 0.3 0.15; }
    .label { fill: #111 !important; font-size: 0.6px; }
    .toggle { cursor: pointer; }
    .toggle.disabled { cursor: default; }
    .toggle.disabled rect { stroke: #ccc; fill: #fff; }
    .toggle.disabled text { fill: #ccc; }
#layer-area { fill: #C49A6C; }
  ]]></style>
</defs>
<rect x="0" y="0" width="36" height="36" fill="#ffffff" stroke="#111" stroke-width="0.05"/>
<script><![CDATA[
      function toggleLayer(id) {
        var layer = document.getElementById('layer-' + id);
        if (!layer) return;
        if (layer.classList.contains('hidden')) {
          layer.classList.remove('hidden');
        } else {
          layer.classList.add('hidden');
        }
      }
    ]]></script>
<text x="0.4" y="35.6" class="label">MEDIUM battlefield_A80-B0-W0-R0-S0-T0</text>
<g id="layer-deployment" class="layer ">
</g>
<g id="layer-grid" class="layer ">
<line x1="0" y1="0" x2="0" y2="36" class="grid-line-6mu"/>
<line x1="0.5" y1="0" x2="0.5" y2="36" class="grid-line"/>
<line x1="1" y1="0" x2="1" y2="36" class="grid-line"/>
<line x1="1.5" y1="0" x2="1.5" y2="36" class="grid-line"/>
<line x1="2" y1="0" x2="2" y2="36" class="grid-line-2mu"/>
<line x1="2.5" y1="0" x2="2.5" y2="36" class="grid-line"/>
<line x1="3" y1="0" x2="3" y2="36" class="grid-line"/>
<line x1="3.5" y1="0" x2="3.5" y2="36" class="grid-line"/>
<line x1="4" y1="0" x2="4" y2="36" class="grid-line-2mu"/>
<line x1="4.5" y1="0" x2="4.5" y2="36" class="grid-line"/>
<line x1="5" y1="0" x2="5" y2="36" class="grid-line"/>
<line x1="5.5" y1="0" x2="5.5" y2="36" class="grid-line"/>
<line x1="6" y1="0" x2="6" y2="36" class="grid-line-6mu"/>
<line x1="6.5" y1="0" x2="6.5" y2="36" class="grid-line"/>
<line x1="7" y1="0" x2="7" y2="36" class="grid-line"/>
<line x1="7.5" y1="0" x2="7.5" y2="36" class="grid-line"/>
<line x1="8" y1="0" x2="8" y2="36" class="grid-line-2mu"/>
<line x1="8.5" y1="0" x2="8.5" y2="36" class="grid-line"/>
<line x1="9" y1="0" x2="9" y2="36" class="grid-line"/>
<line x1="9.5" y1="0" x2="9.5" y2="36" class="grid-line"/>
<line x1="10" y1="0" x2="10" y2="36" class="grid-line-2mu"/>
<line x1="10.5" y1="0" x2="10.5" y2="36" class="grid-line"/>
<line x1="11" y1="0" x2="11" y2="36" class="grid-line"/>
<line x1="11.5" y1="0" x2="11.5" y2="36" class="grid-line"/>
<line x1="12" y1="0" x2="12" y2="36" class="grid-line-6mu"/>
<line x1="12.5" y1="0" x2="12.5" y2="36" class="grid-line"/>
<line x1="13" y1="0" x2="13" y2="36" class="grid-line"/>
<line x1="13.5" y1="0" x2="13.5" y2="36" class="grid-line"/>
<line x1="14" y1="0" x2="14" y2="36" class="grid-line-2mu"/>
<line x1="14.5" y1="0" x2="14.5" y2="36" class="grid-line"/>
<line x1="15" y1="0" x2="15" y2="36" class="grid-line"/>
<line x1="15.5" y1="0" x2="15.5" y2="36" class="grid-line"/>
<line x1="16" y1="0" x2="16" y2="36" class="grid-line-2mu"/>
<line x1="16.5" y1="0" x2="16.5" y2="36" class="grid-line"/>
<line x1="17" y1="0" x2="17" y2="36" class="grid-line"/>
<line x1="17.5" y1="0" x2="17.5" y2="36" class="grid-line"/>
<line x1="18" y1="0" x2="18" y2="36" class="grid-line-6mu"/>
<line x1="18.5" y1="0" x2="18.5" y2="36" class="grid-line"/>
<line x1="19" y1="0" x2="19" y2="36" class="grid-line"/>
<line x1="19.5" y1="0" x2="19.5" y2="36" class="grid-line"/>
<line x1="20" y1="0" x2="20" y2="36" class="grid-line-2mu"/>
<line x1="20.5" y1="0" x2="20.5" y2="36" class="grid-line"/>
<line x1="21" y1="0" x2="21" y2="36" class="grid-line"/>
<line x1="21.5" y1="0" x2="21.5" y2="36" class="grid-line"/>
<line x1="22" y1="0" x2="22" y2="36" class="grid-line-2mu"/>
<line x1="22.5" y1="0" x2="22.5" y2="36" class="grid-line"/>
<line x1="23" y1="0" x2="23" y2="36" class="grid-line"/>
<line x1="23.5" y1="0" x2="23.5" y2="36" class="grid-line"/>
<line x1="24" y1="0" x2="24" y2="36" class="grid-line-6mu"/>
<line x1="24.5" y1="0" x2="24.5" y2="36" class="grid-line"/>
<line x1="25" y1="0" x2="25" y2="36" class="grid-line"/>
<line x1="25.5" y1="0" x2="25.5" y2="36" class="grid-line"/>
<line x1="26" y1="0" x2="26" y2="36" class="grid-line-2mu"/>
<line x1="26.5" y1="0" x2="26.5" y2="36" class="grid-line"/>
<line x1="27" y1="0" x2="27" y2="36" class="grid-line"/>
<line x1="27.5" y1="0" x2="27.5" y2="36" class="grid-line"/>
<line x1="28" y1="0" x2="28" y2="36" class="grid-line-2mu"/>
<line x1="28.5" y1="0" x2="28.5" y2="36" class="grid-line"/>
<line x1="29" y1="0" x2="29" y2="36" class="grid-line"/>
<line x1="29.5" y1="0" x2="29.5" y2="36" class="grid-line"/>
<line x1="30" y1="0" x2="30" y2="36" class="grid-line-6mu"/>
<line x1="30.5" y1="0" x2="30.5" y2="36" class="grid-line"/>
<line x1="31" y1="0" x2="31" y2="36" class="grid-line"/>
<line x1="31.5" y1="0" x2="31.5" y2="36" class="grid-line"/>
<line x1="32" y1="0" x2="32" y2="36" class="grid-line-2mu"/>
<line x1="32.5" y1="0" x2="32.5" y2="36" class="grid-line"/>
<line x1="33" y1="0" x2="33" y2="36" class="grid-line"/>
<line x1="33.5" y1="0" x2="33.5" y2="36" class="grid-line"/>
<line x1="34" y1="0" x2="34" y2="36" class="grid-line-2mu"/>
<line x1="34.5" y1="0" x2="34.5" y2="36" class="grid-line"/>
<line x1="35" y1="0" x2="35" y2="36" class="grid-line"/>
<line x1="35.5" y1="0" x2="35.5" y2="36" class="grid-line"/>
<line x1="36" y1="0" x2="36" y2="36" class="grid-line-6mu"/>
<line x1="0" y1="0" x2="36" y2="0" class="grid-line-6mu"/>
<line x1="0" y1="0.5" x2="36" y2="0.5" class="grid-line"/>
<line x1="0" y1="1" x2="36" y2="1" class="grid-line"/>
<line x1="0" y1="1.5" x2="36" y2="1.5" class="grid-line"/>
<line x1="0" y1="2" x2="36" y2="2" class="grid-line-2mu"/>
<line x1="0" y1="2.5" x2="36" y2="2.5" class="grid-line"/>
<line x1="0" y1="3" x2="36" y2="3" class="grid-line"/>
<line x1="0" y1="3.5" x2="36" y2="3.5" class="grid-line"/>
<line x1="0" y1="4" x2="36" y2="4" class="grid-line-2mu"/>
<line x1="0" y1="4.5" x2="36" y2="4.5" class="grid-line"/>
<line x1="0" y1="5" x2="36" y2="5" class="grid-line"/>
<line x1="0" y1="5.5" x2="36" y2="5.5" class="grid-line"/>
<line x1="0" y1="6" x2="36" y2="6" class="grid-line-6mu"/>
<line x1="0" y1="6.5" x2="36" y2="6.5" class="grid-line"/>
<line x1="0" y1="7" x2="36" y2="7" class="grid-line"/>
<line x1="0" y1="7.5" x2="36" y2="7.5" class="grid-line"/>
<line x1="0" y1="8" x2="36" y2="8" class="grid-line-2mu"/>
<line x1="0" y1="8.5" x2="36" y2="8.5" class="grid-line"/>
<line x1="0" y1="9" x2="36" y2="9" class="grid-line"/>
<line x1="0" y1="9.5" x2="36" y2="9.5" class="grid-line"/>
<line x1="0" y1="10" x2="36" y2="10" class="grid-line-2mu"/>
<line x1="0" y1="10.5" x2="36" y2="10.5" class="grid-line"/>
<line x1="0" y1="11" x2="36" y2="11" class="grid-line"/>
<line x1="0" y1="11.5" x2="36" y2="11.5" class="grid-line"/>
<line x1="0" y1="12" x2="36" y2="12" class="grid-line-6mu"/>
<line x1="0" y1="12.5" x2="36" y2="12.5" class="grid-line"/>
<line x1="0" y1="13" x2="36" y2="13" class="grid-line"/>
<line x1="0" y1="13.5" x2="36" y2="13.5" class="grid-line"/>
<line x1="0" y1="14" x2="36" y2="14" class="grid-line-2mu"/>
<line x1="0" y1="14.5" x2="36" y2="14.5" class="grid-line"/>
<line x1="0" y1="15" x2="36" y2="15" class="grid-line"/>
<line x1="0" y1="15.5" x2="36" y2="15.5" class="grid-line"/>
<line x1="0" y1="16" x2="36" y2="16" class="grid-line-2mu"/>
<line x1="0" y1="16.5" x2="36" y2="16.5" class="grid-line"/>
<line x1="0" y1="17" x2="36" y2="17" class="grid-line"/>
<line x1="0" y1="17.5" x2="36" y2="17.5" class="grid-line"/>
<line x1="0" y1="18" x2="36" y2="18" class="grid-line-6mu"/>
<line x1="0" y1="18.5" x2="36" y2="18.5" class="grid-line"/>
<line x1="0" y1="19" x2="36" y2="19" class="grid-line"/>
<line x1="0" y1="19.5" x2="36" y2="19.5" class="grid-line"/>
<line x1="0" y1="20" x2="36" y2="20" class="grid-line-2mu"/>
<line x1="0" y1="20.5" x2="36" y2="20.5" class="grid-line"/>
<line x1="0" y1="21" x2="36" y2="21" class="grid-line"/>
<line x1="0" y1="21.5" x2="36" y2="21.5" class="grid-line"/>
<line x1="0" y1="22" x2="36" y2="22" class="grid-line-2mu"/>
<line x1="0" y1="22.5" x2="36" y2="22.5" class="grid-line"/>
<line x1="0" y1="23" x2="36" y2="23" class="grid-line"/>
<line x1="0" y1="23.5" x2="36" y2="23.5" class="grid-line"/>
<line x1="0" y1="24" x2="36" y2="24" class="grid-line-6mu"/>
<line x1="0" y1="24.5" x2="36" y2="24.5" class="grid-line"/>
<line x1="0" y1="25" x2="36" y2="25" class="grid-line"/>
<line x1="0" y1="25.5" x2="36" y2="25.5" class="grid-line"/>
<line x1="0" y1="26" x2="36" y2="26" class="grid-line-2mu"/>
<line x1="0" y1="26.5" x2="36" y2="26.5" class="grid-line"/>
<line x1="0" y1="27" x2="36" y2="27" class="grid-line"/>
<line x1="0" y1="27.5" x2="36" y2="27.5" class="grid-line"/>
<line x1="0" y1="28" x2="36" y2="28" class="grid-line-2mu"/>
<line x1="0" y1="28.5" x2="36" y2="28.5" class="grid-line"/>
<line x1="0" y1="29" x2="36" y2="29" class="grid-line"/>
<line x1="0" y1="29.5" x2="36" y2="29.5" class="grid-line"/>
<line x1="0" y1="30" x2="36" y2="30" class="grid-line-6mu"/>
<line x1="0" y1="30.5" x2="36" y2="30.5" class="grid-line"/>
<line x1="0" y1="31" x2="36" y2="31" class="grid-line"/>
<line x1="0" y1="31.5" x2="36" y2="31.5" class="grid-line"/>
<line x1="0" y1="32" x2="36" y2="32" class="grid-line-2mu"/>
<line x1="0" y1="32.5" x2="36" y2="32.5" class="grid-line"/>
<line x1="0" y1="33" x2="36" y2="33" class="grid-line"/>
<line x1="0" y1="33.5" x2="36" y2="33.5" class="grid-line"/>
<line x1="0" y1="34" x2="36" y2="34" class="grid-line-2mu"/>
<line x1="0" y1="34.5" x2="36" y2="34.5" class="grid-line"/>
<line x1="0" y1="35" x2="36" y2="35" class="grid-line"/>
<line x1="0" y1="35.5" x2="36" y2="35.5" class="grid-line"/>
<line x1="0" y1="36" x2="36" y2="36" class="grid-line-6mu"/>
</g>
<g id="layer-delaunay" class="layer ">
<line x1="19.035417991715587" y1="18.560625224774885" x2="20.390494596554888" y2="19.707563515535934" class="delaunay-line"/>
<line x1="20.390494596554888" y1="19.707563515535934" x2="21.017665376160807" y2="13.740432143326293" class="delaunay-line"/>
<line x1="21.017665376160807" y1="13.740432143326293" x2="19.035417991715587" y2="18.560625224774885" class="delaunay-line"/>
<line x1="20.390494596554888" y1="19.707563515535934" x2="24.978840444857347" y2="14.482998471515746" class="delaunay-line"/>
<line x1="24.978840444857347" y1="14.482998471515746" x2="21.017665376160807" y2="13.740432143326293" class="delaunay-line"/>
<line x1="21.017665376160807" y1="13.740432143326293" x2="20.390494596554888" y2="19.707563515535934" class="delaunay-line"/>
<line x1="20.390494596554888" y1="19.707563515535934" x2="24.381457136845793" y2="21.284568223212165" class="delaunay-line"/>
<line x1="24.381457136845793" y1="21.284568223212165" x2="24.978840444857347" y2="14.482998471515746" class="delaunay-line"/>
<line x1="24.978840444857347" y1="14.482998471515746" x2="20.390494596554888" y2="19.707563515535934" class="delaunay-line"/>
<line x1="24.978840444857347" y1="14.482998471515746" x2="19.615464687876454" y2="11.348640812907432" class="delaunay-line"/>
<line x1="19.615464687876454" y1="11.348640812907432" x2="21.017665376160807" y2="13.740432143326293" class="delaunay-line"/>
<line x1="21.017665376160807" y1="13.740432143326293" x2="24.978840444857347" y2="14.482998471515746" class="delaunay-line"/>
<line x1="21.017665376160807" y1="13.740432143326293" x2="19.615464687876454" y2="11.348640812907432" class="delaunay-line"/>
<line x1="19.615464687876454" y1="11.348640812907432" x2="19.035417991715587" y2="18.560625224774885" class="delaunay-line"/>
<line x1="19.035417991715587" y1="18.560625224774885" x2="21.017665376160807" y2="13.740432143326293" class="delaunay-line"/>
<line x1="19.615464687876454" y1="11.348640812907432" x2="12.88979252763416" y2="11.842959280479173" class="delaunay-line"/>
<line x1="12.88979252763416" y1="11.842959280479173" x2="19.035417991715587" y2="18.560625224774885" class="delaunay-line"/>
<line x1="19.035417991715587" y1="18.560625224774885" x2="19.615464687876454" y2="11.348640812907432" class="delaunay-line"/>
<line x1="32.14862640996429" y1="11.693432903980725" x2="27.233714144230333" y2="8.251974285874446" class="delaunay-line"/>
<line x1="27.233714144230333" y1="8.251974285874446" x2="24.978840444857347" y2="14.482998471515746" class="delaunay-line"/>
<line x1="24.978840444857347" y1="14.482998471515746" x2="32.14862640996429" y2="11.693432903980725" class="delaunay-line"/>
<line x1="24.978840444857347" y1="14.482998471515746" x2="27.233714144230333" y2="8.251974285874446" class="delaunay-line"/>
<line x1="27.233714144230333" y1="8.251974285874446" x2="19.615464687876454" y2="11.348640812907432" class="delaunay-line"/>
<line x1="19.615464687876454" y1="11.348640812907432" x2="24.978840444857347" y2="14.482998471515746" class="delaunay-line"/>
<line x1="19.615464687876454" y1="11.348640812907432" x2="18.5536760470827" y2="4.848645627366436" class="delaunay-line"/>
<line x1="18.5536760470827" y1="4.848645627366436" x2="12.88979252763416" y2="11.842959280479173" class="delaunay-line"/>
<line x1="12.88979252763416" y1="11.842959280479173" x2="19.615464687876454" y2="11.348640812907432" class="delaunay-line"/>
<line x1="12.066968317846346" y1="12.799675973917415" x2="11.439797538240427" y2="18.766807346127056" class="delaunay-line"/>
<line x1="11.439797538240427" y1="18.766807346127056" x2="19.035417991715587" y2="18.560625224774885" class="delaunay-line"/>
<line x1="19.035417991715587" y1="18.560625224774885" x2="12.066968317846346" y2="12.799675973917415" class="delaunay-line"/>
<line x1="19.035417991715587" y1="18.560625224774885" x2="14.949503494059666" y2="26.579683942470194" class="delaunay-line"/>
<line x1="14.949503494059666" y1="26.579683942470194" x2="20.390494596554888" y2="19.707563515535934" class="delaunay-line"/>
<line x1="20.390494596554888" y1="19.707563515535934" x2="19.035417991715587" y2="18.560625224774885" class="delaunay-line"/>
<line x1="20.390494596554888" y1="19.707563515535934" x2="20.295542639189872" y2="29.303626940907474" class="delaunay-line"/>
<line x1="20.295542639189872" y1="29.303626940907474" x2="24.381457136845793" y2="21.284568223212165" class="delaunay-line"/>
<line x1="24.381457136845793" y1="21.284568223212165" x2="20.390494596554888" y2="19.707563515535934" class="delaunay-line"/>
<line x1="12.88979252763416" y1="11.842959280479173" x2="12.066968317846346" y2="12.799675973917415" class="delaunay-line"/>
<line x1="12.066968317846346" y1="12.799675973917415" x2="19.035417991715587" y2="18.560625224774885" class="delaunay-line"/>
<line x1="19.035417991715587" y1="18.560625224774885" x2="12.88979252763416" y2="11.842959280479173" class="delaunay-line"/>
<line x1="24.381457136845793" y1="21.284568223212165" x2="32.14862640996429" y2="11.693432903980725" class="delaunay-line"/>
<line x1="32.14862640996429" y1="11.693432903980725" x2="24.978840444857347" y2="14.482998471515746" class="delaunay-line"/>
<line x1="24.978840444857347" y1="14.482998471515746" x2="24.381457136845793" y2="21.284568223212165" class="delaunay-line"/>
<line x1="12.066968317846346" y1="12.799675973917415" x2="9.929119664370644" y2="15.707786010820776" class="delaunay-line"/>
<line x1="9.929119664370644" y1="15.707786010820776" x2="11.439797538240427" y2="18.766807346127056" class="delaunay-line"/>
<line x1="11.439797538240427" y1="18.766807346127056" x2="12.066968317846346" y2="12.799675973917415" class="delaunay-line"/>
<line x1="13.901674872151911" y1="30.587514150138958" x2="14.949503494059666" y2="26.579683942470194" class="delaunay-line"/>
<line x1="14.949503494059666" y1="26.579683942470194" x2="11.949494379261168" y2="32.357547801559676" class="delaunay-line"/>
<line x1="11.949494379261168" y1="32.357547801559676" x2="13.901674872151911" y2="30.587514150138958" class="delaunay-line"/>
<line x1="11.439797538240427" y1="18.766807346127056" x2="14.949503494059666" y2="26.579683942470194" class="delaunay-line"/>
<line x1="14.949503494059666" y1="26.579683942470194" x2="19.035417991715587" y2="18.560625224774885" class="delaunay-line"/>
<line x1="19.035417991715587" y1="18.560625224774885" x2="11.439797538240427" y2="18.766807346127056" class="delaunay-line"/>
<line x1="27.233714144230333" y1="8.251974285874446" x2="18.5536760470827" y2="4.848645627366436" class="delaunay-line"/>
<line x1="18.5536760470827" y1="4.848645627366436" x2="19.615464687876454" y2="11.348640812907432" class="delaunay-line"/>
<line x1="19.615464687876454" y1="11.348640812907432" x2="27.233714144230333" y2="8.251974285874446" class="delaunay-line"/>
<line x1="12.88979252763416" y1="11.842959280479173" x2="8.226916758892337" y2="8.067036934180148" class="delaunay-line"/>
<line x1="8.226916758892337" y1="8.067036934180148" x2="12.066968317846346" y2="12.799675973917415" class="delaunay-line"/>
<line x1="12.066968317846346" y1="12.799675973917415" x2="12.88979252763416" y2="11.842959280479173" class="delaunay-line"/>
<line x1="14.949503494059666" y1="26.579683942470194" x2="20.295542639189872" y2="29.303626940907474" class="delaunay-line"/>
<line x1="20.295542639189872" y1="29.303626940907474" x2="20.390494596554888" y2="19.707563515535934" class="delaunay-line"/>
<line x1="20.390494596554888" y1="19.707563515535934" x2="14.949503494059666" y2="26.579683942470194" class="delaunay-line"/>
<line x1="24.381457136845793" y1="21.284568223212165" x2="36.96239486191223" y2="15.11102994643107" class="delaunay-line"/>
<line x1="36.96239486191223" y1="15.11102994643107" x2="32.14862640996429" y2="11.693432903980725" class="delaunay-line"/>
<line x1="32.14862640996429" y1="11.693432903980725" x2="24.381457136845793" y2="21.284568223212165" class="delaunay-line"/>
<line x1="14.949503494059666" y1="26.579683942470194" x2="16.677558900901495" y2="28.663578949605725" class="delaunay-line"/>
<line x1="16.677558900901495" y1="28.663578949605725" x2="20.295542639189872" y2="29.303626940907474" class="delaunay-line"/>
<line x1="20.295542639189872" y1="29.303626940907474" x2="14.949503494059666" y2="26.579683942470194" class="delaunay-line"/>
<line x1="20.295542639189872" y1="29.303626940907474" x2="24.19380110121319" y2="29.462441492834355" class="delaunay-line"/>
<line x1="24.19380110121319" y1="29.462441492834355" x2="24.381457136845793" y2="21.284568223212165" class="delaunay-line"/>
<line x1="24.381457136845793" y1="21.284568223212165" x2="20.295542639189872" y2="29.303626940907474" class="delaunay-line"/>
<line x1="36.17735551826807" y1="30.09047296774968" x2="36.96239486191223" y2="15.11102994643107" class="delaunay-line"/>
<line x1="36.96239486191223" y1="15.11102994643107" x2="24.381457136845793" y2="21.284568223212165" class="delaunay-line"/>
<line x1="24.381457136845793" y1="21.284568223212165" x2="36.17735551826807" y2="30.09047296774968" class="delaunay-line"/>
<line x1="16.677558900901495" y1="28.663578949605725" x2="13.901674872151911" y2="30.587514150138958" class="delaunay-line"/>
<line x1="13.901674872151911" y1="30.587514150138958" x2="20.295542639189872" y2="29.303626940907474" class="delaunay-line"/>
<line x1="20.295542639189872" y1="29.303626940907474" x2="16.677558900901495" y2="28.663578949605725" class="delaunay-line"/>
<line x1="20.295542639189872" y1="29.303626940907474" x2="22.218512178832427" y2="35.75567573206622" class="delaunay-line"/>
<line x1="22.218512178832427" y1="35.75567573206622" x2="24.19380110121319" y2="29.462441492834355" class="delaunay-line"/>
<line x1="24.19380110121319" y1="29.462441492834355" x2="20.295542639189872" y2="29.303626940907474" class="delaunay-line"/>
<line x1="14.949503494059666" y1="26.579683942470194" x2="13.901674872151911" y2="30.587514150138958" class="delaunay-line"/>
<line x1="13.901674872151911" y1="30.587514150138958" x2="16.677558900901495" y2="28.663578949605725" class="delaunay-line"/>
<line x1="16.677558900901495" y1="28.663578949605725" x2="14.949503494059666" y2="26.579683942470194" class="delaunay-line"/>
<line x1="11.949494379261168" y1="32.357547801559676" x2="14.949503494059666" y2="26.579683942470194" class="delaunay-line"/>
<line x1="14.949503494059666" y1="26.579683942470194" x2="1.1809534298055162" y2="22.638725186640887" class="delaunay-line"/>
<line x1="1.1809534298055162" y1="22.638725186640887" x2="11.949494379261168" y2="32.357547801559676" class="delaunay-line"/>
<line x1="12.066968317846346" y1="12.799675973917415" x2="8.226916758892337" y2="8.067036934180148" class="delaunay-line"/>
<line x1="8.226916758892337" y1="8.067036934180148" x2="9.929119664370644" y2="15.707786010820776" class="delaunay-line"/>
<line x1="9.929119664370644" y1="15.707786010820776" x2="12.066968317846346" y2="12.799675973917415" class="delaunay-line"/>
<line x1="8.05791444701081" y1="6.904457604216525" x2="8.226916758892337" y2="8.067036934180148" class="delaunay-line"/>
<line x1="8.226916758892337" y1="8.067036934180148" x2="10.422931370448717" y2="3.635189496668961" class="delaunay-line"/>
<line x1="10.422931370448717" y1="3.635189496668961" x2="8.05791444701081" y2="6.904457604216525" class="delaunay-line"/>
<line x1="10.422931370448717" y1="3.635189496668961" x2="8.226916758892337" y2="8.067036934180148" class="delaunay-line"/>
<line x1="8.226916758892337" y1="8.067036934180148" x2="12.88979252763416" y2="11.842959280479173" class="delaunay-line"/>
<line x1="12.88979252763416" y1="11.842959280479173" x2="10.422931370448717" y2="3.635189496668961" class="delaunay-line"/>
<line x1="18.5536760470827" y1="4.848645627366436" x2="10.422931370448717" y2="3.635189496668961" class="delaunay-line"/>
<line x1="10.422931370448717" y1="3.635189496668961" x2="12.88979252763416" y2="11.842959280479173" class="delaunay-line"/>
<line x1="12.88979252763416" y1="11.842959280479173" x2="18.5536760470827" y2="4.848645627366436" class="delaunay-line"/>
<line x1="20.064745515746807" y1="-7.855477150115711" x2="13.890800278340876" y2="1.072723281067411" class="delaunay-line"/>
<line x1="13.890800278340876" y1="1.072723281067411" x2="18.5536760470827" y2="4.848645627366436" class="delaunay-line"/>
<line x1="18.5536760470827" y1="4.848645627366436" x2="20.064745515746807" y2="-7.855477150115711" class="delaunay-line"/>
<line x1="18.5536760470827" y1="4.848645627366436" x2="13.890800278340876" y2="1.072723281067411" class="delaunay-line"/>
<line x1="13.890800278340876" y1="1.072723281067411" x2="10.422931370448717" y2="3.635189496668961" class="delaunay-line"/>
<line x1="10.422931370448717" y1="3.635189496668961" x2="18.5536760470827" y2="4.848645627366436" class="delaunay-line"/>
<line x1="2.1890288426079763" y1="8.151927749123082" x2="4.06023405996781" y2="16.955256155727334" class="delaunay-line"/>
<line x1="4.06023405996781" y1="16.955256155727334" x2="8.226916758892337" y2="8.067036934180148" class="delaunay-line"/>
<line x1="8.226916758892337" y1="8.067036934180148" x2="2.1890288426079763" y2="8.151927749123082" class="delaunay-line"/>
<line x1="8.226916758892337" y1="8.067036934180148" x2="4.06023405996781" y2="16.955256155727334" class="delaunay-line"/>
<line x1="4.06023405996781" y1="16.955256155727334" x2="9.929119664370644" y2="15.707786010820776" class="delaunay-line"/>
<line x1="9.929119664370644" y1="15.707786010820776" x2="8.226916758892337" y2="8.067036934180148" class="delaunay-line"/>
<line x1="9.929119664370644" y1="15.707786010820776" x2="4.06023405996781" y2="16.955256155727334" class="delaunay-line"/>
<line x1="4.06023405996781" y1="16.955256155727334" x2="11.439797538240427" y2="18.766807346127056" class="delaunay-line"/>
<line x1="11.439797538240427" y1="18.766807346127056" x2="9.929119664370644" y2="15.707786010820776" class="delaunay-line"/>
<line x1="1.1809534298055162" y1="22.638725186640887" x2="14.949503494059666" y2="26.579683942470194" class="delaunay-line"/>
<line x1="14.949503494059666" y1="26.579683942470194" x2="11.439797538240427" y2="18.766807346127056" class="delaunay-line"/>
<line x1="11.439797538240427" y1="18.766807346127056" x2="1.1809534298055162" y2="22.638725186640887" class="delaunay-line"/>
<line x1="13.901674872151911" y1="30.587514150138958" x2="22.218512178832427" y2="35.75567573206622" class="delaunay-line"/>
<line x1="22.218512178832427" y1="35.75567573206622" x2="20.295542639189872" y2="29.303626940907474" class="delaunay-line"/>
<line x1="20.295542639189872" y1="29.303626940907474" x2="13.901674872151911" y2="30.587514150138958" class="delaunay-line"/>
<line x1="32.39590207138975" y1="0.8796058872735211" x2="29.257278833174546" y2="-0.14202583387723955" class="delaunay-line"/>
<line x1="29.257278833174546" y1="-0.14202583387723955" x2="27.233714144230333" y2="8.251974285874446" class="delaunay-line"/>
<line x1="27.233714144230333" y1="8.251974285874446" x2="32.39590207138975" y2="0.8796058872735211" class="delaunay-line"/>
<line x1="27.233714144230333" y1="8.251974285874446" x2="29.257278833174546" y2="-0.14202583387723955" class="delaunay-line"/>
<line x1="29.257278833174546" y1="-0.14202583387723955" x2="18.5536760470827" y2="4.848645627366436" class="delaunay-line"/>
<line x1="18.5536760470827" y1="4.848645627366436" x2="27.233714144230333" y2="8.251974285874446" class="delaunay-line"/>
<line x1="32.39590207138975" y1="0.8796058872735211" x2="27.233714144230333" y2="8.251974285874446" class="delaunay-line"/>
<line x1="27.233714144230333" y1="8.251974285874446" x2="37.310814337123695" y2="4.321064505379798" class="delaunay-line"/>
<line x1="37.310814337123695" y1="4.321064505379798" x2="32.39590207138975" y2="0.8796058872735211" class="delaunay-line"/>
<line x1="17.4904476571921" y1="39.44964458402018" x2="22.218512178832427" y2="35.75567573206622" class="delaunay-line"/>
<line x1="22.218512178832427" y1="35.75567573206622" x2="13.901674872151911" y2="30.587514150138958" class="delaunay-line"/>
<line x1="13.901674872151911" y1="30.587514150138958" x2="17.4904476571921" y2="39.44964458402018" class="delaunay-line"/>
<line x1="24.19380110121319" y1="29.462441492834355" x2="36.17735551826807" y2="30.09047296774968" class="delaunay-line"/>
<line x1="36.17735551826807" y1="30.09047296774968" x2="24.381457136845793" y2="21.284568223212165" class="delaunay-line"/>
<line x1="24.381457136845793" y1="21.284568223212165" x2="24.19380110121319" y2="29.462441492834355" class="delaunay-line"/>
<line x1="37.310814337123695" y1="4.321064505379798" x2="27.233714144230333" y2="8.251974285874446" class="delaunay-line"/>
<line x1="27.233714144230333" y1="8.251974285874446" x2="32.14862640996429" y2="11.693432903980725" class="delaunay-line"/>
<line x1="32.14862640996429" y1="11.693432903980725" x2="37.310814337123695" y2="4.321064505379798" class="delaunay-line"/>
<line x1="36" y1="36" x2="36.17735551826807" y2="30.09047296774968" class="delaunay-line"/>
<line x1="36.17735551826807" y1="30.09047296774968" x2="24.19380110121319" y2="29.462441492834355" class="delaunay-line"/>
<line x1="24.19380110121319" y1="29.462441492834355" x2="36" y2="36" class="delaunay-line"/>
<line x1="36.96239486191223" y1="15.11102994643107" x2="37.310814337123695" y2="4.321064505379798" class="delaunay-line"/>
<line x1="37.310814337123695" y1="4.321064505379798" x2="32.14862640996429" y2="11.693432903980725" class="delaunay-line"/>
<line x1="32.14862640996429" y1="11.693432903980725" x2="36.96239486191223" y2="15.11102994643107" class="delaunay-line"/>
<line x1="2.1890288426079763" y1="8.151927749123082" x2="1.1809534298055162" y2="22.638725186640887" class="delaunay-line"/>
<line x1="1.1809534298055162" y1="22.638725186640887" x2="4.06023405996781" y2="16.955256155727334" class="delaunay-line"/>
<line x1="4.06023405996781" y1="16.955256155727334" x2="2.1890288426079763" y2="8.151927749123082" class="delaunay-line"/>
<line x1="4.06023405996781" y1="16.955256155727334" x2="1.1809534298055162" y2="22.638725186640887" class="delaunay-line"/>
<line x1="1.1809534298055162" y1="22.638725186640887" x2="11.439797538240427" y2="18.766807346127056" class="delaunay-line"/>
<line x1="11.439797538240427" y1="18.766807346127056" x2="4.06023405996781" y2="16.955256155727334" class="delaunay-line"/>
<line x1="0" y1="0" x2="2.1890288426079763" y2="8.151927749123082" class="delaunay-line"/>
<line x1="2.1890288426079763" y1="8.151927749123082" x2="8.05791444701081" y2="6.904457604216525" class="delaunay-line"/>
<line x1="8.05791444701081" y1="6.904457604216525" x2="0" y2="0" class="delaunay-line"/>
<line x1="8.05791444701081" y1="6.904457604216525" x2="2.1890288426079763" y2="8.151927749123082" class="delaunay-line"/>
<line x1="2.1890288426079763" y1="8.151927749123082" x2="8.226916758892337" y2="8.067036934180148" class="delaunay-line"/>
<line x1="8.226916758892337" y1="8.067036934180148" x2="8.05791444701081" y2="6.904457604216525" class="delaunay-line"/>
<line x1="0" y1="0" x2="8.05791444701081" y2="6.904457604216525" class="delaunay-line"/>
<line x1="8.05791444701081" y1="6.904457604216525" x2="10.422931370448717" y2="3.635189496668961" class="delaunay-line"/>
<line x1="10.422931370448717" y1="3.635189496668961" x2="0" y2="0" class="delaunay-line"/>
<line x1="37.310814337123695" y1="4.321064505379798" x2="36" y2="0" class="delaunay-line"/>
<line x1="36" y1="0" x2="32.39590207138975" y2="0.8796058872735211" class="delaunay-line"/>
<line x1="32.39590207138975" y1="0.8796058872735211" x2="37.310814337123695" y2="4.321064505379798" class="delaunay-line"/>
<line x1="32.39590207138975" y1="0.8796058872735211" x2="36" y2="0" class="delaunay-line"/>
<line x1="36" y1="0" x2="29.257278833174546" y2="-0.14202583387723955" class="delaunay-line"/>
<line x1="29.257278833174546" y1="-0.14202583387723955" x2="32.39590207138975" y2="0.8796058872735211" class="delaunay-line"/>
<line x1="11.949494379261168" y1="32.357547801559676" x2="17.4904476571921" y2="39.44964458402018" class="delaunay-line"/>
<line x1="17.4904476571921" y1="39.44964458402018" x2="13.901674872151911" y2="30.587514150138958" class="delaunay-line"/>
<line x1="13.901674872151911" y1="30.587514150138958" x2="11.949494379261168" y2="32.357547801559676" class="delaunay-line"/>
<line x1="22.218512178832427" y1="35.75567573206622" x2="36" y2="36" class="delaunay-line"/>
<line x1="36" y1="36" x2="24.19380110121319" y2="29.462441492834355" class="delaunay-line"/>
<line x1="24.19380110121319" y1="29.462441492834355" x2="22.218512178832427" y2="35.75567573206622" class="delaunay-line"/>
<line x1="7.542643701353454" y1="40.76409130401607" x2="17.4904476571921" y2="39.44964458402018" class="delaunay-line"/>
<line x1="17.4904476571921" y1="39.44964458402018" x2="11.949494379261168" y2="32.357547801559676" class="delaunay-line"/>
<line x1="11.949494379261168" y1="32.357547801559676" x2="7.542643701353454" y2="40.76409130401607" class="delaunay-line"/>
<line x1="17.4904476571921" y1="39.44964458402018" x2="36" y2="36" class="delaunay-line"/>
<line x1="36" y1="36" x2="22.218512178832427" y2="35.75567573206622" class="delaunay-line"/>
<line x1="22.218512178832427" y1="35.75567573206622" x2="17.4904476571921" y2="39.44964458402018" class="delaunay-line"/>
<line x1="36.17735551826807" y1="30.09047296774968" x2="36" y2="36" class="delaunay-line"/>
<line x1="36" y1="36" x2="36.96239486191223" y2="15.11102994643107" class="delaunay-line"/>
<line x1="36.96239486191223" y1="15.11102994643107" x2="36.17735551826807" y2="30.09047296774968" class="delaunay-line"/>
<line x1="29.257278833174546" y1="-0.14202583387723955" x2="20.064745515746807" y2="-7.855477150115711" class="delaunay-line"/>
<line x1="20.064745515746807" y1="-7.855477150115711" x2="18.5536760470827" y2="4.848645627366436" class="delaunay-line"/>
<line x1="18.5536760470827" y1="4.848645627366436" x2="29.257278833174546" y2="-0.14202583387723955" class="delaunay-line"/>
<line x1="13.890800278340876" y1="1.072723281067411" x2="0" y2="0" class="delaunay-line"/>
<line x1="0" y1="0" x2="10.422931370448717" y2="3.635189496668961" class="delaunay-line"/>
<line x1="10.422931370448717" y1="3.635189496668961" x2="13.890800278340876" y2="1.072723281067411" class="delaunay-line"/>
<line x1="36" y1="0" x2="20.064745515746807" y2="-7.855477150115711" class="delaunay-line"/>
<line x1="20.064745515746807" y1="-7.855477150115711" x2="29.257278833174546" y2="-0.14202583387723955" class="delaunay-line"/>
<line x1="29.257278833174546" y1="-0.14202583387723955" x2="36" y2="0" class="delaunay-line"/>
<line x1="20.064745515746807" y1="-7.855477150115711" x2="0" y2="0" class="delaunay-line"/>
<line x1="0" y1="0" x2="13.890800278340876" y2="1.072723281067411" class="delaunay-line"/>
<line x1="13.890800278340876" y1="1.072723281067411" x2="20.064745515746807" y2="-7.855477150115711" class="delaunay-line"/>
<line x1="2.1890288426079763" y1="8.151927749123082" x2="-5.17807774099294" y2="32.815302340517995" class="delaunay-line"/>
<line x1="-5.17807774099294" y1="32.815302340517995" x2="1.1809534298055162" y2="22.638725186640887" class="delaunay-line"/>
<line x1="1.1809534298055162" y1="22.638725186640887" x2="2.1890288426079763" y2="8.151927749123082" class="delaunay-line"/>
<line x1="0" y1="36" x2="7.542643701353454" y2="40.76409130401607" class="delaunay-line"/>
<line x1="7.542643701353454" y1="40.76409130401607" x2="11.949494379261168" y2="32.357547801559676" class="delaunay-line"/>
<line x1="11.949494379261168" y1="32.357547801559676" x2="0" y2="36" class="delaunay-line"/>
<line x1="-5.17807774099294" y1="32.815302340517995" x2="0" y2="36" class="delaunay-line"/>
<line x1="0" y1="36" x2="1.1809534298055162" y2="22.638725186640887" class="delaunay-line"/>
<line x1="1.1809534298055162" y1="22.638725186640887" x2="-5.17807774099294" y2="32.815302340517995" class="delaunay-line"/>
<line x1="1.1809534298055162" y1="22.638725186640887" x2="0" y2="36" class="delaunay-line"/>
<line x1="0" y1="36" x2="11.949494379261168" y2="32.357547801559676" class="delaunay-line"/>
<line x1="11.949494379261168" y1="32.357547801559676" x2="1.1809534298055162" y2="22.638725186640887" class="delaunay-line"/>
<line x1="0" y1="0" x2="-5.17807774099294" y2="32.815302340517995" class="delaunay-line"/>
<line x1="-5.17807774099294" y1="32.815302340517995" x2="2.1890288426079763" y2="8.151927749123082" class="delaunay-line"/>
<line x1="2.1890288426079763" y1="8.151927749123082" x2="0" y2="0" class="delaunay-line"/>
<line x1="0" y1="36" x2="-5.17807774099294" y2="32.815302340517995" class="delaunay-line"/>
<line x1="-5.17807774099294" y1="32.815302340517995" x2="7.542643701353454" y2="40.76409130401607" class="delaunay-line"/>
<line x1="7.542643701353454" y1="40.76409130401607" x2="0" y2="36" class="delaunay-line"/>
</g>
<g id="layer-area" class="layer ">
<polygon points="21.017665376160807,13.740432143326293 20.390494596554888,19.707563515535934 11.439797538240427,18.766807346127056 12.066968317846346,12.799675973917415" class="terrain-area"/>
<text x="16.228731457200617" y="16.253619744726674" class="label">#C49A6C</text>
<polygon points="19.035417991715587,18.560625224774885 24.381457136845793,21.284568223212165 20.295542639189872,29.303626940907474 14.949503494059666,26.579683942470194" class="terrain-area"/>
<text x="19.66548031545273" y="23.93212608284118" class="label">#C49A6C</text>
<polygon points="32.39590207138975,0.8796058872735211 37.310814337123695,4.321064505379798 32.14862640996429,11.693432903980725 27.233714144230333,8.251974285874446" class="terrain-area"/>
<text x="32.27226424067702" y="6.286519395627122" class="label">#C49A6C</text>
<polygon points="12.88979252763416,11.842959280479173 8.226916758892337,8.067036934180148 13.890800278340876,1.072723281067411 18.5536760470827,4.848645627366436" class="terrain-area"/>
<text x="13.39029640298752" y="6.457841280773293" class="label">#C49A6C</text>
<polygon points="11.949494379261168,32.357547801559676 16.677558900901495,28.663578949605725 22.218512178832427,35.75567573206622 17.4904476571921,39.44964458402018" class="terrain-area"/>
<text x="17.084003279046797" y="34.05661176681295" class="label">#C49A6C</text>
<polygon points="9.929119664370644,15.707786010820776 4.06023405996781,16.955256155727334 2.1890288426079763,8.151927749123082 8.05791444701081,6.904457604216525" class="terrain-area"/>
<text x="6.05907425348931" y="11.92985687997193" class="label">#C49A6C</text>
<polygon points="-5.17807774099294,32.815302340517995 1.1809534298055162,22.638725186640887 13.901674872151911,30.587514150138958 7.542643701353454,40.76409130401607" class="terrain-area"/>
<text x="4.361798565579486" y="31.70140824532848" class="label">#C49A6C</text>
<polygon points="19.615464687876454,11.348640812907432 10.422931370448717,3.635189496668961 20.064745515746807,-7.855477150115711 29.257278833174546,-0.14202583387723955" class="terrain-area"/>
<text x="19.84010510181163" y="1.7465818313958605" class="label">#C49A6C</text>
<polygon points="24.978840444857347,14.482998471515746 36.96239486191223,15.11102994643107 36.17735551826807,30.09047296774968 24.19380110121319,29.462441492834355" class="terrain-area"/>
<text x="30.578097981562706" y="22.286735719632713" class="label">#C49A6C</text>
</g>
<g id="layer-building" class="layer ">
</g>
<g id="layer-wall" class="layer ">
</g>
<g id="layer-tree" class="layer ">
</g>
<g id="layer-rocks" class="layer ">
</g>
<g id="layer-shrub" class="layer ">
</g>
<g id="layer-terrain" class="layer ">
</g>
<g id="layer-clearance" class="layer hidden">
</g>
<g id="layer-models" class="layer ">
</g>
<g id="layer-paths" class="layer ">
</g>
<g id="layer-vectors" class="layer ">
</g>
<g id="layer-los" class="layer ">
</g>
<g id="layer-lof" class="layer ">
</g>

<g id="legend">
<g class="toggle" onclick="toggleLayer('deployment')"><rect x="0.4" y="0.14999999999999997" width="0.4" height="0.4" fill="#222" stroke="#222" stroke-width="0.05"/><text x="1.0" y="0.5499999999999999" class="label">Deployment Zones</text></g>
<g class="toggle" onclick="toggleLayer('grid')"><rect x="0.4" y="0.95" width="0.4" height="0.4" fill="#222" stroke="#222" stroke-width="0.05"/><text x="1.0" y="1.3499999999999999" class="label">0.5 MU Grid</text></g>
<g class="toggle" onclick="toggleLayer('delaunay')"><rect x="0.4" y="1.7500000000000002" width="0.4" height="0.4" fill="#222" stroke="#222" stroke-width="0.05"/><text x="1.0" y="2.1500000000000004" class="label">Delaunay Mesh</text></g>
<g class="toggle" onclick="toggleLayer('area')"><rect x="0.4" y="2.55" width="0.4" height="0.4" fill="#222" stroke="#222" stroke-width="0.05"/><text x="1.0" y="2.95" class="label">Area Terrain</text></g>
<g class="toggle disabled"><rect x="0.4" y="3.3499999999999996" width="0.4" height="0.4" fill="#222" stroke="#222" stroke-width="0.05"/><text x="1.0" y="3.75" class="label">Buildings</text></g>
<g class="toggle disabled"><rect x="0.4" y="4.1499999999999995" width="0.4" height="0.4" fill="#222" stroke="#222" stroke-width="0.05"/><text x="1.0" y="4.55" class="label">Walls</text></g>
<g class="toggle disabled"><rect x="0.4" y="4.949999999999999" width="0.4" height="0.4" fill="#222" stroke="#222" stroke-width="0.05"/><text x="1.0" y="5.35" class="label">Trees</text></g>
<g class="toggle disabled"><rect x="0.4" y="5.749999999999999" width="0.4" height="0.4" fill="#222" stroke="#222" stroke-width="0.05"/><text x="1.0" y="6.1499999999999995" class="label">Rocks</text></g>
<g class="toggle disabled"><rect x="0.4" y="6.549999999999999" width="0.4" height="0.4" fill="#222" stroke="#222" stroke-width="0.05"/><text x="1.0" y="6.949999999999999" class="label">Shrubs</text></g>
<g class="toggle" onclick="toggleLayer('terrain')"><rect x="0.4" y="7.349999999999999" width="0.4" height="0.4" fill="#222" stroke="#222" stroke-width="0.05"/><text x="1.0" y="7.749999999999999" class="label">Other Terrain</text></g>
<g class="toggle" onclick="toggleLayer('clearance')"><rect x="0.4" y="8.15" width="0.4" height="0.4" fill="#fff" stroke="#222" stroke-width="0.05"/><text x="1.0" y="8.549999999999999" class="label">Clearance Zones</text></g>
<g class="toggle" onclick="toggleLayer('models')"><rect x="0.4" y="8.950000000000001" width="0.4" height="0.4" fill="#222" stroke="#222" stroke-width="0.05"/><text x="1.0" y="9.35" class="label">Models</text></g>
<g class="toggle" onclick="toggleLayer('paths')"><rect x="0.4" y="9.750000000000002" width="0.4" height="0.4" fill="#222" stroke="#222" stroke-width="0.05"/><text x="1.0" y="10.15" class="label">Paths</text></g>
<g class="toggle" onclick="toggleLayer('vectors')"><rect x="0.4" y="10.550000000000002" width="0.4" height="0.4" fill="#222" stroke="#222" stroke-width="0.05"/><text x="1.0" y="10.950000000000001" class="label">Vectors</text></g>
<g class="toggle" onclick="toggleLayer('los')"><rect x="0.4" y="11.350000000000003" width="0.4" height="0.4" fill="#222" stroke="#222" stroke-width="0.05"/><text x="1.0" y="11.750000000000002" class="label">LOS</text></g>
<g class="toggle" onclick="toggleLayer('lof')"><rect x="0.4" y="12.150000000000004" width="0.4" height="0.4" fill="#222" stroke="#222" stroke-width="0.05"/><text x="1.0" y="12.550000000000002" class="label">LOF</text></g>
</g>
</svg>