<svg xmlns="http://www.w3.org/2000/svg" viewBox="0 0 36 36" width="1440" height="1440" font-family="Arial" font-size="0.6">
<defs>
  <style><![CDATA[
    .layer { display: inline; }
    .layer.hidden { display: none; }
    .grid-line { stroke: #999; stroke-width: 0.02; opacity: 0.2; }
    .grid-line-2mu { stroke: #666; stroke-width: 0.04; opacity: 0.4; }
    .grid-line-6mu { stroke: #333; stroke-width: 0.08; opacity: 0.6; }
    .delaunay-line { stroke: #4a6fa5; stroke-width: 0.03; opacity: 0.3; }
    #layer-area { opacity: 0.8; }
    #layer-building, #layer-wall, #layer-tree, #layer-rocks, #layer-shrub, #layer-terrain { opacity: 0.8; }
    .terrain-area { stroke: none; }
    .terrain-solid { stroke: #000; stroke-width: 0.05; }
    .model { stroke: #ff0000; stroke-width: 2; vector-effect: non-scaling-stroke; }
    .path { fill: none; stroke-width: 0.12; }
    .vector { stroke-width: 0.1; }
    .los-ray { stroke-width: 0.08; stroke-dasharray: 0.2 0.2; }
    .lof-ray { stroke-width: 0.08; stroke-dasharray: 0.3 0.15; }
    .label { fill: #111 !important; font-size: 0.6px; }
    .toggle { cursor: pointer; }
    .toggle.disabled { cursor: default; }
    .toggle.disabled rect { stroke: #ccc; fill: #fff; }
    .toggle.disabled text { fill: #ccc; }
#layer-area { fill: #C49A6C; }
  ]]></style>
</defs>
<rect x="0" y="0" width="36" height="36" fill="#ffffff" stroke="#111" stroke-width="0.05"/>
<script><![CDATA[
      function toggleLayer(id) {
        var layer = document.getElementById('layer-' + id);
        if (!layer) return;
        if (layer.classList.contains('hidden')) {
          layer.classList.remove('hidden');
        } else {
          layer.classList.add('hidden');
        }
      }
    ]]></script>
<text x="0.4" y="35.6" class="label">MEDIUM battlefield_A40-B0-W0-R0-S0-T0</text>
<g id="layer-deployment" class="layer ">
</g>
<g id="layer-grid" class="layer ">
<line x1="0" y1="0" x2="0" y2="36" class="grid-line-6mu"/>
<line x1="0.5" y1="0" x2="0.5" y2="36" class="grid-line"/>
<line x1="1" y1="0" x2="1" y2="36" class="grid-line"/>
<line x1="1.5" y1="0" x2="1.5" y2="36" class="grid-line"/>
<line x1="2" y1="0" x2="2" y2="36" class="grid-line-2mu"/>
<line x1="2.5" y1="0" x2="2.5" y2="36" class="grid-line"/>
<line x1="3" y1="0" x2="3" y2="36" class="grid-line"/>
<line x1="3.5" y1="0" x2="3.5" y2="36" class="grid-line"/>
<line x1="4" y1="0" x2="4" y2="36" class="grid-line-2mu"/>
<line x1="4.5" y1="0" x2="4.5" y2="36" class="grid-line"/>
<line x1="5" y1="0" x2="5" y2="36" class="grid-line"/>
<line x1="5.5" y1="0" x2="5.5" y2="36" class="grid-line"/>
<line x1="6" y1="0" x2="6" y2="36" class="grid-line-6mu"/>
<line x1="6.5" y1="0" x2="6.5" y2="36" class="grid-line"/>
<line x1="7" y1="0" x2="7" y2="36" class="grid-line"/>
<line x1="7.5" y1="0" x2="7.5" y2="36" class="grid-line"/>
<line x1="8" y1="0" x2="8" y2="36" class="grid-line-2mu"/>
<line x1="8.5" y1="0" x2="8.5" y2="36" class="grid-line"/>
<line x1="9" y1="0" x2="9" y2="36" class="grid-line"/>
<line x1="9.5" y1="0" x2="9.5" y2="36" class="grid-line"/>
<line x1="10" y1="0" x2="10" y2="36" class="grid-line-2mu"/>
<line x1="10.5" y1="0" x2="10.5" y2="36" class="grid-line"/>
<line x1="11" y1="0" x2="11" y2="36" class="grid-line"/>
<line x1="11.5" y1="0" x2="11.5" y2="36" class="grid-line"/>
<line x1="12" y1="0" x2="12" y2="36" class="grid-line-6mu"/>
<line x1="12.5" y1="0" x2="12.5" y2="36" class="grid-line"/>
<line x1="13" y1="0" x2="13" y2="36" class="grid-line"/>
<line x1="13.5" y1="0" x2="13.5" y2="36" class="grid-line"/>
<line x1="14" y1="0" x2="14" y2="36" class="grid-line-2mu"/>
<line x1="14.5" y1="0" x2="14.5" y2="36" class="grid-line"/>
<line x1="15" y1="0" x2="15" y2="36" class="grid-line"/>
<line x1="15.5" y1="0" x2="15.5" y2="36" class="grid-line"/>
<line x1="16" y1="0" x2="16" y2="36" class="grid-line-2mu"/>
<line x1="16.5" y1="0" x2="16.5" y2="36" class="grid-line"/>
<line x1="17" y1="0" x2="17" y2="36" class="grid-line"/>
<line x1="17.5" y1="0" x2="17.5" y2="36" class="grid-line"/>
<line x1="18" y1="0" x2="18" y2="36" class="grid-line-6mu"/>
<line x1="18.5" y1="0" x2="18.5" y2="36" class="grid-line"/>
<line x1="19" y1="0" x2="19" y2="36" class="grid-line"/>
<line x1="19.5" y1="0" x2="19.5" y2="36" class="grid-line"/>
<line x1="20" y1="0" x2="20" y2="36" class="grid-line-2mu"/>
<line x1="20.5" y1="0" x2="20.5" y2="36" class="grid-line"/>
<line x1="21" y1="0" x2="21" y2="36" class="grid-line"/>
<line x1="21.5" y1="0" x2="21.5" y2="36" class="grid-line"/>
<line x1="22" y1="0" x2="22" y2="36" class="grid-line-2mu"/>
<line x1="22.5" y1="0" x2="22.5" y2="36" class="grid-line"/>
<line x1="23" y1="0" x2="23" y2="36" class="grid-line"/>
<line x1="23.5" y1="0" x2="23.5" y2="36" class="grid-line"/>
<line x1="24" y1="0" x2="24" y2="36" class="grid-line-6mu"/>
<line x1="24.5" y1="0" x2="24.5" y2="36" class="grid-line"/>
<line x1="25" y1="0" x2="25" y2="36" class="grid-line"/>
<line x1="25.5" y1="0" x2="25.5" y2="36" class="grid-line"/>
<line x1="26" y1="0" x2="26" y2="36" class="grid-line-2mu"/>
<line x1="26.5" y1="0" x2="26.5" y2="36" class="grid-line"/>
<line x1="27" y1="0" x2="27" y2="36" class="grid-line"/>
<line x1="27.5" y1="0" x2="27.5" y2="36" class="grid-line"/>
<line x1="28" y1="0" x2="28" y2="36" class="grid-line-2mu"/>
<line x1="28.5" y1="0" x2="28.5" y2="36" class="grid-line"/>
<line x1="29" y1="0" x2="29" y2="36" class="grid-line"/>
<line x1="29.5" y1="0" x2="29.5" y2="36" class="grid-line"/>
<line x1="30" y1="0" x2="30" y2="36" class="grid-line-6mu"/>
<line x1="30.5" y1="0" x2="30.5" y2="36" class="grid-line"/>
<line x1="31" y1="0" x2="31" y2="36" class="grid-line"/>
<line x1="31.5" y1="0" x2="31.5" y2="36" class="grid-line"/>
<line x1="32" y1="0" x2="32" y2="36" class="grid-line-2mu"/>
<line x1="32.5" y1="0" x2="32.5" y2="36" class="grid-line"/>
<line x1="33" y1="0" x2="33" y2="36" class="grid-line"/>
<line x1="33.5" y1="0" x2="33.5" y2="36" class="grid-line"/>
<line x1="34" y1="0" x2="34" y2="36" class="grid-line-2mu"/>
<line x1="34.5" y1="0" x2="34.5" y2="36" class="grid-line"/>
<line x1="35" y1="0" x2="35" y2="36" class="grid-line"/>
<line x1="35.5" y1="0" x2="35.5" y2="36" class="grid-line"/>
<line x1="36" y1="0" x2="36" y2="36" class="grid-line-6mu"/>
<line x1="0" y1="0" x2="36" y2="0" class="grid-line-6mu"/>
<line x1="0" y1="0.5" x2="36" y2="0.5" class="grid-line"/>
<line x1="0" y1="1" x2="36" y2="1" class="grid-line"/>
<line x1="0" y1="1.5" x2="36" y2="1.5" class="grid-line"/>
<line x1="0" y1="2" x2="36" y2="2" class="grid-line-2mu"/>
<line x1="0" y1="2.5" x2="36" y2="2.5" class="grid-line"/>
<line x1="0" y1="3" x2="36" y2="3" class="grid-line"/>
<line x1="0" y1="3.5" x2="36" y2="3.5" class="grid-line"/>
<line x1="0" y1="4" x2="36" y2="4" class="grid-line-2mu"/>
<line x1="0" y1="4.5" x2="36" y2="4.5" class="grid-line"/>
<line x1="0" y1="5" x2="36" y2="5" class="grid-line"/>
<line x1="0" y1="5.5" x2="36" y2="5.5" class="grid-line"/>
<line x1="0" y1="6" x2="36" y2="6" class="grid-line-6mu"/>
<line x1="0" y1="6.5" x2="36" y2="6.5" class="grid-line"/>
<line x1="0" y1="7" x2="36" y2="7" class="grid-line"/>
<line x1="0" y1="7.5" x2="36" y2="7.5" class="grid-line"/>
<line x1="0" y1="8" x2="36" y2="8" class="grid-line-2mu"/>
<line x1="0" y1="8.5" x2="36" y2="8.5" class="grid-line"/>
<line x1="0" y1="9" x2="36" y2="9" class="grid-line"/>
<line x1="0" y1="9.5" x2="36" y2="9.5" class="grid-line"/>
<line x1="0" y1="10" x2="36" y2="10" class="grid-line-2mu"/>
<line x1="0" y1="10.5" x2="36" y2="10.5" class="grid-line"/>
<line x1="0" y1="11" x2="36" y2="11" class="grid-line"/>
<line x1="0" y1="11.5" x2="36" y2="11.5" class="grid-line"/>
<line x1="0" y1="12" x2="36" y2="12" class="grid-line-6mu"/>
<line x1="0" y1="12.5" x2="36" y2="12.5" class="grid-line"/>
<line x1="0" y1="13" x2="36" y2="13" class="grid-line"/>
<line x1="0" y1="13.5" x2="36" y2="13.5" class="grid-line"/>
<line x1="0" y1="14" x2="36" y2="14" class="grid-line-2mu"/>
<line x1="0" y1="14.5" x2="36" y2="14.5" class="grid-line"/>
<line x1="0" y1="15" x2="36" y2="15" class="grid-line"/>
<line x1="0" y1="15.5" x2="36" y2="15.5" class="grid-line"/>
<line x1="0" y1="16" x2="36" y2="16" class="grid-line-2mu"/>
<line x1="0" y1="16.5" x2="36" y2="16.5" class="grid-line"/>
<line x1="0" y1="17" x2="36" y2="17" class="grid-line"/>
<line x1="0" y1="17.5" x2="36" y2="17.5" class="grid-line"/>
<line x1="0" y1="18" x2="36" y2="18" class="grid-line-6mu"/>
<line x1="0" y1="18.5" x2="36" y2="18.5" class="grid-line"/>
<line x1="0" y1="19" x2="36" y2="19" class="grid-line"/>
<line x1="0" y1="19.5" x2="36" y2="19.5" class="grid-line"/>
<line x1="0" y1="20" x2="36" y2="20" class="grid-line-2mu"/>
<line x1="0" y1="20.5" x2="36" y2="20.5" class="grid-line"/>
<line x1="0" y1="21" x2="36" y2="21" class="grid-line"/>
<line x1="0" y1="21.5" x2="36" y2="21.5" class="grid-line"/>
<line x1="0" y1="22" x2="36" y2="22" class="grid-line-2mu"/>
<line x1="0" y1="22.5" x2="36" y2="22.5" class="grid-line"/>
<line x1="0" y1="23" x2="36" y2="23" class="grid-line"/>
<line x1="0" y1="23.5" x2="36" y2="23.5" class="grid-line"/>
<line x1="0" y1="24" x2="36" y2="24" class="grid-line-6mu"/>
<line x1="0" y1="24.5" x2="36" y2="24.5" class="grid-line"/>
<line x1="0" y1="25" x2="36" y2="25" class="grid-line"/>
<line x1="0" y1="25.5" x2="36" y2="25.5" class="grid-line"/>
<line x1="0" y1="26" x2="36" y2="26" class="grid-line-2mu"/>
<line x1="0" y1="26.5" x2="36" y2="26.5" class="grid-line"/>
<line x1="0" y1="27" x2="36" y2="27" class="grid-line"/>
<line x1="0" y1="27.5" x2="36" y2="27.5" class="grid-line"/>
<line x1="0" y1="28" x2="36" y2="28" class="grid-line-2mu"/>
<line x1="0" y1="28.5" x2="36" y2="28.5" class="grid-line"/>
<line x1="0" y1="29" x2="36" y2="29" class="grid-line"/>
<line x1="0" y1="29.5" x2="36" y2="29.5" class="grid-line"/>
<line x1="0" y1="30" x2="36" y2="30" class="grid-line-6mu"/>
<line x1="0" y1="30.5" x2="36" y2="30.5" class="grid-line"/>
<line x1="0" y1="31" x2="36" y2="31" class="grid-line"/>
<line x1="0" y1="31.5" x2="36" y2="31.5" class="grid-line"/>
<line x1="0" y1="32" x2="36" y2="32" class="grid-line-2mu"/>
<line x1="0" y1="32.5" x2="36" y2="32.5" class="grid-line"/>
<line x1="0" y1="33" x2="36" y2="33" class="grid-line"/>
<line x1="0" y1="33.5" x2="36" y2="33.5" class="grid-line"/>
<line x1="0" y1="34" x2="36" y2="34" class="grid-line-2mu"/>
<line x1="0" y1="34.5" x2="36" y2="34.5" class="grid-line"/>
<line x1="0" y1="35" x2="36" y2="35" class="grid-line"/>
<line x1="0" y1="35.5" x2="36" y2="35.5" class="grid-line"/>
<line x1="0" y1="36" x2="36" y2="36" class="grid-line-6mu"/>
</g>
<g id="layer-delaunay" class="layer ">
<line x1="19.905465591936313" y1="20.06586423924612" x2="18.352551321321187" y2="25.86141919698053" class="delaunay-line"/>
<line x1="18.352551321321187" y1="25.86141919698053" x2="25.183853827536005" y2="24.957392142987736" class="delaunay-line"/>
<line x1="25.183853827536005" y1="24.957392142987736" x2="19.905465591936313" y2="20.06586423924612" class="delaunay-line"/>
<line x1="18.352551321321187" y1="25.86141919698053" x2="17.985111373189255" y2="27.320883816087274" class="delaunay-line"/>
<line x1="17.985111373189255" y1="27.320883816087274" x2="25.183853827536005" y2="24.957392142987736" class="delaunay-line"/>
<line x1="25.183853827536005" y1="24.957392142987736" x2="18.352551321321187" y2="25.86141919698053" class="delaunay-line"/>
<line x1="30.982827819359564" y1="30.472718294067633" x2="29.89566519288512" y2="25.858451695225497" class="delaunay-line"/>
<line x1="29.89566519288512" y1="25.858451695225497" x2="25.183853827536005" y2="24.957392142987736" class="delaunay-line"/>
<line x1="25.183853827536005" y1="24.957392142987736" x2="30.982827819359564" y2="30.472718294067633" class="delaunay-line"/>
<line x1="25.183853827536005" y1="24.957392142987736" x2="21.04929349028101" y2="10.538466703912958" class="delaunay-line"/>
<line x1="21.04929349028101" y1="10.538466703912958" x2="19.905465591936313" y2="20.06586423924612" class="delaunay-line"/>
<line x1="19.905465591936313" y1="20.06586423924612" x2="25.183853827536005" y2="24.957392142987736" class="delaunay-line"/>
<line x1="18.352551321321187" y1="25.86141919698053" x2="12.382980923512005" y2="23.891061215074906" class="delaunay-line"/>
<line x1="12.382980923512005" y1="23.891061215074906" x2="17.985111373189255" y2="27.320883816087274" class="delaunay-line"/>
<line x1="17.985111373189255" y1="27.320883816087274" x2="18.352551321321187" y2="25.86141919698053" class="delaunay-line"/>
<line x1="19.905465591936313" y1="20.06586423924612" x2="12.382980923512005" y2="23.891061215074906" class="delaunay-line"/>
<line x1="12.382980923512005" y1="23.891061215074906" x2="18.352551321321187" y2="25.86141919698053" class="delaunay-line"/>
<line x1="18.352551321321187" y1="25.86141919698053" x2="19.905465591936313" y2="20.06586423924612" class="delaunay-line"/>
<line x1="17.985111373189255" y1="27.320883816087274" x2="30.982827819359564" y2="30.472718294067633" class="delaunay-line"/>
<line x1="30.982827819359564" y1="30.472718294067633" x2="25.183853827536005" y2="24.957392142987736" class="delaunay-line"/>
<line x1="25.183853827536005" y1="24.957392142987736" x2="17.985111373189255" y2="27.320883816087274" class="delaunay-line"/>
<line x1="19.905465591936313" y1="20.06586423924612" x2="11.212133155334698" y2="17.736492833323435" class="delaunay-line"/>
<line x1="11.212133155334698" y1="17.736492833323435" x2="12.382980923512005" y2="23.891061215074906" class="delaunay-line"/>
<line x1="12.382980923512005" y1="23.891061215074906" x2="19.905465591936313" y2="20.06586423924612" class="delaunay-line"/>
<line x1="11.212133155334698" y1="17.736492833323435" x2="9.659218884719571" y2="23.532047791057845" class="delaunay-line"/>
<line x1="9.659218884719571" y1="23.532047791057845" x2="12.382980923512005" y2="23.891061215074906" class="delaunay-line"/>
<line x1="12.382980923512005" y1="23.891061215074906" x2="11.212133155334698" y2="17.736492833323435" class="delaunay-line"/>
<line x1="12.382980923512005" y1="23.891061215074906" x2="0" y2="36" class="delaunay-line"/>
<line x1="0" y1="36" x2="17.985111373189255" y2="27.320883816087274" class="delaunay-line"/>
<line x1="17.985111373189255" y1="27.320883816087274" x2="12.382980923512005" y2="23.891061215074906" class="delaunay-line"/>
<line x1="32.584433841540836" y1="7.230818434108961" x2="21.04929349028101" y2="10.538466703912958" class="delaunay-line"/>
<line x1="21.04929349028101" y1="10.538466703912958" x2="25.183853827536005" y2="24.957392142987736" class="delaunay-line"/>
<line x1="25.183853827536005" y1="24.957392142987736" x2="32.584433841540836" y2="7.230818434108961" class="delaunay-line"/>
<line x1="19.905465591936313" y1="20.06586423924612" x2="10.51177570615217" y2="15.087732808470655" class="delaunay-line"/>
<line x1="10.51177570615217" y1="15.087732808470655" x2="11.212133155334698" y2="17.736492833323435" class="delaunay-line"/>
<line x1="11.212133155334698" y1="17.736492833323435" x2="19.905465591936313" y2="20.06586423924612" class="delaunay-line"/>
<line x1="21.04929349028101" y1="10.538466703912958" x2="10.51177570615217" y2="15.087732808470655" class="delaunay-line"/>
<line x1="10.51177570615217" y1="15.087732808470655" x2="19.905465591936313" y2="20.06586423924612" class="delaunay-line"/>
<line x1="19.905465591936313" y1="20.06586423924612" x2="21.04929349028101" y2="10.538466703912958" class="delaunay-line"/>
<line x1="-1.2259955026534968" y1="17.58267309828377" x2="0.645209714706338" y2="26.38600150488802" class="delaunay-line"/>
<line x1="0.645209714706338" y1="26.38600150488802" x2="9.659218884719571" y2="23.532047791057845" class="delaunay-line"/>
<line x1="9.659218884719571" y1="23.532047791057845" x2="-1.2259955026534968" y2="17.58267309828377" class="delaunay-line"/>
<line x1="36.938104729207495" y1="29.74150223363675" x2="36.71899417879583" y2="21.64974387318374" class="delaunay-line"/>
<line x1="36.71899417879583" y1="21.64974387318374" x2="29.89566519288512" y2="25.858451695225497" class="delaunay-line"/>
<line x1="29.89566519288512" y1="25.858451695225497" x2="36.938104729207495" y2="29.74150223363675" class="delaunay-line"/>
<line x1="29.89566519288512" y1="25.858451695225497" x2="36.71899417879583" y2="21.64974387318374" class="delaunay-line"/>
<line x1="36.71899417879583" y1="21.64974387318374" x2="25.183853827536005" y2="24.957392142987736" class="delaunay-line"/>
<line x1="25.183853827536005" y1="24.957392142987736" x2="29.89566519288512" y2="25.858451695225497" class="delaunay-line"/>
<line x1="30.982827819359564" y1="30.472718294067633" x2="36.938104729207495" y2="29.74150223363675" class="delaunay-line"/>
<line x1="36.938104729207495" y1="29.74150223363675" x2="29.89566519288512" y2="25.858451695225497" class="delaunay-line"/>
<line x1="29.89566519288512" y1="25.858451695225497" x2="30.982827819359564" y2="30.472718294067633" class="delaunay-line"/>
<line x1="17.985111373189255" y1="27.320883816087274" x2="19.81315152426648" y2="42.2090760907071" class="delaunay-line"/>
<line x1="19.81315152426648" y1="42.2090760907071" x2="30.982827819359564" y2="30.472718294067633" class="delaunay-line"/>
<line x1="30.982827819359564" y1="30.472718294067633" x2="17.985111373189255" y2="27.320883816087274" class="delaunay-line"/>
<line x1="30.982827819359564" y1="30.472718294067633" x2="36" y2="36" class="delaunay-line"/>
<line x1="36" y1="36" x2="36.938104729207495" y2="29.74150223363675" class="delaunay-line"/>
<line x1="36.938104729207495" y1="29.74150223363675" x2="30.982827819359564" y2="30.472718294067633" class="delaunay-line"/>
<line x1="0" y1="36" x2="19.81315152426648" y2="42.2090760907071" class="delaunay-line"/>
<line x1="19.81315152426648" y1="42.2090760907071" x2="17.985111373189255" y2="27.320883816087274" class="delaunay-line"/>
<line x1="17.985111373189255" y1="27.320883816087274" x2="0" y2="36" class="delaunay-line"/>
<line x1="19.81315152426648" y1="42.2090760907071" x2="32.07965191000589" y2="39.405633658839534" class="delaunay-line"/>
<line x1="32.07965191000589" y1="39.405633658839534" x2="30.982827819359564" y2="30.472718294067633" class="delaunay-line"/>
<line x1="30.982827819359564" y1="30.472718294067633" x2="19.81315152426648" y2="42.2090760907071" class="delaunay-line"/>
<line x1="32.07965191000589" y1="39.405633658839534" x2="36" y2="36" class="delaunay-line"/>
<line x1="36" y1="36" x2="30.982827819359564" y2="30.472718294067633" class="delaunay-line"/>
<line x1="30.982827819359564" y1="30.472718294067633" x2="32.07965191000589" y2="39.405633658839534" class="delaunay-line"/>
<line x1="36.71899417879583" y1="21.64974387318374" x2="32.584433841540836" y2="7.230818434108961" class="delaunay-line"/>
<line x1="32.584433841540836" y1="7.230818434108961" x2="25.183853827536005" y2="24.957392142987736" class="delaunay-line"/>
<line x1="25.183853827536005" y1="24.957392142987736" x2="36.71899417879583" y2="21.64974387318374" class="delaunay-line"/>
<line x1="19.81315152426648" y1="42.2090760907071" x2="31.723705343962344" y2="40.74664396984532" class="delaunay-line"/>
<line x1="31.723705343962344" y1="40.74664396984532" x2="32.07965191000589" y2="39.405633658839534" class="delaunay-line"/>
<line x1="32.07965191000589" y1="39.405633658839534" x2="19.81315152426648" y2="42.2090760907071" class="delaunay-line"/>
<line x1="32.07965191000589" y1="39.405633658839534" x2="38.03492881985382" y2="38.67441759840865" class="delaunay-line"/>
<line x1="38.03492881985382" y1="38.67441759840865" x2="36" y2="36" class="delaunay-line"/>
<line x1="36" y1="36" x2="32.07965191000589" y2="39.405633658839534" class="delaunay-line"/>
<line x1="-1.2259955026534968" y1="17.58267309828377" x2="9.659218884719571" y2="23.532047791057845" class="delaunay-line"/>
<line x1="9.659218884719571" y1="23.532047791057845" x2="11.212133155334698" y2="17.736492833323435" class="delaunay-line"/>
<line x1="11.212133155334698" y1="17.736492833323435" x2="-1.2259955026534968" y2="17.58267309828377" class="delaunay-line"/>
<line x1="9.659218884719571" y1="23.532047791057845" x2="0" y2="36" class="delaunay-line"/>
<line x1="0" y1="36" x2="12.382980923512005" y2="23.891061215074906" class="delaunay-line"/>
<line x1="12.382980923512005" y1="23.891061215074906" x2="9.659218884719571" y2="23.532047791057845" class="delaunay-line"/>
<line x1="31.723705343962344" y1="40.74664396984532" x2="38.03492881985382" y2="38.67441759840865" class="delaunay-line"/>
<line x1="38.03492881985382" y1="38.67441759840865" x2="32.07965191000589" y2="39.405633658839534" class="delaunay-line"/>
<line x1="32.07965191000589" y1="39.405633658839534" x2="31.723705343962344" y2="40.74664396984532" class="delaunay-line"/>
<line x1="36" y1="36" x2="38.03492881985382" y2="38.67441759840865" class="delaunay-line"/>
<line x1="38.03492881985382" y1="38.67441759840865" x2="36.938104729207495" y2="29.74150223363675" class="delaunay-line"/>
<line x1="36.938104729207495" y1="29.74150223363675" x2="36" y2="36" class="delaunay-line"/>
<line x1="36.938104729207495" y1="29.74150223363675" x2="38.03492881985382" y2="38.67441759840865" class="delaunay-line"/>
<line x1="38.03492881985382" y1="38.67441759840865" x2="36.71899417879583" y2="21.64974387318374" class="delaunay-line"/>
<line x1="36.71899417879583" y1="21.64974387318374" x2="36.938104729207495" y2="29.74150223363675" class="delaunay-line"/>
<line x1="0" y1="0" x2="-1.2259955026534968" y2="17.58267309828377" class="delaunay-line"/>
<line x1="-1.2259955026534968" y1="17.58267309828377" x2="10.51177570615217" y2="15.087732808470655" class="delaunay-line"/>
<line x1="10.51177570615217" y1="15.087732808470655" x2="0" y2="0" class="delaunay-line"/>
<line x1="10.51177570615217" y1="15.087732808470655" x2="-1.2259955026534968" y2="17.58267309828377" class="delaunay-line"/>
<line x1="-1.2259955026534968" y1="17.58267309828377" x2="11.212133155334698" y2="17.736492833323435" class="delaunay-line"/>
<line x1="11.212133155334698" y1="17.736492833323435" x2="10.51177570615217" y2="15.087732808470655" class="delaunay-line"/>
<line x1="-1.2259955026534968" y1="17.58267309828377" x2="0" y2="36" class="delaunay-line"/>
<line x1="0" y1="36" x2="0.645209714706338" y2="26.38600150488802" class="delaunay-line"/>
<line x1="0.645209714706338" y1="26.38600150488802" x2="-1.2259955026534968" y2="17.58267309828377" class="delaunay-line"/>
<line x1="0.645209714706338" y1="26.38600150488802" x2="0" y2="36" class="delaunay-line"/>
<line x1="0" y1="36" x2="9.659218884719571" y2="23.532047791057845" class="delaunay-line"/>
<line x1="9.659218884719571" y1="23.532047791057845" x2="0.645209714706338" y2="26.38600150488802" class="delaunay-line"/>
<line x1="32.584433841540836" y1="7.230818434108961" x2="36" y2="0" class="delaunay-line"/>
<line x1="36" y1="0" x2="21.04929349028101" y2="10.538466703912958" class="delaunay-line"/>
<line x1="21.04929349028101" y1="10.538466703912958" x2="32.584433841540836" y2="7.230818434108961" class="delaunay-line"/>
<line x1="21.04929349028101" y1="10.538466703912958" x2="0" y2="0" class="delaunay-line"/>
<line x1="0" y1="0" x2="10.51177570615217" y2="15.087732808470655" class="delaunay-line"/>
<line x1="10.51177570615217" y1="15.087732808470655" x2="21.04929349028101" y2="10.538466703912958" class="delaunay-line"/>
<line x1="36.71899417879583" y1="21.64974387318374" x2="36" y2="0" class="delaunay-line"/>
<line x1="36" y1="0" x2="32.584433841540836" y2="7.230818434108961" class="delaunay-line"/>
<line x1="32.584433841540836" y1="7.230818434108961" x2="36.71899417879583" y2="21.64974387318374" class="delaunay-line"/>
<line x1="38.03492881985382" y1="38.67441759840865" x2="36" y2="0" class="delaunay-line"/>
<line x1="36" y1="0" x2="36.71899417879583" y2="21.64974387318374" class="delaunay-line"/>
<line x1="36.71899417879583" y1="21.64974387318374" x2="38.03492881985382" y2="38.67441759840865" class="delaunay-line"/>
<line x1="36" y1="0" x2="0" y2="0" class="delaunay-line"/>
<line x1="0" y1="0" x2="21.04929349028101" y2="10.538466703912958" class="delaunay-line"/>
<line x1="21.04929349028101" y1="10.538466703912958" x2="36" y2="0" class="delaunay-line"/>
</g>
<g id="layer-area" class="layer ">
<polygon points="17.985111373189255,27.320883816087274 29.89566519288512,25.858451695225497 31.723705343962344,40.74664396984532 19.81315152426648,42.2090760907071" class="terrain-area"/>
<text x="24.854408358575803" y="34.0337638929663" class="label">#C49A6C</text>
<polygon points="36.71899417879583,21.64974387318374 25.183853827536005,24.957392142987736 21.04929349028101,10.538466703912958 32.584433841540836,7.230818434108961" class="terrain-area"/>
<text x="28.88414383453842" y="16.09410528854835" class="label">#C49A6C</text>
<polygon points="38.03492881985382,38.67441759840865 32.07965191000589,39.405633658839534 30.982827819359564,30.472718294067633 36.938104729207495,29.74150223363675" class="terrain-area"/>
<text x="34.508878319606694" y="34.57356794623814" class="label">#C49A6C</text>
<polygon points="19.905465591936313,20.06586423924612 18.352551321321187,25.86141919698053 9.659218884719571,23.532047791057845 11.212133155334698,17.736492833323435" class="terrain-area"/>
<text x="14.782342238327942" y="21.798956015151983" class="label">#C49A6C</text>
<polygon points="10.51177570615217,15.087732808470655 12.382980923512005,23.891061215074906 0.645209714706338,26.38600150488802 -1.2259955026534968,17.58267309828377" class="terrain-area"/>
<text x="5.578492710429254" y="20.736867156679338" class="label">#C49A6C</text>
</g>
<g id="layer-building" class="layer ">
</g>
<g id="layer-wall" class="layer ">
</g>
<g id="layer-tree" class="layer ">
</g>
<g id="layer-rocks" class="layer ">
</g>
<g id="layer-shrub" class="layer ">
</g>
<g id="layer-terrain" class="layer ">
</g>
<g id="layer-clearance" class="layer hidden">
</g>
<g id="layer-models" class="layer ">
</g>
<g id="layer-paths" class="layer ">
</g>
<g id="layer-vectors" class="layer ">
</g>
<g id="layer-los" class="layer ">
</g>
<g id="layer-lof" class="layer ">
</g>

<g id="legend">
<g class="toggle" onclick="toggleLayer('deployment')"><rect x="0.4" y="0.14999999999999997" width="0.4" height="0.4" fill="#222" stroke="#222" stroke-width="0.05"/><text x="1.0" y="0.5499999999999999" class="label">Deployment Zones</text></g>
<g class="toggle" onclick="toggleLayer('grid')"><rect x="0.4" y="0.95" width="0.4" height="0.4" fill="#222" stroke="#222" stroke-width="0.05"/><text x="1.0" y="1.3499999999999999" class="label">0.5 MU Grid</text></g>
<g class="toggle" onclick="toggleLayer('delaunay')"><rect x="0.4" y="1.7500000000000002" width="0.4" height="0.4" fill="#222" stroke="#222" stroke-width="0.05"/><text x="1.0" y="2.1500000000000004" class="label">Delaunay Mesh</text></g>
<g class="toggle" onclick="toggleLayer('area')"><rect x="0.4" y="2.55" width="0.4" height="0.4" fill="#222" stroke="#222" stroke-width="0.05"/><text x="1.0" y="2.95" class="label">Area Terrain</text></g>
<g class="toggle disabled"><rect x="0.4" y="3.3499999999999996" width="0.4" height="0.4" fill="#222" stroke="#222" stroke-width="0.05"/><text x="1.0" y="3.75" class="label">Buildings</text></g>
<g class="toggle disabled"><rect x="0.4" y="4.1499999999999995" width="0.4" height="0.4" fill="#222" stroke="#222" stroke-width="0.05"/><text x="1.0" y="4.55" class="label">Walls</text></g>
<g class="toggle disabled"><rect x="0.4" y="4.949999999999999" width="0.4" height="0.4" fill="#222" stroke="#222" stroke-width="0.05"/><text x="1.0" y="5.35" class="label">Trees</text></g>
<g class="toggle disabled"><rect x="0.4" y="5.749999999999999" width="0.4" height="0.4" fill="#222" stroke="#222" stroke-width="0.05"/><text x="1.0" y="6.1499999999999995" class="label">Rocks</text></g>
<g class="toggle disabled"><rect x="0.4" y="6.549999999999999" width="0.4" height="0.4" fill="#222" stroke="#222" stroke-width="0.05"/><text x="1.0" y="6.949999999999999" class="label">Shrubs</text></g>
<g class="toggle" onclick="toggleLayer('terrain')"><rect x="0.4" y="7.349999999999999" width="0.4" height="0.4" fill="#222" stroke="#222" stroke-width="0.05"/><text x="1.0" y="7.749999999999999" class="label">Other Terrain</text></g>
<g class="toggle" onclick="toggleLayer('clearance')"><rect x="0.4" y="8.15" width="0.4" height="0.4" fill="#fff" stroke="#222" stroke-width="0.05"/><text x="1.0" y="8.549999999999999" class="label">Clearance Zones</text></g>
<g class="toggle" onclick="toggleLayer('models')"><rect x="0.4" y="8.950000000000001" width="0.4" height="0.4" fill="#222" stroke="#222" stroke-width="0.05"/><text x="1.0" y="9.35" class="label">Models</text></g>
<g class="toggle" onclick="toggleLayer('paths')"><rect x="0.4" y="9.750000000000002" width="0.4" height="0.4" fill="#222" stroke="#222" stroke-width="0.05"/><text x="1.0" y="10.15" class="label">Paths</text></g>
<g class="toggle" onclick="toggleLayer('vectors')"><rect x="0.4" y="10.550000000000002" width="0.4" height="0.4" fill="#222" stroke="#222" stroke-width="0.05"/><text x="1.0" y="10.950000000000001" class="label">Vectors</text></g>
<g class="toggle" onclick="toggleLayer('los')"><rect x="0.4" y="11.350000000000003" width="0.4" height="0.4" fill="#222" stroke="#222" stroke-width="0.05"/><text x="1.0" y="11.750000000000002" class="label">LOS</text></g>
<g class="toggle" onclick="toggleLayer('lof')"><rect x="0.4" y="12.150000000000004" width="0.4" height="0.4" fill="#222" stroke="#222" stroke-width="0.05"/><text x="1.0" y="12.550000000000002" class="label">LOF</text></g>
</g>
</svg>