<svg xmlns="http://www.w3.org/2000/svg" viewBox="0 0 36 36" width="1440" height="1440" font-family="Arial" font-size="0.6">
<defs>
  <style><![CDATA[
    .layer { display: inline; }
    .layer.hidden { display: none; }
    .grid-line { stroke: #999; stroke-width: 0.02; opacity: 0.2; }
    .grid-line-2mu { stroke: #666; stroke-width: 0.04; opacity: 0.4; }
    .grid-line-6mu { stroke: #333; stroke-width: 0.08; opacity: 0.6; }
    .delaunay-line { stroke: #4a6fa5; stroke-width: 0.03; opacity: 0.3; }
    #layer-area { opacity: 0.8; }
    #layer-building, #layer-wall, #layer-tree, #layer-rocks, #layer-shrub, #layer-terrain { opacity: 0.8; }
    .terrain-area { stroke: none; }
    .terrain-solid { stroke: #000; stroke-width: 0.05; }
    .model { stroke: #ff0000; stroke-width: 2; vector-effect: non-scaling-stroke; }
    .path { fill: none; stroke-width: 0.12; }
    .vector { stroke-width: 0.1; }
    .los-ray { stroke-width: 0.08; stroke-dasharray: 0.2 0.2; }
    .lof-ray { stroke-width: 0.08; stroke-dasharray: 0.3 0.15; }
    .label { fill: #111 !important; font-size: 0.6px; }
    .toggle { cursor: pointer; }
    .toggle.disabled { cursor: default; }
    .toggle.disabled rect { stroke: #ccc; fill: #fff; }
    .toggle.disabled text { fill: #ccc; }
#layer-building { fill: #000000; }
  ]]></style>
</defs>
<rect x="0" y="0" width="36" height="36" fill="#ffffff" stroke="#111" stroke-width="0.05"/>
<script><![CDATA[
      function toggleLayer(id) {
        var layer = document.getElementById('layer-' + id);
        if (!layer) return;
        if (layer.classList.contains('hidden')) {
          layer.classList.remove('hidden');
        } else {
          layer.classList.add('hidden');
        }
      }
    ]]></script>
<text x="0.4" y="35.6" class="label">MEDIUM battlefield_A0-B80-W0-R0-S0-T0</text>
<g id="layer-deployment" class="layer ">
</g>
<g id="layer-grid" class="layer ">
<line x1="0" y1="0" x2="0" y2="36" class="grid-line-6mu"/>
<line x1="0.5" y1="0" x2="0.5" y2="36" class="grid-line"/>
<line x1="1" y1="0" x2="1" y2="36" class="grid-line"/>
<line x1="1.5" y1="0" x2="1.5" y2="36" class="grid-line"/>
<line x1="2" y1="0" x2="2" y2="36" class="grid-line-2mu"/>
<line x1="2.5" y1="0" x2="2.5" y2="36" class="grid-line"/>
<line x1="3" y1="0" x2="3" y2="36" class="grid-line"/>
<line x1="3.5" y1="0" x2="3.5" y2="36" class="grid-line"/>
<line x1="4" y1="0" x2="4" y2="36" class="grid-line-2mu"/>
<line x1="4.5" y1="0" x2="4.5" y2="36" class="grid-line"/>
<line x1="5" y1="0" x2="5" y2="36" class="grid-line"/>
<line x1="5.5" y1="0" x2="5.5" y2="36" class="grid-line"/>
<line x1="6" y1="0" x2="6" y2="36" class="grid-line-6mu"/>
<line x1="6.5" y1="0" x2="6.5" y2="36" class="grid-line"/>
<line x1="7" y1="0" x2="7" y2="36" class="grid-line"/>
<line x1="7.5" y1="0" x2="7.5" y2="36" class="grid-line"/>
<line x1="8" y1="0" x2="8" y2="36" class="grid-line-2mu"/>
<line x1="8.5" y1="0" x2="8.5" y2="36" class="grid-line"/>
<line x1="9" y1="0" x2="9" y2="36" class="grid-line"/>
<line x1="9.5" y1="0" x2="9.5" y2="36" class="grid-line"/>
<line x1="10" y1="0" x2="10" y2="36" class="grid-line-2mu"/>
<line x1="10.5" y1="0" x2="10.5" y2="36" class="grid-line"/>
<line x1="11" y1="0" x2="11" y2="36" class="grid-line"/>
<line x1="11.5" y1="0" x2="11.5" y2="36" class="grid-line"/>
<line x1="12" y1="0" x2="12" y2="36" class="grid-line-6mu"/>
<line x1="12.5" y1="0" x2="12.5" y2="36" class="grid-line"/>
<line x1="13" y1="0" x2="13" y2="36" class="grid-line"/>
<line x1="13.5" y1="0" x2="13.5" y2="36" class="grid-line"/>
<line x1="14" y1="0" x2="14" y2="36" class="grid-line-2mu"/>
<line x1="14.5" y1="0" x2="14.5" y2="36" class="grid-line"/>
<line x1="15" y1="0" x2="15" y2="36" class="grid-line"/>
<line x1="15.5" y1="0" x2="15.5" y2="36" class="grid-line"/>
<line x1="16" y1="0" x2="16" y2="36" class="grid-line-2mu"/>
<line x1="16.5" y1="0" x2="16.5" y2="36" class="grid-line"/>
<line x1="17" y1="0" x2="17" y2="36" class="grid-line"/>
<line x1="17.5" y1="0" x2="17.5" y2="36" class="grid-line"/>
<line x1="18" y1="0" x2="18" y2="36" class="grid-line-6mu"/>
<line x1="18.5" y1="0" x2="18.5" y2="36" class="grid-line"/>
<line x1="19" y1="0" x2="19" y2="36" class="grid-line"/>
<line x1="19.5" y1="0" x2="19.5" y2="36" class="grid-line"/>
<line x1="20" y1="0" x2="20" y2="36" class="grid-line-2mu"/>
<line x1="20.5" y1="0" x2="20.5" y2="36" class="grid-line"/>
<line x1="21" y1="0" x2="21" y2="36" class="grid-line"/>
<line x1="21.5" y1="0" x2="21.5" y2="36" class="grid-line"/>
<line x1="22" y1="0" x2="22" y2="36" class="grid-line-2mu"/>
<line x1="22.5" y1="0" x2="22.5" y2="36" class="grid-line"/>
<line x1="23" y1="0" x2="23" y2="36" class="grid-line"/>
<line x1="23.5" y1="0" x2="23.5" y2="36" class="grid-line"/>
<line x1="24" y1="0" x2="24" y2="36" class="grid-line-6mu"/>
<line x1="24.5" y1="0" x2="24.5" y2="36" class="grid-line"/>
<line x1="25" y1="0" x2="25" y2="36" class="grid-line"/>
<line x1="25.5" y1="0" x2="25.5" y2="36" class="grid-line"/>
<line x1="26" y1="0" x2="26" y2="36" class="grid-line-2mu"/>
<line x1="26.5" y1="0" x2="26.5" y2="36" class="grid-line"/>
<line x1="27" y1="0" x2="27" y2="36" class="grid-line"/>
<line x1="27.5" y1="0" x2="27.5" y2="36" class="grid-line"/>
<line x1="28" y1="0" x2="28" y2="36" class="grid-line-2mu"/>
<line x1="28.5" y1="0" x2="28.5" y2="36" class="grid-line"/>
<line x1="29" y1="0" x2="29" y2="36" class="grid-line"/>
<line x1="29.5" y1="0" x2="29.5" y2="36" class="grid-line"/>
<line x1="30" y1="0" x2="30" y2="36" class="grid-line-6mu"/>
<line x1="30.5" y1="0" x2="30.5" y2="36" class="grid-line"/>
<line x1="31" y1="0" x2="31" y2="36" class="grid-line"/>
<line x1="31.5" y1="0" x2="31.5" y2="36" class="grid-line"/>
<line x1="32" y1="0" x2="32" y2="36" class="grid-line-2mu"/>
<line x1="32.5" y1="0" x2="32.5" y2="36" class="grid-line"/>
<line x1="33" y1="0" x2="33" y2="36" class="grid-line"/>
<line x1="33.5" y1="0" x2="33.5" y2="36" class="grid-line"/>
<line x1="34" y1="0" x2="34" y2="36" class="grid-line-2mu"/>
<line x1="34.5" y1="0" x2="34.5" y2="36" class="grid-line"/>
<line x1="35" y1="0" x2="35" y2="36" class="grid-line"/>
<line x1="35.5" y1="0" x2="35.5" y2="36" class="grid-line"/>
<line x1="36" y1="0" x2="36" y2="36" class="grid-line-6mu"/>
<line x1="0" y1="0" x2="36" y2="0" class="grid-line-6mu"/>
<line x1="0" y1="0.5" x2="36" y2="0.5" class="grid-line"/>
<line x1="0" y1="1" x2="36" y2="1" class="grid-line"/>
<line x1="0" y1="1.5" x2="36" y2="1.5" class="grid-line"/>
<line x1="0" y1="2" x2="36" y2="2" class="grid-line-2mu"/>
<line x1="0" y1="2.5" x2="36" y2="2.5" class="grid-line"/>
<line x1="0" y1="3" x2="36" y2="3" class="grid-line"/>
<line x1="0" y1="3.5" x2="36" y2="3.5" class="grid-line"/>
<line x1="0" y1="4" x2="36" y2="4" class="grid-line-2mu"/>
<line x1="0" y1="4.5" x2="36" y2="4.5" class="grid-line"/>
<line x1="0" y1="5" x2="36" y2="5" class="grid-line"/>
<line x1="0" y1="5.5" x2="36" y2="5.5" class="grid-line"/>
<line x1="0" y1="6" x2="36" y2="6" class="grid-line-6mu"/>
<line x1="0" y1="6.5" x2="36" y2="6.5" class="grid-line"/>
<line x1="0" y1="7" x2="36" y2="7" class="grid-line"/>
<line x1="0" y1="7.5" x2="36" y2="7.5" class="grid-line"/>
<line x1="0" y1="8" x2="36" y2="8" class="grid-line-2mu"/>
<line x1="0" y1="8.5" x2="36" y2="8.5" class="grid-line"/>
<line x1="0" y1="9" x2="36" y2="9" class="grid-line"/>
<line x1="0" y1="9.5" x2="36" y2="9.5" class="grid-line"/>
<line x1="0" y1="10" x2="36" y2="10" class="grid-line-2mu"/>
<line x1="0" y1="10.5" x2="36" y2="10.5" class="grid-line"/>
<line x1="0" y1="11" x2="36" y2="11" class="grid-line"/>
<line x1="0" y1="11.5" x2="36" y2="11.5" class="grid-line"/>
<line x1="0" y1="12" x2="36" y2="12" class="grid-line-6mu"/>
<line x1="0" y1="12.5" x2="36" y2="12.5" class="grid-line"/>
<line x1="0" y1="13" x2="36" y2="13" class="grid-line"/>
<line x1="0" y1="13.5" x2="36" y2="13.5" class="grid-line"/>
<line x1="0" y1="14" x2="36" y2="14" class="grid-line-2mu"/>
<line x1="0" y1="14.5" x2="36" y2="14.5" class="grid-line"/>
<line x1="0" y1="15" x2="36" y2="15" class="grid-line"/>
<line x1="0" y1="15.5" x2="36" y2="15.5" class="grid-line"/>
<line x1="0" y1="16" x2="36" y2="16" class="grid-line-2mu"/>
<line x1="0" y1="16.5" x2="36" y2="16.5" class="grid-line"/>
<line x1="0" y1="17" x2="36" y2="17" class="grid-line"/>
<line x1="0" y1="17.5" x2="36" y2="17.5" class="grid-line"/>
<line x1="0" y1="18" x2="36" y2="18" class="grid-line-6mu"/>
<line x1="0" y1="18.5" x2="36" y2="18.5" class="grid-line"/>
<line x1="0" y1="19" x2="36" y2="19" class="grid-line"/>
<line x1="0" y1="19.5" x2="36" y2="19.5" class="grid-line"/>
<line x1="0" y1="20" x2="36" y2="20" class="grid-line-2mu"/>
<line x1="0" y1="20.5" x2="36" y2="20.5" class="grid-line"/>
<line x1="0" y1="21" x2="36" y2="21" class="grid-line"/>
<line x1="0" y1="21.5" x2="36" y2="21.5" class="grid-line"/>
<line x1="0" y1="22" x2="36" y2="22" class="grid-line-2mu"/>
<line x1="0" y1="22.5" x2="36" y2="22.5" class="grid-line"/>
<line x1="0" y1="23" x2="36" y2="23" class="grid-line"/>
<line x1="0" y1="23.5" x2="36" y2="23.5" class="grid-line"/>
<line x1="0" y1="24" x2="36" y2="24" class="grid-line-6mu"/>
<line x1="0" y1="24.5" x2="36" y2="24.5" class="grid-line"/>
<line x1="0" y1="25" x2="36" y2="25" class="grid-line"/>
<line x1="0" y1="25.5" x2="36" y2="25.5" class="grid-line"/>
<line x1="0" y1="26" x2="36" y2="26" class="grid-line-2mu"/>
<line x1="0" y1="26.5" x2="36" y2="26.5" class="grid-line"/>
<line x1="0" y1="27" x2="36" y2="27" class="grid-line"/>
<line x1="0" y1="27.5" x2="36" y2="27.5" class="grid-line"/>
<line x1="0" y1="28" x2="36" y2="28" class="grid-line-2mu"/>
<line x1="0" y1="28.5" x2="36" y2="28.5" class="grid-line"/>
<line x1="0" y1="29" x2="36" y2="29" class="grid-line"/>
<line x1="0" y1="29.5" x2="36" y2="29.5" class="grid-line"/>
<line x1="0" y1="30" x2="36" y2="30" class="grid-line-6mu"/>
<line x1="0" y1="30.5" x2="36" y2="30.5" class="grid-line"/>
<line x1="0" y1="31" x2="36" y2="31" class="grid-line"/>
<line x1="0" y1="31.5" x2="36" y2="31.5" class="grid-line"/>
<line x1="0" y1="32" x2="36" y2="32" class="grid-line-2mu"/>
<line x1="0" y1="32.5" x2="36" y2="32.5" class="grid-line"/>
<line x1="0" y1="33" x2="36" y2="33" class="grid-line"/>
<line x1="0" y1="33.5" x2="36" y2="33.5" class="grid-line"/>
<line x1="0" y1="34" x2="36" y2="34" class="grid-line-2mu"/>
<line x1="0" y1="34.5" x2="36" y2="34.5" class="grid-line"/>
<line x1="0" y1="35" x2="36" y2="35" class="grid-line"/>
<line x1="0" y1="35.5" x2="36" y2="35.5" class="grid-line"/>
<line x1="0" y1="36" x2="36" y2="36" class="grid-line-6mu"/>
</g>
<g id="layer-delaunay" class="layer ">
<line x1="17.940078117803633" y1="15.39203721501814" x2="17.52196426473302" y2="11.413949633545046" class="delaunay-line"/>
<line x1="17.52196426473302" y1="11.413949633545046" x2="15.171470444539867" y2="14.282661150034457" class="delaunay-line"/>
<line x1="15.171470444539867" y1="14.282661150034457" x2="17.940078117803633" y2="15.39203721501814" class="delaunay-line"/>
<line x1="17.52196426473302" y1="11.413949633545046" x2="13.61631347643266" y2="11.407084065188979" class="delaunay-line"/>
<line x1="13.61631347643266" y1="11.407084065188979" x2="15.171470444539867" y2="14.282661150034457" class="delaunay-line"/>
<line x1="15.171470444539867" y1="14.282661150034457" x2="17.52196426473302" y2="11.413949633545046" class="delaunay-line"/>
<line x1="17.940078117803633" y1="15.39203721501814" x2="23.48909563694266" y2="10.786778853939127" class="delaunay-line"/>
<line x1="23.48909563694266" y1="10.786778853939127" x2="17.52196426473302" y2="11.413949633545046" class="delaunay-line"/>
<line x1="17.52196426473302" y1="11.413949633545046" x2="17.940078117803633" y2="15.39203721501814" class="delaunay-line"/>
<line x1="17.52196426473302" y1="11.413949633545046" x2="11.662904549689715" y2="5.733972611593079" class="delaunay-line"/>
<line x1="11.662904549689715" y1="5.733972611593079" x2="13.61631347643266" y2="11.407084065188979" class="delaunay-line"/>
<line x1="13.61631347643266" y1="11.407084065188979" x2="17.52196426473302" y2="11.413949633545046" class="delaunay-line"/>
<line x1="17.940078117803633" y1="15.39203721501814" x2="23.907209490013276" y2="14.764866435412221" class="delaunay-line"/>
<line x1="23.907209490013276" y1="14.764866435412221" x2="23.48909563694266" y2="10.786778853939127" class="delaunay-line"/>
<line x1="23.48909563694266" y1="10.786778853939127" x2="17.940078117803633" y2="15.39203721501814" class="delaunay-line"/>
<line x1="7.190958042461273" y1="14.840712939987462" x2="15.59000928700462" y2="20.2680454515934" class="delaunay-line"/>
<line x1="15.59000928700462" y1="20.2680454515934" x2="15.171470444539867" y2="14.282661150034457" class="delaunay-line"/>
<line x1="15.171470444539867" y1="14.282661150034457" x2="7.190958042461273" y2="14.840712939987462" class="delaunay-line"/>
<line x1="15.171470444539867" y1="14.282661150034457" x2="15.59000928700462" y2="20.2680454515934" class="delaunay-line"/>
<line x1="15.59000928700462" y1="20.2680454515934" x2="17.940078117803633" y2="15.39203721501814" class="delaunay-line"/>
<line x1="17.940078117803633" y1="15.39203721501814" x2="15.171470444539867" y2="14.282661150034457" class="delaunay-line"/>
<line x1="17.940078117803633" y1="15.39203721501814" x2="21.533491180912776" y2="23.435197675790256" class="delaunay-line"/>
<line x1="21.533491180912776" y1="23.435197675790256" x2="23.907209490013276" y2="14.764866435412221" class="delaunay-line"/>
<line x1="23.907209490013276" y1="14.764866435412221" x2="17.940078117803633" y2="15.39203721501814" class="delaunay-line"/>
<line x1="13.61631347643266" y1="11.407084065188979" x2="9.834239174035394" y2="12.70935668301761" class="delaunay-line"/>
<line x1="9.834239174035394" y1="12.70935668301761" x2="15.171470444539867" y2="14.282661150034457" class="delaunay-line"/>
<line x1="15.171470444539867" y1="14.282661150034457" x2="13.61631347643266" y2="11.407084065188979" class="delaunay-line"/>
<line x1="23.48909563694266" y1="10.786778853939127" x2="22.98100440005176" y2="6.338010157671067" class="delaunay-line"/>
<line x1="22.98100440005176" y1="6.338010157671067" x2="17.52196426473302" y2="11.413949633545046" class="delaunay-line"/>
<line x1="17.52196426473302" y1="11.413949633545046" x2="23.48909563694266" y2="10.786778853939127" class="delaunay-line"/>
<line x1="13.61631347643266" y1="11.407084065188979" x2="11.662904549689715" y2="5.733972611593079" class="delaunay-line"/>
<line x1="11.662904549689715" y1="5.733972611593079" x2="9.834239174035394" y2="12.70935668301761" class="delaunay-line"/>
<line x1="9.834239174035394" y1="12.70935668301761" x2="13.61631347643266" y2="11.407084065188979" class="delaunay-line"/>
<line x1="20.861327343118937" y1="2.9458177730453636" x2="11.662904549689715" y2="5.733972611593079" class="delaunay-line"/>
<line x1="11.662904549689715" y1="5.733972611593079" x2="17.52196426473302" y2="11.413949633545046" class="delaunay-line"/>
<line x1="17.52196426473302" y1="11.413949633545046" x2="20.861327343118937" y2="2.9458177730453636" class="delaunay-line"/>
<line x1="6.727816499494773" y1="8.579491086068037" x2="7.190958042461273" y2="14.840712939987462" class="delaunay-line"/>
<line x1="7.190958042461273" y1="14.840712939987462" x2="9.834239174035394" y2="12.70935668301761" class="delaunay-line"/>
<line x1="9.834239174035394" y1="12.70935668301761" x2="6.727816499494773" y2="8.579491086068037" class="delaunay-line"/>
<line x1="9.834239174035394" y1="12.70935668301761" x2="7.190958042461273" y2="14.840712939987462" class="delaunay-line"/>
<line x1="7.190958042461273" y1="14.840712939987462" x2="15.171470444539867" y2="14.282661150034457" class="delaunay-line"/>
<line x1="15.171470444539867" y1="14.282661150034457" x2="9.834239174035394" y2="12.70935668301761" class="delaunay-line"/>
<line x1="7.609496884926025" y1="20.826097241546407" x2="13.112458960789812" y2="23.226451343117038" class="delaunay-line"/>
<line x1="13.112458960789812" y1="23.226451343117038" x2="15.59000928700462" y2="20.2680454515934" class="delaunay-line"/>
<line x1="15.59000928700462" y1="20.2680454515934" x2="7.609496884926025" y2="20.826097241546407" class="delaunay-line"/>
<line x1="15.59000928700462" y1="20.2680454515934" x2="21.533491180912776" y2="23.435197675790256" class="delaunay-line"/>
<line x1="21.533491180912776" y1="23.435197675790256" x2="17.940078117803633" y2="15.39203721501814" class="delaunay-line"/>
<line x1="17.940078117803633" y1="15.39203721501814" x2="15.59000928700462" y2="20.2680454515934" class="delaunay-line"/>
<line x1="17.83952232895883" y1="28.16326219743059" x2="21.533491180912776" y2="23.435197675790256" class="delaunay-line"/>
<line x1="21.533491180912776" y1="23.435197675790256" x2="15.59000928700462" y2="20.2680454515934" class="delaunay-line"/>
<line x1="15.59000928700462" y1="20.2680454515934" x2="17.83952232895883" y2="28.16326219743059" class="delaunay-line"/>
<line x1="22.98100440005176" y1="6.338010157671067" x2="20.861327343118937" y2="2.9458177730453636" class="delaunay-line"/>
<line x1="20.861327343118937" y1="2.9458177730453636" x2="17.52196426473302" y2="11.413949633545046" class="delaunay-line"/>
<line x1="17.52196426473302" y1="11.413949633545046" x2="22.98100440005176" y2="6.338010157671067" class="delaunay-line"/>
<line x1="11.662904549689715" y1="5.733972611593079" x2="7.880830247292449" y2="7.03624522942171" class="delaunay-line"/>
<line x1="7.880830247292449" y1="7.03624522942171" x2="9.834239174035394" y2="12.70935668301761" class="delaunay-line"/>
<line x1="9.834239174035394" y1="12.70935668301761" x2="11.662904549689715" y2="5.733972611593079" class="delaunay-line"/>
<line x1="7.880830247292449" y1="7.03624522942171" x2="6.727816499494773" y2="8.579491086068037" class="delaunay-line"/>
<line x1="6.727816499494773" y1="8.579491086068037" x2="9.834239174035394" y2="12.70935668301761" class="delaunay-line"/>
<line x1="9.834239174035394" y1="12.70935668301761" x2="7.880830247292449" y2="7.03624522942171" class="delaunay-line"/>
<line x1="2.9457421970975064" y1="9.881763703896665" x2="7.609496884926025" y2="20.826097241546407" class="delaunay-line"/>
<line x1="7.609496884926025" y1="20.826097241546407" x2="7.190958042461273" y2="14.840712939987462" class="delaunay-line"/>
<line x1="7.190958042461273" y1="14.840712939987462" x2="2.9457421970975064" y2="9.881763703896665" class="delaunay-line"/>
<line x1="7.190958042461273" y1="14.840712939987462" x2="7.609496884926025" y2="20.826097241546407" class="delaunay-line"/>
<line x1="7.609496884926025" y1="20.826097241546407" x2="15.59000928700462" y2="20.2680454515934" class="delaunay-line"/>
<line x1="15.59000928700462" y1="20.2680454515934" x2="7.190958042461273" y2="14.840712939987462" class="delaunay-line"/>
<line x1="29.12548505684977" y1="16.536826215522233" x2="29.12548505684977" y2="12.536826215522233" class="delaunay-line"/>
<line x1="29.12548505684977" y1="12.536826215522233" x2="23.907209490013276" y2="14.764866435412221" class="delaunay-line"/>
<line x1="23.907209490013276" y1="14.764866435412221" x2="29.12548505684977" y2="16.536826215522233" class="delaunay-line"/>
<line x1="23.907209490013276" y1="14.764866435412221" x2="29.12548505684977" y2="12.536826215522233" class="delaunay-line"/>
<line x1="29.12548505684977" y1="12.536826215522233" x2="23.48909563694266" y2="10.786778853939127" class="delaunay-line"/>
<line x1="23.48909563694266" y1="10.786778853939127" x2="23.907209490013276" y2="14.764866435412221" class="delaunay-line"/>
<line x1="23.48909563694266" y1="10.786778853939127" x2="29.12548505684977" y2="12.536826215522233" class="delaunay-line"/>
<line x1="29.12548505684977" y1="12.536826215522233" x2="22.98100440005176" y2="6.338010157671067" class="delaunay-line"/>
<line x1="22.98100440005176" y1="6.338010157671067" x2="23.48909563694266" y2="10.786778853939127" class="delaunay-line"/>
<line x1="22.98100440005176" y1="6.338010157671067" x2="25.949615920057497" y2="-0.23369781235386644" class="delaunay-line"/>
<line x1="25.949615920057497" y1="-0.23369781235386644" x2="20.861327343118937" y2="2.9458177730453636" class="delaunay-line"/>
<line x1="20.861327343118937" y1="2.9458177730453636" x2="22.98100440005176" y2="6.338010157671067" class="delaunay-line"/>
<line x1="21.533491180912776" y1="23.435197675790256" x2="29.12548505684977" y2="16.536826215522233" class="delaunay-line"/>
<line x1="29.12548505684977" y1="16.536826215522233" x2="23.907209490013276" y2="14.764866435412221" class="delaunay-line"/>
<line x1="23.907209490013276" y1="14.764866435412221" x2="21.533491180912776" y2="23.435197675790256" class="delaunay-line"/>
<line x1="17.83952232895883" y1="28.16326219743059" x2="24.685534195339663" y2="25.897843577092885" class="delaunay-line"/>
<line x1="24.685534195339663" y1="25.897843577092885" x2="21.533491180912776" y2="23.435197675790256" class="delaunay-line"/>
<line x1="21.533491180912776" y1="23.435197675790256" x2="17.83952232895883" y2="28.16326219743059" class="delaunay-line"/>
<line x1="21.533491180912776" y1="23.435197675790256" x2="27.44492867397521" y2="24.639379397691876" class="delaunay-line"/>
<line x1="27.44492867397521" y1="24.639379397691876" x2="29.12548505684977" y2="16.536826215522233" class="delaunay-line"/>
<line x1="29.12548505684977" y1="16.536826215522233" x2="21.533491180912776" y2="23.435197675790256" class="delaunay-line"/>
<line x1="4.774407572751832" y1="2.9063796324721363" x2="2.9457421970975064" y2="9.881763703896665" class="delaunay-line"/>
<line x1="2.9457421970975064" y1="9.881763703896665" x2="6.727816499494773" y2="8.579491086068037" class="delaunay-line"/>
<line x1="6.727816499494773" y1="8.579491086068037" x2="4.774407572751832" y2="2.9063796324721363" class="delaunay-line"/>
<line x1="6.727816499494773" y1="8.579491086068037" x2="2.9457421970975064" y2="9.881763703896665" class="delaunay-line"/>
<line x1="2.9457421970975064" y1="9.881763703896665" x2="7.190958042461273" y2="14.840712939987462" class="delaunay-line"/>
<line x1="7.190958042461273" y1="14.840712939987462" x2="6.727816499494773" y2="8.579491086068037" class="delaunay-line"/>
<line x1="16.238307988704012" y1="30.590490170736558" x2="17.83952232895883" y2="28.16326219743059" class="delaunay-line"/>
<line x1="17.83952232895883" y1="28.16326219743059" x2="13.112458960789812" y2="23.226451343117038" class="delaunay-line"/>
<line x1="13.112458960789812" y1="23.226451343117038" x2="16.238307988704012" y2="30.590490170736558" class="delaunay-line"/>
<line x1="13.112458960789812" y1="23.226451343117038" x2="17.83952232895883" y2="28.16326219743059" class="delaunay-line"/>
<line x1="17.83952232895883" y1="28.16326219743059" x2="15.59000928700462" y2="20.2680454515934" class="delaunay-line"/>
<line x1="15.59000928700462" y1="20.2680454515934" x2="13.112458960789812" y2="23.226451343117038" class="delaunay-line"/>
<line x1="29.12548505684977" y1="12.536826215522233" x2="28.06929297699032" y2="3.158494572271837" class="delaunay-line"/>
<line x1="28.06929297699032" y1="3.158494572271837" x2="22.98100440005176" y2="6.338010157671067" class="delaunay-line"/>
<line x1="22.98100440005176" y1="6.338010157671067" x2="29.12548505684977" y2="12.536826215522233" class="delaunay-line"/>
<line x1="24.685534195339663" y1="25.897843577092885" x2="27.44492867397521" y2="24.639379397691876" class="delaunay-line"/>
<line x1="27.44492867397521" y1="24.639379397691876" x2="21.533491180912776" y2="23.435197675790256" class="delaunay-line"/>
<line x1="21.533491180912776" y1="23.435197675790256" x2="24.685534195339663" y2="25.897843577092885" class="delaunay-line"/>
<line x1="0" y1="36" x2="7.589429840075172" y2="25.570838114052687" class="delaunay-line"/>
<line x1="7.589429840075172" y1="25.570838114052687" x2="7.609496884926025" y2="20.826097241546407" class="delaunay-line"/>
<line x1="7.609496884926025" y1="20.826097241546407" x2="0" y2="36" class="delaunay-line"/>
<line x1="7.609496884926025" y1="20.826097241546407" x2="7.589429840075172" y2="25.570838114052687" class="delaunay-line"/>
<line x1="7.589429840075172" y1="25.570838114052687" x2="13.112458960789812" y2="23.226451343117038" class="delaunay-line"/>
<line x1="13.112458960789812" y1="23.226451343117038" x2="7.609496884926025" y2="20.826097241546407" class="delaunay-line"/>
<line x1="7.880830247292449" y1="7.03624522942171" x2="4.774407572751832" y2="2.9063796324721363" class="delaunay-line"/>
<line x1="4.774407572751832" y1="2.9063796324721363" x2="6.727816499494773" y2="8.579491086068037" class="delaunay-line"/>
<line x1="6.727816499494773" y1="8.579491086068037" x2="7.880830247292449" y2="7.03624522942171" class="delaunay-line"/>
<line x1="11.662904549689715" y1="5.733972611593079" x2="4.774407572751832" y2="2.9063796324721363" class="delaunay-line"/>
<line x1="4.774407572751832" y1="2.9063796324721363" x2="7.880830247292449" y2="7.03624522942171" class="delaunay-line"/>
<line x1="7.880830247292449" y1="7.03624522942171" x2="11.662904549689715" y2="5.733972611593079" class="delaunay-line"/>
<line x1="20.861327343118937" y1="2.9458177730453636" x2="4.774407572751832" y2="2.9063796324721363" class="delaunay-line"/>
<line x1="4.774407572751832" y1="2.9063796324721363" x2="11.662904549689715" y2="5.733972611593079" class="delaunay-line"/>
<line x1="11.662904549689715" y1="5.733972611593079" x2="20.861327343118937" y2="2.9458177730453636" class="delaunay-line"/>
<line x1="28.06929297699032" y1="3.158494572271837" x2="25.949615920057497" y2="-0.23369781235386644" class="delaunay-line"/>
<line x1="25.949615920057497" y1="-0.23369781235386644" x2="22.98100440005176" y2="6.338010157671067" class="delaunay-line"/>
<line x1="22.98100440005176" y1="6.338010157671067" x2="28.06929297699032" y2="3.158494572271837" class="delaunay-line"/>
<line x1="20.861327343118937" y1="2.9458177730453636" x2="25.949615920057497" y2="-0.23369781235386644" class="delaunay-line"/>
<line x1="25.949615920057497" y1="-0.23369781235386644" x2="4.774407572751832" y2="2.9063796324721363" class="delaunay-line"/>
<line x1="4.774407572751832" y1="2.9063796324721363" x2="20.861327343118937" y2="2.9458177730453636" class="delaunay-line"/>
<line x1="7.589429840075172" y1="25.570838114052687" x2="16.238307988704012" y2="30.590490170736558" class="delaunay-line"/>
<line x1="16.238307988704012" y1="30.590490170736558" x2="13.112458960789812" y2="23.226451343117038" class="delaunay-line"/>
<line x1="13.112458960789812" y1="23.226451343117038" x2="7.589429840075172" y2="25.570838114052687" class="delaunay-line"/>
<line x1="20.991565343385716" y1="30.62590809873322" x2="26.14265605614658" y2="28.421453700089145" class="delaunay-line"/>
<line x1="26.14265605614658" y1="28.421453700089145" x2="24.685534195339663" y2="25.897843577092885" class="delaunay-line"/>
<line x1="24.685534195339663" y1="25.897843577092885" x2="20.991565343385716" y2="30.62590809873322" class="delaunay-line"/>
<line x1="24.685534195339663" y1="25.897843577092885" x2="26.14265605614658" y2="28.421453700089145" class="delaunay-line"/>
<line x1="26.14265605614658" y1="28.421453700089145" x2="27.44492867397521" y2="24.639379397691876" class="delaunay-line"/>
<line x1="27.44492867397521" y1="24.639379397691876" x2="24.685534195339663" y2="25.897843577092885" class="delaunay-line"/>
<line x1="20.991565343385716" y1="30.62590809873322" x2="24.685534195339663" y2="25.897843577092885" class="delaunay-line"/>
<line x1="24.685534195339663" y1="25.897843577092885" x2="17.83952232895883" y2="28.16326219743059" class="delaunay-line"/>
<line x1="17.83952232895883" y1="28.16326219743059" x2="20.991565343385716" y2="30.62590809873322" class="delaunay-line"/>
<line x1="16.238307988704012" y1="30.590490170736558" x2="20.991565343385716" y2="30.62590809873322" class="delaunay-line"/>
<line x1="20.991565343385716" y1="30.62590809873322" x2="17.83952232895883" y2="28.16326219743059" class="delaunay-line"/>
<line x1="17.83952232895883" y1="28.16326219743059" x2="16.238307988704012" y2="30.590490170736558" class="delaunay-line"/>
<line x1="29.12548505684977" y1="16.536826215522233" x2="35.12548505684977" y2="12.536826215522233" class="delaunay-line"/>
<line x1="35.12548505684977" y1="12.536826215522233" x2="29.12548505684977" y2="12.536826215522233" class="delaunay-line"/>
<line x1="29.12548505684977" y1="12.536826215522233" x2="29.12548505684977" y2="16.536826215522233" class="delaunay-line"/>
<line x1="29.12548505684977" y1="12.536826215522233" x2="35.12548505684977" y2="12.536826215522233" class="delaunay-line"/>
<line x1="35.12548505684977" y1="12.536826215522233" x2="28.06929297699032" y2="3.158494572271837" class="delaunay-line"/>
<line x1="28.06929297699032" y1="3.158494572271837" x2="29.12548505684977" y2="12.536826215522233" class="delaunay-line"/>
<line x1="28.06929297699032" y1="3.158494572271837" x2="36" y2="0" class="delaunay-line"/>
<line x1="36" y1="0" x2="25.949615920057497" y2="-0.23369781235386644" class="delaunay-line"/>
<line x1="25.949615920057497" y1="-0.23369781235386644" x2="28.06929297699032" y2="3.158494572271837" class="delaunay-line"/>
<line x1="35.12548505684977" y1="16.536826215522233" x2="35.12548505684977" y2="12.536826215522233" class="delaunay-line"/>
<line x1="35.12548505684977" y1="12.536826215522233" x2="29.12548505684977" y2="16.536826215522233" class="delaunay-line"/>
<line x1="29.12548505684977" y1="16.536826215522233" x2="35.12548505684977" y2="16.536826215522233" class="delaunay-line"/>
<line x1="35.12548505684977" y1="16.536826215522233" x2="29.12548505684977" y2="16.536826215522233" class="delaunay-line"/>
<line x1="29.12548505684977" y1="16.536826215522233" x2="33.118040127571106" y2="26.592788324434814" class="delaunay-line"/>
<line x1="33.118040127571106" y1="26.592788324434814" x2="35.12548505684977" y2="16.536826215522233" class="delaunay-line"/>
<line x1="33.118040127571106" y1="26.592788324434814" x2="29.12548505684977" y2="16.536826215522233" class="delaunay-line"/>
<line x1="29.12548505684977" y1="16.536826215522233" x2="27.44492867397521" y2="24.639379397691876" class="delaunay-line"/>
<line x1="27.44492867397521" y1="24.639379397691876" x2="33.118040127571106" y2="26.592788324434814" class="delaunay-line"/>
<line x1="4.774407572751832" y1="2.9063796324721363" x2="0.9923332703545642" y2="4.208652250300764" class="delaunay-line"/>
<line x1="0.9923332703545642" y1="4.208652250300764" x2="2.9457421970975064" y2="9.881763703896665" class="delaunay-line"/>
<line x1="2.9457421970975064" y1="9.881763703896665" x2="4.774407572751832" y2="2.9063796324721363" class="delaunay-line"/>
<line x1="2.9457421970975064" y1="9.881763703896665" x2="0" y2="36" class="delaunay-line"/>
<line x1="0" y1="36" x2="7.609496884926025" y2="20.826097241546407" class="delaunay-line"/>
<line x1="7.609496884926025" y1="20.826097241546407" x2="2.9457421970975064" y2="9.881763703896665" class="delaunay-line"/>
<line x1="7.589429840075172" y1="25.570838114052687" x2="10.71527886798937" y2="32.93487694167221" class="delaunay-line"/>
<line x1="10.71527886798937" y1="32.93487694167221" x2="16.238307988704012" y2="30.590490170736558" class="delaunay-line"/>
<line x1="16.238307988704012" y1="30.590490170736558" x2="7.589429840075172" y2="25.570838114052687" class="delaunay-line"/>
<line x1="16.238307988704012" y1="30.590490170736558" x2="10.71527886798937" y2="32.93487694167221" class="delaunay-line"/>
<line x1="10.71527886798937" y1="32.93487694167221" x2="20.991565343385716" y2="30.62590809873322" class="delaunay-line"/>
<line x1="20.991565343385716" y1="30.62590809873322" x2="16.238307988704012" y2="30.590490170736558" class="delaunay-line"/>
<line x1="31.815767509742482" y1="30.374862626832083" x2="33.118040127571106" y2="26.592788324434814" class="delaunay-line"/>
<line x1="33.118040127571106" y1="26.592788324434814" x2="26.14265605614658" y2="28.421453700089145" class="delaunay-line"/>
<line x1="26.14265605614658" y1="28.421453700089145" x2="31.815767509742482" y2="30.374862626832083" class="delaunay-line"/>
<line x1="26.14265605614658" y1="28.421453700089145" x2="33.118040127571106" y2="26.592788324434814" class="delaunay-line"/>
<line x1="33.118040127571106" y1="26.592788324434814" x2="27.44492867397521" y2="24.639379397691876" class="delaunay-line"/>
<line x1="27.44492867397521" y1="24.639379397691876" x2="26.14265605614658" y2="28.421453700089145" class="delaunay-line"/>
<line x1="25.949615920057497" y1="-0.23369781235386644" x2="0" y2="0" class="delaunay-line"/>
<line x1="0" y1="0" x2="4.774407572751832" y2="2.9063796324721363" class="delaunay-line"/>
<line x1="4.774407572751832" y1="2.9063796324721363" x2="25.949615920057497" y2="-0.23369781235386644" class="delaunay-line"/>
<line x1="4.774407572751832" y1="2.9063796324721363" x2="0" y2="0" class="delaunay-line"/>
<line x1="0" y1="0" x2="0.9923332703545642" y2="4.208652250300764" class="delaunay-line"/>
<line x1="0.9923332703545642" y1="4.208652250300764" x2="4.774407572751832" y2="2.9063796324721363" class="delaunay-line"/>
<line x1="36" y1="36" x2="31.815767509742482" y2="30.374862626832083" class="delaunay-line"/>
<line x1="31.815767509742482" y1="30.374862626832083" x2="20.991565343385716" y2="30.62590809873322" class="delaunay-line"/>
<line x1="20.991565343385716" y1="30.62590809873322" x2="36" y2="36" class="delaunay-line"/>
<line x1="20.991565343385716" y1="30.62590809873322" x2="31.815767509742482" y2="30.374862626832083" class="delaunay-line"/>
<line x1="31.815767509742482" y1="30.374862626832083" x2="26.14265605614658" y2="28.421453700089145" class="delaunay-line"/>
<line x1="26.14265605614658" y1="28.421453700089145" x2="20.991565343385716" y2="30.62590809873322" class="delaunay-line"/>
<line x1="35.12548505684977" y1="12.536826215522233" x2="36" y2="0" class="delaunay-line"/>
<line x1="36" y1="0" x2="28.06929297699032" y2="3.158494572271837" class="delaunay-line"/>
<line x1="28.06929297699032" y1="3.158494572271837" x2="35.12548505684977" y2="12.536826215522233" class="delaunay-line"/>
<line x1="35.12548505684977" y1="16.536826215522233" x2="36" y2="0" class="delaunay-line"/>
<line x1="36" y1="0" x2="35.12548505684977" y2="12.536826215522233" class="delaunay-line"/>
<line x1="35.12548505684977" y1="12.536826215522233" x2="35.12548505684977" y2="16.536826215522233" class="delaunay-line"/>
<line x1="0.9923332703545642" y1="4.208652250300764" x2="0" y2="36" class="delaunay-line"/>
<line x1="0" y1="36" x2="2.9457421970975064" y2="9.881763703896665" class="delaunay-line"/>
<line x1="2.9457421970975064" y1="9.881763703896665" x2="0.9923332703545642" y2="4.208652250300764" class="delaunay-line"/>
<line x1="7.589429840075172" y1="25.570838114052687" x2="0" y2="36" class="delaunay-line"/>
<line x1="0" y1="36" x2="10.71527886798937" y2="32.93487694167221" class="delaunay-line"/>
<line x1="10.71527886798937" y1="32.93487694167221" x2="7.589429840075172" y2="25.570838114052687" class="delaunay-line"/>
<line x1="10.71527886798937" y1="32.93487694167221" x2="36" y2="36" class="delaunay-line"/>
<line x1="36" y1="36" x2="20.991565343385716" y2="30.62590809873322" class="delaunay-line"/>
<line x1="20.991565343385716" y1="30.62590809873322" x2="10.71527886798937" y2="32.93487694167221" class="delaunay-line"/>
<line x1="0" y1="0" x2="0" y2="36" class="delaunay-line"/>
<line x1="0" y1="36" x2="0.9923332703545642" y2="4.208652250300764" class="delaunay-line"/>
<line x1="0.9923332703545642" y1="4.208652250300764" x2="0" y2="0" class="delaunay-line"/>
<line x1="0" y1="36" x2="36" y2="36" class="delaunay-line"/>
<line x1="36" y1="36" x2="10.71527886798937" y2="32.93487694167221" class="delaunay-line"/>
<line x1="10.71527886798937" y1="32.93487694167221" x2="0" y2="36" class="delaunay-line"/>
<line x1="31.815767509742482" y1="30.374862626832083" x2="36" y2="36" class="delaunay-line"/>
<line x1="36" y1="36" x2="33.118040127571106" y2="26.592788324434814" class="delaunay-line"/>
<line x1="33.118040127571106" y1="26.592788324434814" x2="31.815767509742482" y2="30.374862626832083" class="delaunay-line"/>
<line x1="33.118040127571106" y1="26.592788324434814" x2="36" y2="36" class="delaunay-line"/>
<line x1="36" y1="36" x2="35.12548505684977" y2="16.536826215522233" class="delaunay-line"/>
<line x1="35.12548505684977" y1="16.536826215522233" x2="33.118040127571106" y2="26.592788324434814" class="delaunay-line"/>
<line x1="35.12548505684977" y1="16.536826215522233" x2="36" y2="36" class="delaunay-line"/>
<line x1="36" y1="36" x2="36" y2="0" class="delaunay-line"/>
<line x1="36" y1="0" x2="35.12548505684977" y2="16.536826215522233" class="delaunay-line"/>
</g>
<g id="layer-area" class="layer ">
</g>
<g id="layer-building" class="layer ">
<polygon points="17.940078117803633,15.39203721501814 17.52196426473302,11.413949633545046 23.48909563694266,10.786778853939127 23.907209490013276,14.764866435412221" class="terrain-solid"/>
<text x="20.714586877373147" y="13.089408034478634" class="label">#000000</text>
<polygon points="21.533491180912776,23.435197675790256 24.685534195339663,25.897843577092885 20.991565343385716,30.62590809873322 17.83952232895883,28.16326219743059" class="terrain-solid"/>
<text x="21.262528262149246" y="27.030552887261734" class="label">#000000</text>
<polygon points="7.589429840075172,25.570838114052687 13.112458960789812,23.226451343117038 16.238307988704012,30.590490170736558 10.71527886798937,32.93487694167221" class="terrain-solid"/>
<text x="11.913868914389592" y="28.080664142394625" class="label">#000000</text>
<polygon points="7.880830247292449,7.03624522942171 11.662904549689715,5.733972611593079 13.61631347643266,11.407084065188979 9.834239174035394,12.70935668301761" class="terrain-solid"/>
<text x="10.748571861862555" y="9.221664647305344" class="label">#000000</text>
<polygon points="6.727816499494773,8.579491086068037 2.9457421970975064,9.881763703896665 0.9923332703545642,4.208652250300764 4.774407572751832,2.9063796324721363" class="terrain-solid"/>
<text x="3.860074884924669" y="6.3940716681844005" class="label">#000000</text>
<polygon points="33.118040127571106,26.592788324434814 31.815767509742482,30.374862626832083 26.14265605614658,28.421453700089145 27.44492867397521,24.639379397691876" class="terrain-solid"/>
<text x="29.630348091858846" y="27.507121012261976" class="label">#000000</text>
<polygon points="15.171470444539867,14.282661150034457 15.59000928700462,20.2680454515934 7.609496884926025,20.826097241546407 7.190958042461273,14.840712939987462" class="terrain-solid"/>
<text x="11.390483664732947" y="17.554379195790432" class="label">#000000</text>
<polygon points="29.12548505684977,16.536826215522233 29.12548505684977,12.536826215522233 35.12548505684977,12.536826215522233 35.12548505684977,16.536826215522233" class="terrain-solid"/>
<text x="32.12548505684977" y="14.536826215522233" class="label">#000000</text>
<polygon points="22.98100440005176,6.338010157671067 20.861327343118937,2.9458177730453636 25.949615920057497,-0.23369781235386644 28.06929297699032,3.158494572271837" class="terrain-solid"/>
<text x="24.465310160054628" y="3.0521561726586004" class="label">#000000</text>
</g>
<g id="layer-wall" class="layer ">
</g>
<g id="layer-tree" class="layer ">
</g>
<g id="layer-rocks" class="layer ">
</g>
<g id="layer-shrub" class="layer ">
</g>
<g id="layer-terrain" class="layer ">
</g>
<g id="layer-clearance" class="layer hidden">
</g>
<g id="layer-models" class="layer ">
</g>
<g id="layer-paths" class="layer ">
</g>
<g id="layer-vectors" class="layer ">
</g>
<g id="layer-los" class="layer ">
</g>
<g id="layer-lof" class="layer ">
</g>

<g id="legend">
<g class="toggle" onclick="toggleLayer('deployment')"><rect x="0.4" y="0.14999999999999997" width="0.4" height="0.4" fill="#222" stroke="#222" stroke-width="0.05"/><text x="1.0" y="0.5499999999999999" class="label">Deployment Zones</text></g>
<g class="toggle" onclick="toggleLayer('grid')"><rect x="0.4" y="0.95" width="0.4" height="0.4" fill="#222" stroke="#222" stroke-width="0.05"/><text x="1.0" y="1.3499999999999999" class="label">0.5 MU Grid</text></g>
<g class="toggle" onclick="toggleLayer('delaunay')"><rect x="0.4" y="1.7500000000000002" width="0.4" height="0.4" fill="#222" stroke="#222" stroke-width="0.05"/><text x="1.0" y="2.1500000000000004" class="label">Delaunay Mesh</text></g>
<g class="toggle disabled"><rect x="0.4" y="2.55" width="0.4" height="0.4" fill="#222" stroke="#222" stroke-width="0.05"/><text x="1.0" y="2.95" class="label">Area Terrain</text></g>
<g class="toggle" onclick="toggleLayer('building')"><rect x="0.4" y="3.3499999999999996" width="0.4" height="0.4" fill="#222" stroke="#222" stroke-width="0.05"/><text x="1.0" y="3.75" class="label">Buildings</text></g>
<g class="toggle disabled"><rect x="0.4" y="4.1499999999999995" width="0.4" height="0.4" fill="#222" stroke="#222" stroke-width="0.05"/><text x="1.0" y="4.55" class="label">Walls</text></g>
<g class="toggle disabled"><rect x="0.4" y="4.949999999999999" width="0.4" height="0.4" fill="#222" stroke="#222" stroke-width="0.05"/><text x="1.0" y="5.35" class="label">Trees</text></g>
<g class="toggle disabled"><rect x="0.4" y="5.749999999999999" width="0.4" height="0.4" fill="#222" stroke="#222" stroke-width="0.05"/><text x="1.0" y="6.1499999999999995" class="label">Rocks</text></g>
<g class="toggle disabled"><rect x="0.4" y="6.549999999999999" width="0.4" height="0.4" fill="#222" stroke="#222" stroke-width="0.05"/><text x="1.0" y="6.949999999999999" class="label">Shrubs</text></g>
<g class="toggle" onclick="toggleLayer('terrain')"><rect x="0.4" y="7.349999999999999" width="0.4" height="0.4" fill="#222" stroke="#222" stroke-width="0.05"/><text x="1.0" y="7.749999999999999" class="label">Other Terrain</text></g>
<g class="toggle" onclick="toggleLayer('clearance')"><rect x="0.4" y="8.15" width="0.4" height="0.4" fill="#fff" stroke="#222" stroke-width="0.05"/><text x="1.0" y="8.549999999999999" class="label">Clearance Zones</text></g>
<g class="toggle" onclick="toggleLayer('models')"><rect x="0.4" y="8.950000000000001" width="0.4" height="0.4" fill="#222" stroke="#222" stroke-width="0.05"/><text x="1.0" y="9.35" class="label">Models</text></g>
<g class="toggle" onclick="toggleLayer('paths')"><rect x="0.4" y="9.750000000000002" width="0.4" height="0.4" fill="#222" stroke="#222" stroke-width="0.05"/><text x="1.0" y="10.15" class="label">Paths</text></g>
<g class="toggle" onclick="toggleLayer('vectors')"><rect x="0.4" y="10.550000000000002" width="0.4" height="0.4" fill="#222" stroke="#222" stroke-width="0.05"/><text x="1.0" y="10.950000000000001" class="label">Vectors</text></g>
<g class="toggle" onclick="toggleLayer('los')"><rect x="0.4" y="11.350000000000003" width="0.4" height="0.4" fill="#222" stroke="#222" stroke-width="0.05"/><text x="1.0" y="11.750000000000002" class="label">LOS</text></g>
<g class="toggle" onclick="toggleLayer('lof')"><rect x="0.4" y="12.150000000000004" width="0.4" height="0.4" fill="#222" stroke="#222" stroke-width="0.05"/><text x="1.0" y="12.550000000000002" class="label">LOF</text></g>
</g>
</svg>