<svg xmlns="http://www.w3.org/2000/svg" viewBox="0 0 72 48" width="2880" height="1920" font-family="Arial" font-size="0.6">
<defs>
  <style><![CDATA[
    .layer { display: inline; }
    .layer.hidden { display: none; }
    .grid-line { stroke: #999; stroke-width: 0.02; opacity: 0.2; }
    .grid-line-2mu { stroke: #666; stroke-width: 0.04; opacity: 0.4; }
    .grid-line-6mu { stroke: #333; stroke-width: 0.08; opacity: 0.6; }
    .delaunay-line { stroke: #4a6fa5; stroke-width: 0.03; opacity: 0.3; }
    #layer-area { opacity: 0.8; }
    #layer-building, #layer-wall, #layer-tree, #layer-rocks, #layer-shrub, #layer-terrain { opacity: 0.8; }
    .terrain-area { stroke: none; }
    .terrain-solid { stroke: #000; stroke-width: 0.05; }
    .model { stroke: #ff0000; stroke-width: 2; vector-effect: non-scaling-stroke; }
    .path { fill: none; stroke-width: 0.12; }
    .vector { stroke-width: 0.1; }
    .los-ray { stroke-width: 0.08; stroke-dasharray: 0.2 0.2; }
    .lof-ray { stroke-width: 0.08; stroke-dasharray: 0.3 0.15; }
    .label { fill: #111 !important; font-size: 0.6px; }
    .toggle { cursor: pointer; }
    .toggle.disabled { cursor: default; }
    .toggle.disabled rect { stroke: #ccc; fill: #fff; }
    .toggle.disabled text { fill: #ccc; }
#layer-area { fill: #C49A6C; }
  ]]></style>
</defs>
<rect x="0" y="0" width="72" height="48" fill="#ffffff" stroke="#111" stroke-width="0.05"/>
<script><![CDATA[
      function toggleLayer(id) {
        var layer = document.getElementById('layer-' + id);
        if (!layer) return;
        if (layer.classList.contains('hidden')) {
          layer.classList.remove('hidden');
        } else {
          layer.classList.add('hidden');
        }
      }
    ]]></script>
<text x="0.4" y="47.6" class="label">VERY_LARGE battlefield_A40-B0-W0-R0-S0-T0</text>
<g id="layer-deployment" class="layer ">
</g>
<g id="layer-grid" class="layer ">
<line x1="0" y1="0" x2="0" y2="48" class="grid-line-6mu"/>
<line x1="0.5" y1="0" x2="0.5" y2="48" class="grid-line"/>
<line x1="1" y1="0" x2="1" y2="48" class="grid-line"/>
<line x1="1.5" y1="0" x2="1.5" y2="48" class="grid-line"/>
<line x1="2" y1="0" x2="2" y2="48" class="grid-line-2mu"/>
<line x1="2.5" y1="0" x2="2.5" y2="48" class="grid-line"/>
<line x1="3" y1="0" x2="3" y2="48" class="grid-line"/>
<line x1="3.5" y1="0" x2="3.5" y2="48" class="grid-line"/>
<line x1="4" y1="0" x2="4" y2="48" class="grid-line-2mu"/>
<line x1="4.5" y1="0" x2="4.5" y2="48" class="grid-line"/>
<line x1="5" y1="0" x2="5" y2="48" class="grid-line"/>
<line x1="5.5" y1="0" x2="5.5" y2="48" class="grid-line"/>
<line x1="6" y1="0" x2="6" y2="48" class="grid-line-6mu"/>
<line x1="6.5" y1="0" x2="6.5" y2="48" class="grid-line"/>
<line x1="7" y1="0" x2="7" y2="48" class="grid-line"/>
<line x1="7.5" y1="0" x2="7.5" y2="48" class="grid-line"/>
<line x1="8" y1="0" x2="8" y2="48" class="grid-line-2mu"/>
<line x1="8.5" y1="0" x2="8.5" y2="48" class="grid-line"/>
<line x1="9" y1="0" x2="9" y2="48" class="grid-line"/>
<line x1="9.5" y1="0" x2="9.5" y2="48" class="grid-line"/>
<line x1="10" y1="0" x2="10" y2="48" class="grid-line-2mu"/>
<line x1="10.5" y1="0" x2="10.5" y2="48" class="grid-line"/>
<line x1="11" y1="0" x2="11" y2="48" class="grid-line"/>
<line x1="11.5" y1="0" x2="11.5" y2="48" class="grid-line"/>
<line x1="12" y1="0" x2="12" y2="48" class="grid-line-6mu"/>
<line x1="12.5" y1="0" x2="12.5" y2="48" class="grid-line"/>
<line x1="13" y1="0" x2="13" y2="48" class="grid-line"/>
<line x1="13.5" y1="0" x2="13.5" y2="48" class="grid-line"/>
<line x1="14" y1="0" x2="14" y2="48" class="grid-line-2mu"/>
<line x1="14.5" y1="0" x2="14.5" y2="48" class="grid-line"/>
<line x1="15" y1="0" x2="15" y2="48" class="grid-line"/>
<line x1="15.5" y1="0" x2="15.5" y2="48" class="grid-line"/>
<line x1="16" y1="0" x2="16" y2="48" class="grid-line-2mu"/>
<line x1="16.5" y1="0" x2="16.5" y2="48" class="grid-line"/>
<line x1="17" y1="0" x2="17" y2="48" class="grid-line"/>
<line x1="17.5" y1="0" x2="17.5" y2="48" class="grid-line"/>
<line x1="18" y1="0" x2="18" y2="48" class="grid-line-6mu"/>
<line x1="18.5" y1="0" x2="18.5" y2="48" class="grid-line"/>
<line x1="19" y1="0" x2="19" y2="48" class="grid-line"/>
<line x1="19.5" y1="0" x2="19.5" y2="48" class="grid-line"/>
<line x1="20" y1="0" x2="20" y2="48" class="grid-line-2mu"/>
<line x1="20.5" y1="0" x2="20.5" y2="48" class="grid-line"/>
<line x1="21" y1="0" x2="21" y2="48" class="grid-line"/>
<line x1="21.5" y1="0" x2="21.5" y2="48" class="grid-line"/>
<line x1="22" y1="0" x2="22" y2="48" class="grid-line-2mu"/>
<line x1="22.5" y1="0" x2="22.5" y2="48" class="grid-line"/>
<line x1="23" y1="0" x2="23" y2="48" class="grid-line"/>
<line x1="23.5" y1="0" x2="23.5" y2="48" class="grid-line"/>
<line x1="24" y1="0" x2="24" y2="48" class="grid-line-6mu"/>
<line x1="24.5" y1="0" x2="24.5" y2="48" class="grid-line"/>
<line x1="25" y1="0" x2="25" y2="48" class="grid-line"/>
<line x1="25.5" y1="0" x2="25.5" y2="48" class="grid-line"/>
<line x1="26" y1="0" x2="26" y2="48" class="grid-line-2mu"/>
<line x1="26.5" y1="0" x2="26.5" y2="48" class="grid-line"/>
<line x1="27" y1="0" x2="27" y2="48" class="grid-line"/>
<line x1="27.5" y1="0" x2="27.5" y2="48" class="grid-line"/>
<line x1="28" y1="0" x2="28" y2="48" class="grid-line-2mu"/>
<line x1="28.5" y1="0" x2="28.5" y2="48" class="grid-line"/>
<line x1="29" y1="0" x2="29" y2="48" class="grid-line"/>
<line x1="29.5" y1="0" x2="29.5" y2="48" class="grid-line"/>
<line x1="30" y1="0" x2="30" y2="48" class="grid-line-6mu"/>
<line x1="30.5" y1="0" x2="30.5" y2="48" class="grid-line"/>
<line x1="31" y1="0" x2="31" y2="48" class="grid-line"/>
<line x1="31.5" y1="0" x2="31.5" y2="48" class="grid-line"/>
<line x1="32" y1="0" x2="32" y2="48" class="grid-line-2mu"/>
<line x1="32.5" y1="0" x2="32.5" y2="48" class="grid-line"/>
<line x1="33" y1="0" x2="33" y2="48" class="grid-line"/>
<line x1="33.5" y1="0" x2="33.5" y2="48" class="grid-line"/>
<line x1="34" y1="0" x2="34" y2="48" class="grid-line-2mu"/>
<line x1="34.5" y1="0" x2="34.5" y2="48" class="grid-line"/>
<line x1="35" y1="0" x2="35" y2="48" class="grid-line"/>
<line x1="35.5" y1="0" x2="35.5" y2="48" class="grid-line"/>
<line x1="36" y1="0" x2="36" y2="48" class="grid-line-6mu"/>
<line x1="36.5" y1="0" x2="36.5" y2="48" class="grid-line"/>
<line x1="37" y1="0" x2="37" y2="48" class="grid-line"/>
<line x1="37.5" y1="0" x2="37.5" y2="48" class="grid-line"/>
<line x1="38" y1="0" x2="38" y2="48" class="grid-line-2mu"/>
<line x1="38.5" y1="0" x2="38.5" y2="48" class="grid-line"/>
<line x1="39" y1="0" x2="39" y2="48" class="grid-line"/>
<line x1="39.5" y1="0" x2="39.5" y2="48" class="grid-line"/>
<line x1="40" y1="0" x2="40" y2="48" class="grid-line-2mu"/>
<line x1="40.5" y1="0" x2="40.5" y2="48" class="grid-line"/>
<line x1="41" y1="0" x2="41" y2="48" class="grid-line"/>
<line x1="41.5" y1="0" x2="41.5" y2="48" class="grid-line"/>
<line x1="42" y1="0" x2="42" y2="48" class="grid-line-6mu"/>
<line x1="42.5" y1="0" x2="42.5" y2="48" class="grid-line"/>
<line x1="43" y1="0" x2="43" y2="48" class="grid-line"/>
<line x1="43.5" y1="0" x2="43.5" y2="48" class="grid-line"/>
<line x1="44" y1="0" x2="44" y2="48" class="grid-line-2mu"/>
<line x1="44.5" y1="0" x2="44.5" y2="48" class="grid-line"/>
<line x1="45" y1="0" x2="45" y2="48" class="grid-line"/>
<line x1="45.5" y1="0" x2="45.5" y2="48" class="grid-line"/>
<line x1="46" y1="0" x2="46" y2="48" class="grid-line-2mu"/>
<line x1="46.5" y1="0" x2="46.5" y2="48" class="grid-line"/>
<line x1="47" y1="0" x2="47" y2="48" class="grid-line"/>
<line x1="47.5" y1="0" x2="47.5" y2="48" class="grid-line"/>
<line x1="48" y1="0" x2="48" y2="48" class="grid-line-6mu"/>
<line x1="48.5" y1="0" x2="48.5" y2="48" class="grid-line"/>
<line x1="49" y1="0" x2="49" y2="48" class="grid-line"/>
<line x1="49.5" y1="0" x2="49.5" y2="48" class="grid-line"/>
<line x1="50" y1="0" x2="50" y2="48" class="grid-line-2mu"/>
<line x1="50.5" y1="0" x2="50.5" y2="48" class="grid-line"/>
<line x1="51" y1="0" x2="51" y2="48" class="grid-line"/>
<line x1="51.5" y1="0" x2="51.5" y2="48" class="grid-line"/>
<line x1="52" y1="0" x2="52" y2="48" class="grid-line-2mu"/>
<line x1="52.5" y1="0" x2="52.5" y2="48" class="grid-line"/>
<line x1="53" y1="0" x2="53" y2="48" class="grid-line"/>
<line x1="53.5" y1="0" x2="53.5" y2="48" class="grid-line"/>
<line x1="54" y1="0" x2="54" y2="48" class="grid-line-6mu"/>
<line x1="54.5" y1="0" x2="54.5" y2="48" class="grid-line"/>
<line x1="55" y1="0" x2="55" y2="48" class="grid-line"/>
<line x1="55.5" y1="0" x2="55.5" y2="48" class="grid-line"/>
<line x1="56" y1="0" x2="56" y2="48" class="grid-line-2mu"/>
<line x1="56.5" y1="0" x2="56.5" y2="48" class="grid-line"/>
<line x1="57" y1="0" x2="57" y2="48" class="grid-line"/>
<line x1="57.5" y1="0" x2="57.5" y2="48" class="grid-line"/>
<line x1="58" y1="0" x2="58" y2="48" class="grid-line-2mu"/>
<line x1="58.5" y1="0" x2="58.5" y2="48" class="grid-line"/>
<line x1="59" y1="0" x2="59" y2="48" class="grid-line"/>
<line x1="59.5" y1="0" x2="59.5" y2="48" class="grid-line"/>
<line x1="60" y1="0" x2="60" y2="48" class="grid-line-6mu"/>
<line x1="60.5" y1="0" x2="60.5" y2="48" class="grid-line"/>
<line x1="61" y1="0" x2="61" y2="48" class="grid-line"/>
<line x1="61.5" y1="0" x2="61.5" y2="48" class="grid-line"/>
<line x1="62" y1="0" x2="62" y2="48" class="grid-line-2mu"/>
<line x1="62.5" y1="0" x2="62.5" y2="48" class="grid-line"/>
<line x1="63" y1="0" x2="63" y2="48" class="grid-line"/>
<line x1="63.5" y1="0" x2="63.5" y2="48" class="grid-line"/>
<line x1="64" y1="0" x2="64" y2="48" class="grid-line-2mu"/>
<line x1="64.5" y1="0" x2="64.5" y2="48" class="grid-line"/>
<line x1="65" y1="0" x2="65" y2="48" class="grid-line"/>
<line x1="65.5" y1="0" x2="65.5" y2="48" class="grid-line"/>
<line x1="66" y1="0" x2="66" y2="48" class="grid-line-6mu"/>
<line x1="66.5" y1="0" x2="66.5" y2="48" class="grid-line"/>
<line x1="67" y1="0" x2="67" y2="48" class="grid-line"/>
<line x1="67.5" y1="0" x2="67.5" y2="48" class="grid-line"/>
<line x1="68" y1="0" x2="68" y2="48" class="grid-line-2mu"/>
<line x1="68.5" y1="0" x2="68.5" y2="48" class="grid-line"/>
<line x1="69" y1="0" x2="69" y2="48" class="grid-line"/>
<line x1="69.5" y1="0" x2="69.5" y2="48" class="grid-line"/>
<line x1="70" y1="0" x2="70" y2="48" class="grid-line-2mu"/>
<line x1="70.5" y1="0" x2="70.5" y2="48" class="grid-line"/>
<line x1="71" y1="0" x2="71" y2="48" class="grid-line"/>
<line x1="71.5" y1="0" x2="71.5" y2="48" class="grid-line"/>
<line x1="72" y1="0" x2="72" y2="48" class="grid-line-6mu"/>
<line x1="0" y1="0" x2="72" y2="0" class="grid-line-6mu"/>
<line x1="0" y1="0.5" x2="72" y2="0.5" class="grid-line"/>
<line x1="0" y1="1" x2="72" y2="1" class="grid-line"/>
<line x1="0" y1="1.5" x2="72" y2="1.5" class="grid-line"/>
<line x1="0" y1="2" x2="72" y2="2" class="grid-line-2mu"/>
<line x1="0" y1="2.5" x2="72" y2="2.5" class="grid-line"/>
<line x1="0" y1="3" x2="72" y2="3" class="grid-line"/>
<line x1="0" y1="3.5" x2="72" y2="3.5" class="grid-line"/>
<line x1="0" y1="4" x2="72" y2="4" class="grid-line-2mu"/>
<line x1="0" y1="4.5" x2="72" y2="4.5" class="grid-line"/>
<line x1="0" y1="5" x2="72" y2="5" class="grid-line"/>
<line x1="0" y1="5.5" x2="72" y2="5.5" class="grid-line"/>
<line x1="0" y1="6" x2="72" y2="6" class="grid-line-6mu"/>
<line x1="0" y1="6.5" x2="72" y2="6.5" class="grid-line"/>
<line x1="0" y1="7" x2="72" y2="7" class="grid-line"/>
<line x1="0" y1="7.5" x2="72" y2="7.5" class="grid-line"/>
<line x1="0" y1="8" x2="72" y2="8" class="grid-line-2mu"/>
<line x1="0" y1="8.5" x2="72" y2="8.5" class="grid-line"/>
<line x1="0" y1="9" x2="72" y2="9" class="grid-line"/>
<line x1="0" y1="9.5" x2="72" y2="9.5" class="grid-line"/>
<line x1="0" y1="10" x2="72" y2="10" class="grid-line-2mu"/>
<line x1="0" y1="10.5" x2="72" y2="10.5" class="grid-line"/>
<line x1="0" y1="11" x2="72" y2="11" class="grid-line"/>
<line x1="0" y1="11.5" x2="72" y2="11.5" class="grid-line"/>
<line x1="0" y1="12" x2="72" y2="12" class="grid-line-6mu"/>
<line x1="0" y1="12.5" x2="72" y2="12.5" class="grid-line"/>
<line x1="0" y1="13" x2="72" y2="13" class="grid-line"/>
<line x1="0" y1="13.5" x2="72" y2="13.5" class="grid-line"/>
<line x1="0" y1="14" x2="72" y2="14" class="grid-line-2mu"/>
<line x1="0" y1="14.5" x2="72" y2="14.5" class="grid-line"/>
<line x1="0" y1="15" x2="72" y2="15" class="grid-line"/>
<line x1="0" y1="15.5" x2="72" y2="15.5" class="grid-line"/>
<line x1="0" y1="16" x2="72" y2="16" class="grid-line-2mu"/>
<line x1="0" y1="16.5" x2="72" y2="16.5" class="grid-line"/>
<line x1="0" y1="17" x2="72" y2="17" class="grid-line"/>
<line x1="0" y1="17.5" x2="72" y2="17.5" class="grid-line"/>
<line x1="0" y1="18" x2="72" y2="18" class="grid-line-6mu"/>
<line x1="0" y1="18.5" x2="72" y2="18.5" class="grid-line"/>
<line x1="0" y1="19" x2="72" y2="19" class="grid-line"/>
<line x1="0" y1="19.5" x2="72" y2="19.5" class="grid-line"/>
<line x1="0" y1="20" x2="72" y2="20" class="grid-line-2mu"/>
<line x1="0" y1="20.5" x2="72" y2="20.5" class="grid-line"/>
<line x1="0" y1="21" x2="72" y2="21" class="grid-line"/>
<line x1="0" y1="21.5" x2="72" y2="21.5" class="grid-line"/>
<line x1="0" y1="22" x2="72" y2="22" class="grid-line-2mu"/>
<line x1="0" y1="22.5" x2="72" y2="22.5" class="grid-line"/>
<line x1="0" y1="23" x2="72" y2="23" class="grid-line"/>
<line x1="0" y1="23.5" x2="72" y2="23.5" class="grid-line"/>
<line x1="0" y1="24" x2="72" y2="24" class="grid-line-6mu"/>
<line x1="0" y1="24.5" x2="72" y2="24.5" class="grid-line"/>
<line x1="0" y1="25" x2="72" y2="25" class="grid-line"/>
<line x1="0" y1="25.5" x2="72" y2="25.5" class="grid-line"/>
<line x1="0" y1="26" x2="72" y2="26" class="grid-line-2mu"/>
<line x1="0" y1="26.5" x2="72" y2="26.5" class="grid-line"/>
<line x1="0" y1="27" x2="72" y2="27" class="grid-line"/>
<line x1="0" y1="27.5" x2="72" y2="27.5" class="grid-line"/>
<line x1="0" y1="28" x2="72" y2="28" class="grid-line-2mu"/>
<line x1="0" y1="28.5" x2="72" y2="28.5" class="grid-line"/>
<line x1="0" y1="29" x2="72" y2="29" class="grid-line"/>
<line x1="0" y1="29.5" x2="72" y2="29.5" class="grid-line"/>
<line x1="0" y1="30" x2="72" y2="30" class="grid-line-6mu"/>
<line x1="0" y1="30.5" x2="72" y2="30.5" class="grid-line"/>
<line x1="0" y1="31" x2="72" y2="31" class="grid-line"/>
<line x1="0" y1="31.5" x2="72" y2="31.5" class="grid-line"/>
<line x1="0" y1="32" x2="72" y2="32" class="grid-line-2mu"/>
<line x1="0" y1="32.5" x2="72" y2="32.5" class="grid-line"/>
<line x1="0" y1="33" x2="72" y2="33" class="grid-line"/>
<line x1="0" y1="33.5" x2="72" y2="33.5" class="grid-line"/>
<line x1="0" y1="34" x2="72" y2="34" class="grid-line-2mu"/>
<line x1="0" y1="34.5" x2="72" y2="34.5" class="grid-line"/>
<line x1="0" y1="35" x2="72" y2="35" class="grid-line"/>
<line x1="0" y1="35.5" x2="72" y2="35.5" class="grid-line"/>
<line x1="0" y1="36" x2="72" y2="36" class="grid-line-6mu"/>
<line x1="0" y1="36.5" x2="72" y2="36.5" class="grid-line"/>
<line x1="0" y1="37" x2="72" y2="37" class="grid-line"/>
<line x1="0" y1="37.5" x2="72" y2="37.5" class="grid-line"/>
<line x1="0" y1="38" x2="72" y2="38" class="grid-line-2mu"/>
<line x1="0" y1="38.5" x2="72" y2="38.5" class="grid-line"/>
<line x1="0" y1="39" x2="72" y2="39" class="grid-line"/>
<line x1="0" y1="39.5" x2="72" y2="39.5" class="grid-line"/>
<line x1="0" y1="40" x2="72" y2="40" class="grid-line-2mu"/>
<line x1="0" y1="40.5" x2="72" y2="40.5" class="grid-line"/>
<line x1="0" y1="41" x2="72" y2="41" class="grid-line"/>
<line x1="0" y1="41.5" x2="72" y2="41.5" class="grid-line"/>
<line x1="0" y1="42" x2="72" y2="42" class="grid-line-6mu"/>
<line x1="0" y1="42.5" x2="72" y2="42.5" class="grid-line"/>
<line x1="0" y1="43" x2="72" y2="43" class="grid-line"/>
<line x1="0" y1="43.5" x2="72" y2="43.5" class="grid-line"/>
<line x1="0" y1="44" x2="72" y2="44" class="grid-line-2mu"/>
<line x1="0" y1="44.5" x2="72" y2="44.5" class="grid-line"/>
<line x1="0" y1="45" x2="72" y2="45" class="grid-line"/>
<line x1="0" y1="45.5" x2="72" y2="45.5" class="grid-line"/>
<line x1="0" y1="46" x2="72" y2="46" class="grid-line-2mu"/>
<line x1="0" y1="46.5" x2="72" y2="46.5" class="grid-line"/>
<line x1="0" y1="47" x2="72" y2="47" class="grid-line"/>
<line x1="0" y1="47.5" x2="72" y2="47.5" class="grid-line"/>
<line x1="0" y1="48" x2="72" y2="48" class="grid-line-6mu"/>
</g>
<g id="layer-delaunay" class="layer ">
<line x1="27.547438030431188" y1="22.426813097929006" x2="29.724735090828197" y2="13.694151561445041" class="delaunay-line"/>
<line x1="29.724735090828197" y1="13.694151561445041" x2="18.08118637551624" y2="10.791088814249028" class="delaunay-line"/>
<line x1="18.08118637551624" y1="10.791088814249028" x2="27.547438030431188" y2="22.426813097929006" class="delaunay-line"/>
<line x1="18.08118637551624" y1="10.791088814249028" x2="15.90388931511923" y2="19.523750350732996" class="delaunay-line"/>
<line x1="15.90388931511923" y1="19.523750350732996" x2="27.547438030431188" y2="22.426813097929006" class="delaunay-line"/>
<line x1="27.547438030431188" y1="22.426813097929006" x2="18.08118637551624" y2="10.791088814249028" class="delaunay-line"/>
<line x1="15.90388931511923" y1="19.523750350732996" x2="17.206403432785855" y2="28.965532116354012" class="delaunay-line"/>
<line x1="17.206403432785855" y1="28.965532116354012" x2="27.547438030431188" y2="22.426813097929006" class="delaunay-line"/>
<line x1="27.547438030431188" y1="22.426813097929006" x2="15.90388931511923" y2="19.523750350732996" class="delaunay-line"/>
<line x1="17.206403432785855" y1="28.965532116354012" x2="23.45832876691683" y2="35.43959031940187" class="delaunay-line"/>
<line x1="23.45832876691683" y1="35.43959031940187" x2="27.547438030431188" y2="22.426813097929006" class="delaunay-line"/>
<line x1="27.547438030431188" y1="22.426813097929006" x2="17.206403432785855" y2="28.965532116354012" class="delaunay-line"/>
<line x1="17.206403432785855" y1="28.965532116354012" x2="21.538176513056992" y2="36.2268877166982" class="delaunay-line"/>
<line x1="21.538176513056992" y1="36.2268877166982" x2="23.45832876691683" y2="35.43959031940187" class="delaunay-line"/>
<line x1="23.45832876691683" y1="35.43959031940187" x2="17.206403432785855" y2="28.965532116354012" class="delaunay-line"/>
<line x1="44.829720840640306" y1="36.998809811704064" x2="44.45022220328993" y2="22.07884239072171" class="delaunay-line"/>
<line x1="44.45022220328993" y1="22.07884239072171" x2="27.547438030431188" y2="22.426813097929006" class="delaunay-line"/>
<line x1="27.547438030431188" y1="22.426813097929006" x2="44.829720840640306" y2="36.998809811704064" class="delaunay-line"/>
<line x1="27.547438030431188" y1="22.426813097929006" x2="44.45022220328993" y2="22.07884239072171" class="delaunay-line"/>
<line x1="44.45022220328993" y1="22.07884239072171" x2="29.724735090828197" y2="13.694151561445041" class="delaunay-line"/>
<line x1="29.724735090828197" y1="13.694151561445041" x2="27.547438030431188" y2="22.426813097929006" class="delaunay-line"/>
<line x1="44.45022220328993" y1="22.07884239072171" x2="43.66518285964576" y2="7.099399369403103" class="delaunay-line"/>
<line x1="43.66518285964576" y1="7.099399369403103" x2="29.724735090828197" y2="13.694151561445041" class="delaunay-line"/>
<line x1="29.724735090828197" y1="13.694151561445041" x2="44.45022220328993" y2="22.07884239072171" class="delaunay-line"/>
<line x1="29.724735090828197" y1="13.694151561445041" x2="43.66518285964576" y2="7.099399369403103" class="delaunay-line"/>
<line x1="43.66518285964576" y1="7.099399369403103" x2="18.08118637551624" y2="10.791088814249028" class="delaunay-line"/>
<line x1="18.08118637551624" y1="10.791088814249028" x2="29.724735090828197" y2="13.694151561445041" class="delaunay-line"/>
<line x1="8.574325828722044" y1="37.301432561861986" x2="17.206403432785855" y2="28.965532116354012" class="delaunay-line"/>
<line x1="17.206403432785855" y1="28.965532116354012" x2="-0.714067175789908" y2="31.9602297892722" class="delaunay-line"/>
<line x1="-0.714067175789908" y1="31.9602297892722" x2="8.574325828722044" y2="37.301432561861986" class="delaunay-line"/>
<line x1="8.574325828722044" y1="37.301432561861986" x2="10.071461379800095" y2="37.22068355074113" class="delaunay-line"/>
<line x1="10.071461379800095" y1="37.22068355074113" x2="17.206403432785855" y2="28.965532116354012" class="delaunay-line"/>
<line x1="17.206403432785855" y1="28.965532116354012" x2="8.574325828722044" y2="37.301432561861986" class="delaunay-line"/>
<line x1="17.206403432785855" y1="28.965532116354012" x2="10.071461379800095" y2="37.22068355074113" class="delaunay-line"/>
<line x1="10.071461379800095" y1="37.22068355074113" x2="21.538176513056992" y2="36.2268877166982" class="delaunay-line"/>
<line x1="21.538176513056992" y1="36.2268877166982" x2="17.206403432785855" y2="28.965532116354012" class="delaunay-line"/>
<line x1="-0.714067175789908" y1="31.9602297892722" x2="17.206403432785855" y2="28.965532116354012" class="delaunay-line"/>
<line x1="17.206403432785855" y1="28.965532116354012" x2="15.90388931511923" y2="19.523750350732996" class="delaunay-line"/>
<line x1="15.90388931511923" y1="19.523750350732996" x2="-0.714067175789908" y2="31.9602297892722" class="delaunay-line"/>
<line x1="6.126121058698398" y1="45.30982996743363" x2="14.745790291052042" y2="42.13141897761277" class="delaunay-line"/>
<line x1="14.745790291052042" y1="42.13141897761277" x2="10.071461379800095" y2="37.22068355074113" class="delaunay-line"/>
<line x1="10.071461379800095" y1="37.22068355074113" x2="6.126121058698398" y2="45.30982996743363" class="delaunay-line"/>
<line x1="10.071461379800095" y1="37.22068355074113" x2="14.745790291052042" y2="42.13141897761277" class="delaunay-line"/>
<line x1="14.745790291052042" y1="42.13141897761277" x2="21.538176513056992" y2="36.2268877166982" class="delaunay-line"/>
<line x1="21.538176513056992" y1="36.2268877166982" x2="10.071461379800095" y2="37.22068355074113" class="delaunay-line"/>
<line x1="21.538176513056992" y1="36.2268877166982" x2="29.41088486094308" y2="45.28340267937146" class="delaunay-line"/>
<line x1="29.41088486094308" y1="45.28340267937146" x2="23.45832876691683" y2="35.43959031940187" class="delaunay-line"/>
<line x1="23.45832876691683" y1="35.43959031940187" x2="21.538176513056992" y2="36.2268877166982" class="delaunay-line"/>
<line x1="23.45832876691683" y1="35.43959031940187" x2="44.829720840640306" y2="36.998809811704064" class="delaunay-line"/>
<line x1="44.829720840640306" y1="36.998809811704064" x2="27.547438030431188" y2="22.426813097929006" class="delaunay-line"/>
<line x1="27.547438030431188" y1="22.426813097929006" x2="23.45832876691683" y2="35.43959031940187" class="delaunay-line"/>
<line x1="0" y1="0" x2="-0.714067175789908" y2="31.9602297892722" class="delaunay-line"/>
<line x1="-0.714067175789908" y1="31.9602297892722" x2="15.90388931511923" y2="19.523750350732996" class="delaunay-line"/>
<line x1="15.90388931511923" y1="19.523750350732996" x2="0" y2="0" class="delaunay-line"/>
<line x1="6.126121058698398" y1="45.30982996743363" x2="14.82625116285302" y2="43.77549076490985" class="delaunay-line"/>
<line x1="14.82625116285302" y1="43.77549076490985" x2="14.745790291052042" y2="42.13141897761277" class="delaunay-line"/>
<line x1="14.745790291052042" y1="42.13141897761277" x2="6.126121058698398" y2="45.30982996743363" class="delaunay-line"/>
<line x1="43.66518285964576" y1="7.099399369403103" x2="0" y2="0" class="delaunay-line"/>
<line x1="0" y1="0" x2="18.08118637551624" y2="10.791088814249028" class="delaunay-line"/>
<line x1="18.08118637551624" y1="10.791088814249028" x2="43.66518285964576" y2="7.099399369403103" class="delaunay-line"/>
<line x1="18.08118637551624" y1="10.791088814249028" x2="0" y2="0" class="delaunay-line"/>
<line x1="0" y1="0" x2="15.90388931511923" y2="19.523750350732996" class="delaunay-line"/>
<line x1="15.90388931511923" y1="19.523750350732996" x2="18.08118637551624" y2="10.791088814249028" class="delaunay-line"/>
<line x1="6.126121058698398" y1="45.30982996743363" x2="10.071461379800095" y2="37.22068355074113" class="delaunay-line"/>
<line x1="10.071461379800095" y1="37.22068355074113" x2="8.574325828722044" y2="37.301432561861986" class="delaunay-line"/>
<line x1="8.574325828722044" y1="37.301432561861986" x2="6.126121058698398" y2="45.30982996743363" class="delaunay-line"/>
<line x1="14.745790291052042" y1="42.13141897761277" x2="14.82625116285302" y2="43.77549076490985" class="delaunay-line"/>
<line x1="14.82625116285302" y1="43.77549076490985" x2="21.538176513056992" y2="36.2268877166982" class="delaunay-line"/>
<line x1="21.538176513056992" y1="36.2268877166982" x2="14.745790291052042" y2="42.13141897761277" class="delaunay-line"/>
<line x1="14.82625116285302" y1="43.77549076490985" x2="29.41088486094308" y2="45.28340267937146" class="delaunay-line"/>
<line x1="29.41088486094308" y1="45.28340267937146" x2="21.538176513056992" y2="36.2268877166982" class="delaunay-line"/>
<line x1="21.538176513056992" y1="36.2268877166982" x2="14.82625116285302" y2="43.77549076490985" class="delaunay-line"/>
<line x1="29.41088486094308" y1="45.28340267937146" x2="44.829720840640306" y2="36.998809811704064" class="delaunay-line"/>
<line x1="44.829720840640306" y1="36.998809811704064" x2="23.45832876691683" y2="35.43959031940187" class="delaunay-line"/>
<line x1="23.45832876691683" y1="35.43959031940187" x2="29.41088486094308" y2="45.28340267937146" class="delaunay-line"/>
<line x1="58.12550313235626" y1="16.384378355805236" x2="53.3562297542574" y2="8.751945490397395" class="delaunay-line"/>
<line x1="53.3562297542574" y1="8.751945490397395" x2="44.45022220328993" y2="22.07884239072171" class="delaunay-line"/>
<line x1="44.45022220328993" y1="22.07884239072171" x2="58.12550313235626" y2="16.384378355805236" class="delaunay-line"/>
<line x1="44.45022220328993" y1="22.07884239072171" x2="53.3562297542574" y2="8.751945490397395" class="delaunay-line"/>
<line x1="53.3562297542574" y1="8.751945490397395" x2="43.66518285964576" y2="7.099399369403103" class="delaunay-line"/>
<line x1="43.66518285964576" y1="7.099399369403103" x2="44.45022220328993" y2="22.07884239072171" class="delaunay-line"/>
<line x1="-4.659407496891606" y1="40.049376205964705" x2="6.126121058698398" y2="45.30982996743363" class="delaunay-line"/>
<line x1="6.126121058698398" y1="45.30982996743363" x2="8.574325828722044" y2="37.301432561861986" class="delaunay-line"/>
<line x1="8.574325828722044" y1="37.301432561861986" x2="-4.659407496891606" y2="40.049376205964705" class="delaunay-line"/>
<line x1="14.82625116285302" y1="43.77549076490985" x2="22.61849863893813" y2="51.18793394028603" class="delaunay-line"/>
<line x1="22.61849863893813" y1="51.18793394028603" x2="29.41088486094308" y2="45.28340267937146" class="delaunay-line"/>
<line x1="29.41088486094308" y1="45.28340267937146" x2="14.82625116285302" y2="43.77549076490985" class="delaunay-line"/>
<line x1="53.78041789895477" y1="37.939565981112935" x2="51.510526429956094" y2="34.26943520810394" class="delaunay-line"/>
<line x1="51.510526429956094" y1="34.26943520810394" x2="51.1224074532732" y2="41.58705008755232" class="delaunay-line"/>
<line x1="51.1224074532732" y1="41.58705008755232" x2="53.78041789895477" y2="37.939565981112935" class="delaunay-line"/>
<line x1="44.829720840640306" y1="36.998809811704064" x2="51.510526429956094" y2="34.26943520810394" class="delaunay-line"/>
<line x1="51.510526429956094" y1="34.26943520810394" x2="44.45022220328993" y2="22.07884239072171" class="delaunay-line"/>
<line x1="44.45022220328993" y1="22.07884239072171" x2="44.829720840640306" y2="36.998809811704064" class="delaunay-line"/>
<line x1="29.41088486094308" y1="45.28340267937146" x2="44.20255006103439" y2="42.9659411839137" class="delaunay-line"/>
<line x1="44.20255006103439" y1="42.9659411839137" x2="44.829720840640306" y2="36.998809811704064" class="delaunay-line"/>
<line x1="44.829720840640306" y1="36.998809811704064" x2="29.41088486094308" y2="45.28340267937146" class="delaunay-line"/>
<line x1="55.03723794371093" y1="29.41533324185426" x2="56.43377662034482" y2="21.45081091580638" class="delaunay-line"/>
<line x1="56.43377662034482" y1="21.45081091580638" x2="44.45022220328993" y2="22.07884239072171" class="delaunay-line"/>
<line x1="44.45022220328993" y1="22.07884239072171" x2="55.03723794371093" y2="29.41533324185426" class="delaunay-line"/>
<line x1="58.12550313235626" y1="16.384378355805236" x2="55.64873727670065" y2="6.471367894487771" class="delaunay-line"/>
<line x1="55.64873727670065" y1="6.471367894487771" x2="53.3562297542574" y2="8.751945490397395" class="delaunay-line"/>
<line x1="53.3562297542574" y1="8.751945490397395" x2="58.12550313235626" y2="16.384378355805236" class="delaunay-line"/>
<line x1="53.3562297542574" y1="8.751945490397395" x2="55.64873727670065" y2="6.471367894487771" class="delaunay-line"/>
<line x1="55.64873727670065" y1="6.471367894487771" x2="43.66518285964576" y2="7.099399369403103" class="delaunay-line"/>
<line x1="43.66518285964576" y1="7.099399369403103" x2="53.3562297542574" y2="8.751945490397395" class="delaunay-line"/>
<line x1="43.66518285964576" y1="7.099399369403103" x2="63.53280690813452" y2="2.392914319598935" class="delaunay-line"/>
<line x1="63.53280690813452" y1="2.392914319598935" x2="0" y2="0" class="delaunay-line"/>
<line x1="0" y1="0" x2="43.66518285964576" y2="7.099399369403103" class="delaunay-line"/>
<line x1="6.126121058698398" y1="45.30982996743363" x2="22.61849863893813" y2="51.18793394028603" class="delaunay-line"/>
<line x1="22.61849863893813" y1="51.18793394028603" x2="14.82625116285302" y2="43.77549076490985" class="delaunay-line"/>
<line x1="14.82625116285302" y1="43.77549076490985" x2="6.126121058698398" y2="45.30982996743363" class="delaunay-line"/>
<line x1="29.41088486094308" y1="45.28340267937146" x2="52.369877598179755" y2="47.455935691955155" class="delaunay-line"/>
<line x1="52.369877598179755" y1="47.455935691955155" x2="44.20255006103439" y2="42.9659411839137" class="delaunay-line"/>
<line x1="44.20255006103439" y1="42.9659411839137" x2="29.41088486094308" y2="45.28340267937146" class="delaunay-line"/>
<line x1="51.510526429956094" y1="34.26943520810394" x2="55.03723794371093" y2="29.41533324185426" class="delaunay-line"/>
<line x1="55.03723794371093" y1="29.41533324185426" x2="44.45022220328993" y2="22.07884239072171" class="delaunay-line"/>
<line x1="44.45022220328993" y1="22.07884239072171" x2="51.510526429956094" y2="34.26943520810394" class="delaunay-line"/>
<line x1="59.34836359916255" y1="21.09257781193015" x2="58.12550313235626" y2="16.384378355805236" class="delaunay-line"/>
<line x1="58.12550313235626" y1="16.384378355805236" x2="56.43377662034482" y2="21.45081091580638" class="delaunay-line"/>
<line x1="56.43377662034482" y1="21.45081091580638" x2="59.34836359916255" y2="21.09257781193015" class="delaunay-line"/>
<line x1="56.43377662034482" y1="21.45081091580638" x2="58.12550313235626" y2="16.384378355805236" class="delaunay-line"/>
<line x1="58.12550313235626" y1="16.384378355805236" x2="44.45022220328993" y2="22.07884239072171" class="delaunay-line"/>
<line x1="44.45022220328993" y1="22.07884239072171" x2="56.43377662034482" y2="21.45081091580638" class="delaunay-line"/>
<line x1="0" y1="0" x2="-4.659407496891606" y2="40.049376205964705" class="delaunay-line"/>
<line x1="-4.659407496891606" y1="40.049376205964705" x2="-0.714067175789908" y2="31.9602297892722" class="delaunay-line"/>
<line x1="-0.714067175789908" y1="31.9602297892722" x2="0" y2="0" class="delaunay-line"/>
<line x1="-0.714067175789908" y1="31.9602297892722" x2="-4.659407496891606" y2="40.049376205964705" class="delaunay-line"/>
<line x1="-4.659407496891606" y1="40.049376205964705" x2="8.574325828722044" y2="37.301432561861986" class="delaunay-line"/>
<line x1="8.574325828722044" y1="37.301432561861986" x2="-0.714067175789908" y2="31.9602297892722" class="delaunay-line"/>
<line x1="58.09580569052197" y1="30.00499043060428" x2="59.34836359916255" y2="21.09257781193015" class="delaunay-line"/>
<line x1="59.34836359916255" y1="21.09257781193015" x2="56.43377662034482" y2="21.45081091580638" class="delaunay-line"/>
<line x1="56.43377662034482" y1="21.45081091580638" x2="58.09580569052197" y2="30.00499043060428" class="delaunay-line"/>
<line x1="68.30208028623336" y1="10.025347185006776" x2="63.53280690813452" y2="2.392914319598935" class="delaunay-line"/>
<line x1="63.53280690813452" y1="2.392914319598935" x2="55.64873727670065" y2="6.471367894487771" class="delaunay-line"/>
<line x1="55.64873727670065" y1="6.471367894487771" x2="68.30208028623336" y2="10.025347185006776" class="delaunay-line"/>
<line x1="51.1224074532732" y1="41.58705008755232" x2="51.510526429956094" y2="34.26943520810394" class="delaunay-line"/>
<line x1="51.510526429956094" y1="34.26943520810394" x2="44.829720840640306" y2="36.998809811704064" class="delaunay-line"/>
<line x1="44.829720840640306" y1="36.998809811704064" x2="51.1224074532732" y2="41.58705008755232" class="delaunay-line"/>
<line x1="51.510526429956094" y1="34.26943520810394" x2="58.09580569052197" y2="30.00499043060428" class="delaunay-line"/>
<line x1="58.09580569052197" y1="30.00499043060428" x2="55.03723794371093" y2="29.41533324185426" class="delaunay-line"/>
<line x1="55.03723794371093" y1="29.41533324185426" x2="51.510526429956094" y2="34.26943520810394" class="delaunay-line"/>
<line x1="55.03723794371093" y1="29.41533324185426" x2="58.09580569052197" y2="30.00499043060428" class="delaunay-line"/>
<line x1="58.09580569052197" y1="30.00499043060428" x2="56.43377662034482" y2="21.45081091580638" class="delaunay-line"/>
<line x1="56.43377662034482" y1="21.45081091580638" x2="55.03723794371093" y2="29.41533324185426" class="delaunay-line"/>
<line x1="53.78041789895477" y1="37.939565981112935" x2="58.09580569052197" y2="30.00499043060428" class="delaunay-line"/>
<line x1="58.09580569052197" y1="30.00499043060428" x2="51.510526429956094" y2="34.26943520810394" class="delaunay-line"/>
<line x1="51.510526429956094" y1="34.26943520810394" x2="53.78041789895477" y2="37.939565981112935" class="delaunay-line"/>
<line x1="44.20255006103439" y1="42.9659411839137" x2="51.1224074532732" y2="41.58705008755232" class="delaunay-line"/>
<line x1="51.1224074532732" y1="41.58705008755232" x2="44.829720840640306" y2="36.998809811704064" class="delaunay-line"/>
<line x1="44.829720840640306" y1="36.998809811704064" x2="44.20255006103439" y2="42.9659411839137" class="delaunay-line"/>
<line x1="53.15324711934885" y1="43.90669735332257" x2="51.1224074532732" y2="41.58705008755232" class="delaunay-line"/>
<line x1="51.1224074532732" y1="41.58705008755232" x2="52.369877598179755" y2="47.455935691955155" class="delaunay-line"/>
<line x1="52.369877598179755" y1="47.455935691955155" x2="53.15324711934885" y2="43.90669735332257" class="delaunay-line"/>
<line x1="6.126121058698398" y1="45.30982996743363" x2="0" y2="48" class="delaunay-line"/>
<line x1="0" y1="48" x2="22.61849863893813" y2="51.18793394028603" class="delaunay-line"/>
<line x1="22.61849863893813" y1="51.18793394028603" x2="6.126121058698398" y2="45.30982996743363" class="delaunay-line"/>
<line x1="-4.659407496891606" y1="40.049376205964705" x2="0" y2="48" class="delaunay-line"/>
<line x1="0" y1="48" x2="6.126121058698398" y2="45.30982996743363" class="delaunay-line"/>
<line x1="6.126121058698398" y1="45.30982996743363" x2="-4.659407496891606" y2="40.049376205964705" class="delaunay-line"/>
<line x1="52.369877598179755" y1="47.455935691955155" x2="51.1224074532732" y2="41.58705008755232" class="delaunay-line"/>
<line x1="51.1224074532732" y1="41.58705008755232" x2="44.20255006103439" y2="42.9659411839137" class="delaunay-line"/>
<line x1="44.20255006103439" y1="42.9659411839137" x2="52.369877598179755" y2="47.455935691955155" class="delaunay-line"/>
<line x1="51.1224074532732" y1="41.58705008755232" x2="53.15324711934885" y2="43.90669735332257" class="delaunay-line"/>
<line x1="53.15324711934885" y1="43.90669735332257" x2="53.78041789895477" y2="37.939565981112935" class="delaunay-line"/>
<line x1="53.78041789895477" y1="37.939565981112935" x2="51.1224074532732" y2="41.58705008755232" class="delaunay-line"/>
<line x1="53.78041789895477" y1="37.939565981112935" x2="62.31839089308546" y2="34.70540051248652" class="delaunay-line"/>
<line x1="62.31839089308546" y1="34.70540051248652" x2="58.09580569052197" y2="30.00499043060428" class="delaunay-line"/>
<line x1="58.09580569052197" y1="30.00499043060428" x2="53.78041789895477" y2="37.939565981112935" class="delaunay-line"/>
<line x1="53.15324711934885" y1="43.90669735332257" x2="58.791679379330624" y2="39.559502478736206" class="delaunay-line"/>
<line x1="58.791679379330624" y1="39.559502478736206" x2="53.78041789895477" y2="37.939565981112935" class="delaunay-line"/>
<line x1="53.78041789895477" y1="37.939565981112935" x2="53.15324711934885" y2="43.90669735332257" class="delaunay-line"/>
<line x1="58.09580569052197" y1="30.00499043060428" x2="65.289972011612" y2="21.927616417690544" class="delaunay-line"/>
<line x1="65.289972011612" y1="21.927616417690544" x2="59.34836359916255" y2="21.09257781193015" class="delaunay-line"/>
<line x1="59.34836359916255" y1="21.09257781193015" x2="58.09580569052197" y2="30.00499043060428" class="delaunay-line"/>
<line x1="22.61849863893813" y1="51.18793394028603" x2="52.369877598179755" y2="47.455935691955155" class="delaunay-line"/>
<line x1="52.369877598179755" y1="47.455935691955155" x2="29.41088486094308" y2="45.28340267937146" class="delaunay-line"/>
<line x1="29.41088486094308" y1="45.28340267937146" x2="22.61849863893813" y2="51.18793394028603" class="delaunay-line"/>
<line x1="61.17320600478401" y1="45.58473047459531" x2="59.92573585987745" y2="39.71584487019248" class="delaunay-line"/>
<line x1="59.92573585987745" y1="39.71584487019248" x2="58.791679379330624" y2="39.559502478736206" class="delaunay-line"/>
<line x1="58.791679379330624" y1="39.559502478736206" x2="61.17320600478401" y2="45.58473047459531" class="delaunay-line"/>
<line x1="64.0374141029714" y1="30.840029036364676" x2="65.289972011612" y2="21.927616417690544" class="delaunay-line"/>
<line x1="65.289972011612" y1="21.927616417690544" x2="58.09580569052197" y2="30.00499043060428" class="delaunay-line"/>
<line x1="58.09580569052197" y1="30.00499043060428" x2="64.0374141029714" y2="30.840029036364676" class="delaunay-line"/>
<line x1="59.34836359916255" y1="21.09257781193015" x2="65.289972011612" y2="21.927616417690544" class="delaunay-line"/>
<line x1="65.289972011612" y1="21.927616417690544" x2="58.12550313235626" y2="16.384378355805236" class="delaunay-line"/>
<line x1="58.12550313235626" y1="16.384378355805236" x2="59.34836359916255" y2="21.09257781193015" class="delaunay-line"/>
<line x1="68.30208028623336" y1="10.025347185006776" x2="55.64873727670065" y2="6.471367894487771" class="delaunay-line"/>
<line x1="55.64873727670065" y1="6.471367894487771" x2="58.12550313235626" y2="16.384378355805236" class="delaunay-line"/>
<line x1="58.12550313235626" y1="16.384378355805236" x2="68.30208028623336" y2="10.025347185006776" class="delaunay-line"/>
<line x1="55.64873727670065" y1="6.471367894487771" x2="63.53280690813452" y2="2.392914319598935" class="delaunay-line"/>
<line x1="63.53280690813452" y1="2.392914319598935" x2="43.66518285964576" y2="7.099399369403103" class="delaunay-line"/>
<line x1="43.66518285964576" y1="7.099399369403103" x2="55.64873727670065" y2="6.471367894487771" class="delaunay-line"/>
<line x1="58.791679379330624" y1="39.559502478736206" x2="62.31839089308546" y2="34.70540051248652" class="delaunay-line"/>
<line x1="62.31839089308546" y1="34.70540051248652" x2="53.78041789895477" y2="37.939565981112935" class="delaunay-line"/>
<line x1="53.78041789895477" y1="37.939565981112935" x2="58.791679379330624" y2="39.559502478736206" class="delaunay-line"/>
<line x1="62.31839089308546" y1="34.70540051248652" x2="64.0374141029714" y2="30.840029036364676" class="delaunay-line"/>
<line x1="64.0374141029714" y1="30.840029036364676" x2="58.09580569052197" y2="30.00499043060428" class="delaunay-line"/>
<line x1="58.09580569052197" y1="30.00499043060428" x2="62.31839089308546" y2="34.70540051248652" class="delaunay-line"/>
<line x1="58.791679379330624" y1="39.559502478736206" x2="59.92573585987745" y2="39.71584487019248" class="delaunay-line"/>
<line x1="59.92573585987745" y1="39.71584487019248" x2="62.31839089308546" y2="34.70540051248652" class="delaunay-line"/>
<line x1="62.31839089308546" y1="34.70540051248652" x2="58.791679379330624" y2="39.559502478736206" class="delaunay-line"/>
<line x1="61.17320600478401" y1="45.58473047459531" x2="58.791679379330624" y2="39.559502478736206" class="delaunay-line"/>
<line x1="58.791679379330624" y1="39.559502478736206" x2="53.15324711934885" y2="43.90669735332257" class="delaunay-line"/>
<line x1="53.15324711934885" y1="43.90669735332257" x2="61.17320600478401" y2="45.58473047459531" class="delaunay-line"/>
<line x1="72" y1="48" x2="68.30208028623336" y2="10.025347185006776" class="delaunay-line"/>
<line x1="68.30208028623336" y1="10.025347185006776" x2="65.289972011612" y2="21.927616417690544" class="delaunay-line"/>
<line x1="65.289972011612" y1="21.927616417690544" x2="72" y2="48" class="delaunay-line"/>
<line x1="65.289972011612" y1="21.927616417690544" x2="68.30208028623336" y2="10.025347185006776" class="delaunay-line"/>
<line x1="68.30208028623336" y1="10.025347185006776" x2="58.12550313235626" y2="16.384378355805236" class="delaunay-line"/>
<line x1="58.12550313235626" y1="16.384378355805236" x2="65.289972011612" y2="21.927616417690544" class="delaunay-line"/>
<line x1="52.369877598179755" y1="47.455935691955155" x2="61.17320600478401" y2="45.58473047459531" class="delaunay-line"/>
<line x1="61.17320600478401" y1="45.58473047459531" x2="53.15324711934885" y2="43.90669735332257" class="delaunay-line"/>
<line x1="53.15324711934885" y1="43.90669735332257" x2="52.369877598179755" y2="47.455935691955155" class="delaunay-line"/>
<line x1="59.92573585987745" y1="39.71584487019248" x2="72" y2="48" class="delaunay-line"/>
<line x1="72" y1="48" x2="62.31839089308546" y2="34.70540051248652" class="delaunay-line"/>
<line x1="62.31839089308546" y1="34.70540051248652" x2="59.92573585987745" y2="39.71584487019248" class="delaunay-line"/>
<line x1="62.31839089308546" y1="34.70540051248652" x2="72" y2="48" class="delaunay-line"/>
<line x1="72" y1="48" x2="64.0374141029714" y2="30.840029036364676" class="delaunay-line"/>
<line x1="64.0374141029714" y1="30.840029036364676" x2="62.31839089308546" y2="34.70540051248652" class="delaunay-line"/>
<line x1="72" y1="48" x2="72" y2="0" class="delaunay-line"/>
<line x1="72" y1="0" x2="68.30208028623336" y2="10.025347185006776" class="delaunay-line"/>
<line x1="68.30208028623336" y1="10.025347185006776" x2="72" y2="48" class="delaunay-line"/>
<line x1="72" y1="48" x2="65.289972011612" y2="21.927616417690544" class="delaunay-line"/>
<line x1="65.289972011612" y1="21.927616417690544" x2="64.0374141029714" y2="30.840029036364676" class="delaunay-line"/>
<line x1="64.0374141029714" y1="30.840029036364676" x2="72" y2="48" class="delaunay-line"/>
<line x1="68.30208028623336" y1="10.025347185006776" x2="72" y2="0" class="delaunay-line"/>
<line x1="72" y1="0" x2="63.53280690813452" y2="2.392914319598935" class="delaunay-line"/>
<line x1="63.53280690813452" y1="2.392914319598935" x2="68.30208028623336" y2="10.025347185006776" class="delaunay-line"/>
<line x1="63.53280690813452" y1="2.392914319598935" x2="72" y2="0" class="delaunay-line"/>
<line x1="72" y1="0" x2="0" y2="0" class="delaunay-line"/>
<line x1="0" y1="0" x2="63.53280690813452" y2="2.392914319598935" class="delaunay-line"/>
<line x1="52.369877598179755" y1="47.455935691955155" x2="72" y2="48" class="delaunay-line"/>
<line x1="72" y1="48" x2="61.17320600478401" y2="45.58473047459531" class="delaunay-line"/>
<line x1="61.17320600478401" y1="45.58473047459531" x2="52.369877598179755" y2="47.455935691955155" class="delaunay-line"/>
<line x1="61.17320600478401" y1="45.58473047459531" x2="72" y2="48" class="delaunay-line"/>
<line x1="72" y1="48" x2="59.92573585987745" y2="39.71584487019248" class="delaunay-line"/>
<line x1="59.92573585987745" y1="39.71584487019248" x2="61.17320600478401" y2="45.58473047459531" class="delaunay-line"/>
<line x1="22.61849863893813" y1="51.18793394028603" x2="72" y2="48" class="delaunay-line"/>
<line x1="72" y1="48" x2="52.369877598179755" y2="47.455935691955155" class="delaunay-line"/>
<line x1="52.369877598179755" y1="47.455935691955155" x2="22.61849863893813" y2="51.18793394028603" class="delaunay-line"/>
</g>
<g id="layer-area" class="layer ">
<polygon points="10.071461379800095,37.22068355074113 6.126121058698398,45.30982996743363 -4.659407496891606,40.049376205964705 -0.714067175789908,31.9602297892722" class="terrain-area"/>
<text x="2.706026941454245" y="38.63502987835292" class="label">#C49A6C</text>
<polygon points="43.66518285964576,7.099399369403103 55.64873727670065,6.471367894487771 56.43377662034482,21.45081091580638 44.45022220328993,22.07884239072171" class="terrain-area"/>
<text x="50.04947973999529" y="14.27510514260474" class="label">#C49A6C</text>
<polygon points="59.34836359916255,21.09257781193015 65.289972011612,21.927616417690544 64.0374141029714,30.840029036364676 58.09580569052197,30.00499043060428" class="terrain-area"/>
<text x="61.69288885106698" y="25.966303424147412" class="label">#C49A6C</text>
<polygon points="29.724735090828197,13.694151561445041 27.547438030431188,22.426813097929006 15.90388931511923,19.523750350732996 18.08118637551624,10.791088814249028" class="terrain-area"/>
<text x="22.814312202973714" y="16.608950956089018" class="label">#C49A6C</text>
<polygon points="62.31839089308546,34.70540051248652 58.791679379330624,39.559502478736206 51.510526429956094,34.26943520810394 55.03723794371093,29.41533324185426" class="terrain-area"/>
<text x="56.914458661520776" y="34.48741786029523" class="label">#C49A6C</text>
<polygon points="44.20255006103439,42.9659411839137 44.829720840640306,36.998809811704064 53.78041789895477,37.939565981112935 53.15324711934885,43.90669735332257" class="terrain-area"/>
<text x="48.991483979994584" y="40.45275358251332" class="label">#C49A6C</text>
<polygon points="14.745790291052042,42.13141897761277 21.538176513056992,36.2268877166982 29.41088486094308,45.28340267937146 22.61849863893813,51.18793394028603" class="terrain-area"/>
<text x="22.078337575997562" y="43.707410828492115" class="label">#C49A6C</text>
<polygon points="14.82625116285302,43.77549076490985 8.574325828722044,37.301432561861986 17.206403432785855,28.965532116354012 23.45832876691683,35.43959031940187" class="terrain-area"/>
<text x="16.016327297819437" y="36.37051144063193" class="label">#C49A6C</text>
<polygon points="52.369877598179755,47.455935691955155 51.1224074532732,41.58705008755232 59.92573585987745,39.71584487019248 61.17320600478401,45.58473047459531" class="terrain-area"/>
<text x="56.1478067290286" y="43.585890281073816" class="label">#C49A6C</text>
<polygon points="58.12550313235626,16.384378355805236 53.3562297542574,8.751945490397395 63.53280690813452,2.392914319598935 68.30208028623336,10.025347185006776" class="terrain-area"/>
<text x="60.82915502024538" y="9.388646337702085" class="label">#C49A6C</text>
</g>
<g id="layer-building" class="layer ">
</g>
<g id="layer-wall" class="layer ">
</g>
<g id="layer-tree" class="layer ">
</g>
<g id="layer-rocks" class="layer ">
</g>
<g id="layer-shrub" class="layer ">
</g>
<g id="layer-terrain" class="layer ">
</g>
<g id="layer-clearance" class="layer hidden">
</g>
<g id="layer-models" class="layer ">
</g>
<g id="layer-paths" class="layer ">
</g>
<g id="layer-vectors" class="layer ">
</g>
<g id="layer-los" class="layer ">
</g>
<g id="layer-lof" class="layer ">
</g>

<g id="legend">
<g class="toggle" onclick="toggleLayer('deployment')"><rect x="0.4" y="0.14999999999999997" width="0.4" height="0.4" fill="#222" stroke="#222" stroke-width="0.05"/><text x="1.0" y="0.5499999999999999" class="label">Deployment Zones</text></g>
<g class="toggle" onclick="toggleLayer('grid')"><rect x="0.4" y="0.95" width="0.4" height="0.4" fill="#222" stroke="#222" stroke-width="0.05"/><text x="1.0" y="1.3499999999999999" class="label">0.5 MU Grid</text></g>
<g class="toggle" onclick="toggleLayer('delaunay')"><rect x="0.4" y="1.7500000000000002" width="0.4" height="0.4" fill="#222" stroke="#222" stroke-width="0.05"/><text x="1.0" y="2.1500000000000004" class="label">Delaunay Mesh</text></g>
<g class="toggle" onclick="toggleLayer('area')"><rect x="0.4" y="2.55" width="0.4" height="0.4" fill="#222" stroke="#222" stroke-width="0.05"/><text x="1.0" y="2.95" class="label">Area Terrain</text></g>
<g class="toggle disabled"><rect x="0.4" y="3.3499999999999996" width="0.4" height="0.4" fill="#222" stroke="#222" stroke-width="0.05"/><text x="1.0" y="3.75" class="label">Buildings</text></g>
<g class="toggle disabled"><rect x="0.4" y="4.1499999999999995" width="0.4" height="0.4" fill="#222" stroke="#222" stroke-width="0.05"/><text x="1.0" y="4.55" class="label">Walls</text></g>
<g class="toggle disabled"><rect x="0.4" y="4.949999999999999" width="0.4" height="0.4" fill="#222" stroke="#222" stroke-width="0.05"/><text x="1.0" y="5.35" class="label">Trees</text></g>
<g class="toggle disabled"><rect x="0.4" y="5.749999999999999" width="0.4" height="0.4" fill="#222" stroke="#222" stroke-width="0.05"/><text x="1.0" y="6.1499999999999995" class="label">Rocks</text></g>
<g class="toggle disabled"><rect x="0.4" y="6.549999999999999" width="0.4" height="0.4" fill="#222" stroke="#222" stroke-width="0.05"/><text x="1.0" y="6.949999999999999" class="label">Shrubs</text></g>
<g class="toggle" onclick="toggleLayer('terrain')"><rect x="0.4" y="7.349999999999999" width="0.4" height="0.4" fill="#222" stroke="#222" stroke-width="0.05"/><text x="1.0" y="7.749999999999999" class="label">Other Terrain</text></g>
<g class="toggle" onclick="toggleLayer('clearance')"><rect x="0.4" y="8.15" width="0.4" height="0.4" fill="#fff" stroke="#222" stroke-width="0.05"/><text x="1.0" y="8.549999999999999" class="label">Clearance Zones</text></g>
<g class="toggle" onclick="toggleLayer('models')"><rect x="0.4" y="8.950000000000001" width="0.4" height="0.4" fill="#222" stroke="#222" stroke-width="0.05"/><text x="1.0" y="9.35" class="label">Models</text></g>
<g class="toggle" onclick="toggleLayer('paths')"><rect x="0.4" y="9.750000000000002" width="0.4" height="0.4" fill="#222" stroke="#222" stroke-width="0.05"/><text x="1.0" y="10.15" class="label">Paths</text></g>
<g class="toggle" onclick="toggleLayer('vectors')"><rect x="0.4" y="10.550000000000002" width="0.4" height="0.4" fill="#222" stroke="#222" stroke-width="0.05"/><text x="1.0" y="10.950000000000001" class="label">Vectors</text></g>
<g class="toggle" onclick="toggleLayer('los')"><rect x="0.4" y="11.350000000000003" width="0.4" height="0.4" fill="#222" stroke="#222" stroke-width="0.05"/><text x="1.0" y="11.750000000000002" class="label">LOS</text></g>
<g class="toggle" onclick="toggleLayer('lof')"><rect x="0.4" y="12.150000000000004" width="0.4" height="0.4" fill="#222" stroke="#222" stroke-width="0.05"/><text x="1.0" y="12.550000000000002" class="label">LOF</text></g>
</g>
</svg>