<svg xmlns="http://www.w3.org/2000/svg" viewBox="0 0 72 48" width="2880" height="1920" font-family="Arial" font-size="0.6">
<defs>
  <style><![CDATA[
    .layer { display: inline; }
    .layer.hidden { display: none; }
    .grid-line { stroke: #999; stroke-width: 0.02; opacity: 0.2; }
    .grid-line-2mu { stroke: #666; stroke-width: 0.04; opacity: 0.4; }
    .grid-line-6mu { stroke: #333; stroke-width: 0.08; opacity: 0.6; }
    .delaunay-line { stroke: #4a6fa5; stroke-width: 0.03; opacity: 0.3; }
    #layer-area { opacity: 0.8; }
    #layer-building, #layer-wall, #layer-tree, #layer-rocks, #layer-shrub, #layer-terrain { opacity: 0.8; }
    .terrain-area { stroke: none; }
    .terrain-solid { stroke: #000; stroke-width: 0.05; }
    .model { stroke: #ff0000; stroke-width: 2; vector-effect: non-scaling-stroke; }
    .path { fill: none; stroke-width: 0.12; }
    .vector { stroke-width: 0.1; }
    .los-ray { stroke-width: 0.08; stroke-dasharray: 0.2 0.2; }
    .lof-ray { stroke-width: 0.08; stroke-dasharray: 0.3 0.15; }
    .label { fill: #111 !important; font-size: 0.6px; }
    .toggle { cursor: pointer; }
    .toggle.disabled { cursor: default; }
    .toggle.disabled rect { stroke: #ccc; fill: #fff; }
    .toggle.disabled text { fill: #ccc; }
#layer-building { fill: #000000; }
  ]]></style>
</defs>
<rect x="0" y="0" width="72" height="48" fill="#ffffff" stroke="#111" stroke-width="0.05"/>
<script><![CDATA[
      function toggleLayer(id) {
        var layer = document.getElementById('layer-' + id);
        if (!layer) return;
        if (layer.classList.contains('hidden')) {
          layer.classList.remove('hidden');
        } else {
          layer.classList.add('hidden');
        }
      }
    ]]></script>
<text x="0.4" y="47.6" class="label">VERY_LARGE battlefield_A0-B40-W0-R0-S0-T0</text>
<g id="layer-deployment" class="layer ">
</g>
<g id="layer-grid" class="layer ">
<line x1="0" y1="0" x2="0" y2="48" class="grid-line-6mu"/>
<line x1="0.5" y1="0" x2="0.5" y2="48" class="grid-line"/>
<line x1="1" y1="0" x2="1" y2="48" class="grid-line"/>
<line x1="1.5" y1="0" x2="1.5" y2="48" class="grid-line"/>
<line x1="2" y1="0" x2="2" y2="48" class="grid-line-2mu"/>
<line x1="2.5" y1="0" x2="2.5" y2="48" class="grid-line"/>
<line x1="3" y1="0" x2="3" y2="48" class="grid-line"/>
<line x1="3.5" y1="0" x2="3.5" y2="48" class="grid-line"/>
<line x1="4" y1="0" x2="4" y2="48" class="grid-line-2mu"/>
<line x1="4.5" y1="0" x2="4.5" y2="48" class="grid-line"/>
<line x1="5" y1="0" x2="5" y2="48" class="grid-line"/>
<line x1="5.5" y1="0" x2="5.5" y2="48" class="grid-line"/>
<line x1="6" y1="0" x2="6" y2="48" class="grid-line-6mu"/>
<line x1="6.5" y1="0" x2="6.5" y2="48" class="grid-line"/>
<line x1="7" y1="0" x2="7" y2="48" class="grid-line"/>
<line x1="7.5" y1="0" x2="7.5" y2="48" class="grid-line"/>
<line x1="8" y1="0" x2="8" y2="48" class="grid-line-2mu"/>
<line x1="8.5" y1="0" x2="8.5" y2="48" class="grid-line"/>
<line x1="9" y1="0" x2="9" y2="48" class="grid-line"/>
<line x1="9.5" y1="0" x2="9.5" y2="48" class="grid-line"/>
<line x1="10" y1="0" x2="10" y2="48" class="grid-line-2mu"/>
<line x1="10.5" y1="0" x2="10.5" y2="48" class="grid-line"/>
<line x1="11" y1="0" x2="11" y2="48" class="grid-line"/>
<line x1="11.5" y1="0" x2="11.5" y2="48" class="grid-line"/>
<line x1="12" y1="0" x2="12" y2="48" class="grid-line-6mu"/>
<line x1="12.5" y1="0" x2="12.5" y2="48" class="grid-line"/>
<line x1="13" y1="0" x2="13" y2="48" class="grid-line"/>
<line x1="13.5" y1="0" x2="13.5" y2="48" class="grid-line"/>
<line x1="14" y1="0" x2="14" y2="48" class="grid-line-2mu"/>
<line x1="14.5" y1="0" x2="14.5" y2="48" class="grid-line"/>
<line x1="15" y1="0" x2="15" y2="48" class="grid-line"/>
<line x1="15.5" y1="0" x2="15.5" y2="48" class="grid-line"/>
<line x1="16" y1="0" x2="16" y2="48" class="grid-line-2mu"/>
<line x1="16.5" y1="0" x2="16.5" y2="48" class="grid-line"/>
<line x1="17" y1="0" x2="17" y2="48" class="grid-line"/>
<line x1="17.5" y1="0" x2="17.5" y2="48" class="grid-line"/>
<line x1="18" y1="0" x2="18" y2="48" class="grid-line-6mu"/>
<line x1="18.5" y1="0" x2="18.5" y2="48" class="grid-line"/>
<line x1="19" y1="0" x2="19" y2="48" class="grid-line"/>
<line x1="19.5" y1="0" x2="19.5" y2="48" class="grid-line"/>
<line x1="20" y1="0" x2="20" y2="48" class="grid-line-2mu"/>
<line x1="20.5" y1="0" x2="20.5" y2="48" class="grid-line"/>
<line x1="21" y1="0" x2="21" y2="48" class="grid-line"/>
<line x1="21.5" y1="0" x2="21.5" y2="48" class="grid-line"/>
<line x1="22" y1="0" x2="22" y2="48" class="grid-line-2mu"/>
<line x1="22.5" y1="0" x2="22.5" y2="48" class="grid-line"/>
<line x1="23" y1="0" x2="23" y2="48" class="grid-line"/>
<line x1="23.5" y1="0" x2="23.5" y2="48" class="grid-line"/>
<line x1="24" y1="0" x2="24" y2="48" class="grid-line-6mu"/>
<line x1="24.5" y1="0" x2="24.5" y2="48" class="grid-line"/>
<line x1="25" y1="0" x2="25" y2="48" class="grid-line"/>
<line x1="25.5" y1="0" x2="25.5" y2="48" class="grid-line"/>
<line x1="26" y1="0" x2="26" y2="48" class="grid-line-2mu"/>
<line x1="26.5" y1="0" x2="26.5" y2="48" class="grid-line"/>
<line x1="27" y1="0" x2="27" y2="48" class="grid-line"/>
<line x1="27.5" y1="0" x2="27.5" y2="48" class="grid-line"/>
<line x1="28" y1="0" x2="28" y2="48" class="grid-line-2mu"/>
<line x1="28.5" y1="0" x2="28.5" y2="48" class="grid-line"/>
<line x1="29" y1="0" x2="29" y2="48" class="grid-line"/>
<line x1="29.5" y1="0" x2="29.5" y2="48" class="grid-line"/>
<line x1="30" y1="0" x2="30" y2="48" class="grid-line-6mu"/>
<line x1="30.5" y1="0" x2="30.5" y2="48" class="grid-line"/>
<line x1="31" y1="0" x2="31" y2="48" class="grid-line"/>
<line x1="31.5" y1="0" x2="31.5" y2="48" class="grid-line"/>
<line x1="32" y1="0" x2="32" y2="48" class="grid-line-2mu"/>
<line x1="32.5" y1="0" x2="32.5" y2="48" class="grid-line"/>
<line x1="33" y1="0" x2="33" y2="48" class="grid-line"/>
<line x1="33.5" y1="0" x2="33.5" y2="48" class="grid-line"/>
<line x1="34" y1="0" x2="34" y2="48" class="grid-line-2mu"/>
<line x1="34.5" y1="0" x2="34.5" y2="48" class="grid-line"/>
<line x1="35" y1="0" x2="35" y2="48" class="grid-line"/>
<line x1="35.5" y1="0" x2="35.5" y2="48" class="grid-line"/>
<line x1="36" y1="0" x2="36" y2="48" class="grid-line-6mu"/>
<line x1="36.5" y1="0" x2="36.5" y2="48" class="grid-line"/>
<line x1="37" y1="0" x2="37" y2="48" class="grid-line"/>
<line x1="37.5" y1="0" x2="37.5" y2="48" class="grid-line"/>
<line x1="38" y1="0" x2="38" y2="48" class="grid-line-2mu"/>
<line x1="38.5" y1="0" x2="38.5" y2="48" class="grid-line"/>
<line x1="39" y1="0" x2="39" y2="48" class="grid-line"/>
<line x1="39.5" y1="0" x2="39.5" y2="48" class="grid-line"/>
<line x1="40" y1="0" x2="40" y2="48" class="grid-line-2mu"/>
<line x1="40.5" y1="0" x2="40.5" y2="48" class="grid-line"/>
<line x1="41" y1="0" x2="41" y2="48" class="grid-line"/>
<line x1="41.5" y1="0" x2="41.5" y2="48" class="grid-line"/>
<line x1="42" y1="0" x2="42" y2="48" class="grid-line-6mu"/>
<line x1="42.5" y1="0" x2="42.5" y2="48" class="grid-line"/>
<line x1="43" y1="0" x2="43" y2="48" class="grid-line"/>
<line x1="43.5" y1="0" x2="43.5" y2="48" class="grid-line"/>
<line x1="44" y1="0" x2="44" y2="48" class="grid-line-2mu"/>
<line x1="44.5" y1="0" x2="44.5" y2="48" class="grid-line"/>
<line x1="45" y1="0" x2="45" y2="48" class="grid-line"/>
<line x1="45.5" y1="0" x2="45.5" y2="48" class="grid-line"/>
<line x1="46" y1="0" x2="46" y2="48" class="grid-line-2mu"/>
<line x1="46.5" y1="0" x2="46.5" y2="48" class="grid-line"/>
<line x1="47" y1="0" x2="47" y2="48" class="grid-line"/>
<line x1="47.5" y1="0" x2="47.5" y2="48" class="grid-line"/>
<line x1="48" y1="0" x2="48" y2="48" class="grid-line-6mu"/>
<line x1="48.5" y1="0" x2="48.5" y2="48" class="grid-line"/>
<line x1="49" y1="0" x2="49" y2="48" class="grid-line"/>
<line x1="49.5" y1="0" x2="49.5" y2="48" class="grid-line"/>
<line x1="50" y1="0" x2="50" y2="48" class="grid-line-2mu"/>
<line x1="50.5" y1="0" x2="50.5" y2="48" class="grid-line"/>
<line x1="51" y1="0" x2="51" y2="48" class="grid-line"/>
<line x1="51.5" y1="0" x2="51.5" y2="48" class="grid-line"/>
<line x1="52" y1="0" x2="52" y2="48" class="grid-line-2mu"/>
<line x1="52.5" y1="0" x2="52.5" y2="48" class="grid-line"/>
<line x1="53" y1="0" x2="53" y2="48" class="grid-line"/>
<line x1="53.5" y1="0" x2="53.5" y2="48" class="grid-line"/>
<line x1="54" y1="0" x2="54" y2="48" class="grid-line-6mu"/>
<line x1="54.5" y1="0" x2="54.5" y2="48" class="grid-line"/>
<line x1="55" y1="0" x2="55" y2="48" class="grid-line"/>
<line x1="55.5" y1="0" x2="55.5" y2="48" class="grid-line"/>
<line x1="56" y1="0" x2="56" y2="48" class="grid-line-2mu"/>
<line x1="56.5" y1="0" x2="56.5" y2="48" class="grid-line"/>
<line x1="57" y1="0" x2="57" y2="48" class="grid-line"/>
<line x1="57.5" y1="0" x2="57.5" y2="48" class="grid-line"/>
<line x1="58" y1="0" x2="58" y2="48" class="grid-line-2mu"/>
<line x1="58.5" y1="0" x2="58.5" y2="48" class="grid-line"/>
<line x1="59" y1="0" x2="59" y2="48" class="grid-line"/>
<line x1="59.5" y1="0" x2="59.5" y2="48" class="grid-line"/>
<line x1="60" y1="0" x2="60" y2="48" class="grid-line-6mu"/>
<line x1="60.5" y1="0" x2="60.5" y2="48" class="grid-line"/>
<line x1="61" y1="0" x2="61" y2="48" class="grid-line"/>
<line x1="61.5" y1="0" x2="61.5" y2="48" class="grid-line"/>
<line x1="62" y1="0" x2="62" y2="48" class="grid-line-2mu"/>
<line x1="62.5" y1="0" x2="62.5" y2="48" class="grid-line"/>
<line x1="63" y1="0" x2="63" y2="48" class="grid-line"/>
<line x1="63.5" y1="0" x2="63.5" y2="48" class="grid-line"/>
<line x1="64" y1="0" x2="64" y2="48" class="grid-line-2mu"/>
<line x1="64.5" y1="0" x2="64.5" y2="48" class="grid-line"/>
<line x1="65" y1="0" x2="65" y2="48" class="grid-line"/>
<line x1="65.5" y1="0" x2="65.5" y2="48" class="grid-line"/>
<line x1="66" y1="0" x2="66" y2="48" class="grid-line-6mu"/>
<line x1="66.5" y1="0" x2="66.5" y2="48" class="grid-line"/>
<line x1="67" y1="0" x2="67" y2="48" class="grid-line"/>
<line x1="67.5" y1="0" x2="67.5" y2="48" class="grid-line"/>
<line x1="68" y1="0" x2="68" y2="48" class="grid-line-2mu"/>
<line x1="68.5" y1="0" x2="68.5" y2="48" class="grid-line"/>
<line x1="69" y1="0" x2="69" y2="48" class="grid-line"/>
<line x1="69.5" y1="0" x2="69.5" y2="48" class="grid-line"/>
<line x1="70" y1="0" x2="70" y2="48" class="grid-line-2mu"/>
<line x1="70.5" y1="0" x2="70.5" y2="48" class="grid-line"/>
<line x1="71" y1="0" x2="71" y2="48" class="grid-line"/>
<line x1="71.5" y1="0" x2="71.5" y2="48" class="grid-line"/>
<line x1="72" y1="0" x2="72" y2="48" class="grid-line-6mu"/>
<line x1="0" y1="0" x2="72" y2="0" class="grid-line-6mu"/>
<line x1="0" y1="0.5" x2="72" y2="0.5" class="grid-line"/>
<line x1="0" y1="1" x2="72" y2="1" class="grid-line"/>
<line x1="0" y1="1.5" x2="72" y2="1.5" class="grid-line"/>
<line x1="0" y1="2" x2="72" y2="2" class="grid-line-2mu"/>
<line x1="0" y1="2.5" x2="72" y2="2.5" class="grid-line"/>
<line x1="0" y1="3" x2="72" y2="3" class="grid-line"/>
<line x1="0" y1="3.5" x2="72" y2="3.5" class="grid-line"/>
<line x1="0" y1="4" x2="72" y2="4" class="grid-line-2mu"/>
<line x1="0" y1="4.5" x2="72" y2="4.5" class="grid-line"/>
<line x1="0" y1="5" x2="72" y2="5" class="grid-line"/>
<line x1="0" y1="5.5" x2="72" y2="5.5" class="grid-line"/>
<line x1="0" y1="6" x2="72" y2="6" class="grid-line-6mu"/>
<line x1="0" y1="6.5" x2="72" y2="6.5" class="grid-line"/>
<line x1="0" y1="7" x2="72" y2="7" class="grid-line"/>
<line x1="0" y1="7.5" x2="72" y2="7.5" class="grid-line"/>
<line x1="0" y1="8" x2="72" y2="8" class="grid-line-2mu"/>
<line x1="0" y1="8.5" x2="72" y2="8.5" class="grid-line"/>
<line x1="0" y1="9" x2="72" y2="9" class="grid-line"/>
<line x1="0" y1="9.5" x2="72" y2="9.5" class="grid-line"/>
<line x1="0" y1="10" x2="72" y2="10" class="grid-line-2mu"/>
<line x1="0" y1="10.5" x2="72" y2="10.5" class="grid-line"/>
<line x1="0" y1="11" x2="72" y2="11" class="grid-line"/>
<line x1="0" y1="11.5" x2="72" y2="11.5" class="grid-line"/>
<line x1="0" y1="12" x2="72" y2="12" class="grid-line-6mu"/>
<line x1="0" y1="12.5" x2="72" y2="12.5" class="grid-line"/>
<line x1="0" y1="13" x2="72" y2="13" class="grid-line"/>
<line x1="0" y1="13.5" x2="72" y2="13.5" class="grid-line"/>
<line x1="0" y1="14" x2="72" y2="14" class="grid-line-2mu"/>
<line x1="0" y1="14.5" x2="72" y2="14.5" class="grid-line"/>
<line x1="0" y1="15" x2="72" y2="15" class="grid-line"/>
<line x1="0" y1="15.5" x2="72" y2="15.5" class="grid-line"/>
<line x1="0" y1="16" x2="72" y2="16" class="grid-line-2mu"/>
<line x1="0" y1="16.5" x2="72" y2="16.5" class="grid-line"/>
<line x1="0" y1="17" x2="72" y2="17" class="grid-line"/>
<line x1="0" y1="17.5" x2="72" y2="17.5" class="grid-line"/>
<line x1="0" y1="18" x2="72" y2="18" class="grid-line-6mu"/>
<line x1="0" y1="18.5" x2="72" y2="18.5" class="grid-line"/>
<line x1="0" y1="19" x2="72" y2="19" class="grid-line"/>
<line x1="0" y1="19.5" x2="72" y2="19.5" class="grid-line"/>
<line x1="0" y1="20" x2="72" y2="20" class="grid-line-2mu"/>
<line x1="0" y1="20.5" x2="72" y2="20.5" class="grid-line"/>
<line x1="0" y1="21" x2="72" y2="21" class="grid-line"/>
<line x1="0" y1="21.5" x2="72" y2="21.5" class="grid-line"/>
<line x1="0" y1="22" x2="72" y2="22" class="grid-line-2mu"/>
<line x1="0" y1="22.5" x2="72" y2="22.5" class="grid-line"/>
<line x1="0" y1="23" x2="72" y2="23" class="grid-line"/>
<line x1="0" y1="23.5" x2="72" y2="23.5" class="grid-line"/>
<line x1="0" y1="24" x2="72" y2="24" class="grid-line-6mu"/>
<line x1="0" y1="24.5" x2="72" y2="24.5" class="grid-line"/>
<line x1="0" y1="25" x2="72" y2="25" class="grid-line"/>
<line x1="0" y1="25.5" x2="72" y2="25.5" class="grid-line"/>
<line x1="0" y1="26" x2="72" y2="26" class="grid-line-2mu"/>
<line x1="0" y1="26.5" x2="72" y2="26.5" class="grid-line"/>
<line x1="0" y1="27" x2="72" y2="27" class="grid-line"/>
<line x1="0" y1="27.5" x2="72" y2="27.5" class="grid-line"/>
<line x1="0" y1="28" x2="72" y2="28" class="grid-line-2mu"/>
<line x1="0" y1="28.5" x2="72" y2="28.5" class="grid-line"/>
<line x1="0" y1="29" x2="72" y2="29" class="grid-line"/>
<line x1="0" y1="29.5" x2="72" y2="29.5" class="grid-line"/>
<line x1="0" y1="30" x2="72" y2="30" class="grid-line-6mu"/>
<line x1="0" y1="30.5" x2="72" y2="30.5" class="grid-line"/>
<line x1="0" y1="31" x2="72" y2="31" class="grid-line"/>
<line x1="0" y1="31.5" x2="72" y2="31.5" class="grid-line"/>
<line x1="0" y1="32" x2="72" y2="32" class="grid-line-2mu"/>
<line x1="0" y1="32.5" x2="72" y2="32.5" class="grid-line"/>
<line x1="0" y1="33" x2="72" y2="33" class="grid-line"/>
<line x1="0" y1="33.5" x2="72" y2="33.5" class="grid-line"/>
<line x1="0" y1="34" x2="72" y2="34" class="grid-line-2mu"/>
<line x1="0" y1="34.5" x2="72" y2="34.5" class="grid-line"/>
<line x1="0" y1="35" x2="72" y2="35" class="grid-line"/>
<line x1="0" y1="35.5" x2="72" y2="35.5" class="grid-line"/>
<line x1="0" y1="36" x2="72" y2="36" class="grid-line-6mu"/>
<line x1="0" y1="36.5" x2="72" y2="36.5" class="grid-line"/>
<line x1="0" y1="37" x2="72" y2="37" class="grid-line"/>
<line x1="0" y1="37.5" x2="72" y2="37.5" class="grid-line"/>
<line x1="0" y1="38" x2="72" y2="38" class="grid-line-2mu"/>
<line x1="0" y1="38.5" x2="72" y2="38.5" class="grid-line"/>
<line x1="0" y1="39" x2="72" y2="39" class="grid-line"/>
<line x1="0" y1="39.5" x2="72" y2="39.5" class="grid-line"/>
<line x1="0" y1="40" x2="72" y2="40" class="grid-line-2mu"/>
<line x1="0" y1="40.5" x2="72" y2="40.5" class="grid-line"/>
<line x1="0" y1="41" x2="72" y2="41" class="grid-line"/>
<line x1="0" y1="41.5" x2="72" y2="41.5" class="grid-line"/>
<line x1="0" y1="42" x2="72" y2="42" class="grid-line-6mu"/>
<line x1="0" y1="42.5" x2="72" y2="42.5" class="grid-line"/>
<line x1="0" y1="43" x2="72" y2="43" class="grid-line"/>
<line x1="0" y1="43.5" x2="72" y2="43.5" class="grid-line"/>
<line x1="0" y1="44" x2="72" y2="44" class="grid-line-2mu"/>
<line x1="0" y1="44.5" x2="72" y2="44.5" class="grid-line"/>
<line x1="0" y1="45" x2="72" y2="45" class="grid-line"/>
<line x1="0" y1="45.5" x2="72" y2="45.5" class="grid-line"/>
<line x1="0" y1="46" x2="72" y2="46" class="grid-line-2mu"/>
<line x1="0" y1="46.5" x2="72" y2="46.5" class="grid-line"/>
<line x1="0" y1="47" x2="72" y2="47" class="grid-line"/>
<line x1="0" y1="47.5" x2="72" y2="47.5" class="grid-line"/>
<line x1="0" y1="48" x2="72" y2="48" class="grid-line-6mu"/>
</g>
<g id="layer-delaunay" class="layer ">
<line x1="36.86355485580887" y1="20.70886475010212" x2="41.84387701841561" y2="29.380450023663574" class="delaunay-line"/>
<line x1="41.84387701841561" y1="29.380450023663574" x2="42.818831765656796" y2="21.440080810533" class="delaunay-line"/>
<line x1="42.818831765656796" y1="21.440080810533" x2="36.86355485580887" y2="20.70886475010212" class="delaunay-line"/>
<line x1="36.86355485580887" y1="20.70886475010212" x2="35.88860010856769" y2="28.649233963232692" class="delaunay-line"/>
<line x1="35.88860010856769" y1="28.649233963232692" x2="41.84387701841561" y2="29.380450023663574" class="delaunay-line"/>
<line x1="41.84387701841561" y1="29.380450023663574" x2="36.86355485580887" y2="20.70886475010212" class="delaunay-line"/>
<line x1="35.88860010856769" y1="28.649233963232692" x2="37.51393689252349" y2="37.13915281486534" class="delaunay-line"/>
<line x1="37.51393689252349" y1="37.13915281486534" x2="41.84387701841561" y2="29.380450023663574" class="delaunay-line"/>
<line x1="41.84387701841561" y1="29.380450023663574" x2="35.88860010856769" y2="28.649233963232692" class="delaunay-line"/>
<line x1="44.76439918881668" y1="40.52009890879094" x2="51.53256499083394" y2="30.850650573439122" class="delaunay-line"/>
<line x1="51.53256499083394" y1="30.850650573439122" x2="41.84387701841561" y2="29.380450023663574" class="delaunay-line"/>
<line x1="41.84387701841561" y1="29.380450023663574" x2="44.76439918881668" y2="40.52009890879094" class="delaunay-line"/>
<line x1="41.84387701841561" y1="29.380450023663574" x2="51.53256499083394" y2="30.850650573439122" class="delaunay-line"/>
<line x1="51.53256499083394" y1="30.850650573439122" x2="42.818831765656796" y2="21.440080810533" class="delaunay-line"/>
<line x1="42.818831765656796" y1="21.440080810533" x2="41.84387701841561" y2="29.380450023663574" class="delaunay-line"/>
<line x1="51.53256499083394" y1="30.850650573439122" x2="53.71112113089405" y2="27.495968301657424" class="delaunay-line"/>
<line x1="53.71112113089405" y1="27.495968301657424" x2="42.818831765656796" y2="21.440080810533" class="delaunay-line"/>
<line x1="42.818831765656796" y1="21.440080810533" x2="51.53256499083394" y2="30.850650573439122" class="delaunay-line"/>
<line x1="53.71112113089405" y1="27.495968301657424" x2="53.439916496530834" y2="19.861003079258104" class="delaunay-line"/>
<line x1="53.439916496530834" y1="19.861003079258104" x2="42.818831765656796" y2="21.440080810533" class="delaunay-line"/>
<line x1="42.818831765656796" y1="21.440080810533" x2="53.71112113089405" y2="27.495968301657424" class="delaunay-line"/>
<line x1="42.818831765656796" y1="21.440080810533" x2="36.51866217434343" y2="10.03447147835948" class="delaunay-line"/>
<line x1="36.51866217434343" y1="10.03447147835948" x2="36.86355485580887" y2="20.70886475010212" class="delaunay-line"/>
<line x1="36.86355485580887" y1="20.70886475010212" x2="42.818831765656796" y2="21.440080810533" class="delaunay-line"/>
<line x1="44.39922266477591" y1="9.740620435135593" x2="36.51866217434343" y2="10.03447147835948" class="delaunay-line"/>
<line x1="36.51866217434343" y1="10.03447147835948" x2="42.818831765656796" y2="21.440080810533" class="delaunay-line"/>
<line x1="42.818831765656796" y1="21.440080810533" x2="44.39922266477591" y2="9.740620435135593" class="delaunay-line"/>
<line x1="36.86355485580887" y1="20.70886475010212" x2="23.939506063846455" y2="18.13870181879886" class="delaunay-line"/>
<line x1="23.939506063846455" y1="18.13870181879886" x2="35.88860010856769" y2="28.649233963232692" class="delaunay-line"/>
<line x1="35.88860010856769" y1="28.649233963232692" x2="36.86355485580887" y2="20.70886475010212" class="delaunay-line"/>
<line x1="53.96285095301679" y1="13.883834890707632" x2="44.39922266477591" y2="9.740620435135593" class="delaunay-line"/>
<line x1="44.39922266477591" y1="9.740620435135593" x2="42.818831765656796" y2="21.440080810533" class="delaunay-line"/>
<line x1="42.818831765656796" y1="21.440080810533" x2="53.96285095301679" y2="13.883834890707632" class="delaunay-line"/>
<line x1="37.51393689252349" y1="37.13915281486534" x2="44.76439918881668" y2="40.52009890879094" class="delaunay-line"/>
<line x1="44.76439918881668" y1="40.52009890879094" x2="41.84387701841561" y2="29.380450023663574" class="delaunay-line"/>
<line x1="41.84387701841561" y1="29.380450023663574" x2="37.51393689252349" y2="37.13915281486534" class="delaunay-line"/>
<line x1="44.39922266477591" y1="9.740620435135593" x2="40.17284400491384" y2="8.40752490605628" class="delaunay-line"/>
<line x1="40.17284400491384" y1="8.40752490605628" x2="36.51866217434343" y2="10.03447147835948" class="delaunay-line"/>
<line x1="36.51866217434343" y1="10.03447147835948" x2="44.39922266477591" y2="9.740620435135593" class="delaunay-line"/>
<line x1="29.981360810253737" y1="10.474972395881968" x2="23.939506063846455" y2="18.13870181879886" class="delaunay-line"/>
<line x1="23.939506063846455" y1="18.13870181879886" x2="36.86355485580887" y2="20.70886475010212" class="delaunay-line"/>
<line x1="36.86355485580887" y1="20.70886475010212" x2="29.981360810253737" y2="10.474972395881968" class="delaunay-line"/>
<line x1="23.429191029493225" y1="35.099119374036576" x2="34.97822732207929" y2="42.57699953708524" class="delaunay-line"/>
<line x1="34.97822732207929" y1="42.57699953708524" x2="37.51393689252349" y2="37.13915281486534" class="delaunay-line"/>
<line x1="37.51393689252349" y1="37.13915281486534" x2="23.429191029493225" y2="35.099119374036576" class="delaunay-line"/>
<line x1="31.479787183917384" y1="6.766236977614819" x2="29.981360810253737" y2="10.474972395881968" class="delaunay-line"/>
<line x1="29.981360810253737" y1="10.474972395881968" x2="36.51866217434343" y2="10.03447147835948" class="delaunay-line"/>
<line x1="36.51866217434343" y1="10.03447147835948" x2="31.479787183917384" y2="6.766236977614819" class="delaunay-line"/>
<line x1="36.51866217434343" y1="10.03447147835948" x2="29.981360810253737" y2="10.474972395881968" class="delaunay-line"/>
<line x1="29.981360810253737" y1="10.474972395881968" x2="36.86355485580887" y2="20.70886475010212" class="delaunay-line"/>
<line x1="36.86355485580887" y1="20.70886475010212" x2="36.51866217434343" y2="10.03447147835948" class="delaunay-line"/>
<line x1="23.429191029493225" y1="35.099119374036576" x2="37.51393689252349" y2="37.13915281486534" class="delaunay-line"/>
<line x1="37.51393689252349" y1="37.13915281486534" x2="35.88860010856769" y2="28.649233963232692" class="delaunay-line"/>
<line x1="35.88860010856769" y1="28.649233963232692" x2="23.429191029493225" y2="35.099119374036576" class="delaunay-line"/>
<line x1="37.51393689252349" y1="37.13915281486534" x2="34.97822732207929" y2="42.57699953708524" class="delaunay-line"/>
<line x1="34.97822732207929" y1="42.57699953708524" x2="44.76439918881668" y2="40.52009890879094" class="delaunay-line"/>
<line x1="44.76439918881668" y1="40.52009890879094" x2="37.51393689252349" y2="37.13915281486534" class="delaunay-line"/>
<line x1="44.39922266477591" y1="9.740620435135593" x2="41.47380785829923" y2="7.0126269948856" class="delaunay-line"/>
<line x1="41.47380785829923" y1="7.0126269948856" x2="40.17284400491384" y2="8.40752490605628" class="delaunay-line"/>
<line x1="40.17284400491384" y1="8.40752490605628" x2="44.39922266477591" y2="9.740620435135593" class="delaunay-line"/>
<line x1="34.07824231588863" y1="4.553198732503874" x2="31.479787183917384" y2="6.766236977614819" class="delaunay-line"/>
<line x1="31.479787183917384" y1="6.766236977614819" x2="36.51866217434343" y2="10.03447147835948" class="delaunay-line"/>
<line x1="36.51866217434343" y1="10.03447147835948" x2="34.07824231588863" y2="4.553198732503874" class="delaunay-line"/>
<line x1="53.439916496530834" y1="19.861003079258104" x2="53.96285095301679" y2="13.883834890707632" class="delaunay-line"/>
<line x1="53.96285095301679" y1="13.883834890707632" x2="42.818831765656796" y2="21.440080810533" class="delaunay-line"/>
<line x1="42.818831765656796" y1="21.440080810533" x2="53.439916496530834" y2="19.861003079258104" class="delaunay-line"/>
<line x1="44.39922266477591" y1="9.740620435135593" x2="48.4912128251509" y2="5.352498225420569" class="delaunay-line"/>
<line x1="48.4912128251509" y1="5.352498225420569" x2="41.47380785829923" y2="7.0126269948856" class="delaunay-line"/>
<line x1="41.47380785829923" y1="7.0126269948856" x2="44.39922266477591" y2="9.740620435135593" class="delaunay-line"/>
<line x1="61.4094740812648" y1="20.55824902123937" x2="53.96285095301679" y2="13.883834890707632" class="delaunay-line"/>
<line x1="53.96285095301679" y1="13.883834890707632" x2="53.439916496530834" y2="19.861003079258104" class="delaunay-line"/>
<line x1="53.439916496530834" y1="19.861003079258104" x2="61.4094740812648" y2="20.55824902123937" class="delaunay-line"/>
<line x1="18.602973155893466" y1="28.786280109566817" x2="23.429191029493225" y2="35.099119374036576" class="delaunay-line"/>
<line x1="23.429191029493225" y1="35.099119374036576" x2="35.88860010856769" y2="28.649233963232692" class="delaunay-line"/>
<line x1="35.88860010856769" y1="28.649233963232692" x2="18.602973155893466" y2="28.786280109566817" class="delaunay-line"/>
<line x1="51.53256499083394" y1="30.850650573439122" x2="58.74314453856659" y2="30.76380251174759" class="delaunay-line"/>
<line x1="58.74314453856659" y1="30.76380251174759" x2="53.71112113089405" y2="27.495968301657424" class="delaunay-line"/>
<line x1="53.71112113089405" y1="27.495968301657424" x2="51.53256499083394" y2="30.850650573439122" class="delaunay-line"/>
<line x1="53.71112113089405" y1="27.495968301657424" x2="61.4094740812648" y2="20.55824902123937" class="delaunay-line"/>
<line x1="61.4094740812648" y1="20.55824902123937" x2="53.439916496530834" y2="19.861003079258104" class="delaunay-line"/>
<line x1="53.439916496530834" y1="19.861003079258104" x2="53.71112113089405" y2="27.495968301657424" class="delaunay-line"/>
<line x1="56.56679554627665" y1="38.76438693777353" x2="56.56458839850648" y2="34.11848478352928" class="delaunay-line"/>
<line x1="56.56458839850648" y1="34.11848478352928" x2="51.53256499083394" y2="30.850650573439122" class="delaunay-line"/>
<line x1="51.53256499083394" y1="30.850650573439122" x2="56.56679554627665" y2="38.76438693777353" class="delaunay-line"/>
<line x1="34.07824231588863" y1="4.553198732503874" x2="36.51866217434343" y2="10.03447147835948" class="delaunay-line"/>
<line x1="36.51866217434343" y1="10.03447147835948" x2="37.73242414645904" y2="2.926252160200673" class="delaunay-line"/>
<line x1="37.73242414645904" y1="2.926252160200673" x2="34.07824231588863" y2="4.553198732503874" class="delaunay-line"/>
<line x1="29.981360810253737" y1="10.474972395881968" x2="24.14890304406146" y2="12.142356856684286" class="delaunay-line"/>
<line x1="24.14890304406146" y1="12.142356856684286" x2="23.939506063846455" y2="18.13870181879886" class="delaunay-line"/>
<line x1="23.939506063846455" y1="18.13870181879886" x2="29.981360810253737" y2="10.474972395881968" class="delaunay-line"/>
<line x1="24.418257682853014" y1="8.227332835386497" x2="24.14890304406146" y2="12.142356856684286" class="delaunay-line"/>
<line x1="24.14890304406146" y1="12.142356856684286" x2="29.981360810253737" y2="10.474972395881968" class="delaunay-line"/>
<line x1="29.981360810253737" y1="10.474972395881968" x2="24.418257682853014" y2="8.227332835386497" class="delaunay-line"/>
<line x1="56.56458839850648" y1="34.11848478352928" x2="58.74314453856659" y2="30.76380251174759" class="delaunay-line"/>
<line x1="58.74314453856659" y1="30.76380251174759" x2="51.53256499083394" y2="30.850650573439122" class="delaunay-line"/>
<line x1="51.53256499083394" y1="30.850650573439122" x2="56.56458839850648" y2="34.11848478352928" class="delaunay-line"/>
<line x1="20.15133973598508" y1="12.002758869874283" x2="19.941942755770075" y2="17.999103831988858" class="delaunay-line"/>
<line x1="19.941942755770075" y1="17.999103831988858" x2="23.939506063846455" y2="18.13870181879886" class="delaunay-line"/>
<line x1="23.939506063846455" y1="18.13870181879886" x2="20.15133973598508" y2="12.002758869874283" class="delaunay-line"/>
<line x1="23.939506063846455" y1="18.13870181879886" x2="18.602973155893466" y2="28.786280109566817" class="delaunay-line"/>
<line x1="18.602973155893466" y1="28.786280109566817" x2="35.88860010856769" y2="28.649233963232692" class="delaunay-line"/>
<line x1="35.88860010856769" y1="28.649233963232692" x2="23.939506063846455" y2="18.13870181879886" class="delaunay-line"/>
<line x1="53.96285095301679" y1="13.883834890707632" x2="52.41354409464617" y2="8.946243202863307" class="delaunay-line"/>
<line x1="52.41354409464617" y1="8.946243202863307" x2="44.39922266477591" y2="9.740620435135593" class="delaunay-line"/>
<line x1="44.39922266477591" y1="9.740620435135593" x2="53.96285095301679" y2="13.883834890707632" class="delaunay-line"/>
<line x1="19.941942755770075" y1="17.999103831988858" x2="18.602973155893466" y2="22.786280109566817" class="delaunay-line"/>
<line x1="18.602973155893466" y1="22.786280109566817" x2="23.939506063846455" y2="18.13870181879886" class="delaunay-line"/>
<line x1="23.939506063846455" y1="18.13870181879886" x2="19.941942755770075" y2="17.999103831988858" class="delaunay-line"/>
<line x1="18.602973155893466" y1="22.786280109566817" x2="18.602973155893466" y2="28.786280109566817" class="delaunay-line"/>
<line x1="18.602973155893466" y1="28.786280109566817" x2="23.939506063846455" y2="18.13870181879886" class="delaunay-line"/>
<line x1="23.939506063846455" y1="18.13870181879886" x2="18.602973155893466" y2="22.786280109566817" class="delaunay-line"/>
<line x1="34.97822732207929" y1="42.57699953708524" x2="42.228689618372485" y2="45.957945631010844" class="delaunay-line"/>
<line x1="42.228689618372485" y1="45.957945631010844" x2="44.76439918881668" y2="40.52009890879094" class="delaunay-line"/>
<line x1="44.76439918881668" y1="40.52009890879094" x2="34.97822732207929" y2="42.57699953708524" class="delaunay-line"/>
<line x1="44.76439918881668" y1="40.52009890879094" x2="56.56679554627665" y2="38.76438693777353" class="delaunay-line"/>
<line x1="56.56679554627665" y1="38.76438693777353" x2="51.53256499083394" y2="30.850650573439122" class="delaunay-line"/>
<line x1="51.53256499083394" y1="30.850650573439122" x2="44.76439918881668" y2="40.52009890879094" class="delaunay-line"/>
<line x1="31.479787183917384" y1="6.766236977614819" x2="24.418257682853014" y2="8.227332835386497" class="delaunay-line"/>
<line x1="24.418257682853014" y1="8.227332835386497" x2="29.981360810253737" y2="10.474972395881968" class="delaunay-line"/>
<line x1="29.981360810253737" y1="10.474972395881968" x2="31.479787183917384" y2="6.766236977614819" class="delaunay-line"/>
<line x1="37.73242414645904" y1="2.926252160200673" x2="36.51866217434343" y2="10.03447147835948" class="delaunay-line"/>
<line x1="36.51866217434343" y1="10.03447147835948" x2="40.17284400491384" y2="8.40752490605628" class="delaunay-line"/>
<line x1="40.17284400491384" y1="8.40752490605628" x2="37.73242414645904" y2="2.926252160200673" class="delaunay-line"/>
<line x1="37.73242414645904" y1="2.926252160200673" x2="40.17284400491384" y2="8.40752490605628" class="delaunay-line"/>
<line x1="40.17284400491384" y1="8.40752490605628" x2="41.47380785829923" y2="7.0126269948856" class="delaunay-line"/>
<line x1="41.47380785829923" y1="7.0126269948856" x2="37.73242414645904" y2="2.926252160200673" class="delaunay-line"/>
<line x1="52.41354409464617" y1="8.946243202863307" x2="48.4912128251509" y2="5.352498225420569" class="delaunay-line"/>
<line x1="48.4912128251509" y1="5.352498225420569" x2="44.39922266477591" y2="9.740620435135593" class="delaunay-line"/>
<line x1="44.39922266477591" y1="9.740620435135593" x2="52.41354409464617" y2="8.946243202863307" class="delaunay-line"/>
<line x1="54.416587849004856" y1="44.36586949675674" x2="56.56679554627665" y2="38.76438693777353" class="delaunay-line"/>
<line x1="56.56679554627665" y1="38.76438693777353" x2="44.76439918881668" y2="40.52009890879094" class="delaunay-line"/>
<line x1="44.76439918881668" y1="40.52009890879094" x2="54.416587849004856" y2="44.36586949675674" class="delaunay-line"/>
<line x1="65.80883411811749" y1="34.39382899773518" x2="64.90902990074204" y2="30.496348738594243" class="delaunay-line"/>
<line x1="64.90902990074204" y1="30.496348738594243" x2="58.74314453856659" y2="30.76380251174759" class="delaunay-line"/>
<line x1="58.74314453856659" y1="30.76380251174759" x2="65.80883411811749" y2="34.39382899773518" class="delaunay-line"/>
<line x1="19.941942755770075" y1="17.999103831988858" x2="18.71040248160163" y2="17.135118428015392" class="delaunay-line"/>
<line x1="18.71040248160163" y1="17.135118428015392" x2="18.602973155893466" y2="22.786280109566817" class="delaunay-line"/>
<line x1="18.602973155893466" y1="22.786280109566817" x2="19.941942755770075" y2="17.999103831988858" class="delaunay-line"/>
<line x1="20.15133973598508" y1="12.002758869874283" x2="18.71040248160163" y2="17.135118428015392" class="delaunay-line"/>
<line x1="18.71040248160163" y1="17.135118428015392" x2="19.941942755770075" y2="17.999103831988858" class="delaunay-line"/>
<line x1="19.941942755770075" y1="17.999103831988858" x2="20.15133973598508" y2="12.002758869874283" class="delaunay-line"/>
<line x1="18.42434424981153" y1="38.598130555953595" x2="24.056361809099144" y2="41.06625074624621" class="delaunay-line"/>
<line x1="24.056361809099144" y1="41.06625074624621" x2="23.429191029493225" y2="35.099119374036576" class="delaunay-line"/>
<line x1="23.429191029493225" y1="35.099119374036576" x2="18.42434424981153" y2="38.598130555953595" class="delaunay-line"/>
<line x1="23.429191029493225" y1="35.099119374036576" x2="24.056361809099144" y2="41.06625074624621" class="delaunay-line"/>
<line x1="24.056361809099144" y1="41.06625074624621" x2="34.97822732207929" y2="42.57699953708524" class="delaunay-line"/>
<line x1="34.97822732207929" y1="42.57699953708524" x2="23.429191029493225" y2="35.099119374036576" class="delaunay-line"/>
<line x1="34.97822732207929" y1="42.57699953708524" x2="20.078274227626054" y2="41.48436459931682" class="delaunay-line"/>
<line x1="20.078274227626054" y1="41.48436459931682" x2="42.228689618372485" y2="45.957945631010844" class="delaunay-line"/>
<line x1="42.228689618372485" y1="45.957945631010844" x2="34.97822732207929" y2="42.57699953708524" class="delaunay-line"/>
<line x1="45.56579801867422" y1="2.6245047851705765" x2="37.73242414645904" y2="2.926252160200673" class="delaunay-line"/>
<line x1="37.73242414645904" y1="2.926252160200673" x2="41.47380785829923" y2="7.0126269948856" class="delaunay-line"/>
<line x1="41.47380785829923" y1="7.0126269948856" x2="45.56579801867422" y2="2.6245047851705765" class="delaunay-line"/>
<line x1="18.602973155893466" y1="28.786280109566817" x2="19.451103448020135" y2="35.517233227107184" class="delaunay-line"/>
<line x1="19.451103448020135" y1="35.517233227107184" x2="23.429191029493225" y2="35.099119374036576" class="delaunay-line"/>
<line x1="23.429191029493225" y1="35.099119374036576" x2="18.602973155893466" y2="28.786280109566817" class="delaunay-line"/>
<line x1="25.91668405651666" y1="4.518597417119347" x2="24.418257682853014" y2="8.227332835386497" class="delaunay-line"/>
<line x1="24.418257682853014" y1="8.227332835386497" x2="31.479787183917384" y2="6.766236977614819" class="delaunay-line"/>
<line x1="31.479787183917384" y1="6.766236977614819" x2="25.91668405651666" y2="4.518597417119347" class="delaunay-line"/>
<line x1="24.14890304406146" y1="12.142356856684286" x2="20.15133973598508" y2="12.002758869874283" class="delaunay-line"/>
<line x1="20.15133973598508" y1="12.002758869874283" x2="23.939506063846455" y2="18.13870181879886" class="delaunay-line"/>
<line x1="23.939506063846455" y1="18.13870181879886" x2="24.14890304406146" y2="12.142356856684286" class="delaunay-line"/>
<line x1="25.91668405651666" y1="4.518597417119347" x2="31.479787183917384" y2="6.766236977614819" class="delaunay-line"/>
<line x1="31.479787183917384" y1="6.766236977614819" x2="34.07824231588863" y2="4.553198732503874" class="delaunay-line"/>
<line x1="34.07824231588863" y1="4.553198732503874" x2="25.91668405651666" y2="4.518597417119347" class="delaunay-line"/>
<line x1="58.74314453856659" y1="30.76380251174759" x2="61.4094740812648" y2="20.55824902123937" class="delaunay-line"/>
<line x1="61.4094740812648" y1="20.55824902123937" x2="53.71112113089405" y2="27.495968301657424" class="delaunay-line"/>
<line x1="53.71112113089405" y1="27.495968301657424" x2="58.74314453856659" y2="30.76380251174759" class="delaunay-line"/>
<line x1="53.96285095301679" y1="13.883834890707632" x2="57.71122965179973" y2="11.763072579578651" class="delaunay-line"/>
<line x1="57.71122965179973" y1="11.763072579578651" x2="52.41354409464617" y2="8.946243202863307" class="delaunay-line"/>
<line x1="52.41354409464617" y1="8.946243202863307" x2="53.96285095301679" y2="13.883834890707632" class="delaunay-line"/>
<line x1="52.41354409464617" y1="8.946243202863307" x2="54.291430345789735" y2="5.4144528314275995" class="delaunay-line"/>
<line x1="54.291430345789735" y1="5.4144528314275995" x2="48.4912128251509" y2="5.352498225420569" class="delaunay-line"/>
<line x1="48.4912128251509" y1="5.352498225420569" x2="52.41354409464617" y2="8.946243202863307" class="delaunay-line"/>
<line x1="61.93240853775075" y1="14.581080832688897" x2="57.71122965179973" y2="11.763072579578651" class="delaunay-line"/>
<line x1="57.71122965179973" y1="11.763072579578651" x2="53.96285095301679" y2="13.883834890707632" class="delaunay-line"/>
<line x1="53.96285095301679" y1="13.883834890707632" x2="61.93240853775075" y2="14.581080832688897" class="delaunay-line"/>
<line x1="24.418257682853014" y1="8.227332835386497" x2="20.15133973598508" y2="12.002758869874283" class="delaunay-line"/>
<line x1="20.15133973598508" y1="12.002758869874283" x2="24.14890304406146" y2="12.142356856684286" class="delaunay-line"/>
<line x1="24.14890304406146" y1="12.142356856684286" x2="24.418257682853014" y2="8.227332835386497" class="delaunay-line"/>
<line x1="54.291430345789735" y1="5.4144528314275995" x2="45.56579801867422" y2="2.6245047851705765" class="delaunay-line"/>
<line x1="45.56579801867422" y1="2.6245047851705765" x2="48.4912128251509" y2="5.352498225420569" class="delaunay-line"/>
<line x1="48.4912128251509" y1="5.352498225420569" x2="54.291430345789735" y2="5.4144528314275995" class="delaunay-line"/>
<line x1="48.4912128251509" y1="5.352498225420569" x2="45.56579801867422" y2="2.6245047851705765" class="delaunay-line"/>
<line x1="45.56579801867422" y1="2.6245047851705765" x2="41.47380785829923" y2="7.0126269948856" class="delaunay-line"/>
<line x1="41.47380785829923" y1="7.0126269948856" x2="48.4912128251509" y2="5.352498225420569" class="delaunay-line"/>
<line x1="42.228689618372485" y1="45.957945631010844" x2="54.416587849004856" y2="44.36586949675674" class="delaunay-line"/>
<line x1="54.416587849004856" y1="44.36586949675674" x2="44.76439918881668" y2="40.52009890879094" class="delaunay-line"/>
<line x1="44.76439918881668" y1="40.52009890879094" x2="42.228689618372485" y2="45.957945631010844" class="delaunay-line"/>
<line x1="37.73242414645904" y1="2.926252160200673" x2="25.91668405651666" y2="4.518597417119347" class="delaunay-line"/>
<line x1="25.91668405651666" y1="4.518597417119347" x2="34.07824231588863" y2="4.553198732503874" class="delaunay-line"/>
<line x1="34.07824231588863" y1="4.553198732503874" x2="37.73242414645904" y2="2.926252160200673" class="delaunay-line"/>
<line x1="17.832933724502446" y1="8.528449536361899" x2="18.71040248160163" y2="11.135118428015392" class="delaunay-line"/>
<line x1="18.71040248160163" y1="11.135118428015392" x2="20.15133973598508" y2="12.002758869874283" class="delaunay-line"/>
<line x1="20.15133973598508" y1="12.002758869874283" x2="17.832933724502446" y2="8.528449536361899" class="delaunay-line"/>
<line x1="57.71122965179973" y1="11.763072579578651" x2="54.291430345789735" y2="5.4144528314275995" class="delaunay-line"/>
<line x1="54.291430345789735" y1="5.4144528314275995" x2="52.41354409464617" y2="8.946243202863307" class="delaunay-line"/>
<line x1="52.41354409464617" y1="8.946243202863307" x2="57.71122965179973" y2="11.763072579578651" class="delaunay-line"/>
<line x1="14.71040248160163" y1="17.135118428015392" x2="18.602973155893466" y2="22.786280109566817" class="delaunay-line"/>
<line x1="18.602973155893466" y1="22.786280109566817" x2="18.71040248160163" y2="17.135118428015392" class="delaunay-line"/>
<line x1="18.71040248160163" y1="17.135118428015392" x2="14.71040248160163" y2="17.135118428015392" class="delaunay-line"/>
<line x1="14.71040248160163" y1="17.135118428015392" x2="14.602973155893466" y2="22.786280109566817" class="delaunay-line"/>
<line x1="14.602973155893466" y1="22.786280109566817" x2="18.602973155893466" y2="22.786280109566817" class="delaunay-line"/>
<line x1="18.602973155893466" y1="22.786280109566817" x2="14.71040248160163" y2="17.135118428015392" class="delaunay-line"/>
<line x1="18.602973155893466" y1="22.786280109566817" x2="13.287894427630958" y2="26.276326071918348" class="delaunay-line"/>
<line x1="13.287894427630958" y1="26.276326071918348" x2="18.602973155893466" y2="28.786280109566817" class="delaunay-line"/>
<line x1="18.602973155893466" y1="28.786280109566817" x2="18.602973155893466" y2="22.786280109566817" class="delaunay-line"/>
<line x1="16.48510576882618" y1="35.099651727396015" x2="18.42434424981153" y2="38.598130555953595" class="delaunay-line"/>
<line x1="18.42434424981153" y1="38.598130555953595" x2="19.451103448020135" y2="35.517233227107184" class="delaunay-line"/>
<line x1="19.451103448020135" y1="35.517233227107184" x2="16.48510576882618" y2="35.099651727396015" class="delaunay-line"/>
<line x1="61.4094740812648" y1="20.55824902123937" x2="61.93240853775075" y2="14.581080832688897" class="delaunay-line"/>
<line x1="61.93240853775075" y1="14.581080832688897" x2="53.96285095301679" y2="13.883834890707632" class="delaunay-line"/>
<line x1="53.96285095301679" y1="13.883834890707632" x2="61.4094740812648" y2="20.55824902123937" class="delaunay-line"/>
<line x1="57.71122965179973" y1="11.763072579578651" x2="59.58911590294329" y2="8.231282208142943" class="delaunay-line"/>
<line x1="59.58911590294329" y1="8.231282208142943" x2="54.291430345789735" y2="5.4144528314275995" class="delaunay-line"/>
<line x1="54.291430345789735" y1="5.4144528314275995" x2="57.71122965179973" y2="11.763072579578651" class="delaunay-line"/>
<line x1="17.832933724502446" y1="8.528449536361899" x2="20.15133973598508" y2="12.002758869874283" class="delaunay-line"/>
<line x1="20.15133973598508" y1="12.002758869874283" x2="24.418257682853014" y2="8.227332835386497" class="delaunay-line"/>
<line x1="24.418257682853014" y1="8.227332835386497" x2="17.832933724502446" y2="8.528449536361899" class="delaunay-line"/>
<line x1="20.15133973598508" y1="12.002758869874283" x2="18.71040248160163" y2="11.135118428015392" class="delaunay-line"/>
<line x1="18.71040248160163" y1="11.135118428015392" x2="18.71040248160163" y2="17.135118428015392" class="delaunay-line"/>
<line x1="18.71040248160163" y1="17.135118428015392" x2="20.15133973598508" y2="12.002758869874283" class="delaunay-line"/>
<line x1="16.48510576882618" y1="35.099651727396015" x2="19.451103448020135" y2="35.517233227107184" class="delaunay-line"/>
<line x1="19.451103448020135" y1="35.517233227107184" x2="18.602973155893466" y2="28.786280109566817" class="delaunay-line"/>
<line x1="18.602973155893466" y1="28.786280109566817" x2="16.48510576882618" y2="35.099651727396015" class="delaunay-line"/>
<line x1="19.451103448020135" y1="35.517233227107184" x2="18.42434424981153" y2="38.598130555953595" class="delaunay-line"/>
<line x1="18.42434424981153" y1="38.598130555953595" x2="23.429191029493225" y2="35.099119374036576" class="delaunay-line"/>
<line x1="23.429191029493225" y1="35.099119374036576" x2="19.451103448020135" y2="35.517233227107184" class="delaunay-line"/>
<line x1="14.602973155893466" y1="28.786280109566817" x2="16.48510576882618" y2="35.099651727396015" class="delaunay-line"/>
<line x1="16.48510576882618" y1="35.099651727396015" x2="18.602973155893466" y2="28.786280109566817" class="delaunay-line"/>
<line x1="18.602973155893466" y1="28.786280109566817" x2="14.602973155893466" y2="28.786280109566817" class="delaunay-line"/>
<line x1="13.287894427630958" y1="26.276326071918348" x2="14.602973155893466" y2="28.786280109566817" class="delaunay-line"/>
<line x1="14.602973155893466" y1="28.786280109566817" x2="18.602973155893466" y2="28.786280109566817" class="delaunay-line"/>
<line x1="18.602973155893466" y1="28.786280109566817" x2="13.287894427630958" y2="26.276326071918348" class="delaunay-line"/>
<line x1="18.42434424981153" y1="38.598130555953595" x2="20.078274227626054" y2="41.48436459931682" class="delaunay-line"/>
<line x1="20.078274227626054" y1="41.48436459931682" x2="24.056361809099144" y2="41.06625074624621" class="delaunay-line"/>
<line x1="24.056361809099144" y1="41.06625074624621" x2="18.42434424981153" y2="38.598130555953595" class="delaunay-line"/>
<line x1="24.056361809099144" y1="41.06625074624621" x2="20.078274227626054" y2="41.48436459931682" class="delaunay-line"/>
<line x1="20.078274227626054" y1="41.48436459931682" x2="34.97822732207929" y2="42.57699953708524" class="delaunay-line"/>
<line x1="34.97822732207929" y1="42.57699953708524" x2="24.056361809099144" y2="41.06625074624621" class="delaunay-line"/>
<line x1="58.74314453856659" y1="30.76380251174759" x2="65.01187258914926" y2="23.12720862488387" class="delaunay-line"/>
<line x1="65.01187258914926" y1="23.12720862488387" x2="61.4094740812648" y2="20.55824902123937" class="delaunay-line"/>
<line x1="61.4094740812648" y1="20.55824902123937" x2="58.74314453856659" y2="30.76380251174759" class="delaunay-line"/>
<line x1="61.4094740812648" y1="20.55824902123937" x2="64.4889381326633" y2="17.1500404363334" class="delaunay-line"/>
<line x1="64.4889381326633" y1="17.1500404363334" x2="61.93240853775075" y2="14.581080832688897" class="delaunay-line"/>
<line x1="61.93240853775075" y1="14.581080832688897" x2="61.4094740812648" y2="20.55824902123937" class="delaunay-line"/>
<line x1="64.90902990074204" y1="30.496348738594243" x2="65.01187258914926" y2="23.12720862488387" class="delaunay-line"/>
<line x1="65.01187258914926" y1="23.12720862488387" x2="58.74314453856659" y2="30.76380251174759" class="delaunay-line"/>
<line x1="58.74314453856659" y1="30.76380251174759" x2="64.90902990074204" y2="30.496348738594243" class="delaunay-line"/>
<line x1="58.74314453856659" y1="30.76380251174759" x2="56.56458839850648" y2="34.11848478352928" class="delaunay-line"/>
<line x1="56.56458839850648" y1="34.11848478352928" x2="65.80883411811749" y2="34.39382899773518" class="delaunay-line"/>
<line x1="65.80883411811749" y1="34.39382899773518" x2="58.74314453856659" y2="30.76380251174759" class="delaunay-line"/>
<line x1="18.71040248160163" y1="11.135118428015392" x2="14.71040248160163" y2="17.135118428015392" class="delaunay-line"/>
<line x1="14.71040248160163" y1="17.135118428015392" x2="18.71040248160163" y2="17.135118428015392" class="delaunay-line"/>
<line x1="18.71040248160163" y1="17.135118428015392" x2="18.71040248160163" y2="11.135118428015392" class="delaunay-line"/>
<line x1="11.433792461381271" y1="20.569986974147426" x2="13.287894427630958" y2="26.276326071918348" class="delaunay-line"/>
<line x1="13.287894427630958" y1="26.276326071918348" x2="14.602973155893466" y2="22.786280109566817" class="delaunay-line"/>
<line x1="14.602973155893466" y1="22.786280109566817" x2="11.433792461381271" y2="20.569986974147426" class="delaunay-line"/>
<line x1="14.602973155893466" y1="22.786280109566817" x2="13.287894427630958" y2="26.276326071918348" class="delaunay-line"/>
<line x1="13.287894427630958" y1="26.276326071918348" x2="18.602973155893466" y2="22.786280109566817" class="delaunay-line"/>
<line x1="18.602973155893466" y1="22.786280109566817" x2="14.602973155893466" y2="22.786280109566817" class="delaunay-line"/>
<line x1="14.602973155893466" y1="28.786280109566817" x2="9.904157116786273" y2="30.4392795614037" class="delaunay-line"/>
<line x1="9.904157116786273" y1="30.4392795614037" x2="16.48510576882618" y2="35.099651727396015" class="delaunay-line"/>
<line x1="16.48510576882618" y1="35.099651727396015" x2="14.602973155893466" y2="28.786280109566817" class="delaunay-line"/>
<line x1="65.80883411811749" y1="34.39382899773518" x2="56.56458839850648" y2="34.11848478352928" class="delaunay-line"/>
<line x1="56.56458839850648" y1="34.11848478352928" x2="56.56679554627665" y2="38.76438693777353" class="delaunay-line"/>
<line x1="56.56679554627665" y1="38.76438693777353" x2="65.80883411811749" y2="34.39382899773518" class="delaunay-line"/>
<line x1="61.93240853775075" y1="14.581080832688897" x2="59.58911590294329" y2="8.231282208142943" class="delaunay-line"/>
<line x1="59.58911590294329" y1="8.231282208142943" x2="57.71122965179973" y2="11.763072579578651" class="delaunay-line"/>
<line x1="57.71122965179973" y1="11.763072579578651" x2="61.93240853775075" y2="14.581080832688897" class="delaunay-line"/>
<line x1="65.01187258914926" y1="23.12720862488387" x2="64.4889381326633" y2="17.1500404363334" class="delaunay-line"/>
<line x1="64.4889381326633" y1="17.1500404363334" x2="61.4094740812648" y2="20.55824902123937" class="delaunay-line"/>
<line x1="61.4094740812648" y1="20.55824902123937" x2="65.01187258914926" y2="23.12720862488387" class="delaunay-line"/>
<line x1="61.93240853775075" y1="14.581080832688897" x2="66.82893254100405" y2="9.571272055568983" class="delaunay-line"/>
<line x1="66.82893254100405" y1="9.571272055568983" x2="59.58911590294329" y2="8.231282208142943" class="delaunay-line"/>
<line x1="59.58911590294329" y1="8.231282208142943" x2="61.93240853775075" y2="14.581080832688897" class="delaunay-line"/>
<line x1="18.596169706008627" y1="4.601940802571241" x2="17.832933724502446" y2="8.528449536361899" class="delaunay-line"/>
<line x1="17.832933724502446" y1="8.528449536361899" x2="24.418257682853014" y2="8.227332835386497" class="delaunay-line"/>
<line x1="24.418257682853014" y1="8.227332835386497" x2="18.596169706008627" y2="4.601940802571241" class="delaunay-line"/>
<line x1="18.71040248160163" y1="11.135118428015392" x2="14.71040248160163" y2="11.135118428015392" class="delaunay-line"/>
<line x1="14.71040248160163" y1="11.135118428015392" x2="14.71040248160163" y2="17.135118428015392" class="delaunay-line"/>
<line x1="14.71040248160163" y1="17.135118428015392" x2="18.71040248160163" y2="11.135118428015392" class="delaunay-line"/>
<line x1="64.03543895825426" y1="41.631330534135934" x2="65.80883411811749" y2="34.39382899773518" class="delaunay-line"/>
<line x1="65.80883411811749" y1="34.39382899773518" x2="56.56679554627665" y2="38.76438693777353" class="delaunay-line"/>
<line x1="56.56679554627665" y1="38.76438693777353" x2="64.03543895825426" y2="41.631330534135934" class="delaunay-line"/>
<line x1="70.75525028945344" y1="29.14664241253105" x2="68.99665138151626" y2="22.778585653893238" class="delaunay-line"/>
<line x1="68.99665138151626" y1="22.778585653893238" x2="65.01187258914926" y2="23.12720862488387" class="delaunay-line"/>
<line x1="65.01187258914926" y1="23.12720862488387" x2="70.75525028945344" y2="29.14664241253105" class="delaunay-line"/>
<line x1="11.387335397668934" y1="17.87209840773942" x2="11.433792461381271" y2="20.569986974147426" class="delaunay-line"/>
<line x1="11.433792461381271" y1="20.569986974147426" x2="14.71040248160163" y2="17.135118428015392" class="delaunay-line"/>
<line x1="14.71040248160163" y1="17.135118428015392" x2="11.387335397668934" y2="17.87209840773942" class="delaunay-line"/>
<line x1="14.71040248160163" y1="17.135118428015392" x2="11.433792461381271" y2="20.569986974147426" class="delaunay-line"/>
<line x1="11.433792461381271" y1="20.569986974147426" x2="14.602973155893466" y2="22.786280109566817" class="delaunay-line"/>
<line x1="14.602973155893466" y1="22.786280109566817" x2="14.71040248160163" y2="17.135118428015392" class="delaunay-line"/>
<line x1="17.832933724502446" y1="8.528449536361899" x2="14.71040248160163" y2="11.135118428015392" class="delaunay-line"/>
<line x1="14.71040248160163" y1="11.135118428015392" x2="18.71040248160163" y2="11.135118428015392" class="delaunay-line"/>
<line x1="18.71040248160163" y1="11.135118428015392" x2="17.832933724502446" y2="8.528449536361899" class="delaunay-line"/>
<line x1="11.59667922264071" y1="13.877580268721125" x2="11.387335397668934" y2="17.87209840773942" class="delaunay-line"/>
<line x1="11.387335397668934" y1="17.87209840773942" x2="14.71040248160163" y2="17.135118428015392" class="delaunay-line"/>
<line x1="14.71040248160163" y1="17.135118428015392" x2="11.59667922264071" y2="13.877580268721125" class="delaunay-line"/>
<line x1="25.91668405651666" y1="4.518597417119347" x2="18.596169706008627" y2="4.601940802571241" class="delaunay-line"/>
<line x1="18.596169706008627" y1="4.601940802571241" x2="24.418257682853014" y2="8.227332835386497" class="delaunay-line"/>
<line x1="24.418257682853014" y1="8.227332835386497" x2="25.91668405651666" y2="4.518597417119347" class="delaunay-line"/>
<line x1="17.832933724502446" y1="8.528449536361899" x2="11.943170623816464" y2="7.38359556410263" class="delaunay-line"/>
<line x1="11.943170623816464" y1="7.38359556410263" x2="14.71040248160163" y2="11.135118428015392" class="delaunay-line"/>
<line x1="14.71040248160163" y1="11.135118428015392" x2="17.832933724502446" y2="8.528449536361899" class="delaunay-line"/>
<line x1="12.706406605322641" y1="3.457086830311973" x2="18.596169706008627" y2="4.601940802571241" class="delaunay-line"/>
<line x1="18.596169706008627" y1="4.601940802571241" x2="25.91668405651666" y2="4.518597417119347" class="delaunay-line"/>
<line x1="25.91668405651666" y1="4.518597417119347" x2="12.706406605322641" y2="3.457086830311973" class="delaunay-line"/>
<line x1="70.75525028945344" y1="29.14664241253105" x2="65.01187258914926" y2="23.12720862488387" class="delaunay-line"/>
<line x1="65.01187258914926" y1="23.12720862488387" x2="64.90902990074204" y2="30.496348738594243" class="delaunay-line"/>
<line x1="64.90902990074204" y1="30.496348738594243" x2="70.75525028945344" y2="29.14664241253105" class="delaunay-line"/>
<line x1="65.01187258914926" y1="23.12720862488387" x2="68.4737169250303" y2="16.801417465342766" class="delaunay-line"/>
<line x1="68.4737169250303" y1="16.801417465342766" x2="64.4889381326633" y2="17.1500404363334" class="delaunay-line"/>
<line x1="64.4889381326633" y1="17.1500404363334" x2="65.01187258914926" y2="23.12720862488387" class="delaunay-line"/>
<line x1="64.4889381326633" y1="17.1500404363334" x2="66.82893254100405" y2="9.571272055568983" class="delaunay-line"/>
<line x1="66.82893254100405" y1="9.571272055568983" x2="61.93240853775075" y2="14.581080832688897" class="delaunay-line"/>
<line x1="61.93240853775075" y1="14.581080832688897" x2="64.4889381326633" y2="17.1500404363334" class="delaunay-line"/>
<line x1="54.416587849004856" y1="44.36586949675674" x2="64.03543895825426" y2="41.631330534135934" class="delaunay-line"/>
<line x1="64.03543895825426" y1="41.631330534135934" x2="56.56679554627665" y2="38.76438693777353" class="delaunay-line"/>
<line x1="56.56679554627665" y1="38.76438693777353" x2="54.416587849004856" y2="44.36586949675674" class="delaunay-line"/>
<line x1="71.65505450682889" y1="33.04412267167199" x2="70.75525028945344" y2="29.14664241253105" class="delaunay-line"/>
<line x1="70.75525028945344" y1="29.14664241253105" x2="64.90902990074204" y2="30.496348738594243" class="delaunay-line"/>
<line x1="64.90902990074204" y1="30.496348738594243" x2="71.65505450682889" y2="33.04412267167199" class="delaunay-line"/>
<line x1="11.943170623816464" y1="7.38359556410263" x2="11.59667922264071" y2="13.877580268721125" class="delaunay-line"/>
<line x1="11.59667922264071" y1="13.877580268721125" x2="14.71040248160163" y2="11.135118428015392" class="delaunay-line"/>
<line x1="14.71040248160163" y1="11.135118428015392" x2="11.943170623816464" y2="7.38359556410263" class="delaunay-line"/>
<line x1="14.71040248160163" y1="11.135118428015392" x2="11.59667922264071" y2="13.877580268721125" class="delaunay-line"/>
<line x1="11.59667922264071" y1="13.877580268721125" x2="14.71040248160163" y2="17.135118428015392" class="delaunay-line"/>
<line x1="14.71040248160163" y1="17.135118428015392" x2="14.71040248160163" y2="11.135118428015392" class="delaunay-line"/>
<line x1="9.483668362450343" y1="27.51239404941814" x2="14.602973155893466" y2="28.786280109566817" class="delaunay-line"/>
<line x1="14.602973155893466" y1="28.786280109566817" x2="13.287894427630958" y2="26.276326071918348" class="delaunay-line"/>
<line x1="13.287894427630958" y1="26.276326071918348" x2="9.483668362450343" y2="27.51239404941814" class="delaunay-line"/>
<line x1="9.483668362450343" y1="27.51239404941814" x2="9.904157116786273" y2="30.4392795614037" class="delaunay-line"/>
<line x1="9.904157116786273" y1="30.4392795614037" x2="14.602973155893466" y2="28.786280109566817" class="delaunay-line"/>
<line x1="14.602973155893466" y1="28.786280109566817" x2="9.483668362450343" y2="27.51239404941814" class="delaunay-line"/>
<line x1="16.48510576882618" y1="35.099651727396015" x2="13.176626006975155" y2="41.50698827743161" class="delaunay-line"/>
<line x1="13.176626006975155" y1="41.50698827743161" x2="18.42434424981153" y2="38.598130555953595" class="delaunay-line"/>
<line x1="18.42434424981153" y1="38.598130555953595" x2="16.48510576882618" y2="35.099651727396015" class="delaunay-line"/>
<line x1="18.42434424981153" y1="38.598130555953595" x2="13.176626006975155" y2="41.50698827743161" class="delaunay-line"/>
<line x1="13.176626006975155" y1="41.50698827743161" x2="20.078274227626054" y2="41.48436459931682" class="delaunay-line"/>
<line x1="20.078274227626054" y1="41.48436459931682" x2="18.42434424981153" y2="38.598130555953595" class="delaunay-line"/>
<line x1="9.483668362450343" y1="27.51239404941814" x2="13.287894427630958" y2="26.276326071918348" class="delaunay-line"/>
<line x1="13.287894427630958" y1="26.276326071918348" x2="7.629566396200658" y2="21.80605495164722" class="delaunay-line"/>
<line x1="7.629566396200658" y1="21.80605495164722" x2="9.483668362450343" y2="27.51239404941814" class="delaunay-line"/>
<line x1="13.287894427630958" y1="26.276326071918348" x2="11.433792461381271" y2="20.569986974147426" class="delaunay-line"/>
<line x1="11.433792461381271" y1="20.569986974147426" x2="7.629566396200658" y2="21.80605495164722" class="delaunay-line"/>
<line x1="7.629566396200658" y1="21.80605495164722" x2="13.287894427630958" y2="26.276326071918348" class="delaunay-line"/>
<line x1="7.629566396200658" y1="21.80605495164722" x2="11.433792461381271" y2="20.569986974147426" class="delaunay-line"/>
<line x1="11.433792461381271" y1="20.569986974147426" x2="11.387335397668934" y2="17.87209840773942" class="delaunay-line"/>
<line x1="11.387335397668934" y1="17.87209840773942" x2="7.629566396200658" y2="21.80605495164722" class="delaunay-line"/>
<line x1="68.99665138151626" y1="22.778585653893238" x2="68.4737169250303" y2="16.801417465342766" class="delaunay-line"/>
<line x1="68.4737169250303" y1="16.801417465342766" x2="65.01187258914926" y2="23.12720862488387" class="delaunay-line"/>
<line x1="65.01187258914926" y1="23.12720862488387" x2="68.99665138151626" y2="22.778585653893238" class="delaunay-line"/>
<line x1="11.237387525989806" y1="38.00850944887403" x2="13.176626006975155" y2="41.50698827743161" class="delaunay-line"/>
<line x1="13.176626006975155" y1="41.50698827743161" x2="16.48510576882618" y2="35.099651727396015" class="delaunay-line"/>
<line x1="16.48510576882618" y1="35.099651727396015" x2="11.237387525989806" y2="38.00850944887403" class="delaunay-line"/>
<line x1="20.078274227626054" y1="41.48436459931682" x2="0" y2="48" class="delaunay-line"/>
<line x1="0" y1="48" x2="42.228689618372485" y2="45.957945631010844" class="delaunay-line"/>
<line x1="42.228689618372485" y1="45.957945631010844" x2="20.078274227626054" y2="41.48436459931682" class="delaunay-line"/>
<line x1="9.904157116786273" y1="36.4392795614037" x2="11.237387525989806" y2="38.00850944887403" class="delaunay-line"/>
<line x1="11.237387525989806" y1="38.00850944887403" x2="16.48510576882618" y2="35.099651727396015" class="delaunay-line"/>
<line x1="16.48510576882618" y1="35.099651727396015" x2="9.904157116786273" y2="36.4392795614037" class="delaunay-line"/>
<line x1="68.4737169250303" y1="16.801417465342766" x2="66.82893254100405" y2="9.571272055568983" class="delaunay-line"/>
<line x1="66.82893254100405" y1="9.571272055568983" x2="64.4889381326633" y2="17.1500404363334" class="delaunay-line"/>
<line x1="64.4889381326633" y1="17.1500404363334" x2="68.4737169250303" y2="16.801417465342766" class="delaunay-line"/>
<line x1="59.58911590294329" y1="8.231282208142943" x2="64.76878024136384" y2="6.142602852760533" class="delaunay-line"/>
<line x1="64.76878024136384" y1="6.142602852760533" x2="54.291430345789735" y2="5.4144528314275995" class="delaunay-line"/>
<line x1="54.291430345789735" y1="5.4144528314275995" x2="59.58911590294329" y2="8.231282208142943" class="delaunay-line"/>
<line x1="5.904157116786274" y1="30.4392795614037" x2="9.904157116786273" y2="36.4392795614037" class="delaunay-line"/>
<line x1="9.904157116786273" y1="36.4392795614037" x2="9.904157116786273" y2="30.4392795614037" class="delaunay-line"/>
<line x1="9.904157116786273" y1="30.4392795614037" x2="5.904157116786274" y2="30.4392795614037" class="delaunay-line"/>
<line x1="9.904157116786273" y1="30.4392795614037" x2="9.904157116786273" y2="36.4392795614037" class="delaunay-line"/>
<line x1="9.904157116786273" y1="36.4392795614037" x2="16.48510576882618" y2="35.099651727396015" class="delaunay-line"/>
<line x1="16.48510576882618" y1="35.099651727396015" x2="9.904157116786273" y2="30.4392795614037" class="delaunay-line"/>
<line x1="11.237387525989806" y1="38.00850944887403" x2="5.904157116786274" y2="36.4392795614037" class="delaunay-line"/>
<line x1="5.904157116786274" y1="36.4392795614037" x2="13.176626006975155" y2="41.50698827743161" class="delaunay-line"/>
<line x1="13.176626006975155" y1="41.50698827743161" x2="11.237387525989806" y2="38.00850944887403" class="delaunay-line"/>
<line x1="42.228689618372485" y1="45.957945631010844" x2="61.885231260982465" y2="47.23281309311914" class="delaunay-line"/>
<line x1="61.885231260982465" y1="47.23281309311914" x2="54.416587849004856" y2="44.36586949675674" class="delaunay-line"/>
<line x1="54.416587849004856" y1="44.36586949675674" x2="42.228689618372485" y2="45.957945631010844" class="delaunay-line"/>
<line x1="54.416587849004856" y1="44.36586949675674" x2="61.885231260982465" y2="47.23281309311914" class="delaunay-line"/>
<line x1="61.885231260982465" y1="47.23281309311914" x2="64.03543895825426" y2="41.631330534135934" class="delaunay-line"/>
<line x1="64.03543895825426" y1="41.631330534135934" x2="54.416587849004856" y2="44.36586949675674" class="delaunay-line"/>
<line x1="71.65505450682889" y1="33.04412267167199" x2="65.80883411811749" y2="34.39382899773518" class="delaunay-line"/>
<line x1="65.80883411811749" y1="34.39382899773518" x2="64.03543895825426" y2="41.631330534135934" class="delaunay-line"/>
<line x1="64.03543895825426" y1="41.631330534135934" x2="71.65505450682889" y2="33.04412267167199" class="delaunay-line"/>
<line x1="71.65505450682889" y1="33.04412267167199" x2="64.90902990074204" y2="30.496348738594243" class="delaunay-line"/>
<line x1="64.90902990074204" y1="30.496348738594243" x2="65.80883411811749" y2="34.39382899773518" class="delaunay-line"/>
<line x1="65.80883411811749" y1="34.39382899773518" x2="71.65505450682889" y2="33.04412267167199" class="delaunay-line"/>
<line x1="68.99665138151626" y1="22.778585653893238" x2="71.97193634521672" y2="6.481043606108656" class="delaunay-line"/>
<line x1="71.97193634521672" y1="6.481043606108656" x2="68.4737169250303" y2="16.801417465342766" class="delaunay-line"/>
<line x1="68.4737169250303" y1="16.801417465342766" x2="68.99665138151626" y2="22.778585653893238" class="delaunay-line"/>
<line x1="66.82893254100405" y1="9.571272055568983" x2="64.76878024136384" y2="6.142602852760533" class="delaunay-line"/>
<line x1="64.76878024136384" y1="6.142602852760533" x2="59.58911590294329" y2="8.231282208142943" class="delaunay-line"/>
<line x1="59.58911590294329" y1="8.231282208142943" x2="66.82893254100405" y2="9.571272055568983" class="delaunay-line"/>
<line x1="54.291430345789735" y1="5.4144528314275995" x2="72" y2="0" class="delaunay-line"/>
<line x1="72" y1="0" x2="45.56579801867422" y2="2.6245047851705765" class="delaunay-line"/>
<line x1="45.56579801867422" y1="2.6245047851705765" x2="54.291430345789735" y2="5.4144528314275995" class="delaunay-line"/>
<line x1="5.395558189141492" y1="17.55808267028176" x2="7.629566396200658" y2="21.80605495164722" class="delaunay-line"/>
<line x1="7.629566396200658" y1="21.80605495164722" x2="11.387335397668934" y2="17.87209840773942" class="delaunay-line"/>
<line x1="11.387335397668934" y1="17.87209840773942" x2="5.395558189141492" y2="17.55808267028176" class="delaunay-line"/>
<line x1="9.483668362450343" y1="27.51239404941814" x2="5.904157116786274" y2="30.4392795614037" class="delaunay-line"/>
<line x1="5.904157116786274" y1="30.4392795614037" x2="9.904157116786273" y2="30.4392795614037" class="delaunay-line"/>
<line x1="9.904157116786273" y1="30.4392795614037" x2="9.483668362450343" y2="27.51239404941814" class="delaunay-line"/>
<line x1="18.596169706008627" y1="4.601940802571241" x2="11.943170623816464" y2="7.38359556410263" class="delaunay-line"/>
<line x1="11.943170623816464" y1="7.38359556410263" x2="17.832933724502446" y2="8.528449536361899" class="delaunay-line"/>
<line x1="17.832933724502446" y1="8.528449536361899" x2="18.596169706008627" y2="4.601940802571241" class="delaunay-line"/>
<line x1="5.604902014113267" y1="13.563564531263463" x2="5.395558189141492" y2="17.55808267028176" class="delaunay-line"/>
<line x1="5.395558189141492" y1="17.55808267028176" x2="11.387335397668934" y2="17.87209840773942" class="delaunay-line"/>
<line x1="11.387335397668934" y1="17.87209840773942" x2="5.604902014113267" y2="13.563564531263463" class="delaunay-line"/>
<line x1="72" y1="48" x2="71.65505450682889" y2="33.04412267167199" class="delaunay-line"/>
<line x1="71.65505450682889" y1="33.04412267167199" x2="64.03543895825426" y2="41.631330534135934" class="delaunay-line"/>
<line x1="64.03543895825426" y1="41.631330534135934" x2="72" y2="48" class="delaunay-line"/>
<line x1="70.75525028945344" y1="29.14664241253105" x2="71.97193634521672" y2="6.481043606108656" class="delaunay-line"/>
<line x1="71.97193634521672" y1="6.481043606108656" x2="68.99665138151626" y2="22.778585653893238" class="delaunay-line"/>
<line x1="68.99665138151626" y1="22.778585653893238" x2="70.75525028945344" y2="29.14664241253105" class="delaunay-line"/>
<line x1="7.629566396200658" y1="21.80605495164722" x2="5.904157116786274" y2="30.4392795614037" class="delaunay-line"/>
<line x1="5.904157116786274" y1="30.4392795614037" x2="9.483668362450343" y2="27.51239404941814" class="delaunay-line"/>
<line x1="9.483668362450343" y1="27.51239404941814" x2="7.629566396200658" y2="21.80605495164722" class="delaunay-line"/>
<line x1="9.904157116786273" y1="36.4392795614037" x2="5.904157116786274" y2="36.4392795614037" class="delaunay-line"/>
<line x1="5.904157116786274" y1="36.4392795614037" x2="11.237387525989806" y2="38.00850944887403" class="delaunay-line"/>
<line x1="11.237387525989806" y1="38.00850944887403" x2="9.904157116786273" y2="36.4392795614037" class="delaunay-line"/>
<line x1="37.73242414645904" y1="2.926252160200673" x2="12.706406605322641" y2="3.457086830311973" class="delaunay-line"/>
<line x1="12.706406605322641" y1="3.457086830311973" x2="25.91668405651666" y2="4.518597417119347" class="delaunay-line"/>
<line x1="25.91668405651666" y1="4.518597417119347" x2="37.73242414645904" y2="2.926252160200673" class="delaunay-line"/>
<line x1="18.596169706008627" y1="4.601940802571241" x2="12.706406605322641" y2="3.457086830311973" class="delaunay-line"/>
<line x1="12.706406605322641" y1="3.457086830311973" x2="11.943170623816464" y2="7.38359556410263" class="delaunay-line"/>
<line x1="11.943170623816464" y1="7.38359556410263" x2="18.596169706008627" y2="4.601940802571241" class="delaunay-line"/>
<line x1="11.943170623816464" y1="7.38359556410263" x2="10.284800344527008" y2="6.471288963096757" class="delaunay-line"/>
<line x1="10.284800344527008" y1="6.471288963096757" x2="11.59667922264071" y2="13.877580268721125" class="delaunay-line"/>
<line x1="11.59667922264071" y1="13.877580268721125" x2="11.943170623816464" y2="7.38359556410263" class="delaunay-line"/>
<line x1="8.786373970863359" y1="2.7625535448296072" x2="12.706406605322641" y2="3.457086830311973" class="delaunay-line"/>
<line x1="12.706406605322641" y1="3.457086830311973" x2="0" y2="0" class="delaunay-line"/>
<line x1="0" y1="0" x2="8.786373970863359" y2="2.7625535448296072" class="delaunay-line"/>
<line x1="12.706406605322641" y1="3.457086830311973" x2="10.284800344527008" y2="6.471288963096757" class="delaunay-line"/>
<line x1="10.284800344527008" y1="6.471288963096757" x2="11.943170623816464" y2="7.38359556410263" class="delaunay-line"/>
<line x1="11.943170623816464" y1="7.38359556410263" x2="12.706406605322641" y2="3.457086830311973" class="delaunay-line"/>
<line x1="7.629566396200658" y1="21.80605495164722" x2="5.395558189141492" y2="17.55808267028176" class="delaunay-line"/>
<line x1="5.395558189141492" y1="17.55808267028176" x2="5.904157116786274" y2="30.4392795614037" class="delaunay-line"/>
<line x1="5.904157116786274" y1="30.4392795614037" x2="7.629566396200658" y2="21.80605495164722" class="delaunay-line"/>
<line x1="5.604902014113267" y1="13.563564531263463" x2="11.387335397668934" y2="17.87209840773942" class="delaunay-line"/>
<line x1="11.387335397668934" y1="17.87209840773942" x2="11.59667922264071" y2="13.877580268721125" class="delaunay-line"/>
<line x1="11.59667922264071" y1="13.877580268721125" x2="5.604902014113267" y2="13.563564531263463" class="delaunay-line"/>
<line x1="0" y1="48" x2="5.904157116786274" y2="36.4392795614037" class="delaunay-line"/>
<line x1="5.904157116786274" y1="36.4392795614037" x2="5.904157116786274" y2="30.4392795614037" class="delaunay-line"/>
<line x1="5.904157116786274" y1="30.4392795614037" x2="0" y2="48" class="delaunay-line"/>
<line x1="5.904157116786274" y1="30.4392795614037" x2="5.904157116786274" y2="36.4392795614037" class="delaunay-line"/>
<line x1="5.904157116786274" y1="36.4392795614037" x2="9.904157116786273" y2="36.4392795614037" class="delaunay-line"/>
<line x1="9.904157116786273" y1="36.4392795614037" x2="5.904157116786274" y2="30.4392795614037" class="delaunay-line"/>
<line x1="10.284800344527008" y1="6.471288963096757" x2="5.604902014113267" y2="13.563564531263463" class="delaunay-line"/>
<line x1="5.604902014113267" y1="13.563564531263463" x2="11.59667922264071" y2="13.877580268721125" class="delaunay-line"/>
<line x1="11.59667922264071" y1="13.877580268721125" x2="10.284800344527008" y2="6.471288963096757" class="delaunay-line"/>
<line x1="68.4737169250303" y1="16.801417465342766" x2="71.97193634521672" y2="6.481043606108656" class="delaunay-line"/>
<line x1="71.97193634521672" y1="6.481043606108656" x2="66.82893254100405" y2="9.571272055568983" class="delaunay-line"/>
<line x1="66.82893254100405" y1="9.571272055568983" x2="68.4737169250303" y2="16.801417465342766" class="delaunay-line"/>
<line x1="66.82893254100405" y1="9.571272055568983" x2="71.97193634521672" y2="6.481043606108656" class="delaunay-line"/>
<line x1="71.97193634521672" y1="6.481043606108656" x2="64.76878024136384" y2="6.142602852760533" class="delaunay-line"/>
<line x1="64.76878024136384" y1="6.142602852760533" x2="66.82893254100405" y2="9.571272055568983" class="delaunay-line"/>
<line x1="64.76878024136384" y1="6.142602852760533" x2="72" y2="0" class="delaunay-line"/>
<line x1="72" y1="0" x2="54.291430345789735" y2="5.4144528314275995" class="delaunay-line"/>
<line x1="54.291430345789735" y1="5.4144528314275995" x2="64.76878024136384" y2="6.142602852760533" class="delaunay-line"/>
<line x1="71.65505450682889" y1="33.04412267167199" x2="71.97193634521672" y2="6.481043606108656" class="delaunay-line"/>
<line x1="71.97193634521672" y1="6.481043606108656" x2="70.75525028945344" y2="29.14664241253105" class="delaunay-line"/>
<line x1="70.75525028945344" y1="29.14664241253105" x2="71.65505450682889" y2="33.04412267167199" class="delaunay-line"/>
<line x1="71.97193634521672" y1="6.481043606108656" x2="69.91178404557651" y2="3.052374403300208" class="delaunay-line"/>
<line x1="69.91178404557651" y1="3.052374403300208" x2="64.76878024136384" y2="6.142602852760533" class="delaunay-line"/>
<line x1="64.76878024136384" y1="6.142602852760533" x2="71.97193634521672" y2="6.481043606108656" class="delaunay-line"/>
<line x1="0" y1="0" x2="12.706406605322641" y2="3.457086830311973" class="delaunay-line"/>
<line x1="12.706406605322641" y1="3.457086830311973" x2="37.73242414645904" y2="2.926252160200673" class="delaunay-line"/>
<line x1="37.73242414645904" y1="2.926252160200673" x2="0" y2="0" class="delaunay-line"/>
<line x1="12.706406605322641" y1="3.457086830311973" x2="8.786373970863359" y2="2.7625535448296072" class="delaunay-line"/>
<line x1="8.786373970863359" y1="2.7625535448296072" x2="10.284800344527008" y2="6.471288963096757" class="delaunay-line"/>
<line x1="10.284800344527008" y1="6.471288963096757" x2="12.706406605322641" y2="3.457086830311973" class="delaunay-line"/>
<line x1="10.284800344527008" y1="6.471288963096757" x2="4.721697217126284" y2="8.718928523592231" class="delaunay-line"/>
<line x1="4.721697217126284" y1="8.718928523592231" x2="5.604902014113267" y2="13.563564531263463" class="delaunay-line"/>
<line x1="5.604902014113267" y1="13.563564531263463" x2="10.284800344527008" y2="6.471288963096757" class="delaunay-line"/>
<line x1="8.786373970863359" y1="2.7625535448296072" x2="4.721697217126284" y2="8.718928523592231" class="delaunay-line"/>
<line x1="4.721697217126284" y1="8.718928523592231" x2="10.284800344527008" y2="6.471288963096757" class="delaunay-line"/>
<line x1="10.284800344527008" y1="6.471288963096757" x2="8.786373970863359" y2="2.7625535448296072" class="delaunay-line"/>
<line x1="5.604902014113267" y1="13.563564531263463" x2="4.721697217126284" y2="8.718928523592231" class="delaunay-line"/>
<line x1="4.721697217126284" y1="8.718928523592231" x2="5.395558189141492" y2="17.55808267028176" class="delaunay-line"/>
<line x1="5.395558189141492" y1="17.55808267028176" x2="5.604902014113267" y2="13.563564531263463" class="delaunay-line"/>
<line x1="5.395558189141492" y1="17.55808267028176" x2="0" y2="48" class="delaunay-line"/>
<line x1="0" y1="48" x2="5.904157116786274" y2="30.4392795614037" class="delaunay-line"/>
<line x1="5.904157116786274" y1="30.4392795614037" x2="5.395558189141492" y2="17.55808267028176" class="delaunay-line"/>
<line x1="0" y1="48" x2="72" y2="48" class="delaunay-line"/>
<line x1="72" y1="48" x2="61.885231260982465" y2="47.23281309311914" class="delaunay-line"/>
<line x1="61.885231260982465" y1="47.23281309311914" x2="0" y2="48" class="delaunay-line"/>
<line x1="61.885231260982465" y1="47.23281309311914" x2="72" y2="48" class="delaunay-line"/>
<line x1="72" y1="48" x2="64.03543895825426" y2="41.631330534135934" class="delaunay-line"/>
<line x1="64.03543895825426" y1="41.631330534135934" x2="61.885231260982465" y2="47.23281309311914" class="delaunay-line"/>
<line x1="71.65505450682889" y1="33.04412267167199" x2="72" y2="48" class="delaunay-line"/>
<line x1="72" y1="48" x2="71.97193634521672" y2="6.481043606108656" class="delaunay-line"/>
<line x1="71.97193634521672" y1="6.481043606108656" x2="71.65505450682889" y2="33.04412267167199" class="delaunay-line"/>
<line x1="69.91178404557651" y1="3.052374403300208" x2="72" y2="0" class="delaunay-line"/>
<line x1="72" y1="0" x2="64.76878024136384" y2="6.142602852760533" class="delaunay-line"/>
<line x1="64.76878024136384" y1="6.142602852760533" x2="69.91178404557651" y2="3.052374403300208" class="delaunay-line"/>
<line x1="45.56579801867422" y1="2.6245047851705765" x2="0" y2="0" class="delaunay-line"/>
<line x1="0" y1="0" x2="37.73242414645904" y2="2.926252160200673" class="delaunay-line"/>
<line x1="37.73242414645904" y1="2.926252160200673" x2="45.56579801867422" y2="2.6245047851705765" class="delaunay-line"/>
<line x1="71.97193634521672" y1="6.481043606108656" x2="72" y2="0" class="delaunay-line"/>
<line x1="72" y1="0" x2="69.91178404557651" y2="3.052374403300208" class="delaunay-line"/>
<line x1="69.91178404557651" y1="3.052374403300208" x2="71.97193634521672" y2="6.481043606108656" class="delaunay-line"/>
<line x1="72" y1="48" x2="72" y2="0" class="delaunay-line"/>
<line x1="72" y1="0" x2="71.97193634521672" y2="6.481043606108656" class="delaunay-line"/>
<line x1="71.97193634521672" y1="6.481043606108656" x2="72" y2="48" class="delaunay-line"/>
<line x1="8.786373970863359" y1="2.7625535448296072" x2="3.2232708434626347" y2="5.010193105325081" class="delaunay-line"/>
<line x1="3.2232708434626347" y1="5.010193105325081" x2="4.721697217126284" y2="8.718928523592231" class="delaunay-line"/>
<line x1="4.721697217126284" y1="8.718928523592231" x2="8.786373970863359" y2="2.7625535448296072" class="delaunay-line"/>
<line x1="4.721697217126284" y1="8.718928523592231" x2="3.2232708434626347" y2="5.010193105325081" class="delaunay-line"/>
<line x1="3.2232708434626347" y1="5.010193105325081" x2="5.395558189141492" y2="17.55808267028176" class="delaunay-line"/>
<line x1="5.395558189141492" y1="17.55808267028176" x2="4.721697217126284" y2="8.718928523592231" class="delaunay-line"/>
<line x1="0" y1="0" x2="0" y2="48" class="delaunay-line"/>
<line x1="0" y1="48" x2="5.395558189141492" y2="17.55808267028176" class="delaunay-line"/>
<line x1="5.395558189141492" y1="17.55808267028176" x2="0" y2="0" class="delaunay-line"/>
<line x1="5.904157116786274" y1="36.4392795614037" x2="0" y2="48" class="delaunay-line"/>
<line x1="0" y1="48" x2="13.176626006975155" y2="41.50698827743161" class="delaunay-line"/>
<line x1="13.176626006975155" y1="41.50698827743161" x2="5.904157116786274" y2="36.4392795614037" class="delaunay-line"/>
<line x1="13.176626006975155" y1="41.50698827743161" x2="0" y2="48" class="delaunay-line"/>
<line x1="0" y1="48" x2="20.078274227626054" y2="41.48436459931682" class="delaunay-line"/>
<line x1="20.078274227626054" y1="41.48436459931682" x2="13.176626006975155" y2="41.50698827743161" class="delaunay-line"/>
<line x1="42.228689618372485" y1="45.957945631010844" x2="0" y2="48" class="delaunay-line"/>
<line x1="0" y1="48" x2="61.885231260982465" y2="47.23281309311914" class="delaunay-line"/>
<line x1="61.885231260982465" y1="47.23281309311914" x2="42.228689618372485" y2="45.957945631010844" class="delaunay-line"/>
<line x1="8.786373970863359" y1="2.7625535448296072" x2="0" y2="0" class="delaunay-line"/>
<line x1="0" y1="0" x2="3.2232708434626347" y2="5.010193105325081" class="delaunay-line"/>
<line x1="3.2232708434626347" y1="5.010193105325081" x2="8.786373970863359" y2="2.7625535448296072" class="delaunay-line"/>
<line x1="3.2232708434626347" y1="5.010193105325081" x2="0" y2="0" class="delaunay-line"/>
<line x1="0" y1="0" x2="5.395558189141492" y2="17.55808267028176" class="delaunay-line"/>
<line x1="5.395558189141492" y1="17.55808267028176" x2="3.2232708434626347" y2="5.010193105325081" class="delaunay-line"/>
<line x1="72" y1="0" x2="0" y2="0" class="delaunay-line"/>
<line x1="0" y1="0" x2="45.56579801867422" y2="2.6245047851705765" class="delaunay-line"/>
<line x1="45.56579801867422" y1="2.6245047851705765" x2="72" y2="0" class="delaunay-line"/>
</g>
<g id="layer-area" class="layer ">
</g>
<g id="layer-building" class="layer ">
<polygon points="18.596169706008627,4.601940802571241 17.832933724502446,8.528449536361899 11.943170623816464,7.38359556410263 12.706406605322641,3.457086830311973" class="terrain-solid"/>
<text x="15.269670164912545" y="5.992768183336936" class="label">#000000</text>
<polygon points="65.80883411811749,34.39382899773518 64.90902990074204,30.496348738594243 70.75525028945344,29.14664241253105 71.65505450682889,33.04412267167199" class="terrain-solid"/>
<text x="68.28204220378547" y="31.770235705133118" class="label">#000000</text>
<polygon points="4.721697217126284,8.718928523592231 3.2232708434626347,5.010193105325081 8.786373970863359,2.7625535448296072 10.284800344527008,6.471288963096757" class="terrain-solid"/>
<text x="6.754035593994821" y="5.740741034210919" class="label">#000000</text>
<polygon points="64.4889381326633,17.1500404363334 68.4737169250303,16.801417465342766 68.99665138151626,22.778585653893238 65.01187258914926,23.12720862488387" class="terrain-solid"/>
<text x="66.74279475708978" y="19.964313045113318" class="label">#000000</text>
<polygon points="44.39922266477591,9.740620435135593 41.47380785829923,7.0126269948856 45.56579801867422,2.6245047851705765 48.4912128251509,5.352498225420569" class="terrain-solid"/>
<text x="44.98251034172507" y="6.182562610153084" class="label">#000000</text>
<polygon points="34.07824231588863,4.553198732503874 37.73242414645904,2.926252160200673 40.17284400491384,8.40752490605628 36.51866217434343,10.03447147835948" class="terrain-solid"/>
<text x="37.125543160401236" y="6.480361819280077" class="label">#000000</text>
<polygon points="34.97822732207929,42.57699953708524 37.51393689252349,37.13915281486534 44.76439918881668,40.52009890879094 42.228689618372485,45.957945631010844" class="terrain-solid"/>
<text x="39.87131325544799" y="41.54854922293809" class="label">#000000</text>
<polygon points="64.03543895825426,41.631330534135934 61.885231260982465,47.23281309311914 54.416587849004856,44.36586949675674 56.56679554627665,38.76438693777353" class="terrain-solid"/>
<text x="59.22601340362955" y="42.998600015446335" class="label">#000000</text>
<polygon points="59.58911590294329,8.231282208142943 57.71122965179973,11.763072579578651 52.41354409464617,8.946243202863307 54.291430345789735,5.4144528314275995" class="terrain-solid"/>
<text x="56.00132999879473" y="8.588762705503125" class="label">#000000</text>
<polygon points="23.939506063846455,18.13870181879886 19.941942755770075,17.999103831988858 20.15133973598508,12.002758869874283 24.14890304406146,12.142356856684286" class="terrain-solid"/>
<text x="22.045422899915767" y="15.070730344336573" class="label">#000000</text>
<polygon points="13.287894427630958,26.276326071918348 9.483668362450343,27.51239404941814 7.629566396200658,21.80605495164722 11.433792461381271,20.569986974147426" class="terrain-solid"/>
<text x="10.458730411915807" y="24.041190511782784" class="label">#000000</text>
<polygon points="36.86355485580887,20.70886475010212 42.818831765656796,21.440080810533 41.84387701841561,29.380450023663574 35.88860010856769,28.649233963232692" class="terrain-solid"/>
<text x="39.35371593711224" y="25.044657386882847" class="label">#000000</text>
<polygon points="11.59667922264071,13.877580268721125 11.387335397668934,17.87209840773942 5.395558189141492,17.55808267028176 5.604902014113267,13.563564531263463" class="terrain-solid"/>
<text x="8.496118705891101" y="15.71783146950144" class="label">#000000</text>
<polygon points="61.93240853775075,14.581080832688897 61.4094740812648,20.55824902123937 53.439916496530834,19.861003079258104 53.96285095301679,13.883834890707632" class="terrain-solid"/>
<text x="57.686162517140794" y="17.2210419559735" class="label">#000000</text>
<polygon points="13.176626006975155,41.50698827743161 11.237387525989806,38.00850944887403 16.48510576882618,35.099651727396015 18.42434424981153,38.598130555953595" class="terrain-solid"/>
<text x="14.830865887900668" y="38.30332000241381" class="label">#000000</text>
<polygon points="69.91178404557651,3.052374403300208 71.97193634521672,6.481043606108656 66.82893254100405,9.571272055568983 64.76878024136384,6.142602852760533" class="terrain-solid"/>
<text x="68.37035829329028" y="6.311823229434594" class="label">#000000</text>
<polygon points="5.904157116786274,30.4392795614037 9.904157116786273,30.4392795614037 9.904157116786273,36.4392795614037 5.904157116786274,36.4392795614037" class="terrain-solid"/>
<text x="7.904157116786273" y="33.4392795614037" class="label">#000000</text>
<polygon points="58.74314453856659,30.76380251174759 56.56458839850648,34.11848478352928 51.53256499083394,30.850650573439122 53.71112113089405,27.495968301657424" class="terrain-solid"/>
<text x="55.137854764700265" y="30.807226542593355" class="label">#000000</text>
<polygon points="31.479787183917384,6.766236977614819 29.981360810253737,10.474972395881968 24.418257682853014,8.227332835386497 25.91668405651666,4.518597417119347" class="terrain-solid"/>
<text x="27.9490224333852" y="7.4967849065006575" class="label">#000000</text>
<polygon points="24.056361809099144,41.06625074624621 20.078274227626054,41.48436459931682 19.451103448020135,35.517233227107184 23.429191029493225,35.099119374036576" class="terrain-solid"/>
<text x="21.75373262855964" y="38.2917419866767" class="label">#000000</text>
<polygon points="14.602973155893466,22.786280109566817 18.602973155893466,22.786280109566817 18.602973155893466,28.786280109566817 14.602973155893466,28.786280109566817" class="terrain-solid"/>
<text x="16.602973155893466" y="25.786280109566817" class="label">#000000</text>
<polygon points="14.71040248160163,11.135118428015392 18.71040248160163,11.135118428015392 18.71040248160163,17.135118428015392 14.71040248160163,17.135118428015392" class="terrain-solid"/>
<text x="16.71040248160163" y="14.135118428015392" class="label">#000000</text>
</g>
<g id="layer-wall" class="layer ">
</g>
<g id="layer-tree" class="layer ">
</g>
<g id="layer-rocks" class="layer ">
</g>
<g id="layer-shrub" class="layer ">
</g>
<g id="layer-terrain" class="layer ">
</g>
<g id="layer-clearance" class="layer hidden">
</g>
<g id="layer-models" class="layer ">
</g>
<g id="layer-paths" class="layer ">
</g>
<g id="layer-vectors" class="layer ">
</g>
<g id="layer-los" class="layer ">
</g>
<g id="layer-lof" class="layer ">
</g>

<g id="legend">
<g class="toggle" onclick="toggleLayer('deployment')"><rect x="0.4" y="0.14999999999999997" width="0.4" height="0.4" fill="#222" stroke="#222" stroke-width="0.05"/><text x="1.0" y="0.5499999999999999" class="label">Deployment Zones</text></g>
<g class="toggle" onclick="toggleLayer('grid')"><rect x="0.4" y="0.95" width="0.4" height="0.4" fill="#222" stroke="#222" stroke-width="0.05"/><text x="1.0" y="1.3499999999999999" class="label">0.5 MU Grid</text></g>
<g class="toggle" onclick="toggleLayer('delaunay')"><rect x="0.4" y="1.7500000000000002" width="0.4" height="0.4" fill="#222" stroke="#222" stroke-width="0.05"/><text x="1.0" y="2.1500000000000004" class="label">Delaunay Mesh</text></g>
<g class="toggle disabled"><rect x="0.4" y="2.55" width="0.4" height="0.4" fill="#222" stroke="#222" stroke-width="0.05"/><text x="1.0" y="2.95" class="label">Area Terrain</text></g>
<g class="toggle" onclick="toggleLayer('building')"><rect x="0.4" y="3.3499999999999996" width="0.4" height="0.4" fill="#222" stroke="#222" stroke-width="0.05"/><text x="1.0" y="3.75" class="label">Buildings</text></g>
<g class="toggle disabled"><rect x="0.4" y="4.1499999999999995" width="0.4" height="0.4" fill="#222" stroke="#222" stroke-width="0.05"/><text x="1.0" y="4.55" class="label">Walls</text></g>
<g class="toggle disabled"><rect x="0.4" y="4.949999999999999" width="0.4" height="0.4" fill="#222" stroke="#222" stroke-width="0.05"/><text x="1.0" y="5.35" class="label">Trees</text></g>
<g class="toggle disabled"><rect x="0.4" y="5.749999999999999" width="0.4" height="0.4" fill="#222" stroke="#222" stroke-width="0.05"/><text x="1.0" y="6.1499999999999995" class="label">Rocks</text></g>
<g class="toggle disabled"><rect x="0.4" y="6.549999999999999" width="0.4" height="0.4" fill="#222" stroke="#222" stroke-width="0.05"/><text x="1.0" y="6.949999999999999" class="label">Shrubs</text></g>
<g class="toggle" onclick="toggleLayer('terrain')"><rect x="0.4" y="7.349999999999999" width="0.4" height="0.4" fill="#222" stroke="#222" stroke-width="0.05"/><text x="1.0" y="7.749999999999999" class="label">Other Terrain</text></g>
<g class="toggle" onclick="toggleLayer('clearance')"><rect x="0.4" y="8.15" width="0.4" height="0.4" fill="#fff" stroke="#222" stroke-width="0.05"/><text x="1.0" y="8.549999999999999" class="label">Clearance Zones</text></g>
<g class="toggle" onclick="toggleLayer('models')"><rect x="0.4" y="8.950000000000001" width="0.4" height="0.4" fill="#222" stroke="#222" stroke-width="0.05"/><text x="1.0" y="9.35" class="label">Models</text></g>
<g class="toggle" onclick="toggleLayer('paths')"><rect x="0.4" y="9.750000000000002" width="0.4" height="0.4" fill="#222" stroke="#222" stroke-width="0.05"/><text x="1.0" y="10.15" class="label">Paths</text></g>
<g class="toggle" onclick="toggleLayer('vectors')"><rect x="0.4" y="10.550000000000002" width="0.4" height="0.4" fill="#222" stroke="#222" stroke-width="0.05"/><text x="1.0" y="10.950000000000001" class="label">Vectors</text></g>
<g class="toggle" onclick="toggleLayer('los')"><rect x="0.4" y="11.350000000000003" width="0.4" height="0.4" fill="#222" stroke="#222" stroke-width="0.05"/><text x="1.0" y="11.750000000000002" class="label">LOS</text></g>
<g class="toggle" onclick="toggleLayer('lof')"><rect x="0.4" y="12.150000000000004" width="0.4" height="0.4" fill="#222" stroke="#222" stroke-width="0.05"/><text x="1.0" y="12.550000000000002" class="label">LOF</text></g>
</g>
</svg>