<svg xmlns="http://www.w3.org/2000/svg" viewBox="0 0 72 48" width="2880" height="1920" font-family="Arial" font-size="0.6">
<defs>
  <style><![CDATA[
    .layer { display: inline; }
    .layer.hidden { display: none; }
    .grid-line { stroke: #999; stroke-width: 0.02; opacity: 0.2; }
    .grid-line-2mu { stroke: #666; stroke-width: 0.04; opacity: 0.4; }
    .grid-line-6mu { stroke: #333; stroke-width: 0.08; opacity: 0.6; }
    .delaunay-line { stroke: #4a6fa5; stroke-width: 0.03; opacity: 0.3; }
    #layer-area { opacity: 0.8; }
    #layer-building, #layer-wall, #layer-tree, #layer-rocks, #layer-shrub, #layer-terrain { opacity: 0.8; }
    .terrain-area { stroke: none; }
    .terrain-solid { stroke: #000; stroke-width: 0.05; }
    .model { stroke: #ff0000; stroke-width: 2; vector-effect: non-scaling-stroke; }
    .path { fill: none; stroke-width: 0.12; }
    .vector { stroke-width: 0.1; }
    .los-ray { stroke-width: 0.08; stroke-dasharray: 0.2 0.2; }
    .lof-ray { stroke-width: 0.08; stroke-dasharray: 0.3 0.15; }
    .label { fill: #111 !important; font-size: 0.6px; }
    .toggle { cursor: pointer; }
    .toggle.disabled { cursor: default; }
    .toggle.disabled rect { stroke: #ccc; fill: #fff; }
    .toggle.disabled text { fill: #ccc; }
#layer-area { fill: #C49A6C; }
  ]]></style>
</defs>
<rect x="0" y="0" width="72" height="48" fill="#ffffff" stroke="#111" stroke-width="0.05"/>
<script><![CDATA[
      function toggleLayer(id) {
        var layer = document.getElementById('layer-' + id);
        if (!layer) return;
        if (layer.classList.contains('hidden')) {
          layer.classList.remove('hidden');
        } else {
          layer.classList.add('hidden');
        }
      }
    ]]></script>
<text x="0.4" y="47.6" class="label">VERY_LARGE battlefield_A60-B0-W0-R0-S0-T0</text>
<g id="layer-deployment" class="layer ">
</g>
<g id="layer-grid" class="layer ">
<line x1="0" y1="0" x2="0" y2="48" class="grid-line-6mu"/>
<line x1="0.5" y1="0" x2="0.5" y2="48" class="grid-line"/>
<line x1="1" y1="0" x2="1" y2="48" class="grid-line"/>
<line x1="1.5" y1="0" x2="1.5" y2="48" class="grid-line"/>
<line x1="2" y1="0" x2="2" y2="48" class="grid-line-2mu"/>
<line x1="2.5" y1="0" x2="2.5" y2="48" class="grid-line"/>
<line x1="3" y1="0" x2="3" y2="48" class="grid-line"/>
<line x1="3.5" y1="0" x2="3.5" y2="48" class="grid-line"/>
<line x1="4" y1="0" x2="4" y2="48" class="grid-line-2mu"/>
<line x1="4.5" y1="0" x2="4.5" y2="48" class="grid-line"/>
<line x1="5" y1="0" x2="5" y2="48" class="grid-line"/>
<line x1="5.5" y1="0" x2="5.5" y2="48" class="grid-line"/>
<line x1="6" y1="0" x2="6" y2="48" class="grid-line-6mu"/>
<line x1="6.5" y1="0" x2="6.5" y2="48" class="grid-line"/>
<line x1="7" y1="0" x2="7" y2="48" class="grid-line"/>
<line x1="7.5" y1="0" x2="7.5" y2="48" class="grid-line"/>
<line x1="8" y1="0" x2="8" y2="48" class="grid-line-2mu"/>
<line x1="8.5" y1="0" x2="8.5" y2="48" class="grid-line"/>
<line x1="9" y1="0" x2="9" y2="48" class="grid-line"/>
<line x1="9.5" y1="0" x2="9.5" y2="48" class="grid-line"/>
<line x1="10" y1="0" x2="10" y2="48" class="grid-line-2mu"/>
<line x1="10.5" y1="0" x2="10.5" y2="48" class="grid-line"/>
<line x1="11" y1="0" x2="11" y2="48" class="grid-line"/>
<line x1="11.5" y1="0" x2="11.5" y2="48" class="grid-line"/>
<line x1="12" y1="0" x2="12" y2="48" class="grid-line-6mu"/>
<line x1="12.5" y1="0" x2="12.5" y2="48" class="grid-line"/>
<line x1="13" y1="0" x2="13" y2="48" class="grid-line"/>
<line x1="13.5" y1="0" x2="13.5" y2="48" class="grid-line"/>
<line x1="14" y1="0" x2="14" y2="48" class="grid-line-2mu"/>
<line x1="14.5" y1="0" x2="14.5" y2="48" class="grid-line"/>
<line x1="15" y1="0" x2="15" y2="48" class="grid-line"/>
<line x1="15.5" y1="0" x2="15.5" y2="48" class="grid-line"/>
<line x1="16" y1="0" x2="16" y2="48" class="grid-line-2mu"/>
<line x1="16.5" y1="0" x2="16.5" y2="48" class="grid-line"/>
<line x1="17" y1="0" x2="17" y2="48" class="grid-line"/>
<line x1="17.5" y1="0" x2="17.5" y2="48" class="grid-line"/>
<line x1="18" y1="0" x2="18" y2="48" class="grid-line-6mu"/>
<line x1="18.5" y1="0" x2="18.5" y2="48" class="grid-line"/>
<line x1="19" y1="0" x2="19" y2="48" class="grid-line"/>
<line x1="19.5" y1="0" x2="19.5" y2="48" class="grid-line"/>
<line x1="20" y1="0" x2="20" y2="48" class="grid-line-2mu"/>
<line x1="20.5" y1="0" x2="20.5" y2="48" class="grid-line"/>
<line x1="21" y1="0" x2="21" y2="48" class="grid-line"/>
<line x1="21.5" y1="0" x2="21.5" y2="48" class="grid-line"/>
<line x1="22" y1="0" x2="22" y2="48" class="grid-line-2mu"/>
<line x1="22.5" y1="0" x2="22.5" y2="48" class="grid-line"/>
<line x1="23" y1="0" x2="23" y2="48" class="grid-line"/>
<line x1="23.5" y1="0" x2="23.5" y2="48" class="grid-line"/>
<line x1="24" y1="0" x2="24" y2="48" class="grid-line-6mu"/>
<line x1="24.5" y1="0" x2="24.5" y2="48" class="grid-line"/>
<line x1="25" y1="0" x2="25" y2="48" class="grid-line"/>
<line x1="25.5" y1="0" x2="25.5" y2="48" class="grid-line"/>
<line x1="26" y1="0" x2="26" y2="48" class="grid-line-2mu"/>
<line x1="26.5" y1="0" x2="26.5" y2="48" class="grid-line"/>
<line x1="27" y1="0" x2="27" y2="48" class="grid-line"/>
<line x1="27.5" y1="0" x2="27.5" y2="48" class="grid-line"/>
<line x1="28" y1="0" x2="28" y2="48" class="grid-line-2mu"/>
<line x1="28.5" y1="0" x2="28.5" y2="48" class="grid-line"/>
<line x1="29" y1="0" x2="29" y2="48" class="grid-line"/>
<line x1="29.5" y1="0" x2="29.5" y2="48" class="grid-line"/>
<line x1="30" y1="0" x2="30" y2="48" class="grid-line-6mu"/>
<line x1="30.5" y1="0" x2="30.5" y2="48" class="grid-line"/>
<line x1="31" y1="0" x2="31" y2="48" class="grid-line"/>
<line x1="31.5" y1="0" x2="31.5" y2="48" class="grid-line"/>
<line x1="32" y1="0" x2="32" y2="48" class="grid-line-2mu"/>
<line x1="32.5" y1="0" x2="32.5" y2="48" class="grid-line"/>
<line x1="33" y1="0" x2="33" y2="48" class="grid-line"/>
<line x1="33.5" y1="0" x2="33.5" y2="48" class="grid-line"/>
<line x1="34" y1="0" x2="34" y2="48" class="grid-line-2mu"/>
<line x1="34.5" y1="0" x2="34.5" y2="48" class="grid-line"/>
<line x1="35" y1="0" x2="35" y2="48" class="grid-line"/>
<line x1="35.5" y1="0" x2="35.5" y2="48" class="grid-line"/>
<line x1="36" y1="0" x2="36" y2="48" class="grid-line-6mu"/>
<line x1="36.5" y1="0" x2="36.5" y2="48" class="grid-line"/>
<line x1="37" y1="0" x2="37" y2="48" class="grid-line"/>
<line x1="37.5" y1="0" x2="37.5" y2="48" class="grid-line"/>
<line x1="38" y1="0" x2="38" y2="48" class="grid-line-2mu"/>
<line x1="38.5" y1="0" x2="38.5" y2="48" class="grid-line"/>
<line x1="39" y1="0" x2="39" y2="48" class="grid-line"/>
<line x1="39.5" y1="0" x2="39.5" y2="48" class="grid-line"/>
<line x1="40" y1="0" x2="40" y2="48" class="grid-line-2mu"/>
<line x1="40.5" y1="0" x2="40.5" y2="48" class="grid-line"/>
<line x1="41" y1="0" x2="41" y2="48" class="grid-line"/>
<line x1="41.5" y1="0" x2="41.5" y2="48" class="grid-line"/>
<line x1="42" y1="0" x2="42" y2="48" class="grid-line-6mu"/>
<line x1="42.5" y1="0" x2="42.5" y2="48" class="grid-line"/>
<line x1="43" y1="0" x2="43" y2="48" class="grid-line"/>
<line x1="43.5" y1="0" x2="43.5" y2="48" class="grid-line"/>
<line x1="44" y1="0" x2="44" y2="48" class="grid-line-2mu"/>
<line x1="44.5" y1="0" x2="44.5" y2="48" class="grid-line"/>
<line x1="45" y1="0" x2="45" y2="48" class="grid-line"/>
<line x1="45.5" y1="0" x2="45.5" y2="48" class="grid-line"/>
<line x1="46" y1="0" x2="46" y2="48" class="grid-line-2mu"/>
<line x1="46.5" y1="0" x2="46.5" y2="48" class="grid-line"/>
<line x1="47" y1="0" x2="47" y2="48" class="grid-line"/>
<line x1="47.5" y1="0" x2="47.5" y2="48" class="grid-line"/>
<line x1="48" y1="0" x2="48" y2="48" class="grid-line-6mu"/>
<line x1="48.5" y1="0" x2="48.5" y2="48" class="grid-line"/>
<line x1="49" y1="0" x2="49" y2="48" class="grid-line"/>
<line x1="49.5" y1="0" x2="49.5" y2="48" class="grid-line"/>
<line x1="50" y1="0" x2="50" y2="48" class="grid-line-2mu"/>
<line x1="50.5" y1="0" x2="50.5" y2="48" class="grid-line"/>
<line x1="51" y1="0" x2="51" y2="48" class="grid-line"/>
<line x1="51.5" y1="0" x2="51.5" y2="48" class="grid-line"/>
<line x1="52" y1="0" x2="52" y2="48" class="grid-line-2mu"/>
<line x1="52.5" y1="0" x2="52.5" y2="48" class="grid-line"/>
<line x1="53" y1="0" x2="53" y2="48" class="grid-line"/>
<line x1="53.5" y1="0" x2="53.5" y2="48" class="grid-line"/>
<line x1="54" y1="0" x2="54" y2="48" class="grid-line-6mu"/>
<line x1="54.5" y1="0" x2="54.5" y2="48" class="grid-line"/>
<line x1="55" y1="0" x2="55" y2="48" class="grid-line"/>
<line x1="55.5" y1="0" x2="55.5" y2="48" class="grid-line"/>
<line x1="56" y1="0" x2="56" y2="48" class="grid-line-2mu"/>
<line x1="56.5" y1="0" x2="56.5" y2="48" class="grid-line"/>
<line x1="57" y1="0" x2="57" y2="48" class="grid-line"/>
<line x1="57.5" y1="0" x2="57.5" y2="48" class="grid-line"/>
<line x1="58" y1="0" x2="58" y2="48" class="grid-line-2mu"/>
<line x1="58.5" y1="0" x2="58.5" y2="48" class="grid-line"/>
<line x1="59" y1="0" x2="59" y2="48" class="grid-line"/>
<line x1="59.5" y1="0" x2="59.5" y2="48" class="grid-line"/>
<line x1="60" y1="0" x2="60" y2="48" class="grid-line-6mu"/>
<line x1="60.5" y1="0" x2="60.5" y2="48" class="grid-line"/>
<line x1="61" y1="0" x2="61" y2="48" class="grid-line"/>
<line x1="61.5" y1="0" x2="61.5" y2="48" class="grid-line"/>
<line x1="62" y1="0" x2="62" y2="48" class="grid-line-2mu"/>
<line x1="62.5" y1="0" x2="62.5" y2="48" class="grid-line"/>
<line x1="63" y1="0" x2="63" y2="48" class="grid-line"/>
<line x1="63.5" y1="0" x2="63.5" y2="48" class="grid-line"/>
<line x1="64" y1="0" x2="64" y2="48" class="grid-line-2mu"/>
<line x1="64.5" y1="0" x2="64.5" y2="48" class="grid-line"/>
<line x1="65" y1="0" x2="65" y2="48" class="grid-line"/>
<line x1="65.5" y1="0" x2="65.5" y2="48" class="grid-line"/>
<line x1="66" y1="0" x2="66" y2="48" class="grid-line-6mu"/>
<line x1="66.5" y1="0" x2="66.5" y2="48" class="grid-line"/>
<line x1="67" y1="0" x2="67" y2="48" class="grid-line"/>
<line x1="67.5" y1="0" x2="67.5" y2="48" class="grid-line"/>
<line x1="68" y1="0" x2="68" y2="48" class="grid-line-2mu"/>
<line x1="68.5" y1="0" x2="68.5" y2="48" class="grid-line"/>
<line x1="69" y1="0" x2="69" y2="48" class="grid-line"/>
<line x1="69.5" y1="0" x2="69.5" y2="48" class="grid-line"/>
<line x1="70" y1="0" x2="70" y2="48" class="grid-line-2mu"/>
<line x1="70.5" y1="0" x2="70.5" y2="48" class="grid-line"/>
<line x1="71" y1="0" x2="71" y2="48" class="grid-line"/>
<line x1="71.5" y1="0" x2="71.5" y2="48" class="grid-line"/>
<line x1="72" y1="0" x2="72" y2="48" class="grid-line-6mu"/>
<line x1="0" y1="0" x2="72" y2="0" class="grid-line-6mu"/>
<line x1="0" y1="0.5" x2="72" y2="0.5" class="grid-line"/>
<line x1="0" y1="1" x2="72" y2="1" class="grid-line"/>
<line x1="0" y1="1.5" x2="72" y2="1.5" class="grid-line"/>
<line x1="0" y1="2" x2="72" y2="2" class="grid-line-2mu"/>
<line x1="0" y1="2.5" x2="72" y2="2.5" class="grid-line"/>
<line x1="0" y1="3" x2="72" y2="3" class="grid-line"/>
<line x1="0" y1="3.5" x2="72" y2="3.5" class="grid-line"/>
<line x1="0" y1="4" x2="72" y2="4" class="grid-line-2mu"/>
<line x1="0" y1="4.5" x2="72" y2="4.5" class="grid-line"/>
<line x1="0" y1="5" x2="72" y2="5" class="grid-line"/>
<line x1="0" y1="5.5" x2="72" y2="5.5" class="grid-line"/>
<line x1="0" y1="6" x2="72" y2="6" class="grid-line-6mu"/>
<line x1="0" y1="6.5" x2="72" y2="6.5" class="grid-line"/>
<line x1="0" y1="7" x2="72" y2="7" class="grid-line"/>
<line x1="0" y1="7.5" x2="72" y2="7.5" class="grid-line"/>
<line x1="0" y1="8" x2="72" y2="8" class="grid-line-2mu"/>
<line x1="0" y1="8.5" x2="72" y2="8.5" class="grid-line"/>
<line x1="0" y1="9" x2="72" y2="9" class="grid-line"/>
<line x1="0" y1="9.5" x2="72" y2="9.5" class="grid-line"/>
<line x1="0" y1="10" x2="72" y2="10" class="grid-line-2mu"/>
<line x1="0" y1="10.5" x2="72" y2="10.5" class="grid-line"/>
<line x1="0" y1="11" x2="72" y2="11" class="grid-line"/>
<line x1="0" y1="11.5" x2="72" y2="11.5" class="grid-line"/>
<line x1="0" y1="12" x2="72" y2="12" class="grid-line-6mu"/>
<line x1="0" y1="12.5" x2="72" y2="12.5" class="grid-line"/>
<line x1="0" y1="13" x2="72" y2="13" class="grid-line"/>
<line x1="0" y1="13.5" x2="72" y2="13.5" class="grid-line"/>
<line x1="0" y1="14" x2="72" y2="14" class="grid-line-2mu"/>
<line x1="0" y1="14.5" x2="72" y2="14.5" class="grid-line"/>
<line x1="0" y1="15" x2="72" y2="15" class="grid-line"/>
<line x1="0" y1="15.5" x2="72" y2="15.5" class="grid-line"/>
<line x1="0" y1="16" x2="72" y2="16" class="grid-line-2mu"/>
<line x1="0" y1="16.5" x2="72" y2="16.5" class="grid-line"/>
<line x1="0" y1="17" x2="72" y2="17" class="grid-line"/>
<line x1="0" y1="17.5" x2="72" y2="17.5" class="grid-line"/>
<line x1="0" y1="18" x2="72" y2="18" class="grid-line-6mu"/>
<line x1="0" y1="18.5" x2="72" y2="18.5" class="grid-line"/>
<line x1="0" y1="19" x2="72" y2="19" class="grid-line"/>
<line x1="0" y1="19.5" x2="72" y2="19.5" class="grid-line"/>
<line x1="0" y1="20" x2="72" y2="20" class="grid-line-2mu"/>
<line x1="0" y1="20.5" x2="72" y2="20.5" class="grid-line"/>
<line x1="0" y1="21" x2="72" y2="21" class="grid-line"/>
<line x1="0" y1="21.5" x2="72" y2="21.5" class="grid-line"/>
<line x1="0" y1="22" x2="72" y2="22" class="grid-line-2mu"/>
<line x1="0" y1="22.5" x2="72" y2="22.5" class="grid-line"/>
<line x1="0" y1="23" x2="72" y2="23" class="grid-line"/>
<line x1="0" y1="23.5" x2="72" y2="23.5" class="grid-line"/>
<line x1="0" y1="24" x2="72" y2="24" class="grid-line-6mu"/>
<line x1="0" y1="24.5" x2="72" y2="24.5" class="grid-line"/>
<line x1="0" y1="25" x2="72" y2="25" class="grid-line"/>
<line x1="0" y1="25.5" x2="72" y2="25.5" class="grid-line"/>
<line x1="0" y1="26" x2="72" y2="26" class="grid-line-2mu"/>
<line x1="0" y1="26.5" x2="72" y2="26.5" class="grid-line"/>
<line x1="0" y1="27" x2="72" y2="27" class="grid-line"/>
<line x1="0" y1="27.5" x2="72" y2="27.5" class="grid-line"/>
<line x1="0" y1="28" x2="72" y2="28" class="grid-line-2mu"/>
<line x1="0" y1="28.5" x2="72" y2="28.5" class="grid-line"/>
<line x1="0" y1="29" x2="72" y2="29" class="grid-line"/>
<line x1="0" y1="29.5" x2="72" y2="29.5" class="grid-line"/>
<line x1="0" y1="30" x2="72" y2="30" class="grid-line-6mu"/>
<line x1="0" y1="30.5" x2="72" y2="30.5" class="grid-line"/>
<line x1="0" y1="31" x2="72" y2="31" class="grid-line"/>
<line x1="0" y1="31.5" x2="72" y2="31.5" class="grid-line"/>
<line x1="0" y1="32" x2="72" y2="32" class="grid-line-2mu"/>
<line x1="0" y1="32.5" x2="72" y2="32.5" class="grid-line"/>
<line x1="0" y1="33" x2="72" y2="33" class="grid-line"/>
<line x1="0" y1="33.5" x2="72" y2="33.5" class="grid-line"/>
<line x1="0" y1="34" x2="72" y2="34" class="grid-line-2mu"/>
<line x1="0" y1="34.5" x2="72" y2="34.5" class="grid-line"/>
<line x1="0" y1="35" x2="72" y2="35" class="grid-line"/>
<line x1="0" y1="35.5" x2="72" y2="35.5" class="grid-line"/>
<line x1="0" y1="36" x2="72" y2="36" class="grid-line-6mu"/>
<line x1="0" y1="36.5" x2="72" y2="36.5" class="grid-line"/>
<line x1="0" y1="37" x2="72" y2="37" class="grid-line"/>
<line x1="0" y1="37.5" x2="72" y2="37.5" class="grid-line"/>
<line x1="0" y1="38" x2="72" y2="38" class="grid-line-2mu"/>
<line x1="0" y1="38.5" x2="72" y2="38.5" class="grid-line"/>
<line x1="0" y1="39" x2="72" y2="39" class="grid-line"/>
<line x1="0" y1="39.5" x2="72" y2="39.5" class="grid-line"/>
<line x1="0" y1="40" x2="72" y2="40" class="grid-line-2mu"/>
<line x1="0" y1="40.5" x2="72" y2="40.5" class="grid-line"/>
<line x1="0" y1="41" x2="72" y2="41" class="grid-line"/>
<line x1="0" y1="41.5" x2="72" y2="41.5" class="grid-line"/>
<line x1="0" y1="42" x2="72" y2="42" class="grid-line-6mu"/>
<line x1="0" y1="42.5" x2="72" y2="42.5" class="grid-line"/>
<line x1="0" y1="43" x2="72" y2="43" class="grid-line"/>
<line x1="0" y1="43.5" x2="72" y2="43.5" class="grid-line"/>
<line x1="0" y1="44" x2="72" y2="44" class="grid-line-2mu"/>
<line x1="0" y1="44.5" x2="72" y2="44.5" class="grid-line"/>
<line x1="0" y1="45" x2="72" y2="45" class="grid-line"/>
<line x1="0" y1="45.5" x2="72" y2="45.5" class="grid-line"/>
<line x1="0" y1="46" x2="72" y2="46" class="grid-line-2mu"/>
<line x1="0" y1="46.5" x2="72" y2="46.5" class="grid-line"/>
<line x1="0" y1="47" x2="72" y2="47" class="grid-line"/>
<line x1="0" y1="47.5" x2="72" y2="47.5" class="grid-line"/>
<line x1="0" y1="48" x2="72" y2="48" class="grid-line-6mu"/>
</g>
<g id="layer-delaunay" class="layer ">
<line x1="40.491322709608156" y1="24.107634098928614" x2="48.621234823140355" y2="20.977025242438025" class="delaunay-line"/>
<line x1="48.621234823140355" y1="20.977025242438025" x2="40.00667892055982" y2="20.119207887756442" class="delaunay-line"/>
<line x1="40.00667892055982" y1="20.119207887756442" x2="40.491322709608156" y2="24.107634098928614" class="delaunay-line"/>
<line x1="40.491322709608156" y1="24.107634098928614" x2="41.62535229070358" y2="29.29835247652301" class="delaunay-line"/>
<line x1="41.62535229070358" y1="29.29835247652301" x2="48.621234823140355" y2="20.977025242438025" class="delaunay-line"/>
<line x1="48.621234823140355" y1="20.977025242438025" x2="40.491322709608156" y2="24.107634098928614" class="delaunay-line"/>
<line x1="48.621234823140355" y1="20.977025242438025" x2="45.670562440008354" y2="13.124894234643703" class="delaunay-line"/>
<line x1="45.670562440008354" y1="13.124894234643703" x2="40.00667892055982" y2="20.119207887756442" class="delaunay-line"/>
<line x1="40.00667892055982" y1="20.119207887756442" x2="48.621234823140355" y2="20.977025242438025" class="delaunay-line"/>
<line x1="41.62535229070358" y1="29.29835247652301" x2="43.77012949758517" y2="30.941398907398945" class="delaunay-line"/>
<line x1="43.77012949758517" y1="30.941398907398945" x2="48.621234823140355" y2="20.977025242438025" class="delaunay-line"/>
<line x1="48.621234823140355" y1="20.977025242438025" x2="41.62535229070358" y2="29.29835247652301" class="delaunay-line"/>
<line x1="48.621234823140355" y1="20.977025242438025" x2="46.90151224857859" y2="12.242861987667883" class="delaunay-line"/>
<line x1="46.90151224857859" y1="12.242861987667883" x2="45.670562440008354" y2="13.124894234643703" class="delaunay-line"/>
<line x1="45.670562440008354" y1="13.124894234643703" x2="48.621234823140355" y2="20.977025242438025" class="delaunay-line"/>
<line x1="45.670562440008354" y1="13.124894234643703" x2="35.343803151817994" y2="16.343285541457416" class="delaunay-line"/>
<line x1="35.343803151817994" y1="16.343285541457416" x2="40.00667892055982" y2="20.119207887756442" class="delaunay-line"/>
<line x1="40.00667892055982" y1="20.119207887756442" x2="45.670562440008354" y2="13.124894234643703" class="delaunay-line"/>
<line x1="40.00667892055982" y1="20.119207887756442" x2="29.445264468178873" y2="19.41886055705733" class="delaunay-line"/>
<line x1="29.445264468178873" y1="19.41886055705733" x2="40.491322709608156" y2="24.107634098928614" class="delaunay-line"/>
<line x1="40.491322709608156" y1="24.107634098928614" x2="40.00667892055982" y2="20.119207887756442" class="delaunay-line"/>
<line x1="40.491322709608156" y1="24.107634098928614" x2="38.9927814732864" y2="31.95796172804484" class="delaunay-line"/>
<line x1="38.9927814732864" y1="31.95796172804484" x2="41.62535229070358" y2="29.29835247652301" class="delaunay-line"/>
<line x1="41.62535229070358" y1="29.29835247652301" x2="40.491322709608156" y2="24.107634098928614" class="delaunay-line"/>
<line x1="41.007686671266526" y1="9.348971888344677" x2="35.343803151817994" y2="16.343285541457416" class="delaunay-line"/>
<line x1="35.343803151817994" y1="16.343285541457416" x2="45.670562440008354" y2="13.124894234643703" class="delaunay-line"/>
<line x1="45.670562440008354" y1="13.124894234643703" x2="41.007686671266526" y2="9.348971888344677" class="delaunay-line"/>
<line x1="43.77012949758517" y1="30.941398907398945" x2="46.76835609491625" y2="32.388580925983334" class="delaunay-line"/>
<line x1="46.76835609491625" y1="32.388580925983334" x2="48.621234823140355" y2="20.977025242438025" class="delaunay-line"/>
<line x1="48.621234823140355" y1="20.977025242438025" x2="43.77012949758517" y2="30.941398907398945" class="delaunay-line"/>
<line x1="41.62535229070358" y1="29.29835247652301" x2="38.9927814732864" y2="31.95796172804484" class="delaunay-line"/>
<line x1="38.9927814732864" y1="31.95796172804484" x2="43.77012949758517" y2="30.941398907398945" class="delaunay-line"/>
<line x1="43.77012949758517" y1="30.941398907398945" x2="41.62535229070358" y2="29.29835247652301" class="delaunay-line"/>
<line x1="43.77012949758517" y1="30.941398907398945" x2="42.13301342072577" y2="40.10308663230235" class="delaunay-line"/>
<line x1="42.13301342072577" y1="40.10308663230235" x2="46.76835609491625" y2="32.388580925983334" class="delaunay-line"/>
<line x1="46.76835609491625" y1="32.388580925983334" x2="43.77012949758517" y2="30.941398907398945" class="delaunay-line"/>
<line x1="36.97474255320469" y1="32.39217778000057" x2="38.9927814732864" y2="31.95796172804484" class="delaunay-line"/>
<line x1="38.9927814732864" y1="31.95796172804484" x2="40.491322709608156" y2="24.107634098928614" class="delaunay-line"/>
<line x1="40.491322709608156" y1="24.107634098928614" x2="36.97474255320469" y2="32.39217778000057" class="delaunay-line"/>
<line x1="48.621234823140355" y1="20.977025242438025" x2="52.856789158426515" y2="12.974078048098768" class="delaunay-line"/>
<line x1="52.856789158426515" y1="12.974078048098768" x2="46.90151224857859" y2="12.242861987667883" class="delaunay-line"/>
<line x1="46.90151224857859" y1="12.242861987667883" x2="48.621234823140355" y2="20.977025242438025" class="delaunay-line"/>
<line x1="56.49394317102645" y1="11.920510279764759" x2="52.856789158426515" y2="12.974078048098768" class="delaunay-line"/>
<line x1="52.856789158426515" y1="12.974078048098768" x2="62.456221811846085" y2="26.44520909619877" class="delaunay-line"/>
<line x1="62.456221811846085" y1="26.44520909619877" x2="56.49394317102645" y2="11.920510279764759" class="delaunay-line"/>
<line x1="47.99833633922493" y1="3.3099466228959846" x2="41.007686671266526" y2="9.348971888344677" class="delaunay-line"/>
<line x1="41.007686671266526" y1="9.348971888344677" x2="46.90151224857859" y2="12.242861987667883" class="delaunay-line"/>
<line x1="46.90151224857859" y1="12.242861987667883" x2="47.99833633922493" y2="3.3099466228959846" class="delaunay-line"/>
<line x1="46.90151224857859" y1="12.242861987667883" x2="41.007686671266526" y2="9.348971888344677" class="delaunay-line"/>
<line x1="41.007686671266526" y1="9.348971888344677" x2="45.670562440008354" y2="13.124894234643703" class="delaunay-line"/>
<line x1="45.670562440008354" y1="13.124894234643703" x2="46.90151224857859" y2="12.242861987667883" class="delaunay-line"/>
<line x1="29.445264468178873" y1="19.41886055705733" x2="36.97474255320469" y2="32.39217778000057" class="delaunay-line"/>
<line x1="36.97474255320469" y1="32.39217778000057" x2="40.491322709608156" y2="24.107634098928614" class="delaunay-line"/>
<line x1="40.491322709608156" y1="24.107634098928614" x2="29.445264468178873" y2="19.41886055705733" class="delaunay-line"/>
<line x1="38.9927814732864" y1="31.95796172804484" x2="42.13301342072577" y2="40.10308663230235" class="delaunay-line"/>
<line x1="42.13301342072577" y1="40.10308663230235" x2="43.77012949758517" y2="30.941398907398945" class="delaunay-line"/>
<line x1="43.77012949758517" y1="30.941398907398945" x2="38.9927814732864" y2="31.95796172804484" class="delaunay-line"/>
<line x1="49.8400474285259" y1="44.65839917391655" x2="52.53946008065228" y2="32.96595839649373" class="delaunay-line"/>
<line x1="52.53946008065228" y1="32.96595839649373" x2="46.76835609491625" y2="32.388580925983334" class="delaunay-line"/>
<line x1="46.76835609491625" y1="32.388580925983334" x2="49.8400474285259" y2="44.65839917391655" class="delaunay-line"/>
<line x1="46.76835609491625" y1="32.388580925983334" x2="52.53946008065228" y2="32.96595839649373" class="delaunay-line"/>
<line x1="52.53946008065228" y1="32.96595839649373" x2="48.621234823140355" y2="20.977025242438025" class="delaunay-line"/>
<line x1="48.621234823140355" y1="20.977025242438025" x2="46.76835609491625" y2="32.388580925983334" class="delaunay-line"/>
<line x1="10.545629297771654" y1="6.974434693928481" x2="29.445264468178873" y2="19.41886055705733" class="delaunay-line"/>
<line x1="29.445264468178873" y1="19.41886055705733" x2="35.343803151817994" y2="16.343285541457416" class="delaunay-line"/>
<line x1="35.343803151817994" y1="16.343285541457416" x2="10.545629297771654" y2="6.974434693928481" class="delaunay-line"/>
<line x1="35.343803151817994" y1="16.343285541457416" x2="29.445264468178873" y2="19.41886055705733" class="delaunay-line"/>
<line x1="29.445264468178873" y1="19.41886055705733" x2="40.00667892055982" y2="20.119207887756442" class="delaunay-line"/>
<line x1="40.00667892055982" y1="20.119207887756442" x2="35.343803151817994" y2="16.343285541457416" class="delaunay-line"/>
<line x1="62.456221811846085" y1="26.44520909619877" x2="52.856789158426515" y2="12.974078048098768" class="delaunay-line"/>
<line x1="52.856789158426515" y1="12.974078048098768" x2="48.621234823140355" y2="20.977025242438025" class="delaunay-line"/>
<line x1="48.621234823140355" y1="20.977025242438025" x2="62.456221811846085" y2="26.44520909619877" class="delaunay-line"/>
<line x1="52.856789158426515" y1="12.974078048098768" x2="47.99833633922493" y2="3.3099466228959846" class="delaunay-line"/>
<line x1="47.99833633922493" y1="3.3099466228959846" x2="46.90151224857859" y2="12.242861987667883" class="delaunay-line"/>
<line x1="46.90151224857859" y1="12.242861987667883" x2="52.856789158426515" y2="12.974078048098768" class="delaunay-line"/>
<line x1="30.04208441497194" y1="32.89871789745372" x2="36.9900096165131" y2="37.012858182842024" class="delaunay-line"/>
<line x1="36.9900096165131" y1="37.012858182842024" x2="36.97474255320469" y2="32.39217778000057" class="delaunay-line"/>
<line x1="36.97474255320469" y1="32.39217778000057" x2="30.04208441497194" y2="32.89871789745372" class="delaunay-line"/>
<line x1="36.97474255320469" y1="32.39217778000057" x2="36.9900096165131" y2="37.012858182842024" class="delaunay-line"/>
<line x1="36.9900096165131" y1="37.012858182842024" x2="38.9927814732864" y2="31.95796172804484" class="delaunay-line"/>
<line x1="38.9927814732864" y1="31.95796172804484" x2="36.97474255320469" y2="32.39217778000057" class="delaunay-line"/>
<line x1="52.53946008065228" y1="32.96595839649373" x2="58.680299465547066" y2="31.108084864940597" class="delaunay-line"/>
<line x1="58.680299465547066" y1="31.108084864940597" x2="48.621234823140355" y2="20.977025242438025" class="delaunay-line"/>
<line x1="48.621234823140355" y1="20.977025242438025" x2="52.53946008065228" y2="32.96595839649373" class="delaunay-line"/>
<line x1="25.92868431177541" y1="27.703404238129288" x2="30.04208441497194" y2="32.89871789745372" class="delaunay-line"/>
<line x1="30.04208441497194" y1="32.89871789745372" x2="36.97474255320469" y2="32.39217778000057" class="delaunay-line"/>
<line x1="36.97474255320469" y1="32.39217778000057" x2="25.92868431177541" y2="27.703404238129288" class="delaunay-line"/>
<line x1="62.51297619871342" y1="40.22862302850245" x2="59.94187852648193" y2="30.817910677295636" class="delaunay-line"/>
<line x1="59.94187852648193" y1="30.817910677295636" x2="58.680299465547066" y2="31.108084864940597" class="delaunay-line"/>
<line x1="58.680299465547066" y1="31.108084864940597" x2="62.51297619871342" y2="40.22862302850245" class="delaunay-line"/>
<line x1="58.680299465547066" y1="31.108084864940597" x2="62.456221811846085" y2="26.44520909619877" class="delaunay-line"/>
<line x1="62.456221811846085" y1="26.44520909619877" x2="48.621234823140355" y2="20.977025242438025" class="delaunay-line"/>
<line x1="48.621234823140355" y1="20.977025242438025" x2="58.680299465547066" y2="31.108084864940597" class="delaunay-line"/>
<line x1="41.07071684545878" y1="42.633839684821766" x2="42.13301342072577" y2="40.10308663230235" class="delaunay-line"/>
<line x1="42.13301342072577" y1="40.10308663230235" x2="36.9900096165131" y2="37.012858182842024" class="delaunay-line"/>
<line x1="36.9900096165131" y1="37.012858182842024" x2="41.07071684545878" y2="42.633839684821766" class="delaunay-line"/>
<line x1="36.9900096165131" y1="37.012858182842024" x2="42.13301342072577" y2="40.10308663230235" class="delaunay-line"/>
<line x1="42.13301342072577" y1="40.10308663230235" x2="38.9927814732864" y2="31.95796172804484" class="delaunay-line"/>
<line x1="38.9927814732864" y1="31.95796172804484" x2="36.9900096165131" y2="37.012858182842024" class="delaunay-line"/>
<line x1="52.53946008065228" y1="32.96595839649373" x2="62.51297619871342" y2="40.22862302850245" class="delaunay-line"/>
<line x1="62.51297619871342" y1="40.22862302850245" x2="58.680299465547066" y2="31.108084864940597" class="delaunay-line"/>
<line x1="58.680299465547066" y1="31.108084864940597" x2="52.53946008065228" y2="32.96595839649373" class="delaunay-line"/>
<line x1="53.95361324907285" y1="4.041162683326871" x2="47.99833633922493" y2="3.3099466228959846" class="delaunay-line"/>
<line x1="47.99833633922493" y1="3.3099466228959846" x2="52.856789158426515" y2="12.974078048098768" class="delaunay-line"/>
<line x1="52.856789158426515" y1="12.974078048098768" x2="53.95361324907285" y2="4.041162683326871" class="delaunay-line"/>
<line x1="59.94187852648193" y1="30.817910677295636" x2="62.456221811846085" y2="26.44520909619877" class="delaunay-line"/>
<line x1="62.456221811846085" y1="26.44520909619877" x2="58.680299465547066" y2="31.108084864940597" class="delaunay-line"/>
<line x1="58.680299465547066" y1="31.108084864940597" x2="59.94187852648193" y2="30.817910677295636" class="delaunay-line"/>
<line x1="29.445264468178873" y1="19.41886055705733" x2="25.92868431177541" y2="27.703404238129288" class="delaunay-line"/>
<line x1="25.92868431177541" y1="27.703404238129288" x2="36.97474255320469" y2="32.39217778000057" class="delaunay-line"/>
<line x1="36.97474255320469" y1="32.39217778000057" x2="29.445264468178873" y2="19.41886055705733" class="delaunay-line"/>
<line x1="56.49394317102645" y1="11.920510279764759" x2="53.95361324907285" y2="4.041162683326871" class="delaunay-line"/>
<line x1="53.95361324907285" y1="4.041162683326871" x2="52.856789158426515" y2="12.974078048098768" class="delaunay-line"/>
<line x1="52.856789158426515" y1="12.974078048098768" x2="56.49394317102645" y2="11.920510279764759" class="delaunay-line"/>
<line x1="72" y1="0" x2="53.95361324907285" y2="4.041162683326871" class="delaunay-line"/>
<line x1="53.95361324907285" y1="4.041162683326871" x2="56.49394317102645" y2="11.920510279764759" class="delaunay-line"/>
<line x1="56.49394317102645" y1="11.920510279764759" x2="72" y2="0" class="delaunay-line"/>
<line x1="34.317877323405654" y1="41.405000278310396" x2="41.07071684545878" y2="42.633839684821766" class="delaunay-line"/>
<line x1="41.07071684545878" y1="42.633839684821766" x2="36.9900096165131" y2="37.012858182842024" class="delaunay-line"/>
<line x1="36.9900096165131" y1="37.012858182842024" x2="34.317877323405654" y2="41.405000278310396" class="delaunay-line"/>
<line x1="42.13301342072577" y1="40.10308663230235" x2="49.8400474285259" y2="44.65839917391655" class="delaunay-line"/>
<line x1="49.8400474285259" y1="44.65839917391655" x2="46.76835609491625" y2="32.388580925983334" class="delaunay-line"/>
<line x1="46.76835609491625" y1="32.388580925983334" x2="42.13301342072577" y2="40.10308663230235" class="delaunay-line"/>
<line x1="30.04208441497194" y1="32.89871789745372" x2="34.317877323405654" y2="41.405000278310396" class="delaunay-line"/>
<line x1="34.317877323405654" y1="41.405000278310396" x2="36.9900096165131" y2="37.012858182842024" class="delaunay-line"/>
<line x1="36.9900096165131" y1="37.012858182842024" x2="30.04208441497194" y2="32.89871789745372" class="delaunay-line"/>
<line x1="24.303023513610444" y1="35.630326167354255" x2="34.317877323405654" y2="41.405000278310396" class="delaunay-line"/>
<line x1="34.317877323405654" y1="41.405000278310396" x2="30.04208441497194" y2="32.89871789745372" class="delaunay-line"/>
<line x1="30.04208441497194" y1="32.89871789745372" x2="24.303023513610444" y2="35.630326167354255" class="delaunay-line"/>
<line x1="34.317877323405654" y1="41.405000278310396" x2="40.24712303249824" y2="43.89222447246412" class="delaunay-line"/>
<line x1="40.24712303249824" y1="43.89222447246412" x2="41.07071684545878" y2="42.633839684821766" class="delaunay-line"/>
<line x1="41.07071684545878" y1="42.633839684821766" x2="34.317877323405654" y2="41.405000278310396" class="delaunay-line"/>
<line x1="41.07071684545878" y1="42.633839684821766" x2="49.8400474285259" y2="44.65839917391655" class="delaunay-line"/>
<line x1="49.8400474285259" y1="44.65839917391655" x2="42.13301342072577" y2="40.10308663230235" class="delaunay-line"/>
<line x1="42.13301342072577" y1="40.10308663230235" x2="41.07071684545878" y2="42.633839684821766" class="delaunay-line"/>
<line x1="69.45053546495882" y1="32.109092615647306" x2="67.81458687436803" y2="21.76139571462237" class="delaunay-line"/>
<line x1="67.81458687436803" y1="21.76139571462237" x2="62.456221811846085" y2="26.44520909619877" class="delaunay-line"/>
<line x1="62.456221811846085" y1="26.44520909619877" x2="69.45053546495882" y2="32.109092615647306" class="delaunay-line"/>
<line x1="62.456221811846085" y1="26.44520909619877" x2="67.81458687436803" y2="21.76139571462237" class="delaunay-line"/>
<line x1="67.81458687436803" y1="21.76139571462237" x2="56.49394317102645" y2="11.920510279764759" class="delaunay-line"/>
<line x1="56.49394317102645" y1="11.920510279764759" x2="62.456221811846085" y2="26.44520909619877" class="delaunay-line"/>
<line x1="40.24712303249824" y1="43.89222447246412" x2="49.8400474285259" y2="44.65839917391655" class="delaunay-line"/>
<line x1="49.8400474285259" y1="44.65839917391655" x2="41.07071684545878" y2="42.633839684821766" class="delaunay-line"/>
<line x1="41.07071684545878" y1="42.633839684821766" x2="40.24712303249824" y2="43.89222447246412" class="delaunay-line"/>
<line x1="59.94187852648193" y1="30.817910677295636" x2="69.45053546495882" y2="32.109092615647306" class="delaunay-line"/>
<line x1="69.45053546495882" y1="32.109092615647306" x2="62.456221811846085" y2="26.44520909619877" class="delaunay-line"/>
<line x1="62.456221811846085" y1="26.44520909619877" x2="59.94187852648193" y2="30.817910677295636" class="delaunay-line"/>
<line x1="25.92868431177541" y1="27.703404238129288" x2="24.303023513610444" y2="35.630326167354255" class="delaunay-line"/>
<line x1="24.303023513610444" y1="35.630326167354255" x2="30.04208441497194" y2="32.89871789745372" class="delaunay-line"/>
<line x1="30.04208441497194" y1="32.89871789745372" x2="25.92868431177541" y2="27.703404238129288" class="delaunay-line"/>
<line x1="49.8400474285259" y1="44.65839917391655" x2="54.88054333330558" y2="44.99789640660129" class="delaunay-line"/>
<line x1="54.88054333330558" y1="44.99789640660129" x2="52.53946008065228" y2="32.96595839649373" class="delaunay-line"/>
<line x1="52.53946008065228" y1="32.96595839649373" x2="49.8400474285259" y2="44.65839917391655" class="delaunay-line"/>
<line x1="54.88054333330558" y1="44.99789640660129" x2="62.51297619871342" y2="40.22862302850245" class="delaunay-line"/>
<line x1="62.51297619871342" y1="40.22862302850245" x2="52.53946008065228" y2="32.96595839649373" class="delaunay-line"/>
<line x1="52.53946008065228" y1="32.96595839649373" x2="54.88054333330558" y2="44.99789640660129" class="delaunay-line"/>
<line x1="62.51297619871342" y1="40.22862302850245" x2="65.6746131186598" y2="36.77196838438913" class="delaunay-line"/>
<line x1="65.6746131186598" y1="36.77196838438913" x2="59.94187852648193" y2="30.817910677295636" class="delaunay-line"/>
<line x1="59.94187852648193" y1="30.817910677295636" x2="62.51297619871342" y2="40.22862302850245" class="delaunay-line"/>
<line x1="34.317877323405654" y1="41.405000278310396" x2="31.296425974183776" y2="44.83298064187301" class="delaunay-line"/>
<line x1="31.296425974183776" y1="44.83298064187301" x2="40.24712303249824" y2="43.89222447246412" class="delaunay-line"/>
<line x1="40.24712303249824" y1="43.89222447246412" x2="34.317877323405654" y2="41.405000278310396" class="delaunay-line"/>
<line x1="40.24712303249824" y1="43.89222447246412" x2="39.981760842854186" y2="48.39931393142314" class="delaunay-line"/>
<line x1="39.981760842854186" y1="48.39931393142314" x2="49.8400474285259" y2="44.65839917391655" class="delaunay-line"/>
<line x1="49.8400474285259" y1="44.65839917391655" x2="40.24712303249824" y2="43.89222447246412" class="delaunay-line"/>
<line x1="49.8400474285259" y1="44.65839917391655" x2="58.06005891870481" y2="50.086184983539844" class="delaunay-line"/>
<line x1="58.06005891870481" y1="50.086184983539844" x2="54.88054333330558" y2="44.99789640660129" class="delaunay-line"/>
<line x1="54.88054333330558" y1="44.99789640660129" x2="49.8400474285259" y2="44.65839917391655" class="delaunay-line"/>
<line x1="29.655001554663823" y1="45.18092262460942" x2="31.296425974183776" y2="44.83298064187301" class="delaunay-line"/>
<line x1="31.296425974183776" y1="44.83298064187301" x2="34.317877323405654" y2="41.405000278310396" class="delaunay-line"/>
<line x1="34.317877323405654" y1="41.405000278310396" x2="29.655001554663823" y2="45.18092262460942" class="delaunay-line"/>
<line x1="31.296425974183776" y1="44.83298064187301" x2="39.981760842854186" y2="48.39931393142314" class="delaunay-line"/>
<line x1="39.981760842854186" y1="48.39931393142314" x2="40.24712303249824" y2="43.89222447246412" class="delaunay-line"/>
<line x1="40.24712303249824" y1="43.89222447246412" x2="31.296425974183776" y2="44.83298064187301" class="delaunay-line"/>
<line x1="65.6746131186598" y1="36.77196838438913" x2="69.45053546495882" y2="32.109092615647306" class="delaunay-line"/>
<line x1="69.45053546495882" y1="32.109092615647306" x2="59.94187852648193" y2="30.817910677295636" class="delaunay-line"/>
<line x1="59.94187852648193" y1="30.817910677295636" x2="65.6746131186598" y2="36.77196838438913" class="delaunay-line"/>
<line x1="24.303023513610444" y1="35.630326167354255" x2="29.655001554663823" y2="45.18092262460942" class="delaunay-line"/>
<line x1="29.655001554663823" y1="45.18092262460942" x2="34.317877323405654" y2="41.405000278310396" class="delaunay-line"/>
<line x1="34.317877323405654" y1="41.405000278310396" x2="24.303023513610444" y2="35.630326167354255" class="delaunay-line"/>
<line x1="31.296425974183776" y1="44.83298064187301" x2="35.31888507411236" y2="52.17523627772216" class="delaunay-line"/>
<line x1="35.31888507411236" y1="52.17523627772216" x2="39.981760842854186" y2="48.39931393142314" class="delaunay-line"/>
<line x1="39.981760842854186" y1="48.39931393142314" x2="31.296425974183776" y2="44.83298064187301" class="delaunay-line"/>
<line x1="20.96195411173664" y1="50.25350144674768" x2="29.18386323052005" y2="46.592871659065466" class="delaunay-line"/>
<line x1="29.18386323052005" y1="46.592871659065466" x2="29.655001554663823" y2="45.18092262460942" class="delaunay-line"/>
<line x1="29.655001554663823" y1="45.18092262460942" x2="20.96195411173664" y2="50.25350144674768" class="delaunay-line"/>
<line x1="29.655001554663823" y1="45.18092262460942" x2="29.18386323052005" y2="46.592871659065466" class="delaunay-line"/>
<line x1="29.18386323052005" y1="46.592871659065466" x2="31.296425974183776" y2="44.83298064187301" class="delaunay-line"/>
<line x1="31.296425974183776" y1="44.83298064187301" x2="29.655001554663823" y2="45.18092262460942" class="delaunay-line"/>
<line x1="54.88054333330558" y1="44.99789640660129" x2="58.06005891870481" y2="50.086184983539844" class="delaunay-line"/>
<line x1="58.06005891870481" y1="50.086184983539844" x2="62.51297619871342" y2="40.22862302850245" class="delaunay-line"/>
<line x1="62.51297619871342" y1="40.22862302850245" x2="54.88054333330558" y2="44.99789640660129" class="delaunay-line"/>
<line x1="62.51297619871342" y1="40.22862302850245" x2="65.69249178411265" y2="45.316911605441" class="delaunay-line"/>
<line x1="65.69249178411265" y1="45.316911605441" x2="65.6746131186598" y2="36.77196838438913" class="delaunay-line"/>
<line x1="65.6746131186598" y1="36.77196838438913" x2="62.51297619871342" y2="40.22862302850245" class="delaunay-line"/>
<line x1="65.6746131186598" y1="36.77196838438913" x2="72" y2="48" class="delaunay-line"/>
<line x1="72" y1="48" x2="69.45053546495882" y2="32.109092615647306" class="delaunay-line"/>
<line x1="69.45053546495882" y1="32.109092615647306" x2="65.6746131186598" y2="36.77196838438913" class="delaunay-line"/>
<line x1="39.981760842854186" y1="48.39931393142314" x2="58.06005891870481" y2="50.086184983539844" class="delaunay-line"/>
<line x1="58.06005891870481" y1="50.086184983539844" x2="49.8400474285259" y2="44.65839917391655" class="delaunay-line"/>
<line x1="49.8400474285259" y1="44.65839917391655" x2="39.981760842854186" y2="48.39931393142314" class="delaunay-line"/>
<line x1="29.18386323052005" y1="46.592871659065466" x2="35.31888507411236" y2="52.17523627772216" class="delaunay-line"/>
<line x1="35.31888507411236" y1="52.17523627772216" x2="31.296425974183776" y2="44.83298064187301" class="delaunay-line"/>
<line x1="31.296425974183776" y1="44.83298064187301" x2="29.18386323052005" y2="46.592871659065466" class="delaunay-line"/>
<line x1="39.981760842854186" y1="48.39931393142314" x2="35.31888507411236" y2="52.17523627772216" class="delaunay-line"/>
<line x1="35.31888507411236" y1="52.17523627772216" x2="58.06005891870481" y2="50.086184983539844" class="delaunay-line"/>
<line x1="58.06005891870481" y1="50.086184983539844" x2="39.981760842854186" y2="48.39931393142314" class="delaunay-line"/>
<line x1="58.06005891870481" y1="50.086184983539844" x2="65.69249178411265" y2="45.316911605441" class="delaunay-line"/>
<line x1="65.69249178411265" y1="45.316911605441" x2="62.51297619871342" y2="40.22862302850245" class="delaunay-line"/>
<line x1="62.51297619871342" y1="40.22862302850245" x2="58.06005891870481" y2="50.086184983539844" class="delaunay-line"/>
<line x1="25.92868431177541" y1="27.703404238129288" x2="12.187765828931719" y2="24.334726913942486" class="delaunay-line"/>
<line x1="12.187765828931719" y1="24.334726913942486" x2="24.303023513610444" y2="35.630326167354255" class="delaunay-line"/>
<line x1="24.303023513610444" y1="35.630326167354255" x2="25.92868431177541" y2="27.703404238129288" class="delaunay-line"/>
<line x1="24.303023513610444" y1="35.630326167354255" x2="16.081114394827036" y2="39.290955955036466" class="delaunay-line"/>
<line x1="16.081114394827036" y1="39.290955955036466" x2="29.655001554663823" y2="45.18092262460942" class="delaunay-line"/>
<line x1="29.655001554663823" y1="45.18092262460942" x2="24.303023513610444" y2="35.630326167354255" class="delaunay-line"/>
<line x1="29.445264468178873" y1="19.41886055705733" x2="12.187765828931719" y2="24.334726913942486" class="delaunay-line"/>
<line x1="12.187765828931719" y1="24.334726913942486" x2="25.92868431177541" y2="27.703404238129288" class="delaunay-line"/>
<line x1="25.92868431177541" y1="27.703404238129288" x2="29.445264468178873" y2="19.41886055705733" class="delaunay-line"/>
<line x1="10.545629297771654" y1="6.974434693928481" x2="12.187765828931719" y2="24.334726913942486" class="delaunay-line"/>
<line x1="12.187765828931719" y1="24.334726913942486" x2="29.445264468178873" y2="19.41886055705733" class="delaunay-line"/>
<line x1="29.445264468178873" y1="19.41886055705733" x2="10.545629297771654" y2="6.974434693928481" class="delaunay-line"/>
<line x1="10.545629297771654" y1="6.974434693928481" x2="35.343803151817994" y2="16.343285541457416" class="delaunay-line"/>
<line x1="35.343803151817994" y1="16.343285541457416" x2="41.007686671266526" y2="9.348971888344677" class="delaunay-line"/>
<line x1="41.007686671266526" y1="9.348971888344677" x2="10.545629297771654" y2="6.974434693928481" class="delaunay-line"/>
<line x1="11.582707512742022" y1="36.89427402459907" x2="16.081114394827036" y2="39.290955955036466" class="delaunay-line"/>
<line x1="16.081114394827036" y1="39.290955955036466" x2="24.303023513610444" y2="35.630326167354255" class="delaunay-line"/>
<line x1="24.303023513610444" y1="35.630326167354255" x2="11.582707512742022" y2="36.89427402459907" class="delaunay-line"/>
<line x1="29.18386323052005" y1="46.592871659065466" x2="20.96195411173664" y2="50.25350144674768" class="delaunay-line"/>
<line x1="20.96195411173664" y1="50.25350144674768" x2="35.31888507411236" y2="52.17523627772216" class="delaunay-line"/>
<line x1="35.31888507411236" y1="52.17523627772216" x2="29.18386323052005" y2="46.592871659065466" class="delaunay-line"/>
<line x1="69.45053546495882" y1="32.109092615647306" x2="72" y2="0" class="delaunay-line"/>
<line x1="72" y1="0" x2="67.81458687436803" y2="21.76139571462237" class="delaunay-line"/>
<line x1="67.81458687436803" y1="21.76139571462237" x2="69.45053546495882" y2="32.109092615647306" class="delaunay-line"/>
<line x1="67.81458687436803" y1="21.76139571462237" x2="72" y2="0" class="delaunay-line"/>
<line x1="72" y1="0" x2="56.49394317102645" y2="11.920510279764759" class="delaunay-line"/>
<line x1="56.49394317102645" y1="11.920510279764759" x2="67.81458687436803" y2="21.76139571462237" class="delaunay-line"/>
<line x1="53.95361324907285" y1="4.041162683326871" x2="72" y2="0" class="delaunay-line"/>
<line x1="72" y1="0" x2="47.99833633922493" y2="3.3099466228959846" class="delaunay-line"/>
<line x1="47.99833633922493" y1="3.3099466228959846" x2="53.95361324907285" y2="4.041162683326871" class="delaunay-line"/>
<line x1="12.187765828931719" y1="24.334726913942486" x2="11.582707512742022" y2="36.89427402459907" class="delaunay-line"/>
<line x1="11.582707512742022" y1="36.89427402459907" x2="24.303023513610444" y2="35.630326167354255" class="delaunay-line"/>
<line x1="24.303023513610444" y1="35.630326167354255" x2="12.187765828931719" y2="24.334726913942486" class="delaunay-line"/>
<line x1="16.081114394827036" y1="39.290955955036466" x2="20.96195411173664" y2="50.25350144674768" class="delaunay-line"/>
<line x1="20.96195411173664" y1="50.25350144674768" x2="29.655001554663823" y2="45.18092262460942" class="delaunay-line"/>
<line x1="29.655001554663823" y1="45.18092262460942" x2="16.081114394827036" y2="39.290955955036466" class="delaunay-line"/>
<line x1="9.137719112409574" y1="-1.9147603714277577" x2="41.007686671266526" y2="9.348971888344677" class="delaunay-line"/>
<line x1="41.007686671266526" y1="9.348971888344677" x2="47.99833633922493" y2="3.3099466228959846" class="delaunay-line"/>
<line x1="47.99833633922493" y1="3.3099466228959846" x2="9.137719112409574" y2="-1.9147603714277577" class="delaunay-line"/>
<line x1="9.137719112409574" y1="-1.9147603714277577" x2="10.545629297771654" y2="6.974434693928481" class="delaunay-line"/>
<line x1="10.545629297771654" y1="6.974434693928481" x2="41.007686671266526" y2="9.348971888344677" class="delaunay-line"/>
<line x1="41.007686671266526" y1="9.348971888344677" x2="9.137719112409574" y2="-1.9147603714277577" class="delaunay-line"/>
<line x1="12.187765828931719" y1="24.334726913942486" x2="8.384201473265422" y2="32.491496997272336" class="delaunay-line"/>
<line x1="8.384201473265422" y1="32.491496997272336" x2="11.582707512742022" y2="36.89427402459907" class="delaunay-line"/>
<line x1="11.582707512742022" y1="36.89427402459907" x2="12.187765828931719" y2="24.334726913942486" class="delaunay-line"/>
<line x1="2.6649696070132896" y1="44.923841300905366" x2="20.96195411173664" y2="50.25350144674768" class="delaunay-line"/>
<line x1="20.96195411173664" y1="50.25350144674768" x2="16.081114394827036" y2="39.290955955036466" class="delaunay-line"/>
<line x1="16.081114394827036" y1="39.290955955036466" x2="2.6649696070132896" y2="44.923841300905366" class="delaunay-line"/>
<line x1="5.560532055512297" y1="30.205970595302517" x2="8.384201473265422" y2="32.491496997272336" class="delaunay-line"/>
<line x1="8.384201473265422" y1="32.491496997272336" x2="12.187765828931719" y2="24.334726913942486" class="delaunay-line"/>
<line x1="12.187765828931719" y1="24.334726913942486" x2="5.560532055512297" y2="30.205970595302517" class="delaunay-line"/>
<line x1="11.582707512742022" y1="36.89427402459907" x2="2.6649696070132896" y2="44.923841300905366" class="delaunay-line"/>
<line x1="2.6649696070132896" y1="44.923841300905366" x2="16.081114394827036" y2="39.290955955036466" class="delaunay-line"/>
<line x1="16.081114394827036" y1="39.290955955036466" x2="11.582707512742022" y2="36.89427402459907" class="delaunay-line"/>
<line x1="65.69249178411265" y1="45.316911605441" x2="72" y2="48" class="delaunay-line"/>
<line x1="72" y1="48" x2="65.6746131186598" y2="36.77196838438913" class="delaunay-line"/>
<line x1="65.6746131186598" y1="36.77196838438913" x2="65.69249178411265" y2="45.316911605441" class="delaunay-line"/>
<line x1="69.45053546495882" y1="32.109092615647306" x2="72" y2="48" class="delaunay-line"/>
<line x1="72" y1="48" x2="72" y2="0" class="delaunay-line"/>
<line x1="72" y1="0" x2="69.45053546495882" y2="32.109092615647306" class="delaunay-line"/>
<line x1="58.06005891870481" y1="50.086184983539844" x2="72" y2="48" class="delaunay-line"/>
<line x1="72" y1="48" x2="65.69249178411265" y2="45.316911605441" class="delaunay-line"/>
<line x1="65.69249178411265" y1="45.316911605441" x2="58.06005891870481" y2="50.086184983539844" class="delaunay-line"/>
<line x1="1.3120723844919215" y1="19.26330777305409" x2="5.560532055512297" y2="30.205970595302517" class="delaunay-line"/>
<line x1="5.560532055512297" y1="30.205970595302517" x2="12.187765828931719" y2="24.334726913942486" class="delaunay-line"/>
<line x1="12.187765828931719" y1="24.334726913942486" x2="1.3120723844919215" y2="19.26330777305409" class="delaunay-line"/>
<line x1="8.384201473265422" y1="32.491496997272336" x2="2.6649696070132896" y2="44.923841300905366" class="delaunay-line"/>
<line x1="2.6649696070132896" y1="44.923841300905366" x2="11.582707512742022" y2="36.89427402459907" class="delaunay-line"/>
<line x1="11.582707512742022" y1="36.89427402459907" x2="8.384201473265422" y2="32.491496997272336" class="delaunay-line"/>
<line x1="10.545629297771654" y1="6.974434693928481" x2="1.3120723844919215" y2="19.26330777305409" class="delaunay-line"/>
<line x1="1.3120723844919215" y1="19.26330777305409" x2="12.187765828931719" y2="24.334726913942486" class="delaunay-line"/>
<line x1="12.187765828931719" y1="24.334726913942486" x2="10.545629297771654" y2="6.974434693928481" class="delaunay-line"/>
<line x1="72" y1="0" x2="9.137719112409574" y2="-1.9147603714277577" class="delaunay-line"/>
<line x1="9.137719112409574" y1="-1.9147603714277577" x2="47.99833633922493" y2="3.3099466228959846" class="delaunay-line"/>
<line x1="47.99833633922493" y1="3.3099466228959846" x2="72" y2="0" class="delaunay-line"/>
<line x1="10.545629297771654" y1="6.974434693928481" x2="9.137719112409574" y2="-1.9147603714277577" class="delaunay-line"/>
<line x1="9.137719112409574" y1="-1.9147603714277577" x2="4.619499254200828" y2="7.913041484169867" class="delaunay-line"/>
<line x1="4.619499254200828" y1="7.913041484169867" x2="10.545629297771654" y2="6.974434693928481" class="delaunay-line"/>
<line x1="4.619499254200828" y1="7.913041484169867" x2="1.3120723844919215" y2="19.26330777305409" class="delaunay-line"/>
<line x1="1.3120723844919215" y1="19.26330777305409" x2="10.545629297771654" y2="6.974434693928481" class="delaunay-line"/>
<line x1="10.545629297771654" y1="6.974434693928481" x2="4.619499254200828" y2="7.913041484169867" class="delaunay-line"/>
<line x1="9.137719112409574" y1="-1.9147603714277577" x2="3.211589068838749" y2="-0.9761535811863715" class="delaunay-line"/>
<line x1="3.211589068838749" y1="-0.9761535811863715" x2="4.619499254200828" y2="7.913041484169867" class="delaunay-line"/>
<line x1="4.619499254200828" y1="7.913041484169867" x2="9.137719112409574" y2="-1.9147603714277577" class="delaunay-line"/>
<line x1="4.619499254200828" y1="7.913041484169867" x2="0" y2="0" class="delaunay-line"/>
<line x1="0" y1="0" x2="1.3120723844919215" y2="19.26330777305409" class="delaunay-line"/>
<line x1="1.3120723844919215" y1="19.26330777305409" x2="4.619499254200828" y2="7.913041484169867" class="delaunay-line"/>
<line x1="1.3120723844919215" y1="19.26330777305409" x2="-2.4914919711743746" y2="27.420077856383937" class="delaunay-line"/>
<line x1="-2.4914919711743746" y1="27.420077856383937" x2="5.560532055512297" y2="30.205970595302517" class="delaunay-line"/>
<line x1="5.560532055512297" y1="30.205970595302517" x2="1.3120723844919215" y2="19.26330777305409" class="delaunay-line"/>
<line x1="-3.357205850216435" y1="38.23553787160881" x2="2.6649696070132896" y2="44.923841300905366" class="delaunay-line"/>
<line x1="2.6649696070132896" y1="44.923841300905366" x2="8.384201473265422" y2="32.491496997272336" class="delaunay-line"/>
<line x1="8.384201473265422" y1="32.491496997272336" x2="-3.357205850216435" y2="38.23553787160881" class="delaunay-line"/>
<line x1="0" y1="0" x2="-2.4914919711743746" y2="27.420077856383937" class="delaunay-line"/>
<line x1="-2.4914919711743746" y1="27.420077856383937" x2="1.3120723844919215" y2="19.26330777305409" class="delaunay-line"/>
<line x1="1.3120723844919215" y1="19.26330777305409" x2="0" y2="0" class="delaunay-line"/>
<line x1="-3.357205850216435" y1="38.23553787160881" x2="8.384201473265422" y2="32.491496997272336" class="delaunay-line"/>
<line x1="8.384201473265422" y1="32.491496997272336" x2="5.560532055512297" y2="30.205970595302517" class="delaunay-line"/>
<line x1="5.560532055512297" y1="30.205970595302517" x2="-3.357205850216435" y2="38.23553787160881" class="delaunay-line"/>
<line x1="3.211589068838749" y1="-0.9761535811863715" x2="0" y2="0" class="delaunay-line"/>
<line x1="0" y1="0" x2="4.619499254200828" y2="7.913041484169867" class="delaunay-line"/>
<line x1="4.619499254200828" y1="7.913041484169867" x2="3.211589068838749" y2="-0.9761535811863715" class="delaunay-line"/>
<line x1="-2.4914919711743746" y1="27.420077856383937" x2="-3.357205850216435" y2="38.23553787160881" class="delaunay-line"/>
<line x1="-3.357205850216435" y1="38.23553787160881" x2="5.560532055512297" y2="30.205970595302517" class="delaunay-line"/>
<line x1="5.560532055512297" y1="30.205970595302517" x2="-2.4914919711743746" y2="27.420077856383937" class="delaunay-line"/>
<line x1="-3.357205850216435" y1="38.23553787160881" x2="0" y2="48" class="delaunay-line"/>
<line x1="0" y1="48" x2="2.6649696070132896" y2="44.923841300905366" class="delaunay-line"/>
<line x1="2.6649696070132896" y1="44.923841300905366" x2="-3.357205850216435" y2="38.23553787160881" class="delaunay-line"/>
<line x1="2.6649696070132896" y1="44.923841300905366" x2="0" y2="48" class="delaunay-line"/>
<line x1="0" y1="48" x2="20.96195411173664" y2="50.25350144674768" class="delaunay-line"/>
<line x1="20.96195411173664" y1="50.25350144674768" x2="2.6649696070132896" y2="44.923841300905366" class="delaunay-line"/>
<line x1="20.96195411173664" y1="50.25350144674768" x2="0" y2="48" class="delaunay-line"/>
<line x1="0" y1="48" x2="35.31888507411236" y2="52.17523627772216" class="delaunay-line"/>
<line x1="35.31888507411236" y1="52.17523627772216" x2="20.96195411173664" y2="50.25350144674768" class="delaunay-line"/>
</g>
<g id="layer-area" class="layer ">
<polygon points="10.545629297771654,6.974434693928481 4.619499254200828,7.913041484169867 3.211589068838749,-0.9761535811863715 9.137719112409574,-1.9147603714277577" class="terrain-area"/>
<text x="6.878609183305201" y="2.9991405563710547" class="label">#C49A6C</text>
<polygon points="52.856789158426515,12.974078048098768 46.90151224857859,12.242861987667883 47.99833633922493,3.3099466228959846 53.95361324907285,4.041162683326871" class="terrain-area"/>
<text x="50.42756274882572" y="8.142012335497377" class="label">#C49A6C</text>
<polygon points="40.491322709608156,24.107634098928614 36.97474255320469,32.39217778000057 25.92868431177541,27.703404238129288 29.445264468178873,19.41886055705733" class="terrain-area"/>
<text x="33.210003510691784" y="25.90551916852895" class="label">#C49A6C</text>
<polygon points="67.81458687436803,21.76139571462237 59.94187852648193,30.817910677295636 48.621234823140355,20.977025242438025 56.49394317102645,11.920510279764759" class="terrain-area"/>
<text x="58.21791084875419" y="21.3692104785302" class="label">#C49A6C</text>
<polygon points="30.04208441497194,32.89871789745372 38.9927814732864,31.95796172804484 40.24712303249824,43.89222447246412 31.296425974183776,44.83298064187301" class="terrain-area"/>
<text x="35.14460372373509" y="38.39547118495892" class="label">#C49A6C</text>
<polygon points="41.62535229070358,29.29835247652301 46.76835609491625,32.388580925983334 42.13301342072577,40.10308663230235 36.9900096165131,37.012858182842024" class="terrain-area"/>
<text x="41.879182855714674" y="34.70071955441268" class="label">#C49A6C</text>
<polygon points="62.51297619871342,40.22862302850245 65.69249178411265,45.316911605441 58.06005891870481,50.086184983539844 54.88054333330558,44.99789640660129" class="terrain-area"/>
<text x="60.286517558709114" y="45.157404006021146" class="label">#C49A6C</text>
<polygon points="5.560532055512297,30.205970595302517 11.582707512742022,36.89427402459907 2.6649696070132896,44.923841300905366 -3.357205850216435,38.23553787160881" class="terrain-area"/>
<text x="4.112750831262794" y="37.56490594810394" class="label">#C49A6C</text>
<polygon points="58.680299465547066,31.108084864940597 62.456221811846085,26.44520909619877 69.45053546495882,32.109092615647306 65.6746131186598,36.77196838438913" class="terrain-area"/>
<text x="64.06541746525295" y="31.608588740293953" class="label">#C49A6C</text>
<polygon points="29.18386323052005,46.592871659065466 20.96195411173664,50.25350144674768 16.081114394827036,39.290955955036466 24.303023513610444,35.630326167354255" class="terrain-area"/>
<text x="22.632488812673543" y="42.941913807050966" class="label">#C49A6C</text>
<polygon points="41.007686671266526,9.348971888344677 45.670562440008354,13.124894234643703 40.00667892055982,20.119207887756442 35.343803151817994,16.343285541457416" class="terrain-area"/>
<text x="40.507182795913174" y="14.734089888050558" class="label">#C49A6C</text>
<polygon points="43.77012949758517,30.941398907398945 52.53946008065228,32.96595839649373 49.8400474285259,44.65839917391655 41.07071684545878,42.633839684821766" class="terrain-area"/>
<text x="46.80508846305553" y="37.79989904065775" class="label">#C49A6C</text>
<polygon points="39.981760842854186,48.39931393142314 35.31888507411236,52.17523627772216 29.655001554663823,45.18092262460942 34.317877323405654,41.405000278310396" class="terrain-area"/>
<text x="34.818381198759006" y="46.79011827801628" class="label">#C49A6C</text>
<polygon points="-2.4914919711743746,27.420077856383937 1.3120723844919215,19.26330777305409 12.187765828931719,24.334726913942486 8.384201473265422,32.491496997272336" class="terrain-area"/>
<text x="4.848136928878672" y="25.87740238516321" class="label">#C49A6C</text>
</g>
<g id="layer-building" class="layer ">
</g>
<g id="layer-wall" class="layer ">
</g>
<g id="layer-tree" class="layer ">
</g>
<g id="layer-rocks" class="layer ">
</g>
<g id="layer-shrub" class="layer ">
</g>
<g id="layer-terrain" class="layer ">
</g>
<g id="layer-clearance" class="layer hidden">
</g>
<g id="layer-models" class="layer ">
</g>
<g id="layer-paths" class="layer ">
</g>
<g id="layer-vectors" class="layer ">
</g>
<g id="layer-los" class="layer ">
</g>
<g id="layer-lof" class="layer ">
</g>

<g id="legend">
<g class="toggle" onclick="toggleLayer('deployment')"><rect x="0.4" y="0.14999999999999997" width="0.4" height="0.4" fill="#222" stroke="#222" stroke-width="0.05"/><text x="1.0" y="0.5499999999999999" class="label">Deployment Zones</text></g>
<g class="toggle" onclick="toggleLayer('grid')"><rect x="0.4" y="0.95" width="0.4" height="0.4" fill="#222" stroke="#222" stroke-width="0.05"/><text x="1.0" y="1.3499999999999999" class="label">0.5 MU Grid</text></g>
<g class="toggle" onclick="toggleLayer('delaunay')"><rect x="0.4" y="1.7500000000000002" width="0.4" height="0.4" fill="#222" stroke="#222" stroke-width="0.05"/><text x="1.0" y="2.1500000000000004" class="label">Delaunay Mesh</text></g>
<g class="toggle" onclick="toggleLayer('area')"><rect x="0.4" y="2.55" width="0.4" height="0.4" fill="#222" stroke="#222" stroke-width="0.05"/><text x="1.0" y="2.95" class="label">Area Terrain</text></g>
<g class="toggle disabled"><rect x="0.4" y="3.3499999999999996" width="0.4" height="0.4" fill="#222" stroke="#222" stroke-width="0.05"/><text x="1.0" y="3.75" class="label">Buildings</text></g>
<g class="toggle disabled"><rect x="0.4" y="4.1499999999999995" width="0.4" height="0.4" fill="#222" stroke="#222" stroke-width="0.05"/><text x="1.0" y="4.55" class="label">Walls</text></g>
<g class="toggle disabled"><rect x="0.4" y="4.949999999999999" width="0.4" height="0.4" fill="#222" stroke="#222" stroke-width="0.05"/><text x="1.0" y="5.35" class="label">Trees</text></g>
<g class="toggle disabled"><rect x="0.4" y="5.749999999999999" width="0.4" height="0.4" fill="#222" stroke="#222" stroke-width="0.05"/><text x="1.0" y="6.1499999999999995" class="label">Rocks</text></g>
<g class="toggle disabled"><rect x="0.4" y="6.549999999999999" width="0.4" height="0.4" fill="#222" stroke="#222" stroke-width="0.05"/><text x="1.0" y="6.949999999999999" class="label">Shrubs</text></g>
<g class="toggle" onclick="toggleLayer('terrain')"><rect x="0.4" y="7.349999999999999" width="0.4" height="0.4" fill="#222" stroke="#222" stroke-width="0.05"/><text x="1.0" y="7.749999999999999" class="label">Other Terrain</text></g>
<g class="toggle" onclick="toggleLayer('clearance')"><rect x="0.4" y="8.15" width="0.4" height="0.4" fill="#fff" stroke="#222" stroke-width="0.05"/><text x="1.0" y="8.549999999999999" class="label">Clearance Zones</text></g>
<g class="toggle" onclick="toggleLayer('models')"><rect x="0.4" y="8.950000000000001" width="0.4" height="0.4" fill="#222" stroke="#222" stroke-width="0.05"/><text x="1.0" y="9.35" class="label">Models</text></g>
<g class="toggle" onclick="toggleLayer('paths')"><rect x="0.4" y="9.750000000000002" width="0.4" height="0.4" fill="#222" stroke="#222" stroke-width="0.05"/><text x="1.0" y="10.15" class="label">Paths</text></g>
<g class="toggle" onclick="toggleLayer('vectors')"><rect x="0.4" y="10.550000000000002" width="0.4" height="0.4" fill="#222" stroke="#222" stroke-width="0.05"/><text x="1.0" y="10.950000000000001" class="label">Vectors</text></g>
<g class="toggle" onclick="toggleLayer('los')"><rect x="0.4" y="11.350000000000003" width="0.4" height="0.4" fill="#222" stroke="#222" stroke-width="0.05"/><text x="1.0" y="11.750000000000002" class="label">LOS</text></g>
<g class="toggle" onclick="toggleLayer('lof')"><rect x="0.4" y="12.150000000000004" width="0.4" height="0.4" fill="#222" stroke="#222" stroke-width="0.05"/><text x="1.0" y="12.550000000000002" class="label">LOF</text></g>
</g>
</svg>