<svg xmlns="http://www.w3.org/2000/svg" viewBox="0 0 72 48" width="2880" height="1920" font-family="Arial" font-size="0.6">
<defs>
  <style><![CDATA[
    .layer { display: inline; }
    .layer.hidden { display: none; }
    .grid-line { stroke: #999; stroke-width: 0.02; opacity: 0.2; }
    .grid-line-2mu { stroke: #666; stroke-width: 0.04; opacity: 0.4; }
    .grid-line-6mu { stroke: #333; stroke-width: 0.08; opacity: 0.6; }
    .delaunay-line { stroke: #4a6fa5; stroke-width: 0.03; opacity: 0.3; }
    #layer-area { opacity: 0.8; }
    #layer-building, #layer-wall, #layer-tree, #layer-rocks, #layer-shrub, #layer-terrain { opacity: 0.8; }
    .terrain-area { stroke: none; }
    .terrain-solid { stroke: #000; stroke-width: 0.05; }
    .model { stroke: #ff0000; stroke-width: 2; vector-effect: non-scaling-stroke; }
    .path { fill: none; stroke-width: 0.12; }
    .vector { stroke-width: 0.1; }
    .los-ray { stroke-width: 0.08; stroke-dasharray: 0.2 0.2; }
    .lof-ray { stroke-width: 0.08; stroke-dasharray: 0.3 0.15; }
    .label { fill: #111 !important; font-size: 0.6px; }
    .toggle { cursor: pointer; }
    .toggle.disabled { cursor: default; }
    .toggle.disabled rect { stroke: #ccc; fill: #fff; }
    .toggle.disabled text { fill: #ccc; }
#layer-building { fill: #000000; }
  ]]></style>
</defs>
<rect x="0" y="0" width="72" height="48" fill="#ffffff" stroke="#111" stroke-width="0.05"/>
<script><![CDATA[
      function toggleLayer(id) {
        var layer = document.getElementById('layer-' + id);
        if (!layer) return;
        if (layer.classList.contains('hidden')) {
          layer.classList.remove('hidden');
        } else {
          layer.classList.add('hidden');
        }
      }
    ]]></script>
<text x="0.4" y="47.6" class="label">VERY_LARGE battlefield_A0-B20-W0-R0-S0-T0</text>
<g id="layer-deployment" class="layer ">
</g>
<g id="layer-grid" class="layer ">
<line x1="0" y1="0" x2="0" y2="48" class="grid-line-6mu"/>
<line x1="0.5" y1="0" x2="0.5" y2="48" class="grid-line"/>
<line x1="1" y1="0" x2="1" y2="48" class="grid-line"/>
<line x1="1.5" y1="0" x2="1.5" y2="48" class="grid-line"/>
<line x1="2" y1="0" x2="2" y2="48" class="grid-line-2mu"/>
<line x1="2.5" y1="0" x2="2.5" y2="48" class="grid-line"/>
<line x1="3" y1="0" x2="3" y2="48" class="grid-line"/>
<line x1="3.5" y1="0" x2="3.5" y2="48" class="grid-line"/>
<line x1="4" y1="0" x2="4" y2="48" class="grid-line-2mu"/>
<line x1="4.5" y1="0" x2="4.5" y2="48" class="grid-line"/>
<line x1="5" y1="0" x2="5" y2="48" class="grid-line"/>
<line x1="5.5" y1="0" x2="5.5" y2="48" class="grid-line"/>
<line x1="6" y1="0" x2="6" y2="48" class="grid-line-6mu"/>
<line x1="6.5" y1="0" x2="6.5" y2="48" class="grid-line"/>
<line x1="7" y1="0" x2="7" y2="48" class="grid-line"/>
<line x1="7.5" y1="0" x2="7.5" y2="48" class="grid-line"/>
<line x1="8" y1="0" x2="8" y2="48" class="grid-line-2mu"/>
<line x1="8.5" y1="0" x2="8.5" y2="48" class="grid-line"/>
<line x1="9" y1="0" x2="9" y2="48" class="grid-line"/>
<line x1="9.5" y1="0" x2="9.5" y2="48" class="grid-line"/>
<line x1="10" y1="0" x2="10" y2="48" class="grid-line-2mu"/>
<line x1="10.5" y1="0" x2="10.5" y2="48" class="grid-line"/>
<line x1="11" y1="0" x2="11" y2="48" class="grid-line"/>
<line x1="11.5" y1="0" x2="11.5" y2="48" class="grid-line"/>
<line x1="12" y1="0" x2="12" y2="48" class="grid-line-6mu"/>
<line x1="12.5" y1="0" x2="12.5" y2="48" class="grid-line"/>
<line x1="13" y1="0" x2="13" y2="48" class="grid-line"/>
<line x1="13.5" y1="0" x2="13.5" y2="48" class="grid-line"/>
<line x1="14" y1="0" x2="14" y2="48" class="grid-line-2mu"/>
<line x1="14.5" y1="0" x2="14.5" y2="48" class="grid-line"/>
<line x1="15" y1="0" x2="15" y2="48" class="grid-line"/>
<line x1="15.5" y1="0" x2="15.5" y2="48" class="grid-line"/>
<line x1="16" y1="0" x2="16" y2="48" class="grid-line-2mu"/>
<line x1="16.5" y1="0" x2="16.5" y2="48" class="grid-line"/>
<line x1="17" y1="0" x2="17" y2="48" class="grid-line"/>
<line x1="17.5" y1="0" x2="17.5" y2="48" class="grid-line"/>
<line x1="18" y1="0" x2="18" y2="48" class="grid-line-6mu"/>
<line x1="18.5" y1="0" x2="18.5" y2="48" class="grid-line"/>
<line x1="19" y1="0" x2="19" y2="48" class="grid-line"/>
<line x1="19.5" y1="0" x2="19.5" y2="48" class="grid-line"/>
<line x1="20" y1="0" x2="20" y2="48" class="grid-line-2mu"/>
<line x1="20.5" y1="0" x2="20.5" y2="48" class="grid-line"/>
<line x1="21" y1="0" x2="21" y2="48" class="grid-line"/>
<line x1="21.5" y1="0" x2="21.5" y2="48" class="grid-line"/>
<line x1="22" y1="0" x2="22" y2="48" class="grid-line-2mu"/>
<line x1="22.5" y1="0" x2="22.5" y2="48" class="grid-line"/>
<line x1="23" y1="0" x2="23" y2="48" class="grid-line"/>
<line x1="23.5" y1="0" x2="23.5" y2="48" class="grid-line"/>
<line x1="24" y1="0" x2="24" y2="48" class="grid-line-6mu"/>
<line x1="24.5" y1="0" x2="24.5" y2="48" class="grid-line"/>
<line x1="25" y1="0" x2="25" y2="48" class="grid-line"/>
<line x1="25.5" y1="0" x2="25.5" y2="48" class="grid-line"/>
<line x1="26" y1="0" x2="26" y2="48" class="grid-line-2mu"/>
<line x1="26.5" y1="0" x2="26.5" y2="48" class="grid-line"/>
<line x1="27" y1="0" x2="27" y2="48" class="grid-line"/>
<line x1="27.5" y1="0" x2="27.5" y2="48" class="grid-line"/>
<line x1="28" y1="0" x2="28" y2="48" class="grid-line-2mu"/>
<line x1="28.5" y1="0" x2="28.5" y2="48" class="grid-line"/>
<line x1="29" y1="0" x2="29" y2="48" class="grid-line"/>
<line x1="29.5" y1="0" x2="29.5" y2="48" class="grid-line"/>
<line x1="30" y1="0" x2="30" y2="48" class="grid-line-6mu"/>
<line x1="30.5" y1="0" x2="30.5" y2="48" class="grid-line"/>
<line x1="31" y1="0" x2="31" y2="48" class="grid-line"/>
<line x1="31.5" y1="0" x2="31.5" y2="48" class="grid-line"/>
<line x1="32" y1="0" x2="32" y2="48" class="grid-line-2mu"/>
<line x1="32.5" y1="0" x2="32.5" y2="48" class="grid-line"/>
<line x1="33" y1="0" x2="33" y2="48" class="grid-line"/>
<line x1="33.5" y1="0" x2="33.5" y2="48" class="grid-line"/>
<line x1="34" y1="0" x2="34" y2="48" class="grid-line-2mu"/>
<line x1="34.5" y1="0" x2="34.5" y2="48" class="grid-line"/>
<line x1="35" y1="0" x2="35" y2="48" class="grid-line"/>
<line x1="35.5" y1="0" x2="35.5" y2="48" class="grid-line"/>
<line x1="36" y1="0" x2="36" y2="48" class="grid-line-6mu"/>
<line x1="36.5" y1="0" x2="36.5" y2="48" class="grid-line"/>
<line x1="37" y1="0" x2="37" y2="48" class="grid-line"/>
<line x1="37.5" y1="0" x2="37.5" y2="48" class="grid-line"/>
<line x1="38" y1="0" x2="38" y2="48" class="grid-line-2mu"/>
<line x1="38.5" y1="0" x2="38.5" y2="48" class="grid-line"/>
<line x1="39" y1="0" x2="39" y2="48" class="grid-line"/>
<line x1="39.5" y1="0" x2="39.5" y2="48" class="grid-line"/>
<line x1="40" y1="0" x2="40" y2="48" class="grid-line-2mu"/>
<line x1="40.5" y1="0" x2="40.5" y2="48" class="grid-line"/>
<line x1="41" y1="0" x2="41" y2="48" class="grid-line"/>
<line x1="41.5" y1="0" x2="41.5" y2="48" class="grid-line"/>
<line x1="42" y1="0" x2="42" y2="48" class="grid-line-6mu"/>
<line x1="42.5" y1="0" x2="42.5" y2="48" class="grid-line"/>
<line x1="43" y1="0" x2="43" y2="48" class="grid-line"/>
<line x1="43.5" y1="0" x2="43.5" y2="48" class="grid-line"/>
<line x1="44" y1="0" x2="44" y2="48" class="grid-line-2mu"/>
<line x1="44.5" y1="0" x2="44.5" y2="48" class="grid-line"/>
<line x1="45" y1="0" x2="45" y2="48" class="grid-line"/>
<line x1="45.5" y1="0" x2="45.5" y2="48" class="grid-line"/>
<line x1="46" y1="0" x2="46" y2="48" class="grid-line-2mu"/>
<line x1="46.5" y1="0" x2="46.5" y2="48" class="grid-line"/>
<line x1="47" y1="0" x2="47" y2="48" class="grid-line"/>
<line x1="47.5" y1="0" x2="47.5" y2="48" class="grid-line"/>
<line x1="48" y1="0" x2="48" y2="48" class="grid-line-6mu"/>
<line x1="48.5" y1="0" x2="48.5" y2="48" class="grid-line"/>
<line x1="49" y1="0" x2="49" y2="48" class="grid-line"/>
<line x1="49.5" y1="0" x2="49.5" y2="48" class="grid-line"/>
<line x1="50" y1="0" x2="50" y2="48" class="grid-line-2mu"/>
<line x1="50.5" y1="0" x2="50.5" y2="48" class="grid-line"/>
<line x1="51" y1="0" x2="51" y2="48" class="grid-line"/>
<line x1="51.5" y1="0" x2="51.5" y2="48" class="grid-line"/>
<line x1="52" y1="0" x2="52" y2="48" class="grid-line-2mu"/>
<line x1="52.5" y1="0" x2="52.5" y2="48" class="grid-line"/>
<line x1="53" y1="0" x2="53" y2="48" class="grid-line"/>
<line x1="53.5" y1="0" x2="53.5" y2="48" class="grid-line"/>
<line x1="54" y1="0" x2="54" y2="48" class="grid-line-6mu"/>
<line x1="54.5" y1="0" x2="54.5" y2="48" class="grid-line"/>
<line x1="55" y1="0" x2="55" y2="48" class="grid-line"/>
<line x1="55.5" y1="0" x2="55.5" y2="48" class="grid-line"/>
<line x1="56" y1="0" x2="56" y2="48" class="grid-line-2mu"/>
<line x1="56.5" y1="0" x2="56.5" y2="48" class="grid-line"/>
<line x1="57" y1="0" x2="57" y2="48" class="grid-line"/>
<line x1="57.5" y1="0" x2="57.5" y2="48" class="grid-line"/>
<line x1="58" y1="0" x2="58" y2="48" class="grid-line-2mu"/>
<line x1="58.5" y1="0" x2="58.5" y2="48" class="grid-line"/>
<line x1="59" y1="0" x2="59" y2="48" class="grid-line"/>
<line x1="59.5" y1="0" x2="59.5" y2="48" class="grid-line"/>
<line x1="60" y1="0" x2="60" y2="48" class="grid-line-6mu"/>
<line x1="60.5" y1="0" x2="60.5" y2="48" class="grid-line"/>
<line x1="61" y1="0" x2="61" y2="48" class="grid-line"/>
<line x1="61.5" y1="0" x2="61.5" y2="48" class="grid-line"/>
<line x1="62" y1="0" x2="62" y2="48" class="grid-line-2mu"/>
<line x1="62.5" y1="0" x2="62.5" y2="48" class="grid-line"/>
<line x1="63" y1="0" x2="63" y2="48" class="grid-line"/>
<line x1="63.5" y1="0" x2="63.5" y2="48" class="grid-line"/>
<line x1="64" y1="0" x2="64" y2="48" class="grid-line-2mu"/>
<line x1="64.5" y1="0" x2="64.5" y2="48" class="grid-line"/>
<line x1="65" y1="0" x2="65" y2="48" class="grid-line"/>
<line x1="65.5" y1="0" x2="65.5" y2="48" class="grid-line"/>
<line x1="66" y1="0" x2="66" y2="48" class="grid-line-6mu"/>
<line x1="66.5" y1="0" x2="66.5" y2="48" class="grid-line"/>
<line x1="67" y1="0" x2="67" y2="48" class="grid-line"/>
<line x1="67.5" y1="0" x2="67.5" y2="48" class="grid-line"/>
<line x1="68" y1="0" x2="68" y2="48" class="grid-line-2mu"/>
<line x1="68.5" y1="0" x2="68.5" y2="48" class="grid-line"/>
<line x1="69" y1="0" x2="69" y2="48" class="grid-line"/>
<line x1="69.5" y1="0" x2="69.5" y2="48" class="grid-line"/>
<line x1="70" y1="0" x2="70" y2="48" class="grid-line-2mu"/>
<line x1="70.5" y1="0" x2="70.5" y2="48" class="grid-line"/>
<line x1="71" y1="0" x2="71" y2="48" class="grid-line"/>
<line x1="71.5" y1="0" x2="71.5" y2="48" class="grid-line"/>
<line x1="72" y1="0" x2="72" y2="48" class="grid-line-6mu"/>
<line x1="0" y1="0" x2="72" y2="0" class="grid-line-6mu"/>
<line x1="0" y1="0.5" x2="72" y2="0.5" class="grid-line"/>
<line x1="0" y1="1" x2="72" y2="1" class="grid-line"/>
<line x1="0" y1="1.5" x2="72" y2="1.5" class="grid-line"/>
<line x1="0" y1="2" x2="72" y2="2" class="grid-line-2mu"/>
<line x1="0" y1="2.5" x2="72" y2="2.5" class="grid-line"/>
<line x1="0" y1="3" x2="72" y2="3" class="grid-line"/>
<line x1="0" y1="3.5" x2="72" y2="3.5" class="grid-line"/>
<line x1="0" y1="4" x2="72" y2="4" class="grid-line-2mu"/>
<line x1="0" y1="4.5" x2="72" y2="4.5" class="grid-line"/>
<line x1="0" y1="5" x2="72" y2="5" class="grid-line"/>
<line x1="0" y1="5.5" x2="72" y2="5.5" class="grid-line"/>
<line x1="0" y1="6" x2="72" y2="6" class="grid-line-6mu"/>
<line x1="0" y1="6.5" x2="72" y2="6.5" class="grid-line"/>
<line x1="0" y1="7" x2="72" y2="7" class="grid-line"/>
<line x1="0" y1="7.5" x2="72" y2="7.5" class="grid-line"/>
<line x1="0" y1="8" x2="72" y2="8" class="grid-line-2mu"/>
<line x1="0" y1="8.5" x2="72" y2="8.5" class="grid-line"/>
<line x1="0" y1="9" x2="72" y2="9" class="grid-line"/>
<line x1="0" y1="9.5" x2="72" y2="9.5" class="grid-line"/>
<line x1="0" y1="10" x2="72" y2="10" class="grid-line-2mu"/>
<line x1="0" y1="10.5" x2="72" y2="10.5" class="grid-line"/>
<line x1="0" y1="11" x2="72" y2="11" class="grid-line"/>
<line x1="0" y1="11.5" x2="72" y2="11.5" class="grid-line"/>
<line x1="0" y1="12" x2="72" y2="12" class="grid-line-6mu"/>
<line x1="0" y1="12.5" x2="72" y2="12.5" class="grid-line"/>
<line x1="0" y1="13" x2="72" y2="13" class="grid-line"/>
<line x1="0" y1="13.5" x2="72" y2="13.5" class="grid-line"/>
<line x1="0" y1="14" x2="72" y2="14" class="grid-line-2mu"/>
<line x1="0" y1="14.5" x2="72" y2="14.5" class="grid-line"/>
<line x1="0" y1="15" x2="72" y2="15" class="grid-line"/>
<line x1="0" y1="15.5" x2="72" y2="15.5" class="grid-line"/>
<line x1="0" y1="16" x2="72" y2="16" class="grid-line-2mu"/>
<line x1="0" y1="16.5" x2="72" y2="16.5" class="grid-line"/>
<line x1="0" y1="17" x2="72" y2="17" class="grid-line"/>
<line x1="0" y1="17.5" x2="72" y2="17.5" class="grid-line"/>
<line x1="0" y1="18" x2="72" y2="18" class="grid-line-6mu"/>
<line x1="0" y1="18.5" x2="72" y2="18.5" class="grid-line"/>
<line x1="0" y1="19" x2="72" y2="19" class="grid-line"/>
<line x1="0" y1="19.5" x2="72" y2="19.5" class="grid-line"/>
<line x1="0" y1="20" x2="72" y2="20" class="grid-line-2mu"/>
<line x1="0" y1="20.5" x2="72" y2="20.5" class="grid-line"/>
<line x1="0" y1="21" x2="72" y2="21" class="grid-line"/>
<line x1="0" y1="21.5" x2="72" y2="21.5" class="grid-line"/>
<line x1="0" y1="22" x2="72" y2="22" class="grid-line-2mu"/>
<line x1="0" y1="22.5" x2="72" y2="22.5" class="grid-line"/>
<line x1="0" y1="23" x2="72" y2="23" class="grid-line"/>
<line x1="0" y1="23.5" x2="72" y2="23.5" class="grid-line"/>
<line x1="0" y1="24" x2="72" y2="24" class="grid-line-6mu"/>
<line x1="0" y1="24.5" x2="72" y2="24.5" class="grid-line"/>
<line x1="0" y1="25" x2="72" y2="25" class="grid-line"/>
<line x1="0" y1="25.5" x2="72" y2="25.5" class="grid-line"/>
<line x1="0" y1="26" x2="72" y2="26" class="grid-line-2mu"/>
<line x1="0" y1="26.5" x2="72" y2="26.5" class="grid-line"/>
<line x1="0" y1="27" x2="72" y2="27" class="grid-line"/>
<line x1="0" y1="27.5" x2="72" y2="27.5" class="grid-line"/>
<line x1="0" y1="28" x2="72" y2="28" class="grid-line-2mu"/>
<line x1="0" y1="28.5" x2="72" y2="28.5" class="grid-line"/>
<line x1="0" y1="29" x2="72" y2="29" class="grid-line"/>
<line x1="0" y1="29.5" x2="72" y2="29.5" class="grid-line"/>
<line x1="0" y1="30" x2="72" y2="30" class="grid-line-6mu"/>
<line x1="0" y1="30.5" x2="72" y2="30.5" class="grid-line"/>
<line x1="0" y1="31" x2="72" y2="31" class="grid-line"/>
<line x1="0" y1="31.5" x2="72" y2="31.5" class="grid-line"/>
<line x1="0" y1="32" x2="72" y2="32" class="grid-line-2mu"/>
<line x1="0" y1="32.5" x2="72" y2="32.5" class="grid-line"/>
<line x1="0" y1="33" x2="72" y2="33" class="grid-line"/>
<line x1="0" y1="33.5" x2="72" y2="33.5" class="grid-line"/>
<line x1="0" y1="34" x2="72" y2="34" class="grid-line-2mu"/>
<line x1="0" y1="34.5" x2="72" y2="34.5" class="grid-line"/>
<line x1="0" y1="35" x2="72" y2="35" class="grid-line"/>
<line x1="0" y1="35.5" x2="72" y2="35.5" class="grid-line"/>
<line x1="0" y1="36" x2="72" y2="36" class="grid-line-6mu"/>
<line x1="0" y1="36.5" x2="72" y2="36.5" class="grid-line"/>
<line x1="0" y1="37" x2="72" y2="37" class="grid-line"/>
<line x1="0" y1="37.5" x2="72" y2="37.5" class="grid-line"/>
<line x1="0" y1="38" x2="72" y2="38" class="grid-line-2mu"/>
<line x1="0" y1="38.5" x2="72" y2="38.5" class="grid-line"/>
<line x1="0" y1="39" x2="72" y2="39" class="grid-line"/>
<line x1="0" y1="39.5" x2="72" y2="39.5" class="grid-line"/>
<line x1="0" y1="40" x2="72" y2="40" class="grid-line-2mu"/>
<line x1="0" y1="40.5" x2="72" y2="40.5" class="grid-line"/>
<line x1="0" y1="41" x2="72" y2="41" class="grid-line"/>
<line x1="0" y1="41.5" x2="72" y2="41.5" class="grid-line"/>
<line x1="0" y1="42" x2="72" y2="42" class="grid-line-6mu"/>
<line x1="0" y1="42.5" x2="72" y2="42.5" class="grid-line"/>
<line x1="0" y1="43" x2="72" y2="43" class="grid-line"/>
<line x1="0" y1="43.5" x2="72" y2="43.5" class="grid-line"/>
<line x1="0" y1="44" x2="72" y2="44" class="grid-line-2mu"/>
<line x1="0" y1="44.5" x2="72" y2="44.5" class="grid-line"/>
<line x1="0" y1="45" x2="72" y2="45" class="grid-line"/>
<line x1="0" y1="45.5" x2="72" y2="45.5" class="grid-line"/>
<line x1="0" y1="46" x2="72" y2="46" class="grid-line-2mu"/>
<line x1="0" y1="46.5" x2="72" y2="46.5" class="grid-line"/>
<line x1="0" y1="47" x2="72" y2="47" class="grid-line"/>
<line x1="0" y1="47.5" x2="72" y2="47.5" class="grid-line"/>
<line x1="0" y1="48" x2="72" y2="48" class="grid-line-6mu"/>
</g>
<g id="layer-delaunay" class="layer ">
<line x1="34.53663073710611" y1="26.354267376434066" x2="36.71518687716622" y2="29.708949648215764" class="delaunay-line"/>
<line x1="36.71518687716622" y1="29.708949648215764" x2="41.74721028483876" y2="26.4411154381256" class="delaunay-line"/>
<line x1="41.74721028483876" y1="26.4411154381256" x2="34.53663073710611" y2="26.354267376434066" class="delaunay-line"/>
<line x1="41.74721028483876" y1="26.4411154381256" x2="39.56865414477865" y2="23.0864331663439" class="delaunay-line"/>
<line x1="39.56865414477865" y1="23.0864331663439" x2="34.53663073710611" y2="26.354267376434066" class="delaunay-line"/>
<line x1="34.53663073710611" y1="26.354267376434066" x2="41.74721028483876" y2="26.4411154381256" class="delaunay-line"/>
<line x1="41.74721028483876" y1="26.4411154381256" x2="42.831040966590884" y2="22.553192692885613" class="delaunay-line"/>
<line x1="42.831040966590884" y1="22.553192692885613" x2="39.56865414477865" y2="23.0864331663439" class="delaunay-line"/>
<line x1="39.56865414477865" y1="23.0864331663439" x2="41.74721028483876" y2="26.4411154381256" class="delaunay-line"/>
<line x1="42.831040966590884" y1="22.553192692885613" x2="42.970638953400886" y2="18.555629384809233" class="delaunay-line"/>
<line x1="42.970638953400886" y1="18.555629384809233" x2="39.56865414477865" y2="23.0864331663439" class="delaunay-line"/>
<line x1="39.56865414477865" y1="23.0864331663439" x2="42.831040966590884" y2="22.553192692885613" class="delaunay-line"/>
<line x1="39.56865414477865" y1="23.0864331663439" x2="32.551421127103254" y2="15.289240949847718" class="delaunay-line"/>
<line x1="32.551421127103254" y1="15.289240949847718" x2="34.53663073710611" y2="26.354267376434066" class="delaunay-line"/>
<line x1="34.53663073710611" y1="26.354267376434066" x2="39.56865414477865" y2="23.0864331663439" class="delaunay-line"/>
<line x1="49.61694940005645" y1="32.85836457371045" x2="47.66354047331351" y2="27.185253120114552" class="delaunay-line"/>
<line x1="47.66354047331351" y1="27.185253120114552" x2="41.74721028483876" y2="26.4411154381256" class="delaunay-line"/>
<line x1="41.74721028483876" y1="26.4411154381256" x2="49.61694940005645" y2="32.85836457371045" class="delaunay-line"/>
<line x1="41.74721028483876" y1="26.4411154381256" x2="47.66354047331351" y2="27.185253120114552" class="delaunay-line"/>
<line x1="47.66354047331351" y1="27.185253120114552" x2="42.831040966590884" y2="22.553192692885613" class="delaunay-line"/>
<line x1="42.831040966590884" y1="22.553192692885613" x2="41.74721028483876" y2="26.4411154381256" class="delaunay-line"/>
<line x1="42.831040966590884" y1="22.553192692885613" x2="48.96698391551546" y2="18.765026365024237" class="delaunay-line"/>
<line x1="48.96698391551546" y1="18.765026365024237" x2="42.970638953400886" y2="18.555629384809233" class="delaunay-line"/>
<line x1="42.970638953400886" y1="18.555629384809233" x2="42.831040966590884" y2="22.553192692885613" class="delaunay-line"/>
<line x1="47.66354047331351" y1="27.185253120114552" x2="48.82738592870546" y2="22.762589673100617" class="delaunay-line"/>
<line x1="48.82738592870546" y1="22.762589673100617" x2="42.831040966590884" y2="22.553192692885613" class="delaunay-line"/>
<line x1="42.831040966590884" y1="22.553192692885613" x2="47.66354047331351" y2="27.185253120114552" class="delaunay-line"/>
<line x1="36.146597312299924" y1="13.53575636269141" x2="32.551421127103254" y2="15.289240949847718" class="delaunay-line"/>
<line x1="32.551421127103254" y1="15.289240949847718" x2="39.56865414477865" y2="23.0864331663439" class="delaunay-line"/>
<line x1="39.56865414477865" y1="23.0864331663439" x2="36.146597312299924" y2="13.53575636269141" class="delaunay-line"/>
<line x1="42.970638953400886" y1="18.555629384809233" x2="36.146597312299924" y2="13.53575636269141" class="delaunay-line"/>
<line x1="36.146597312299924" y1="13.53575636269141" x2="39.56865414477865" y2="23.0864331663439" class="delaunay-line"/>
<line x1="39.56865414477865" y1="23.0864331663439" x2="42.970638953400886" y2="18.555629384809233" class="delaunay-line"/>
<line x1="58.183456915543836" y1="6.172278894503805" x2="36.146597312299924" y2="13.53575636269141" class="delaunay-line"/>
<line x1="36.146597312299924" y1="13.53575636269141" x2="42.970638953400886" y2="18.555629384809233" class="delaunay-line"/>
<line x1="42.970638953400886" y1="18.555629384809233" x2="58.183456915543836" y2="6.172278894503805" class="delaunay-line"/>
<line x1="36.71518687716622" y1="29.708949648215764" x2="49.61694940005645" y2="32.85836457371045" class="delaunay-line"/>
<line x1="49.61694940005645" y1="32.85836457371045" x2="41.74721028483876" y2="26.4411154381256" class="delaunay-line"/>
<line x1="41.74721028483876" y1="26.4411154381256" x2="36.71518687716622" y2="29.708949648215764" class="delaunay-line"/>
<line x1="47.66354047331351" y1="27.185253120114552" x2="55.22768907810804" y2="24.5807078844573" class="delaunay-line"/>
<line x1="55.22768907810804" y1="24.5807078844573" x2="48.82738592870546" y2="22.762589673100617" class="delaunay-line"/>
<line x1="48.82738592870546" y1="22.762589673100617" x2="47.66354047331351" y2="27.185253120114552" class="delaunay-line"/>
<line x1="55.22768907810804" y1="24.5807078844573" x2="48.96698391551546" y2="18.765026365024237" class="delaunay-line"/>
<line x1="48.96698391551546" y1="18.765026365024237" x2="48.82738592870546" y2="22.762589673100617" class="delaunay-line"/>
<line x1="48.82738592870546" y1="22.762589673100617" x2="55.22768907810804" y2="24.5807078844573" class="delaunay-line"/>
<line x1="48.82738592870546" y1="22.762589673100617" x2="48.96698391551546" y2="18.765026365024237" class="delaunay-line"/>
<line x1="48.96698391551546" y1="18.765026365024237" x2="42.831040966590884" y2="22.553192692885613" class="delaunay-line"/>
<line x1="42.831040966590884" y1="22.553192692885613" x2="48.82738592870546" y2="22.762589673100617" class="delaunay-line"/>
<line x1="32.551421127103254" y1="15.289240949847718" x2="24.374166189544155" y2="25.279137380174312" class="delaunay-line"/>
<line x1="24.374166189544155" y1="25.279137380174312" x2="34.53663073710611" y2="26.354267376434066" class="delaunay-line"/>
<line x1="34.53663073710611" y1="26.354267376434066" x2="32.551421127103254" y2="15.289240949847718" class="delaunay-line"/>
<line x1="34.53663073710611" y1="26.354267376434066" x2="24.374166189544155" y2="31.279137380174312" class="delaunay-line"/>
<line x1="24.374166189544155" y1="31.279137380174312" x2="36.71518687716622" y2="29.708949648215764" class="delaunay-line"/>
<line x1="36.71518687716622" y1="29.708949648215764" x2="34.53663073710611" y2="26.354267376434066" class="delaunay-line"/>
<line x1="24.374166189544155" y1="25.279137380174312" x2="24.374166189544155" y2="31.279137380174312" class="delaunay-line"/>
<line x1="24.374166189544155" y1="31.279137380174312" x2="34.53663073710611" y2="26.354267376434066" class="delaunay-line"/>
<line x1="34.53663073710611" y1="26.354267376434066" x2="24.374166189544155" y2="25.279137380174312" class="delaunay-line"/>
<line x1="36.71518687716622" y1="29.708949648215764" x2="41.882758484869534" y2="40.60778267877368" class="delaunay-line"/>
<line x1="41.882758484869534" y1="40.60778267877368" x2="49.61694940005645" y2="32.85836457371045" class="delaunay-line"/>
<line x1="49.61694940005645" y1="32.85836457371045" x2="36.71518687716622" y2="29.708949648215764" class="delaunay-line"/>
<line x1="38.05753946101739" y1="41.777269497664626" x2="41.882758484869534" y2="40.60778267877368" class="delaunay-line"/>
<line x1="41.882758484869534" y1="40.60778267877368" x2="36.71518687716622" y2="29.708949648215764" class="delaunay-line"/>
<line x1="36.71518687716622" y1="29.708949648215764" x2="38.05753946101739" y2="41.777269497664626" class="delaunay-line"/>
<line x1="24.374166189544155" y1="31.279137380174312" x2="38.05753946101739" y2="41.777269497664626" class="delaunay-line"/>
<line x1="38.05753946101739" y1="41.777269497664626" x2="36.71518687716622" y2="29.708949648215764" class="delaunay-line"/>
<line x1="36.71518687716622" y1="29.708949648215764" x2="24.374166189544155" y2="31.279137380174312" class="delaunay-line"/>
<line x1="57.18109800485098" y1="30.2538193380532" x2="55.22768907810804" y2="24.5807078844573" class="delaunay-line"/>
<line x1="55.22768907810804" y1="24.5807078844573" x2="47.66354047331351" y2="27.185253120114552" class="delaunay-line"/>
<line x1="47.66354047331351" y1="27.185253120114552" x2="57.18109800485098" y2="30.2538193380532" class="delaunay-line"/>
<line x1="32.551421127103254" y1="15.289240949847718" x2="25.231258431660336" y2="14.927261932376137" class="delaunay-line"/>
<line x1="25.231258431660336" y1="14.927261932376137" x2="24.374166189544155" y2="25.279137380174312" class="delaunay-line"/>
<line x1="24.374166189544155" y1="25.279137380174312" x2="32.551421127103254" y2="15.289240949847718" class="delaunay-line"/>
<line x1="29.921194246368792" y1="9.896476672052716" x2="25.231258431660336" y2="14.927261932376137" class="delaunay-line"/>
<line x1="25.231258431660336" y1="14.927261932376137" x2="32.551421127103254" y2="15.289240949847718" class="delaunay-line"/>
<line x1="32.551421127103254" y1="15.289240949847718" x2="29.921194246368792" y2="9.896476672052716" class="delaunay-line"/>
<line x1="25.231258431660336" y1="14.927261932376137" x2="20.374166189544155" y2="25.279137380174312" class="delaunay-line"/>
<line x1="20.374166189544155" y1="25.279137380174312" x2="24.374166189544155" y2="25.279137380174312" class="delaunay-line"/>
<line x1="24.374166189544155" y1="25.279137380174312" x2="25.231258431660336" y2="14.927261932376137" class="delaunay-line"/>
<line x1="24.374166189544155" y1="25.279137380174312" x2="20.374166189544155" y2="25.279137380174312" class="delaunay-line"/>
<line x1="20.374166189544155" y1="25.279137380174312" x2="24.374166189544155" y2="31.279137380174312" class="delaunay-line"/>
<line x1="24.374166189544155" y1="31.279137380174312" x2="24.374166189544155" y2="25.279137380174312" class="delaunay-line"/>
<line x1="20.374166189544155" y1="25.279137380174312" x2="20.374166189544155" y2="31.279137380174312" class="delaunay-line"/>
<line x1="20.374166189544155" y1="31.279137380174312" x2="24.374166189544155" y2="31.279137380174312" class="delaunay-line"/>
<line x1="24.374166189544155" y1="31.279137380174312" x2="20.374166189544155" y2="25.279137380174312" class="delaunay-line"/>
<line x1="24.374166189544155" y1="31.279137380174312" x2="22.901170531697097" y2="38.69137423795693" class="delaunay-line"/>
<line x1="22.901170531697097" y1="38.69137423795693" x2="38.05753946101739" y2="41.777269497664626" class="delaunay-line"/>
<line x1="38.05753946101739" y1="41.777269497664626" x2="24.374166189544155" y2="31.279137380174312" class="delaunay-line"/>
<line x1="33.516370431565456" y1="8.142992084896408" x2="32.551421127103254" y2="15.289240949847718" class="delaunay-line"/>
<line x1="32.551421127103254" y1="15.289240949847718" x2="36.146597312299924" y2="13.53575636269141" class="delaunay-line"/>
<line x1="36.146597312299924" y1="13.53575636269141" x2="33.516370431565456" y2="8.142992084896408" class="delaunay-line"/>
<line x1="33.516370431565456" y1="8.142992084896408" x2="29.921194246368792" y2="9.896476672052716" class="delaunay-line"/>
<line x1="29.921194246368792" y1="9.896476672052716" x2="32.551421127103254" y2="15.289240949847718" class="delaunay-line"/>
<line x1="32.551421127103254" y1="15.289240949847718" x2="33.516370431565456" y2="8.142992084896408" class="delaunay-line"/>
<line x1="58.183456915543836" y1="6.172278894503805" x2="33.516370431565456" y2="8.142992084896408" class="delaunay-line"/>
<line x1="33.516370431565456" y1="8.142992084896408" x2="36.146597312299924" y2="13.53575636269141" class="delaunay-line"/>
<line x1="36.146597312299924" y1="13.53575636269141" x2="58.183456915543836" y2="6.172278894503805" class="delaunay-line"/>
<line x1="56.912713843304566" y1="36.16368119157069" x2="57.18109800485098" y2="30.2538193380532" class="delaunay-line"/>
<line x1="57.18109800485098" y1="30.2538193380532" x2="49.61694940005645" y2="32.85836457371045" class="delaunay-line"/>
<line x1="49.61694940005645" y1="32.85836457371045" x2="56.912713843304566" y2="36.16368119157069" class="delaunay-line"/>
<line x1="49.61694940005645" y1="32.85836457371045" x2="57.18109800485098" y2="30.2538193380532" class="delaunay-line"/>
<line x1="57.18109800485098" y1="30.2538193380532" x2="47.66354047331351" y2="27.185253120114552" class="delaunay-line"/>
<line x1="47.66354047331351" y1="27.185253120114552" x2="49.61694940005645" y2="32.85836457371045" class="delaunay-line"/>
<line x1="19.706628491507928" y1="36.28411414534873" x2="22.901170531697097" y2="38.69137423795693" class="delaunay-line"/>
<line x1="22.901170531697097" y1="38.69137423795693" x2="24.374166189544155" y2="31.279137380174312" class="delaunay-line"/>
<line x1="24.374166189544155" y1="31.279137380174312" x2="19.706628491507928" y2="36.28411414534873" class="delaunay-line"/>
<line x1="16.578075694277555" y1="27.197826267892037" x2="18.728283391549358" y2="32.79930882687524" class="delaunay-line"/>
<line x1="18.728283391549358" y1="32.79930882687524" x2="20.374166189544155" y2="31.279137380174312" class="delaunay-line"/>
<line x1="20.374166189544155" y1="31.279137380174312" x2="16.578075694277555" y2="27.197826267892037" class="delaunay-line"/>
<line x1="20.374166189544155" y1="31.279137380174312" x2="19.706628491507928" y2="36.28411414534873" class="delaunay-line"/>
<line x1="19.706628491507928" y1="36.28411414534873" x2="24.374166189544155" y2="31.279137380174312" class="delaunay-line"/>
<line x1="24.374166189544155" y1="31.279137380174312" x2="20.374166189544155" y2="31.279137380174312" class="delaunay-line"/>
<line x1="38.05753946101739" y1="41.777269497664626" x2="43.636988713205945" y2="46.3456112145519" class="delaunay-line"/>
<line x1="43.636988713205945" y1="46.3456112145519" x2="41.882758484869534" y2="40.60778267877368" class="delaunay-line"/>
<line x1="41.882758484869534" y1="40.60778267877368" x2="38.05753946101739" y2="41.777269497664626" class="delaunay-line"/>
<line x1="41.882758484869534" y1="40.60778267877368" x2="54.37700427286037" y2="41.60152791379059" class="delaunay-line"/>
<line x1="54.37700427286037" y1="41.60152791379059" x2="49.61694940005645" y2="32.85836457371045" class="delaunay-line"/>
<line x1="49.61694940005645" y1="32.85836457371045" x2="41.882758484869534" y2="40.60778267877368" class="delaunay-line"/>
<line x1="39.8117696893538" y1="47.51509803344285" x2="43.636988713205945" y2="46.3456112145519" class="delaunay-line"/>
<line x1="43.636988713205945" y1="46.3456112145519" x2="38.05753946101739" y2="41.777269497664626" class="delaunay-line"/>
<line x1="38.05753946101739" y1="41.777269497664626" x2="39.8117696893538" y2="47.51509803344285" class="delaunay-line"/>
<line x1="18.728283391549358" y1="32.79930882687524" x2="19.706628491507928" y2="36.28411414534873" class="delaunay-line"/>
<line x1="19.706628491507928" y1="36.28411414534873" x2="20.374166189544155" y2="31.279137380174312" class="delaunay-line"/>
<line x1="20.374166189544155" y1="31.279137380174312" x2="18.728283391549358" y2="32.79930882687524" class="delaunay-line"/>
<line x1="54.37700427286037" y1="41.60152791379059" x2="56.912713843304566" y2="36.16368119157069" class="delaunay-line"/>
<line x1="56.912713843304566" y1="36.16368119157069" x2="49.61694940005645" y2="32.85836457371045" class="delaunay-line"/>
<line x1="49.61694940005645" y1="32.85836457371045" x2="54.37700427286037" y2="41.60152791379059" class="delaunay-line"/>
<line x1="19.29028039278481" y1="43.483187298240686" x2="39.8117696893538" y2="47.51509803344285" class="delaunay-line"/>
<line x1="39.8117696893538" y1="47.51509803344285" x2="38.05753946101739" y2="41.777269497664626" class="delaunay-line"/>
<line x1="38.05753946101739" y1="41.777269497664626" x2="19.29028039278481" y2="43.483187298240686" class="delaunay-line"/>
<line x1="17.232476870409208" y1="15.066881183874404" x2="16.578075694277555" y2="27.197826267892037" class="delaunay-line"/>
<line x1="16.578075694277555" y1="27.197826267892037" x2="20.374166189544155" y2="25.279137380174312" class="delaunay-line"/>
<line x1="20.374166189544155" y1="25.279137380174312" x2="17.232476870409208" y2="15.066881183874404" class="delaunay-line"/>
<line x1="20.374166189544155" y1="25.279137380174312" x2="16.578075694277555" y2="27.197826267892037" class="delaunay-line"/>
<line x1="16.578075694277555" y1="27.197826267892037" x2="20.374166189544155" y2="31.279137380174312" class="delaunay-line"/>
<line x1="20.374166189544155" y1="31.279137380174312" x2="20.374166189544155" y2="25.279137380174312" class="delaunay-line"/>
<line x1="18.728283391549358" y1="32.79930882687524" x2="14.993961685560551" y2="34.23278062505644" class="delaunay-line"/>
<line x1="14.993961685560551" y1="34.23278062505644" x2="19.706628491507928" y2="36.28411414534873" class="delaunay-line"/>
<line x1="19.706628491507928" y1="36.28411414534873" x2="18.728283391549358" y2="32.79930882687524" class="delaunay-line"/>
<line x1="33.516370431565456" y1="8.142992084896408" x2="25.126543993036634" y2="8.928175761437789" class="delaunay-line"/>
<line x1="25.126543993036634" y1="8.928175761437789" x2="29.921194246368792" y2="9.896476672052716" class="delaunay-line"/>
<line x1="29.921194246368792" y1="9.896476672052716" x2="33.516370431565456" y2="8.142992084896408" class="delaunay-line"/>
<line x1="29.921194246368792" y1="9.896476672052716" x2="25.126543993036634" y2="8.928175761437789" class="delaunay-line"/>
<line x1="25.126543993036634" y1="8.928175761437789" x2="25.231258431660336" y2="14.927261932376137" class="delaunay-line"/>
<line x1="25.231258431660336" y1="14.927261932376137" x2="29.921194246368792" y2="9.896476672052716" class="delaunay-line"/>
<line x1="25.231258431660336" y1="14.927261932376137" x2="17.232476870409208" y2="15.066881183874404" class="delaunay-line"/>
<line x1="17.232476870409208" y1="15.066881183874404" x2="20.374166189544155" y2="25.279137380174312" class="delaunay-line"/>
<line x1="20.374166189544155" y1="25.279137380174312" x2="25.231258431660336" y2="14.927261932376137" class="delaunay-line"/>
<line x1="43.636988713205945" y1="46.3456112145519" x2="54.37700427286037" y2="41.60152791379059" class="delaunay-line"/>
<line x1="54.37700427286037" y1="41.60152791379059" x2="41.882758484869534" y2="40.60778267877368" class="delaunay-line"/>
<line x1="41.882758484869534" y1="40.60778267877368" x2="43.636988713205945" y2="46.3456112145519" class="delaunay-line"/>
<line x1="25.126543993036634" y1="8.928175761437789" x2="17.232476870409208" y2="15.066881183874404" class="delaunay-line"/>
<line x1="17.232476870409208" y1="15.066881183874404" x2="25.231258431660336" y2="14.927261932376137" class="delaunay-line"/>
<line x1="25.231258431660336" y1="14.927261932376137" x2="25.126543993036634" y2="8.928175761437789" class="delaunay-line"/>
<line x1="12.843753988288746" y1="28.63129806607324" x2="14.993961685560551" y2="34.23278062505644" class="delaunay-line"/>
<line x1="14.993961685560551" y1="34.23278062505644" x2="16.578075694277555" y2="27.197826267892037" class="delaunay-line"/>
<line x1="16.578075694277555" y1="27.197826267892037" x2="12.843753988288746" y2="28.63129806607324" class="delaunay-line"/>
<line x1="16.578075694277555" y1="27.197826267892037" x2="14.993961685560551" y2="34.23278062505644" class="delaunay-line"/>
<line x1="14.993961685560551" y1="34.23278062505644" x2="18.728283391549358" y2="32.79930882687524" class="delaunay-line"/>
<line x1="18.728283391549358" y1="32.79930882687524" x2="16.578075694277555" y2="27.197826267892037" class="delaunay-line"/>
<line x1="16.09573835259564" y1="41.07592720563249" x2="19.29028039278481" y2="43.483187298240686" class="delaunay-line"/>
<line x1="19.29028039278481" y1="43.483187298240686" x2="22.901170531697097" y2="38.69137423795693" class="delaunay-line"/>
<line x1="22.901170531697097" y1="38.69137423795693" x2="16.09573835259564" y2="41.07592720563249" class="delaunay-line"/>
<line x1="58.002235421006965" y1="43.292000960753384" x2="60.53794499145116" y2="37.85415423853348" class="delaunay-line"/>
<line x1="60.53794499145116" y1="37.85415423853348" x2="56.912713843304566" y2="36.16368119157069" class="delaunay-line"/>
<line x1="56.912713843304566" y1="36.16368119157069" x2="58.002235421006965" y2="43.292000960753384" class="delaunay-line"/>
<line x1="56.912713843304566" y1="36.16368119157069" x2="60.53794499145116" y2="37.85415423853348" class="delaunay-line"/>
<line x1="60.53794499145116" y1="37.85415423853348" x2="57.18109800485098" y2="30.2538193380532" class="delaunay-line"/>
<line x1="57.18109800485098" y1="30.2538193380532" x2="56.912713843304566" y2="36.16368119157069" class="delaunay-line"/>
<line x1="57.18109800485098" y1="30.2538193380532" x2="61.710168429298676" y2="11.026380860753482" class="delaunay-line"/>
<line x1="61.710168429298676" y1="11.026380860753482" x2="55.22768907810804" y2="24.5807078844573" class="delaunay-line"/>
<line x1="55.22768907810804" y1="24.5807078844573" x2="57.18109800485098" y2="30.2538193380532" class="delaunay-line"/>
<line x1="17.232476870409208" y1="15.066881183874404" x2="12.843753988288746" y2="28.63129806607324" class="delaunay-line"/>
<line x1="12.843753988288746" y1="28.63129806607324" x2="16.578075694277555" y2="27.197826267892037" class="delaunay-line"/>
<line x1="16.578075694277555" y1="27.197826267892037" x2="17.232476870409208" y2="15.066881183874404" class="delaunay-line"/>
<line x1="16.09573835259564" y1="41.07592720563249" x2="22.901170531697097" y2="38.69137423795693" class="delaunay-line"/>
<line x1="22.901170531697097" y1="38.69137423795693" x2="19.706628491507928" y2="36.28411414534873" class="delaunay-line"/>
<line x1="19.706628491507928" y1="36.28411414534873" x2="16.09573835259564" y2="41.07592720563249" class="delaunay-line"/>
<line x1="22.901170531697097" y1="38.69137423795693" x2="19.29028039278481" y2="43.483187298240686" class="delaunay-line"/>
<line x1="19.29028039278481" y1="43.483187298240686" x2="38.05753946101739" y2="41.777269497664626" class="delaunay-line"/>
<line x1="38.05753946101739" y1="41.777269497664626" x2="22.901170531697097" y2="38.69137423795693" class="delaunay-line"/>
<line x1="43.636988713205945" y1="46.3456112145519" x2="58.002235421006965" y2="43.292000960753384" class="delaunay-line"/>
<line x1="58.002235421006965" y1="43.292000960753384" x2="54.37700427286037" y2="41.60152791379059" class="delaunay-line"/>
<line x1="54.37700427286037" y1="41.60152791379059" x2="43.636988713205945" y2="46.3456112145519" class="delaunay-line"/>
<line x1="54.37700427286037" y1="41.60152791379059" x2="58.002235421006965" y2="43.292000960753384" class="delaunay-line"/>
<line x1="58.002235421006965" y1="43.292000960753384" x2="56.912713843304566" y2="36.16368119157069" class="delaunay-line"/>
<line x1="56.912713843304566" y1="36.16368119157069" x2="54.37700427286037" y2="41.60152791379059" class="delaunay-line"/>
<line x1="72" y1="48" x2="58.002235421006965" y2="43.292000960753384" class="delaunay-line"/>
<line x1="58.002235421006965" y1="43.292000960753384" x2="43.636988713205945" y2="46.3456112145519" class="delaunay-line"/>
<line x1="43.636988713205945" y1="46.3456112145519" x2="72" y2="48" class="delaunay-line"/>
<line x1="0" y1="48" x2="16.09573835259564" y2="41.07592720563249" class="delaunay-line"/>
<line x1="16.09573835259564" y1="41.07592720563249" x2="14.993961685560551" y2="34.23278062505644" class="delaunay-line"/>
<line x1="14.993961685560551" y1="34.23278062505644" x2="0" y2="48" class="delaunay-line"/>
<line x1="14.993961685560551" y1="34.23278062505644" x2="16.09573835259564" y2="41.07592720563249" class="delaunay-line"/>
<line x1="16.09573835259564" y1="41.07592720563249" x2="19.706628491507928" y2="36.28411414534873" class="delaunay-line"/>
<line x1="19.706628491507928" y1="36.28411414534873" x2="14.993961685560551" y2="34.23278062505644" class="delaunay-line"/>
<line x1="25.126543993036634" y1="8.928175761437789" x2="17.127762431785506" y2="9.067795012936056" class="delaunay-line"/>
<line x1="17.127762431785506" y1="9.067795012936056" x2="17.232476870409208" y2="15.066881183874404" class="delaunay-line"/>
<line x1="17.232476870409208" y1="15.066881183874404" x2="25.126543993036634" y2="8.928175761437789" class="delaunay-line"/>
<line x1="17.232476870409208" y1="15.066881183874404" x2="9.465944758050847" y2="13.031994729526085" class="delaunay-line"/>
<line x1="9.465944758050847" y1="13.031994729526085" x2="12.843753988288746" y2="28.63129806607324" class="delaunay-line"/>
<line x1="12.843753988288746" y1="28.63129806607324" x2="17.232476870409208" y2="15.066881183874404" class="delaunay-line"/>
<line x1="10.297591521321882" y1="9.11940432659086" x2="17.127762431785506" y2="9.067795012936056" class="delaunay-line"/>
<line x1="17.127762431785506" y1="9.067795012936056" x2="0" y2="0" class="delaunay-line"/>
<line x1="0" y1="0" x2="10.297591521321882" y2="9.11940432659086" class="delaunay-line"/>
<line x1="55.22768907810804" y1="24.5807078844573" x2="61.710168429298676" y2="11.026380860753482" class="delaunay-line"/>
<line x1="61.710168429298676" y1="11.026380860753482" x2="48.96698391551546" y2="18.765026365024237" class="delaunay-line"/>
<line x1="48.96698391551546" y1="18.765026365024237" x2="55.22768907810804" y2="24.5807078844573" class="delaunay-line"/>
<line x1="48.96698391551546" y1="18.765026365024237" x2="58.183456915543836" y2="6.172278894503805" class="delaunay-line"/>
<line x1="58.183456915543836" y1="6.172278894503805" x2="42.970638953400886" y2="18.555629384809233" class="delaunay-line"/>
<line x1="42.970638953400886" y1="18.555629384809233" x2="48.96698391551546" y2="18.765026365024237" class="delaunay-line"/>
<line x1="68.18230438429825" y1="6.3240988424136955" x2="61.710168429298676" y2="11.026380860753482" class="delaunay-line"/>
<line x1="61.710168429298676" y1="11.026380860753482" x2="57.18109800485098" y2="30.2538193380532" class="delaunay-line"/>
<line x1="57.18109800485098" y1="30.2538193380532" x2="68.18230438429825" y2="6.3240988424136955" class="delaunay-line"/>
<line x1="61.710168429298676" y1="11.026380860753482" x2="58.183456915543836" y2="6.172278894503805" class="delaunay-line"/>
<line x1="58.183456915543836" y1="6.172278894503805" x2="48.96698391551546" y2="18.765026365024237" class="delaunay-line"/>
<line x1="48.96698391551546" y1="18.765026365024237" x2="61.710168429298676" y2="11.026380860753482" class="delaunay-line"/>
<line x1="4.428705916919046" y1="7.87193418168431" x2="10.297591521321882" y2="9.11940432659086" class="delaunay-line"/>
<line x1="10.297591521321882" y1="9.11940432659086" x2="0" y2="0" class="delaunay-line"/>
<line x1="0" y1="0" x2="4.428705916919046" y2="7.87193418168431" class="delaunay-line"/>
<line x1="17.127762431785506" y1="9.067795012936056" x2="9.465944758050847" y2="13.031994729526085" class="delaunay-line"/>
<line x1="9.465944758050847" y1="13.031994729526085" x2="17.232476870409208" y2="15.066881183874404" class="delaunay-line"/>
<line x1="17.232476870409208" y1="15.066881183874404" x2="17.127762431785506" y2="9.067795012936056" class="delaunay-line"/>
<line x1="17.127762431785506" y1="9.067795012936056" x2="25.126543993036634" y2="8.928175761437789" class="delaunay-line"/>
<line x1="25.126543993036634" y1="8.928175761437789" x2="0" y2="0" class="delaunay-line"/>
<line x1="0" y1="0" x2="17.127762431785506" y2="9.067795012936056" class="delaunay-line"/>
<line x1="17.127762431785506" y1="9.067795012936056" x2="10.297591521321882" y2="9.11940432659086" class="delaunay-line"/>
<line x1="10.297591521321882" y1="9.11940432659086" x2="9.465944758050847" y2="13.031994729526085" class="delaunay-line"/>
<line x1="9.465944758050847" y1="13.031994729526085" x2="17.127762431785506" y2="9.067795012936056" class="delaunay-line"/>
<line x1="60.53794499145116" y1="37.85415423853348" x2="68.18230438429825" y2="6.3240988424136955" class="delaunay-line"/>
<line x1="68.18230438429825" y1="6.3240988424136955" x2="57.18109800485098" y2="30.2538193380532" class="delaunay-line"/>
<line x1="57.18109800485098" y1="30.2538193380532" x2="60.53794499145116" y2="37.85415423853348" class="delaunay-line"/>
<line x1="61.710168429298676" y1="11.026380860753482" x2="68.18230438429825" y2="6.3240988424136955" class="delaunay-line"/>
<line x1="68.18230438429825" y1="6.3240988424136955" x2="58.183456915543836" y2="6.172278894503805" class="delaunay-line"/>
<line x1="58.183456915543836" y1="6.172278894503805" x2="61.710168429298676" y2="11.026380860753482" class="delaunay-line"/>
<line x1="68.18230438429825" y1="6.3240988424136955" x2="64.65559287054342" y2="1.4699968761640183" class="delaunay-line"/>
<line x1="64.65559287054342" y1="1.4699968761640183" x2="58.183456915543836" y2="6.172278894503805" class="delaunay-line"/>
<line x1="58.183456915543836" y1="6.172278894503805" x2="68.18230438429825" y2="6.3240988424136955" class="delaunay-line"/>
<line x1="58.183456915543836" y1="6.172278894503805" x2="64.65559287054342" y2="1.4699968761640183" class="delaunay-line"/>
<line x1="64.65559287054342" y1="1.4699968761640183" x2="33.516370431565456" y2="8.142992084896408" class="delaunay-line"/>
<line x1="33.516370431565456" y1="8.142992084896408" x2="58.183456915543836" y2="6.172278894503805" class="delaunay-line"/>
<line x1="10.297591521321882" y1="9.11940432659086" x2="3.597059153648012" y2="11.784524584619534" class="delaunay-line"/>
<line x1="3.597059153648012" y1="11.784524584619534" x2="9.465944758050847" y2="13.031994729526085" class="delaunay-line"/>
<line x1="9.465944758050847" y1="13.031994729526085" x2="10.297591521321882" y2="9.11940432659086" class="delaunay-line"/>
<line x1="9.465944758050847" y1="13.031994729526085" x2="3.597059153648012" y2="11.784524584619534" class="delaunay-line"/>
<line x1="3.597059153648012" y1="11.784524584619534" x2="12.843753988288746" y2="28.63129806607324" class="delaunay-line"/>
<line x1="12.843753988288746" y1="28.63129806607324" x2="9.465944758050847" y2="13.031994729526085" class="delaunay-line"/>
<line x1="12.843753988288746" y1="28.63129806607324" x2="0" y2="48" class="delaunay-line"/>
<line x1="0" y1="48" x2="14.993961685560551" y2="34.23278062505644" class="delaunay-line"/>
<line x1="14.993961685560551" y1="34.23278062505644" x2="12.843753988288746" y2="28.63129806607324" class="delaunay-line"/>
<line x1="0" y1="0" x2="25.126543993036634" y2="8.928175761437789" class="delaunay-line"/>
<line x1="25.126543993036634" y1="8.928175761437789" x2="33.516370431565456" y2="8.142992084896408" class="delaunay-line"/>
<line x1="33.516370431565456" y1="8.142992084896408" x2="0" y2="0" class="delaunay-line"/>
<line x1="10.297591521321882" y1="9.11940432659086" x2="4.428705916919046" y2="7.87193418168431" class="delaunay-line"/>
<line x1="4.428705916919046" y1="7.87193418168431" x2="3.597059153648012" y2="11.784524584619534" class="delaunay-line"/>
<line x1="3.597059153648012" y1="11.784524584619534" x2="10.297591521321882" y2="9.11940432659086" class="delaunay-line"/>
<line x1="58.002235421006965" y1="43.292000960753384" x2="72" y2="48" class="delaunay-line"/>
<line x1="72" y1="48" x2="60.53794499145116" y2="37.85415423853348" class="delaunay-line"/>
<line x1="60.53794499145116" y1="37.85415423853348" x2="58.002235421006965" y2="43.292000960753384" class="delaunay-line"/>
<line x1="60.53794499145116" y1="37.85415423853348" x2="72" y2="48" class="delaunay-line"/>
<line x1="72" y1="48" x2="68.18230438429825" y2="6.3240988424136955" class="delaunay-line"/>
<line x1="68.18230438429825" y1="6.3240988424136955" x2="60.53794499145116" y2="37.85415423853348" class="delaunay-line"/>
<line x1="39.8117696893538" y1="47.51509803344285" x2="72" y2="48" class="delaunay-line"/>
<line x1="72" y1="48" x2="43.636988713205945" y2="46.3456112145519" class="delaunay-line"/>
<line x1="43.636988713205945" y1="46.3456112145519" x2="39.8117696893538" y2="47.51509803344285" class="delaunay-line"/>
<line x1="68.18230438429825" y1="6.3240988424136955" x2="72" y2="0" class="delaunay-line"/>
<line x1="72" y1="0" x2="64.65559287054342" y2="1.4699968761640183" class="delaunay-line"/>
<line x1="64.65559287054342" y1="1.4699968761640183" x2="68.18230438429825" y2="6.3240988424136955" class="delaunay-line"/>
<line x1="64.65559287054342" y1="1.4699968761640183" x2="0" y2="0" class="delaunay-line"/>
<line x1="0" y1="0" x2="33.516370431565456" y2="8.142992084896408" class="delaunay-line"/>
<line x1="33.516370431565456" y1="8.142992084896408" x2="64.65559287054342" y2="1.4699968761640183" class="delaunay-line"/>
<line x1="72" y1="48" x2="72" y2="0" class="delaunay-line"/>
<line x1="72" y1="0" x2="68.18230438429825" y2="6.3240988424136955" class="delaunay-line"/>
<line x1="68.18230438429825" y1="6.3240988424136955" x2="72" y2="48" class="delaunay-line"/>
<line x1="3.597059153648012" y1="11.784524584619534" x2="0" y2="48" class="delaunay-line"/>
<line x1="0" y1="48" x2="12.843753988288746" y2="28.63129806607324" class="delaunay-line"/>
<line x1="12.843753988288746" y1="28.63129806607324" x2="3.597059153648012" y2="11.784524584619534" class="delaunay-line"/>
<line x1="16.09573835259564" y1="41.07592720563249" x2="0" y2="48" class="delaunay-line"/>
<line x1="0" y1="48" x2="19.29028039278481" y2="43.483187298240686" class="delaunay-line"/>
<line x1="19.29028039278481" y1="43.483187298240686" x2="16.09573835259564" y2="41.07592720563249" class="delaunay-line"/>
<line x1="19.29028039278481" y1="43.483187298240686" x2="0" y2="48" class="delaunay-line"/>
<line x1="0" y1="48" x2="39.8117696893538" y2="47.51509803344285" class="delaunay-line"/>
<line x1="39.8117696893538" y1="47.51509803344285" x2="19.29028039278481" y2="43.483187298240686" class="delaunay-line"/>
<line x1="39.8117696893538" y1="47.51509803344285" x2="0" y2="48" class="delaunay-line"/>
<line x1="0" y1="48" x2="72" y2="48" class="delaunay-line"/>
<line x1="72" y1="48" x2="39.8117696893538" y2="47.51509803344285" class="delaunay-line"/>
<line x1="4.428705916919046" y1="7.87193418168431" x2="0" y2="0" class="delaunay-line"/>
<line x1="0" y1="0" x2="3.597059153648012" y2="11.784524584619534" class="delaunay-line"/>
<line x1="3.597059153648012" y1="11.784524584619534" x2="4.428705916919046" y2="7.87193418168431" class="delaunay-line"/>
<line x1="3.597059153648012" y1="11.784524584619534" x2="0" y2="0" class="delaunay-line"/>
<line x1="0" y1="0" x2="0" y2="48" class="delaunay-line"/>
<line x1="0" y1="48" x2="3.597059153648012" y2="11.784524584619534" class="delaunay-line"/>
<line x1="72" y1="0" x2="0" y2="0" class="delaunay-line"/>
<line x1="0" y1="0" x2="64.65559287054342" y2="1.4699968761640183" class="delaunay-line"/>
<line x1="64.65559287054342" y1="1.4699968761640183" x2="72" y2="0" class="delaunay-line"/>
</g>
<g id="layer-area" class="layer ">
</g>
<g id="layer-building" class="layer ">
<polygon points="12.843753988288746,28.63129806607324 16.578075694277555,27.197826267892037 18.728283391549358,32.79930882687524 14.993961685560551,34.23278062505644" class="terrain-solid"/>
<text x="15.786018689919052" y="30.715303446474238" class="label">#000000</text>
<polygon points="25.126543993036634,8.928175761437789 25.231258431660336,14.927261932376137 17.232476870409208,15.066881183874404 17.127762431785506,9.067795012936056" class="terrain-solid"/>
<text x="21.179510431722917" y="11.997528472656096" class="label">#000000</text>
<polygon points="29.921194246368792,9.896476672052716 33.516370431565456,8.142992084896408 36.146597312299924,13.53575636269141 32.551421127103254,15.289240949847718" class="terrain-solid"/>
<text x="33.03389577933436" y="11.716116517372063" class="label">#000000</text>
<polygon points="36.71518687716622,29.708949648215764 34.53663073710611,26.354267376434066 39.56865414477865,23.0864331663439 41.74721028483876,26.4411154381256" class="terrain-solid"/>
<text x="38.14192051097243" y="26.39769140727983" class="label">#000000</text>
<polygon points="48.96698391551546,18.765026365024237 48.82738592870546,22.762589673100617 42.831040966590884,22.553192692885613 42.970638953400886,18.555629384809233" class="terrain-solid"/>
<text x="45.89901244105317" y="20.659109528954925" class="label">#000000</text>
<polygon points="38.05753946101739,41.777269497664626 41.882758484869534,40.60778267877368 43.636988713205945,46.3456112145519 39.8117696893538,47.51509803344285" class="terrain-solid"/>
<text x="40.84726408711167" y="44.061440356108264" class="label">#000000</text>
<polygon points="61.710168429298676,11.026380860753482 58.183456915543836,6.172278894503805 64.65559287054342,1.4699968761640183 68.18230438429825,6.3240988424136955" class="terrain-solid"/>
<text x="63.182880649921046" y="6.248188868458751" class="label">#000000</text>
<polygon points="49.61694940005645,32.85836457371045 47.66354047331351,27.185253120114552 55.22768907810804,24.5807078844573 57.18109800485098,30.2538193380532" class="terrain-solid"/>
<text x="52.42231923908224" y="28.71953622908388" class="label">#000000</text>
<polygon points="56.912713843304566,36.16368119157069 60.53794499145116,37.85415423853348 58.002235421006965,43.292000960753384 54.37700427286037,41.60152791379059" class="terrain-solid"/>
<text x="57.457474632155765" y="39.727841076162036" class="label">#000000</text>
<polygon points="20.374166189544155,25.279137380174312 24.374166189544155,25.279137380174312 24.374166189544155,31.279137380174312 20.374166189544155,31.279137380174312" class="terrain-solid"/>
<text x="22.374166189544155" y="28.279137380174312" class="label">#000000</text>
<polygon points="19.29028039278481,43.483187298240686 16.09573835259564,41.07592720563249 19.706628491507928,36.28411414534873 22.901170531697097,38.69137423795693" class="terrain-solid"/>
<text x="19.498454442146368" y="39.88365072179471" class="label">#000000</text>
<polygon points="3.597059153648012,11.784524584619534 4.428705916919046,7.87193418168431 10.297591521321882,9.11940432659086 9.465944758050847,13.031994729526085" class="terrain-solid"/>
<text x="6.947325337484946" y="10.451964455605196" class="label">#000000</text>
</g>
<g id="layer-wall" class="layer ">
</g>
<g id="layer-tree" class="layer ">
</g>
<g id="layer-rocks" class="layer ">
</g>
<g id="layer-shrub" class="layer ">
</g>
<g id="layer-terrain" class="layer ">
</g>
<g id="layer-clearance" class="layer hidden">
</g>
<g id="layer-models" class="layer ">
</g>
<g id="layer-paths" class="layer ">
</g>
<g id="layer-vectors" class="layer ">
</g>
<g id="layer-los" class="layer ">
</g>
<g id="layer-lof" class="layer ">
</g>

<g id="legend">
<g class="toggle" onclick="toggleLayer('deployment')"><rect x="0.4" y="0.14999999999999997" width="0.4" height="0.4" fill="#222" stroke="#222" stroke-width="0.05"/><text x="1.0" y="0.5499999999999999" class="label">Deployment Zones</text></g>
<g class="toggle" onclick="toggleLayer('grid')"><rect x="0.4" y="0.95" width="0.4" height="0.4" fill="#222" stroke="#222" stroke-width="0.05"/><text x="1.0" y="1.3499999999999999" class="label">0.5 MU Grid</text></g>
<g class="toggle" onclick="toggleLayer('delaunay')"><rect x="0.4" y="1.7500000000000002" width="0.4" height="0.4" fill="#222" stroke="#222" stroke-width="0.05"/><text x="1.0" y="2.1500000000000004" class="label">Delaunay Mesh</text></g>
<g class="toggle disabled"><rect x="0.4" y="2.55" width="0.4" height="0.4" fill="#222" stroke="#222" stroke-width="0.05"/><text x="1.0" y="2.95" class="label">Area Terrain</text></g>
<g class="toggle" onclick="toggleLayer('building')"><rect x="0.4" y="3.3499999999999996" width="0.4" height="0.4" fill="#222" stroke="#222" stroke-width="0.05"/><text x="1.0" y="3.75" class="label">Buildings</text></g>
<g class="toggle disabled"><rect x="0.4" y="4.1499999999999995" width="0.4" height="0.4" fill="#222" stroke="#222" stroke-width="0.05"/><text x="1.0" y="4.55" class="label">Walls</text></g>
<g class="toggle disabled"><rect x="0.4" y="4.949999999999999" width="0.4" height="0.4" fill="#222" stroke="#222" stroke-width="0.05"/><text x="1.0" y="5.35" class="label">Trees</text></g>
<g class="toggle disabled"><rect x="0.4" y="5.749999999999999" width="0.4" height="0.4" fill="#222" stroke="#222" stroke-width="0.05"/><text x="1.0" y="6.1499999999999995" class="label">Rocks</text></g>
<g class="toggle disabled"><rect x="0.4" y="6.549999999999999" width="0.4" height="0.4" fill="#222" stroke="#222" stroke-width="0.05"/><text x="1.0" y="6.949999999999999" class="label">Shrubs</text></g>
<g class="toggle" onclick="toggleLayer('terrain')"><rect x="0.4" y="7.349999999999999" width="0.4" height="0.4" fill="#222" stroke="#222" stroke-width="0.05"/><text x="1.0" y="7.749999999999999" class="label">Other Terrain</text></g>
<g class="toggle" onclick="toggleLayer('clearance')"><rect x="0.4" y="8.15" width="0.4" height="0.4" fill="#fff" stroke="#222" stroke-width="0.05"/><text x="1.0" y="8.549999999999999" class="label">Clearance Zones</text></g>
<g class="toggle" onclick="toggleLayer('models')"><rect x="0.4" y="8.950000000000001" width="0.4" height="0.4" fill="#222" stroke="#222" stroke-width="0.05"/><text x="1.0" y="9.35" class="label">Models</text></g>
<g class="toggle" onclick="toggleLayer('paths')"><rect x="0.4" y="9.750000000000002" width="0.4" height="0.4" fill="#222" stroke="#222" stroke-width="0.05"/><text x="1.0" y="10.15" class="label">Paths</text></g>
<g class="toggle" onclick="toggleLayer('vectors')"><rect x="0.4" y="10.550000000000002" width="0.4" height="0.4" fill="#222" stroke="#222" stroke-width="0.05"/><text x="1.0" y="10.950000000000001" class="label">Vectors</text></g>
<g class="toggle" onclick="toggleLayer('los')"><rect x="0.4" y="11.350000000000003" width="0.4" height="0.4" fill="#222" stroke="#222" stroke-width="0.05"/><text x="1.0" y="11.750000000000002" class="label">LOS</text></g>
<g class="toggle" onclick="toggleLayer('lof')"><rect x="0.4" y="12.150000000000004" width="0.4" height="0.4" fill="#222" stroke="#222" stroke-width="0.05"/><text x="1.0" y="12.550000000000002" class="label">LOF</text></g>
</g>
</svg>