<svg xmlns="http://www.w3.org/2000/svg" viewBox="0 0 72 48" width="2880" height="1920" font-family="Arial" font-size="0.6">
<defs>
  <style><![CDATA[
    .layer { display: inline; }
    .layer.hidden { display: none; }
    .grid-line { stroke: #999; stroke-width: 0.02; opacity: 0.2; }
    .grid-line-2mu { stroke: #666; stroke-width: 0.04; opacity: 0.4; }
    .grid-line-6mu { stroke: #333; stroke-width: 0.08; opacity: 0.6; }
    .delaunay-line { stroke: #4a6fa5; stroke-width: 0.03; opacity: 0.3; }
    #layer-area { opacity: 0.8; }
    #layer-building, #layer-wall, #layer-tree, #layer-rocks, #layer-shrub, #layer-terrain { opacity: 0.8; }
    .terrain-area { stroke: none; }
    .terrain-solid { stroke: #000; stroke-width: 0.05; }
    .model { stroke: #ff0000; stroke-width: 2; vector-effect: non-scaling-stroke; }
    .path { fill: none; stroke-width: 0.12; }
    .vector { stroke-width: 0.1; }
    .los-ray { stroke-width: 0.08; stroke-dasharray: 0.2 0.2; }
    .lof-ray { stroke-width: 0.08; stroke-dasharray: 0.3 0.15; }
    .label { fill: #111 !important; font-size: 0.6px; }
    .toggle { cursor: pointer; }
    .toggle.disabled { cursor: default; }
    .toggle.disabled rect { stroke: #ccc; fill: #fff; }
    .toggle.disabled text { fill: #ccc; }
#layer-area { fill: #C49A6C; }
  ]]></style>
</defs>
<rect x="0" y="0" width="72" height="48" fill="#ffffff" stroke="#111" stroke-width="0.05"/>
<script><![CDATA[
      function toggleLayer(id) {
        var layer = document.getElementById('layer-' + id);
        if (!layer) return;
        if (layer.classList.contains('hidden')) {
          layer.classList.remove('hidden');
        } else {
          layer.classList.add('hidden');
        }
      }
    ]]></script>
<text x="0.4" y="47.6" class="label">VERY_LARGE battlefield_A100-B0-W0-R0-S0-T0</text>
<g id="layer-deployment" class="layer ">
</g>
<g id="layer-grid" class="layer ">
<line x1="0" y1="0" x2="0" y2="48" class="grid-line-6mu"/>
<line x1="0.5" y1="0" x2="0.5" y2="48" class="grid-line"/>
<line x1="1" y1="0" x2="1" y2="48" class="grid-line"/>
<line x1="1.5" y1="0" x2="1.5" y2="48" class="grid-line"/>
<line x1="2" y1="0" x2="2" y2="48" class="grid-line-2mu"/>
<line x1="2.5" y1="0" x2="2.5" y2="48" class="grid-line"/>
<line x1="3" y1="0" x2="3" y2="48" class="grid-line"/>
<line x1="3.5" y1="0" x2="3.5" y2="48" class="grid-line"/>
<line x1="4" y1="0" x2="4" y2="48" class="grid-line-2mu"/>
<line x1="4.5" y1="0" x2="4.5" y2="48" class="grid-line"/>
<line x1="5" y1="0" x2="5" y2="48" class="grid-line"/>
<line x1="5.5" y1="0" x2="5.5" y2="48" class="grid-line"/>
<line x1="6" y1="0" x2="6" y2="48" class="grid-line-6mu"/>
<line x1="6.5" y1="0" x2="6.5" y2="48" class="grid-line"/>
<line x1="7" y1="0" x2="7" y2="48" class="grid-line"/>
<line x1="7.5" y1="0" x2="7.5" y2="48" class="grid-line"/>
<line x1="8" y1="0" x2="8" y2="48" class="grid-line-2mu"/>
<line x1="8.5" y1="0" x2="8.5" y2="48" class="grid-line"/>
<line x1="9" y1="0" x2="9" y2="48" class="grid-line"/>
<line x1="9.5" y1="0" x2="9.5" y2="48" class="grid-line"/>
<line x1="10" y1="0" x2="10" y2="48" class="grid-line-2mu"/>
<line x1="10.5" y1="0" x2="10.5" y2="48" class="grid-line"/>
<line x1="11" y1="0" x2="11" y2="48" class="grid-line"/>
<line x1="11.5" y1="0" x2="11.5" y2="48" class="grid-line"/>
<line x1="12" y1="0" x2="12" y2="48" class="grid-line-6mu"/>
<line x1="12.5" y1="0" x2="12.5" y2="48" class="grid-line"/>
<line x1="13" y1="0" x2="13" y2="48" class="grid-line"/>
<line x1="13.5" y1="0" x2="13.5" y2="48" class="grid-line"/>
<line x1="14" y1="0" x2="14" y2="48" class="grid-line-2mu"/>
<line x1="14.5" y1="0" x2="14.5" y2="48" class="grid-line"/>
<line x1="15" y1="0" x2="15" y2="48" class="grid-line"/>
<line x1="15.5" y1="0" x2="15.5" y2="48" class="grid-line"/>
<line x1="16" y1="0" x2="16" y2="48" class="grid-line-2mu"/>
<line x1="16.5" y1="0" x2="16.5" y2="48" class="grid-line"/>
<line x1="17" y1="0" x2="17" y2="48" class="grid-line"/>
<line x1="17.5" y1="0" x2="17.5" y2="48" class="grid-line"/>
<line x1="18" y1="0" x2="18" y2="48" class="grid-line-6mu"/>
<line x1="18.5" y1="0" x2="18.5" y2="48" class="grid-line"/>
<line x1="19" y1="0" x2="19" y2="48" class="grid-line"/>
<line x1="19.5" y1="0" x2="19.5" y2="48" class="grid-line"/>
<line x1="20" y1="0" x2="20" y2="48" class="grid-line-2mu"/>
<line x1="20.5" y1="0" x2="20.5" y2="48" class="grid-line"/>
<line x1="21" y1="0" x2="21" y2="48" class="grid-line"/>
<line x1="21.5" y1="0" x2="21.5" y2="48" class="grid-line"/>
<line x1="22" y1="0" x2="22" y2="48" class="grid-line-2mu"/>
<line x1="22.5" y1="0" x2="22.5" y2="48" class="grid-line"/>
<line x1="23" y1="0" x2="23" y2="48" class="grid-line"/>
<line x1="23.5" y1="0" x2="23.5" y2="48" class="grid-line"/>
<line x1="24" y1="0" x2="24" y2="48" class="grid-line-6mu"/>
<line x1="24.5" y1="0" x2="24.5" y2="48" class="grid-line"/>
<line x1="25" y1="0" x2="25" y2="48" class="grid-line"/>
<line x1="25.5" y1="0" x2="25.5" y2="48" class="grid-line"/>
<line x1="26" y1="0" x2="26" y2="48" class="grid-line-2mu"/>
<line x1="26.5" y1="0" x2="26.5" y2="48" class="grid-line"/>
<line x1="27" y1="0" x2="27" y2="48" class="grid-line"/>
<line x1="27.5" y1="0" x2="27.5" y2="48" class="grid-line"/>
<line x1="28" y1="0" x2="28" y2="48" class="grid-line-2mu"/>
<line x1="28.5" y1="0" x2="28.5" y2="48" class="grid-line"/>
<line x1="29" y1="0" x2="29" y2="48" class="grid-line"/>
<line x1="29.5" y1="0" x2="29.5" y2="48" class="grid-line"/>
<line x1="30" y1="0" x2="30" y2="48" class="grid-line-6mu"/>
<line x1="30.5" y1="0" x2="30.5" y2="48" class="grid-line"/>
<line x1="31" y1="0" x2="31" y2="48" class="grid-line"/>
<line x1="31.5" y1="0" x2="31.5" y2="48" class="grid-line"/>
<line x1="32" y1="0" x2="32" y2="48" class="grid-line-2mu"/>
<line x1="32.5" y1="0" x2="32.5" y2="48" class="grid-line"/>
<line x1="33" y1="0" x2="33" y2="48" class="grid-line"/>
<line x1="33.5" y1="0" x2="33.5" y2="48" class="grid-line"/>
<line x1="34" y1="0" x2="34" y2="48" class="grid-line-2mu"/>
<line x1="34.5" y1="0" x2="34.5" y2="48" class="grid-line"/>
<line x1="35" y1="0" x2="35" y2="48" class="grid-line"/>
<line x1="35.5" y1="0" x2="35.5" y2="48" class="grid-line"/>
<line x1="36" y1="0" x2="36" y2="48" class="grid-line-6mu"/>
<line x1="36.5" y1="0" x2="36.5" y2="48" class="grid-line"/>
<line x1="37" y1="0" x2="37" y2="48" class="grid-line"/>
<line x1="37.5" y1="0" x2="37.5" y2="48" class="grid-line"/>
<line x1="38" y1="0" x2="38" y2="48" class="grid-line-2mu"/>
<line x1="38.5" y1="0" x2="38.5" y2="48" class="grid-line"/>
<line x1="39" y1="0" x2="39" y2="48" class="grid-line"/>
<line x1="39.5" y1="0" x2="39.5" y2="48" class="grid-line"/>
<line x1="40" y1="0" x2="40" y2="48" class="grid-line-2mu"/>
<line x1="40.5" y1="0" x2="40.5" y2="48" class="grid-line"/>
<line x1="41" y1="0" x2="41" y2="48" class="grid-line"/>
<line x1="41.5" y1="0" x2="41.5" y2="48" class="grid-line"/>
<line x1="42" y1="0" x2="42" y2="48" class="grid-line-6mu"/>
<line x1="42.5" y1="0" x2="42.5" y2="48" class="grid-line"/>
<line x1="43" y1="0" x2="43" y2="48" class="grid-line"/>
<line x1="43.5" y1="0" x2="43.5" y2="48" class="grid-line"/>
<line x1="44" y1="0" x2="44" y2="48" class="grid-line-2mu"/>
<line x1="44.5" y1="0" x2="44.5" y2="48" class="grid-line"/>
<line x1="45" y1="0" x2="45" y2="48" class="grid-line"/>
<line x1="45.5" y1="0" x2="45.5" y2="48" class="grid-line"/>
<line x1="46" y1="0" x2="46" y2="48" class="grid-line-2mu"/>
<line x1="46.5" y1="0" x2="46.5" y2="48" class="grid-line"/>
<line x1="47" y1="0" x2="47" y2="48" class="grid-line"/>
<line x1="47.5" y1="0" x2="47.5" y2="48" class="grid-line"/>
<line x1="48" y1="0" x2="48" y2="48" class="grid-line-6mu"/>
<line x1="48.5" y1="0" x2="48.5" y2="48" class="grid-line"/>
<line x1="49" y1="0" x2="49" y2="48" class="grid-line"/>
<line x1="49.5" y1="0" x2="49.5" y2="48" class="grid-line"/>
<line x1="50" y1="0" x2="50" y2="48" class="grid-line-2mu"/>
<line x1="50.5" y1="0" x2="50.5" y2="48" class="grid-line"/>
<line x1="51" y1="0" x2="51" y2="48" class="grid-line"/>
<line x1="51.5" y1="0" x2="51.5" y2="48" class="grid-line"/>
<line x1="52" y1="0" x2="52" y2="48" class="grid-line-2mu"/>
<line x1="52.5" y1="0" x2="52.5" y2="48" class="grid-line"/>
<line x1="53" y1="0" x2="53" y2="48" class="grid-line"/>
<line x1="53.5" y1="0" x2="53.5" y2="48" class="grid-line"/>
<line x1="54" y1="0" x2="54" y2="48" class="grid-line-6mu"/>
<line x1="54.5" y1="0" x2="54.5" y2="48" class="grid-line"/>
<line x1="55" y1="0" x2="55" y2="48" class="grid-line"/>
<line x1="55.5" y1="0" x2="55.5" y2="48" class="grid-line"/>
<line x1="56" y1="0" x2="56" y2="48" class="grid-line-2mu"/>
<line x1="56.5" y1="0" x2="56.5" y2="48" class="grid-line"/>
<line x1="57" y1="0" x2="57" y2="48" class="grid-line"/>
<line x1="57.5" y1="0" x2="57.5" y2="48" class="grid-line"/>
<line x1="58" y1="0" x2="58" y2="48" class="grid-line-2mu"/>
<line x1="58.5" y1="0" x2="58.5" y2="48" class="grid-line"/>
<line x1="59" y1="0" x2="59" y2="48" class="grid-line"/>
<line x1="59.5" y1="0" x2="59.5" y2="48" class="grid-line"/>
<line x1="60" y1="0" x2="60" y2="48" class="grid-line-6mu"/>
<line x1="60.5" y1="0" x2="60.5" y2="48" class="grid-line"/>
<line x1="61" y1="0" x2="61" y2="48" class="grid-line"/>
<line x1="61.5" y1="0" x2="61.5" y2="48" class="grid-line"/>
<line x1="62" y1="0" x2="62" y2="48" class="grid-line-2mu"/>
<line x1="62.5" y1="0" x2="62.5" y2="48" class="grid-line"/>
<line x1="63" y1="0" x2="63" y2="48" class="grid-line"/>
<line x1="63.5" y1="0" x2="63.5" y2="48" class="grid-line"/>
<line x1="64" y1="0" x2="64" y2="48" class="grid-line-2mu"/>
<line x1="64.5" y1="0" x2="64.5" y2="48" class="grid-line"/>
<line x1="65" y1="0" x2="65" y2="48" class="grid-line"/>
<line x1="65.5" y1="0" x2="65.5" y2="48" class="grid-line"/>
<line x1="66" y1="0" x2="66" y2="48" class="grid-line-6mu"/>
<line x1="66.5" y1="0" x2="66.5" y2="48" class="grid-line"/>
<line x1="67" y1="0" x2="67" y2="48" class="grid-line"/>
<line x1="67.5" y1="0" x2="67.5" y2="48" class="grid-line"/>
<line x1="68" y1="0" x2="68" y2="48" class="grid-line-2mu"/>
<line x1="68.5" y1="0" x2="68.5" y2="48" class="grid-line"/>
<line x1="69" y1="0" x2="69" y2="48" class="grid-line"/>
<line x1="69.5" y1="0" x2="69.5" y2="48" class="grid-line"/>
<line x1="70" y1="0" x2="70" y2="48" class="grid-line-2mu"/>
<line x1="70.5" y1="0" x2="70.5" y2="48" class="grid-line"/>
<line x1="71" y1="0" x2="71" y2="48" class="grid-line"/>
<line x1="71.5" y1="0" x2="71.5" y2="48" class="grid-line"/>
<line x1="72" y1="0" x2="72" y2="48" class="grid-line-6mu"/>
<line x1="0" y1="0" x2="72" y2="0" class="grid-line-6mu"/>
<line x1="0" y1="0.5" x2="72" y2="0.5" class="grid-line"/>
<line x1="0" y1="1" x2="72" y2="1" class="grid-line"/>
<line x1="0" y1="1.5" x2="72" y2="1.5" class="grid-line"/>
<line x1="0" y1="2" x2="72" y2="2" class="grid-line-2mu"/>
<line x1="0" y1="2.5" x2="72" y2="2.5" class="grid-line"/>
<line x1="0" y1="3" x2="72" y2="3" class="grid-line"/>
<line x1="0" y1="3.5" x2="72" y2="3.5" class="grid-line"/>
<line x1="0" y1="4" x2="72" y2="4" class="grid-line-2mu"/>
<line x1="0" y1="4.5" x2="72" y2="4.5" class="grid-line"/>
<line x1="0" y1="5" x2="72" y2="5" class="grid-line"/>
<line x1="0" y1="5.5" x2="72" y2="5.5" class="grid-line"/>
<line x1="0" y1="6" x2="72" y2="6" class="grid-line-6mu"/>
<line x1="0" y1="6.5" x2="72" y2="6.5" class="grid-line"/>
<line x1="0" y1="7" x2="72" y2="7" class="grid-line"/>
<line x1="0" y1="7.5" x2="72" y2="7.5" class="grid-line"/>
<line x1="0" y1="8" x2="72" y2="8" class="grid-line-2mu"/>
<line x1="0" y1="8.5" x2="72" y2="8.5" class="grid-line"/>
<line x1="0" y1="9" x2="72" y2="9" class="grid-line"/>
<line x1="0" y1="9.5" x2="72" y2="9.5" class="grid-line"/>
<line x1="0" y1="10" x2="72" y2="10" class="grid-line-2mu"/>
<line x1="0" y1="10.5" x2="72" y2="10.5" class="grid-line"/>
<line x1="0" y1="11" x2="72" y2="11" class="grid-line"/>
<line x1="0" y1="11.5" x2="72" y2="11.5" class="grid-line"/>
<line x1="0" y1="12" x2="72" y2="12" class="grid-line-6mu"/>
<line x1="0" y1="12.5" x2="72" y2="12.5" class="grid-line"/>
<line x1="0" y1="13" x2="72" y2="13" class="grid-line"/>
<line x1="0" y1="13.5" x2="72" y2="13.5" class="grid-line"/>
<line x1="0" y1="14" x2="72" y2="14" class="grid-line-2mu"/>
<line x1="0" y1="14.5" x2="72" y2="14.5" class="grid-line"/>
<line x1="0" y1="15" x2="72" y2="15" class="grid-line"/>
<line x1="0" y1="15.5" x2="72" y2="15.5" class="grid-line"/>
<line x1="0" y1="16" x2="72" y2="16" class="grid-line-2mu"/>
<line x1="0" y1="16.5" x2="72" y2="16.5" class="grid-line"/>
<line x1="0" y1="17" x2="72" y2="17" class="grid-line"/>
<line x1="0" y1="17.5" x2="72" y2="17.5" class="grid-line"/>
<line x1="0" y1="18" x2="72" y2="18" class="grid-line-6mu"/>
<line x1="0" y1="18.5" x2="72" y2="18.5" class="grid-line"/>
<line x1="0" y1="19" x2="72" y2="19" class="grid-line"/>
<line x1="0" y1="19.5" x2="72" y2="19.5" class="grid-line"/>
<line x1="0" y1="20" x2="72" y2="20" class="grid-line-2mu"/>
<line x1="0" y1="20.5" x2="72" y2="20.5" class="grid-line"/>
<line x1="0" y1="21" x2="72" y2="21" class="grid-line"/>
<line x1="0" y1="21.5" x2="72" y2="21.5" class="grid-line"/>
<line x1="0" y1="22" x2="72" y2="22" class="grid-line-2mu"/>
<line x1="0" y1="22.5" x2="72" y2="22.5" class="grid-line"/>
<line x1="0" y1="23" x2="72" y2="23" class="grid-line"/>
<line x1="0" y1="23.5" x2="72" y2="23.5" class="grid-line"/>
<line x1="0" y1="24" x2="72" y2="24" class="grid-line-6mu"/>
<line x1="0" y1="24.5" x2="72" y2="24.5" class="grid-line"/>
<line x1="0" y1="25" x2="72" y2="25" class="grid-line"/>
<line x1="0" y1="25.5" x2="72" y2="25.5" class="grid-line"/>
<line x1="0" y1="26" x2="72" y2="26" class="grid-line-2mu"/>
<line x1="0" y1="26.5" x2="72" y2="26.5" class="grid-line"/>
<line x1="0" y1="27" x2="72" y2="27" class="grid-line"/>
<line x1="0" y1="27.5" x2="72" y2="27.5" class="grid-line"/>
<line x1="0" y1="28" x2="72" y2="28" class="grid-line-2mu"/>
<line x1="0" y1="28.5" x2="72" y2="28.5" class="grid-line"/>
<line x1="0" y1="29" x2="72" y2="29" class="grid-line"/>
<line x1="0" y1="29.5" x2="72" y2="29.5" class="grid-line"/>
<line x1="0" y1="30" x2="72" y2="30" class="grid-line-6mu"/>
<line x1="0" y1="30.5" x2="72" y2="30.5" class="grid-line"/>
<line x1="0" y1="31" x2="72" y2="31" class="grid-line"/>
<line x1="0" y1="31.5" x2="72" y2="31.5" class="grid-line"/>
<line x1="0" y1="32" x2="72" y2="32" class="grid-line-2mu"/>
<line x1="0" y1="32.5" x2="72" y2="32.5" class="grid-line"/>
<line x1="0" y1="33" x2="72" y2="33" class="grid-line"/>
<line x1="0" y1="33.5" x2="72" y2="33.5" class="grid-line"/>
<line x1="0" y1="34" x2="72" y2="34" class="grid-line-2mu"/>
<line x1="0" y1="34.5" x2="72" y2="34.5" class="grid-line"/>
<line x1="0" y1="35" x2="72" y2="35" class="grid-line"/>
<line x1="0" y1="35.5" x2="72" y2="35.5" class="grid-line"/>
<line x1="0" y1="36" x2="72" y2="36" class="grid-line-6mu"/>
<line x1="0" y1="36.5" x2="72" y2="36.5" class="grid-line"/>
<line x1="0" y1="37" x2="72" y2="37" class="grid-line"/>
<line x1="0" y1="37.5" x2="72" y2="37.5" class="grid-line"/>
<line x1="0" y1="38" x2="72" y2="38" class="grid-line-2mu"/>
<line x1="0" y1="38.5" x2="72" y2="38.5" class="grid-line"/>
<line x1="0" y1="39" x2="72" y2="39" class="grid-line"/>
<line x1="0" y1="39.5" x2="72" y2="39.5" class="grid-line"/>
<line x1="0" y1="40" x2="72" y2="40" class="grid-line-2mu"/>
<line x1="0" y1="40.5" x2="72" y2="40.5" class="grid-line"/>
<line x1="0" y1="41" x2="72" y2="41" class="grid-line"/>
<line x1="0" y1="41.5" x2="72" y2="41.5" class="grid-line"/>
<line x1="0" y1="42" x2="72" y2="42" class="grid-line-6mu"/>
<line x1="0" y1="42.5" x2="72" y2="42.5" class="grid-line"/>
<line x1="0" y1="43" x2="72" y2="43" class="grid-line"/>
<line x1="0" y1="43.5" x2="72" y2="43.5" class="grid-line"/>
<line x1="0" y1="44" x2="72" y2="44" class="grid-line-2mu"/>
<line x1="0" y1="44.5" x2="72" y2="44.5" class="grid-line"/>
<line x1="0" y1="45" x2="72" y2="45" class="grid-line"/>
<line x1="0" y1="45.5" x2="72" y2="45.5" class="grid-line"/>
<line x1="0" y1="46" x2="72" y2="46" class="grid-line-2mu"/>
<line x1="0" y1="46.5" x2="72" y2="46.5" class="grid-line"/>
<line x1="0" y1="47" x2="72" y2="47" class="grid-line"/>
<line x1="0" y1="47.5" x2="72" y2="47.5" class="grid-line"/>
<line x1="0" y1="48" x2="72" y2="48" class="grid-line-6mu"/>
</g>
<g id="layer-delaunay" class="layer ">
<line x1="33.0686307359613" y1="24.299588202483896" x2="37.04460606883391" y2="33.51236938823065" class="delaunay-line"/>
<line x1="37.04460606883391" y1="33.51236938823065" x2="39.443688500715155" y2="22.48059980428436" class="delaunay-line"/>
<line x1="39.443688500715155" y1="22.48059980428436" x2="33.0686307359613" y2="24.299588202483896" class="delaunay-line"/>
<line x1="37.04460606883391" y1="33.51236938823065" x2="43.24520788983842" y2="30.658619373282356" class="delaunay-line"/>
<line x1="43.24520788983842" y1="30.658619373282356" x2="39.443688500715155" y2="22.48059980428436" class="delaunay-line"/>
<line x1="39.443688500715155" y1="22.48059980428436" x2="37.04460606883391" y2="33.51236938823065" class="delaunay-line"/>
<line x1="43.24520788983842" y1="30.658619373282356" x2="44.85218799974792" y2="24.220276880207102" class="delaunay-line"/>
<line x1="44.85218799974792" y1="24.220276880207102" x2="39.443688500715155" y2="22.48059980428436" class="delaunay-line"/>
<line x1="39.443688500715155" y1="22.48059980428436" x2="43.24520788983842" y2="30.658619373282356" class="delaunay-line"/>
<line x1="46.75281000133328" y1="26.458946360720976" x2="45.239243458449565" y2="24.033514074899486" class="delaunay-line"/>
<line x1="45.239243458449565" y1="24.033514074899486" x2="44.85218799974792" y2="24.220276880207102" class="delaunay-line"/>
<line x1="44.85218799974792" y1="24.220276880207102" x2="46.75281000133328" y2="26.458946360720976" class="delaunay-line"/>
<line x1="44.85218799974792" y1="24.220276880207102" x2="45.239243458449565" y2="24.033514074899486" class="delaunay-line"/>
<line x1="45.239243458449565" y1="24.033514074899486" x2="39.443688500715155" y2="22.48059980428436" class="delaunay-line"/>
<line x1="39.443688500715155" y1="22.48059980428436" x2="44.85218799974792" y2="24.220276880207102" class="delaunay-line"/>
<line x1="43.24520788983842" y1="30.658619373282356" x2="46.75281000133328" y2="26.458946360720976" class="delaunay-line"/>
<line x1="46.75281000133328" y1="26.458946360720976" x2="44.85218799974792" y2="24.220276880207102" class="delaunay-line"/>
<line x1="44.85218799974792" y1="24.220276880207102" x2="43.24520788983842" y2="30.658619373282356" class="delaunay-line"/>
<line x1="37.04460606883391" y1="33.51236938823065" x2="46.72339321710775" y2="33.02360528681135" class="delaunay-line"/>
<line x1="46.72339321710775" y1="33.02360528681135" x2="43.24520788983842" y2="30.658619373282356" class="delaunay-line"/>
<line x1="43.24520788983842" y1="30.658619373282356" x2="37.04460606883391" y2="33.51236938823065" class="delaunay-line"/>
<line x1="43.24520788983842" y1="30.658619373282356" x2="46.72339321710775" y2="33.02360528681135" class="delaunay-line"/>
<line x1="46.72339321710775" y1="33.02360528681135" x2="46.75281000133328" y2="26.458946360720976" class="delaunay-line"/>
<line x1="46.75281000133328" y1="26.458946360720976" x2="43.24520788983842" y2="30.658619373282356" class="delaunay-line"/>
<line x1="46.72339321710775" y1="33.02360528681135" x2="50.43634818775544" y2="27.214109458243158" class="delaunay-line"/>
<line x1="50.43634818775544" y1="27.214109458243158" x2="46.75281000133328" y2="26.458946360720976" class="delaunay-line"/>
<line x1="46.75281000133328" y1="26.458946360720976" x2="46.72339321710775" y2="33.02360528681135" class="delaunay-line"/>
<line x1="46.75281000133328" y1="26.458946360720976" x2="50.72107360415075" y2="22.972806735300544" class="delaunay-line"/>
<line x1="50.72107360415075" y1="22.972806735300544" x2="45.239243458449565" y2="24.033514074899486" class="delaunay-line"/>
<line x1="45.239243458449565" y1="24.033514074899486" x2="46.75281000133328" y2="26.458946360720976" class="delaunay-line"/>
<line x1="50.43634818775544" y1="27.214109458243158" x2="50.72107360415075" y2="22.972806735300544" class="delaunay-line"/>
<line x1="50.72107360415075" y1="22.972806735300544" x2="46.75281000133328" y2="26.458946360720976" class="delaunay-line"/>
<line x1="46.75281000133328" y1="26.458946360720976" x2="50.43634818775544" y2="27.214109458243158" class="delaunay-line"/>
<line x1="46.171005714924775" y1="14.414398382461885" x2="41.77305990663784" y2="13.787267367682745" class="delaunay-line"/>
<line x1="41.77305990663784" y1="13.787267367682745" x2="39.443688500715155" y2="22.48059980428436" class="delaunay-line"/>
<line x1="39.443688500715155" y1="22.48059980428436" x2="46.171005714924775" y2="14.414398382461885" class="delaunay-line"/>
<line x1="46.171005714924775" y1="14.414398382461885" x2="39.443688500715155" y2="22.48059980428436" class="delaunay-line"/>
<line x1="39.443688500715155" y1="22.48059980428436" x2="45.239243458449565" y2="24.033514074899486" class="delaunay-line"/>
<line x1="45.239243458449565" y1="24.033514074899486" x2="46.171005714924775" y2="14.414398382461885" class="delaunay-line"/>
<line x1="39.443688500715155" y1="22.48059980428436" x2="28.968463343119215" y2="12.53054136328473" class="delaunay-line"/>
<line x1="28.968463343119215" y1="12.53054136328473" x2="33.0686307359613" y2="24.299588202483896" class="delaunay-line"/>
<line x1="33.0686307359613" y1="24.299588202483896" x2="39.443688500715155" y2="22.48059980428436" class="delaunay-line"/>
<line x1="33.0686307359613" y1="24.299588202483896" x2="25.11984177246323" y2="37.020309644830284" class="delaunay-line"/>
<line x1="25.11984177246323" y1="37.020309644830284" x2="37.04460606883391" y2="33.51236938823065" class="delaunay-line"/>
<line x1="37.04460606883391" y1="33.51236938823065" x2="33.0686307359613" y2="24.299588202483896" class="delaunay-line"/>
<line x1="37.04460606883391" y1="33.51236938823065" x2="45.861384853221004" y2="45.64762430385487" class="delaunay-line"/>
<line x1="45.861384853221004" y1="45.64762430385487" x2="46.72339321710775" y2="33.02360528681135" class="delaunay-line"/>
<line x1="46.72339321710775" y1="33.02360528681135" x2="37.04460606883391" y2="33.51236938823065" class="delaunay-line"/>
<line x1="46.72339321710775" y1="33.02360528681135" x2="52.59227882151058" y2="31.776135141904795" class="delaunay-line"/>
<line x1="52.59227882151058" y1="31.776135141904795" x2="50.43634818775544" y2="27.214109458243158" class="delaunay-line"/>
<line x1="50.43634818775544" y1="27.214109458243158" x2="46.72339321710775" y2="33.02360528681135" class="delaunay-line"/>
<line x1="58.46974072897604" y1="29.154339277385283" x2="55.97730146568637" y2="20.122012675782656" class="delaunay-line"/>
<line x1="55.97730146568637" y1="20.122012675782656" x2="50.72107360415075" y2="22.972806735300544" class="delaunay-line"/>
<line x1="50.72107360415075" y1="22.972806735300544" x2="58.46974072897604" y2="29.154339277385283" class="delaunay-line"/>
<line x1="25.11984177246323" y1="37.020309644830284" x2="35.296418926340344" y2="43.379340815628744" class="delaunay-line"/>
<line x1="35.296418926340344" y1="43.379340815628744" x2="37.04460606883391" y2="33.51236938823065" class="delaunay-line"/>
<line x1="37.04460606883391" y1="33.51236938823065" x2="25.11984177246323" y2="37.020309644830284" class="delaunay-line"/>
<line x1="46.72339321710775" y1="33.02360528681135" x2="55.56958878572038" y2="38.59420127634519" class="delaunay-line"/>
<line x1="55.56958878572038" y1="38.59420127634519" x2="52.59227882151058" y2="31.776135141904795" class="delaunay-line"/>
<line x1="52.59227882151058" y1="31.776135141904795" x2="46.72339321710775" y2="33.02360528681135" class="delaunay-line"/>
<line x1="47.56861486437225" y1="15.34018163829787" x2="46.171005714924775" y2="14.414398382461885" class="delaunay-line"/>
<line x1="46.171005714924775" y1="14.414398382461885" x2="45.239243458449565" y2="24.033514074899486" class="delaunay-line"/>
<line x1="45.239243458449565" y1="24.033514074899486" x2="47.56861486437225" y2="15.34018163829787" class="delaunay-line"/>
<line x1="50.72107360415075" y1="22.972806735300544" x2="47.56861486437225" y2="15.34018163829787" class="delaunay-line"/>
<line x1="47.56861486437225" y1="15.34018163829787" x2="45.239243458449565" y2="24.033514074899486" class="delaunay-line"/>
<line x1="45.239243458449565" y1="24.033514074899486" x2="50.72107360415075" y2="22.972806735300544" class="delaunay-line"/>
<line x1="41.77305990663784" y1="13.787267367682745" x2="28.968463343119215" y2="12.53054136328473" class="delaunay-line"/>
<line x1="28.968463343119215" y1="12.53054136328473" x2="39.443688500715155" y2="22.48059980428436" class="delaunay-line"/>
<line x1="39.443688500715155" y1="22.48059980428436" x2="41.77305990663784" y2="13.787267367682745" class="delaunay-line"/>
<line x1="33.0686307359613" y1="24.299588202483896" x2="20.018759278653874" y2="29.667781256158435" class="delaunay-line"/>
<line x1="20.018759278653874" y1="29.667781256158435" x2="25.11984177246323" y2="37.020309644830284" class="delaunay-line"/>
<line x1="25.11984177246323" y1="37.020309644830284" x2="33.0686307359613" y2="24.299588202483896" class="delaunay-line"/>
<line x1="17.846051619337" y1="22.2098754617916" x2="20.018759278653874" y2="29.667781256158435" class="delaunay-line"/>
<line x1="20.018759278653874" y1="29.667781256158435" x2="33.0686307359613" y2="24.299588202483896" class="delaunay-line"/>
<line x1="33.0686307359613" y1="24.299588202483896" x2="17.846051619337" y2="22.2098754617916" class="delaunay-line"/>
<line x1="57.06871131982113" y1="35.67076031093018" x2="55.164412709395776" y2="30.908078310197105" class="delaunay-line"/>
<line x1="55.164412709395776" y1="30.908078310197105" x2="52.59227882151058" y2="31.776135141904795" class="delaunay-line"/>
<line x1="52.59227882151058" y1="31.776135141904795" x2="57.06871131982113" y2="35.67076031093018" class="delaunay-line"/>
<line x1="52.59227882151058" y1="31.776135141904795" x2="55.164412709395776" y2="30.908078310197105" class="delaunay-line"/>
<line x1="55.164412709395776" y1="30.908078310197105" x2="50.43634818775544" y2="27.214109458243158" class="delaunay-line"/>
<line x1="50.43634818775544" y1="27.214109458243158" x2="52.59227882151058" y2="31.776135141904795" class="delaunay-line"/>
<line x1="50.72107360415075" y1="22.972806735300544" x2="55.97730146568637" y2="20.122012675782656" class="delaunay-line"/>
<line x1="55.97730146568637" y1="20.122012675782656" x2="47.56861486437225" y2="15.34018163829787" class="delaunay-line"/>
<line x1="47.56861486437225" y1="15.34018163829787" x2="50.72107360415075" y2="22.972806735300544" class="delaunay-line"/>
<line x1="42.51037592724258" y1="6.192489263678477" x2="39.51385865175673" y2="9.122167656470147" class="delaunay-line"/>
<line x1="39.51385865175673" y1="9.122167656470147" x2="41.77305990663784" y2="13.787267367682745" class="delaunay-line"/>
<line x1="41.77305990663784" y1="13.787267367682745" x2="42.51037592724258" y2="6.192489263678477" class="delaunay-line"/>
<line x1="41.77305990663784" y1="13.787267367682745" x2="39.51385865175673" y2="9.122167656470147" class="delaunay-line"/>
<line x1="39.51385865175673" y1="9.122167656470147" x2="28.968463343119215" y2="12.53054136328473" class="delaunay-line"/>
<line x1="28.968463343119215" y1="12.53054136328473" x2="41.77305990663784" y2="13.787267367682745" class="delaunay-line"/>
<line x1="42.51037592724258" y1="6.192489263678477" x2="41.77305990663784" y2="13.787267367682745" class="delaunay-line"/>
<line x1="41.77305990663784" y1="13.787267367682745" x2="46.171005714924775" y2="14.414398382461885" class="delaunay-line"/>
<line x1="46.171005714924775" y1="14.414398382461885" x2="42.51037592724258" y2="6.192489263678477" class="delaunay-line"/>
<line x1="35.296418926340344" y1="43.379340815628744" x2="45.861384853221004" y2="45.64762430385487" class="delaunay-line"/>
<line x1="45.861384853221004" y1="45.64762430385487" x2="37.04460606883391" y2="33.51236938823065" class="delaunay-line"/>
<line x1="37.04460606883391" y1="33.51236938823065" x2="35.296418926340344" y2="43.379340815628744" class="delaunay-line"/>
<line x1="58.46974072897604" y1="29.154339277385283" x2="50.72107360415075" y2="22.972806735300544" class="delaunay-line"/>
<line x1="50.72107360415075" y1="22.972806735300544" x2="50.43634818775544" y2="27.214109458243158" class="delaunay-line"/>
<line x1="50.43634818775544" y1="27.214109458243158" x2="58.46974072897604" y2="29.154339277385283" class="delaunay-line"/>
<line x1="48.14593625582054" y1="0.7862672109621762" x2="42.51037592724258" y2="6.192489263678477" class="delaunay-line"/>
<line x1="42.51037592724258" y1="6.192489263678477" x2="46.171005714924775" y2="14.414398382461885" class="delaunay-line"/>
<line x1="46.171005714924775" y1="14.414398382461885" x2="48.14593625582054" y2="0.7862672109621762" class="delaunay-line"/>
<line x1="28.968463343119215" y1="12.53054136328473" x2="17.846051619337" y2="22.2098754617916" class="delaunay-line"/>
<line x1="17.846051619337" y1="22.2098754617916" x2="33.0686307359613" y2="24.299588202483896" class="delaunay-line"/>
<line x1="33.0686307359613" y1="24.299588202483896" x2="28.968463343119215" y2="12.53054136328473" class="delaunay-line"/>
<line x1="57.06871131982113" y1="35.67076031093018" x2="58.46974072897604" y2="29.154339277385283" class="delaunay-line"/>
<line x1="58.46974072897604" y1="29.154339277385283" x2="55.164412709395776" y2="30.908078310197105" class="delaunay-line"/>
<line x1="55.164412709395776" y1="30.908078310197105" x2="57.06871131982113" y2="35.67076031093018" class="delaunay-line"/>
<line x1="55.164412709395776" y1="30.908078310197105" x2="58.46974072897604" y2="29.154339277385283" class="delaunay-line"/>
<line x1="58.46974072897604" y1="29.154339277385283" x2="50.43634818775544" y2="27.214109458243158" class="delaunay-line"/>
<line x1="50.43634818775544" y1="27.214109458243158" x2="55.164412709395776" y2="30.908078310197105" class="delaunay-line"/>
<line x1="45.861384853221004" y1="45.64762430385487" x2="55.56958878572038" y2="38.59420127634519" class="delaunay-line"/>
<line x1="55.56958878572038" y1="38.59420127634519" x2="46.72339321710775" y2="33.02360528681135" class="delaunay-line"/>
<line x1="46.72339321710775" y1="33.02360528681135" x2="45.861384853221004" y2="45.64762430385487" class="delaunay-line"/>
<line x1="39.51385865175673" y1="9.122167656470147" x2="35.96277699623195" y2="6.866657843836193" class="delaunay-line"/>
<line x1="35.96277699623195" y1="6.866657843836193" x2="28.968463343119215" y2="12.53054136328473" class="delaunay-line"/>
<line x1="28.968463343119215" y1="12.53054136328473" x2="39.51385865175673" y2="9.122167656470147" class="delaunay-line"/>
<line x1="55.56958878572038" y1="38.59420127634519" x2="57.06871131982113" y2="35.67076031093018" class="delaunay-line"/>
<line x1="57.06871131982113" y1="35.67076031093018" x2="52.59227882151058" y2="31.776135141904795" class="delaunay-line"/>
<line x1="52.59227882151058" y1="31.776135141904795" x2="55.56958878572038" y2="38.59420127634519" class="delaunay-line"/>
<line x1="57.133551206635985" y1="9.533558665552283" x2="46.171005714924775" y2="14.414398382461885" class="delaunay-line"/>
<line x1="46.171005714924775" y1="14.414398382461885" x2="47.56861486437225" y2="15.34018163829787" class="delaunay-line"/>
<line x1="47.56861486437225" y1="15.34018163829787" x2="57.133551206635985" y2="9.533558665552283" class="delaunay-line"/>
<line x1="39.51385865175673" y1="9.122167656470147" x2="42.51037592724258" y2="6.192489263678477" class="delaunay-line"/>
<line x1="42.51037592724258" y1="6.192489263678477" x2="35.96277699623195" y2="6.866657843836193" class="delaunay-line"/>
<line x1="35.96277699623195" y1="6.866657843836193" x2="39.51385865175673" y2="9.122167656470147" class="delaunay-line"/>
<line x1="9.056213786942658" y1="24.786941539248836" x2="16.678918715992058" y2="37.519968761852454" class="delaunay-line"/>
<line x1="16.678918715992058" y1="37.519968761852454" x2="20.018759278653874" y2="29.667781256158435" class="delaunay-line"/>
<line x1="20.018759278653874" y1="29.667781256158435" x2="9.056213786942658" y2="24.786941539248836" class="delaunay-line"/>
<line x1="20.018759278653874" y1="29.667781256158435" x2="16.678918715992058" y2="37.519968761852454" class="delaunay-line"/>
<line x1="16.678918715992058" y1="37.519968761852454" x2="25.11984177246323" y2="37.020309644830284" class="delaunay-line"/>
<line x1="25.11984177246323" y1="37.020309644830284" x2="20.018759278653874" y2="29.667781256158435" class="delaunay-line"/>
<line x1="25.11984177246323" y1="37.020309644830284" x2="24.39237003223053" y2="46.71250207928019" class="delaunay-line"/>
<line x1="24.39237003223053" y1="46.71250207928019" x2="35.296418926340344" y2="43.379340815628744" class="delaunay-line"/>
<line x1="35.296418926340344" y1="43.379340815628744" x2="25.11984177246323" y2="37.020309644830284" class="delaunay-line"/>
<line x1="16.678918715992058" y1="37.519968761852454" x2="24.39237003223053" y2="46.71250207928019" class="delaunay-line"/>
<line x1="24.39237003223053" y1="46.71250207928019" x2="25.11984177246323" y2="37.020309644830284" class="delaunay-line"/>
<line x1="25.11984177246323" y1="37.020309644830284" x2="16.678918715992058" y2="37.519968761852454" class="delaunay-line"/>
<line x1="35.296418926340344" y1="43.379340815628744" x2="24.39237003223053" y2="46.71250207928019" class="delaunay-line"/>
<line x1="24.39237003223053" y1="46.71250207928019" x2="45.861384853221004" y2="45.64762430385487" class="delaunay-line"/>
<line x1="45.861384853221004" y1="45.64762430385487" x2="35.296418926340344" y2="43.379340815628744" class="delaunay-line"/>
<line x1="32.18685464993292" y1="2.2037820750943657" x2="25.192540996820185" y2="7.867665594542903" class="delaunay-line"/>
<line x1="25.192540996820185" y1="7.867665594542903" x2="28.968463343119215" y2="12.53054136328473" class="delaunay-line"/>
<line x1="28.968463343119215" y1="12.53054136328473" x2="32.18685464993292" y2="2.2037820750943657" class="delaunay-line"/>
<line x1="28.968463343119215" y1="12.53054136328473" x2="17.008973934407496" y2="10.239106858673711" class="delaunay-line"/>
<line x1="17.008973934407496" y1="10.239106858673711" x2="17.846051619337" y2="22.2098754617916" class="delaunay-line"/>
<line x1="17.846051619337" y1="22.2098754617916" x2="28.968463343119215" y2="12.53054136328473" class="delaunay-line"/>
<line x1="32.18685464993292" y1="2.2037820750943657" x2="28.968463343119215" y2="12.53054136328473" class="delaunay-line"/>
<line x1="28.968463343119215" y1="12.53054136328473" x2="35.96277699623195" y2="6.866657843836193" class="delaunay-line"/>
<line x1="35.96277699623195" y1="6.866657843836193" x2="32.18685464993292" y2="2.2037820750943657" class="delaunay-line"/>
<line x1="63.384652994709995" y1="32.595797895491565" x2="60.7053659873267" y2="23.815981527736604" class="delaunay-line"/>
<line x1="60.7053659873267" y1="23.815981527736604" x2="58.46974072897604" y2="29.154339277385283" class="delaunay-line"/>
<line x1="58.46974072897604" y1="29.154339277385283" x2="63.384652994709995" y2="32.595797895491565" class="delaunay-line"/>
<line x1="58.46974072897604" y1="29.154339277385283" x2="60.7053659873267" y2="23.815981527736604" class="delaunay-line"/>
<line x1="60.7053659873267" y1="23.815981527736604" x2="55.97730146568637" y2="20.122012675782656" class="delaunay-line"/>
<line x1="55.97730146568637" y1="20.122012675782656" x2="58.46974072897604" y2="29.154339277385283" class="delaunay-line"/>
<line x1="55.97730146568637" y1="20.122012675782656" x2="57.133551206635985" y2="9.533558665552283" class="delaunay-line"/>
<line x1="57.133551206635985" y1="9.533558665552283" x2="47.56861486437225" y2="15.34018163829787" class="delaunay-line"/>
<line x1="47.56861486437225" y1="15.34018163829787" x2="55.97730146568637" y2="20.122012675782656" class="delaunay-line"/>
<line x1="55.56958878572038" y1="38.59420127634519" x2="57.799927380252015" y2="41.6260372207781" class="delaunay-line"/>
<line x1="57.799927380252015" y1="41.6260372207781" x2="57.06871131982113" y2="35.67076031093018" class="delaunay-line"/>
<line x1="57.06871131982113" y1="35.67076031093018" x2="55.56958878572038" y2="38.59420127634519" class="delaunay-line"/>
<line x1="57.06871131982113" y1="35.67076031093018" x2="63.384652994709995" y2="32.595797895491565" class="delaunay-line"/>
<line x1="63.384652994709995" y1="32.595797895491565" x2="58.46974072897604" y2="29.154339277385283" class="delaunay-line"/>
<line x1="58.46974072897604" y1="29.154339277385283" x2="57.06871131982113" y2="35.67076031093018" class="delaunay-line"/>
<line x1="45.861384853221004" y1="45.64762430385487" x2="57.799927380252015" y2="41.6260372207781" class="delaunay-line"/>
<line x1="57.799927380252015" y1="41.6260372207781" x2="55.56958878572038" y2="38.59420127634519" class="delaunay-line"/>
<line x1="55.56958878572038" y1="38.59420127634519" x2="45.861384853221004" y2="45.64762430385487" class="delaunay-line"/>
<line x1="42.51037592724258" y1="6.192489263678477" x2="33.261933317625754" y2="2.6481094534222884" class="delaunay-line"/>
<line x1="33.261933317625754" y1="2.6481094534222884" x2="35.96277699623195" y2="6.866657843836193" class="delaunay-line"/>
<line x1="35.96277699623195" y1="6.866657843836193" x2="42.51037592724258" y2="6.192489263678477" class="delaunay-line"/>
<line x1="41.89401092168956" y1="-5.687790992085683" x2="32.18685464993292" y2="2.2037820750943657" class="delaunay-line"/>
<line x1="32.18685464993292" y1="2.2037820750943657" x2="33.261933317625754" y2="2.6481094534222884" class="delaunay-line"/>
<line x1="33.261933317625754" y1="2.6481094534222884" x2="41.89401092168956" y2="-5.687790992085683" class="delaunay-line"/>
<line x1="33.261933317625754" y1="2.6481094534222884" x2="32.18685464993292" y2="2.2037820750943657" class="delaunay-line"/>
<line x1="32.18685464993292" y1="2.2037820750943657" x2="35.96277699623195" y2="6.866657843836193" class="delaunay-line"/>
<line x1="35.96277699623195" y1="6.866657843836193" x2="33.261933317625754" y2="2.6481094534222884" class="delaunay-line"/>
<line x1="66.00162668459303" y1="34.573936220283855" x2="63.384652994709995" y2="32.595797895491565" class="delaunay-line"/>
<line x1="63.384652994709995" y1="32.595797895491565" x2="57.06871131982113" y2="35.67076031093018" class="delaunay-line"/>
<line x1="57.06871131982113" y1="35.67076031093018" x2="66.00162668459303" y2="34.573936220283855" class="delaunay-line"/>
<line x1="68.5468409218694" y1="25.223429496890635" x2="63.63192865613545" y2="21.781970878784357" class="delaunay-line"/>
<line x1="63.63192865613545" y1="21.781970878784357" x2="60.7053659873267" y2="23.815981527736604" class="delaunay-line"/>
<line x1="60.7053659873267" y1="23.815981527736604" x2="68.5468409218694" y2="25.223429496890635" class="delaunay-line"/>
<line x1="60.7053659873267" y1="23.815981527736604" x2="63.63192865613545" y2="21.781970878784357" class="delaunay-line"/>
<line x1="63.63192865613545" y1="21.781970878784357" x2="55.97730146568637" y2="20.122012675782656" class="delaunay-line"/>
<line x1="55.97730146568637" y1="20.122012675782656" x2="60.7053659873267" y2="23.815981527736604" class="delaunay-line"/>
<line x1="65.0148748486111" y1="17.369670854988282" x2="57.133551206635985" y2="9.533558665552283" class="delaunay-line"/>
<line x1="57.133551206635985" y1="9.533558665552283" x2="55.97730146568637" y2="20.122012675782656" class="delaunay-line"/>
<line x1="55.97730146568637" y1="20.122012675782656" x2="65.0148748486111" y2="17.369670854988282" class="delaunay-line"/>
<line x1="42.51037592724258" y1="6.192489263678477" x2="41.89401092168956" y2="-5.687790992085683" class="delaunay-line"/>
<line x1="41.89401092168956" y1="-5.687790992085683" x2="33.261933317625754" y2="2.6481094534222884" class="delaunay-line"/>
<line x1="33.261933317625754" y1="2.6481094534222884" x2="42.51037592724258" y2="6.192489263678477" class="delaunay-line"/>
<line x1="17.314151218932338" y1="8.58060079475832" x2="17.008973934407496" y2="10.239106858673711" class="delaunay-line"/>
<line x1="17.008973934407496" y1="10.239106858673711" x2="25.192540996820185" y2="7.867665594542903" class="delaunay-line"/>
<line x1="25.192540996820185" y1="7.867665594542903" x2="17.314151218932338" y2="8.58060079475832" class="delaunay-line"/>
<line x1="25.192540996820185" y1="7.867665594542903" x2="17.008973934407496" y2="10.239106858673711" class="delaunay-line"/>
<line x1="17.008973934407496" y1="10.239106858673711" x2="28.968463343119215" y2="12.53054136328473" class="delaunay-line"/>
<line x1="28.968463343119215" y1="12.53054136328473" x2="25.192540996820185" y2="7.867665594542903" class="delaunay-line"/>
<line x1="12.627139850619656" y1="44.55356943982075" x2="13.917709632516877" y2="43.370963120797455" class="delaunay-line"/>
<line x1="13.917709632516877" y1="43.370963120797455" x2="5.63282619750692" y2="38.889685920372216" class="delaunay-line"/>
<line x1="5.63282619750692" y1="38.889685920372216" x2="12.627139850619656" y2="44.55356943982075" class="delaunay-line"/>
<line x1="20.669308639756817" y1="3.6063753594280707" x2="17.314151218932338" y2="8.58060079475832" class="delaunay-line"/>
<line x1="17.314151218932338" y1="8.58060079475832" x2="25.192540996820185" y2="7.867665594542903" class="delaunay-line"/>
<line x1="25.192540996820185" y1="7.867665594542903" x2="20.669308639756817" y2="3.6063753594280707" class="delaunay-line"/>
<line x1="9.056213786942658" y1="24.786941539248836" x2="20.018759278653874" y2="29.667781256158435" class="delaunay-line"/>
<line x1="20.018759278653874" y1="29.667781256158435" x2="17.846051619337" y2="22.2098754617916" class="delaunay-line"/>
<line x1="17.846051619337" y1="22.2098754617916" x2="9.056213786942658" y2="24.786941539248836" class="delaunay-line"/>
<line x1="16.678918715992058" y1="37.519968761852454" x2="13.917709632516877" y2="43.370963120797455" class="delaunay-line"/>
<line x1="13.917709632516877" y1="43.370963120797455" x2="24.39237003223053" y2="46.71250207928019" class="delaunay-line"/>
<line x1="24.39237003223053" y1="46.71250207928019" x2="16.678918715992058" y2="37.519968761852454" class="delaunay-line"/>
<line x1="9.177504801972315" y1="8.390408908680755" x2="9.056213786942658" y2="24.786941539248836" class="delaunay-line"/>
<line x1="9.056213786942658" y1="24.786941539248836" x2="17.008973934407496" y2="10.239106858673711" class="delaunay-line"/>
<line x1="17.008973934407496" y1="10.239106858673711" x2="9.177504801972315" y2="8.390408908680755" class="delaunay-line"/>
<line x1="17.008973934407496" y1="10.239106858673711" x2="9.056213786942658" y2="24.786941539248836" class="delaunay-line"/>
<line x1="9.056213786942658" y1="24.786941539248836" x2="17.846051619337" y2="22.2098754617916" class="delaunay-line"/>
<line x1="17.846051619337" y1="22.2098754617916" x2="17.008973934407496" y2="10.239106858673711" class="delaunay-line"/>
<line x1="57.133551206635985" y1="9.533558665552283" x2="48.14593625582054" y2="0.7862672109621762" class="delaunay-line"/>
<line x1="48.14593625582054" y1="0.7862672109621762" x2="46.171005714924775" y2="14.414398382461885" class="delaunay-line"/>
<line x1="46.171005714924775" y1="14.414398382461885" x2="57.133551206635985" y2="9.533558665552283" class="delaunay-line"/>
<line x1="63.384652994709995" y1="32.595797895491565" x2="68.5468409218694" y2="25.223429496890635" class="delaunay-line"/>
<line x1="68.5468409218694" y1="25.223429496890635" x2="60.7053659873267" y2="23.815981527736604" class="delaunay-line"/>
<line x1="60.7053659873267" y1="23.815981527736604" x2="63.384652994709995" y2="32.595797895491565" class="delaunay-line"/>
<line x1="64.8499423416591" y1="42.37226836043368" x2="66.00162668459303" y2="34.573936220283855" class="delaunay-line"/>
<line x1="66.00162668459303" y1="34.573936220283855" x2="57.06871131982113" y2="35.67076031093018" class="delaunay-line"/>
<line x1="57.06871131982113" y1="35.67076031093018" x2="64.8499423416591" y2="42.37226836043368" class="delaunay-line"/>
<line x1="63.63192865613545" y1="21.781970878784357" x2="65.0148748486111" y2="17.369670854988282" class="delaunay-line"/>
<line x1="65.0148748486111" y1="17.369670854988282" x2="55.97730146568637" y2="20.122012675782656" class="delaunay-line"/>
<line x1="55.97730146568637" y1="20.122012675782656" x2="63.63192865613545" y2="21.781970878784357" class="delaunay-line"/>
<line x1="68.5468409218694" y1="25.223429496890635" x2="65.0148748486111" y2="17.369670854988282" class="delaunay-line"/>
<line x1="65.0148748486111" y1="17.369670854988282" x2="63.63192865613545" y2="21.781970878784357" class="delaunay-line"/>
<line x1="63.63192865613545" y1="21.781970878784357" x2="68.5468409218694" y2="25.223429496890635" class="delaunay-line"/>
<line x1="32.18685464993292" y1="2.2037820750943657" x2="20.669308639756817" y2="3.6063753594280707" class="delaunay-line"/>
<line x1="20.669308639756817" y1="3.6063753594280707" x2="25.192540996820185" y2="7.867665594542903" class="delaunay-line"/>
<line x1="25.192540996820185" y1="7.867665594542903" x2="32.18685464993292" y2="2.2037820750943657" class="delaunay-line"/>
<line x1="5.63282619750692" y1="38.889685920372216" x2="13.917709632516877" y2="43.370963120797455" class="delaunay-line"/>
<line x1="13.917709632516877" y1="43.370963120797455" x2="16.678918715992058" y2="37.519968761852454" class="delaunay-line"/>
<line x1="16.678918715992058" y1="37.519968761852454" x2="5.63282619750692" y2="38.889685920372216" class="delaunay-line"/>
<line x1="13.917709632516877" y1="43.370963120797455" x2="12.627139850619656" y2="44.55356943982075" class="delaunay-line"/>
<line x1="12.627139850619656" y1="44.55356943982075" x2="24.39237003223053" y2="46.71250207928019" class="delaunay-line"/>
<line x1="24.39237003223053" y1="46.71250207928019" x2="13.917709632516877" y2="43.370963120797455" class="delaunay-line"/>
<line x1="70.39089561959003" y1="49.46436514289417" x2="64.8499423416591" y2="42.37226836043368" class="delaunay-line"/>
<line x1="64.8499423416591" y1="42.37226836043368" x2="57.799927380252015" y2="41.6260372207781" class="delaunay-line"/>
<line x1="57.799927380252015" y1="41.6260372207781" x2="70.39089561959003" y2="49.46436514289417" class="delaunay-line"/>
<line x1="57.799927380252015" y1="41.6260372207781" x2="64.8499423416591" y2="42.37226836043368" class="delaunay-line"/>
<line x1="64.8499423416591" y1="42.37226836043368" x2="57.06871131982113" y2="35.67076031093018" class="delaunay-line"/>
<line x1="57.06871131982113" y1="35.67076031093018" x2="57.799927380252015" y2="41.6260372207781" class="delaunay-line"/>
<line x1="72" y1="0" x2="53.47292141895379" y2="1.3116495467688751" class="delaunay-line"/>
<line x1="53.47292141895379" y1="1.3116495467688751" x2="57.133551206635985" y2="9.533558665552283" class="delaunay-line"/>
<line x1="57.133551206635985" y1="9.533558665552283" x2="72" y2="0" class="delaunay-line"/>
<line x1="57.133551206635985" y1="9.533558665552283" x2="53.47292141895379" y2="1.3116495467688751" class="delaunay-line"/>
<line x1="53.47292141895379" y1="1.3116495467688751" x2="48.14593625582054" y2="0.7862672109621762" class="delaunay-line"/>
<line x1="48.14593625582054" y1="0.7862672109621762" x2="57.133551206635985" y2="9.533558665552283" class="delaunay-line"/>
<line x1="69.78414822670993" y1="25.002103720396118" x2="68.5468409218694" y2="25.223429496890635" class="delaunay-line"/>
<line x1="68.5468409218694" y1="25.223429496890635" x2="66.00162668459303" y2="34.573936220283855" class="delaunay-line"/>
<line x1="66.00162668459303" y1="34.573936220283855" x2="69.78414822670993" y2="25.002103720396118" class="delaunay-line"/>
<line x1="66.00162668459303" y1="34.573936220283855" x2="68.5468409218694" y2="25.223429496890635" class="delaunay-line"/>
<line x1="68.5468409218694" y1="25.223429496890635" x2="63.384652994709995" y2="32.595797895491565" class="delaunay-line"/>
<line x1="63.384652994709995" y1="32.595797895491565" x2="66.00162668459303" y2="34.573936220283855" class="delaunay-line"/>
<line x1="64.8499423416591" y1="42.37226836043368" x2="66.73284274502392" y2="40.52921313013178" class="delaunay-line"/>
<line x1="66.73284274502392" y1="40.52921313013178" x2="66.00162668459303" y2="34.573936220283855" class="delaunay-line"/>
<line x1="66.00162668459303" y1="34.573936220283855" x2="64.8499423416591" y2="42.37226836043368" class="delaunay-line"/>
<line x1="69.57800686329944" y1="38.678299508479725" x2="69.78414822670993" y2="25.002103720396118" class="delaunay-line"/>
<line x1="69.78414822670993" y1="25.002103720396118" x2="66.00162668459303" y2="34.573936220283855" class="delaunay-line"/>
<line x1="66.00162668459303" y1="34.573936220283855" x2="69.57800686329944" y2="38.678299508479725" class="delaunay-line"/>
<line x1="68.5468409218694" y1="25.223429496890635" x2="69.78414822670993" y2="25.002103720396118" class="delaunay-line"/>
<line x1="69.78414822670993" y1="25.002103720396118" x2="65.0148748486111" y2="17.369670854988282" class="delaunay-line"/>
<line x1="65.0148748486111" y1="17.369670854988282" x2="68.5468409218694" y2="25.223429496890635" class="delaunay-line"/>
<line x1="9.056213786942658" y1="24.786941539248836" x2="5.63282619750692" y2="38.889685920372216" class="delaunay-line"/>
<line x1="5.63282619750692" y1="38.889685920372216" x2="16.678918715992058" y2="37.519968761852454" class="delaunay-line"/>
<line x1="16.678918715992058" y1="37.519968761852454" x2="9.056213786942658" y2="24.786941539248836" class="delaunay-line"/>
<line x1="53.47292141895379" y1="1.3116495467688751" x2="41.89401092168956" y2="-5.687790992085683" class="delaunay-line"/>
<line x1="41.89401092168956" y1="-5.687790992085683" x2="48.14593625582054" y2="0.7862672109621762" class="delaunay-line"/>
<line x1="48.14593625582054" y1="0.7862672109621762" x2="53.47292141895379" y2="1.3116495467688751" class="delaunay-line"/>
<line x1="48.14593625582054" y1="0.7862672109621762" x2="41.89401092168956" y2="-5.687790992085683" class="delaunay-line"/>
<line x1="41.89401092168956" y1="-5.687790992085683" x2="42.51037592724258" y2="6.192489263678477" class="delaunay-line"/>
<line x1="42.51037592724258" y1="6.192489263678477" x2="48.14593625582054" y2="0.7862672109621762" class="delaunay-line"/>
<line x1="32.18685464993292" y1="2.2037820750943657" x2="13.207970486761443" y2="-1.4263607718086493" class="delaunay-line"/>
<line x1="13.207970486761443" y1="-1.4263607718086493" x2="20.669308639756817" y2="3.6063753594280707" class="delaunay-line"/>
<line x1="20.669308639756817" y1="3.6063753594280707" x2="32.18685464993292" y2="2.2037820750943657" class="delaunay-line"/>
<line x1="72" y1="48" x2="69.57800686329944" y2="38.678299508479725" class="delaunay-line"/>
<line x1="69.57800686329944" y1="38.678299508479725" x2="66.73284274502392" y2="40.52921313013178" class="delaunay-line"/>
<line x1="66.73284274502392" y1="40.52921313013178" x2="72" y2="48" class="delaunay-line"/>
<line x1="66.73284274502392" y1="40.52921313013178" x2="69.57800686329944" y2="38.678299508479725" class="delaunay-line"/>
<line x1="69.57800686329944" y1="38.678299508479725" x2="66.00162668459303" y2="34.573936220283855" class="delaunay-line"/>
<line x1="66.00162668459303" y1="34.573936220283855" x2="66.73284274502392" y2="40.52921313013178" class="delaunay-line"/>
<line x1="17.314151218932338" y1="8.58060079475832" x2="9.177504801972315" y2="8.390408908680755" class="delaunay-line"/>
<line x1="9.177504801972315" y1="8.390408908680755" x2="17.008973934407496" y2="10.239106858673711" class="delaunay-line"/>
<line x1="17.008973934407496" y1="10.239106858673711" x2="17.314151218932338" y2="8.58060079475832" class="delaunay-line"/>
<line x1="9.056213786942658" y1="24.786941539248836" x2="2.955164140805661" y2="38.49012340388785" class="delaunay-line"/>
<line x1="2.955164140805661" y1="38.49012340388785" x2="5.63282619750692" y2="38.889685920372216" class="delaunay-line"/>
<line x1="5.63282619750692" y1="38.889685920372216" x2="9.056213786942658" y2="24.786941539248836" class="delaunay-line"/>
<line x1="9.852813065936964" y1="3.5478646635215996" x2="9.177504801972315" y2="8.390408908680755" class="delaunay-line"/>
<line x1="9.177504801972315" y1="8.390408908680755" x2="17.314151218932338" y2="8.58060079475832" class="delaunay-line"/>
<line x1="17.314151218932338" y1="8.58060079475832" x2="9.852813065936964" y2="3.5478646635215996" class="delaunay-line"/>
<line x1="9.852813065936964" y1="3.5478646635215996" x2="17.314151218932338" y2="8.58060079475832" class="delaunay-line"/>
<line x1="17.314151218932338" y1="8.58060079475832" x2="10.998448390231225" y2="1.1837174624829578" class="delaunay-line"/>
<line x1="10.998448390231225" y1="1.1837174624829578" x2="9.852813065936964" y2="3.5478646635215996" class="delaunay-line"/>
<line x1="1.625660109374265" y1="17.716160446164405" x2="2.882590865439636" y2="23.256222567953483" class="delaunay-line"/>
<line x1="2.882590865439636" y1="23.256222567953483" x2="9.056213786942658" y2="24.786941539248836" class="delaunay-line"/>
<line x1="9.056213786942658" y1="24.786941539248836" x2="1.625660109374265" y2="17.716160446164405" class="delaunay-line"/>
<line x1="65.0148748486111" y1="17.369670854988282" x2="70.10316342554967" y2="14.190155269589052" class="delaunay-line"/>
<line x1="70.10316342554967" y1="14.190155269589052" x2="57.133551206635985" y2="9.533558665552283" class="delaunay-line"/>
<line x1="57.133551206635985" y1="9.533558665552283" x2="65.0148748486111" y2="17.369670854988282" class="delaunay-line"/>
<line x1="74.8724368036485" y1="21.822588134996888" x2="70.10316342554967" y2="14.190155269589052" class="delaunay-line"/>
<line x1="70.10316342554967" y1="14.190155269589052" x2="65.0148748486111" y2="17.369670854988282" class="delaunay-line"/>
<line x1="65.0148748486111" y1="17.369670854988282" x2="74.8724368036485" y2="21.822588134996888" class="delaunay-line"/>
<line x1="74.8724368036485" y1="21.822588134996888" x2="65.0148748486111" y2="17.369670854988282" class="delaunay-line"/>
<line x1="65.0148748486111" y1="17.369670854988282" x2="69.78414822670993" y2="25.002103720396118" class="delaunay-line"/>
<line x1="69.78414822670993" y1="25.002103720396118" x2="74.8724368036485" y2="21.822588134996888" class="delaunay-line"/>
<line x1="2.882590865439636" y1="23.256222567953483" x2="2.955164140805661" y2="38.49012340388785" class="delaunay-line"/>
<line x1="2.955164140805661" y1="38.49012340388785" x2="9.056213786942658" y2="24.786941539248836" class="delaunay-line"/>
<line x1="9.056213786942658" y1="24.786941539248836" x2="2.882590865439636" y2="23.256222567953483" class="delaunay-line"/>
<line x1="5.63282619750692" y1="38.889685920372216" x2="5.1882520692073895" y2="47.16178290715054" class="delaunay-line"/>
<line x1="5.1882520692073895" y1="47.16178290715054" x2="12.627139850619656" y2="44.55356943982075" class="delaunay-line"/>
<line x1="12.627139850619656" y1="44.55356943982075" x2="5.63282619750692" y2="38.889685920372216" class="delaunay-line"/>
<line x1="10.998448390231225" y1="1.1837174624829578" x2="17.314151218932338" y2="8.58060079475832" class="delaunay-line"/>
<line x1="17.314151218932338" y1="8.58060079475832" x2="20.669308639756817" y2="3.6063753594280707" class="delaunay-line"/>
<line x1="20.669308639756817" y1="3.6063753594280707" x2="10.998448390231225" y2="1.1837174624829578" class="delaunay-line"/>
<line x1="9.177504801972315" y1="8.390408908680755" x2="1.625660109374265" y2="17.716160446164405" class="delaunay-line"/>
<line x1="1.625660109374265" y1="17.716160446164405" x2="9.056213786942658" y2="24.786941539248836" class="delaunay-line"/>
<line x1="9.056213786942658" y1="24.786941539248836" x2="9.177504801972315" y2="8.390408908680755" class="delaunay-line"/>
<line x1="2.045513180510132" y1="11.285453964835593" x2="1.625660109374265" y2="17.716160446164405" class="delaunay-line"/>
<line x1="1.625660109374265" y1="17.716160446164405" x2="9.177504801972315" y2="8.390408908680755" class="delaunay-line"/>
<line x1="9.177504801972315" y1="8.390408908680755" x2="2.045513180510132" y2="11.285453964835593" class="delaunay-line"/>
<line x1="-1.919018495091131" y1="48.21543745785587" x2="0" y2="48" class="delaunay-line"/>
<line x1="0" y1="48" x2="2.955164140805661" y2="38.49012340388785" class="delaunay-line"/>
<line x1="2.955164140805661" y1="38.49012340388785" x2="-1.919018495091131" y2="48.21543745785587" class="delaunay-line"/>
<line x1="13.207970486761443" y1="-1.4263607718086493" x2="10.998448390231225" y2="1.1837174624829578" class="delaunay-line"/>
<line x1="10.998448390231225" y1="1.1837174624829578" x2="20.669308639756817" y2="3.6063753594280707" class="delaunay-line"/>
<line x1="20.669308639756817" y1="3.6063753594280707" x2="13.207970486761443" y2="-1.4263607718086493" class="delaunay-line"/>
<line x1="9.852813065936964" y1="3.5478646635215996" x2="4.416265075658693" y2="7.321702703045448" class="delaunay-line"/>
<line x1="4.416265075658693" y1="7.321702703045448" x2="9.177504801972315" y2="8.390408908680755" class="delaunay-line"/>
<line x1="9.177504801972315" y1="8.390408908680755" x2="9.852813065936964" y2="3.5478646635215996" class="delaunay-line"/>
<line x1="2.955164140805661" y1="38.49012340388785" x2="5.1882520692073895" y2="47.16178290715054" class="delaunay-line"/>
<line x1="5.1882520692073895" y1="47.16178290715054" x2="5.63282619750692" y2="38.889685920372216" class="delaunay-line"/>
<line x1="5.63282619750692" y1="38.889685920372216" x2="2.955164140805661" y2="38.49012340388785" class="delaunay-line"/>
<line x1="12.627139850619656" y1="44.55356943982075" x2="12.901703385445863" y2="56.35431622457828" class="delaunay-line"/>
<line x1="12.901703385445863" y1="56.35431622457828" x2="24.39237003223053" y2="46.71250207928019" class="delaunay-line"/>
<line x1="24.39237003223053" y1="46.71250207928019" x2="12.627139850619656" y2="44.55356943982075" class="delaunay-line"/>
<line x1="5.1882520692073895" y1="47.16178290715054" x2="12.901703385445863" y2="56.35431622457828" class="delaunay-line"/>
<line x1="12.901703385445863" y1="56.35431622457828" x2="12.627139850619656" y2="44.55356943982075" class="delaunay-line"/>
<line x1="12.627139850619656" y1="44.55356943982075" x2="5.1882520692073895" y2="47.16178290715054" class="delaunay-line"/>
<line x1="24.39237003223053" y1="46.71250207928019" x2="12.901703385445863" y2="56.35431622457828" class="delaunay-line"/>
<line x1="12.901703385445863" y1="56.35431622457828" x2="45.861384853221004" y2="45.64762430385487" class="delaunay-line"/>
<line x1="45.861384853221004" y1="45.64762430385487" x2="24.39237003223053" y2="46.71250207928019" class="delaunay-line"/>
<line x1="45.861384853221004" y1="45.64762430385487" x2="70.39089561959003" y2="49.46436514289417" class="delaunay-line"/>
<line x1="70.39089561959003" y1="49.46436514289417" x2="57.799927380252015" y2="41.6260372207781" class="delaunay-line"/>
<line x1="57.799927380252015" y1="41.6260372207781" x2="45.861384853221004" y2="45.64762430385487" class="delaunay-line"/>
<line x1="69.57800686329944" y1="38.678299508479725" x2="74.8724368036485" y2="21.822588134996888" class="delaunay-line"/>
<line x1="74.8724368036485" y1="21.822588134996888" x2="69.78414822670993" y2="25.002103720396118" class="delaunay-line"/>
<line x1="69.78414822670993" y1="25.002103720396118" x2="69.57800686329944" y2="38.678299508479725" class="delaunay-line"/>
<line x1="41.89401092168956" y1="-5.687790992085683" x2="13.207970486761443" y2="-1.4263607718086493" class="delaunay-line"/>
<line x1="13.207970486761443" y1="-1.4263607718086493" x2="32.18685464993292" y2="2.2037820750943657" class="delaunay-line"/>
<line x1="32.18685464993292" y1="2.2037820750943657" x2="41.89401092168956" y2="-5.687790992085683" class="delaunay-line"/>
<line x1="2.183191148859576" y1="2.7265253892322185" x2="4.416265075658693" y2="7.321702703045448" class="delaunay-line"/>
<line x1="4.416265075658693" y1="7.321702703045448" x2="9.852813065936964" y2="3.5478646635215996" class="delaunay-line"/>
<line x1="9.852813065936964" y1="3.5478646635215996" x2="2.183191148859576" y2="2.7265253892322185" class="delaunay-line"/>
<line x1="2.183191148859576" y1="2.7265253892322185" x2="9.852813065936964" y2="3.5478646635215996" class="delaunay-line"/>
<line x1="9.852813065936964" y1="3.5478646635215996" x2="6.906458229856231" y2="-3.204404747232063" class="delaunay-line"/>
<line x1="6.906458229856231" y1="-3.204404747232063" x2="2.183191148859576" y2="2.7265253892322185" class="delaunay-line"/>
<line x1="4.416265075658693" y1="7.321702703045448" x2="2.045513180510132" y2="11.285453964835593" class="delaunay-line"/>
<line x1="2.045513180510132" y1="11.285453964835593" x2="9.177504801972315" y2="8.390408908680755" class="delaunay-line"/>
<line x1="9.177504801972315" y1="8.390408908680755" x2="4.416265075658693" y2="7.321702703045448" class="delaunay-line"/>
<line x1="64.8499423416591" y1="42.37226836043368" x2="72" y2="48" class="delaunay-line"/>
<line x1="72" y1="48" x2="66.73284274502392" y2="40.52921313013178" class="delaunay-line"/>
<line x1="66.73284274502392" y1="40.52921313013178" x2="64.8499423416591" y2="42.37226836043368" class="delaunay-line"/>
<line x1="69.57800686329944" y1="38.678299508479725" x2="75.11896014123036" y2="45.77039629094021" class="delaunay-line"/>
<line x1="75.11896014123036" y1="45.77039629094021" x2="74.8724368036485" y2="21.822588134996888" class="delaunay-line"/>
<line x1="74.8724368036485" y1="21.822588134996888" x2="69.57800686329944" y2="38.678299508479725" class="delaunay-line"/>
<line x1="12.901703385445863" y1="56.35431622457828" x2="70.39089561959003" y2="49.46436514289417" class="delaunay-line"/>
<line x1="70.39089561959003" y1="49.46436514289417" x2="45.861384853221004" y2="45.64762430385487" class="delaunay-line"/>
<line x1="45.861384853221004" y1="45.64762430385487" x2="12.901703385445863" y2="56.35431622457828" class="delaunay-line"/>
<line x1="70.39089561959003" y1="49.46436514289417" x2="72" y2="48" class="delaunay-line"/>
<line x1="72" y1="48" x2="64.8499423416591" y2="42.37226836043368" class="delaunay-line"/>
<line x1="64.8499423416591" y1="42.37226836043368" x2="70.39089561959003" y2="49.46436514289417" class="delaunay-line"/>
<line x1="5.1882520692073895" y1="47.16178290715054" x2="5.075295158021606" y2="53.8793209773044" class="delaunay-line"/>
<line x1="5.075295158021606" y1="53.8793209773044" x2="12.901703385445863" y2="56.35431622457828" class="delaunay-line"/>
<line x1="12.901703385445863" y1="56.35431622457828" x2="5.1882520692073895" y2="47.16178290715054" class="delaunay-line"/>
<line x1="0" y1="48" x2="5.075295158021606" y2="53.8793209773044" class="delaunay-line"/>
<line x1="5.075295158021606" y1="53.8793209773044" x2="5.1882520692073895" y2="47.16178290715054" class="delaunay-line"/>
<line x1="5.1882520692073895" y1="47.16178290715054" x2="0" y2="48" class="delaunay-line"/>
<line x1="70.39089561959003" y1="49.46436514289417" x2="75.11896014123036" y2="45.77039629094021" class="delaunay-line"/>
<line x1="75.11896014123036" y1="45.77039629094021" x2="72" y2="48" class="delaunay-line"/>
<line x1="72" y1="48" x2="70.39089561959003" y2="49.46436514289417" class="delaunay-line"/>
<line x1="72" y1="48" x2="75.11896014123036" y2="45.77039629094021" class="delaunay-line"/>
<line x1="75.11896014123036" y1="45.77039629094021" x2="69.57800686329944" y2="38.678299508479725" class="delaunay-line"/>
<line x1="69.57800686329944" y1="38.678299508479725" x2="72" y2="48" class="delaunay-line"/>
<line x1="-1.919018495091131" y1="48.21543745785587" x2="2.955164140805661" y2="38.49012340388785" class="delaunay-line"/>
<line x1="2.955164140805661" y1="38.49012340388785" x2="-5.368653543738473" y2="12.05227692671587" class="delaunay-line"/>
<line x1="-5.368653543738473" y1="12.05227692671587" x2="-1.919018495091131" y2="48.21543745785587" class="delaunay-line"/>
<line x1="2.955164140805661" y1="38.49012340388785" x2="0" y2="48" class="delaunay-line"/>
<line x1="0" y1="48" x2="5.1882520692073895" y2="47.16178290715054" class="delaunay-line"/>
<line x1="5.1882520692073895" y1="47.16178290715054" x2="2.955164140805661" y2="38.49012340388785" class="delaunay-line"/>
<line x1="2.045513180510132" y1="11.285453964835593" x2="-5.368653543738473" y2="12.05227692671587" class="delaunay-line"/>
<line x1="-5.368653543738473" y1="12.05227692671587" x2="1.625660109374265" y2="17.716160446164405" class="delaunay-line"/>
<line x1="1.625660109374265" y1="17.716160446164405" x2="2.045513180510132" y2="11.285453964835593" class="delaunay-line"/>
<line x1="-5.368653543738473" y1="12.05227692671587" x2="2.955164140805661" y2="38.49012340388785" class="delaunay-line"/>
<line x1="2.955164140805661" y1="38.49012340388785" x2="2.882590865439636" y2="23.256222567953483" class="delaunay-line"/>
<line x1="2.882590865439636" y1="23.256222567953483" x2="-5.368653543738473" y2="12.05227692671587" class="delaunay-line"/>
<line x1="4.416265075658693" y1="7.321702703045448" x2="0.32427491528369945" y2="2.9335804933304273" class="delaunay-line"/>
<line x1="0.32427491528369945" y1="2.9335804933304273" x2="2.045513180510132" y2="11.285453964835593" class="delaunay-line"/>
<line x1="2.045513180510132" y1="11.285453964835593" x2="4.416265075658693" y2="7.321702703045448" class="delaunay-line"/>
<line x1="6.906458229856231" y1="-3.204404747232063" x2="9.852813065936964" y2="3.5478646635215996" class="delaunay-line"/>
<line x1="9.852813065936964" y1="3.5478646635215996" x2="10.998448390231225" y2="1.1837174624829578" class="delaunay-line"/>
<line x1="10.998448390231225" y1="1.1837174624829578" x2="6.906458229856231" y2="-3.204404747232063" class="delaunay-line"/>
<line x1="41.89401092168956" y1="-5.687790992085683" x2="6.906458229856231" y2="-3.204404747232063" class="delaunay-line"/>
<line x1="6.906458229856231" y1="-3.204404747232063" x2="13.207970486761443" y2="-1.4263607718086493" class="delaunay-line"/>
<line x1="13.207970486761443" y1="-1.4263607718086493" x2="41.89401092168956" y2="-5.687790992085683" class="delaunay-line"/>
<line x1="13.207970486761443" y1="-1.4263607718086493" x2="6.906458229856231" y2="-3.204404747232063" class="delaunay-line"/>
<line x1="6.906458229856231" y1="-3.204404747232063" x2="10.998448390231225" y2="1.1837174624829578" class="delaunay-line"/>
<line x1="10.998448390231225" y1="1.1837174624829578" x2="13.207970486761443" y2="-1.4263607718086493" class="delaunay-line"/>
<line x1="74.8724368036485" y1="21.822588134996888" x2="72" y2="0" class="delaunay-line"/>
<line x1="72" y1="0" x2="70.10316342554967" y2="14.190155269589052" class="delaunay-line"/>
<line x1="70.10316342554967" y1="14.190155269589052" x2="74.8724368036485" y2="21.822588134996888" class="delaunay-line"/>
<line x1="70.10316342554967" y1="14.190155269589052" x2="72" y2="0" class="delaunay-line"/>
<line x1="72" y1="0" x2="57.133551206635985" y2="9.533558665552283" class="delaunay-line"/>
<line x1="57.133551206635985" y1="9.533558665552283" x2="70.10316342554967" y2="14.190155269589052" class="delaunay-line"/>
<line x1="53.47292141895379" y1="1.3116495467688751" x2="72" y2="0" class="delaunay-line"/>
<line x1="72" y1="0" x2="41.89401092168956" y2="-5.687790992085683" class="delaunay-line"/>
<line x1="41.89401092168956" y1="-5.687790992085683" x2="53.47292141895379" y2="1.3116495467688751" class="delaunay-line"/>
<line x1="-5.368653543738473" y1="12.05227692671587" x2="2.882590865439636" y2="23.256222567953483" class="delaunay-line"/>
<line x1="2.882590865439636" y1="23.256222567953483" x2="1.625660109374265" y2="17.716160446164405" class="delaunay-line"/>
<line x1="1.625660109374265" y1="17.716160446164405" x2="-5.368653543738473" y2="12.05227692671587" class="delaunay-line"/>
<line x1="0" y1="48" x2="-1.919018495091131" y2="48.21543745785587" class="delaunay-line"/>
<line x1="-1.919018495091131" y1="48.21543745785587" x2="5.075295158021606" y2="53.8793209773044" class="delaunay-line"/>
<line x1="5.075295158021606" y1="53.8793209773044" x2="0" y2="48" class="delaunay-line"/>
<line x1="0" y1="0" x2="0.32427491528369945" y2="2.9335804933304273" class="delaunay-line"/>
<line x1="0.32427491528369945" y1="2.9335804933304273" x2="2.183191148859576" y2="2.7265253892322185" class="delaunay-line"/>
<line x1="2.183191148859576" y1="2.7265253892322185" x2="0" y2="0" class="delaunay-line"/>
<line x1="2.183191148859576" y1="2.7265253892322185" x2="0.32427491528369945" y2="2.9335804933304273" class="delaunay-line"/>
<line x1="0.32427491528369945" y1="2.9335804933304273" x2="4.416265075658693" y2="7.321702703045448" class="delaunay-line"/>
<line x1="4.416265075658693" y1="7.321702703045448" x2="2.183191148859576" y2="2.7265253892322185" class="delaunay-line"/>
<line x1="0.32427491528369945" y1="2.9335804933304273" x2="-5.368653543738473" y2="12.05227692671587" class="delaunay-line"/>
<line x1="-5.368653543738473" y1="12.05227692671587" x2="2.045513180510132" y2="11.285453964835593" class="delaunay-line"/>
<line x1="2.045513180510132" y1="11.285453964835593" x2="0.32427491528369945" y2="2.9335804933304273" class="delaunay-line"/>
<line x1="6.906458229856231" y1="-3.204404747232063" x2="0" y2="0" class="delaunay-line"/>
<line x1="0" y1="0" x2="2.183191148859576" y2="2.7265253892322185" class="delaunay-line"/>
<line x1="2.183191148859576" y1="2.7265253892322185" x2="6.906458229856231" y2="-3.204404747232063" class="delaunay-line"/>
<line x1="0.32427491528369945" y1="2.9335804933304273" x2="0" y2="0" class="delaunay-line"/>
<line x1="0" y1="0" x2="-5.368653543738473" y2="12.05227692671587" class="delaunay-line"/>
<line x1="-5.368653543738473" y1="12.05227692671587" x2="0.32427491528369945" y2="2.9335804933304273" class="delaunay-line"/>
</g>
<g id="layer-area" class="layer ">
<polygon points="53.47292141895379,1.3116495467688751 57.133551206635985,9.533558665552283 46.171005714924775,14.414398382461885 42.51037592724258,6.192489263678477" class="terrain-area"/>
<text x="49.82196356693929" y="7.863023964615381" class="label">#C49A6C</text>
<polygon points="20.669308639756817,3.6063753594280707 17.314151218932338,8.58060079475832 9.852813065936964,3.5478646635215996 13.207970486761443,-1.4263607718086493" class="terrain-area"/>
<text x="15.261060852846892" y="3.577120011474835" class="label">#C49A6C</text>
<polygon points="52.59227882151058,31.776135141904795 46.72339321710775,33.02360528681135 44.85218799974792,24.220276880207102 50.72107360415075,22.972806735300544" class="terrain-area"/>
<text x="48.72223341062925" y="27.99820601105595" class="label">#C49A6C</text>
<polygon points="35.296418926340344,43.379340815628744 25.11984177246323,37.020309644830284 33.0686307359613,24.299588202483896 43.24520788983842,30.658619373282356" class="terrain-area"/>
<text x="34.18252483115082" y="33.83946450905632" class="label">#C49A6C</text>
<polygon points="66.00162668459303,34.573936220283855 66.73284274502392,40.52921313013178 57.799927380252015,41.6260372207781 57.06871131982113,35.67076031093018" class="terrain-area"/>
<text x="61.900777032422525" y="38.09998672053098" class="label">#C49A6C</text>
<polygon points="55.56958878572038,38.59420127634519 45.861384853221004,45.64762430385487 37.04460606883391,33.51236938823065 46.75281000133328,26.458946360720976" class="terrain-area"/>
<text x="46.30709742727714" y="36.05328533228792" class="label">#C49A6C</text>
<polygon points="2.183191148859576,2.7265253892322185 9.177504801972315,8.390408908680755 1.625660109374265,17.716160446164405 -5.368653543738473,12.05227692671587" class="terrain-area"/>
<text x="1.9044256291169206" y="10.221342917698312" class="label">#C49A6C</text>
<polygon points="55.164412709395776,30.908078310197105 50.43634818775544,27.214109458243158 55.97730146568637,20.122012675782656 60.7053659873267,23.815981527736604" class="terrain-area"/>
<text x="55.57085708754107" y="25.515045492989877" class="label">#C49A6C</text>
<polygon points="4.416265075658693,7.321702703045448 0.32427491528369945,2.9335804933304273 6.906458229856231,-3.204404747232063 10.998448390231225,1.1837174624829578" class="terrain-area"/>
<text x="5.661361652757462" y="2.0586489779066923" class="label">#C49A6C</text>
<polygon points="63.384652994709995,32.595797895491565 58.46974072897604,29.154339277385283 63.63192865613545,21.781970878784357 68.5468409218694,25.223429496890635" class="terrain-area"/>
<text x="63.50829082542272" y="27.188884387137957" class="label">#C49A6C</text>
<polygon points="64.8499423416591,42.37226836043368 69.57800686329944,38.678299508479725 75.11896014123036,45.77039629094021 70.39089561959003,49.46436514289417" class="terrain-area"/>
<text x="69.98445124144473" y="44.071332325686946" class="label">#C49A6C</text>
<polygon points="32.18685464993292,2.2037820750943657 35.96277699623195,6.866657843836193 28.968463343119215,12.53054136328473 25.192540996820185,7.867665594542903" class="terrain-area"/>
<text x="30.577658996526065" y="7.367161719189547" class="label">#C49A6C</text>
<polygon points="5.075295158021606,53.8793209773044 -1.919018495091131,48.21543745785587 5.63282619750692,38.889685920372216 12.627139850619656,44.55356943982075" class="terrain-area"/>
<text x="5.354060677764263" y="46.384503448838316" class="label">#C49A6C</text>
<polygon points="13.917709632516877,43.370963120797455 2.955164140805661,38.49012340388785 9.056213786942658,24.786941539248836 20.018759278653874,29.667781256158435" class="terrain-area"/>
<text x="11.486961709729767" y="34.07895233002314" class="label">#C49A6C</text>
<polygon points="39.51385865175673,9.122167656470147 33.261933317625754,2.6481094534222884 41.89401092168956,-5.687790992085683 48.14593625582054,0.7862672109621762" class="terrain-area"/>
<text x="40.703934786723146" y="1.717188332192232" class="label">#C49A6C</text>
<polygon points="74.8724368036485,21.822588134996888 69.78414822670993,25.002103720396118 65.0148748486111,17.369670854988282 70.10316342554967,14.190155269589052" class="terrain-area"/>
<text x="69.9436558261298" y="19.596129494992585" class="label">#C49A6C</text>
<polygon points="17.008973934407496,10.239106858673711 17.846051619337,22.2098754617916 2.882590865439636,23.256222567953483 2.045513180510132,11.285453964835593" class="terrain-area"/>
<text x="9.945782399923567" y="16.747664713313597" class="label">#C49A6C</text>
<polygon points="16.678918715992058,37.519968761852454 24.39237003223053,46.71250207928019 12.901703385445863,56.35431622457828 5.1882520692073895,47.16178290715054" class="terrain-area"/>
<text x="14.790311050718959" y="46.93714249321536" class="label">#C49A6C</text>
<polygon points="41.77305990663784,13.787267367682745 47.56861486437225,15.34018163829787 45.239243458449565,24.033514074899486 39.443688500715155,22.48059980428436" class="terrain-area"/>
<text x="43.5061516825437" y="18.910390721291115" class="label">#C49A6C</text>
</g>
<g id="layer-building" class="layer ">
</g>
<g id="layer-wall" class="layer ">
</g>
<g id="layer-tree" class="layer ">
</g>
<g id="layer-rocks" class="layer ">
</g>
<g id="layer-shrub" class="layer ">
</g>
<g id="layer-terrain" class="layer ">
</g>
<g id="layer-clearance" class="layer hidden">
</g>
<g id="layer-models" class="layer ">
</g>
<g id="layer-paths" class="layer ">
</g>
<g id="layer-vectors" class="layer ">
</g>
<g id="layer-los" class="layer ">
</g>
<g id="layer-lof" class="layer ">
</g>

<g id="legend">
<g class="toggle" onclick="toggleLayer('deployment')"><rect x="0.4" y="0.14999999999999997" width="0.4" height="0.4" fill="#222" stroke="#222" stroke-width="0.05"/><text x="1.0" y="0.5499999999999999" class="label">Deployment Zones</text></g>
<g class="toggle" onclick="toggleLayer('grid')"><rect x="0.4" y="0.95" width="0.4" height="0.4" fill="#222" stroke="#222" stroke-width="0.05"/><text x="1.0" y="1.3499999999999999" class="label">0.5 MU Grid</text></g>
<g class="toggle" onclick="toggleLayer('delaunay')"><rect x="0.4" y="1.7500000000000002" width="0.4" height="0.4" fill="#222" stroke="#222" stroke-width="0.05"/><text x="1.0" y="2.1500000000000004" class="label">Delaunay Mesh</text></g>
<g class="toggle" onclick="toggleLayer('area')"><rect x="0.4" y="2.55" width="0.4" height="0.4" fill="#222" stroke="#222" stroke-width="0.05"/><text x="1.0" y="2.95" class="label">Area Terrain</text></g>
<g class="toggle disabled"><rect x="0.4" y="3.3499999999999996" width="0.4" height="0.4" fill="#222" stroke="#222" stroke-width="0.05"/><text x="1.0" y="3.75" class="label">Buildings</text></g>
<g class="toggle disabled"><rect x="0.4" y="4.1499999999999995" width="0.4" height="0.4" fill="#222" stroke="#222" stroke-width="0.05"/><text x="1.0" y="4.55" class="label">Walls</text></g>
<g class="toggle disabled"><rect x="0.4" y="4.949999999999999" width="0.4" height="0.4" fill="#222" stroke="#222" stroke-width="0.05"/><text x="1.0" y="5.35" class="label">Trees</text></g>
<g class="toggle disabled"><rect x="0.4" y="5.749999999999999" width="0.4" height="0.4" fill="#222" stroke="#222" stroke-width="0.05"/><text x="1.0" y="6.1499999999999995" class="label">Rocks</text></g>
<g class="toggle disabled"><rect x="0.4" y="6.549999999999999" width="0.4" height="0.4" fill="#222" stroke="#222" stroke-width="0.05"/><text x="1.0" y="6.949999999999999" class="label">Shrubs</text></g>
<g class="toggle" onclick="toggleLayer('terrain')"><rect x="0.4" y="7.349999999999999" width="0.4" height="0.4" fill="#222" stroke="#222" stroke-width="0.05"/><text x="1.0" y="7.749999999999999" class="label">Other Terrain</text></g>
<g class="toggle" onclick="toggleLayer('clearance')"><rect x="0.4" y="8.15" width="0.4" height="0.4" fill="#fff" stroke="#222" stroke-width="0.05"/><text x="1.0" y="8.549999999999999" class="label">Clearance Zones</text></g>
<g class="toggle" onclick="toggleLayer('models')"><rect x="0.4" y="8.950000000000001" width="0.4" height="0.4" fill="#222" stroke="#222" stroke-width="0.05"/><text x="1.0" y="9.35" class="label">Models</text></g>
<g class="toggle" onclick="toggleLayer('paths')"><rect x="0.4" y="9.750000000000002" width="0.4" height="0.4" fill="#222" stroke="#222" stroke-width="0.05"/><text x="1.0" y="10.15" class="label">Paths</text></g>
<g class="toggle" onclick="toggleLayer('vectors')"><rect x="0.4" y="10.550000000000002" width="0.4" height="0.4" fill="#222" stroke="#222" stroke-width="0.05"/><text x="1.0" y="10.950000000000001" class="label">Vectors</text></g>
<g class="toggle" onclick="toggleLayer('los')"><rect x="0.4" y="11.350000000000003" width="0.4" height="0.4" fill="#222" stroke="#222" stroke-width="0.05"/><text x="1.0" y="11.750000000000002" class="label">LOS</text></g>
<g class="toggle" onclick="toggleLayer('lof')"><rect x="0.4" y="12.150000000000004" width="0.4" height="0.4" fill="#222" stroke="#222" stroke-width="0.05"/><text x="1.0" y="12.550000000000002" class="label">LOF</text></g>
</g>
</svg>