<svg xmlns="http://www.w3.org/2000/svg" viewBox="0 0 48 48" width="1920" height="1920" font-family="Arial" font-size="0.6">
<defs>
  <style><![CDATA[
    .layer { display: inline; }
    .layer.hidden { display: none; }
    .grid-line { stroke: #999; stroke-width: 0.02; opacity: 0.2; }
    .grid-line-2mu { stroke: #666; stroke-width: 0.04; opacity: 0.4; }
    .grid-line-6mu { stroke: #333; stroke-width: 0.08; opacity: 0.6; }
    .delaunay-line { stroke: #4a6fa5; stroke-width: 0.03; opacity: 0.3; }
    #layer-area { opacity: 0.8; }
    #layer-building, #layer-wall, #layer-tree, #layer-rocks, #layer-shrub, #layer-terrain { opacity: 0.8; }
    .terrain-area { stroke: none; }
    .terrain-solid { stroke: #000; stroke-width: 0.05; }
    .model { stroke: #ff0000; stroke-width: 2; vector-effect: non-scaling-stroke; }
    .path { fill: none; stroke-width: 0.12; }
    .vector { stroke-width: 0.1; }
    .los-ray { stroke-width: 0.08; stroke-dasharray: 0.2 0.2; }
    .lof-ray { stroke-width: 0.08; stroke-dasharray: 0.3 0.15; }
    .label { fill: #111 !important; font-size: 0.6px; }
    .toggle { cursor: pointer; }
    .toggle.disabled { cursor: default; }
    .toggle.disabled rect { stroke: #ccc; fill: #fff; }
    .toggle.disabled text { fill: #ccc; }
#layer-area { fill: #C49A6C; }
  ]]></style>
</defs>
<rect x="0" y="0" width="48" height="48" fill="#ffffff" stroke="#111" stroke-width="0.05"/>
<script><![CDATA[
      function toggleLayer(id) {
        var layer = document.getElementById('layer-' + id);
        if (!layer) return;
        if (layer.classList.contains('hidden')) {
          layer.classList.remove('hidden');
        } else {
          layer.classList.add('hidden');
        }
      }
    ]]></script>
<text x="0.4" y="47.6" class="label">Generated Battlefield MEDIUM</text>
<g id="layer-deployment" class="layer ">
</g>
<g id="layer-grid" class="layer ">
<line x1="0" y1="0" x2="0" y2="48" class="grid-line-6mu"/>
<line x1="0.5" y1="0" x2="0.5" y2="48" class="grid-line"/>
<line x1="1" y1="0" x2="1" y2="48" class="grid-line"/>
<line x1="1.5" y1="0" x2="1.5" y2="48" class="grid-line"/>
<line x1="2" y1="0" x2="2" y2="48" class="grid-line-2mu"/>
<line x1="2.5" y1="0" x2="2.5" y2="48" class="grid-line"/>
<line x1="3" y1="0" x2="3" y2="48" class="grid-line"/>
<line x1="3.5" y1="0" x2="3.5" y2="48" class="grid-line"/>
<line x1="4" y1="0" x2="4" y2="48" class="grid-line-2mu"/>
<line x1="4.5" y1="0" x2="4.5" y2="48" class="grid-line"/>
<line x1="5" y1="0" x2="5" y2="48" class="grid-line"/>
<line x1="5.5" y1="0" x2="5.5" y2="48" class="grid-line"/>
<line x1="6" y1="0" x2="6" y2="48" class="grid-line-6mu"/>
<line x1="6.5" y1="0" x2="6.5" y2="48" class="grid-line"/>
<line x1="7" y1="0" x2="7" y2="48" class="grid-line"/>
<line x1="7.5" y1="0" x2="7.5" y2="48" class="grid-line"/>
<line x1="8" y1="0" x2="8" y2="48" class="grid-line-2mu"/>
<line x1="8.5" y1="0" x2="8.5" y2="48" class="grid-line"/>
<line x1="9" y1="0" x2="9" y2="48" class="grid-line"/>
<line x1="9.5" y1="0" x2="9.5" y2="48" class="grid-line"/>
<line x1="10" y1="0" x2="10" y2="48" class="grid-line-2mu"/>
<line x1="10.5" y1="0" x2="10.5" y2="48" class="grid-line"/>
<line x1="11" y1="0" x2="11" y2="48" class="grid-line"/>
<line x1="11.5" y1="0" x2="11.5" y2="48" class="grid-line"/>
<line x1="12" y1="0" x2="12" y2="48" class="grid-line-6mu"/>
<line x1="12.5" y1="0" x2="12.5" y2="48" class="grid-line"/>
<line x1="13" y1="0" x2="13" y2="48" class="grid-line"/>
<line x1="13.5" y1="0" x2="13.5" y2="48" class="grid-line"/>
<line x1="14" y1="0" x2="14" y2="48" class="grid-line-2mu"/>
<line x1="14.5" y1="0" x2="14.5" y2="48" class="grid-line"/>
<line x1="15" y1="0" x2="15" y2="48" class="grid-line"/>
<line x1="15.5" y1="0" x2="15.5" y2="48" class="grid-line"/>
<line x1="16" y1="0" x2="16" y2="48" class="grid-line-2mu"/>
<line x1="16.5" y1="0" x2="16.5" y2="48" class="grid-line"/>
<line x1="17" y1="0" x2="17" y2="48" class="grid-line"/>
<line x1="17.5" y1="0" x2="17.5" y2="48" class="grid-line"/>
<line x1="18" y1="0" x2="18" y2="48" class="grid-line-6mu"/>
<line x1="18.5" y1="0" x2="18.5" y2="48" class="grid-line"/>
<line x1="19" y1="0" x2="19" y2="48" class="grid-line"/>
<line x1="19.5" y1="0" x2="19.5" y2="48" class="grid-line"/>
<line x1="20" y1="0" x2="20" y2="48" class="grid-line-2mu"/>
<line x1="20.5" y1="0" x2="20.5" y2="48" class="grid-line"/>
<line x1="21" y1="0" x2="21" y2="48" class="grid-line"/>
<line x1="21.5" y1="0" x2="21.5" y2="48" class="grid-line"/>
<line x1="22" y1="0" x2="22" y2="48" class="grid-line-2mu"/>
<line x1="22.5" y1="0" x2="22.5" y2="48" class="grid-line"/>
<line x1="23" y1="0" x2="23" y2="48" class="grid-line"/>
<line x1="23.5" y1="0" x2="23.5" y2="48" class="grid-line"/>
<line x1="24" y1="0" x2="24" y2="48" class="grid-line-6mu"/>
<line x1="24.5" y1="0" x2="24.5" y2="48" class="grid-line"/>
<line x1="25" y1="0" x2="25" y2="48" class="grid-line"/>
<line x1="25.5" y1="0" x2="25.5" y2="48" class="grid-line"/>
<line x1="26" y1="0" x2="26" y2="48" class="grid-line-2mu"/>
<line x1="26.5" y1="0" x2="26.5" y2="48" class="grid-line"/>
<line x1="27" y1="0" x2="27" y2="48" class="grid-line"/>
<line x1="27.5" y1="0" x2="27.5" y2="48" class="grid-line"/>
<line x1="28" y1="0" x2="28" y2="48" class="grid-line-2mu"/>
<line x1="28.5" y1="0" x2="28.5" y2="48" class="grid-line"/>
<line x1="29" y1="0" x2="29" y2="48" class="grid-line"/>
<line x1="29.5" y1="0" x2="29.5" y2="48" class="grid-line"/>
<line x1="30" y1="0" x2="30" y2="48" class="grid-line-6mu"/>
<line x1="30.5" y1="0" x2="30.5" y2="48" class="grid-line"/>
<line x1="31" y1="0" x2="31" y2="48" class="grid-line"/>
<line x1="31.5" y1="0" x2="31.5" y2="48" class="grid-line"/>
<line x1="32" y1="0" x2="32" y2="48" class="grid-line-2mu"/>
<line x1="32.5" y1="0" x2="32.5" y2="48" class="grid-line"/>
<line x1="33" y1="0" x2="33" y2="48" class="grid-line"/>
<line x1="33.5" y1="0" x2="33.5" y2="48" class="grid-line"/>
<line x1="34" y1="0" x2="34" y2="48" class="grid-line-2mu"/>
<line x1="34.5" y1="0" x2="34.5" y2="48" class="grid-line"/>
<line x1="35" y1="0" x2="35" y2="48" class="grid-line"/>
<line x1="35.5" y1="0" x2="35.5" y2="48" class="grid-line"/>
<line x1="36" y1="0" x2="36" y2="48" class="grid-line-6mu"/>
<line x1="36.5" y1="0" x2="36.5" y2="48" class="grid-line"/>
<line x1="37" y1="0" x2="37" y2="48" class="grid-line"/>
<line x1="37.5" y1="0" x2="37.5" y2="48" class="grid-line"/>
<line x1="38" y1="0" x2="38" y2="48" class="grid-line-2mu"/>
<line x1="38.5" y1="0" x2="38.5" y2="48" class="grid-line"/>
<line x1="39" y1="0" x2="39" y2="48" class="grid-line"/>
<line x1="39.5" y1="0" x2="39.5" y2="48" class="grid-line"/>
<line x1="40" y1="0" x2="40" y2="48" class="grid-line-2mu"/>
<line x1="40.5" y1="0" x2="40.5" y2="48" class="grid-line"/>
<line x1="41" y1="0" x2="41" y2="48" class="grid-line"/>
<line x1="41.5" y1="0" x2="41.5" y2="48" class="grid-line"/>
<line x1="42" y1="0" x2="42" y2="48" class="grid-line-6mu"/>
<line x1="42.5" y1="0" x2="42.5" y2="48" class="grid-line"/>
<line x1="43" y1="0" x2="43" y2="48" class="grid-line"/>
<line x1="43.5" y1="0" x2="43.5" y2="48" class="grid-line"/>
<line x1="44" y1="0" x2="44" y2="48" class="grid-line-2mu"/>
<line x1="44.5" y1="0" x2="44.5" y2="48" class="grid-line"/>
<line x1="45" y1="0" x2="45" y2="48" class="grid-line"/>
<line x1="45.5" y1="0" x2="45.5" y2="48" class="grid-line"/>
<line x1="46" y1="0" x2="46" y2="48" class="grid-line-2mu"/>
<line x1="46.5" y1="0" x2="46.5" y2="48" class="grid-line"/>
<line x1="47" y1="0" x2="47" y2="48" class="grid-line"/>
<line x1="47.5" y1="0" x2="47.5" y2="48" class="grid-line"/>
<line x1="48" y1="0" x2="48" y2="48" class="grid-line-6mu"/>
<line x1="0" y1="0" x2="48" y2="0" class="grid-line-6mu"/>
<line x1="0" y1="0.5" x2="48" y2="0.5" class="grid-line"/>
<line x1="0" y1="1" x2="48" y2="1" class="grid-line"/>
<line x1="0" y1="1.5" x2="48" y2="1.5" class="grid-line"/>
<line x1="0" y1="2" x2="48" y2="2" class="grid-line-2mu"/>
<line x1="0" y1="2.5" x2="48" y2="2.5" class="grid-line"/>
<line x1="0" y1="3" x2="48" y2="3" class="grid-line"/>
<line x1="0" y1="3.5" x2="48" y2="3.5" class="grid-line"/>
<line x1="0" y1="4" x2="48" y2="4" class="grid-line-2mu"/>
<line x1="0" y1="4.5" x2="48" y2="4.5" class="grid-line"/>
<line x1="0" y1="5" x2="48" y2="5" class="grid-line"/>
<line x1="0" y1="5.5" x2="48" y2="5.5" class="grid-line"/>
<line x1="0" y1="6" x2="48" y2="6" class="grid-line-6mu"/>
<line x1="0" y1="6.5" x2="48" y2="6.5" class="grid-line"/>
<line x1="0" y1="7" x2="48" y2="7" class="grid-line"/>
<line x1="0" y1="7.5" x2="48" y2="7.5" class="grid-line"/>
<line x1="0" y1="8" x2="48" y2="8" class="grid-line-2mu"/>
<line x1="0" y1="8.5" x2="48" y2="8.5" class="grid-line"/>
<line x1="0" y1="9" x2="48" y2="9" class="grid-line"/>
<line x1="0" y1="9.5" x2="48" y2="9.5" class="grid-line"/>
<line x1="0" y1="10" x2="48" y2="10" class="grid-line-2mu"/>
<line x1="0" y1="10.5" x2="48" y2="10.5" class="grid-line"/>
<line x1="0" y1="11" x2="48" y2="11" class="grid-line"/>
<line x1="0" y1="11.5" x2="48" y2="11.5" class="grid-line"/>
<line x1="0" y1="12" x2="48" y2="12" class="grid-line-6mu"/>
<line x1="0" y1="12.5" x2="48" y2="12.5" class="grid-line"/>
<line x1="0" y1="13" x2="48" y2="13" class="grid-line"/>
<line x1="0" y1="13.5" x2="48" y2="13.5" class="grid-line"/>
<line x1="0" y1="14" x2="48" y2="14" class="grid-line-2mu"/>
<line x1="0" y1="14.5" x2="48" y2="14.5" class="grid-line"/>
<line x1="0" y1="15" x2="48" y2="15" class="grid-line"/>
<line x1="0" y1="15.5" x2="48" y2="15.5" class="grid-line"/>
<line x1="0" y1="16" x2="48" y2="16" class="grid-line-2mu"/>
<line x1="0" y1="16.5" x2="48" y2="16.5" class="grid-line"/>
<line x1="0" y1="17" x2="48" y2="17" class="grid-line"/>
<line x1="0" y1="17.5" x2="48" y2="17.5" class="grid-line"/>
<line x1="0" y1="18" x2="48" y2="18" class="grid-line-6mu"/>
<line x1="0" y1="18.5" x2="48" y2="18.5" class="grid-line"/>
<line x1="0" y1="19" x2="48" y2="19" class="grid-line"/>
<line x1="0" y1="19.5" x2="48" y2="19.5" class="grid-line"/>
<line x1="0" y1="20" x2="48" y2="20" class="grid-line-2mu"/>
<line x1="0" y1="20.5" x2="48" y2="20.5" class="grid-line"/>
<line x1="0" y1="21" x2="48" y2="21" class="grid-line"/>
<line x1="0" y1="21.5" x2="48" y2="21.5" class="grid-line"/>
<line x1="0" y1="22" x2="48" y2="22" class="grid-line-2mu"/>
<line x1="0" y1="22.5" x2="48" y2="22.5" class="grid-line"/>
<line x1="0" y1="23" x2="48" y2="23" class="grid-line"/>
<line x1="0" y1="23.5" x2="48" y2="23.5" class="grid-line"/>
<line x1="0" y1="24" x2="48" y2="24" class="grid-line-6mu"/>
<line x1="0" y1="24.5" x2="48" y2="24.5" class="grid-line"/>
<line x1="0" y1="25" x2="48" y2="25" class="grid-line"/>
<line x1="0" y1="25.5" x2="48" y2="25.5" class="grid-line"/>
<line x1="0" y1="26" x2="48" y2="26" class="grid-line-2mu"/>
<line x1="0" y1="26.5" x2="48" y2="26.5" class="grid-line"/>
<line x1="0" y1="27" x2="48" y2="27" class="grid-line"/>
<line x1="0" y1="27.5" x2="48" y2="27.5" class="grid-line"/>
<line x1="0" y1="28" x2="48" y2="28" class="grid-line-2mu"/>
<line x1="0" y1="28.5" x2="48" y2="28.5" class="grid-line"/>
<line x1="0" y1="29" x2="48" y2="29" class="grid-line"/>
<line x1="0" y1="29.5" x2="48" y2="29.5" class="grid-line"/>
<line x1="0" y1="30" x2="48" y2="30" class="grid-line-6mu"/>
<line x1="0" y1="30.5" x2="48" y2="30.5" class="grid-line"/>
<line x1="0" y1="31" x2="48" y2="31" class="grid-line"/>
<line x1="0" y1="31.5" x2="48" y2="31.5" class="grid-line"/>
<line x1="0" y1="32" x2="48" y2="32" class="grid-line-2mu"/>
<line x1="0" y1="32.5" x2="48" y2="32.5" class="grid-line"/>
<line x1="0" y1="33" x2="48" y2="33" class="grid-line"/>
<line x1="0" y1="33.5" x2="48" y2="33.5" class="grid-line"/>
<line x1="0" y1="34" x2="48" y2="34" class="grid-line-2mu"/>
<line x1="0" y1="34.5" x2="48" y2="34.5" class="grid-line"/>
<line x1="0" y1="35" x2="48" y2="35" class="grid-line"/>
<line x1="0" y1="35.5" x2="48" y2="35.5" class="grid-line"/>
<line x1="0" y1="36" x2="48" y2="36" class="grid-line-6mu"/>
<line x1="0" y1="36.5" x2="48" y2="36.5" class="grid-line"/>
<line x1="0" y1="37" x2="48" y2="37" class="grid-line"/>
<line x1="0" y1="37.5" x2="48" y2="37.5" class="grid-line"/>
<line x1="0" y1="38" x2="48" y2="38" class="grid-line-2mu"/>
<line x1="0" y1="38.5" x2="48" y2="38.5" class="grid-line"/>
<line x1="0" y1="39" x2="48" y2="39" class="grid-line"/>
<line x1="0" y1="39.5" x2="48" y2="39.5" class="grid-line"/>
<line x1="0" y1="40" x2="48" y2="40" class="grid-line-2mu"/>
<line x1="0" y1="40.5" x2="48" y2="40.5" class="grid-line"/>
<line x1="0" y1="41" x2="48" y2="41" class="grid-line"/>
<line x1="0" y1="41.5" x2="48" y2="41.5" class="grid-line"/>
<line x1="0" y1="42" x2="48" y2="42" class="grid-line-6mu"/>
<line x1="0" y1="42.5" x2="48" y2="42.5" class="grid-line"/>
<line x1="0" y1="43" x2="48" y2="43" class="grid-line"/>
<line x1="0" y1="43.5" x2="48" y2="43.5" class="grid-line"/>
<line x1="0" y1="44" x2="48" y2="44" class="grid-line-2mu"/>
<line x1="0" y1="44.5" x2="48" y2="44.5" class="grid-line"/>
<line x1="0" y1="45" x2="48" y2="45" class="grid-line"/>
<line x1="0" y1="45.5" x2="48" y2="45.5" class="grid-line"/>
<line x1="0" y1="46" x2="48" y2="46" class="grid-line-2mu"/>
<line x1="0" y1="46.5" x2="48" y2="46.5" class="grid-line"/>
<line x1="0" y1="47" x2="48" y2="47" class="grid-line"/>
<line x1="0" y1="47.5" x2="48" y2="47.5" class="grid-line"/>
<line x1="0" y1="48" x2="48" y2="48" class="grid-line-6mu"/>
</g>
<g id="layer-delaunay" class="layer ">
<line x1="26.122529641894932" y1="24.0773612724445" x2="24.073056950941268" y2="21.622095056617926" class="delaunay-line"/>
<line x1="24.073056950941268" y1="21.622095056617926" x2="18.876904528234636" y2="24.622095056617926" class="delaunay-line"/>
<line x1="18.876904528234636" y1="24.622095056617926" x2="26.122529641894932" y2="24.0773612724445" class="delaunay-line"/>
<line x1="18.876904528234636" y1="24.622095056617926" x2="18.402044323932408" y2="27.959646948982314" class="delaunay-line"/>
<line x1="18.402044323932408" y1="27.959646948982314" x2="26.122529641894932" y2="24.0773612724445" class="delaunay-line"/>
<line x1="26.122529641894932" y1="24.0773612724445" x2="18.876904528234636" y2="24.622095056617926" class="delaunay-line"/>
<line x1="18.402044323932408" y1="27.959646948982314" x2="23.01670110066468" y2="35.66847118791332" class="delaunay-line"/>
<line x1="23.01670110066468" y1="35.66847118791332" x2="26.122529641894932" y2="24.0773612724445" class="delaunay-line"/>
<line x1="26.122529641894932" y1="24.0773612724445" x2="18.402044323932408" y2="27.959646948982314" class="delaunay-line"/>
<line x1="23.287443921416504" y1="8.978535996189228" x2="19.573056950941268" y2="13.827866422557978" class="delaunay-line"/>
<line x1="19.573056950941268" y1="13.827866422557978" x2="24.073056950941268" y2="21.622095056617926" class="delaunay-line"/>
<line x1="24.073056950941268" y1="21.622095056617926" x2="23.287443921416504" y2="8.978535996189228" class="delaunay-line"/>
<line x1="24.073056950941268" y1="21.622095056617926" x2="19.573056950941268" y2="13.827866422557978" class="delaunay-line"/>
<line x1="19.573056950941268" y1="13.827866422557978" x2="18.876904528234636" y2="24.622095056617926" class="delaunay-line"/>
<line x1="18.876904528234636" y1="24.622095056617926" x2="24.073056950941268" y2="21.622095056617926" class="delaunay-line"/>
<line x1="18.876904528234636" y1="24.622095056617926" x2="3.9131569295963846" y2="24.077361272444502" class="delaunay-line"/>
<line x1="3.9131569295963846" y1="24.077361272444502" x2="18.402044323932408" y2="27.959646948982314" class="delaunay-line"/>
<line x1="18.402044323932408" y1="27.959646948982314" x2="18.876904528234636" y2="24.622095056617926" class="delaunay-line"/>
<line x1="19.573056950941268" y1="13.827866422557978" x2="14.376904528234636" y2="16.827866422557978" class="delaunay-line"/>
<line x1="14.376904528234636" y1="16.827866422557978" x2="18.876904528234636" y2="24.622095056617926" class="delaunay-line"/>
<line x1="18.876904528234636" y1="24.622095056617926" x2="19.573056950941268" y2="13.827866422557978" class="delaunay-line"/>
<line x1="23.287443921416504" y1="8.978535996189228" x2="17.491888963682094" y2="10.531450266804354" class="delaunay-line"/>
<line x1="17.491888963682094" y1="10.531450266804354" x2="19.573056950941268" y2="13.827866422557978" class="delaunay-line"/>
<line x1="19.573056950941268" y1="13.827866422557978" x2="23.287443921416504" y2="8.978535996189228" class="delaunay-line"/>
<line x1="19.573056950941268" y1="13.827866422557978" x2="17.491888963682094" y2="10.531450266804354" class="delaunay-line"/>
<line x1="17.491888963682094" y1="10.531450266804354" x2="14.376904528234636" y2="16.827866422557978" class="delaunay-line"/>
<line x1="14.376904528234636" y1="16.827866422557978" x2="19.573056950941268" y2="13.827866422557978" class="delaunay-line"/>
<line x1="17.491888963682094" y1="10.531450266804354" x2="12" y2="13.5" class="delaunay-line"/>
<line x1="12" y1="13.5" x2="14.376904528234636" y2="16.827866422557978" class="delaunay-line"/>
<line x1="14.376904528234636" y1="16.827866422557978" x2="17.491888963682094" y2="10.531450266804354" class="delaunay-line"/>
<line x1="0.8073283883661357" y1="35.66847118791332" x2="15.296215782702161" y2="39.55075686445114" class="delaunay-line"/>
<line x1="15.296215782702161" y1="39.55075686445114" x2="18.402044323932408" y2="27.959646948982314" class="delaunay-line"/>
<line x1="18.402044323932408" y1="27.959646948982314" x2="0.8073283883661357" y2="35.66847118791332" class="delaunay-line"/>
<line x1="32.6935583546266" y1="10.80544123022596" x2="23.287443921416504" y2="8.978535996189228" class="delaunay-line"/>
<line x1="23.287443921416504" y1="8.978535996189228" x2="24.073056950941268" y2="21.622095056617926" class="delaunay-line"/>
<line x1="24.073056950941268" y1="21.622095056617926" x2="32.6935583546266" y2="10.80544123022596" class="delaunay-line"/>
<line x1="18.402044323932408" y1="27.959646948982314" x2="15.296215782702161" y2="39.55075686445114" class="delaunay-line"/>
<line x1="15.296215782702161" y1="39.55075686445114" x2="23.01670110066468" y2="35.66847118791332" class="delaunay-line"/>
<line x1="23.01670110066468" y1="35.66847118791332" x2="18.402044323932408" y2="27.959646948982314" class="delaunay-line"/>
<line x1="3.9131569295963846" y1="24.077361272444502" x2="18.876904528234636" y2="24.622095056617926" class="delaunay-line"/>
<line x1="18.876904528234636" y1="24.622095056617926" x2="14.376904528234636" y2="16.827866422557978" class="delaunay-line"/>
<line x1="14.376904528234636" y1="16.827866422557978" x2="3.9131569295963846" y2="24.077361272444502" class="delaunay-line"/>
<line x1="40.611417036230954" y1="27.959646948982318" x2="32.6935583546266" y2="10.80544123022596" class="delaunay-line"/>
<line x1="32.6935583546266" y1="10.80544123022596" x2="26.122529641894932" y2="24.0773612724445" class="delaunay-line"/>
<line x1="26.122529641894932" y1="24.0773612724445" x2="40.611417036230954" y2="27.959646948982318" class="delaunay-line"/>
<line x1="26.122529641894932" y1="24.0773612724445" x2="32.6935583546266" y2="10.80544123022596" class="delaunay-line"/>
<line x1="32.6935583546266" y1="10.80544123022596" x2="24.073056950941268" y2="21.622095056617926" class="delaunay-line"/>
<line x1="24.073056950941268" y1="21.622095056617926" x2="26.122529641894932" y2="24.0773612724445" class="delaunay-line"/>
<line x1="37.5055884950007" y1="39.55075686445114" x2="40.611417036230954" y2="27.959646948982318" class="delaunay-line"/>
<line x1="40.611417036230954" y1="27.959646948982318" x2="23.01670110066468" y2="35.66847118791332" class="delaunay-line"/>
<line x1="23.01670110066468" y1="35.66847118791332" x2="37.5055884950007" y2="39.55075686445114" class="delaunay-line"/>
<line x1="23.01670110066468" y1="35.66847118791332" x2="40.611417036230954" y2="27.959646948982318" class="delaunay-line"/>
<line x1="40.611417036230954" y1="27.959646948982318" x2="26.122529641894932" y2="24.0773612724445" class="delaunay-line"/>
<line x1="26.122529641894932" y1="24.0773612724445" x2="23.01670110066468" y2="35.66847118791332" class="delaunay-line"/>
<line x1="12" y1="13.5" x2="3.9131569295963846" y2="24.077361272444502" class="delaunay-line"/>
<line x1="3.9131569295963846" y1="24.077361272444502" x2="14.376904528234636" y2="16.827866422557978" class="delaunay-line"/>
<line x1="14.376904528234636" y1="16.827866422557978" x2="12" y2="13.5" class="delaunay-line"/>
<line x1="15.296215782702161" y1="39.55075686445114" x2="37.5055884950007" y2="39.55075686445114" class="delaunay-line"/>
<line x1="37.5055884950007" y1="39.55075686445114" x2="23.01670110066468" y2="35.66847118791332" class="delaunay-line"/>
<line x1="23.01670110066468" y1="35.66847118791332" x2="15.296215782702161" y2="39.55075686445114" class="delaunay-line"/>
<line x1="12" y1="1.5" x2="3" y2="13.5" class="delaunay-line"/>
<line x1="3" y1="13.5" x2="12" y2="13.5" class="delaunay-line"/>
<line x1="12" y1="13.5" x2="12" y2="1.5" class="delaunay-line"/>
<line x1="12" y1="13.5" x2="3" y2="13.5" class="delaunay-line"/>
<line x1="3" y1="13.5" x2="3.9131569295963846" y2="24.077361272444502" class="delaunay-line"/>
<line x1="3.9131569295963846" y1="24.077361272444502" x2="12" y2="13.5" class="delaunay-line"/>
<line x1="12" y1="1.5" x2="12" y2="13.5" class="delaunay-line"/>
<line x1="12" y1="13.5" x2="17.491888963682094" y2="10.531450266804354" class="delaunay-line"/>
<line x1="17.491888963682094" y1="10.531450266804354" x2="12" y2="1.5" class="delaunay-line"/>
<line x1="32.6935583546266" y1="10.80544123022596" x2="28.193558354626603" y2="3.0112125961660094" class="delaunay-line"/>
<line x1="28.193558354626603" y1="3.0112125961660094" x2="23.287443921416504" y2="8.978535996189228" class="delaunay-line"/>
<line x1="23.287443921416504" y1="8.978535996189228" x2="32.6935583546266" y2="10.80544123022596" class="delaunay-line"/>
<line x1="20.95807251549381" y1="0.2852035595876137" x2="15.162517557759402" y2="1.8381178302027399" class="delaunay-line"/>
<line x1="15.162517557759402" y1="1.8381178302027399" x2="17.491888963682094" y2="10.531450266804354" class="delaunay-line"/>
<line x1="17.491888963682094" y1="10.531450266804354" x2="20.95807251549381" y2="0.2852035595876137" class="delaunay-line"/>
<line x1="40.611417036230954" y1="27.959646948982318" x2="37.889710777333235" y2="7.805441230225958" class="delaunay-line"/>
<line x1="37.889710777333235" y1="7.805441230225958" x2="32.6935583546266" y2="10.80544123022596" class="delaunay-line"/>
<line x1="32.6935583546266" y1="10.80544123022596" x2="40.611417036230954" y2="27.959646948982318" class="delaunay-line"/>
<line x1="32.6935583546266" y1="10.80544123022596" x2="37.889710777333235" y2="7.805441230225958" class="delaunay-line"/>
<line x1="37.889710777333235" y1="7.805441230225958" x2="28.193558354626603" y2="3.0112125961660094" class="delaunay-line"/>
<line x1="28.193558354626603" y1="3.0112125961660094" x2="32.6935583546266" y2="10.80544123022596" class="delaunay-line"/>
<line x1="3" y1="13.5" x2="0.8073283883661357" y2="35.66847118791332" class="delaunay-line"/>
<line x1="0.8073283883661357" y1="35.66847118791332" x2="3.9131569295963846" y2="24.077361272444502" class="delaunay-line"/>
<line x1="3.9131569295963846" y1="24.077361272444502" x2="3" y2="13.5" class="delaunay-line"/>
<line x1="3.9131569295963846" y1="24.077361272444502" x2="0.8073283883661357" y2="35.66847118791332" class="delaunay-line"/>
<line x1="0.8073283883661357" y1="35.66847118791332" x2="18.402044323932408" y2="27.959646948982314" class="delaunay-line"/>
<line x1="18.402044323932408" y1="27.959646948982314" x2="3.9131569295963846" y2="24.077361272444502" class="delaunay-line"/>
<line x1="20.95807251549381" y1="0.2852035595876137" x2="17.491888963682094" y2="10.531450266804354" class="delaunay-line"/>
<line x1="17.491888963682094" y1="10.531450266804354" x2="23.287443921416504" y2="8.978535996189228" class="delaunay-line"/>
<line x1="23.287443921416504" y1="8.978535996189228" x2="20.95807251549381" y2="0.2852035595876137" class="delaunay-line"/>
<line x1="28.193558354626603" y1="3.0112125961660094" x2="20.95807251549381" y2="0.2852035595876137" class="delaunay-line"/>
<line x1="20.95807251549381" y1="0.2852035595876137" x2="23.287443921416504" y2="8.978535996189228" class="delaunay-line"/>
<line x1="23.287443921416504" y1="8.978535996189228" x2="28.193558354626603" y2="3.0112125961660094" class="delaunay-line"/>
<line x1="20.95807251549381" y1="0.2852035595876137" x2="12" y2="1.5" class="delaunay-line"/>
<line x1="12" y1="1.5" x2="15.162517557759402" y2="1.8381178302027399" class="delaunay-line"/>
<line x1="15.162517557759402" y1="1.8381178302027399" x2="20.95807251549381" y2="0.2852035595876137" class="delaunay-line"/>
<line x1="15.162517557759402" y1="1.8381178302027399" x2="12" y2="1.5" class="delaunay-line"/>
<line x1="12" y1="1.5" x2="17.491888963682094" y2="10.531450266804354" class="delaunay-line"/>
<line x1="17.491888963682094" y1="10.531450266804354" x2="15.162517557759402" y2="1.8381178302027399" class="delaunay-line"/>
<line x1="28.193558354626603" y1="3.0112125961660094" x2="33.389710777333235" y2="0.011212596166009448" class="delaunay-line"/>
<line x1="33.389710777333235" y1="0.011212596166009448" x2="20.95807251549381" y2="0.2852035595876137" class="delaunay-line"/>
<line x1="20.95807251549381" y1="0.2852035595876137" x2="28.193558354626603" y2="3.0112125961660094" class="delaunay-line"/>
<line x1="37.889710777333235" y1="7.805441230225958" x2="33.389710777333235" y2="0.011212596166009448" class="delaunay-line"/>
<line x1="33.389710777333235" y1="0.011212596166009448" x2="28.193558354626603" y2="3.0112125961660094" class="delaunay-line"/>
<line x1="28.193558354626603" y1="3.0112125961660094" x2="37.889710777333235" y2="7.805441230225958" class="delaunay-line"/>
<line x1="12" y1="1.5" x2="3" y2="1.5" class="delaunay-line"/>
<line x1="3" y1="1.5" x2="3" y2="13.5" class="delaunay-line"/>
<line x1="3" y1="13.5" x2="12" y2="1.5" class="delaunay-line"/>
<line x1="3" y1="13.5" x2="0" y2="0" class="delaunay-line"/>
<line x1="0" y1="0" x2="0.8073283883661357" y2="35.66847118791332" class="delaunay-line"/>
<line x1="0.8073283883661357" y1="35.66847118791332" x2="3" y2="13.5" class="delaunay-line"/>
<line x1="0" y1="0" x2="3" y2="1.5" class="delaunay-line"/>
<line x1="3" y1="1.5" x2="12" y2="1.5" class="delaunay-line"/>
<line x1="12" y1="1.5" x2="0" y2="0" class="delaunay-line"/>
<line x1="0" y1="0" x2="0" y2="48" class="delaunay-line"/>
<line x1="0" y1="48" x2="0.8073283883661357" y2="35.66847118791332" class="delaunay-line"/>
<line x1="0.8073283883661357" y1="35.66847118791332" x2="0" y2="0" class="delaunay-line"/>
<line x1="0.8073283883661357" y1="35.66847118791332" x2="0" y2="48" class="delaunay-line"/>
<line x1="0" y1="48" x2="15.296215782702161" y2="39.55075686445114" class="delaunay-line"/>
<line x1="15.296215782702161" y1="39.55075686445114" x2="0.8073283883661357" y2="35.66847118791332" class="delaunay-line"/>
<line x1="15.296215782702161" y1="39.55075686445114" x2="48" y2="48" class="delaunay-line"/>
<line x1="48" y1="48" x2="37.5055884950007" y2="39.55075686445114" class="delaunay-line"/>
<line x1="37.5055884950007" y1="39.55075686445114" x2="15.296215782702161" y2="39.55075686445114" class="delaunay-line"/>
<line x1="20.95807251549381" y1="0.2852035595876137" x2="0" y2="0" class="delaunay-line"/>
<line x1="0" y1="0" x2="12" y2="1.5" class="delaunay-line"/>
<line x1="12" y1="1.5" x2="20.95807251549381" y2="0.2852035595876137" class="delaunay-line"/>
<line x1="3" y1="1.5" x2="0" y2="0" class="delaunay-line"/>
<line x1="0" y1="0" x2="3" y2="13.5" class="delaunay-line"/>
<line x1="3" y1="13.5" x2="3" y2="1.5" class="delaunay-line"/>
<line x1="33.389710777333235" y1="0.011212596166009448" x2="0" y2="0" class="delaunay-line"/>
<line x1="0" y1="0" x2="20.95807251549381" y2="0.2852035595876137" class="delaunay-line"/>
<line x1="20.95807251549381" y1="0.2852035595876137" x2="33.389710777333235" y2="0.011212596166009448" class="delaunay-line"/>
<line x1="37.5055884950007" y1="39.55075686445114" x2="48" y2="48" class="delaunay-line"/>
<line x1="48" y1="48" x2="40.611417036230954" y2="27.959646948982318" class="delaunay-line"/>
<line x1="40.611417036230954" y1="27.959646948982318" x2="37.5055884950007" y2="39.55075686445114" class="delaunay-line"/>
<line x1="40.611417036230954" y1="27.959646948982318" x2="48" y2="0" class="delaunay-line"/>
<line x1="48" y1="0" x2="37.889710777333235" y2="7.805441230225958" class="delaunay-line"/>
<line x1="37.889710777333235" y1="7.805441230225958" x2="40.611417036230954" y2="27.959646948982318" class="delaunay-line"/>
<line x1="0" y1="48" x2="48" y2="48" class="delaunay-line"/>
<line x1="48" y1="48" x2="15.296215782702161" y2="39.55075686445114" class="delaunay-line"/>
<line x1="15.296215782702161" y1="39.55075686445114" x2="0" y2="48" class="delaunay-line"/>
<line x1="48" y1="48" x2="48" y2="0" class="delaunay-line"/>
<line x1="48" y1="0" x2="40.611417036230954" y2="27.959646948982318" class="delaunay-line"/>
<line x1="40.611417036230954" y1="27.959646948982318" x2="48" y2="48" class="delaunay-line"/>
<line x1="37.889710777333235" y1="7.805441230225958" x2="48" y2="0" class="delaunay-line"/>
<line x1="48" y1="0" x2="33.389710777333235" y2="0.011212596166009448" class="delaunay-line"/>
<line x1="33.389710777333235" y1="0.011212596166009448" x2="37.889710777333235" y2="7.805441230225958" class="delaunay-line"/>
<line x1="33.389710777333235" y1="0.011212596166009448" x2="48" y2="0" class="delaunay-line"/>
<line x1="48" y1="0" x2="0" y2="0" class="delaunay-line"/>
<line x1="0" y1="0" x2="33.389710777333235" y2="0.011212596166009448" class="delaunay-line"/>
</g>
<g id="layer-area" class="layer ">
<polygon points="18.402044323932408,27.959646948982314 15.296215782702161,39.55075686445114 0.8073283883661357,35.66847118791332 3.9131569295963846,24.077361272444502" class="terrain-area"/>
<text x="9.604686356149273" y="31.81405906844782" class="label">#C49A6C</text>
<polygon points="3,1.5 12,1.5 12,13.5 3,13.5" class="terrain-area"/>
<text x="7.5" y="7.5" class="label">#C49A6C</text>
<polygon points="37.889710777333235,7.805441230225958 32.6935583546266,10.80544123022596 28.193558354626603,3.0112125961660094 33.389710777333235,0.011212596166009448" class="terrain-area"/>
<text x="33.04163456597992" y="5.408326913195985" class="label">#C49A6C</text>
<polygon points="23.01670110066468,35.66847118791332 26.122529641894932,24.0773612724445 40.611417036230954,27.959646948982318 37.5055884950007,39.55075686445114" class="terrain-area"/>
<text x="31.81405906844782" y="31.81405906844782" class="label">#C49A6C</text>
<polygon points="24.073056950941268,21.622095056617926 18.876904528234636,24.622095056617926 14.376904528234636,16.827866422557978 19.573056950941268,13.827866422557978" class="terrain-area"/>
<text x="19.224980739587952" y="19.224980739587952" class="label">#C49A6C</text>
<polygon points="23.287443921416504,8.978535996189228 17.491888963682094,10.531450266804354 15.162517557759402,1.8381178302027399 20.95807251549381,0.2852035595876137" class="terrain-area"/>
<text x="19.224980739587952" y="5.408326913195984" class="label">#C49A6C</text>
</g>
<g id="layer-building" class="layer ">
</g>
<g id="layer-wall" class="layer ">
</g>
<g id="layer-tree" class="layer ">
</g>
<g id="layer-rocks" class="layer ">
</g>
<g id="layer-shrub" class="layer ">
</g>
<g id="layer-terrain" class="layer ">
</g>
<g id="layer-clearance" class="layer hidden">
</g>
<g id="layer-models" class="layer ">
</g>
<g id="layer-paths" class="layer ">
</g>
<g id="layer-vectors" class="layer ">
</g>
<g id="layer-los" class="layer ">
</g>
<g id="layer-lof" class="layer ">
</g>

<g id="legend">
<g class="toggle" onclick="toggleLayer('deployment')"><rect x="0.4" y="0.14999999999999997" width="0.4" height="0.4" fill="#222" stroke="#222" stroke-width="0.05"/><text x="1.0" y="0.5499999999999999" class="label">Deployment Zones</text></g>
<g class="toggle" onclick="toggleLayer('grid')"><rect x="0.4" y="0.95" width="0.4" height="0.4" fill="#222" stroke="#222" stroke-width="0.05"/><text x="1.0" y="1.3499999999999999" class="label">0.5 MU Grid</text></g>
<g class="toggle" onclick="toggleLayer('delaunay')"><rect x="0.4" y="1.7500000000000002" width="0.4" height="0.4" fill="#222" stroke="#222" stroke-width="0.05"/><text x="1.0" y="2.1500000000000004" class="label">Delaunay Mesh</text></g>
<g class="toggle" onclick="toggleLayer('area')"><rect x="0.4" y="2.55" width="0.4" height="0.4" fill="#222" stroke="#222" stroke-width="0.05"/><text x="1.0" y="2.95" class="label">Area Terrain</text></g>
<g class="toggle disabled"><rect x="0.4" y="3.3499999999999996" width="0.4" height="0.4" fill="#222" stroke="#222" stroke-width="0.05"/><text x="1.0" y="3.75" class="label">Buildings</text></g>
<g class="toggle disabled"><rect x="0.4" y="4.1499999999999995" width="0.4" height="0.4" fill="#222" stroke="#222" stroke-width="0.05"/><text x="1.0" y="4.55" class="label">Walls</text></g>
<g class="toggle disabled"><rect x="0.4" y="4.949999999999999" width="0.4" height="0.4" fill="#222" stroke="#222" stroke-width="0.05"/><text x="1.0" y="5.35" class="label">Trees</text></g>
<g class="toggle disabled"><rect x="0.4" y="5.749999999999999" width="0.4" height="0.4" fill="#222" stroke="#222" stroke-width="0.05"/><text x="1.0" y="6.1499999999999995" class="label">Rocks</text></g>
<g class="toggle disabled"><rect x="0.4" y="6.549999999999999" width="0.4" height="0.4" fill="#222" stroke="#222" stroke-width="0.05"/><text x="1.0" y="6.949999999999999" class="label">Shrubs</text></g>
<g class="toggle" onclick="toggleLayer('terrain')"><rect x="0.4" y="7.349999999999999" width="0.4" height="0.4" fill="#222" stroke="#222" stroke-width="0.05"/><text x="1.0" y="7.749999999999999" class="label">Other Terrain</text></g>
<g class="toggle" onclick="toggleLayer('clearance')"><rect x="0.4" y="8.15" width="0.4" height="0.4" fill="#fff" stroke="#222" stroke-width="0.05"/><text x="1.0" y="8.549999999999999" class="label">Clearance Zones</text></g>
<g class="toggle" onclick="toggleLayer('models')"><rect x="0.4" y="8.950000000000001" width="0.4" height="0.4" fill="#222" stroke="#222" stroke-width="0.05"/><text x="1.0" y="9.35" class="label">Models</text></g>
<g class="toggle" onclick="toggleLayer('paths')"><rect x="0.4" y="9.750000000000002" width="0.4" height="0.4" fill="#222" stroke="#222" stroke-width="0.05"/><text x="1.0" y="10.15" class="label">Paths</text></g>
<g class="toggle" onclick="toggleLayer('vectors')"><rect x="0.4" y="10.550000000000002" width="0.4" height="0.4" fill="#222" stroke="#222" stroke-width="0.05"/><text x="1.0" y="10.950000000000001" class="label">Vectors</text></g>
<g class="toggle" onclick="toggleLayer('los')"><rect x="0.4" y="11.350000000000003" width="0.4" height="0.4" fill="#222" stroke="#222" stroke-width="0.05"/><text x="1.0" y="11.750000000000002" class="label">LOS</text></g>
<g class="toggle" onclick="toggleLayer('lof')"><rect x="0.4" y="12.150000000000004" width="0.4" height="0.4" fill="#222" stroke="#222" stroke-width="0.05"/><text x="1.0" y="12.550000000000002" class="label">LOF</text></g>
</g>
</svg>