<svg xmlns="http://www.w3.org/2000/svg" viewBox="0 0 48 48" width="1920" height="1920" font-family="Arial" font-size="0.6">
<defs>
  <style><![CDATA[
    .layer { display: inline; }
    .layer.hidden { display: none; }
    .grid-line { stroke: #999; stroke-width: 0.02; opacity: 0.2; }
    .grid-line-2mu { stroke: #666; stroke-width: 0.04; opacity: 0.4; }
    .grid-line-6mu { stroke: #333; stroke-width: 0.08; opacity: 0.6; }
    .delaunay-line { stroke: #4a6fa5; stroke-width: 0.03; opacity: 0.3; }
    #layer-area { opacity: 0.8; }
    #layer-building, #layer-wall, #layer-tree, #layer-rocks, #layer-shrub, #layer-terrain { opacity: 0.8; }
    .terrain-area { stroke: none; }
    .terrain-solid { stroke: #000; stroke-width: 0.05; }
    .model { stroke: #ff0000; stroke-width: 2; vector-effect: non-scaling-stroke; }
    .path { fill: none; stroke-width: 0.12; }
    .vector { stroke-width: 0.1; }
    .los-ray { stroke-width: 0.08; stroke-dasharray: 0.2 0.2; }
    .lof-ray { stroke-width: 0.08; stroke-dasharray: 0.3 0.15; }
    .label { fill: #111 !important; font-size: 0.6px; }
    .toggle { cursor: pointer; }
    .toggle.disabled { cursor: default; }
    .toggle.disabled rect { stroke: #ccc; fill: #fff; }
    .toggle.disabled text { fill: #ccc; }
#layer-building { fill: #000000; }
  ]]></style>
</defs>
<rect x="0" y="0" width="48" height="48" fill="#ffffff" stroke="#111" stroke-width="0.05"/>
<script><![CDATA[
      function toggleLayer(id) {
        var layer = document.getElementById('layer-' + id);
        if (!layer) return;
        if (layer.classList.contains('hidden')) {
          layer.classList.remove('hidden');
        } else {
          layer.classList.add('hidden');
        }
      }
    ]]></script>
<text x="0.4" y="47.6" class="label">LARGE battlefield_A0-B100-W0-R0-S0-T0</text>
<g id="layer-deployment" class="layer ">
</g>
<g id="layer-grid" class="layer ">
<line x1="0" y1="0" x2="0" y2="48" class="grid-line-6mu"/>
<line x1="0.5" y1="0" x2="0.5" y2="48" class="grid-line"/>
<line x1="1" y1="0" x2="1" y2="48" class="grid-line"/>
<line x1="1.5" y1="0" x2="1.5" y2="48" class="grid-line"/>
<line x1="2" y1="0" x2="2" y2="48" class="grid-line-2mu"/>
<line x1="2.5" y1="0" x2="2.5" y2="48" class="grid-line"/>
<line x1="3" y1="0" x2="3" y2="48" class="grid-line"/>
<line x1="3.5" y1="0" x2="3.5" y2="48" class="grid-line"/>
<line x1="4" y1="0" x2="4" y2="48" class="grid-line-2mu"/>
<line x1="4.5" y1="0" x2="4.5" y2="48" class="grid-line"/>
<line x1="5" y1="0" x2="5" y2="48" class="grid-line"/>
<line x1="5.5" y1="0" x2="5.5" y2="48" class="grid-line"/>
<line x1="6" y1="0" x2="6" y2="48" class="grid-line-6mu"/>
<line x1="6.5" y1="0" x2="6.5" y2="48" class="grid-line"/>
<line x1="7" y1="0" x2="7" y2="48" class="grid-line"/>
<line x1="7.5" y1="0" x2="7.5" y2="48" class="grid-line"/>
<line x1="8" y1="0" x2="8" y2="48" class="grid-line-2mu"/>
<line x1="8.5" y1="0" x2="8.5" y2="48" class="grid-line"/>
<line x1="9" y1="0" x2="9" y2="48" class="grid-line"/>
<line x1="9.5" y1="0" x2="9.5" y2="48" class="grid-line"/>
<line x1="10" y1="0" x2="10" y2="48" class="grid-line-2mu"/>
<line x1="10.5" y1="0" x2="10.5" y2="48" class="grid-line"/>
<line x1="11" y1="0" x2="11" y2="48" class="grid-line"/>
<line x1="11.5" y1="0" x2="11.5" y2="48" class="grid-line"/>
<line x1="12" y1="0" x2="12" y2="48" class="grid-line-6mu"/>
<line x1="12.5" y1="0" x2="12.5" y2="48" class="grid-line"/>
<line x1="13" y1="0" x2="13" y2="48" class="grid-line"/>
<line x1="13.5" y1="0" x2="13.5" y2="48" class="grid-line"/>
<line x1="14" y1="0" x2="14" y2="48" class="grid-line-2mu"/>
<line x1="14.5" y1="0" x2="14.5" y2="48" class="grid-line"/>
<line x1="15" y1="0" x2="15" y2="48" class="grid-line"/>
<line x1="15.5" y1="0" x2="15.5" y2="48" class="grid-line"/>
<line x1="16" y1="0" x2="16" y2="48" class="grid-line-2mu"/>
<line x1="16.5" y1="0" x2="16.5" y2="48" class="grid-line"/>
<line x1="17" y1="0" x2="17" y2="48" class="grid-line"/>
<line x1="17.5" y1="0" x2="17.5" y2="48" class="grid-line"/>
<line x1="18" y1="0" x2="18" y2="48" class="grid-line-6mu"/>
<line x1="18.5" y1="0" x2="18.5" y2="48" class="grid-line"/>
<line x1="19" y1="0" x2="19" y2="48" class="grid-line"/>
<line x1="19.5" y1="0" x2="19.5" y2="48" class="grid-line"/>
<line x1="20" y1="0" x2="20" y2="48" class="grid-line-2mu"/>
<line x1="20.5" y1="0" x2="20.5" y2="48" class="grid-line"/>
<line x1="21" y1="0" x2="21" y2="48" class="grid-line"/>
<line x1="21.5" y1="0" x2="21.5" y2="48" class="grid-line"/>
<line x1="22" y1="0" x2="22" y2="48" class="grid-line-2mu"/>
<line x1="22.5" y1="0" x2="22.5" y2="48" class="grid-line"/>
<line x1="23" y1="0" x2="23" y2="48" class="grid-line"/>
<line x1="23.5" y1="0" x2="23.5" y2="48" class="grid-line"/>
<line x1="24" y1="0" x2="24" y2="48" class="grid-line-6mu"/>
<line x1="24.5" y1="0" x2="24.5" y2="48" class="grid-line"/>
<line x1="25" y1="0" x2="25" y2="48" class="grid-line"/>
<line x1="25.5" y1="0" x2="25.5" y2="48" class="grid-line"/>
<line x1="26" y1="0" x2="26" y2="48" class="grid-line-2mu"/>
<line x1="26.5" y1="0" x2="26.5" y2="48" class="grid-line"/>
<line x1="27" y1="0" x2="27" y2="48" class="grid-line"/>
<line x1="27.5" y1="0" x2="27.5" y2="48" class="grid-line"/>
<line x1="28" y1="0" x2="28" y2="48" class="grid-line-2mu"/>
<line x1="28.5" y1="0" x2="28.5" y2="48" class="grid-line"/>
<line x1="29" y1="0" x2="29" y2="48" class="grid-line"/>
<line x1="29.5" y1="0" x2="29.5" y2="48" class="grid-line"/>
<line x1="30" y1="0" x2="30" y2="48" class="grid-line-6mu"/>
<line x1="30.5" y1="0" x2="30.5" y2="48" class="grid-line"/>
<line x1="31" y1="0" x2="31" y2="48" class="grid-line"/>
<line x1="31.5" y1="0" x2="31.5" y2="48" class="grid-line"/>
<line x1="32" y1="0" x2="32" y2="48" class="grid-line-2mu"/>
<line x1="32.5" y1="0" x2="32.5" y2="48" class="grid-line"/>
<line x1="33" y1="0" x2="33" y2="48" class="grid-line"/>
<line x1="33.5" y1="0" x2="33.5" y2="48" class="grid-line"/>
<line x1="34" y1="0" x2="34" y2="48" class="grid-line-2mu"/>
<line x1="34.5" y1="0" x2="34.5" y2="48" class="grid-line"/>
<line x1="35" y1="0" x2="35" y2="48" class="grid-line"/>
<line x1="35.5" y1="0" x2="35.5" y2="48" class="grid-line"/>
<line x1="36" y1="0" x2="36" y2="48" class="grid-line-6mu"/>
<line x1="36.5" y1="0" x2="36.5" y2="48" class="grid-line"/>
<line x1="37" y1="0" x2="37" y2="48" class="grid-line"/>
<line x1="37.5" y1="0" x2="37.5" y2="48" class="grid-line"/>
<line x1="38" y1="0" x2="38" y2="48" class="grid-line-2mu"/>
<line x1="38.5" y1="0" x2="38.5" y2="48" class="grid-line"/>
<line x1="39" y1="0" x2="39" y2="48" class="grid-line"/>
<line x1="39.5" y1="0" x2="39.5" y2="48" class="grid-line"/>
<line x1="40" y1="0" x2="40" y2="48" class="grid-line-2mu"/>
<line x1="40.5" y1="0" x2="40.5" y2="48" class="grid-line"/>
<line x1="41" y1="0" x2="41" y2="48" class="grid-line"/>
<line x1="41.5" y1="0" x2="41.5" y2="48" class="grid-line"/>
<line x1="42" y1="0" x2="42" y2="48" class="grid-line-6mu"/>
<line x1="42.5" y1="0" x2="42.5" y2="48" class="grid-line"/>
<line x1="43" y1="0" x2="43" y2="48" class="grid-line"/>
<line x1="43.5" y1="0" x2="43.5" y2="48" class="grid-line"/>
<line x1="44" y1="0" x2="44" y2="48" class="grid-line-2mu"/>
<line x1="44.5" y1="0" x2="44.5" y2="48" class="grid-line"/>
<line x1="45" y1="0" x2="45" y2="48" class="grid-line"/>
<line x1="45.5" y1="0" x2="45.5" y2="48" class="grid-line"/>
<line x1="46" y1="0" x2="46" y2="48" class="grid-line-2mu"/>
<line x1="46.5" y1="0" x2="46.5" y2="48" class="grid-line"/>
<line x1="47" y1="0" x2="47" y2="48" class="grid-line"/>
<line x1="47.5" y1="0" x2="47.5" y2="48" class="grid-line"/>
<line x1="48" y1="0" x2="48" y2="48" class="grid-line-6mu"/>
<line x1="0" y1="0" x2="48" y2="0" class="grid-line-6mu"/>
<line x1="0" y1="0.5" x2="48" y2="0.5" class="grid-line"/>
<line x1="0" y1="1" x2="48" y2="1" class="grid-line"/>
<line x1="0" y1="1.5" x2="48" y2="1.5" class="grid-line"/>
<line x1="0" y1="2" x2="48" y2="2" class="grid-line-2mu"/>
<line x1="0" y1="2.5" x2="48" y2="2.5" class="grid-line"/>
<line x1="0" y1="3" x2="48" y2="3" class="grid-line"/>
<line x1="0" y1="3.5" x2="48" y2="3.5" class="grid-line"/>
<line x1="0" y1="4" x2="48" y2="4" class="grid-line-2mu"/>
<line x1="0" y1="4.5" x2="48" y2="4.5" class="grid-line"/>
<line x1="0" y1="5" x2="48" y2="5" class="grid-line"/>
<line x1="0" y1="5.5" x2="48" y2="5.5" class="grid-line"/>
<line x1="0" y1="6" x2="48" y2="6" class="grid-line-6mu"/>
<line x1="0" y1="6.5" x2="48" y2="6.5" class="grid-line"/>
<line x1="0" y1="7" x2="48" y2="7" class="grid-line"/>
<line x1="0" y1="7.5" x2="48" y2="7.5" class="grid-line"/>
<line x1="0" y1="8" x2="48" y2="8" class="grid-line-2mu"/>
<line x1="0" y1="8.5" x2="48" y2="8.5" class="grid-line"/>
<line x1="0" y1="9" x2="48" y2="9" class="grid-line"/>
<line x1="0" y1="9.5" x2="48" y2="9.5" class="grid-line"/>
<line x1="0" y1="10" x2="48" y2="10" class="grid-line-2mu"/>
<line x1="0" y1="10.5" x2="48" y2="10.5" class="grid-line"/>
<line x1="0" y1="11" x2="48" y2="11" class="grid-line"/>
<line x1="0" y1="11.5" x2="48" y2="11.5" class="grid-line"/>
<line x1="0" y1="12" x2="48" y2="12" class="grid-line-6mu"/>
<line x1="0" y1="12.5" x2="48" y2="12.5" class="grid-line"/>
<line x1="0" y1="13" x2="48" y2="13" class="grid-line"/>
<line x1="0" y1="13.5" x2="48" y2="13.5" class="grid-line"/>
<line x1="0" y1="14" x2="48" y2="14" class="grid-line-2mu"/>
<line x1="0" y1="14.5" x2="48" y2="14.5" class="grid-line"/>
<line x1="0" y1="15" x2="48" y2="15" class="grid-line"/>
<line x1="0" y1="15.5" x2="48" y2="15.5" class="grid-line"/>
<line x1="0" y1="16" x2="48" y2="16" class="grid-line-2mu"/>
<line x1="0" y1="16.5" x2="48" y2="16.5" class="grid-line"/>
<line x1="0" y1="17" x2="48" y2="17" class="grid-line"/>
<line x1="0" y1="17.5" x2="48" y2="17.5" class="grid-line"/>
<line x1="0" y1="18" x2="48" y2="18" class="grid-line-6mu"/>
<line x1="0" y1="18.5" x2="48" y2="18.5" class="grid-line"/>
<line x1="0" y1="19" x2="48" y2="19" class="grid-line"/>
<line x1="0" y1="19.5" x2="48" y2="19.5" class="grid-line"/>
<line x1="0" y1="20" x2="48" y2="20" class="grid-line-2mu"/>
<line x1="0" y1="20.5" x2="48" y2="20.5" class="grid-line"/>
<line x1="0" y1="21" x2="48" y2="21" class="grid-line"/>
<line x1="0" y1="21.5" x2="48" y2="21.5" class="grid-line"/>
<line x1="0" y1="22" x2="48" y2="22" class="grid-line-2mu"/>
<line x1="0" y1="22.5" x2="48" y2="22.5" class="grid-line"/>
<line x1="0" y1="23" x2="48" y2="23" class="grid-line"/>
<line x1="0" y1="23.5" x2="48" y2="23.5" class="grid-line"/>
<line x1="0" y1="24" x2="48" y2="24" class="grid-line-6mu"/>
<line x1="0" y1="24.5" x2="48" y2="24.5" class="grid-line"/>
<line x1="0" y1="25" x2="48" y2="25" class="grid-line"/>
<line x1="0" y1="25.5" x2="48" y2="25.5" class="grid-line"/>
<line x1="0" y1="26" x2="48" y2="26" class="grid-line-2mu"/>
<line x1="0" y1="26.5" x2="48" y2="26.5" class="grid-line"/>
<line x1="0" y1="27" x2="48" y2="27" class="grid-line"/>
<line x1="0" y1="27.5" x2="48" y2="27.5" class="grid-line"/>
<line x1="0" y1="28" x2="48" y2="28" class="grid-line-2mu"/>
<line x1="0" y1="28.5" x2="48" y2="28.5" class="grid-line"/>
<line x1="0" y1="29" x2="48" y2="29" class="grid-line"/>
<line x1="0" y1="29.5" x2="48" y2="29.5" class="grid-line"/>
<line x1="0" y1="30" x2="48" y2="30" class="grid-line-6mu"/>
<line x1="0" y1="30.5" x2="48" y2="30.5" class="grid-line"/>
<line x1="0" y1="31" x2="48" y2="31" class="grid-line"/>
<line x1="0" y1="31.5" x2="48" y2="31.5" class="grid-line"/>
<line x1="0" y1="32" x2="48" y2="32" class="grid-line-2mu"/>
<line x1="0" y1="32.5" x2="48" y2="32.5" class="grid-line"/>
<line x1="0" y1="33" x2="48" y2="33" class="grid-line"/>
<line x1="0" y1="33.5" x2="48" y2="33.5" class="grid-line"/>
<line x1="0" y1="34" x2="48" y2="34" class="grid-line-2mu"/>
<line x1="0" y1="34.5" x2="48" y2="34.5" class="grid-line"/>
<line x1="0" y1="35" x2="48" y2="35" class="grid-line"/>
<line x1="0" y1="35.5" x2="48" y2="35.5" class="grid-line"/>
<line x1="0" y1="36" x2="48" y2="36" class="grid-line-6mu"/>
<line x1="0" y1="36.5" x2="48" y2="36.5" class="grid-line"/>
<line x1="0" y1="37" x2="48" y2="37" class="grid-line"/>
<line x1="0" y1="37.5" x2="48" y2="37.5" class="grid-line"/>
<line x1="0" y1="38" x2="48" y2="38" class="grid-line-2mu"/>
<line x1="0" y1="38.5" x2="48" y2="38.5" class="grid-line"/>
<line x1="0" y1="39" x2="48" y2="39" class="grid-line"/>
<line x1="0" y1="39.5" x2="48" y2="39.5" class="grid-line"/>
<line x1="0" y1="40" x2="48" y2="40" class="grid-line-2mu"/>
<line x1="0" y1="40.5" x2="48" y2="40.5" class="grid-line"/>
<line x1="0" y1="41" x2="48" y2="41" class="grid-line"/>
<line x1="0" y1="41.5" x2="48" y2="41.5" class="grid-line"/>
<line x1="0" y1="42" x2="48" y2="42" class="grid-line-6mu"/>
<line x1="0" y1="42.5" x2="48" y2="42.5" class="grid-line"/>
<line x1="0" y1="43" x2="48" y2="43" class="grid-line"/>
<line x1="0" y1="43.5" x2="48" y2="43.5" class="grid-line"/>
<line x1="0" y1="44" x2="48" y2="44" class="grid-line-2mu"/>
<line x1="0" y1="44.5" x2="48" y2="44.5" class="grid-line"/>
<line x1="0" y1="45" x2="48" y2="45" class="grid-line"/>
<line x1="0" y1="45.5" x2="48" y2="45.5" class="grid-line"/>
<line x1="0" y1="46" x2="48" y2="46" class="grid-line-2mu"/>
<line x1="0" y1="46.5" x2="48" y2="46.5" class="grid-line"/>
<line x1="0" y1="47" x2="48" y2="47" class="grid-line"/>
<line x1="0" y1="47.5" x2="48" y2="47.5" class="grid-line"/>
<line x1="0" y1="48" x2="48" y2="48" class="grid-line-6mu"/>
</g>
<g id="layer-delaunay" class="layer ">
<line x1="25.481645682544336" y1="26.137957959565203" x2="24.763559074562174" y2="29.93659023483427" class="delaunay-line"/>
<line x1="24.763559074562174" y1="29.93659023483427" x2="28.47229449282932" y2="28.438163861170622" class="delaunay-line"/>
<line x1="28.47229449282932" y1="28.438163861170622" x2="25.481645682544336" y2="26.137957959565203" class="delaunay-line"/>
<line x1="28.47229449282932" y1="28.438163861170622" x2="28.54582345502025" y2="23.566807520819044" class="delaunay-line"/>
<line x1="28.54582345502025" y1="23.566807520819044" x2="25.481645682544336" y2="26.137957959565203" class="delaunay-line"/>
<line x1="25.481645682544336" y1="26.137957959565203" x2="28.47229449282932" y2="28.438163861170622" class="delaunay-line"/>
<line x1="30.719934053324792" y1="34.001266988571345" x2="32.17786237739112" y2="29.15067400660387" class="delaunay-line"/>
<line x1="32.17786237739112" y1="29.15067400660387" x2="28.47229449282932" y2="28.438163861170622" class="delaunay-line"/>
<line x1="28.47229449282932" y1="28.438163861170622" x2="30.719934053324792" y2="34.001266988571345" class="delaunay-line"/>
<line x1="28.47229449282932" y1="28.438163861170622" x2="32.17786237739112" y2="29.15067400660387" class="delaunay-line"/>
<line x1="32.17786237739112" y1="29.15067400660387" x2="28.54582345502025" y2="23.566807520819044" class="delaunay-line"/>
<line x1="28.54582345502025" y1="23.566807520819044" x2="28.47229449282932" y2="28.438163861170622" class="delaunay-line"/>
<line x1="21.624920024425098" y1="21.541691300851337" x2="20.420823881798658" y2="24.192917533938317" class="delaunay-line"/>
<line x1="20.420823881798658" y1="24.192917533938317" x2="25.481645682544336" y2="26.137957959565203" class="delaunay-line"/>
<line x1="25.481645682544336" y1="26.137957959565203" x2="21.624920024425098" y2="21.541691300851337" class="delaunay-line"/>
<line x1="25.481645682544336" y1="26.137957959565203" x2="20.420823881798658" y2="24.192917533938317" class="delaunay-line"/>
<line x1="20.420823881798658" y1="24.192917533938317" x2="24.763559074562174" y2="29.93659023483427" class="delaunay-line"/>
<line x1="24.763559074562174" y1="29.93659023483427" x2="25.481645682544336" y2="26.137957959565203" class="delaunay-line"/>
<line x1="20.581091419349377" y1="33.69551147347145" x2="27.011198635057646" y2="35.49969336223499" class="delaunay-line"/>
<line x1="27.011198635057646" y1="35.49969336223499" x2="24.763559074562174" y2="29.93659023483427" class="delaunay-line"/>
<line x1="24.763559074562174" y1="29.93659023483427" x2="20.581091419349377" y2="33.69551147347145" class="delaunay-line"/>
<line x1="24.763559074562174" y1="29.93659023483427" x2="30.719934053324792" y2="34.001266988571345" class="delaunay-line"/>
<line x1="30.719934053324792" y1="34.001266988571345" x2="28.47229449282932" y2="28.438163861170622" class="delaunay-line"/>
<line x1="28.47229449282932" y1="28.438163861170622" x2="24.763559074562174" y2="29.93659023483427" class="delaunay-line"/>
<line x1="27.011198635057646" y1="35.49969336223499" x2="30.719934053324792" y2="34.001266988571345" class="delaunay-line"/>
<line x1="30.719934053324792" y1="34.001266988571345" x2="24.763559074562174" y2="29.93659023483427" class="delaunay-line"/>
<line x1="24.763559074562174" y1="29.93659023483427" x2="27.011198635057646" y2="35.49969336223499" class="delaunay-line"/>
<line x1="15.824557223084792" y1="28.049643192057555" x2="20.581091419349377" y2="33.69551147347145" class="delaunay-line"/>
<line x1="20.581091419349377" y1="33.69551147347145" x2="24.763559074562174" y2="29.93659023483427" class="delaunay-line"/>
<line x1="24.763559074562174" y1="29.93659023483427" x2="15.824557223084792" y2="28.049643192057555" class="delaunay-line"/>
<line x1="24.689097796901013" y1="18.970540862105178" x2="21.624920024425098" y2="21.541691300851337" class="delaunay-line"/>
<line x1="21.624920024425098" y1="21.541691300851337" x2="25.481645682544336" y2="26.137957959565203" class="delaunay-line"/>
<line x1="25.481645682544336" y1="26.137957959565203" x2="24.689097796901013" y2="18.970540862105178" class="delaunay-line"/>
<line x1="39.38582801126249" y1="28.9379972073774" x2="34.29753943432394" y2="25.75848162197817" class="delaunay-line"/>
<line x1="34.29753943432394" y1="25.75848162197817" x2="32.17786237739112" y2="29.15067400660387" class="delaunay-line"/>
<line x1="32.17786237739112" y1="29.15067400660387" x2="39.38582801126249" y2="28.9379972073774" class="delaunay-line"/>
<line x1="32.17786237739112" y1="29.15067400660387" x2="34.29753943432394" y2="25.75848162197817" class="delaunay-line"/>
<line x1="34.29753943432394" y1="25.75848162197817" x2="28.54582345502025" y2="23.566807520819044" class="delaunay-line"/>
<line x1="28.54582345502025" y1="23.566807520819044" x2="32.17786237739112" y2="29.15067400660387" class="delaunay-line"/>
<line x1="28.54582345502025" y1="23.566807520819044" x2="24.689097796901013" y2="18.970540862105178" class="delaunay-line"/>
<line x1="24.689097796901013" y1="18.970540862105178" x2="25.481645682544336" y2="26.137957959565203" class="delaunay-line"/>
<line x1="25.481645682544336" y1="26.137957959565203" x2="28.54582345502025" y2="23.566807520819044" class="delaunay-line"/>
<line x1="27.004429372976375" y1="15.466990823479726" x2="24.689097796901013" y2="18.970540862105178" class="delaunay-line"/>
<line x1="24.689097796901013" y1="18.970540862105178" x2="28.54582345502025" y2="23.566807520819044" class="delaunay-line"/>
<line x1="28.54582345502025" y1="23.566807520819044" x2="27.004429372976375" y2="15.466990823479726" class="delaunay-line"/>
<line x1="13.253406784338633" y1="24.98546541958164" x2="15.824557223084792" y2="28.049643192057555" class="delaunay-line"/>
<line x1="15.824557223084792" y1="28.049643192057555" x2="20.420823881798658" y2="24.192917533938317" class="delaunay-line"/>
<line x1="20.420823881798658" y1="24.192917533938317" x2="13.253406784338633" y2="24.98546541958164" class="delaunay-line"/>
<line x1="20.420823881798658" y1="24.192917533938317" x2="15.824557223084792" y2="28.049643192057555" class="delaunay-line"/>
<line x1="15.824557223084792" y1="28.049643192057555" x2="24.763559074562174" y2="29.93659023483427" class="delaunay-line"/>
<line x1="24.763559074562174" y1="29.93659023483427" x2="20.420823881798658" y2="24.192917533938317" class="delaunay-line"/>
<line x1="15.113291883122038" y1="38.39691214046761" x2="21.06856879296997" y2="37.66569608003673" class="delaunay-line"/>
<line x1="21.06856879296997" y1="37.66569608003673" x2="20.581091419349377" y2="33.69551147347145" class="delaunay-line"/>
<line x1="20.581091419349377" y1="33.69551147347145" x2="15.113291883122038" y2="38.39691214046761" class="delaunay-line"/>
<line x1="20.581091419349377" y1="33.69551147347145" x2="21.06856879296997" y2="37.66569608003673" class="delaunay-line"/>
<line x1="21.06856879296997" y1="37.66569608003673" x2="27.011198635057646" y2="35.49969336223499" class="delaunay-line"/>
<line x1="27.011198635057646" y1="35.49969336223499" x2="20.581091419349377" y2="33.69551147347145" class="delaunay-line"/>
<line x1="19.41285226520409" y1="15.862082187084136" x2="17.8496734430525" y2="21.128739761462402" class="delaunay-line"/>
<line x1="17.8496734430525" y1="21.128739761462402" x2="21.624920024425098" y2="21.541691300851337" class="delaunay-line"/>
<line x1="21.624920024425098" y1="21.541691300851337" x2="19.41285226520409" y2="15.862082187084136" class="delaunay-line"/>
<line x1="21.624920024425098" y1="21.541691300851337" x2="17.8496734430525" y2="21.128739761462402" class="delaunay-line"/>
<line x1="17.8496734430525" y1="21.128739761462402" x2="20.420823881798658" y2="24.192917533938317" class="delaunay-line"/>
<line x1="20.420823881798658" y1="24.192917533938317" x2="21.624920024425098" y2="21.541691300851337" class="delaunay-line"/>
<line x1="39.38582801126249" y1="28.9379972073774" x2="35.843312678481475" y2="22.320343235831864" class="delaunay-line"/>
<line x1="35.843312678481475" y1="22.320343235831864" x2="34.29753943432394" y2="25.75848162197817" class="delaunay-line"/>
<line x1="34.29753943432394" y1="25.75848162197817" x2="39.38582801126249" y2="28.9379972073774" class="delaunay-line"/>
<line x1="34.29753943432394" y1="25.75848162197817" x2="35.843312678481475" y2="22.320343235831864" class="delaunay-line"/>
<line x1="35.843312678481475" y1="22.320343235831864" x2="28.54582345502025" y2="23.566807520819044" class="delaunay-line"/>
<line x1="28.54582345502025" y1="23.566807520819044" x2="34.29753943432394" y2="25.75848162197817" class="delaunay-line"/>
<line x1="21.06856879296997" y1="37.66569608003673" x2="30.11721400252041" y2="39.01811593398529" class="delaunay-line"/>
<line x1="30.11721400252041" y1="39.01811593398529" x2="27.011198635057646" y2="35.49969336223499" class="delaunay-line"/>
<line x1="27.011198635057646" y1="35.49969336223499" x2="21.06856879296997" y2="37.66569608003673" class="delaunay-line"/>
<line x1="27.011198635057646" y1="35.49969336223499" x2="30.11721400252041" y2="39.01811593398529" class="delaunay-line"/>
<line x1="30.11721400252041" y1="39.01811593398529" x2="30.719934053324792" y2="34.001266988571345" class="delaunay-line"/>
<line x1="30.719934053324792" y1="34.001266988571345" x2="27.011198635057646" y2="35.49969336223499" class="delaunay-line"/>
<line x1="30.719934053324792" y1="34.001266988571345" x2="37.266150954329675" y2="32.3301895920031" class="delaunay-line"/>
<line x1="37.266150954329675" y1="32.3301895920031" x2="32.17786237739112" y2="29.15067400660387" class="delaunay-line"/>
<line x1="32.17786237739112" y1="29.15067400660387" x2="30.719934053324792" y2="34.001266988571345" class="delaunay-line"/>
<line x1="33.9983969076244" y1="38.050428351586625" x2="37.266150954329675" y2="32.3301895920031" class="delaunay-line"/>
<line x1="37.266150954329675" y1="32.3301895920031" x2="30.719934053324792" y2="34.001266988571345" class="delaunay-line"/>
<line x1="30.719934053324792" y1="34.001266988571345" x2="33.9983969076244" y2="38.050428351586625" class="delaunay-line"/>
<line x1="30.11721400252041" y1="39.01811593398529" x2="33.9983969076244" y2="38.050428351586625" class="delaunay-line"/>
<line x1="33.9983969076244" y1="38.050428351586625" x2="30.719934053324792" y2="34.001266988571345" class="delaunay-line"/>
<line x1="30.719934053324792" y1="34.001266988571345" x2="30.11721400252041" y2="39.01811593398529" class="delaunay-line"/>
<line x1="35.42477383601672" y1="16.33495893427292" x2="27.004429372976375" y2="15.466990823479726" class="delaunay-line"/>
<line x1="27.004429372976375" y1="15.466990823479726" x2="28.54582345502025" y2="23.566807520819044" class="delaunay-line"/>
<line x1="28.54582345502025" y1="23.566807520819044" x2="35.42477383601672" y2="16.33495893427292" class="delaunay-line"/>
<line x1="24.689097796901013" y1="18.970540862105178" x2="19.41285226520409" y2="15.862082187084136" class="delaunay-line"/>
<line x1="19.41285226520409" y1="15.862082187084136" x2="21.624920024425098" y2="21.541691300851337" class="delaunay-line"/>
<line x1="21.624920024425098" y1="21.541691300851337" x2="24.689097796901013" y2="18.970540862105178" class="delaunay-line"/>
<line x1="15.824557223084792" y1="28.049643192057555" x2="14.625814509501446" y2="34.42672753390233" class="delaunay-line"/>
<line x1="14.625814509501446" y1="34.42672753390233" x2="20.581091419349377" y2="33.69551147347145" class="delaunay-line"/>
<line x1="20.581091419349377" y1="33.69551147347145" x2="15.824557223084792" y2="28.049643192057555" class="delaunay-line"/>
<line x1="42.034920624090354" y1="37.6098130615791" x2="39.38582801126249" y2="28.9379972073774" class="delaunay-line"/>
<line x1="39.38582801126249" y1="28.9379972073774" x2="37.266150954329675" y2="32.3301895920031" class="delaunay-line"/>
<line x1="37.266150954329675" y1="32.3301895920031" x2="42.034920624090354" y2="37.6098130615791" class="delaunay-line"/>
<line x1="37.266150954329675" y1="32.3301895920031" x2="39.38582801126249" y2="28.9379972073774" class="delaunay-line"/>
<line x1="39.38582801126249" y1="28.9379972073774" x2="32.17786237739112" y2="29.15067400660387" class="delaunay-line"/>
<line x1="32.17786237739112" y1="29.15067400660387" x2="37.266150954329675" y2="32.3301895920031" class="delaunay-line"/>
<line x1="17.8496734430525" y1="21.128739761462402" x2="13.253406784338633" y2="24.98546541958164" class="delaunay-line"/>
<line x1="13.253406784338633" y1="24.98546541958164" x2="20.420823881798658" y2="24.192917533938317" class="delaunay-line"/>
<line x1="20.420823881798658" y1="24.192917533938317" x2="17.8496734430525" y2="21.128739761462402" class="delaunay-line"/>
<line x1="15.824557223084792" y1="28.049643192057555" x2="6.322296359941358" y2="29.09647694773055" class="delaunay-line"/>
<line x1="6.322296359941358" y1="29.09647694773055" x2="14.625814509501446" y2="34.42672753390233" class="delaunay-line"/>
<line x1="14.625814509501446" y1="34.42672753390233" x2="15.824557223084792" y2="28.049643192057555" class="delaunay-line"/>
<line x1="27.004429372976375" y1="15.466990823479726" x2="19.41285226520409" y2="15.862082187084136" class="delaunay-line"/>
<line x1="19.41285226520409" y1="15.862082187084136" x2="24.689097796901013" y2="18.970540862105178" class="delaunay-line"/>
<line x1="24.689097796901013" y1="18.970540862105178" x2="27.004429372976375" y2="15.466990823479726" class="delaunay-line"/>
<line x1="11.412852265204092" y1="15.862082187084136" x2="9.501811945340588" y2="24.008188370792" class="delaunay-line"/>
<line x1="9.501811945340588" y1="24.008188370792" x2="13.253406784338633" y2="24.98546541958164" class="delaunay-line"/>
<line x1="13.253406784338633" y1="24.98546541958164" x2="11.412852265204092" y2="15.862082187084136" class="delaunay-line"/>
<line x1="37.23880974336368" y1="42.99472907018827" x2="38.07384834912407" y2="37.053120657738845" class="delaunay-line"/>
<line x1="38.07384834912407" y1="37.053120657738845" x2="33.9983969076244" y2="38.050428351586625" class="delaunay-line"/>
<line x1="33.9983969076244" y1="38.050428351586625" x2="37.23880974336368" y2="42.99472907018827" class="delaunay-line"/>
<line x1="33.9983969076244" y1="38.050428351586625" x2="38.07384834912407" y2="37.053120657738845" class="delaunay-line"/>
<line x1="38.07384834912407" y1="37.053120657738845" x2="37.266150954329675" y2="32.3301895920031" class="delaunay-line"/>
<line x1="37.266150954329675" y1="32.3301895920031" x2="33.9983969076244" y2="38.050428351586625" class="delaunay-line"/>
<line x1="38.72000049923028" y1="14.57447334031611" x2="35.42477383601672" y2="16.33495893427292" class="delaunay-line"/>
<line x1="35.42477383601672" y1="16.33495893427292" x2="35.843312678481475" y2="22.320343235831864" class="delaunay-line"/>
<line x1="35.843312678481475" y1="22.320343235831864" x2="38.72000049923028" y2="14.57447334031611" class="delaunay-line"/>
<line x1="35.843312678481475" y1="22.320343235831864" x2="35.42477383601672" y2="16.33495893427292" class="delaunay-line"/>
<line x1="35.42477383601672" y1="16.33495893427292" x2="28.54582345502025" y2="23.566807520819044" class="delaunay-line"/>
<line x1="28.54582345502025" y1="23.566807520819044" x2="35.843312678481475" y2="22.320343235831864" class="delaunay-line"/>
<line x1="14.625814509501446" y1="34.42672753390233" x2="15.113291883122038" y2="38.39691214046761" class="delaunay-line"/>
<line x1="15.113291883122038" y1="38.39691214046761" x2="20.581091419349377" y2="33.69551147347145" class="delaunay-line"/>
<line x1="20.581091419349377" y1="33.69551147347145" x2="14.625814509501446" y2="34.42672753390233" class="delaunay-line"/>
<line x1="21.06856879296997" y1="37.66569608003673" x2="31.568745376118418" y2="44.839890291641275" class="delaunay-line"/>
<line x1="31.568745376118418" y1="44.839890291641275" x2="30.11721400252041" y2="39.01811593398529" class="delaunay-line"/>
<line x1="30.11721400252041" y1="39.01811593398529" x2="21.06856879296997" y2="37.66569608003673" class="delaunay-line"/>
<line x1="15.023256840734708" y1="40.209540889574015" x2="15.113291883122038" y2="38.39691214046761" class="delaunay-line"/>
<line x1="15.113291883122038" y1="38.39691214046761" x2="7.0281302245819415" y2="39.93034491595401" class="delaunay-line"/>
<line x1="7.0281302245819415" y1="39.93034491595401" x2="15.023256840734708" y2="40.209540889574015" class="delaunay-line"/>
<line x1="35.42477383601672" y1="16.33495893427292" x2="30.359111644758073" y2="13.28843468341962" class="delaunay-line"/>
<line x1="30.359111644758073" y1="13.28843468341962" x2="27.004429372976375" y2="15.466990823479726" class="delaunay-line"/>
<line x1="27.004429372976375" y1="15.466990823479726" x2="35.42477383601672" y2="16.33495893427292" class="delaunay-line"/>
<line x1="27.004429372976375" y1="15.466990823479726" x2="23.73659516288621" y2="10.43496741580718" class="delaunay-line"/>
<line x1="23.73659516288621" y1="10.43496741580718" x2="19.41285226520409" y2="15.862082187084136" class="delaunay-line"/>
<line x1="19.41285226520409" y1="15.862082187084136" x2="27.004429372976375" y2="15.466990823479726" class="delaunay-line"/>
<line x1="7.0281302245819415" y1="39.93034491595401" x2="15.113291883122038" y2="38.39691214046761" class="delaunay-line"/>
<line x1="15.113291883122038" y1="38.39691214046761" x2="14.625814509501446" y2="34.42672753390233" class="delaunay-line"/>
<line x1="14.625814509501446" y1="34.42672753390233" x2="7.0281302245819415" y2="39.93034491595401" class="delaunay-line"/>
<line x1="15.113291883122038" y1="38.39691214046761" x2="15.023256840734708" y2="40.209540889574015" class="delaunay-line"/>
<line x1="15.023256840734708" y1="40.209540889574015" x2="21.06856879296997" y2="37.66569608003673" class="delaunay-line"/>
<line x1="21.06856879296997" y1="37.66569608003673" x2="15.113291883122038" y2="38.39691214046761" class="delaunay-line"/>
<line x1="11.412852265204092" y1="15.862082187084136" x2="13.253406784338633" y2="24.98546541958164" class="delaunay-line"/>
<line x1="13.253406784338633" y1="24.98546541958164" x2="17.8496734430525" y2="21.128739761462402" class="delaunay-line"/>
<line x1="17.8496734430525" y1="21.128739761462402" x2="11.412852265204092" y2="15.862082187084136" class="delaunay-line"/>
<line x1="13.253406784338633" y1="24.98546541958164" x2="6.322296359941358" y2="29.09647694773055" class="delaunay-line"/>
<line x1="6.322296359941358" y1="29.09647694773055" x2="15.824557223084792" y2="28.049643192057555" class="delaunay-line"/>
<line x1="15.824557223084792" y1="28.049643192057555" x2="13.253406784338633" y2="24.98546541958164" class="delaunay-line"/>
<line x1="14.813859860519704" y1="46.20588585168859" x2="31.568745376118418" y2="44.839890291641275" class="delaunay-line"/>
<line x1="31.568745376118418" y1="44.839890291641275" x2="21.06856879296997" y2="37.66569608003673" class="delaunay-line"/>
<line x1="21.06856879296997" y1="37.66569608003673" x2="14.813859860519704" y2="46.20588585168859" class="delaunay-line"/>
<line x1="30.11721400252041" y1="39.01811593398529" x2="31.568745376118418" y2="44.839890291641275" class="delaunay-line"/>
<line x1="31.568745376118418" y1="44.839890291641275" x2="33.9983969076244" y2="38.050428351586625" class="delaunay-line"/>
<line x1="33.9983969076244" y1="38.050428351586625" x2="30.11721400252041" y2="39.01811593398529" class="delaunay-line"/>
<line x1="27.09127743466791" y1="8.256411275747073" x2="23.73659516288621" y2="10.43496741580718" class="delaunay-line"/>
<line x1="23.73659516288621" y1="10.43496741580718" x2="27.004429372976375" y2="15.466990823479726" class="delaunay-line"/>
<line x1="27.004429372976375" y1="15.466990823479726" x2="27.09127743466791" y2="8.256411275747073" class="delaunay-line"/>
<line x1="19.41285226520409" y1="15.862082187084136" x2="11.412852265204092" y2="15.862082187084136" class="delaunay-line"/>
<line x1="11.412852265204092" y1="15.862082187084136" x2="17.8496734430525" y2="21.128739761462402" class="delaunay-line"/>
<line x1="17.8496734430525" y1="21.128739761462402" x2="19.41285226520409" y2="15.862082187084136" class="delaunay-line"/>
<line x1="31.568745376118418" y1="44.839890291641275" x2="35.4499282812224" y2="43.87220270924261" class="delaunay-line"/>
<line x1="35.4499282812224" y1="43.87220270924261" x2="33.9983969076244" y2="38.050428351586625" class="delaunay-line"/>
<line x1="33.9983969076244" y1="38.050428351586625" x2="31.568745376118418" y2="44.839890291641275" class="delaunay-line"/>
<line x1="35.42477383601672" y1="16.33495893427292" x2="33.52384807652365" y2="11.57447334031611" class="delaunay-line"/>
<line x1="33.52384807652365" y1="11.57447334031611" x2="30.359111644758073" y2="13.28843468341962" class="delaunay-line"/>
<line x1="30.359111644758073" y1="13.28843468341962" x2="35.42477383601672" y2="16.33495893427292" class="delaunay-line"/>
<line x1="30.359111644758073" y1="13.28843468341962" x2="27.09127743466791" y2="8.256411275747073" class="delaunay-line"/>
<line x1="27.09127743466791" y1="8.256411275747073" x2="27.004429372976375" y2="15.466990823479726" class="delaunay-line"/>
<line x1="27.004429372976375" y1="15.466990823479726" x2="30.359111644758073" y2="13.28843468341962" class="delaunay-line"/>
<line x1="41.199882018329966" y1="43.55142147402853" x2="42.034920624090354" y2="37.6098130615791" class="delaunay-line"/>
<line x1="42.034920624090354" y1="37.6098130615791" x2="38.07384834912407" y2="37.053120657738845" class="delaunay-line"/>
<line x1="38.07384834912407" y1="37.053120657738845" x2="41.199882018329966" y2="43.55142147402853" class="delaunay-line"/>
<line x1="38.07384834912407" y1="37.053120657738845" x2="42.034920624090354" y2="37.6098130615791" class="delaunay-line"/>
<line x1="42.034920624090354" y1="37.6098130615791" x2="37.266150954329675" y2="32.3301895920031" class="delaunay-line"/>
<line x1="37.266150954329675" y1="32.3301895920031" x2="38.07384834912407" y2="37.053120657738845" class="delaunay-line"/>
<line x1="35.4499282812224" y1="43.87220270924261" x2="37.23880974336368" y2="42.99472907018827" class="delaunay-line"/>
<line x1="37.23880974336368" y1="42.99472907018827" x2="33.9983969076244" y2="38.050428351586625" class="delaunay-line"/>
<line x1="33.9983969076244" y1="38.050428351586625" x2="35.4499282812224" y2="43.87220270924261" class="delaunay-line"/>
<line x1="43.82382508056006" y1="21.76229144587886" x2="38.72000049923028" y2="14.57447334031611" class="delaunay-line"/>
<line x1="38.72000049923028" y1="14.57447334031611" x2="35.843312678481475" y2="22.320343235831864" class="delaunay-line"/>
<line x1="35.843312678481475" y1="22.320343235831864" x2="43.82382508056006" y2="21.76229144587886" class="delaunay-line"/>
<line x1="35.42477383601672" y1="16.33495893427292" x2="38.72000049923028" y2="14.57447334031611" class="delaunay-line"/>
<line x1="38.72000049923028" y1="14.57447334031611" x2="33.52384807652365" y2="11.57447334031611" class="delaunay-line"/>
<line x1="33.52384807652365" y1="11.57447334031611" x2="35.42477383601672" y2="16.33495893427292" class="delaunay-line"/>
<line x1="43.82382508056006" y1="21.76229144587886" x2="35.843312678481475" y2="22.320343235831864" class="delaunay-line"/>
<line x1="35.843312678481475" y1="22.320343235831864" x2="39.38582801126249" y2="28.9379972073774" class="delaunay-line"/>
<line x1="39.38582801126249" y1="28.9379972073774" x2="43.82382508056006" y2="21.76229144587886" class="delaunay-line"/>
<line x1="42.034920624090354" y1="37.6098130615791" x2="43.82382508056006" y2="21.76229144587886" class="delaunay-line"/>
<line x1="43.82382508056006" y1="21.76229144587886" x2="39.38582801126249" y2="28.9379972073774" class="delaunay-line"/>
<line x1="39.38582801126249" y1="28.9379972073774" x2="42.034920624090354" y2="37.6098130615791" class="delaunay-line"/>
<line x1="11.412852265204092" y1="9.862082187084136" x2="11.412852265204092" y2="15.862082187084136" class="delaunay-line"/>
<line x1="11.412852265204092" y1="15.862082187084136" x2="19.41285226520409" y2="15.862082187084136" class="delaunay-line"/>
<line x1="19.41285226520409" y1="15.862082187084136" x2="11.412852265204092" y2="9.862082187084136" class="delaunay-line"/>
<line x1="19.498738557744517" y1="8.61945948596103" x2="19.41285226520409" y2="9.862082187084136" class="delaunay-line"/>
<line x1="19.41285226520409" y1="9.862082187084136" x2="23.73659516288621" y2="10.43496741580718" class="delaunay-line"/>
<line x1="23.73659516288621" y1="10.43496741580718" x2="19.498738557744517" y2="8.61945948596103" class="delaunay-line"/>
<line x1="23.73659516288621" y1="10.43496741580718" x2="19.41285226520409" y2="9.862082187084136" class="delaunay-line"/>
<line x1="19.41285226520409" y1="9.862082187084136" x2="19.41285226520409" y2="15.862082187084136" class="delaunay-line"/>
<line x1="19.41285226520409" y1="15.862082187084136" x2="23.73659516288621" y2="10.43496741580718" class="delaunay-line"/>
<line x1="2.9301039753156544" y1="26.97679989079773" x2="6.322296359941358" y2="29.09647694773055" class="delaunay-line"/>
<line x1="6.322296359941358" y1="29.09647694773055" x2="9.501811945340588" y2="24.008188370792" class="delaunay-line"/>
<line x1="9.501811945340588" y1="24.008188370792" x2="2.9301039753156544" y2="26.97679989079773" class="delaunay-line"/>
<line x1="9.501811945340588" y1="24.008188370792" x2="6.322296359941358" y2="29.09647694773055" class="delaunay-line"/>
<line x1="6.322296359941358" y1="29.09647694773055" x2="13.253406784338633" y2="24.98546541958164" class="delaunay-line"/>
<line x1="13.253406784338633" y1="24.98546541958164" x2="9.501811945340588" y2="24.008188370792" class="delaunay-line"/>
<line x1="33.52384807652365" y1="11.57447334031611" x2="27.09127743466791" y2="8.256411275747073" class="delaunay-line"/>
<line x1="27.09127743466791" y1="8.256411275747073" x2="30.359111644758073" y2="13.28843468341962" class="delaunay-line"/>
<line x1="30.359111644758073" y1="13.28843468341962" x2="33.52384807652365" y2="11.57447334031611" class="delaunay-line"/>
<line x1="11.412852265204092" y1="9.862082187084136" x2="9.996663722709632" y2="15.795424896678" class="delaunay-line"/>
<line x1="9.996663722709632" y1="15.795424896678" x2="11.412852265204092" y2="15.862082187084136" class="delaunay-line"/>
<line x1="11.412852265204092" y1="15.862082187084136" x2="11.412852265204092" y2="9.862082187084136" class="delaunay-line"/>
<line x1="11.412852265204092" y1="15.862082187084136" x2="9.996663722709632" y2="15.795424896678" class="delaunay-line"/>
<line x1="9.996663722709632" y1="15.795424896678" x2="9.501811945340588" y2="24.008188370792" class="delaunay-line"/>
<line x1="9.501811945340588" y1="24.008188370792" x2="11.412852265204092" y2="15.862082187084136" class="delaunay-line"/>
<line x1="22.5175768786356" y1="5.995223369999002" x2="19.498738557744517" y2="8.61945948596103" class="delaunay-line"/>
<line x1="19.498738557744517" y1="8.61945948596103" x2="23.73659516288621" y2="10.43496741580718" class="delaunay-line"/>
<line x1="23.73659516288621" y1="10.43496741580718" x2="22.5175768786356" y2="5.995223369999002" class="delaunay-line"/>
<line x1="19.41285226520409" y1="9.862082187084136" x2="11.412852265204092" y2="9.862082187084136" class="delaunay-line"/>
<line x1="11.412852265204092" y1="9.862082187084136" x2="19.41285226520409" y2="15.862082187084136" class="delaunay-line"/>
<line x1="19.41285226520409" y1="15.862082187084136" x2="19.41285226520409" y2="9.862082187084136" class="delaunay-line"/>
<line x1="9.996663722709632" y1="15.795424896678" x2="6.109619560714883" y2="21.888511313859176" class="delaunay-line"/>
<line x1="6.109619560714883" y1="21.888511313859176" x2="9.501811945340588" y2="24.008188370792" class="delaunay-line"/>
<line x1="9.501811945340588" y1="24.008188370792" x2="9.996663722709632" y2="15.795424896678" class="delaunay-line"/>
<line x1="43.82382508056006" y1="21.76229144587886" x2="43.40528623809531" y2="15.776907144319914" class="delaunay-line"/>
<line x1="43.40528623809531" y1="15.776907144319914" x2="38.72000049923028" y2="14.57447334031611" class="delaunay-line"/>
<line x1="38.72000049923028" y1="14.57447334031611" x2="43.82382508056006" y2="21.76229144587886" class="delaunay-line"/>
<line x1="37.52384807652365" y1="4.646270110040601" x2="31.474591919748256" y2="5.394364882187" class="delaunay-line"/>
<line x1="31.474591919748256" y1="5.394364882187" x2="33.52384807652365" y2="11.57447334031611" class="delaunay-line"/>
<line x1="33.52384807652365" y1="11.57447334031611" x2="37.52384807652365" y2="4.646270110040601" class="delaunay-line"/>
<line x1="31.474591919748256" y1="5.394364882187" x2="27.74027021375945" y2="6.827836680368204" class="delaunay-line"/>
<line x1="27.74027021375945" y1="6.827836680368204" x2="27.09127743466791" y2="8.256411275747073" class="delaunay-line"/>
<line x1="27.09127743466791" y1="8.256411275747073" x2="31.474591919748256" y2="5.394364882187" class="delaunay-line"/>
<line x1="7.0281302245819415" y1="39.93034491595401" x2="14.813859860519704" y2="46.20588585168859" class="delaunay-line"/>
<line x1="14.813859860519704" y1="46.20588585168859" x2="15.023256840734708" y2="40.209540889574015" class="delaunay-line"/>
<line x1="15.023256840734708" y1="40.209540889574015" x2="7.0281302245819415" y2="39.93034491595401" class="delaunay-line"/>
<line x1="15.023256840734708" y1="40.209540889574015" x2="14.813859860519704" y2="46.20588585168859" class="delaunay-line"/>
<line x1="14.813859860519704" y1="46.20588585168859" x2="21.06856879296997" y2="37.66569608003673" class="delaunay-line"/>
<line x1="21.06856879296997" y1="37.66569608003673" x2="15.023256840734708" y2="40.209540889574015" class="delaunay-line"/>
<line x1="37.23880974336368" y1="42.99472907018827" x2="41.199882018329966" y2="43.55142147402853" class="delaunay-line"/>
<line x1="41.199882018329966" y1="43.55142147402853" x2="38.07384834912407" y2="37.053120657738845" class="delaunay-line"/>
<line x1="38.07384834912407" y1="37.053120657738845" x2="37.23880974336368" y2="42.99472907018827" class="delaunay-line"/>
<line x1="35.4499282812224" y1="43.87220270924261" x2="41.199882018329966" y2="43.55142147402853" class="delaunay-line"/>
<line x1="41.199882018329966" y1="43.55142147402853" x2="37.23880974336368" y2="42.99472907018827" class="delaunay-line"/>
<line x1="37.23880974336368" y1="42.99472907018827" x2="35.4499282812224" y2="43.87220270924261" class="delaunay-line"/>
<line x1="48" y1="48" x2="41.199882018329966" y2="43.55142147402853" class="delaunay-line"/>
<line x1="41.199882018329966" y1="43.55142147402853" x2="35.4499282812224" y2="43.87220270924261" class="delaunay-line"/>
<line x1="35.4499282812224" y1="43.87220270924261" x2="48" y2="48" class="delaunay-line"/>
<line x1="31.474591919748256" y1="5.394364882187" x2="27.09127743466791" y2="8.256411275747073" class="delaunay-line"/>
<line x1="27.09127743466791" y1="8.256411275747073" x2="33.52384807652365" y2="11.57447334031611" class="delaunay-line"/>
<line x1="33.52384807652365" y1="11.57447334031611" x2="31.474591919748256" y2="5.394364882187" class="delaunay-line"/>
<line x1="27.09127743466791" y1="8.256411275747073" x2="22.5175768786356" y2="5.995223369999002" class="delaunay-line"/>
<line x1="22.5175768786356" y1="5.995223369999002" x2="23.73659516288621" y2="10.43496741580718" class="delaunay-line"/>
<line x1="23.73659516288621" y1="10.43496741580718" x2="27.09127743466791" y2="8.256411275747073" class="delaunay-line"/>
<line x1="6.322296359941358" y1="29.09647694773055" x2="7.0281302245819415" y2="39.93034491595401" class="delaunay-line"/>
<line x1="7.0281302245819415" y1="39.93034491595401" x2="14.625814509501446" y2="34.42672753390233" class="delaunay-line"/>
<line x1="14.625814509501446" y1="34.42672753390233" x2="6.322296359941358" y2="29.09647694773055" class="delaunay-line"/>
<line x1="27.74027021375945" y1="6.827836680368204" x2="22.5175768786356" y2="5.995223369999002" class="delaunay-line"/>
<line x1="22.5175768786356" y1="5.995223369999002" x2="27.09127743466791" y2="8.256411275747073" class="delaunay-line"/>
<line x1="27.09127743466791" y1="8.256411275747073" x2="27.74027021375945" y2="6.827836680368204" class="delaunay-line"/>
<line x1="19.498738557744517" y1="8.61945948596103" x2="11.412852265204092" y2="9.862082187084136" class="delaunay-line"/>
<line x1="11.412852265204092" y1="9.862082187084136" x2="19.41285226520409" y2="9.862082187084136" class="delaunay-line"/>
<line x1="19.41285226520409" y1="9.862082187084136" x2="19.498738557744517" y2="8.61945948596103" class="delaunay-line"/>
<line x1="6.109619560714883" y1="21.888511313859176" x2="2.9301039753156544" y2="26.97679989079773" class="delaunay-line"/>
<line x1="2.9301039753156544" y1="26.97679989079773" x2="9.501811945340588" y2="24.008188370792" class="delaunay-line"/>
<line x1="9.501811945340588" y1="24.008188370792" x2="6.109619560714883" y2="21.888511313859176" class="delaunay-line"/>
<line x1="6.322296359941358" y1="29.09647694773055" x2="2.9301039753156544" y2="26.97679989079773" class="delaunay-line"/>
<line x1="2.9301039753156544" y1="26.97679989079773" x2="7.0281302245819415" y2="39.93034491595401" class="delaunay-line"/>
<line x1="7.0281302245819415" y1="39.93034491595401" x2="6.322296359941358" y2="29.09647694773055" class="delaunay-line"/>
<line x1="37.52384807652365" y1="4.646270110040601" x2="33.52384807652365" y2="11.57447334031611" class="delaunay-line"/>
<line x1="33.52384807652365" y1="11.57447334031611" x2="38.72000049923028" y2="14.57447334031611" class="delaunay-line"/>
<line x1="38.72000049923028" y1="14.57447334031611" x2="37.52384807652365" y2="4.646270110040601" class="delaunay-line"/>
<line x1="27.74027021375945" y1="6.827836680368204" x2="25.59006251648765" y2="1.226354121384995" class="delaunay-line"/>
<line x1="25.59006251648765" y1="1.226354121384995" x2="22.5175768786356" y2="5.995223369999002" class="delaunay-line"/>
<line x1="22.5175768786356" y1="5.995223369999002" x2="27.74027021375945" y2="6.827836680368204" class="delaunay-line"/>
<line x1="15.562384383801472" y1="4.0912020046244" x2="11.412852265204092" y2="9.862082187084136" class="delaunay-line"/>
<line x1="11.412852265204092" y1="9.862082187084136" x2="19.498738557744517" y2="8.61945948596103" class="delaunay-line"/>
<line x1="19.498738557744517" y1="8.61945948596103" x2="15.562384383801472" y2="4.0912020046244" class="delaunay-line"/>
<line x1="9.996663722709632" y1="15.795424896678" x2="5.996663722709632" y2="15.795424896678" class="delaunay-line"/>
<line x1="5.996663722709632" y1="15.795424896678" x2="6.109619560714883" y2="21.888511313859176" class="delaunay-line"/>
<line x1="6.109619560714883" y1="21.888511313859176" x2="9.996663722709632" y2="15.795424896678" class="delaunay-line"/>
<line x1="6.109619560714883" y1="21.888511313859176" x2="5.996663722709632" y2="15.795424896678" class="delaunay-line"/>
<line x1="5.996663722709632" y1="15.795424896678" x2="2.9301039753156544" y2="26.97679989079773" class="delaunay-line"/>
<line x1="2.9301039753156544" y1="26.97679989079773" x2="6.109619560714883" y2="21.888511313859176" class="delaunay-line"/>
<line x1="9.996663722709632" y1="9.795424896678" x2="5.996663722709632" y2="15.795424896678" class="delaunay-line"/>
<line x1="5.996663722709632" y1="15.795424896678" x2="9.996663722709632" y2="15.795424896678" class="delaunay-line"/>
<line x1="9.996663722709632" y1="15.795424896678" x2="9.996663722709632" y2="9.795424896678" class="delaunay-line"/>
<line x1="15.562384383801472" y1="4.0912020046244" x2="9.996663722709632" y2="9.795424896678" class="delaunay-line"/>
<line x1="9.996663722709632" y1="9.795424896678" x2="11.412852265204092" y2="9.862082187084136" class="delaunay-line"/>
<line x1="11.412852265204092" y1="9.862082187084136" x2="15.562384383801472" y2="4.0912020046244" class="delaunay-line"/>
<line x1="11.412852265204092" y1="9.862082187084136" x2="9.996663722709632" y2="9.795424896678" class="delaunay-line"/>
<line x1="9.996663722709632" y1="9.795424896678" x2="9.996663722709632" y2="15.795424896678" class="delaunay-line"/>
<line x1="9.996663722709632" y1="15.795424896678" x2="11.412852265204092" y2="9.862082187084136" class="delaunay-line"/>
<line x1="42.72000049923028" y1="7.646270110040601" x2="37.52384807652365" y2="4.646270110040601" class="delaunay-line"/>
<line x1="37.52384807652365" y1="4.646270110040601" x2="38.72000049923028" y2="14.57447334031611" class="delaunay-line"/>
<line x1="38.72000049923028" y1="14.57447334031611" x2="42.72000049923028" y2="7.646270110040601" class="delaunay-line"/>
<line x1="18.581222704692557" y1="1.4669658886623713" x2="15.562384383801472" y2="4.0912020046244" class="delaunay-line"/>
<line x1="15.562384383801472" y1="4.0912020046244" x2="22.5175768786356" y2="5.995223369999002" class="delaunay-line"/>
<line x1="22.5175768786356" y1="5.995223369999002" x2="18.581222704692557" y2="1.4669658886623713" class="delaunay-line"/>
<line x1="7.0281302245819415" y1="39.93034491595401" x2="6.818733244366937" y2="45.926689878068586" class="delaunay-line"/>
<line x1="6.818733244366937" y1="45.926689878068586" x2="14.813859860519704" y2="46.20588585168859" class="delaunay-line"/>
<line x1="14.813859860519704" y1="46.20588585168859" x2="7.0281302245819415" y2="39.93034491595401" class="delaunay-line"/>
<line x1="0" y1="48" x2="6.818733244366937" y2="45.926689878068586" class="delaunay-line"/>
<line x1="6.818733244366937" y1="45.926689878068586" x2="7.0281302245819415" y2="39.93034491595401" class="delaunay-line"/>
<line x1="7.0281302245819415" y1="39.93034491595401" x2="0" y2="48" class="delaunay-line"/>
<line x1="43.40528623809531" y1="15.776907144319914" x2="42.72000049923028" y2="7.646270110040601" class="delaunay-line"/>
<line x1="42.72000049923028" y1="7.646270110040601" x2="38.72000049923028" y2="14.57447334031611" class="delaunay-line"/>
<line x1="38.72000049923028" y1="14.57447334031611" x2="43.40528623809531" y2="15.776907144319914" class="delaunay-line"/>
<line x1="25.59006251648765" y1="1.226354121384995" x2="27.74027021375945" y2="6.827836680368204" class="delaunay-line"/>
<line x1="27.74027021375945" y1="6.827836680368204" x2="31.474591919748256" y2="5.394364882187" class="delaunay-line"/>
<line x1="31.474591919748256" y1="5.394364882187" x2="25.59006251648765" y2="1.226354121384995" class="delaunay-line"/>
<line x1="22.5175768786356" y1="5.995223369999002" x2="15.562384383801472" y2="4.0912020046244" class="delaunay-line"/>
<line x1="15.562384383801472" y1="4.0912020046244" x2="19.498738557744517" y2="8.61945948596103" class="delaunay-line"/>
<line x1="19.498738557744517" y1="8.61945948596103" x2="22.5175768786356" y2="5.995223369999002" class="delaunay-line"/>
<line x1="29.324384222476453" y1="-0.20711767679620818" x2="25.59006251648765" y2="1.226354121384995" class="delaunay-line"/>
<line x1="25.59006251648765" y1="1.226354121384995" x2="31.474591919748256" y2="5.394364882187" class="delaunay-line"/>
<line x1="31.474591919748256" y1="5.394364882187" x2="29.324384222476453" y2="-0.20711767679620818" class="delaunay-line"/>
<line x1="15.562384383801472" y1="4.0912020046244" x2="5.996663722709632" y2="9.795424896678" class="delaunay-line"/>
<line x1="5.996663722709632" y1="9.795424896678" x2="9.996663722709632" y2="9.795424896678" class="delaunay-line"/>
<line x1="9.996663722709632" y1="9.795424896678" x2="15.562384383801472" y2="4.0912020046244" class="delaunay-line"/>
<line x1="9.996663722709632" y1="9.795424896678" x2="5.996663722709632" y2="9.795424896678" class="delaunay-line"/>
<line x1="5.996663722709632" y1="9.795424896678" x2="5.996663722709632" y2="15.795424896678" class="delaunay-line"/>
<line x1="5.996663722709632" y1="15.795424896678" x2="9.996663722709632" y2="9.795424896678" class="delaunay-line"/>
<line x1="5.996663722709632" y1="15.795424896678" x2="0" y2="0" class="delaunay-line"/>
<line x1="0" y1="0" x2="2.9301039753156544" y2="26.97679989079773" class="delaunay-line"/>
<line x1="2.9301039753156544" y1="26.97679989079773" x2="5.996663722709632" y2="15.795424896678" class="delaunay-line"/>
<line x1="25.59006251648765" y1="1.226354121384995" x2="18.581222704692557" y2="1.4669658886623713" class="delaunay-line"/>
<line x1="18.581222704692557" y1="1.4669658886623713" x2="22.5175768786356" y2="5.995223369999002" class="delaunay-line"/>
<line x1="22.5175768786356" y1="5.995223369999002" x2="25.59006251648765" y2="1.226354121384995" class="delaunay-line"/>
<line x1="15.562384383801472" y1="4.0912020046244" x2="0" y2="0" class="delaunay-line"/>
<line x1="0" y1="0" x2="5.996663722709632" y2="9.795424896678" class="delaunay-line"/>
<line x1="5.996663722709632" y1="9.795424896678" x2="15.562384383801472" y2="4.0912020046244" class="delaunay-line"/>
<line x1="37.52384807652365" y1="4.646270110040601" x2="29.324384222476453" y2="-0.20711767679620818" class="delaunay-line"/>
<line x1="29.324384222476453" y1="-0.20711767679620818" x2="31.474591919748256" y2="5.394364882187" class="delaunay-line"/>
<line x1="31.474591919748256" y1="5.394364882187" x2="37.52384807652365" y2="4.646270110040601" class="delaunay-line"/>
<line x1="25.59006251648765" y1="1.226354121384995" x2="29.324384222476453" y2="-0.20711767679620818" class="delaunay-line"/>
<line x1="29.324384222476453" y1="-0.20711767679620818" x2="18.581222704692557" y2="1.4669658886623713" class="delaunay-line"/>
<line x1="18.581222704692557" y1="1.4669658886623713" x2="25.59006251648765" y2="1.226354121384995" class="delaunay-line"/>
<line x1="48" y1="0" x2="29.324384222476453" y2="-0.20711767679620818" class="delaunay-line"/>
<line x1="29.324384222476453" y1="-0.20711767679620818" x2="37.52384807652365" y2="4.646270110040601" class="delaunay-line"/>
<line x1="37.52384807652365" y1="4.646270110040601" x2="48" y2="0" class="delaunay-line"/>
<line x1="31.568745376118418" y1="44.839890291641275" x2="48" y2="48" class="delaunay-line"/>
<line x1="48" y1="48" x2="35.4499282812224" y2="43.87220270924261" class="delaunay-line"/>
<line x1="35.4499282812224" y1="43.87220270924261" x2="31.568745376118418" y2="44.839890291641275" class="delaunay-line"/>
<line x1="41.199882018329966" y1="43.55142147402853" x2="48" y2="48" class="delaunay-line"/>
<line x1="48" y1="48" x2="42.034920624090354" y2="37.6098130615791" class="delaunay-line"/>
<line x1="42.034920624090354" y1="37.6098130615791" x2="41.199882018329966" y2="43.55142147402853" class="delaunay-line"/>
<line x1="42.034920624090354" y1="37.6098130615791" x2="48" y2="48" class="delaunay-line"/>
<line x1="48" y1="48" x2="43.82382508056006" y2="21.76229144587886" class="delaunay-line"/>
<line x1="43.82382508056006" y1="21.76229144587886" x2="42.034920624090354" y2="37.6098130615791" class="delaunay-line"/>
<line x1="43.82382508056006" y1="21.76229144587886" x2="48" y2="0" class="delaunay-line"/>
<line x1="48" y1="0" x2="43.40528623809531" y2="15.776907144319914" class="delaunay-line"/>
<line x1="43.40528623809531" y1="15.776907144319914" x2="43.82382508056006" y2="21.76229144587886" class="delaunay-line"/>
<line x1="43.40528623809531" y1="15.776907144319914" x2="48" y2="0" class="delaunay-line"/>
<line x1="48" y1="0" x2="42.72000049923028" y2="7.646270110040601" class="delaunay-line"/>
<line x1="42.72000049923028" y1="7.646270110040601" x2="43.40528623809531" y2="15.776907144319914" class="delaunay-line"/>
<line x1="14.813859860519704" y1="46.20588585168859" x2="48" y2="48" class="delaunay-line"/>
<line x1="48" y1="48" x2="31.568745376118418" y2="44.839890291641275" class="delaunay-line"/>
<line x1="31.568745376118418" y1="44.839890291641275" x2="14.813859860519704" y2="46.20588585168859" class="delaunay-line"/>
<line x1="0" y1="48" x2="48" y2="48" class="delaunay-line"/>
<line x1="48" y1="48" x2="14.813859860519704" y2="46.20588585168859" class="delaunay-line"/>
<line x1="14.813859860519704" y1="46.20588585168859" x2="0" y2="48" class="delaunay-line"/>
<line x1="2.9301039753156544" y1="26.97679989079773" x2="0" y2="48" class="delaunay-line"/>
<line x1="0" y1="48" x2="7.0281302245819415" y2="39.93034491595401" class="delaunay-line"/>
<line x1="7.0281302245819415" y1="39.93034491595401" x2="2.9301039753156544" y2="26.97679989079773" class="delaunay-line"/>
<line x1="6.818733244366937" y1="45.926689878068586" x2="0" y2="48" class="delaunay-line"/>
<line x1="0" y1="48" x2="14.813859860519704" y2="46.20588585168859" class="delaunay-line"/>
<line x1="14.813859860519704" y1="46.20588585168859" x2="6.818733244366937" y2="45.926689878068586" class="delaunay-line"/>
<line x1="48" y1="48" x2="48" y2="0" class="delaunay-line"/>
<line x1="48" y1="0" x2="43.82382508056006" y2="21.76229144587886" class="delaunay-line"/>
<line x1="43.82382508056006" y1="21.76229144587886" x2="48" y2="48" class="delaunay-line"/>
<line x1="42.72000049923028" y1="7.646270110040601" x2="48" y2="0" class="delaunay-line"/>
<line x1="48" y1="0" x2="37.52384807652365" y2="4.646270110040601" class="delaunay-line"/>
<line x1="37.52384807652365" y1="4.646270110040601" x2="42.72000049923028" y2="7.646270110040601" class="delaunay-line"/>
<line x1="29.324384222476453" y1="-0.20711767679620818" x2="0" y2="0" class="delaunay-line"/>
<line x1="0" y1="0" x2="18.581222704692557" y2="1.4669658886623713" class="delaunay-line"/>
<line x1="18.581222704692557" y1="1.4669658886623713" x2="29.324384222476453" y2="-0.20711767679620818" class="delaunay-line"/>
<line x1="18.581222704692557" y1="1.4669658886623713" x2="0" y2="0" class="delaunay-line"/>
<line x1="0" y1="0" x2="15.562384383801472" y2="4.0912020046244" class="delaunay-line"/>
<line x1="15.562384383801472" y1="4.0912020046244" x2="18.581222704692557" y2="1.4669658886623713" class="delaunay-line"/>
<line x1="5.996663722709632" y1="9.795424896678" x2="0" y2="0" class="delaunay-line"/>
<line x1="0" y1="0" x2="5.996663722709632" y2="15.795424896678" class="delaunay-line"/>
<line x1="5.996663722709632" y1="15.795424896678" x2="5.996663722709632" y2="9.795424896678" class="delaunay-line"/>
<line x1="2.9301039753156544" y1="26.97679989079773" x2="0" y2="0" class="delaunay-line"/>
<line x1="0" y1="0" x2="0" y2="48" class="delaunay-line"/>
<line x1="0" y1="48" x2="2.9301039753156544" y2="26.97679989079773" class="delaunay-line"/>
</g>
<g id="layer-area" class="layer ">
</g>
<g id="layer-building" class="layer ">
<polygon points="38.72000049923028,14.57447334031611 33.52384807652365,11.57447334031611 37.52384807652365,4.646270110040601 42.72000049923028,7.646270110040601" class="terrain-solid"/>
<text x="38.121924287876965" y="9.610371725178355" class="label">#000000</text>
<polygon points="15.023256840734708,40.209540889574015 14.813859860519704,46.20588585168859 6.818733244366937,45.926689878068586 7.0281302245819415,39.93034491595401" class="terrain-solid"/>
<text x="10.920995042550823" y="43.0681153838213" class="label">#000000</text>
<polygon points="30.719934053324792,34.001266988571345 27.011198635057646,35.49969336223499 24.763559074562174,29.93659023483427 28.47229449282932,28.438163861170622" class="terrain-solid"/>
<text x="27.741746563943483" y="31.968928611702808" class="label">#000000</text>
<polygon points="20.581091419349377,33.69551147347145 21.06856879296997,37.66569608003673 15.113291883122038,38.39691214046761 14.625814509501446,34.42672753390233" class="terrain-solid"/>
<text x="17.847191651235708" y="36.04621180696953" class="label">#000000</text>
<polygon points="15.562384383801472,4.0912020046244 18.581222704692557,1.4669658886623713 22.5175768786356,5.995223369999002 19.498738557744517,8.61945948596103" class="terrain-solid"/>
<text x="19.039980631218537" y="5.043212687311701" class="label">#000000</text>
<polygon points="19.41285226520409,9.862082187084136 19.41285226520409,15.862082187084136 11.412852265204092,15.862082187084136 11.412852265204092,9.862082187084136" class="terrain-solid"/>
<text x="15.412852265204092" y="12.862082187084136" class="label">#000000</text>
<polygon points="6.322296359941358,29.09647694773055 2.9301039753156544,26.97679989079773 6.109619560714883,21.888511313859176 9.501811945340588,24.008188370792" class="terrain-solid"/>
<text x="6.2159579603281205" y="25.492494130794864" class="label">#000000</text>
<polygon points="5.996663722709632,9.795424896678 9.996663722709632,9.795424896678 9.996663722709632,15.795424896678 5.996663722709632,15.795424896678" class="terrain-solid"/>
<text x="7.996663722709632" y="12.795424896678" class="label">#000000</text>
<polygon points="35.4499282812224,43.87220270924261 31.568745376118418,44.839890291641275 30.11721400252041,39.01811593398529 33.9983969076244,38.050428351586625" class="terrain-solid"/>
<text x="32.783571141871406" y="41.44515932161395" class="label">#000000</text>
<polygon points="25.59006251648765,1.226354121384995 29.324384222476453,-0.20711767679620818 31.474591919748256,5.394364882187 27.74027021375945,6.827836680368204" class="terrain-solid"/>
<text x="28.532327218117956" y="3.3103595017859977" class="label">#000000</text>
<polygon points="15.824557223084792,28.049643192057555 13.253406784338633,24.98546541958164 17.8496734430525,21.128739761462402 20.420823881798658,24.192917533938317" class="terrain-solid"/>
<text x="16.837115333068645" y="24.58919147675998" class="label">#000000</text>
<polygon points="38.07384834912407,37.053120657738845 42.034920624090354,37.6098130615791 41.199882018329966,43.55142147402853 37.23880974336368,42.99472907018827" class="terrain-solid"/>
<text x="39.63686518372702" y="40.30227106588369" class="label">#000000</text>
<polygon points="39.38582801126249,28.9379972073774 37.266150954329675,32.3301895920031 32.17786237739112,29.15067400660387 34.29753943432394,25.75848162197817" class="terrain-solid"/>
<text x="35.781845194326806" y="29.044335606990636" class="label">#000000</text>
<polygon points="28.54582345502025,23.566807520819044 25.481645682544336,26.137957959565203 21.624920024425098,21.541691300851337 24.689097796901013,18.970540862105178" class="terrain-solid"/>
<text x="25.085371739722675" y="22.55424941083519" class="label">#000000</text>
<polygon points="30.359111644758073,13.28843468341962 27.004429372976375,15.466990823479726 23.73659516288621,10.43496741580718 27.09127743466791,8.256411275747073" class="terrain-solid"/>
<text x="27.047853403822145" y="11.861701049613398" class="label">#000000</text>
<polygon points="35.843312678481475,22.320343235831864 35.42477383601672,16.33495893427292 43.40528623809531,15.776907144319914 43.82382508056006,21.76229144587886" class="terrain-solid"/>
<text x="39.62429945828839" y="19.04862519007589" class="label">#000000</text>
</g>
<g id="layer-wall" class="layer ">
</g>
<g id="layer-tree" class="layer ">
</g>
<g id="layer-rocks" class="layer ">
</g>
<g id="layer-shrub" class="layer ">
</g>
<g id="layer-terrain" class="layer ">
</g>
<g id="layer-clearance" class="layer hidden">
</g>
<g id="layer-models" class="layer ">
</g>
<g id="layer-paths" class="layer ">
</g>
<g id="layer-vectors" class="layer ">
</g>
<g id="layer-los" class="layer ">
</g>
<g id="layer-lof" class="layer ">
</g>

<g id="legend">
<g class="toggle" onclick="toggleLayer('deployment')"><rect x="0.4" y="0.14999999999999997" width="0.4" height="0.4" fill="#222" stroke="#222" stroke-width="0.05"/><text x="1.0" y="0.5499999999999999" class="label">Deployment Zones</text></g>
<g class="toggle" onclick="toggleLayer('grid')"><rect x="0.4" y="0.95" width="0.4" height="0.4" fill="#222" stroke="#222" stroke-width="0.05"/><text x="1.0" y="1.3499999999999999" class="label">0.5 MU Grid</text></g>
<g class="toggle" onclick="toggleLayer('delaunay')"><rect x="0.4" y="1.7500000000000002" width="0.4" height="0.4" fill="#222" stroke="#222" stroke-width="0.05"/><text x="1.0" y="2.1500000000000004" class="label">Delaunay Mesh</text></g>
<g class="toggle disabled"><rect x="0.4" y="2.55" width="0.4" height="0.4" fill="#222" stroke="#222" stroke-width="0.05"/><text x="1.0" y="2.95" class="label">Area Terrain</text></g>
<g class="toggle" onclick="toggleLayer('building')"><rect x="0.4" y="3.3499999999999996" width="0.4" height="0.4" fill="#222" stroke="#222" stroke-width="0.05"/><text x="1.0" y="3.75" class="label">Buildings</text></g>
<g class="toggle disabled"><rect x="0.4" y="4.1499999999999995" width="0.4" height="0.4" fill="#222" stroke="#222" stroke-width="0.05"/><text x="1.0" y="4.55" class="label">Walls</text></g>
<g class="toggle disabled"><rect x="0.4" y="4.949999999999999" width="0.4" height="0.4" fill="#222" stroke="#222" stroke-width="0.05"/><text x="1.0" y="5.35" class="label">Trees</text></g>
<g class="toggle disabled"><rect x="0.4" y="5.749999999999999" width="0.4" height="0.4" fill="#222" stroke="#222" stroke-width="0.05"/><text x="1.0" y="6.1499999999999995" class="label">Rocks</text></g>
<g class="toggle disabled"><rect x="0.4" y="6.549999999999999" width="0.4" height="0.4" fill="#222" stroke="#222" stroke-width="0.05"/><text x="1.0" y="6.949999999999999" class="label">Shrubs</text></g>
<g class="toggle" onclick="toggleLayer('terrain')"><rect x="0.4" y="7.349999999999999" width="0.4" height="0.4" fill="#222" stroke="#222" stroke-width="0.05"/><text x="1.0" y="7.749999999999999" class="label">Other Terrain</text></g>
<g class="toggle" onclick="toggleLayer('clearance')"><rect x="0.4" y="8.15" width="0.4" height="0.4" fill="#fff" stroke="#222" stroke-width="0.05"/><text x="1.0" y="8.549999999999999" class="label">Clearance Zones</text></g>
<g class="toggle" onclick="toggleLayer('models')"><rect x="0.4" y="8.950000000000001" width="0.4" height="0.4" fill="#222" stroke="#222" stroke-width="0.05"/><text x="1.0" y="9.35" class="label">Models</text></g>
<g class="toggle" onclick="toggleLayer('paths')"><rect x="0.4" y="9.750000000000002" width="0.4" height="0.4" fill="#222" stroke="#222" stroke-width="0.05"/><text x="1.0" y="10.15" class="label">Paths</text></g>
<g class="toggle" onclick="toggleLayer('vectors')"><rect x="0.4" y="10.550000000000002" width="0.4" height="0.4" fill="#222" stroke="#222" stroke-width="0.05"/><text x="1.0" y="10.950000000000001" class="label">Vectors</text></g>
<g class="toggle" onclick="toggleLayer('los')"><rect x="0.4" y="11.350000000000003" width="0.4" height="0.4" fill="#222" stroke="#222" stroke-width="0.05"/><text x="1.0" y="11.750000000000002" class="label">LOS</text></g>
<g class="toggle" onclick="toggleLayer('lof')"><rect x="0.4" y="12.150000000000004" width="0.4" height="0.4" fill="#222" stroke="#222" stroke-width="0.05"/><text x="1.0" y="12.550000000000002" class="label">LOF</text></g>
</g>
</svg>