<svg xmlns="http://www.w3.org/2000/svg" viewBox="0 0 48 48" width="1920" height="1920" font-family="Arial" font-size="0.6">
<defs>
  <style><![CDATA[
    .layer { display: inline; }
    .layer.hidden { display: none; }
    .grid-line { stroke: #999; stroke-width: 0.02; opacity: 0.2; }
    .grid-line-2mu { stroke: #666; stroke-width: 0.04; opacity: 0.4; }
    .grid-line-6mu { stroke: #333; stroke-width: 0.08; opacity: 0.6; }
    .delaunay-line { stroke: #4a6fa5; stroke-width: 0.03; opacity: 0.3; }
    #layer-area { opacity: 0.8; }
    #layer-building, #layer-wall, #layer-tree, #layer-rocks, #layer-shrub, #layer-terrain { opacity: 0.8; }
    .terrain-area { stroke: none; }
    .terrain-solid { stroke: #000; stroke-width: 0.05; }
    .model { stroke: #ff0000; stroke-width: 2; vector-effect: non-scaling-stroke; }
    .path { fill: none; stroke-width: 0.12; }
    .vector { stroke-width: 0.1; }
    .los-ray { stroke-width: 0.08; stroke-dasharray: 0.2 0.2; }
    .lof-ray { stroke-width: 0.08; stroke-dasharray: 0.3 0.15; }
    .label { fill: #111 !important; font-size: 0.6px; }
    .toggle { cursor: pointer; }
    .toggle.disabled { cursor: default; }
    .toggle.disabled rect { stroke: #ccc; fill: #fff; }
    .toggle.disabled text { fill: #ccc; }
#layer-area { fill: #C49A6C; }
  ]]></style>
</defs>
<rect x="0" y="0" width="48" height="48" fill="#ffffff" stroke="#111" stroke-width="0.05"/>
<script><![CDATA[
      function toggleLayer(id) {
        var layer = document.getElementById('layer-' + id);
        if (!layer) return;
        if (layer.classList.contains('hidden')) {
          layer.classList.remove('hidden');
        } else {
          layer.classList.add('hidden');
        }
      }
    ]]></script>
<text x="0.4" y="47.6" class="label">LARGE battlefield_A80-B0-W0-R0-S0-T0</text>
<g id="layer-deployment" class="layer ">
</g>
<g id="layer-grid" class="layer ">
<line x1="0" y1="0" x2="0" y2="48" class="grid-line-6mu"/>
<line x1="0.5" y1="0" x2="0.5" y2="48" class="grid-line"/>
<line x1="1" y1="0" x2="1" y2="48" class="grid-line"/>
<line x1="1.5" y1="0" x2="1.5" y2="48" class="grid-line"/>
<line x1="2" y1="0" x2="2" y2="48" class="grid-line-2mu"/>
<line x1="2.5" y1="0" x2="2.5" y2="48" class="grid-line"/>
<line x1="3" y1="0" x2="3" y2="48" class="grid-line"/>
<line x1="3.5" y1="0" x2="3.5" y2="48" class="grid-line"/>
<line x1="4" y1="0" x2="4" y2="48" class="grid-line-2mu"/>
<line x1="4.5" y1="0" x2="4.5" y2="48" class="grid-line"/>
<line x1="5" y1="0" x2="5" y2="48" class="grid-line"/>
<line x1="5.5" y1="0" x2="5.5" y2="48" class="grid-line"/>
<line x1="6" y1="0" x2="6" y2="48" class="grid-line-6mu"/>
<line x1="6.5" y1="0" x2="6.5" y2="48" class="grid-line"/>
<line x1="7" y1="0" x2="7" y2="48" class="grid-line"/>
<line x1="7.5" y1="0" x2="7.5" y2="48" class="grid-line"/>
<line x1="8" y1="0" x2="8" y2="48" class="grid-line-2mu"/>
<line x1="8.5" y1="0" x2="8.5" y2="48" class="grid-line"/>
<line x1="9" y1="0" x2="9" y2="48" class="grid-line"/>
<line x1="9.5" y1="0" x2="9.5" y2="48" class="grid-line"/>
<line x1="10" y1="0" x2="10" y2="48" class="grid-line-2mu"/>
<line x1="10.5" y1="0" x2="10.5" y2="48" class="grid-line"/>
<line x1="11" y1="0" x2="11" y2="48" class="grid-line"/>
<line x1="11.5" y1="0" x2="11.5" y2="48" class="grid-line"/>
<line x1="12" y1="0" x2="12" y2="48" class="grid-line-6mu"/>
<line x1="12.5" y1="0" x2="12.5" y2="48" class="grid-line"/>
<line x1="13" y1="0" x2="13" y2="48" class="grid-line"/>
<line x1="13.5" y1="0" x2="13.5" y2="48" class="grid-line"/>
<line x1="14" y1="0" x2="14" y2="48" class="grid-line-2mu"/>
<line x1="14.5" y1="0" x2="14.5" y2="48" class="grid-line"/>
<line x1="15" y1="0" x2="15" y2="48" class="grid-line"/>
<line x1="15.5" y1="0" x2="15.5" y2="48" class="grid-line"/>
<line x1="16" y1="0" x2="16" y2="48" class="grid-line-2mu"/>
<line x1="16.5" y1="0" x2="16.5" y2="48" class="grid-line"/>
<line x1="17" y1="0" x2="17" y2="48" class="grid-line"/>
<line x1="17.5" y1="0" x2="17.5" y2="48" class="grid-line"/>
<line x1="18" y1="0" x2="18" y2="48" class="grid-line-6mu"/>
<line x1="18.5" y1="0" x2="18.5" y2="48" class="grid-line"/>
<line x1="19" y1="0" x2="19" y2="48" class="grid-line"/>
<line x1="19.5" y1="0" x2="19.5" y2="48" class="grid-line"/>
<line x1="20" y1="0" x2="20" y2="48" class="grid-line-2mu"/>
<line x1="20.5" y1="0" x2="20.5" y2="48" class="grid-line"/>
<line x1="21" y1="0" x2="21" y2="48" class="grid-line"/>
<line x1="21.5" y1="0" x2="21.5" y2="48" class="grid-line"/>
<line x1="22" y1="0" x2="22" y2="48" class="grid-line-2mu"/>
<line x1="22.5" y1="0" x2="22.5" y2="48" class="grid-line"/>
<line x1="23" y1="0" x2="23" y2="48" class="grid-line"/>
<line x1="23.5" y1="0" x2="23.5" y2="48" class="grid-line"/>
<line x1="24" y1="0" x2="24" y2="48" class="grid-line-6mu"/>
<line x1="24.5" y1="0" x2="24.5" y2="48" class="grid-line"/>
<line x1="25" y1="0" x2="25" y2="48" class="grid-line"/>
<line x1="25.5" y1="0" x2="25.5" y2="48" class="grid-line"/>
<line x1="26" y1="0" x2="26" y2="48" class="grid-line-2mu"/>
<line x1="26.5" y1="0" x2="26.5" y2="48" class="grid-line"/>
<line x1="27" y1="0" x2="27" y2="48" class="grid-line"/>
<line x1="27.5" y1="0" x2="27.5" y2="48" class="grid-line"/>
<line x1="28" y1="0" x2="28" y2="48" class="grid-line-2mu"/>
<line x1="28.5" y1="0" x2="28.5" y2="48" class="grid-line"/>
<line x1="29" y1="0" x2="29" y2="48" class="grid-line"/>
<line x1="29.5" y1="0" x2="29.5" y2="48" class="grid-line"/>
<line x1="30" y1="0" x2="30" y2="48" class="grid-line-6mu"/>
<line x1="30.5" y1="0" x2="30.5" y2="48" class="grid-line"/>
<line x1="31" y1="0" x2="31" y2="48" class="grid-line"/>
<line x1="31.5" y1="0" x2="31.5" y2="48" class="grid-line"/>
<line x1="32" y1="0" x2="32" y2="48" class="grid-line-2mu"/>
<line x1="32.5" y1="0" x2="32.5" y2="48" class="grid-line"/>
<line x1="33" y1="0" x2="33" y2="48" class="grid-line"/>
<line x1="33.5" y1="0" x2="33.5" y2="48" class="grid-line"/>
<line x1="34" y1="0" x2="34" y2="48" class="grid-line-2mu"/>
<line x1="34.5" y1="0" x2="34.5" y2="48" class="grid-line"/>
<line x1="35" y1="0" x2="35" y2="48" class="grid-line"/>
<line x1="35.5" y1="0" x2="35.5" y2="48" class="grid-line"/>
<line x1="36" y1="0" x2="36" y2="48" class="grid-line-6mu"/>
<line x1="36.5" y1="0" x2="36.5" y2="48" class="grid-line"/>
<line x1="37" y1="0" x2="37" y2="48" class="grid-line"/>
<line x1="37.5" y1="0" x2="37.5" y2="48" class="grid-line"/>
<line x1="38" y1="0" x2="38" y2="48" class="grid-line-2mu"/>
<line x1="38.5" y1="0" x2="38.5" y2="48" class="grid-line"/>
<line x1="39" y1="0" x2="39" y2="48" class="grid-line"/>
<line x1="39.5" y1="0" x2="39.5" y2="48" class="grid-line"/>
<line x1="40" y1="0" x2="40" y2="48" class="grid-line-2mu"/>
<line x1="40.5" y1="0" x2="40.5" y2="48" class="grid-line"/>
<line x1="41" y1="0" x2="41" y2="48" class="grid-line"/>
<line x1="41.5" y1="0" x2="41.5" y2="48" class="grid-line"/>
<line x1="42" y1="0" x2="42" y2="48" class="grid-line-6mu"/>
<line x1="42.5" y1="0" x2="42.5" y2="48" class="grid-line"/>
<line x1="43" y1="0" x2="43" y2="48" class="grid-line"/>
<line x1="43.5" y1="0" x2="43.5" y2="48" class="grid-line"/>
<line x1="44" y1="0" x2="44" y2="48" class="grid-line-2mu"/>
<line x1="44.5" y1="0" x2="44.5" y2="48" class="grid-line"/>
<line x1="45" y1="0" x2="45" y2="48" class="grid-line"/>
<line x1="45.5" y1="0" x2="45.5" y2="48" class="grid-line"/>
<line x1="46" y1="0" x2="46" y2="48" class="grid-line-2mu"/>
<line x1="46.5" y1="0" x2="46.5" y2="48" class="grid-line"/>
<line x1="47" y1="0" x2="47" y2="48" class="grid-line"/>
<line x1="47.5" y1="0" x2="47.5" y2="48" class="grid-line"/>
<line x1="48" y1="0" x2="48" y2="48" class="grid-line-6mu"/>
<line x1="0" y1="0" x2="48" y2="0" class="grid-line-6mu"/>
<line x1="0" y1="0.5" x2="48" y2="0.5" class="grid-line"/>
<line x1="0" y1="1" x2="48" y2="1" class="grid-line"/>
<line x1="0" y1="1.5" x2="48" y2="1.5" class="grid-line"/>
<line x1="0" y1="2" x2="48" y2="2" class="grid-line-2mu"/>
<line x1="0" y1="2.5" x2="48" y2="2.5" class="grid-line"/>
<line x1="0" y1="3" x2="48" y2="3" class="grid-line"/>
<line x1="0" y1="3.5" x2="48" y2="3.5" class="grid-line"/>
<line x1="0" y1="4" x2="48" y2="4" class="grid-line-2mu"/>
<line x1="0" y1="4.5" x2="48" y2="4.5" class="grid-line"/>
<line x1="0" y1="5" x2="48" y2="5" class="grid-line"/>
<line x1="0" y1="5.5" x2="48" y2="5.5" class="grid-line"/>
<line x1="0" y1="6" x2="48" y2="6" class="grid-line-6mu"/>
<line x1="0" y1="6.5" x2="48" y2="6.5" class="grid-line"/>
<line x1="0" y1="7" x2="48" y2="7" class="grid-line"/>
<line x1="0" y1="7.5" x2="48" y2="7.5" class="grid-line"/>
<line x1="0" y1="8" x2="48" y2="8" class="grid-line-2mu"/>
<line x1="0" y1="8.5" x2="48" y2="8.5" class="grid-line"/>
<line x1="0" y1="9" x2="48" y2="9" class="grid-line"/>
<line x1="0" y1="9.5" x2="48" y2="9.5" class="grid-line"/>
<line x1="0" y1="10" x2="48" y2="10" class="grid-line-2mu"/>
<line x1="0" y1="10.5" x2="48" y2="10.5" class="grid-line"/>
<line x1="0" y1="11" x2="48" y2="11" class="grid-line"/>
<line x1="0" y1="11.5" x2="48" y2="11.5" class="grid-line"/>
<line x1="0" y1="12" x2="48" y2="12" class="grid-line-6mu"/>
<line x1="0" y1="12.5" x2="48" y2="12.5" class="grid-line"/>
<line x1="0" y1="13" x2="48" y2="13" class="grid-line"/>
<line x1="0" y1="13.5" x2="48" y2="13.5" class="grid-line"/>
<line x1="0" y1="14" x2="48" y2="14" class="grid-line-2mu"/>
<line x1="0" y1="14.5" x2="48" y2="14.5" class="grid-line"/>
<line x1="0" y1="15" x2="48" y2="15" class="grid-line"/>
<line x1="0" y1="15.5" x2="48" y2="15.5" class="grid-line"/>
<line x1="0" y1="16" x2="48" y2="16" class="grid-line-2mu"/>
<line x1="0" y1="16.5" x2="48" y2="16.5" class="grid-line"/>
<line x1="0" y1="17" x2="48" y2="17" class="grid-line"/>
<line x1="0" y1="17.5" x2="48" y2="17.5" class="grid-line"/>
<line x1="0" y1="18" x2="48" y2="18" class="grid-line-6mu"/>
<line x1="0" y1="18.5" x2="48" y2="18.5" class="grid-line"/>
<line x1="0" y1="19" x2="48" y2="19" class="grid-line"/>
<line x1="0" y1="19.5" x2="48" y2="19.5" class="grid-line"/>
<line x1="0" y1="20" x2="48" y2="20" class="grid-line-2mu"/>
<line x1="0" y1="20.5" x2="48" y2="20.5" class="grid-line"/>
<line x1="0" y1="21" x2="48" y2="21" class="grid-line"/>
<line x1="0" y1="21.5" x2="48" y2="21.5" class="grid-line"/>
<line x1="0" y1="22" x2="48" y2="22" class="grid-line-2mu"/>
<line x1="0" y1="22.5" x2="48" y2="22.5" class="grid-line"/>
<line x1="0" y1="23" x2="48" y2="23" class="grid-line"/>
<line x1="0" y1="23.5" x2="48" y2="23.5" class="grid-line"/>
<line x1="0" y1="24" x2="48" y2="24" class="grid-line-6mu"/>
<line x1="0" y1="24.5" x2="48" y2="24.5" class="grid-line"/>
<line x1="0" y1="25" x2="48" y2="25" class="grid-line"/>
<line x1="0" y1="25.5" x2="48" y2="25.5" class="grid-line"/>
<line x1="0" y1="26" x2="48" y2="26" class="grid-line-2mu"/>
<line x1="0" y1="26.5" x2="48" y2="26.5" class="grid-line"/>
<line x1="0" y1="27" x2="48" y2="27" class="grid-line"/>
<line x1="0" y1="27.5" x2="48" y2="27.5" class="grid-line"/>
<line x1="0" y1="28" x2="48" y2="28" class="grid-line-2mu"/>
<line x1="0" y1="28.5" x2="48" y2="28.5" class="grid-line"/>
<line x1="0" y1="29" x2="48" y2="29" class="grid-line"/>
<line x1="0" y1="29.5" x2="48" y2="29.5" class="grid-line"/>
<line x1="0" y1="30" x2="48" y2="30" class="grid-line-6mu"/>
<line x1="0" y1="30.5" x2="48" y2="30.5" class="grid-line"/>
<line x1="0" y1="31" x2="48" y2="31" class="grid-line"/>
<line x1="0" y1="31.5" x2="48" y2="31.5" class="grid-line"/>
<line x1="0" y1="32" x2="48" y2="32" class="grid-line-2mu"/>
<line x1="0" y1="32.5" x2="48" y2="32.5" class="grid-line"/>
<line x1="0" y1="33" x2="48" y2="33" class="grid-line"/>
<line x1="0" y1="33.5" x2="48" y2="33.5" class="grid-line"/>
<line x1="0" y1="34" x2="48" y2="34" class="grid-line-2mu"/>
<line x1="0" y1="34.5" x2="48" y2="34.5" class="grid-line"/>
<line x1="0" y1="35" x2="48" y2="35" class="grid-line"/>
<line x1="0" y1="35.5" x2="48" y2="35.5" class="grid-line"/>
<line x1="0" y1="36" x2="48" y2="36" class="grid-line-6mu"/>
<line x1="0" y1="36.5" x2="48" y2="36.5" class="grid-line"/>
<line x1="0" y1="37" x2="48" y2="37" class="grid-line"/>
<line x1="0" y1="37.5" x2="48" y2="37.5" class="grid-line"/>
<line x1="0" y1="38" x2="48" y2="38" class="grid-line-2mu"/>
<line x1="0" y1="38.5" x2="48" y2="38.5" class="grid-line"/>
<line x1="0" y1="39" x2="48" y2="39" class="grid-line"/>
<line x1="0" y1="39.5" x2="48" y2="39.5" class="grid-line"/>
<line x1="0" y1="40" x2="48" y2="40" class="grid-line-2mu"/>
<line x1="0" y1="40.5" x2="48" y2="40.5" class="grid-line"/>
<line x1="0" y1="41" x2="48" y2="41" class="grid-line"/>
<line x1="0" y1="41.5" x2="48" y2="41.5" class="grid-line"/>
<line x1="0" y1="42" x2="48" y2="42" class="grid-line-6mu"/>
<line x1="0" y1="42.5" x2="48" y2="42.5" class="grid-line"/>
<line x1="0" y1="43" x2="48" y2="43" class="grid-line"/>
<line x1="0" y1="43.5" x2="48" y2="43.5" class="grid-line"/>
<line x1="0" y1="44" x2="48" y2="44" class="grid-line-2mu"/>
<line x1="0" y1="44.5" x2="48" y2="44.5" class="grid-line"/>
<line x1="0" y1="45" x2="48" y2="45" class="grid-line"/>
<line x1="0" y1="45.5" x2="48" y2="45.5" class="grid-line"/>
<line x1="0" y1="46" x2="48" y2="46" class="grid-line-2mu"/>
<line x1="0" y1="46.5" x2="48" y2="46.5" class="grid-line"/>
<line x1="0" y1="47" x2="48" y2="47" class="grid-line"/>
<line x1="0" y1="47.5" x2="48" y2="47.5" class="grid-line"/>
<line x1="0" y1="48" x2="48" y2="48" class="grid-line-6mu"/>
</g>
<g id="layer-delaunay" class="layer ">
<line x1="19.67458163692322" y1="24.02045679736196" x2="14.84375086400337" y2="26.49538028746828" class="delaunay-line"/>
<line x1="14.84375086400337" y1="26.49538028746828" x2="19.7167291485818" y2="34.76691480360432" class="delaunay-line"/>
<line x1="19.7167291485818" y1="34.76691480360432" x2="19.67458163692322" y2="24.02045679736196" class="delaunay-line"/>
<line x1="13.573558882875336" y1="38.67802925123581" x2="20.302613111838554" y2="36.00401121441684" class="delaunay-line"/>
<line x1="20.302613111838554" y1="36.00401121441684" x2="19.7167291485818" y2="34.76691480360432" class="delaunay-line"/>
<line x1="19.7167291485818" y1="34.76691480360432" x2="13.573558882875336" y2="38.67802925123581" class="delaunay-line"/>
<line x1="19.7167291485818" y1="34.76691480360432" x2="26.319407935559795" y2="30.003840744141115" class="delaunay-line"/>
<line x1="26.319407935559795" y1="30.003840744141115" x2="19.67458163692322" y2="24.02045679736196" class="delaunay-line"/>
<line x1="19.67458163692322" y1="24.02045679736196" x2="19.7167291485818" y2="34.76691480360432" class="delaunay-line"/>
<line x1="10.686915824132056" y1="24.491480403548458" x2="13.154764922445317" y2="26.685339327006666" class="delaunay-line"/>
<line x1="13.154764922445317" y1="26.685339327006666" x2="14.84375086400337" y2="26.49538028746828" class="delaunay-line"/>
<line x1="14.84375086400337" y1="26.49538028746828" x2="10.686915824132056" y2="24.491480403548458" class="delaunay-line"/>
<line x1="14.84375086400337" y1="26.49538028746828" x2="11.314947299047388" y2="36.47503482060334" class="delaunay-line"/>
<line x1="11.314947299047388" y1="36.47503482060334" x2="19.7167291485818" y2="34.76691480360432" class="delaunay-line"/>
<line x1="19.7167291485818" y1="34.76691480360432" x2="14.84375086400337" y2="26.49538028746828" class="delaunay-line"/>
<line x1="20.302613111838554" y1="36.00401121441684" x2="26.319407935559795" y2="30.003840744141115" class="delaunay-line"/>
<line x1="26.319407935559795" y1="30.003840744141115" x2="19.7167291485818" y2="34.76691480360432" class="delaunay-line"/>
<line x1="19.7167291485818" y1="34.76691480360432" x2="20.302613111838554" y2="36.00401121441684" class="delaunay-line"/>
<line x1="19.67458163692322" y1="24.02045679736196" x2="10.686915824132056" y2="24.491480403548458" class="delaunay-line"/>
<line x1="10.686915824132056" y1="24.491480403548458" x2="14.84375086400337" y2="26.49538028746828" class="delaunay-line"/>
<line x1="14.84375086400337" y1="26.49538028746828" x2="19.67458163692322" y2="24.02045679736196" class="delaunay-line"/>
<line x1="13.154764922445317" y1="26.685339327006666" x2="11.314947299047388" y2="36.47503482060334" class="delaunay-line"/>
<line x1="11.314947299047388" y1="36.47503482060334" x2="14.84375086400337" y2="26.49538028746828" class="delaunay-line"/>
<line x1="14.84375086400337" y1="26.49538028746828" x2="13.154764922445317" y2="26.685339327006666" class="delaunay-line"/>
<line x1="20.302613111838554" y1="36.00401121441684" x2="27.94920789931663" y2="35.70895133661739" class="delaunay-line"/>
<line x1="27.94920789931663" y1="35.70895133661739" x2="26.319407935559795" y2="30.003840744141115" class="delaunay-line"/>
<line x1="26.319407935559795" y1="30.003840744141115" x2="20.302613111838554" y2="36.00401121441684" class="delaunay-line"/>
<line x1="24.379604917323626" y1="38.54283714990335" x2="27.94920789931663" y2="35.70895133661739" class="delaunay-line"/>
<line x1="27.94920789931663" y1="35.70895133661739" x2="20.302613111838554" y2="36.00401121441684" class="delaunay-line"/>
<line x1="20.302613111838554" y1="36.00401121441684" x2="24.379604917323626" y2="38.54283714990335" class="delaunay-line"/>
<line x1="10.686915824132056" y1="24.491480403548458" x2="11.314947299047388" y2="36.47503482060334" class="delaunay-line"/>
<line x1="11.314947299047388" y1="36.47503482060334" x2="13.154764922445317" y2="26.685339327006666" class="delaunay-line"/>
<line x1="13.154764922445317" y1="26.685339327006666" x2="10.686915824132056" y2="24.491480403548458" class="delaunay-line"/>
<line x1="20.302613111838554" y1="36.00401121441684" x2="18.715721397875086" y2="45.53715080301609" class="delaunay-line"/>
<line x1="18.715721397875086" y1="45.53715080301609" x2="24.379604917323626" y2="38.54283714990335" class="delaunay-line"/>
<line x1="24.379604917323626" y1="38.54283714990335" x2="20.302613111838554" y2="36.00401121441684" class="delaunay-line"/>
<line x1="11.314947299047388" y1="36.47503482060334" x2="13.573558882875336" y2="38.67802925123581" class="delaunay-line"/>
<line x1="13.573558882875336" y1="38.67802925123581" x2="19.7167291485818" y2="34.76691480360432" class="delaunay-line"/>
<line x1="19.7167291485818" y1="34.76691480360432" x2="11.314947299047388" y2="36.47503482060334" class="delaunay-line"/>
<line x1="27.94920789931663" y1="35.70895133661739" x2="30.389627757771432" y2="30.22767859076178" class="delaunay-line"/>
<line x1="30.389627757771432" y1="30.22767859076178" x2="26.319407935559795" y2="30.003840744141115" class="delaunay-line"/>
<line x1="26.319407935559795" y1="30.003840744141115" x2="27.94920789931663" y2="35.70895133661739" class="delaunay-line"/>
<line x1="26.319407935559795" y1="30.003840744141115" x2="32.38957394303635" y2="27.068396066674573" class="delaunay-line"/>
<line x1="32.38957394303635" y1="27.068396066674573" x2="19.67458163692322" y2="24.02045679736196" class="delaunay-line"/>
<line x1="19.67458163692322" y1="24.02045679736196" x2="26.319407935559795" y2="30.003840744141115" class="delaunay-line"/>
<line x1="24.08879624751587" y1="47.52687325887466" x2="25.9600014648757" y2="38.72354485227041" class="delaunay-line"/>
<line x1="25.9600014648757" y1="38.72354485227041" x2="24.379604917323626" y2="38.54283714990335" class="delaunay-line"/>
<line x1="24.379604917323626" y1="38.54283714990335" x2="24.08879624751587" y2="47.52687325887466" class="delaunay-line"/>
<line x1="24.379604917323626" y1="38.54283714990335" x2="25.9600014648757" y2="38.72354485227041" class="delaunay-line"/>
<line x1="25.9600014648757" y1="38.72354485227041" x2="27.94920789931663" y2="35.70895133661739" class="delaunay-line"/>
<line x1="27.94920789931663" y1="35.70895133661739" x2="24.379604917323626" y2="38.54283714990335" class="delaunay-line"/>
<line x1="38.34485085288428" y1="27.799612127105455" x2="32.38957394303635" y2="27.068396066674573" class="delaunay-line"/>
<line x1="32.38957394303635" y1="27.068396066674573" x2="30.389627757771432" y2="30.22767859076178" class="delaunay-line"/>
<line x1="30.389627757771432" y1="30.22767859076178" x2="38.34485085288428" y2="27.799612127105455" class="delaunay-line"/>
<line x1="30.389627757771432" y1="30.22767859076178" x2="32.38957394303635" y2="27.068396066674573" class="delaunay-line"/>
<line x1="32.38957394303635" y1="27.068396066674573" x2="26.319407935559795" y2="30.003840744141115" class="delaunay-line"/>
<line x1="26.319407935559795" y1="30.003840744141115" x2="30.389627757771432" y2="30.22767859076178" class="delaunay-line"/>
<line x1="11.314947299047388" y1="36.47503482060334" x2="14.052845629133259" y2="41.76122845671706" class="delaunay-line"/>
<line x1="14.052845629133259" y1="41.76122845671706" x2="13.573558882875336" y2="38.67802925123581" class="delaunay-line"/>
<line x1="13.573558882875336" y1="38.67802925123581" x2="11.314947299047388" y2="36.47503482060334" class="delaunay-line"/>
<line x1="13.573558882875336" y1="38.67802925123581" x2="14.052845629133259" y2="41.76122845671706" class="delaunay-line"/>
<line x1="14.052845629133259" y1="41.76122845671706" x2="20.302613111838554" y2="36.00401121441684" class="delaunay-line"/>
<line x1="20.302613111838554" y1="36.00401121441684" x2="13.573558882875336" y2="38.67802925123581" class="delaunay-line"/>
<line x1="14.052845629133259" y1="41.76122845671706" x2="18.715721397875086" y2="45.53715080301609" class="delaunay-line"/>
<line x1="18.715721397875086" y1="45.53715080301609" x2="20.302613111838554" y2="36.00401121441684" class="delaunay-line"/>
<line x1="20.302613111838554" y1="36.00401121441684" x2="14.052845629133259" y2="41.76122845671706" class="delaunay-line"/>
<line x1="19.67458163692322" y1="24.02045679736196" x2="7.4029572739172345" y2="18.39698175593555" class="delaunay-line"/>
<line x1="7.4029572739172345" y1="18.39698175593555" x2="10.686915824132056" y2="24.491480403548458" class="delaunay-line"/>
<line x1="10.686915824132056" y1="24.491480403548458" x2="19.67458163692322" y2="24.02045679736196" class="delaunay-line"/>
<line x1="10.686915824132056" y1="24.491480403548458" x2="-1.8360974828411178" y2="27.20883177754419" class="delaunay-line"/>
<line x1="-1.8360974828411178" y1="27.20883177754419" x2="11.314947299047388" y2="36.47503482060334" class="delaunay-line"/>
<line x1="11.314947299047388" y1="36.47503482060334" x2="10.686915824132056" y2="24.491480403548458" class="delaunay-line"/>
<line x1="19.229326434844417" y1="12.150808948022748" x2="7.4029572739172345" y2="18.39698175593555" class="delaunay-line"/>
<line x1="7.4029572739172345" y1="18.39698175593555" x2="19.67458163692322" y2="24.02045679736196" class="delaunay-line"/>
<line x1="19.67458163692322" y1="24.02045679736196" x2="19.229326434844417" y2="12.150808948022748" class="delaunay-line"/>
<line x1="25.9600014648757" y1="38.72354485227041" x2="31.828887069278533" y2="39.971014997176965" class="delaunay-line"/>
<line x1="31.828887069278533" y1="39.971014997176965" x2="27.94920789931663" y2="35.70895133661739" class="delaunay-line"/>
<line x1="27.94920789931663" y1="35.70895133661739" x2="25.9600014648757" y2="38.72354485227041" class="delaunay-line"/>
<line x1="27.94920789931663" y1="35.70895133661739" x2="31.828887069278533" y2="39.971014997176965" class="delaunay-line"/>
<line x1="31.828887069278533" y1="39.971014997176965" x2="30.389627757771432" y2="30.22767859076178" class="delaunay-line"/>
<line x1="30.389627757771432" y1="30.22767859076178" x2="27.94920789931663" y2="35.70895133661739" class="delaunay-line"/>
<line x1="24.08879624751587" y1="47.52687325887466" x2="31.828887069278533" y2="39.971014997176965" class="delaunay-line"/>
<line x1="31.828887069278533" y1="39.971014997176965" x2="25.9600014648757" y2="38.72354485227041" class="delaunay-line"/>
<line x1="25.9600014648757" y1="38.72354485227041" x2="24.08879624751587" y2="47.52687325887466" class="delaunay-line"/>
<line x1="30.704983506400843" y1="15.659269404695584" x2="19.229326434844417" y2="12.150808948022748" class="delaunay-line"/>
<line x1="19.229326434844417" y1="12.150808948022748" x2="19.67458163692322" y2="24.02045679736196" class="delaunay-line"/>
<line x1="19.67458163692322" y1="24.02045679736196" x2="30.704983506400843" y2="15.659269404695584" class="delaunay-line"/>
<line x1="32.38957394303635" y1="27.068396066674573" x2="30.704983506400843" y2="15.659269404695584" class="delaunay-line"/>
<line x1="30.704983506400843" y1="15.659269404695584" x2="19.67458163692322" y2="24.02045679736196" class="delaunay-line"/>
<line x1="19.67458163692322" y1="24.02045679736196" x2="32.38957394303635" y2="27.068396066674573" class="delaunay-line"/>
<line x1="39.4416749435306" y1="18.866696762333554" x2="33.486398033682676" y2="18.135480701902672" class="delaunay-line"/>
<line x1="33.486398033682676" y1="18.135480701902672" x2="32.38957394303635" y2="27.068396066674573" class="delaunay-line"/>
<line x1="32.38957394303635" y1="27.068396066674573" x2="39.4416749435306" y2="18.866696762333554" class="delaunay-line"/>
<line x1="32.38957394303635" y1="27.068396066674573" x2="33.486398033682676" y2="18.135480701902672" class="delaunay-line"/>
<line x1="33.486398033682676" y1="18.135480701902672" x2="30.704983506400843" y2="15.659269404695584" class="delaunay-line"/>
<line x1="30.704983506400843" y1="15.659269404695584" x2="32.38957394303635" y2="27.068396066674573" class="delaunay-line"/>
<line x1="18.715721397875086" y1="45.53715080301609" x2="24.08879624751587" y2="47.52687325887466" class="delaunay-line"/>
<line x1="24.08879624751587" y1="47.52687325887466" x2="24.379604917323626" y2="38.54283714990335" class="delaunay-line"/>
<line x1="24.379604917323626" y1="38.54283714990335" x2="18.715721397875086" y2="45.53715080301609" class="delaunay-line"/>
<line x1="38.61153687655484" y1="33.88830837844398" x2="38.34485085288428" y2="27.799612127105455" class="delaunay-line"/>
<line x1="38.34485085288428" y1="27.799612127105455" x2="30.389627757771432" y2="30.22767859076178" class="delaunay-line"/>
<line x1="30.389627757771432" y1="30.22767859076178" x2="38.61153687655484" y2="33.88830837844398" class="delaunay-line"/>
<line x1="29.957681851918704" y1="48.77434340378122" x2="36.171117018100034" y2="39.369581124299586" class="delaunay-line"/>
<line x1="36.171117018100034" y1="39.369581124299586" x2="31.828887069278533" y2="39.971014997176965" class="delaunay-line"/>
<line x1="31.828887069278533" y1="39.971014997176965" x2="29.957681851918704" y2="48.77434340378122" class="delaunay-line"/>
<line x1="31.828887069278533" y1="39.971014997176965" x2="38.61153687655484" y2="33.88830837844398" class="delaunay-line"/>
<line x1="38.61153687655484" y1="33.88830837844398" x2="30.389627757771432" y2="30.22767859076178" class="delaunay-line"/>
<line x1="30.389627757771432" y1="30.22767859076178" x2="31.828887069278533" y2="39.971014997176965" class="delaunay-line"/>
<line x1="36.171117018100034" y1="39.369581124299586" x2="38.61153687655484" y2="33.88830837844398" class="delaunay-line"/>
<line x1="38.61153687655484" y1="33.88830837844398" x2="31.828887069278533" y2="39.971014997176965" class="delaunay-line"/>
<line x1="31.828887069278533" y1="39.971014997176965" x2="36.171117018100034" y2="39.369581124299586" class="delaunay-line"/>
<line x1="30.704983506400843" y1="15.659269404695584" x2="22.448942858371158" y2="9.188804918354668" class="delaunay-line"/>
<line x1="22.448942858371158" y1="9.188804918354668" x2="19.229326434844417" y2="12.150808948022748" class="delaunay-line"/>
<line x1="19.229326434844417" y1="12.150808948022748" x2="30.704983506400843" y2="15.659269404695584" class="delaunay-line"/>
<line x1="19.229326434844417" y1="12.150808948022748" x2="11.50719899382526" y2="7.120670306504645" class="delaunay-line"/>
<line x1="11.50719899382526" y1="7.120670306504645" x2="7.4029572739172345" y2="18.39698175593555" class="delaunay-line"/>
<line x1="7.4029572739172345" y1="18.39698175593555" x2="19.229326434844417" y2="12.150808948022748" class="delaunay-line"/>
<line x1="7.4029572739172345" y1="18.39698175593555" x2="-1.8360974828411178" y2="27.20883177754419" class="delaunay-line"/>
<line x1="-1.8360974828411178" y1="27.20883177754419" x2="10.686915824132056" y2="24.491480403548458" class="delaunay-line"/>
<line x1="10.686915824132056" y1="24.491480403548458" x2="7.4029572739172345" y2="18.39698175593555" class="delaunay-line"/>
<line x1="11.314947299047388" y1="36.47503482060334" x2="0" y2="48" class="delaunay-line"/>
<line x1="0" y1="48" x2="14.052845629133259" y2="41.76122845671706" class="delaunay-line"/>
<line x1="14.052845629133259" y1="41.76122845671706" x2="11.314947299047388" y2="36.47503482060334" class="delaunay-line"/>
<line x1="24.08879624751587" y1="47.52687325887466" x2="29.957681851918704" y2="48.77434340378122" class="delaunay-line"/>
<line x1="29.957681851918704" y1="48.77434340378122" x2="31.828887069278533" y2="39.971014997176965" class="delaunay-line"/>
<line x1="31.828887069278533" y1="39.971014997176965" x2="24.08879624751587" y2="47.52687325887466" class="delaunay-line"/>
<line x1="31.38185822314306" y1="10.285629009000994" x2="22.448942858371158" y2="9.188804918354668" class="delaunay-line"/>
<line x1="22.448942858371158" y1="9.188804918354668" x2="30.704983506400843" y2="15.659269404695584" class="delaunay-line"/>
<line x1="30.704983506400843" y1="15.659269404695584" x2="31.38185822314306" y2="10.285629009000994" class="delaunay-line"/>
<line x1="31.38185822314306" y1="10.285629009000994" x2="24.55159557708005" y2="7.438416017652452" class="delaunay-line"/>
<line x1="24.55159557708005" y1="7.438416017652452" x2="22.448942858371158" y2="9.188804918354668" class="delaunay-line"/>
<line x1="22.448942858371158" y1="9.188804918354668" x2="31.38185822314306" y2="10.285629009000994" class="delaunay-line"/>
<line x1="16.206940885978966" y1="4.0669566769092445" x2="11.50719899382526" y2="7.120670306504645" class="delaunay-line"/>
<line x1="11.50719899382526" y1="7.120670306504645" x2="19.229326434844417" y2="12.150808948022748" class="delaunay-line"/>
<line x1="19.229326434844417" y1="12.150808948022748" x2="16.206940885978966" y2="4.0669566769092445" class="delaunay-line"/>
<line x1="33.486398033682676" y1="18.135480701902672" x2="31.38185822314306" y2="10.285629009000994" class="delaunay-line"/>
<line x1="31.38185822314306" y1="10.285629009000994" x2="30.704983506400843" y2="15.659269404695584" class="delaunay-line"/>
<line x1="30.704983506400843" y1="15.659269404695584" x2="33.486398033682676" y2="18.135480701902672" class="delaunay-line"/>
<line x1="34.271757117925304" y1="7.380059496710655" x2="31.38185822314306" y2="10.285629009000994" class="delaunay-line"/>
<line x1="31.38185822314306" y1="10.285629009000994" x2="33.486398033682676" y2="18.135480701902672" class="delaunay-line"/>
<line x1="33.486398033682676" y1="18.135480701902672" x2="34.271757117925304" y2="7.380059496710655" class="delaunay-line"/>
<line x1="40.69987756923139" y1="18.521809108973322" x2="39.4416749435306" y2="18.866696762333554" class="delaunay-line"/>
<line x1="39.4416749435306" y1="18.866696762333554" x2="42.94751712972686" y2="24.084912236374045" class="delaunay-line"/>
<line x1="42.94751712972686" y1="24.084912236374045" x2="40.69987756923139" y2="18.521809108973322" class="delaunay-line"/>
<line x1="38.34485085288428" y1="27.799612127105455" x2="39.4416749435306" y2="18.866696762333554" class="delaunay-line"/>
<line x1="39.4416749435306" y1="18.866696762333554" x2="32.38957394303635" y2="27.068396066674573" class="delaunay-line"/>
<line x1="32.38957394303635" y1="27.068396066674573" x2="38.34485085288428" y2="27.799612127105455" class="delaunay-line"/>
<line x1="-1.8360974828411178" y1="27.20883177754419" x2="-1.4173035224110988" y2="39.201521701773345" class="delaunay-line"/>
<line x1="-1.4173035224110988" y1="39.201521701773345" x2="11.314947299047388" y2="36.47503482060334" class="delaunay-line"/>
<line x1="11.314947299047388" y1="36.47503482060334" x2="-1.8360974828411178" y2="27.20883177754419" class="delaunay-line"/>
<line x1="14.052845629133259" y1="41.76122845671706" x2="0" y2="48" class="delaunay-line"/>
<line x1="0" y1="48" x2="18.715721397875086" y2="45.53715080301609" class="delaunay-line"/>
<line x1="18.715721397875086" y1="45.53715080301609" x2="14.052845629133259" y2="41.76122845671706" class="delaunay-line"/>
<line x1="18.715721397875086" y1="45.53715080301609" x2="0" y2="48" class="delaunay-line"/>
<line x1="0" y1="48" x2="24.08879624751587" y2="47.52687325887466" class="delaunay-line"/>
<line x1="24.08879624751587" y1="47.52687325887466" x2="18.715721397875086" y2="45.53715080301609" class="delaunay-line"/>
<line x1="16.206940885978966" y1="4.0669566769092445" x2="19.229326434844417" y2="12.150808948022748" class="delaunay-line"/>
<line x1="19.229326434844417" y1="12.150808948022748" x2="22.448942858371158" y2="9.188804918354668" class="delaunay-line"/>
<line x1="22.448942858371158" y1="9.188804918354668" x2="16.206940885978966" y2="4.0669566769092445" class="delaunay-line"/>
<line x1="7.4029572739172345" y1="18.39698175593555" x2="-1.0542763131559396" y2="15.318800466004532" class="delaunay-line"/>
<line x1="-1.0542763131559396" y1="15.318800466004532" x2="-1.8360974828411178" y2="27.20883177754419" class="delaunay-line"/>
<line x1="-1.8360974828411178" y1="27.20883177754419" x2="7.4029572739172345" y2="18.39698175593555" class="delaunay-line"/>
<line x1="42.94751712972686" y1="24.084912236374045" x2="39.4416749435306" y2="18.866696762333554" class="delaunay-line"/>
<line x1="39.4416749435306" y1="18.866696762333554" x2="38.34485085288428" y2="27.799612127105455" class="delaunay-line"/>
<line x1="38.34485085288428" y1="27.799612127105455" x2="42.94751712972686" y2="24.084912236374045" class="delaunay-line"/>
<line x1="39.4416749435306" y1="18.866696762333554" x2="34.271757117925304" y2="7.380059496710655" class="delaunay-line"/>
<line x1="34.271757117925304" y1="7.380059496710655" x2="33.486398033682676" y2="18.135480701902672" class="delaunay-line"/>
<line x1="33.486398033682676" y1="18.135480701902672" x2="39.4416749435306" y2="18.866696762333554" class="delaunay-line"/>
<line x1="38.61153687655484" y1="33.88830837844398" x2="42.94751712972686" y2="24.084912236374045" class="delaunay-line"/>
<line x1="42.94751712972686" y1="24.084912236374045" x2="38.34485085288428" y2="27.799612127105455" class="delaunay-line"/>
<line x1="38.34485085288428" y1="27.799612127105455" x2="38.61153687655484" y2="33.88830837844398" class="delaunay-line"/>
<line x1="11.50719899382526" y1="7.120670306504645" x2="-1.0542763131559396" y2="15.318800466004532" class="delaunay-line"/>
<line x1="-1.0542763131559396" y1="15.318800466004532" x2="7.4029572739172345" y2="18.39698175593555" class="delaunay-line"/>
<line x1="7.4029572739172345" y1="18.39698175593555" x2="11.50719899382526" y2="7.120670306504645" class="delaunay-line"/>
<line x1="23.18015891880204" y1="3.2335280085067346" x2="16.206940885978966" y2="4.0669566769092445" class="delaunay-line"/>
<line x1="16.206940885978966" y1="4.0669566769092445" x2="22.448942858371158" y2="9.188804918354668" class="delaunay-line"/>
<line x1="22.448942858371158" y1="9.188804918354668" x2="23.18015891880204" y2="3.2335280085067346" class="delaunay-line"/>
<line x1="26.799235137575522" y1="1.8753128902517275" x2="23.18015891880204" y2="3.2335280085067346" class="delaunay-line"/>
<line x1="23.18015891880204" y1="3.2335280085067346" x2="24.55159557708005" y2="7.438416017652452" class="delaunay-line"/>
<line x1="24.55159557708005" y1="7.438416017652452" x2="26.799235137575522" y2="1.8753128902517275" class="delaunay-line"/>
<line x1="24.55159557708005" y1="7.438416017652452" x2="23.18015891880204" y2="3.2335280085067346" class="delaunay-line"/>
<line x1="23.18015891880204" y1="3.2335280085067346" x2="22.448942858371158" y2="9.188804918354668" class="delaunay-line"/>
<line x1="22.448942858371158" y1="9.188804918354668" x2="24.55159557708005" y2="7.438416017652452" class="delaunay-line"/>
<line x1="40.69987756923139" y1="18.521809108973322" x2="34.271757117925304" y2="7.380059496710655" class="delaunay-line"/>
<line x1="34.271757117925304" y1="7.380059496710655" x2="39.4416749435306" y2="18.866696762333554" class="delaunay-line"/>
<line x1="39.4416749435306" y1="18.866696762333554" x2="40.69987756923139" y2="18.521809108973322" class="delaunay-line"/>
<line x1="31.38185822314306" y1="10.285629009000994" x2="32.11307428357394" y2="4.330352099153061" class="delaunay-line"/>
<line x1="32.11307428357394" y1="4.330352099153061" x2="24.55159557708005" y2="7.438416017652452" class="delaunay-line"/>
<line x1="24.55159557708005" y1="7.438416017652452" x2="31.38185822314306" y2="10.285629009000994" class="delaunay-line"/>
<line x1="-1.4173035224110988" y1="39.201521701773345" x2="0" y2="48" class="delaunay-line"/>
<line x1="0" y1="48" x2="11.314947299047388" y2="36.47503482060334" class="delaunay-line"/>
<line x1="11.314947299047388" y1="36.47503482060334" x2="-1.4173035224110988" y2="39.201521701773345" class="delaunay-line"/>
<line x1="24.08879624751587" y1="47.52687325887466" x2="0" y2="48" class="delaunay-line"/>
<line x1="0" y1="48" x2="29.957681851918704" y2="48.77434340378122" class="delaunay-line"/>
<line x1="29.957681851918704" y1="48.77434340378122" x2="24.08879624751587" y2="47.52687325887466" class="delaunay-line"/>
<line x1="34.271757117925304" y1="7.380059496710655" x2="32.11307428357394" y2="4.330352099153061" class="delaunay-line"/>
<line x1="32.11307428357394" y1="4.330352099153061" x2="31.38185822314306" y2="10.285629009000994" class="delaunay-line"/>
<line x1="31.38185822314306" y1="10.285629009000994" x2="34.271757117925304" y2="7.380059496710655" class="delaunay-line"/>
<line x1="32.11307428357394" y1="4.330352099153061" x2="26.799235137575522" y2="1.8753128902517275" class="delaunay-line"/>
<line x1="26.799235137575522" y1="1.8753128902517275" x2="24.55159557708005" y2="7.438416017652452" class="delaunay-line"/>
<line x1="24.55159557708005" y1="7.438416017652452" x2="32.11307428357394" y2="4.330352099153061" class="delaunay-line"/>
<line x1="23.18015891880204" y1="3.2335280085067346" x2="18.454580446474438" y2="-1.49614645049148" class="delaunay-line"/>
<line x1="18.454580446474438" y1="-1.49614645049148" x2="16.206940885978966" y2="4.0669566769092445" class="delaunay-line"/>
<line x1="16.206940885978966" y1="4.0669566769092445" x2="23.18015891880204" y2="3.2335280085067346" class="delaunay-line"/>
<line x1="18.454580446474438" y1="-1.49614645049148" x2="3.0499654067520847" y2="4.0424890165736285" class="delaunay-line"/>
<line x1="3.0499654067520847" y1="4.0424890165736285" x2="16.206940885978966" y2="4.0669566769092445" class="delaunay-line"/>
<line x1="16.206940885978966" y1="4.0669566769092445" x2="18.454580446474438" y2="-1.49614645049148" class="delaunay-line"/>
<line x1="16.206940885978966" y1="4.0669566769092445" x2="3.0499654067520847" y2="4.0424890165736285" class="delaunay-line"/>
<line x1="3.0499654067520847" y1="4.0424890165736285" x2="11.50719899382526" y2="7.120670306504645" class="delaunay-line"/>
<line x1="11.50719899382526" y1="7.120670306504645" x2="16.206940885978966" y2="4.0669566769092445" class="delaunay-line"/>
<line x1="11.50719899382526" y1="7.120670306504645" x2="3.0499654067520847" y2="4.0424890165736285" class="delaunay-line"/>
<line x1="3.0499654067520847" y1="4.0424890165736285" x2="-1.0542763131559396" y2="15.318800466004532" class="delaunay-line"/>
<line x1="-1.0542763131559396" y1="15.318800466004532" x2="11.50719899382526" y2="7.120670306504645" class="delaunay-line"/>
<line x1="26.799235137575522" y1="1.8753128902517275" x2="18.454580446474438" y2="-1.49614645049148" class="delaunay-line"/>
<line x1="18.454580446474438" y1="-1.49614645049148" x2="23.18015891880204" y2="3.2335280085067346" class="delaunay-line"/>
<line x1="23.18015891880204" y1="3.2335280085067346" x2="26.799235137575522" y2="1.8753128902517275" class="delaunay-line"/>
<line x1="51.292171820827946" y1="20.713452895630837" x2="49.044532260332474" y2="15.150349768230113" class="delaunay-line"/>
<line x1="49.044532260332474" y1="15.150349768230113" x2="40.69987756923139" y2="18.521809108973322" class="delaunay-line"/>
<line x1="40.69987756923139" y1="18.521809108973322" x2="51.292171820827946" y2="20.713452895630837" class="delaunay-line"/>
<line x1="40.69987756923139" y1="18.521809108973322" x2="46.15497394282414" y2="5.709982285189875" class="delaunay-line"/>
<line x1="46.15497394282414" y1="5.709982285189875" x2="34.271757117925304" y2="7.380059496710655" class="delaunay-line"/>
<line x1="34.271757117925304" y1="7.380059496710655" x2="40.69987756923139" y2="18.521809108973322" class="delaunay-line"/>
<line x1="34.271757117925304" y1="7.380059496710655" x2="33.01919920928472" y2="-1.5323531219634787" class="delaunay-line"/>
<line x1="33.01919920928472" y1="-1.5323531219634787" x2="32.11307428357394" y2="4.330352099153061" class="delaunay-line"/>
<line x1="32.11307428357394" y1="4.330352099153061" x2="34.271757117925304" y2="7.380059496710655" class="delaunay-line"/>
<line x1="51.292171820827946" y1="20.713452895630837" x2="40.69987756923139" y2="18.521809108973322" class="delaunay-line"/>
<line x1="40.69987756923139" y1="18.521809108973322" x2="42.94751712972686" y2="24.084912236374045" class="delaunay-line"/>
<line x1="42.94751712972686" y1="24.084912236374045" x2="51.292171820827946" y2="20.713452895630837" class="delaunay-line"/>
<line x1="51.292171820827946" y1="20.713452895630837" x2="42.94751712972686" y2="24.084912236374045" class="delaunay-line"/>
<line x1="42.94751712972686" y1="24.084912236374045" x2="38.61153687655484" y2="33.88830837844398" class="delaunay-line"/>
<line x1="38.61153687655484" y1="33.88830837844398" x2="51.292171820827946" y2="20.713452895630837" class="delaunay-line"/>
<line x1="48" y1="48" x2="51.292171820827946" y2="20.713452895630837" class="delaunay-line"/>
<line x1="51.292171820827946" y1="20.713452895630837" x2="38.61153687655484" y2="33.88830837844398" class="delaunay-line"/>
<line x1="38.61153687655484" y1="33.88830837844398" x2="48" y2="48" class="delaunay-line"/>
<line x1="48" y1="48" x2="38.61153687655484" y2="33.88830837844398" class="delaunay-line"/>
<line x1="38.61153687655484" y1="33.88830837844398" x2="36.171117018100034" y2="39.369581124299586" class="delaunay-line"/>
<line x1="36.171117018100034" y1="39.369581124299586" x2="48" y2="48" class="delaunay-line"/>
<line x1="32.11307428357394" y1="4.330352099153061" x2="33.01919920928472" y2="-1.5323531219634787" class="delaunay-line"/>
<line x1="33.01919920928472" y1="-1.5323531219634787" x2="26.799235137575522" y2="1.8753128902517275" class="delaunay-line"/>
<line x1="26.799235137575522" y1="1.8753128902517275" x2="32.11307428357394" y2="4.330352099153061" class="delaunay-line"/>
<line x1="26.799235137575522" y1="1.8753128902517275" x2="33.01919920928472" y2="-1.5323531219634787" class="delaunay-line"/>
<line x1="33.01919920928472" y1="-1.5323531219634787" x2="18.454580446474438" y2="-1.49614645049148" class="delaunay-line"/>
<line x1="18.454580446474438" y1="-1.49614645049148" x2="26.799235137575522" y2="1.8753128902517275" class="delaunay-line"/>
<line x1="46.15497394282414" y1="5.709982285189875" x2="33.01919920928472" y2="-1.5323531219634787" class="delaunay-line"/>
<line x1="33.01919920928472" y1="-1.5323531219634787" x2="34.271757117925304" y2="7.380059496710655" class="delaunay-line"/>
<line x1="34.271757117925304" y1="7.380059496710655" x2="46.15497394282414" y2="5.709982285189875" class="delaunay-line"/>
<line x1="29.957681851918704" y1="48.77434340378122" x2="48" y2="48" class="delaunay-line"/>
<line x1="48" y1="48" x2="36.171117018100034" y2="39.369581124299586" class="delaunay-line"/>
<line x1="36.171117018100034" y1="39.369581124299586" x2="29.957681851918704" y2="48.77434340378122" class="delaunay-line"/>
<line x1="18.454580446474438" y1="-1.49614645049148" x2="0" y2="0" class="delaunay-line"/>
<line x1="0" y1="0" x2="3.0499654067520847" y2="4.0424890165736285" class="delaunay-line"/>
<line x1="3.0499654067520847" y1="4.0424890165736285" x2="18.454580446474438" y2="-1.49614645049148" class="delaunay-line"/>
<line x1="3.0499654067520847" y1="4.0424890165736285" x2="0" y2="0" class="delaunay-line"/>
<line x1="0" y1="0" x2="-1.0542763131559396" y2="15.318800466004532" class="delaunay-line"/>
<line x1="-1.0542763131559396" y1="15.318800466004532" x2="3.0499654067520847" y2="4.0424890165736285" class="delaunay-line"/>
<line x1="48" y1="0" x2="46.15497394282414" y2="5.709982285189875" class="delaunay-line"/>
<line x1="46.15497394282414" y1="5.709982285189875" x2="49.044532260332474" y2="15.150349768230113" class="delaunay-line"/>
<line x1="49.044532260332474" y1="15.150349768230113" x2="48" y2="0" class="delaunay-line"/>
<line x1="49.044532260332474" y1="15.150349768230113" x2="46.15497394282414" y2="5.709982285189875" class="delaunay-line"/>
<line x1="46.15497394282414" y1="5.709982285189875" x2="40.69987756923139" y2="18.521809108973322" class="delaunay-line"/>
<line x1="40.69987756923139" y1="18.521809108973322" x2="49.044532260332474" y2="15.150349768230113" class="delaunay-line"/>
<line x1="46.15497394282414" y1="5.709982285189875" x2="44.90241603418356" y2="-3.202430333484258" class="delaunay-line"/>
<line x1="44.90241603418356" y1="-3.202430333484258" x2="33.01919920928472" y2="-1.5323531219634787" class="delaunay-line"/>
<line x1="33.01919920928472" y1="-1.5323531219634787" x2="46.15497394282414" y2="5.709982285189875" class="delaunay-line"/>
<line x1="51.292171820827946" y1="20.713452895630837" x2="48" y2="0" class="delaunay-line"/>
<line x1="48" y1="0" x2="49.044532260332474" y2="15.150349768230113" class="delaunay-line"/>
<line x1="49.044532260332474" y1="15.150349768230113" x2="51.292171820827946" y2="20.713452895630837" class="delaunay-line"/>
<line x1="48" y1="0" x2="44.90241603418356" y2="-3.202430333484258" class="delaunay-line"/>
<line x1="44.90241603418356" y1="-3.202430333484258" x2="46.15497394282414" y2="5.709982285189875" class="delaunay-line"/>
<line x1="46.15497394282414" y1="5.709982285189875" x2="48" y2="0" class="delaunay-line"/>
<line x1="33.01919920928472" y1="-1.5323531219634787" x2="44.90241603418356" y2="-3.202430333484258" class="delaunay-line"/>
<line x1="44.90241603418356" y1="-3.202430333484258" x2="18.454580446474438" y2="-1.49614645049148" class="delaunay-line"/>
<line x1="18.454580446474438" y1="-1.49614645049148" x2="33.01919920928472" y2="-1.5323531219634787" class="delaunay-line"/>
</g>
<g id="layer-area" class="layer ">
<polygon points="33.486398033682676,18.135480701902672 39.4416749435306,18.866696762333554 38.34485085288428,27.799612127105455 32.38957394303635,27.068396066674573" class="terrain-area"/>
<text x="35.91562444328348" y="22.967546414504064" class="label">#C49A6C</text>
<polygon points="34.271757117925304,7.380059496710655 33.01919920928472,-1.5323531219634787 44.90241603418356,-3.202430333484258 46.15497394282414,5.709982285189875" class="terrain-area"/>
<text x="39.58708657605443" y="2.088814581613198" class="label">#C49A6C</text>
<polygon points="32.11307428357394,4.330352099153061 31.38185822314306,10.285629009000994 22.448942858371158,9.188804918354668 23.18015891880204,3.2335280085067346" class="terrain-area"/>
<text x="27.281008570972546" y="6.759578508753864" class="label">#C49A6C</text>
<polygon points="7.4029572739172345,18.39698175593555 -1.0542763131559396,15.318800466004532 3.0499654067520847,4.0424890165736285 11.50719899382526,7.120670306504645" class="terrain-area"/>
<text x="5.22646134033466" y="11.219735386254587" class="label">#C49A6C</text>
<polygon points="18.715721397875086,45.53715080301609 14.052845629133259,41.76122845671706 19.7167291485818,34.76691480360432 24.379604917323626,38.54283714990335" class="terrain-area"/>
<text x="19.216225273228442" y="40.152032803310206" class="label">#C49A6C</text>
<polygon points="29.957681851918704,48.77434340378122 24.08879624751587,47.52687325887466 25.9600014648757,38.72354485227041 31.828887069278533,39.971014997176965" class="terrain-area"/>
<text x="27.9588416583972" y="43.74894412802581" class="label">#C49A6C</text>
<polygon points="26.319407935559795,30.003840744141115 14.84375086400337,26.49538028746828 19.229326434844417,12.150808948022748 30.704983506400843,15.659269404695584" class="terrain-area"/>
<text x="22.774367185202106" y="21.07732484608193" class="label">#C49A6C</text>
<polygon points="10.686915824132056,24.491480403548458 19.67458163692322,24.02045679736196 20.302613111838554,36.00401121441684 11.314947299047388,36.47503482060334" class="terrain-area"/>
<text x="15.494764467985306" y="30.24774580898265" class="label">#C49A6C</text>
<polygon points="42.94751712972686,24.084912236374045 40.69987756923139,18.521809108973322 49.044532260332474,15.150349768230113 51.292171820827946,20.713452895630837" class="terrain-area"/>
<text x="45.99602469502967" y="19.61763100230208" class="label">#C49A6C</text>
<polygon points="38.61153687655484,33.88830837844398 36.171117018100034,39.369581124299586 27.94920789931663,35.70895133661739 30.389627757771432,30.22767859076178" class="terrain-area"/>
<text x="33.280372387935735" y="34.798629857530685" class="label">#C49A6C</text>
<polygon points="-1.4173035224110988,39.201521701773345 -1.8360974828411178,27.20883177754419 13.154764922445317,26.685339327006666 13.573558882875336,38.67802925123581" class="terrain-area"/>
<text x="5.8687307000171085" y="32.94343051439" class="label">#C49A6C</text>
<polygon points="16.206940885978966,4.0669566769092445 18.454580446474438,-1.49614645049148 26.799235137575522,1.8753128902517275 24.55159557708005,7.438416017652452" class="terrain-area"/>
<text x="21.503088011777244" y="2.971134783580486" class="label">#C49A6C</text>
</g>
<g id="layer-building" class="layer ">
</g>
<g id="layer-wall" class="layer ">
</g>
<g id="layer-tree" class="layer ">
</g>
<g id="layer-rocks" class="layer ">
</g>
<g id="layer-shrub" class="layer ">
</g>
<g id="layer-terrain" class="layer ">
</g>
<g id="layer-clearance" class="layer hidden">
</g>
<g id="layer-models" class="layer ">
</g>
<g id="layer-paths" class="layer ">
</g>
<g id="layer-vectors" class="layer ">
</g>
<g id="layer-los" class="layer ">
</g>
<g id="layer-lof" class="layer ">
</g>

<g id="legend">
<g class="toggle" onclick="toggleLayer('deployment')"><rect x="0.4" y="0.14999999999999997" width="0.4" height="0.4" fill="#222" stroke="#222" stroke-width="0.05"/><text x="1.0" y="0.5499999999999999" class="label">Deployment Zones</text></g>
<g class="toggle" onclick="toggleLayer('grid')"><rect x="0.4" y="0.95" width="0.4" height="0.4" fill="#222" stroke="#222" stroke-width="0.05"/><text x="1.0" y="1.3499999999999999" class="label">0.5 MU Grid</text></g>
<g class="toggle" onclick="toggleLayer('delaunay')"><rect x="0.4" y="1.7500000000000002" width="0.4" height="0.4" fill="#222" stroke="#222" stroke-width="0.05"/><text x="1.0" y="2.1500000000000004" class="label">Delaunay Mesh</text></g>
<g class="toggle" onclick="toggleLayer('area')"><rect x="0.4" y="2.55" width="0.4" height="0.4" fill="#222" stroke="#222" stroke-width="0.05"/><text x="1.0" y="2.95" class="label">Area Terrain</text></g>
<g class="toggle disabled"><rect x="0.4" y="3.3499999999999996" width="0.4" height="0.4" fill="#222" stroke="#222" stroke-width="0.05"/><text x="1.0" y="3.75" class="label">Buildings</text></g>
<g class="toggle disabled"><rect x="0.4" y="4.1499999999999995" width="0.4" height="0.4" fill="#222" stroke="#222" stroke-width="0.05"/><text x="1.0" y="4.55" class="label">Walls</text></g>
<g class="toggle disabled"><rect x="0.4" y="4.949999999999999" width="0.4" height="0.4" fill="#222" stroke="#222" stroke-width="0.05"/><text x="1.0" y="5.35" class="label">Trees</text></g>
<g class="toggle disabled"><rect x="0.4" y="5.749999999999999" width="0.4" height="0.4" fill="#222" stroke="#222" stroke-width="0.05"/><text x="1.0" y="6.1499999999999995" class="label">Rocks</text></g>
<g class="toggle disabled"><rect x="0.4" y="6.549999999999999" width="0.4" height="0.4" fill="#222" stroke="#222" stroke-width="0.05"/><text x="1.0" y="6.949999999999999" class="label">Shrubs</text></g>
<g class="toggle" onclick="toggleLayer('terrain')"><rect x="0.4" y="7.349999999999999" width="0.4" height="0.4" fill="#222" stroke="#222" stroke-width="0.05"/><text x="1.0" y="7.749999999999999" class="label">Other Terrain</text></g>
<g class="toggle" onclick="toggleLayer('clearance')"><rect x="0.4" y="8.15" width="0.4" height="0.4" fill="#fff" stroke="#222" stroke-width="0.05"/><text x="1.0" y="8.549999999999999" class="label">Clearance Zones</text></g>
<g class="toggle" onclick="toggleLayer('models')"><rect x="0.4" y="8.950000000000001" width="0.4" height="0.4" fill="#222" stroke="#222" stroke-width="0.05"/><text x="1.0" y="9.35" class="label">Models</text></g>
<g class="toggle" onclick="toggleLayer('paths')"><rect x="0.4" y="9.750000000000002" width="0.4" height="0.4" fill="#222" stroke="#222" stroke-width="0.05"/><text x="1.0" y="10.15" class="label">Paths</text></g>
<g class="toggle" onclick="toggleLayer('vectors')"><rect x="0.4" y="10.550000000000002" width="0.4" height="0.4" fill="#222" stroke="#222" stroke-width="0.05"/><text x="1.0" y="10.950000000000001" class="label">Vectors</text></g>
<g class="toggle" onclick="toggleLayer('los')"><rect x="0.4" y="11.350000000000003" width="0.4" height="0.4" fill="#222" stroke="#222" stroke-width="0.05"/><text x="1.0" y="11.750000000000002" class="label">LOS</text></g>
<g class="toggle" onclick="toggleLayer('lof')"><rect x="0.4" y="12.150000000000004" width="0.4" height="0.4" fill="#222" stroke="#222" stroke-width="0.05"/><text x="1.0" y="12.550000000000002" class="label">LOF</text></g>
</g>
</svg>