<svg xmlns="http://www.w3.org/2000/svg" viewBox="0 0 48 48" width="1920" height="1920" font-family="Arial" font-size="0.6">
<defs>
  <style><![CDATA[
    .layer { display: inline; }
    .layer.hidden { display: none; }
    .grid-line { stroke: #999; stroke-width: 0.02; opacity: 0.2; }
    .grid-line-2mu { stroke: #666; stroke-width: 0.04; opacity: 0.4; }
    .grid-line-6mu { stroke: #333; stroke-width: 0.08; opacity: 0.6; }
    .delaunay-line { stroke: #4a6fa5; stroke-width: 0.03; opacity: 0.3; }
    #layer-area { opacity: 0.8; }
    #layer-building, #layer-wall, #layer-tree, #layer-rocks, #layer-shrub, #layer-terrain { opacity: 0.8; }
    .terrain-area { stroke: none; }
    .terrain-solid { stroke: #000; stroke-width: 0.05; }
    .model { stroke: #ff0000; stroke-width: 2; vector-effect: non-scaling-stroke; }
    .path { fill: none; stroke-width: 0.12; }
    .vector { stroke-width: 0.1; }
    .los-ray { stroke-width: 0.08; stroke-dasharray: 0.2 0.2; }
    .lof-ray { stroke-width: 0.08; stroke-dasharray: 0.3 0.15; }
    .label { fill: #111 !important; font-size: 0.6px; }
    .toggle { cursor: pointer; }
    .toggle.disabled { cursor: default; }
    .toggle.disabled rect { stroke: #ccc; fill: #fff; }
    .toggle.disabled text { fill: #ccc; }
#layer-building { fill: #000000; }
  ]]></style>
</defs>
<rect x="0" y="0" width="48" height="48" fill="#ffffff" stroke="#111" stroke-width="0.05"/>
<script><![CDATA[
      function toggleLayer(id) {
        var layer = document.getElementById('layer-' + id);
        if (!layer) return;
        if (layer.classList.contains('hidden')) {
          layer.classList.remove('hidden');
        } else {
          layer.classList.add('hidden');
        }
      }
    ]]></script>
<text x="0.4" y="47.6" class="label">LARGE battlefield_A0-B40-W0-R0-S0-T0</text>
<g id="layer-deployment" class="layer ">
</g>
<g id="layer-grid" class="layer ">
<line x1="0" y1="0" x2="0" y2="48" class="grid-line-6mu"/>
<line x1="0.5" y1="0" x2="0.5" y2="48" class="grid-line"/>
<line x1="1" y1="0" x2="1" y2="48" class="grid-line"/>
<line x1="1.5" y1="0" x2="1.5" y2="48" class="grid-line"/>
<line x1="2" y1="0" x2="2" y2="48" class="grid-line-2mu"/>
<line x1="2.5" y1="0" x2="2.5" y2="48" class="grid-line"/>
<line x1="3" y1="0" x2="3" y2="48" class="grid-line"/>
<line x1="3.5" y1="0" x2="3.5" y2="48" class="grid-line"/>
<line x1="4" y1="0" x2="4" y2="48" class="grid-line-2mu"/>
<line x1="4.5" y1="0" x2="4.5" y2="48" class="grid-line"/>
<line x1="5" y1="0" x2="5" y2="48" class="grid-line"/>
<line x1="5.5" y1="0" x2="5.5" y2="48" class="grid-line"/>
<line x1="6" y1="0" x2="6" y2="48" class="grid-line-6mu"/>
<line x1="6.5" y1="0" x2="6.5" y2="48" class="grid-line"/>
<line x1="7" y1="0" x2="7" y2="48" class="grid-line"/>
<line x1="7.5" y1="0" x2="7.5" y2="48" class="grid-line"/>
<line x1="8" y1="0" x2="8" y2="48" class="grid-line-2mu"/>
<line x1="8.5" y1="0" x2="8.5" y2="48" class="grid-line"/>
<line x1="9" y1="0" x2="9" y2="48" class="grid-line"/>
<line x1="9.5" y1="0" x2="9.5" y2="48" class="grid-line"/>
<line x1="10" y1="0" x2="10" y2="48" class="grid-line-2mu"/>
<line x1="10.5" y1="0" x2="10.5" y2="48" class="grid-line"/>
<line x1="11" y1="0" x2="11" y2="48" class="grid-line"/>
<line x1="11.5" y1="0" x2="11.5" y2="48" class="grid-line"/>
<line x1="12" y1="0" x2="12" y2="48" class="grid-line-6mu"/>
<line x1="12.5" y1="0" x2="12.5" y2="48" class="grid-line"/>
<line x1="13" y1="0" x2="13" y2="48" class="grid-line"/>
<line x1="13.5" y1="0" x2="13.5" y2="48" class="grid-line"/>
<line x1="14" y1="0" x2="14" y2="48" class="grid-line-2mu"/>
<line x1="14.5" y1="0" x2="14.5" y2="48" class="grid-line"/>
<line x1="15" y1="0" x2="15" y2="48" class="grid-line"/>
<line x1="15.5" y1="0" x2="15.5" y2="48" class="grid-line"/>
<line x1="16" y1="0" x2="16" y2="48" class="grid-line-2mu"/>
<line x1="16.5" y1="0" x2="16.5" y2="48" class="grid-line"/>
<line x1="17" y1="0" x2="17" y2="48" class="grid-line"/>
<line x1="17.5" y1="0" x2="17.5" y2="48" class="grid-line"/>
<line x1="18" y1="0" x2="18" y2="48" class="grid-line-6mu"/>
<line x1="18.5" y1="0" x2="18.5" y2="48" class="grid-line"/>
<line x1="19" y1="0" x2="19" y2="48" class="grid-line"/>
<line x1="19.5" y1="0" x2="19.5" y2="48" class="grid-line"/>
<line x1="20" y1="0" x2="20" y2="48" class="grid-line-2mu"/>
<line x1="20.5" y1="0" x2="20.5" y2="48" class="grid-line"/>
<line x1="21" y1="0" x2="21" y2="48" class="grid-line"/>
<line x1="21.5" y1="0" x2="21.5" y2="48" class="grid-line"/>
<line x1="22" y1="0" x2="22" y2="48" class="grid-line-2mu"/>
<line x1="22.5" y1="0" x2="22.5" y2="48" class="grid-line"/>
<line x1="23" y1="0" x2="23" y2="48" class="grid-line"/>
<line x1="23.5" y1="0" x2="23.5" y2="48" class="grid-line"/>
<line x1="24" y1="0" x2="24" y2="48" class="grid-line-6mu"/>
<line x1="24.5" y1="0" x2="24.5" y2="48" class="grid-line"/>
<line x1="25" y1="0" x2="25" y2="48" class="grid-line"/>
<line x1="25.5" y1="0" x2="25.5" y2="48" class="grid-line"/>
<line x1="26" y1="0" x2="26" y2="48" class="grid-line-2mu"/>
<line x1="26.5" y1="0" x2="26.5" y2="48" class="grid-line"/>
<line x1="27" y1="0" x2="27" y2="48" class="grid-line"/>
<line x1="27.5" y1="0" x2="27.5" y2="48" class="grid-line"/>
<line x1="28" y1="0" x2="28" y2="48" class="grid-line-2mu"/>
<line x1="28.5" y1="0" x2="28.5" y2="48" class="grid-line"/>
<line x1="29" y1="0" x2="29" y2="48" class="grid-line"/>
<line x1="29.5" y1="0" x2="29.5" y2="48" class="grid-line"/>
<line x1="30" y1="0" x2="30" y2="48" class="grid-line-6mu"/>
<line x1="30.5" y1="0" x2="30.5" y2="48" class="grid-line"/>
<line x1="31" y1="0" x2="31" y2="48" class="grid-line"/>
<line x1="31.5" y1="0" x2="31.5" y2="48" class="grid-line"/>
<line x1="32" y1="0" x2="32" y2="48" class="grid-line-2mu"/>
<line x1="32.5" y1="0" x2="32.5" y2="48" class="grid-line"/>
<line x1="33" y1="0" x2="33" y2="48" class="grid-line"/>
<line x1="33.5" y1="0" x2="33.5" y2="48" class="grid-line"/>
<line x1="34" y1="0" x2="34" y2="48" class="grid-line-2mu"/>
<line x1="34.5" y1="0" x2="34.5" y2="48" class="grid-line"/>
<line x1="35" y1="0" x2="35" y2="48" class="grid-line"/>
<line x1="35.5" y1="0" x2="35.5" y2="48" class="grid-line"/>
<line x1="36" y1="0" x2="36" y2="48" class="grid-line-6mu"/>
<line x1="36.5" y1="0" x2="36.5" y2="48" class="grid-line"/>
<line x1="37" y1="0" x2="37" y2="48" class="grid-line"/>
<line x1="37.5" y1="0" x2="37.5" y2="48" class="grid-line"/>
<line x1="38" y1="0" x2="38" y2="48" class="grid-line-2mu"/>
<line x1="38.5" y1="0" x2="38.5" y2="48" class="grid-line"/>
<line x1="39" y1="0" x2="39" y2="48" class="grid-line"/>
<line x1="39.5" y1="0" x2="39.5" y2="48" class="grid-line"/>
<line x1="40" y1="0" x2="40" y2="48" class="grid-line-2mu"/>
<line x1="40.5" y1="0" x2="40.5" y2="48" class="grid-line"/>
<line x1="41" y1="0" x2="41" y2="48" class="grid-line"/>
<line x1="41.5" y1="0" x2="41.5" y2="48" class="grid-line"/>
<line x1="42" y1="0" x2="42" y2="48" class="grid-line-6mu"/>
<line x1="42.5" y1="0" x2="42.5" y2="48" class="grid-line"/>
<line x1="43" y1="0" x2="43" y2="48" class="grid-line"/>
<line x1="43.5" y1="0" x2="43.5" y2="48" class="grid-line"/>
<line x1="44" y1="0" x2="44" y2="48" class="grid-line-2mu"/>
<line x1="44.5" y1="0" x2="44.5" y2="48" class="grid-line"/>
<line x1="45" y1="0" x2="45" y2="48" class="grid-line"/>
<line x1="45.5" y1="0" x2="45.5" y2="48" class="grid-line"/>
<line x1="46" y1="0" x2="46" y2="48" class="grid-line-2mu"/>
<line x1="46.5" y1="0" x2="46.5" y2="48" class="grid-line"/>
<line x1="47" y1="0" x2="47" y2="48" class="grid-line"/>
<line x1="47.5" y1="0" x2="47.5" y2="48" class="grid-line"/>
<line x1="48" y1="0" x2="48" y2="48" class="grid-line-6mu"/>
<line x1="0" y1="0" x2="48" y2="0" class="grid-line-6mu"/>
<line x1="0" y1="0.5" x2="48" y2="0.5" class="grid-line"/>
<line x1="0" y1="1" x2="48" y2="1" class="grid-line"/>
<line x1="0" y1="1.5" x2="48" y2="1.5" class="grid-line"/>
<line x1="0" y1="2" x2="48" y2="2" class="grid-line-2mu"/>
<line x1="0" y1="2.5" x2="48" y2="2.5" class="grid-line"/>
<line x1="0" y1="3" x2="48" y2="3" class="grid-line"/>
<line x1="0" y1="3.5" x2="48" y2="3.5" class="grid-line"/>
<line x1="0" y1="4" x2="48" y2="4" class="grid-line-2mu"/>
<line x1="0" y1="4.5" x2="48" y2="4.5" class="grid-line"/>
<line x1="0" y1="5" x2="48" y2="5" class="grid-line"/>
<line x1="0" y1="5.5" x2="48" y2="5.5" class="grid-line"/>
<line x1="0" y1="6" x2="48" y2="6" class="grid-line-6mu"/>
<line x1="0" y1="6.5" x2="48" y2="6.5" class="grid-line"/>
<line x1="0" y1="7" x2="48" y2="7" class="grid-line"/>
<line x1="0" y1="7.5" x2="48" y2="7.5" class="grid-line"/>
<line x1="0" y1="8" x2="48" y2="8" class="grid-line-2mu"/>
<line x1="0" y1="8.5" x2="48" y2="8.5" class="grid-line"/>
<line x1="0" y1="9" x2="48" y2="9" class="grid-line"/>
<line x1="0" y1="9.5" x2="48" y2="9.5" class="grid-line"/>
<line x1="0" y1="10" x2="48" y2="10" class="grid-line-2mu"/>
<line x1="0" y1="10.5" x2="48" y2="10.5" class="grid-line"/>
<line x1="0" y1="11" x2="48" y2="11" class="grid-line"/>
<line x1="0" y1="11.5" x2="48" y2="11.5" class="grid-line"/>
<line x1="0" y1="12" x2="48" y2="12" class="grid-line-6mu"/>
<line x1="0" y1="12.5" x2="48" y2="12.5" class="grid-line"/>
<line x1="0" y1="13" x2="48" y2="13" class="grid-line"/>
<line x1="0" y1="13.5" x2="48" y2="13.5" class="grid-line"/>
<line x1="0" y1="14" x2="48" y2="14" class="grid-line-2mu"/>
<line x1="0" y1="14.5" x2="48" y2="14.5" class="grid-line"/>
<line x1="0" y1="15" x2="48" y2="15" class="grid-line"/>
<line x1="0" y1="15.5" x2="48" y2="15.5" class="grid-line"/>
<line x1="0" y1="16" x2="48" y2="16" class="grid-line-2mu"/>
<line x1="0" y1="16.5" x2="48" y2="16.5" class="grid-line"/>
<line x1="0" y1="17" x2="48" y2="17" class="grid-line"/>
<line x1="0" y1="17.5" x2="48" y2="17.5" class="grid-line"/>
<line x1="0" y1="18" x2="48" y2="18" class="grid-line-6mu"/>
<line x1="0" y1="18.5" x2="48" y2="18.5" class="grid-line"/>
<line x1="0" y1="19" x2="48" y2="19" class="grid-line"/>
<line x1="0" y1="19.5" x2="48" y2="19.5" class="grid-line"/>
<line x1="0" y1="20" x2="48" y2="20" class="grid-line-2mu"/>
<line x1="0" y1="20.5" x2="48" y2="20.5" class="grid-line"/>
<line x1="0" y1="21" x2="48" y2="21" class="grid-line"/>
<line x1="0" y1="21.5" x2="48" y2="21.5" class="grid-line"/>
<line x1="0" y1="22" x2="48" y2="22" class="grid-line-2mu"/>
<line x1="0" y1="22.5" x2="48" y2="22.5" class="grid-line"/>
<line x1="0" y1="23" x2="48" y2="23" class="grid-line"/>
<line x1="0" y1="23.5" x2="48" y2="23.5" class="grid-line"/>
<line x1="0" y1="24" x2="48" y2="24" class="grid-line-6mu"/>
<line x1="0" y1="24.5" x2="48" y2="24.5" class="grid-line"/>
<line x1="0" y1="25" x2="48" y2="25" class="grid-line"/>
<line x1="0" y1="25.5" x2="48" y2="25.5" class="grid-line"/>
<line x1="0" y1="26" x2="48" y2="26" class="grid-line-2mu"/>
<line x1="0" y1="26.5" x2="48" y2="26.5" class="grid-line"/>
<line x1="0" y1="27" x2="48" y2="27" class="grid-line"/>
<line x1="0" y1="27.5" x2="48" y2="27.5" class="grid-line"/>
<line x1="0" y1="28" x2="48" y2="28" class="grid-line-2mu"/>
<line x1="0" y1="28.5" x2="48" y2="28.5" class="grid-line"/>
<line x1="0" y1="29" x2="48" y2="29" class="grid-line"/>
<line x1="0" y1="29.5" x2="48" y2="29.5" class="grid-line"/>
<line x1="0" y1="30" x2="48" y2="30" class="grid-line-6mu"/>
<line x1="0" y1="30.5" x2="48" y2="30.5" class="grid-line"/>
<line x1="0" y1="31" x2="48" y2="31" class="grid-line"/>
<line x1="0" y1="31.5" x2="48" y2="31.5" class="grid-line"/>
<line x1="0" y1="32" x2="48" y2="32" class="grid-line-2mu"/>
<line x1="0" y1="32.5" x2="48" y2="32.5" class="grid-line"/>
<line x1="0" y1="33" x2="48" y2="33" class="grid-line"/>
<line x1="0" y1="33.5" x2="48" y2="33.5" class="grid-line"/>
<line x1="0" y1="34" x2="48" y2="34" class="grid-line-2mu"/>
<line x1="0" y1="34.5" x2="48" y2="34.5" class="grid-line"/>
<line x1="0" y1="35" x2="48" y2="35" class="grid-line"/>
<line x1="0" y1="35.5" x2="48" y2="35.5" class="grid-line"/>
<line x1="0" y1="36" x2="48" y2="36" class="grid-line-6mu"/>
<line x1="0" y1="36.5" x2="48" y2="36.5" class="grid-line"/>
<line x1="0" y1="37" x2="48" y2="37" class="grid-line"/>
<line x1="0" y1="37.5" x2="48" y2="37.5" class="grid-line"/>
<line x1="0" y1="38" x2="48" y2="38" class="grid-line-2mu"/>
<line x1="0" y1="38.5" x2="48" y2="38.5" class="grid-line"/>
<line x1="0" y1="39" x2="48" y2="39" class="grid-line"/>
<line x1="0" y1="39.5" x2="48" y2="39.5" class="grid-line"/>
<line x1="0" y1="40" x2="48" y2="40" class="grid-line-2mu"/>
<line x1="0" y1="40.5" x2="48" y2="40.5" class="grid-line"/>
<line x1="0" y1="41" x2="48" y2="41" class="grid-line"/>
<line x1="0" y1="41.5" x2="48" y2="41.5" class="grid-line"/>
<line x1="0" y1="42" x2="48" y2="42" class="grid-line-6mu"/>
<line x1="0" y1="42.5" x2="48" y2="42.5" class="grid-line"/>
<line x1="0" y1="43" x2="48" y2="43" class="grid-line"/>
<line x1="0" y1="43.5" x2="48" y2="43.5" class="grid-line"/>
<line x1="0" y1="44" x2="48" y2="44" class="grid-line-2mu"/>
<line x1="0" y1="44.5" x2="48" y2="44.5" class="grid-line"/>
<line x1="0" y1="45" x2="48" y2="45" class="grid-line"/>
<line x1="0" y1="45.5" x2="48" y2="45.5" class="grid-line"/>
<line x1="0" y1="46" x2="48" y2="46" class="grid-line-2mu"/>
<line x1="0" y1="46.5" x2="48" y2="46.5" class="grid-line"/>
<line x1="0" y1="47" x2="48" y2="47" class="grid-line"/>
<line x1="0" y1="47.5" x2="48" y2="47.5" class="grid-line"/>
<line x1="0" y1="48" x2="48" y2="48" class="grid-line-6mu"/>
</g>
<g id="layer-delaunay" class="layer ">
<line x1="19.729467046530175" y1="25.58096960094273" x2="19.729467046530175" y2="31.58096960094273" class="delaunay-line"/>
<line x1="19.729467046530175" y1="31.58096960094273" x2="24.831358411664258" y2="31.471025202087105" class="delaunay-line"/>
<line x1="24.831358411664258" y1="31.471025202087105" x2="19.729467046530175" y2="25.58096960094273" class="delaunay-line"/>
<line x1="24.831358411664258" y1="31.471025202087105" x2="27.46028075740791" y2="28.677136357215424" class="delaunay-line"/>
<line x1="27.46028075740791" y1="28.677136357215424" x2="19.729467046530175" y2="25.58096960094273" class="delaunay-line"/>
<line x1="19.729467046530175" y1="25.58096960094273" x2="24.831358411664258" y2="31.471025202087105" class="delaunay-line"/>
<line x1="27.46028075740791" y1="28.677136357215424" x2="28.629767576298857" y2="24.851917333363282" class="delaunay-line"/>
<line x1="28.629767576298857" y1="24.851917333363282" x2="19.729467046530175" y2="25.58096960094273" class="delaunay-line"/>
<line x1="19.729467046530175" y1="25.58096960094273" x2="27.46028075740791" y2="28.677136357215424" class="delaunay-line"/>
<line x1="19.729467046530175" y1="25.58096960094273" x2="16.598209091431197" y2="33.43453246083003" class="delaunay-line"/>
<line x1="16.598209091431197" y1="33.43453246083003" x2="19.729467046530175" y2="31.58096960094273" class="delaunay-line"/>
<line x1="19.729467046530175" y1="31.58096960094273" x2="19.729467046530175" y2="25.58096960094273" class="delaunay-line"/>
<line x1="19.729467046530175" y1="31.58096960094273" x2="20.124920605186038" y2="38.288634427079714" class="delaunay-line"/>
<line x1="20.124920605186038" y1="38.288634427079714" x2="24.831358411664258" y2="31.471025202087105" class="delaunay-line"/>
<line x1="24.831358411664258" y1="31.471025202087105" x2="19.729467046530175" y2="31.58096960094273" class="delaunay-line"/>
<line x1="24.831358411664258" y1="31.471025202087105" x2="30.823135620191703" y2="31.78504093954477" class="delaunay-line"/>
<line x1="30.823135620191703" y1="31.78504093954477" x2="27.46028075740791" y2="28.677136357215424" class="delaunay-line"/>
<line x1="27.46028075740791" y1="28.677136357215424" x2="24.831358411664258" y2="31.471025202087105" class="delaunay-line"/>
<line x1="27.46028075740791" y1="28.677136357215424" x2="34.36759611207707" y2="26.6061475616997" class="delaunay-line"/>
<line x1="34.36759611207707" y1="26.6061475616997" x2="28.629767576298857" y2="24.851917333363282" class="delaunay-line"/>
<line x1="28.629767576298857" y1="24.851917333363282" x2="27.46028075740791" y2="28.677136357215424" class="delaunay-line"/>
<line x1="24.412670761720708" y1="39.4600614801237" x2="30.823135620191703" y2="31.78504093954477" class="delaunay-line"/>
<line x1="30.823135620191703" y1="31.78504093954477" x2="24.831358411664258" y2="31.471025202087105" class="delaunay-line"/>
<line x1="24.831358411664258" y1="31.471025202087105" x2="24.412670761720708" y2="39.4600614801237" class="delaunay-line"/>
<line x1="16.598209091431197" y1="33.43453246083003" x2="20.124920605186038" y2="38.288634427079714" class="delaunay-line"/>
<line x1="20.124920605186038" y1="38.288634427079714" x2="19.729467046530175" y2="31.58096960094273" class="delaunay-line"/>
<line x1="19.729467046530175" y1="31.58096960094273" x2="16.598209091431197" y2="33.43453246083003" class="delaunay-line"/>
<line x1="12.473222597343115" y1="14.419124988490438" x2="11.729467046530175" y2="25.58096960094273" class="delaunay-line"/>
<line x1="11.729467046530175" y1="25.58096960094273" x2="19.729467046530175" y2="25.58096960094273" class="delaunay-line"/>
<line x1="19.729467046530175" y1="25.58096960094273" x2="12.473222597343115" y2="14.419124988490438" class="delaunay-line"/>
<line x1="19.729467046530175" y1="25.58096960094273" x2="11.729467046530175" y2="25.58096960094273" class="delaunay-line"/>
<line x1="11.729467046530175" y1="25.58096960094273" x2="16.598209091431197" y2="33.43453246083003" class="delaunay-line"/>
<line x1="16.598209091431197" y1="33.43453246083003" x2="19.729467046530175" y2="25.58096960094273" class="delaunay-line"/>
<line x1="11.729467046530175" y1="25.58096960094273" x2="11.729467046530175" y2="31.58096960094273" class="delaunay-line"/>
<line x1="11.729467046530175" y1="31.58096960094273" x2="16.598209091431197" y2="33.43453246083003" class="delaunay-line"/>
<line x1="16.598209091431197" y1="33.43453246083003" x2="11.729467046530175" y2="25.58096960094273" class="delaunay-line"/>
<line x1="16.598209091431197" y1="33.43453246083003" x2="13.36214111393141" y2="35.78567346999992" class="delaunay-line"/>
<line x1="13.36214111393141" y1="35.78567346999992" x2="20.124920605186038" y2="38.288634427079714" class="delaunay-line"/>
<line x1="20.124920605186038" y1="38.288634427079714" x2="16.598209091431197" y2="33.43453246083003" class="delaunay-line"/>
<line x1="20.124920605186038" y1="38.288634427079714" x2="24.412670761720708" y2="39.4600614801237" class="delaunay-line"/>
<line x1="24.412670761720708" y1="39.4600614801237" x2="24.831358411664258" y2="31.471025202087105" class="delaunay-line"/>
<line x1="24.831358411664258" y1="31.471025202087105" x2="20.124920605186038" y2="38.288634427079714" class="delaunay-line"/>
<line x1="39.40667506408091" y1="34.98871827697744" x2="33.19810929318612" y2="30.431366585551842" class="delaunay-line"/>
<line x1="33.19810929318612" y1="30.431366585551842" x2="30.823135620191703" y2="31.78504093954477" class="delaunay-line"/>
<line x1="30.823135620191703" y1="31.78504093954477" x2="39.40667506408091" y2="34.98871827697744" class="delaunay-line"/>
<line x1="30.823135620191703" y1="31.78504093954477" x2="33.19810929318612" y2="30.431366585551842" class="delaunay-line"/>
<line x1="33.19810929318612" y1="30.431366585551842" x2="27.46028075740791" y2="28.677136357215424" class="delaunay-line"/>
<line x1="27.46028075740791" y1="28.677136357215424" x2="30.823135620191703" y2="31.78504093954477" class="delaunay-line"/>
<line x1="11.729467046530175" y1="31.58096960094273" x2="13.36214111393141" y2="35.78567346999992" class="delaunay-line"/>
<line x1="13.36214111393141" y1="35.78567346999992" x2="16.598209091431197" y2="33.43453246083003" class="delaunay-line"/>
<line x1="16.598209091431197" y1="33.43453246083003" x2="11.729467046530175" y2="31.58096960094273" class="delaunay-line"/>
<line x1="33.19810929318612" y1="30.431366585551842" x2="34.36759611207707" y2="26.6061475616997" class="delaunay-line"/>
<line x1="34.36759611207707" y1="26.6061475616997" x2="27.46028075740791" y2="28.677136357215424" class="delaunay-line"/>
<line x1="27.46028075740791" y1="28.677136357215424" x2="33.19810929318612" y2="30.431366585551842" class="delaunay-line"/>
<line x1="33.542129754031066" y1="17.939775281876106" x2="29.564042172557976" y2="18.35788913494672" class="delaunay-line"/>
<line x1="29.564042172557976" y1="18.35788913494672" x2="28.629767576298857" y2="24.851917333363282" class="delaunay-line"/>
<line x1="28.629767576298857" y1="24.851917333363282" x2="33.542129754031066" y2="17.939775281876106" class="delaunay-line"/>
<line x1="28.629767576298857" y1="24.851917333363282" x2="22.02914040056605" y2="15.385561861208696" class="delaunay-line"/>
<line x1="22.02914040056605" y1="15.385561861208696" x2="19.729467046530175" y2="25.58096960094273" class="delaunay-line"/>
<line x1="19.729467046530175" y1="25.58096960094273" x2="28.629767576298857" y2="24.851917333363282" class="delaunay-line"/>
<line x1="13.36214111393141" y1="35.78567346999992" x2="16.888852627686248" y2="40.63977543624961" class="delaunay-line"/>
<line x1="16.888852627686248" y1="40.63977543624961" x2="20.124920605186038" y2="38.288634427079714" class="delaunay-line"/>
<line x1="20.124920605186038" y1="38.288634427079714" x2="13.36214111393141" y2="35.78567346999992" class="delaunay-line"/>
<line x1="20.124920605186038" y1="38.288634427079714" x2="16.888852627686248" y2="40.63977543624961" class="delaunay-line"/>
<line x1="16.888852627686248" y1="40.63977543624961" x2="24.412670761720708" y2="39.4600614801237" class="delaunay-line"/>
<line x1="24.412670761720708" y1="39.4600614801237" x2="20.124920605186038" y2="38.288634427079714" class="delaunay-line"/>
<line x1="29.564042172557976" y1="18.35788913494672" x2="22.02914040056605" y2="15.385561861208696" class="delaunay-line"/>
<line x1="22.02914040056605" y1="15.385561861208696" x2="28.629767576298857" y2="24.851917333363282" class="delaunay-line"/>
<line x1="28.629767576298857" y1="24.851917333363282" x2="29.564042172557976" y2="18.35788913494672" class="delaunay-line"/>
<line x1="33.86338409541494" y1="41.06768477735957" x2="30.404447970248153" y2="39.774077217581365" class="delaunay-line"/>
<line x1="30.404447970248153" y1="39.774077217581365" x2="35.03287091430589" y2="44.89290380121171" class="delaunay-line"/>
<line x1="35.03287091430589" y1="44.89290380121171" x2="33.86338409541494" y2="41.06768477735957" class="delaunay-line"/>
<line x1="24.412670761720708" y1="39.4600614801237" x2="30.404447970248153" y2="39.774077217581365" class="delaunay-line"/>
<line x1="30.404447970248153" y1="39.774077217581365" x2="30.823135620191703" y2="31.78504093954477" class="delaunay-line"/>
<line x1="30.823135620191703" y1="31.78504093954477" x2="24.412670761720708" y2="39.4600614801237" class="delaunay-line"/>
<line x1="33.19810929318612" y1="30.431366585551842" x2="38.26182109182164" y2="29.098955176291458" class="delaunay-line"/>
<line x1="38.26182109182164" y1="29.098955176291458" x2="34.36759611207707" y2="26.6061475616997" class="delaunay-line"/>
<line x1="34.36759611207707" y1="26.6061475616997" x2="33.19810929318612" y2="30.431366585551842" class="delaunay-line"/>
<line x1="11.729467046530175" y1="31.58096960094273" x2="8.42079482394224" y2="34.83530646791577" class="delaunay-line"/>
<line x1="8.42079482394224" y1="34.83530646791577" x2="13.36214111393141" y2="35.78567346999992" class="delaunay-line"/>
<line x1="13.36214111393141" y1="35.78567346999992" x2="11.729467046530175" y2="31.58096960094273" class="delaunay-line"/>
<line x1="13.36214111393141" y1="35.78567346999992" x2="7.689578763511354" y2="40.790583377763696" class="delaunay-line"/>
<line x1="7.689578763511354" y1="40.790583377763696" x2="16.888852627686248" y2="40.63977543624961" class="delaunay-line"/>
<line x1="16.888852627686248" y1="40.63977543624961" x2="13.36214111393141" y2="35.78567346999992" class="delaunay-line"/>
<line x1="11.729467046530175" y1="25.58096960094273" x2="7.7724634183019425" y2="28.61404347274655" class="delaunay-line"/>
<line x1="7.7724634183019425" y1="28.61404347274655" x2="11.729467046530175" y2="31.58096960094273" class="delaunay-line"/>
<line x1="11.729467046530175" y1="31.58096960094273" x2="11.729467046530175" y2="25.58096960094273" class="delaunay-line"/>
<line x1="7.947830014724021" y1="23.13920486790503" x2="7.7724634183019425" y2="28.61404347274655" class="delaunay-line"/>
<line x1="7.7724634183019425" y1="28.61404347274655" x2="11.729467046530175" y2="25.58096960094273" class="delaunay-line"/>
<line x1="11.729467046530175" y1="25.58096960094273" x2="7.947830014724021" y2="23.13920486790503" class="delaunay-line"/>
<line x1="7.493437523325442" y1="32.604299673785846" x2="8.42079482394224" y2="34.83530646791577" class="delaunay-line"/>
<line x1="8.42079482394224" y1="34.83530646791577" x2="11.729467046530175" y2="31.58096960094273" class="delaunay-line"/>
<line x1="11.729467046530175" y1="31.58096960094273" x2="7.493437523325442" y2="32.604299673785846" class="delaunay-line"/>
<line x1="7.7724634183019425" y1="28.61404347274655" x2="7.493437523325442" y2="32.604299673785846" class="delaunay-line"/>
<line x1="7.493437523325442" y1="32.604299673785846" x2="11.729467046530175" y2="31.58096960094273" class="delaunay-line"/>
<line x1="11.729467046530175" y1="31.58096960094273" x2="7.7724634183019425" y2="28.61404347274655" class="delaunay-line"/>
<line x1="8.886436804965406" y1="17.2130748243342" x2="7.947830014724021" y2="23.13920486790503" class="delaunay-line"/>
<line x1="7.947830014724021" y1="23.13920486790503" x2="11.729467046530175" y2="25.58096960094273" class="delaunay-line"/>
<line x1="11.729467046530175" y1="25.58096960094273" x2="8.886436804965406" y2="17.2130748243342" class="delaunay-line"/>
<line x1="7.7724634183019425" y1="28.61404347274655" x2="1.5080532217665001" y2="32.18576083132109" class="delaunay-line"/>
<line x1="1.5080532217665001" y1="32.18576083132109" x2="7.493437523325442" y2="32.604299673785846" class="delaunay-line"/>
<line x1="7.493437523325442" y1="32.604299673785846" x2="7.7724634183019425" y2="28.61404347274655" class="delaunay-line"/>
<line x1="34.36759611207707" y1="26.6061475616997" x2="33.542129754031066" y2="17.939775281876106" class="delaunay-line"/>
<line x1="33.542129754031066" y1="17.939775281876106" x2="28.629767576298857" y2="24.851917333363282" class="delaunay-line"/>
<line x1="28.629767576298857" y1="24.851917333363282" x2="34.36759611207707" y2="26.6061475616997" class="delaunay-line"/>
<line x1="28.936871392952053" y1="12.39075776273708" x2="24.148817457498865" y2="11.993369476582991" class="delaunay-line"/>
<line x1="24.148817457498865" y1="11.993369476582991" x2="22.02914040056605" y2="15.385561861208696" class="delaunay-line"/>
<line x1="22.02914040056605" y1="15.385561861208696" x2="28.936871392952053" y2="12.39075776273708" class="delaunay-line"/>
<line x1="39.40667506408091" y1="34.98871827697744" x2="38.26182109182164" y2="29.098955176291458" class="delaunay-line"/>
<line x1="38.26182109182164" y1="29.098955176291458" x2="33.19810929318612" y2="30.431366585551842" class="delaunay-line"/>
<line x1="33.19810929318612" y1="30.431366585551842" x2="39.40667506408091" y2="34.98871827697744" class="delaunay-line"/>
<line x1="34.36759611207707" y1="26.6061475616997" x2="38.27253547114054" y2="19.59326677208583" class="delaunay-line"/>
<line x1="38.27253547114054" y1="19.59326677208583" x2="33.542129754031066" y2="17.939775281876106" class="delaunay-line"/>
<line x1="33.542129754031066" y1="17.939775281876106" x2="34.36759611207707" y2="26.6061475616997" class="delaunay-line"/>
<line x1="28.936871392952053" y1="12.39075776273708" x2="22.02914040056605" y2="15.385561861208696" class="delaunay-line"/>
<line x1="22.02914040056605" y1="15.385561861208696" x2="29.564042172557976" y2="18.35788913494672" class="delaunay-line"/>
<line x1="29.564042172557976" y1="18.35788913494672" x2="28.936871392952053" y2="12.39075776273708" class="delaunay-line"/>
<line x1="22.02914040056605" y1="15.385561861208696" x2="12.473222597343115" y2="14.419124988490438" class="delaunay-line"/>
<line x1="12.473222597343115" y1="14.419124988490438" x2="19.729467046530175" y2="25.58096960094273" class="delaunay-line"/>
<line x1="19.729467046530175" y1="25.58096960094273" x2="22.02914040056605" y2="15.385561861208696" class="delaunay-line"/>
<line x1="35.03287091430589" y1="44.89290380121171" x2="30.404447970248153" y2="39.774077217581365" class="delaunay-line"/>
<line x1="30.404447970248153" y1="39.774077217581365" x2="24.412670761720708" y2="39.4600614801237" class="delaunay-line"/>
<line x1="24.412670761720708" y1="39.4600614801237" x2="35.03287091430589" y2="44.89290380121171" class="delaunay-line"/>
<line x1="30.404447970248153" y1="39.774077217581365" x2="33.86338409541494" y2="41.06768477735957" class="delaunay-line"/>
<line x1="33.86338409541494" y1="41.06768477735957" x2="30.823135620191703" y2="31.78504093954477" class="delaunay-line"/>
<line x1="30.823135620191703" y1="31.78504093954477" x2="30.404447970248153" y2="39.774077217581365" class="delaunay-line"/>
<line x1="16.940851823627497" y1="12.206046275809467" x2="12.473222597343115" y2="14.419124988490438" class="delaunay-line"/>
<line x1="12.473222597343115" y1="14.419124988490438" x2="22.02914040056605" y2="15.385561861208696" class="delaunay-line"/>
<line x1="22.02914040056605" y1="15.385561861208696" x2="16.940851823627497" y2="12.206046275809467" class="delaunay-line"/>
<line x1="24.148817457498865" y1="11.993369476582991" x2="16.940851823627497" y2="12.206046275809467" class="delaunay-line"/>
<line x1="16.940851823627497" y1="12.206046275809467" x2="22.02914040056605" y2="15.385561861208696" class="delaunay-line"/>
<line x1="22.02914040056605" y1="15.385561861208696" x2="24.148817457498865" y2="11.993369476582991" class="delaunay-line"/>
<line x1="12.473222597343115" y1="14.419124988490438" x2="8.886436804965406" y2="17.2130748243342" class="delaunay-line"/>
<line x1="8.886436804965406" y1="17.2130748243342" x2="11.729467046530175" y2="25.58096960094273" class="delaunay-line"/>
<line x1="11.729467046530175" y1="25.58096960094273" x2="12.473222597343115" y2="14.419124988490438" class="delaunay-line"/>
<line x1="33.542129754031066" y1="17.939775281876106" x2="28.936871392952053" y2="12.39075776273708" class="delaunay-line"/>
<line x1="28.936871392952053" y1="12.39075776273708" x2="29.564042172557976" y2="18.35788913494672" class="delaunay-line"/>
<line x1="29.564042172557976" y1="18.35788913494672" x2="33.542129754031066" y2="17.939775281876106" class="delaunay-line"/>
<line x1="16.940851823627497" y1="12.206046275809467" x2="15.492060918234204" y2="11.794888872528407" class="delaunay-line"/>
<line x1="15.492060918234204" y1="11.794888872528407" x2="12.473222597343115" y2="14.419124988490438" class="delaunay-line"/>
<line x1="12.473222597343115" y1="14.419124988490438" x2="16.940851823627497" y2="12.206046275809467" class="delaunay-line"/>
<line x1="0.9849300802043031" y1="15.961599104012356" x2="7.947830014724021" y2="23.13920486790503" class="delaunay-line"/>
<line x1="7.947830014724021" y1="23.13920486790503" x2="8.886436804965406" y2="17.2130748243342" class="delaunay-line"/>
<line x1="8.886436804965406" y1="17.2130748243342" x2="0.9849300802043031" y2="15.961599104012356" class="delaunay-line"/>
<line x1="19.060528880560312" y1="8.813853891183761" x2="15.492060918234204" y2="11.794888872528407" class="delaunay-line"/>
<line x1="15.492060918234204" y1="11.794888872528407" x2="16.940851823627497" y2="12.206046275809467" class="delaunay-line"/>
<line x1="16.940851823627497" y1="12.206046275809467" x2="19.060528880560312" y2="8.813853891183761" class="delaunay-line"/>
<line x1="33.86338409541494" y1="41.06768477735957" x2="39.40667506408091" y2="34.98871827697744" class="delaunay-line"/>
<line x1="39.40667506408091" y1="34.98871827697744" x2="30.823135620191703" y2="31.78504093954477" class="delaunay-line"/>
<line x1="30.823135620191703" y1="31.78504093954477" x2="33.86338409541494" y2="41.06768477735957" class="delaunay-line"/>
<line x1="38.26182109182164" y1="29.098955176291458" x2="38.27253547114054" y2="19.59326677208583" class="delaunay-line"/>
<line x1="38.27253547114054" y1="19.59326677208583" x2="34.36759611207707" y2="26.6061475616997" class="delaunay-line"/>
<line x1="34.36759611207707" y1="26.6061475616997" x2="38.26182109182164" y2="29.098955176291458" class="delaunay-line"/>
<line x1="33.542129754031066" y1="17.939775281876106" x2="32.91495897442515" y2="11.972643909666465" class="delaunay-line"/>
<line x1="32.91495897442515" y1="11.972643909666465" x2="28.936871392952053" y2="12.39075776273708" class="delaunay-line"/>
<line x1="28.936871392952053" y1="12.39075776273708" x2="33.542129754031066" y2="17.939775281876106" class="delaunay-line"/>
<line x1="46.11483855940295" y1="27.572483213279096" x2="38.27253547114054" y2="19.59326677208583" class="delaunay-line"/>
<line x1="38.27253547114054" y1="19.59326677208583" x2="38.26182109182164" y2="29.098955176291458" class="delaunay-line"/>
<line x1="38.26182109182164" y1="29.098955176291458" x2="46.11483855940295" y2="27.572483213279096" class="delaunay-line"/>
<line x1="-0.25079044961922214" y1="39.81562863052251" x2="7.689578763511354" y2="40.790583377763696" class="delaunay-line"/>
<line x1="7.689578763511354" y1="40.790583377763696" x2="8.42079482394224" y2="34.83530646791577" class="delaunay-line"/>
<line x1="8.42079482394224" y1="34.83530646791577" x2="-0.25079044961922214" y2="39.81562863052251" class="delaunay-line"/>
<line x1="8.42079482394224" y1="34.83530646791577" x2="7.689578763511354" y2="40.790583377763696" class="delaunay-line"/>
<line x1="7.689578763511354" y1="40.790583377763696" x2="13.36214111393141" y2="35.78567346999992" class="delaunay-line"/>
<line x1="13.36214111393141" y1="35.78567346999992" x2="8.42079482394224" y2="34.83530646791577" class="delaunay-line"/>
<line x1="16.888852627686248" y1="40.63977543624961" x2="35.03287091430589" y2="44.89290380121171" class="delaunay-line"/>
<line x1="35.03287091430589" y1="44.89290380121171" x2="24.412670761720708" y2="39.4600614801237" class="delaunay-line"/>
<line x1="24.412670761720708" y1="39.4600614801237" x2="16.888852627686248" y2="40.63977543624961" class="delaunay-line"/>
<line x1="38.27253547114054" y1="19.59326677208583" x2="36.97026285331192" y2="15.811192469688564" class="delaunay-line"/>
<line x1="36.97026285331192" y1="15.811192469688564" x2="33.542129754031066" y2="17.939775281876106" class="delaunay-line"/>
<line x1="33.542129754031066" y1="17.939775281876106" x2="38.27253547114054" y2="19.59326677208583" class="delaunay-line"/>
<line x1="28.936871392952053" y1="12.39075776273708" x2="19.060528880560312" y2="8.813853891183761" class="delaunay-line"/>
<line x1="19.060528880560312" y1="8.813853891183761" x2="24.148817457498865" y2="11.993369476582991" class="delaunay-line"/>
<line x1="24.148817457498865" y1="11.993369476582991" x2="28.936871392952053" y2="12.39075776273708" class="delaunay-line"/>
<line x1="24.148817457498865" y1="11.993369476582991" x2="19.060528880560312" y2="8.813853891183761" class="delaunay-line"/>
<line x1="19.060528880560312" y1="8.813853891183761" x2="16.940851823627497" y2="12.206046275809467" class="delaunay-line"/>
<line x1="16.940851823627497" y1="12.206046275809467" x2="24.148817457498865" y2="11.993369476582991" class="delaunay-line"/>
<line x1="36.97026285331192" y1="15.811192469688564" x2="32.91495897442515" y2="11.972643909666465" class="delaunay-line"/>
<line x1="32.91495897442515" y1="11.972643909666465" x2="33.542129754031066" y2="17.939775281876106" class="delaunay-line"/>
<line x1="33.542129754031066" y1="17.939775281876106" x2="36.97026285331192" y2="15.811192469688564" class="delaunay-line"/>
<line x1="40.53972028096895" y1="7.154145036636108" x2="19.060528880560312" y2="8.813853891183761" class="delaunay-line"/>
<line x1="19.060528880560312" y1="8.813853891183761" x2="28.936871392952053" y2="12.39075776273708" class="delaunay-line"/>
<line x1="28.936871392952053" y1="12.39075776273708" x2="40.53972028096895" y2="7.154145036636108" class="delaunay-line"/>
<line x1="8.53686842340007" y1="9.890867507153807" x2="8.886436804965406" y2="17.2130748243342" class="delaunay-line"/>
<line x1="8.886436804965406" y1="17.2130748243342" x2="12.473222597343115" y2="14.419124988490438" class="delaunay-line"/>
<line x1="12.473222597343115" y1="14.419124988490438" x2="8.53686842340007" y2="9.890867507153807" class="delaunay-line"/>
<line x1="33.86338409541494" y1="41.06768477735957" x2="39.60121263119315" y2="39.31345454902314" class="delaunay-line"/>
<line x1="39.60121263119315" y1="39.31345454902314" x2="39.40667506408091" y2="34.98871827697744" class="delaunay-line"/>
<line x1="39.40667506408091" y1="34.98871827697744" x2="33.86338409541494" y2="41.06768477735957" class="delaunay-line"/>
<line x1="0.04632328996291912" y1="21.887729147583187" x2="1.787079116743001" y2="28.1955046302818" class="delaunay-line"/>
<line x1="1.787079116743001" y1="28.1955046302818" x2="7.947830014724021" y2="23.13920486790503" class="delaunay-line"/>
<line x1="7.947830014724021" y1="23.13920486790503" x2="0.04632328996291912" y2="21.887729147583187" class="delaunay-line"/>
<line x1="7.947830014724021" y1="23.13920486790503" x2="1.787079116743001" y2="28.1955046302818" class="delaunay-line"/>
<line x1="1.787079116743001" y1="28.1955046302818" x2="7.7724634183019425" y2="28.61404347274655" class="delaunay-line"/>
<line x1="7.7724634183019425" y1="28.61404347274655" x2="7.947830014724021" y2="23.13920486790503" class="delaunay-line"/>
<line x1="7.493437523325442" y1="32.604299673785846" x2="0.48042561081166424" y2="33.860351720674586" class="delaunay-line"/>
<line x1="0.48042561081166424" y1="33.860351720674586" x2="8.42079482394224" y2="34.83530646791577" class="delaunay-line"/>
<line x1="8.42079482394224" y1="34.83530646791577" x2="7.493437523325442" y2="32.604299673785846" class="delaunay-line"/>
<line x1="0" y1="48" x2="35.03287091430589" y2="44.89290380121171" class="delaunay-line"/>
<line x1="35.03287091430589" y1="44.89290380121171" x2="16.888852627686248" y2="40.63977543624961" class="delaunay-line"/>
<line x1="16.888852627686248" y1="40.63977543624961" x2="0" y2="48" class="delaunay-line"/>
<line x1="33.86338409541494" y1="41.06768477735957" x2="40.770699450084095" y2="43.138673572875284" class="delaunay-line"/>
<line x1="40.770699450084095" y1="43.138673572875284" x2="39.60121263119315" y2="39.31345454902314" class="delaunay-line"/>
<line x1="39.60121263119315" y1="39.31345454902314" x2="33.86338409541494" y2="41.06768477735957" class="delaunay-line"/>
<line x1="1.787079116743001" y1="28.1955046302818" x2="1.5080532217665001" y2="32.18576083132109" class="delaunay-line"/>
<line x1="1.5080532217665001" y1="32.18576083132109" x2="7.7724634183019425" y2="28.61404347274655" class="delaunay-line"/>
<line x1="7.7724634183019425" y1="28.61404347274655" x2="1.787079116743001" y2="28.1955046302818" class="delaunay-line"/>
<line x1="1.787079116743001" y1="28.1955046302818" x2="0.48042561081166424" y2="33.860351720674586" class="delaunay-line"/>
<line x1="0.48042561081166424" y1="33.860351720674586" x2="1.5080532217665001" y2="32.18576083132109" class="delaunay-line"/>
<line x1="1.5080532217665001" y1="32.18576083132109" x2="1.787079116743001" y2="28.1955046302818" class="delaunay-line"/>
<line x1="1.5080532217665001" y1="32.18576083132109" x2="0.48042561081166424" y2="33.860351720674586" class="delaunay-line"/>
<line x1="0.48042561081166424" y1="33.860351720674586" x2="7.493437523325442" y2="32.604299673785846" class="delaunay-line"/>
<line x1="7.493437523325442" y1="32.604299673785846" x2="1.5080532217665001" y2="32.18576083132109" class="delaunay-line"/>
<line x1="0.9849300802043031" y1="15.961599104012356" x2="0.04632328996291912" y2="21.887729147583187" class="delaunay-line"/>
<line x1="0.04632328996291912" y1="21.887729147583187" x2="7.947830014724021" y2="23.13920486790503" class="delaunay-line"/>
<line x1="7.947830014724021" y1="23.13920486790503" x2="0.9849300802043031" y2="15.961599104012356" class="delaunay-line"/>
<line x1="1.787079116743001" y1="28.1955046302818" x2="0.04632328996291912" y2="21.887729147583187" class="delaunay-line"/>
<line x1="0.04632328996291912" y1="21.887729147583187" x2="0.48042561081166424" y2="33.860351720674586" class="delaunay-line"/>
<line x1="0.48042561081166424" y1="33.860351720674586" x2="1.787079116743001" y2="28.1955046302818" class="delaunay-line"/>
<line x1="8.53686842340007" y1="9.890867507153807" x2="12.473222597343115" y2="14.419124988490438" class="delaunay-line"/>
<line x1="12.473222597343115" y1="14.419124988490438" x2="11.55570674429116" y2="7.266631391191776" class="delaunay-line"/>
<line x1="11.55570674429116" y1="7.266631391191776" x2="8.53686842340007" y2="9.890867507153807" class="delaunay-line"/>
<line x1="11.55570674429116" y1="7.266631391191776" x2="12.473222597343115" y2="14.419124988490438" class="delaunay-line"/>
<line x1="12.473222597343115" y1="14.419124988490438" x2="15.492060918234204" y2="11.794888872528407" class="delaunay-line"/>
<line x1="15.492060918234204" y1="11.794888872528407" x2="11.55570674429116" y2="7.266631391191776" class="delaunay-line"/>
<line x1="35.03287091430589" y1="44.89290380121171" x2="40.770699450084095" y2="43.138673572875284" class="delaunay-line"/>
<line x1="40.770699450084095" y1="43.138673572875284" x2="33.86338409541494" y2="41.06768477735957" class="delaunay-line"/>
<line x1="33.86338409541494" y1="41.06768477735957" x2="35.03287091430589" y2="44.89290380121171" class="delaunay-line"/>
<line x1="47.25969253166222" y1="33.46224631396508" x2="46.11483855940295" y2="27.572483213279096" class="delaunay-line"/>
<line x1="46.11483855940295" y1="27.572483213279096" x2="39.40667506408091" y2="34.98871827697744" class="delaunay-line"/>
<line x1="39.40667506408091" y1="34.98871827697744" x2="47.25969253166222" y2="33.46224631396508" class="delaunay-line"/>
<line x1="39.40667506408091" y1="34.98871827697744" x2="46.11483855940295" y2="27.572483213279096" class="delaunay-line"/>
<line x1="46.11483855940295" y1="27.572483213279096" x2="38.26182109182164" y2="29.098955176291458" class="delaunay-line"/>
<line x1="38.26182109182164" y1="29.098955176291458" x2="39.40667506408091" y2="34.98871827697744" class="delaunay-line"/>
<line x1="19.060528880560312" y1="8.813853891183761" x2="11.55570674429116" y2="7.266631391191776" class="delaunay-line"/>
<line x1="11.55570674429116" y1="7.266631391191776" x2="15.492060918234204" y2="11.794888872528407" class="delaunay-line"/>
<line x1="15.492060918234204" y1="11.794888872528407" x2="19.060528880560312" y2="8.813853891183761" class="delaunay-line"/>
<line x1="38.27253547114054" y1="19.59326677208583" x2="43.94564692473644" y2="17.639857845342892" class="delaunay-line"/>
<line x1="43.94564692473644" y1="17.639857845342892" x2="36.97026285331192" y2="15.811192469688564" class="delaunay-line"/>
<line x1="36.97026285331192" y1="15.811192469688564" x2="38.27253547114054" y2="19.59326677208583" class="delaunay-line"/>
<line x1="47.25969253166222" y1="33.46224631396508" x2="39.40667506408091" y2="34.98871827697744" class="delaunay-line"/>
<line x1="39.40667506408091" y1="34.98871827697744" x2="39.60121263119315" y2="39.31345454902314" class="delaunay-line"/>
<line x1="39.60121263119315" y1="39.31345454902314" x2="47.25969253166222" y2="33.46224631396508" class="delaunay-line"/>
<line x1="46.11483855940295" y1="27.572483213279096" x2="43.94564692473644" y2="17.639857845342892" class="delaunay-line"/>
<line x1="43.94564692473644" y1="17.639857845342892" x2="38.27253547114054" y2="19.59326677208583" class="delaunay-line"/>
<line x1="38.27253547114054" y1="19.59326677208583" x2="46.11483855940295" y2="27.572483213279096" class="delaunay-line"/>
<line x1="36.97026285331192" y1="15.811192469688564" x2="39.776484299462766" y2="11.080653770426762" class="delaunay-line"/>
<line x1="39.776484299462766" y1="11.080653770426762" x2="32.91495897442515" y2="11.972643909666465" class="delaunay-line"/>
<line x1="32.91495897442515" y1="11.972643909666465" x2="36.97026285331192" y2="15.811192469688564" class="delaunay-line"/>
<line x1="8.53686842340007" y1="9.890867507153807" x2="0.9849300802043031" y2="15.961599104012356" class="delaunay-line"/>
<line x1="0.9849300802043031" y1="15.961599104012356" x2="8.886436804965406" y2="17.2130748243342" class="delaunay-line"/>
<line x1="8.886436804965406" y1="17.2130748243342" x2="8.53686842340007" y2="9.890867507153807" class="delaunay-line"/>
<line x1="0" y1="0" x2="0.9849300802043031" y2="15.961599104012356" class="delaunay-line"/>
<line x1="0.9849300802043031" y1="15.961599104012356" x2="8.53686842340007" y2="9.890867507153807" class="delaunay-line"/>
<line x1="8.53686842340007" y1="9.890867507153807" x2="0" y2="0" class="delaunay-line"/>
<line x1="42.643374306907816" y1="13.857783542945622" x2="39.776484299462766" y2="11.080653770426762" class="delaunay-line"/>
<line x1="39.776484299462766" y1="11.080653770426762" x2="36.97026285331192" y2="15.811192469688564" class="delaunay-line"/>
<line x1="36.97026285331192" y1="15.811192469688564" x2="42.643374306907816" y2="13.857783542945622" class="delaunay-line"/>
<line x1="32.91495897442515" y1="11.972643909666465" x2="40.53972028096895" y2="7.154145036636108" class="delaunay-line"/>
<line x1="40.53972028096895" y1="7.154145036636108" x2="28.936871392952053" y2="12.39075776273708" class="delaunay-line"/>
<line x1="28.936871392952053" y1="12.39075776273708" x2="32.91495897442515" y2="11.972643909666465" class="delaunay-line"/>
<line x1="19.060528880560312" y1="8.813853891183761" x2="0" y2="0" class="delaunay-line"/>
<line x1="0" y1="0" x2="11.55570674429116" y2="7.266631391191776" class="delaunay-line"/>
<line x1="11.55570674429116" y1="7.266631391191776" x2="19.060528880560312" y2="8.813853891183761" class="delaunay-line"/>
<line x1="0.04632328996291912" y1="21.887729147583187" x2="-0.25079044961922214" y2="39.81562863052251" class="delaunay-line"/>
<line x1="-0.25079044961922214" y1="39.81562863052251" x2="0.48042561081166424" y2="33.860351720674586" class="delaunay-line"/>
<line x1="0.48042561081166424" y1="33.860351720674586" x2="0.04632328996291912" y2="21.887729147583187" class="delaunay-line"/>
<line x1="0.48042561081166424" y1="33.860351720674586" x2="-0.25079044961922214" y2="39.81562863052251" class="delaunay-line"/>
<line x1="-0.25079044961922214" y1="39.81562863052251" x2="8.42079482394224" y2="34.83530646791577" class="delaunay-line"/>
<line x1="8.42079482394224" y1="34.83530646791577" x2="0.48042561081166424" y2="33.860351720674586" class="delaunay-line"/>
<line x1="7.689578763511354" y1="40.790583377763696" x2="0" y2="48" class="delaunay-line"/>
<line x1="0" y1="48" x2="16.888852627686248" y2="40.63977543624961" class="delaunay-line"/>
<line x1="16.888852627686248" y1="40.63977543624961" x2="7.689578763511354" y2="40.790583377763696" class="delaunay-line"/>
<line x1="43.94564692473644" y1="17.639857845342892" x2="42.643374306907816" y2="13.857783542945622" class="delaunay-line"/>
<line x1="42.643374306907816" y1="13.857783542945622" x2="36.97026285331192" y2="15.811192469688564" class="delaunay-line"/>
<line x1="36.97026285331192" y1="15.811192469688564" x2="43.94564692473644" y2="17.639857845342892" class="delaunay-line"/>
<line x1="40.770699450084095" y1="43.138673572875284" x2="47.25969253166222" y2="33.46224631396508" class="delaunay-line"/>
<line x1="47.25969253166222" y1="33.46224631396508" x2="39.60121263119315" y2="39.31345454902314" class="delaunay-line"/>
<line x1="39.60121263119315" y1="39.31345454902314" x2="40.770699450084095" y2="43.138673572875284" class="delaunay-line"/>
<line x1="45.66624740014875" y1="12.225507742686032" x2="39.776484299462766" y2="11.080653770426762" class="delaunay-line"/>
<line x1="39.776484299462766" y1="11.080653770426762" x2="42.643374306907816" y2="13.857783542945622" class="delaunay-line"/>
<line x1="42.643374306907816" y1="13.857783542945622" x2="45.66624740014875" y2="12.225507742686032" class="delaunay-line"/>
<line x1="45.66624740014875" y1="12.225507742686032" x2="40.53972028096895" y2="7.154145036636108" class="delaunay-line"/>
<line x1="40.53972028096895" y1="7.154145036636108" x2="39.776484299462766" y2="11.080653770426762" class="delaunay-line"/>
<line x1="39.776484299462766" y1="11.080653770426762" x2="45.66624740014875" y2="12.225507742686032" class="delaunay-line"/>
<line x1="39.776484299462766" y1="11.080653770426762" x2="40.53972028096895" y2="7.154145036636108" class="delaunay-line"/>
<line x1="40.53972028096895" y1="7.154145036636108" x2="32.91495897442515" y2="11.972643909666465" class="delaunay-line"/>
<line x1="32.91495897442515" y1="11.972643909666465" x2="39.776484299462766" y2="11.080653770426762" class="delaunay-line"/>
<line x1="46.11483855940295" y1="27.572483213279096" x2="45.66624740014875" y2="12.225507742686032" class="delaunay-line"/>
<line x1="45.66624740014875" y1="12.225507742686032" x2="43.94564692473644" y2="17.639857845342892" class="delaunay-line"/>
<line x1="43.94564692473644" y1="17.639857845342892" x2="46.11483855940295" y2="27.572483213279096" class="delaunay-line"/>
<line x1="43.94564692473644" y1="17.639857845342892" x2="45.66624740014875" y2="12.225507742686032" class="delaunay-line"/>
<line x1="45.66624740014875" y1="12.225507742686032" x2="42.643374306907816" y2="13.857783542945622" class="delaunay-line"/>
<line x1="42.643374306907816" y1="13.857783542945622" x2="43.94564692473644" y2="17.639857845342892" class="delaunay-line"/>
<line x1="46.42948338165493" y1="8.298999008895377" x2="45.66624740014875" y2="12.225507742686032" class="delaunay-line"/>
<line x1="45.66624740014875" y1="12.225507742686032" x2="46.11483855940295" y2="27.572483213279096" class="delaunay-line"/>
<line x1="46.11483855940295" y1="27.572483213279096" x2="46.42948338165493" y2="8.298999008895377" class="delaunay-line"/>
<line x1="-0.25079044961922214" y1="39.81562863052251" x2="0" y2="48" class="delaunay-line"/>
<line x1="0" y1="48" x2="7.689578763511354" y2="40.790583377763696" class="delaunay-line"/>
<line x1="7.689578763511354" y1="40.790583377763696" x2="-0.25079044961922214" y2="39.81562863052251" class="delaunay-line"/>
<line x1="47.25969253166222" y1="33.46224631396508" x2="46.42948338165493" y2="8.298999008895377" class="delaunay-line"/>
<line x1="46.42948338165493" y1="8.298999008895377" x2="46.11483855940295" y2="27.572483213279096" class="delaunay-line"/>
<line x1="46.11483855940295" y1="27.572483213279096" x2="47.25969253166222" y2="33.46224631396508" class="delaunay-line"/>
<line x1="45.66624740014875" y1="12.225507742686032" x2="46.42948338165493" y2="8.298999008895377" class="delaunay-line"/>
<line x1="46.42948338165493" y1="8.298999008895377" x2="40.53972028096895" y2="7.154145036636108" class="delaunay-line"/>
<line x1="40.53972028096895" y1="7.154145036636108" x2="45.66624740014875" y2="12.225507742686032" class="delaunay-line"/>
<line x1="40.770699450084095" y1="43.138673572875284" x2="48" y2="48" class="delaunay-line"/>
<line x1="48" y1="48" x2="47.25969253166222" y2="33.46224631396508" class="delaunay-line"/>
<line x1="47.25969253166222" y1="33.46224631396508" x2="40.770699450084095" y2="43.138673572875284" class="delaunay-line"/>
<line x1="47.25969253166222" y1="33.46224631396508" x2="48" y2="0" class="delaunay-line"/>
<line x1="48" y1="0" x2="46.42948338165493" y2="8.298999008895377" class="delaunay-line"/>
<line x1="46.42948338165493" y1="8.298999008895377" x2="47.25969253166222" y2="33.46224631396508" class="delaunay-line"/>
<line x1="35.03287091430589" y1="44.89290380121171" x2="48" y2="48" class="delaunay-line"/>
<line x1="48" y1="48" x2="40.770699450084095" y2="43.138673572875284" class="delaunay-line"/>
<line x1="40.770699450084095" y1="43.138673572875284" x2="35.03287091430589" y2="44.89290380121171" class="delaunay-line"/>
<line x1="0" y1="48" x2="48" y2="48" class="delaunay-line"/>
<line x1="48" y1="48" x2="35.03287091430589" y2="44.89290380121171" class="delaunay-line"/>
<line x1="35.03287091430589" y1="44.89290380121171" x2="0" y2="48" class="delaunay-line"/>
<line x1="48" y1="0" x2="0" y2="0" class="delaunay-line"/>
<line x1="0" y1="0" x2="19.060528880560312" y2="8.813853891183761" class="delaunay-line"/>
<line x1="19.060528880560312" y1="8.813853891183761" x2="48" y2="0" class="delaunay-line"/>
<line x1="11.55570674429116" y1="7.266631391191776" x2="0" y2="0" class="delaunay-line"/>
<line x1="0" y1="0" x2="8.53686842340007" y2="9.890867507153807" class="delaunay-line"/>
<line x1="8.53686842340007" y1="9.890867507153807" x2="11.55570674429116" y2="7.266631391191776" class="delaunay-line"/>
<line x1="0.9849300802043031" y1="15.961599104012356" x2="0" y2="0" class="delaunay-line"/>
<line x1="0" y1="0" x2="0.04632328996291912" y2="21.887729147583187" class="delaunay-line"/>
<line x1="0.04632328996291912" y1="21.887729147583187" x2="0.9849300802043031" y2="15.961599104012356" class="delaunay-line"/>
<line x1="0.04632328996291912" y1="21.887729147583187" x2="0" y2="0" class="delaunay-line"/>
<line x1="0" y1="0" x2="-0.25079044961922214" y2="39.81562863052251" class="delaunay-line"/>
<line x1="-0.25079044961922214" y1="39.81562863052251" x2="0.04632328996291912" y2="21.887729147583187" class="delaunay-line"/>
<line x1="46.42948338165493" y1="8.298999008895377" x2="48" y2="0" class="delaunay-line"/>
<line x1="48" y1="0" x2="40.53972028096895" y2="7.154145036636108" class="delaunay-line"/>
<line x1="40.53972028096895" y1="7.154145036636108" x2="46.42948338165493" y2="8.298999008895377" class="delaunay-line"/>
<line x1="40.53972028096895" y1="7.154145036636108" x2="48" y2="0" class="delaunay-line"/>
<line x1="48" y1="0" x2="19.060528880560312" y2="8.813853891183761" class="delaunay-line"/>
<line x1="19.060528880560312" y1="8.813853891183761" x2="40.53972028096895" y2="7.154145036636108" class="delaunay-line"/>
<line x1="48" y1="48" x2="48" y2="0" class="delaunay-line"/>
<line x1="48" y1="0" x2="47.25969253166222" y2="33.46224631396508" class="delaunay-line"/>
<line x1="47.25969253166222" y1="33.46224631396508" x2="48" y2="48" class="delaunay-line"/>
</g>
<g id="layer-area" class="layer ">
</g>
<g id="layer-building" class="layer ">
<polygon points="20.124920605186038,38.288634427079714 16.888852627686248,40.63977543624961 13.36214111393141,35.78567346999992 16.598209091431197,33.43453246083003" class="terrain-solid"/>
<text x="16.74353085955872" y="37.03715394853982" class="label">#000000</text>
<polygon points="33.542129754031066,17.939775281876106 29.564042172557976,18.35788913494672 28.936871392952053,12.39075776273708 32.91495897442515,11.972643909666465" class="terrain-solid"/>
<text x="31.23950057349156" y="15.165266522306593" class="label">#000000</text>
<polygon points="24.831358411664258,31.471025202087105 30.823135620191703,31.78504093954477 30.404447970248153,39.774077217581365 24.412670761720708,39.4600614801237" class="terrain-solid"/>
<text x="27.617903190956206" y="35.622551209834235" class="label">#000000</text>
<polygon points="16.940851823627497,12.206046275809467 19.060528880560312,8.813853891183761 24.148817457498865,11.993369476582991 22.02914040056605,15.385561861208696" class="terrain-solid"/>
<text x="20.54483464056318" y="12.09970787619623" class="label">#000000</text>
<polygon points="-0.25079044961922214,39.81562863052251 0.48042561081166424,33.860351720674586 8.42079482394224,34.83530646791577 7.689578763511354,40.790583377763696" class="terrain-solid"/>
<text x="4.085002187161509" y="37.32546754921914" class="label">#000000</text>
<polygon points="8.53686842340007,9.890867507153807 11.55570674429116,7.266631391191776 15.492060918234204,11.794888872528407 12.473222597343115,14.419124988490438" class="terrain-solid"/>
<text x="12.014464670817137" y="10.842878189841107" class="label">#000000</text>
<polygon points="39.60121263119315,39.31345454902314 40.770699450084095,43.138673572875284 35.03287091430589,44.89290380121171 33.86338409541494,41.06768477735957" class="terrain-solid"/>
<text x="37.31704177274952" y="42.103179175117425" class="label">#000000</text>
<polygon points="27.46028075740791,28.677136357215424 28.629767576298857,24.851917333363282 34.36759611207707,26.6061475616997 33.19810929318612,30.431366585551842" class="terrain-solid"/>
<text x="30.91393843474249" y="27.641641959457562" class="label">#000000</text>
<polygon points="46.11483855940295,27.572483213279096 47.25969253166222,33.46224631396508 39.40667506408091,34.98871827697744 38.26182109182164,29.098955176291458" class="terrain-solid"/>
<text x="42.76075681174193" y="31.280600745128268" class="label">#000000</text>
<polygon points="7.7724634183019425,28.61404347274655 7.493437523325442,32.604299673785846 1.5080532217665001,32.18576083132109 1.787079116743001,28.1955046302818" class="terrain-solid"/>
<text x="4.640258320034222" y="30.39990215203382" class="label">#000000</text>
<polygon points="42.643374306907816,13.857783542945622 43.94564692473644,17.639857845342892 38.27253547114054,19.59326677208583 36.97026285331192,15.811192469688564" class="terrain-solid"/>
<text x="40.45795488902418" y="16.725525157515726" class="label">#000000</text>
<polygon points="0.04632328996291912,21.887729147583187 0.9849300802043031,15.961599104012356 8.886436804965406,17.2130748243342 7.947830014724021,23.13920486790503" class="terrain-solid"/>
<text x="4.466380047464162" y="19.550401985958693" class="label">#000000</text>
<polygon points="46.42948338165493,8.298999008895377 45.66624740014875,12.225507742686032 39.776484299462766,11.080653770426762 40.53972028096895,7.154145036636108" class="terrain-solid"/>
<text x="43.10298384055885" y="9.68982638966107" class="label">#000000</text>
<polygon points="19.729467046530175,25.58096960094273 19.729467046530175,31.58096960094273 11.729467046530175,31.58096960094273 11.729467046530175,25.58096960094273" class="terrain-solid"/>
<text x="15.729467046530175" y="28.58096960094273" class="label">#000000</text>
</g>
<g id="layer-wall" class="layer ">
</g>
<g id="layer-tree" class="layer ">
</g>
<g id="layer-rocks" class="layer ">
</g>
<g id="layer-shrub" class="layer ">
</g>
<g id="layer-terrain" class="layer ">
</g>
<g id="layer-clearance" class="layer hidden">
</g>
<g id="layer-models" class="layer ">
</g>
<g id="layer-paths" class="layer ">
</g>
<g id="layer-vectors" class="layer ">
</g>
<g id="layer-los" class="layer ">
</g>
<g id="layer-lof" class="layer ">
</g>

<g id="legend">
<g class="toggle" onclick="toggleLayer('deployment')"><rect x="0.4" y="0.14999999999999997" width="0.4" height="0.4" fill="#222" stroke="#222" stroke-width="0.05"/><text x="1.0" y="0.5499999999999999" class="label">Deployment Zones</text></g>
<g class="toggle" onclick="toggleLayer('grid')"><rect x="0.4" y="0.95" width="0.4" height="0.4" fill="#222" stroke="#222" stroke-width="0.05"/><text x="1.0" y="1.3499999999999999" class="label">0.5 MU Grid</text></g>
<g class="toggle" onclick="toggleLayer('delaunay')"><rect x="0.4" y="1.7500000000000002" width="0.4" height="0.4" fill="#222" stroke="#222" stroke-width="0.05"/><text x="1.0" y="2.1500000000000004" class="label">Delaunay Mesh</text></g>
<g class="toggle disabled"><rect x="0.4" y="2.55" width="0.4" height="0.4" fill="#222" stroke="#222" stroke-width="0.05"/><text x="1.0" y="2.95" class="label">Area Terrain</text></g>
<g class="toggle" onclick="toggleLayer('building')"><rect x="0.4" y="3.3499999999999996" width="0.4" height="0.4" fill="#222" stroke="#222" stroke-width="0.05"/><text x="1.0" y="3.75" class="label">Buildings</text></g>
<g class="toggle disabled"><rect x="0.4" y="4.1499999999999995" width="0.4" height="0.4" fill="#222" stroke="#222" stroke-width="0.05"/><text x="1.0" y="4.55" class="label">Walls</text></g>
<g class="toggle disabled"><rect x="0.4" y="4.949999999999999" width="0.4" height="0.4" fill="#222" stroke="#222" stroke-width="0.05"/><text x="1.0" y="5.35" class="label">Trees</text></g>
<g class="toggle disabled"><rect x="0.4" y="5.749999999999999" width="0.4" height="0.4" fill="#222" stroke="#222" stroke-width="0.05"/><text x="1.0" y="6.1499999999999995" class="label">Rocks</text></g>
<g class="toggle disabled"><rect x="0.4" y="6.549999999999999" width="0.4" height="0.4" fill="#222" stroke="#222" stroke-width="0.05"/><text x="1.0" y="6.949999999999999" class="label">Shrubs</text></g>
<g class="toggle" onclick="toggleLayer('terrain')"><rect x="0.4" y="7.349999999999999" width="0.4" height="0.4" fill="#222" stroke="#222" stroke-width="0.05"/><text x="1.0" y="7.749999999999999" class="label">Other Terrain</text></g>
<g class="toggle" onclick="toggleLayer('clearance')"><rect x="0.4" y="8.15" width="0.4" height="0.4" fill="#fff" stroke="#222" stroke-width="0.05"/><text x="1.0" y="8.549999999999999" class="label">Clearance Zones</text></g>
<g class="toggle" onclick="toggleLayer('models')"><rect x="0.4" y="8.950000000000001" width="0.4" height="0.4" fill="#222" stroke="#222" stroke-width="0.05"/><text x="1.0" y="9.35" class="label">Models</text></g>
<g class="toggle" onclick="toggleLayer('paths')"><rect x="0.4" y="9.750000000000002" width="0.4" height="0.4" fill="#222" stroke="#222" stroke-width="0.05"/><text x="1.0" y="10.15" class="label">Paths</text></g>
<g class="toggle" onclick="toggleLayer('vectors')"><rect x="0.4" y="10.550000000000002" width="0.4" height="0.4" fill="#222" stroke="#222" stroke-width="0.05"/><text x="1.0" y="10.950000000000001" class="label">Vectors</text></g>
<g class="toggle" onclick="toggleLayer('los')"><rect x="0.4" y="11.350000000000003" width="0.4" height="0.4" fill="#222" stroke="#222" stroke-width="0.05"/><text x="1.0" y="11.750000000000002" class="label">LOS</text></g>
<g class="toggle" onclick="toggleLayer('lof')"><rect x="0.4" y="12.150000000000004" width="0.4" height="0.4" fill="#222" stroke="#222" stroke-width="0.05"/><text x="1.0" y="12.550000000000002" class="label">LOF</text></g>
</g>
</svg>