<svg xmlns="http://www.w3.org/2000/svg" viewBox="0 0 48 48" width="1920" height="1920" font-family="Arial" font-size="0.6">
<defs>
  <style><![CDATA[
    .layer { display: inline; }
    .layer.hidden { display: none; }
    .grid-line { stroke: #999; stroke-width: 0.02; opacity: 0.2; }
    .grid-line-2mu { stroke: #666; stroke-width: 0.04; opacity: 0.4; }
    .grid-line-6mu { stroke: #333; stroke-width: 0.08; opacity: 0.6; }
    .delaunay-line { stroke: #4a6fa5; stroke-width: 0.03; opacity: 0.3; }
    #layer-area { opacity: 0.8; }
    #layer-building, #layer-wall, #layer-tree, #layer-rocks, #layer-shrub, #layer-terrain { opacity: 0.8; }
    .terrain-area { stroke: none; }
    .terrain-solid { stroke: #000; stroke-width: 0.05; }
    .model { stroke: #ff0000; stroke-width: 2; vector-effect: non-scaling-stroke; }
    .path { fill: none; stroke-width: 0.12; }
    .vector { stroke-width: 0.1; }
    .los-ray { stroke-width: 0.08; stroke-dasharray: 0.2 0.2; }
    .lof-ray { stroke-width: 0.08; stroke-dasharray: 0.3 0.15; }
    .label { fill: #111 !important; font-size: 0.6px; }
    .toggle { cursor: pointer; }
    .toggle.disabled { cursor: default; }
    .toggle.disabled rect { stroke: #ccc; fill: #fff; }
    .toggle.disabled text { fill: #ccc; }
#layer-building { fill: #000000; }
  ]]></style>
</defs>
<rect x="0" y="0" width="48" height="48" fill="#ffffff" stroke="#111" stroke-width="0.05"/>
<script><![CDATA[
      function toggleLayer(id) {
        var layer = document.getElementById('layer-' + id);
        if (!layer) return;
        if (layer.classList.contains('hidden')) {
          layer.classList.remove('hidden');
        } else {
          layer.classList.add('hidden');
        }
      }
    ]]></script>
<text x="0.4" y="47.6" class="label">LARGE battlefield_A0-B80-W0-R0-S0-T0</text>
<g id="layer-deployment" class="layer ">
</g>
<g id="layer-grid" class="layer ">
<line x1="0" y1="0" x2="0" y2="48" class="grid-line-6mu"/>
<line x1="0.5" y1="0" x2="0.5" y2="48" class="grid-line"/>
<line x1="1" y1="0" x2="1" y2="48" class="grid-line"/>
<line x1="1.5" y1="0" x2="1.5" y2="48" class="grid-line"/>
<line x1="2" y1="0" x2="2" y2="48" class="grid-line-2mu"/>
<line x1="2.5" y1="0" x2="2.5" y2="48" class="grid-line"/>
<line x1="3" y1="0" x2="3" y2="48" class="grid-line"/>
<line x1="3.5" y1="0" x2="3.5" y2="48" class="grid-line"/>
<line x1="4" y1="0" x2="4" y2="48" class="grid-line-2mu"/>
<line x1="4.5" y1="0" x2="4.5" y2="48" class="grid-line"/>
<line x1="5" y1="0" x2="5" y2="48" class="grid-line"/>
<line x1="5.5" y1="0" x2="5.5" y2="48" class="grid-line"/>
<line x1="6" y1="0" x2="6" y2="48" class="grid-line-6mu"/>
<line x1="6.5" y1="0" x2="6.5" y2="48" class="grid-line"/>
<line x1="7" y1="0" x2="7" y2="48" class="grid-line"/>
<line x1="7.5" y1="0" x2="7.5" y2="48" class="grid-line"/>
<line x1="8" y1="0" x2="8" y2="48" class="grid-line-2mu"/>
<line x1="8.5" y1="0" x2="8.5" y2="48" class="grid-line"/>
<line x1="9" y1="0" x2="9" y2="48" class="grid-line"/>
<line x1="9.5" y1="0" x2="9.5" y2="48" class="grid-line"/>
<line x1="10" y1="0" x2="10" y2="48" class="grid-line-2mu"/>
<line x1="10.5" y1="0" x2="10.5" y2="48" class="grid-line"/>
<line x1="11" y1="0" x2="11" y2="48" class="grid-line"/>
<line x1="11.5" y1="0" x2="11.5" y2="48" class="grid-line"/>
<line x1="12" y1="0" x2="12" y2="48" class="grid-line-6mu"/>
<line x1="12.5" y1="0" x2="12.5" y2="48" class="grid-line"/>
<line x1="13" y1="0" x2="13" y2="48" class="grid-line"/>
<line x1="13.5" y1="0" x2="13.5" y2="48" class="grid-line"/>
<line x1="14" y1="0" x2="14" y2="48" class="grid-line-2mu"/>
<line x1="14.5" y1="0" x2="14.5" y2="48" class="grid-line"/>
<line x1="15" y1="0" x2="15" y2="48" class="grid-line"/>
<line x1="15.5" y1="0" x2="15.5" y2="48" class="grid-line"/>
<line x1="16" y1="0" x2="16" y2="48" class="grid-line-2mu"/>
<line x1="16.5" y1="0" x2="16.5" y2="48" class="grid-line"/>
<line x1="17" y1="0" x2="17" y2="48" class="grid-line"/>
<line x1="17.5" y1="0" x2="17.5" y2="48" class="grid-line"/>
<line x1="18" y1="0" x2="18" y2="48" class="grid-line-6mu"/>
<line x1="18.5" y1="0" x2="18.5" y2="48" class="grid-line"/>
<line x1="19" y1="0" x2="19" y2="48" class="grid-line"/>
<line x1="19.5" y1="0" x2="19.5" y2="48" class="grid-line"/>
<line x1="20" y1="0" x2="20" y2="48" class="grid-line-2mu"/>
<line x1="20.5" y1="0" x2="20.5" y2="48" class="grid-line"/>
<line x1="21" y1="0" x2="21" y2="48" class="grid-line"/>
<line x1="21.5" y1="0" x2="21.5" y2="48" class="grid-line"/>
<line x1="22" y1="0" x2="22" y2="48" class="grid-line-2mu"/>
<line x1="22.5" y1="0" x2="22.5" y2="48" class="grid-line"/>
<line x1="23" y1="0" x2="23" y2="48" class="grid-line"/>
<line x1="23.5" y1="0" x2="23.5" y2="48" class="grid-line"/>
<line x1="24" y1="0" x2="24" y2="48" class="grid-line-6mu"/>
<line x1="24.5" y1="0" x2="24.5" y2="48" class="grid-line"/>
<line x1="25" y1="0" x2="25" y2="48" class="grid-line"/>
<line x1="25.5" y1="0" x2="25.5" y2="48" class="grid-line"/>
<line x1="26" y1="0" x2="26" y2="48" class="grid-line-2mu"/>
<line x1="26.5" y1="0" x2="26.5" y2="48" class="grid-line"/>
<line x1="27" y1="0" x2="27" y2="48" class="grid-line"/>
<line x1="27.5" y1="0" x2="27.5" y2="48" class="grid-line"/>
<line x1="28" y1="0" x2="28" y2="48" class="grid-line-2mu"/>
<line x1="28.5" y1="0" x2="28.5" y2="48" class="grid-line"/>
<line x1="29" y1="0" x2="29" y2="48" class="grid-line"/>
<line x1="29.5" y1="0" x2="29.5" y2="48" class="grid-line"/>
<line x1="30" y1="0" x2="30" y2="48" class="grid-line-6mu"/>
<line x1="30.5" y1="0" x2="30.5" y2="48" class="grid-line"/>
<line x1="31" y1="0" x2="31" y2="48" class="grid-line"/>
<line x1="31.5" y1="0" x2="31.5" y2="48" class="grid-line"/>
<line x1="32" y1="0" x2="32" y2="48" class="grid-line-2mu"/>
<line x1="32.5" y1="0" x2="32.5" y2="48" class="grid-line"/>
<line x1="33" y1="0" x2="33" y2="48" class="grid-line"/>
<line x1="33.5" y1="0" x2="33.5" y2="48" class="grid-line"/>
<line x1="34" y1="0" x2="34" y2="48" class="grid-line-2mu"/>
<line x1="34.5" y1="0" x2="34.5" y2="48" class="grid-line"/>
<line x1="35" y1="0" x2="35" y2="48" class="grid-line"/>
<line x1="35.5" y1="0" x2="35.5" y2="48" class="grid-line"/>
<line x1="36" y1="0" x2="36" y2="48" class="grid-line-6mu"/>
<line x1="36.5" y1="0" x2="36.5" y2="48" class="grid-line"/>
<line x1="37" y1="0" x2="37" y2="48" class="grid-line"/>
<line x1="37.5" y1="0" x2="37.5" y2="48" class="grid-line"/>
<line x1="38" y1="0" x2="38" y2="48" class="grid-line-2mu"/>
<line x1="38.5" y1="0" x2="38.5" y2="48" class="grid-line"/>
<line x1="39" y1="0" x2="39" y2="48" class="grid-line"/>
<line x1="39.5" y1="0" x2="39.5" y2="48" class="grid-line"/>
<line x1="40" y1="0" x2="40" y2="48" class="grid-line-2mu"/>
<line x1="40.5" y1="0" x2="40.5" y2="48" class="grid-line"/>
<line x1="41" y1="0" x2="41" y2="48" class="grid-line"/>
<line x1="41.5" y1="0" x2="41.5" y2="48" class="grid-line"/>
<line x1="42" y1="0" x2="42" y2="48" class="grid-line-6mu"/>
<line x1="42.5" y1="0" x2="42.5" y2="48" class="grid-line"/>
<line x1="43" y1="0" x2="43" y2="48" class="grid-line"/>
<line x1="43.5" y1="0" x2="43.5" y2="48" class="grid-line"/>
<line x1="44" y1="0" x2="44" y2="48" class="grid-line-2mu"/>
<line x1="44.5" y1="0" x2="44.5" y2="48" class="grid-line"/>
<line x1="45" y1="0" x2="45" y2="48" class="grid-line"/>
<line x1="45.5" y1="0" x2="45.5" y2="48" class="grid-line"/>
<line x1="46" y1="0" x2="46" y2="48" class="grid-line-2mu"/>
<line x1="46.5" y1="0" x2="46.5" y2="48" class="grid-line"/>
<line x1="47" y1="0" x2="47" y2="48" class="grid-line"/>
<line x1="47.5" y1="0" x2="47.5" y2="48" class="grid-line"/>
<line x1="48" y1="0" x2="48" y2="48" class="grid-line-6mu"/>
<line x1="0" y1="0" x2="48" y2="0" class="grid-line-6mu"/>
<line x1="0" y1="0.5" x2="48" y2="0.5" class="grid-line"/>
<line x1="0" y1="1" x2="48" y2="1" class="grid-line"/>
<line x1="0" y1="1.5" x2="48" y2="1.5" class="grid-line"/>
<line x1="0" y1="2" x2="48" y2="2" class="grid-line-2mu"/>
<line x1="0" y1="2.5" x2="48" y2="2.5" class="grid-line"/>
<line x1="0" y1="3" x2="48" y2="3" class="grid-line"/>
<line x1="0" y1="3.5" x2="48" y2="3.5" class="grid-line"/>
<line x1="0" y1="4" x2="48" y2="4" class="grid-line-2mu"/>
<line x1="0" y1="4.5" x2="48" y2="4.5" class="grid-line"/>
<line x1="0" y1="5" x2="48" y2="5" class="grid-line"/>
<line x1="0" y1="5.5" x2="48" y2="5.5" class="grid-line"/>
<line x1="0" y1="6" x2="48" y2="6" class="grid-line-6mu"/>
<line x1="0" y1="6.5" x2="48" y2="6.5" class="grid-line"/>
<line x1="0" y1="7" x2="48" y2="7" class="grid-line"/>
<line x1="0" y1="7.5" x2="48" y2="7.5" class="grid-line"/>
<line x1="0" y1="8" x2="48" y2="8" class="grid-line-2mu"/>
<line x1="0" y1="8.5" x2="48" y2="8.5" class="grid-line"/>
<line x1="0" y1="9" x2="48" y2="9" class="grid-line"/>
<line x1="0" y1="9.5" x2="48" y2="9.5" class="grid-line"/>
<line x1="0" y1="10" x2="48" y2="10" class="grid-line-2mu"/>
<line x1="0" y1="10.5" x2="48" y2="10.5" class="grid-line"/>
<line x1="0" y1="11" x2="48" y2="11" class="grid-line"/>
<line x1="0" y1="11.5" x2="48" y2="11.5" class="grid-line"/>
<line x1="0" y1="12" x2="48" y2="12" class="grid-line-6mu"/>
<line x1="0" y1="12.5" x2="48" y2="12.5" class="grid-line"/>
<line x1="0" y1="13" x2="48" y2="13" class="grid-line"/>
<line x1="0" y1="13.5" x2="48" y2="13.5" class="grid-line"/>
<line x1="0" y1="14" x2="48" y2="14" class="grid-line-2mu"/>
<line x1="0" y1="14.5" x2="48" y2="14.5" class="grid-line"/>
<line x1="0" y1="15" x2="48" y2="15" class="grid-line"/>
<line x1="0" y1="15.5" x2="48" y2="15.5" class="grid-line"/>
<line x1="0" y1="16" x2="48" y2="16" class="grid-line-2mu"/>
<line x1="0" y1="16.5" x2="48" y2="16.5" class="grid-line"/>
<line x1="0" y1="17" x2="48" y2="17" class="grid-line"/>
<line x1="0" y1="17.5" x2="48" y2="17.5" class="grid-line"/>
<line x1="0" y1="18" x2="48" y2="18" class="grid-line-6mu"/>
<line x1="0" y1="18.5" x2="48" y2="18.5" class="grid-line"/>
<line x1="0" y1="19" x2="48" y2="19" class="grid-line"/>
<line x1="0" y1="19.5" x2="48" y2="19.5" class="grid-line"/>
<line x1="0" y1="20" x2="48" y2="20" class="grid-line-2mu"/>
<line x1="0" y1="20.5" x2="48" y2="20.5" class="grid-line"/>
<line x1="0" y1="21" x2="48" y2="21" class="grid-line"/>
<line x1="0" y1="21.5" x2="48" y2="21.5" class="grid-line"/>
<line x1="0" y1="22" x2="48" y2="22" class="grid-line-2mu"/>
<line x1="0" y1="22.5" x2="48" y2="22.5" class="grid-line"/>
<line x1="0" y1="23" x2="48" y2="23" class="grid-line"/>
<line x1="0" y1="23.5" x2="48" y2="23.5" class="grid-line"/>
<line x1="0" y1="24" x2="48" y2="24" class="grid-line-6mu"/>
<line x1="0" y1="24.5" x2="48" y2="24.5" class="grid-line"/>
<line x1="0" y1="25" x2="48" y2="25" class="grid-line"/>
<line x1="0" y1="25.5" x2="48" y2="25.5" class="grid-line"/>
<line x1="0" y1="26" x2="48" y2="26" class="grid-line-2mu"/>
<line x1="0" y1="26.5" x2="48" y2="26.5" class="grid-line"/>
<line x1="0" y1="27" x2="48" y2="27" class="grid-line"/>
<line x1="0" y1="27.5" x2="48" y2="27.5" class="grid-line"/>
<line x1="0" y1="28" x2="48" y2="28" class="grid-line-2mu"/>
<line x1="0" y1="28.5" x2="48" y2="28.5" class="grid-line"/>
<line x1="0" y1="29" x2="48" y2="29" class="grid-line"/>
<line x1="0" y1="29.5" x2="48" y2="29.5" class="grid-line"/>
<line x1="0" y1="30" x2="48" y2="30" class="grid-line-6mu"/>
<line x1="0" y1="30.5" x2="48" y2="30.5" class="grid-line"/>
<line x1="0" y1="31" x2="48" y2="31" class="grid-line"/>
<line x1="0" y1="31.5" x2="48" y2="31.5" class="grid-line"/>
<line x1="0" y1="32" x2="48" y2="32" class="grid-line-2mu"/>
<line x1="0" y1="32.5" x2="48" y2="32.5" class="grid-line"/>
<line x1="0" y1="33" x2="48" y2="33" class="grid-line"/>
<line x1="0" y1="33.5" x2="48" y2="33.5" class="grid-line"/>
<line x1="0" y1="34" x2="48" y2="34" class="grid-line-2mu"/>
<line x1="0" y1="34.5" x2="48" y2="34.5" class="grid-line"/>
<line x1="0" y1="35" x2="48" y2="35" class="grid-line"/>
<line x1="0" y1="35.5" x2="48" y2="35.5" class="grid-line"/>
<line x1="0" y1="36" x2="48" y2="36" class="grid-line-6mu"/>
<line x1="0" y1="36.5" x2="48" y2="36.5" class="grid-line"/>
<line x1="0" y1="37" x2="48" y2="37" class="grid-line"/>
<line x1="0" y1="37.5" x2="48" y2="37.5" class="grid-line"/>
<line x1="0" y1="38" x2="48" y2="38" class="grid-line-2mu"/>
<line x1="0" y1="38.5" x2="48" y2="38.5" class="grid-line"/>
<line x1="0" y1="39" x2="48" y2="39" class="grid-line"/>
<line x1="0" y1="39.5" x2="48" y2="39.5" class="grid-line"/>
<line x1="0" y1="40" x2="48" y2="40" class="grid-line-2mu"/>
<line x1="0" y1="40.5" x2="48" y2="40.5" class="grid-line"/>
<line x1="0" y1="41" x2="48" y2="41" class="grid-line"/>
<line x1="0" y1="41.5" x2="48" y2="41.5" class="grid-line"/>
<line x1="0" y1="42" x2="48" y2="42" class="grid-line-6mu"/>
<line x1="0" y1="42.5" x2="48" y2="42.5" class="grid-line"/>
<line x1="0" y1="43" x2="48" y2="43" class="grid-line"/>
<line x1="0" y1="43.5" x2="48" y2="43.5" class="grid-line"/>
<line x1="0" y1="44" x2="48" y2="44" class="grid-line-2mu"/>
<line x1="0" y1="44.5" x2="48" y2="44.5" class="grid-line"/>
<line x1="0" y1="45" x2="48" y2="45" class="grid-line"/>
<line x1="0" y1="45.5" x2="48" y2="45.5" class="grid-line"/>
<line x1="0" y1="46" x2="48" y2="46" class="grid-line-2mu"/>
<line x1="0" y1="46.5" x2="48" y2="46.5" class="grid-line"/>
<line x1="0" y1="47" x2="48" y2="47" class="grid-line"/>
<line x1="0" y1="47.5" x2="48" y2="47.5" class="grid-line"/>
<line x1="0" y1="48" x2="48" y2="48" class="grid-line-6mu"/>
</g>
<g id="layer-delaunay" class="layer ">
<line x1="25.023707698027472" y1="23.41230724285809" x2="21.029189559009176" y2="23.202963417886316" class="delaunay-line"/>
<line x1="21.029189559009176" y1="23.202963417886316" x2="20.22377667530414" y2="28.412341191053414" class="delaunay-line"/>
<line x1="20.22377667530414" y1="28.412341191053414" x2="25.023707698027472" y2="23.41230724285809" class="delaunay-line"/>
<line x1="21.34320529646684" y1="17.21118620935887" x2="19.50093569838144" y2="20.19251344743066" class="delaunay-line"/>
<line x1="19.50093569838144" y1="20.19251344743066" x2="21.029189559009176" y2="23.202963417886316" class="delaunay-line"/>
<line x1="21.029189559009176" y1="23.202963417886316" x2="21.34320529646684" y2="17.21118620935887" class="delaunay-line"/>
<line x1="21.029189559009176" y1="23.202963417886316" x2="15.560222623912978" y2="26.103837889022497" class="delaunay-line"/>
<line x1="15.560222623912978" y1="26.103837889022497" x2="20.22377667530414" y2="28.412341191053414" class="delaunay-line"/>
<line x1="20.22377667530414" y1="28.412341191053414" x2="21.029189559009176" y2="23.202963417886316" class="delaunay-line"/>
<line x1="15.560222623912978" y1="22.103837889022497" x2="15.560222623912978" y2="26.103837889022497" class="delaunay-line"/>
<line x1="15.560222623912978" y1="26.103837889022497" x2="21.029189559009176" y2="23.202963417886316" class="delaunay-line"/>
<line x1="21.029189559009176" y1="23.202963417886316" x2="15.560222623912978" y2="22.103837889022497" class="delaunay-line"/>
<line x1="15.560222623912978" y1="26.103837889022497" x2="16.489454969315336" y2="29.845812989234613" class="delaunay-line"/>
<line x1="16.489454969315336" y1="29.845812989234613" x2="20.22377667530414" y2="28.412341191053414" class="delaunay-line"/>
<line x1="20.22377667530414" y1="28.412341191053414" x2="15.560222623912978" y2="26.103837889022497" class="delaunay-line"/>
<line x1="18.63966266658714" y1="35.447295548217824" x2="22.373984372575944" y2="34.01382375003663" class="delaunay-line"/>
<line x1="22.373984372575944" y1="34.01382375003663" x2="20.22377667530414" y2="28.412341191053414" class="delaunay-line"/>
<line x1="20.22377667530414" y1="28.412341191053414" x2="18.63966266658714" y2="35.447295548217824" class="delaunay-line"/>
<line x1="20.22377667530414" y1="28.412341191053414" x2="30.13909235468011" y2="29.964972770091737" class="delaunay-line"/>
<line x1="30.13909235468011" y1="29.964972770091737" x2="25.023707698027472" y2="23.41230724285809" class="delaunay-line"/>
<line x1="25.023707698027472" y1="23.41230724285809" x2="20.22377667530414" y2="28.412341191053414" class="delaunay-line"/>
<line x1="22.373984372575944" y1="34.01382375003663" x2="30.13909235468011" y2="29.964972770091737" class="delaunay-line"/>
<line x1="30.13909235468011" y1="29.964972770091737" x2="20.22377667530414" y2="28.412341191053414" class="delaunay-line"/>
<line x1="20.22377667530414" y1="28.412341191053414" x2="22.373984372575944" y2="34.01382375003663" class="delaunay-line"/>
<line x1="19.50093569838144" y1="20.19251344743066" x2="15.560222623912978" y2="22.103837889022497" class="delaunay-line"/>
<line x1="15.560222623912978" y1="22.103837889022497" x2="21.029189559009176" y2="23.202963417886316" class="delaunay-line"/>
<line x1="21.029189559009176" y1="23.202963417886316" x2="19.50093569838144" y2="20.19251344743066" class="delaunay-line"/>
<line x1="25.023707698027472" y1="23.41230724285809" x2="21.34320529646684" y2="17.21118620935887" class="delaunay-line"/>
<line x1="21.34320529646684" y1="17.21118620935887" x2="21.029189559009176" y2="23.202963417886316" class="delaunay-line"/>
<line x1="21.029189559009176" y1="23.202963417886316" x2="25.023707698027472" y2="23.41230724285809" class="delaunay-line"/>
<line x1="13.002634882091755" y1="17.06647977822477" x2="13.559327285932019" y2="21.027552053191055" class="delaunay-line"/>
<line x1="13.559327285932019" y1="21.027552053191055" x2="15.560222623912978" y2="22.103837889022497" class="delaunay-line"/>
<line x1="15.560222623912978" y1="22.103837889022497" x2="13.002634882091755" y2="17.06647977822477" class="delaunay-line"/>
<line x1="25.337723435485138" y1="17.420530034330646" x2="21.34320529646684" y2="17.21118620935887" class="delaunay-line"/>
<line x1="21.34320529646684" y1="17.21118620935887" x2="25.023707698027472" y2="23.41230724285809" class="delaunay-line"/>
<line x1="25.023707698027472" y1="23.41230724285809" x2="25.337723435485138" y2="17.420530034330646" class="delaunay-line"/>
<line x1="32.54635244728831" y1="26.770430729902568" x2="25.337723435485138" y2="17.420530034330646" class="delaunay-line"/>
<line x1="25.337723435485138" y1="17.420530034330646" x2="25.023707698027472" y2="23.41230724285809" class="delaunay-line"/>
<line x1="25.023707698027472" y1="23.41230724285809" x2="32.54635244728831" y2="26.770430729902568" class="delaunay-line"/>
<line x1="30.13909235468011" y1="29.964972770091737" x2="32.54635244728831" y2="26.770430729902568" class="delaunay-line"/>
<line x1="32.54635244728831" y1="26.770430729902568" x2="25.023707698027472" y2="23.41230724285809" class="delaunay-line"/>
<line x1="25.023707698027472" y1="23.41230724285809" x2="30.13909235468011" y2="29.964972770091737" class="delaunay-line"/>
<line x1="16.489454969315336" y1="29.845812989234613" x2="18.63966266658714" y2="35.447295548217824" class="delaunay-line"/>
<line x1="18.63966266658714" y1="35.447295548217824" x2="20.22377667530414" y2="28.412341191053414" class="delaunay-line"/>
<line x1="20.22377667530414" y1="28.412341191053414" x2="16.489454969315336" y2="29.845812989234613" class="delaunay-line"/>
<line x1="18.944243294541177" y1="16.231441172464375" x2="15.560222623912978" y2="22.103837889022497" class="delaunay-line"/>
<line x1="15.560222623912978" y1="22.103837889022497" x2="19.50093569838144" y2="20.19251344743066" class="delaunay-line"/>
<line x1="19.50093569838144" y1="20.19251344743066" x2="18.944243294541177" y2="16.231441172464375" class="delaunay-line"/>
<line x1="15.560222623912978" y1="22.103837889022497" x2="13.559327285932019" y2="21.027552053191055" class="delaunay-line"/>
<line x1="13.559327285932019" y1="21.027552053191055" x2="15.560222623912978" y2="26.103837889022497" class="delaunay-line"/>
<line x1="15.560222623912978" y1="26.103837889022497" x2="15.560222623912978" y2="22.103837889022497" class="delaunay-line"/>
<line x1="9.416814027477534" y1="31.642997469552768" x2="12.652882004977323" y2="33.99413847872266" class="delaunay-line"/>
<line x1="12.652882004977323" y1="33.99413847872266" x2="16.489454969315336" y2="29.845812989234613" class="delaunay-line"/>
<line x1="16.489454969315336" y1="29.845812989234613" x2="9.416814027477534" y2="31.642997469552768" class="delaunay-line"/>
<line x1="16.996383521840883" y1="10.569503605130427" x2="18.944243294541177" y2="16.231441172464375" class="delaunay-line"/>
<line x1="18.944243294541177" y1="16.231441172464375" x2="21.94117577495742" y2="7.862552252213409" class="delaunay-line"/>
<line x1="21.94117577495742" y1="7.862552252213409" x2="16.996383521840883" y2="10.569503605130427" class="delaunay-line"/>
<line x1="21.34320529646684" y1="17.21118620935887" x2="18.944243294541177" y2="16.231441172464375" class="delaunay-line"/>
<line x1="18.944243294541177" y1="16.231441172464375" x2="19.50093569838144" y2="20.19251344743066" class="delaunay-line"/>
<line x1="19.50093569838144" y1="20.19251344743066" x2="21.34320529646684" y2="17.21118620935887" class="delaunay-line"/>
<line x1="9.560222623912978" y1="26.103837889022497" x2="16.489454969315336" y2="29.845812989234613" class="delaunay-line"/>
<line x1="16.489454969315336" y1="29.845812989234613" x2="15.560222623912978" y2="26.103837889022497" class="delaunay-line"/>
<line x1="15.560222623912978" y1="26.103837889022497" x2="9.560222623912978" y2="26.103837889022497" class="delaunay-line"/>
<line x1="16.489454969315336" y1="29.845812989234613" x2="12.652882004977323" y2="33.99413847872266" class="delaunay-line"/>
<line x1="12.652882004977323" y1="33.99413847872266" x2="18.63966266658714" y2="35.447295548217824" class="delaunay-line"/>
<line x1="18.63966266658714" y1="35.447295548217824" x2="16.489454969315336" y2="29.845812989234613" class="delaunay-line"/>
<line x1="12.652882004977323" y1="33.99413847872266" x2="17.6724987366256" y2="38.247337694000585" class="delaunay-line"/>
<line x1="17.6724987366256" y1="38.247337694000585" x2="18.63966266658714" y2="35.447295548217824" class="delaunay-line"/>
<line x1="18.63966266658714" y1="35.447295548217824" x2="12.652882004977323" y2="33.99413847872266" class="delaunay-line"/>
<line x1="18.63966266658714" y1="35.447295548217824" x2="23.273981295608813" y2="40.39754539127238" class="delaunay-line"/>
<line x1="23.273981295608813" y1="40.39754539127238" x2="22.373984372575944" y2="34.01382375003663" class="delaunay-line"/>
<line x1="22.373984372575944" y1="34.01382375003663" x2="18.63966266658714" y2="35.447295548217824" class="delaunay-line"/>
<line x1="33.20029676564343" y1="40.92658508576898" x2="34.93090541496387" y2="33.57586290900402" class="delaunay-line"/>
<line x1="34.93090541496387" y1="33.57586290900402" x2="30.13909235468011" y2="29.964972770091737" class="delaunay-line"/>
<line x1="30.13909235468011" y1="29.964972770091737" x2="33.20029676564343" y2="40.92658508576898" class="delaunay-line"/>
<line x1="16.996383521840883" y1="10.569503605130427" x2="16.64776055085025" y2="14.554282397497408" class="delaunay-line"/>
<line x1="16.64776055085025" y1="14.554282397497408" x2="18.944243294541177" y2="16.231441172464375" class="delaunay-line"/>
<line x1="18.944243294541177" y1="16.231441172464375" x2="16.996383521840883" y2="10.569503605130427" class="delaunay-line"/>
<line x1="18.944243294541177" y1="16.231441172464375" x2="13.002634882091755" y2="17.06647977822477" class="delaunay-line"/>
<line x1="13.002634882091755" y1="17.06647977822477" x2="15.560222623912978" y2="22.103837889022497" class="delaunay-line"/>
<line x1="15.560222623912978" y1="22.103837889022497" x2="18.944243294541177" y2="16.231441172464375" class="delaunay-line"/>
<line x1="9.560222623912978" y1="22.103837889022497" x2="9.560222623912978" y2="26.103837889022497" class="delaunay-line"/>
<line x1="9.560222623912978" y1="26.103837889022497" x2="13.559327285932019" y2="21.027552053191055" class="delaunay-line"/>
<line x1="13.559327285932019" y1="21.027552053191055" x2="9.560222623912978" y2="22.103837889022497" class="delaunay-line"/>
<line x1="13.559327285932019" y1="21.027552053191055" x2="9.560222623912978" y2="26.103837889022497" class="delaunay-line"/>
<line x1="9.560222623912978" y1="26.103837889022497" x2="15.560222623912978" y2="26.103837889022497" class="delaunay-line"/>
<line x1="15.560222623912978" y1="26.103837889022497" x2="13.559327285932019" y2="21.027552053191055" class="delaunay-line"/>
<line x1="16.64776055085025" y1="14.554282397497408" x2="13.002634882091755" y2="17.06647977822477" class="delaunay-line"/>
<line x1="13.002634882091755" y1="17.06647977822477" x2="18.944243294541177" y2="16.231441172464375" class="delaunay-line"/>
<line x1="18.944243294541177" y1="16.231441172464375" x2="16.64776055085025" y2="14.554282397497408" class="delaunay-line"/>
<line x1="13.002634882091755" y1="17.06647977822477" x2="9.560222623912978" y2="22.103837889022497" class="delaunay-line"/>
<line x1="9.560222623912978" y1="22.103837889022497" x2="13.559327285932019" y2="21.027552053191055" class="delaunay-line"/>
<line x1="13.559327285932019" y1="21.027552053191055" x2="13.002634882091755" y2="17.06647977822477" class="delaunay-line"/>
<line x1="33.20029676564343" y1="40.92658508576898" x2="30.13909235468011" y2="29.964972770091737" class="delaunay-line"/>
<line x1="30.13909235468011" y1="29.964972770091737" x2="22.373984372575944" y2="34.01382375003663" class="delaunay-line"/>
<line x1="22.373984372575944" y1="34.01382375003663" x2="33.20029676564343" y2="40.92658508576898" class="delaunay-line"/>
<line x1="30.13909235468011" y1="29.964972770091737" x2="34.93090541496387" y2="33.57586290900402" class="delaunay-line"/>
<line x1="34.93090541496387" y1="33.57586290900402" x2="32.54635244728831" y2="26.770430729902568" class="delaunay-line"/>
<line x1="32.54635244728831" y1="26.770430729902568" x2="30.13909235468011" y2="29.964972770091737" class="delaunay-line"/>
<line x1="17.6724987366256" y1="38.247337694000585" x2="23.273981295608813" y2="40.39754539127238" class="delaunay-line"/>
<line x1="23.273981295608813" y1="40.39754539127238" x2="18.63966266658714" y2="35.447295548217824" class="delaunay-line"/>
<line x1="18.63966266658714" y1="35.447295548217824" x2="17.6724987366256" y2="38.247337694000585" class="delaunay-line"/>
<line x1="9.560222623912978" y1="26.103837889022497" x2="9.416814027477534" y2="31.642997469552768" class="delaunay-line"/>
<line x1="9.416814027477534" y1="31.642997469552768" x2="16.489454969315336" y2="29.845812989234613" class="delaunay-line"/>
<line x1="16.489454969315336" y1="29.845812989234613" x2="9.560222623912978" y2="26.103837889022497" class="delaunay-line"/>
<line x1="12.652882004977323" y1="33.99413847872266" x2="15.225145052062697" y2="41.231159878661366" class="delaunay-line"/>
<line x1="15.225145052062697" y1="41.231159878661366" x2="17.6724987366256" y2="38.247337694000585" class="delaunay-line"/>
<line x1="17.6724987366256" y1="38.247337694000585" x2="12.652882004977323" y2="33.99413847872266" class="delaunay-line"/>
<line x1="7.079001407542569" y1="29.56966314088171" x2="9.416814027477534" y2="31.642997469552768" class="delaunay-line"/>
<line x1="9.416814027477534" y1="31.642997469552768" x2="9.560222623912978" y2="26.103837889022497" class="delaunay-line"/>
<line x1="9.560222623912978" y1="26.103837889022497" x2="7.079001407542569" y2="29.56966314088171" class="delaunay-line"/>
<line x1="34.93090541496387" y1="33.57586290900402" x2="37.338165507572064" y2="30.381320868814853" class="delaunay-line"/>
<line x1="37.338165507572064" y1="30.381320868814853" x2="32.54635244728831" y2="26.770430729902568" class="delaunay-line"/>
<line x1="32.54635244728831" y1="26.770430729902568" x2="34.93090541496387" y2="33.57586290900402" class="delaunay-line"/>
<line x1="32.54635244728831" y1="26.770430729902568" x2="32.28697846534607" y2="13.989508577622457" class="delaunay-line"/>
<line x1="32.28697846534607" y1="13.989508577622457" x2="25.337723435485138" y2="17.420530034330646" class="delaunay-line"/>
<line x1="25.337723435485138" y1="17.420530034330646" x2="32.54635244728831" y2="26.770430729902568" class="delaunay-line"/>
<line x1="7.077474831712749" y1="20.87740268294303" x2="7.810217467973456" y2="23.614386231033777" class="delaunay-line"/>
<line x1="7.810217467973456" y1="23.614386231033777" x2="9.560222623912978" y2="22.103837889022497" class="delaunay-line"/>
<line x1="9.560222623912978" y1="22.103837889022497" x2="7.077474831712749" y2="20.87740268294303" class="delaunay-line"/>
<line x1="9.560222623912978" y1="22.103837889022497" x2="7.810217467973456" y2="23.614386231033777" class="delaunay-line"/>
<line x1="7.810217467973456" y1="23.614386231033777" x2="9.560222623912978" y2="26.103837889022497" class="delaunay-line"/>
<line x1="9.560222623912978" y1="26.103837889022497" x2="9.560222623912978" y2="22.103837889022497" class="delaunay-line"/>
<line x1="38.75911442034564" y1="18.691790595962242" x2="32.28697846534607" y2="13.989508577622457" class="delaunay-line"/>
<line x1="32.28697846534607" y1="13.989508577622457" x2="32.54635244728831" y2="26.770430729902568" class="delaunay-line"/>
<line x1="32.54635244728831" y1="26.770430729902568" x2="38.75911442034564" y2="18.691790595962242" class="delaunay-line"/>
<line x1="21.94117577495742" y1="7.862552252213409" x2="18.944243294541177" y2="16.231441172464375" class="delaunay-line"/>
<line x1="18.944243294541177" y1="16.231441172464375" x2="21.34320529646684" y2="17.21118620935887" class="delaunay-line"/>
<line x1="21.34320529646684" y1="17.21118620935887" x2="21.94117577495742" y2="7.862552252213409" class="delaunay-line"/>
<line x1="7.810217467973456" y1="23.614386231033777" x2="7.079001407542569" y2="29.56966314088171" class="delaunay-line"/>
<line x1="7.079001407542569" y1="29.56966314088171" x2="9.560222623912978" y2="26.103837889022497" class="delaunay-line"/>
<line x1="9.560222623912978" y1="26.103837889022497" x2="7.810217467973456" y2="23.614386231033777" class="delaunay-line"/>
<line x1="13.002634882091755" y1="17.06647977822477" x2="7.077474831712749" y2="20.87740268294303" class="delaunay-line"/>
<line x1="7.077474831712749" y1="20.87740268294303" x2="9.560222623912978" y2="22.103837889022497" class="delaunay-line"/>
<line x1="9.560222623912978" y1="22.103837889022497" x2="13.002634882091755" y2="17.06647977822477" class="delaunay-line"/>
<line x1="7.810217467973456" y1="23.614386231033777" x2="3.108816800977281" y2="29.082185767261116" class="delaunay-line"/>
<line x1="3.108816800977281" y1="29.082185767261116" x2="7.079001407542569" y2="29.56966314088171" class="delaunay-line"/>
<line x1="7.079001407542569" y1="29.56966314088171" x2="7.810217467973456" y2="23.614386231033777" class="delaunay-line"/>
<line x1="10.670592362299779" y1="14.03134794101146" x2="7.077474831712749" y2="20.87740268294303" class="delaunay-line"/>
<line x1="7.077474831712749" y1="20.87740268294303" x2="13.002634882091755" y2="17.06647977822477" class="delaunay-line"/>
<line x1="13.002634882091755" y1="17.06647977822477" x2="10.670592362299779" y2="14.03134794101146" class="delaunay-line"/>
<line x1="21.94117577495742" y1="7.862552252213409" x2="21.34320529646684" y2="17.21118620935887" class="delaunay-line"/>
<line x1="21.34320529646684" y1="17.21118620935887" x2="25.337723435485138" y2="17.420530034330646" class="delaunay-line"/>
<line x1="25.337723435485138" y1="17.420530034330646" x2="21.94117577495742" y2="7.862552252213409" class="delaunay-line"/>
<line x1="16.64776055085025" y1="14.554282397497408" x2="10.670592362299779" y2="14.03134794101146" class="delaunay-line"/>
<line x1="10.670592362299779" y1="14.03134794101146" x2="13.002634882091755" y2="17.06647977822477" class="delaunay-line"/>
<line x1="13.002634882091755" y1="17.06647977822477" x2="16.64776055085025" y2="14.554282397497408" class="delaunay-line"/>
<line x1="9.126170491222483" y1="38.84824044497235" x2="15.225145052062697" y2="41.231159878661366" class="delaunay-line"/>
<line x1="15.225145052062697" y1="41.231159878661366" x2="12.652882004977323" y2="33.99413847872266" class="delaunay-line"/>
<line x1="12.652882004977323" y1="33.99413847872266" x2="9.126170491222483" y2="38.84824044497235" class="delaunay-line"/>
<line x1="17.6724987366256" y1="38.247337694000585" x2="16.239026938444404" y2="41.98165939998939" class="delaunay-line"/>
<line x1="16.239026938444404" y1="41.98165939998939" x2="23.273981295608813" y2="40.39754539127238" class="delaunay-line"/>
<line x1="23.273981295608813" y1="40.39754539127238" x2="17.6724987366256" y2="38.247337694000585" class="delaunay-line"/>
<line x1="9.126170491222483" y1="38.84824044497235" x2="12.652882004977323" y2="33.99413847872266" class="delaunay-line"/>
<line x1="12.652882004977323" y1="33.99413847872266" x2="5.890102513722694" y2="36.497099435802454" class="delaunay-line"/>
<line x1="5.890102513722694" y1="36.497099435802454" x2="9.126170491222483" y2="38.84824044497235" class="delaunay-line"/>
<line x1="15.225145052062697" y1="41.231159878661366" x2="16.239026938444404" y2="41.98165939998939" class="delaunay-line"/>
<line x1="16.239026938444404" y1="41.98165939998939" x2="17.6724987366256" y2="38.247337694000585" class="delaunay-line"/>
<line x1="17.6724987366256" y1="38.247337694000585" x2="15.225145052062697" y2="41.231159878661366" class="delaunay-line"/>
<line x1="13.777922530291706" y1="8.736181903766928" x2="10.670592362299779" y2="14.03134794101146" class="delaunay-line"/>
<line x1="10.670592362299779" y1="14.03134794101146" x2="16.64776055085025" y2="14.554282397497408" class="delaunay-line"/>
<line x1="16.64776055085025" y1="14.554282397497408" x2="13.777922530291706" y2="8.736181903766928" class="delaunay-line"/>
<line x1="37.338165507572064" y1="30.381320868814853" x2="38.75911442034564" y2="18.691790595962242" class="delaunay-line"/>
<line x1="38.75911442034564" y1="18.691790595962242" x2="32.54635244728831" y2="26.770430729902568" class="delaunay-line"/>
<line x1="32.54635244728831" y1="26.770430729902568" x2="37.338165507572064" y2="30.381320868814853" class="delaunay-line"/>
<line x1="16.239026938444404" y1="41.98165939998939" x2="21.840509497427618" y2="44.131867097261186" class="delaunay-line"/>
<line x1="21.840509497427618" y1="44.131867097261186" x2="23.273981295608813" y2="40.39754539127238" class="delaunay-line"/>
<line x1="23.273981295608813" y1="40.39754539127238" x2="16.239026938444404" y2="41.98165939998939" class="delaunay-line"/>
<line x1="23.273981295608813" y1="40.39754539127238" x2="33.20029676564343" y2="40.92658508576898" class="delaunay-line"/>
<line x1="33.20029676564343" y1="40.92658508576898" x2="22.373984372575944" y2="34.01382375003663" class="delaunay-line"/>
<line x1="22.373984372575944" y1="34.01382375003663" x2="23.273981295608813" y2="40.39754539127238" class="delaunay-line"/>
<line x1="34.93090541496387" y1="33.57586290900402" x2="40.47634505001315" y2="39.823759382142896" class="delaunay-line"/>
<line x1="40.47634505001315" y1="39.823759382142896" x2="37.338165507572064" y2="30.381320868814853" class="delaunay-line"/>
<line x1="37.338165507572064" y1="30.381320868814853" x2="34.93090541496387" y2="33.57586290900402" class="delaunay-line"/>
<line x1="30.291439044165404" y1="46.17430332860535" x2="33.20029676564343" y2="40.92658508576898" class="delaunay-line"/>
<line x1="33.20029676564343" y1="40.92658508576898" x2="23.273981295608813" y2="40.39754539127238" class="delaunay-line"/>
<line x1="23.273981295608813" y1="40.39754539127238" x2="30.291439044165404" y2="46.17430332860535" class="delaunay-line"/>
<line x1="25.94117577495742" y1="7.862552252213409" x2="21.94117577495742" y2="7.862552252213409" class="delaunay-line"/>
<line x1="21.94117577495742" y1="7.862552252213409" x2="25.337723435485138" y2="17.420530034330646" class="delaunay-line"/>
<line x1="25.337723435485138" y1="17.420530034330646" x2="25.94117577495742" y2="7.862552252213409" class="delaunay-line"/>
<line x1="16.996383521840883" y1="10.569503605130427" x2="13.777922530291706" y2="8.736181903766928" class="delaunay-line"/>
<line x1="13.777922530291706" y1="8.736181903766928" x2="16.64776055085025" y2="14.554282397497408" class="delaunay-line"/>
<line x1="16.64776055085025" y1="14.554282397497408" x2="16.996383521840883" y2="10.569503605130427" class="delaunay-line"/>
<line x1="32.28697846534607" y1="13.989508577622457" x2="25.94117577495742" y2="7.862552252213409" class="delaunay-line"/>
<line x1="25.94117577495742" y1="7.862552252213409" x2="25.337723435485138" y2="17.420530034330646" class="delaunay-line"/>
<line x1="25.337723435485138" y1="17.420530034330646" x2="32.28697846534607" y2="13.989508577622457" class="delaunay-line"/>
<line x1="27.733589889371252" y1="6.418431524259753" x2="25.94117577495742" y2="7.862552252213409" class="delaunay-line"/>
<line x1="25.94117577495742" y1="7.862552252213409" x2="32.28697846534607" y2="13.989508577622457" class="delaunay-line"/>
<line x1="32.28697846534607" y1="13.989508577622457" x2="27.733589889371252" y2="6.418431524259753" class="delaunay-line"/>
<line x1="15.225145052062697" y1="41.231159878661366" x2="14.668452648222434" y2="45.19223215362765" class="delaunay-line"/>
<line x1="14.668452648222434" y1="45.19223215362765" x2="16.239026938444404" y2="41.98165939998939" class="delaunay-line"/>
<line x1="16.239026938444404" y1="41.98165939998939" x2="15.225145052062697" y2="41.231159878661366" class="delaunay-line"/>
<line x1="5.890102513722694" y1="36.497099435802454" x2="12.652882004977323" y2="33.99413847872266" class="delaunay-line"/>
<line x1="12.652882004977323" y1="33.99413847872266" x2="9.416814027477534" y2="31.642997469552768" class="delaunay-line"/>
<line x1="9.416814027477534" y1="31.642997469552768" x2="5.890102513722694" y2="36.497099435802454" class="delaunay-line"/>
<line x1="1.122197921864816" y1="21.608618743373917" x2="3.840032861408168" y2="23.126908857413184" class="delaunay-line"/>
<line x1="3.840032861408168" y1="23.126908857413184" x2="7.077474831712749" y2="20.87740268294303" class="delaunay-line"/>
<line x1="7.077474831712749" y1="20.87740268294303" x2="1.122197921864816" y2="21.608618743373917" class="delaunay-line"/>
<line x1="7.077474831712749" y1="20.87740268294303" x2="3.840032861408168" y2="23.126908857413184" class="delaunay-line"/>
<line x1="3.840032861408168" y1="23.126908857413184" x2="7.810217467973456" y2="23.614386231033777" class="delaunay-line"/>
<line x1="7.810217467973456" y1="23.614386231033777" x2="7.077474831712749" y2="20.87740268294303" class="delaunay-line"/>
<line x1="7.079001407542569" y1="29.56966314088171" x2="5.890102513722694" y2="36.497099435802454" class="delaunay-line"/>
<line x1="5.890102513722694" y1="36.497099435802454" x2="9.416814027477534" y2="31.642997469552768" class="delaunay-line"/>
<line x1="9.416814027477534" y1="31.642997469552768" x2="7.079001407542569" y2="29.56966314088171" class="delaunay-line"/>
<line x1="15.655808781435267" y1="5.20439153233122" x2="13.777922530291706" y2="8.736181903766928" class="delaunay-line"/>
<line x1="13.777922530291706" y1="8.736181903766928" x2="16.996383521840883" y2="10.569503605130427" class="delaunay-line"/>
<line x1="16.996383521840883" y1="10.569503605130427" x2="15.655808781435267" y2="5.20439153233122" class="delaunay-line"/>
<line x1="10.670592362299779" y1="14.03134794101146" x2="6.102520084471568" y2="12.937033469812453" class="delaunay-line"/>
<line x1="6.102520084471568" y1="12.937033469812453" x2="7.077474831712749" y2="20.87740268294303" class="delaunay-line"/>
<line x1="7.077474831712749" y1="20.87740268294303" x2="10.670592362299779" y2="14.03134794101146" class="delaunay-line"/>
<line x1="5.890102513722694" y1="36.497099435802454" x2="9.283536639613274" y2="40.39612127290098" class="delaunay-line"/>
<line x1="9.283536639613274" y1="40.39612127290098" x2="9.126170491222483" y2="38.84824044497235" class="delaunay-line"/>
<line x1="9.126170491222483" y1="38.84824044497235" x2="5.890102513722694" y2="36.497099435802454" class="delaunay-line"/>
<line x1="9.126170491222483" y1="38.84824044497235" x2="9.283536639613274" y2="40.39612127290098" class="delaunay-line"/>
<line x1="9.283536639613274" y1="40.39612127290098" x2="15.225145052062697" y2="41.231159878661366" class="delaunay-line"/>
<line x1="15.225145052062697" y1="41.231159878661366" x2="9.126170491222483" y2="38.84824044497235" class="delaunay-line"/>
<line x1="16.239026938444404" y1="41.98165939998939" x2="14.668452648222434" y2="45.19223215362765" class="delaunay-line"/>
<line x1="14.668452648222434" y1="45.19223215362765" x2="21.840509497427618" y2="44.131867097261186" class="delaunay-line"/>
<line x1="21.840509497427618" y1="44.131867097261186" x2="16.239026938444404" y2="41.98165939998939" class="delaunay-line"/>
<line x1="3.108816800977281" y1="29.082185767261116" x2="5.890102513722694" y2="36.497099435802454" class="delaunay-line"/>
<line x1="5.890102513722694" y1="36.497099435802454" x2="7.079001407542569" y2="29.56966314088171" class="delaunay-line"/>
<line x1="7.079001407542569" y1="29.56966314088171" x2="3.108816800977281" y2="29.082185767261116" class="delaunay-line"/>
<line x1="3.840032861408168" y1="23.126908857413184" x2="3.108816800977281" y2="29.082185767261116" class="delaunay-line"/>
<line x1="3.108816800977281" y1="29.082185767261116" x2="7.810217467973456" y2="23.614386231033777" class="delaunay-line"/>
<line x1="7.810217467973456" y1="23.614386231033777" x2="3.840032861408168" y2="23.126908857413184" class="delaunay-line"/>
<line x1="13.777922530291706" y1="8.736181903766928" x2="11.019215333290411" y2="10.046569148644478" class="delaunay-line"/>
<line x1="11.019215333290411" y1="10.046569148644478" x2="10.670592362299779" y2="14.03134794101146" class="delaunay-line"/>
<line x1="10.670592362299779" y1="14.03134794101146" x2="13.777922530291706" y2="8.736181903766928" class="delaunay-line"/>
<line x1="25.94117577495742" y1="7.862552252213409" x2="21.94117577495742" y2="1.8625522522134093" class="delaunay-line"/>
<line x1="21.94117577495742" y1="1.8625522522134093" x2="21.94117577495742" y2="7.862552252213409" class="delaunay-line"/>
<line x1="21.94117577495742" y1="7.862552252213409" x2="25.94117577495742" y2="7.862552252213409" class="delaunay-line"/>
<line x1="21.94117577495742" y1="7.862552252213409" x2="15.655808781435267" y2="5.20439153233122" class="delaunay-line"/>
<line x1="15.655808781435267" y1="5.20439153233122" x2="16.996383521840883" y2="10.569503605130427" class="delaunay-line"/>
<line x1="16.996383521840883" y1="10.569503605130427" x2="21.94117577495742" y2="7.862552252213409" class="delaunay-line"/>
<line x1="31.733589889371252" y1="6.418431524259753" x2="27.733589889371252" y2="6.418431524259753" class="delaunay-line"/>
<line x1="27.733589889371252" y1="6.418431524259753" x2="32.28697846534607" y2="13.989508577622457" class="delaunay-line"/>
<line x1="32.28697846534607" y1="13.989508577622457" x2="31.733589889371252" y2="6.418431524259753" class="delaunay-line"/>
<line x1="9.283536639613274" y1="40.39612127290098" x2="14.668452648222434" y2="45.19223215362765" class="delaunay-line"/>
<line x1="14.668452648222434" y1="45.19223215362765" x2="15.225145052062697" y2="41.231159878661366" class="delaunay-line"/>
<line x1="15.225145052062697" y1="41.231159878661366" x2="9.283536639613274" y2="40.39612127290098" class="delaunay-line"/>
<line x1="14.668452648222434" y1="45.19223215362765" x2="30.291439044165404" y2="46.17430332860535" class="delaunay-line"/>
<line x1="30.291439044165404" y1="46.17430332860535" x2="21.840509497427618" y2="44.131867097261186" class="delaunay-line"/>
<line x1="21.840509497427618" y1="44.131867097261186" x2="14.668452648222434" y2="45.19223215362765" class="delaunay-line"/>
<line x1="21.840509497427618" y1="44.131867097261186" x2="30.291439044165404" y2="46.17430332860535" class="delaunay-line"/>
<line x1="30.291439044165404" y1="46.17430332860535" x2="23.273981295608813" y2="40.39754539127238" class="delaunay-line"/>
<line x1="23.273981295608813" y1="40.39754539127238" x2="21.840509497427618" y2="44.131867097261186" class="delaunay-line"/>
<line x1="11.019215333290411" y1="10.046569148644478" x2="6.102520084471568" y2="12.937033469812453" class="delaunay-line"/>
<line x1="6.102520084471568" y1="12.937033469812453" x2="10.670592362299779" y2="14.03134794101146" class="delaunay-line"/>
<line x1="10.670592362299779" y1="14.03134794101146" x2="11.019215333290411" y2="10.046569148644478" class="delaunay-line"/>
<line x1="42.28582593410047" y1="13.837688629712554" x2="35.8136899791009" y2="9.13540661137277" class="delaunay-line"/>
<line x1="35.8136899791009" y1="9.13540661137277" x2="32.28697846534607" y2="13.989508577622457" class="delaunay-line"/>
<line x1="32.28697846534607" y1="13.989508577622457" x2="42.28582593410047" y2="13.837688629712554" class="delaunay-line"/>
<line x1="35.8136899791009" y1="9.13540661137277" x2="31.733589889371252" y2="6.418431524259753" class="delaunay-line"/>
<line x1="31.733589889371252" y1="6.418431524259753" x2="32.28697846534607" y2="13.989508577622457" class="delaunay-line"/>
<line x1="32.28697846534607" y1="13.989508577622457" x2="35.8136899791009" y2="9.13540661137277" class="delaunay-line"/>
<line x1="30.291439044165404" y1="46.17430332860535" x2="36.69877559420101" y2="42.86582356675433" class="delaunay-line"/>
<line x1="36.69877559420101" y1="42.86582356675433" x2="33.20029676564343" y2="40.92658508576898" class="delaunay-line"/>
<line x1="33.20029676564343" y1="40.92658508576898" x2="30.291439044165404" y2="46.17430332860535" class="delaunay-line"/>
<line x1="33.20029676564343" y1="40.92658508576898" x2="40.47634505001315" y2="39.823759382142896" class="delaunay-line"/>
<line x1="40.47634505001315" y1="39.823759382142896" x2="34.93090541496387" y2="33.57586290900402" class="delaunay-line"/>
<line x1="34.93090541496387" y1="33.57586290900402" x2="33.20029676564343" y2="40.92658508576898" class="delaunay-line"/>
<line x1="44.008135421448856" y1="37.94587313099933" x2="42.28582593410047" y2="13.837688629712554" class="delaunay-line"/>
<line x1="42.28582593410047" y1="13.837688629712554" x2="38.75911442034564" y2="18.691790595962242" class="delaunay-line"/>
<line x1="38.75911442034564" y1="18.691790595962242" x2="44.008135421448856" y2="37.94587313099933" class="delaunay-line"/>
<line x1="13.777922530291706" y1="8.736181903766928" x2="8.480236973138142" y2="5.9193525270515845" class="delaunay-line"/>
<line x1="8.480236973138142" y1="5.9193525270515845" x2="11.019215333290411" y2="10.046569148644478" class="delaunay-line"/>
<line x1="11.019215333290411" y1="10.046569148644478" x2="13.777922530291706" y2="8.736181903766928" class="delaunay-line"/>
<line x1="11.019215333290411" y1="10.046569148644478" x2="8.480236973138142" y2="5.9193525270515845" class="delaunay-line"/>
<line x1="8.480236973138142" y1="5.9193525270515845" x2="6.102520084471568" y2="12.937033469812453" class="delaunay-line"/>
<line x1="6.102520084471568" y1="12.937033469812453" x2="11.019215333290411" y2="10.046569148644478" class="delaunay-line"/>
<line x1="21.94117577495742" y1="1.8625522522134093" x2="15.655808781435267" y2="5.20439153233122" class="delaunay-line"/>
<line x1="15.655808781435267" y1="5.20439153233122" x2="21.94117577495742" y2="7.862552252213409" class="delaunay-line"/>
<line x1="21.94117577495742" y1="7.862552252213409" x2="21.94117577495742" y2="1.8625522522134093" class="delaunay-line"/>
<line x1="21.94117577495742" y1="1.8625522522134093" x2="25.94117577495742" y2="7.862552252213409" class="delaunay-line"/>
<line x1="25.94117577495742" y1="7.862552252213409" x2="25.94117577495742" y2="1.8625522522134093" class="delaunay-line"/>
<line x1="25.94117577495742" y1="1.8625522522134093" x2="21.94117577495742" y2="1.8625522522134093" class="delaunay-line"/>
<line x1="0.14724317462363556" y1="13.668249530243342" x2="1.122197921864816" y2="21.608618743373917" class="delaunay-line"/>
<line x1="1.122197921864816" y1="21.608618743373917" x2="7.077474831712749" y2="20.87740268294303" class="delaunay-line"/>
<line x1="7.077474831712749" y1="20.87740268294303" x2="0.14724317462363556" y2="13.668249530243342" class="delaunay-line"/>
<line x1="3.840032861408168" y1="23.126908857413184" x2="1.122197921864816" y2="21.608618743373917" class="delaunay-line"/>
<line x1="1.122197921864816" y1="21.608618743373917" x2="3.108816800977281" y2="29.082185767261116" class="delaunay-line"/>
<line x1="3.108816800977281" y1="29.082185767261116" x2="3.840032861408168" y2="23.126908857413184" class="delaunay-line"/>
<line x1="36.69877559420101" y1="42.86582356675433" x2="40.47634505001315" y2="39.823759382142896" class="delaunay-line"/>
<line x1="40.47634505001315" y1="39.823759382142896" x2="33.20029676564343" y2="40.92658508576898" class="delaunay-line"/>
<line x1="33.20029676564343" y1="40.92658508576898" x2="36.69877559420101" y2="42.86582356675433" class="delaunay-line"/>
<line x1="38.75911442034564" y1="18.691790595962242" x2="42.28582593410047" y2="13.837688629712554" class="delaunay-line"/>
<line x1="42.28582593410047" y1="13.837688629712554" x2="32.28697846534607" y2="13.989508577622457" class="delaunay-line"/>
<line x1="32.28697846534607" y1="13.989508577622457" x2="38.75911442034564" y2="18.691790595962242" class="delaunay-line"/>
<line x1="44.008135421448856" y1="37.94587313099933" x2="38.75911442034564" y2="18.691790595962242" class="delaunay-line"/>
<line x1="38.75911442034564" y1="18.691790595962242" x2="37.338165507572064" y2="30.381320868814853" class="delaunay-line"/>
<line x1="37.338165507572064" y1="30.381320868814853" x2="44.008135421448856" y2="37.94587313099933" class="delaunay-line"/>
<line x1="9.283536639613274" y1="40.39612127290098" x2="8.726844235773012" y2="44.35719354786726" class="delaunay-line"/>
<line x1="8.726844235773012" y1="44.35719354786726" x2="14.668452648222434" y2="45.19223215362765" class="delaunay-line"/>
<line x1="14.668452648222434" y1="45.19223215362765" x2="9.283536639613274" y2="40.39612127290098" class="delaunay-line"/>
<line x1="5.890102513722694" y1="36.497099435802454" x2="8.726844235773012" y2="44.35719354786726" class="delaunay-line"/>
<line x1="8.726844235773012" y1="44.35719354786726" x2="9.283536639613274" y2="40.39612127290098" class="delaunay-line"/>
<line x1="9.283536639613274" y1="40.39612127290098" x2="5.890102513722694" y2="36.497099435802454" class="delaunay-line"/>
<line x1="0" y1="48" x2="8.726844235773012" y2="44.35719354786726" class="delaunay-line"/>
<line x1="8.726844235773012" y1="44.35719354786726" x2="5.890102513722694" y2="36.497099435802454" class="delaunay-line"/>
<line x1="5.890102513722694" y1="36.497099435802454" x2="0" y2="48" class="delaunay-line"/>
<line x1="43.2931744267285" y1="45.12144493929645" x2="44.008135421448856" y2="37.94587313099933" class="delaunay-line"/>
<line x1="44.008135421448856" y1="37.94587313099933" x2="40.47634505001315" y2="39.823759382142896" class="delaunay-line"/>
<line x1="40.47634505001315" y1="39.823759382142896" x2="43.2931744267285" y2="45.12144493929645" class="delaunay-line"/>
<line x1="40.47634505001315" y1="39.823759382142896" x2="44.008135421448856" y2="37.94587313099933" class="delaunay-line"/>
<line x1="44.008135421448856" y1="37.94587313099933" x2="37.338165507572064" y2="30.381320868814853" class="delaunay-line"/>
<line x1="37.338165507572064" y1="30.381320868814853" x2="40.47634505001315" y2="39.823759382142896" class="delaunay-line"/>
<line x1="25.94117577495742" y1="1.8625522522134093" x2="25.94117577495742" y2="7.862552252213409" class="delaunay-line"/>
<line x1="25.94117577495742" y1="7.862552252213409" x2="27.733589889371252" y2="6.418431524259753" class="delaunay-line"/>
<line x1="27.733589889371252" y1="6.418431524259753" x2="25.94117577495742" y2="1.8625522522134093" class="delaunay-line"/>
<line x1="27.733589889371252" y1="0.41843152425975294" x2="27.733589889371252" y2="6.418431524259753" class="delaunay-line"/>
<line x1="27.733589889371252" y1="6.418431524259753" x2="31.733589889371252" y2="6.418431524259753" class="delaunay-line"/>
<line x1="31.733589889371252" y1="6.418431524259753" x2="27.733589889371252" y2="0.41843152425975294" class="delaunay-line"/>
<line x1="27.733589889371252" y1="0.41843152425975294" x2="25.94117577495742" y2="1.8625522522134093" class="delaunay-line"/>
<line x1="25.94117577495742" y1="1.8625522522134093" x2="27.733589889371252" y2="6.418431524259753" class="delaunay-line"/>
<line x1="27.733589889371252" y1="6.418431524259753" x2="27.733589889371252" y2="0.41843152425975294" class="delaunay-line"/>
<line x1="27.733589889371252" y1="0.41843152425975294" x2="31.733589889371252" y2="6.418431524259753" class="delaunay-line"/>
<line x1="31.733589889371252" y1="6.418431524259753" x2="31.733589889371252" y2="0.41843152425975294" class="delaunay-line"/>
<line x1="31.733589889371252" y1="0.41843152425975294" x2="27.733589889371252" y2="0.41843152425975294" class="delaunay-line"/>
<line x1="14.668452648222434" y1="45.19223215362765" x2="33.78991787272298" y2="48.1135418095907" class="delaunay-line"/>
<line x1="33.78991787272298" y1="48.1135418095907" x2="30.291439044165404" y2="46.17430332860535" class="delaunay-line"/>
<line x1="30.291439044165404" y1="46.17430332860535" x2="14.668452648222434" y2="45.19223215362765" class="delaunay-line"/>
<line x1="30.291439044165404" y1="46.17430332860535" x2="33.78991787272298" y2="48.1135418095907" class="delaunay-line"/>
<line x1="33.78991787272298" y1="48.1135418095907" x2="36.69877559420101" y2="42.86582356675433" class="delaunay-line"/>
<line x1="36.69877559420101" y1="42.86582356675433" x2="30.291439044165404" y2="46.17430332860535" class="delaunay-line"/>
<line x1="36.69877559420101" y1="42.86582356675433" x2="43.2931744267285" y2="45.12144493929645" class="delaunay-line"/>
<line x1="43.2931744267285" y1="45.12144493929645" x2="40.47634505001315" y2="39.823759382142896" class="delaunay-line"/>
<line x1="40.47634505001315" y1="39.823759382142896" x2="36.69877559420101" y2="42.86582356675433" class="delaunay-line"/>
<line x1="0" y1="48" x2="33.78991787272298" y2="48.1135418095907" class="delaunay-line"/>
<line x1="33.78991787272298" y1="48.1135418095907" x2="14.668452648222434" y2="45.19223215362765" class="delaunay-line"/>
<line x1="14.668452648222434" y1="45.19223215362765" x2="0" y2="48" class="delaunay-line"/>
<line x1="10.358123224281703" y1="2.3875621556158766" x2="8.480236973138142" y2="5.9193525270515845" class="delaunay-line"/>
<line x1="8.480236973138142" y1="5.9193525270515845" x2="15.655808781435267" y2="5.20439153233122" class="delaunay-line"/>
<line x1="15.655808781435267" y1="5.20439153233122" x2="10.358123224281703" y2="2.3875621556158766" class="delaunay-line"/>
<line x1="15.655808781435267" y1="5.20439153233122" x2="8.480236973138142" y2="5.9193525270515845" class="delaunay-line"/>
<line x1="8.480236973138142" y1="5.9193525270515845" x2="13.777922530291706" y2="8.736181903766928" class="delaunay-line"/>
<line x1="13.777922530291706" y1="8.736181903766928" x2="15.655808781435267" y2="5.20439153233122" class="delaunay-line"/>
<line x1="6.102520084471568" y1="12.937033469812453" x2="0.14724317462363556" y2="13.668249530243342" class="delaunay-line"/>
<line x1="0.14724317462363556" y1="13.668249530243342" x2="7.077474831712749" y2="20.87740268294303" class="delaunay-line"/>
<line x1="7.077474831712749" y1="20.87740268294303" x2="6.102520084471568" y2="12.937033469812453" class="delaunay-line"/>
<line x1="8.480236973138142" y1="5.9193525270515845" x2="0.14724317462363556" y2="13.668249530243342" class="delaunay-line"/>
<line x1="0.14724317462363556" y1="13.668249530243342" x2="6.102520084471568" y2="12.937033469812453" class="delaunay-line"/>
<line x1="6.102520084471568" y1="12.937033469812453" x2="8.480236973138142" y2="5.9193525270515845" class="delaunay-line"/>
<line x1="25.94117577495742" y1="1.8625522522134093" x2="27.733589889371252" y2="0.41843152425975294" class="delaunay-line"/>
<line x1="27.733589889371252" y1="0.41843152425975294" x2="21.94117577495742" y2="1.8625522522134093" class="delaunay-line"/>
<line x1="21.94117577495742" y1="1.8625522522134093" x2="25.94117577495742" y2="1.8625522522134093" class="delaunay-line"/>
<line x1="31.733589889371252" y1="0.41843152425975294" x2="31.733589889371252" y2="6.418431524259753" class="delaunay-line"/>
<line x1="31.733589889371252" y1="6.418431524259753" x2="35.8136899791009" y2="9.13540661137277" class="delaunay-line"/>
<line x1="35.8136899791009" y1="9.13540661137277" x2="31.733589889371252" y2="0.41843152425975294" class="delaunay-line"/>
<line x1="21.94117577495742" y1="1.8625522522134093" x2="10.358123224281703" y2="2.3875621556158766" class="delaunay-line"/>
<line x1="10.358123224281703" y1="2.3875621556158766" x2="15.655808781435267" y2="5.20439153233122" class="delaunay-line"/>
<line x1="15.655808781435267" y1="5.20439153233122" x2="21.94117577495742" y2="1.8625522522134093" class="delaunay-line"/>
<line x1="8.480236973138142" y1="5.9193525270515845" x2="0" y2="0" class="delaunay-line"/>
<line x1="0" y1="0" x2="0.14724317462363556" y2="13.668249530243342" class="delaunay-line"/>
<line x1="0.14724317462363556" y1="13.668249530243342" x2="8.480236973138142" y2="5.9193525270515845" class="delaunay-line"/>
<line x1="0" y1="0" x2="10.358123224281703" y2="2.3875621556158766" class="delaunay-line"/>
<line x1="10.358123224281703" y1="2.3875621556158766" x2="21.94117577495742" y2="1.8625522522134093" class="delaunay-line"/>
<line x1="21.94117577495742" y1="1.8625522522134093" x2="0" y2="0" class="delaunay-line"/>
<line x1="48" y1="0" x2="31.733589889371252" y2="0.41843152425975294" class="delaunay-line"/>
<line x1="31.733589889371252" y1="0.41843152425975294" x2="35.8136899791009" y2="9.13540661137277" class="delaunay-line"/>
<line x1="35.8136899791009" y1="9.13540661137277" x2="48" y2="0" class="delaunay-line"/>
<line x1="33.78991787272298" y1="48.1135418095907" x2="43.2931744267285" y2="45.12144493929645" class="delaunay-line"/>
<line x1="43.2931744267285" y1="45.12144493929645" x2="36.69877559420101" y2="42.86582356675433" class="delaunay-line"/>
<line x1="36.69877559420101" y1="42.86582356675433" x2="33.78991787272298" y2="48.1135418095907" class="delaunay-line"/>
<line x1="43.2931744267285" y1="45.12144493929645" x2="46.8249647981642" y2="43.24355868815289" class="delaunay-line"/>
<line x1="46.8249647981642" y1="43.24355868815289" x2="44.008135421448856" y2="37.94587313099933" class="delaunay-line"/>
<line x1="44.008135421448856" y1="37.94587313099933" x2="43.2931744267285" y2="45.12144493929645" class="delaunay-line"/>
<line x1="44.008135421448856" y1="37.94587313099933" x2="46.8249647981642" y2="43.24355868815289" class="delaunay-line"/>
<line x1="46.8249647981642" y1="43.24355868815289" x2="42.28582593410047" y2="13.837688629712554" class="delaunay-line"/>
<line x1="42.28582593410047" y1="13.837688629712554" x2="44.008135421448856" y2="37.94587313099933" class="delaunay-line"/>
<line x1="3.108816800977281" y1="29.082185767261116" x2="0" y2="48" class="delaunay-line"/>
<line x1="0" y1="48" x2="5.890102513722694" y2="36.497099435802454" class="delaunay-line"/>
<line x1="5.890102513722694" y1="36.497099435802454" x2="3.108816800977281" y2="29.082185767261116" class="delaunay-line"/>
<line x1="8.726844235773012" y1="44.35719354786726" x2="0" y2="48" class="delaunay-line"/>
<line x1="0" y1="48" x2="14.668452648222434" y2="45.19223215362765" class="delaunay-line"/>
<line x1="14.668452648222434" y1="45.19223215362765" x2="8.726844235773012" y2="44.35719354786726" class="delaunay-line"/>
<line x1="1.122197921864816" y1="21.608618743373917" x2="0" y2="48" class="delaunay-line"/>
<line x1="0" y1="48" x2="3.108816800977281" y2="29.082185767261116" class="delaunay-line"/>
<line x1="3.108816800977281" y1="29.082185767261116" x2="1.122197921864816" y2="21.608618743373917" class="delaunay-line"/>
<line x1="0.14724317462363556" y1="13.668249530243342" x2="0" y2="48" class="delaunay-line"/>
<line x1="0" y1="48" x2="1.122197921864816" y2="21.608618743373917" class="delaunay-line"/>
<line x1="1.122197921864816" y1="21.608618743373917" x2="0.14724317462363556" y2="13.668249530243342" class="delaunay-line"/>
<line x1="33.78991787272298" y1="48.1135418095907" x2="48" y2="48" class="delaunay-line"/>
<line x1="48" y1="48" x2="43.2931744267285" y2="45.12144493929645" class="delaunay-line"/>
<line x1="43.2931744267285" y1="45.12144493929645" x2="33.78991787272298" y2="48.1135418095907" class="delaunay-line"/>
<line x1="43.2931744267285" y1="45.12144493929645" x2="48" y2="48" class="delaunay-line"/>
<line x1="48" y1="48" x2="46.8249647981642" y2="43.24355868815289" class="delaunay-line"/>
<line x1="46.8249647981642" y1="43.24355868815289" x2="43.2931744267285" y2="45.12144493929645" class="delaunay-line"/>
<line x1="46.8249647981642" y1="43.24355868815289" x2="48" y2="0" class="delaunay-line"/>
<line x1="48" y1="0" x2="42.28582593410047" y2="13.837688629712554" class="delaunay-line"/>
<line x1="42.28582593410047" y1="13.837688629712554" x2="46.8249647981642" y2="43.24355868815289" class="delaunay-line"/>
<line x1="27.733589889371252" y1="0.41843152425975294" x2="0" y2="0" class="delaunay-line"/>
<line x1="0" y1="0" x2="21.94117577495742" y2="1.8625522522134093" class="delaunay-line"/>
<line x1="21.94117577495742" y1="1.8625522522134093" x2="27.733589889371252" y2="0.41843152425975294" class="delaunay-line"/>
<line x1="10.358123224281703" y1="2.3875621556158766" x2="0" y2="0" class="delaunay-line"/>
<line x1="0" y1="0" x2="8.480236973138142" y2="5.9193525270515845" class="delaunay-line"/>
<line x1="8.480236973138142" y1="5.9193525270515845" x2="10.358123224281703" y2="2.3875621556158766" class="delaunay-line"/>
<line x1="0.14724317462363556" y1="13.668249530243342" x2="0" y2="0" class="delaunay-line"/>
<line x1="0" y1="0" x2="0" y2="48" class="delaunay-line"/>
<line x1="0" y1="48" x2="0.14724317462363556" y2="13.668249530243342" class="delaunay-line"/>
<line x1="48" y1="0" x2="0" y2="0" class="delaunay-line"/>
<line x1="0" y1="0" x2="27.733589889371252" y2="0.41843152425975294" class="delaunay-line"/>
<line x1="27.733589889371252" y1="0.41843152425975294" x2="48" y2="0" class="delaunay-line"/>
<line x1="48" y1="48" x2="48" y2="0" class="delaunay-line"/>
<line x1="48" y1="0" x2="46.8249647981642" y2="43.24355868815289" class="delaunay-line"/>
<line x1="46.8249647981642" y1="43.24355868815289" x2="48" y2="48" class="delaunay-line"/>
<line x1="42.28582593410047" y1="13.837688629712554" x2="48" y2="0" class="delaunay-line"/>
<line x1="48" y1="0" x2="35.8136899791009" y2="9.13540661137277" class="delaunay-line"/>
<line x1="35.8136899791009" y1="9.13540661137277" x2="42.28582593410047" y2="13.837688629712554" class="delaunay-line"/>
<line x1="31.733589889371252" y1="0.41843152425975294" x2="48" y2="0" class="delaunay-line"/>
<line x1="48" y1="0" x2="27.733589889371252" y2="0.41843152425975294" class="delaunay-line"/>
<line x1="27.733589889371252" y1="0.41843152425975294" x2="31.733589889371252" y2="0.41843152425975294" class="delaunay-line"/>
</g>
<g id="layer-area" class="layer ">
</g>
<g id="layer-building" class="layer ">
<polygon points="15.655808781435267,5.20439153233122 13.777922530291706,8.736181903766928 8.480236973138142,5.9193525270515845 10.358123224281703,2.3875621556158766" class="terrain-solid"/>
<text x="12.068022877286705" y="5.561872029691402" class="label">#000000</text>
<polygon points="30.13909235468011,29.964972770091737 32.54635244728831,26.770430729902568 37.338165507572064,30.381320868814853 34.93090541496387,33.57586290900402" class="terrain-solid"/>
<text x="33.73862893112609" y="30.173146819453294" class="label">#000000</text>
<polygon points="25.94117577495742,7.862552252213409 21.94117577495742,7.862552252213409 21.94117577495742,1.8625522522134093 25.94117577495742,1.8625522522134093" class="terrain-solid"/>
<text x="23.94117577495742" y="4.862552252213409" class="label">#000000</text>
<polygon points="42.28582593410047,13.837688629712554 38.75911442034564,18.691790595962242 32.28697846534607,13.989508577622457 35.8136899791009,9.13540661137277" class="terrain-solid"/>
<text x="37.28640219972327" y="13.913598603667507" class="label">#000000</text>
<polygon points="18.944243294541177,16.231441172464375 19.50093569838144,20.19251344743066 13.559327285932019,21.027552053191055 13.002634882091755,17.06647977822477" class="terrain-solid"/>
<text x="16.251785290236597" y="18.629496612827715" class="label">#000000</text>
<polygon points="7.077474831712749,20.87740268294303 1.122197921864816,21.608618743373917 0.14724317462363556,13.668249530243342 6.102520084471568,12.937033469812453" class="terrain-solid"/>
<text x="3.612359003168192" y="17.272826106593186" class="label">#000000</text>
<polygon points="33.20029676564343,40.92658508576898 36.69877559420101,42.86582356675433 33.78991787272298,48.1135418095907 30.291439044165404,46.17430332860535" class="terrain-solid"/>
<text x="33.495107319183205" y="44.52006344767983" class="label">#000000</text>
<polygon points="7.079001407542569,29.56966314088171 3.108816800977281,29.082185767261116 3.840032861408168,23.126908857413184 7.810217467973456,23.614386231033777" class="terrain-solid"/>
<text x="5.459517134475369" y="26.348285999147446" class="label">#000000</text>
<polygon points="9.416814027477534,31.642997469552768 12.652882004977323,33.99413847872266 9.126170491222483,38.84824044497235 5.890102513722694,36.497099435802454" class="terrain-solid"/>
<text x="9.271492259350008" y="35.24561895726256" class="label">#000000</text>
<polygon points="15.560222623912978,22.103837889022497 15.560222623912978,26.103837889022497 9.560222623912978,26.103837889022497 9.560222623912978,22.103837889022497" class="terrain-solid"/>
<text x="12.560222623912978" y="24.103837889022497" class="label">#000000</text>
<polygon points="27.733589889371252,0.41843152425975294 31.733589889371252,0.41843152425975294 31.733589889371252,6.418431524259753 27.733589889371252,6.418431524259753" class="terrain-solid"/>
<text x="29.733589889371252" y="3.418431524259753" class="label">#000000</text>
<polygon points="8.726844235773012,44.35719354786726 9.283536639613274,40.39612127290098 15.225145052062697,41.231159878661366 14.668452648222434,45.19223215362765" class="terrain-solid"/>
<text x="11.975994643917854" y="42.794176713264314" class="label">#000000</text>
<polygon points="21.34320529646684,17.21118620935887 25.337723435485138,17.420530034330646 25.023707698027472,23.41230724285809 21.029189559009176,23.202963417886316" class="terrain-solid"/>
<text x="23.183456497247157" y="20.31174672610848" class="label">#000000</text>
<polygon points="16.239026938444404,41.98165939998939 17.6724987366256,38.247337694000585 23.273981295608813,40.39754539127238 21.840509497427618,44.131867097261186" class="terrain-solid"/>
<text x="19.75650411702661" y="41.189602395630885" class="label">#000000</text>
<polygon points="22.373984372575944,34.01382375003663 18.63966266658714,35.447295548217824 16.489454969315336,29.845812989234613 20.22377667530414,28.412341191053414" class="terrain-solid"/>
<text x="19.43171967094564" y="31.929818369635623" class="label">#000000</text>
<polygon points="16.996383521840883,10.569503605130427 16.64776055085025,14.554282397497408 10.670592362299779,14.03134794101146 11.019215333290411,10.046569148644478" class="terrain-solid"/>
<text x="13.833487942070331" y="12.300425773070943" class="label">#000000</text>
<polygon points="46.8249647981642,43.24355868815289 43.2931744267285,45.12144493929645 40.47634505001315,39.823759382142896 44.008135421448856,37.94587313099933" class="terrain-solid"/>
<text x="43.65065492408868" y="41.53365903514789" class="label">#000000</text>
</g>
<g id="layer-wall" class="layer ">
</g>
<g id="layer-tree" class="layer ">
</g>
<g id="layer-rocks" class="layer ">
</g>
<g id="layer-shrub" class="layer ">
</g>
<g id="layer-terrain" class="layer ">
</g>
<g id="layer-clearance" class="layer hidden">
</g>
<g id="layer-models" class="layer ">
</g>
<g id="layer-paths" class="layer ">
</g>
<g id="layer-vectors" class="layer ">
</g>
<g id="layer-los" class="layer ">
</g>
<g id="layer-lof" class="layer ">
</g>

<g id="legend">
<g class="toggle" onclick="toggleLayer('deployment')"><rect x="0.4" y="0.14999999999999997" width="0.4" height="0.4" fill="#222" stroke="#222" stroke-width="0.05"/><text x="1.0" y="0.5499999999999999" class="label">Deployment Zones</text></g>
<g class="toggle" onclick="toggleLayer('grid')"><rect x="0.4" y="0.95" width="0.4" height="0.4" fill="#222" stroke="#222" stroke-width="0.05"/><text x="1.0" y="1.3499999999999999" class="label">0.5 MU Grid</text></g>
<g class="toggle" onclick="toggleLayer('delaunay')"><rect x="0.4" y="1.7500000000000002" width="0.4" height="0.4" fill="#222" stroke="#222" stroke-width="0.05"/><text x="1.0" y="2.1500000000000004" class="label">Delaunay Mesh</text></g>
<g class="toggle disabled"><rect x="0.4" y="2.55" width="0.4" height="0.4" fill="#222" stroke="#222" stroke-width="0.05"/><text x="1.0" y="2.95" class="label">Area Terrain</text></g>
<g class="toggle" onclick="toggleLayer('building')"><rect x="0.4" y="3.3499999999999996" width="0.4" height="0.4" fill="#222" stroke="#222" stroke-width="0.05"/><text x="1.0" y="3.75" class="label">Buildings</text></g>
<g class="toggle disabled"><rect x="0.4" y="4.1499999999999995" width="0.4" height="0.4" fill="#222" stroke="#222" stroke-width="0.05"/><text x="1.0" y="4.55" class="label">Walls</text></g>
<g class="toggle disabled"><rect x="0.4" y="4.949999999999999" width="0.4" height="0.4" fill="#222" stroke="#222" stroke-width="0.05"/><text x="1.0" y="5.35" class="label">Trees</text></g>
<g class="toggle disabled"><rect x="0.4" y="5.749999999999999" width="0.4" height="0.4" fill="#222" stroke="#222" stroke-width="0.05"/><text x="1.0" y="6.1499999999999995" class="label">Rocks</text></g>
<g class="toggle disabled"><rect x="0.4" y="6.549999999999999" width="0.4" height="0.4" fill="#222" stroke="#222" stroke-width="0.05"/><text x="1.0" y="6.949999999999999" class="label">Shrubs</text></g>
<g class="toggle" onclick="toggleLayer('terrain')"><rect x="0.4" y="7.349999999999999" width="0.4" height="0.4" fill="#222" stroke="#222" stroke-width="0.05"/><text x="1.0" y="7.749999999999999" class="label">Other Terrain</text></g>
<g class="toggle" onclick="toggleLayer('clearance')"><rect x="0.4" y="8.15" width="0.4" height="0.4" fill="#fff" stroke="#222" stroke-width="0.05"/><text x="1.0" y="8.549999999999999" class="label">Clearance Zones</text></g>
<g class="toggle" onclick="toggleLayer('models')"><rect x="0.4" y="8.950000000000001" width="0.4" height="0.4" fill="#222" stroke="#222" stroke-width="0.05"/><text x="1.0" y="9.35" class="label">Models</text></g>
<g class="toggle" onclick="toggleLayer('paths')"><rect x="0.4" y="9.750000000000002" width="0.4" height="0.4" fill="#222" stroke="#222" stroke-width="0.05"/><text x="1.0" y="10.15" class="label">Paths</text></g>
<g class="toggle" onclick="toggleLayer('vectors')"><rect x="0.4" y="10.550000000000002" width="0.4" height="0.4" fill="#222" stroke="#222" stroke-width="0.05"/><text x="1.0" y="10.950000000000001" class="label">Vectors</text></g>
<g class="toggle" onclick="toggleLayer('los')"><rect x="0.4" y="11.350000000000003" width="0.4" height="0.4" fill="#222" stroke="#222" stroke-width="0.05"/><text x="1.0" y="11.750000000000002" class="label">LOS</text></g>
<g class="toggle" onclick="toggleLayer('lof')"><rect x="0.4" y="12.150000000000004" width="0.4" height="0.4" fill="#222" stroke="#222" stroke-width="0.05"/><text x="1.0" y="12.550000000000002" class="label">LOF</text></g>
</g>
</svg>