<svg xmlns="http://www.w3.org/2000/svg" viewBox="0 0 48 48" width="1920" height="1920" font-family="Arial" font-size="0.6">
<defs>
  <style><![CDATA[
    .layer { display: inline; }
    .layer.hidden { display: none; }
    .grid-line { stroke: #999; stroke-width: 0.02; opacity: 0.2; }
    .grid-line-2mu { stroke: #666; stroke-width: 0.04; opacity: 0.4; }
    .grid-line-6mu { stroke: #333; stroke-width: 0.08; opacity: 0.6; }
    .delaunay-line { stroke: #4a6fa5; stroke-width: 0.03; opacity: 0.3; }
    #layer-area { opacity: 0.8; }
    #layer-building, #layer-wall, #layer-tree, #layer-rocks, #layer-shrub, #layer-terrain { opacity: 0.8; }
    .terrain-area { stroke: none; }
    .terrain-solid { stroke: #000; stroke-width: 0.05; }
    .model { stroke: #ff0000; stroke-width: 2; vector-effect: non-scaling-stroke; }
    .path { fill: none; stroke-width: 0.12; }
    .vector { stroke-width: 0.1; }
    .los-ray { stroke-width: 0.08; stroke-dasharray: 0.2 0.2; }
    .lof-ray { stroke-width: 0.08; stroke-dasharray: 0.3 0.15; }
    .label { fill: #111 !important; font-size: 0.6px; }
    .toggle { cursor: pointer; }
    .toggle.disabled { cursor: default; }
    .toggle.disabled rect { stroke: #ccc; fill: #fff; }
    .toggle.disabled text { fill: #ccc; }
#layer-area { fill: #C49A6C; }
  ]]></style>
</defs>
<rect x="0" y="0" width="48" height="48" fill="#ffffff" stroke="#111" stroke-width="0.05"/>
<script><![CDATA[
      function toggleLayer(id) {
        var layer = document.getElementById('layer-' + id);
        if (!layer) return;
        if (layer.classList.contains('hidden')) {
          layer.classList.remove('hidden');
        } else {
          layer.classList.add('hidden');
        }
      }
    ]]></script>
<text x="0.4" y="47.6" class="label">LARGE battlefield_A60-B0-W0-R0-S0-T0</text>
<g id="layer-deployment" class="layer ">
</g>
<g id="layer-grid" class="layer ">
<line x1="0" y1="0" x2="0" y2="48" class="grid-line-6mu"/>
<line x1="0.5" y1="0" x2="0.5" y2="48" class="grid-line"/>
<line x1="1" y1="0" x2="1" y2="48" class="grid-line"/>
<line x1="1.5" y1="0" x2="1.5" y2="48" class="grid-line"/>
<line x1="2" y1="0" x2="2" y2="48" class="grid-line-2mu"/>
<line x1="2.5" y1="0" x2="2.5" y2="48" class="grid-line"/>
<line x1="3" y1="0" x2="3" y2="48" class="grid-line"/>
<line x1="3.5" y1="0" x2="3.5" y2="48" class="grid-line"/>
<line x1="4" y1="0" x2="4" y2="48" class="grid-line-2mu"/>
<line x1="4.5" y1="0" x2="4.5" y2="48" class="grid-line"/>
<line x1="5" y1="0" x2="5" y2="48" class="grid-line"/>
<line x1="5.5" y1="0" x2="5.5" y2="48" class="grid-line"/>
<line x1="6" y1="0" x2="6" y2="48" class="grid-line-6mu"/>
<line x1="6.5" y1="0" x2="6.5" y2="48" class="grid-line"/>
<line x1="7" y1="0" x2="7" y2="48" class="grid-line"/>
<line x1="7.5" y1="0" x2="7.5" y2="48" class="grid-line"/>
<line x1="8" y1="0" x2="8" y2="48" class="grid-line-2mu"/>
<line x1="8.5" y1="0" x2="8.5" y2="48" class="grid-line"/>
<line x1="9" y1="0" x2="9" y2="48" class="grid-line"/>
<line x1="9.5" y1="0" x2="9.5" y2="48" class="grid-line"/>
<line x1="10" y1="0" x2="10" y2="48" class="grid-line-2mu"/>
<line x1="10.5" y1="0" x2="10.5" y2="48" class="grid-line"/>
<line x1="11" y1="0" x2="11" y2="48" class="grid-line"/>
<line x1="11.5" y1="0" x2="11.5" y2="48" class="grid-line"/>
<line x1="12" y1="0" x2="12" y2="48" class="grid-line-6mu"/>
<line x1="12.5" y1="0" x2="12.5" y2="48" class="grid-line"/>
<line x1="13" y1="0" x2="13" y2="48" class="grid-line"/>
<line x1="13.5" y1="0" x2="13.5" y2="48" class="grid-line"/>
<line x1="14" y1="0" x2="14" y2="48" class="grid-line-2mu"/>
<line x1="14.5" y1="0" x2="14.5" y2="48" class="grid-line"/>
<line x1="15" y1="0" x2="15" y2="48" class="grid-line"/>
<line x1="15.5" y1="0" x2="15.5" y2="48" class="grid-line"/>
<line x1="16" y1="0" x2="16" y2="48" class="grid-line-2mu"/>
<line x1="16.5" y1="0" x2="16.5" y2="48" class="grid-line"/>
<line x1="17" y1="0" x2="17" y2="48" class="grid-line"/>
<line x1="17.5" y1="0" x2="17.5" y2="48" class="grid-line"/>
<line x1="18" y1="0" x2="18" y2="48" class="grid-line-6mu"/>
<line x1="18.5" y1="0" x2="18.5" y2="48" class="grid-line"/>
<line x1="19" y1="0" x2="19" y2="48" class="grid-line"/>
<line x1="19.5" y1="0" x2="19.5" y2="48" class="grid-line"/>
<line x1="20" y1="0" x2="20" y2="48" class="grid-line-2mu"/>
<line x1="20.5" y1="0" x2="20.5" y2="48" class="grid-line"/>
<line x1="21" y1="0" x2="21" y2="48" class="grid-line"/>
<line x1="21.5" y1="0" x2="21.5" y2="48" class="grid-line"/>
<line x1="22" y1="0" x2="22" y2="48" class="grid-line-2mu"/>
<line x1="22.5" y1="0" x2="22.5" y2="48" class="grid-line"/>
<line x1="23" y1="0" x2="23" y2="48" class="grid-line"/>
<line x1="23.5" y1="0" x2="23.5" y2="48" class="grid-line"/>
<line x1="24" y1="0" x2="24" y2="48" class="grid-line-6mu"/>
<line x1="24.5" y1="0" x2="24.5" y2="48" class="grid-line"/>
<line x1="25" y1="0" x2="25" y2="48" class="grid-line"/>
<line x1="25.5" y1="0" x2="25.5" y2="48" class="grid-line"/>
<line x1="26" y1="0" x2="26" y2="48" class="grid-line-2mu"/>
<line x1="26.5" y1="0" x2="26.5" y2="48" class="grid-line"/>
<line x1="27" y1="0" x2="27" y2="48" class="grid-line"/>
<line x1="27.5" y1="0" x2="27.5" y2="48" class="grid-line"/>
<line x1="28" y1="0" x2="28" y2="48" class="grid-line-2mu"/>
<line x1="28.5" y1="0" x2="28.5" y2="48" class="grid-line"/>
<line x1="29" y1="0" x2="29" y2="48" class="grid-line"/>
<line x1="29.5" y1="0" x2="29.5" y2="48" class="grid-line"/>
<line x1="30" y1="0" x2="30" y2="48" class="grid-line-6mu"/>
<line x1="30.5" y1="0" x2="30.5" y2="48" class="grid-line"/>
<line x1="31" y1="0" x2="31" y2="48" class="grid-line"/>
<line x1="31.5" y1="0" x2="31.5" y2="48" class="grid-line"/>
<line x1="32" y1="0" x2="32" y2="48" class="grid-line-2mu"/>
<line x1="32.5" y1="0" x2="32.5" y2="48" class="grid-line"/>
<line x1="33" y1="0" x2="33" y2="48" class="grid-line"/>
<line x1="33.5" y1="0" x2="33.5" y2="48" class="grid-line"/>
<line x1="34" y1="0" x2="34" y2="48" class="grid-line-2mu"/>
<line x1="34.5" y1="0" x2="34.5" y2="48" class="grid-line"/>
<line x1="35" y1="0" x2="35" y2="48" class="grid-line"/>
<line x1="35.5" y1="0" x2="35.5" y2="48" class="grid-line"/>
<line x1="36" y1="0" x2="36" y2="48" class="grid-line-6mu"/>
<line x1="36.5" y1="0" x2="36.5" y2="48" class="grid-line"/>
<line x1="37" y1="0" x2="37" y2="48" class="grid-line"/>
<line x1="37.5" y1="0" x2="37.5" y2="48" class="grid-line"/>
<line x1="38" y1="0" x2="38" y2="48" class="grid-line-2mu"/>
<line x1="38.5" y1="0" x2="38.5" y2="48" class="grid-line"/>
<line x1="39" y1="0" x2="39" y2="48" class="grid-line"/>
<line x1="39.5" y1="0" x2="39.5" y2="48" class="grid-line"/>
<line x1="40" y1="0" x2="40" y2="48" class="grid-line-2mu"/>
<line x1="40.5" y1="0" x2="40.5" y2="48" class="grid-line"/>
<line x1="41" y1="0" x2="41" y2="48" class="grid-line"/>
<line x1="41.5" y1="0" x2="41.5" y2="48" class="grid-line"/>
<line x1="42" y1="0" x2="42" y2="48" class="grid-line-6mu"/>
<line x1="42.5" y1="0" x2="42.5" y2="48" class="grid-line"/>
<line x1="43" y1="0" x2="43" y2="48" class="grid-line"/>
<line x1="43.5" y1="0" x2="43.5" y2="48" class="grid-line"/>
<line x1="44" y1="0" x2="44" y2="48" class="grid-line-2mu"/>
<line x1="44.5" y1="0" x2="44.5" y2="48" class="grid-line"/>
<line x1="45" y1="0" x2="45" y2="48" class="grid-line"/>
<line x1="45.5" y1="0" x2="45.5" y2="48" class="grid-line"/>
<line x1="46" y1="0" x2="46" y2="48" class="grid-line-2mu"/>
<line x1="46.5" y1="0" x2="46.5" y2="48" class="grid-line"/>
<line x1="47" y1="0" x2="47" y2="48" class="grid-line"/>
<line x1="47.5" y1="0" x2="47.5" y2="48" class="grid-line"/>
<line x1="48" y1="0" x2="48" y2="48" class="grid-line-6mu"/>
<line x1="0" y1="0" x2="48" y2="0" class="grid-line-6mu"/>
<line x1="0" y1="0.5" x2="48" y2="0.5" class="grid-line"/>
<line x1="0" y1="1" x2="48" y2="1" class="grid-line"/>
<line x1="0" y1="1.5" x2="48" y2="1.5" class="grid-line"/>
<line x1="0" y1="2" x2="48" y2="2" class="grid-line-2mu"/>
<line x1="0" y1="2.5" x2="48" y2="2.5" class="grid-line"/>
<line x1="0" y1="3" x2="48" y2="3" class="grid-line"/>
<line x1="0" y1="3.5" x2="48" y2="3.5" class="grid-line"/>
<line x1="0" y1="4" x2="48" y2="4" class="grid-line-2mu"/>
<line x1="0" y1="4.5" x2="48" y2="4.5" class="grid-line"/>
<line x1="0" y1="5" x2="48" y2="5" class="grid-line"/>
<line x1="0" y1="5.5" x2="48" y2="5.5" class="grid-line"/>
<line x1="0" y1="6" x2="48" y2="6" class="grid-line-6mu"/>
<line x1="0" y1="6.5" x2="48" y2="6.5" class="grid-line"/>
<line x1="0" y1="7" x2="48" y2="7" class="grid-line"/>
<line x1="0" y1="7.5" x2="48" y2="7.5" class="grid-line"/>
<line x1="0" y1="8" x2="48" y2="8" class="grid-line-2mu"/>
<line x1="0" y1="8.5" x2="48" y2="8.5" class="grid-line"/>
<line x1="0" y1="9" x2="48" y2="9" class="grid-line"/>
<line x1="0" y1="9.5" x2="48" y2="9.5" class="grid-line"/>
<line x1="0" y1="10" x2="48" y2="10" class="grid-line-2mu"/>
<line x1="0" y1="10.5" x2="48" y2="10.5" class="grid-line"/>
<line x1="0" y1="11" x2="48" y2="11" class="grid-line"/>
<line x1="0" y1="11.5" x2="48" y2="11.5" class="grid-line"/>
<line x1="0" y1="12" x2="48" y2="12" class="grid-line-6mu"/>
<line x1="0" y1="12.5" x2="48" y2="12.5" class="grid-line"/>
<line x1="0" y1="13" x2="48" y2="13" class="grid-line"/>
<line x1="0" y1="13.5" x2="48" y2="13.5" class="grid-line"/>
<line x1="0" y1="14" x2="48" y2="14" class="grid-line-2mu"/>
<line x1="0" y1="14.5" x2="48" y2="14.5" class="grid-line"/>
<line x1="0" y1="15" x2="48" y2="15" class="grid-line"/>
<line x1="0" y1="15.5" x2="48" y2="15.5" class="grid-line"/>
<line x1="0" y1="16" x2="48" y2="16" class="grid-line-2mu"/>
<line x1="0" y1="16.5" x2="48" y2="16.5" class="grid-line"/>
<line x1="0" y1="17" x2="48" y2="17" class="grid-line"/>
<line x1="0" y1="17.5" x2="48" y2="17.5" class="grid-line"/>
<line x1="0" y1="18" x2="48" y2="18" class="grid-line-6mu"/>
<line x1="0" y1="18.5" x2="48" y2="18.5" class="grid-line"/>
<line x1="0" y1="19" x2="48" y2="19" class="grid-line"/>
<line x1="0" y1="19.5" x2="48" y2="19.5" class="grid-line"/>
<line x1="0" y1="20" x2="48" y2="20" class="grid-line-2mu"/>
<line x1="0" y1="20.5" x2="48" y2="20.5" class="grid-line"/>
<line x1="0" y1="21" x2="48" y2="21" class="grid-line"/>
<line x1="0" y1="21.5" x2="48" y2="21.5" class="grid-line"/>
<line x1="0" y1="22" x2="48" y2="22" class="grid-line-2mu"/>
<line x1="0" y1="22.5" x2="48" y2="22.5" class="grid-line"/>
<line x1="0" y1="23" x2="48" y2="23" class="grid-line"/>
<line x1="0" y1="23.5" x2="48" y2="23.5" class="grid-line"/>
<line x1="0" y1="24" x2="48" y2="24" class="grid-line-6mu"/>
<line x1="0" y1="24.5" x2="48" y2="24.5" class="grid-line"/>
<line x1="0" y1="25" x2="48" y2="25" class="grid-line"/>
<line x1="0" y1="25.5" x2="48" y2="25.5" class="grid-line"/>
<line x1="0" y1="26" x2="48" y2="26" class="grid-line-2mu"/>
<line x1="0" y1="26.5" x2="48" y2="26.5" class="grid-line"/>
<line x1="0" y1="27" x2="48" y2="27" class="grid-line"/>
<line x1="0" y1="27.5" x2="48" y2="27.5" class="grid-line"/>
<line x1="0" y1="28" x2="48" y2="28" class="grid-line-2mu"/>
<line x1="0" y1="28.5" x2="48" y2="28.5" class="grid-line"/>
<line x1="0" y1="29" x2="48" y2="29" class="grid-line"/>
<line x1="0" y1="29.5" x2="48" y2="29.5" class="grid-line"/>
<line x1="0" y1="30" x2="48" y2="30" class="grid-line-6mu"/>
<line x1="0" y1="30.5" x2="48" y2="30.5" class="grid-line"/>
<line x1="0" y1="31" x2="48" y2="31" class="grid-line"/>
<line x1="0" y1="31.5" x2="48" y2="31.5" class="grid-line"/>
<line x1="0" y1="32" x2="48" y2="32" class="grid-line-2mu"/>
<line x1="0" y1="32.5" x2="48" y2="32.5" class="grid-line"/>
<line x1="0" y1="33" x2="48" y2="33" class="grid-line"/>
<line x1="0" y1="33.5" x2="48" y2="33.5" class="grid-line"/>
<line x1="0" y1="34" x2="48" y2="34" class="grid-line-2mu"/>
<line x1="0" y1="34.5" x2="48" y2="34.5" class="grid-line"/>
<line x1="0" y1="35" x2="48" y2="35" class="grid-line"/>
<line x1="0" y1="35.5" x2="48" y2="35.5" class="grid-line"/>
<line x1="0" y1="36" x2="48" y2="36" class="grid-line-6mu"/>
<line x1="0" y1="36.5" x2="48" y2="36.5" class="grid-line"/>
<line x1="0" y1="37" x2="48" y2="37" class="grid-line"/>
<line x1="0" y1="37.5" x2="48" y2="37.5" class="grid-line"/>
<line x1="0" y1="38" x2="48" y2="38" class="grid-line-2mu"/>
<line x1="0" y1="38.5" x2="48" y2="38.5" class="grid-line"/>
<line x1="0" y1="39" x2="48" y2="39" class="grid-line"/>
<line x1="0" y1="39.5" x2="48" y2="39.5" class="grid-line"/>
<line x1="0" y1="40" x2="48" y2="40" class="grid-line-2mu"/>
<line x1="0" y1="40.5" x2="48" y2="40.5" class="grid-line"/>
<line x1="0" y1="41" x2="48" y2="41" class="grid-line"/>
<line x1="0" y1="41.5" x2="48" y2="41.5" class="grid-line"/>
<line x1="0" y1="42" x2="48" y2="42" class="grid-line-6mu"/>
<line x1="0" y1="42.5" x2="48" y2="42.5" class="grid-line"/>
<line x1="0" y1="43" x2="48" y2="43" class="grid-line"/>
<line x1="0" y1="43.5" x2="48" y2="43.5" class="grid-line"/>
<line x1="0" y1="44" x2="48" y2="44" class="grid-line-2mu"/>
<line x1="0" y1="44.5" x2="48" y2="44.5" class="grid-line"/>
<line x1="0" y1="45" x2="48" y2="45" class="grid-line"/>
<line x1="0" y1="45.5" x2="48" y2="45.5" class="grid-line"/>
<line x1="0" y1="46" x2="48" y2="46" class="grid-line-2mu"/>
<line x1="0" y1="46.5" x2="48" y2="46.5" class="grid-line"/>
<line x1="0" y1="47" x2="48" y2="47" class="grid-line"/>
<line x1="0" y1="47.5" x2="48" y2="47.5" class="grid-line"/>
<line x1="0" y1="48" x2="48" y2="48" class="grid-line-6mu"/>
</g>
<g id="layer-delaunay" class="layer ">
<line x1="22.72440634605013" y1="25.999533705182166" x2="21.058789164454762" y2="32.84838610151773" class="delaunay-line"/>
<line x1="21.058789164454762" y1="32.84838610151773" x2="22.305867503585382" y2="31.984918006741108" class="delaunay-line"/>
<line x1="22.305867503585382" y1="31.984918006741108" x2="22.72440634605013" y2="25.999533705182166" class="delaunay-line"/>
<line x1="22.72440634605013" y1="25.999533705182166" x2="13.564614775269224" y2="28.50798777455599" class="delaunay-line"/>
<line x1="13.564614775269224" y1="28.50798777455599" x2="21.058789164454762" y2="32.84838610151773" class="delaunay-line"/>
<line x1="21.058789164454762" y1="32.84838610151773" x2="22.72440634605013" y2="25.999533705182166" class="delaunay-line"/>
<line x1="13.564614775269224" y1="28.50798777455599" x2="17.081194931672695" y2="36.79253145562795" class="delaunay-line"/>
<line x1="17.081194931672695" y1="36.79253145562795" x2="21.058789164454762" y2="32.84838610151773" class="delaunay-line"/>
<line x1="21.058789164454762" y1="32.84838610151773" x2="13.564614775269224" y2="28.50798777455599" class="delaunay-line"/>
<line x1="30.700603309752854" y1="44.33905274830241" x2="31.283943955923796" y2="32.61272627043824" class="delaunay-line"/>
<line x1="31.283943955923796" y1="32.61272627043824" x2="22.305867503585382" y2="31.984918006741108" class="delaunay-line"/>
<line x1="22.305867503585382" y1="31.984918006741108" x2="30.700603309752854" y2="44.33905274830241" class="delaunay-line"/>
<line x1="13.564614775269224" y1="28.50798777455599" x2="13.131491091623595" y2="38.360062602141184" class="delaunay-line"/>
<line x1="13.131491091623595" y1="38.360062602141184" x2="17.081194931672695" y2="36.79253145562795" class="delaunay-line"/>
<line x1="17.081194931672695" y1="36.79253145562795" x2="13.564614775269224" y2="28.50798777455599" class="delaunay-line"/>
<line x1="8.041585654554584" y1="30.85237454549163" x2="13.131491091623595" y2="38.360062602141184" class="delaunay-line"/>
<line x1="13.131491091623595" y1="38.360062602141184" x2="13.564614775269224" y2="28.50798777455599" class="delaunay-line"/>
<line x1="13.564614775269224" y1="28.50798777455599" x2="8.041585654554584" y2="30.85237454549163" class="delaunay-line"/>
<line x1="31.283943955923796" y1="32.61272627043824" x2="31.702482798388544" y2="26.627341968879293" class="delaunay-line"/>
<line x1="31.702482798388544" y1="26.627341968879293" x2="22.305867503585382" y2="31.984918006741108" class="delaunay-line"/>
<line x1="22.305867503585382" y1="31.984918006741108" x2="31.283943955923796" y2="32.61272627043824" class="delaunay-line"/>
<line x1="22.305867503585382" y1="31.984918006741108" x2="31.702482798388544" y2="26.627341968879293" class="delaunay-line"/>
<line x1="31.702482798388544" y1="26.627341968879293" x2="22.72440634605013" y2="25.999533705182166" class="delaunay-line"/>
<line x1="22.72440634605013" y1="25.999533705182166" x2="22.305867503585382" y2="31.984918006741108" class="delaunay-line"/>
<line x1="34.15242631952979" y1="34.78772479152204" x2="31.283943955923796" y2="32.61272627043824" class="delaunay-line"/>
<line x1="31.283943955923796" y1="32.61272627043824" x2="30.700603309752854" y2="44.33905274830241" class="delaunay-line"/>
<line x1="30.700603309752854" y1="44.33905274830241" x2="34.15242631952979" y2="34.78772479152204" class="delaunay-line"/>
<line x1="22.305867503585382" y1="31.984918006741108" x2="21.058789164454762" y2="32.84838610151773" class="delaunay-line"/>
<line x1="21.058789164454762" y1="32.84838610151773" x2="30.700603309752854" y2="44.33905274830241" class="delaunay-line"/>
<line x1="30.700603309752854" y1="44.33905274830241" x2="22.305867503585382" y2="31.984918006741108" class="delaunay-line"/>
<line x1="8.041585654554584" y1="30.85237454549163" x2="11.558165810958055" y2="39.136918226563594" class="delaunay-line"/>
<line x1="11.558165810958055" y1="39.136918226563594" x2="13.131491091623595" y2="38.360062602141184" class="delaunay-line"/>
<line x1="13.131491091623595" y1="38.360062602141184" x2="8.041585654554584" y2="30.85237454549163" class="delaunay-line"/>
<line x1="13.131491091623595" y1="38.360062602141184" x2="11.866255847027023" y2="40.56183741775621" class="delaunay-line"/>
<line x1="11.866255847027023" y1="40.56183741775621" x2="17.081194931672695" y2="36.79253145562795" class="delaunay-line"/>
<line x1="17.081194931672695" y1="36.79253145562795" x2="13.131491091623595" y2="38.360062602141184" class="delaunay-line"/>
<line x1="22.72440634605013" y1="25.999533705182166" x2="8.763337779260352" y2="20.299179880977153" class="delaunay-line"/>
<line x1="8.763337779260352" y1="20.299179880977153" x2="13.564614775269224" y2="28.50798777455599" class="delaunay-line"/>
<line x1="13.564614775269224" y1="28.50798777455599" x2="22.72440634605013" y2="25.999533705182166" class="delaunay-line"/>
<line x1="13.564614775269224" y1="28.50798777455599" x2="8.763337779260352" y2="20.299179880977153" class="delaunay-line"/>
<line x1="8.763337779260352" y1="20.299179880977153" x2="8.041585654554584" y2="30.85237454549163" class="delaunay-line"/>
<line x1="8.041585654554584" y1="30.85237454549163" x2="13.564614775269224" y2="28.50798777455599" class="delaunay-line"/>
<line x1="11.231319872438934" y1="15.178355687361258" x2="8.763337779260352" y2="20.299179880977153" class="delaunay-line"/>
<line x1="8.763337779260352" y1="20.299179880977153" x2="22.72440634605013" y2="25.999533705182166" class="delaunay-line"/>
<line x1="22.72440634605013" y1="25.999533705182166" x2="11.231319872438934" y2="15.178355687361258" class="delaunay-line"/>
<line x1="3.2263322485121417" y1="42.70607552121206" x2="11.866255847027023" y2="40.56183741775621" class="delaunay-line"/>
<line x1="11.866255847027023" y1="40.56183741775621" x2="11.558165810958055" y2="39.136918226563594" class="delaunay-line"/>
<line x1="11.558165810958055" y1="39.136918226563594" x2="3.2263322485121417" y2="42.70607552121206" class="delaunay-line"/>
<line x1="11.558165810958055" y1="39.136918226563594" x2="11.866255847027023" y2="40.56183741775621" class="delaunay-line"/>
<line x1="11.866255847027023" y1="40.56183741775621" x2="13.131491091623595" y2="38.360062602141184" class="delaunay-line"/>
<line x1="13.131491091623595" y1="38.360062602141184" x2="11.558165810958055" y2="39.136918226563594" class="delaunay-line"/>
<line x1="20.557071409922578" y1="7.626510994763207" x2="11.231319872438934" y2="15.178355687361258" class="delaunay-line"/>
<line x1="11.231319872438934" y1="15.178355687361258" x2="22.72440634605013" y2="25.999533705182166" class="delaunay-line"/>
<line x1="22.72440634605013" y1="25.999533705182166" x2="20.557071409922578" y2="7.626510994763207" class="delaunay-line"/>
<line x1="30.700603309752854" y1="44.33905274830241" x2="21.058789164454762" y2="32.84838610151773" class="delaunay-line"/>
<line x1="21.058789164454762" y1="32.84838610151773" x2="17.081194931672695" y2="36.79253145562795" class="delaunay-line"/>
<line x1="17.081194931672695" y1="36.79253145562795" x2="30.700603309752854" y2="44.33905274830241" class="delaunay-line"/>
<line x1="31.283943955923796" y1="32.61272627043824" x2="37.76331645844207" y2="29.995911731238284" class="delaunay-line"/>
<line x1="37.76331645844207" y1="29.995911731238284" x2="31.702482798388544" y2="26.627341968879293" class="delaunay-line"/>
<line x1="31.702482798388544" y1="26.627341968879293" x2="31.283943955923796" y2="32.61272627043824" class="delaunay-line"/>
<line x1="2.873574678574368" y1="21.444033853236423" x2="4.268221314513723" y2="36.79722900313881" class="delaunay-line"/>
<line x1="4.268221314513723" y1="36.79722900313881" x2="8.041585654554584" y2="30.85237454549163" class="delaunay-line"/>
<line x1="8.041585654554584" y1="30.85237454549163" x2="2.873574678574368" y2="21.444033853236423" class="delaunay-line"/>
<line x1="8.041585654554584" y1="30.85237454549163" x2="4.268221314513723" y2="36.79722900313881" class="delaunay-line"/>
<line x1="4.268221314513723" y1="36.79722900313881" x2="11.558165810958055" y2="39.136918226563594" class="delaunay-line"/>
<line x1="11.558165810958055" y1="39.136918226563594" x2="8.041585654554584" y2="30.85237454549163" class="delaunay-line"/>
<line x1="3.2263322485121417" y1="42.70607552121206" x2="12.089602025622014" y2="44.26890912021443" class="delaunay-line"/>
<line x1="12.089602025622014" y1="44.26890912021443" x2="11.866255847027023" y2="40.56183741775621" class="delaunay-line"/>
<line x1="11.866255847027023" y1="40.56183741775621" x2="3.2263322485121417" y2="42.70607552121206" class="delaunay-line"/>
<line x1="11.866255847027023" y1="40.56183741775621" x2="12.089602025622014" y2="44.26890912021443" class="delaunay-line"/>
<line x1="12.089602025622014" y1="44.26890912021443" x2="17.081194931672695" y2="36.79253145562795" class="delaunay-line"/>
<line x1="17.081194931672695" y1="36.79253145562795" x2="11.866255847027023" y2="40.56183741775621" class="delaunay-line"/>
<line x1="1.156293720185463" y1="12.60938920220745" x2="2.873574678574368" y2="21.444033853236423" class="delaunay-line"/>
<line x1="2.873574678574368" y1="21.444033853236423" x2="8.763337779260352" y2="20.299179880977153" class="delaunay-line"/>
<line x1="8.763337779260352" y1="20.299179880977153" x2="1.156293720185463" y2="12.60938920220745" class="delaunay-line"/>
<line x1="8.763337779260352" y1="20.299179880977153" x2="2.873574678574368" y2="21.444033853236423" class="delaunay-line"/>
<line x1="2.873574678574368" y1="21.444033853236423" x2="8.041585654554584" y2="30.85237454549163" class="delaunay-line"/>
<line x1="8.041585654554584" y1="30.85237454549163" x2="8.763337779260352" y2="20.299179880977153" class="delaunay-line"/>
<line x1="34.15242631952979" y1="34.78772479152204" x2="37.76331645844207" y2="29.995911731238284" class="delaunay-line"/>
<line x1="37.76331645844207" y1="29.995911731238284" x2="31.283943955923796" y2="32.61272627043824" class="delaunay-line"/>
<line x1="31.283943955923796" y1="32.61272627043824" x2="34.15242631952979" y2="34.78772479152204" class="delaunay-line"/>
<line x1="20.557071409922578" y1="7.626510994763207" x2="7.046056820871447" y2="11.46453522994818" class="delaunay-line"/>
<line x1="7.046056820871447" y1="11.46453522994818" x2="11.231319872438934" y2="15.178355687361258" class="delaunay-line"/>
<line x1="11.231319872438934" y1="15.178355687361258" x2="20.557071409922578" y2="7.626510994763207" class="delaunay-line"/>
<line x1="21.508069992325115" y1="52.052504064540884" x2="30.700603309752854" y2="44.33905274830241" class="delaunay-line"/>
<line x1="30.700603309752854" y1="44.33905274830241" x2="17.081194931672695" y2="36.79253145562795" class="delaunay-line"/>
<line x1="17.081194931672695" y1="36.79253145562795" x2="21.508069992325115" y2="52.052504064540884" class="delaunay-line"/>
<line x1="34.15242631952979" y1="34.78772479152204" x2="44.951036048867714" y2="35.41224693960672" class="delaunay-line"/>
<line x1="44.951036048867714" y1="35.41224693960672" x2="37.76331645844207" y2="29.995911731238284" class="delaunay-line"/>
<line x1="37.76331645844207" y1="29.995911731238284" x2="34.15242631952979" y2="34.78772479152204" class="delaunay-line"/>
<line x1="20.557071409922578" y1="7.626510994763207" x2="22.72440634605013" y2="25.999533705182166" class="delaunay-line"/>
<line x1="22.72440634605013" y1="25.999533705182166" x2="33.51069305416695" y2="9.497618746901571" class="delaunay-line"/>
<line x1="33.51069305416695" y1="9.497618746901571" x2="20.557071409922578" y2="7.626510994763207" class="delaunay-line"/>
<line x1="11.231319872438934" y1="15.178355687361258" x2="7.046056820871447" y2="11.46453522994818" class="delaunay-line"/>
<line x1="7.046056820871447" y1="11.46453522994818" x2="8.763337779260352" y2="20.299179880977153" class="delaunay-line"/>
<line x1="8.763337779260352" y1="20.299179880977153" x2="11.231319872438934" y2="15.178355687361258" class="delaunay-line"/>
<line x1="0" y1="48" x2="3.2263322485121417" y2="42.70607552121206" class="delaunay-line"/>
<line x1="3.2263322485121417" y1="42.70607552121206" x2="4.268221314513723" y2="36.79722900313881" class="delaunay-line"/>
<line x1="4.268221314513723" y1="36.79722900313881" x2="0" y2="48" class="delaunay-line"/>
<line x1="4.268221314513723" y1="36.79722900313881" x2="3.2263322485121417" y2="42.70607552121206" class="delaunay-line"/>
<line x1="3.2263322485121417" y1="42.70607552121206" x2="11.558165810958055" y2="39.136918226563594" class="delaunay-line"/>
<line x1="11.558165810958055" y1="39.136918226563594" x2="4.268221314513723" y2="36.79722900313881" class="delaunay-line"/>
<line x1="33.51069305416695" y1="9.497618746901571" x2="22.72440634605013" y2="25.999533705182166" class="delaunay-line"/>
<line x1="22.72440634605013" y1="25.999533705182166" x2="31.702482798388544" y2="26.627341968879293" class="delaunay-line"/>
<line x1="31.702482798388544" y1="26.627341968879293" x2="33.51069305416695" y2="9.497618746901571" class="delaunay-line"/>
<line x1="0" y1="48" x2="21.508069992325115" y2="52.052504064540884" class="delaunay-line"/>
<line x1="21.508069992325115" y1="52.052504064540884" x2="12.089602025622014" y2="44.26890912021443" class="delaunay-line"/>
<line x1="12.089602025622014" y1="44.26890912021443" x2="0" y2="48" class="delaunay-line"/>
<line x1="12.089602025622014" y1="44.26890912021443" x2="21.508069992325115" y2="52.052504064540884" class="delaunay-line"/>
<line x1="21.508069992325115" y1="52.052504064540884" x2="17.081194931672695" y2="36.79253145562795" class="delaunay-line"/>
<line x1="17.081194931672695" y1="36.79253145562795" x2="12.089602025622014" y2="44.26890912021443" class="delaunay-line"/>
<line x1="40.09321550530031" y1="13.344306814682376" x2="33.51069305416695" y2="9.497618746901571" class="delaunay-line"/>
<line x1="33.51069305416695" y1="9.497618746901571" x2="31.702482798388544" y2="26.627341968879293" class="delaunay-line"/>
<line x1="31.702482798388544" y1="26.627341968879293" x2="40.09321550530031" y2="13.344306814682376" class="delaunay-line"/>
<line x1="7.046056820871447" y1="11.46453522994818" x2="1.156293720185463" y2="12.60938920220745" class="delaunay-line"/>
<line x1="1.156293720185463" y1="12.60938920220745" x2="8.763337779260352" y2="20.299179880977153" class="delaunay-line"/>
<line x1="8.763337779260352" y1="20.299179880977153" x2="7.046056820871447" y2="11.46453522994818" class="delaunay-line"/>
<line x1="2.873574678574368" y1="21.444033853236423" x2="0" y2="48" class="delaunay-line"/>
<line x1="0" y1="48" x2="4.268221314513723" y2="36.79722900313881" class="delaunay-line"/>
<line x1="4.268221314513723" y1="36.79722900313881" x2="2.873574678574368" y2="21.444033853236423" class="delaunay-line"/>
<line x1="1.7915140066913677" y1="3.5211662655066966" x2="1.156293720185463" y2="12.60938920220745" class="delaunay-line"/>
<line x1="1.156293720185463" y1="12.60938920220745" x2="7.046056820871447" y2="11.46453522994818" class="delaunay-line"/>
<line x1="7.046056820871447" y1="11.46453522994818" x2="1.7915140066913677" y2="3.5211662655066966" class="delaunay-line"/>
<line x1="48" y1="48" x2="41.34014590995543" y2="40.204059999890475" class="delaunay-line"/>
<line x1="41.34014590995543" y1="40.204059999890475" x2="30.700603309752854" y2="44.33905274830241" class="delaunay-line"/>
<line x1="30.700603309752854" y1="44.33905274830241" x2="48" y2="48" class="delaunay-line"/>
<line x1="30.700603309752854" y1="44.33905274830241" x2="41.34014590995543" y2="40.204059999890475" class="delaunay-line"/>
<line x1="41.34014590995543" y1="40.204059999890475" x2="34.15242631952979" y2="34.78772479152204" class="delaunay-line"/>
<line x1="34.15242631952979" y1="34.78772479152204" x2="30.700603309752854" y2="44.33905274830241" class="delaunay-line"/>
<line x1="45.54110150217487" y1="24.036385104942788" x2="40.09321550530031" y2="13.344306814682376" class="delaunay-line"/>
<line x1="40.09321550530031" y1="13.344306814682376" x2="31.702482798388544" y2="26.627341968879293" class="delaunay-line"/>
<line x1="31.702482798388544" y1="26.627341968879293" x2="45.54110150217487" y2="24.036385104942788" class="delaunay-line"/>
<line x1="45.54110150217487" y1="24.036385104942788" x2="31.702482798388544" y2="26.627341968879293" class="delaunay-line"/>
<line x1="31.702482798388544" y1="26.627341968879293" x2="37.76331645844207" y2="29.995911731238284" class="delaunay-line"/>
<line x1="37.76331645844207" y1="29.995911731238284" x2="45.54110150217487" y2="24.036385104942788" class="delaunay-line"/>
<line x1="41.34014590995543" y1="40.204059999890475" x2="44.951036048867714" y2="35.41224693960672" class="delaunay-line"/>
<line x1="44.951036048867714" y1="35.41224693960672" x2="34.15242631952979" y2="34.78772479152204" class="delaunay-line"/>
<line x1="34.15242631952979" y1="34.78772479152204" x2="41.34014590995543" y2="40.204059999890475" class="delaunay-line"/>
<line x1="44.951036048867714" y1="35.41224693960672" x2="45.54110150217487" y2="24.036385104942788" class="delaunay-line"/>
<line x1="45.54110150217487" y1="24.036385104942788" x2="37.76331645844207" y2="29.995911731238284" class="delaunay-line"/>
<line x1="37.76331645844207" y1="29.995911731238284" x2="44.951036048867714" y2="35.41224693960672" class="delaunay-line"/>
<line x1="1.156293720185463" y1="12.60938920220745" x2="0" y2="48" class="delaunay-line"/>
<line x1="0" y1="48" x2="2.873574678574368" y2="21.444033853236423" class="delaunay-line"/>
<line x1="2.873574678574368" y1="21.444033853236423" x2="1.156293720185463" y2="12.60938920220745" class="delaunay-line"/>
<line x1="3.2263322485121417" y1="42.70607552121206" x2="0" y2="48" class="delaunay-line"/>
<line x1="0" y1="48" x2="12.089602025622014" y2="44.26890912021443" class="delaunay-line"/>
<line x1="12.089602025622014" y1="44.26890912021443" x2="3.2263322485121417" y2="42.70607552121206" class="delaunay-line"/>
<line x1="45.54110150217487" y1="24.036385104942788" x2="42.39988811952318" y2="10.905528932263648" class="delaunay-line"/>
<line x1="42.39988811952318" y1="10.905528932263648" x2="40.09321550530031" y2="13.344306814682376" class="delaunay-line"/>
<line x1="40.09321550530031" y1="13.344306814682376" x2="45.54110150217487" y2="24.036385104942788" class="delaunay-line"/>
<line x1="40.09321550530031" y1="13.344306814682376" x2="42.39988811952318" y2="10.905528932263648" class="delaunay-line"/>
<line x1="42.39988811952318" y1="10.905528932263648" x2="33.51069305416695" y2="9.497618746901571" class="delaunay-line"/>
<line x1="33.51069305416695" y1="9.497618746901571" x2="40.09321550530031" y2="13.344306814682376" class="delaunay-line"/>
<line x1="43.33849490976456" y1="4.979398888692822" x2="34.44929984440833" y2="3.5714887033307456" class="delaunay-line"/>
<line x1="34.44929984440833" y1="3.5714887033307456" x2="33.51069305416695" y2="9.497618746901571" class="delaunay-line"/>
<line x1="33.51069305416695" y1="9.497618746901571" x2="43.33849490976456" y2="4.979398888692822" class="delaunay-line"/>
<line x1="33.51069305416695" y1="9.497618746901571" x2="34.44929984440833" y2="3.5714887033307456" class="delaunay-line"/>
<line x1="34.44929984440833" y1="3.5714887033307456" x2="20.557071409922578" y2="7.626510994763207" class="delaunay-line"/>
<line x1="20.557071409922578" y1="7.626510994763207" x2="33.51069305416695" y2="9.497618746901571" class="delaunay-line"/>
<line x1="11.117265544175014" y1="-4.030678427091354" x2="1.7915140066913677" y2="3.5211662655066966" class="delaunay-line"/>
<line x1="1.7915140066913677" y1="3.5211662655066966" x2="7.046056820871447" y2="11.46453522994818" class="delaunay-line"/>
<line x1="7.046056820871447" y1="11.46453522994818" x2="11.117265544175014" y2="-4.030678427091354" class="delaunay-line"/>
<line x1="11.117265544175014" y1="-4.030678427091354" x2="7.046056820871447" y2="11.46453522994818" class="delaunay-line"/>
<line x1="7.046056820871447" y1="11.46453522994818" x2="20.557071409922578" y2="7.626510994763207" class="delaunay-line"/>
<line x1="20.557071409922578" y1="7.626510994763207" x2="11.117265544175014" y2="-4.030678427091354" class="delaunay-line"/>
<line x1="34.44929984440833" y1="3.5714887033307456" x2="11.117265544175014" y2="-4.030678427091354" class="delaunay-line"/>
<line x1="11.117265544175014" y1="-4.030678427091354" x2="20.557071409922578" y2="7.626510994763207" class="delaunay-line"/>
<line x1="20.557071409922578" y1="7.626510994763207" x2="34.44929984440833" y2="3.5714887033307456" class="delaunay-line"/>
<line x1="42.39988811952318" y1="10.905528932263648" x2="43.33849490976456" y2="4.979398888692822" class="delaunay-line"/>
<line x1="43.33849490976456" y1="4.979398888692822" x2="33.51069305416695" y2="9.497618746901571" class="delaunay-line"/>
<line x1="33.51069305416695" y1="9.497618746901571" x2="42.39988811952318" y2="10.905528932263648" class="delaunay-line"/>
<line x1="34.44929984440833" y1="3.5714887033307456" x2="48" y2="0" class="delaunay-line"/>
<line x1="48" y1="0" x2="11.117265544175014" y2="-4.030678427091354" class="delaunay-line"/>
<line x1="11.117265544175014" y1="-4.030678427091354" x2="34.44929984440833" y2="3.5714887033307456" class="delaunay-line"/>
<line x1="48.11227422299562" y1="9.258392317026455" x2="43.33849490976456" y2="4.979398888692822" class="delaunay-line"/>
<line x1="43.33849490976456" y1="4.979398888692822" x2="42.39988811952318" y2="10.905528932263648" class="delaunay-line"/>
<line x1="42.39988811952318" y1="10.905528932263648" x2="48.11227422299562" y2="9.258392317026455" class="delaunay-line"/>
<line x1="11.117265544175014" y1="-4.030678427091354" x2="0" y2="0" class="delaunay-line"/>
<line x1="0" y1="0" x2="1.7915140066913677" y2="3.5211662655066966" class="delaunay-line"/>
<line x1="1.7915140066913677" y1="3.5211662655066966" x2="11.117265544175014" y2="-4.030678427091354" class="delaunay-line"/>
<line x1="1.7915140066913677" y1="3.5211662655066966" x2="0" y2="0" class="delaunay-line"/>
<line x1="0" y1="0" x2="1.156293720185463" y2="12.60938920220745" class="delaunay-line"/>
<line x1="1.156293720185463" y1="12.60938920220745" x2="1.7915140066913677" y2="3.5211662655066966" class="delaunay-line"/>
<line x1="1.156293720185463" y1="12.60938920220745" x2="0" y2="0" class="delaunay-line"/>
<line x1="0" y1="0" x2="0" y2="48" class="delaunay-line"/>
<line x1="0" y1="48" x2="1.156293720185463" y2="12.60938920220745" class="delaunay-line"/>
<line x1="21.508069992325115" y1="52.052504064540884" x2="48" y2="48" class="delaunay-line"/>
<line x1="48" y1="48" x2="30.700603309752854" y2="44.33905274830241" class="delaunay-line"/>
<line x1="30.700603309752854" y1="44.33905274830241" x2="21.508069992325115" y2="52.052504064540884" class="delaunay-line"/>
<line x1="41.34014590995543" y1="40.204059999890475" x2="48" y2="48" class="delaunay-line"/>
<line x1="48" y1="48" x2="44.951036048867714" y2="35.41224693960672" class="delaunay-line"/>
<line x1="44.951036048867714" y1="35.41224693960672" x2="41.34014590995543" y2="40.204059999890475" class="delaunay-line"/>
<line x1="44.951036048867714" y1="35.41224693960672" x2="53.560160219870184" y2="19.950470607286867" class="delaunay-line"/>
<line x1="53.560160219870184" y1="19.950470607286867" x2="45.54110150217487" y2="24.036385104942788" class="delaunay-line"/>
<line x1="45.54110150217487" y1="24.036385104942788" x2="44.951036048867714" y2="35.41224693960672" class="delaunay-line"/>
<line x1="53.560160219870184" y1="19.950470607286867" x2="48.11227422299562" y2="9.258392317026455" class="delaunay-line"/>
<line x1="48.11227422299562" y1="9.258392317026455" x2="42.39988811952318" y2="10.905528932263648" class="delaunay-line"/>
<line x1="42.39988811952318" y1="10.905528932263648" x2="53.560160219870184" y2="19.950470607286867" class="delaunay-line"/>
<line x1="53.560160219870184" y1="19.950470607286867" x2="42.39988811952318" y2="10.905528932263648" class="delaunay-line"/>
<line x1="42.39988811952318" y1="10.905528932263648" x2="45.54110150217487" y2="24.036385104942788" class="delaunay-line"/>
<line x1="45.54110150217487" y1="24.036385104942788" x2="53.560160219870184" y2="19.950470607286867" class="delaunay-line"/>
<line x1="48" y1="48" x2="53.560160219870184" y2="19.950470607286867" class="delaunay-line"/>
<line x1="53.560160219870184" y1="19.950470607286867" x2="44.951036048867714" y2="35.41224693960672" class="delaunay-line"/>
<line x1="44.951036048867714" y1="35.41224693960672" x2="48" y2="48" class="delaunay-line"/>
<line x1="53.560160219870184" y1="19.950470607286867" x2="48" y2="0" class="delaunay-line"/>
<line x1="48" y1="0" x2="48.11227422299562" y2="9.258392317026455" class="delaunay-line"/>
<line x1="48.11227422299562" y1="9.258392317026455" x2="53.560160219870184" y2="19.950470607286867" class="delaunay-line"/>
<line x1="48.11227422299562" y1="9.258392317026455" x2="48" y2="0" class="delaunay-line"/>
<line x1="48" y1="0" x2="43.33849490976456" y2="4.979398888692822" class="delaunay-line"/>
<line x1="43.33849490976456" y1="4.979398888692822" x2="48.11227422299562" y2="9.258392317026455" class="delaunay-line"/>
<line x1="43.33849490976456" y1="4.979398888692822" x2="48" y2="0" class="delaunay-line"/>
<line x1="48" y1="0" x2="34.44929984440833" y2="3.5714887033307456" class="delaunay-line"/>
<line x1="34.44929984440833" y1="3.5714887033307456" x2="43.33849490976456" y2="4.979398888692822" class="delaunay-line"/>
</g>
<g id="layer-area" class="layer ">
<polygon points="13.131491091623595,38.360062602141184 12.089602025622014,44.26890912021443 3.2263322485121417,42.70607552121206 4.268221314513723,36.79722900313881" class="terrain-area"/>
<text x="8.178911670067869" y="40.53306906167662" class="label">#C49A6C</text>
<polygon points="20.557071409922578,7.626510994763207 11.231319872438934,15.178355687361258 1.7915140066913677,3.5211662655066966 11.117265544175014,-4.030678427091354" class="terrain-area"/>
<text x="11.174292708306973" y="5.573838630134951" class="label">#C49A6C</text>
<polygon points="8.763337779260352,20.299179880977153 2.873574678574368,21.444033853236423 1.156293720185463,12.60938920220745 7.046056820871447,11.46453522994818" class="terrain-area"/>
<text x="4.959815749722908" y="16.4542845415923" class="label">#C49A6C</text>
<polygon points="31.702482798388544,26.627341968879293 31.283943955923796,32.61272627043824 22.305867503585382,31.984918006741108 22.72440634605013,25.999533705182166" class="terrain-area"/>
<text x="27.004175150986963" y="29.306129987810202" class="label">#C49A6C</text>
<polygon points="8.041585654554584,30.85237454549163 13.564614775269224,28.50798777455599 17.081194931672695,36.79253145562795 11.558165810958055,39.136918226563594" class="terrain-area"/>
<text x="12.56139029311364" y="33.82245300055979" class="label">#C49A6C</text>
<polygon points="30.700603309752854,44.33905274830241 21.508069992325115,52.052504064540884 11.866255847027023,40.56183741775621 21.058789164454762,32.84838610151773" class="terrain-area"/>
<text x="21.28342957838994" y="42.45044508302931" class="label">#C49A6C</text>
<polygon points="34.15242631952979,34.78772479152204 37.76331645844207,29.995911731238284 44.951036048867714,35.41224693960672 41.34014590995543,40.204059999890475" class="terrain-area"/>
<text x="39.55173118419875" y="35.09998586556438" class="label">#C49A6C</text>
<polygon points="33.51069305416695,9.497618746901571 34.44929984440833,3.5714887033307456 43.33849490976456,4.979398888692822 42.39988811952318,10.905528932263648" class="terrain-area"/>
<text x="38.42459398196576" y="7.238508817797197" class="label">#C49A6C</text>
<polygon points="40.09321550530031,13.344306814682376 48.11227422299562,9.258392317026455 53.560160219870184,19.950470607286867 45.54110150217487,24.036385104942788" class="terrain-area"/>
<text x="46.826687862585246" y="16.64738871098462" class="label">#C49A6C</text>
</g>
<g id="layer-building" class="layer ">
</g>
<g id="layer-wall" class="layer ">
</g>
<g id="layer-tree" class="layer ">
</g>
<g id="layer-rocks" class="layer ">
</g>
<g id="layer-shrub" class="layer ">
</g>
<g id="layer-terrain" class="layer ">
</g>
<g id="layer-clearance" class="layer hidden">
</g>
<g id="layer-models" class="layer ">
</g>
<g id="layer-paths" class="layer ">
</g>
<g id="layer-vectors" class="layer ">
</g>
<g id="layer-los" class="layer ">
</g>
<g id="layer-lof" class="layer ">
</g>

<g id="legend">
<g class="toggle" onclick="toggleLayer('deployment')"><rect x="0.4" y="0.14999999999999997" width="0.4" height="0.4" fill="#222" stroke="#222" stroke-width="0.05"/><text x="1.0" y="0.5499999999999999" class="label">Deployment Zones</text></g>
<g class="toggle" onclick="toggleLayer('grid')"><rect x="0.4" y="0.95" width="0.4" height="0.4" fill="#222" stroke="#222" stroke-width="0.05"/><text x="1.0" y="1.3499999999999999" class="label">0.5 MU Grid</text></g>
<g class="toggle" onclick="toggleLayer('delaunay')"><rect x="0.4" y="1.7500000000000002" width="0.4" height="0.4" fill="#222" stroke="#222" stroke-width="0.05"/><text x="1.0" y="2.1500000000000004" class="label">Delaunay Mesh</text></g>
<g class="toggle" onclick="toggleLayer('area')"><rect x="0.4" y="2.55" width="0.4" height="0.4" fill="#222" stroke="#222" stroke-width="0.05"/><text x="1.0" y="2.95" class="label">Area Terrain</text></g>
<g class="toggle disabled"><rect x="0.4" y="3.3499999999999996" width="0.4" height="0.4" fill="#222" stroke="#222" stroke-width="0.05"/><text x="1.0" y="3.75" class="label">Buildings</text></g>
<g class="toggle disabled"><rect x="0.4" y="4.1499999999999995" width="0.4" height="0.4" fill="#222" stroke="#222" stroke-width="0.05"/><text x="1.0" y="4.55" class="label">Walls</text></g>
<g class="toggle disabled"><rect x="0.4" y="4.949999999999999" width="0.4" height="0.4" fill="#222" stroke="#222" stroke-width="0.05"/><text x="1.0" y="5.35" class="label">Trees</text></g>
<g class="toggle disabled"><rect x="0.4" y="5.749999999999999" width="0.4" height="0.4" fill="#222" stroke="#222" stroke-width="0.05"/><text x="1.0" y="6.1499999999999995" class="label">Rocks</text></g>
<g class="toggle disabled"><rect x="0.4" y="6.549999999999999" width="0.4" height="0.4" fill="#222" stroke="#222" stroke-width="0.05"/><text x="1.0" y="6.949999999999999" class="label">Shrubs</text></g>
<g class="toggle" onclick="toggleLayer('terrain')"><rect x="0.4" y="7.349999999999999" width="0.4" height="0.4" fill="#222" stroke="#222" stroke-width="0.05"/><text x="1.0" y="7.749999999999999" class="label">Other Terrain</text></g>
<g class="toggle" onclick="toggleLayer('clearance')"><rect x="0.4" y="8.15" width="0.4" height="0.4" fill="#fff" stroke="#222" stroke-width="0.05"/><text x="1.0" y="8.549999999999999" class="label">Clearance Zones</text></g>
<g class="toggle" onclick="toggleLayer('models')"><rect x="0.4" y="8.950000000000001" width="0.4" height="0.4" fill="#222" stroke="#222" stroke-width="0.05"/><text x="1.0" y="9.35" class="label">Models</text></g>
<g class="toggle" onclick="toggleLayer('paths')"><rect x="0.4" y="9.750000000000002" width="0.4" height="0.4" fill="#222" stroke="#222" stroke-width="0.05"/><text x="1.0" y="10.15" class="label">Paths</text></g>
<g class="toggle" onclick="toggleLayer('vectors')"><rect x="0.4" y="10.550000000000002" width="0.4" height="0.4" fill="#222" stroke="#222" stroke-width="0.05"/><text x="1.0" y="10.950000000000001" class="label">Vectors</text></g>
<g class="toggle" onclick="toggleLayer('los')"><rect x="0.4" y="11.350000000000003" width="0.4" height="0.4" fill="#222" stroke="#222" stroke-width="0.05"/><text x="1.0" y="11.750000000000002" class="label">LOS</text></g>
<g class="toggle" onclick="toggleLayer('lof')"><rect x="0.4" y="12.150000000000004" width="0.4" height="0.4" fill="#222" stroke="#222" stroke-width="0.05"/><text x="1.0" y="12.550000000000002" class="label">LOF</text></g>
</g>
</svg>