<svg xmlns="http://www.w3.org/2000/svg" viewBox="0 0 48 48" width="1920" height="1920" font-family="Arial" font-size="0.6">
<defs>
  <style><![CDATA[
    .layer { display: inline; }
    .layer.hidden { display: none; }
    .grid-line { stroke: #999; stroke-width: 0.02; opacity: 0.2; }
    .grid-line-2mu { stroke: #666; stroke-width: 0.04; opacity: 0.4; }
    .grid-line-6mu { stroke: #333; stroke-width: 0.08; opacity: 0.6; }
    .delaunay-line { stroke: #4a6fa5; stroke-width: 0.03; opacity: 0.3; }
    #layer-area { opacity: 0.8; }
    #layer-building, #layer-wall, #layer-tree, #layer-rocks, #layer-shrub, #layer-terrain { opacity: 0.8; }
    .terrain-area { stroke: none; }
    .terrain-solid { stroke: #000; stroke-width: 0.05; }
    .model { stroke: #ff0000; stroke-width: 2; vector-effect: non-scaling-stroke; }
    .path { fill: none; stroke-width: 0.12; }
    .vector { stroke-width: 0.1; }
    .los-ray { stroke-width: 0.08; stroke-dasharray: 0.2 0.2; }
    .lof-ray { stroke-width: 0.08; stroke-dasharray: 0.3 0.15; }
    .label { fill: #111 !important; font-size: 0.6px; }
    .toggle { cursor: pointer; }
    .toggle.disabled { cursor: default; }
    .toggle.disabled rect { stroke: #ccc; fill: #fff; }
    .toggle.disabled text { fill: #ccc; }
#layer-wall { fill: #555555; }
  ]]></style>
</defs>
<rect x="0" y="0" width="48" height="48" fill="#ffffff" stroke="#111" stroke-width="0.05"/>
<script><![CDATA[
      function toggleLayer(id) {
        var layer = document.getElementById('layer-' + id);
        if (!layer) return;
        if (layer.classList.contains('hidden')) {
          layer.classList.remove('hidden');
        } else {
          layer.classList.add('hidden');
        }
      }
    ]]></script>
<text x="0.4" y="47.6" class="label">LARGE battlefield_A0-B0-W40-R0-S0-T0</text>
<g id="layer-deployment" class="layer ">
</g>
<g id="layer-grid" class="layer ">
<line x1="0" y1="0" x2="0" y2="48" class="grid-line-6mu"/>
<line x1="0.5" y1="0" x2="0.5" y2="48" class="grid-line"/>
<line x1="1" y1="0" x2="1" y2="48" class="grid-line"/>
<line x1="1.5" y1="0" x2="1.5" y2="48" class="grid-line"/>
<line x1="2" y1="0" x2="2" y2="48" class="grid-line-2mu"/>
<line x1="2.5" y1="0" x2="2.5" y2="48" class="grid-line"/>
<line x1="3" y1="0" x2="3" y2="48" class="grid-line"/>
<line x1="3.5" y1="0" x2="3.5" y2="48" class="grid-line"/>
<line x1="4" y1="0" x2="4" y2="48" class="grid-line-2mu"/>
<line x1="4.5" y1="0" x2="4.5" y2="48" class="grid-line"/>
<line x1="5" y1="0" x2="5" y2="48" class="grid-line"/>
<line x1="5.5" y1="0" x2="5.5" y2="48" class="grid-line"/>
<line x1="6" y1="0" x2="6" y2="48" class="grid-line-6mu"/>
<line x1="6.5" y1="0" x2="6.5" y2="48" class="grid-line"/>
<line x1="7" y1="0" x2="7" y2="48" class="grid-line"/>
<line x1="7.5" y1="0" x2="7.5" y2="48" class="grid-line"/>
<line x1="8" y1="0" x2="8" y2="48" class="grid-line-2mu"/>
<line x1="8.5" y1="0" x2="8.5" y2="48" class="grid-line"/>
<line x1="9" y1="0" x2="9" y2="48" class="grid-line"/>
<line x1="9.5" y1="0" x2="9.5" y2="48" class="grid-line"/>
<line x1="10" y1="0" x2="10" y2="48" class="grid-line-2mu"/>
<line x1="10.5" y1="0" x2="10.5" y2="48" class="grid-line"/>
<line x1="11" y1="0" x2="11" y2="48" class="grid-line"/>
<line x1="11.5" y1="0" x2="11.5" y2="48" class="grid-line"/>
<line x1="12" y1="0" x2="12" y2="48" class="grid-line-6mu"/>
<line x1="12.5" y1="0" x2="12.5" y2="48" class="grid-line"/>
<line x1="13" y1="0" x2="13" y2="48" class="grid-line"/>
<line x1="13.5" y1="0" x2="13.5" y2="48" class="grid-line"/>
<line x1="14" y1="0" x2="14" y2="48" class="grid-line-2mu"/>
<line x1="14.5" y1="0" x2="14.5" y2="48" class="grid-line"/>
<line x1="15" y1="0" x2="15" y2="48" class="grid-line"/>
<line x1="15.5" y1="0" x2="15.5" y2="48" class="grid-line"/>
<line x1="16" y1="0" x2="16" y2="48" class="grid-line-2mu"/>
<line x1="16.5" y1="0" x2="16.5" y2="48" class="grid-line"/>
<line x1="17" y1="0" x2="17" y2="48" class="grid-line"/>
<line x1="17.5" y1="0" x2="17.5" y2="48" class="grid-line"/>
<line x1="18" y1="0" x2="18" y2="48" class="grid-line-6mu"/>
<line x1="18.5" y1="0" x2="18.5" y2="48" class="grid-line"/>
<line x1="19" y1="0" x2="19" y2="48" class="grid-line"/>
<line x1="19.5" y1="0" x2="19.5" y2="48" class="grid-line"/>
<line x1="20" y1="0" x2="20" y2="48" class="grid-line-2mu"/>
<line x1="20.5" y1="0" x2="20.5" y2="48" class="grid-line"/>
<line x1="21" y1="0" x2="21" y2="48" class="grid-line"/>
<line x1="21.5" y1="0" x2="21.5" y2="48" class="grid-line"/>
<line x1="22" y1="0" x2="22" y2="48" class="grid-line-2mu"/>
<line x1="22.5" y1="0" x2="22.5" y2="48" class="grid-line"/>
<line x1="23" y1="0" x2="23" y2="48" class="grid-line"/>
<line x1="23.5" y1="0" x2="23.5" y2="48" class="grid-line"/>
<line x1="24" y1="0" x2="24" y2="48" class="grid-line-6mu"/>
<line x1="24.5" y1="0" x2="24.5" y2="48" class="grid-line"/>
<line x1="25" y1="0" x2="25" y2="48" class="grid-line"/>
<line x1="25.5" y1="0" x2="25.5" y2="48" class="grid-line"/>
<line x1="26" y1="0" x2="26" y2="48" class="grid-line-2mu"/>
<line x1="26.5" y1="0" x2="26.5" y2="48" class="grid-line"/>
<line x1="27" y1="0" x2="27" y2="48" class="grid-line"/>
<line x1="27.5" y1="0" x2="27.5" y2="48" class="grid-line"/>
<line x1="28" y1="0" x2="28" y2="48" class="grid-line-2mu"/>
<line x1="28.5" y1="0" x2="28.5" y2="48" class="grid-line"/>
<line x1="29" y1="0" x2="29" y2="48" class="grid-line"/>
<line x1="29.5" y1="0" x2="29.5" y2="48" class="grid-line"/>
<line x1="30" y1="0" x2="30" y2="48" class="grid-line-6mu"/>
<line x1="30.5" y1="0" x2="30.5" y2="48" class="grid-line"/>
<line x1="31" y1="0" x2="31" y2="48" class="grid-line"/>
<line x1="31.5" y1="0" x2="31.5" y2="48" class="grid-line"/>
<line x1="32" y1="0" x2="32" y2="48" class="grid-line-2mu"/>
<line x1="32.5" y1="0" x2="32.5" y2="48" class="grid-line"/>
<line x1="33" y1="0" x2="33" y2="48" class="grid-line"/>
<line x1="33.5" y1="0" x2="33.5" y2="48" class="grid-line"/>
<line x1="34" y1="0" x2="34" y2="48" class="grid-line-2mu"/>
<line x1="34.5" y1="0" x2="34.5" y2="48" class="grid-line"/>
<line x1="35" y1="0" x2="35" y2="48" class="grid-line"/>
<line x1="35.5" y1="0" x2="35.5" y2="48" class="grid-line"/>
<line x1="36" y1="0" x2="36" y2="48" class="grid-line-6mu"/>
<line x1="36.5" y1="0" x2="36.5" y2="48" class="grid-line"/>
<line x1="37" y1="0" x2="37" y2="48" class="grid-line"/>
<line x1="37.5" y1="0" x2="37.5" y2="48" class="grid-line"/>
<line x1="38" y1="0" x2="38" y2="48" class="grid-line-2mu"/>
<line x1="38.5" y1="0" x2="38.5" y2="48" class="grid-line"/>
<line x1="39" y1="0" x2="39" y2="48" class="grid-line"/>
<line x1="39.5" y1="0" x2="39.5" y2="48" class="grid-line"/>
<line x1="40" y1="0" x2="40" y2="48" class="grid-line-2mu"/>
<line x1="40.5" y1="0" x2="40.5" y2="48" class="grid-line"/>
<line x1="41" y1="0" x2="41" y2="48" class="grid-line"/>
<line x1="41.5" y1="0" x2="41.5" y2="48" class="grid-line"/>
<line x1="42" y1="0" x2="42" y2="48" class="grid-line-6mu"/>
<line x1="42.5" y1="0" x2="42.5" y2="48" class="grid-line"/>
<line x1="43" y1="0" x2="43" y2="48" class="grid-line"/>
<line x1="43.5" y1="0" x2="43.5" y2="48" class="grid-line"/>
<line x1="44" y1="0" x2="44" y2="48" class="grid-line-2mu"/>
<line x1="44.5" y1="0" x2="44.5" y2="48" class="grid-line"/>
<line x1="45" y1="0" x2="45" y2="48" class="grid-line"/>
<line x1="45.5" y1="0" x2="45.5" y2="48" class="grid-line"/>
<line x1="46" y1="0" x2="46" y2="48" class="grid-line-2mu"/>
<line x1="46.5" y1="0" x2="46.5" y2="48" class="grid-line"/>
<line x1="47" y1="0" x2="47" y2="48" class="grid-line"/>
<line x1="47.5" y1="0" x2="47.5" y2="48" class="grid-line"/>
<line x1="48" y1="0" x2="48" y2="48" class="grid-line-6mu"/>
<line x1="0" y1="0" x2="48" y2="0" class="grid-line-6mu"/>
<line x1="0" y1="0.5" x2="48" y2="0.5" class="grid-line"/>
<line x1="0" y1="1" x2="48" y2="1" class="grid-line"/>
<line x1="0" y1="1.5" x2="48" y2="1.5" class="grid-line"/>
<line x1="0" y1="2" x2="48" y2="2" class="grid-line-2mu"/>
<line x1="0" y1="2.5" x2="48" y2="2.5" class="grid-line"/>
<line x1="0" y1="3" x2="48" y2="3" class="grid-line"/>
<line x1="0" y1="3.5" x2="48" y2="3.5" class="grid-line"/>
<line x1="0" y1="4" x2="48" y2="4" class="grid-line-2mu"/>
<line x1="0" y1="4.5" x2="48" y2="4.5" class="grid-line"/>
<line x1="0" y1="5" x2="48" y2="5" class="grid-line"/>
<line x1="0" y1="5.5" x2="48" y2="5.5" class="grid-line"/>
<line x1="0" y1="6" x2="48" y2="6" class="grid-line-6mu"/>
<line x1="0" y1="6.5" x2="48" y2="6.5" class="grid-line"/>
<line x1="0" y1="7" x2="48" y2="7" class="grid-line"/>
<line x1="0" y1="7.5" x2="48" y2="7.5" class="grid-line"/>
<line x1="0" y1="8" x2="48" y2="8" class="grid-line-2mu"/>
<line x1="0" y1="8.5" x2="48" y2="8.5" class="grid-line"/>
<line x1="0" y1="9" x2="48" y2="9" class="grid-line"/>
<line x1="0" y1="9.5" x2="48" y2="9.5" class="grid-line"/>
<line x1="0" y1="10" x2="48" y2="10" class="grid-line-2mu"/>
<line x1="0" y1="10.5" x2="48" y2="10.5" class="grid-line"/>
<line x1="0" y1="11" x2="48" y2="11" class="grid-line"/>
<line x1="0" y1="11.5" x2="48" y2="11.5" class="grid-line"/>
<line x1="0" y1="12" x2="48" y2="12" class="grid-line-6mu"/>
<line x1="0" y1="12.5" x2="48" y2="12.5" class="grid-line"/>
<line x1="0" y1="13" x2="48" y2="13" class="grid-line"/>
<line x1="0" y1="13.5" x2="48" y2="13.5" class="grid-line"/>
<line x1="0" y1="14" x2="48" y2="14" class="grid-line-2mu"/>
<line x1="0" y1="14.5" x2="48" y2="14.5" class="grid-line"/>
<line x1="0" y1="15" x2="48" y2="15" class="grid-line"/>
<line x1="0" y1="15.5" x2="48" y2="15.5" class="grid-line"/>
<line x1="0" y1="16" x2="48" y2="16" class="grid-line-2mu"/>
<line x1="0" y1="16.5" x2="48" y2="16.5" class="grid-line"/>
<line x1="0" y1="17" x2="48" y2="17" class="grid-line"/>
<line x1="0" y1="17.5" x2="48" y2="17.5" class="grid-line"/>
<line x1="0" y1="18" x2="48" y2="18" class="grid-line-6mu"/>
<line x1="0" y1="18.5" x2="48" y2="18.5" class="grid-line"/>
<line x1="0" y1="19" x2="48" y2="19" class="grid-line"/>
<line x1="0" y1="19.5" x2="48" y2="19.5" class="grid-line"/>
<line x1="0" y1="20" x2="48" y2="20" class="grid-line-2mu"/>
<line x1="0" y1="20.5" x2="48" y2="20.5" class="grid-line"/>
<line x1="0" y1="21" x2="48" y2="21" class="grid-line"/>
<line x1="0" y1="21.5" x2="48" y2="21.5" class="grid-line"/>
<line x1="0" y1="22" x2="48" y2="22" class="grid-line-2mu"/>
<line x1="0" y1="22.5" x2="48" y2="22.5" class="grid-line"/>
<line x1="0" y1="23" x2="48" y2="23" class="grid-line"/>
<line x1="0" y1="23.5" x2="48" y2="23.5" class="grid-line"/>
<line x1="0" y1="24" x2="48" y2="24" class="grid-line-6mu"/>
<line x1="0" y1="24.5" x2="48" y2="24.5" class="grid-line"/>
<line x1="0" y1="25" x2="48" y2="25" class="grid-line"/>
<line x1="0" y1="25.5" x2="48" y2="25.5" class="grid-line"/>
<line x1="0" y1="26" x2="48" y2="26" class="grid-line-2mu"/>
<line x1="0" y1="26.5" x2="48" y2="26.5" class="grid-line"/>
<line x1="0" y1="27" x2="48" y2="27" class="grid-line"/>
<line x1="0" y1="27.5" x2="48" y2="27.5" class="grid-line"/>
<line x1="0" y1="28" x2="48" y2="28" class="grid-line-2mu"/>
<line x1="0" y1="28.5" x2="48" y2="28.5" class="grid-line"/>
<line x1="0" y1="29" x2="48" y2="29" class="grid-line"/>
<line x1="0" y1="29.5" x2="48" y2="29.5" class="grid-line"/>
<line x1="0" y1="30" x2="48" y2="30" class="grid-line-6mu"/>
<line x1="0" y1="30.5" x2="48" y2="30.5" class="grid-line"/>
<line x1="0" y1="31" x2="48" y2="31" class="grid-line"/>
<line x1="0" y1="31.5" x2="48" y2="31.5" class="grid-line"/>
<line x1="0" y1="32" x2="48" y2="32" class="grid-line-2mu"/>
<line x1="0" y1="32.5" x2="48" y2="32.5" class="grid-line"/>
<line x1="0" y1="33" x2="48" y2="33" class="grid-line"/>
<line x1="0" y1="33.5" x2="48" y2="33.5" class="grid-line"/>
<line x1="0" y1="34" x2="48" y2="34" class="grid-line-2mu"/>
<line x1="0" y1="34.5" x2="48" y2="34.5" class="grid-line"/>
<line x1="0" y1="35" x2="48" y2="35" class="grid-line"/>
<line x1="0" y1="35.5" x2="48" y2="35.5" class="grid-line"/>
<line x1="0" y1="36" x2="48" y2="36" class="grid-line-6mu"/>
<line x1="0" y1="36.5" x2="48" y2="36.5" class="grid-line"/>
<line x1="0" y1="37" x2="48" y2="37" class="grid-line"/>
<line x1="0" y1="37.5" x2="48" y2="37.5" class="grid-line"/>
<line x1="0" y1="38" x2="48" y2="38" class="grid-line-2mu"/>
<line x1="0" y1="38.5" x2="48" y2="38.5" class="grid-line"/>
<line x1="0" y1="39" x2="48" y2="39" class="grid-line"/>
<line x1="0" y1="39.5" x2="48" y2="39.5" class="grid-line"/>
<line x1="0" y1="40" x2="48" y2="40" class="grid-line-2mu"/>
<line x1="0" y1="40.5" x2="48" y2="40.5" class="grid-line"/>
<line x1="0" y1="41" x2="48" y2="41" class="grid-line"/>
<line x1="0" y1="41.5" x2="48" y2="41.5" class="grid-line"/>
<line x1="0" y1="42" x2="48" y2="42" class="grid-line-6mu"/>
<line x1="0" y1="42.5" x2="48" y2="42.5" class="grid-line"/>
<line x1="0" y1="43" x2="48" y2="43" class="grid-line"/>
<line x1="0" y1="43.5" x2="48" y2="43.5" class="grid-line"/>
<line x1="0" y1="44" x2="48" y2="44" class="grid-line-2mu"/>
<line x1="0" y1="44.5" x2="48" y2="44.5" class="grid-line"/>
<line x1="0" y1="45" x2="48" y2="45" class="grid-line"/>
<line x1="0" y1="45.5" x2="48" y2="45.5" class="grid-line"/>
<line x1="0" y1="46" x2="48" y2="46" class="grid-line-2mu"/>
<line x1="0" y1="46.5" x2="48" y2="46.5" class="grid-line"/>
<line x1="0" y1="47" x2="48" y2="47" class="grid-line"/>
<line x1="0" y1="47.5" x2="48" y2="47.5" class="grid-line"/>
<line x1="0" y1="48" x2="48" y2="48" class="grid-line-6mu"/>
</g>
<g id="layer-delaunay" class="layer ">
<line x1="25.200462128202865" y1="25.268683203894753" x2="19.200462128202865" y2="25.768683203894753" class="delaunay-line"/>
<line x1="19.200462128202865" y1="25.768683203894753" x2="25.200462128202865" y2="25.768683203894753" class="delaunay-line"/>
<line x1="25.200462128202865" y1="25.768683203894753" x2="25.200462128202865" y2="25.268683203894753" class="delaunay-line"/>
<line x1="25.200462128202865" y1="25.268683203894753" x2="19.200462128202865" y2="25.268683203894753" class="delaunay-line"/>
<line x1="19.200462128202865" y1="25.268683203894753" x2="19.200462128202865" y2="25.768683203894753" class="delaunay-line"/>
<line x1="19.200462128202865" y1="25.768683203894753" x2="25.200462128202865" y2="25.268683203894753" class="delaunay-line"/>
<line x1="19.200462128202865" y1="25.768683203894753" x2="21.646307246833725" y2="28.776813033350813" class="delaunay-line"/>
<line x1="21.646307246833725" y1="28.776813033350813" x2="25.200462128202865" y2="25.768683203894753" class="delaunay-line"/>
<line x1="25.200462128202865" y1="25.768683203894753" x2="19.200462128202865" y2="25.768683203894753" class="delaunay-line"/>
<line x1="19.200462128202865" y1="25.768683203894753" x2="21.40438535123406" y2="29.747108759626812" class="delaunay-line"/>
<line x1="21.40438535123406" y1="29.747108759626812" x2="21.646307246833725" y2="28.776813033350813" class="delaunay-line"/>
<line x1="21.646307246833725" y1="28.776813033350813" x2="19.200462128202865" y2="25.768683203894753" class="delaunay-line"/>
<line x1="21.646307246833725" y1="28.776813033350813" x2="23.875729511110233" y2="32.92457139435153" class="delaunay-line"/>
<line x1="23.875729511110233" y1="32.92457139435153" x2="25.200462128202865" y2="25.768683203894753" class="delaunay-line"/>
<line x1="25.200462128202865" y1="25.768683203894753" x2="21.646307246833725" y2="28.776813033350813" class="delaunay-line"/>
<line x1="19.200462128202865" y1="25.768683203894753" x2="20.77710245015936" y2="30.80632001681529" class="delaunay-line"/>
<line x1="20.77710245015936" y1="30.80632001681529" x2="21.40438535123406" y2="29.747108759626812" class="delaunay-line"/>
<line x1="21.40438535123406" y1="29.747108759626812" x2="19.200462128202865" y2="25.768683203894753" class="delaunay-line"/>
<line x1="21.40438535123406" y1="29.747108759626812" x2="23.875729511110233" y2="32.92457139435153" class="delaunay-line"/>
<line x1="23.875729511110233" y1="32.92457139435153" x2="21.646307246833725" y2="28.776813033350813" class="delaunay-line"/>
<line x1="21.646307246833725" y1="28.776813033350813" x2="21.40438535123406" y2="29.747108759626812" class="delaunay-line"/>
<line x1="12.777102450159362" y1="30.80632001681529" x2="20.77710245015936" y2="31.80632001681529" class="delaunay-line"/>
<line x1="20.77710245015936" y1="31.80632001681529" x2="20.77710245015936" y2="30.80632001681529" class="delaunay-line"/>
<line x1="20.77710245015936" y1="30.80632001681529" x2="12.777102450159362" y2="30.80632001681529" class="delaunay-line"/>
<line x1="20.77710245015936" y1="30.80632001681529" x2="22.88120761574196" y2="33.02909985761919" class="delaunay-line"/>
<line x1="22.88120761574196" y1="33.02909985761919" x2="21.40438535123406" y2="29.747108759626812" class="delaunay-line"/>
<line x1="21.40438535123406" y1="29.747108759626812" x2="20.77710245015936" y2="30.80632001681529" class="delaunay-line"/>
<line x1="16.190086346326105" y1="21.598251510855896" x2="15.970900772931566" y2="22.047648534005482" class="delaunay-line"/>
<line x1="15.970900772931566" y1="22.047648534005482" x2="19.200462128202865" y2="25.268683203894753" class="delaunay-line"/>
<line x1="19.200462128202865" y1="25.268683203894753" x2="16.190086346326105" y2="21.598251510855896" class="delaunay-line"/>
<line x1="19.200462128202865" y1="25.268683203894753" x2="13.883941436625753" y2="26.84143786855347" class="delaunay-line"/>
<line x1="13.883941436625753" y1="26.84143786855347" x2="19.200462128202865" y2="25.768683203894753" class="delaunay-line"/>
<line x1="19.200462128202865" y1="25.768683203894753" x2="19.200462128202865" y2="25.268683203894753" class="delaunay-line"/>
<line x1="19.200462128202865" y1="25.768683203894753" x2="13.642019541026086" y2="27.81173359482947" class="delaunay-line"/>
<line x1="13.642019541026086" y1="27.81173359482947" x2="20.77710245015936" y2="30.80632001681529" class="delaunay-line"/>
<line x1="20.77710245015936" y1="30.80632001681529" x2="19.200462128202865" y2="25.768683203894753" class="delaunay-line"/>
<line x1="19.023299278253365" y1="17.476847032190204" x2="16.190086346326105" y2="21.598251510855896" class="delaunay-line"/>
<line x1="16.190086346326105" y1="21.598251510855896" x2="19.200462128202865" y2="25.268683203894753" class="delaunay-line"/>
<line x1="19.200462128202865" y1="25.268683203894753" x2="19.023299278253365" y2="17.476847032190204" class="delaunay-line"/>
<line x1="20.77710245015936" y1="31.80632001681529" x2="22.88120761574196" y2="33.02909985761919" class="delaunay-line"/>
<line x1="22.88120761574196" y1="33.02909985761919" x2="20.77710245015936" y2="30.80632001681529" class="delaunay-line"/>
<line x1="20.77710245015936" y1="30.80632001681529" x2="20.77710245015936" y2="31.80632001681529" class="delaunay-line"/>
<line x1="22.88120761574196" y1="33.02909985761919" x2="23.875729511110233" y2="32.92457139435153" class="delaunay-line"/>
<line x1="23.875729511110233" y1="32.92457139435153" x2="21.40438535123406" y2="29.747108759626812" class="delaunay-line"/>
<line x1="21.40438535123406" y1="29.747108759626812" x2="22.88120761574196" y2="33.02909985761919" class="delaunay-line"/>
<line x1="15.970900772931566" y1="22.047648534005482" x2="13.883941436625753" y2="26.84143786855347" class="delaunay-line"/>
<line x1="13.883941436625753" y1="26.84143786855347" x2="19.200462128202865" y2="25.268683203894753" class="delaunay-line"/>
<line x1="19.200462128202865" y1="25.268683203894753" x2="15.970900772931566" y2="22.047648534005482" class="delaunay-line"/>
<line x1="25.200462128202865" y1="25.268683203894753" x2="19.023299278253365" y2="17.476847032190204" class="delaunay-line"/>
<line x1="19.023299278253365" y1="17.476847032190204" x2="19.200462128202865" y2="25.268683203894753" class="delaunay-line"/>
<line x1="19.200462128202865" y1="25.268683203894753" x2="25.200462128202865" y2="25.268683203894753" class="delaunay-line"/>
<line x1="13.883941436625753" y1="26.84143786855347" x2="13.642019541026086" y2="27.81173359482947" class="delaunay-line"/>
<line x1="13.642019541026086" y1="27.81173359482947" x2="19.200462128202865" y2="25.768683203894753" class="delaunay-line"/>
<line x1="19.200462128202865" y1="25.768683203894753" x2="13.883941436625753" y2="26.84143786855347" class="delaunay-line"/>
<line x1="20.77710245015936" y1="31.80632001681529" x2="15.286417476175785" y2="36.21085820988406" class="delaunay-line"/>
<line x1="15.286417476175785" y1="36.21085820988406" x2="22.88120761574196" y2="33.02909985761919" class="delaunay-line"/>
<line x1="22.88120761574196" y1="33.02909985761919" x2="20.77710245015936" y2="31.80632001681529" class="delaunay-line"/>
<line x1="19.023299278253365" y1="17.476847032190204" x2="18.17525118209694" y2="16.946927767957" class="delaunay-line"/>
<line x1="18.17525118209694" y1="16.946927767957" x2="16.190086346326105" y2="21.598251510855896" class="delaunay-line"/>
<line x1="16.190086346326105" y1="21.598251510855896" x2="19.023299278253365" y2="17.476847032190204" class="delaunay-line"/>
<line x1="10.578136495136564" y1="19.41742165327102" x2="10.154566914782649" y2="26.356373027657533" class="delaunay-line"/>
<line x1="10.154566914782649" y1="26.356373027657533" x2="15.970900772931566" y2="22.047648534005482" class="delaunay-line"/>
<line x1="15.970900772931566" y1="22.047648534005482" x2="10.578136495136564" y2="19.41742165327102" class="delaunay-line"/>
<line x1="15.970900772931566" y1="22.047648534005482" x2="10.154566914782649" y2="26.356373027657533" class="delaunay-line"/>
<line x1="10.154566914782649" y1="26.356373027657533" x2="13.883941436625753" y2="26.84143786855347" class="delaunay-line"/>
<line x1="13.883941436625753" y1="26.84143786855347" x2="15.970900772931566" y2="22.047648534005482" class="delaunay-line"/>
<line x1="9.95119859324475" y1="26.813145756478832" x2="12.777102450159362" y2="30.80632001681529" class="delaunay-line"/>
<line x1="12.777102450159362" y1="30.80632001681529" x2="13.642019541026086" y2="27.81173359482947" class="delaunay-line"/>
<line x1="13.642019541026086" y1="27.81173359482947" x2="9.95119859324475" y2="26.813145756478832" class="delaunay-line"/>
<line x1="13.642019541026086" y1="27.81173359482947" x2="12.777102450159362" y2="30.80632001681529" class="delaunay-line"/>
<line x1="12.777102450159362" y1="30.80632001681529" x2="20.77710245015936" y2="30.80632001681529" class="delaunay-line"/>
<line x1="20.77710245015936" y1="30.80632001681529" x2="13.642019541026086" y2="27.81173359482947" class="delaunay-line"/>
<line x1="12.777102450159362" y1="30.80632001681529" x2="12.777102450159362" y2="31.80632001681529" class="delaunay-line"/>
<line x1="12.777102450159362" y1="31.80632001681529" x2="20.77710245015936" y2="31.80632001681529" class="delaunay-line"/>
<line x1="20.77710245015936" y1="31.80632001681529" x2="12.777102450159362" y2="30.80632001681529" class="delaunay-line"/>
<line x1="13.883941436625753" y1="26.84143786855347" x2="10.154566914782649" y2="26.356373027657533" class="delaunay-line"/>
<line x1="10.154566914782649" y1="26.356373027657533" x2="13.642019541026086" y2="27.81173359482947" class="delaunay-line"/>
<line x1="13.642019541026086" y1="27.81173359482947" x2="13.883941436625753" y2="26.84143786855347" class="delaunay-line"/>
<line x1="12.777102450159362" y1="30.80632001681529" x2="9.943845227968085" y2="32.19920076416565" class="delaunay-line"/>
<line x1="9.943845227968085" y1="32.19920076416565" x2="12.777102450159362" y2="31.80632001681529" class="delaunay-line"/>
<line x1="12.777102450159362" y1="31.80632001681529" x2="12.777102450159362" y2="30.80632001681529" class="delaunay-line"/>
<line x1="10.578136495136564" y1="19.41742165327102" x2="15.970900772931566" y2="22.047648534005482" class="delaunay-line"/>
<line x1="15.970900772931566" y1="22.047648534005482" x2="16.190086346326105" y2="21.598251510855896" class="delaunay-line"/>
<line x1="16.190086346326105" y1="21.598251510855896" x2="10.578136495136564" y2="19.41742165327102" class="delaunay-line"/>
<line x1="34.754220654893395" y1="26.04296847590137" x2="33.54365527847527" y2="21.234965176944755" class="delaunay-line"/>
<line x1="33.54365527847527" y1="21.234965176944755" x2="25.200462128202865" y2="25.268683203894753" class="delaunay-line"/>
<line x1="25.200462128202865" y1="25.268683203894753" x2="34.754220654893395" y2="26.04296847590137" class="delaunay-line"/>
<line x1="25.200462128202865" y1="25.268683203894753" x2="33.54365527847527" y2="21.234965176944755" class="delaunay-line"/>
<line x1="33.54365527847527" y1="21.234965176944755" x2="19.023299278253365" y2="17.476847032190204" class="delaunay-line"/>
<line x1="19.023299278253365" y1="17.476847032190204" x2="25.200462128202865" y2="25.268683203894753" class="delaunay-line"/>
<line x1="19.023299278253365" y1="17.476847032190204" x2="22.414605295962577" y2="10.16254299870559" class="delaunay-line"/>
<line x1="22.414605295962577" y1="10.16254299870559" x2="18.17525118209694" y2="16.946927767957" class="delaunay-line"/>
<line x1="18.17525118209694" y1="16.946927767957" x2="19.023299278253365" y2="17.476847032190204" class="delaunay-line"/>
<line x1="34.633259707093565" y1="26.528116339039368" x2="25.200462128202865" y2="25.268683203894753" class="delaunay-line"/>
<line x1="25.200462128202865" y1="25.268683203894753" x2="25.200462128202865" y2="25.768683203894753" class="delaunay-line"/>
<line x1="25.200462128202865" y1="25.768683203894753" x2="34.633259707093565" y2="26.528116339039368" class="delaunay-line"/>
<line x1="10.154566914782649" y1="26.356373027657533" x2="9.95119859324475" y2="26.813145756478832" class="delaunay-line"/>
<line x1="9.95119859324475" y1="26.813145756478832" x2="13.642019541026086" y2="27.81173359482947" class="delaunay-line"/>
<line x1="13.642019541026086" y1="27.81173359482947" x2="10.154566914782649" y2="26.356373027657533" class="delaunay-line"/>
<line x1="34.15223904767192" y1="31.5293420550585" x2="34.633259707093565" y2="26.528116339039368" class="delaunay-line"/>
<line x1="34.633259707093565" y1="26.528116339039368" x2="25.200462128202865" y2="25.768683203894753" class="delaunay-line"/>
<line x1="25.200462128202865" y1="25.768683203894753" x2="34.15223904767192" y2="31.5293420550585" class="delaunay-line"/>
<line x1="34.754220654893395" y1="26.04296847590137" x2="34.01044549172387" y2="21.414149151717403" class="delaunay-line"/>
<line x1="34.01044549172387" y1="21.414149151717403" x2="33.54365527847527" y2="21.234965176944755" class="delaunay-line"/>
<line x1="33.54365527847527" y1="21.234965176944755" x2="34.754220654893395" y2="26.04296847590137" class="delaunay-line"/>
<line x1="34.633259707093565" y1="26.528116339039368" x2="34.754220654893395" y2="26.04296847590137" class="delaunay-line"/>
<line x1="34.754220654893395" y1="26.04296847590137" x2="25.200462128202865" y2="25.268683203894753" class="delaunay-line"/>
<line x1="25.200462128202865" y1="25.268683203894753" x2="34.633259707093565" y2="26.528116339039368" class="delaunay-line"/>
<line x1="9.943845227968085" y1="32.19920076416565" x2="14.87684145403129" y2="35.92406999170854" class="delaunay-line"/>
<line x1="14.87684145403129" y1="35.92406999170854" x2="12.777102450159362" y2="31.80632001681529" class="delaunay-line"/>
<line x1="12.777102450159362" y1="31.80632001681529" x2="9.943845227968085" y2="32.19920076416565" class="delaunay-line"/>
<line x1="12.777102450159362" y1="31.80632001681529" x2="14.87684145403129" y2="35.92406999170854" class="delaunay-line"/>
<line x1="14.87684145403129" y1="35.92406999170854" x2="20.77710245015936" y2="31.80632001681529" class="delaunay-line"/>
<line x1="20.77710245015936" y1="31.80632001681529" x2="12.777102450159362" y2="31.80632001681529" class="delaunay-line"/>
<line x1="22.88120761574196" y1="33.02909985761919" x2="24.711957217251463" y2="40.88074655729771" class="delaunay-line"/>
<line x1="24.711957217251463" y1="40.88074655729771" x2="23.875729511110233" y2="32.92457139435153" class="delaunay-line"/>
<line x1="23.875729511110233" y1="32.92457139435153" x2="22.88120761574196" y2="33.02909985761919" class="delaunay-line"/>
<line x1="14.87684145403129" y1="35.92406999170854" x2="15.286417476175785" y2="36.21085820988406" class="delaunay-line"/>
<line x1="15.286417476175785" y1="36.21085820988406" x2="20.77710245015936" y2="31.80632001681529" class="delaunay-line"/>
<line x1="20.77710245015936" y1="31.80632001681529" x2="14.87684145403129" y2="35.92406999170854" class="delaunay-line"/>
<line x1="10.797322068531104" y1="18.968024630121434" x2="10.578136495136564" y2="19.41742165327102" class="delaunay-line"/>
<line x1="10.578136495136564" y1="19.41742165327102" x2="16.190086346326105" y2="21.598251510855896" class="delaunay-line"/>
<line x1="16.190086346326105" y1="21.598251510855896" x2="10.797322068531104" y2="18.968024630121434" class="delaunay-line"/>
<line x1="10.154566914782649" y1="26.356373027657533" x2="4.469925847389145" y2="24.37272589802403" class="delaunay-line"/>
<line x1="4.469925847389145" y1="24.37272589802403" x2="9.95119859324475" y2="26.813145756478832" class="delaunay-line"/>
<line x1="9.95119859324475" y1="26.813145756478832" x2="10.154566914782649" y2="26.356373027657533" class="delaunay-line"/>
<line x1="18.17525118209694" y1="16.946927767957" x2="10.797322068531104" y2="18.968024630121434" class="delaunay-line"/>
<line x1="10.797322068531104" y1="18.968024630121434" x2="16.190086346326105" y2="21.598251510855896" class="delaunay-line"/>
<line x1="16.190086346326105" y1="21.598251510855896" x2="18.17525118209694" y2="16.946927767957" class="delaunay-line"/>
<line x1="34.64464292417802" y1="31.616166143891967" x2="34.15223904767192" y2="31.5293420550585" class="delaunay-line"/>
<line x1="34.15223904767192" y1="31.5293420550585" x2="33.11034998167033" y2="37.43818857313175" class="delaunay-line"/>
<line x1="33.11034998167033" y1="37.43818857313175" x2="34.64464292417802" y2="31.616166143891967" class="delaunay-line"/>
<line x1="23.875729511110233" y1="32.92457139435153" x2="34.15223904767192" y2="31.5293420550585" class="delaunay-line"/>
<line x1="34.15223904767192" y1="31.5293420550585" x2="25.200462128202865" y2="25.768683203894753" class="delaunay-line"/>
<line x1="25.200462128202865" y1="25.768683203894753" x2="23.875729511110233" y2="32.92457139435153" class="delaunay-line"/>
<line x1="34.633259707093565" y1="26.528116339039368" x2="40.57599501254938" y2="27.49449984949938" class="delaunay-line"/>
<line x1="40.57599501254938" y1="27.49449984949938" x2="34.754220654893395" y2="26.04296847590137" class="delaunay-line"/>
<line x1="34.754220654893395" y1="26.04296847590137" x2="34.633259707093565" y2="26.528116339039368" class="delaunay-line"/>
<line x1="33.11034998167033" y1="37.43818857313175" x2="34.15223904767192" y2="31.5293420550585" class="delaunay-line"/>
<line x1="34.15223904767192" y1="31.5293420550585" x2="23.875729511110233" y2="32.92457139435153" class="delaunay-line"/>
<line x1="23.875729511110233" y1="32.92457139435153" x2="33.11034998167033" y2="37.43818857313175" class="delaunay-line"/>
<line x1="34.15223904767192" y1="31.5293420550585" x2="34.64464292417802" y2="31.616166143891967" class="delaunay-line"/>
<line x1="34.64464292417802" y1="31.616166143891967" x2="34.633259707093565" y2="26.528116339039368" class="delaunay-line"/>
<line x1="34.633259707093565" y1="26.528116339039368" x2="34.15223904767192" y2="31.5293420550585" class="delaunay-line"/>
<line x1="9.590291837374812" y1="31.84564737357238" x2="9.943845227968085" y2="32.19920076416565" class="delaunay-line"/>
<line x1="9.943845227968085" y1="32.19920076416565" x2="12.777102450159362" y2="30.80632001681529" class="delaunay-line"/>
<line x1="12.777102450159362" y1="30.80632001681529" x2="9.590291837374812" y2="31.84564737357238" class="delaunay-line"/>
<line x1="9.95119859324475" y1="26.813145756478832" x2="9.590291837374812" y2="31.84564737357238" class="delaunay-line"/>
<line x1="9.590291837374812" y1="31.84564737357238" x2="12.777102450159362" y2="30.80632001681529" class="delaunay-line"/>
<line x1="12.777102450159362" y1="30.80632001681529" x2="9.95119859324475" y2="26.813145756478832" class="delaunay-line"/>
<line x1="35.69386297574707" y1="15.633482617961546" x2="23.262653392119002" y2="10.692462262938793" class="delaunay-line"/>
<line x1="23.262653392119002" y1="10.692462262938793" x2="33.54365527847527" y2="21.234965176944755" class="delaunay-line"/>
<line x1="33.54365527847527" y1="21.234965176944755" x2="35.69386297574707" y2="15.633482617961546" class="delaunay-line"/>
<line x1="33.54365527847527" y1="21.234965176944755" x2="23.262653392119002" y2="10.692462262938793" class="delaunay-line"/>
<line x1="23.262653392119002" y1="10.692462262938793" x2="19.023299278253365" y2="17.476847032190204" class="delaunay-line"/>
<line x1="19.023299278253365" y1="17.476847032190204" x2="33.54365527847527" y2="21.234965176944755" class="delaunay-line"/>
<line x1="18.17525118209694" y1="16.946927767957" x2="22.414605295962577" y2="10.16254299870559" class="delaunay-line"/>
<line x1="22.414605295962577" y1="10.16254299870559" x2="10.797322068531104" y2="18.968024630121434" class="delaunay-line"/>
<line x1="10.797322068531104" y1="18.968024630121434" x2="18.17525118209694" y2="16.946927767957" class="delaunay-line"/>
<line x1="23.262653392119002" y1="10.692462262938793" x2="22.414605295962577" y2="10.16254299870559" class="delaunay-line"/>
<line x1="22.414605295962577" y1="10.16254299870559" x2="19.023299278253365" y2="17.476847032190204" class="delaunay-line"/>
<line x1="19.023299278253365" y1="17.476847032190204" x2="23.262653392119002" y2="10.692462262938793" class="delaunay-line"/>
<line x1="15.286417476175785" y1="36.21085820988406" x2="23.71743532188319" y2="40.98527502056537" class="delaunay-line"/>
<line x1="23.71743532188319" y1="40.98527502056537" x2="22.88120761574196" y2="33.02909985761919" class="delaunay-line"/>
<line x1="22.88120761574196" y1="33.02909985761919" x2="15.286417476175785" y2="36.21085820988406" class="delaunay-line"/>
<line x1="23.71743532188319" y1="40.98527502056537" x2="24.711957217251463" y2="40.88074655729771" class="delaunay-line"/>
<line x1="24.711957217251463" y1="40.88074655729771" x2="22.88120761574196" y2="33.02909985761919" class="delaunay-line"/>
<line x1="22.88120761574196" y1="33.02909985761919" x2="23.71743532188319" y2="40.98527502056537" class="delaunay-line"/>
<line x1="4.469925847389145" y1="24.37272589802403" x2="7.369005094026413" y2="30.247443325282045" class="delaunay-line"/>
<line x1="7.369005094026413" y1="30.247443325282045" x2="9.95119859324475" y2="26.813145756478832" class="delaunay-line"/>
<line x1="9.95119859324475" y1="26.813145756478832" x2="4.469925847389145" y2="24.37272589802403" class="delaunay-line"/>
<line x1="9.95119859324475" y1="26.813145756478832" x2="7.369005094026413" y2="30.247443325282045" class="delaunay-line"/>
<line x1="7.369005094026413" y1="30.247443325282045" x2="9.590291837374812" y2="31.84564737357238" class="delaunay-line"/>
<line x1="9.590291837374812" y1="31.84564737357238" x2="9.95119859324475" y2="26.813145756478832" class="delaunay-line"/>
<line x1="5.347651150255528" y1="36.08828806069167" x2="5.701204540848801" y2="36.441841451284944" class="delaunay-line"/>
<line x1="5.701204540848801" y1="36.441841451284944" x2="9.943845227968085" y2="32.19920076416565" class="delaunay-line"/>
<line x1="9.943845227968085" y1="32.19920076416565" x2="5.347651150255528" y2="36.08828806069167" class="delaunay-line"/>
<line x1="7.369005094026413" y1="30.247443325282045" x2="7.351555345675163" y2="30.747138738791595" class="delaunay-line"/>
<line x1="7.351555345675163" y1="30.747138738791595" x2="9.590291837374812" y2="31.84564737357238" class="delaunay-line"/>
<line x1="9.590291837374812" y1="31.84564737357238" x2="7.369005094026413" y2="30.247443325282045" class="delaunay-line"/>
<line x1="9.943845227968085" y1="32.19920076416565" x2="11.435382835925015" y2="40.83898225744249" class="delaunay-line"/>
<line x1="11.435382835925015" y1="40.83898225744249" x2="14.87684145403129" y2="35.92406999170854" class="delaunay-line"/>
<line x1="14.87684145403129" y1="35.92406999170854" x2="9.943845227968085" y2="32.19920076416565" class="delaunay-line"/>
<line x1="14.87684145403129" y1="35.92406999170854" x2="11.84495885806951" y2="41.125770475618005" class="delaunay-line"/>
<line x1="11.84495885806951" y1="41.125770475618005" x2="15.286417476175785" y2="36.21085820988406" class="delaunay-line"/>
<line x1="15.286417476175785" y1="36.21085820988406" x2="14.87684145403129" y2="35.92406999170854" class="delaunay-line"/>
<line x1="24.711957217251463" y1="40.88074655729771" x2="33.11034998167033" y2="37.43818857313175" class="delaunay-line"/>
<line x1="33.11034998167033" y1="37.43818857313175" x2="23.875729511110233" y2="32.92457139435153" class="delaunay-line"/>
<line x1="23.875729511110233" y1="32.92457139435153" x2="24.711957217251463" y2="40.88074655729771" class="delaunay-line"/>
<line x1="24.711957217251463" y1="40.88074655729771" x2="33.602753858176435" y2="37.525012661965214" class="delaunay-line"/>
<line x1="33.602753858176435" y1="37.525012661965214" x2="33.11034998167033" y2="37.43818857313175" class="delaunay-line"/>
<line x1="33.11034998167033" y1="37.43818857313175" x2="24.711957217251463" y2="40.88074655729771" class="delaunay-line"/>
<line x1="33.11034998167033" y1="37.43818857313175" x2="33.602753858176435" y2="37.525012661965214" class="delaunay-line"/>
<line x1="33.602753858176435" y1="37.525012661965214" x2="34.64464292417802" y2="31.616166143891967" class="delaunay-line"/>
<line x1="34.64464292417802" y1="31.616166143891967" x2="33.11034998167033" y2="37.43818857313175" class="delaunay-line"/>
<line x1="36.16065318899567" y1="15.812666592734194" x2="35.69386297574707" y2="15.633482617961546" class="delaunay-line"/>
<line x1="35.69386297574707" y1="15.633482617961546" x2="34.01044549172387" y2="21.414149151717403" class="delaunay-line"/>
<line x1="34.01044549172387" y1="21.414149151717403" x2="36.16065318899567" y2="15.812666592734194" class="delaunay-line"/>
<line x1="34.01044549172387" y1="21.414149151717403" x2="35.69386297574707" y2="15.633482617961546" class="delaunay-line"/>
<line x1="35.69386297574707" y1="15.633482617961546" x2="33.54365527847527" y2="21.234965176944755" class="delaunay-line"/>
<line x1="33.54365527847527" y1="21.234965176944755" x2="34.01044549172387" y2="21.414149151717403" class="delaunay-line"/>
<line x1="23.262653392119002" y1="10.692462262938793" x2="48" y2="0" class="delaunay-line"/>
<line x1="48" y1="0" x2="22.414605295962577" y2="10.16254299870559" class="delaunay-line"/>
<line x1="22.414605295962577" y1="10.16254299870559" x2="23.262653392119002" y2="10.692462262938793" class="delaunay-line"/>
<line x1="36.16065318899567" y1="15.812666592734194" x2="34.01044549172387" y2="21.414149151717403" class="delaunay-line"/>
<line x1="34.01044549172387" y1="21.414149151717403" x2="38.163683740250434" y2="17.543499328773148" class="delaunay-line"/>
<line x1="38.163683740250434" y1="17.543499328773148" x2="36.16065318899567" y2="15.812666592734194" class="delaunay-line"/>
<line x1="37.32600477525766" y1="33.203378008127906" x2="37.317278572039015" y2="32.703454160549704" class="delaunay-line"/>
<line x1="37.317278572039015" y1="32.703454160549704" x2="34.64464292417802" y2="31.616166143891967" class="delaunay-line"/>
<line x1="34.64464292417802" y1="31.616166143891967" x2="37.32600477525766" y2="33.203378008127906" class="delaunay-line"/>
<line x1="34.64464292417802" y1="31.616166143891967" x2="40.45503406474955" y2="27.979647712637377" class="delaunay-line"/>
<line x1="40.45503406474955" y1="27.979647712637377" x2="34.633259707093565" y2="26.528116339039368" class="delaunay-line"/>
<line x1="34.633259707093565" y1="26.528116339039368" x2="34.64464292417802" y2="31.616166143891967" class="delaunay-line"/>
<line x1="33.602753858176435" y1="37.525012661965214" x2="37.32600477525766" y2="33.203378008127906" class="delaunay-line"/>
<line x1="37.32600477525766" y1="33.203378008127906" x2="34.64464292417802" y2="31.616166143891967" class="delaunay-line"/>
<line x1="34.64464292417802" y1="31.616166143891967" x2="33.602753858176435" y2="37.525012661965214" class="delaunay-line"/>
<line x1="38.163683740250434" y1="17.543499328773148" x2="34.01044549172387" y2="21.414149151717403" class="delaunay-line"/>
<line x1="34.01044549172387" y1="21.414149151717403" x2="43.13790917558069" y2="20.89865674959763" class="delaunay-line"/>
<line x1="43.13790917558069" y1="20.89865674959763" x2="38.163683740250434" y2="17.543499328773148" class="delaunay-line"/>
<line x1="35.69386297574707" y1="15.633482617961546" x2="48" y2="0" class="delaunay-line"/>
<line x1="48" y1="0" x2="23.262653392119002" y2="10.692462262938793" class="delaunay-line"/>
<line x1="23.262653392119002" y1="10.692462262938793" x2="35.69386297574707" y2="15.633482617961546" class="delaunay-line"/>
<line x1="10.797322068531104" y1="18.968024630121434" x2="4.673294168927044" y2="23.91595316920273" class="delaunay-line"/>
<line x1="4.673294168927044" y1="23.91595316920273" x2="10.578136495136564" y2="19.41742165327102" class="delaunay-line"/>
<line x1="10.578136495136564" y1="19.41742165327102" x2="10.797322068531104" y2="18.968024630121434" class="delaunay-line"/>
<line x1="10.578136495136564" y1="19.41742165327102" x2="4.673294168927044" y2="23.91595316920273" class="delaunay-line"/>
<line x1="4.673294168927044" y1="23.91595316920273" x2="10.154566914782649" y2="26.356373027657533" class="delaunay-line"/>
<line x1="10.154566914782649" y1="26.356373027657533" x2="10.578136495136564" y2="19.41742165327102" class="delaunay-line"/>
<line x1="7.369005094026413" y1="30.247443325282045" x2="1.3552103835605886" y2="30.53774175857659" class="delaunay-line"/>
<line x1="1.3552103835605886" y1="30.53774175857659" x2="7.351555345675163" y2="30.747138738791595" class="delaunay-line"/>
<line x1="7.351555345675163" y1="30.747138738791595" x2="7.369005094026413" y2="30.247443325282045" class="delaunay-line"/>
<line x1="4.673294168927044" y1="23.91595316920273" x2="4.469925847389145" y2="24.37272589802403" class="delaunay-line"/>
<line x1="4.469925847389145" y1="24.37272589802403" x2="10.154566914782649" y2="26.356373027657533" class="delaunay-line"/>
<line x1="10.154566914782649" y1="26.356373027657533" x2="4.673294168927044" y2="23.91595316920273" class="delaunay-line"/>
<line x1="40.57599501254938" y1="27.49449984949938" x2="34.01044549172387" y2="21.414149151717403" class="delaunay-line"/>
<line x1="34.01044549172387" y1="21.414149151717403" x2="34.754220654893395" y2="26.04296847590137" class="delaunay-line"/>
<line x1="34.754220654893395" y1="26.04296847590137" x2="40.57599501254938" y2="27.49449984949938" class="delaunay-line"/>
<line x1="38.44328019198581" y1="17.12898054249563" x2="38.163683740250434" y2="17.543499328773148" class="delaunay-line"/>
<line x1="38.163683740250434" y1="17.543499328773148" x2="43.13790917558069" y2="20.89865674959763" class="delaunay-line"/>
<line x1="43.13790917558069" y1="20.89865674959763" x2="38.44328019198581" y2="17.12898054249563" class="delaunay-line"/>
<line x1="40.45503406474955" y1="27.979647712637377" x2="34.64464292417802" y2="31.616166143891967" class="delaunay-line"/>
<line x1="34.64464292417802" y1="31.616166143891967" x2="37.317278572039015" y2="32.703454160549704" class="delaunay-line"/>
<line x1="37.317278572039015" y1="32.703454160549704" x2="40.45503406474955" y2="27.979647712637377" class="delaunay-line"/>
<line x1="38.163683740250434" y1="17.543499328773148" x2="38.44328019198581" y2="17.12898054249563" class="delaunay-line"/>
<line x1="38.44328019198581" y1="17.12898054249563" x2="36.16065318899567" y2="15.812666592734194" class="delaunay-line"/>
<line x1="36.16065318899567" y1="15.812666592734194" x2="38.163683740250434" y2="17.543499328773148" class="delaunay-line"/>
<line x1="43.31636474297737" y1="32.598739721926" x2="40.45503406474955" y2="27.979647712637377" class="delaunay-line"/>
<line x1="40.45503406474955" y1="27.979647712637377" x2="37.317278572039015" y2="32.703454160549704" class="delaunay-line"/>
<line x1="37.317278572039015" y1="32.703454160549704" x2="43.31636474297737" y2="32.598739721926" class="delaunay-line"/>
<line x1="40.45503406474955" y1="27.979647712637377" x2="40.57599501254938" y2="27.49449984949938" class="delaunay-line"/>
<line x1="40.57599501254938" y1="27.49449984949938" x2="34.633259707093565" y2="26.528116339039368" class="delaunay-line"/>
<line x1="34.633259707093565" y1="26.528116339039368" x2="40.45503406474955" y2="27.979647712637377" class="delaunay-line"/>
<line x1="5.701204540848801" y1="36.441841451284944" x2="11.435382835925015" y2="40.83898225744249" class="delaunay-line"/>
<line x1="11.435382835925015" y1="40.83898225744249" x2="9.943845227968085" y2="32.19920076416565" class="delaunay-line"/>
<line x1="9.943845227968085" y1="32.19920076416565" x2="5.701204540848801" y2="36.441841451284944" class="delaunay-line"/>
<line x1="15.286417476175785" y1="36.21085820988406" x2="11.84495885806951" y2="41.125770475618005" class="delaunay-line"/>
<line x1="11.84495885806951" y1="41.125770475618005" x2="23.71743532188319" y2="40.98527502056537" class="delaunay-line"/>
<line x1="23.71743532188319" y1="40.98527502056537" x2="15.286417476175785" y2="36.21085820988406" class="delaunay-line"/>
<line x1="9.943845227968085" y1="32.19920076416565" x2="9.590291837374812" y2="31.84564737357238" class="delaunay-line"/>
<line x1="9.590291837374812" y1="31.84564737357238" x2="5.347651150255528" y2="36.08828806069167" class="delaunay-line"/>
<line x1="5.347651150255528" y1="36.08828806069167" x2="9.943845227968085" y2="32.19920076416565" class="delaunay-line"/>
<line x1="11.435382835925015" y1="40.83898225744249" x2="11.84495885806951" y2="41.125770475618005" class="delaunay-line"/>
<line x1="11.84495885806951" y1="41.125770475618005" x2="14.87684145403129" y2="35.92406999170854" class="delaunay-line"/>
<line x1="14.87684145403129" y1="35.92406999170854" x2="11.435382835925015" y2="40.83898225744249" class="delaunay-line"/>
<line x1="5.347651150255528" y1="36.08828806069167" x2="9.590291837374812" y2="31.84564737357238" class="delaunay-line"/>
<line x1="9.590291837374812" y1="31.84564737357238" x2="7.351555345675163" y2="30.747138738791595" class="delaunay-line"/>
<line x1="7.351555345675163" y1="30.747138738791595" x2="5.347651150255528" y2="36.08828806069167" class="delaunay-line"/>
<line x1="1.3552103835605886" y1="30.53774175857659" x2="5.347651150255528" y2="36.08828806069167" class="delaunay-line"/>
<line x1="5.347651150255528" y1="36.08828806069167" x2="7.351555345675163" y2="30.747138738791595" class="delaunay-line"/>
<line x1="7.351555345675163" y1="30.747138738791595" x2="1.3552103835605886" y2="30.53774175857659" class="delaunay-line"/>
<line x1="4.469925847389145" y1="24.37272589802403" x2="1.372660131911839" y2="30.03804634506704" class="delaunay-line"/>
<line x1="1.372660131911839" y1="30.03804634506704" x2="7.369005094026413" y2="30.247443325282045" class="delaunay-line"/>
<line x1="7.369005094026413" y1="30.247443325282045" x2="4.469925847389145" y2="24.37272589802403" class="delaunay-line"/>
<line x1="0" y1="0" x2="1.372660131911839" y2="30.03804634506704" class="delaunay-line"/>
<line x1="1.372660131911839" y1="30.03804634506704" x2="4.469925847389145" y2="24.37272589802403" class="delaunay-line"/>
<line x1="4.469925847389145" y1="24.37272589802403" x2="0" y2="0" class="delaunay-line"/>
<line x1="1.372660131911839" y1="30.03804634506704" x2="1.3552103835605886" y2="30.53774175857659" class="delaunay-line"/>
<line x1="1.3552103835605886" y1="30.53774175857659" x2="7.369005094026413" y2="30.247443325282045" class="delaunay-line"/>
<line x1="7.369005094026413" y1="30.247443325282045" x2="1.372660131911839" y2="30.03804634506704" class="delaunay-line"/>
<line x1="43.41750562731606" y1="20.484137963320112" x2="43.13790917558069" y2="20.89865674959763" class="delaunay-line"/>
<line x1="43.13790917558069" y1="20.89865674959763" x2="43.31636474297737" y2="32.598739721926" class="delaunay-line"/>
<line x1="43.31636474297737" y1="32.598739721926" x2="43.41750562731606" y2="20.484137963320112" class="delaunay-line"/>
<line x1="40.57599501254938" y1="27.49449984949938" x2="43.13790917558069" y2="20.89865674959763" class="delaunay-line"/>
<line x1="43.13790917558069" y1="20.89865674959763" x2="34.01044549172387" y2="21.414149151717403" class="delaunay-line"/>
<line x1="34.01044549172387" y1="21.414149151717403" x2="40.57599501254938" y2="27.49449984949938" class="delaunay-line"/>
<line x1="43.31636474297737" y1="32.598739721926" x2="43.13790917558069" y2="20.89865674959763" class="delaunay-line"/>
<line x1="43.13790917558069" y1="20.89865674959763" x2="40.57599501254938" y2="27.49449984949938" class="delaunay-line"/>
<line x1="40.57599501254938" y1="27.49449984949938" x2="43.31636474297737" y2="32.598739721926" class="delaunay-line"/>
<line x1="43.13790917558069" y1="20.89865674959763" x2="43.41750562731606" y2="20.484137963320112" class="delaunay-line"/>
<line x1="43.41750562731606" y1="20.484137963320112" x2="38.44328019198581" y2="17.12898054249563" class="delaunay-line"/>
<line x1="38.44328019198581" y1="17.12898054249563" x2="43.13790917558069" y2="20.89865674959763" class="delaunay-line"/>
<line x1="43.32509094619601" y1="33.098663569504204" x2="43.31636474297737" y2="32.598739721926" class="delaunay-line"/>
<line x1="43.31636474297737" y1="32.598739721926" x2="37.32600477525766" y2="33.203378008127906" class="delaunay-line"/>
<line x1="37.32600477525766" y1="33.203378008127906" x2="43.32509094619601" y2="33.098663569504204" class="delaunay-line"/>
<line x1="37.32600477525766" y1="33.203378008127906" x2="43.31636474297737" y2="32.598739721926" class="delaunay-line"/>
<line x1="43.31636474297737" y1="32.598739721926" x2="37.317278572039015" y2="32.703454160549704" class="delaunay-line"/>
<line x1="37.317278572039015" y1="32.703454160549704" x2="37.32600477525766" y2="33.203378008127906" class="delaunay-line"/>
<line x1="40.45503406474955" y1="27.979647712637377" x2="43.31636474297737" y2="32.598739721926" class="delaunay-line"/>
<line x1="43.31636474297737" y1="32.598739721926" x2="40.57599501254938" y2="27.49449984949938" class="delaunay-line"/>
<line x1="40.57599501254938" y1="27.49449984949938" x2="40.45503406474955" y2="27.979647712637377" class="delaunay-line"/>
<line x1="33.602753858176435" y1="37.525012661965214" x2="43.32509094619601" y2="33.098663569504204" class="delaunay-line"/>
<line x1="43.32509094619601" y1="33.098663569504204" x2="37.32600477525766" y2="33.203378008127906" class="delaunay-line"/>
<line x1="37.32600477525766" y1="33.203378008127906" x2="33.602753858176435" y2="37.525012661965214" class="delaunay-line"/>
<line x1="43.31636474297737" y1="32.598739721926" x2="48" y2="48" class="delaunay-line"/>
<line x1="48" y1="48" x2="43.41750562731606" y2="20.484137963320112" class="delaunay-line"/>
<line x1="43.41750562731606" y1="20.484137963320112" x2="43.31636474297737" y2="32.598739721926" class="delaunay-line"/>
<line x1="5.701204540848801" y1="36.441841451284944" x2="4.168772848196826" y2="41.67567194798089" class="delaunay-line"/>
<line x1="4.168772848196826" y1="41.67567194798089" x2="11.435382835925015" y2="40.83898225744249" class="delaunay-line"/>
<line x1="11.435382835925015" y1="40.83898225744249" x2="5.701204540848801" y2="36.441841451284944" class="delaunay-line"/>
<line x1="11.435382835925015" y1="40.83898225744249" x2="5.416242993103382" y2="47.54455755238372" class="delaunay-line"/>
<line x1="5.416242993103382" y1="47.54455755238372" x2="11.84495885806951" y2="41.125770475618005" class="delaunay-line"/>
<line x1="11.84495885806951" y1="41.125770475618005" x2="11.435382835925015" y2="40.83898225744249" class="delaunay-line"/>
<line x1="11.84495885806951" y1="41.125770475618005" x2="5.416242993103382" y2="47.54455755238372" class="delaunay-line"/>
<line x1="5.416242993103382" y1="47.54455755238372" x2="23.71743532188319" y2="40.98527502056537" class="delaunay-line"/>
<line x1="23.71743532188319" y1="40.98527502056537" x2="11.84495885806951" y2="41.125770475618005" class="delaunay-line"/>
<line x1="3.6796990478299234" y1="41.779627793389764" x2="4.168772848196826" y2="41.67567194798089" class="delaunay-line"/>
<line x1="4.168772848196826" y1="41.67567194798089" x2="5.701204540848801" y2="36.441841451284944" class="delaunay-line"/>
<line x1="5.701204540848801" y1="36.441841451284944" x2="3.6796990478299234" y2="41.779627793389764" class="delaunay-line"/>
<line x1="3.6796990478299234" y1="41.779627793389764" x2="5.701204540848801" y2="36.441841451284944" class="delaunay-line"/>
<line x1="5.701204540848801" y1="36.441841451284944" x2="5.347651150255528" y2="36.08828806069167" class="delaunay-line"/>
<line x1="5.347651150255528" y1="36.08828806069167" x2="3.6796990478299234" y2="41.779627793389764" class="delaunay-line"/>
<line x1="1.3552103835605886" y1="30.53774175857659" x2="3.6796990478299234" y2="41.779627793389764" class="delaunay-line"/>
<line x1="3.6796990478299234" y1="41.779627793389764" x2="5.347651150255528" y2="36.08828806069167" class="delaunay-line"/>
<line x1="5.347651150255528" y1="36.08828806069167" x2="1.3552103835605886" y2="30.53774175857659" class="delaunay-line"/>
<line x1="4.168772848196826" y1="41.67567194798089" x2="5.416242993103382" y2="47.54455755238372" class="delaunay-line"/>
<line x1="5.416242993103382" y1="47.54455755238372" x2="11.435382835925015" y2="40.83898225744249" class="delaunay-line"/>
<line x1="11.435382835925015" y1="40.83898225744249" x2="4.168772848196826" y2="41.67567194798089" class="delaunay-line"/>
<line x1="4.927169192736479" y1="47.6485133977926" x2="5.416242993103382" y2="47.54455755238372" class="delaunay-line"/>
<line x1="5.416242993103382" y1="47.54455755238372" x2="4.168772848196826" y2="41.67567194798089" class="delaunay-line"/>
<line x1="4.168772848196826" y1="41.67567194798089" x2="4.927169192736479" y2="47.6485133977926" class="delaunay-line"/>
<line x1="23.71743532188319" y1="40.98527502056537" x2="48" y2="48" class="delaunay-line"/>
<line x1="48" y1="48" x2="24.711957217251463" y2="40.88074655729771" class="delaunay-line"/>
<line x1="24.711957217251463" y1="40.88074655729771" x2="23.71743532188319" y2="40.98527502056537" class="delaunay-line"/>
<line x1="3.6796990478299234" y1="41.779627793389764" x2="4.927169192736479" y2="47.6485133977926" class="delaunay-line"/>
<line x1="4.927169192736479" y1="47.6485133977926" x2="4.168772848196826" y2="41.67567194798089" class="delaunay-line"/>
<line x1="4.168772848196826" y1="41.67567194798089" x2="3.6796990478299234" y2="41.779627793389764" class="delaunay-line"/>
<line x1="1.3552103835605886" y1="30.53774175857659" x2="0" y2="48" class="delaunay-line"/>
<line x1="0" y1="48" x2="3.6796990478299234" y2="41.779627793389764" class="delaunay-line"/>
<line x1="3.6796990478299234" y1="41.779627793389764" x2="1.3552103835605886" y2="30.53774175857659" class="delaunay-line"/>
<line x1="3.6796990478299234" y1="41.779627793389764" x2="0" y2="48" class="delaunay-line"/>
<line x1="0" y1="48" x2="4.927169192736479" y2="47.6485133977926" class="delaunay-line"/>
<line x1="4.927169192736479" y1="47.6485133977926" x2="3.6796990478299234" y2="41.779627793389764" class="delaunay-line"/>
<line x1="0" y1="0" x2="0" y2="48" class="delaunay-line"/>
<line x1="0" y1="48" x2="1.3552103835605886" y2="30.53774175857659" class="delaunay-line"/>
<line x1="1.3552103835605886" y1="30.53774175857659" x2="0" y2="0" class="delaunay-line"/>
<line x1="48" y1="0" x2="0" y2="0" class="delaunay-line"/>
<line x1="0" y1="0" x2="22.414605295962577" y2="10.16254299870559" class="delaunay-line"/>
<line x1="22.414605295962577" y1="10.16254299870559" x2="48" y2="0" class="delaunay-line"/>
<line x1="22.414605295962577" y1="10.16254299870559" x2="0" y2="0" class="delaunay-line"/>
<line x1="0" y1="0" x2="10.797322068531104" y2="18.968024630121434" class="delaunay-line"/>
<line x1="10.797322068531104" y1="18.968024630121434" x2="22.414605295962577" y2="10.16254299870559" class="delaunay-line"/>
<line x1="10.797322068531104" y1="18.968024630121434" x2="0" y2="0" class="delaunay-line"/>
<line x1="0" y1="0" x2="4.673294168927044" y2="23.91595316920273" class="delaunay-line"/>
<line x1="4.673294168927044" y1="23.91595316920273" x2="10.797322068531104" y2="18.968024630121434" class="delaunay-line"/>
<line x1="4.673294168927044" y1="23.91595316920273" x2="0" y2="0" class="delaunay-line"/>
<line x1="0" y1="0" x2="4.469925847389145" y2="24.37272589802403" class="delaunay-line"/>
<line x1="4.469925847389145" y1="24.37272589802403" x2="4.673294168927044" y2="23.91595316920273" class="delaunay-line"/>
<line x1="1.372660131911839" y1="30.03804634506704" x2="0" y2="0" class="delaunay-line"/>
<line x1="0" y1="0" x2="1.3552103835605886" y2="30.53774175857659" class="delaunay-line"/>
<line x1="1.3552103835605886" y1="30.53774175857659" x2="1.372660131911839" y2="30.03804634506704" class="delaunay-line"/>
<line x1="24.711957217251463" y1="40.88074655729771" x2="48" y2="48" class="delaunay-line"/>
<line x1="48" y1="48" x2="33.602753858176435" y2="37.525012661965214" class="delaunay-line"/>
<line x1="33.602753858176435" y1="37.525012661965214" x2="24.711957217251463" y2="40.88074655729771" class="delaunay-line"/>
<line x1="33.602753858176435" y1="37.525012661965214" x2="48" y2="48" class="delaunay-line"/>
<line x1="48" y1="48" x2="43.32509094619601" y2="33.098663569504204" class="delaunay-line"/>
<line x1="43.32509094619601" y1="33.098663569504204" x2="33.602753858176435" y2="37.525012661965214" class="delaunay-line"/>
<line x1="43.32509094619601" y1="33.098663569504204" x2="48" y2="48" class="delaunay-line"/>
<line x1="48" y1="48" x2="43.31636474297737" y2="32.598739721926" class="delaunay-line"/>
<line x1="43.31636474297737" y1="32.598739721926" x2="43.32509094619601" y2="33.098663569504204" class="delaunay-line"/>
<line x1="5.416242993103382" y1="47.54455755238372" x2="48" y2="48" class="delaunay-line"/>
<line x1="48" y1="48" x2="23.71743532188319" y2="40.98527502056537" class="delaunay-line"/>
<line x1="23.71743532188319" y1="40.98527502056537" x2="5.416242993103382" y2="47.54455755238372" class="delaunay-line"/>
<line x1="4.927169192736479" y1="47.6485133977926" x2="48" y2="48" class="delaunay-line"/>
<line x1="48" y1="48" x2="5.416242993103382" y2="47.54455755238372" class="delaunay-line"/>
<line x1="5.416242993103382" y1="47.54455755238372" x2="4.927169192736479" y2="47.6485133977926" class="delaunay-line"/>
<line x1="0" y1="48" x2="48" y2="48" class="delaunay-line"/>
<line x1="48" y1="48" x2="4.927169192736479" y2="47.6485133977926" class="delaunay-line"/>
<line x1="4.927169192736479" y1="47.6485133977926" x2="0" y2="48" class="delaunay-line"/>
<line x1="38.44328019198581" y1="17.12898054249563" x2="48" y2="0" class="delaunay-line"/>
<line x1="48" y1="0" x2="36.16065318899567" y2="15.812666592734194" class="delaunay-line"/>
<line x1="36.16065318899567" y1="15.812666592734194" x2="38.44328019198581" y2="17.12898054249563" class="delaunay-line"/>
<line x1="36.16065318899567" y1="15.812666592734194" x2="48" y2="0" class="delaunay-line"/>
<line x1="48" y1="0" x2="35.69386297574707" y2="15.633482617961546" class="delaunay-line"/>
<line x1="35.69386297574707" y1="15.633482617961546" x2="36.16065318899567" y2="15.812666592734194" class="delaunay-line"/>
<line x1="43.41750562731606" y1="20.484137963320112" x2="48" y2="0" class="delaunay-line"/>
<line x1="48" y1="0" x2="38.44328019198581" y2="17.12898054249563" class="delaunay-line"/>
<line x1="38.44328019198581" y1="17.12898054249563" x2="43.41750562731606" y2="20.484137963320112" class="delaunay-line"/>
<line x1="48" y1="48" x2="48" y2="0" class="delaunay-line"/>
<line x1="48" y1="0" x2="43.41750562731606" y2="20.484137963320112" class="delaunay-line"/>
<line x1="43.41750562731606" y1="20.484137963320112" x2="48" y2="48" class="delaunay-line"/>
</g>
<g id="layer-area" class="layer ">
</g>
<g id="layer-building" class="layer ">
</g>
<g id="layer-wall" class="layer ">
<polygon points="10.578136495136564,19.41742165327102 10.797322068531104,18.968024630121434 16.190086346326105,21.598251510855896 15.970900772931566,22.047648534005482" class="terrain-solid"/>
<text x="13.384111420731335" y="20.507836582063458" class="label">#555555</text>
<polygon points="40.57599501254938,27.49449984949938 40.45503406474955,27.979647712637377 34.633259707093565,26.528116339039368 34.754220654893395,26.04296847590137" class="terrain-solid"/>
<text x="37.60462735982147" y="27.011308094269374" class="label">#555555</text>
<polygon points="33.602753858176435,37.525012661965214 33.11034998167033,37.43818857313175 34.15223904767192,31.5293420550585 34.64464292417802,31.616166143891967" class="terrain-solid"/>
<text x="33.87749645292418" y="34.52717735851186" class="label">#555555</text>
<polygon points="5.416242993103382,47.54455755238372 4.927169192736479,47.6485133977926 3.6796990478299234,41.779627793389764 4.168772848196826,41.67567194798089" class="terrain-solid"/>
<text x="4.547971020466653" y="44.66209267288674" class="label">#555555</text>
<polygon points="19.023299278253365,17.476847032190204 18.17525118209694,16.946927767957 22.414605295962577,10.16254299870559 23.262653392119002,10.692462262938793" class="terrain-solid"/>
<text x="20.71895228710797" y="13.819695015447895" class="label">#555555</text>
<polygon points="11.84495885806951,41.125770475618005 11.435382835925015,40.83898225744249 14.87684145403129,35.92406999170854 15.286417476175785,36.21085820988406" class="terrain-solid"/>
<text x="13.3609001560504" y="38.52492023366327" class="label">#555555</text>
<polygon points="37.32600477525766,33.203378008127906 37.317278572039015,32.703454160549704 43.31636474297737,32.598739721926 43.32509094619601,33.098663569504204" class="terrain-solid"/>
<text x="40.321184759117514" y="32.901058865026954" class="label">#555555</text>
<polygon points="21.646307246833725,28.776813033350813 21.40438535123406,29.747108759626812 13.642019541026086,27.81173359482947 13.883941436625753,26.84143786855347" class="terrain-solid"/>
<text x="17.644163393929905" y="28.29427331409014" class="label">#555555</text>
<polygon points="25.200462128202865,25.268683203894753 25.200462128202865,25.768683203894753 19.200462128202865,25.768683203894753 19.200462128202865,25.268683203894753" class="terrain-solid"/>
<text x="22.200462128202865" y="25.518683203894753" class="label">#555555</text>
<polygon points="5.701204540848801,36.441841451284944 5.347651150255528,36.08828806069167 9.590291837374812,31.84564737357238 9.943845227968085,32.19920076416565" class="terrain-solid"/>
<text x="7.645748189111806" y="34.14374441242866" class="label">#555555</text>
<polygon points="43.41750562731606,20.484137963320112 43.13790917558069,20.89865674959763 38.163683740250434,17.543499328773148 38.44328019198581,17.12898054249563" class="terrain-solid"/>
<text x="40.79059468378325" y="19.01381864604663" class="label">#555555</text>
<polygon points="10.154566914782649,26.356373027657533 9.95119859324475,26.813145756478832 4.469925847389145,24.37272589802403 4.673294168927044,23.91595316920273" class="terrain-solid"/>
<text x="7.312246381085897" y="25.364549462840785" class="label">#555555</text>
<polygon points="20.77710245015936,30.80632001681529 20.77710245015936,31.80632001681529 12.777102450159362,31.80632001681529 12.777102450159362,30.80632001681529" class="terrain-solid"/>
<text x="16.77710245015936" y="31.30632001681529" class="label">#555555</text>
<polygon points="24.711957217251463,40.88074655729771 23.71743532188319,40.98527502056537 22.88120761574196,33.02909985761919 23.875729511110233,32.92457139435153" class="terrain-solid"/>
<text x="23.79658241649671" y="36.95492320745845" class="label">#555555</text>
<polygon points="1.3552103835605886,30.53774175857659 1.372660131911839,30.03804634506704 7.369005094026413,30.247443325282045 7.351555345675163,30.747138738791595" class="terrain-solid"/>
<text x="4.362107738793501" y="30.392592541929318" class="label">#555555</text>
<polygon points="35.69386297574707,15.633482617961546 36.16065318899567,15.812666592734194 34.01044549172387,21.414149151717403 33.54365527847527,21.234965176944755" class="terrain-solid"/>
<text x="34.85215423373547" y="18.523815884839475" class="label">#555555</text>
</g>
<g id="layer-tree" class="layer ">
</g>
<g id="layer-rocks" class="layer ">
</g>
<g id="layer-shrub" class="layer ">
</g>
<g id="layer-terrain" class="layer ">
</g>
<g id="layer-clearance" class="layer hidden">
</g>
<g id="layer-models" class="layer ">
</g>
<g id="layer-paths" class="layer ">
</g>
<g id="layer-vectors" class="layer ">
</g>
<g id="layer-los" class="layer ">
</g>
<g id="layer-lof" class="layer ">
</g>

<g id="legend">
<g class="toggle" onclick="toggleLayer('deployment')"><rect x="0.4" y="0.14999999999999997" width="0.4" height="0.4" fill="#222" stroke="#222" stroke-width="0.05"/><text x="1.0" y="0.5499999999999999" class="label">Deployment Zones</text></g>
<g class="toggle" onclick="toggleLayer('grid')"><rect x="0.4" y="0.95" width="0.4" height="0.4" fill="#222" stroke="#222" stroke-width="0.05"/><text x="1.0" y="1.3499999999999999" class="label">0.5 MU Grid</text></g>
<g class="toggle" onclick="toggleLayer('delaunay')"><rect x="0.4" y="1.7500000000000002" width="0.4" height="0.4" fill="#222" stroke="#222" stroke-width="0.05"/><text x="1.0" y="2.1500000000000004" class="label">Delaunay Mesh</text></g>
<g class="toggle disabled"><rect x="0.4" y="2.55" width="0.4" height="0.4" fill="#222" stroke="#222" stroke-width="0.05"/><text x="1.0" y="2.95" class="label">Area Terrain</text></g>
<g class="toggle disabled"><rect x="0.4" y="3.3499999999999996" width="0.4" height="0.4" fill="#222" stroke="#222" stroke-width="0.05"/><text x="1.0" y="3.75" class="label">Buildings</text></g>
<g class="toggle" onclick="toggleLayer('wall')"><rect x="0.4" y="4.1499999999999995" width="0.4" height="0.4" fill="#222" stroke="#222" stroke-width="0.05"/><text x="1.0" y="4.55" class="label">Walls</text></g>
<g class="toggle disabled"><rect x="0.4" y="4.949999999999999" width="0.4" height="0.4" fill="#222" stroke="#222" stroke-width="0.05"/><text x="1.0" y="5.35" class="label">Trees</text></g>
<g class="toggle disabled"><rect x="0.4" y="5.749999999999999" width="0.4" height="0.4" fill="#222" stroke="#222" stroke-width="0.05"/><text x="1.0" y="6.1499999999999995" class="label">Rocks</text></g>
<g class="toggle disabled"><rect x="0.4" y="6.549999999999999" width="0.4" height="0.4" fill="#222" stroke="#222" stroke-width="0.05"/><text x="1.0" y="6.949999999999999" class="label">Shrubs</text></g>
<g class="toggle" onclick="toggleLayer('terrain')"><rect x="0.4" y="7.349999999999999" width="0.4" height="0.4" fill="#222" stroke="#222" stroke-width="0.05"/><text x="1.0" y="7.749999999999999" class="label">Other Terrain</text></g>
<g class="toggle" onclick="toggleLayer('clearance')"><rect x="0.4" y="8.15" width="0.4" height="0.4" fill="#fff" stroke="#222" stroke-width="0.05"/><text x="1.0" y="8.549999999999999" class="label">Clearance Zones</text></g>
<g class="toggle" onclick="toggleLayer('models')"><rect x="0.4" y="8.950000000000001" width="0.4" height="0.4" fill="#222" stroke="#222" stroke-width="0.05"/><text x="1.0" y="9.35" class="label">Models</text></g>
<g class="toggle" onclick="toggleLayer('paths')"><rect x="0.4" y="9.750000000000002" width="0.4" height="0.4" fill="#222" stroke="#222" stroke-width="0.05"/><text x="1.0" y="10.15" class="label">Paths</text></g>
<g class="toggle" onclick="toggleLayer('vectors')"><rect x="0.4" y="10.550000000000002" width="0.4" height="0.4" fill="#222" stroke="#222" stroke-width="0.05"/><text x="1.0" y="10.950000000000001" class="label">Vectors</text></g>
<g class="toggle" onclick="toggleLayer('los')"><rect x="0.4" y="11.350000000000003" width="0.4" height="0.4" fill="#222" stroke="#222" stroke-width="0.05"/><text x="1.0" y="11.750000000000002" class="label">LOS</text></g>
<g class="toggle" onclick="toggleLayer('lof')"><rect x="0.4" y="12.150000000000004" width="0.4" height="0.4" fill="#222" stroke="#222" stroke-width="0.05"/><text x="1.0" y="12.550000000000002" class="label">LOF</text></g>
</g>
</svg>