<svg xmlns="http://www.w3.org/2000/svg" viewBox="0 0 48 48" width="1920" height="1920" font-family="Arial" font-size="0.6">
<defs>
  <style><![CDATA[
    .layer { display: inline; }
    .layer.hidden { display: none; }
    .grid-line { stroke: #999; stroke-width: 0.02; opacity: 0.2; }
    .grid-line-2mu { stroke: #666; stroke-width: 0.04; opacity: 0.4; }
    .grid-line-6mu { stroke: #333; stroke-width: 0.08; opacity: 0.6; }
    .delaunay-line { stroke: #4a6fa5; stroke-width: 0.03; opacity: 0.3; }
    #layer-area { opacity: 0.8; }
    #layer-building, #layer-wall, #layer-tree, #layer-rocks, #layer-shrub, #layer-terrain { opacity: 0.8; }
    .terrain-area { stroke: none; }
    .terrain-solid { stroke: #000; stroke-width: 0.05; }
    .model { stroke: #ff0000; stroke-width: 2; vector-effect: non-scaling-stroke; }
    .path { fill: none; stroke-width: 0.12; }
    .vector { stroke-width: 0.1; }
    .los-ray { stroke-width: 0.08; stroke-dasharray: 0.2 0.2; }
    .lof-ray { stroke-width: 0.08; stroke-dasharray: 0.3 0.15; }
    .label { fill: #111 !important; font-size: 0.6px; }
    .toggle { cursor: pointer; }
    .toggle.disabled { cursor: default; }
    .toggle.disabled rect { stroke: #ccc; fill: #fff; }
    .toggle.disabled text { fill: #ccc; }
#layer-wall { fill: #555555; }
  ]]></style>
</defs>
<rect x="0" y="0" width="48" height="48" fill="#ffffff" stroke="#111" stroke-width="0.05"/>
<script><![CDATA[
      function toggleLayer(id) {
        var layer = document.getElementById('layer-' + id);
        if (!layer) return;
        if (layer.classList.contains('hidden')) {
          layer.classList.remove('hidden');
        } else {
          layer.classList.add('hidden');
        }
      }
    ]]></script>
<text x="0.4" y="47.6" class="label">LARGE battlefield_A0-B0-W20-R0-S0-T0</text>
<g id="layer-deployment" class="layer ">
</g>
<g id="layer-grid" class="layer ">
<line x1="0" y1="0" x2="0" y2="48" class="grid-line-6mu"/>
<line x1="0.5" y1="0" x2="0.5" y2="48" class="grid-line"/>
<line x1="1" y1="0" x2="1" y2="48" class="grid-line"/>
<line x1="1.5" y1="0" x2="1.5" y2="48" class="grid-line"/>
<line x1="2" y1="0" x2="2" y2="48" class="grid-line-2mu"/>
<line x1="2.5" y1="0" x2="2.5" y2="48" class="grid-line"/>
<line x1="3" y1="0" x2="3" y2="48" class="grid-line"/>
<line x1="3.5" y1="0" x2="3.5" y2="48" class="grid-line"/>
<line x1="4" y1="0" x2="4" y2="48" class="grid-line-2mu"/>
<line x1="4.5" y1="0" x2="4.5" y2="48" class="grid-line"/>
<line x1="5" y1="0" x2="5" y2="48" class="grid-line"/>
<line x1="5.5" y1="0" x2="5.5" y2="48" class="grid-line"/>
<line x1="6" y1="0" x2="6" y2="48" class="grid-line-6mu"/>
<line x1="6.5" y1="0" x2="6.5" y2="48" class="grid-line"/>
<line x1="7" y1="0" x2="7" y2="48" class="grid-line"/>
<line x1="7.5" y1="0" x2="7.5" y2="48" class="grid-line"/>
<line x1="8" y1="0" x2="8" y2="48" class="grid-line-2mu"/>
<line x1="8.5" y1="0" x2="8.5" y2="48" class="grid-line"/>
<line x1="9" y1="0" x2="9" y2="48" class="grid-line"/>
<line x1="9.5" y1="0" x2="9.5" y2="48" class="grid-line"/>
<line x1="10" y1="0" x2="10" y2="48" class="grid-line-2mu"/>
<line x1="10.5" y1="0" x2="10.5" y2="48" class="grid-line"/>
<line x1="11" y1="0" x2="11" y2="48" class="grid-line"/>
<line x1="11.5" y1="0" x2="11.5" y2="48" class="grid-line"/>
<line x1="12" y1="0" x2="12" y2="48" class="grid-line-6mu"/>
<line x1="12.5" y1="0" x2="12.5" y2="48" class="grid-line"/>
<line x1="13" y1="0" x2="13" y2="48" class="grid-line"/>
<line x1="13.5" y1="0" x2="13.5" y2="48" class="grid-line"/>
<line x1="14" y1="0" x2="14" y2="48" class="grid-line-2mu"/>
<line x1="14.5" y1="0" x2="14.5" y2="48" class="grid-line"/>
<line x1="15" y1="0" x2="15" y2="48" class="grid-line"/>
<line x1="15.5" y1="0" x2="15.5" y2="48" class="grid-line"/>
<line x1="16" y1="0" x2="16" y2="48" class="grid-line-2mu"/>
<line x1="16.5" y1="0" x2="16.5" y2="48" class="grid-line"/>
<line x1="17" y1="0" x2="17" y2="48" class="grid-line"/>
<line x1="17.5" y1="0" x2="17.5" y2="48" class="grid-line"/>
<line x1="18" y1="0" x2="18" y2="48" class="grid-line-6mu"/>
<line x1="18.5" y1="0" x2="18.5" y2="48" class="grid-line"/>
<line x1="19" y1="0" x2="19" y2="48" class="grid-line"/>
<line x1="19.5" y1="0" x2="19.5" y2="48" class="grid-line"/>
<line x1="20" y1="0" x2="20" y2="48" class="grid-line-2mu"/>
<line x1="20.5" y1="0" x2="20.5" y2="48" class="grid-line"/>
<line x1="21" y1="0" x2="21" y2="48" class="grid-line"/>
<line x1="21.5" y1="0" x2="21.5" y2="48" class="grid-line"/>
<line x1="22" y1="0" x2="22" y2="48" class="grid-line-2mu"/>
<line x1="22.5" y1="0" x2="22.5" y2="48" class="grid-line"/>
<line x1="23" y1="0" x2="23" y2="48" class="grid-line"/>
<line x1="23.5" y1="0" x2="23.5" y2="48" class="grid-line"/>
<line x1="24" y1="0" x2="24" y2="48" class="grid-line-6mu"/>
<line x1="24.5" y1="0" x2="24.5" y2="48" class="grid-line"/>
<line x1="25" y1="0" x2="25" y2="48" class="grid-line"/>
<line x1="25.5" y1="0" x2="25.5" y2="48" class="grid-line"/>
<line x1="26" y1="0" x2="26" y2="48" class="grid-line-2mu"/>
<line x1="26.5" y1="0" x2="26.5" y2="48" class="grid-line"/>
<line x1="27" y1="0" x2="27" y2="48" class="grid-line"/>
<line x1="27.5" y1="0" x2="27.5" y2="48" class="grid-line"/>
<line x1="28" y1="0" x2="28" y2="48" class="grid-line-2mu"/>
<line x1="28.5" y1="0" x2="28.5" y2="48" class="grid-line"/>
<line x1="29" y1="0" x2="29" y2="48" class="grid-line"/>
<line x1="29.5" y1="0" x2="29.5" y2="48" class="grid-line"/>
<line x1="30" y1="0" x2="30" y2="48" class="grid-line-6mu"/>
<line x1="30.5" y1="0" x2="30.5" y2="48" class="grid-line"/>
<line x1="31" y1="0" x2="31" y2="48" class="grid-line"/>
<line x1="31.5" y1="0" x2="31.5" y2="48" class="grid-line"/>
<line x1="32" y1="0" x2="32" y2="48" class="grid-line-2mu"/>
<line x1="32.5" y1="0" x2="32.5" y2="48" class="grid-line"/>
<line x1="33" y1="0" x2="33" y2="48" class="grid-line"/>
<line x1="33.5" y1="0" x2="33.5" y2="48" class="grid-line"/>
<line x1="34" y1="0" x2="34" y2="48" class="grid-line-2mu"/>
<line x1="34.5" y1="0" x2="34.5" y2="48" class="grid-line"/>
<line x1="35" y1="0" x2="35" y2="48" class="grid-line"/>
<line x1="35.5" y1="0" x2="35.5" y2="48" class="grid-line"/>
<line x1="36" y1="0" x2="36" y2="48" class="grid-line-6mu"/>
<line x1="36.5" y1="0" x2="36.5" y2="48" class="grid-line"/>
<line x1="37" y1="0" x2="37" y2="48" class="grid-line"/>
<line x1="37.5" y1="0" x2="37.5" y2="48" class="grid-line"/>
<line x1="38" y1="0" x2="38" y2="48" class="grid-line-2mu"/>
<line x1="38.5" y1="0" x2="38.5" y2="48" class="grid-line"/>
<line x1="39" y1="0" x2="39" y2="48" class="grid-line"/>
<line x1="39.5" y1="0" x2="39.5" y2="48" class="grid-line"/>
<line x1="40" y1="0" x2="40" y2="48" class="grid-line-2mu"/>
<line x1="40.5" y1="0" x2="40.5" y2="48" class="grid-line"/>
<line x1="41" y1="0" x2="41" y2="48" class="grid-line"/>
<line x1="41.5" y1="0" x2="41.5" y2="48" class="grid-line"/>
<line x1="42" y1="0" x2="42" y2="48" class="grid-line-6mu"/>
<line x1="42.5" y1="0" x2="42.5" y2="48" class="grid-line"/>
<line x1="43" y1="0" x2="43" y2="48" class="grid-line"/>
<line x1="43.5" y1="0" x2="43.5" y2="48" class="grid-line"/>
<line x1="44" y1="0" x2="44" y2="48" class="grid-line-2mu"/>
<line x1="44.5" y1="0" x2="44.5" y2="48" class="grid-line"/>
<line x1="45" y1="0" x2="45" y2="48" class="grid-line"/>
<line x1="45.5" y1="0" x2="45.5" y2="48" class="grid-line"/>
<line x1="46" y1="0" x2="46" y2="48" class="grid-line-2mu"/>
<line x1="46.5" y1="0" x2="46.5" y2="48" class="grid-line"/>
<line x1="47" y1="0" x2="47" y2="48" class="grid-line"/>
<line x1="47.5" y1="0" x2="47.5" y2="48" class="grid-line"/>
<line x1="48" y1="0" x2="48" y2="48" class="grid-line-6mu"/>
<line x1="0" y1="0" x2="48" y2="0" class="grid-line-6mu"/>
<line x1="0" y1="0.5" x2="48" y2="0.5" class="grid-line"/>
<line x1="0" y1="1" x2="48" y2="1" class="grid-line"/>
<line x1="0" y1="1.5" x2="48" y2="1.5" class="grid-line"/>
<line x1="0" y1="2" x2="48" y2="2" class="grid-line-2mu"/>
<line x1="0" y1="2.5" x2="48" y2="2.5" class="grid-line"/>
<line x1="0" y1="3" x2="48" y2="3" class="grid-line"/>
<line x1="0" y1="3.5" x2="48" y2="3.5" class="grid-line"/>
<line x1="0" y1="4" x2="48" y2="4" class="grid-line-2mu"/>
<line x1="0" y1="4.5" x2="48" y2="4.5" class="grid-line"/>
<line x1="0" y1="5" x2="48" y2="5" class="grid-line"/>
<line x1="0" y1="5.5" x2="48" y2="5.5" class="grid-line"/>
<line x1="0" y1="6" x2="48" y2="6" class="grid-line-6mu"/>
<line x1="0" y1="6.5" x2="48" y2="6.5" class="grid-line"/>
<line x1="0" y1="7" x2="48" y2="7" class="grid-line"/>
<line x1="0" y1="7.5" x2="48" y2="7.5" class="grid-line"/>
<line x1="0" y1="8" x2="48" y2="8" class="grid-line-2mu"/>
<line x1="0" y1="8.5" x2="48" y2="8.5" class="grid-line"/>
<line x1="0" y1="9" x2="48" y2="9" class="grid-line"/>
<line x1="0" y1="9.5" x2="48" y2="9.5" class="grid-line"/>
<line x1="0" y1="10" x2="48" y2="10" class="grid-line-2mu"/>
<line x1="0" y1="10.5" x2="48" y2="10.5" class="grid-line"/>
<line x1="0" y1="11" x2="48" y2="11" class="grid-line"/>
<line x1="0" y1="11.5" x2="48" y2="11.5" class="grid-line"/>
<line x1="0" y1="12" x2="48" y2="12" class="grid-line-6mu"/>
<line x1="0" y1="12.5" x2="48" y2="12.5" class="grid-line"/>
<line x1="0" y1="13" x2="48" y2="13" class="grid-line"/>
<line x1="0" y1="13.5" x2="48" y2="13.5" class="grid-line"/>
<line x1="0" y1="14" x2="48" y2="14" class="grid-line-2mu"/>
<line x1="0" y1="14.5" x2="48" y2="14.5" class="grid-line"/>
<line x1="0" y1="15" x2="48" y2="15" class="grid-line"/>
<line x1="0" y1="15.5" x2="48" y2="15.5" class="grid-line"/>
<line x1="0" y1="16" x2="48" y2="16" class="grid-line-2mu"/>
<line x1="0" y1="16.5" x2="48" y2="16.5" class="grid-line"/>
<line x1="0" y1="17" x2="48" y2="17" class="grid-line"/>
<line x1="0" y1="17.5" x2="48" y2="17.5" class="grid-line"/>
<line x1="0" y1="18" x2="48" y2="18" class="grid-line-6mu"/>
<line x1="0" y1="18.5" x2="48" y2="18.5" class="grid-line"/>
<line x1="0" y1="19" x2="48" y2="19" class="grid-line"/>
<line x1="0" y1="19.5" x2="48" y2="19.5" class="grid-line"/>
<line x1="0" y1="20" x2="48" y2="20" class="grid-line-2mu"/>
<line x1="0" y1="20.5" x2="48" y2="20.5" class="grid-line"/>
<line x1="0" y1="21" x2="48" y2="21" class="grid-line"/>
<line x1="0" y1="21.5" x2="48" y2="21.5" class="grid-line"/>
<line x1="0" y1="22" x2="48" y2="22" class="grid-line-2mu"/>
<line x1="0" y1="22.5" x2="48" y2="22.5" class="grid-line"/>
<line x1="0" y1="23" x2="48" y2="23" class="grid-line"/>
<line x1="0" y1="23.5" x2="48" y2="23.5" class="grid-line"/>
<line x1="0" y1="24" x2="48" y2="24" class="grid-line-6mu"/>
<line x1="0" y1="24.5" x2="48" y2="24.5" class="grid-line"/>
<line x1="0" y1="25" x2="48" y2="25" class="grid-line"/>
<line x1="0" y1="25.5" x2="48" y2="25.5" class="grid-line"/>
<line x1="0" y1="26" x2="48" y2="26" class="grid-line-2mu"/>
<line x1="0" y1="26.5" x2="48" y2="26.5" class="grid-line"/>
<line x1="0" y1="27" x2="48" y2="27" class="grid-line"/>
<line x1="0" y1="27.5" x2="48" y2="27.5" class="grid-line"/>
<line x1="0" y1="28" x2="48" y2="28" class="grid-line-2mu"/>
<line x1="0" y1="28.5" x2="48" y2="28.5" class="grid-line"/>
<line x1="0" y1="29" x2="48" y2="29" class="grid-line"/>
<line x1="0" y1="29.5" x2="48" y2="29.5" class="grid-line"/>
<line x1="0" y1="30" x2="48" y2="30" class="grid-line-6mu"/>
<line x1="0" y1="30.5" x2="48" y2="30.5" class="grid-line"/>
<line x1="0" y1="31" x2="48" y2="31" class="grid-line"/>
<line x1="0" y1="31.5" x2="48" y2="31.5" class="grid-line"/>
<line x1="0" y1="32" x2="48" y2="32" class="grid-line-2mu"/>
<line x1="0" y1="32.5" x2="48" y2="32.5" class="grid-line"/>
<line x1="0" y1="33" x2="48" y2="33" class="grid-line"/>
<line x1="0" y1="33.5" x2="48" y2="33.5" class="grid-line"/>
<line x1="0" y1="34" x2="48" y2="34" class="grid-line-2mu"/>
<line x1="0" y1="34.5" x2="48" y2="34.5" class="grid-line"/>
<line x1="0" y1="35" x2="48" y2="35" class="grid-line"/>
<line x1="0" y1="35.5" x2="48" y2="35.5" class="grid-line"/>
<line x1="0" y1="36" x2="48" y2="36" class="grid-line-6mu"/>
<line x1="0" y1="36.5" x2="48" y2="36.5" class="grid-line"/>
<line x1="0" y1="37" x2="48" y2="37" class="grid-line"/>
<line x1="0" y1="37.5" x2="48" y2="37.5" class="grid-line"/>
<line x1="0" y1="38" x2="48" y2="38" class="grid-line-2mu"/>
<line x1="0" y1="38.5" x2="48" y2="38.5" class="grid-line"/>
<line x1="0" y1="39" x2="48" y2="39" class="grid-line"/>
<line x1="0" y1="39.5" x2="48" y2="39.5" class="grid-line"/>
<line x1="0" y1="40" x2="48" y2="40" class="grid-line-2mu"/>
<line x1="0" y1="40.5" x2="48" y2="40.5" class="grid-line"/>
<line x1="0" y1="41" x2="48" y2="41" class="grid-line"/>
<line x1="0" y1="41.5" x2="48" y2="41.5" class="grid-line"/>
<line x1="0" y1="42" x2="48" y2="42" class="grid-line-6mu"/>
<line x1="0" y1="42.5" x2="48" y2="42.5" class="grid-line"/>
<line x1="0" y1="43" x2="48" y2="43" class="grid-line"/>
<line x1="0" y1="43.5" x2="48" y2="43.5" class="grid-line"/>
<line x1="0" y1="44" x2="48" y2="44" class="grid-line-2mu"/>
<line x1="0" y1="44.5" x2="48" y2="44.5" class="grid-line"/>
<line x1="0" y1="45" x2="48" y2="45" class="grid-line"/>
<line x1="0" y1="45.5" x2="48" y2="45.5" class="grid-line"/>
<line x1="0" y1="46" x2="48" y2="46" class="grid-line-2mu"/>
<line x1="0" y1="46.5" x2="48" y2="46.5" class="grid-line"/>
<line x1="0" y1="47" x2="48" y2="47" class="grid-line"/>
<line x1="0" y1="47.5" x2="48" y2="47.5" class="grid-line"/>
<line x1="0" y1="48" x2="48" y2="48" class="grid-line-6mu"/>
</g>
<g id="layer-delaunay" class="layer ">
<line x1="21.719933649367775" y1="23.234320766160934" x2="21.954669430760717" y2="22.79284696973147" class="delaunay-line"/>
<line x1="21.954669430760717" y1="22.79284696973147" x2="19.189400269600245" y2="19.558685021520077" class="delaunay-line"/>
<line x1="19.189400269600245" y1="19.558685021520077" x2="21.719933649367775" y2="23.234320766160934" class="delaunay-line"/>
<line x1="21.954669430760717" y1="22.79284696973147" x2="20.17420802261245" y2="19.385036843853147" class="delaunay-line"/>
<line x1="20.17420802261245" y1="19.385036843853147" x2="19.189400269600245" y2="19.558685021520077" class="delaunay-line"/>
<line x1="19.189400269600245" y1="19.558685021520077" x2="21.954669430760717" y2="22.79284696973147" class="delaunay-line"/>
<line x1="19.189400269600245" y1="19.558685021520077" x2="14.005797910077439" y2="23.65456737242706" class="delaunay-line"/>
<line x1="14.005797910077439" y1="23.65456737242706" x2="21.719933649367775" y2="23.234320766160934" class="delaunay-line"/>
<line x1="21.719933649367775" y1="23.234320766160934" x2="19.189400269600245" y2="19.558685021520077" class="delaunay-line"/>
<line x1="19.189400269600245" y1="19.558685021520077" x2="13.66377776675177" y2="22.714874751641155" class="delaunay-line"/>
<line x1="13.66377776675177" y1="22.714874751641155" x2="14.005797910077439" y2="23.65456737242706" class="delaunay-line"/>
<line x1="14.005797910077439" y1="23.65456737242706" x2="19.189400269600245" y2="19.558685021520077" class="delaunay-line"/>
<line x1="14.005797910077439" y1="23.65456737242706" x2="16.103861205191215" y2="28.58784682223887" class="delaunay-line"/>
<line x1="16.103861205191215" y1="28.58784682223887" x2="21.719933649367775" y2="23.234320766160934" class="delaunay-line"/>
<line x1="21.719933649367775" y1="23.234320766160934" x2="14.005797910077439" y2="23.65456737242706" class="delaunay-line"/>
<line x1="10.170270888014574" y1="29.60887862777069" x2="16.147439076565046" y2="29.08594417128474" class="delaunay-line"/>
<line x1="16.147439076565046" y1="29.08594417128474" x2="16.103861205191215" y2="28.58784682223887" class="delaunay-line"/>
<line x1="16.103861205191215" y1="28.58784682223887" x2="10.170270888014574" y2="29.60887862777069" class="delaunay-line"/>
<line x1="16.103861205191215" y1="28.58784682223887" x2="22.590956706356142" y2="30.916230955096523" class="delaunay-line"/>
<line x1="22.590956706356142" y1="30.916230955096523" x2="21.719933649367775" y2="23.234320766160934" class="delaunay-line"/>
<line x1="21.719933649367775" y1="23.234320766160934" x2="16.103861205191215" y2="28.58784682223887" class="delaunay-line"/>
<line x1="21.719933649367775" y1="23.234320766160934" x2="27.25235498791428" y2="25.60967634644681" class="delaunay-line"/>
<line x1="27.25235498791428" y1="25.60967634644681" x2="21.954669430760717" y2="22.79284696973147" class="delaunay-line"/>
<line x1="21.954669430760717" y1="22.79284696973147" x2="21.719933649367775" y2="23.234320766160934" class="delaunay-line"/>
<line x1="21.954669430760717" y1="22.79284696973147" x2="24.967925185259332" y2="12.37943648160775" class="delaunay-line"/>
<line x1="24.967925185259332" y1="12.37943648160775" x2="20.17420802261245" y2="19.385036843853147" class="delaunay-line"/>
<line x1="20.17420802261245" y1="19.385036843853147" x2="21.954669430760717" y2="22.79284696973147" class="delaunay-line"/>
<line x1="27.01761920652134" y1="26.051150142876274" x2="27.25235498791428" y2="25.60967634644681" class="delaunay-line"/>
<line x1="27.25235498791428" y1="25.60967634644681" x2="21.719933649367775" y2="23.234320766160934" class="delaunay-line"/>
<line x1="21.719933649367775" y1="23.234320766160934" x2="27.01761920652134" y2="26.051150142876274" class="delaunay-line"/>
<line x1="22.590956706356142" y1="30.916230955096523" x2="27.01761920652134" y2="26.051150142876274" class="delaunay-line"/>
<line x1="27.01761920652134" y1="26.051150142876274" x2="21.719933649367775" y2="23.234320766160934" class="delaunay-line"/>
<line x1="21.719933649367775" y1="23.234320766160934" x2="22.590956706356142" y2="30.916230955096523" class="delaunay-line"/>
<line x1="16.147439076565046" y1="29.08594417128474" x2="22.590956706356142" y2="30.916230955096523" class="delaunay-line"/>
<line x1="22.590956706356142" y1="30.916230955096523" x2="16.103861205191215" y2="28.58784682223887" class="delaunay-line"/>
<line x1="16.103861205191215" y1="28.58784682223887" x2="16.147439076565046" y2="29.08594417128474" class="delaunay-line"/>
<line x1="16.147439076565046" y1="29.08594417128474" x2="22.49555220866787" y2="31.40704454682036" class="delaunay-line"/>
<line x1="22.49555220866787" y1="31.40704454682036" x2="22.590956706356142" y2="30.916230955096523" class="delaunay-line"/>
<line x1="22.590956706356142" y1="30.916230955096523" x2="16.147439076565046" y2="29.08594417128474" class="delaunay-line"/>
<line x1="22.590956706356142" y1="30.916230955096523" x2="28.480719807042128" y2="32.061084927355786" class="delaunay-line"/>
<line x1="28.480719807042128" y1="32.061084927355786" x2="27.01761920652134" y2="26.051150142876274" class="delaunay-line"/>
<line x1="27.01761920652134" y1="26.051150142876274" x2="22.590956706356142" y2="30.916230955096523" class="delaunay-line"/>
<line x1="20.17420802261245" y1="19.385036843853147" x2="17.800214848264797" y2="11.680222997422415" class="delaunay-line"/>
<line x1="17.800214848264797" y1="11.680222997422415" x2="19.189400269600245" y2="19.558685021520077" class="delaunay-line"/>
<line x1="19.189400269600245" y1="19.558685021520077" x2="20.17420802261245" y2="19.385036843853147" class="delaunay-line"/>
<line x1="19.189400269600245" y1="19.558685021520077" x2="17.800214848264797" y2="11.680222997422415" class="delaunay-line"/>
<line x1="17.800214848264797" y1="11.680222997422415" x2="13.66377776675177" y2="22.714874751641155" class="delaunay-line"/>
<line x1="13.66377776675177" y1="22.714874751641155" x2="19.189400269600245" y2="19.558685021520077" class="delaunay-line"/>
<line x1="18.785022601277003" y1="11.506574819755485" x2="17.800214848264797" y2="11.680222997422415" class="delaunay-line"/>
<line x1="17.800214848264797" y1="11.680222997422415" x2="20.17420802261245" y2="19.385036843853147" class="delaunay-line"/>
<line x1="20.17420802261245" y1="19.385036843853147" x2="18.785022601277003" y2="11.506574819755485" class="delaunay-line"/>
<line x1="24.169289675212042" y1="11.7776214584557" x2="18.785022601277003" y2="11.506574819755485" class="delaunay-line"/>
<line x1="18.785022601277003" y1="11.506574819755485" x2="20.17420802261245" y2="19.385036843853147" class="delaunay-line"/>
<line x1="20.17420802261245" y1="19.385036843853147" x2="24.169289675212042" y2="11.7776214584557" class="delaunay-line"/>
<line x1="27.25235498791428" y1="25.60967634644681" x2="24.967925185259332" y2="12.37943648160775" class="delaunay-line"/>
<line x1="24.967925185259332" y1="12.37943648160775" x2="21.954669430760717" y2="22.79284696973147" class="delaunay-line"/>
<line x1="21.954669430760717" y1="22.79284696973147" x2="27.25235498791428" y2="25.60967634644681" class="delaunay-line"/>
<line x1="24.967925185259332" y1="12.37943648160775" x2="24.169289675212042" y2="11.7776214584557" class="delaunay-line"/>
<line x1="24.169289675212042" y1="11.7776214584557" x2="20.17420802261245" y2="19.385036843853147" class="delaunay-line"/>
<line x1="20.17420802261245" y1="19.385036843853147" x2="24.967925185259332" y2="12.37943648160775" class="delaunay-line"/>
<line x1="24.169289675212042" y1="11.7776214584557" x2="19.911732173605138" y2="9.998695537013774" class="delaunay-line"/>
<line x1="19.911732173605138" y1="9.998695537013774" x2="18.785022601277003" y2="11.506574819755485" class="delaunay-line"/>
<line x1="18.785022601277003" y1="11.506574819755485" x2="24.169289675212042" y2="11.7776214584557" class="delaunay-line"/>
<line x1="18.785022601277003" y1="11.506574819755485" x2="19.911732173605138" y2="9.498695537013774" class="delaunay-line"/>
<line x1="19.911732173605138" y1="9.498695537013774" x2="17.800214848264797" y2="11.680222997422415" class="delaunay-line"/>
<line x1="17.800214848264797" y1="11.680222997422415" x2="18.785022601277003" y2="11.506574819755485" class="delaunay-line"/>
<line x1="6.488256943790171" y1="26.390728519032407" x2="10.126693016640743" y2="29.11078127872482" class="delaunay-line"/>
<line x1="10.126693016640743" y1="29.11078127872482" x2="14.005797910077439" y2="23.65456737242706" class="delaunay-line"/>
<line x1="14.005797910077439" y1="23.65456737242706" x2="6.488256943790171" y2="26.390728519032407" class="delaunay-line"/>
<line x1="14.005797910077439" y1="23.65456737242706" x2="10.126693016640743" y2="29.11078127872482" class="delaunay-line"/>
<line x1="10.126693016640743" y1="29.11078127872482" x2="16.103861205191215" y2="28.58784682223887" class="delaunay-line"/>
<line x1="16.103861205191215" y1="28.58784682223887" x2="14.005797910077439" y2="23.65456737242706" class="delaunay-line"/>
<line x1="26.473808461661328" y1="36.417459627502204" x2="26.45635605522404" y2="35.417611932345814" class="delaunay-line"/>
<line x1="26.45635605522404" y1="35.417611932345814" x2="22.49555220866787" y2="31.40704454682036" class="delaunay-line"/>
<line x1="22.49555220866787" y1="31.40704454682036" x2="26.473808461661328" y2="36.417459627502204" class="delaunay-line"/>
<line x1="6.488256943790171" y1="26.390728519032407" x2="14.005797910077439" y2="23.65456737242706" class="delaunay-line"/>
<line x1="14.005797910077439" y1="23.65456737242706" x2="13.66377776675177" y2="22.714874751641155" class="delaunay-line"/>
<line x1="13.66377776675177" y1="22.714874751641155" x2="6.488256943790171" y2="26.390728519032407" class="delaunay-line"/>
<line x1="10.126693016640743" y1="29.11078127872482" x2="10.170270888014574" y2="29.60887862777069" class="delaunay-line"/>
<line x1="10.170270888014574" y1="29.60887862777069" x2="16.103861205191215" y2="28.58784682223887" class="delaunay-line"/>
<line x1="16.103861205191215" y1="28.58784682223887" x2="10.126693016640743" y2="29.11078127872482" class="delaunay-line"/>
<line x1="24.169289675212042" y1="11.7776214584557" x2="19.911732173605138" y2="9.498695537013774" class="delaunay-line"/>
<line x1="19.911732173605138" y1="9.498695537013774" x2="19.911732173605138" y2="9.998695537013774" class="delaunay-line"/>
<line x1="19.911732173605138" y1="9.998695537013774" x2="24.169289675212042" y2="11.7776214584557" class="delaunay-line"/>
<line x1="19.911732173605138" y1="9.998695537013774" x2="19.911732173605138" y2="9.498695537013774" class="delaunay-line"/>
<line x1="19.911732173605138" y1="9.498695537013774" x2="18.785022601277003" y2="11.506574819755485" class="delaunay-line"/>
<line x1="18.785022601277003" y1="11.506574819755485" x2="19.911732173605138" y2="9.998695537013774" class="delaunay-line"/>
<line x1="13.911732173605138" y1="9.498695537013774" x2="13.911732173605138" y2="9.998695537013774" class="delaunay-line"/>
<line x1="13.911732173605138" y1="9.998695537013774" x2="17.800214848264797" y2="11.680222997422415" class="delaunay-line"/>
<line x1="17.800214848264797" y1="11.680222997422415" x2="13.911732173605138" y2="9.498695537013774" class="delaunay-line"/>
<line x1="17.800214848264797" y1="11.680222997422415" x2="13.911732173605138" y2="9.998695537013774" class="delaunay-line"/>
<line x1="13.911732173605138" y1="9.998695537013774" x2="13.66377776675177" y2="22.714874751641155" class="delaunay-line"/>
<line x1="13.66377776675177" y1="22.714874751641155" x2="17.800214848264797" y2="11.680222997422415" class="delaunay-line"/>
<line x1="22.49555220866787" y1="31.40704454682036" x2="28.480719807042128" y2="32.061084927355786" class="delaunay-line"/>
<line x1="28.480719807042128" y1="32.061084927355786" x2="22.590956706356142" y2="30.916230955096523" class="delaunay-line"/>
<line x1="22.590956706356142" y1="30.916230955096523" x2="22.49555220866787" y2="31.40704454682036" class="delaunay-line"/>
<line x1="27.01761920652134" y1="26.051150142876274" x2="28.480719807042128" y2="32.061084927355786" class="delaunay-line"/>
<line x1="28.480719807042128" y1="32.061084927355786" x2="27.25235498791428" y2="25.60967634644681" class="delaunay-line"/>
<line x1="27.25235498791428" y1="25.60967634644681" x2="27.01761920652134" y2="26.051150142876274" class="delaunay-line"/>
<line x1="34.37980521478644" y1="7.7168780314358205" x2="29.78244537047572" y2="5.990352401229407" class="delaunay-line"/>
<line x1="29.78244537047572" y1="5.990352401229407" x2="24.967925185259332" y2="12.37943648160775" class="delaunay-line"/>
<line x1="24.967925185259332" y1="12.37943648160775" x2="34.37980521478644" y2="7.7168780314358205" class="delaunay-line"/>
<line x1="19.911732173605138" y1="9.498695537013774" x2="13.911732173605138" y2="9.498695537013774" class="delaunay-line"/>
<line x1="13.911732173605138" y1="9.498695537013774" x2="17.800214848264797" y2="11.680222997422415" class="delaunay-line"/>
<line x1="17.800214848264797" y1="11.680222997422415" x2="19.911732173605138" y2="9.498695537013774" class="delaunay-line"/>
<line x1="6.146236800464502" y1="25.451035898246502" x2="6.488256943790171" y2="26.390728519032407" class="delaunay-line"/>
<line x1="6.488256943790171" y1="26.390728519032407" x2="13.66377776675177" y2="22.714874751641155" class="delaunay-line"/>
<line x1="13.66377776675177" y1="22.714874751641155" x2="6.146236800464502" y2="25.451035898246502" class="delaunay-line"/>
<line x1="26.45635605522404" y1="35.417611932345814" x2="28.385315309353857" y2="32.55189851907962" class="delaunay-line"/>
<line x1="28.385315309353857" y1="32.55189851907962" x2="22.49555220866787" y2="31.40704454682036" class="delaunay-line"/>
<line x1="22.49555220866787" y1="31.40704454682036" x2="26.45635605522404" y2="35.417611932345814" class="delaunay-line"/>
<line x1="22.49555220866787" y1="31.40704454682036" x2="28.385315309353857" y2="32.55189851907962" class="delaunay-line"/>
<line x1="28.385315309353857" y1="32.55189851907962" x2="28.480719807042128" y2="32.061084927355786" class="delaunay-line"/>
<line x1="28.480719807042128" y1="32.061084927355786" x2="22.49555220866787" y2="31.40704454682036" class="delaunay-line"/>
<line x1="10.126693016640743" y1="29.11078127872482" x2="4.574562826345467" y2="27.463252345301328" class="delaunay-line"/>
<line x1="4.574562826345467" y1="27.463252345301328" x2="10.170270888014574" y2="29.60887862777069" class="delaunay-line"/>
<line x1="10.170270888014574" y1="29.60887862777069" x2="10.126693016640743" y2="29.11078127872482" class="delaunay-line"/>
<line x1="6.146236800464502" y1="25.451035898246502" x2="13.66377776675177" y2="22.714874751641155" class="delaunay-line"/>
<line x1="13.66377776675177" y1="22.714874751641155" x2="11.781327925761286" y2="9.603032290669795" class="delaunay-line"/>
<line x1="11.781327925761286" y1="9.603032290669795" x2="6.146236800464502" y2="25.451035898246502" class="delaunay-line"/>
<line x1="11.781327925761286" y1="9.603032290669795" x2="13.66377776675177" y2="22.714874751641155" class="delaunay-line"/>
<line x1="13.66377776675177" y1="22.714874751641155" x2="13.911732173605138" y2="9.998695537013774" class="delaunay-line"/>
<line x1="13.911732173605138" y1="9.998695537013774" x2="11.781327925761286" y2="9.603032290669795" class="delaunay-line"/>
<line x1="13.911732173605138" y1="9.498695537013774" x2="12.276461960132071" y2="9.533445740189762" class="delaunay-line"/>
<line x1="12.276461960132071" y1="9.533445740189762" x2="13.911732173605138" y2="9.998695537013774" class="delaunay-line"/>
<line x1="13.911732173605138" y1="9.998695537013774" x2="13.911732173605138" y2="9.498695537013774" class="delaunay-line"/>
<line x1="12.276461960132071" y1="9.533445740189762" x2="11.781327925761286" y2="9.603032290669795" class="delaunay-line"/>
<line x1="11.781327925761286" y1="9.603032290669795" x2="13.911732173605138" y2="9.998695537013774" class="delaunay-line"/>
<line x1="13.911732173605138" y1="9.998695537013774" x2="12.276461960132071" y2="9.533445740189762" class="delaunay-line"/>
<line x1="26.473808461661328" y1="36.417459627502204" x2="22.49555220866787" y2="31.40704454682036" class="delaunay-line"/>
<line x1="22.49555220866787" y1="31.40704454682036" x2="19.347106057260454" y2="43.03619476337472" class="delaunay-line"/>
<line x1="19.347106057260454" y1="43.03619476337472" x2="26.473808461661328" y2="36.417459627502204" class="delaunay-line"/>
<line x1="19.347106057260454" y1="43.03619476337472" x2="22.49555220866787" y2="31.40704454682036" class="delaunay-line"/>
<line x1="22.49555220866787" y1="31.40704454682036" x2="16.147439076565046" y2="29.08594417128474" class="delaunay-line"/>
<line x1="16.147439076565046" y1="29.08594417128474" x2="19.347106057260454" y2="43.03619476337472" class="delaunay-line"/>
<line x1="26.45635605522404" y1="35.417611932345814" x2="26.473808461661328" y2="36.417459627502204" class="delaunay-line"/>
<line x1="26.473808461661328" y1="36.417459627502204" x2="28.385315309353857" y2="32.55189851907962" class="delaunay-line"/>
<line x1="28.385315309353857" y1="32.55189851907962" x2="26.45635605522404" y2="35.417611932345814" class="delaunay-line"/>
<line x1="6.488256943790171" y1="26.390728519032407" x2="4.574562826345467" y2="27.463252345301328" class="delaunay-line"/>
<line x1="4.574562826345467" y1="27.463252345301328" x2="10.126693016640743" y2="29.11078127872482" class="delaunay-line"/>
<line x1="10.126693016640743" y1="29.11078127872482" x2="6.488256943790171" y2="26.390728519032407" class="delaunay-line"/>
<line x1="10.170270888014574" y1="29.60887862777069" x2="7.112585593884866" y2="36.827212850367616" class="delaunay-line"/>
<line x1="7.112585593884866" y1="36.827212850367616" x2="16.147439076565046" y2="29.08594417128474" class="delaunay-line"/>
<line x1="16.147439076565046" y1="29.08594417128474" x2="10.170270888014574" y2="29.60887862777069" class="delaunay-line"/>
<line x1="6.146236800464502" y1="25.451035898246502" x2="4.574562826345467" y2="27.463252345301328" class="delaunay-line"/>
<line x1="4.574562826345467" y1="27.463252345301328" x2="6.488256943790171" y2="26.390728519032407" class="delaunay-line"/>
<line x1="6.488256943790171" y1="26.390728519032407" x2="6.146236800464502" y2="25.451035898246502" class="delaunay-line"/>
<line x1="4.114310399619248" y1="27.658617909545967" x2="4.574562826345467" y2="27.463252345301328" class="delaunay-line"/>
<line x1="4.574562826345467" y1="27.463252345301328" x2="6.146236800464502" y2="25.451035898246502" class="delaunay-line"/>
<line x1="6.146236800464502" y1="25.451035898246502" x2="4.114310399619248" y2="27.658617909545967" class="delaunay-line"/>
<line x1="0" y1="0" x2="4.114310399619248" y2="27.658617909545967" class="delaunay-line"/>
<line x1="4.114310399619248" y1="27.658617909545967" x2="6.146236800464502" y2="25.451035898246502" class="delaunay-line"/>
<line x1="6.146236800464502" y1="25.451035898246502" x2="0" y2="0" class="delaunay-line"/>
<line x1="4.574562826345467" y1="27.463252345301328" x2="6.918949597281111" y2="32.98628146601597" class="delaunay-line"/>
<line x1="6.918949597281111" y1="32.98628146601597" x2="10.170270888014574" y2="29.60887862777069" class="delaunay-line"/>
<line x1="10.170270888014574" y1="29.60887862777069" x2="4.574562826345467" y2="27.463252345301328" class="delaunay-line"/>
<line x1="4.114310399619248" y1="27.658617909545967" x2="6.918949597281111" y2="32.98628146601597" class="delaunay-line"/>
<line x1="6.918949597281111" y1="32.98628146601597" x2="4.574562826345467" y2="27.463252345301328" class="delaunay-line"/>
<line x1="4.574562826345467" y1="27.463252345301328" x2="4.114310399619248" y2="27.658617909545967" class="delaunay-line"/>
<line x1="4.114310399619248" y1="27.658617909545967" x2="6.458697170554892" y2="33.181647030260606" class="delaunay-line"/>
<line x1="6.458697170554892" y1="33.181647030260606" x2="6.918949597281111" y2="32.98628146601597" class="delaunay-line"/>
<line x1="6.918949597281111" y1="32.98628146601597" x2="4.114310399619248" y2="27.658617909545967" class="delaunay-line"/>
<line x1="6.918949597281111" y1="32.98628146601597" x2="7.112585593884866" y2="36.827212850367616" class="delaunay-line"/>
<line x1="7.112585593884866" y1="36.827212850367616" x2="10.170270888014574" y2="29.60887862777069" class="delaunay-line"/>
<line x1="10.170270888014574" y1="29.60887862777069" x2="6.918949597281111" y2="32.98628146601597" class="delaunay-line"/>
<line x1="24.169289675212042" y1="11.7776214584557" x2="28.98380986042843" y2="5.388537378077357" class="delaunay-line"/>
<line x1="28.98380986042843" y1="5.388537378077357" x2="19.911732173605138" y2="9.498695537013774" class="delaunay-line"/>
<line x1="19.911732173605138" y1="9.498695537013774" x2="24.169289675212042" y2="11.7776214584557" class="delaunay-line"/>
<line x1="19.911732173605138" y1="9.498695537013774" x2="11.441423354371675" y2="3.59183732774034" class="delaunay-line"/>
<line x1="11.441423354371675" y1="3.59183732774034" x2="13.911732173605138" y2="9.498695537013774" class="delaunay-line"/>
<line x1="13.911732173605138" y1="9.498695537013774" x2="19.911732173605138" y2="9.498695537013774" class="delaunay-line"/>
<line x1="13.911732173605138" y1="9.498695537013774" x2="11.441423354371675" y2="3.59183732774034" class="delaunay-line"/>
<line x1="11.441423354371675" y1="3.59183732774034" x2="12.276461960132071" y2="9.533445740189762" class="delaunay-line"/>
<line x1="12.276461960132071" y1="9.533445740189762" x2="13.911732173605138" y2="9.498695537013774" class="delaunay-line"/>
<line x1="12.276461960132071" y1="9.533445740189762" x2="11.441423354371675" y2="3.59183732774034" class="delaunay-line"/>
<line x1="11.441423354371675" y1="3.59183732774034" x2="11.781327925761286" y2="9.603032290669795" class="delaunay-line"/>
<line x1="11.781327925761286" y1="9.603032290669795" x2="12.276461960132071" y2="9.533445740189762" class="delaunay-line"/>
<line x1="24.967925185259332" y1="12.37943648160775" x2="29.78244537047572" y2="5.990352401229407" class="delaunay-line"/>
<line x1="29.78244537047572" y1="5.990352401229407" x2="24.169289675212042" y2="11.7776214584557" class="delaunay-line"/>
<line x1="24.169289675212042" y1="11.7776214584557" x2="24.967925185259332" y2="12.37943648160775" class="delaunay-line"/>
<line x1="34.37980521478644" y1="7.7168780314358205" x2="24.967925185259332" y2="12.37943648160775" class="delaunay-line"/>
<line x1="24.967925185259332" y1="12.37943648160775" x2="27.25235498791428" y2="25.60967634644681" class="delaunay-line"/>
<line x1="27.25235498791428" y1="25.60967634644681" x2="34.37980521478644" y2="7.7168780314358205" class="delaunay-line"/>
<line x1="29.78244537047572" y1="5.990352401229407" x2="28.98380986042843" y2="5.388537378077357" class="delaunay-line"/>
<line x1="28.98380986042843" y1="5.388537378077357" x2="24.169289675212042" y2="11.7776214584557" class="delaunay-line"/>
<line x1="24.169289675212042" y1="11.7776214584557" x2="29.78244537047572" y2="5.990352401229407" class="delaunay-line"/>
<line x1="6.803568599509919" y1="37.77826936666277" x2="7.112585593884866" y2="36.827212850367616" class="delaunay-line"/>
<line x1="7.112585593884866" y1="36.827212850367616" x2="-0.4958665364763628" y2="34.35507689536804" class="delaunay-line"/>
<line x1="-0.4958665364763628" y1="34.35507689536804" x2="6.803568599509919" y2="37.77826936666277" class="delaunay-line"/>
<line x1="6.458697170554892" y1="33.181647030260606" x2="7.112585593884866" y2="36.827212850367616" class="delaunay-line"/>
<line x1="7.112585593884866" y1="36.827212850367616" x2="6.918949597281111" y2="32.98628146601597" class="delaunay-line"/>
<line x1="6.918949597281111" y1="32.98628146601597" x2="6.458697170554892" y2="33.181647030260606" class="delaunay-line"/>
<line x1="28.385315309353857" y1="32.55189851907962" x2="34.45513761647517" y2="35.27799268084754" class="delaunay-line"/>
<line x1="34.45513761647517" y1="35.27799268084754" x2="28.480719807042128" y2="32.061084927355786" class="delaunay-line"/>
<line x1="28.480719807042128" y1="32.061084927355786" x2="28.385315309353857" y2="32.55189851907962" class="delaunay-line"/>
<line x1="28.480719807042128" y1="32.061084927355786" x2="34.45513761647517" y2="35.27799268084754" class="delaunay-line"/>
<line x1="34.45513761647517" y1="35.27799268084754" x2="27.25235498791428" y2="25.60967634644681" class="delaunay-line"/>
<line x1="27.25235498791428" y1="25.60967634644681" x2="28.480719807042128" y2="32.061084927355786" class="delaunay-line"/>
<line x1="34.472590022912456" y1="36.27784037600393" x2="34.45513761647517" y2="35.27799268084754" class="delaunay-line"/>
<line x1="34.45513761647517" y1="35.27799268084754" x2="28.385315309353857" y2="32.55189851907962" class="delaunay-line"/>
<line x1="28.385315309353857" y1="32.55189851907962" x2="34.472590022912456" y2="36.27784037600393" class="delaunay-line"/>
<line x1="28.98380986042843" y1="5.388537378077357" x2="11.441423354371675" y2="3.59183732774034" class="delaunay-line"/>
<line x1="11.441423354371675" y1="3.59183732774034" x2="19.911732173605138" y2="9.498695537013774" class="delaunay-line"/>
<line x1="19.911732173605138" y1="9.498695537013774" x2="28.98380986042843" y2="5.388537378077357" class="delaunay-line"/>
<line x1="11.781327925761286" y1="9.603032290669795" x2="0" y2="0" class="delaunay-line"/>
<line x1="0" y1="0" x2="6.146236800464502" y2="25.451035898246502" class="delaunay-line"/>
<line x1="6.146236800464502" y1="25.451035898246502" x2="11.781327925761286" y2="9.603032290669795" class="delaunay-line"/>
<line x1="11.441423354371675" y1="3.59183732774034" x2="10.94628932000089" y2="3.6614238782203725" class="delaunay-line"/>
<line x1="10.94628932000089" y1="3.6614238782203725" x2="11.781327925761286" y2="9.603032290669795" class="delaunay-line"/>
<line x1="11.781327925761286" y1="9.603032290669795" x2="11.441423354371675" y2="3.59183732774034" class="delaunay-line"/>
<line x1="34.87220909129254" y1="7.6300539426023555" x2="34.37980521478644" y2="7.7168780314358205" class="delaunay-line"/>
<line x1="34.37980521478644" y1="7.7168780314358205" x2="27.25235498791428" y2="25.60967634644681" class="delaunay-line"/>
<line x1="27.25235498791428" y1="25.60967634644681" x2="34.87220909129254" y2="7.6300539426023555" class="delaunay-line"/>
<line x1="29.78244537047572" y1="5.990352401229407" x2="33.33791614878485" y2="1.8080315133625722" class="delaunay-line"/>
<line x1="33.33791614878485" y1="1.8080315133625722" x2="28.98380986042843" y2="5.388537378077357" class="delaunay-line"/>
<line x1="28.98380986042843" y1="5.388537378077357" x2="29.78244537047572" y2="5.990352401229407" class="delaunay-line"/>
<line x1="-0.4958665364763628" y1="34.35507689536804" x2="7.112585593884866" y2="36.827212850367616" class="delaunay-line"/>
<line x1="7.112585593884866" y1="36.827212850367616" x2="6.458697170554892" y2="33.181647030260606" class="delaunay-line"/>
<line x1="6.458697170554892" y1="33.181647030260606" x2="-0.4958665364763628" y2="34.35507689536804" class="delaunay-line"/>
<line x1="7.112585593884866" y1="36.827212850367616" x2="19.347106057260454" y2="43.03619476337472" class="delaunay-line"/>
<line x1="19.347106057260454" y1="43.03619476337472" x2="16.147439076565046" y2="29.08594417128474" class="delaunay-line"/>
<line x1="16.147439076565046" y1="29.08594417128474" x2="7.112585593884866" y2="36.827212850367616" class="delaunay-line"/>
<line x1="26.473808461661328" y1="36.417459627502204" x2="34.472590022912456" y2="36.27784037600393" class="delaunay-line"/>
<line x1="34.472590022912456" y1="36.27784037600393" x2="28.385315309353857" y2="32.55189851907962" class="delaunay-line"/>
<line x1="28.385315309353857" y1="32.55189851907962" x2="26.473808461661328" y2="36.417459627502204" class="delaunay-line"/>
<line x1="34.45513761647517" y1="35.27799268084754" x2="34.87220909129254" y2="7.6300539426023555" class="delaunay-line"/>
<line x1="34.87220909129254" y1="7.6300539426023555" x2="27.25235498791428" y2="25.60967634644681" class="delaunay-line"/>
<line x1="27.25235498791428" y1="25.60967634644681" x2="34.45513761647517" y2="35.27799268084754" class="delaunay-line"/>
<line x1="24.69314520239066" y1="45.760137761812004" x2="34.472590022912456" y2="36.27784037600393" class="delaunay-line"/>
<line x1="34.472590022912456" y1="36.27784037600393" x2="26.473808461661328" y2="36.417459627502204" class="delaunay-line"/>
<line x1="26.473808461661328" y1="36.417459627502204" x2="24.69314520239066" y2="45.760137761812004" class="delaunay-line"/>
<line x1="48" y1="0" x2="34.87220909129254" y2="7.6300539426023555" class="delaunay-line"/>
<line x1="34.87220909129254" y1="7.6300539426023555" x2="34.45513761647517" y2="35.27799268084754" class="delaunay-line"/>
<line x1="34.45513761647517" y1="35.27799268084754" x2="48" y2="0" class="delaunay-line"/>
<line x1="34.37980521478644" y1="7.7168780314358205" x2="33.33791614878485" y2="1.8080315133625722" class="delaunay-line"/>
<line x1="33.33791614878485" y1="1.8080315133625722" x2="29.78244537047572" y2="5.990352401229407" class="delaunay-line"/>
<line x1="29.78244537047572" y1="5.990352401229407" x2="34.37980521478644" y2="7.7168780314358205" class="delaunay-line"/>
<line x1="6.803568599509919" y1="37.77826936666277" x2="19.347106057260454" y2="43.03619476337472" class="delaunay-line"/>
<line x1="19.347106057260454" y1="43.03619476337472" x2="7.112585593884866" y2="36.827212850367616" class="delaunay-line"/>
<line x1="7.112585593884866" y1="36.827212850367616" x2="6.803568599509919" y2="37.77826936666277" class="delaunay-line"/>
<line x1="6.803568599509919" y1="37.77826936666277" x2="19.12011080739068" y2="43.4816980254689" class="delaunay-line"/>
<line x1="19.12011080739068" y1="43.4816980254689" x2="19.347106057260454" y2="43.03619476337472" class="delaunay-line"/>
<line x1="19.347106057260454" y1="43.03619476337472" x2="6.803568599509919" y2="37.77826936666277" class="delaunay-line"/>
<line x1="19.347106057260454" y1="43.03619476337472" x2="24.69314520239066" y2="45.760137761812004" class="delaunay-line"/>
<line x1="24.69314520239066" y1="45.760137761812004" x2="26.473808461661328" y2="36.417459627502204" class="delaunay-line"/>
<line x1="26.473808461661328" y1="36.417459627502204" x2="19.347106057260454" y2="43.03619476337472" class="delaunay-line"/>
<line x1="0" y1="0" x2="-0.4958665364763628" y2="34.35507689536804" class="delaunay-line"/>
<line x1="-0.4958665364763628" y1="34.35507689536804" x2="4.114310399619248" y2="27.658617909545967" class="delaunay-line"/>
<line x1="4.114310399619248" y1="27.658617909545967" x2="0" y2="0" class="delaunay-line"/>
<line x1="4.114310399619248" y1="27.658617909545967" x2="-0.4958665364763628" y2="34.35507689536804" class="delaunay-line"/>
<line x1="-0.4958665364763628" y1="34.35507689536804" x2="6.458697170554892" y2="33.181647030260606" class="delaunay-line"/>
<line x1="6.458697170554892" y1="33.181647030260606" x2="4.114310399619248" y2="27.658617909545967" class="delaunay-line"/>
<line x1="33.83032002529095" y1="1.7212074245291071" x2="33.33791614878485" y2="1.8080315133625722" class="delaunay-line"/>
<line x1="33.33791614878485" y1="1.8080315133625722" x2="34.37980521478644" y2="7.7168780314358205" class="delaunay-line"/>
<line x1="34.37980521478644" y1="7.7168780314358205" x2="33.83032002529095" y2="1.7212074245291071" class="delaunay-line"/>
<line x1="28.98380986042843" y1="5.388537378077357" x2="33.33791614878485" y2="1.8080315133625722" class="delaunay-line"/>
<line x1="33.33791614878485" y1="1.8080315133625722" x2="11.441423354371675" y2="3.59183732774034" class="delaunay-line"/>
<line x1="11.441423354371675" y1="3.59183732774034" x2="28.98380986042843" y2="5.388537378077357" class="delaunay-line"/>
<line x1="24.466149952520887" y1="46.20564102390618" x2="24.69314520239066" y2="45.760137761812004" class="delaunay-line"/>
<line x1="24.69314520239066" y1="45.760137761812004" x2="19.347106057260454" y2="43.03619476337472" class="delaunay-line"/>
<line x1="19.347106057260454" y1="43.03619476337472" x2="24.466149952520887" y2="46.20564102390618" class="delaunay-line"/>
<line x1="-0.4958665364763628" y1="34.35507689536804" x2="-0.8048835308513103" y2="35.3061334116632" class="delaunay-line"/>
<line x1="-0.8048835308513103" y1="35.3061334116632" x2="6.803568599509919" y2="37.77826936666277" class="delaunay-line"/>
<line x1="6.803568599509919" y1="37.77826936666277" x2="-0.4958665364763628" y2="34.35507689536804" class="delaunay-line"/>
<line x1="6.803568599509919" y1="37.77826936666277" x2="0" y2="48" class="delaunay-line"/>
<line x1="0" y1="48" x2="19.12011080739068" y2="43.4816980254689" class="delaunay-line"/>
<line x1="19.12011080739068" y1="43.4816980254689" x2="6.803568599509919" y2="37.77826936666277" class="delaunay-line"/>
<line x1="34.87220909129254" y1="7.6300539426023555" x2="33.83032002529095" y2="1.7212074245291071" class="delaunay-line"/>
<line x1="33.83032002529095" y1="1.7212074245291071" x2="34.37980521478644" y2="7.7168780314358205" class="delaunay-line"/>
<line x1="34.37980521478644" y1="7.7168780314358205" x2="34.87220909129254" y2="7.6300539426023555" class="delaunay-line"/>
<line x1="33.33791614878485" y1="1.8080315133625722" x2="0" y2="0" class="delaunay-line"/>
<line x1="0" y1="0" x2="11.441423354371675" y2="3.59183732774034" class="delaunay-line"/>
<line x1="11.441423354371675" y1="3.59183732774034" x2="33.33791614878485" y2="1.8080315133625722" class="delaunay-line"/>
<line x1="19.12011080739068" y1="43.4816980254689" x2="24.466149952520887" y2="46.20564102390618" class="delaunay-line"/>
<line x1="24.466149952520887" y1="46.20564102390618" x2="19.347106057260454" y2="43.03619476337472" class="delaunay-line"/>
<line x1="19.347106057260454" y1="43.03619476337472" x2="19.12011080739068" y2="43.4816980254689" class="delaunay-line"/>
<line x1="24.69314520239066" y1="45.760137761812004" x2="48" y2="48" class="delaunay-line"/>
<line x1="48" y1="48" x2="34.472590022912456" y2="36.27784037600393" class="delaunay-line"/>
<line x1="34.472590022912456" y1="36.27784037600393" x2="24.69314520239066" y2="45.760137761812004" class="delaunay-line"/>
<line x1="0" y1="48" x2="24.466149952520887" y2="46.20564102390618" class="delaunay-line"/>
<line x1="24.466149952520887" y1="46.20564102390618" x2="19.12011080739068" y2="43.4816980254689" class="delaunay-line"/>
<line x1="19.12011080739068" y1="43.4816980254689" x2="0" y2="48" class="delaunay-line"/>
<line x1="11.441423354371675" y1="3.59183732774034" x2="0" y2="0" class="delaunay-line"/>
<line x1="0" y1="0" x2="10.94628932000089" y2="3.6614238782203725" class="delaunay-line"/>
<line x1="10.94628932000089" y1="3.6614238782203725" x2="11.441423354371675" y2="3.59183732774034" class="delaunay-line"/>
<line x1="10.94628932000089" y1="3.6614238782203725" x2="0" y2="0" class="delaunay-line"/>
<line x1="0" y1="0" x2="11.781327925761286" y2="9.603032290669795" class="delaunay-line"/>
<line x1="11.781327925761286" y1="9.603032290669795" x2="10.94628932000089" y2="3.6614238782203725" class="delaunay-line"/>
<line x1="-0.4958665364763628" y1="34.35507689536804" x2="0" y2="0" class="delaunay-line"/>
<line x1="0" y1="0" x2="-0.8048835308513103" y2="35.3061334116632" class="delaunay-line"/>
<line x1="-0.8048835308513103" y1="35.3061334116632" x2="-0.4958665364763628" y2="34.35507689536804" class="delaunay-line"/>
<line x1="33.83032002529095" y1="1.7212074245291071" x2="0" y2="0" class="delaunay-line"/>
<line x1="0" y1="0" x2="33.33791614878485" y2="1.8080315133625722" class="delaunay-line"/>
<line x1="33.33791614878485" y1="1.8080315133625722" x2="33.83032002529095" y2="1.7212074245291071" class="delaunay-line"/>
<line x1="-0.8048835308513103" y1="35.3061334116632" x2="0" y2="48" class="delaunay-line"/>
<line x1="0" y1="48" x2="6.803568599509919" y2="37.77826936666277" class="delaunay-line"/>
<line x1="6.803568599509919" y1="37.77826936666277" x2="-0.8048835308513103" y2="35.3061334116632" class="delaunay-line"/>
<line x1="48" y1="48" x2="48" y2="0" class="delaunay-line"/>
<line x1="48" y1="0" x2="34.45513761647517" y2="35.27799268084754" class="delaunay-line"/>
<line x1="34.45513761647517" y1="35.27799268084754" x2="48" y2="48" class="delaunay-line"/>
<line x1="34.87220909129254" y1="7.6300539426023555" x2="48" y2="0" class="delaunay-line"/>
<line x1="48" y1="0" x2="33.83032002529095" y2="1.7212074245291071" class="delaunay-line"/>
<line x1="33.83032002529095" y1="1.7212074245291071" x2="34.87220909129254" y2="7.6300539426023555" class="delaunay-line"/>
<line x1="33.83032002529095" y1="1.7212074245291071" x2="48" y2="0" class="delaunay-line"/>
<line x1="48" y1="0" x2="0" y2="0" class="delaunay-line"/>
<line x1="0" y1="0" x2="33.83032002529095" y2="1.7212074245291071" class="delaunay-line"/>
<line x1="24.466149952520887" y1="46.20564102390618" x2="48" y2="48" class="delaunay-line"/>
<line x1="48" y1="48" x2="24.69314520239066" y2="45.760137761812004" class="delaunay-line"/>
<line x1="24.69314520239066" y1="45.760137761812004" x2="24.466149952520887" y2="46.20564102390618" class="delaunay-line"/>
<line x1="34.472590022912456" y1="36.27784037600393" x2="48" y2="48" class="delaunay-line"/>
<line x1="48" y1="48" x2="34.45513761647517" y2="35.27799268084754" class="delaunay-line"/>
<line x1="34.45513761647517" y1="35.27799268084754" x2="34.472590022912456" y2="36.27784037600393" class="delaunay-line"/>
<line x1="0" y1="48" x2="48" y2="48" class="delaunay-line"/>
<line x1="48" y1="48" x2="24.466149952520887" y2="46.20564102390618" class="delaunay-line"/>
<line x1="24.466149952520887" y1="46.20564102390618" x2="0" y2="48" class="delaunay-line"/>
</g>
<g id="layer-area" class="layer ">
</g>
<g id="layer-building" class="layer ">
</g>
<g id="layer-wall" class="layer ">
<polygon points="17.800214848264797,11.680222997422415 18.785022601277003,11.506574819755485 20.17420802261245,19.385036843853147 19.189400269600245,19.558685021520077" class="terrain-solid"/>
<text x="18.987211435438624" y="15.532629920637781" class="label">#555555</text>
<polygon points="12.276461960132071,9.533445740189762 11.781327925761286,9.603032290669795 10.94628932000089,3.6614238782203725 11.441423354371675,3.59183732774034" class="terrain-solid"/>
<text x="11.61137564006648" y="6.597434809205067" class="label">#555555</text>
<polygon points="6.918949597281111,32.98628146601597 6.458697170554892,33.181647030260606 4.114310399619248,27.658617909545967 4.574562826345467,27.463252345301328" class="terrain-solid"/>
<text x="5.516629998450179" y="30.322449687780967" class="label">#555555</text>
<polygon points="28.98380986042843,5.388537378077357 29.78244537047572,5.990352401229407 24.967925185259332,12.37943648160775 24.169289675212042,11.7776214584557" class="terrain-solid"/>
<text x="26.97586752284388" y="8.883986929842553" class="label">#555555</text>
<polygon points="19.911732173605138,9.498695537013774 19.911732173605138,9.998695537013774 13.911732173605138,9.998695537013774 13.911732173605138,9.498695537013774" class="terrain-solid"/>
<text x="16.911732173605138" y="9.748695537013774" class="label">#555555</text>
<polygon points="24.69314520239066,45.760137761812004 24.466149952520887,46.20564102390618 19.12011080739068,43.4816980254689 19.347106057260454,43.03619476337472" class="terrain-solid"/>
<text x="21.90662800489067" y="44.62091789364045" class="label">#555555</text>
<polygon points="27.25235498791428,25.60967634644681 27.01761920652134,26.051150142876274 21.719933649367775,23.234320766160934 21.954669430760717,22.79284696973147" class="terrain-solid"/>
<text x="24.486144318641028" y="24.421998556303873" class="label">#555555</text>
<polygon points="34.87220909129254,7.6300539426023555 34.37980521478644,7.7168780314358205 33.33791614878485,1.8080315133625722 33.83032002529095,1.7212074245291071" class="terrain-solid"/>
<text x="34.105062620038694" y="4.7190427279824645" class="label">#555555</text>
<polygon points="26.473808461661328,36.417459627502204 26.45635605522404,35.417611932345814 34.45513761647517,35.27799268084754 34.472590022912456,36.27784037600393" class="terrain-solid"/>
<text x="30.46447303906825" y="35.84772615417487" class="label">#555555</text>
<polygon points="22.49555220866787,31.40704454682036 22.590956706356142,30.916230955096523 28.480719807042128,32.061084927355786 28.385315309353857,32.55189851907962" class="terrain-solid"/>
<text x="25.488136007855" y="31.734064737088076" class="label">#555555</text>
<polygon points="13.66377776675177,22.714874751641155 14.005797910077439,23.65456737242706 6.488256943790171,26.390728519032407 6.146236800464502,25.451035898246502" class="terrain-solid"/>
<text x="10.07601735527097" y="24.55280163533678" class="label">#555555</text>
<polygon points="10.170270888014574,29.60887862777069 10.126693016640743,29.11078127872482 16.103861205191215,28.58784682223887 16.147439076565046,29.08594417128474" class="terrain-solid"/>
<text x="13.137066046602897" y="29.09836272500478" class="label">#555555</text>
<polygon points="7.112585593884866,36.827212850367616 6.803568599509919,37.77826936666277 -0.8048835308513103,35.3061334116632 -0.4958665364763628,34.35507689536804" class="terrain-solid"/>
<text x="3.153851031516778" y="36.066673131015406" class="label">#555555</text>
</g>
<g id="layer-tree" class="layer ">
</g>
<g id="layer-rocks" class="layer ">
</g>
<g id="layer-shrub" class="layer ">
</g>
<g id="layer-terrain" class="layer ">
</g>
<g id="layer-clearance" class="layer hidden">
</g>
<g id="layer-models" class="layer ">
</g>
<g id="layer-paths" class="layer ">
</g>
<g id="layer-vectors" class="layer ">
</g>
<g id="layer-los" class="layer ">
</g>
<g id="layer-lof" class="layer ">
</g>

<g id="legend">
<g class="toggle" onclick="toggleLayer('deployment')"><rect x="0.4" y="0.14999999999999997" width="0.4" height="0.4" fill="#222" stroke="#222" stroke-width="0.05"/><text x="1.0" y="0.5499999999999999" class="label">Deployment Zones</text></g>
<g class="toggle" onclick="toggleLayer('grid')"><rect x="0.4" y="0.95" width="0.4" height="0.4" fill="#222" stroke="#222" stroke-width="0.05"/><text x="1.0" y="1.3499999999999999" class="label">0.5 MU Grid</text></g>
<g class="toggle" onclick="toggleLayer('delaunay')"><rect x="0.4" y="1.7500000000000002" width="0.4" height="0.4" fill="#222" stroke="#222" stroke-width="0.05"/><text x="1.0" y="2.1500000000000004" class="label">Delaunay Mesh</text></g>
<g class="toggle disabled"><rect x="0.4" y="2.55" width="0.4" height="0.4" fill="#222" stroke="#222" stroke-width="0.05"/><text x="1.0" y="2.95" class="label">Area Terrain</text></g>
<g class="toggle disabled"><rect x="0.4" y="3.3499999999999996" width="0.4" height="0.4" fill="#222" stroke="#222" stroke-width="0.05"/><text x="1.0" y="3.75" class="label">Buildings</text></g>
<g class="toggle" onclick="toggleLayer('wall')"><rect x="0.4" y="4.1499999999999995" width="0.4" height="0.4" fill="#222" stroke="#222" stroke-width="0.05"/><text x="1.0" y="4.55" class="label">Walls</text></g>
<g class="toggle disabled"><rect x="0.4" y="4.949999999999999" width="0.4" height="0.4" fill="#222" stroke="#222" stroke-width="0.05"/><text x="1.0" y="5.35" class="label">Trees</text></g>
<g class="toggle disabled"><rect x="0.4" y="5.749999999999999" width="0.4" height="0.4" fill="#222" stroke="#222" stroke-width="0.05"/><text x="1.0" y="6.1499999999999995" class="label">Rocks</text></g>
<g class="toggle disabled"><rect x="0.4" y="6.549999999999999" width="0.4" height="0.4" fill="#222" stroke="#222" stroke-width="0.05"/><text x="1.0" y="6.949999999999999" class="label">Shrubs</text></g>
<g class="toggle" onclick="toggleLayer('terrain')"><rect x="0.4" y="7.349999999999999" width="0.4" height="0.4" fill="#222" stroke="#222" stroke-width="0.05"/><text x="1.0" y="7.749999999999999" class="label">Other Terrain</text></g>
<g class="toggle" onclick="toggleLayer('clearance')"><rect x="0.4" y="8.15" width="0.4" height="0.4" fill="#fff" stroke="#222" stroke-width="0.05"/><text x="1.0" y="8.549999999999999" class="label">Clearance Zones</text></g>
<g class="toggle" onclick="toggleLayer('models')"><rect x="0.4" y="8.950000000000001" width="0.4" height="0.4" fill="#222" stroke="#222" stroke-width="0.05"/><text x="1.0" y="9.35" class="label">Models</text></g>
<g class="toggle" onclick="toggleLayer('paths')"><rect x="0.4" y="9.750000000000002" width="0.4" height="0.4" fill="#222" stroke="#222" stroke-width="0.05"/><text x="1.0" y="10.15" class="label">Paths</text></g>
<g class="toggle" onclick="toggleLayer('vectors')"><rect x="0.4" y="10.550000000000002" width="0.4" height="0.4" fill="#222" stroke="#222" stroke-width="0.05"/><text x="1.0" y="10.950000000000001" class="label">Vectors</text></g>
<g class="toggle" onclick="toggleLayer('los')"><rect x="0.4" y="11.350000000000003" width="0.4" height="0.4" fill="#222" stroke="#222" stroke-width="0.05"/><text x="1.0" y="11.750000000000002" class="label">LOS</text></g>
<g class="toggle" onclick="toggleLayer('lof')"><rect x="0.4" y="12.150000000000004" width="0.4" height="0.4" fill="#222" stroke="#222" stroke-width="0.05"/><text x="1.0" y="12.550000000000002" class="label">LOF</text></g>
</g>
</svg>