<svg xmlns="http://www.w3.org/2000/svg" viewBox="0 0 48 48" width="1920" height="1920" font-family="Arial" font-size="0.6">
<defs>
  <style><![CDATA[
    .layer { display: inline; }
    .layer.hidden { display: none; }
    .grid-line { stroke: #999; stroke-width: 0.02; opacity: 0.2; }
    .grid-line-2mu { stroke: #666; stroke-width: 0.04; opacity: 0.4; }
    .grid-line-6mu { stroke: #333; stroke-width: 0.08; opacity: 0.6; }
    .delaunay-line { stroke: #4a6fa5; stroke-width: 0.03; opacity: 0.3; }
    #layer-area { opacity: 0.8; }
    #layer-building, #layer-wall, #layer-tree, #layer-rocks, #layer-shrub, #layer-terrain { opacity: 0.8; }
    .terrain-area { stroke: none; }
    .terrain-solid { stroke: #000; stroke-width: 0.05; }
    .model { stroke: #ff0000; stroke-width: 2; vector-effect: non-scaling-stroke; }
    .path { fill: none; stroke-width: 0.12; }
    .vector { stroke-width: 0.1; }
    .los-ray { stroke-width: 0.08; stroke-dasharray: 0.2 0.2; }
    .lof-ray { stroke-width: 0.08; stroke-dasharray: 0.3 0.15; }
    .label { fill: #111 !important; font-size: 0.6px; }
    .toggle { cursor: pointer; }
    .toggle.disabled { cursor: default; }
    .toggle.disabled rect { stroke: #ccc; fill: #fff; }
    .toggle.disabled text { fill: #ccc; }
#layer-area { fill: #C49A6C; }
  ]]></style>
</defs>
<rect x="0" y="0" width="48" height="48" fill="#ffffff" stroke="#111" stroke-width="0.05"/>
<script><![CDATA[
      function toggleLayer(id) {
        var layer = document.getElementById('layer-' + id);
        if (!layer) return;
        if (layer.classList.contains('hidden')) {
          layer.classList.remove('hidden');
        } else {
          layer.classList.add('hidden');
        }
      }
    ]]></script>
<text x="0.4" y="47.6" class="label">LARGE battlefield_A100-B0-W0-R0-S0-T0</text>
<g id="layer-deployment" class="layer ">
</g>
<g id="layer-grid" class="layer ">
<line x1="0" y1="0" x2="0" y2="48" class="grid-line-6mu"/>
<line x1="0.5" y1="0" x2="0.5" y2="48" class="grid-line"/>
<line x1="1" y1="0" x2="1" y2="48" class="grid-line"/>
<line x1="1.5" y1="0" x2="1.5" y2="48" class="grid-line"/>
<line x1="2" y1="0" x2="2" y2="48" class="grid-line-2mu"/>
<line x1="2.5" y1="0" x2="2.5" y2="48" class="grid-line"/>
<line x1="3" y1="0" x2="3" y2="48" class="grid-line"/>
<line x1="3.5" y1="0" x2="3.5" y2="48" class="grid-line"/>
<line x1="4" y1="0" x2="4" y2="48" class="grid-line-2mu"/>
<line x1="4.5" y1="0" x2="4.5" y2="48" class="grid-line"/>
<line x1="5" y1="0" x2="5" y2="48" class="grid-line"/>
<line x1="5.5" y1="0" x2="5.5" y2="48" class="grid-line"/>
<line x1="6" y1="0" x2="6" y2="48" class="grid-line-6mu"/>
<line x1="6.5" y1="0" x2="6.5" y2="48" class="grid-line"/>
<line x1="7" y1="0" x2="7" y2="48" class="grid-line"/>
<line x1="7.5" y1="0" x2="7.5" y2="48" class="grid-line"/>
<line x1="8" y1="0" x2="8" y2="48" class="grid-line-2mu"/>
<line x1="8.5" y1="0" x2="8.5" y2="48" class="grid-line"/>
<line x1="9" y1="0" x2="9" y2="48" class="grid-line"/>
<line x1="9.5" y1="0" x2="9.5" y2="48" class="grid-line"/>
<line x1="10" y1="0" x2="10" y2="48" class="grid-line-2mu"/>
<line x1="10.5" y1="0" x2="10.5" y2="48" class="grid-line"/>
<line x1="11" y1="0" x2="11" y2="48" class="grid-line"/>
<line x1="11.5" y1="0" x2="11.5" y2="48" class="grid-line"/>
<line x1="12" y1="0" x2="12" y2="48" class="grid-line-6mu"/>
<line x1="12.5" y1="0" x2="12.5" y2="48" class="grid-line"/>
<line x1="13" y1="0" x2="13" y2="48" class="grid-line"/>
<line x1="13.5" y1="0" x2="13.5" y2="48" class="grid-line"/>
<line x1="14" y1="0" x2="14" y2="48" class="grid-line-2mu"/>
<line x1="14.5" y1="0" x2="14.5" y2="48" class="grid-line"/>
<line x1="15" y1="0" x2="15" y2="48" class="grid-line"/>
<line x1="15.5" y1="0" x2="15.5" y2="48" class="grid-line"/>
<line x1="16" y1="0" x2="16" y2="48" class="grid-line-2mu"/>
<line x1="16.5" y1="0" x2="16.5" y2="48" class="grid-line"/>
<line x1="17" y1="0" x2="17" y2="48" class="grid-line"/>
<line x1="17.5" y1="0" x2="17.5" y2="48" class="grid-line"/>
<line x1="18" y1="0" x2="18" y2="48" class="grid-line-6mu"/>
<line x1="18.5" y1="0" x2="18.5" y2="48" class="grid-line"/>
<line x1="19" y1="0" x2="19" y2="48" class="grid-line"/>
<line x1="19.5" y1="0" x2="19.5" y2="48" class="grid-line"/>
<line x1="20" y1="0" x2="20" y2="48" class="grid-line-2mu"/>
<line x1="20.5" y1="0" x2="20.5" y2="48" class="grid-line"/>
<line x1="21" y1="0" x2="21" y2="48" class="grid-line"/>
<line x1="21.5" y1="0" x2="21.5" y2="48" class="grid-line"/>
<line x1="22" y1="0" x2="22" y2="48" class="grid-line-2mu"/>
<line x1="22.5" y1="0" x2="22.5" y2="48" class="grid-line"/>
<line x1="23" y1="0" x2="23" y2="48" class="grid-line"/>
<line x1="23.5" y1="0" x2="23.5" y2="48" class="grid-line"/>
<line x1="24" y1="0" x2="24" y2="48" class="grid-line-6mu"/>
<line x1="24.5" y1="0" x2="24.5" y2="48" class="grid-line"/>
<line x1="25" y1="0" x2="25" y2="48" class="grid-line"/>
<line x1="25.5" y1="0" x2="25.5" y2="48" class="grid-line"/>
<line x1="26" y1="0" x2="26" y2="48" class="grid-line-2mu"/>
<line x1="26.5" y1="0" x2="26.5" y2="48" class="grid-line"/>
<line x1="27" y1="0" x2="27" y2="48" class="grid-line"/>
<line x1="27.5" y1="0" x2="27.5" y2="48" class="grid-line"/>
<line x1="28" y1="0" x2="28" y2="48" class="grid-line-2mu"/>
<line x1="28.5" y1="0" x2="28.5" y2="48" class="grid-line"/>
<line x1="29" y1="0" x2="29" y2="48" class="grid-line"/>
<line x1="29.5" y1="0" x2="29.5" y2="48" class="grid-line"/>
<line x1="30" y1="0" x2="30" y2="48" class="grid-line-6mu"/>
<line x1="30.5" y1="0" x2="30.5" y2="48" class="grid-line"/>
<line x1="31" y1="0" x2="31" y2="48" class="grid-line"/>
<line x1="31.5" y1="0" x2="31.5" y2="48" class="grid-line"/>
<line x1="32" y1="0" x2="32" y2="48" class="grid-line-2mu"/>
<line x1="32.5" y1="0" x2="32.5" y2="48" class="grid-line"/>
<line x1="33" y1="0" x2="33" y2="48" class="grid-line"/>
<line x1="33.5" y1="0" x2="33.5" y2="48" class="grid-line"/>
<line x1="34" y1="0" x2="34" y2="48" class="grid-line-2mu"/>
<line x1="34.5" y1="0" x2="34.5" y2="48" class="grid-line"/>
<line x1="35" y1="0" x2="35" y2="48" class="grid-line"/>
<line x1="35.5" y1="0" x2="35.5" y2="48" class="grid-line"/>
<line x1="36" y1="0" x2="36" y2="48" class="grid-line-6mu"/>
<line x1="36.5" y1="0" x2="36.5" y2="48" class="grid-line"/>
<line x1="37" y1="0" x2="37" y2="48" class="grid-line"/>
<line x1="37.5" y1="0" x2="37.5" y2="48" class="grid-line"/>
<line x1="38" y1="0" x2="38" y2="48" class="grid-line-2mu"/>
<line x1="38.5" y1="0" x2="38.5" y2="48" class="grid-line"/>
<line x1="39" y1="0" x2="39" y2="48" class="grid-line"/>
<line x1="39.5" y1="0" x2="39.5" y2="48" class="grid-line"/>
<line x1="40" y1="0" x2="40" y2="48" class="grid-line-2mu"/>
<line x1="40.5" y1="0" x2="40.5" y2="48" class="grid-line"/>
<line x1="41" y1="0" x2="41" y2="48" class="grid-line"/>
<line x1="41.5" y1="0" x2="41.5" y2="48" class="grid-line"/>
<line x1="42" y1="0" x2="42" y2="48" class="grid-line-6mu"/>
<line x1="42.5" y1="0" x2="42.5" y2="48" class="grid-line"/>
<line x1="43" y1="0" x2="43" y2="48" class="grid-line"/>
<line x1="43.5" y1="0" x2="43.5" y2="48" class="grid-line"/>
<line x1="44" y1="0" x2="44" y2="48" class="grid-line-2mu"/>
<line x1="44.5" y1="0" x2="44.5" y2="48" class="grid-line"/>
<line x1="45" y1="0" x2="45" y2="48" class="grid-line"/>
<line x1="45.5" y1="0" x2="45.5" y2="48" class="grid-line"/>
<line x1="46" y1="0" x2="46" y2="48" class="grid-line-2mu"/>
<line x1="46.5" y1="0" x2="46.5" y2="48" class="grid-line"/>
<line x1="47" y1="0" x2="47" y2="48" class="grid-line"/>
<line x1="47.5" y1="0" x2="47.5" y2="48" class="grid-line"/>
<line x1="48" y1="0" x2="48" y2="48" class="grid-line-6mu"/>
<line x1="0" y1="0" x2="48" y2="0" class="grid-line-6mu"/>
<line x1="0" y1="0.5" x2="48" y2="0.5" class="grid-line"/>
<line x1="0" y1="1" x2="48" y2="1" class="grid-line"/>
<line x1="0" y1="1.5" x2="48" y2="1.5" class="grid-line"/>
<line x1="0" y1="2" x2="48" y2="2" class="grid-line-2mu"/>
<line x1="0" y1="2.5" x2="48" y2="2.5" class="grid-line"/>
<line x1="0" y1="3" x2="48" y2="3" class="grid-line"/>
<line x1="0" y1="3.5" x2="48" y2="3.5" class="grid-line"/>
<line x1="0" y1="4" x2="48" y2="4" class="grid-line-2mu"/>
<line x1="0" y1="4.5" x2="48" y2="4.5" class="grid-line"/>
<line x1="0" y1="5" x2="48" y2="5" class="grid-line"/>
<line x1="0" y1="5.5" x2="48" y2="5.5" class="grid-line"/>
<line x1="0" y1="6" x2="48" y2="6" class="grid-line-6mu"/>
<line x1="0" y1="6.5" x2="48" y2="6.5" class="grid-line"/>
<line x1="0" y1="7" x2="48" y2="7" class="grid-line"/>
<line x1="0" y1="7.5" x2="48" y2="7.5" class="grid-line"/>
<line x1="0" y1="8" x2="48" y2="8" class="grid-line-2mu"/>
<line x1="0" y1="8.5" x2="48" y2="8.5" class="grid-line"/>
<line x1="0" y1="9" x2="48" y2="9" class="grid-line"/>
<line x1="0" y1="9.5" x2="48" y2="9.5" class="grid-line"/>
<line x1="0" y1="10" x2="48" y2="10" class="grid-line-2mu"/>
<line x1="0" y1="10.5" x2="48" y2="10.5" class="grid-line"/>
<line x1="0" y1="11" x2="48" y2="11" class="grid-line"/>
<line x1="0" y1="11.5" x2="48" y2="11.5" class="grid-line"/>
<line x1="0" y1="12" x2="48" y2="12" class="grid-line-6mu"/>
<line x1="0" y1="12.5" x2="48" y2="12.5" class="grid-line"/>
<line x1="0" y1="13" x2="48" y2="13" class="grid-line"/>
<line x1="0" y1="13.5" x2="48" y2="13.5" class="grid-line"/>
<line x1="0" y1="14" x2="48" y2="14" class="grid-line-2mu"/>
<line x1="0" y1="14.5" x2="48" y2="14.5" class="grid-line"/>
<line x1="0" y1="15" x2="48" y2="15" class="grid-line"/>
<line x1="0" y1="15.5" x2="48" y2="15.5" class="grid-line"/>
<line x1="0" y1="16" x2="48" y2="16" class="grid-line-2mu"/>
<line x1="0" y1="16.5" x2="48" y2="16.5" class="grid-line"/>
<line x1="0" y1="17" x2="48" y2="17" class="grid-line"/>
<line x1="0" y1="17.5" x2="48" y2="17.5" class="grid-line"/>
<line x1="0" y1="18" x2="48" y2="18" class="grid-line-6mu"/>
<line x1="0" y1="18.5" x2="48" y2="18.5" class="grid-line"/>
<line x1="0" y1="19" x2="48" y2="19" class="grid-line"/>
<line x1="0" y1="19.5" x2="48" y2="19.5" class="grid-line"/>
<line x1="0" y1="20" x2="48" y2="20" class="grid-line-2mu"/>
<line x1="0" y1="20.5" x2="48" y2="20.5" class="grid-line"/>
<line x1="0" y1="21" x2="48" y2="21" class="grid-line"/>
<line x1="0" y1="21.5" x2="48" y2="21.5" class="grid-line"/>
<line x1="0" y1="22" x2="48" y2="22" class="grid-line-2mu"/>
<line x1="0" y1="22.5" x2="48" y2="22.5" class="grid-line"/>
<line x1="0" y1="23" x2="48" y2="23" class="grid-line"/>
<line x1="0" y1="23.5" x2="48" y2="23.5" class="grid-line"/>
<line x1="0" y1="24" x2="48" y2="24" class="grid-line-6mu"/>
<line x1="0" y1="24.5" x2="48" y2="24.5" class="grid-line"/>
<line x1="0" y1="25" x2="48" y2="25" class="grid-line"/>
<line x1="0" y1="25.5" x2="48" y2="25.5" class="grid-line"/>
<line x1="0" y1="26" x2="48" y2="26" class="grid-line-2mu"/>
<line x1="0" y1="26.5" x2="48" y2="26.5" class="grid-line"/>
<line x1="0" y1="27" x2="48" y2="27" class="grid-line"/>
<line x1="0" y1="27.5" x2="48" y2="27.5" class="grid-line"/>
<line x1="0" y1="28" x2="48" y2="28" class="grid-line-2mu"/>
<line x1="0" y1="28.5" x2="48" y2="28.5" class="grid-line"/>
<line x1="0" y1="29" x2="48" y2="29" class="grid-line"/>
<line x1="0" y1="29.5" x2="48" y2="29.5" class="grid-line"/>
<line x1="0" y1="30" x2="48" y2="30" class="grid-line-6mu"/>
<line x1="0" y1="30.5" x2="48" y2="30.5" class="grid-line"/>
<line x1="0" y1="31" x2="48" y2="31" class="grid-line"/>
<line x1="0" y1="31.5" x2="48" y2="31.5" class="grid-line"/>
<line x1="0" y1="32" x2="48" y2="32" class="grid-line-2mu"/>
<line x1="0" y1="32.5" x2="48" y2="32.5" class="grid-line"/>
<line x1="0" y1="33" x2="48" y2="33" class="grid-line"/>
<line x1="0" y1="33.5" x2="48" y2="33.5" class="grid-line"/>
<line x1="0" y1="34" x2="48" y2="34" class="grid-line-2mu"/>
<line x1="0" y1="34.5" x2="48" y2="34.5" class="grid-line"/>
<line x1="0" y1="35" x2="48" y2="35" class="grid-line"/>
<line x1="0" y1="35.5" x2="48" y2="35.5" class="grid-line"/>
<line x1="0" y1="36" x2="48" y2="36" class="grid-line-6mu"/>
<line x1="0" y1="36.5" x2="48" y2="36.5" class="grid-line"/>
<line x1="0" y1="37" x2="48" y2="37" class="grid-line"/>
<line x1="0" y1="37.5" x2="48" y2="37.5" class="grid-line"/>
<line x1="0" y1="38" x2="48" y2="38" class="grid-line-2mu"/>
<line x1="0" y1="38.5" x2="48" y2="38.5" class="grid-line"/>
<line x1="0" y1="39" x2="48" y2="39" class="grid-line"/>
<line x1="0" y1="39.5" x2="48" y2="39.5" class="grid-line"/>
<line x1="0" y1="40" x2="48" y2="40" class="grid-line-2mu"/>
<line x1="0" y1="40.5" x2="48" y2="40.5" class="grid-line"/>
<line x1="0" y1="41" x2="48" y2="41" class="grid-line"/>
<line x1="0" y1="41.5" x2="48" y2="41.5" class="grid-line"/>
<line x1="0" y1="42" x2="48" y2="42" class="grid-line-6mu"/>
<line x1="0" y1="42.5" x2="48" y2="42.5" class="grid-line"/>
<line x1="0" y1="43" x2="48" y2="43" class="grid-line"/>
<line x1="0" y1="43.5" x2="48" y2="43.5" class="grid-line"/>
<line x1="0" y1="44" x2="48" y2="44" class="grid-line-2mu"/>
<line x1="0" y1="44.5" x2="48" y2="44.5" class="grid-line"/>
<line x1="0" y1="45" x2="48" y2="45" class="grid-line"/>
<line x1="0" y1="45.5" x2="48" y2="45.5" class="grid-line"/>
<line x1="0" y1="46" x2="48" y2="46" class="grid-line-2mu"/>
<line x1="0" y1="46.5" x2="48" y2="46.5" class="grid-line"/>
<line x1="0" y1="47" x2="48" y2="47" class="grid-line"/>
<line x1="0" y1="47.5" x2="48" y2="47.5" class="grid-line"/>
<line x1="0" y1="48" x2="48" y2="48" class="grid-line-6mu"/>
</g>
<g id="layer-delaunay" class="layer ">
<line x1="21.770796252853124" y1="20.996518259296256" x2="28.290411399889944" y2="24.833449239224812" class="delaunay-line"/>
<line x1="28.290411399889944" y1="24.833449239224812" x2="22.60828103923988" y2="19.83823722440246" class="delaunay-line"/>
<line x1="22.60828103923988" y1="19.83823722440246" x2="21.770796252853124" y2="20.996518259296256" class="delaunay-line"/>
<line x1="28.290411399889944" y1="24.833449239224812" x2="31.340942575723847" y2="22.015534284799468" class="delaunay-line"/>
<line x1="31.340942575723847" y1="22.015534284799468" x2="22.60828103923988" y2="19.83823722440246" class="delaunay-line"/>
<line x1="22.60828103923988" y1="19.83823722440246" x2="28.290411399889944" y2="24.833449239224812" class="delaunay-line"/>
<line x1="28.290411399889944" y1="24.833449239224812" x2="34.257542772099576" y2="24.206278459618893" class="delaunay-line"/>
<line x1="34.257542772099576" y1="24.206278459618893" x2="31.340942575723847" y2="22.015534284799468" class="delaunay-line"/>
<line x1="31.340942575723847" y1="22.015534284799468" x2="28.290411399889944" y2="24.833449239224812" class="delaunay-line"/>
<line x1="37.942966242589065" y1="10.630182463891776" x2="26.43394228737144" y2="13.138314375403048" class="delaunay-line"/>
<line x1="26.43394228737144" y1="13.138314375403048" x2="31.340942575723847" y2="22.015534284799468" class="delaunay-line"/>
<line x1="31.340942575723847" y1="22.015534284799468" x2="37.942966242589065" y2="10.630182463891776" class="delaunay-line"/>
<line x1="31.340942575723847" y1="22.015534284799468" x2="26.43394228737144" y2="13.138314375403048" class="delaunay-line"/>
<line x1="26.43394228737144" y1="13.138314375403048" x2="22.60828103923988" y2="19.83823722440246" class="delaunay-line"/>
<line x1="22.60828103923988" y1="19.83823722440246" x2="31.340942575723847" y2="22.015534284799468" class="delaunay-line"/>
<line x1="13.6154185475117" y1="21.48244459615122" x2="16.432247924227045" y2="26.780130153304782" class="delaunay-line"/>
<line x1="16.432247924227045" y1="26.780130153304782" x2="21.770796252853124" y2="20.996518259296256" class="delaunay-line"/>
<line x1="21.770796252853124" y1="20.996518259296256" x2="13.6154185475117" y2="21.48244459615122" class="delaunay-line"/>
<line x1="13.6154185475117" y1="21.48244459615122" x2="21.770796252853124" y2="20.996518259296256" class="delaunay-line"/>
<line x1="21.770796252853124" y1="20.996518259296256" x2="12.957024247091363" y2="16.550367548166612" class="delaunay-line"/>
<line x1="12.957024247091363" y1="16.550367548166612" x2="13.6154185475117" y2="21.48244459615122" class="delaunay-line"/>
<line x1="21.770796252853124" y1="20.996518259296256" x2="19.70521829204387" y2="31.481785939714417" class="delaunay-line"/>
<line x1="19.70521829204387" y1="31.481785939714417" x2="28.290411399889944" y2="24.833449239224812" class="delaunay-line"/>
<line x1="28.290411399889944" y1="24.833449239224812" x2="21.770796252853124" y2="20.996518259296256" class="delaunay-line"/>
<line x1="28.290411399889944" y1="24.833449239224812" x2="36.45481093884674" y2="30.493831411460157" class="delaunay-line"/>
<line x1="36.45481093884674" y1="30.493831411460157" x2="34.257542772099576" y2="24.206278459618893" class="delaunay-line"/>
<line x1="34.257542772099576" y1="24.206278459618893" x2="28.290411399889944" y2="24.833449239224812" class="delaunay-line"/>
<line x1="16.432247924227045" y1="26.780130153304782" x2="19.70521829204387" y2="31.481785939714417" class="delaunay-line"/>
<line x1="19.70521829204387" y1="31.481785939714417" x2="21.770796252853124" y2="20.996518259296256" class="delaunay-line"/>
<line x1="21.770796252853124" y1="20.996518259296256" x2="16.432247924227045" y2="26.780130153304782" class="delaunay-line"/>
<line x1="34.257542772099576" y1="24.206278459618893" x2="36.68862468337723" y2="22.564445208311053" class="delaunay-line"/>
<line x1="36.68862468337723" y1="22.564445208311053" x2="31.340942575723847" y2="22.015534284799468" class="delaunay-line"/>
<line x1="31.340942575723847" y1="22.015534284799468" x2="34.257542772099576" y2="24.206278459618893" class="delaunay-line"/>
<line x1="19.70521829204387" y1="31.481785939714417" x2="28.437879828527837" y2="33.65908300011142" class="delaunay-line"/>
<line x1="28.437879828527837" y1="33.65908300011142" x2="28.290411399889944" y2="24.833449239224812" class="delaunay-line"/>
<line x1="28.290411399889944" y1="24.833449239224812" x2="19.70521829204387" y2="31.481785939714417" class="delaunay-line"/>
<line x1="34.257542772099576" y1="24.206278459618893" x2="36.45481093884674" y2="30.493831411460157" class="delaunay-line"/>
<line x1="36.45481093884674" y1="30.493831411460157" x2="36.68862468337723" y2="22.564445208311053" class="delaunay-line"/>
<line x1="36.68862468337723" y1="22.564445208311053" x2="34.257542772099576" y2="24.206278459618893" class="delaunay-line"/>
<line x1="10.224713659002624" y1="32.929099027464076" x2="20.11213050343106" y2="32.9718615708225" class="delaunay-line"/>
<line x1="20.11213050343106" y1="32.9718615708225" x2="19.70521829204387" y2="31.481785939714417" class="delaunay-line"/>
<line x1="19.70521829204387" y1="31.481785939714417" x2="10.224713659002624" y2="32.929099027464076" class="delaunay-line"/>
<line x1="19.70521829204387" y1="31.481785939714417" x2="20.11213050343106" y2="32.9718615708225" class="delaunay-line"/>
<line x1="20.11213050343106" y1="32.9718615708225" x2="28.437879828527837" y2="33.65908300011142" class="delaunay-line"/>
<line x1="28.437879828527837" y1="33.65908300011142" x2="19.70521829204387" y2="31.481785939714417" class="delaunay-line"/>
<line x1="12.957024247091363" y1="16.550367548166612" x2="21.770796252853124" y2="20.996518259296256" class="delaunay-line"/>
<line x1="21.770796252853124" y1="20.996518259296256" x2="22.60828103923988" y2="19.83823722440246" class="delaunay-line"/>
<line x1="22.60828103923988" y1="19.83823722440246" x2="12.957024247091363" y2="16.550367548166612" class="delaunay-line"/>
<line x1="31.241064962100232" y1="41.27379587825141" x2="29.231167569298822" y2="33.78414629753927" class="delaunay-line"/>
<line x1="29.231167569298822" y1="33.78414629753927" x2="28.437879828527837" y2="33.65908300011142" class="delaunay-line"/>
<line x1="28.437879828527837" y1="33.65908300011142" x2="31.241064962100232" y2="41.27379587825141" class="delaunay-line"/>
<line x1="28.437879828527837" y1="33.65908300011142" x2="29.231167569298822" y2="33.78414629753927" class="delaunay-line"/>
<line x1="29.231167569298822" y1="33.78414629753927" x2="28.290411399889944" y2="24.833449239224812" class="delaunay-line"/>
<line x1="28.290411399889944" y1="24.833449239224812" x2="28.437879828527837" y2="33.65908300011142" class="delaunay-line"/>
<line x1="14.160946422845159" y1="11.832206234685618" x2="12.957024247091363" y2="16.550367548166612" class="delaunay-line"/>
<line x1="12.957024247091363" y1="16.550367548166612" x2="22.60828103923988" y2="19.83823722440246" class="delaunay-line"/>
<line x1="22.60828103923988" y1="19.83823722440246" x2="14.160946422845159" y2="11.832206234685618" class="delaunay-line"/>
<line x1="37.942966242589065" y1="10.630182463891776" x2="23.025137812064962" y2="9.062255514876975" class="delaunay-line"/>
<line x1="23.025137812064962" y1="9.062255514876975" x2="26.43394228737144" y2="13.138314375403048" class="delaunay-line"/>
<line x1="26.43394228737144" y1="13.138314375403048" x2="37.942966242589065" y2="10.630182463891776" class="delaunay-line"/>
<line x1="26.43394228737144" y1="13.138314375403048" x2="23.025137812064962" y2="9.062255514876975" class="delaunay-line"/>
<line x1="23.025137812064962" y1="9.062255514876975" x2="22.60828103923988" y2="19.83823722440246" class="delaunay-line"/>
<line x1="22.60828103923988" y1="19.83823722440246" x2="26.43394228737144" y2="13.138314375403048" class="delaunay-line"/>
<line x1="29.231167569298822" y1="33.78414629753927" x2="36.45481093884674" y2="30.493831411460157" class="delaunay-line"/>
<line x1="36.45481093884674" y1="30.493831411460157" x2="28.290411399889944" y2="24.833449239224812" class="delaunay-line"/>
<line x1="28.290411399889944" y1="24.833449239224812" x2="29.231167569298822" y2="33.78414629753927" class="delaunay-line"/>
<line x1="12.957024247091363" y1="16.550367548166612" x2="12.108825562891147" y2="17.470361959401068" class="delaunay-line"/>
<line x1="12.108825562891147" y1="17.470361959401068" x2="13.6154185475117" y2="21.48244459615122" class="delaunay-line"/>
<line x1="13.6154185475117" y1="21.48244459615122" x2="12.957024247091363" y2="16.550367548166612" class="delaunay-line"/>
<line x1="29.231167569298822" y1="33.78414629753927" x2="35.19829894150846" y2="33.156975517933354" class="delaunay-line"/>
<line x1="35.19829894150846" y1="33.156975517933354" x2="36.45481093884674" y2="30.493831411460157" class="delaunay-line"/>
<line x1="36.45481093884674" y1="30.493831411460157" x2="29.231167569298822" y2="33.78414629753927" class="delaunay-line"/>
<line x1="23.025137812064962" y1="9.062255514876975" x2="14.160946422845159" y2="11.832206234685618" class="delaunay-line"/>
<line x1="14.160946422845159" y1="11.832206234685618" x2="22.60828103923988" y2="19.83823722440246" class="delaunay-line"/>
<line x1="22.60828103923988" y1="19.83823722440246" x2="23.025137812064962" y2="9.062255514876975" class="delaunay-line"/>
<line x1="12.957024247091363" y1="16.550367548166612" x2="4.554800408616547" y2="13.325056002258911" class="delaunay-line"/>
<line x1="4.554800408616547" y1="13.325056002258911" x2="12.108825562891147" y2="17.470361959401068" class="delaunay-line"/>
<line x1="12.108825562891147" y1="17.470361959401068" x2="12.957024247091363" y2="16.550367548166612" class="delaunay-line"/>
<line x1="44.08201412481169" y1="29.30853736771512" x2="41.48754707008346" y2="23.032493258464783" class="delaunay-line"/>
<line x1="41.48754707008346" y1="23.032493258464783" x2="36.45481093884674" y2="30.493831411460157" class="delaunay-line"/>
<line x1="36.45481093884674" y1="30.493831411460157" x2="44.08201412481169" y2="29.30853736771512" class="delaunay-line"/>
<line x1="36.45481093884674" y1="30.493831411460157" x2="41.48754707008346" y2="23.032493258464783" class="delaunay-line"/>
<line x1="41.48754707008346" y1="23.032493258464783" x2="36.68862468337723" y2="22.564445208311053" class="delaunay-line"/>
<line x1="36.68862468337723" y1="22.564445208311053" x2="36.45481093884674" y2="30.493831411460157" class="delaunay-line"/>
<line x1="36.68862468337723" y1="22.564445208311053" x2="37.942966242589065" y2="10.630182463891776" class="delaunay-line"/>
<line x1="37.942966242589065" y1="10.630182463891776" x2="31.340942575723847" y2="22.015534284799468" class="delaunay-line"/>
<line x1="31.340942575723847" y1="22.015534284799468" x2="36.68862468337723" y2="22.564445208311053" class="delaunay-line"/>
<line x1="23.025137812064962" y1="9.062255514876975" x2="13.71988344478826" y2="10.767325550030753" class="delaunay-line"/>
<line x1="13.71988344478826" y1="10.767325550030753" x2="14.160946422845159" y2="11.832206234685618" class="delaunay-line"/>
<line x1="14.160946422845159" y1="11.832206234685618" x2="23.025137812064962" y2="9.062255514876975" class="delaunay-line"/>
<line x1="14.160946422845159" y1="11.832206234685618" x2="13.71988344478826" y2="10.767325550030753" class="delaunay-line"/>
<line x1="13.71988344478826" y1="10.767325550030753" x2="12.957024247091363" y2="16.550367548166612" class="delaunay-line"/>
<line x1="12.957024247091363" y1="16.550367548166612" x2="14.160946422845159" y2="11.832206234685618" class="delaunay-line"/>
<line x1="13.6154185475117" y1="21.48244459615122" x2="8.65660885254776" y2="27.753332666133034" class="delaunay-line"/>
<line x1="8.65660885254776" y1="27.753332666133034" x2="16.432247924227045" y2="26.780130153304782" class="delaunay-line"/>
<line x1="16.432247924227045" y1="26.780130153304782" x2="13.6154185475117" y2="21.48244459615122" class="delaunay-line"/>
<line x1="16.432247924227045" y1="26.780130153304782" x2="10.224713659002624" y2="32.929099027464076" class="delaunay-line"/>
<line x1="10.224713659002624" y1="32.929099027464076" x2="19.70521829204387" y2="31.481785939714417" class="delaunay-line"/>
<line x1="19.70521829204387" y1="31.481785939714417" x2="16.432247924227045" y2="26.780130153304782" class="delaunay-line"/>
<line x1="5.668890211781358" y1="25.70768866122424" x2="8.65660885254776" y2="27.753332666133034" class="delaunay-line"/>
<line x1="8.65660885254776" y1="27.753332666133034" x2="13.6154185475117" y2="21.48244459615122" class="delaunay-line"/>
<line x1="13.6154185475117" y1="21.48244459615122" x2="5.668890211781358" y2="25.70768866122424" class="delaunay-line"/>
<line x1="5.668890211781358" y1="25.70768866122424" x2="13.6154185475117" y2="21.48244459615122" class="delaunay-line"/>
<line x1="13.6154185475117" y1="21.48244459615122" x2="12.108825562891147" y2="17.470361959401068" class="delaunay-line"/>
<line x1="12.108825562891147" y1="17.470361959401068" x2="5.668890211781358" y2="25.70768866122424" class="delaunay-line"/>
<line x1="35.19829894150846" y1="33.156975517933354" x2="39.290201064527935" y2="32.919427506627414" class="delaunay-line"/>
<line x1="39.290201064527935" y1="32.919427506627414" x2="36.45481093884674" y2="30.493831411460157" class="delaunay-line"/>
<line x1="36.45481093884674" y1="30.493831411460157" x2="35.19829894150846" y2="33.156975517933354" class="delaunay-line"/>
<line x1="40.219141414438646" y1="40.64598761455428" x2="39.290201064527935" y2="32.919427506627414" class="delaunay-line"/>
<line x1="39.290201064527935" y1="32.919427506627414" x2="35.19829894150846" y2="33.156975517933354" class="delaunay-line"/>
<line x1="35.19829894150846" y1="33.156975517933354" x2="40.219141414438646" y2="40.64598761455428" class="delaunay-line"/>
<line x1="41.48754707008346" y1="23.032493258464783" x2="37.942966242589065" y2="10.630182463891776" class="delaunay-line"/>
<line x1="37.942966242589065" y1="10.630182463891776" x2="36.68862468337723" y2="22.564445208311053" class="delaunay-line"/>
<line x1="36.68862468337723" y1="22.564445208311053" x2="41.48754707008346" y2="23.032493258464783" class="delaunay-line"/>
<line x1="8.65660885254776" y1="27.753332666133034" x2="10.224713659002624" y2="32.929099027464076" class="delaunay-line"/>
<line x1="10.224713659002624" y1="32.929099027464076" x2="16.432247924227045" y2="26.780130153304782" class="delaunay-line"/>
<line x1="16.432247924227045" y1="26.780130153304782" x2="8.65660885254776" y2="27.753332666133034" class="delaunay-line"/>
<line x1="21.20895459407739" y1="41.9047769355944" x2="31.241064962100232" y2="41.27379587825141" class="delaunay-line"/>
<line x1="31.241064962100232" y1="41.27379587825141" x2="28.437879828527837" y2="33.65908300011142" class="delaunay-line"/>
<line x1="28.437879828527837" y1="33.65908300011142" x2="21.20895459407739" y2="41.9047769355944" class="delaunay-line"/>
<line x1="8.65660885254776" y1="27.753332666133034" x2="8.485719588496702" y2="31.005374218377803" class="delaunay-line"/>
<line x1="8.485719588496702" y1="31.005374218377803" x2="10.224713659002624" y2="32.929099027464076" class="delaunay-line"/>
<line x1="10.224713659002624" y1="32.929099027464076" x2="8.65660885254776" y2="27.753332666133034" class="delaunay-line"/>
<line x1="21.20895459407739" y1="41.9047769355944" x2="28.437879828527837" y2="33.65908300011142" class="delaunay-line"/>
<line x1="28.437879828527837" y1="33.65908300011142" x2="20.11213050343106" y2="32.9718615708225" class="delaunay-line"/>
<line x1="20.11213050343106" y1="32.9718615708225" x2="21.20895459407739" y2="41.9047769355944" class="delaunay-line"/>
<line x1="29.231167569298822" y1="33.78414629753927" x2="31.241064962100232" y2="41.27379587825141" class="delaunay-line"/>
<line x1="31.241064962100232" y1="41.27379587825141" x2="35.19829894150846" y2="33.156975517933354" class="delaunay-line"/>
<line x1="35.19829894150846" y1="33.156975517933354" x2="29.231167569298822" y2="33.78414629753927" class="delaunay-line"/>
<line x1="10.224713659002624" y1="32.929099027464076" x2="21.20895459407739" y2="41.9047769355944" class="delaunay-line"/>
<line x1="21.20895459407739" y1="41.9047769355944" x2="20.11213050343106" y2="32.9718615708225" class="delaunay-line"/>
<line x1="20.11213050343106" y1="32.9718615708225" x2="10.224713659002624" y2="32.929099027464076" class="delaunay-line"/>
<line x1="39.290201064527935" y1="32.919427506627414" x2="44.08201412481169" y2="29.30853736771512" class="delaunay-line"/>
<line x1="44.08201412481169" y1="29.30853736771512" x2="36.45481093884674" y2="30.493831411460157" class="delaunay-line"/>
<line x1="36.45481093884674" y1="30.493831411460157" x2="39.290201064527935" y2="32.919427506627414" class="delaunay-line"/>
<line x1="40.219141414438646" y1="40.64598761455428" x2="41.429036374176995" y2="33.84898883228464" class="delaunay-line"/>
<line x1="41.429036374176995" y1="33.84898883228464" x2="39.290201064527935" y2="32.919427506627414" class="delaunay-line"/>
<line x1="39.290201064527935" y1="32.919427506627414" x2="40.219141414438646" y2="40.64598761455428" class="delaunay-line"/>
<line x1="3.651591975817972" y1="14.39218066947005" x2="5.668890211781358" y2="25.70768866122424" class="delaunay-line"/>
<line x1="5.668890211781358" y1="25.70768866122424" x2="12.108825562891147" y2="17.470361959401068" class="delaunay-line"/>
<line x1="12.108825562891147" y1="17.470361959401068" x2="3.651591975817972" y2="14.39218066947005" class="delaunay-line"/>
<line x1="8.65660885254776" y1="27.753332666133034" x2="2.592280793594789" y2="28.15982564936523" class="delaunay-line"/>
<line x1="2.592280793594789" y1="28.15982564936523" x2="8.485719588496702" y2="31.005374218377803" class="delaunay-line"/>
<line x1="8.485719588496702" y1="31.005374218377803" x2="8.65660885254776" y2="27.753332666133034" class="delaunay-line"/>
<line x1="41.429036374176995" y1="33.84898883228464" x2="44.08201412481169" y2="29.30853736771512" class="delaunay-line"/>
<line x1="44.08201412481169" y1="29.30853736771512" x2="39.290201064527935" y2="32.919427506627414" class="delaunay-line"/>
<line x1="39.290201064527935" y1="32.919427506627414" x2="41.429036374176995" y2="33.84898883228464" class="delaunay-line"/>
<line x1="41.48754707008346" y1="23.032493258464783" x2="40.92282968170747" y2="9.256028698865236" class="delaunay-line"/>
<line x1="40.92282968170747" y1="9.256028698865236" x2="37.942966242589065" y2="10.630182463891776" class="delaunay-line"/>
<line x1="37.942966242589065" y1="10.630182463891776" x2="41.48754707008346" y2="23.032493258464783" class="delaunay-line"/>
<line x1="46.46177250541371" y1="26.387650679289266" x2="40.92282968170747" y2="9.256028698865236" class="delaunay-line"/>
<line x1="40.92282968170747" y1="9.256028698865236" x2="41.48754707008346" y2="23.032493258464783" class="delaunay-line"/>
<line x1="41.48754707008346" y1="23.032493258464783" x2="46.46177250541371" y2="26.387650679289266" class="delaunay-line"/>
<line x1="37.942966242589065" y1="10.630182463891776" x2="23.328113746141188" y2="1.5472044599342278" class="delaunay-line"/>
<line x1="23.328113746141188" y1="1.5472044599342278" x2="23.025137812064962" y2="9.062255514876975" class="delaunay-line"/>
<line x1="23.025137812064962" y1="9.062255514876975" x2="37.942966242589065" y2="10.630182463891776" class="delaunay-line"/>
<line x1="2.592280793594789" y1="28.15982564936523" x2="8.2015766837352" y2="34.43429369168426" class="delaunay-line"/>
<line x1="8.2015766837352" y1="34.43429369168426" x2="8.485719588496702" y2="31.005374218377803" class="delaunay-line"/>
<line x1="8.485719588496702" y1="31.005374218377803" x2="2.592280793594789" y2="28.15982564936523" class="delaunay-line"/>
<line x1="8.485719588496702" y1="31.005374218377803" x2="8.2015766837352" y2="34.43429369168426" class="delaunay-line"/>
<line x1="8.2015766837352" y1="34.43429369168426" x2="10.224713659002624" y2="32.929099027464076" class="delaunay-line"/>
<line x1="10.224713659002624" y1="32.929099027464076" x2="8.485719588496702" y2="31.005374218377803" class="delaunay-line"/>
<line x1="10.224713659002624" y1="32.929099027464076" x2="9.298400774381525" y2="43.36720905645616" class="delaunay-line"/>
<line x1="9.298400774381525" y1="43.36720905645616" x2="21.20895459407739" y2="41.9047769355944" class="delaunay-line"/>
<line x1="21.20895459407739" y1="41.9047769355944" x2="10.224713659002624" y2="32.929099027464076" class="delaunay-line"/>
<line x1="23.025137812064962" y1="9.062255514876975" x2="12.311973259426182" y2="1.8781304846745115" class="delaunay-line"/>
<line x1="12.311973259426182" y1="1.8781304846745115" x2="13.71988344478826" y2="10.767325550030753" class="delaunay-line"/>
<line x1="13.71988344478826" y1="10.767325550030753" x2="23.025137812064962" y2="9.062255514876975" class="delaunay-line"/>
<line x1="37.81700114047722" y1="-2.3350812166035833" x2="23.328113746141188" y2="1.5472044599342278" class="delaunay-line"/>
<line x1="23.328113746141188" y1="1.5472044599342278" x2="37.942966242589065" y2="10.630182463891776" class="delaunay-line"/>
<line x1="37.942966242589065" y1="10.630182463891776" x2="37.81700114047722" y2="-2.3350812166035833" class="delaunay-line"/>
<line x1="49.49834933318013" y1="36.49625695814076" x2="46.46177250541371" y2="26.387650679289266" class="delaunay-line"/>
<line x1="46.46177250541371" y1="26.387650679289266" x2="44.08201412481169" y2="29.30853736771512" class="delaunay-line"/>
<line x1="44.08201412481169" y1="29.30853736771512" x2="49.49834933318013" y2="36.49625695814076" class="delaunay-line"/>
<line x1="44.08201412481169" y1="29.30853736771512" x2="46.46177250541371" y2="26.387650679289266" class="delaunay-line"/>
<line x1="46.46177250541371" y1="26.387650679289266" x2="41.48754707008346" y2="23.032493258464783" class="delaunay-line"/>
<line x1="41.48754707008346" y1="23.032493258464783" x2="44.08201412481169" y2="29.30853736771512" class="delaunay-line"/>
<line x1="5.703712835771984" y1="8.754024944754601" x2="4.554800408616547" y2="13.325056002258911" class="delaunay-line"/>
<line x1="4.554800408616547" y1="13.325056002258911" x2="13.71988344478826" y2="10.767325550030753" class="delaunay-line"/>
<line x1="13.71988344478826" y1="10.767325550030753" x2="5.703712835771984" y2="8.754024944754601" class="delaunay-line"/>
<line x1="13.71988344478826" y1="10.767325550030753" x2="4.554800408616547" y2="13.325056002258911" class="delaunay-line"/>
<line x1="4.554800408616547" y1="13.325056002258911" x2="12.957024247091363" y2="16.550367548166612" class="delaunay-line"/>
<line x1="12.957024247091363" y1="16.550367548166612" x2="13.71988344478826" y2="10.767325550030753" class="delaunay-line"/>
<line x1="4.554800408616547" y1="13.325056002258911" x2="3.651591975817972" y2="14.39218066947005" class="delaunay-line"/>
<line x1="3.651591975817972" y1="14.39218066947005" x2="12.108825562891147" y2="17.470361959401068" class="delaunay-line"/>
<line x1="12.108825562891147" y1="17.470361959401068" x2="4.554800408616547" y2="13.325056002258911" class="delaunay-line"/>
<line x1="0.2543850140729442" y1="24.528021120225333" x2="2.592280793594789" y2="28.15982564936523" class="delaunay-line"/>
<line x1="2.592280793594789" y1="28.15982564936523" x2="5.668890211781358" y2="25.70768866122424" class="delaunay-line"/>
<line x1="5.668890211781358" y1="25.70768866122424" x2="0.2543850140729442" y2="24.528021120225333" class="delaunay-line"/>
<line x1="5.668890211781358" y1="25.70768866122424" x2="2.592280793594789" y2="28.15982564936523" class="delaunay-line"/>
<line x1="2.592280793594789" y1="28.15982564936523" x2="8.65660885254776" y2="27.753332666133034" class="delaunay-line"/>
<line x1="8.65660885254776" y1="27.753332666133034" x2="5.668890211781358" y2="25.70768866122424" class="delaunay-line"/>
<line x1="31.241064962100232" y1="41.27379587825141" x2="40.219141414438646" y2="40.64598761455428" class="delaunay-line"/>
<line x1="40.219141414438646" y1="40.64598761455428" x2="35.19829894150846" y2="33.156975517933354" class="delaunay-line"/>
<line x1="35.19829894150846" y1="33.156975517933354" x2="31.241064962100232" y2="41.27379587825141" class="delaunay-line"/>
<line x1="41.429036374176995" y1="33.84898883228464" x2="49.49834933318013" y2="36.49625695814076" class="delaunay-line"/>
<line x1="49.49834933318013" y1="36.49625695814076" x2="44.08201412481169" y2="29.30853736771512" class="delaunay-line"/>
<line x1="44.08201412481169" y1="29.30853736771512" x2="41.429036374176995" y2="33.84898883228464" class="delaunay-line"/>
<line x1="-0.5872347918044403" y1="33.248114226303784" x2="7.045198073603395" y2="38.01738760440263" class="delaunay-line"/>
<line x1="7.045198073603395" y1="38.01738760440263" x2="8.2015766837352" y2="34.43429369168426" class="delaunay-line"/>
<line x1="8.2015766837352" y1="34.43429369168426" x2="-0.5872347918044403" y2="33.248114226303784" class="delaunay-line"/>
<line x1="8.2015766837352" y1="34.43429369168426" x2="7.045198073603395" y2="38.01738760440263" class="delaunay-line"/>
<line x1="7.045198073603395" y1="38.01738760440263" x2="10.224713659002624" y2="32.929099027464076" class="delaunay-line"/>
<line x1="10.224713659002624" y1="32.929099027464076" x2="8.2015766837352" y2="34.43429369168426" class="delaunay-line"/>
<line x1="4.554800408616547" y1="13.325056002258911" x2="1.8676233576466066" y2="12.644539130513524" class="delaunay-line"/>
<line x1="1.8676233576466066" y1="12.644539130513524" x2="3.651591975817972" y2="14.39218066947005" class="delaunay-line"/>
<line x1="3.651591975817972" y1="14.39218066947005" x2="4.554800408616547" y2="13.325056002258911" class="delaunay-line"/>
<line x1="12.311973259426182" y1="1.8781304846745115" x2="5.703712835771984" y2="8.754024944754601" class="delaunay-line"/>
<line x1="5.703712835771984" y1="8.754024944754601" x2="13.71988344478826" y2="10.767325550030753" class="delaunay-line"/>
<line x1="13.71988344478826" y1="10.767325550030753" x2="12.311973259426182" y2="1.8781304846745115" class="delaunay-line"/>
<line x1="23.328113746141188" y1="1.5472044599342278" x2="12.311973259426182" y2="1.8781304846745115" class="delaunay-line"/>
<line x1="12.311973259426182" y1="1.8781304846745115" x2="23.025137812064962" y2="9.062255514876975" class="delaunay-line"/>
<line x1="23.025137812064962" y1="9.062255514876975" x2="23.328113746141188" y2="1.5472044599342278" class="delaunay-line"/>
<line x1="3.651591975817972" y1="14.39218066947005" x2="0.2543850140729442" y2="24.528021120225333" class="delaunay-line"/>
<line x1="0.2543850140729442" y1="24.528021120225333" x2="5.668890211781358" y2="25.70768866122424" class="delaunay-line"/>
<line x1="5.668890211781358" y1="25.70768866122424" x2="3.651591975817972" y2="14.39218066947005" class="delaunay-line"/>
<line x1="2.592280793594789" y1="28.15982564936523" x2="-0.5872347918044403" y2="33.248114226303784" class="delaunay-line"/>
<line x1="-0.5872347918044403" y1="33.248114226303784" x2="8.2015766837352" y2="34.43429369168426" class="delaunay-line"/>
<line x1="8.2015766837352" y1="34.43429369168426" x2="2.592280793594789" y2="28.15982564936523" class="delaunay-line"/>
<line x1="5.703712835771984" y1="8.754024944754601" x2="1.8676233576466066" y2="12.644539130513524" class="delaunay-line"/>
<line x1="1.8676233576466066" y1="12.644539130513524" x2="4.554800408616547" y2="13.325056002258911" class="delaunay-line"/>
<line x1="4.554800408616547" y1="13.325056002258911" x2="5.703712835771984" y2="8.754024944754601" class="delaunay-line"/>
<line x1="3.651591975817972" y1="14.39218066947005" x2="1.8676233576466066" y2="12.644539130513524" class="delaunay-line"/>
<line x1="1.8676233576466066" y1="12.644539130513524" x2="0.2543850140729442" y2="24.528021120225333" class="delaunay-line"/>
<line x1="0.2543850140729442" y1="24.528021120225333" x2="3.651591975817972" y2="14.39218066947005" class="delaunay-line"/>
<line x1="0.4597131722845278" y1="3.7553440651572827" x2="1.8676233576466066" y2="12.644539130513524" class="delaunay-line"/>
<line x1="1.8676233576466066" y1="12.644539130513524" x2="5.703712835771984" y2="8.754024944754601" class="delaunay-line"/>
<line x1="5.703712835771984" y1="8.754024944754601" x2="0.4597131722845278" y2="3.7553440651572827" class="delaunay-line"/>
<line x1="21.20895459407739" y1="41.9047769355944" x2="31.659603804564988" y2="47.259180179810365" class="delaunay-line"/>
<line x1="31.659603804564988" y1="47.259180179810365" x2="31.241064962100232" y2="41.27379587825141" class="delaunay-line"/>
<line x1="31.241064962100232" y1="41.27379587825141" x2="21.20895459407739" y2="41.9047769355944" class="delaunay-line"/>
<line x1="31.241064962100232" y1="41.27379587825141" x2="40.6376802569034" y2="46.63137191611323" class="delaunay-line"/>
<line x1="40.6376802569034" y1="46.63137191611323" x2="40.219141414438646" y2="40.64598761455428" class="delaunay-line"/>
<line x1="40.219141414438646" y1="40.64598761455428" x2="31.241064962100232" y2="41.27379587825141" class="delaunay-line"/>
<line x1="9.298400774381525" y1="43.36720905645616" x2="31.659603804564988" y2="47.259180179810365" class="delaunay-line"/>
<line x1="31.659603804564988" y1="47.259180179810365" x2="21.20895459407739" y2="41.9047769355944" class="delaunay-line"/>
<line x1="21.20895459407739" y1="41.9047769355944" x2="9.298400774381525" y2="43.36720905645616" class="delaunay-line"/>
<line x1="0" y1="48" x2="9.298400774381525" y2="43.36720905645616" class="delaunay-line"/>
<line x1="9.298400774381525" y1="43.36720905645616" x2="7.045198073603395" y2="38.01738760440263" class="delaunay-line"/>
<line x1="7.045198073603395" y1="38.01738760440263" x2="0" y2="48" class="delaunay-line"/>
<line x1="7.045198073603395" y1="38.01738760440263" x2="9.298400774381525" y2="43.36720905645616" class="delaunay-line"/>
<line x1="9.298400774381525" y1="43.36720905645616" x2="10.224713659002624" y2="32.929099027464076" class="delaunay-line"/>
<line x1="10.224713659002624" y1="32.929099027464076" x2="7.045198073603395" y2="38.01738760440263" class="delaunay-line"/>
<line x1="40.6376802569034" y1="46.63137191611323" x2="44.70653627289637" y2="40.10714709705306" class="delaunay-line"/>
<line x1="44.70653627289637" y1="40.10714709705306" x2="40.219141414438646" y2="40.64598761455428" class="delaunay-line"/>
<line x1="40.219141414438646" y1="40.64598761455428" x2="40.6376802569034" y2="46.63137191611323" class="delaunay-line"/>
<line x1="40.219141414438646" y1="40.64598761455428" x2="44.70653627289637" y2="40.10714709705306" class="delaunay-line"/>
<line x1="44.70653627289637" y1="40.10714709705306" x2="41.429036374176995" y2="33.84898883228464" class="delaunay-line"/>
<line x1="41.429036374176995" y1="33.84898883228464" x2="40.219141414438646" y2="40.64598761455428" class="delaunay-line"/>
<line x1="0.2543850140729442" y1="24.528021120225333" x2="-0.5872347918044403" y2="33.248114226303784" class="delaunay-line"/>
<line x1="-0.5872347918044403" y1="33.248114226303784" x2="2.592280793594789" y2="28.15982564936523" class="delaunay-line"/>
<line x1="2.592280793594789" y1="28.15982564936523" x2="0.2543850140729442" y2="24.528021120225333" class="delaunay-line"/>
<line x1="48" y1="0" x2="37.81700114047722" y2="-2.3350812166035833" class="delaunay-line"/>
<line x1="37.81700114047722" y1="-2.3350812166035833" x2="40.92282968170747" y2="9.256028698865236" class="delaunay-line"/>
<line x1="40.92282968170747" y1="9.256028698865236" x2="48" y2="0" class="delaunay-line"/>
<line x1="40.92282968170747" y1="9.256028698865236" x2="37.81700114047722" y2="-2.3350812166035833" class="delaunay-line"/>
<line x1="37.81700114047722" y1="-2.3350812166035833" x2="37.942966242589065" y2="10.630182463891776" class="delaunay-line"/>
<line x1="37.942966242589065" y1="10.630182463891776" x2="40.92282968170747" y2="9.256028698865236" class="delaunay-line"/>
<line x1="23.328113746141188" y1="1.5472044599342278" x2="37.81700114047722" y2="-2.3350812166035833" class="delaunay-line"/>
<line x1="37.81700114047722" y1="-2.3350812166035833" x2="12.311973259426182" y2="1.8781304846745115" class="delaunay-line"/>
<line x1="12.311973259426182" y1="1.8781304846745115" x2="23.328113746141188" y2="1.5472044599342278" class="delaunay-line"/>
<line x1="44.70653627289637" y1="40.10714709705306" x2="49.49834933318013" y2="36.49625695814076" class="delaunay-line"/>
<line x1="49.49834933318013" y1="36.49625695814076" x2="41.429036374176995" y2="33.84898883228464" class="delaunay-line"/>
<line x1="41.429036374176995" y1="33.84898883228464" x2="44.70653627289637" y2="40.10714709705306" class="delaunay-line"/>
<line x1="31.659603804564988" y1="47.259180179810365" x2="40.6376802569034" y2="46.63137191611323" class="delaunay-line"/>
<line x1="40.6376802569034" y1="46.63137191611323" x2="31.241064962100232" y2="41.27379587825141" class="delaunay-line"/>
<line x1="31.241064962100232" y1="41.27379587825141" x2="31.659603804564988" y2="47.259180179810365" class="delaunay-line"/>
<line x1="44.70653627289637" y1="40.10714709705306" x2="48" y2="48" class="delaunay-line"/>
<line x1="48" y1="48" x2="49.49834933318013" y2="36.49625695814076" class="delaunay-line"/>
<line x1="49.49834933318013" y1="36.49625695814076" x2="44.70653627289637" y2="40.10714709705306" class="delaunay-line"/>
<line x1="12.311973259426182" y1="1.8781304846745115" x2="0.4597131722845278" y2="3.7553440651572827" class="delaunay-line"/>
<line x1="0.4597131722845278" y1="3.7553440651572827" x2="5.703712835771984" y2="8.754024944754601" class="delaunay-line"/>
<line x1="5.703712835771984" y1="8.754024944754601" x2="12.311973259426182" y2="1.8781304846745115" class="delaunay-line"/>
<line x1="1.8676233576466066" y1="12.644539130513524" x2="0.4597131722845278" y2="3.7553440651572827" class="delaunay-line"/>
<line x1="0.4597131722845278" y1="3.7553440651572827" x2="0.2543850140729442" y2="24.528021120225333" class="delaunay-line"/>
<line x1="0.2543850140729442" y1="24.528021120225333" x2="1.8676233576466066" y2="12.644539130513524" class="delaunay-line"/>
<line x1="0.2543850140729442" y1="24.528021120225333" x2="0" y2="0" class="delaunay-line"/>
<line x1="0" y1="0" x2="-0.5872347918044403" y2="33.248114226303784" class="delaunay-line"/>
<line x1="-0.5872347918044403" y1="33.248114226303784" x2="0.2543850140729442" y2="24.528021120225333" class="delaunay-line"/>
<line x1="0" y1="0" x2="0.4597131722845278" y2="3.7553440651572827" class="delaunay-line"/>
<line x1="0.4597131722845278" y1="3.7553440651572827" x2="12.311973259426182" y2="1.8781304846745115" class="delaunay-line"/>
<line x1="12.311973259426182" y1="1.8781304846745115" x2="0" y2="0" class="delaunay-line"/>
<line x1="49.49834933318013" y1="36.49625695814076" x2="48" y2="0" class="delaunay-line"/>
<line x1="48" y1="0" x2="46.46177250541371" y2="26.387650679289266" class="delaunay-line"/>
<line x1="46.46177250541371" y1="26.387650679289266" x2="49.49834933318013" y2="36.49625695814076" class="delaunay-line"/>
<line x1="46.46177250541371" y1="26.387650679289266" x2="48" y2="0" class="delaunay-line"/>
<line x1="48" y1="0" x2="40.92282968170747" y2="9.256028698865236" class="delaunay-line"/>
<line x1="40.92282968170747" y1="9.256028698865236" x2="46.46177250541371" y2="26.387650679289266" class="delaunay-line"/>
<line x1="37.81700114047722" y1="-2.3350812166035833" x2="0" y2="0" class="delaunay-line"/>
<line x1="0" y1="0" x2="12.311973259426182" y2="1.8781304846745115" class="delaunay-line"/>
<line x1="12.311973259426182" y1="1.8781304846745115" x2="37.81700114047722" y2="-2.3350812166035833" class="delaunay-line"/>
<line x1="0.4597131722845278" y1="3.7553440651572827" x2="0" y2="0" class="delaunay-line"/>
<line x1="0" y1="0" x2="0.2543850140729442" y2="24.528021120225333" class="delaunay-line"/>
<line x1="0.2543850140729442" y1="24.528021120225333" x2="0.4597131722845278" y2="3.7553440651572827" class="delaunay-line"/>
<line x1="31.659603804564988" y1="47.259180179810365" x2="48" y2="48" class="delaunay-line"/>
<line x1="48" y1="48" x2="40.6376802569034" y2="46.63137191611323" class="delaunay-line"/>
<line x1="40.6376802569034" y1="46.63137191611323" x2="31.659603804564988" y2="47.259180179810365" class="delaunay-line"/>
<line x1="40.6376802569034" y1="46.63137191611323" x2="48" y2="48" class="delaunay-line"/>
<line x1="48" y1="48" x2="44.70653627289637" y2="40.10714709705306" class="delaunay-line"/>
<line x1="44.70653627289637" y1="40.10714709705306" x2="40.6376802569034" y2="46.63137191611323" class="delaunay-line"/>
<line x1="-0.5872347918044403" y1="33.248114226303784" x2="0" y2="48" class="delaunay-line"/>
<line x1="0" y1="48" x2="7.045198073603395" y2="38.01738760440263" class="delaunay-line"/>
<line x1="7.045198073603395" y1="38.01738760440263" x2="-0.5872347918044403" y2="33.248114226303784" class="delaunay-line"/>
<line x1="9.298400774381525" y1="43.36720905645616" x2="0" y2="48" class="delaunay-line"/>
<line x1="0" y1="48" x2="31.659603804564988" y2="47.259180179810365" class="delaunay-line"/>
<line x1="31.659603804564988" y1="47.259180179810365" x2="9.298400774381525" y2="43.36720905645616" class="delaunay-line"/>
<line x1="31.659603804564988" y1="47.259180179810365" x2="0" y2="48" class="delaunay-line"/>
<line x1="0" y1="48" x2="48" y2="48" class="delaunay-line"/>
<line x1="48" y1="48" x2="31.659603804564988" y2="47.259180179810365" class="delaunay-line"/>
</g>
<g id="layer-area" class="layer ">
<polygon points="41.429036374176995,33.84898883228464 36.45481093884674,30.493831411460157 41.48754707008346,23.032493258464783 46.46177250541371,26.387650679289266" class="terrain-area"/>
<text x="41.45829172213023" y="28.44074104537471" class="label">#C49A6C</text>
<polygon points="31.659603804564988,47.259180179810365 31.241064962100232,41.27379587825141 40.219141414438646,40.64598761455428 40.6376802569034,46.63137191611323" class="terrain-area"/>
<text x="35.93937260950182" y="43.95258389718232" class="label">#C49A6C</text>
<polygon points="49.49834933318013,36.49625695814076 44.70653627289637,40.10714709705306 39.290201064527935,32.919427506627414 44.08201412481169,29.30853736771512" class="terrain-area"/>
<text x="44.39427519885403" y="34.70784223238409" class="label">#C49A6C</text>
<polygon points="8.485719588496702,31.005374218377803 5.668890211781358,25.70768866122424 13.6154185475117,21.48244459615122 16.432247924227045,26.780130153304782" class="terrain-area"/>
<text x="11.0505690680042" y="26.24390940726451" class="label">#C49A6C</text>
<polygon points="37.942966242589065,10.630182463891776 36.68862468337723,22.564445208311053 21.770796252853124,20.996518259296256 23.025137812064962,9.062255514876975" class="terrain-area"/>
<text x="29.8568812477211" y="15.813350361594013" class="label">#C49A6C</text>
<polygon points="14.160946422845159,11.832206234685618 12.108825562891147,17.470361959401068 3.651591975817972,14.39218066947005 5.703712835771984,8.754024944754601" class="terrain-area"/>
<text x="8.906269199331565" y="13.112193452077836" class="label">#C49A6C</text>
<polygon points="4.554800408616547,13.325056002258911 12.957024247091363,16.550367548166612 8.65660885254776,27.753332666133034 0.2543850140729442,24.528021120225333" class="terrain-area"/>
<text x="6.605704630582155" y="20.539194334195972" class="label">#C49A6C</text>
<polygon points="28.290411399889944,24.833449239224812 34.257542772099576,24.206278459618893 35.19829894150846,33.156975517933354 29.231167569298822,33.78414629753927" class="terrain-area"/>
<text x="31.744355170699198" y="28.995212378579083" class="label">#C49A6C</text>
<polygon points="37.81700114047722,-2.3350812166035833 40.92282968170747,9.256028698865236 26.43394228737144,13.138314375403048 23.328113746141188,1.5472044599342278" class="terrain-area"/>
<text x="32.12547171392433" y="5.401616579399732" class="label">#C49A6C</text>
<polygon points="10.224713659002624,32.929099027464076 7.045198073603395,38.01738760440263 -0.5872347918044403,33.248114226303784 2.592280793594789,28.15982564936523" class="terrain-area"/>
<text x="4.818739433599092" y="33.08860662688393" class="label">#C49A6C</text>
<polygon points="12.311973259426182,1.8781304846745115 13.71988344478826,10.767325550030753 1.8676233576466066,12.644539130513524 0.4597131722845278,3.7553440651572827" class="terrain-area"/>
<text x="7.089798308536394" y="7.261334807594017" class="label">#C49A6C</text>
<polygon points="28.437879828527837,33.65908300011142 19.70521829204387,31.481785939714417 22.60828103923988,19.83823722440246 31.340942575723847,22.015534284799468" class="terrain-area"/>
<text x="25.52308043388386" y="26.748660112256943" class="label">#C49A6C</text>
<polygon points="20.11213050343106,32.9718615708225 21.20895459407739,41.9047769355944 9.298400774381525,43.36720905645616 8.2015766837352,34.43429369168426" class="terrain-area"/>
<text x="14.705265638906294" y="38.16953531363933" class="label">#C49A6C</text>
</g>
<g id="layer-building" class="layer ">
</g>
<g id="layer-wall" class="layer ">
</g>
<g id="layer-tree" class="layer ">
</g>
<g id="layer-rocks" class="layer ">
</g>
<g id="layer-shrub" class="layer ">
</g>
<g id="layer-terrain" class="layer ">
</g>
<g id="layer-clearance" class="layer hidden">
</g>
<g id="layer-models" class="layer ">
</g>
<g id="layer-paths" class="layer ">
</g>
<g id="layer-vectors" class="layer ">
</g>
<g id="layer-los" class="layer ">
</g>
<g id="layer-lof" class="layer ">
</g>

<g id="legend">
<g class="toggle" onclick="toggleLayer('deployment')"><rect x="0.4" y="0.14999999999999997" width="0.4" height="0.4" fill="#222" stroke="#222" stroke-width="0.05"/><text x="1.0" y="0.5499999999999999" class="label">Deployment Zones</text></g>
<g class="toggle" onclick="toggleLayer('grid')"><rect x="0.4" y="0.95" width="0.4" height="0.4" fill="#222" stroke="#222" stroke-width="0.05"/><text x="1.0" y="1.3499999999999999" class="label">0.5 MU Grid</text></g>
<g class="toggle" onclick="toggleLayer('delaunay')"><rect x="0.4" y="1.7500000000000002" width="0.4" height="0.4" fill="#222" stroke="#222" stroke-width="0.05"/><text x="1.0" y="2.1500000000000004" class="label">Delaunay Mesh</text></g>
<g class="toggle" onclick="toggleLayer('area')"><rect x="0.4" y="2.55" width="0.4" height="0.4" fill="#222" stroke="#222" stroke-width="0.05"/><text x="1.0" y="2.95" class="label">Area Terrain</text></g>
<g class="toggle disabled"><rect x="0.4" y="3.3499999999999996" width="0.4" height="0.4" fill="#222" stroke="#222" stroke-width="0.05"/><text x="1.0" y="3.75" class="label">Buildings</text></g>
<g class="toggle disabled"><rect x="0.4" y="4.1499999999999995" width="0.4" height="0.4" fill="#222" stroke="#222" stroke-width="0.05"/><text x="1.0" y="4.55" class="label">Walls</text></g>
<g class="toggle disabled"><rect x="0.4" y="4.949999999999999" width="0.4" height="0.4" fill="#222" stroke="#222" stroke-width="0.05"/><text x="1.0" y="5.35" class="label">Trees</text></g>
<g class="toggle disabled"><rect x="0.4" y="5.749999999999999" width="0.4" height="0.4" fill="#222" stroke="#222" stroke-width="0.05"/><text x="1.0" y="6.1499999999999995" class="label">Rocks</text></g>
<g class="toggle disabled"><rect x="0.4" y="6.549999999999999" width="0.4" height="0.4" fill="#222" stroke="#222" stroke-width="0.05"/><text x="1.0" y="6.949999999999999" class="label">Shrubs</text></g>
<g class="toggle" onclick="toggleLayer('terrain')"><rect x="0.4" y="7.349999999999999" width="0.4" height="0.4" fill="#222" stroke="#222" stroke-width="0.05"/><text x="1.0" y="7.749999999999999" class="label">Other Terrain</text></g>
<g class="toggle" onclick="toggleLayer('clearance')"><rect x="0.4" y="8.15" width="0.4" height="0.4" fill="#fff" stroke="#222" stroke-width="0.05"/><text x="1.0" y="8.549999999999999" class="label">Clearance Zones</text></g>
<g class="toggle" onclick="toggleLayer('models')"><rect x="0.4" y="8.950000000000001" width="0.4" height="0.4" fill="#222" stroke="#222" stroke-width="0.05"/><text x="1.0" y="9.35" class="label">Models</text></g>
<g class="toggle" onclick="toggleLayer('paths')"><rect x="0.4" y="9.750000000000002" width="0.4" height="0.4" fill="#222" stroke="#222" stroke-width="0.05"/><text x="1.0" y="10.15" class="label">Paths</text></g>
<g class="toggle" onclick="toggleLayer('vectors')"><rect x="0.4" y="10.550000000000002" width="0.4" height="0.4" fill="#222" stroke="#222" stroke-width="0.05"/><text x="1.0" y="10.950000000000001" class="label">Vectors</text></g>
<g class="toggle" onclick="toggleLayer('los')"><rect x="0.4" y="11.350000000000003" width="0.4" height="0.4" fill="#222" stroke="#222" stroke-width="0.05"/><text x="1.0" y="11.750000000000002" class="label">LOS</text></g>
<g class="toggle" onclick="toggleLayer('lof')"><rect x="0.4" y="12.150000000000004" width="0.4" height="0.4" fill="#222" stroke="#222" stroke-width="0.05"/><text x="1.0" y="12.550000000000002" class="label">LOF</text></g>
</g>
</svg>